<?xml version="1.0" encoding="UTF-8"?>
<!-- Created with Inkscape (http://www.inkscape.org/) -->
<svg version="1.1" viewBox="0 0 756.77 732.26" xmlns="http://www.w3.org/2000/svg">
 <g>
  <path d="m370.72 732.26c-17.495 1.5321-31.996-2.5102-49.167-3.1377-9.4193-3.6373-19.83-2.9156-27.613-7.0807-20.381-5.6715-39.982-14.475-59.869-24.504-15.941-8.8934-33.201-20.658-46.621-33.666-8.5268-6.1104-15.688-17.538-27.942-14.399-25.687-.48243-52.762 2.4558-77.595-.12974-2.8802-28.173-.4122-58.561-1.2348-87.586-5.1115-9.4435-18.197-19.899-24.91-30.609-9.4876-12.34-17.485-25.678-25.721-40.601-10.688-18.832-16.674-39.347-22.397-59.793-2.3423-10.129-4.7456-19.654-5.3309-30.827-1.8886-14.62-3.0112-28.795-2.322-44.387.23766-11.293 3.3187-20.946 2.911-33.697 4.517-19.494 9.9103-39.882 17.63-57.909 4.6049-13.283 12.246-26.405 18.858-38.008 5.1374-10.173 13.878-22.231 22.898-32.591 6.9281-10.95 22.871-17.963 18.384-33.217.69749-23.384-1.3824-48.317 1.0213-70.75-1.3061-14.845 18.427-6.7356 28.265-8.744 20.804.0079 41.608.01575 62.412.02363 6.6893-5.6295 13.649-12.102 22.531-18.431 12.516-12.042 27.367-19.492 41.143-27.813 7.9272-4.9931 16.981-10.125 25.306-12.334 7.9391-3.8205 14.436-5.8987 24.089-9.3532 14.842-5.4254 29.823-8.065 45.258-9.9805 15.666-1.1127 30.465-3.9899 46.421-2.1597 19.642.17295 39.697 3.7636 57.253 8.586 16.831 4.3676 33.538 11.026 49.216 18.418 9.0238 4.4753 15.759 7.7713 24.491 13.122 13.657 7.4164 23.952 16.765 35.159 26.186 9.9728 5.4969 17.371 18.938 31.086 14.819h75.972c5.1956 13.8.80995 31.051 2.2221 46.213 1.057 11.732-3.4331 20.359-1.9719 32.304-.78947 8.4636 5.0236 18.532 12.379 24.73 6.4155 7.2376 13.605 16.153 18.2 22.88 11.162 15.876 20.972 31.997 28.144 50.043 5.601 10.468 8.0015 21.789 12.83 32.709 3.4494 13.714 6.9898 26.833 7.3515 41.378 2.4733 9.4312 2.9155 20.135 3.8024 30.196.12693 21.586-1.8517 42.356-6.6225 62.696-.68067 11.632-7.5604 21.471-8.5491 33.148-4.3152 5.0859-5.8209 15.55-9.8339 22.001-4.7394 9.7843-10.977 20.894-17.872 31.2-6.8542 12.658-16.662 23.747-25.532 35.092-5.4871 5.1192-17.079 15.405-13.367 27.193-.83742 25.259.94885 51.661-1.6863 76.19-28.863 3.2808-59.843-1.9657-89.221 2.9982-14.659 13.094-28.421 26.111-44.256 35.596-13.532 9.6478-28.815 17.263-43.098 23.045-8.9166 3.1028-14.366 6.3711-23.12 7.7348-16.625 6.4179-33.816 10.556-51.82 11.383-6.4455 4.2732-19.324.59094-27.56 1.8246zm-1.5319-9.1915c12.489.61518 24.139-.27243 35.298-2.0426 9.7232-2.1718 20.345-3.9409 30.664-6.1912 7.1173-3.4402 17.82-4.4123 26.574-8.6411 15.34-5.2855 28.364-13.692 43.607-20.976 9.4117-8.2779 20.148-12.012 29.361-21.798 9.9996-5.9372 16.313-19.301 28.338-19.777 26.322-.82604 53.345.002 79.242-1.8293 1.6126-28.349.44278-57.802 1.1275-86.575 7.2669-6.6765 16.614-16.627 21.447-21.437 14.623-19.618 30.144-42.47 39.884-66.985 4.0927-8.469 8.0071-20.09 10.739-29.472 4.0519-17.082 10.137-34.941 8.6111-53.217 3.5609-8.2047 3.0869-23.268.0811-31.78-.79166-21.34-7.0002-41.566-10.529-62.299-4.3644-7.1581-6.3337-20.527-12.275-28.426-4.7473-14.718-15.15-30.782-23.745-43.064-5.467-7.1782-10.119-14.953-16.851-22.169-6.7227-9.8661-21.867-16.231-17.362-30.765-.71052-24.537 1.4037-50.648-1.0334-74.222-28.819-1.852-58.467.72321-87.543-1.725-20.214-19.27-40.117-35.595-64.769-48.408-14.691-7.6793-30.622-14.557-46.825-18.958-6.5907-4.2291-18.141-3.9588-26.951-7.8428-10.72-2.4557-22.717-3.0064-32.793-4.2502-12.947-2.0304-28.926-1.6152-41.47 1.0434-13.084-.37225-24.19 2.6723-35.582 5.5076-11.212 2.3005-20.791 5.3236-31.9 9.3005-16.233 5.6298-32.406 12.616-45.846 22.457-12.214 6.4351-21.376 15.273-32.031 22.977-10.655 6.1857-17.464 22.02-32.345 17.448-24.474-.04929-48.948-.09859-73.421-.14788.008 26.833-.54878 53.671.18539 80.499-1.8391 10.07-13.278 17.504-19.59 26.221-8.6346 11.349-18.647 22.164-24.799 35.057-8.7333 14.549-17.007 30.906-22.517 47.04-3.3831 10.373-7.2153 19.744-8.0599 31.321-3.4491 10.733-4.5617 19.654-5.4164 30.954-2.4104 19.314-3.3521 39.624.53749 58.401.09105 9.8945 2.2643 19.662 5.1483 28.648 1.5821 9.4736 2.8207 16.796 8.1283 25.826.8537 10.615 7.1071 19.987 11.776 29.532 4.223 9.8199 12.241 21.08 18.538 32.527 6.9939 8.5952 12.802 18.514 20.226 25.175 4.2871 7.156 18.705 13.67 14.894 26.18.50812 24.604-1.4757 50.232.57959 74.199 27.879 2.2408 57.346-.20659 85.856.98251 10.438 10.593 21.66 20.569 32.8 28.086 5.3478 5.386 12.641 9.6779 20.86 14.724 12.151 7.2452 22.714 14.334 36.514 17.608 5.1287 4.9246 18.375 6.5074 25.622 10.234 11.015 1.9352 21.481 5.0905 32.199 8.1024 15.652.81749 28.755 4.3582 44.817 2.9471zm-1.7029-11.648c-12.623 1.7994-22.436-1.4012-34.17-1.6283-8.6802-2.7819-19.715-2.4113-27.702-5.5978-14.73-3.1929-30.255-9.9104-43.094-15.272-10.331-3.6635-15.707-9.4028-24.145-13.342-19.192-11.519-39.103-25.179-53.526-42.405-7.1204-6.8258-23.801-2.2153-35.349-3.5528-16.207-.96945-33.568 1.9476-49.059-1.4309.0913-25.637.18257-51.273.27386-76.91-5.8587-7.1088-16.239-15.631-22.079-23.971-9.5364-11.214-17.679-23.983-25.996-37.092-7.5051-11.689-10.447-22.541-16.898-34.528-.8519-8.1936-7.1816-17.466-8.1702-27.597-6.8002-23.182-7.8822-50.564-8.2831-76.181 4.6208-11.392 1.1002-24.731 5.5622-35.983 5.141-30.757 19.394-58.51 34.096-86.213 5.2134-6.8877 9.1975-11.376 13.841-19.13 6.8169-8.1921 15.047-16.687 21.166-23.349 7.4986-4.3431 8.1688-16.037 6.1277-24.296.23878-14.955-.73232-32.935.97445-46.029-2.4876-6.3888-.89649-22.532 13.962-16.93 21.745.05692 43.49.11385 65.235.17077 12.155-13.089 26.722-23.066 39.7-34.787 9.1498-3.4453 19.214-13.019 26.494-16.34 15.684-8.3876 32.997-15.461 49.165-19.333 10.515-2.5367 19.791-5.4889 30.802-6.9152 20.968-4.8669 43.921-1.8274 66.016-2.5527 8.125 4.2991 20.476 2.7592 28.784 6.2369 11.499 3.0091 22.444 6.1995 33.761 9.9629 16.779 6.8768 36.164 15.577 49.277 26.239 13.502 8.1776 25.231 17.792 37.021 28.53 4.7794 8.8183 18.132 11.762 29.554 9.9165h60.319c.14393 26.536.25731 53.073.51064 79.609 19.418 17.918 33.161 38.355 48.374 59.795 4.8191 13.249 13.824 25.942 17.499 40.473 5.1528 11.536 7.6416 24.285 10.445 36.389 7.9592 27.186 2.8632 56.709 4.3636 84.909-5.5747 8.1448-3.1841 22.246-7.9092 29.755-4.5526 18.223-11.222 34.137-20.176 51.102-1.7366 8.3807-11.946 15.846-15.037 25.969-10.894 13.196-21.052 27.469-34.817 39.224-5.2124 11.441-.90923 26.894-2.4288 39.892-.14834 13.63.15439 27.278-.8235 40.884-10.412 2.4215-18.503 3.2033-28.876 1.3381-10.294 1.6217-20.144-.0448-28.316 1.976-9.4385-1.0418-14.803-2.2452-22.311.33269-3.8669 7.8671-14.22 11.637-20.009 19.843-8.2178 5.3513-16.244 11.954-24.413 17.358-8.8172 5.0176-18.281 11.608-26.204 15.323-13.803 6.2464-30.626 14.313-46.468 17.361-13.034 3.7448-26.009 6.0781-39.887 7.7971-9.0301.86099-18.119.64773-27.178.98027zm2.186-4.9556c28.251 1.1421 54.944-5.3106 81.045-13.274 15.356-7.6491 32.283-12.167 46.131-22.75 17.06-10.011 32.336-21.89 45.885-35.579 9.0022-7.0066-.0665-20.736-4.6528-26.176-9.5773 4.8922-15.815 17.405-24.65 22.753-7.7432 7.732-16.546 12.24-25.196 17.918-11.739 8.6258-28.65 16.345-43.982 20.932-5.6066 4.9586-19.252 6.0035-28.224 9.7978-15.039.54804-27.902 5.5235-43.261 3.6624-15.887-.1511-31.803 1.3728-46.521-3.3423-11.774-3.076-27.439-4.4636-37.228-9.3774-10.235-4.5579-23.461-10.493-34.829-16.257-9.451-5.4089-16.414-10.145-25.646-17.503-8.4544-5.2764-12.244-11.544-20.161-17.127-5.001-5.8385-8.6515-12.406-15.019-14.521-2.7866 8.6159-11.309 17.77-5.4515 25.146 5.9935 5.3731 18.229 15.484 22.468 21.594 11.906 5.4422 20.877 14.84 32.957 20.479 13.079 10.742 29.37 13.456 44.251 21.542 20.344 4.4117 39.438 10.889 60.818 11.903 7.0677.36308 14.183.0675 21.266.17866zm-2.199-34.513c9.356.31737 16.568-9.192 17.716-15.436-12.925 14.462-8.3492 5.5943-11.872.13429-6.2779-1.2223-30.032-5.1501-17.683 9.6064 3.3422 2.9496 6.936 6.7793 11.838 5.6951zm2.2266-22.527c8.0556.0613 34.861 2.1417 26.797-10.062-10.336-4.0842-13.055-15.04-16.095-24.537-.19982-14.132-.29853-28.265-.56181-42.396-9.2539 3.2271-3.5968 35.943-5.8601 15.768 1.8798-14.845-15.954-17.361-11.086-.0666.54239 15.412-1.3241 32.14-8.539 43.913-10.286 3.187-14.926 18.936 1.6861 17.338 4.5531.0139 9.1062.0278 13.659.0417zm-12.111-6.0156c-11.86-9.523 18.894-9.6355 5.644-2.0426-3.1689-1.1415-3.7741 1.1074-5.644 2.0426zm23.6-.20559c-17.531-1.7509-5.8653-13.016-6.3828-15.522.079-19.511 1.5768-.13221 7.5985 6.2609 6.1498 3.6958 9.0307 9.7209-1.2157 9.2612zm205.12-17.156c9.0356-2.2996 31.44 4.7386 32.368-3.7317-7.1641-7.7088-12.827-21.027-26.146-17.164-16.006.23802-32.012.47603-48.017.71405 1.3722 5.8532 4.5296 22.154 15.653 20.182h26.143zm-441.03-1.6183c11.616-2.0397 26.788 3.3218 36.226-3.2504 2.0051-7.0402 16.856-19.888.46317-17.644-18.172-.31412-37.036-1.7326-54.817 1.3447-4.1453 5.0937-26.08 20.54-9.5109 19.956 9.2129-.13568 18.426-.27137 27.639-.40705zm481.17-3.7945c2.6168-21.205.36303-45.92 1.1233-68.464-8.9658-3.9196-25.988-19.874-21.957-.35702 1.014 17.353-2.0136 36.372 1.4845 52.701 6.1289 6.0355 12.358 13.664 19.35 16.119zm-519.23-2.7574c8.1977-6.9082 13.244-12.971 21.459-18.7v-57.96c-8.6454.94612-23.895 5.829-23.538 16.84.69179 8.8901-1.668 15.938-.97276 28.793 1.7946 9.6206-3.775 24.223 3.0512 31.027zm236.2-13.344c12.7-.86899 15.105-12.744 10.895-22.49-7.8157 7.0465-16.02-6.1318-3.1018-9.1017 7.707-7.4823 23.455-2.0389 33.501-6.1277 5.5955 2.3316 20.514 7.304 14.214 16.386-10.693-15.665-11.59-.25257-13.039 7.0835-5.4566 14.791 11.719 16.072 21.975 13.706 10.583-2.8987 19.058-7.4832 30.225-8.4399 8.9151-4.217 15.144-7.0813 22.181-15.514-5.8804-11.258-14.949 4.6356-23.17 5.9836 1.9456-5.0443 14.83-19.512-.70446-10.014-18.153 8.949 3.069-6.1689-2.6897-9.1915-13.242 9.2366-12.431 3.0989-4.0511-6.454-6.4121-.85997-17.101-1.1926-4.4971-7.9416-16.739 4.9202 1.2275-12.52-12.097-6.0299 3.835-12.429 6.0618-13.196-6.7244-8.1702-13.322-.58175-3.5712 16.272-3.2259 23.381 3.9674 10.398 8.3588 18.633 7.4389 29.555-2.7339 7.0762-9.6303 15.108-20.785 5.339-.92641-9.7841 24.122-8.5387 12.615-21.675-2.3382-9.6997-7.4554-19.894-9.1915-27.593-2.5466-10.162-.29644-18.861.20425-29.598 8.8868-6.9454 1.3234-15.227-9.5803-17.196-10.871-.97612-18.093-3.638-12.757-17.089 2.9286-21.194 3.6069-42.701 4.0173-64.569 4.1687 11.709.57209 27.748 1.7751 41.11 1.3835 10.282-6.1212 24.612-1.0931 32.377 4.2322-9.2541.9394-20.155 4.157-28.908.23058-21.536.34303-42.933-2.0959-63.898-.26727-12.979-.53453-25.959-.8018-38.938 5.2026 5.5386 2.7141 21.165 5.4455 30.693-.2696 18.478 3.9158 34.087 2.5586 52.653-.72057 11.575-.79566 18.715-1.987 30.644-2.1072 14.04.19751 26.452 3.0102 6.9763 2.8601-30.142 4.2762-61.705-.0265-90.852-.98997-10.696-2.5817-24.11-4.0605-33.179-3.5353-8.8266 1.0564-20.194 1.5319-30.128-23.497-3.3773 13.829-4.7254 1.9995-13.573-5.6774-9.6167-5.8957-2.7316-13.001-6.3421-8.0809-1.2193-12.156 13.772-2.8612 16.411-7.8136 6.6816-1.7878 21.279-4.0112 31.12-3.2886 11.886-1.6212 25.079-5.1373 36.847-2.5149 31.524-2.2865 63.572 2.6601 94.402 6.1369 13.224-6.8616 12.363-13.641 20.565 2.0812 9.4659 8.2929 17.822 5.2868 30.056-1.2338 12.607 2.3872 22.374-7.1916 31.109-9.9053 5.9147-8.8474 21.963 3.7259 23.353-2.1174 12.454-9.1202 7.325-12.95 4.1357-5.7657 3.4878-24.47-12.013-11.493-7.8116 18.338 9.9544-7.4898-13.785 8.116-7.0061-.68378-8.9144 7.5794-11.892 10.965-22.08 4.9258-9.6383 8.185-18.96-5.491-19.189-15.918-12.418-3.2842 11.823-12.621 6.4014-12.528-5.3696 6.5334 16.274-11.339 3.1102-5.5652 1.8178 3.3516 15.495-13.521 5.6478 5.6408 12.025-7.8377 5.5207-10.878 6.9628 8.9954 10.639 5.0911 13.022-4.6455 5.3684-11.523-13.192-6.2849 6.3765 1.5549 12.588 11.537 6.8305 21.517 16.207 34.699 21.114 7.0848-1.0644 12.848 4.0151 19.708 4.018zm45.427-42.842c-22.285-1.3646 12.132-6.1548 0 0zm.025-8.1546c-18.622-4.8651 8.7361-6.4365 0 0zm-1.1064-7.1489c-15.737-7.7422 5.353-7.4451 0 0zm-.45052-9.2562c-15.611-3.4141 4.6098-8.8298 0 0zm-2.0426-9.2074c-20.604-.98025 13.308-6.162 0 0zm.79919-7.0683c-13.524-8.0643 9.8811-6.0214 0 0zm-.11834-10.213c-11.441-2.0603 12.509-5.2526 0 0zm92.507 61.586c13.582-.49107 24.476-8.3478 36.259-14.856 5.3147-6.3113 12.038-11.269 16.373-19.853 5.9126-4.5202 16.046-2.9869 24.068-10.536 14.552-13.925 29.726-29.648 33.092-50.056 4.811-9.2496 4.9237-20.003 6.6383-30.097 6.2929 4.3075 2.3284 24.229 11.309 2.1415 9.7532-10.207-3.8802-14.932-2.9761-25.776-1.2674-16.012 9.8128-21.948 5.4869-2.0186-.15745 9.0309 6.483 19.095 16.819 20.387 10.714 5.067 14.188-8.8362 14.831-18.046 7.8113-8.3182.18583-18.353-9.725-14.093-10.666-.68766-15.661 14.445-9.7087 22.324-8.6563 4.6943-14.949-16.013-5.1066-20.675 6.1344-8.1566 18.212-10.029 27.229-4.151 16.356 3.8006 26.035 27.766 12.645 40.876-8.406 3.3422.29232-25.482-13.104-10.837-4.7706 12.413-20.875 6.5091-28.928 10.361 11.643 1.9025-9.5892 4.1914 3.2971 11.028-17.61-.3486-9.321 10.916 4.5647 6.092 15.136.72645 27.556-2.7968 37.266-14.598 9.3493-8.1341 7.1116-23.141 5.2948-34.41-5.6841-9.986 4.2545-19.592.76185-31.043 2.436-10.565-5.2933-28.519 4.4312-34.091 8.2727-9.1032-8.803-19.772-9.9806-26.475 3.3366-10.047 3.8388-22.031-.096-31.506-2.1431-13.187-10.141-22.195-19.68-31.112-3.6248-15.809-8.8281 7.694-8.3224 14.54 1.5514 8.9543 9.611 15.666 16.001 21.275-.62601 15.742 11.445 2.9505 8.0384 21.198 4.0022 16.085-17.782 4.382-24.248 10.565-11.87 6.4435-4.1616 16.598-5.0826 27.894 2.3164 12.955-4.1259 25.097-5.9959 36.924-5.4474-9.6758 3.9301-22.194 1.9448-33.069 1.0084-11.839-6.9314-21.714-1.9448-32.19-3.5143-7.1096-12.206-12.971-13.277-22.526-7.193-8.3382-17.943-7.8457-25.981-15.001-7.258-8.6182-15.661-13.145-24.538-3.4951-11.106 5.9559-19.929 15.195-32.187 19.804-.31653-6.3227 16.49-12.035 21.94-19.124 3.3663-6.5089 19.988-9.6532 15.128-17.964-12.782-9.0305 8.3055-12.268-6.9359-22.104-7.0248-7.765-6.6776-29.967-17.674-12.256-7.6777 12.626-22.438 12.38-35.454 12.788-4.7043 7.2154-19.978 14.334-12.72 23.288-1.9309 9.1904 6.8364 21.185 2.9539 25.44-4.8435-10.125-6.3706-20.915-11.324-29.947-9.0149 1.7175-16.814 5.5351-25.889 7.9896-9.7334 5.2859-20.831 10.975-30.128 14.809.27334-10.524 11.722-18.518 17.856-25.532 7.3547-3.7604 16.888-18.318 24.016-13.509-10.254 4.5082-14.708 11.96-22.164 16.774-9.5664 8.9155-4.4496 12.369 3.1894 3.1188.14062-6.2991 20.096-18.878 10.549-6.5638-6.0076 8.2486 18.874.39555 23.927-4.6911 13.004.21227 14.097-23.794 19.222-19.725 4.4699 3.8465 22.186 3.8733 28.241-2.5602 6.4401-5.5141 11.626-19.505 20.78-9.2301 3.1397 9.8542 9.4365 17.867 15.968 25.009 9.2025-2.4273 24.787 3.687 10.961 4.1174-9.8959-1.7399-23.123 6.4557-7.0995 14.88 4.762 9.3242 15.406 17.891 25.106 20.977-6.1657-8.566 4.5967-13.328-7.8422-17.18-13.542-10.019 5.7147-4.1722 9.8848 1.3502 5.0886-.16972 11.336-3.6451 9.6604 12.542.92403 10.573 6.6626 22.775 13.829 30.439 5.1992 10.269 22.112 2.0057 7.3983-6.0973-8.9053-8.9292-3.4323-20.459 1.7932-4.3033 5.5772 5.7027 14.032 8.5076 21.447 13.004.16585-7.1693-5.657-12.442-9.735-20.053-7.5929-14.897-20.151-28.888-35.485-34.224-3.6586-8.1751-16.081-9.2876-20.501-16.329-2.6059-4.0193-22.068-16.529-12.321-19.404 4.8306 8.7819 17.086 12.848 14.78 1.6906-1.7153-12.896-16.628-18.134-26.993-24.159-8.1088 3.8504-23.565-11.775-23.784-3.0637 12.066.0353 10.185 17.913-.0676 8.713-5.4364-7.5909-26.687-1.0587-21.722 5.5849 8.7799 5.4903-22.083 6.85-4.2057 8.1702 1.0178 12.429-15.57.0286-23.879 2.0426-9.2209-2.0111-20.105 2.3333-29.617 7.5135-8.0388 7.9397-17.261 16.757-23.248 25.167-.32106-10.608 9.6865-18.48 13.546-25.532 1.7264-8.9183 17.602-1.542 12.984-16.217 3.7902-13.159-15.655-16.33-10.941-1.6162-5.1603 6.4841-10.775 14.68-14.298 20.225-7.7114 15.778-13.254 29.406-14.384 46.251-7.0851 10.169-9.0054 28.05 3.2614 11.046 7.209-5.6165 17.748-6.2429 22.959-13.587 8.4552-2.8759 16.543-10.736 21.866-2.6973 5.9605 3.9926 6.9053 13.36 13.277 19.514 2.1568 6.931 3.8736 17.941 8.2343 21.848 9.3482-.24782-5.0968 23.316-4.0787 20.426-2.2864 10.385-3.3662 21.287-6.198 30.823-6.0954 11.525-.25488-13.222-.16128-19.145 1.4353-8.1986 5.4816-17.203 4.3622-23.351-3.461-15.266-16.838-27.678-31.329-33.774-12.758-1.0192-26.312-.84264-34.151 11.151.17877 9.3591-7.5432 20.99-5.9225 32.683-2.9919 8.8931-4.5437 17.774-6.381 27.684-1.6677 11.01-4.1132 21.811-4.9793 33.163 6.1542-6.2734 10.7-17.945 16.922-25.787 5.0127-7.4656 24.174-13.643 5.8203-1.3844-13.538 17.163-26.812 37.794-23.841 60.763 3.5076 9.0808 2.0103 20.578 6.8682 30.238.47493 13.843 7.1608 23.509 9.6294 37.253 4.5907 7.053 4.8124 19.116 8.0131 26.761 3.9317 11.092 7.0857 24.996 16.562 32.897 10.033 3.0582 15.876 4.4022 25.315 8.0872 3.887.90102 7.8123.0995 11.737-.008zm-20.009-27.902c-9.5153 6.3083-20.621-18.592-9.5856-12.042 8.6065 6.7489 28.315-.42514 31.932 5.9329-9.0272-1.8745-12.784 9.2253-22.347 6.1091zm10.31-18.127c-11.307 2.2623-20.402-7.2222-26.362-13.96-9.9259-13.692-8.7538-32.163-14.809-47.139-1.0174-11.455-6.9137-17.508-5.2964-29.606-3.862-11.865 6.1454-27.601 19.185-21.689 8.1343 6.0099 9.4474 9.8832 15.609 17.728 9.3116 15.686 31.539 21.225 45.821 9.6631 8.3003-6.5482 22.166-20.412 33.769-10.567 4.8808 9.2748 2.9714 21.33-.47819 30.166-2.8698 11.234-11.496 21.771-18.79 30.425-14.908 12.954-27.429 34.108-48.647 34.979zm101.96-44.361c-5.6397-4.4392 3.9514-18.75-.57067-24.244.66775-11.405-7.9264-22.168-1.3092-32.189-2.1854-8.0623-1.8284-19.471-10.213-25.376 6.0678-9.3737 14.629 10.911 13.076 18.454 1.4884 9.6154-4.5424 18.275 2.6028 26.713 1.5089 10.616 2.8479 24.622-1.5331 33.777-.89471.75467.78903 3.9663-2.0528 2.8656zm70.12-26.344c-6.642-3.5076 6.3401-3.8218 0 0zm-89.219-6.7263c-8.0591-1.2727 4.4738-12.982 0 0zm-.1745-14.72c-4.8324-7.9928-9.0386-20.953-22.315-18.383-3.3144-8.4435-3.7495-30.427 7.7841-13.526 9.8318 7.9202 15.617 20.301 15.585 31.909zm-69.453-3.0638c-6.1243-2.5762 16.407-12.411 19.945-20.055 5.5882-5.2594 18.422-3.5984 10.807 6.5306-9.7003 5.3113-19.565 12.342-30.752 13.524zm-66.749-5.6577c-8.0502 8.4363 4.7261-20.6 0 0zm53.325-8.7862c-3.2641 4.6754-12.822-13.126-18.198-16.337 5.9131-10.689 15.642 4.0266 17.467 10.701 1.3235 1.7585 1.0366 3.6459.7308 5.6359zm-43.73-5.9817c-4.7743-2.8094 4.0599-1.5266 0 0zm230.36-3.0638c-25.37-8.1712 6.6921-10.365 0 0zm-223.46-5.7988c-3.7092-4.7355 8.1796-15.702 14.433-21.368 13.661-8.4227 8.5342-1.1186 2.2412 8.6953 2.1314 8.8103-12.638 5.7495-16.674 12.672zm224.43-3.6582c-13.196-1.4095-11.178-12.095 2.0426-4.2648-.65743 1.4424 1.6668 5.53-2.0426 4.2648zm-.82623-9.9623c-21.517-7.3676 10.746-8.2912 0 0zm-153.06-2.6299c-8.7778 1.3978 3.223-16.545 2.6417-22.836 4.3984-9.4496 1.7853-21.577 6.3055-30.781 8.3774-5.2228 16.917-12.745 26.981-16.733 7.4219-7.798 20.701-11.412 30.848-16.877 11.131-5.7927 19.184 8.9704 27.812 16.428 13.821 13.523-6.5692 9.9794-14.742 6.6423-10.187-.36924-19.831-3.7752-26.107-.50938-14.771-.61174-33.354 2.0293-38.114 18.526-4.284 11.966-6.9545 22.094-7.4612 35.582 7.8406 10.217-1.7302 8.0168-8.1639 10.559zm153.84-7.5678c-16.097-1.5853 1.9618-12.351 1.3624 0zm-93.203-7.2887c-10.723-.22161-29.36-1.952-24.681-17.253.30478-9.9056 14.056-12.427 22.288-12.022 8.6087-.12249 23.804-.48488 26.752 8.533 2.4307 11.661-7.6218 18.084-17.903 18.839-3.867-1.8472-2.296 4.2431-6.4555 1.9028zm92.046-2.9888c-18.825-2.2883 8.909-11.335 0 0zm-55.85-4.1328c-10.811-2.5436 1.5839-26.203 1.3964-4.3398-.595 1.3858 1.1554 3.8732-1.3964 4.3398zm-70.188-.90882c-5.703-8.9382 3.315-29.337 16.315-27.574 8.2833-4.1075 19.684-3.143 30.009-2.9178 17.378 4.8176-9.6883 4.1658-16.212 3.9391-8.5688.99823-19.478 1.6174-24.816 10.24-3.847 4.6468-2.5435 12.691-5.2958 16.313zm125.71-4.0851c-8.0336-4.026 8.4273-6.3632 0 0zm-196.43-8.272c-13.419-2.7016-28.741-11.75-31.313-26.084 5.0875-11.893 17.552-9.3132 25.532-2.1315 11.867 4.2325 19.379 19.303 7.9886 28.317l-2.1043-.0971zm198.02-.91948c-9.3745-2.1179 6.6455-2.5564 0 0zm-183.72-12.255c-.44082-6.6502-3.9185-13.82-11.409-17.421-7.2156-4.6915-16.465-9.106-24.511-11.175-7.2444-7.9473-15.405 16.628-14.023 5.617.45021-11.34 15.108-10.874 22.127-6.8456 11.207 6.3038 28.364 10.877 32.162 24.304 1.234 2.5338-2.6713 4.8562-4.3462 5.52zm-200.86 218.37c17.792-1.3295 32.881-8.6106 48.839-17.268 8.4013-6.2149 15.579-18.277 19.801-29.558 1.9335-12.315 6.1768-24.711 10.093-37.318 1.3578-11.164 5.9209-19.061 2.076-29.078.60029-22.174-3.8321-45.008-19.95-61.255-7.2412-8.8118-19.283-13.686-26.304-21.42 13.728.56738 25.734 12.336 35.242 22.832 7.0876 16.62 7.332-2.0589 2.7151-8.4145-2.9626-14.672-15.711-26.596-28.629-33.35 2.3199-11.283 20.344 11.283 17.13.0395-5.3907-9.9888-10.091-20.3-13.146-30.721-2.4031-6.2743-3.0038-13.553-7.0148-18.931-2.9921-11.356-14.932-17.561-26.34-16.884-14.792-1.77-30.614-5.6292-39.941-18.864-15.046-10.23-8.2474-16.104 2.6889-3.5766 5.9566 7.0648 10.742 13.595 21.209 14.145 9.4331 4.3521 21.103 2.2165 31.178 5.9282 14.526 7.6268-.62738-5.8305-7.2967-7.9278-11.948-2.79-20.903-8.3482-4.803-4.359 13.233-1.4233-18.591-9.3937-12.497-11.065 8.0089 1.1253 18.239 3.669 23.049 10.994 7.3029 1.2678 15.388 20.441 13.774 3.3904-3.1821-12.05-14.539-22.466-16.86-34.8 8.2814 7.1892 7.0351 11.362 11.337 5.4062 5.7172 1.0675-4.2817-16.341-8.5422-18.987-8.3266-5.4054-12.657-16.715-22.761-10.087-4.3736.78564 5.5887 13.234 8.2305 20.604-5.6176 3.0326-14.665-12.917-23.255-14.883-20.032-11.925 16.084 3.6505 12.021.2321-6.0814-6.8501-14.462-15.427-24.466-18.441-7.8158-1.4513-24.905-11.143-26.638-.64203 3.3969 8.7745 7.8051 11.305 17.07 16.96 6.3113 1.1752 26.625 11.456 10.539 6.2261-8.4722-4.3563-19.886-4.7872-30.89-5.1011-8.2357 2.4761-24.24 9.2658-9.1826 17.445 10.728 8.0537 25.387 9.7742 37.269 4.1595-2.3762-3.2158.64794-10.258-10.411-10.471-2.1714-3.9352 12.989-1.6479 19.302 1.3937 8.3403 7.5434 16.885 9.1 26.94 12.724 16.108 10.298.31313 6.0696-8.1815 1.376-10.905-.70495-26.509-4.9993-35.565 3.8693-7.8625-.91412-20.665-.87803-29.395-7.2398-10.193-15.038-12.817 6.1492-18.12 13.151-7.1748 7.9359-12.14 14.594-21.556 19.206-3.4899 6.0945-5.5866 15.323-9.1281 24.907-8.5693 14.035-22.535 22.601-35.186 31.08-9.6862 8.2488-7.0021 23.625-5.3707 35.615 3.4778 7.5527 6.7653 20.783 13.602 28.679 6.0435 8.3822 16.664 16.534 14.558 28.955 3.7067 17.23-13.555 29.561-28.384 34.177 9.0819 24.799 24.962 44.26 44.223 62.402 11.321 5.3883 18.718 18.968 31.352 23.683 5.5475 3.9341 18.146 5.6382 25.62 9.79 7.5917 2.9428 17.351 1.9602 25.955 5.0992 8.6847.97098 14.794 7.4538 23.999 6.1752zm-62.808-29.451c-17.244-5.6089-23.868-26.295-21.447-42.979 1.6215-21.734 3.357 1.734 5.3813 9.2736.99631 13.16 10.093 23.765 19.815 31.966-1.2996.41187-2.1945 2.1936-3.75 1.7394zm55.093-.99935c-7.2546-6.6289 4.8024-19.233 12.311-22.874 5.6352-6.4847 27.462-9.4801 21.753 3.2656-10.382 1.131-23.027 2.2744-29.525 12.97-1.6842 1.671-1.6143 7.0723-4.5397 6.6383zm-32.051-2.1269c-11.297-.51326-16.319-7.6043-21.812-15.711-11.864-22.736-6.4137-52.274 9.6779-71.274 7.9844-5.5962 15.879-11.562 26.249-10.973 8.0224-3.1388 18.1-4.2485 25.973-9.8205 17.536-3.4808 40.22-1.6975 49.722 13.454 12.652 11.97 16.733 32.102 12.693 49.515-4.7967 13.271-18.821 12.579-30.822 11.684-18.94-3.428-39.23 3.8753-49.276 20.318-4.4757 6.5285-14.242 13.492-22.406 12.809zm-59.322-36.682c-7.9873-10.263-11.429-23.959-10.187-37.468.89938-9.691 5.7044-17.073 5.1064-26.751 6.2966-9.6567 12.35-21.126 22.468-27.865-4.738 9.9372-14.335 20.411-15.551 32.874-3.5279 8.748-5.1654 19.998-5.8961 29.738.0127 10.13 3.0639 19.833 5.1064 29.473zm172.11-19.033c-8.4614-3.9703-1.6464-20.729-6.634-27.945-.87644-3.7613-8.6704-24.578-.25014-13.021 5.5736 12.042 8.7812 25.646 8.8993 38.777l-.63716 1.6604zm-156.42-20.796c-2.9598-8.0963 1.4453-20.944 3.65-30.976 3.2828-11.596 10.032-21.746 15.439-32.488 2.5461 2.65 13.692 25.111 4.7212 22.614-12.666-1.1836-14.492 15.183-17.307 23.228-1.492 5.3211-1.5652 15.066-6.5025 17.623zm61.644-37.787c-8.3136-4.4049-20.431.10177-27.259-6.7992.91935-13.656 16.655-4.8369 23.624-.73258 2.4588 2.9629 15.564 7.7613 3.6353 7.5318zm77.067-1.0213c-8.2155-8.3874-13.893-17.323-24.781-22.262-12.551-1.3655-7.989-15.256-16.438-21.359-8.4697-11.322 16.96 4.2442 19.827 11.072 9.398 9.4787 17.164 19.678 22.378 32.549zm-56.536-4.5958c-1.0574-5.1476 1.2193-22.288 11.566-25.984 15.092 6.6407 2.5551 8.7113-4.9426 14.975-2.4094 3.4964-3.718 7.8953-6.623 11.009zm-120.12-6.8693c-.54771-5.7852-9.6764-18.345-6.5917-24.79 4.018-13.938 16.22-22.971 26.747-32.17 8.2878-2.5084 14.873-11.437 25.126-10.703 14.725 4.8574-11.869 2.4023-15.337 8.661-11.318 7.5906-24.071 17.408-31.653 29.709-5.0786 10.576 3.926 18.832 9.6956 19.844-3.3913 2.4466-4.7465 7.444-7.9878 9.4502zm9.4029-19.173c-13.054-.2893-4.1603-19.724 3.7544-22.468 3.8178-6.2506 16.33-9.5682 22.655-15.319 7.1055-2.6134 19.217-1.1081 18.133 9.929-4.5284 6.6418-14.864 7.255-20.345 13.416-8.3117 4.0579-15.569 13.096-24.197 14.443zm77.46-6.1277c-12.77-1.1722-15.541-9.1838-15.102-21.957-3.9232-12.717-13.405-24.218-25.934-27.512 2.119-5.8522 23.428-.084 4.4641-7.2625-18.388-1.4288-26.772 22.128-42.053 28.136-6.7732 5.9185-17.408 11.301-22.743 16.596-13.344 10.155-3.6987-3.4732.0251-6.9199 9.5925-4.753 12.02-16.516 17.848-24.526 4.699-10.708 11.909-18.237 20.704-26.804 7.8315-3.0522 18.476-5.8246 26.855-1.0667 17.073 1.1244 15.8 22.665 21.607 35.078 2.3551 12.448 11.441 24.26 15.786 34.654l-.60779 1.5839zm18.305-21.447c-7.7726-6.3352-4.6875-20.321-10.498-29.106-1.4067-9.9357-13.937-19.058-8.7733-28.84 4.3074-10.176 13.854-14.017 24.993-11.615 11.742-.25505 20.66 6.9676 32.417 9.4647 6.0066 3.3061 30.247 17.345 11.409 13.152-9.5569-3.9952-17.911-5.6913-27.239-8.2048-9.0927 2.7036-19.884.81105-26.34 10.53-10.509 9.8738 4.5612 21.825 3.1196 33.431 2.9645.98731 2.1984 10.083.91033 11.188zm9.1691-13.871c-9.5932-4.5811-12.776-23.675-.64651-29.163 9.3837-3.8504 20.411-3.4895 28.66-.88107 10.184 2.2474 17.756 6.3546 1.2541 5.0371-10.283-3.7404-22.406-2.3563-32.467 1.1831-3.2266 7.8838.92516 16.548 3.1997 23.823zm50.928-1.4479c-13.556-5.5334-30.998-2.5276-45.417-3.7956-8.7813-5.843-3.3362-19.799 8.7831-17.823 11.712-.41337 20.023 3.7901 30.805 5.9122 1.8395 3.2347 14.483 12.301 5.8287 15.707zm-5.8723-21.462c-11.141-.75187 4.9852-4.056 0 0zm-128.68-20.929c-14.165-.45091 13.344-10.879 19.762-6.6301.49923-17.757 9.7211-12.807 9.3994 1.9113-6.4204 11.213-15.735-3.1625-23.799 4.0084-1.7872.23682-3.5745.47364-5.3617.71046zm46.311-6.7152c-9.5753-4.1102-9.0844-22.579.79437-8.0851 4.778-3.8386 27.071-15.412 23.994-6.2669-11.209.22562-15.722 10.358-23.669 14.437zm-38.19-22.17c-10.213-4.8215 15.298-9.9435 20.474-14.131 2.364-6.9246 26.489-.82787 10.951.64165-10.863 5.8882-18.944 10.657-31.425 13.489zm111.83-8.3828c-8.0001-4.1667 3.3267-7.2244 0 0zm-103.56-6.1277c-12.83-5.4769 25.974-8.4988 6.2717-1.9904-2.3312.69458-3.1534 3.0437-6.2717 1.9904zm430.38 298.21c21.028-13.76 33.917-34.705 46.986-55.273 6.7204-11.68 13.533-22.805 17.646-36.018 2.7428-7.6582 5.3105-14.331 7.1864-22.581 8.3238-23.376 8.3764-48.962 10.306-74.186-4.7959-12.167-1.1724-27.255-5.7311-39.686-2.179-11.335-5.7472-21.404-9.4003-32.17-4.4954-10.713-7.2106-19.101-12.975-30.282-8.0046-17.453-19.949-32.865-31.531-47.933-8.743-5.4181-14.935-23.968-25.831-19.86-12.941 2.6163-19.538 9.2764-5.388 17.797 15.961 14.954 28.754 33.089 39.619 50.973 3.25 9.2608 6.963 13.642 10.241 23.178 11.439 22.619 16.143 48.173 16.631 73.532 5.1781 14.179-2.306 29.725-.89441 44.951-3.6591 12.708-3.6837 27.041-10.617 39.276-4.8682 18.021-14.316 33.934-23.128 50.21-6.1202 7.4024-13.289 18.271-17.723 23.037-6.9284 7.0852-15.116 14.384-21.447 22.833-8.1486 5.2667 9.442 8.2676 14.177 10.161.77934.40158.61146 2.5024 1.871 2.0425zm-522.6-1.8409c8.2606-3.2212 15.268-5.848 21.847-7.3506-6.4631-7.7777-14.087-9.6866-19.151-18.43-9.4645-6.6706-16.766-21.288-25.204-30.929-7.671-11.933-13.801-25.35-19.615-37.449-2.166-8.4326-7.7533-19.806-9.0768-29.19-2.9672-10.164-6.5234-21.667-5.9042-33.347-1.9853-21.097-1.2126-43.41 2.1242-63.696 1.6684-8.9296 5.7378-16.461 6.1581-26.962 3.1415-8.3284 8.0143-15.428 10.92-25.277 6.2013-16.849 18.942-34.026 29.689-48.748 8.8041-8.3065 12.649-12.884 20.171-21.246 14.692-10.029-4.6824-11.733-12.193-16.043-8.1692.0352-12.979 11.071-20.337 17.475-9.0252 10.525-17.041 22.374-26.325 34.436-4.5467 12.66-13.728 27.196-18.107 41.979-5.9348 16.236-12.117 34.29-12.885 52.664-5.2051 14.426-.86594 32.187-2.2829 47.937-1.6808 13.276 4.3686 24.025 3.8414 37.384 3.3582 6.4698 4.4465 15.228 7.4192 22.684 7.0205 24.396 20.361 48.165 35.207 69.069 5.6624 7.8564 13.155 17.54 18.894 23.607 3.9821 1.3196 6.4127 12.697 14.809 11.435zm16.98-70.67c6.8704-2.4546 7.4266-3.3259.38155-9.1915-2.2125-8.3069-5.6619-16.907-15.022-20.627-4.7439-6.9519.64428-21.854-11.252-24.309-13.172-.69904-6.7596 26.293-12.641 20.364-1.2804-11.889 3.6683-25.52 11.939-31.632 4.2195-9.0242 16.662-10.772 26.951-8.6654 7.8972-1.7894 19.371 18.745 11.555 13.805-3.3764-8.2532-20.091-14.79-29.402-6.473.6485 10.751 4.9965 20.162 4.6095 30.917 6.7023 9.7081 21.769.58254 29.268-5.1204 10.551-8.1474 9.0148-23.878.82626-33.069-9.5496-4.4407-7.9435-14.022-14.693-21.471-5.0741-7.5038-4.6263-18.3-9.2865-25.159 2.886-12.516-3.2135-28.926-18.567-24.792-11.514-2.2029-19.865 4.212-27.391 12.35-7.0593 11.042.33713 16.498 4.005 26.3 3.4818 14.019 5.3948 29.487 5.1865 44.696 11.792-3.4561-3.249 11.74-.45212 16.964-4.0017 20.479 15.707 33.741 32.074 41.697 4.6671 1.1465 7.1907 3.6698 11.911 3.4158zm522.82-45.957c3.3857-5.8517-4.4137-2.0526 0 0zm1.4716-5.1064c4.428-2.3384-4.2267-2.5479 0 0zm8.9721-1.1231c4.2681-7.6253-18.177-3.3537 0 0zm-513.51-21.345c5.4906-4.3741-7.4238-5.9544 0 0zm-29.292-74.559c9.4443-6.4726 17.315-15.561 29.323-19.587 9.3862-6.2284 14.195-14.329 16.104-25.854 7.2607-13.235-12.94-8.3128-16.111-2.0282-10.026 15.223-.59247-4.5721 2.5606-10.837-2.2519-7.9542 7.0682-34.643-6.5163-25.962-8.5735 7.5815-17.794 13.663-23.574 21.366-4.3846 7.7821-12.265 17.975-12.558 29.175-7.3038 3.3047 1.2024-17.153 2.4501-23.037 2.1179-8.1326-.43483-16.93-6.9724-23.231-7.1574 4.8732-5.2801 15.989-10.45 23.221-8.2109 16.122-7.6159 36.128-4.1673 52.377 6.7168 5.9647 20.499-3.4613 29.91 4.3954zm-12.122-8.1639c-5.6396-3.8382 6.5674-17.023 9.5682-23.342 5.9485-8.7592 11.42-20.231 18.601-26.7-3.6603 7.4859-9.1303 17.114-12.592 23.381-6.1627 14.382 1.092 5.471 4.5198-2.2445 3.9611 2.9956-11.442 25.458 1.8604 13.17 6.7052-9.4922 16.597-15.672 3.8972-1.3892-6.9582 7.5402-15.342 15.033-25.854 17.126zm-10.213-6.1277c-4.4666-3.1011-.01739-31.613 1.5978-15.204 1.0917 4.883 2.5818 11.461-1.5978 15.204zm50.308-20.426c-6.0677-1.3926 10.659-6.7341 1.9634 0zm237.71 11.234c8.8091-1.5983 20.645-8.425 5.6764-14.28 1.9414-16.526-6.6585 4.8297-9.1514-8.188-8.4102-1.9706.17617-19.464-3.0077-25.039 6.9388-2.8673-3.7112 23.775 6.3741 21.975 10.973 3.0269 20.118-6.4969 17.024-17.418.82528-7.434-4.6898-31.521-5.1064-11.943-.002 22.588-5.1298 4.2454-3.0638-8.2616-9.6264-.15832-21.22 1.4925-31.66.85654-.70655 24.606.30981 3.1254-9.0171-.82214-11.925-5.7826-6.6534 25.112-10.677 11.452 6.4435-17.03-16.53-13.78-9.8781 2.1673-1.5101 12.75 2.0896 28.794 18.454 23.969 16.676 3.7061 11.787-15.408 14.497-24.659 5.9598-2.0466-2.8707 20.864 4.8801 25.428 1.2374 5.9626-12.653 15.926-3.9118 21.906 5.9556 1.9821 13.682-.62748 18.567 2.8571zm-29.042-33.702c-4.5166-.9513 4.2971-1.0327 0 0zm-12.766-3.0638c-2.214-1.1692 2.1133-1.2739 0 0zm42.323-2.0426c.61297-3.94-.20477-.18524 0 0zm-31.149-4.0851c-5.682-2.0948 5.6043-1.2927 0 0zm31.209 0c-.59115-5.0718-.44305-.23085 0 0zm-31.234-7.2296c-6.5506-.79423 6.6593-.8045 0 0zm53.364 24.129c10.046-3.532 5.2532-22.063 3.4018-29.339 2.2418-18.896-17.262.005-5.1064 6.5307-2.3465 3.4972-1.607 17.25.86804 23.018zm11.572-2.6011c11.389-.74973 2.8935-21.631 5.9107-30.701-4.1106-14.488-5.1229 25.609-6.0547-.50586-6.0152-12.286-6.4928 13.994-2.3519 19.085 4.2651 6.9915-10.165 12.926 2.4959 12.121zm203.94-4.1852c7.8301 2.2142-6.3139-23.824 2.2186-12.848 8.4198 18.702 2.1741 3.0482 12.173 1.7143 2.7525-9.2508-4.4196-15.627-9.475-20.426-7.5753-8.2608-19.752-16.205-28.601-25.499-5.9328 6.2337-2.5156 17.875.13782 26.86 3.8484 11.863 9.7003 27.272 23.547 30.199zm-463.36-1.4424c16.18-2.7417 27.066-16.309 38.825-28.146 5.8645-7.6821 5.3427-18.047 7.4136-27.247 4.8954-2.503 30.177-7.992 19.14-10.468-17.97-4.9691-1.8206 1.1752.82916-6.797-8.6361-6.4574-23.39-4.636-31.491.71326-5.1236 10.211 22.464 7.898 8.234 14.498-12.4 8.2904-27.462 13.901-38.491 23.246-10.583 9.5961-3.2907 16.099-2.2107 14.606-10.329 16.161 8.5401 2.7534 10.533-3.3723 3.7412 7.3952-15.319 15.799-17.872 22.128 1.2345 2.3282 3.0557 1.1367 5.0901.84041zm-39.367-12.043c3.1553-8.3957 16.386-5.2265 17.077-15.5 7.8547-6.5216 7.6431-21.101.50953-27.084-4.7899 8.7335-14.085 11.315-19.944 19.28-7.817 7.2924-9.0344 25.241 2.7036 11.366 9.3088-15.1 1.7794 3.7209-2.835 9.098-.85347 1.1461 1.1266 4.1588 2.4894 2.8395zm252.26-21.256c12.097 1.2631 17.799-11.599 21.529-21.416 2.3605-8.4904 4.1489-14.209 7.694-20.881 1.1857-12.395.95908-28.242-1.6487-41.106-8.315-11.134-25.384-3.304-37.445-5.5066-7.5324 3.6727-18.677 6.4002-16.533 17.768-2.5652 14.534 12.601 4.9254 18.692.58026-3.9314-7.4761-16.722-7.1808-2.0298-10.558 8.8496 6.1521 8.3054 16.144 8.2727 26.792-10.093 9.6983-3.212-14.249-11.042-5.1672-6.9665-3.4462-16.422 3.3519-16.393 12.669 5.3636 10.094 7.9763 9.9051 10.145 22.982 2.4353 8.9352 5.7862 24.554 16.906 23.807zm2.9676-10.292c-19.028-.44186 15.803-8.0868 0 0zm-1.4776-8.026c-6.9127-1.5503-21.729-5.4743-17.072-10.335 3.9822-6.8085 18.433 14.521 24.642 2.2179 8.4851-11.219 17.509.30067 3.0557 4.0051-3.1473 3.1827-6.0073 5.1345-10.626 4.1116zm4.8026-14.244c-5.5855-10.277 18.482-11.077 0 0zm-11.516-4.2036c-13.373-2.0873 4.2041-7.7699 0 0zm22.587-.90281c-6.8721-6.5474 7.5287-13.36 0 0zm-33.896-2.0582c-5.1291-6.1946 10.954-11.95 2.3926-.766l-1.116.75032zm22.532-12.24c-4.7704-9.1725.9991-21.316 9.1257-28.706 14.474 2.0975 1.0408 8.8063-3.8282 11.296 8.2747 2.813 19.684 9.8981 3.5745 11.283-5.3294-10.702.0839 5.6282-8.8719 6.1277zm-228.23 51.064c8.3148-9.0858 9.8049-12.993 13.308-4.427 5.0545-4.9497 16.328-10.028 18.231-20.288 2.7342-5.0055 3.193-25.02-3.721-18.904-7.3288 10.193-20.423 15.98-24.739 27.413-3.0898 4.5269-3.8784 11.818-3.0785 16.206zm324.38-6.1277c6.8151-2.8087 10.131-14.03 20.339-17.121 11.189-7.9433 3.0334 3.2941-4.0395 7.2565-2.1334 3.3626-.33569 11.111 9.2546 5.7861 13.538-3.3065 23.687-12.94 31.164-24.474 14.535-7.4496-11.191-8.3906-18.664-6.4984-9.5111 6.2654-22.559 4.2596-31.189 13.659-3.3147 4.6676-15.103 19.124-6.8648 21.392zm114.47-9.2282c10.274-6.8832-9.003-13.319-14.068-18.227-9.7081-3.7413-16.335-4.0927-25.047-7.8569-11.582-1.1607 8.836 13.907 14.843 11.823 6.3668 3.5449 16.969 9.0918 24.272 14.261zm-304.78-.98455c4.73-4.0267-7.6348-11.335 0 0zm-95.688-3.4539c15.824-.15605-4.8571-24.271-1.0212-6.7139.7943 1.2173-1.6479 8.4944 1.0212 6.7139zm245.9-19.447c15.074 2.6504 26.075-9.5702 36.066-16.387 10.207-8.8258 21.271-.16073 31.715-1.5173 4.9567-6.1202-7.5394-14.017-13.453-14.344-7.0285-7.9568-25.366.75666-22.017-13.111-8.922-8.0286-24.57-7.4018-36.4-6.8291-10.116.41126-21.471 14.965-29.063 2.4087.34103-13.022 5.121-23.592 3.3262-36.996-1.9411-9.5936-5.55-20.072-12.098-28.888-5.8035-7.1767-10.625-14.484-19.523-18.867-11.264-6.3967-15.721 11.511-7.2949 12.363 13.255-10.551-.32123 10.141-6.4153 13.627-6.7696 7.6416-11.126 16.938-13.892 26.825-1.8497 9.6516.97357 18.146 1.1214 29.576-2.035 11.675-15.872-2.1788-22.807-2.5757-12.026.37881-24.82-2.1984-33.573 5.2811-10.858 2.3502-19.593 11.24-27.412 16.049-5.251 6.9914-17.665 14.168-9.157 20.36 9.2776 8.7808 22.63-10.983 7.9538-1.4361-11.292-11.436 15.393-10.452 23.055-8.929 19.567 4.6512 34.199 24.371 55.703 20.76-.0671-12.718 3.9954-23.867 2.6378-37.245 2.4414-13.572 19.515-12.347 30.687-12.22 11.031-1.1075 21.798.58352 30.884 7.1195-.31654 14.275 2.7867 27.366 3.1961 40.997 8.8063 3.1645 17.339 5.3735 26.76 3.979zm-107.3-6.716c-15.085-4.9844-7.9018-10.429 3.3969-2.0426 4.7176-.31187-1.8228 3.5612-3.3969 2.0426zm94.052-.8478c-10.669-1.678-2.5072-16.015 0 0zm7.8888-.17348c-15.174-9.3986 2.1092-8.6784 0 0zm6.142-1.0213c-12.157-7.3372 8.8549-4.6183 0 0zm-107.65-3.0638c-13.241-7.9253 4.9929-7.0307 0 0zm114.33 0c-6.6769-5.4749 4.925-3.4453 0 0zm7.6596-5.1064c-4.5166-.9513 4.2971-1.0327 0 0zm8.2953-1.0213c-9.6218-4.8908 5.3457-5.3857 0 0zm-127.21-2.0426c-6.9469-2.2816 5.605-2.4174 0 0zm3.4539-5.1064c.61289-3.94-.20471-.18515 0 0zm-50.531-10.535c-12.497-4.4156 7.9546-8.7283 0 0zm175.95-3.9517c-7.689-2.9754 8.8556-11.782 0 0zm-7.4357-2.8451c-8.5887 5.2836 3.7004-11.175.98643-.9267zm-83.786-14.327c.8811-4.4189-.4638-1.3148 0 0zm-6.1398-1.0213c-5.6726-2.4822 6.9663-4.0734 0 0zm-3.8374-5.2829c-7.4799-2.1943 7.4052-5.4841 0 0zm34.705-4.9298c-15.162-2.248 13.124-16.089 1.4225-3.2443 3.3272.75458 1.589 4.2207-1.4225 3.2443zm-1.2504-1.0213c7.6445-3.028-6.0642-3.9994 0 0zm-1.9322-9.1915c-8.4124-6.0991 12.914-8.7823.47194 0zm-2.7218-8.1702c-5.2152-10.96 15.951-6.1022.75734 0zm-1.1455-8.1702c-6.6866-10.619 15.864-8.7346 0 0zm-1.8989-9.1915c-6.0814-5.7432 10.013-14.545 1.9186 0zm-251.38 98.597c3.0156-19.296.62029-41.062 1.5693-61.302-6.8342-3.8148-19.591-25.033-21.722-12.274-2.3855 20.053-.33743 42.578-1.0213 63.58 5.7934 4.1278 14.977 10.398 21.174 9.9964zm482.32.46648c8.2056-5.2724 22.366-9.4313 18.383-23.038v-53.339c-7.9714 1.0961-22.353 11.895-21.486 21.786 1.0766 18.1-.30177 36.896 2.2021 54.591zm-64.251-62.864c20.248-1.3934 41.166-.46056 61.67-.96607.55057-7.6566 20.561-16.623 12.39-20.936h-63.724c-4.2878 5.0466-16.603 19.605-10.335 21.902zm-365.71-1.0149c16.46 4.4071 8.8046-8.7774 3.6858-15.86-7.5357-10.351-23.02-2.675-34.083-5.0275-10.832 1.0311-31.019-2.0719-35.971 1.5576 9.0275 8.5587 15.726 22.978 30.338 19.009 12.01.13813 24.018.4804 36.03.32092zm17.71-.46182c10.985-14.949 26.931-28.855 42.783-39.75 10.17-7.635 20.816-12.515 30.835-18.052 27.949-13.353 61.617-23.028 94.608-21.556 25.151-1.7279 49.665 3.7984 72.602 12.378 31.161 10.159 60.547 28.001 84.153 50.639 6.4221 2.9019 14.804 21.272 19.365 12.255 2.312-8.7859 11.071-17.082.98646-24.08-10.588-9.6083-21.196-17.437-32.453-25.962-15.273-10.788-32.654-21.359-49.737-27.406-7.1287-5.5656-16.658-4.2543-23.537-9.2416-12.421-1.8975-24.511-4.9059-35.544-7.5223-22.792-2.9729-47.871-.42354-71.54-1.2766-8.1855 4.784-17.784 3.1298-27.216 6.7145-9.832 2.627-18.965 5.6482-28.617 9.231-13.469 4.3535-27.906 12.73-39.915 20.31-6.4517 4.1718-13.276 10.211-20.099 15.319-9.5948 7.1721-21.798 15.668-27.199 26.506 3.0661 6.8929 4.6801 17.013 10.526 21.494zm560.11-14.157c-3.335 3.5001-.2869-6.6995 0 0z"/>
 </g>
</svg>
