<?xml version="1.0" encoding="UTF-8"?>
<!-- Created with Inkscape (http://www.inkscape.org/) -->
<svg version="1.1" viewBox="0 0 847.66 1119.3" xmlns="http://www.w3.org/2000/svg">
 <path d="m385.67 1116.8c-12.862-2.1134-27.544-2.7071-41.398-3.0638-12.775-3.4555-23.314-6.494-36.63-8.6809-8.0348-4.4494-19.326-5.7384-29.608-8.1702-8.199-4.7675-19.521-7.9996-26.678-11.234-9.6421-4.514-20.716-10.614-29.024-14.298-8.1124-6.9847-18.942-10.133-27.627-17.361-9.7708-4.0489-18.681-12.354-27.87-15.83-9.1562-4.4346-20.876-13.94-32.832-12.766-8.8051-9.062-24.414-6.3871-37.742-8.1702-15.224-.2169-30.049-.4037-43.157 3.5745-11.29 3.6906-22.882 4.1943-33.702 10.213-15.106 14.735-21.9-2.9064-18.184-19.606 2.0629-13.988-1.751-26.357 3.1428-35.075-7.8351-10.512-1.2464-29.467-1.8099-38.766-1.4048-13.466-4.7022-33.945 1.5319-46.208-5.2163-11.928 1.2011-20.708 0-34.473-1.5787-15.736.84308-23.879-3.0638-33.952-2.2564-14.532 3.4419-29.208.3968-41.731 3.4038-19.052.85589-46.51 1.6458-68.883-1.2413-12.408 1.4537-32.889.26917-49.196-.25994-205.2-.51987-410.4-.77981-615.6 12.22-1.9079 20.454 7.3089 30.78 9.1915 12.162 2.8988 25.576 7.2178 39.458 7.4533 16.043-.54388 33.961.17364 47.068-5.4108 9.309-5.071 21.092-3.1912 29.498-9.7021 12.498-2.125 22.931-10.994 37.388-14.298 11.224-1.7785 19.197-8.4295 31.954-9.1915 11.429-4.6816 23.791-5.6458 35.599-9.7021 12.672-2.9468 25.369-4.6939 37.273-6.6383 13.745-.33433 28.505-4.1278 40.344-4.5957 10.512-2.9365 29.836.5141 41.609-4.5957h101.12c13.338 5.1689 29.97 3.3242 44.419 6.1277 13.903 1.8459 26.472 5.6331 41.369 5.1064 11.672 4.5496 22.87 5.9462 35.227 9.1915 9.0618 5.3099 21.589 1.1239 31.156 7.1489 8.9232 6.0222 22.782 6.2613 30.631 11.234 11.358 2.4033 18.612 6.3226 27.977 12.255 11.834-.56075 20.585 5.324 31.003 8.1702 12.104 3.8025 24.063 6.5525 36.756 8.1702 21.009-.19729 42.39 1.3308 61.141-3.5745 9.5624 1.2321 28.775-17.116 31.295-2.0458-4.0102 24.655-1.0935 51.978-1.5319 78.03 5.6431 12.834-1.7093 19.505 2.5532 33.11-3.5014 18.096-1.4976 42.708-2.0426 64.362 2.2048 11.433-1.9912 30.583-.19322 45.672.48291 227.57.96582 455.15 1.4487 682.72-6.5856 10.692 3.6831 25.854-.23424 41.016-5.3101 6.5661 8.5298 30.361-8.2343 31.939-7.1785-6.8998-16.185-8.6337-26.489-12.766-12.695-3.7325-24.844-8.6289-39.747-7.6596-11.85-1.4764-18.849-.4431-31.956 0-13.165 3.2621-26.665 2.6358-37.824 9.1915-10.661 2.5199-18.562 6.6374-27.279 11.234-9.9443 5.5498-18.57 14.4-28.628 19.404-8.1901 6.8047-19.868 10.149-26.566 17.362-10.511 3.1661-19.92 8.8111-31.66 13.473-9.7679 1.3007-18.221 8.373-29.171 10.016-10.276 2.9061-22.754 4.2682-31.784 8.1702-12.98 1.3671-23.885 7.1514-37.988 6.1276-13.159 2.7195-28.028 3.4464-41.98 5.1064-19.749-1.0629-42.688 2.0975-60.638-1.5312zm28.965-11.234c13.451-1.1163 25.384-1.4056 42.687-1.532 16.175.062 28.454-.4849 42.697-5.1063 13.954-.1703 25.115-4.3796 37.419-9.1915 12.05.3812 20.583-6.6531 31.153-8.1702 7.1262-6.0291 18.562-7.6102 26.874-11.234 7.6396-4.2265 17.9-9.5449 26.489-14.298 10.525-5.0055 19.759-12.025 29.582-19.323 9.3359-7.1793 20.285-9.0462 28.987-17.442 10.764-1.0885 19.562-6.2362 29.254-9.1915 10.581-1.2896 22.309-5.9932 35.495-5.1064 15.179-3.6695 27.953-2.3081 43.345 0 10.958 3.2694 21.696 5.0591 32.236 8.1702 13.628 8.3249 3.624-25.657 10.705-29.6-.50796-261.81-1.0159-523.63-1.5239-785.44 2.414-11.433-1.2542-32.293.12116-48.062.14881-24.651-.37368-49.29-1.3921-73.919-13.653.5269-26.896 4.1887-39.82 5.617-15.547-.66143-33.461 2.1194-45.9-3.0638-13.547-.8184-20.688.42783-31.178-5.1064-9.489-1.8219-18.346-6.7128-28.634-9.1915-7.2064-4.0968-19.368-6.3188-26.515-11.234-9.1678-2.7809-18.617-4.8945-26.592-8.1702-9.8583-3.2085-20.632-7.5642-31.342-8.1702-11.527-2.5272-22.678-7.3734-35.31-8.1702-10.329-3.9768-23.059-4.8528-34.965-6.5558-14.994-2.6074-28.728-5.9954-45.187-4.6782-15.069-2.6919-30.814-3.9432-47.56-3.0638-13.641-2.8919-29.589 1.6348-47.309 0-15.917-.35988-31.752-.54359-45.806 3.0638-15.009-.642-28.361 1.4451-39.982 5.5341-13.999-.29703-26.455 1.211-37.096 5.7-12.047 1.6108-23.287 5.6565-34.627 8.1702-12.137 3.0491-20.739 7.6386-33.134 9.1915-7.8427 4.2245-18.658 4.3988-25.464 11.234-10.632.15718-15.418 8.7973-26.933 8.1702-11.086 4.1164-18.647 9.297-31.482 9.1915-12.486 4.5012-28.628 2.7649-39.465 4.5421-12.21-2.063-26.072-.2928-35.908-6.5847-9.461.05295-25.496-11.952-22.325 6.809.48394 207.07.96788 414.14 1.4518 621.22-7.7533 10.01 3.2526 19.772-.32394 36.299.16523 18.211-1.9271 26.787 0 43.319-6.1215 7.6562 2.3798 20.568.56779 36.77 1.8147 17.217-1.7618 29.782.45349 44.423-4.7322 11.446 2.712 26.76 0 42.557 1.2208 18.398-2.6893 30.536 0 45.883-2.6405 15.666 1.1096 29.095 0 46.972-5.68 15.19 3.0519 20.342 16.09 14.304 10.556-6.5059 23.052-2.1266 33.945-8.1702 17.292.1324 35.316-1.2929 50.625 3.0638 11.595.6082 22.114 3.7196 32.105 8.1702 9.4159 3.7202 18.69 8.427 27.205 12.766 8.9121 5.6738 20.91 12.176 29.986 18.383 8.7103 6.3288 19.007 11.938 27.574 15.83 10.064 4.4449 21.383 11.886 32.544 15.319 9.7081 2.4668 18.285 10.203 30.556 9.1915 6.3377 7.3031 19.36 6.2883 28.814 9.7021 12.594 3.333 25.921 6.2751 39.404 6.6452 13.241 5.0259 33.144-1.5625 46.133 5.0995zm3.0638-8.1703c-11.394-1.938-24.415-1.2337-38.897-1.5319-11.037-4.7213-28.072-.3309-39.089-6.6383-11.681-.9465-21.467-5.7311-33.083-6.6383-9.237-5.0036-18.947-7.0318-27.688-11.234-10.906-2.5229-18.53-5.8519-26.94-12.255-12.028-1.2257-20.383-12.616-31.843-16.383-9.8896-4.4395-18.286-12.296-28.32-17.318-9.6029-3.6125-17.054-13.021-26.396-14.298-8.8949-3.5281-17.879-8.3431-28.193-11.234-15.406-1.2276-28.65-7.0581-45.069-6.1277-15.269-1.0982-29.968 1.0746-42.512 4.5957-13.275 4.6721-29.214 7.3601-23.12-14.697-1.2115-13.841 2.1015-28.577 2.1518-37.899 1.2187-6.4724-1.3607-15.333.91201-22.975-3.2239-16.552 3.1582-25.304-3.0638-40.906 4.4534-11.482 2.3975-24.75 3.0638-39.88-1.4762-8.8305-1.3847-17.254-2.2035-26.714 2.0268-8.2346-4.5067-22.212 1.1822-33.95-1.9105-4.7733-.93082-13.157 0-20.986-6.5225-17.144 1.7565-34.386 0-52.296-5.8479-10.753-.29661-27.059 0-34.717-4.8754-9.6358 1.66-18.683 0-31.067-2.7414-11.817-.22038-18.895 0-30.235-3.103-10.007-1.7586-19.423 0-29.729-6.0657-12.132 2.7284-20.363-2.0426-29.431 4.6045-10.319.38768-21.832 0-31.861.97718-13.8.44762-19.566 2.0426-31.172-5.2917-8.9764 4.154-18.138-2.3645-29.102 3.2243-7.435 2.6462-23.7 2.4496-38.11-1.0565-50.315.49886-101.72-2.171-151.36-2.9106-10.186 4.4953-16.677-.97794-26.101.33632-14.729 2.4192-27.376.77561-38.795 3.8722-15.262-1.9766-23.99 1.2669-36.438-1.5867-8.7357.99038-25.4-1.5565-34.017 2.8627-14.757 1.9382-35.004.53526-49.048-3.9529-9.831 16.798-9.7265 22.222-2.7354 14.905-3.0629 29.913 1.7343 42.139.15649 9.2246 2.8434 22.546-4.8139 34.702-4.57 7.8826-3.4926 20.725-5.713 28.965-9.7021 8.412-3.2009 19.519-7.2095 28.998-9.7021 10.084-6.6381 21.63-5.4431 31.507-11.234 12.914-2.0353 24.602-6.6834 37.294-9.1915 10.699-1.9611 22.03-3.7846 33.577-6.6383 11.739-3.1056 25.926-.99852 35.995-7.6596 21.171 1.2527 36.3-3.5367 57.713-2.0426 11.394-6.5612 33.723-2.2599 44.018-1.7872 12.411-5.1997 22.628 7.2932 33.995-1.2766 12.68 6.7943 31.159.65534 43.185 5.1064 12.441 4.1056 28.183.91356 39.903 6.1277 11.497 4.1113 26.026 3.8095 36.169 8.1702 13.243.8091 21.888 3.2572 33.018 8.1702 10.744 2.0193 21.361 5.0109 30.35 8.1702 11.193 2.6957 21.987 6.5587 32.573 11.234 8.8231 3.8661 19.121 7.7923 27.72 10.213 9.9875 4.8412 24.043 6.3049 36.83 7.1489 13.11 8.011 24.766 1.7725 41.702 3.0638 16.027 2.4879 25.419-4.6768 40.845-3.0638 1.0153 14.787-1.7233 23.945-.90936 40.845 2.2608 7.2475 5.8643 32.581 2.0426 27.581-1.9768 13.026 1.0688 27.039 0 42.923-1.8612 8.9747-2.7252 19.653.16769 29.829-6.1228 13.503 1.0743 29.07-2.2102 41.836 4.2719 10.931-3.6524 15.951 3.0638 26.599-1.8844 10.868-3.8298 19.909-1.5319 33.087 4.0008 11.432-6.0956 21.441.83258 35.002-.86465 8.7275-3.4056 25.533-2.3645 40.164 3.2808 10.759-.25669 21.764 2.1453 35.562 1.1318 16.133-2.8931 28.393-.10277 42.179.005 15.154.73761 30.714-2.0426 44.315 6.3858 10.037-2.8354 19.13 0 34.766.45202 11.767 2.706 26.106 1.0213 35.339-.52812 15.854 3.4277 22.664 0 34.466 1.0095 8.9401.86499 20.24 0 28.955 1.7602 12.18-1.1639 29.24 0 44.366 2.6558 11.697-1.2991 22.313 0 38.097 2.484 12.984-1.3318 22.602-.14695 38.859.74108 31.926-1.3073 65.865 1.1571 96.547-1.9998 12.339-2.2055 31.177-1.8113 46.721-.95728 26.214 2.0272 53.545-1.3621 79.07-15.488.4691-26.566-8.4541-42.927-6.1277-12.635-5.9112-24.919.1967-39.576 0-12.395.77742-24.296 5.0239-35.845 7.149-8.4733 4.1969-19.981 6.3301-27.825 13.277-9.2998 2.192-18.243 11.828-27.869 16.343-8.6131 6.9007-18.87 11.881-27.682 15.827-9.6392 4.4702-19.439 11.858-30.919 15.83-9.5855 4.4565-21.429 8.9417-34.739 11.234-7.732 4.949-18.746 8.7966-29.69 9.1915-9.9854 4.7185-26.842 5.1662-39.319 8.1702-12.438 2.6115-30.833 4.7102-41.77 3.0638-6.6224.8588-15.048 6.4997-22.059 1.5326zm41.362-8.6808c14.347-.3649 28.031-2.945 42.164-4.0851 9.3469-6.6986 23.06-5.8421 33.921-9.7021 9.809-3.9746 18.826-4.7755 27.825-10.723 10.288-1.3052 18.428-6.4836 26.787-11.234 12.549-4.1413 24.335-11.019 32.197-16.34 10.088-3.9186 19.797-11.676 28.596-16.34 8.1572-4.7017 17.789-11.294 27.064-15.319 8.4986-5.0403 18.614-6.5419 27.574-10.213 12.541-4.4321 28.523-3.0435 41.066-7.1489 16.579-.1207 33.605-.89123 47.383 3.0638 16.475 3.9098-1.7118-20.446-10.176-19.404-12.645-6.279-32.8-2.7945-46.255 0-14.661-.25071-29.73-.5381-40.322 6.6165-9.6227 3.5893-18.143 5.6924-27.88 9.7239-7.2754 6.7155-16.465 6.8202-23.561 13.277-6.6453 3.5617-15.857 11.8-25.214 17.362-12.344-.5878-18.853 12.458-29.935 13.277-9.2011 6.106-17.104 8.0063-28.085 13.212-12.487 1.1037-19.681 10.094-32.681 10.279-9.0371 4.5784-23.914 1.4753-28.242 10.925-18.247-.3139-35.653 2.1123-52.593 4.3943-24.895-.5809-51.595 1.6766-73.873-2.2366-16.889.763-29.975-2.638-41.849-7.9761-8.2449-2.8139-21.269-4.8862-29.177-8.1703-9.2638-1.817-17.866-8.938-28.223-9.9574-8.3021-5.9596-17.523-8.5793-24.34-13.532-8.7697-2.1742-18.704-9.4542-26.775-14.298-9.2917-5.8005-20.132-10.177-27.603-17.362-10.523-2.783-16.103-11.214-26.814-12.255-12.066-2.1195-17.934-11.173-31.028-10.213-10.849-6.232-27.688-2.6888-38.922-8.1702-17.085-1.6025-24.584 3.3594-39.183 2.4144-10.775-7.8082-1.7877-32.856-4.7383-47.489.0088-15.595-.25916-37.855.59763-49.068-2.9871-9.751.17726-25.037-1.7156-35.884.03557-98.72.07113-197.44.1067-296.16 3.8619-6.2934-2.3064-15.883 1.1723-27.014-2.8592-36.074-.72611-78.022-1.5934-116.36-.90933-96.488.55256-195.36-1.8396-290.36-10.536-11.733-23.631-15.239-18.67 6.1473.33313 291.1.19052 582.21 1.5167 873.31 6.5884.13377 26.146-27.979 14.805-8.4266-14.133 17.702 2.2681 11.675 17.605 11.355 17.524 1.0799 38.003-2.1388 53.746 1.5319 11.437 1.0221 20.564 6.9701 32.061 6.6383 9.2011 7.2285 17.025 8.8928 27.116 14.298 8.7788 6.22 19.195 9.0633 26.751 17.275 10.906 4.7999 17.627 9.9497 28.085 14.384 9.2553 5.4345 17.755 9.6822 26.803 14.298 10.278 4.1749 19.93 7.0553 28.307 11.234 9.1277 1.9975 17.948 6.0122 27.626 9.1915 11.83 3.9406 24.513 3.9098 36.746 8.1702 11.662 4.1968 27.117.313 39.443 4.0851 21.167-.7153 44.018 1.3944 64.223-1.0223zm-18.093-69.192c13.471-6.5097 9.0637-24.33 2.5191-32.974.32761-21.674-13.022-12.625-6.2445 2.9252 3.083 14.855 3.1417 28.178-2.182 6.7986-3.5653-11.094-9.7521-27.566 8.2732-29.98 7.2236-4.6597 25.101-20.21 7.1059-20.558-14.4-1.8598-31.286 8.647-40.911-1.5319 10.524-4.0214 26.625-4.9471 39.945-7.3641 31.754.55539 62.042-4.3514 93.592-3.3593 12.88-4.9999 27.529-3.4901 40.941-6.1277 23.908-7.2874 53.55-1.0674 79.639-5.3125 11.223-5.2491 1.8606-23.293 1.202-33.304 12.419 5.2574 1.5756-15.429-1.7924-1.2134-9.0751-6.1079-22.392 5.2863-34.46 3.0638-11.779 5.4532-25.921 4.7169-40.093 5.1064-12.428 4.3976-26.328 5.6632-40.603 6.1277-11.513 5.2655-30.165.40416-41.887 5.189-14.335-1.0288-31.111 3.1603-42.355 2.9812-11.182-.5599-26.184-1.0448-40.828-1.4345-7.67-.17315-51.042-.45394-27.227-2.6506 33.102-1.1901 68.04 2.3804 99.993-1.7872 15.413-4.1257 33.895-.83825 49.401-4.3404 12.532-.88911 27.628-1.1562 37.064-6.1276 15.933.67477 30.295-1.9984 43.972-6.1277 12.945.54295 22.069-2.9384 34.61-5.1064-.9649-10.758-7.7624-17.042-13.156-26.744-1.3526-9.926-1.5862-11.406-10.951-11.934-14.119-9.4169-6.0751-20.508-19.937-27.04 4.9989 17.688-9.9609-1.697-18.133-8.2535-5.682-13.537-15.938-25.095-28.568-35.824-9.2305-8.81-14.86-18.259-22.495-27.988-8.1998-17.768 3.2931-9.6925 7.0878 2.0019 13.969 13.588 27.087 29.243 41.71 37.716 9.7084 9.0165 9.0987 21.064 21.463 29.64 1.7376 9.8175 35.42 6.6544 15.526 13.017 4.4461 11.644 21.864 4.0168 29.867 1.2808 8.3919 1.2621 37.483-6.7159 18.133.51064-10.992 4.3577-29.195 1.376-36.912 8.6612 12.881 12.34 27.01 24.075 31.806 39.849 11.197 7.2258 19.412-4.0976 30.456-4.1176 7.1774-.81321 33.665-10.361 16.669.0325-11.759 2.0365-22.343 6.2555-33.761 9.2329-21.37 1.6947 1.6552 9.64 11.998 5.065 5.5676-6.5138 35.159-6.165 13.454 0-6.5842 2.7577-33.648 2.1397-26.393 9.1915 13.662-.74204 24.569-4.7184 36.599-7.6596 20.658-5.0704.0888 7.312-9.2838 6.6383-7.886 5.6925-29.69 1.0713-30.035 13.277.21434 16.226 20.147.41416 30.28 1.8135 7.9407-5.152 21.3 3.4377 31.508-4.3667 6.5865-8.0282 28.477.21549 25.532-15.83-8.0226-9.8238-19.098-12.401-13.899-19.405-12.841-.81447-20.612 14.588-34.101 9.9942 5.7525-6.119 19.669-5.3505 26.619-13.692 4.5228-13.645-27.225 6.9539-17.938-2.5778 18.843-6.2862-.19562-14.049-4.5958-20.327-7.9053-5.7322-16.383-12.307-24.687-19.266-27.222.20567 4.0775-2.0935-6.7399-13.902-13.432 2.7041-19.439 1.2619-2.2756-4.5193.68925-11.426-26.055-2.629-19.671-7.3082 14.196-5.2117-13.607-16.891-16.191-25.68-10.458-9.9907-15.397-21.858-22.84-32.689-4.3444-10.931-8.8257-17.515-9.7234-30.302-8.2012-8.1589-5.8858-23.046-10.723-33.774-3.6565-11.35 1.2792-26.466-7.5181-34.215-1.1002-21.266-1.013-42.829-5.5657-62.573-4.44-9.8294-23.569-8.0086-33.895-12.489-12.165-3.4643-27.123-1.7931-38.548-7.1489-16.891 1.7871-31.059-2.2233-46.715-3.0638-17.571 2.0669-30.767-5.1839-48.363-3.0638-7.926 1.8244-25.584 3.4171-33.863 0-18.217 6.9133-42.363 1.2028-62.953 3.0638-14.334.59808-26.358 3.2029-40.707 4.5958-11.374 2.5597-24.821 1.8377-34.844 6.6383-12.408.99284-27.591.2265-31.449 13.08-.0148 18.494-3.5543 34.848-2.133 54.075-5.314 11.999-.92536 25.659-4.0851 37.896-7.4702 10.813-2.5426 23.764-9.936 33.712.004 13.475-6.6324 21.542-9.9789 32.812-2.3531 9.8737-7.5083 17.411-12.766 27.492-9.3133 9.7931-18.303 22.859-28.404 29.699.72931 5.9094 17.926 10.896-4.8481 6.1277-17.746 2.2286 8.7059 10.634-5.373 11.146-26.246-.48372 15.614 10.045-10.125 8.1642-11.237 2.6548-17.294 10.987-25.804 20.804-5.6274 7.2157-16.487 20.571-8.9652 25.247 15.442 5.6429-24.226-6.4738-7.3179 7.8523 12.448 3.284 23.205 5.7473 35.302 9.5094 3.8724 1.8559 35.046 6.1774 19.4 7.1489-13.623-.87047-24.833-7.4579-40.211-5.1064-11.361-15.554-30.762 1.183-6.349 0 10.096 4.6865 22.83 7.6843 34.791 9.1915 11.017 4.4577 24.416 2.8554 35.648 6.6383 11.325 4.3111 25.933 1.8452 35.681 7.6596 16.368-1.1104 26.918 3.5961 43.729 2.0426 13.275 4.995 28.185 3.6159 42.078 6.1277 7.6613-2.5385 42.025 2.9024 23.753 5.1064-11.662-7.1411-32.43-1.0341-47.606-3.0638-14.689-1.1114-29.59-1.4512-43.243-5.1064-14.065-.86802-27.984-1.9484-39.773-6.1277-14.722.3464-23.042-7.14-37.962-5.1064-10.671-5.735-24.299-3.8106-34.862-9.1915-8.0046-2.5754-34.986-2.4523-18.201 8.1702 8.623 9.066 23.863 4.7281 31.352 12.255 13.483 2.7725 26.247 10.052 42.491 8.0637 12.061 4.278 24.697 5.7957 37.657 7.7661 18.808 3.5687 42.19.48455 62.731 1.5319 8.3545-1.7754 18.978-1.1468 30.188-3.0638 14.99 1.1477 28.32 4.7113 45.231 3.0638 16.958-2.0526 28.622 3.1449 44.623 3.048 18.929 2.767-17.627-.15149-15.734 9.7682 8.4942 9.3723 15.042 20.771 28.677 22.126-3.7802 10.349-5.6295 21.312-7.1489 31.368-6.5498 9.3476 6.3106 27.605 10.263 12.843-2.5867-12.198 4.6378-35.79 4.2897-17.115-3.6792 12.061-4.2556 32.316 15.741 24.77 2.0428-.6951 5.239 1.434 6.2505-1.7861zm-42.673-92.059c8.9207-5.6342 19.137-1.8521 33.432-4.1958 17.801-1.422 38.747 2.8288 54.635-2.0426 17.824-5.8309 42.545 1.4379 61.04-3.5745 13.787-1.0073 27.761-5.3464 42.427-4.2214 12.9 3.0844-24.112 4.1147-31.905 5.7533-19.498 4.605-42.305 1.4576-63.676 1.769-12.465 9.0377-31.383 1.5826-46.331 4.2736-18.649-1.8725-31.178 4.9963-49.622 3.1489zm-61.277-3.1746c12.906-.97989 33.374-3.1243 46.078 1.0213-14.899-.69837-32.892 1.3532-46.078-1.0213zm82.723-5.617c-14.633-2.6263-33.848-2.2435-48.817-.30638-26.103-2.1197.55075-5.2728 15.268-3.8805 29.241-.82607 60.557 1.217 88.513-1.3855 8.8419 4.9344-24.406 3.7177-34.165 3.9217-8.0835-2.834-15.638 3.8606-20.799 1.6507zm-134.3-5.617c9.4446-3.7612 40.23 1.6399 10.019 1.0213-2.866-.94715-8.216 1.7274-10.019-1.0213zm198.64.28774c13.506-3.9364 34.406-2.6989 48-1.309-13.465 2.0576-34.645.67248-48 1.309zm112.34-1.309c12.424-.0341 24.681-5.2594 38.558-4.0851 6.5819-5.5606 31.992-5.8145 11.451-1.0213-12.927 2.4887-26.079 4.5012-39.411 6.1277-2.642-.89554-9.839 1.6223-10.598-1.0213zm-337.39-2.5532c-12.953-1.9213-26.914-3.5485-41.253-3.5745-20.79-4.7154-19.826-6.0095.77117-4.0851 14.335.28414 26.595 5.5863 42.675 4.0851 13.382 5.4687 35.265 3.9116 5.4977 5.1064-2.0547-.99478-7.3933 1.9118-7.691-1.5319zm274.07-.51064c11.891-2.8497 30.019 1.5068 40.556-4.0851 15.14 1.3054 24.185-7.0865 39.982-5.1064 27.834 1.2207 7.0105-.5715-5.2136 5.1064-13.534-.2669-25.416 1.3092-37.902 3.5745-10.254 2.8294-27.787 1.84-37.422.51063zm-233.5-4.5957c-14.8-1.5001-29.312-3.4183-44.333-4.5958-32.026-.117.51701-3.4431 14.409-2.0426 12.3 4.7169 29.823 3.912 40.669 3.0638 10.201 2.7581 41.286 3.3492 11.618 5.1064-6.8133-1.1417-17.521 2.3128-22.362-1.5319zm-117.82-5.617c14.139-4.7238 26.668 4.3644 0 0zm449.36-1.0213c15.268-4.6728 18.054 4.5667 0 0zm-466.72-2.0426c14.139-4.7238 26.668 4.3644 0 0zm52.085.51064c2.268-8.2694 35.981 2.8924 10.723.51064-3.2259-.39109-8.3949.73185-10.723-.51064zm-14.298-3.5745c12.188-4.72 20.289 4.5276 0 0zm-13.572-1.6576c2.3345-7.6311 23.822 3.0686 0 0zm-12.47-3.4488c6.4752-3.9363 16.813 2.2642.63118 1.0213zm560.17-1.0533c13.555-9.7567 17.571 1.1576 0 1.0533zm-574.47-2.0105c12.09-3.3551 10.766 2.2311 0 0zm-11.745-3.0638c9.0454-4.786 18.339 4.389 0 0zm600.51-1.0213c4.6838-4.895 9.2598 4.6266 0 0zm-608.43-.72911c-12.502-4.574 19.206-.97047 0 0zm-15.036-3.311c5.0417-6.2646 17.307 2.8341.66789 1.0807zm-11.262-3.1088c12.09-3.3552 10.766 2.2312 0 0zm248.68-20.398c-6.2077-1.6809-46.6-1.6908-18.9-3.6428 43.738-.84697 90.213 1.0326 132.26-1.4978 10.176 1.5976 23.834-1.9918 37.592-.99878 25.364-.78331 21.646 1.9026-.36666 2.9491-14.638 1.3395-29.6 2.1932-43.755 4.184-35.246-.65912-73.243 1.3081-106.83-.99381zm-64.992-5.6443c-13.569-1.1796-25.043-5.407-39.981-4.5957-9.6796-6.697-26.864-2.4132-37.411-7.2845 13.649-2.2796 28.786.48692 40.586 5.3373 25.844-.95668-17.114-11.919 14.51-9.2758 11.82 4.0266 27.549 1.6777 40.046 6.1167 7.6948-.0796 51.871-.59374 29.63 2.0426-14.996.0976-34.216.32712-44.801-1.3829-16.91-3.9358-30.818 2.8486-7.2974 5.468 7.2357 3.1446 38.896 1.8971 32.06 5.1064-8.3822-1.2778-20.852 2.3701-27.342-1.532zm242.69-3.5745c18.339-3.854 22.66 2.9371 0 1.0213zm-182.81-2.0426c3.7536-1.7767 44.347-1.9058 28.088 1.0213-8.7832-.73429-21.094 1.4216-28.088-1.0213zm40.34 0c16.791-3.5176 39.131 1.8743 55.032-2.6179 7.5392 5.5102-25.01 3.323-34.918 3.6392-5.4795-.8139-17.931 1.5318-20.115-1.0213zm162.38-1.0213c13.755-3.7831 37.583 1.7428 8.8172 1.0213-1.4229-.9345-10.818 1.692-8.8172-1.0213zm-83.745-2.0426c12.519-.73546 30.963-3.359 42.504 1.0213-13.43-.6151-32.153 1.2579-42.504-1.0213zm109.28-1.0213c20.712-3.8127 21.79 3.0468-.63118 1.0213zm-65.311-1.9607c7.4015-2.0878 48.782-1.8677 25.481.76045-7.4503-.48584-21.976 1.2571-25.481-.76045zm-314.6-2.1244c9.547-4.6219 23.675 4.1308 0 0zm354.38-1.0213c9.8755-3.7277 39.366 1.5359 9.4484 1.0213-2.5855-1.0873-7.9628 1.902-9.4484-1.0213zm-374.3-2.0426c18.339-3.854 22.66 2.9371 0 1.0213zm49.021 0c21.449-3.848 26.063 3.0563 0 1.0213zm160.34 0c12.816-3.8584 42.863 1.8666 10.98 1.0213-2.7568-.88839-10.11 1.6073-10.98-1.0213zm190.47-1.0213c18.019-4.6016 17.142 4.0953 0 0zm-414.13-2.0426c12.188-4.72 20.289 4.5276 0 0zm41.872-.51064c-25.256-2.889-1.3925-5.3674 9.949-.51064 28.391.66331-5.0652 4.5492-9.949.51064zm96 .51064c13.211-1.6239 33.787-1.7601 46.979 0-12.977 1.6122-34.023 1.7122-46.979 0zm132.26 0c8.7915-4.5832 3.698 4.9609 0 0zm8.6808 0c14.139-4.7238 26.668 4.3644 0 0zm20.426 0c12.188-4.72 20.289 4.5276 0 0zm-316.6-3.0638c12.369-4.7303 27.61 4.4638 0 0zm120 0c-9.9213.58347-37.684-4.1701-14.181-4.0851 16.348-1.5743 28.674 5.4171 45.388 3.0638 9.9953 3.2853-28.509 2.5087-31.207 1.0213zm220.09 0c5.6565-1.8725 46.355-1.8349 33.315 1.0213-10.697-.65524-24.348 1.3242-33.315-1.0213zm-307.7-1.6576c2.3346-7.6311 23.822 3.0686 0 0zm348.01-.42959c4.7973-2.9523 43.443-1.3422 14.993-.32714-4.676-.49533-11.459 1.4741-14.993.32714zm109.5-.60848c5.7219-7.7514 20.577 3.8937.65309.65309zm-472.54-2.4107c14.834-4.7242 19.176 3.9498 0 0zm57.702 0c15.753-3.9256 24.622 2.6852.63118 1.0213zm333.96-1.0213c12.149-3.84 33.599 1.9962 5.1096 1.0213-1.2011-1.241-4.6795 1.6026-5.1096-1.0213zm93.447 0c7.3469-4.6421 22.154 4.2613 0 0zm-496.85-2.0426c12.09-3.3551 10.766 2.2311 0 0zm54.638 0c15.268-4.6728 18.055 4.5667 0 0zm453.45-1.0213c7.347-4.6421 22.154 4.2613 0 0zm-467.74-2.0426c12.188-4.72 20.289 4.5276 0 0zm420.26-1.0213c5.1021-.38947 35.287-7.6307 21.935-1.4325-6.4269 2.0768-17.492 4.1-21.935 1.4325zm-431.49-2.0426c6.3969-4.862 20.798 4.8789 0 0zm-14.215-1.9698c3.6145-6.0742 21.715 3.0105 1.4491.91727zm473.79-.96355c11.118-6.76 14.881 4.5259 0 0zm14.298-3.1944c7.2296-4.8409 11.929 4.2945 0 0zm-122.89-73.191c-3.9422-14.952 5.7588-.96416 0 0zm-3.2486-9.7369c-2.942-26.797 7.7411 5.6752 0 0zm39.334-48.816c10.796-10.044 10.937 9.2504 0 0zm-15.83-3.0638c-2.0239-9.5605 15.491 5.9337 0 0zm-37.73-1.1376c-6.717-10.44-4.3343-19.578 9.7317-15.902 12.977-12.127 26.617 15.776 8.8512 13.976 9.9338-5.2832-4.6098-24.388-5.3633-5.617-9.7159 4.1715 3.6205 9.9041-13.22 7.5427zm-14.212-2.6349c-7.471-12.449 7.78-14.094 2.4107-.43313-.79557.0756-1.8178 2.0975-2.4107.43313zm64.964-2.8361c-7.5999-30.496 17.593 12.203 0 0zm-17.617-1.9872c-3.9019-26.514 14.33 11.869 0 0zm32.34 1.7872c-4.5822-22.185 13.811 6.1164 0 0zm-62.979-20.051c-3.2713-11.741-1.5399-30.587 2.8926-7.4473.46382 5.6698-2.6624 22.787-2.8926 7.4473zm30.638-13.991c.32392-21.245 7.5417 23.388 0 0zm12.255 5.1064c4.2895-4.8112 6.9069 4.5175 0 0zm26.213-1.7021c-4.5721-13.695 6.3597 3.6639 0 0zm-46.638-4.9362c2.2314-17.806 2.7598 17.356 0 0zm31.642 2.8085c-8.935-5.4381-10.963-11.892 2.0602-4.3404.4187 2.0605.0575 10.478-2.0602 4.3404zm-45.94-2.6502c9.5593-13.406 7.669 4.5009 0 0zm-25.532.0197c11.623-15.222 12.355 1.5199 0 0zm80.048-2.1717c1.1104-13.798 10.995 8.1815 0 0zm-70.175-10.432c-6.9458-11.836 15.892 5.9349 0 0zm69.787-10.602c-14.443-9.6361 8.1709-20.429-3.0638-9.4988 5.8427.17865 6.7064 17.162 3.0638 9.4988zm8.5768.65663c-2.8673-22.532 8.4828 5.0284 0 0zm-45.97-2.075c-16.111.0747-.34942-18.543 2.6697.32537-1.0062.23627-2.8543 2.9678-2.6697-.32537zm11.861-3.1286c.0389-11.285 6.3567 7.0663 0 0zm8.1702 1.6773c-5.7478-16.074 8.2896 5.8379 0 0zm-93.502-1.46c4.2996-19.564 1.3998-3.6494 12.821-3.5416-.58047 3.4473-13.718 1.3324-12.821 3.5416zm20.667.64966c-4.6048-11.144-.49105-13.162 11.701-12.612-7.6768 4.7875-4.188 10.676-11.701 12.612zm11.048-.3563c2.9318-8.3582 9.3137 6.9373 0 0zm18.894-1.0213c8.6185-17.686 11.125 6.0947 0 0zm-67.745-1.7021c.39939-7.8541 1.1306-29.433 14.322-19.318 6.1011 6.5576-21.065-.71232-1.2157 7.7437-15.509-2.2036-4.5103 14.815-13.106 11.574zm349.62 359.29c-.83728-17.248 1.7762-31.182 0-46.503-1.0519-14.382 1.6331-31.313 0-42.643-.59521-15.107 2.4051-25.73-.2819-37.674 5.6699-9.1882-2.6617-21.392.2819-36.432.11733-14.035 1.8935-23.771 0-35.305-1.0938-5.5537 4.9826-21.493 0-30.346 2.3018-16.095 1.4176-21.523 0-37.175.8613-13.724 4.4985-27.036 1.1822-39.18 1.6623-9.7042-1.2361-17.012 1.2331-29.769-.92285-12.821-2.0926-21.506-.74441-32.93-3.1591-6.6887 2.0268-16.166-2.6922-22.314 6.4715-13.114.03-31.036 3.0638-42.287-2.5912-14.046.36952-20.357-3.2483-30.627 1.3191-8.718 2.6216-22.544 1.7164-29.866-.0737-9.9992 2.8006-22.857-1.5319-33.034 6.2349-13.144 1.0655-32.189 2.0426-44.082-.43113-11.759-3.5783-17.609.51063-26.734-1.9422-7.8371-1.0798-18.537.6393-28.995-.22487-14.261-3.979-23.716-.12866-35.784-7.5126-9.1781 1.7098-22.721-2.2979-29.591.68582-6.4952 4.3463-19.784-.76596-27.08 5.2516-10.986-.18851-27.603 0-36.477 2.9365-16.17-1.7837-21.497 3.1154-35.49-6.5426-11.124-2.5729-34.237-1.4444-43.785-3.3255-6.1533 4.092-30.924-9.202-16.763-20.388 5.0191-10.904 30.632-12.944 46.364.18675 133.24.37351 266.48.56027 399.72 4.8761 10.627-2.337 29.654.51064 44.524v153.88c6.4212 9.0674-3.5686 24.762 0 40.167v179.08c8.9085 9.681 24.327 29.984 20.426 3.4682v-16.339zm-134.81-46.101c-7.6235-9.0374-4.0818 6.8087 0 0zm-2.5532-13.787c-4.5024-10.331-2.3947 9.5683 0 0zm-6.1277-22.979c-7.0524-12.029-6.3228 11.65 0 0zm-60.313-303.55c4.0432-11.618-22.435-3.8757-27.224-12.028-18.63 1.7012-31.94-7.7622-51.055-5.1064-10.566-3.294-29.37-5.0428-37.788-3.0638-18.225-6.852-42.317-1.2104-62.89-3.0638-2.6693-6.7865-48.971-.83693-25.5-5.1064 28.483.69767 58.514-1.3804 86.047 1.0213 14.516 1.0594 29.696 1.5073 43.648 4.0851 14.064-.0395 25.229 4.1365 37.897 6.1277 11.507 2.6957 23.944 3.8577 33.349 8.2935 18.634-1.6509-4.0379-10.971-10.982-10.081 16.104 1.1909 19.234-4.0489 13.536-21.191-8.5947 1.1346 10.111-13.382 2.5532-19.678-1.1289-11.012-13.045-16.412-24.575-14.535-13.373-5.7253-21.533-4.505-36.386-6.1277-13.092-5.2269-25.91-5.3965-41.17-4.9473-11.832-7.4946-33.217-1.0911-48.736-3.2229-14.73-4.3588-28.394 1.5941-45.732-.18871-20.512.32782-41.833-1.3744-60.663 3.2525-19.117-1.5891-34.822 2.9423-53.556 2.0426-12.668 6.8086-30.338 2.3169-42.544 7.1489-15.267-2.8188-18.332 19.237-5.9404 9.8336 13.121-3.02 17.747 5.2348.32339 8.5494-19.088-3.245-3.9912 9.1204-10.723 15.636-10.979 15.021 10.585 22.012 1.0814 23.207-21.748 5.862 20.319 10.582-1.9974 10.179-14.238 14.242 10.551 2.9328 17.398 3.0638 13.761-1.3006 25.394-8.6331 41.681-5.8421 11.73-5.3865 28.906 1.3117 39.873-5.3919 14.448-2.5313 35.765 4.9457 46.102-3.5745 12.433 7.8271 21.098-1.4305 33.917 3.5745 17.297-1.615 24.67-.13142 43.265 0 23.124-1.6771 41.526 3.8659 64.715 3.3818 12.695 1.6011 25.054 5.2847 38.983 4.7884 9.8024 6.3033 23.627 4.7303 34.493 8.1702 4.1779-2.6908 5.8511 7.7198 8.6029.79399zm-359.94-13.049c9.0454-4.786 18.339 4.389 0 0zm17.362-3.0638c10.049-1.6054.0158.87751 0 0zm15.064-1.5992c6.6641-7.197 25.267 1.7159.76596.78406zm23.234-3.5072c17.767-3.9384 26.911 2.8076.63118 1.0213zm281.36-.51063c3.8372-7.0477 7.3294 6.9249 0 0zm-333.96-2.5532c10.291.78475 26.886-8.6255 35.745-2.0426-12.797-2.284-24.312 6.7956-35.745 2.0426zm77.617 0c12.816-3.8584 42.863 1.8666 10.98 1.0213-2.7568-.88839-10.11 1.6073-10.98-1.0213zm40.319-.20641c5.7013-10.36 37.187.81404 6.7141-1.8361-3.9595-4.1599-5.9903 7.2208-6.7141 1.8361zm189.1-.30422c-13.718-1.6738-29.197-3.5666-44.066-3.7067-15.87 2.0543-27.512-5.4049-43.771-2.9463-15.013 3.3188-28.633-6.9834-8.8144-4.8731 11.02 5.3709 32.074-1.5312 44.936 3.3559 13.726 4.0125 31.837-1.3125 44.672 4.5958 12.183-1.8587 26.366 8.9562 7.0434 3.5744zm40.71-3.5745c-.16756-18.446 5.9598 8.6023 0 0zm-352.18-1.8676c-5.308-15.585 17.739-14.12 6.7353-2.4341-5.4438-3.5703-1.7724 9.543-6.7353 2.4341zm56.523-.1749c15.216-4.6974 23.124 4.4776 0 0zm272.68-.68555c-8.2166-14.077 14.098-6.916 0 1.7068zm8.8605.27475c1.1054-9.6253 4.5463 6.312 0 0zm8.5012-3.6743c2.6279-21.414 2.1465 19.566 0 0zm-273.16 2.0929c1.3158-7.5041 16.489 4.1159 0 0zm12.137.0348c8.1181-2.6413 22.509-4.4589 34.05-5.1915 4.2956 5.001 38.393-2.1339 14.294 5.1087-16.04-.13605-32.599.93211-48.344.0828zm87.463-1.556c-5.8758-14.214 16.227 8.1745 0 0zm15.262-.57167c12.803-9.4497 16.926 8.2967 0 0zm129.7-3.0131c-4.4217-22.116 8.5635 8.464 0 2.2487zm-290.4-.74748c-1.837-15.678 16.335 1.2618.66498.66498zm14.043-.72779c-1.2606-20.149 14.735-2.449.54664 1.4245zm14.909.6075c-2.687-12.986 7.0696-13.5 5.2441-1.3632.39308 1.9872-5.7521 3.4613-5.2441 1.3632zm227.16-.55111c5.0604-17.594 2.5144-6.211 5.9011-.47152 8.2261-16.515 5.6932 11.54-5.9011.47152zm-267.82-3.9936c6.1098-9.4134 5.4027 9.8633 0 0zm68.241.76595c-20.746-15.128 17.877-8.099 0 0zm18.043.85107c-3.3919-27.965 14.192.86426 0 0zm132.09-5.9574c-2.6206-12.002 20.625-4.6504 9.2514 6.7218-4.6208-27.438-8.9437 14.828-9.2514-6.7218zm20.426 1.5319c1.7026-19.517 10.531 21.777 0 0zm14.298 3.1889c5.1006-18.039 17.81 4.8618 2.0426 1.9175-1.0834-.23661-3.543.90297-2.0426-1.9175zm30.466-.12707c-1.0808-15 14.303 8.8281 0 0zm-206.13-6.1256c2.6279-21.414 2.1465 19.566 0 0zm25.532 1.5319c1.7567-.38384 19.982-16.293 22.468-3.1599-9.5039 19.755 1.3386-11.645-11.745 4.841-2.6078-.80874-13.254 5.4026-10.723-1.681zm29.216 1.959c.24851-14.151 9.8504 11.514 0 0zm11.635.59416c10.523-9.1771 11.903 5.2058 0 0zm14.298-5.617c7.4674-24.549 7.1955 20.71 0 1.0245zm74.553 1.5319c2.6279-21.414 2.1465 19.566 0 0zm-181.02 1.7872c-.75281-10.843 19.192 1.683 0 0zm153 .37104c-2.7885-14.514 18.267-9.0554 5.9245.90556-1.536-1.089-5.2549 1.7373-5.9245-.90556zm-66.965-3.6902c.0389-11.285 6.3568 7.0662 0 0zm37.787 0c.0389-11.285 6.3568 7.0662 0 0zm6.1277 0c5.2596-7.3279 18.199 6.6163.52449 3.5745-1.7563.38994-.24996-2.4827-.52449-3.5745zm-195.84 1.3214c15.509-5.5708 23.065 4.6576 0 0zm161.12-4.3852c6.3276-15.677 1.7456 13.59 0 0zm189.02.10192c-16.615 1.7894-13.878-23.448 1.958-12.685 6.2998-3.1996 5.2248 21.639-1.958 12.685zm-2.3126-6.0022c-5.9113-19.906-10.313 10.852 0 0zm-18.197.29692c-14.314-9.848 11.991-16.649 1.5319.88745zm-307.4-5.9959c-4.6032-25.759 7.8159 16.774 0 0zm291.27-2.4432c8.1167-13.089 1.6425-4.4999 4.8998 3.0026-5.4166 6.0423-5.5904 3.6153-4.8998-3.0026zm-285.11 2.5532c.85626-19.42 15.098-4.0931 1.7916 1.7872-.99471-.20537-3.2317.80917-1.7916-1.7872zm264.89.37804c-2.9243-9.8269 12.738-17.184 4.69-2.5905-1.3923.0435-4.271 7.5184-4.69 2.5905zm-250.63-6.7007c-1.6945-12.474 16.516 9.5517.81702 5.0461-2.6673.71296.22231-4.1311-.81702-5.0461zm15.064 4.4535c-5.1774-17.201 8.6937-12.194.76596.76911zm8.4255.13916c2.8936-18.72 10.229 3.3681 0 0zm213.11-.22739c-9.8688-17.778 12.456-5.3188.68086.68086zm-196.34-7.3834c-5.8618-21.506 14.532 5.6638.32842 2.4757zm26.125-1.6379c4.2235-23.467 7.736 21.209 0 1.0245zm26.213 5.9574c2.4409-22.263 1.512-2.6679 7.4894-1.3617 1.5856 3.5494-6.2071 2.2042-7.4894 1.3617zm59.222-1.1868c-7.1866-9.6458 9.5831-22.891 3.8483-4.9381 1.4629 4.971 5.647 10.555-3.8483 4.9381zm35.757 1.1868c-6.3657-21.519 16.793 4.0058.68085.68085zm14.638-.28016c.68294-14.226 6.6628-9.1555 7.1489-1.0816 2.1405 3.2378-7.7659 2.6571-7.1489 1.0816zm16.729-.522c3.4309-13.752 16.325 3.1748 0 0zm-163.25-3.7265c-12.379-19.939 18.288 8.8353 0 0zm21.925-2.4501c4.9872-22.67 12.341 12.644 0 1.7889zm26.213 3.9149c-1.783-23.991 25.072 3.9642 0 0zm34.723 0c-3.7997-19.194 5.5823 2.4264 0 0zm31.662.002c-1.4413-9.5198 12.24-7.2107 0 0zm-137.84-2.0095c-3.9705-7.2083 10.359 1.9733 0 0zm85.712-.9145c-.0882-20.773 13.358-1.9887 0 0zm46.338-3.0357c.0389-11.285 6.3567 7.0663 0 0zm-137.87.51064c4.2894-4.8111 6.9069 4.5174 0 0zm-192.36 14.809c23.711-1.9191 11.576-8.166-2.6661-7.109-5.8112.25366-.52213 12.4 2.6661 7.109zm67.769-7.1489c2.3396-9.3665 32.08-2.1188 23.666-20.538-11.463-2.425 1.8154-13.867 1.866-23.361 3.7251-10.831 5.9949-20.368 11.234-31.206 4.0551-9.9592 8.9079-21.352 9.1915-34.227-3.0804-15.366 39.608-23.068 22.331-20.494 7.6402.49438 22.977-.98876 29.754-6.5144 7.8033-1.0273 24.394-4.4465 23.899-12.299-7.2906-8.2541-23.262 12.026-13.176-2.5091-21.425.41549-32.553-3.2495-4.0851-2.8006 25.072 6.7656 22.289-18.787-1.1638-12.008-26.785-1.6338 15.567-2.6984 23.797-2.0426 17.919-10.349-34.068-4.8267-5.5793-8.1702 3.6888-.11466 29.41-5.8618 19.158.25532-9.7496 8.8881-13.335 21.027-11.191 35.369 6.0104 8.1115 7.2768 19.444 13.277 27.184 5.429 6.4156 7.8201 39.738 15.319 21.556-.87618-9.2034-10.281-18.375-10.503-27.173 9.1941 7.5219 15.349 14.867 15.678 25.021 8.485 11.879 21.656-2.635 31.592 3.5745-11.519 2.1094-25.533 3.7467-37.341 7.1489-11.676 1.1873-20.509 7.1874-31.309 10.375-12.789 1.9068-23.398 6.4902-31.5 11.866-11.53 1.0147-22.78 7.7361-28.53 16.057-2.0577 3.6018-33.072 27.623-7.7454 22.448 13.477-2.3023 26.636-2.433 39.634-5.735 15.823-.50996 29.012-6.2516 45.51-3.9474 11.328-7.0402 31.518-1.187 46.394-3.0638 14.527 1.5801 26.94-2.5011 37.565-.18301 28.355.66048 58.104-.13624 84.235 3.2468 13.942 1.0071 26.551 3.1713 40.101 6.1277 28.719 2.9953-44.188 1.2376-24.434-.21646-14.497-1.4608-29.341-4.6463-45.374-3.6313-15.48-.78687-34.268-6.0552-48.389.78391-13.653-3.03-27.14 1.6173-44.423 0-24.301-1.2243-45.233 3.5944-69.717 2.0426-14.152 5.2022-30.256 5.0507-44.929 7.1489-8.1314-.73079-38.536 8.9823-17.619 11.234 9.3495-4.5588 25.736-4.0882 37.798-6.6509 7.9233-5.4126 31.683 1.7473 40.883-5.8825 11.121 2.5064 31.602-1.1752 47.051.27803 26.396-4.1982 60.094-1.095 89.741-2.0426 17.672-1.6454 29.25 2.8033 46.038 2.0426 10.431 5.2962 27.189 3.068 39.766 6.1277 14.758-1.1494 24.493 7.4155 39.684 5.1064 17.393 11.105 3.9319-15.905 4.4306-24.48-7.0206-11.864-18.268-15.811-27.524-20.456-8.459-4.6632-19.222-9.2031-28.396-10.213-9.2864-8.1198-21.579-6.7122-33.368-12.341-11.104-1.4673-20.655-4.0477-30.765-7.5741-11.371-5.237-26.065-2.6462-37.399-7.6596-9.1223-13.244-1.7381-34.086-4.1085-50.438.61577-14.971-.42432-29.744 1.9131-39.434 1.4912 11.191 11.066-6.5403 3.1932 13.977-3.237 15.265 3.8421 31.706 7.1489 8.7098 4.332-18.234 7.456-12.998 3.0638 3.441 5.8092-.28801 20.601-.73745 23.489-8.9702 7.5714-2.1979-6.6265 13.251-15.724 15.268-10.669 6.5234-8.6604 23.202 2.1972 26.809 9.6004 13.576 36.313-3.1812 28.846-17.362-8.1452-10.123-2.3447-25.709 2.0426-36.961 1.4938-4.3456 6.9137-34.225 7.3133-13.999-.41269 11.425-5.9401 20.692-8.3346 30.519-9.5558 12.048 12.222 18.897 4.5958 31.675-3.7077 12.742-17.89 15.733-28.856 17.362-10.063-2.4572-28.351-26.44-25.843-1.7836 2.292 9.5701 9.17 19.3 20.632 22.209 12.258-.29817 38.534 10.826 32.535-11.632 4.3474-7.0152 5.2275-19.957 10.841-26.155.59319-9.2455 16.2-33.134 9.5846-13.066-4.1589 10.098-8.9144 20.014-11.458 29.892-3.5097 24.025 5.8917 20.465 8.3943 1.5632 1.9616-10.562 8.3679-17.318 8.1702-28.352 7.5657-10.96-.43543-25.998-3.5745-35.338-3.9077-24.844.12223-3.5896 11.02 5.4711 9.9053-.70763 21.249 9.7074 12.808 12.61-3.5525 2.2876 11.059 17.66 20.428 15.986 11.747 8.2293 27.264-.96207 40.558 0 4.1652-7.2859-20.525-10.021-29.454-9.1915-16.304-6.7841 29.437-3.6458 20.474-7.7824-25.751-4.3921 6.5376-.0726-3.7487-8.5579-14.708 1.3404-28.917-2.2869-38.894-7.1489 7.2424.88805 36.198-2.2876 21.451-13.105-11.085-3.3896-27.03 3.2819-39.469-1.7038-18.51-.20103 7.794-16.678 12.96-6.6816 10.289 10.282 26.039-4.6224 36.098 1.6588-1.3189 12.497 4.7751 20.882 16.742 23.916 14.617 4.292 9.35 21.485 16.501 31.602 18.83-1.977 19.192.91579 24.787 11.292 8.3259-.10112-15.217 13.884-3.2824 26.001-3.9843 13.536 7.2061 25.614 3.0638 34.375-4.1363 21.152-10.629-24.903-8.1702-18.655.13636-13.012-.13111-27.724-6.2947-36.614-24.903.43671-5.5659-5.4794-14.131-9.7021-6.6209.9519-36.444-11.678-27.863.94961 9.2277 6.2868 19.348 8.9192 24.799 17.997 8.5553 9.8972 5.4659 27.479 10.213 39.498 5.3055 12.989 5.549 18.879 7.3694 33.924 18.646 5.0752 40.978 1.8767 59.948 5.0222 26.472 3.1208-.16706 4.0084-12.888 3.445-8.2042-1.3332-27.467-7.6384-32.983 3.2091 4.3221 15.64 27.167 5.6397 40.784 8.8023 11.299 1.3251 23.563 3.985 39.187 3.0674 17.978 6.7396 25.997-17.216 3.7738-12.519-7.4081-2.2698-31.214-7.626-7.3223-7.9985 5.7298 5.4079 29.622 13.12 23.948-5.5161.0234-9.1662-2.2491-34.18 9.9204-25.03 16.722 3.3228 30.171-.96074 24.517-20.426 2.5871-5.667-1.8772-25.805-.52163-37.606-4.8966-13.777-14.954-19.793-31.942-16.928-10.186-4.4433-4.5025-28.021-2.2598-38.145-5.0984-9.151 2.8491-17.104-3.0638-26.794 6.8789-17.536-.0534-41.558 4.4957-60.188 3.5933-11.961 1.9537-27.459 6.7384-38.628 1.204-14.382-1.1097-26.238-10.306-36.008-9.8326.50873-36.396-1.5755-15.117-5.1064 20.124-9.8689-9.76-2.1786-13.264-8.4355-8.7695 10.865 5.0909 13.503-1.1464 28.718-.40384 16.982 1.1537 38.315-2.1941 52.643-3.2968-19.41 2.7208-44.744-3.9311-61.66-2.1527-9.2709-23.713-10.274-28.15-1.8217-.85761 8.1078.67017 49.623-3.0745 34.988-3.5654-7.7845 6.9873-42.549-6.9399-31.475-8.4978 2.4424-18.475-3.8632-28.661 1.3405-16.941-2.3702-27.708 4.2413-41.724 6.1277-9.8402 3.4452-25.345 10.167-34.926 1.0278-7.7975-11.746-33.508-8.274-41.375-4.3485 6.0965 7.2478 20.145 2.2564 28.475 5.3633-3.1135 7.8754-5.903 17.73-10.092 26.241-2.6515 11.579-7.4672 20.753-8.1702 33.058-5.1681 6.3575-7.966 18.759-11.234 25.343-8.3328 18.972-4.2605-4.3748 0-11.777 2.5558-8.7875 7.682-17.793 8.1702-28.274 4.2792-8.8383 6.9988-18.748 9.1915-29.021 15.443-23.504-10.921-8.0741-11.234-7.1421-3.0794-12.687-26.991-.95029-37.787-4.0697-2.3215 12.459-3.8309 25.298-6.1277 37.769-5.5478 11.088-2.1802 26.362-9.1915 36.762-5.7973 18.241 10.632 17.687 21.336 21.316 12.863 2.9907-3.3119 16.306-.91013 25.413-5.6392-18.554-6.766 5.6069-14.743-5.127-9.4996-.68233-19.846-2.9721-9.6475-6.1071 19.992 4.4634 32.95-9.6358 5.6964-6.1277 12.58-1.008 11.732-13.619-3.7744-6.5362-4.9256 15.403.83404-14.55 0-23.826 3.8332-12.208 5.0636-25.638 6.1277-39.146 4.6713-2.791-.3936-58.565 2.3091-34.77-16.711-2.5471 37.807-3.6708 8.5428-9.0833 22.168-16.398-19.972-15.633-3.006-24.117 4.8273-9.7686-17.053-11.088.26022-15.713-3.4743-18.907-14.158-6.9693-11.016 9.2146 16.013 10.487-16.074 10.399-11.899 22.188 8.6124 7.7254 15.877-6.6071 22.698 6.6289.15871 5.663-21.476-6.1779-14.017 17.889-4.5596 13.757-5.2708 27.41-6.1277 42.614.49337 16.822-10.671 21.481-2.0426 3.3434-1.7316-14.894 3.4316-24.812-.44199-37.228-9.3358-1.3891 12.071-14.186-2.6218-21.756-12.859-.72729-28.852-4.7301-41.22-.51064-11.795 4.772-37.569-6.4472-29.248 17.654 7.1453 10.187 1.5574 27.319 8.1702 37.967-.90535 13.951 3.7084 25.798 6.1277 37.248 1.8053 14.106 22.116 5.0392 3.0638 16.661-5.053 20.358 29.8-1.6593 31.802 12.512-5.3107-1.1132-38.716-7.7171-28.681 6.378 6.9 9.4962 9.1218 13.68 8.1135 30.388-6.2622-5.0743-7.4177-16.509-12.766-24.141-2.3296-10.918-4.7863-23.257-6.6383-34.699 1.1158-14.949-4.9656-26.719-6.1277-39.671-.42299-14.266-5.5214-25.318-6.1277-39.457.88924-9.7092-9.8087-35.159-14.298-12.824 7.8111 16.557-1.2026 20.993-3.0638 1.548.27425-14.672-15.715-15.075-25.718-17.223-17.738-6.546-16.659 12.283-9.0051 20.676-.41133 7.6841 10.982 32.962 3.3381 26.923-.4398-10.297-9.6639-17.788-8.4445-30.018-3.3091-6.2932-11.355-29.413-14.298-7.5264 2.8222 6.0786 9.2516 26.358 0 12.196-.99322-12.517-7.2349-23.683-20.612-22.25-15.959-1.9228-28.867 2.6501-43.729 3.0638-13.934.98962-25.145-4.2379-36.829-6.1277-13.194-12.133 14.589.36109 21.631 0 16.303 1.7604 3.7352-25.433-10.155-17.197-11.767-1.4198-33.992-6.1914-21.321 12.196-13.849 5.0011-32.769 1.633-47.177-.0851-14.168-.86729-26.2 4.355-35.593 7.1292-5.0966 6.6045-4.3373 29.895 11.995 29.612 18.142 2.176-23.651 1.6284-13.273 17.993-7.0916 21.321 15.585 16.425 29.396 16.735 24.603-3.8018 18.376 7.0684-1.8085 5.1064-11.77.37514-29.998-1.8171-30.652 13.119-.1946 17.768.74197 27.41 3.0638 41.478.48821 14.069-2.675 29.303 7.1489 39.361 8.7936 4.3066-16.923 10.875-7.1489 24.247-1.9755 16.184 2.7217 27.782 3.0638 42.374-2.0163 13.398-5.5039 27.662 0 40.629-1.8224 10.751-8.1194 28.129 1.3773 38.793 22.996.71521 48.816-1.3942 70.112 1.0213-12.451 1.9408-26.377 5.619-41.358 4.0851-11.367 2.909-33.825-12.221-32.173 8.6936 6.3516 10.036 29.005 6.6238 38.037 2.5405 11.812 1.7331 36.588-6.8518 27.324 12.836 2.9438 1.8687 17.203 3.9823 14.299-4.1552zm378.41-18.847c11.797-5.907 8.15 2.7655 0 0zm-14.838-3.1108c15.268-4.6728 18.055 4.5667 0 0zm-410.43-11.614c.55773-8.5264 25.444-1.2827 4.0312 2.4227-2.083.9012-2.8324-1.2802-4.0312-2.4227zm484.98-10.502c5.2202-5.3713 12.579 9.3556 0 0zm68.426-3.9268c-13.241-2.3805-28.433.26883-36.766-14.016-1.1085-12.347 1.2772-49.198 2.0426-17.276-2.4539 25.832 11.148 17.003 6.1277-3.9293-.12652-7.3535-.52095-47.896 2.047-25.294 1.1805 17.8-2.2825 36.95 1.6861 53.939 17.57 1.7388 32.438.40765 30.99-18.624-4.4677-8.9636 3.522-25.101-4.0851-36.287 2.4404-12.325-1.5342-29.858 0-45.875 3.862-14.776-6.7455-30.814.33518-43.174-4.2878-9.2285 1.8655-24.116-.33518-40.739 4.512-2.2693.86757 30.478 2.0426 41.511 1.0425 21.586-2.0977 45.137 1.5319 65.508 2.4949 18.668 1.8416 40.238 3.5475 59.982-2.559 7.2239 4.582 33.385-9.1645 24.273zm-532.09-1.3736c8.4241-6.744 31.829-6.474 40.101-1.0423-9.7406-1.2853-27.956-2.3855-39.458 1.9053h-.64253zm552.51-2.7115c2.4329-10.187 2.0941 9.8386 0 0zm-39.83-29.557c-1.3349-26.946 3.514-20.546 2.0426 2.1757.82256 29.935-3.2597 16.591-2.0426-2.1757zm56.851 8.961c-3.0743-14.799 2.0636-40.82 1.3617-10.299-1.1501 1.0354 2.072 13.871-1.3617 10.299zm-14.979-3.4042c4.6838-4.895 9.2598 4.6266 0 0zm-493.87-7.8502c-11.467-16.016-2.5169-7.124-.53739-23.715-2.9754-8.3354 15.274-30.307 6.225-14.41-1.5638 13.228-1.0816 27.108-4.082 39.341l-1.0285.63564zm494.58.0481c.24115-8.201 14.359 3.0586 0 0zm-.70862-8.0278c14.077-12.316 3.6414 7.5478 0 0zm-333.45-1.5319c12.091-3.355 10.766 2.231 0 0zm15.161-3.9102c2.5922-12.644 3.5296-30.287-1.3736-41.797-9.7554-11.523-5.9176-21.744 2.6358-10.821 5.793 3.0925 2.6076 21.512 5.5344 33.282 2.1571 8.8466-1.2551 28.679-6.7966 19.335zm316.27-1.132c-3.0564-6.2199 17.014 1.9615 0 0zm18.466-14.065c-12.242-5.7022-.87499-40.094-3.1755-11.467 9.2366 14.927 5.9611-16.208 11.998 6.0636 4.6856-19.369 11.352 2.7714-2.7785 6.0471-1.9597-.48985-4.2394.61981-6.0443-.64365zm-374.92-3.3006c12.901-6.2208 25.851 4.7762 0 0zm398.72-.43191c-.99537-19.553 7.2536 4.7153 0 0zm-568.76-1.6709c2.6914-5.9941 35.407-2.3338 18.266 1.0213-5.6233-.90078-13.761 1.7384-18.266-1.0213zm163.91 0c9.0603-4.9519 5.2706 3.2705 0 0zm22.468-.86299c6.5723-12.996 6.416 6.2842 0 0zm5.1064-7.1822c2.5105-21.621 9.5585-15.658 1.3711 1.9175-.97583-.12036-2.8178.62536-1.3711-1.9175zm292.1-4.9761c1.2338-25.439 3.4411 27.06 0 0zm10.197 3.3192c7.7208-22.091 12.603 15.404 0 0zm-501.74 1.9204c1.0324-7.377 17.891 1.8957.72891.72891zm179.06-2.115c-1.0337-4.7805 14.49-6.9909 14.255-13.843 9.7968 8.2071-5.6952 21.199-14.255 13.843zm303.28-3.8302c.94834-16.355 5.6723 13.41 0 1.7286zm-429.29 1.6466c-5.8316-9.0998 19.582 4.9618 1.6902 1.8676zm95.537-4.9245c2.1898-24.198 3.2772 23.296 0 0zm14.542 5.4728c-3.2626-30.8 8.4816-3.8053 0 0zm111.05-2.0655c-5.0058-14.418 5.3178-16.85 4.7809-3.2787 15.185-8.2645 17.926 5.0176.40444 5.6423-2.6488 1.3397-3.7673-.85825-5.1853-2.3637zm-221.79-5.7796c-2.8042-8.7026 11.625-31.348-8.1771-25.549-12.584-2.4231 26.136-.82344 13.448-14.066-19.984-10.208-11.333-4.7612-4.2586-19.789-7.5115-15.827-11.71-3.5185-2.4228-18.906-1.4408-12.394 44.173-5.3648 27.447-4.4403-17.177-8.1479-28.83 14.105-6.7701 12.255 27.955 1.1022-3.9868 2.4028-12.717 4.1599-7.9194 10.954 5.715 30.559 19.776 27.5 14.868 4.838-14.31 10.912-12.044 2.5487-12.738 13.721 13.262 12.792 23.497 11.749-5.8074 4.6692-36.585-2.9587-28.558 14.845 15.252 3.7967 33.819 3.8262 5.7763 4.5595-31.223 1.1475 27.508 4.7954-8.1099 6.1051-2.2728-.31056-5.0677.85932-6.8867-.97191zm-59.243-1.9602c17.542-11.609 9.1011 6.1772 0 0zm206.64-5.7949c-2.2329-18.197 5.0632 8.8083 0 0zm-12.42-10.976c-10.597-20.446 13.707 7.4459.2987.31796zm-231.59-2.1184c.56186-11.338 5.3862 4.7185 0 0zm215.08-5.6056c-6.2923-17.977 1.9786-16.364 2.0426 1.2592 1.108 8.4079-3.6774 5.0056-2.0426-1.2592zm37.787 3.4494c2.106-9.1007 2.0031 8.8247 0 0zm265.16-4.3607c-1.529-6.3798-.82626-46.204 1.4428-23.475-.6856 3.2297 2.3805 36.112-1.4428 23.475zm-268.23-3.8095c2.2314-17.806 2.7598 17.356 0 0zm-22.723 1.9699c-2.529-8.2381-11.47-20.265.50542-23.927 16.704 10.935 20.571-10.649.17878-6.1272 1.0852-7.2677 19.577-19.565 16.018-.00053 3.5711 4.4381 7.9064 33.524.91135 13.753-4.7435-2.4889-26.898-5.8024-18.31 2.8023-3.5638 3.7216 6.0042 12.103.69662 13.499zm299.12-1.1466c-.59873-16.831-1.0399-33.369-2.6956-49.454 5.9109 13.494 4.329 31.88 5.4174 48.829-.88531.0201-2.0444 2.3911-2.7218.62541zm-192.23-2.7268c-.99538-19.553 7.2536 4.7153 0 0zm-181.19-6.2667c2.4329-10.187 2.0941 9.8386 0 0zm158.3-3.5745c2.628-21.413 2.1465 19.566 0 0zm71.489 3.234c-.19921-15.738 14.017 19.744 0 0zm-46.142-3.4894c-13.723-13.739 11.826-1.2832 0 0zm-338.88-.25251c-.56073-8.7344 26.733 5.5735 0 0zm200.91.91133c-1.4122-7.351 11.086 1.5892 0 0zm10.49-1.4248c-19.304-6.9785 13.271-1.0931 0 0zm-195.06-5.617c-19.402-6.4322 8.4146-.32531 16.34-.51063-.0823 3.7301-13.881 2.6984-16.34.51063zm115.4 0c-25.141-3.948 20.91-5.1692 7.399-1.5319-1.1716 2.821-5.6054 4.9907-7.399 1.5319zm166.47-1.9333c-18.42-6.905-18.816-4.7773 5.1064-5.7263-.93417-12.61-15.999-21.97 3.8994-20.518-2.7658-9.4407-22.242-11.277-34.538-10.121 9.0952-5.0198 30.969-2.1206 37.41 5.3569-2.6102 11.028 1.1299 26.329-8.0431 33.452-1.531-.56202-5.8224 1.6365-3.835-2.4439zm18.383-4.0361c-1.4382-11.341 8.5614 4.9306 19.404 1.3736-2.5252.97764-25.155 8.0904-19.404-1.3736zm-144 1.8843c6.7634-12.49 2.3592 11.017 0 0zm6.1277 1.723c8.4843-15.227 9.5378 4.1375 0 0zm30.047-1.6789c-.61438-18.561 6.4668 9.6876 0 0zm11.825-1.0653c.0393-11.285 6.3561 7.0666 0 0zm121.53.57091c3.7886-11.025 2.6559 8.9573 0 0zm-305.36-1.0816c8.8397-4.816 12.892 4.4003 0 0zm-18.687-1.6654c6.3622-7.0269 30.007 2.1851 3.5872.61876-.56702-1.8012-3.1262 1.4513-3.5872-.61876zm179.03-2.4197c6.4918-10.494 4.017 8.8369 0 0zm172.85-.50923c-4.2192-8.4651 9.345 4.2064 0 0zm-237.66-.44148c4.949-4.8278 40.736 1.5325 12.608.95071-3.5853-1.0459-10.073 1.8141-12.608-.95071zm73.999-2.6238c1.2254-15.598 3.5489 10.42 0 0zm-163.4-.51064c15.268-4.6728 18.055 4.5667 0 0zm129.7 0c18.037-3.8903 22.081 2.7943 0 1.0213zm44.936-2.9546c-12.013-39.363 8.2215 18.398 0 0zm-155.19-.57062c-31.437-4.7162 22.828-3.5738 0 0zm322.68-.48889c-1.3116-8.1568-34.507-12.179-15.569-15.39 5.0506 4.7754 32.68 8.9521 17.964 16.34h-2.3949zm12.255-.071c12.369-4.7302 27.61 4.4638 0 0zm-233.16-3.7169c6.2762-5.3659 22.63.93775 28.243-10.581 19.502 3.6608-.57085 6.6236-8.5194 11.234-6.4278-.48004-13.769.93202-19.724-.65308zm65.195-.31785c1.3158-7.5041 16.489 4.1159 0 0zm-165.99-3.1142c9.0455-4.786 18.339 4.3891 0 0zm63.319 0c5.484-5.1769 34.782-3.677 11.17-2.0426.30699 5.0177-10.007 3.4283-11.17 2.0426zm85.419-2.7512c.22551-6.2435-10.089-29.662-3.7169-23.469 1.8392 14.628 16.254 4.1282 23.554 10.901 12.985-8.2449 18.045 13.471-.33194 13.393 7.7899-1.9046-7.8983-19.163-17.095-8.5432-.50122 2.013 1.5866 9.8765-2.4107 7.7185zm216.88-2.7076c5.5212-12.215 3.5138 9.0698 0 0zm17.362 1.896c7.4864-13.347 12.163 5.1269 0 0zm39.024-1.0718c-25.184-1.2022-8.1847-5.7928 6.8633-6.5994 15.093-1.7062 27.266 4.9958 9.3005 8.1579-4.8973-1.2127-12.553 2.2706-16.164-1.5584zm-47.194-2.3101c5.1112-10.869 6.4735 6.0077 0 0zm96.681.13617c.11746-12.658-3.3044-30.107 1.3617-41.312-.80363 12.58 1.6424 32.712-1.3617 41.312zm40.17.12751c6.7522-13.342 19.954 5.4623 0 0zm-442.68-4.4767c10.357-7.2959 21.835 4.5075 0 0zm221.54-1.3301c-3.3959-22.249 8.0851 1.2928 0 0zm11.779-1.8101c2.4245-8.2708 2.1712 7.9501 0 0zm-216 0c12.043-6.4645 21.341.44677.63115 1.0213zm376.34-11.174c3.2227-21.244 1.602 18.659 0 0zm-288-3.695c1.7238-24.122 3.1765 24.248 0 0zm118.47.57092c2.4244-8.2708 2.1712 7.9501 0 0zm-153.19-5.617c.0378-11.285 6.3589 7.0652 0 0zm156.26-4.0851c.0389-11.285 6.3568 7.0662 0 0zm163.4-8.6808c1.3042-27.076.97143 4.2407 4.0851 12.255-7.9585 2.3189-2.4835-8.1514-4.0851-12.255zm-304.63 10.6c-5.8432-11.393 17.095 3.9512 0 0zm-26.26-4.0221c-1.1689-9.8629 5.9674 5.0848 0 3.6347v-2.8069zm42.894-2.4929c1.8211-22.382 3.2094 21.515 0 0zm349.84 3.5382c-4.0705-10.893 10.075 5.216 0 0zm-320.74-.48155c11.755-.45371 2.1028-.78631 0 0zm-63.144-2.7162c-4.2411-15.496 5.6494-3.0203 0 0zm161.7-5.4468c2.6279-21.414 2.1465 19.566 0 0zm-173.62-1.0816c-1.1425-10.914-6.0189 3.0673 0 4.1454v-2.8069zm386.04 2.2611c6.5821-13.099 6.9393 6.3971 0 0zm13.926-2.7173c-.39563-13.568 5.9193 5.6107 0 0zm-77.245-7.0828c1.7917-29.613 2.9185 27.649 0 0zm-313.87 5.8972c-4.2411-15.496 5.6495-3.0203 0 0zm-11.234-3.0638c-4.2411-15.496 5.6494-3.0203 0 0zm105.53-.85107c-22.996-2.9036-12.648-2.2084 2.7512-6.6383 22.669 3.1428 4.5386 7.4847-2.7512 6.6383zm73.532-3.5142c2.1874-17.097 2.8098 15.346 0 0zm-228.77-3.6347c2.8072-7.692 42.963 1.8917 28.088 2.5532-7.5135-2.0795-25.312 3.9539-28.088-2.5532zm57.872 1.8723c-5.2001-20.43 9.0881-2.8076 0 0zm-11.915-4.3653c2.8838-9.5966 4.115 8.6531 0 0zm185.04-2.3582c4.4814-.12195 2.4429-.25252 0 0zm-161.55.76596c6.9148-6.2622 18.872 5.6559 0 0zm302.3-12.078c6.6904-14.361-30.987-10.781-15.15-15.801 19.211 18.237 17.987-26.968 20.256-5.0621-.34512 2.7509-5.0804 41.675-5.1064 20.863zm-137.33 2.0761c-1.22-9.3849 4.2414 5.5195 0 0zm148.56-10.935c-1.1312-28.482 6.2107 7.088 0 12.255v-12.255zm-342.5 7.4616c-3.6838-11.377 7.6332.55497 0 0zm197.13-4.0573c-3.8402-14.16 5.645-2.8458 0 0zm169.92-1.8204c-1.8221-18.499 19.048 3.199.42791.45549zm-369.75-3.6867c-1.1425-10.914-6.0189 3.0673 0 4.1454v-2.8069zm400.34 2.1028c15.268-4.6728 18.054 4.5667 0 0zm-95.234-1.7354c-11.155-4.9631 19.654-.44619 0 0zm-102.89-6.9455c.0389-11.285 6.3568 7.0662 0 0zm-81.191-1.5319c3.0866-4.9283 14.894 3.4088 0 0zm-233.36 310.47c-1.7162-14.991-9.8761 15.214 0 0zm-52.085 0c-4.6837-4.895-9.2599 4.6265 0 0zm26.369-1.7872c-6.1634-10.6-7.1155 10.136 0 0zm-9.0072-.25532c-7.8394-9.1498-3.7886 6.5211 0 0zm-8.1702-1.0213c-4.6837-4.895-9.2599 4.6265 0 0zm495.15-4.4334c-4.4763-15.195-16.761 5.7929-.35647 1.8802zm8.7638.7199c14.556 6.5145 10.913-12.245-4.5719-4.4567-3.6787 3.8586 2.448 9.644 4.5719 4.4567zm54.542-1.1376c-10.935-12.812-10.322 11.999 0 0zm11.208.19897c-6.1771-17.911-12.019 10.723 0 0zm-29.407-1.4756c-18.122-1.195-1.3702-.87086 0 0zm-14.298-3.0638c-7.2295-4.8409-11.93 4.2944 0 0zm-588.45-16.596c-.74309-7.9889 14.972 15.368 14.492-2.1139-6.8929-11.774-1.6594-27.387-1.0213-38.736-.69974-9.6091-8.0578-30.264 0-34.213 3.3227-23.07-9.0824-4.3065-17.828-14.555-13.024.11435-14.885 13.456-16.681 23.734 1.392 16.597-.74074 28.348 1.3174 44.181 15.003-8.5942 25.016 18.256 17.075 14.122-3.0209-25.311-8.5639 11.991-8.3944-6.1067-12.98-10.843-6.4429 11.472-1.0213 15.688 1.6828 2.4529 13.475 5.0249 12.062-2.002zm-7.9765-1.3369c2.2553-9.0843 1.9958 9.6527 0 0zm14.298-5.506c-5.3254-30.242 6.6725 18.419 0 0zm-14.603-62.994c-4.5946-7.1799 13.312 1.2379 0 0zm667.19 57.099c4.7785-26.83 1.2305-.006 7.3208-3.8581 2.3247-7.7864 13.738-23.968.41635-18.638-3.6669.84112-15.836-2.0294-14.874 16.843-1.77 6.5441 1.2991 10.627 7.1373 5.6538zm-9.6768-2.3693c4.5178-14.541-1.4817-30.887-6.652-8.5792-1.4674 4.1953 2.6641 16.403 6.652 8.5792zm-287.5-285.4c-11.719-13.59-9.3513 10.121 0 0zm-67.607-6.7426c-4.2957-8.8042-25.311-4.5092-36.124-3.8133 3.0258 8.1772 24.492 6.0758 35.816 7.4921l.23416-2.7971zm139.61-3.9808c-9.9906-14.757-14.614 15.168 0 .76758zm9.7649 1.9798c7.5654-19.186-19.406 8.9703 0 0zm8.0715.12993c3.1779-10.91-13.395 8.3441 0 0zm-248.21-1.3437c16.692 3.9829 11.986-8.4268-.43404-10.894 1.9873-9.1401 19.088 11.203 28.224 8.5068 13.425 1.5384 1.0184-16.196-.13929-13.819-.24168-15.219-15.796-10.542-25.915-6.1078-15.659.7441-20.421 28.011-10.851 18.484-2.747 7.2445 5.6734 5.957 9.1149 3.8298zm350.17-7.6596c3.479-6.0081-22.616-2.467-8.2797-9.3334 1.7462-8.4212-5.6502-25.743-9.3907-10.329 7.9134 24.199-13.476 6.9298-9.5797 24.628 6.7472-.7975 28.554 5.7593 27.25-4.9649zm7.9063 4.7786c1.3355-29.608-11.799 5.8251 0 0zm-292.64-2.4807c14.128-7.6392 19.317 1.6518 25.33-7.4042-2.5161-9.6969-40.738-6.3197-34.308-5.805-7.0182 4.4409 1.1243 20.807 8.9778 13.209zm371.02-2.9335c-4.0743-17.882-7.7971 13.068.009.1317zm-198.43-.64093c-4.2896-4.8112-6.9068 4.5175 0 0zm-401.78-3.5722c.33555-16.331-14.506 10.906 0 0zm17.597-.2576c-.0104-2.5804 19.856 9.6838 15.568-5.3617-15.597.1484-25.885 2.1847-13.958-11.407-5.3129-1.4501 4.2119-21.588-12.659-10.84 3.4857 14.334 9.829 11.843-4.0851 24.548.7123 6.9428 13.473 8.2603 15.135 3.0601zm191.16-2.8085c-2.4095-6.3586-2.2914 6.0803 0 0zm194.87-2.2979c-3.1302-16.913-8.8958 17.316 0 0zm-319.24-2.5532c.92129-15.591-18.546-9.7127-6.3502-2.991-3.6015 5.9562 8.8155 7.8647 6.3502 2.991zm152.96-3.7107c-10.383-13.853-.82108 9.1063 0 0zm347.2-.58945c10.644-14.331-17.586-16.47-6.0898-2.9145-2.162 4.7625 3.8588 8.14 6.0898 2.9145zm-410.73-2.8488c6.0887-10.734-10.606-23.374-11.016-10.471-2.2055 9.7083 1.8824 15.025 11.016 10.471zm233.44-.25532c-2.7431-6.5648-11.755 5.2388 0 0zm-174.64-1.0213c4.3784-3.1697 2.9855-18.258-5.4757-14.809.83226 3.6082.58855 20.953 5.4757 14.809zm427.86-28.094c21.382-17.212-10.111-9.0434-19.965-8.1616-18.453 2.3777-32.565-4.4882-50.57-3.0638-9.69-5.6599-22.773-4.1305-32.562-9.7021-9.402-2.35-19.277-7.9175-28.008-9.7021-7.1408-6.482-22.158-6.0388-29.296-11.234-10.939-2.8266-21.004-5.1834-30.227-9.1915-11.887-4.3854-27.89-4.023-38.824-8.6808-12.522-3.1109-25.84-4.4161-39.197-7.6596-13.345-2.9794-29.744.35771-42.129-5.1064-16.823.29485-21.105-2.0798-37.016-3.0638-25.529 1.1433-54.186-2.2641-77.796 1.6709-7.5205 1.2893-27.762.25157-39.143 4.4567-15.461-.43997-27.147 2.9973-41.256 5.1064-11.088 2.101-25.325 3.8906-34.582 8.0232-13.357 1.7229-24.454 4.7275-35.738 9.3385-10.731 3.0964-18.684 4.2391-29.401 8.1377-8.7714 2.4225-17.597 7.7532-27.739 9.224-7.8006 7.6794-20.315 3.5367-28.905 11.234-13.916.82202-24.542 6.0899-38.851 5.3723-15.244-.40539-31.822 1.7365-45.664-1.2872.46335 15.111 13.785 20.464 27.98 18.385 11.779 7.0743 24.723-3.5726 39.304-.002 11.274-2.7514 23.343-5.4305 34.061-8.1702 8.7787-6.2634 19.736-6.0636 29.233-11.234 11.932-4.5623 25.571-8.6299 38.699-12.249 9.2456-2.2967 19.941-10.804 33.082-8.1765 9.8464-5.9243 24.32-3.4183 33.143-9.2982 16.18.11316 28.742-6.1419 44.474-4.9996 14.167-5.077 30.763-3.4918 45.798-6.1277 16.689.21522 36.584.07142 50.567-1.0213 18.378 3.3445 41.32-2.2162 58.46 4.0851 15.102-1.1046 28.257 2.9681 41.83 4.5204 13.059 1.8952 27.966 4.2625 41.224 7.6087 9.7717 3.3926 21.639 3.0275 32.693 7.2752 11.941 2.6004 22.189 6.9394 33.113 10.213 10.683 1.6258 20.807 7.8743 31.028 10.213 8.3235 3.7028 17.963 6.1968 26.674 9.7021 9.5416 5.6265 23.734 3.642 31.878 9.7021 16.242-.0687 28.838 5.1521 46.47 3.0494 11.501.28676 20.394 2.1391 27.161-9.1857z"/>
</svg>
