<?xml version="1.0" encoding="UTF-8"?>
<!-- Created with Inkscape (http://www.inkscape.org/) -->
<svg version="1.1" viewBox="0 0 1487 544.34" xmlns="http://www.w3.org/2000/svg">
 <path d="m121.79 541.93c-4.1188-10.18.16422-22.904-7.2883-34.646-10.245-26.419-32.826-50.123-60.371-58.944-9.9302-5.4412-37.535 4.3086-31.151-19.073-.58478-108.17.19492-218.79-1.259-325.43 12.028-4.5694 26.29-3.0543 37.516-6.8162 8.4648-4.9664 20.491-11.312 29.617-19.786 4.406-6.8739 14.688-14.368 18.383-24.833 6.3678-10.929 10.548-22.521 11.234-34.325-4.8752-21.491 16.501-11.921 28.698-13.266 290.18-.59562 580.36-1.1912 870.54-1.7869 13.507-2.1505 37.088 3.2113 49.634-2.0023 12.906 1.7016 27.633 3.0239 44.918 2.1385 59.232.34847 119.56-2.3764 178.11-.11203 9.6774-3.7257 21.154 4.6579 31.168-1.4137 19.38 7.4463 45.997-2.5798 65.362 4.9021-1.6672 20.22 3.6902 28.641 11.333 46.402 13.487 20.275 34.158 39.157 58.174 45.104 6.1446 4.913 32.319-.6679 28.536 12.376v331.39c-11.649 4.5219-27.005 2.0143-36.766 7.5574-7.7036 3.6399-21.458 8.5187-28.085 15.6-17.47 14.879-29.307 36.379-33.191 57.421 5.5478 21.447-17.641 19.898-31.59 16.543-12.246 2.3977-27.114.75567-39.64 2.2616-150.36-2.6126-300.73-.44484-451.1-.801-18.287 2.4136-40.218-1.3266-59.585 1.2284-139.77-.74232-282-.0831-422.92-.30925-11.038 2.7742-29.599-1.8518-43.026-.0135-10.966.84478-25.392 2.3457-37.785-.016-12.153 3.9078-26.556-1.4605-39.037 2.0491-19.456.17727-38.24-3.9303-57.956.21691-4.0965-2.5844-20.449-1.9608-28.8-1.0405-15.27-3.2504-33.949.11404-47.285-.20426-.67263 2.3882-5.1708.34276-6.383-.36733zm30.869-8.784c13.35-2.4745 27.705 2.006 40.309-1.0431 36.374 2.4705 80.134.29676 119.45.96883 229.92-.242 459.85-.60241 689.77-.89216 12.002-6.1726 26.178 1.5834 36.207-1.4228 17.559 2.9965 35.977-2.7904 55.628-.6992 22.403-.37108 50.2.62469 69.333-.0153 17.152 2.0298 30.03-1.455 47.369 1.0213 53.518 2.5856 109.48.25949 163.93-.33107 4.8659-12.527 4.8936-24.625 11.218-37.054 10.497-22.949 30.842-41.999 52.085-50.444 8.7008-4.5762 21.188-7.6423 34.315-9.1915 5.7352-26.219.8052-56.855 2.451-84.767.8131-44.542-1.6578-92.77 1.2779-135.02-2.155-13.182-1.6004-22.769 1.1732-35.533-4.7619-11.29-.638-28.869-2.2517-44.464 4.8115-19.427-4.8856-27.328-21.646-26.004-7.1197-5.8818-23.108-8.1943-31.149-16.34-11.115-6.4359-14.26-13.764-25.021-23.427-4.0617-10.198-13.762-19.277-15.319-29.679-.6726-17.204-8.2201-31.036-30.945-24.499-34.292.45943-68.027-.08544-100.96-2.0546-12.122 1.5134-31.03-.90504-48.141.40673-30.549.40902-61.126 1.6789-90.7-1.3767-11.014 1.2605-26.277.32868-37.924-.05128-11.741 2.2796-21.686 1.007-37.541 2.0426-28.764-1.18-56.728.22036-87.218-.14477-108.82.03119-219.1.59352-327.03.24176-24.995 1.498-50.144-.93204-74.409-1.1183-26.373 1.6842-55.525-3.3382-80.198 2.4511-10.06-5.8069-17.363 1.3524-29.807-2.3223-13.519 1.8601-25.167.18439-37.503 1.8722-10.17-2.1992-25.178 1.056-36.799-1.1779-12.038-.07158-27.01 1.0476-41.127-.83692-63.418.35566-126.83.82945-190.25.98636-4.586 12.89-5.49 23.36-9.7021 32.73-3.8954 6.0876-4.6799 13.912-12.255 21.923-11.565 14.311-20.965 25.637-39.927 33.569-11.896 6.1647-24.524 6.1672-33.605 9.8698-7.1018 12.916-1.0566 38.978-3.0638 56.988-.71762 68.813 1.4335 139.23-1.0709 207.04 1.153 14.893 2.976 39.372.86661 53.791 4.5021 11.808 19.95 8.0239 28.68 12.051 26.574 10.361 49.147 33.434 61.41 59.63 6.2476 9.585 1.3414 28.773 14.165 30.242 3.066 1.9315 12.393 1.7902 15.926 2.0825zm2.0672-11.274c-14.874 3.1036-17.043-8.9126-20.936-18.504-.5512-8.2982-8.3159-17.523-12.255-25.002-14.088-21.126-35.064-39.071-59.977-47.388-16.971-1.4352-25.606-10.992-20.499-29.507 3.9642-91.911.84248-185.94 1.8375-278.77 18.561-5.8032 37.1-11.524 52.324-23.639 10.439-5.8035 18.251-19.743 28.356-28.826 4.819-15.667 13.937-29.857 16.34-44.456 15.596-6.9758 30.364 3.3086 45.11-2.3132 16.835-2.1905 33.932.78106 45.798-.22512 64.184 2.8977 133.06.46628 199.06 1.2669 32.684-.71854 66.969 1.434 98.657-1.0709 41.508 2.9413 89.424.0433 133.39.69756 57.149.50053 115.43-2.1713 171.87.31552 11.809-1.5987 30.547-1.6354 43.474 1.0791 9.2402-6.092 20.707 2.7825 31.237-1.0071 93.945-2.5236 189.7-.69475 284.34-1.5461 7.2013.54262 18.11 1.0398 31.558 1.5319 38.92.749 79.077-1.4907 117.23 1.1103 8.8993-1.9009 28.674-4.6386 28.915 10.244 1.6816 10.956 7.4967 23.662 13.278 31.539 7.2875 12.679 20.093 28.709 34.668 36.188 14.592 10.062 30.568 15.099 45.344 18.786 1.9863 12.566-2.0571 28.437-.3436 45.328.4415 84.979.883 169.96 1.3244 254.94-9.0729 5.9219-17.546 4.0247-25.641 9.3575-21.814 7.9404-41.261 22.593-53.309 41.395-9.6136 14.618-15.578 32.503-19.862 47.413-45.232 3.2231-92.383 1.1958-138.35 2.4061-29.85-5.4082-63.38-.5631-94.643-2.0341-270.57 1.9846-541.17-.2743-811.73 1.4965-24.079-.11289-43.353.0733-68.394.21759-19.018-.78965-30.366-.44323-49.442 0-14.9-2.2273-30.901 2.2172-48.732-1.0213zm1174-4.6416c13.997-.75808 35.924 4.7397 22.468-14.859 11.334 17.899 14.174.58324 18.384-11.506 9.8401-24.503 26.764-44.858 50.249-56.598 12.994-7.614 19.983-10.864 32.474-12.48-6.4784-10.13-14.153-22.079-27.385-14.175-25.828 11.262-47.14 30.918-62.525 53.583-7.0148 10.948-17.214 25.056-15.27 36.495-19.794-7.7801-45.109-1.2296-67.068-3.3917-38.655-.57125-80.88 1.2184-117.29-1.0213-12.57.69667-26.977-1.5634-43.321-1.0213-42.879-.73041-83.076 3.4941-126.4 2.114-241.64.5604-483.28 1.1325-724.92 1.6974-7.3709 1.0093-21.338-4.7643-31.66.27362-10.162-1.2366-51.457-5.0115-34.213-2.0426-16.436 3.067-31.489-5.0751-43.634 5.7791-16.304 15.543-3.8421 20.194 15.856 16.89 76.465.39303 154.13-2.1248 229.85.0676 54.838-2.6423 115.13-.31172 172.05-1.0223 37.963 1.0277 76.964 1.0075 117.03.81977 21.964-1.4704 40.454 1.8752 64.493.93873 65.707-1.0737 132.07.4755 197.37-2.219 60.251.94539 125.16-.10482 188.17.22219 60.268-.31369 123.09 3.9836 185.28 1.4568zm19.958-16.735c.2708-6.6561 3.7528 3.9496 0 0zm-1196.4 2.9933c16.07-11.432-1.0188-29.189-7.2517-40.146-9.6768-16.239-28.624-34.884-43.505-42.577-8.2334-9.3764-28.686-9.4807-31.716-21.139.05864-17.422.89631-23.699-.35303-40.417.96303-9.2823-1.4089-35.968 0-29.509.62643-62.899-1.2481-127.19.93405-189.22 6.2057 1.7656 33.066-9.7029 26.19-8.7348 10.53-8.2673 23.946-15.849 35.059-28.861 11.46-12.319 19.817-29.597 28.711-47.15-1.2833-10.539 36.039-4.4857 29.106-2.6276 14.887-.46777 19.108-1.7886 34.092-2.0426 6.9011 1.0614 19.126 3.6349 27.797 0 11.883 5.0058 25.142-2.6023 35.898 2.5532 6.2713-4.1724 20.142-1.414 27.83-1.5319 12.176-1.1546 21.443-.79837 31.269 1.0213 11.874-3.9467 21.13 2.268 31.641-2.0426 12.009 1.8805 18.006 1.9744 31.149 0 59.011.74219 119.68-1.4824 177.65 1.1103 9.051-.7068 23.929-2.151 31.094.93229 13.106-1.1667 23.319-1.2718 35.248-.04976 20.824.19303 47.255-1.9528 64.957-.97152 16.484-1.8108 31.046.88515 50.195 0 60.267-.81922 121.89 1.6368 181.31-1.2255 6.064 1.6821 17.664-2.5888 26.688 1.5334 9.5071-3.0747 24.9-1.9168 40.989-2.3504 47.951.75592 97.579-1.4982 144.5 1.1103 6.1404-.23148 31.687-2.4889 24.966-2.1315 13.237.51373 21.622 3.5388 37.332.93229 37.186 2.5354 81.098.40589 120.85 1.1103 5.0425 1.3188 9.1235 26.391 17.91 34.632 5.5962 8.8649 13.011 18.394 20.594 24.602 14.071 15.694 29.681 20.304 48.302 30.638 15.16-.8736-2.0507 19.149 5.2298 26.043-2.7032 9.6214.6507 16.003-2.2308 25.295 4.0476 13.564 2.1541 31.094 3.2521 46.739.3042 36.756.1756 73.229-1.9009 108.69.4952 13.973-.6454 35.921-.1421 53.047 9.6112 8.5846 26.082 24.281 20.426-.61774 1.6858-9.5444 1.8071-17.492 2.2405-34.195.4009-70.289-2.6005-141.79-.1023-211.33-4.1271-7.56 6.8636-22.278-5.9068-21.842-13.992 11.831 11.316-14.335-12.061-11.234-24.066-8.3188-46.318-24.939-59.745-46.367-3.6792-6.397-6.7655-13.387-10.213-20.016-4.1073-6.3245-4.8908-27.988-17.162-10.952-3.2686 1.7839 8.9028-20.747-13.987-13.559-7.6299.89547-38.862-.93866-31.673 0-10.615 1.7393-21.114.18883-30.114 1.1463-23.197-3.1279-55.546-.08112-82.238-.71285-19.075-.05984-38.921 1.472-56.485-1.4548-8.1307 2.5641-23.747-1.4692-39.286 0-46.668.86155-95.748-1.7151-140.92 1.2766-9.4337-.50505-24.083-1.7029-38.544-1.2766-9.8112 3.2989-21.885-.79754-31.904 2.0426-16.835.31376-34.226-.62835-48.238-1.0213-8.3601-1.6613-18.759 3.6307-29.167-1.0213-9.7722 3.5268-21.523-2.6523-35.506 1.251-50.145-2.8298-105.73.19971-157.99-.30292-23.305.91123-49.15-.61926-69.523.07317-16.661-.7548-26.612-1.4063-43.69 0-14.541-2.2042-26.028.3963-42.097 0-14.285-.62578-28.818-1.1451-41.77 0-32.223-.29364-68.337.88466-97.455-1.2766-8.3758 1.8767-21.847-1.3963-33.37 1.2766-9.6425-.61262-21.826-1.6489-29.878-.76596-18.751-1.7985-47.014-1.2106-70.1-.65557-19.281-2.6973-48.73 4.4113-41.65 6.5774-8.4303-3.7364-7.1623 21.694-16.736 28.036-7.1234 21.883-26.966 37.816-45.789 49.532-6.359 7.3554-34.754 6.4112-26.999 16.918 16.122 10.626 8.454 10.49-3.3545 1.4646-12.267-4.5528-3.0441 30.549-5.9022 42.282-.84398 64.308 1.6806 130.01-1.251 193.45-.80297 10.235.31541 23.676-.57384 36.007 1.4135 23.407 7.9914 3.4668 16.633 7.0654-17.521 6.5207-6.4777 15.892 7.4095 16.34 12.858 9.5671 27.829 15.865 38.037 26.67 7.3815 6.3296 15.201 16.702 20.425 25.416 7.3292 8.9045 8.1808 21.842 15.58 31.599 2.2754-2.4036 6.1613-3.5041 6.9909-7.0879zm-85.89-96c3.6275-4.859 3.0245 3.7605 0 0zm87.064-365.17c-6.5418-12.707 9.6372 4.1567 0 0zm116.17 448.01c-8.6171-5.3198-3.331-21.315-14.137-25.651-8.8303-7.2476-18.77-6.473-27.735-14.298-13.202-4.9255-21.873-20.228-31.017-32.426-10.617-14.407 14.447 5.9006 13.656 13.462 11.989 13.065 26.701 21.695 38.809 25.091 7.8241 2.8909 18.776 8.352 30.071 11.234 16.206 2.0271 20.395-4.4317 33.082 0 18.423 10.063-3.2947-17.876-12.475-20.426-11.819-.65176-23.484-15.635-33.912-24.511-14.329-9.1465-29.981-22.838-48.306-20.426-11.227-6.2827-32.299.19616-35.865-18.211-11.556-15.811-9.0114-19.12 11.114-18.555 15.134-5.6016 35.97-7.9905 52.799-14.432 19.749-6.2725 44.159-14.541 63.236-21.313 16.106-5.918 34.922-11.224 47.489-15.319 14.027-6.1142 32.481-12.558 48.112-18.5 13.699-7.08 21.364-8.2666 33.08-13.16 15.093-3.7971 34.594-13.184 48.511-16.34 9.0086-2.4718 18.371-4.9951 28.818-8.1702 11.154-1.4175 20.326-7.6562 32.458-7.1489 10.432-2.8929 20.466-6.1828 33.846-6.1277 9.6667-4.2163 23.198-3.7259 32.537-7.1489 12.186-1.9511 25.119-4.3108 38.298-7.1489 12.242-1.9225 24.459-5.7123 36.255-7.1489 8.151-3.8983 21.363-.88562 29.738-7.1489 16.856-6.697 16.126 1.3508 24.661 13.597 4.972 7.7964-3.1822 19.386 1.7715 31.339-8.2815 11.852-2.2466 38.02-4.0851 56.314 1.3599 20.335-1.0334 38.578-4.0851 56.453 3.8968 13.901-9.8105 44.929 11.285 45.53 10.287-10.209 9.2976-24.184 4.0346-34.946 5.1845-2.2188 10.088-16.399 4.0851-27.472-.98048-14.768.94477-31.553 3.3192-42.475-2.8191-15.474-3.9329-31.04-3.3192-49.319-4.5714-8.2027-5.9026-25.881-1.0213-34.723 7.4056-5.377 11.916-21.918 28.229-14.298 12.548 1.9166 21.948 5.1102 34.111 6.1277 10.463 3.4348 22.426 4.1807 33.15 7.1489 11.524 2.1768 20.508 2.4724 30.248 7.1489 16.168.48346 29.58 5.9092 45.326 7.1489 11.34 2.2672 19.391 5.9302 31.028 7.1489 10.263 4.6334 22.073 3.3092 32.864 10.213 12.518.0942 20.744 5.9841 31.597 5.9932 17.381 5.3755 39.798 14.324 59.776 21.581 13.602 4.7045 33.066 16.15 50.012 21.447 16.189 5.8217 32.934 12.216 50.433 16.34 10.084 4.6202 23.632 8.5932 35.635 12.26 14.447 4.6504 26.991 8.3721 40.283 12.252 14.087 1.1368 24.291 9.2381 39.607 8.1702 6.6313 5.1855 20.187 4.3999 29.106 8.1702 16.137 2.6932 30.787 8.0542 48.361 8.1702 5.978-13.982 4.3862-28.485 9.3411-41.362 2.3294-14.442 7.4654-27.32 8.1702-42.668-15.142-5.4276-27.827-10.68-44.816-10.949-9.1429-5.6882-23.496-3.0517-29.738-9.2937-.8399-10.79-3.6128-18.167-8.4033-26.018 3.7484-2.199 20.458 8.7927 31.935 6.716 8.5636-1.1281 37.351-4.4943 15.292-13.489-15.71-12.469-30.974-28.405-48.24-35.532-6.8071-3.5384-16.559-5.1572-25.817-8.1702-13.856-4.1873-28.705-6.595-44.017-8.1702-3.9396-3.4998-30.72-6.4687-16.665-8.1702 22.195 1.532 42.826-2.9966 62.827 0 16.517 3.9214 38.475 2.2551 53.927 0 13.506-6.4589 27.902-10.673 38.989-20.426 9.2389-5.4402 33.901-12.967 8.7192-17.362-9.3438-4.537-24.006-5.6309-33.312-4.0851-9.7591-2.4923 11.804-16.461 5.266-23.9-8.1946-5.2795-22.95 3.6321-33.862 2.453-22.126 4.1055-38.924 23.59-57.192 35.745-12.656 7.3141-28.738 10.285-42.696 14.221-21.48 3.7986-46.386 2.4645-66.36 4.2106 9.9818-3.2591 36.561-19.023 25.451-30.511-11.917 4.2958-14.803 20.892-30.649 23.313-19.366 4.1448-48.654.10716-71.26 3.8298-13.74 2.9744-26.731 5.0409-40.904 9.4472-18.606 3.2124-32.842 12.748-50.586 21.422-13.516 13.913 4.7785-27.125-11.505-9.1629-1.6659 16.264-19.883 22.735-24.859 34.209 16.818 5.038 24.312-14.515 40.024-17.584 18.991-4.1512 42.164-5.2144 56.641 10.946 8.7996 5.7474 22.501 18.575 28.279 24.511 1.5673 4.4055-19.56-6.5164-31.539-2.0426-13.652-3.6495-31.397.95206-45.117-3.0638-12.419-2.0229-26.858-1.4859-38.869-6.1277-13.573.9323-24.821-4.2094-36.645-5.1064-12.423-2.0739-25.883-5.7068-39.421-7.1489-13.133-3.2256-25.82-7.2495-40.238-8.1702-6.6716-4.7099-20.348-3.467-29.106-7.1489-24.417-2.078 3.945-5.986 13.667-7.1489 11.153-2.799 21.902-6.3222 34.723-6.1277 10.975-5.7154 24.61-5.3713 37.908-9.1915 14.631.4882 29.802-7.1373 20.257-23.489-9.741-8.1496-25.467 5.2854-39.15 3.309-17.853 6.1097-34.798 6.5753-52.085 12.01-15.644 2.962-33.612 6.9915-50.043 10.213-19.728-7.7818-13.098 26.638-18.894 12.869.52546-9.7433 3.0315-24.069-7.8295-27.76-12.48-.80153-18.93 17.252-24.186-.42863-8.9221-5.2512-22.238-10.808-28.515-17.362-6.2623 5.1555-7.1041-12.291-21.148-19.074-2.9173-12.36-23.692-11.549-14.321-14.961-9.4863-10.551-10.562-12.518-16.663-23.996-8.8064-6.0374-18.985-9.2914-27.662-16.523-7.5778-9.9618-22.619-4.2272-33.642 3.5745 10.755 7.295-7.25 3.7103-13.977.51064-18.518.8362-10.652 20.917-24.992 28.583-9.6489 2.3044-18.63 6.2698-30.35 8.1822-7.6865 1.2462-27.798-14.363-13.054-10.213 1.9898-5.9983 16.079 9.4206 20.541 2.7706 3.7599-1.4491 15.943 2.3865 1.8115-10.494-9.5938-12.374-19.605-27.865-34.608-30.063-13.452-2.6656-26.508 2.3883-41.362-3.0638-18.302-9.9522-41.463.41836-50.494 20.936-9.7394 15.047 15.977 26.089 24.451 17.872 6.1636-6.0877 21.789-2.233 18.584-.75539-2.0676 9.4806 18.071-.29454 16.347 8.7036 18.923-9.33-3.9195-20.399-14.747-23.1-26.258-1.9727-5.753-13.265-17.128-16.763-15.181 3.9897 12.742-9.2384 19.533-.76596 12.851 2.1754 21.989 17.165 32.56 22.834 6.5457 4.9914 12.334 14.766 22.114 21.081 9.9372 7.7923 30.604 6.0987 40.888 3.0638 9.2424 7.9272 21.761.31283 24.767 8.1702 11.423-3.4469 26.507-17.02 23.686-30.043-7.0133 8.8389-8.9953-9.7097-14.434 4.3908.91639-21.673-12.939 18.287-8.1702-1.5554.70382-16.579 20.324-11.015 29.673-1.7724 17.651 9.9261 28.047 28.666 45.25 40.215 2.8962 5.9976 24.251 7.5303 16.992 8.1693 11.32 8.6096 20.992 4.8452 27.304 13.591 14.79 1.2574 27.562 12.41 41.201 15.565 8.9988 2.7265-5.0782 25.285-4.1645 29.075-16.078-17.468-3.7227-1.5165 2.3472-19.933-19.973-3.2768-40.181-8.6456-60.049-11.745-14.902-4.4247-32.947-7.1178-46.979-11.234-11.591-1.9377-21.62-4.5014-32.537-6.1277-15.828-11.222-25.908 12.34-16.594 21.96 19.019 2.0872 35.073 6.0733 52.194 9.6995 13.403 3.2548 28.032 6.1011 41.362 8.1702 4.4418 2.4397 35.745 4.3881 19.915 7.1489-15.866 2.8335-31.917 7.1532-47.489 9.1915-8.9586 3.8123-23.016 3.9425-34.213 7.1489-11.085 2.7092-23.907 4.4379-34.213 7.1489-13.088-.11819-28.998 6.1515-41.872 8.1697-12.505 2.7661-24.071 2.6937-35.967 6.1277-18.487-.14141-34.021 5.0149-52.948 4.0851-1.2835-9.5819 19.272-29.595 15.128-24.187 13.689-8.794 28.086-14.935 42.638-10.536 12.826-.81259 20.871 11.249 33.702 11.745 1.0573-9.1355 7.6254 15.649 14.809-1.4897-.32858-14.674-23.629-22.732-7.9-34.631-13.755-18.394-19.398 13.89-28.308 8.5335-17.971-11.9-38.591-17.347-58.26-19.902-20.233-9.8773-46.685 1.727-67.219-4.0851-19.858 1.5966-38.177.0731-53.562-11.303-27.721.13989 14.351 18.816-1.4448 17.571-17.237 3.0144-29.335-8.752-47.018-7.2895 1.1367 12.014-19.021-8.0502-27.879-8.0732-19.601-12.742-38.345-26.301-60.123-37.885-8.1587-5.6291-23.523-2.8866-35.862-5.1064-12.687-15.452-15.651-4.2446-6.6383 11.296 15.498 18.396-4.779 14.303-21.22 14.236-8.6816 6.8198-25.614 4.5075-28.823 18.145-6.5091 9.159 19.351-5.3778 26.261 10.662 25.002 5.4978 46.388 18.009 72.496 16.348 21.587 2.1016 39.803-2.065 58.58-5.3244 11.773-1.5194 26.998-4.0614 39.489 0 10.25 2.1645-29.143 11.242-24.741 7.1489-10.148 1.8848-21.65.90524-28.206 7.1489-12.561 1.3868-24.858 3.2478-37.156 5.1064-11.197 1.4399-16.054 9.5021-26.67 9.1915-20.55 6.3608-27.684 27.551-45.885 34.796 8.0896 14.909 33.869 5.3476 50.05 8.0973 26.98-10.333-14.144-18.476 9.9149-16.34 21.655-8.6592-.6444-9.8021-6.4233-8.1703 13.047-.96129 22.411-4.8484 32.918-12.088 19.194-6.6284-9.4928 10.139-14.428 16.737-12.398 13.435-12.14 31.391-11.22 48.579.16714-19.653-12.032-11.156-25.574-10.333-12.788 3.3402-25.868 6.1554-38.256 10.213-10.892 2.5844-21.757 8.3577-30.274 10.213-6.9438 9.6925 5.1237 20.736 3.2097 32.272 4.4656 11.78 6.0261 25.18 9.1915 37.685.1955 12.63 7.1455 22.23 21.447 14.31 10.442 2.1224 38.295-13.429 29.617-.48645 2.6957 14.143 4.5172 27.139 11.448 39.68 12.465 27.707 24.379 56.91 54.925 68.789 10.795 2.5296 16.448 6.8104 27.584 6.8982-2.263 3.001 10.349 3.4386 8.1702.12013zm-18.383-13.846c5.881-1.529 1.922-.99296 0 0zm-4.0851-2.0426c2.2816-6.9469 2.4174 5.6049 0 0zm12.711-38.447c.73789-12.358 3.6885 5.7297 0 0zm-22.413-1.9536c.11641-4.9785 5.4588 3.9275 0 0zm-9.7021-14.298c4.0495-5.0876 4.494 4.6936 0 0zm-12.255-4.0851c4.6837-4.895 9.2599 4.6265 0 0zm535.23-37.362c.79422-6.5507.80451 6.6593 0 0zm-2.1232-56.085c1.574-22.208 2.9522 21.941 0 .30629zm-545.36-19.757c7.8793-37.692 7.9812 3.186 0 0zm-3.4192-3.045c-5.9724-11.234 8.7219 5.3516 0 0zm1106.5-5.3422c-2.7598-12.305 15.62 12.131.1007.22743zm-1109.6.39908c-4.5721-13.695 6.3597 3.6638 0 0zm1116.6-9.0213c1.6103-29.47 3.1276 28.489 0 0zm-15.099-1.8193c-16.918-20.392 19.292 14.675.8775.8885zm-1103.7 2.0747c-1.0781-12.66 3.7384 2.5777 0 0zm14.76-.6409c3.96-9.5744 2.8978 7.3043 0 0zm149.11-3.6995c2.2695-13.331 3.5907 13.953 0 0zm-145.02-.41089c8.9099-9.954 14.953-12.415 24.657-20.525 6.554-9.2794 10.159-17.64 15.711-22.468 12.599-7.5141 16.728-22.835 29.717-30.51 9.5093-20.253 33.943-13.05 47.483-22.597 15.786-3.6894 29.534 6.1299 41.241 1.0213 26.677-13.007 58.961-8.1897 89.911-3.5895 12.413 2.9756 23.43 3.1168 32.163 11.414-9.5603 6.5054-22.36-2.884-33.763-3.0317-25.031-.16282-50.471-.80383-71.621 10.526-20.62 7.4454-41.563 18.256-55.002 37.055-10.378 17.037-5.9789 22.302-15.509 11.966-24.227-1.247-46.847 2.5648-68.221 5.1064-7.0437 6.2554-12.142 11.913-20.549 18.388-4.9616-.46442-14.409 11.583-16.217 7.2433zm55.149-46.568c-1.1692-2.214-1.2739 2.1134 0 0zm918.91 40.34c-15.441-9.0259 11.411 2.4535 1.8324-14.809 3.8181 3.5589 7.0544 23.772-1.8324 14.809zm97.769-2.0426c-10.511-10.327-23.396-17.762-36.255-17.362-11.829-2.7632-26.521-3.7704-39.319-6.1277-15.995-3.5745-27.132.12994-27.064 3.0638.8758-15.847-10.17-29.041-22.127-39.031-14.247-8.5102-30.488-17.297-46.463-22.245-20.224-3.6762-43.009-1.8742-63.189 1.0213-24.588 2.0645.6054-8.5977 8.7149-10.213 21.002-6.0784 46.126-8.6175 70.57-7.1489 12.791.66332 23.382 4.063 37.889 4.0851 12.357 3.0428 24.58 4.2547 37.879 11.276 13.156 10.931 29.577 26.88 39.436 37.229 15.375 14.728 30.162 32.896 46.566 48.704-1.2851 3.3027-5.273-1.8126-6.6383-3.2515zm-33.192-30.128c-1.1691-2.214-1.2738 2.1133 0 0zm-8.1702-8.1702c-1.1692-2.214-1.274 2.1134 0 0zm-864 39.319c4.0495-5.0875 4.494 4.6936 0 0zm766.66.25532c-11.539-1.9452-17.733-7.3163-29.302-7.4042-19.944-9.6065.8022-2.9942 11.259 0 15.64 10.309 22.222-1.164 12.444-14.454-11.55-21.993-2.9224-7.8767 5.7771 4.2008 23.022 4.1058 5.8907-1.2238 1.0137 8.4114-.6409 1.114.7225 13.475-1.1925 9.2464zm-830.33-3.1442c-6.1334-18.081 5.7922 9.4238 20.778-.17491-.61891 3.1959-17.928 3.3774-20.778.17491zm23.842-1.1962c4.6837-4.895 9.2599 4.6265 0 0zm48 0c12.767-.98059 4.5241-.56333 0 0zm-41.872-2.0426c4.6838-4.895 9.2598 4.6265 0 0zm52.085 0c4.6838-4.895 9.2598 4.6265 0 0zm6.1277-2.0426c4.2895-4.8112 6.9069 4.5175 0 0zm-45.957-2.0426c4.6837-4.895 9.2599 4.6265 0 0zm51.574 0c5.1842-3.965.76089 4.4491 0 0zm758.3 0c4.6838-4.895 9.2595 4.6265 0 0zm131.21-1.0454c-19.981.28039 8.3032-18.536 3.5963.92481-1.3273.5987-2.8932 2.8798-3.5963-.92481zm-885.94-.9972c4.0495-5.0875 4.494 4.6936 0 0zm748.6 0c4.6838-4.895 9.2598 4.6265 0 0zm-793.53-1.5319c2.4095-6.3586 2.2914 6.0803 0 0zm731.21-1.046c-4.1691-6.9133 14.729 3.9946 1.2919 1.5566zm-712.87-2.0691c-1.0457-13.107 6.227 6.3707 0 0zm35.277.5619c.1164-4.9785 5.4588 3.9275 0 0zm672.51-2.0426c4.0493-5.0872 4.4943 4.6934 0 0zm-869.11-1.5922c1.862-5.1863 2.5486 6.0772 0 0zm147.61-.84096c-.0276-10.683 6.6048-22.275 3.5412-6.1456-3.4088.153-1.4867 12.394-3.5412 6.1456zm55.335.77966c2.3794-8.9029 10.418.0156 0 0zm661.26-.59332c-4.7068-9.4088 10.375 5.7234 0 0zm25.328-1.8383c4.0494-5.0875 4.4941 4.6935 0 0zm-892.57-.98139c-3.6609-6.5243 8.4136 3.4846 0 0zm861.93-1.0612c4.0495-5.0875 4.494 4.6936 0 0zm34.723-1.0213c1.7123-8.13 1.8588 7.7348 0 0zm-890.3-1.5742c-9.1272-12.921 9.7572 4.4271 0 0zm174.13-.21304c5.3-18.418 1.6523-8.2216 4.343-.25532 1.3443 3.3315-3.8982 2.5254-4.343.25532zm33.481.46659c-1.22-9.3849 4.2414 5.5195 0 0zm719.46-7.2999c-5.1547-20.936 8.582 12.066 0 1.3695zm-921.54.62527c-9.7943-19.002 13.664 11.962 0 0zm117.8-.0499c3.96-9.5744 2.8978 7.3044 0 0zm61.277-.12505c5.3511-7.184 2.7084-12.313 8.5826-17.867 5.5449-7.6762 25.74-15.498 11.362-4.6011-8.7174 1.7965-17.074 24.463-19.944 22.468zm687.32 1.0213c4.0495-5.0876 4.494 4.6936 0 0zm206.3-1.0213c1.7123-8.1299 1.8588 7.7348 0 0zm-194.04-1.0213c4.0494-5.0875 4.4941 4.6935 0 0zm-732.61-4.0851c-12.573-3.7388-19.639-3.0482-.0802-7.1489 25.495-6.5766-16.817-3.8303.94833-7.1489 15.425.2824 27.405-16.669 43.284-17.362 9.6862-4.233 28.845-6.3137 37.715-2.2979-11.179 3.9968-28.997.88608-40.148 6.383-10.825 3.7823-25.395 9.1252-29.779 18.128-.37275 2.8947-14.499 18.996-11.94 9.4468zm728.53 2.0426c4.0495-5.0875 4.494 4.6936 0 0zm-939.57-1.5124c12.465-5.615 22.472-5.6547 0 1.5514zm188.94-.5301c4.0495-5.0875 4.4941 4.6936 0 0zm766.98-5.115c3.0991-6.6167 4.4996 7.802 0 0zm22.128 1.3704c-10.226-23.765 14.918 3.6784 0 0zm167.81-.86991c-7.8811-5.1472-16.286-10.196-20.41-16.832 9.4565-2.8168 22.215 18.078 23.554 18.383h-1.8572zm-18.211-1.3775c-8.7244-10.615 11.624 6.8764 0 0zm-31.305-2.1781c.2275-5.327 8.0755 4.3525 0 0zm-1021.3-2.0426c-.28368-5.1708 7.5552 3.2899 0 0zm508.34-2.27c-6.5226-9.0985-3.2508-34.45-.70396-14.07-2.114 11.013 9.5211-.57904 3.0018 16.528l-2.1624-2.3125zm534.87-.30788c-2.5698-8.8374 9.8573 6.704 0 0zm-177.53-4.1665c-2.9095-8.6871 9.609 6.6962 0 0zm171.4.0813c-2.5701-8.8374 9.8574 6.704 0 0zm-177.7-4.0851c-2.5698-8.8374 9.8573 6.704 0 0zm-134.37-.87995c2.6817-22.251 10.275 6.9748 0 0zm304.44-.62729c-1.2414-9.0573 8.8891 5.4157 0 0zm-543.83-3.0638c3.2753-1.0932 1.1562-1.0795 0 0zm-489.7 1.0213c-.28368-5.1708 7.5552 3.2899 0 0zm858.38 0c4.0493-5.0872 4.4944 4.6933 0 0zm18.894 0c.1164-4.9786 5.4588 3.9275 0 0zm-54.128-2.0426c-.284-5.1707 7.5554 3.2898 0 0zm31.149 0c4.0492-5.0872 4.4944 4.6933 0 0zm-326.29-2.0334c4.8754-7.3647 22.243 1.3054.64538 2.0334zm-519.32-.009c7.6366-5.5705 5.7394 4.469 0 0zm839.49 0c4.0495-5.0875 4.494 4.6936 0 0zm-831.32-2.0426c3.6274-4.8591 3.0245 3.7605 0 0zm827.23 0c4.0495-5.0876 4.494 4.6936 0 0zm-301.28-1.0213c8.4309-2.4479 29.293-4.6606 9.0709 1.0213-2.0306-1.0208-8.9642 1.7865-9.0709-1.0213zm-271.26-3.0615c2.3234-14.006 1.0715 12.819 0 0zm563.85 2.0402c-28.138-.55126.5309-6.5767 4.4752 1.0214-1.3075-.67089-4.0877 1.2996-4.4752-1.0214zm183.83 0c-22.454-7.112 19.692 1.5857 0 0zm-753.19-3.5745c2.4095-6.3586 2.2914 6.0803 0 0zm-232.34-.51064c-.36139-5.4122 5.3931 3.8237 0 0zm420.77-1.0213c7.5301-4.8889 16.617 3.8392 0 0zm-417.19-1.0213c3.6274-4.8591 3.0245 3.7605 0 0zm958.47-1.0213c-3.9512-8.4755 9.3641 7.2584 0 0zm-530.55 0c12.156-4.8347 11.327 4.3347 0 0zm525.45-3.0638c.1164-4.9786 5.4589 3.9276 0 0zm-920.68-12.766c2.4329-10.187 2.0941 9.8386 0 0zm-67.149-6.321c13.275-.32952-4.0068 1.4404 0 0zm1000.1-1.3386c8.7428-4.8156 20.736 3.8373 0 0zm-1020.5-.75068c38.926-.27164-13.344 1.2362 0 0zm-14.284-2.0247c21.746-.0961-8.7724 1.287 0 0zm1075.9.0105c15.423-.20038-5.701 1.3355 0 0zm-1101.4-2.4784c11.24-1.3452-5.8752 4.2265 0 0zm18.304.45043c11.237-.18781-4.5219 1.5164 0 0zm1091.7-.0251c21.746-.0961-8.7726 1.287 0 0zm-1126-2.0304c17.151-.29553-4.572 1.3489 0 0zm1135.1.0168c13.275-.32953-4.0066 1.4404 0 0zm29.362-1.8492c18.757-12.583 10.344 5.6684 0 0zm-1169.6-.16574c8.8893-.48-2.1821 1.7365 0 0zm27.574 0c8.8893-.48-2.1821 1.7365 0 0zm1118.8-.0276c13.275-.32949-4.007 1.4403 0 0zm-1123.2-2.3152c6.1285-1.6774 3.6896 3.2459 0 0zm1130.4-.56154c19.53-6.4983-6.9731 6.9514 0 0zm32.513.31268c-4.499-10.97 6.7295 3.0194 0 0zm-1199.2-2.4341c2.4822-5.6725 4.0733 6.9662 0 0zm31.66.0851c-2.6614-6.694 9.8386 6.6471 0 0zm1090.7 0c2.4095-6.3586 2.2913 6.0804 0 0zm-1134.6-1.5319c5.0718-.59119.2308-.44304 0 0zm25.34.32363c7.299-.3341-4.4308 1.9678 0 0zm1113.9-.25306c.2692-6.6543 3.7535 3.9489 0 0zm48.212.27433c8.8891-.48-2.1822 1.7365 0 0zm32.426-.3449c-16.754-.5555 10.784-7.0526 0 0zm-1147.4-2.5532c-2.6614-6.694 9.8384 6.647 0 0zm1119.3 0c11.353-6.6901-.6876 6.1515 0 0zm-1158.1-2.0426c5.6302-.59903 2.9255-.41497 0 0zm34.223-1.5486c4.5668-2.6963 1.2201 4.449 0 0zm1084.5.0813c14.784-10.9 6.7869 2.479 0 0zm72.87.25896c7.299-.3341-4.4308 1.9678 0 0zm-675.89-1.7953c4.5382-8.7774 3.6018 5.7864 0 0zm-472.74-.94735c-2.3654-7.5446 7.3359 3.3937 0 0zm1128-4.1092c22.072-20.949-15.735 21.901 0 0zm25.686 4.7861c17.151-.29552-4.5721 1.3489 0 0zm-67.34-4.062c7.2991-.33414-4.4308 1.9679 0 0zm4.0852-2.0426c7.2989-.33402-4.4311 1.9678 0 0zm4.0851-2.0426c7.2989-.33404-4.4311 1.9678 0 0zm-637.29-1.5492c8.4556-2.4757-2.3868 5.4277 0 0zm-487.97-1.3277c2.5967-6.0574 4.9257 7.6175 0 0zm1129.3.85554c8.8893-.47999-2.1821 1.7365 0 0zm-637.02-1.8768c8.9853-6.7955-1.993 8.4262 0 0zm641.11-.16573c8.8893-.47999-2.1821 1.7365 0 0zm5.7338-2.9044c16.942-5.5716-9.9397 7.1367 0 0zm-658.07-.50435c7.7542-.80636-.20828-.18919 0 0zm-486.33-1.2255c8.4556-2.4757-2.3869 5.4277 0 0zm7.8638.20426c6.6548-4.2355 2.0755 4.6456 0 0zm474.89-13.277c5.1843-3.965.76085 4.4492 0 0zm-16.34-2.0426c5.1842-3.965.76089 4.4491 0 0zm3.5745-2.0426c4.6838-4.895 9.2598 4.6265 0 0zm6.1277-2.0426c4.0495-5.0876 4.494 4.6936 0 0zm-14.28-1.7872c15.555-12.874 13.999 1.905 0 0zm-228.19-13.277c-6.8779-20.106 2.234 1.9991 7.4098-3.258 13.4-6.7047 13.452 4.9364-6.4564 4.024h-.1825zm213.37-.25532c11.382-6.1565 14.377.60699 0 0zm-12.766-4.0851c17.942-6.7759 13.793 1.2343 0 0zm25.532 0c4.0494-5.0875 4.4941 4.6935 0 0zm-37.787-13.402c1.9615-7.5946 4.9943 9.3855 0 0zm669.95 407.12c24.454-11.914 44.433-29.06 58.714-52.592 5.442-9.8619 5.9574-22.735 10.232-32.441-11.874-9.241 6.4434-16.453 2.3489-24.562-13.848-9.7237-15.62 18.661-31.776 19.15-16.218 6.8617-33.116 5.1802-50.233 10.262-19.773 6.4148-32.599 28.258-50.553 35.745-6.2859.33368-33.082 6.9947-20.426 15.319 10.531-5.3786 23.352 4.6487 37.829 2.0426 17.933-1.6338 41.573-1.2858 53.126-18.383 11.882-5.517 22.544-22.335 32.62-28.186 9.5601-19.425 14.2-3.2549-.766 6.877-11.721 9.3916-17.307 19.51-30.349 27.437-10.083 6.1187-25.248 18.832-15.686 32.45-4.6783.12759 2.5286 12.636 4.9185 6.8808zm6.1376-15.842c4.0494-5.0875 4.4941 4.6935 0 0zm7.6726-10.192c.7891-14.692 8.9232 5.0387 0 0zm3.1785-5.9422c.6297-11.963 3.3578 4.4369 0 0zm2.5867-5.3129c.7027-8.8361.7036 8.7048 0 0zm5.9665.352c4.4431-11.99 4.2343 5.0077 0 0zm-61.277-8.3972c3.7627-12.477 8.3015 10.135 0 0zm8.1702-1.1463c3.2163-.23205 30.92-17.605 16.851-6.6416-4.2067 3.9473-13.566 8.1857-16.851 6.6416zm0-6.1277c4.0494-5.0875 4.4941 4.6935 0 0zm14.298-10.213c4.6737-4.974 4.6898 3.9506 0 0zm8.1782-3.8298c15.55-8.9881 14.337 1.4866 0 0zm14.29-4.3404c4.0496-5.0877 4.4941 4.6937 0 0zm4.0851-2.0426c4.6838-4.895 9.2598 4.6265 0 0zm-1122.4 72c-1.1692-2.214-1.2739 2.1134 0 0zm497.87-17.872c11.268-2.4817 20.845-2.1396 30.128-8.0243 3.202-2.6925 13.402-5.3258 21.701-6.5285 7.8436-4.1799 20.265-9.6725 32.256-13.022 9.5874-9.3713 25.649-11.903 34.043-22.468-10.893-2.5816-15.509-.28623-22.569 4.0851-11.361 7.264-31.403 15.714-45.516 20.426-14.018 4.6063-25.4 9.2892-41.241 10.213-8.7243 5.0725-24.334-8.1839-33.312-4.0851-9.9905 2.2277-21.964 2.2187-32.291-2.0426-11.001-1.5338-21.914-7.9795-29.856-10.213-10.064 3.8403-15.77 9.9119-23.13 12.255-3.9166-4.3168 18.208-9.7586 14.298-19.55-11.147-10.388-28.988-2.8023-42.363.5728-13.448 9.2102-27.191 10.725-42.914 7.7433-8.1585-3.4759-37.921-4.7608-15.319 5.4488 11.226 11.07 28.779 11.59 40.34 14.916-.45638 11.111 25.789 2.6294 35.234 3.1241 16.218-1.7068 34.863-4.0551 50.043 1.0213 13.691.84796 27.21 2.0039 39.644 5.1064 11.338-2.3319 20.739 4.6448 30.824 1.0213zm-152.68-12.255c16.996-4.6504 21.39 4.5156 0 0zm28.596-4.0851c4.6838-4.895 9.2598 4.6266 0 0zm37.277 0c6.6548-4.2355 2.0756 4.6456 0 0zm-29.106-2.0426c4.0494-5.0875 4.4941 4.6935 0 0zm22.979 0c6.6548-4.2355 2.0756 4.6456 0 0zm-73.021-2.0426c-23.015-4.6221 7.616-1.158 17.3-1.0213 20.715-9.1368-3.8575 7.43-14.44 2.0426h-2.8595zm29.617-4.0851c4.0494-5.0874 4.4941 4.6935 0 0zm-14.298-2.0426c4.0495-5.0875 4.494 4.6936 0 0zm18.383 0c4.0495-5.0876 4.494 4.6936 0 0zm20.426-1.7214c11.968-16.677-15.691.15467-9.2426-9.5126-13.557-.66056 19.146-9.2672 17.413 1.1235 2.0587 3.7623-5.4468 11.685-8.1702 8.3892zm327.38 25.754c11.282-.72544 25.543-1.7112 34.459.54616 9.1856-4.4563 12.648-3.1765 20.252-2.1106 2.7377-1.9942 23.264 3.1651 30.914-2.0426 12.502-1.3629 25.439-2.1799 36.46-4.0851 11.829-5.6844-8.4814-6.184-15.301-4.0851-25.558 6.3003-7.7182-9.1448-5.8394-5.6657-18.556-.97907-33.866-.0371-49.941 2.6019-14.492 1.6077-30.902 4.8071-44.628 1.6365-19.49.006-37.676 2.2388-52.394-3.679-8.6255-4.175-19.305-3.4859-26.043-8.1702-11.818 3.1852-27.863-16.699-36.118-5.0285-2.1778 7.6152 7.5067 7.2092 19.267 13.199 12.374 4.3277 25.185 3.6085 33.191 9.1915 9.933 3.9645 23.807 7.0711 37.277 8.1702 4.2657 1.2623 14.068 2.405 18.443-.47808zm80.11-8.2027c2.4329-10.187 2.0941 9.8386 0 0zm-10.213-1.5922c2.0366-7.0598 2.298 7.8759 0 0zm-228.77-3.5142c-1.1692-2.214-1.2739 2.1134 0 0zm-522.89-6.1277c-1.1692-2.214-1.2739 2.1134 0 0zm954.38-1.5319c15.807-2.4085 37.319-7.2682 45.447-24.922 4.5247-7.8938 7.7224-17.115 6.1277-31.128-4.3545-12.552-18.474-24.64-29.106-27.695-30.925-10.18-71.448-2.7807-106.86-4.7466-29.097.29762-58.568 2.5459-86.158 4.7466-12.074 1.9344-24.864 2.1343-36.176 6.1277-18.528 3.4711-36.759 6.6513-53.696 10.213-13.768 3.0636-27.53 6.1376-41.872 8.1702-12.328 1.5711-24.642 3.1695-36.766 5.1064-14.214.0131-28.892 4.9888-42.894 2.0426-15.481-4.2295-6.6687 27.758 10.468 17.132 16.476.0193 29.135 3.2831 44.212 4.3151 13.665 3.2586 28.387 4.6225 41.891 8.1702 10.873 3.05 22.468 4.7091 33.99 8.0512 13.688.0646 24.888 7.4467 39.361 7.2679 9.7148 4.6748 20.96 4.1098 31.822 6.1277 35.571 4.7534 76.055.69501 113.52 2.0426 22.012-.68468 45.638 1.3661 66.689-1.0213zm-386.55-8.2953c-1.9615-7.5947-4.9944 9.3855 0 0zm-454.14-4.5139c8.1418-9.83 15.109-15.805 26.427-16.808 55.292-5.2461 114.42-1.3396 171.33-2.7332 74.673-.74929 149.86.89923 224.21-1.3608 21.131-14.933-6.6142-24.948-24.471-19.395-21.24 1.3867-39.706-.51625-62.482 0-13.599-.90365-27.54.0102-42.724-1.9795-48.306-.88326-97.832 1.6243-145.38-1.3566-8.322-.0557-18.508 1.7452-29.791.27224-13.161 3.4928-20.433-.39081-33.108 2.0426-19.267 2.0216-36.846-3.7699-53.701 0-15.593 1.5647-26.517-11.215-35.475-22.607-15.766-.74337-12.374 19.877-13.546 30.388.004 14.811-.71711 28.431 8.5263 39.198 4.9496 1.4536 6.9883-2.8716 10.187-5.6603zm272.35 3.1071c-1.1692-2.214-1.2739 2.1134 0 0zm160.15-10.979c-6.4406-18.259-23.975-3.2679-.33894 1.7872zm-29.982-39.504c-5.4775-11.146-9.7892-29.761.55425-42.15-.80867-17.301 18.857-26.339 19.404-40.193 3.2581-9.5819 5.1779-21.886 2.1923-34.003-3.1881-8.3273 14.491-32.259-1.6816-22.962-11.394 3.621-27.623 14.406-16.506 26.929 12.082-10.135-6.4117 18.539-.34526 22.947-2.4028 14.476-6.143 28.475-17.362 39.636-.5626 15.235-5.03 23.555-3.0638 3.2579 8.5424-19.723 18.405-36.966 15.319-59.468 4.1637-17.01-18.338-27.367-10.213-42.149 2.7473-18.4-12.654 3.5382-18.383 8.0243-10.096 12.31-12.424 30.061-9.1915 46.614-.35751 13.778 4.5166 24.639 5.1064 37.889-.73001 12.742 15.351 22.413 13.001 33.803-13.106-.40806-14.896-22.423-25.256-25.224-7.7524-13.205-21.825-24.124-22.394-39.37-7.4536-12.46 7.7105-34.323-4.7432-36.205-17.992-4.7648-4.7 28.273-13.919 24.337-13.143-13.234-29.013-28.527-41.769-36.593-21.891-3.5392-.58059 13.107 6.7158 16.34 14.571 13.877 29.815 30.7 39.999 40.851 15.474 12.244 3.3341 15.177-7.1387 2.0426-13.988-9.2101-28.944-19.42-45.362-26.384-8.6883 1.0286-23.508-2.4744-35.185-4.2544-16.293-2.4191-28.223 5.8369-41.65 8.1702-17.508-6.6906-11.347 13.838 4.5957 14.55 10.637 8.0311 20.176 6.7521 30.188 12.003.70158 4.7663-25.084-1.54-30.963 8.6597-10.468 1.8596-31.316 13.062-8.4165 12.787 15.057 4.6684 33.195 14.944 48.803 10.272 16.802.17257 34.299 1.3198 48.088-5.17 14.165-2.4084 30.108-12.837 44.045-6.124 14.717 1.4985 21.352 12.285 1.0213 12.764-19.747 9.0543.63767 38.189 14.652 23.79-.66549-17.895 1.061-15.554 19.146-8.9791 11.094 8.1304 17.002 18.466 27.386 24.511 4.0414-.80808 10.316 1.588 13.325-.94938zm-163.11-51.811c8.8893-.47998-2.1822 1.7365 0 0zm-25.736-2.2562c24.493-.96625 15.693 2.319 0 0zm28.494-.0668c-30.306-3.3094 33.983-1.6975 6.1787-.9568-1.1547 2.0577-4.6497 3.0235-6.1787.9568zm29.157-1.5964c3.3265-9.4332 3.3719 9.0886 0 0zm-64.34-1.0901c5.421-4.2332 9.8628 6.2018 0 0zm86.809-1.9134c2.2815-6.9469 2.4174 5.6049 0 0zm0-7.7198c-22.511-4.0749 15.921-1.6029 0 1.0213zm-62.809-2.0426c8.0812-3.3462 50.61 1.2354 22.06.87062-6.4621-.61375-18.876 1.4893-22.06-.87062zm149.62-6.6383c2.4095-6.3586 2.2914 6.0803 0 0zm-2.3725-6.7622c11.747-6.6561-5.639 8.839 0 0zm-119.83-2.4213c6.4407-9.1652-.6853 10.426 0 0zm10.633-.008c.32313-10.764 2.3813 9.5006 0 0zm-52.856-.51064c9.9476-4.7826 20.197 4.3791 0 0zm20.595-.55694c-14.46-10.811 13.837 2.582 0 0zm12.28-.20902c4.9458-7.1736 4.0791 7.7546 0 0zm-38.434-2.2335c1.1016-10.567 35.323.44046 3.6368-2.1069-.79002 2.0224 2.5335 6.6529-3.6368 2.1069zm165.9.50656c1.6061-20.223 6.7873-22.821 2.0426-2.6135 1.374 2.2495-1.6921 7.0063-2.0426 2.6135zm-50.398-22.862c-5.9724-11.234 8.7219 5.3516 0 0zm50.398-3.081c-6.0231-19.665 11.923-8.8394 0 3.0536zm134.3 112.18c12.465-7.4286 16.135-21.508 31.315-27.104 19.82-11.434-.90562 19.469 18.626 12.806 15.896-.0637 11.545-25.544-3.2834-24.786-19.019 1.7877 31.572.006 25.752-4.8308 26.805-2.1872 50.095 10.44 77.772 3.4718 19.856-.38672 34.643-10.733 54.016-12.663 19.597 2.552-5.9183-17.457-14.075-20.426-28.142 3.6156-8.7898-5.8784 3.5523-13.916 20.588-8.244 14.379-15.94-4.3273-10.345-15.332-2.5555-28.07-11.469-44.326-6.377-12.648-.025-25.958 6.357-35.745 10.213-11.11 3.9423-19.187 9.5517-29.689 17.362-9.0687 6.7342-17.43 17.034-28.013 22.468 6.6415-13.938 20.944-28.091 29.761-39.255 12.057-7.7664 13.854-26.134 26.28-23.818-3.8886-9.363 21.961-6.8772.96122-16.587-15.014 7.9938-28.499 27.377-40.558 41.109-6.7016-4.9342 5.1506-25.023-7.2317-28.854-20.616-11.427-5.1422 11.901-6.494 22.72-1.2956 17.466-5.6691 25.466-15.434 40.557-9.934 10.624-19.549 24.476-27.481 35.787-21.045 18.603 22.857-55.102 6.4939-30.322 9.8702-15.313 12.965-32.875 13.277-51.103-6.0645-15.168-11.897-26.938-18.971-41.639-22.681-12.41-5.3742 4.3671-16.774 14.809-5.2487 11.199-9.6886 19.032-8.1702 35.407 5.3641 17.469 2.244 15.189-2.0426 3.299-3.9444-9.0131-1.1615-21.019-7.6596-29.165-13.543-9.0519-32.59-14.673-21.957 7.7476-2.425 22.029 1.6257 42.53 18.47 57.09 7.9094 12.118 22.65 21.167 22.892 35.408-6.8407.4144-21.271 28.074-1.4178 22.979h2.6332zm5.617-45.447c1.7709-14.919 3.5367 15.029 0 0zm132.49-3.2903c33.938-1.1202-12.466 1.7028 0 0zm-134.53-5.9012c2.4329-10.187 2.0941 9.8386 0 0zm145.02.51064c-28.295.58427 30.007-4.9115 11.489.82579-3.8145-.44174-7.6631-.51627-11.489-.82579zm-80.17-3.0638c10.108-3.9898 2.5795 4.5651 0 0zm-77.106-2.5532c2.4095-6.3586 2.2914 6.0803 0 0zm10.213 0c2.4095-6.3586 2.2914 6.0803 0 0zm74.043.51064c10.108-3.9898 2.5794 4.565 0 0zm9.1915-2.0426c12.033-4.109 3.446 4.6283 0 0zm-85.277-2.5532c2.4095-6.3586 2.2914 6.0803 0 0zm97.532.51064c8.794-2.7779 50.609.82846 39.626.72527-12.377-.51684-30.372 1.4696-39.626-.72527zm-109.79-2.3948c-11.662-20.68 10.067 3.6744 0 0zm26.553-.098c2.1179-9.3748 2.5565 6.6456 0 0zm133.79.45037c2.5586-3.3314 9.0514 3.5337 0 1.0211zm9.4662-1.729c11.237-.18792-4.522 1.5167 0 0zm6.3635-2.3561c12.206-4.5941-5.8779 4.1165 0 0zm-168.77-2.5489c-4.8398-11.512 8.3363 5.9464 0 0zm17.562.41739c.73788-12.358 3.6886 5.7296 0 0zm156.63-.60866c7.299-.33407-4.4309 1.9678 0 0zm-189.77-6.4513c1.7123-8.1299 1.8589 7.7348 0 0zm12.255.51064c2.4095-6.3586 2.2914 6.0803 0 0zm109.28.0603c2.2816-6.9469 2.4174 5.6049 0 0zm13.277-.0603c2.4095-6.3586 2.2914 6.0803 0 0zm-103.49-3.234c-4.5721-13.695 6.3597 3.6639 0 0zm135.15-2.383c4.0494-5.0875 4.4941 4.6935 0 0zm-14.502-2.2468c8.4556-2.4757-2.3868 5.4277 0 0zm18.587.20425c4.6838-4.895 9.2598 4.6265 0 0zm6.6419-1.9306c4.4704-5.2071 20.569-4.8218 8.8241.63567-1.2482-.59628-12.26 1.7797-8.8241-.63567zm-185.15-3.6604c-7.595-6.4741 12.896-4.9767 3.8298 2.2973-2.0093 1.3447-2.7061-1.0911-3.8298-2.2973zm168.3 1.5059c5.0718-.59119.23079-.44304 0 0zm6.1277-2.0426c12.767-.98059 4.5241-.56333 0 0zm-135.15-3.7447c-5.3422-18.35 6.5228-11.169 0 0zm-43.574-6.4681c3.2753-1.0932 1.1562-1.0795 0 0zm39.574-3.6489c-3.5827-24.169 12.15 2.1587 1.4055-8.0958-.82922.81651.54907 10.867-1.4055 8.0958zm-705.45 94.032c-1.1692-2.214-1.2739 2.1134 0 0zm910.98-80.681c-1.1692-2.214-1.274 2.1134 0 0zm308.44-21.463c2.3288-8.1098-21.708-22.581-13.248-7.6036 4.4669 4.7076 6.9356 11.75 13.248 7.6036zm-1159.2-3.5587c20.193-6.695-7.754-16.474-6.1277 1.0213.85107-1.5319 7.0638 2.2979 6.1277-1.0213zm886.47-32.17c-1.1691-2.214-1.2738 2.1133 0 0zm-289.13-59.243c21.079-13.585 42.833-10.343 64.35-26.377 14.422-8.05 28.175-20.696 38.306-30.295 13.669-10.264 30.331-29.366 51.498-32.681 19.775 13.918.48759 4.5375-1.8101 12.255-10.762-7.553-20.105 5.642-9.4857 12.766 9.0456 13.08 20.874 16.21 24.982 9.4459 11.234 5.745 9.1945-5.3882 24.273.25625 7.849-5.069 25.787.51149 31.66-6.9764 12.425-10.738 24.487-22.919 37.99-33.707 9.0149-7.0616 17.249-13.831 27.372-14.466 3.1786 1.8208 21.744 13.055 14.808 11.234-9.1801-3.4192-15.592 7.9745-24.53 9.1915-5.3511 6.2776-27.994 16.097-11.386 24.324 8.0587-1.146 18.134-9.1407 26.725-9.71 13.777 7.9651 39.112-9.0814 30.128-25.898-11.496-6.1769-22.861-21.478-36.989-13.226-7.8751-3.5333-18.026 12.366-21.229 5.2269-21.219 18.771-6.431-4.812-21.334 7.3808-2.6445-.45057-4.1351-13.188-14.406-4.1071-9.8775 8.5313-12.701 15.752-21.748 22.138-7.5687 4.1977-23.647 25.632-4.6728 14.298.14984 9.2283 31.917-1.8515 9.973 6.1277-17.154 1.7953-35.526-1.6144-42.791-17.845-.68855-13.633-15.724-13.288-27.899-14.835-11.87 1.5571-21.883-11.78-33.281-4.0851-23.21 7.9-34.93 31.284-47.586 49.178-9.6041 12.361-23.667 15.089-33.77 27.418-9.9473 5.805-23.714 19.544-34.102 18.169 8.9942-9.4135 20.6-15.932 30.595-25.718 2.5272-10.337.51605-23.554-3.0638-33.812 2.0299-17.058-7.1805-26.775-22.306-34.554-9.4321-9.6584-24.409-17.423-35.907-7.975-.71387 10.949-19.252 6.1227-22.064 18.617-11.493 7.4915-10.455 21.687-12.66 33.493-16.252 14.44 28.347 19.371 6.1393 17.253-12.932 7.4449 28.246 8.0476 5.5171 11.974 10.979-.43464 25.001 30.416 26.23 13.415-12.283-7.0518-9.4137-23.188-23.077-22.333 12.403 2.2123 16.33-15.249 8.6808-19.286-8.8467-3.9475 11.474 1.9498 0-13.699 2.935-7.3988 22.295-5.0352 24.511-17.798.70045-38.339 1.2427 13.864 6.1277-.94455.27966 17.277 18.494-6.0946 8.9864 9.3095-1.7644 14.006 20.28 4.2981 14.161 18.655-10.466 13.618 7.0267 31.277-9.3918 42.638-9.7724 3.9674-13.408 27.815 2.4758 15.566zm37.9-23.48c2.4095-6.3586 2.2914 6.0803 0 0zm14.979-7.3192c-4.5721-13.695 6.3597 3.6638 0 0zm6.2643-1.9226c1.218-12.829 4.9945-.57912 0 0zm-43.201-4.5454c10.108-3.9898 2.5795 4.5651 0 0zm-3.7787-4.2894c8.4556-2.4757-2.3868 5.4277 0 0zm1.7362-7.966c5.1842-3.965.76088 4.4492 0 0zm59.745-2.0426c3.2753-1.0932 1.1562-1.0794 0 0zm12.255 1.5319c2.4095-6.3586 2.2914 6.0803 0 0zm-142.98-3.5745c4.0495-5.0875 4.494 4.6936 0 0zm134.81-4.5957c2.4095-6.3586 2.2914 6.0803 0 0zm-68.426-7.2219c6.0634-9.9048 7.3237 2.7394 0 0zm84.766-.94832c2.4095-6.3586 2.2914 6.0803 0 0zm8.1702.0603c2.1178-9.3749 2.5565 6.6456 0 0zm66.648-.0451c-1.6328-8.4958 7.0352 5.5152 0 0zm-222.92-8.21c-2.57-8.8374 9.8574 6.704 0 0zm162.4.08495c2.1179-9.3748 2.5564 6.6456 0 0zm-109.28-2.5532c1.0097-7.4256 2.0038 7.1093 0 0zm-45.957-3.1241c4.0494-5.0875 4.4941 4.6935 0 0zm348.26 0c-12.366-12.708 15.732-6.2122 10.213-3.0638.016 2.7325-8.5925 5.4356-10.213 3.0638zm-333.96-8.2305c2.1514-10.831 2.1344 11.612 0 0zm347.23-6.0674c4.0495-5.0875 4.494 4.6936 0 0zm265.53 96.511c-1.1692-2.214-1.274 2.1134 0 0zm-409.02-1.5319c14.713-2.8072 26.535-7.6182 43.83-9.2162 16.445-5.2751 35.967-7.808 53.281-12.376 14.53-3.7629 30.998-7.0338 45.838-11.088 9.9416-1.8758 29.852-1.8365 21.987-17.872-.9987-14.506-14.524-16.917-25.411-12.766-9.8307 4.0786-22.835 5.1917-31.882 8.1702-14.188 2.3689-32.354 5.4204-46.366 9.1915-12.101 2.5991-21.159 3.9652-33.422 7.1451-13.929 3.1024-25.152 5.6118-39.089 8.685 1.2314 10.167-.99071 26.717 7.7695 31.149h2.8334zm4.5957-13.787c2.4095-6.3586 2.2914 6.0803 0 0zm-2.0426-4.0851c2.4095-6.3586 2.2914 6.0803 0 0zm10.213 0c2.4095-6.3586 2.2914 6.0803 0 0zm25.532-5.1064c2.4329-10.187 2.0941 9.8386 0 0zm12.255-3.0638c2.4095-6.3586 2.2914 6.0803 0 0zm22.468 0c2.4094-6.3586 2.2914 6.0803 0 0zm21.447-8.2305c2.0948-5.6819 1.2926 5.6043 0 0zm10.213.0603c2.4095-6.3586 2.2915 6.0803 0 0zm26.553-5.1064c2.4329-10.187 2.0942 9.8386 0 0zm9.1915-3.0638c2.4095-6.3586 2.2915 6.0803 0 0zm11.234.0603c2.2815-6.9467 2.4173 5.6048 0 0zm-163.4 37.618c-3.571-9.2677-4.9574 11.45 0 0zm-368.68-3.4944c6.686-15.53.68355-23.653-3.0638-4.5665-4.9314 4.3869 3.3493 18.712 3.0638 4.5665zm-9.3958 3.9101c1.3086-9.3037 9.4566-23.449 4.1325-29.849-14.603-3.7642-27.99-5.8405-42.226-8.7556-13.583-1.9773-26.005-5.9378-40.953-7.1489-11.493-2.4917-20.677-4.8973-33.089-6.1277-8.8413-4.4185-24.012-4.3363-35.234-7.1489-14.923-8.2322-23.043 7.3696-29.046-3.0638-16.928-2.2433-32.523-6.8789-49.982-8.1702-11.606-2.7226-20.637-4.3475-31.72-6.1277-15.096-1.4034-29.773-5.4736-43.975-7.1489-12.947-1.311-22.897-5.6182-37.667-5.1064-11.692-3.1813-23.526-6.1058-36.979-6.1277-11.403 8.3511-6.1383 21.532 5.1992 21.447 12.541 2.2225 26.195 5.6923 39.319 8.1702 11.933 2.6392 25.762 4.2882 36.195 7.1489 12.443 1.4974 23.891 4.7798 36.418 6.1277 9.7696 4.4749 24.101 2.8673 32.068 7.1489 11.59.77245 23.481 4.3556 35.234 6.1277 13.029 10.809 20.283-13.438 18.894 4.6979 12.286 4.7134 25.754 4.8226 38.01 8.5787 17.831 2.2431 36.568 8.2933 55.539 10.213 17.609 4.8748 38.877 8.9944 58.969 13.141 7.6053-.43617 13.961 5.0028 20.895 1.9736zm-17.157-12.562c2.4095-6.3586 2.2914 6.0803 0 0zm-10.213-2.1028c2.0948-5.682 1.2927 5.6043 0 0zm-12.255-1.9823c3.5076-6.6421 3.8218 6.3401 0 0zm-21.447-4.0851c2.4095-6.3586 2.2914 6.0803 0 0zm-21.447-4.0851c2.4095-6.3586 2.2914 6.0803 0 0zm-25.532-5.1064c2.4329-10.187 2.0941 9.8386 0 0zm-9.5319-2.2128c-4.3459-16.755 5.6978-4.4502 0 0zm-21.106-3.8546c2.2091-11.29 2.4107 9.8826 0 0zm10.213-.0603c2.4329-10.187 2.0941 9.8386 0 0zm-27.864-.25532c-.76157-13.971-4.2114 6.8301 0 0zm9.481-1.727c2.2091-11.29 2.4107 9.8826 0 0zm-17.788-2.4764c-1.9183-7.1098 4.6431 3.4227 0 0zm-8.7656-8.7576c2.1998-16.702 3.0669 14.779 0 0zm378.89 43.855c-1.1692-2.214-1.2739 2.1134 0 0zm168.32-14.553c-4.9458-7.1736-4.0791 7.7546 0 0zm-357.25-1.7872c-1.1692-2.214-1.2739 2.1134 0 0zm556.09-18.894c14.468-3.0293 29.26-5.4766 43.915-8.1702 14.331-2.6638 29.107-4.5305 42.894-8.1702 13.157-2.5044 23.933-3.2 36.376-7.1489 16.306-.91638 30.782-5.117 45.897-8.1702 8.2438-.9525 32.321-3.8349 25.472-15.961-6.1711-12.895-25.477-4.6709-35.234-3.4429-13.546 2.2968-28.373 4.4448-40.34 7.1489-11.3 2.6262-25.63 3.6256-38.298 6.1277-14.048 2.1569-26.979 4.5688-39.83 7.1489-13.708 1.6728-26.089 4.1119-39.89 6.6058-15.11 1.5082-17.713 11.372-13.727 25.054 3.7628-.8652 10.057 1.5945 12.766-1.0214zm-525.64-27.307c-6.0146-8.5568-3.6153 7.743 0 0zm248.36-9.9692c-1.1692-2.214-1.2739 2.1134 0 0zm184.85-6.1277c-1.1692-2.214-1.274 2.1134 0 0zm-176.68-2.0426c-1.1692-2.214-1.2739 2.1134 0 0zm-406.03-2.4166c12.29-11.434-21.255 6.2591-.26286.15426zm-7.58-3.7205c11.496-19.166-26.18 11.196 0 0zm615.82.52004c-12.729-12.729-18.418 5.7805 0 0zm6.7112-3.5015c1.4076-7.2502-15.915-4.0826-2.0425 1.459h.5836zm324.18-29.69c-1.1692-2.214-1.274 2.1134 0 0zm-1393 224.17c2.3384-4.428 2.5479 4.2267 0 0z"/>
</svg>
