<?xml version="1.0" encoding="UTF-8"?>
<!-- Created with Inkscape (http://www.inkscape.org/) -->
<svg version="1.1" viewBox="0 0 1115.2 1564.6" xmlns="http://www.w3.org/2000/svg">
 <g>
  <path d="m429.77 1561.8c-14.786-7.2091-45.718 3.5545-55.499-8.4255-22.637.9303-44.333.92-57.971-7.149-22.366 2.1848-35.101-6.1392-51.441-11.234-24.036 3.145-38.287-3.4954-56.545-6.1277-13.152-5.5619-26.389-11.04-43.888-12.255-7.6817-11.27-31.883-5.1941-42.706-14.553-13.408-5.6236-30.25-6.4551-41.549-13.021-16.861-3.9807-9.9194-34.414-11.715-53.429-.37119-242.28-.74237-484.55-1.1136-726.83 4.7027-4.8979-.53166-24.724 5.1686-40.438-13.218-7.6853 7.3212-49.128-26.553-36.157-18.442-4.1621-37.355 15.636-44.614-3.8433-.65953-156.37-1.0242-313.44-1.3433-468.1-.27202-23.194-1.4381-47.006 5.2018-63.5-.91512-21.12-4.3932-44.772 24.415-36.536 12.807 8.6988 33.421 11.106 53.654 13.395 7.0228 10.493 35.212.64003 50.939 4.0316 22.794.63729 39.899-4.4144 57.79-8.6809 10.704-8.5298 33.232-5.2358 42.894-14.809 17.841-1.3127 26.005-12.302 45.205-12.255 13.472-5.3323 29.972-7.6365 44.157-12.255 13.718-5.4446 36.224-2.1175 47.383-11.234 21.962.72134 31.76-10.72 57.594-6.1277 18.717-4.5933 38.333-8.287 63.803-6.1277 27.855 4.4281 40.357-6.4961 64.153-6.1277 27.929.54576 25.492 5.3473 49.652 0 16.482 6.8018 39.494 5.7305 62.405 5.0329 22.438-.80782 33.382 10.923 60.013 6.6921 12.099 10.049 37.905 4.2152 52.785 11.537 20.564.01866 29.013 11.322 49.035 11.461 15.223 2.6291 25.003 13.347 44.157 12.255 6.9848 11.967 31.178 6.4015 40.735 17.411 18.463 5.09 35.796 9.7045 60.664 6.9023 21.63-2.3263 51.367 4.2324 67.942-3.6329 16.107-3.2689 23.632-13.865 41.821-14.553 12.75-12.089 39.36-9.9537 28.838 19.265 2.747 25.71-11.181 34.27-5.6956 61.939 1.378 165.09.2229 330.21.6163 495.31-17.891 5.8694-59.768-12.029-59.261 12.071 1.499 26.682-6.1076 30.068 0 50.791-.5533 26.462 1.6073 64.147-2.8085 56.95 6.5571 18.156.9334 47.172 2.8085 69.503v95.996c-3.6962 4.6538-4.1159 22.921-2.5532 35.88-4.2521 9.9834 3.3625 27.643-2.5532 38.325-2.9961 25.612 3.0277 42.204 6.1277 61.719-9.403 6.065-8.0098 24.236-6.0819 36.686.6094 129.06-.04 258.12-.046 387.18-11.498 6.9137-26.694 10.253-38.042 18.196-12.9 6.4161-28.397 8.8969-44.681 11.422-13.153 6.5571-28.609 10.757-48.037 11.733-9.2304 10.07-27.436 8.8588-42.856 11.756-10.519 10.677-36.823 5.5691-51.333 12.255-12.716 6.6513-36.43 3.0226-47.377 12.255-25.818-3.1165-42.6 3.6836-63.995 5.8162-26.814-3.4317-37.87 8.6692-64.127 5.4178-67.711-.1622-135.42.9068-203.13 1.3573.80933-18.035-9.9487 7.0927-12.443-3.1445zm59.422-18.128c11.651-2.7835 33.267 6.7984 54.894 2.2102 28.806-2.3791 64.521 2.6304 89.106-3.2288 12.715-9.9233 52.427 7.1503 59.234-8.6809 20.511-2.6831 51.027 6.0229 63.588-5.6761 26.015 3.2718 36.503-8.6657 61.815-5.5579 13.196-8.967 35.139-8.8663 54.087-12.487 21.193.7556 31.349-9.8324 48.766-12.024 15.893-3.0009 32.164-5.6228 45.447-11.234 11.885-7.1792 31.885-6.243 38.808-18.383 21.106 2.6856 22.042-16.098 28.596-27.064-10.921-10.894-2.4269-41.202-5.1064-60.336 1.3589-17.722 8.1078-30.727 5.1059-52.368-2.2927-19.391-7.6846-35.684-5.1064-59.946 1.7244-15.566 11.07-36.008-.1942-48.943 7.3547-3.3855 10.11-58.126-.9627-48.535 5.9531-14.304 3.7476-16.223 6.2633-40.636-11.514-8.011 7.3047-29.279-.5443-49.441-9.0773-15.061 8.0491-25.855-4.5621-38.362 10.914-10.497 12.313-41.075 5.1064-38.167-9.843-15.689 3.0146-20.887-3.5746-35.609 2.8762-6.9249-7.3091-23.551 2.5532-35.745-6.8646-3.7507 4.5105-34.16 0-52.677-9.4929-1.6725 8.4219-27.633-5.1064-35.153 9.3928-7.5281 5.2969-50.533 2.5532-48 4.6132-14.069 4.5831-44.333-2.5532-55.149 11.787-11.299 1.8277-44.345 5.1064-64.153.7922-25.733-7.5935-30.506 0-51.762-5.2542-28.179 36.594-9.256 53.967-14.809 11.535-10.715 5.2362-39.19 6.7084-59.934-.1504-89.299-.3008-178.6-.4511-267.9 13.635-10.802-6.9895-28.974.031-49.828 5.7393-16.637-1.7616-20.773 5.1064-40.313-7.9826-9.4244 4.5651-28.374 0-49.93-2.0706-21.895 2.2584-50.364-3.7396-68.269-11.872-10.429-19.947 12.974-40.202 7.1489-13.068 8.3074-34.466 8.2841-52.892 11.234-21.026-1.0028-47.465 3.4065-60.981-5.1064-16.842-2.3025-33.821-4.4677-45.177-12.255-18.345.60283-27.301-10.263-43.711-12.255-18.229-1.1622-26.49-12.294-46.941-11.234-10.907-8.4086-30.005-10.288-48.254-12.171-13.198-9.0506-39.517-4.4302-53.632-12.339-24.638 3.4967-36.652-5.6488-58.509-4.8784-52.398.09421-104.8.18842-157.2.28263 8.8404 13.232 45.068 1.9229 64.672 5.5107 30.358-.13479 60.716-.26957 91.073-.40436 5.887 3.8612 20.582 5.2843 43.431 5.617 15.437 5.4901 40.013 1.8412 50.526 12.255 24.435-2.0225 40.642 6.3838 61.277 8.7082 15.211 4.5038 29.981 8.5339 43.937 15.562 13.794 4.8911 30.853 5.32 42.871 11.474 15.171 4.5739 30.397 9.092 48 11.234 19 4.6464 39.039 8.2531 64.81 6.1277 25.212 4.4433 35.607-7.5996 58.764-6.1925.1852 21.313-36.085 6.1709-48 15.384-19.173 4.5529-21.762-2.4767-46.294 3.0638-18.011-2.7416-33.402-8.1032-50.002-12.255-17.72-.31384-25.212-10.855-42.867-11.234-12.974-5.9959-26.808-12.915-47.258-12.309-5.4444-14.945-32.264-7.0202-42.856-17.819-24.048 2.6168-40.827-4.2176-61.414-5.617-7.1628-15.952-48.525 3.8541-57.054-11.745-53.958-.03806-107.91.3285-161.87.51065-9.1496 13.946-43.92 2.2707-63.158 6.1277-10.155 10.324-40.862.09626-50.203 11.234-26.605-4.7193-35.849 7.9228-59.53 6.1277-8.0143 10.79-27.999 9.6091-44.157 12.255-13.654 5.8403-25.356 13.632-46.226 12.255-11.075 7.0387-23.867 12.361-43.108 11.234-12.386 8.8367-30.579 11.867-51.414 12.255-19.1-4.0113-54.489 8.2652-62.969-6.3659-31.247-.91108-12.468 17.077-3.0638 23.728 4.0221 15.561 29.728 9.439 40.367 18.383 24.02 2.9712 39.377-3.4797 58.952-5.8959 21.812 1.0384 31.27-9.605 48.766-12.487 18.31-.93309 26.518-11.968 46.495-11.234 6.3374-12.207 34.867-2.2212 37.25-18.383 24.479 3.0144 31.988-10.942 58.267-6.1277 13.878-5.6786 29.017-10.096 47.435-11.234 22.481.50513 33.63-10.321 59.799-6.1277 14.752-7.1914 38.92-4.969 60.725-5.1086 32.856.30501 65.7-.37092 98.54-1.3468 7.4955 15.001 49.069-4.0754 55.928 11.562 25.934-4.0664 37.992 5.744 59.476 6.1277 22.49-1.9663 32.422 8.6259 50.338 11.234 21.137-1.4849 29.709 12.153 48.994 12.255 10.443 8.191 29.432 7.8351 41.603 14.298 13.1 8.0064 35.079 7.1337 48 15.319h96c19.06-20.347 12.718 27.735 13.188 42.934-.3131 124.24.1126 248.48.089 372.73 19.723 7.5332 9.5717 26.872-2.5532 7.1489-3.7396-9.489-46.929-12.652-51.574-1.0213-15.705 6.5712-9.9645 34.558-10.692 56.091.16622 265.55.33243 531.1.49865 796.66 4.0863 14.489-21.404 10.125-33.48 16.36-10.013 8.666-28.822 8.1056-44.667 11.745-10.307 8.8051-30.303 7.2351-41.362 15.36-21.897 1.4088-35.784 10.827-61.277 8.6395-8.6098 12.936-41.238 1.8531-53.402 11.234-25.036-2.3396-32.886 12.507-60.94 7.149-23.085-.1446-37.659 9.8401-64.27 6.2446-16.037 4.1494-45.826-7.0308-54.239 6.0107-15.392-11.448-25.719 3.4241-41.147-5.1064-24.422-.047-48.859.4769-73.236-1.3282-4.4414-3.9253-21.313-4.3728-42.141-4.7993-24.861 2.6352-31.819-12.633-59.53-7.149-13.367-7.9899-39.393-3.3213-52.838-11.234-19.59-2.9584-38.909-6.1883-56.412-11.234-17.418-1.8547-30.856-6.2575-44.665-12.901-16.292-4.0407-34.39-4.835-47.25-11.61-10.923 1.6433-36.201 13.168-21.93 21.447 12.911 6.0721 26.85 11.116 42.652 14.298 13.556 6.1757 27.362 12.103 47.962 11.234 13.103 10.453 34.188 10.879 53.924 13.277 17.484 4.8941 36.209 8.5482 55.901 11.234 16.097 5.9723 38.744 5.8647 61.343 5.5746 12.271 10.672 40.118 3.674 60.069 5.6594 20.506 5.7337 14.507 3.5357 44.358 7.1482 50.531.2707 101.05-.7979 151.58-1.3534 5.8294-17.038 46.521.7861 59.234-9.3682 16.192-6.9663 49.209 2.8936 60.793-8.6808 26.485 3.6671 35.021-10.614 62.325-6.1277 13.653-6.9185 34.288-8.8608 52.572-11.234 11.095-8.2791 28.838-9.3432 44.154-12.255 14.733-3.2165 24.866-11.909 43.646-12.338 9.9075-8.9586 30.88-6.8524 33.192-23.407 4.6425-16.525 11.495-30.446 8.2412-54.436-4.4831-14.121-3.7767-16.866-5.688-43.392 9.3716-14.934.064-19.193 6.1276-43.646-12.895-8.1301 11.154-28.929-6.1276-39.292 13.448-2.2545-13.619-37.326 6.1276-44.936-7.9493-8.8368 2.2479-25.938-3.3191-35.932.055-14.518 2.4453-23.344 3.1198-48.336 1.8733-18.204-12.5-45.134.9346-37.532 6.9083-22.55-11.866-35.824-.7353-45.178-15.417-10.214 4.3002-34.723-6.1276-38.299 5.3111-9.5474 3.8393-16.139 6.1276-38.809-11.755-9.6429-8.7446-37.025-4.0851-29.617-5.0773-13.426-6.3312-49.013 3.0638-58.213-10.375-13.471-.8526-17.852 0-36.041-1.629-20.4 4.7105-48.769-6.1276-59.959 20.356-8.7348-9.6484-32.235 3.085-42.894 12.081-10.659 13.529-46.525 3.0426-46.979-10.377-16.235 7.8519-25.65-6.1276-39.319 9.6336-14.635-.4555-17.737 6.1276-41.362 2.577-22.204-17.678-38.039 11.53-27.574 21.273-1.6545 54.81 7.9447 48.334-20.466-.9464-22.554 9.9488-35.36 5.4979-62.661v-397.89c-24.472-.24841-3.0069-33.809 5.0816-9.2139.3242 165.78.3327 331.59.5355 497.38-17.685 5.7323-59.442-12.606-58.723 11.53v221.32c-8.4598 3.4122-7.7667 34.523-3.6069 29.617-16.198 13.643 18.678 37.995-3.0314 47.489 11.57 9.5327 6.4728 39.657.4911 49.801 11.27 16.728 1.4521 25.116.02 44.668 10.675.73203-7.9017 28.482 7.1489 40.163-16.381 14.772 5.162 22.274-7.1489 41.593v132.71c4.0156 2.4623-4.748 39.439 0 34.482-2.2527 27.025 12.257 29.298.2229 49.008 9.1446 18.432-3.142 23.588.2877 51.696v108.9c-19.003.3298-22.986 15.679-46.764 11.234-4.8327 13.452-33.524 3.0446-36.47 18.383-23.046-2.0203-37.973 4.0783-51.843 11.234-21.891-1.0447-30.891 10.802-56.412 6.1277-14.147 7.9177-37.405 6.7248-54.961 11.234-27.552-5.2788-30.462 11.375-56.832 7.149-22.046.094-35.58 8.6999-61.313 5.1063-27.359-4.2859-40.111 6.0346-63.091 6.1277-20.068 2.298-63.098-3.7068-56.909-2.0475-20.885 11.613-36.087-8.9536-61.385-3.0639-24.73 3.0411-39.656-3.7216-59.959-5.1064-25.532 2.6433-43.67-2.1081-61.518-7.1489-24.395 4.3163-34.432-7.3572-56.664-6.1811-12.348-8.5812-37.01-4.798-51.537-11.181-20.435.1722-28.154-12.372-49.559-11.23-8.2483-10.636-28.661-9.1087-44.398-12.255-7.2625-12.502-30.768-7.489-41.872-14.766-7.4183-12.507-9.5328-40.051-.0791-52.155-.0156-78.459-.0311-156.92-.0467-235.38-8.0509-2.8093 5.0807-36.081-.19486-56.091-.90495-172 .65739-344.39-1.7814-516.15-20.839-1.6484-48.627 5.9506-65.302-2.3765-17.295-12.949 4.7971-30.422 0-49.978-2.9951-18.254 6.8657-49.365-6.1277-57.621 13.197-9.6753 2.5549-42.415 5.22-62.298 2.1597-23.101-1.046-52.956-3.1775-46.979 6.2531-4.4255-12.871-27.823 3.0982-36.766 1.5742-20.211-4.5978-68.427-3.3536-59.422.23999-14.315 2.0093-21.846 2.8085-45.797-7.1938-19.412 2.3505-25.256.26987-51.803 6.1192-25.595-12.587-36.769.24077-51.857 4.978-13.397-8.1067-79.239 2.2843-51.547-26.823-5.1812-18.311 22.837-19.646 43.823-.32757 161.73.57202 323.47 1.3592 485.2 20.455 2.2406 49.694-4.3028 65.024 3.0638 8.9769 13.464 3.0291 20.203 0 32.681 15.336 9.501 8.7713 39.624 3.0638 35.745-1.3048 14.934 2.5017 20.74-3.0638 41.872 19.203 7.3833-13.468 30.895 6.1277 39.588-4.7723 25.508 2.6001 33.245-6.1277 43.135-5.9245 20.685 16.172 33.72 0 45.716-2.6618 21.226 13.709 31.033-.27571 45.715 2.0985 189.77 1.054 379.56 1.297 569.33 10.953 8.475 34.346 2.6536 41.872 13.787 9.3657 9.5279 35.418 2.3689 41.872 14.808 21.888-2.3229 32.376 6.7541 50.043 8.6528 18.338 1.7799 32.353 9.6549 53.106 8.7089 7.1373 15.089 42.182 2.2709 54.424 12.255 25.899-4.4615 33.181 9.6946 58.186 6.1277 22.289-.3318 33.425 10.49 59.745 6.1276 18.782-4.7413 34.426 7.134 44.157 2.5532zm497.36-107.74c15.72-14.979 16.67 13.89 0 0zm4.0851-859.91c5.8525-19.032 18.657 20.039 0 2.2844zm59.234-452.09c2.4062-28.104 13.151 26.665 0 0zm-680.17 1321.7c5.3612-13.022 8.6879-28.078 13.787-41.362 3.9716-15.262 9.393-29.075 15.83-41.872 3.6394-15.886 13.329-25.722 11.234-47.342-17.193-.5919-16.395 20.182-24.511 29.47-6.9936 11.56-3.7917 33.315-14.298 41.362-1.6315 17.373-14.768 24.689-14.372 42.642-11.583 8.4369-3.3529 35.259 12.33 18.876zm240 2.5532c10.603-9.7239 12.875-29.008 11.234-50.614 10.716-11.146 7.0628-37.873 6.0095-57.845-7.468-10.602-13.48-22.644-18.265-35.544-12.963-6.7008-21.112-18.216-24.511-34.482-20.26-4.0754-6.8389-33.896 6.1276-13.518 23.158-5.236 24.872 14.752 36.766 20.868 11.982 17.517 13.704 10.45 36.793 8.7487 11.389-10.585-27.038-7.3262-28.691-18.383-5.7549-3.8535 47.598-14.224 6.1414-17.362-19.621-2.748-42.835-1.9043-54.853-12.255-21.334 6.1648-25.655-21.944-8.412-23.489 10.39-8.6743 18.541-19.586 27.574-29.617 13.118-5.4462 24.767-14.774 39.319-18.383 23.763 3.3385 3.5368-37.312 22.979-38.294 11.097-7.7966 17.292-20.496 35.745-20.936 6.6054 8.3751 6.3265 39.726 24.511 26.553 9.7429-8.326 7.7878-39.154-13.035-32.681-22.081-6.2573-1.7448-20.55 13.035-20.936 6.8576-.1459 34.663 1.8949 29.617 22.226 9.4527 9.1811 8.4469 28.821 15.319 40.582 5.7997 13.524 11.58 27.067 15.319 42.652 5.8883 13.99 12.603 23.926 11.234 44.844 13.327 6.8471 11.341 29.007 18.383 42.138 7.5385 11.622 4.635 33.487 15.319 40.919 6.0686 12.995 2.674 35.454 15.319 41.872 4.0521 30.721 8.1798-15.822-.99757-21.967-10.079-7.8435-5.0124-32.393-17.385-37.267-1.1777-19.848-4.2301-37.822-12.255-50.822 1.5732-20.326-12.376-27.66-12.255-47.043-7.1334-13.877-9.2541-32.125-14.553-49.011-1.3554-17.563-9.8543-29.832-15.071-43.619 2.6624-17.961-6.602-28.473-12.276-38.028-1.793-17.389-4.0004-35.058-13.249-44.158 9.2592-35.295-18.426-11.216-18.383-26.553-7.0996-18.565.49874-20.296-5.1064-39.588 2.9652-12.873 14.934 30.614 23.489 4.354 9.64-9.0452 16.807-20.475 24.511-33.056 10.848-9.7623 14.114-23.85 20.936-35.88 6.9245-11.969 10.203-27.584 20.936-35.745 4.1403-14.924 6.7251-31.403 12.255-44.936 7.3509-13.756 6.6957-35.517 6.1277-57.191 10.959-6.5647 7.4418-63.317.0541-51.835 2.1815-24.478-6.4064-35.421-7.2025-55.399-8.5912-9.0092-12.006-26.864-20.936-35.745-11.328-7.1713-17.708-21.317-27.064-29.617-11.115-8.0918-23.482-15.841-41.136-16.584-14.827-2.5256-34.52-14.577-48.481.0368-15.495 2.8202-24.915 12.51-39.072 17.564-7.1192 11.136-22.236 13.808-19.396 34.728-16.636 5.4106 4.4721 48.566-13.277 52.865-1.1673 15.072-10.762 31.941 0 43.135 12.705 6.2786 12.612 25.354 24.511 32.439.80741 31.26-21.213-15.899-17.362-8.885 2.6856-18.698-35.444-14.513-18.383-27.397-1.1971-13.021-23.226 1.6675-18.383 3.8433 7.4933 11.83 15.105 23.542 24.511 33.46-.27332 17.589 19.508 19.432 18.383 38.809 3.7523 24.406 30.1 1.4179 11.234-9.7292.70499-34.2 27.046 13.459 17.872 9.4603 1.3717 18.476 13.652 24.104 15.319 41.362 1.3558 17.197 11.747 25.359 13.787 41.872 5.8971 13.547 8.6208 29.265 21.966 36.149 13.952 31.356-18.934-4.364-14.817 23.864 9.6351 18.216 10.113 17.269 0 32.681 10.57 9.9601 4.2563 37.791 6.1277 55.391 13.398-2.4223 20.268-28.959 28.596-7.3908-9.1996 14.954 7.3433 21.208 7.1489 38.029 1.6139 20.662-17.014 19.009-27.191 29.617-17.546-10.287 2.3684-20.317-2.4255-41.872-22.098-1.2997-14.672 28.683-21.447 41.872-7.2735 10.645-17.554 21.105-20.426 35.745-6.906 4.3425-28.913 28.406-20.426 6.1276 18.989-13.893 11.374-33.313 3.0638-29.617-9.8344-11.03-2.5236-38.515-12.255-51.192 1.236-12.527-21.662-29.12-6.2296-38.681 3.2193 17.341 11.769 27.342 16.201 41.872 9.0064-1.9924 21.735-31.636 8.412-35.745 5.0616-26.258-8.88-33.512-12.255-51.333-1.3913-8.3504-30.269-26.944-6.1277-26.284 11.764 32.532 26.526-53.966 23.489-20.426 13.646-12.083-2.2693-28.468 0-44.936-8.6646-9.6412-12.494-27.432-18.383-40.099-8.1029-10.19-14.451-22.136-17.362-37.518-13.063-7.016-11.868-25.066-21.191-34.911-9.6168-2.2236-19.948-39.192-21.702-13.089-10.811 11.066-1.9356 42.443-11.234 55.58 1.54 23.253-9.9852 35.145-6.0119 60.885-4.4972 18.76-6.7538 39.262-5.2222 63.817 5.2872 29.342-11.58 36.512-6.9627 64.931 2.6403 14.049-7.93 58.359 12.256 44.622 6.4952-15.973 22.72-18.658 18.396-44.299-3.2684-26.127 9.9219-37.308 5.9274-63.762 10.83-11.588 50.93 4.3224 29.079 9.2042-22.118-13.696-26.154 1.4536-22.952 28.462 1.0872 21.945-3.899 49.964 6.1277 62.969-.96711 19.431 9.909 27.018 12.255 43.135 5.3924 14.411 10.929 28.678 12.255 47.156 2.9116 22.242-10.23 31.692-18.383 42.716-6.0579 12.406-21.124 15.803-29.617 25.774-2.7861 16.278-11.199 26.929-18.383 38.808-18.053 11.968-38.422-7.9892-49.695 3.0638-24.436-3.9753-29.446 11.476-40.178 21.205-2.8401 15.186-12.798 25.946-18.383 38.029-15.616 3.6289-30.505 7.9193-46.763 11.922-30.117 7.7748-25.631-12.777-19.62-29.284-7.3998-9.2074-29.043-.5786-29.617 15.077 10.722 15.496-18.628 27.946-18.383 26.795-2.1289 8.2758-49.619 12.894-47.784-3.3192 4.3256-14.042 7.6247-30.243 12.04-44.681 10.336-8.5439 6.8234-30.937 14.769-41.872 1.621-17.483 14.503-24.577 15.87-41.362 3.6911-12.072 9.2744-38.819-6.1277-32.17-9.5599 9.8264-9.9223 28.85-12.255 45.903-8.3637 11.273-7.7288 27.955-15.064 39.693-2.7425 17.05-10.945 27.395-9.4468 48.191-12.085 7.4783-2.2611 36.325-27.346 29.621-5.8797-11.665-17.413-19.524-25.76-29.668-4.799-14.844-24.144-14.966-12.255-33.409 18.857-10.934 5.7156-16.149-11.234-8.412-7.1331 20.05-32.364-14.28-40.276 6.1277-17.355 11.093-3.5821 26.997 2.4885 37.304 3.1219 14.24 11.821 22.902 30.155 21.93 4.5829 13.28 18.69 17.036 37.25 16.34 10.868 9.1453 31.982 8.0451 24.511 35.53-18.805 14.318 14.067 12.336 5.1064-11.019 8.3997-18.43 21.015-3.1033 33.46-12.255 19.057-1.7674 46.506 4.8579 56.344-6.1277 10.771-8.3308 28.863-8.628 41.94-13.277 12.114-11.189 55.58 7.3104 60.766-9.7021-19.383-11.299 17.136-16.873 28.623-17.872 10.807-7.4042 19.886-15.594 36.739-17.872 16.376-19.846-4.3317-15.971-21.459-11.43-17.166 13.496-28.016-4.5613-8.8041-12.57 8.9107-13.109 27.227-12.361 40.745-6.1277 6.5212 13.474 25.209 14.782 20.667 39.319 4.0887 24.274-14.106 25.798-18.383 43.298-4.9138 13.315-14.416 23.072-18.383 38.567-2.6589 17.372-6.6748 33.387-8.6808 51.412-.96036 10.396-26.402 29.847-7.1219 35.745 15.331-3.2859 23.602-13.632 28.058-27.792 13.797-5.8881 21.033-17.598 24.511-32.467 14.947-4.7489 16.187-25.187 20.97-40.851 3.7772-28.5-16.359 13.175-20.97-7.149-14.376-3.0104 6.9126-48.905 5.1064-38.567-7.3411-31.314 22.105-12.223 18.383 5.6441 7.6759 7.8791 10.676 40.575.47581 49.532 1.7757 20.63-5.6546 50.249 5.6518 61.518 7.0846 11.809 8.9651 28.822 15.319 41.362h3.0638zm0-61.719c-11.439-26.996 11.709-19.564 5.617 8.397-2.53 10.96-8.3136-2.5941-5.617-8.397zm-60.255-48.578c3.2131-27.55 10.437 28.127 0 0zm-342.13-65.872c15.858-17.132 15.031 15.604 0 0zm-31.66-20.426c8.7128-19.296 19.182 19.808 0 1.7738zm457.53-111.83c15.136-27.379 16.948 15.908 0 0zm81.702-154.72c5-30.28 9.1496 29.252 0 .99423zm6.1276-38.809c-12.289-16.406-2.1628-32.671 5.7522-7.3931 3.3913 7.8153-3.3169 22.838-5.7522 7.3931zm6.1277-41.294c-9.8962-13.179-7.6719-39.529 5.1064-45.783-9.2618-19.387 16.213-47.852 18.383-20.667-21.608-2.9276 53.874 51.058 21.447 24.511 9.3262 16.588-.12818 40.089-15.857 41.872-9.0218-3.7108-25.77 19.016-29.079.0678zm53.94-98.876c-14.912-4.4619-22.049-16.401-24.323-32.936 23.304 2.2644 19.497-21.39 7.0635-27.328-5.761-14.756-29.237-10.619-25.447-33.738-1.6116-22.402 67.305 19.869 39.319 6.9386 12.078 7.1557 14.621 23.847 34.213 23.489 1.7227 14.074 12.527 40.034-.18748 51.83-7.9115 5.0503-17.705 23.058-30.638 11.745zm12.255-102.13c-16.178-4.7344-32.219-7.4707-29.43-29.926 3.0614-23.388-3.1875-37.466-13.277-47.704 4.3198-20.433 42.304 10.821 36.642 3.9635 4.5993 15.048 29.607 9.8175 24.626 34.872 3.7067 6.9224 15.404 45.621-6.562 41.604-2.8798-1.9975-13.51 3.9104-11.999-2.8085zm-671.81 734.08c25.161 1.995 17.032-28.187 17.841-49.734-.92303-272.11 1.1338-544.26-1.7344-816.35-13.381 5.8651-18.968 19.524-29.383 28.354-.25998 280.25.81932 560.5 1.3605 840.75 3.0329-1.5937 13.99 3.4258 11.916-3.024zm666.89-7.6994c11.327-7.5218 26.939-10.758 35.745-20.8 17.37-12.729-6.7995-26.276-6.1277-40.234-9.3867-8.4448-9.1967-26.243-23.489-31.391-1.7202-16.865-9.6259-28.15-15.879-41.872-8.036-10.501-8.2543-28.82-20.887-34.723-2.9531-16.03-9.6532-28.313-18.383-38.567-4.2309-14.233-11.278-25.649-17.362-38.029-5.0087-13.741-15.501-24.322-18.383-39.588-4.5462-10.191-18.785-30.491-23.489-8.412-16.688 2.2953-14.93 23.037-21.205 35.745-24.44-3.9803-10.08 33.149-25.774 6.1277-2.4519 21.523 12.008 25.638 17.46 39.583 6.7968 12.896 5.493 31.55 17.263 38.034 3.9042 14.649 12.506 24.6 17.362 38.298 7.6189 9.7504 10.601 26.977 18.383 37.276 12.592-15.287 13.348-7.848 6.1277 8.1703 3.5804 15.631 12.895 25.528 18.383 39.251 7.5692 12.232 15.125 22.888 20.936 35.302-3.082 25.827 22.393 19.731 39.319 15.83zm-41.872-33.192c3.2134-27.548 10.437 28.125 0 0zm-42.894-81.702c-11.958-22.911 3.7606-16.39 6.1277 3.8433-.53575 2.6423-10.285 2.7516-6.1277-3.8433zm-18.383-35.234c4.368-20.506 10.073 18.356 0 1.7737zm-28.596-59.745c-6.3099-5.4651-16.905-43.271-6.1277-20.157 7.4152-1.811 17.99 41.489 6.1277 20.157zm156.26 58.723c-10.893-8.4305-3.9686-34.679-22.737-35.234-15.394 9.8488-15.866 20.236-1.7737 29.617-32.736 11.121 28.474 18.11 24.511 5.617zm41.039 2.8085c14.248-7.1217 34.83-6.2204 46.791-15.574 11.134-5.5915 29.546-20.471 3.0547-22.858-9.4331-15.11-7.6221 27.296-37.778 11.624-3.9521 9.8604-43.347 4.5851-25.774 23.489 12.064-5.907 3.8456 14.961 13.706 3.3191zm-425.04-4.7832c8.9716-11.146 11.986-25.511 18.126-40.431 1.6528-17.73 11.563-26.012 11.491-44.94 24.276-10.875-12.541-32.682-11.234-5.5629-3.6664 15.483-8.1128 28.466-15.574 40.126-4.3761 15.43-9.1432 29.218-14.043 43.619-5.9213 10.602 9.2541 13.29 11.234 7.1898zm520.85-18.962c-14.684-5.978-14.56-27.174 0-32.681-3.6871-19.209-20.835-4.9902-36.409-3.0638-11.289 8.4687 27.189 31.11 18.026 26.553-.97905 5.9236 14.18 19.586 18.383 9.1915zm-101.94-5.8723c13.517-7.0552 27.451-9.5656 36.068-21.192 12.987-6.4348 21.135-19.017 27.843-30.128 6.3811-3.9657 35.038-23.367 7.1219-23.489-13.402 6.5932-30.065 9.9262-47.731 12.255-22.37-2.9656-27.113 11.695-40.851 17.362-15.542 9.1584 13.856 51.207 6.1277 44.936-4.1548 4.415 14.488 4.9556 11.422.2553zm-11.422-29.872c10.392-.6366 28.876-24.832 34.723-9.1915-14.651-3.1845-24.234 19.149-34.723 9.1915zm34.723-51.064c-3.8084-6.4105-22.496-33.601-23.489-14.808-2.4343 9.5574 21.403 31.663 23.489 14.808zm-581.11-42.894c-.17295-21.274 2.7473-45.641-8.1702-56.17-10.255-8.5945-25.7-31.781-21.447 4.0443-3.9673 17.162-14.562 27.19-12.255 49.358 15.503 2.4411 11.917 23.971 23.489 30.342-.35933 25.706 28.603 19.475 18.383-9.5415v-18.033zm533.32 32.17c4.2061-13.517 13.872-23.564 23.276-32.681-11.101-8.0772-13.325-24.411-17.704-39.841-2.2421-15.106-15.169-31.294-14.466-10.712-1.6619 11.949 1.458 20.461-2.5491 38.862-.58005 15.814-1.552 57.38 11.591 46.158zm-352.37-8.4255c15.252-6.7307 44.013 1.1231 46.791-17.133 2.8059-19.743-6.406-51.503 6.1277-61.518-2.3153-14.296 1.9157-66.484 6.1277-27.762 4.6403 26.898-7.7328 36.782-6.1277 60.644-8.048 23.056 17.438 43.924 12.255 10.764 6.0061-3.1463 13.781 28.992 12.255-9.9709-20.772-4.1579-7.0954-24.321-6.1277-40.234-4.6403-26.141 9.1941-33.806 6.1277-58.373v-74.203c4.6417-5.3032 4.693-24.389 5.1064-46.845-4.7843-28.148 6.6967-40.031 7.1489-62.942-.20011-22.875 10.545-34.113 5.6057-61.085.50106-11.548 19.387-41.544 4.0714-43.482-30.298-7.5816-12.582 31.334-16.891 48.921 4.1457 22.673-5.2236 62.14-5.0438 17.778.28475-24.295-.28981-48.576-1.3388-72.848-20.72-1.4661-17.926-24.569-18.063-45.083 11.169-6.6392 9.4889-45.334-6.1277-44.882-4.4186-15.416-19.662-20.006-42.141-17.362-22.414-2.4567-31.826 7.4868-48.265 11.408-27.225 2.5583 15.958 37.186 7.6824 28.18-2.8215 16.673-26.171-23.566-23.489-16.099-17.362-16.808-8.7645-13.748 8.1702-23.489 11.525-16.132-10.111-24.195-8.1702-40.851-15.785-3.6188-6.7132-32.095-24.511-33.702-14.706-3.1543-31.455-7.2299-42.894-14.298-14.351-4.6905-23.405-14.678-32.613-24.511-11.912-7.0962-18.259-20.436-27.642-28.596-5.3766-19.751 41.283-5.2941 21.487-29.617-13.52.28442-10.584-51.542 3.0241-30.638 34.036 4.5487 14.795-9.5782 8.1702-22.468-7.5631-11.501-10.212-27.916-20.426-36.766-3.9124-11.045-8.1582-38.153-18.383-32.681-11.302 7.7619-28.209 9.9184-35.745 21.447-20.927-6.5415-23.956 28.267-33.46 11.234-33.476-.55351 10.632 13.894-8.412 24.511-9.0443 9.0896-15.602 23.745-31.66 26.553-8.3524 9.9381-25.124 14.119-35.745 21.447-6.6617 11.635-18.88 16.453-21.665 32.681 6.0838 11.038-1.5349 37.955 21.665 32.681 7.5331-11.531 25.535-12.592 35.745-21.447 10.854-7.6999 32.345-8.0521 37.787-21.447 17.449-.17117 27.989-10.339 33.46-22.468 24.935-16.341 23.524 20.216 14.462 17.49-1.356 20.645 12.989 25.55 14.886 41.744 9.0491 8.8862 9.0246 29.262 20.936 34.723 2.9911 16.186 11.308 28.373 18.383 39.588 3.1012 13.002 11.651 33.366 23.489 19.646-5.3852 27.294-5.1627 19.041 6.1277 16.099 4.7472 13.093 12.289 23.674 18.383 36.878 16.35 22.587 25.742-13.489 33.702.12941 23.469 17.49-10.583 12.505-10.213 29.617-14.515-4.1274-22.615-14.671-33.46-22.468-8.589-1.7052-31.523-29.425-32.412-.51064 12.293 7.708 24.531 14.202 33.702 22.979 22.32 16.156-11.69 11.094-9.7021 30.774-7.3298-4.7008-36.869-21.486-32.681-6.2633 1.66 10.618 36.158 20.188 18.871 23.664-15.999 3.1109-15.872 21.163-27.094 28.177-2.1517 16.963-9.9098 27.534-18.33 37.01-8.2126 12.763-11.898 31.496-17.362 46.737-3.8851 17.481-5.7727 36.96-12.255 51.843 3.5488 25.435-4.5641 39.208-6.1276 59.53-4.2316 27.053 6.1173 39.23 6.5046 62.256 6.8705 13.606 5.8206 33.343 14.432 44.145 6.9462 11.607 11.83 25.277 20.936 34.723 7.2166 12.018 18.232 20.236 24.511 33.192 8.2146 10.679 26.435 11.352 29.617 27.064 18.247.736 29.004 8.9629 40.609 16.34 16.799 2.5243 32.22 6.4269 45.716 12.255 11.857-2.2436 33.183 4.2701 40.501-2.8085zm-18.57-36c-4.6624-12.078-16.658-28.921-5.2672-39.321 5.87-11.964 25.247-11.899 38.728-16.852 8.6778-17.411 13.161 18.205 13.541 31.431 1.0271 16.842-17.022 18.988-33.491 21.752 4.7981 8.6695-14.562 8.2643-13.51 2.9895zm-96-31.66c-7.7456-10.842-7.8836-33.989 5.9402-39.064 11.837-.8489 25.272-25.409 36.953-8.9362 11.837 8.7655-3.1716 32.448-3.0638 45.958-.30289 8.65-39.512 14.401-39.83 2.0425zm113.36-34.213c25.531 4.3452-3.6455-37.331 12.255-20.936 17.048 7.6318 8.9743 20.759-9.971 23.489h-2.2844zm-76.596-29.106c13.094-16.42 28.566 5.7457 1e-5 3.0638zm6.1277-17.362c14.973-15.577 12.522 14.247 0 0zm130.72-78.128c-.35565-42.814 10.452-1.0772 6.1277 19.217-10.521 9.2639-4.6227-13.455-6.1277-19.217zm6.1277-50.553c-2.3925-43.556 17.666 14.838 0 17.362v-17.362zm6.1277-40.783c5.3178-41.203 8.0998 39.206 0 .79323zm-114.38-33.191c-6.3357-6.6041-31.216-24.509-11.745-33.77-.53337-17.52-20.56-17.608-30.128-27.064 21.506.42614 20.39-19.654 6.1277-26.553-29.448-6.1641 11.966-6.5404 14.298 6.1277 2.2481 10.595 39.892 21.999 44.936 4.5687-1.1217-13.333-3.5114-43.856-15.077-28.058-23.974-7.2231 24.149-5.4095 15.077-24.779 5.1424-4.8658 30.356 28.663 24.511 21.716 18.673.39092 28.373 9.7551 36.766 20.426 1.6877 21.298-5.6848 31.499-13.089 45.191-5.5238 14.131-16.397 21.585-23.677 33.447-18.779.86692-24.743 15.622-47.785 11.234h-.21475zm36.575-30.451c-10.565-9.7356-19.583-20.081-36.575-21.191 4.6446-24.902-43.687-9.0591-14.809 1.0213 9.4269 9.2234 28.929 7.573 33.321 23.489 4.1854-2.242 20.315 4.466 18.063-3.3192zm23.68-18.128c2.3806-13.606-25.755-31.416-30.638-12.739 1.651 12.144 22.374 25.286 30.638 18.087v-3.8433zm-6.1277-35.745c-4.4927-14.571-13.229-24.898-30.638-26.553 2.7038 16.62 14.491 24.156 22.226 35.745 9.717 1.289 8.8606-.13377 8.412-9.1915zm-113.36 12.309c15.956-15.758 13.588 13.313 0 0zm-7.1489-6.181c-15.079-8.5224-22.944-21.512 0-9.1915 12.328-5.5919 5.0072 23.378 0 9.1915zm36.578-18.128c-11.715-8.6584-16.566-20.776-29.43-26.809 8.4807-17.417 37.841 18.6 29.617 15.319 5.1324 4.5966 21.998 21.097-.18748 11.489zm-36.578-5.8723c14.873-12.288 17.502 11.38 0 0zm30.638-35.234c15.326-15.244 14.591 14.04 0 0zm-23.489-65.362c-22.212-13.133-3.4186-12.305 5.617-27.064 14.489.35799-3.3566 37.497-5.617 27.064zm-36.953-42.638c-20.798-1.6128-4.2061-21.246 5.8692-26.809 16.558 5.819 23.799 20.952 5.5523 15.319-9.7153-2.8858-2.2175 23.841-11.422 11.489zm-96.019-144.51c-4.1825-9.9426-22.542-38.174-2.8572-23.234 7.7158 21.934 8.3023-10.593 20.426 11.234 3.8473 28.478-15.09-7.9337-17.568 12zm29.824-15.064c15.721-14.979 16.669 13.89 0 0zm29.617-17.872c16.574-17.857 15.889 16.542 0 0zm-65.362-9.1915c4.368-20.506 10.073 18.356 0 1.7737zm41.285-.8531c-6.5142-28.758 30.847 10.826 0 0zm6.7151-31.763c-22.174-14.597 22.247-6.1475 0 2.4885zm653.62 796.53c-11.637-7.5972-13.435-25.033-30.638-27.064-1.8423-16.955-20.305-17.278-26.553-28.596-14.689-9.0595-16.594-24.15 4.6228-12.255 19.277-.6069 21.041 14.79 38.54 16.34 3.0416 9.0769 25.115 25.18 32.412 13.277-14.575-4.829-24.012-14.796-33.702-24.511-8.4794-7.8373-23.041-18.445-2.5532-23.489 12.196-7.0381 21.947-16.521 27.064-30.638 2.5598-14.268-24.549 6.9541-38.379 1.0213-11.515.086-67.374 1.7024-39.48-5.1064 9.1416-11.394 37.627-3.2353 50.54-12.032 24.525 4.0896 17.511-25.348.76596-15.031-11.584 8.1695-32.202 7.3054-44.453 14.809-14.056-1.2233-27.022 20.954-40.313 8.4915-9.1815-31.838 20.606-26.675 6.1277-8.4915 20.783 2.7323 15.292-20.87 29.804-26.298 14.977-19.278-.2482-24.905-12.443-8.2961-13.34 8.4408 19.839-23.669 12.255-21.576 23.13-12.481-5.7566-12.728 6.6383-27.064 20.096-6.6911-1.7832-18.359 17.872-27.064 14.238-22.139-2.7198-4.7853-18.383-3.0638 3.4582-6.9358 29.541-29.814 12.255-26.553-5.197 9.235-31.407 25.102-18.383 2.5532 6.5825-13.942 24.887-16.161 18.383-43.19 16.433-26.245-18.824 9.7034-18.383-4.2999-13.668-16.174 5.3892-23.137 16.099-29.617 24.944-5.0493-22.312-19.663 7.3907-24.511 15.158-14.616-2.5342-26.109-9.971-35.745-22.19-5.2901 16.279-13.175 9.971-29.617 7.5624-1.9958-.4382-26.818 11.234-39.319-24.461-1.2923 8.1888-22.414-5.617-26.043-19.587-8.6355 12.393-30.267 1.7737-35.745-31.123 5.5863-13.959-14.916-1.1274-18.383-23.48-11.504 3.4526-11.495-.13567-34.75-11.581 18.654-22.515-23.141 0-19.479 2.872-13.596 12.37-36.061-6.1277-39.486 16.429-14.889-1.0317-19.35 6.1277-25.774 9.8161-13.015-15.916-14.364 5.1064-26.553 10.723-7.3269 23.301-34.961-8.8987-26.553-21.449-7.3346-21.979-1.3264-41.204 7.1489-8.5524 10.063-21.332 16.487-27.515 28.596-19.902-16.5-8.0166 29.094-11.234 44.857v116.51c11.688-8.966.38053-41.175 11.234-51.642 12.035-21.145 22.692-.60966 6.1277 10.308 7.2721 18.573-2.8211 19.498 6.1277 39.588-2.5455 15.771-11.833 32.084 0 45.178 2.7008 28.784 16.251.14296 24.511 7.3907-9.2355 16.406 3.5142 17.658-7.1489 38.029-15.208 10.449 4.489 33.257.7675 49.342-2.3154 26.109-.63416 24.593-5.5129 42.598-2.8436 19.939-3.1132 40.11-11.211 55.39-.42638 19.349-11.912 26.305-12.639 44.669-19.164 1.7438-8.574 33.243-11.234 51.491-5.5063 21.756 10.711 37.178 0 49.616 16.664 17.095-31.939-3.3283-24.511 2.0426-10.181-12.993-45.723 7.8625-24 15.83 6.4952 13.758 19.03 18.897 27.064 30.128 8.909 9.474 21.693 15.073 32.681 22.468 3.3634 15.132 23.783 12.841 29.617 26.999 6.443 13.904 26.202 12.267 30.638 26.107 14.892 4.2166 14.864 21.742 32.553 24.128 2.5151 2.8284 10.964 11.047 15.446 2.9362zm-83.935-76.34c-10.322-9.9079-17.423-20.331-29.937-26.808-3.8478-16.635-25.777-12.715-30.128-27.843 5.6014-22.381 11.96 17.579 29.617 9.971 7.3767 11.947 18.03 20.617 28.354 29.617 8.6526-5.2789 41.643-12.735 50.42 0-10.151 6.3136-36.626-2.2188-35.88 16.232 2.6323 3.1121-16.155 4.2998-12.446-1.1679zm-24.32-100.78c-1.1928-24.256 28.431-10.451 12.255 2.4854 4.2653 10.993-19.052 9.412-12.255-2.4854zm0-54.195c-4.0183-21.484 26.282-21.497 12.255-9.1915 4.6442 10.224-15.657 29.513-12.255 9.1915zm35.745-259.91c3.527-20.051 8.4321 17.854 0 1.7737zm11.915-90.043c-2.0637-18.073 30.15 5.9708 0 0zm-24.17-71.319c1.7719-11.619 20.533-39.007 17.362-7.1219-3.9746 3.1787-11.357 24.015-17.362 7.1219zm23.489-50.553c3.3759-10.117 33.668-23.087 18.383-3.0638-6.0368-2.2353-12.476 15.873-18.383 3.0638zm-298.21 686.3c13.875-5.1884 24.46-13.668 36.766-20.426 12.15-12.294 2.6041-30.71-6.1277-39.588.11053-18.914-10.448-27.16-12.255-44.157-22.226 4.8204.80005 19.63 0 35.019-5.0407 14.923-2.8575 37.07-17.294 42.598-19.702-.5275-12.13 35.95-1.0891 26.553zm226.72-23.489c-6.4025-16.902-26.576-16.134-11.234 1.7022 1.4922 1.5801 13.882 3.858 11.234-1.7022zm-135.83-9.1915c4.5411-14.574 9.4677-27.327 16.986-40.096-.52287-20.677 16.887-25.272 11.569-49.511-.57414-33.788-1.2062-67.576-.98054-101.37-11.659 6.724-19.96 16.806-25.532 29.617.10262 13.748-19.092 37.692-2.0426 48 9.222 13.694 3.6085 42.224 5.1064 63.642 1.5585 22.136-9.4914 31.664-11.234 50.499-3.5275 7.9846 10.4 7.9558 6.127-.7795zm141.96-27.064c-3.7441-18.438-37.827-6.1955-11.234 2.5532-3.951 10.252 17.809 8.6414 11.234-2.5532zm-125.83-178.98c-1.2918-24.944-20.135-20.808-4.8908-1.7602-4.2423 11.92 8.1758 16.746 4.8908 1.7602zm-17.146-44.681c-4.368-20.506-10.073 18.356 0 1.7737zm-6.1277-17.872c-12.501-21.73-12.738 15.874 0 2.2844zm-371.74-58.723c9.7378-12.761 5.1578-43.165 2.5532-36.255 1.8171-13.926-10.933-59.744-15.83-20.371 2.8272 19.202-5.53 49.588 3.8433 62.244 5.0431-1.1401 12.308 3.6181 9.4333-5.617zm286.98-60.255c12.512-10.825 5.3238-41.351 7.1489-62.863.80637-21.487-5.0267-36.335-12.055-49.988-6.13-11.265-18.085-45.325-18.771-32.936-16.414 13.761 2.6329 33.854.18748 52.367-10.04 7.7344 5.8357 26.678 0 48.994-1.5097 21.885-1.5324 41.77 12.255 50.043 4.8029-1.4872 14.704 4.1751 11.234-5.6169zm-300.26-26.553c10.544 1.1865 37.77 2.4959 18.894-15.83-11.228-12.639-22.316-7.5636-36.068-8.4255-8.3487-11.297-26.257-11.718-35.932-21.191-22.176-13.512-15.509 3.3333 0 9.7021 8.2491 10.304 23.877 13.229 35.745 19.915 28.922 5.8161-1.7145 15.988 15.588 18.383h1.7737zm7.1489-44.936c-5.1296-13.258-13.781-22.331-24.32-32.936-18.277-18.574 9.9649-13.281 12.194 3.8298 19.709-.76856 20.538 17.343 33.331 23.489 15.837-4.6643 26.14-15.393 8.2763-23.489 12.355-4.7392-10.33-23.318-21.58-24.511-9.818-9.423-27.087-18.173-26.284 6.1277-22.346-5.3961-1.0495-12.686 0-27.333-33.474-8.8039 17.143-2.0729 18.383-14.434-10.193-13.207-44.93-1.7206-64.663-5.3297-32.959-5.7821-24.209 9.5336-13.976 23.607 13.46 6.2043 19.552 19.776 30.638 28.354 5.864 11.327 7.9256 28.137 17.362 37.143-3.0829 9.5759 31.079 21.764 30.638 5.4814zm336-2.5532c2.4845-18.622 17.854-24.358 12.255-51.064-13.892-5.0915-6.3861-31.58-18.383-38.567 2.4774-23.664-4.1441-38.23-24.511-39.05-5.4558 14.128-19.923 19.244-17.362 41.389 9.3776 8.0145 7.2181 29.48 17.362 36.228-.85171 19.745 8.7789 29.008 12.255 44.426-4.7363 8.487 21.807 29.107 18.383 6.6383zm-96.187-23.745c6.3601-13.298 9.2618-28.71 11.422-45.702 9.0199-10.134 12.81-25.496 18.383-39.077 22.763 4.305 16.84-19.415 29.872-26.08 15.379-4.2479 24.335-13.671 33.447-23.694 6.4592-12.694 11.156-27.151 15.319-42.141-10.902-7.7316-3.165-34.103-18.383-37.518-8.74-10.324-18.343-19.784-35.745-21.447-16.996-5.4168-26.42-3.9848-40.609 6.1277-17.636.82718-22.717 14.21-31.901 23.489-5.8855 15.759-7.5878 35.7-6.1277 58.805 6.3484 11.743 24.637 19.986 11.234 32.627 2.653 23.079-3.025 37.826-5.1064 56.17-11.897 6.6475-5.5266 31.562-18.383 37.25-9.9214 30.192 32.23 15.775 36.578 21.191zm11.422-140.1c-11.69-10.657-12.987-29.529-11.234-51.965 9.2046 2.558 3.168 35.237 11.332 46.28 16.663 4.7271 35.882 7.6837 51.746 0 6.1158 15.633-29.772 10.653-46.549 11.234-5.8708 1.3359-5.8524-.61876-5.2941-5.5492zm60.255-17.94c11.598-11.914 2.7596-29.581-5.1064-39.319 2.5336-15.123-57.935-3.9376-35.207-13.787 22.726-2.2197 40.527.48497 46.441 15.077 6.6566 11.223 12.287 41.578-6.1277 44.157v-3.8433zm-66.383-42.383c12.946-20.241 12.152 14.922 0 1.7737zm-414.64 188.94c8.1794-3.3376 32.47-30.471 1.9885-27.064-19.058-8.632-43.993 16.267-40.542 4e-5 5.3737-23.576.75701-57.143 2.2979-84.553v-337.23c-8.0779-1.7389-27.856-33.742-30.128-5.8324-.0915 148.67-.20351 297.34 1.358 446 13.184 7.058 24.815 15.668 49.491 11.234 3.1135-2.2377 17.28 4.1277 15.534-2.5532zm366.64-12.766c13.196-8.5474-2.5514-27.455-6.1237-38.298-21.157 2.6648-17.647-22.082-23.493-33.971-10.794-8.0098-16.258-21.35-24.511-31.901-2.1337-16.76-23.538-14.249-29.617-27.064-9.1435-9.3555-18.335-19.559-36.511-20.183-19.578 1.0704-25.7-12.111-45.729-10.966-.29065 11.437 6.7104 28.74 23.006 28.596 15.194 20.93-2.0356-15.661 17.751-3.6939 13.133 5.5417 22.756 13.796 34.334 21.056-1.3827 11.581 40.286 18.841 15.05 24.511-8.5764-9.1041-23.41-13.886-31.901-24-23.454-2.8902-39.04 1.3606-56.298 6.6383-32.875-4.0914 40.601 38.723 14.936 22.468 5.2174 13.427 17.594 21.184 34.039 24.511 4.3512 14.06 30.96 5.1351 38.608 17.362 17.664 1.371 30.864 6.6769 44.553 12.354 14.355 4.1874 24.645 22.162 13.524 30.029-5.5884 8.4737 20.394 7.6253 18.383 2.5531zm-66.383-65.362c-8.7712-4.2896-37.492-16.68-6.2633-15.319 9.7201 4.2509 28.461 24.001 6.2633 15.319zm-40.017-18.128c-18.813-11.587 15.393-9.8464 16.766 2.8085-3.8242-2.3026-17.48 4.2594-16.766-2.8085zm315.76 62.553c6.1013-12.963 10.742-27.386 15.83-41.362 5.1193-13.694 10.921-26.705 13.787-42.652 4.7236-9.9949 21.39-29.38 2.2844-34.965-18.024-.0855-14.196 22.826-20.157 35.234-10.595 8.0884-8.4343 29.242-14.33 42.383-4.0224 16.563-17.579 23.591-14.776 46.979 5.1169-2.3391 21.387 5.4808 17.362-5.617zm-402.64-29.75c.33866-9.1029-12.325-22.102-16.596-34.59-20.775 2.0386-50.244-4.6886-65.872 2.539-14.904 2.6326-17.618 17.455-25.532 27.078 10.314 13.016 44.678 1.9755 64.381 5.6 14.496-.44668 29.265.85841 43.619-.62667zm462.67-107.36c.0241-17.192-28.468-20.255-30.415-7.646-14.624 17.768 8.6588 22.125 30.703 19.646-.0959-4-.19182-8-.28773-12zm42.095-15.013c10.909-8.3959 29.834-7.9489 35.745-19.966 16.445-1.3871 25.139-13.343 29.617-27.574 9.2235-13.782 7.4356-38.576 7.1489-61.868-14.979-10.36-3.5783-16.788-22.226-23.919-13.12-9.1463-24.738-1.2572-25.774 17.362-18.251 21.876-26.065-18.098-12.255-26.553 15.906-3.1578 30.763-7.3648 41.872-15.319 7.8063-14.061 22.393-19.033 44.17-17.123 22.001-1.3489 36.26 4.9193 51.064 11.813 12.941 6.1702 27.859 9.1334 32.936 22.672 5.8516 19.44 17.023 18.961 20.936-1.559 1.7229-21.725-.69006-38.446-11.422-48.228-9.2569-10.962-20.741-16.96-30.586-26.809-16.193-5.3876-35.339-7.8224-58.615-6.1277-21.927-1.1154-38.616 1.3428-50.016 11.745-16.66 2.9791-31.576 4.3548-43.66 12.578-2.1711 20.454-7.2836 36.668-8.9362 57.137-3.0104 15.685-8.3578 30.002 8.6809 38.029 14.947 3.9467 28.954 8.8332 39.319 17.362 3.0626 11.836 21.236 28.54 8.412 41.872-14.286-18.635-12.189 2.0357-20.667-6.1277-8.6588-16.521-39.087-1.8392-29.617 20.01 1.9128 11.381-29.902 30.713-18.383 16.756 7.325-8.1946 10.813-42.533 0-51.642-3.7558-8.2238-27.275-23.277-36.766-8.613-16.581 2.9224-26.698 12.308-29.617 28.892-.96344 18.78 11.723 23.726 18.383 36.47 23.562-2.7965 40.754.7784 51.064 11.234 2.2351-1.4247 11.049 2.8541 9.1915-2.5022zm-48.31-14.488c-17.89-16.418 15.832-10.551 17.671-23.86 16.687-18.199 26.959 11.474 7.0635 15.073 4.4262 15.36-16.797 7.5544-24.735 8.7875zm65.671-140.29c9.7477-4.5063 9.0845-47.155 12.766-8.6808 17.392-.66104-11.779 21.056-12.766 8.6808zm168.51-2.9447c7.015-19.169 15.949 18.556 0 1.144zm-24.295-26.417c5.5835-31.394 8.2688 29.722-.0414 1.2537zm-60.471-18.128c5-30.28 9.1496 29.252 0 .99423zm-448.34 184.34c-4.4804-17.901-11.413 17.291-16.099-14.298-15.762-1.036-31.856-12.971-44.157 1.0213-22.101 8.7687-17.98 11.222 6.1276 13.933 6.9159 13.972 34.942 6.8328 54.128 8.5348v-9.1915zm24.511 6.6383c13.86-5.0333 22.247-15.54 29.617-27.064 12.694-6.3697 10.096-28.032 18.383-38.809 2.9245-17.841 16.205-25.327 11.234-51.064 23.737 3.9331-.86744-40.261 0-11.959.40339 18.688-21.077 15.492-18.383 36.47-10.495 8.228-11.98 25.466-20.426 35.745-5.3483 12.352-13.46 23.904-20.426 35.745-24.74-12.079-26.838 34.339-1.5049 23.489h1.5049zm244.09-5.617c-14.956-6.1054 4.504-45.845-17.872-45.447-10.683 9.8986-23.498-4.7424-35.234-8.6808-8.4532-10.27-19.763-17.684-23.489-32.681-22.181 2.5168-11.974-27.354-34.482-24.511 6.2185-21.045-46.432-9.2538-19.646 0 7.8425 10.881 13.683 23.764 20.426 35.745 13.107 4.8521 11.74 27.448 27.574 29.617 4.5009 14.12 17.786 20.995 34.039 24.511 11.139 7.4726 21.45 15.773 37.451 18.383-5.1469 8.4299 12.843 8.5023 11.234 3.0638zm-24.511-27.064c4.368-20.506 10.073 18.356 0 1.7737zm-333.96 21.447c6.8462-11.216 26.001-12.924 35.745-20.936 11.846-6.6784 23.943-16.568 40.099-19.404 11.343-5.6234 28.771-15.418 14.029-29.617-13.575-5.1482-21.15-16.297-33.702-22.468-9.9284 5.7633-30.745 19.006-32.681 0-2.326 18.937-21.391 19.243-30.638 15.319-3.2269 16.016-30.375 8.1107-35.745 21.984 1.1934 16.885 17.35 20.531 18.383 38.604 5.6598 5.6524 17.969 24.592 24.511 16.518zm197.9-42.638c4.2151-37.661 2.673 17.414 15.292 15.387 11.222-12.272 11.712-50.204 2.8085-48.323-7.357-10.946.49907-38.391-15.466-41.362-19.274 3.2694-3.2752 41.812-8.5332 59.098-18.588 4.2388 2.6776 53.787 5.8329 18.735zm412.82 4.8705c9.9342-3.1771 26.101-35.465 12.255-19.805-8.7026-20.022-11.759-12.464-28.354-18.512-23.246-4.9003-10.767 24.669-30.859 24-3.4709-19.716-2.8226-40.591 20.815-35.234 19.299 14.48 23.037-6.0112 20.016-29.617-13.78-13.367-19.722-11.515-30.638 3.8433 1.04 20.218-29.824 11.637-24.16 34.252-2.2518 23.663 2.6062 38.358 17.791 43.607 12.7-2.0523 34.922 3.8069 43.135-2.5337zm-24.306-61.551c7.4993-17.558 15.713 18.049-.1061 2.0342zm-753.91 57.447c20.444-.93221 4.6123-28.746-17.12-20.936-15.041 5.5764-38.639 8.6809-29.886-11.234 4.5769-15.602 3.2748-38.986 20.323-41.872 4.0247-17.437 29.222-10.025 37.917-20.936 13.125-5.3059 24.989-11.886 41.884-14.72 12.975 7.4433 34.131 7.861 51.841 12.205 5.763 21.193.54569 42.096-26.348 34.685-12.598 7.1463-25.922 13.568-24.484 34.75 1.6981 21.594 30.698 8.2156 11.234-4.1122.71538-20.129 12.714-26.611 36.793-24.511 25.878 4.4397 17.694-25.181 28.569-35.745 2.2831-22.968-3.4105-37.96-15.077-46.979-17.934-1.2107-14.153-24.136-39.05-18.383-13.577-15.539-33.592 4.815-53.402 0-10.597 10.25-33.803 7.8898-44.157 18.383-25.507-5.4216-23.911 16.259-22.952 37.304-1.819 17.926-6.5802 32.909-12.255 46.979 2.7675 15.944-13.886 32.575 0 43.377 14.248 4.6746 23.54 16.678 44.184 14.298 2.7062-1.9296 13.818 3.7224 11.986-2.5532zm-31.66-89.362c15.721-14.979 16.669 13.89 0 0zm0-11.183c3.2352-27.806 26.127-.0419 0 3.1148zm42.894-12.306c21.993-14.087 25.262 13.555 0 0zm83.745-3.0638c-16.894-10.158-11.25-24.086 3.0638-6.1277 14.101 3.3002 2.5394 24.783-3.0638 6.1277zm-71.489 83.234c-9.9303-11.743 3.197-47.576-18.168-48-20.366-1.8372-15.44 22.752-18.598 37.814 7.9444 12.098 30.539-14.419 30.638 13.25-3.3576 15.928 10.871 8.5949 6.1277-3.0638zm-18.383 2.5045c-14.652-13.705-19.567 13.624 0 0zm82.723.55937c-13.691-25.622-15.708 13.76 0 0zm7.1489-8.7456c-4.4892-21.803-12 19.269 0 2.3491zm192-13.212c13.1-4.7598 22.519-16.839 33.971-23.489 16.537-19.591 5.089-15.618-17.59-12.255-8.7487 7.8822-41.626 9.7995-49.842 1.0213-21.232-1.6575-50.504 4.7258-62.54-6.1277 3.38-18.369 29.576-9.6858 8.412-29.617-16.162-20.502-20.732 23.608-26.795 4.5687-3.3892-22.534 15.137-23.151 24.511-32.923 7.1534-10.311 20.575-16.796 30.383-25.567 11.204-8.6255 35.823-7.5094 38.553 6.9424 9.066 9.323 29.641 8.5075 33.191 22.468 6.5559 1.1626 31.803 26.362 29.613 2.3856-11.205-8.9935-9.4792-27.578-18.379-37.687-6.8793-12.592-19.212-19.731-28.354-30.06-9.0718-3.8484-40.62-11.666-48.242-.0975-20.541.30001-20.464 19.35-36.766 22.324-4.1005 14.704-8.9922 28.616-18.383 38.029-12.326 5.0319-14.388 33.413-8.7487 48 5.902 14.612 20.775 15.494 27.261 29.617 4.6402 14.3 27.475 10.406 39.459 17.362 10.695 8.4581 29.339 8.9678 46.226 11.234 6.2728 2.8776 3.5439-3.2466 4.0581-6.1277zm-23.489-13.719c7.8913-18.864 31.455 7.1089 0 2.4854zm-66.383-104.75c3.2132-27.549 10.437 28.125 0 0zm71.904-12.649c-3.5226-29.023 16.293 6.444 0 0zm-295.56 126.01c-3.2132-27.549-10.437 28.125 0 0zm534.13-3.5745c1.7786-19.028 14.435 16.05 24.511-8.6808 17.561-.92863 27.001-11.159 35.745-22.226 3.6431-15.887 14.211-26.368 13.106-47.744-1.657-17.697-14.472-24.89-18.213-40.838-8.9928-10.254-22.267-16.226-30.638-27.101-21.315.0453-44.297-1.4861-57.525 7.1866-10.235 7.653-22.872 12.905-31.326 22.339-11.784 8.5894-21.767 18.477-33.702 24.64-16.588 21.545 19.671 22.074 20.936 5.617-31.197-10.443 13.342-.78372 12.766 3.5745 16.303 1.2592 24.294-22.786 35.166-9.1915 12.638-6.761 29.785-8.2526 40.302-17.362 17.652-.47236 21.694-25.124 25.638 6.1277 14.241-3.7645 35.364 21.224 14.298 23.489-9.8035-8.4024-23.099-18.387-26.553 6.1277 8.8344 2.6226 8.0954 55.509 18.379 25.524 23.779-8.1328 4.6738 22.591-8.1889 21.199-12.729 3.8387-39.695 13.213-48.757.25593-22.113 1.2891-41.242-.0535-57.445-6.0389-8.3202-9.2647-51.827-7.1041-26.542 6.0389 9.4651 10.459 28.449 11.398 41.389 18.383 14.254 2.9945 29.391 7.642 40.313 14.298-.0974 4.5322 23.679 7.3021 16.34-5.617zm-23.12-10.213c1.0265-16.057 32.728 8.1316 0 0zm59.886-46.536c6.1231-25.635 8.465 27.3 0 0zm-443.42 39.642c-11.758-1.7015-22.165-27.786-30.448-15.064-8.4234 1.0981 15.922 19.004 29.198 18.383h1.5696zm275.94-13.021c13.475-6.7002 28.992-11.357 24.511-36.014.78705-22.754-15.567-28.366-39.615-26.284-7.7852 11.189-25.967 11.982-25.747 31.176.50453 16.675 10.123 27.396 23.489 31.122-3.9856 4.1035 21.151 5.5572 17.362 0zm-12.255-11.234c-12.267-1.3711-18.503-38.716-.57847-21.447 12.074 10.938 33.843-6.1255 18.961 15.319-4.9848-.7062-17.823 12.808-18.383 6.1277zm-403.4-130.72c19.157-2.9802 37.687-6.5865 57.219-9.1915 9.5585-8.7908 29.382-8.9677 38.54-17.362 30.598-3.7176-7.6071-6.188-16.878 0-12.919 6.4849-29.669 9.1391-45.957 12.255-14.602 6.9381-37.979 5.1084-59.516 5.1143-20.415-.03496-42.211 2.3207-53.335-4.1125-20.925 3.2554 17.653 15.908 32.95 9.9366.02008 11.742 41.313 6.8436 46.979 3.3595zm133.79-35.234c16.033-3.2006 27.827-10.642 48-9.7021 13.444-6.7308 29.317-11.032 49.29-11.234 9.9513-1.635 51.969-6.4796 32.896-12.255-27.06-4.6724-35.92 8.8551-61.035 6.1277-11.852 7.2719-29.702 9.8214-47.474 12.217-11.533 8.6882-37.671 2.2998-45.167 14.847-3.5671 4.6652 26.933 6.6862 23.489 0zm203.23-36.255c-6.6177-16.152-25.721 3.2334-48.633-3.0638-14.963 10.703 35.988 4.51 48.472 6.1277h.16066z"/>
 </g>
</svg>
