<?xml version="1.0" encoding="UTF-8"?>
<!-- Created with Inkscape (http://www.inkscape.org/) -->
<svg version="1.1" viewBox="0 0 1153 1515.6" xmlns="http://www.w3.org/2000/svg">
 <path d="m553.68 1511.5c-20.047-8.4492-49.094-.519-69.596-5.1776-15.013-8.3829-37.449-1.1173-52.64-9.1185-22.096.3363-37.637-9.817-59.116-10.213-12.088-8.6641-30.11-6.852-41.774-17.362-20.974 3.5489-34.805-10.98-50.445-17.369-15.513-2.7454-26.564-8.467-38.8-17.362-12.376-5.6353-24.001-7.9067-34.13-17.138-22.498-5.9548-19.431-19.797-30.116-16.564-8.6212-11.725-25.81-10.317-32.341-22.468-12.905-10.466-22.39-18.653-37.087-24.511-12.298-13.205-26.834-22.071-35.751-33.36-13.31-7.5905-26.897-24.703-37.585-36.222-6.6429-2.8872-10.626-12.781-20.003-18.04-8.6532-18.154-7.4043-52.368-8.2327-43.738 2.5685-26.348 1.5396-58.748-.72169-84.894-.83984-7.4046 4.4801-32.901 1.9337-51.759-.76843-274.74-.77254-549.49-2.2081-824.23 11.122-6.7277 11.381-18.059 20.973-25.864 11.972-8.7277 21.86-13.825 28.494-28.782 14.618 1.5093 23.029-23.204 34.085-26.384 9.8068-8.673 22.679-16.069 31.194-25.947 13.869-9.4311 27.788-17.005 41.243-27.316 12.177-5.1712 17.251-17.544 33.89-17.374 7.6936-14.254 22.433-11.323 33.57-23.307 13.078-3.8781 23.743-7.5336 35.175-17.544 15.399-4.6647 28.321-10.534 43.16-17.362 16.756-4.1419 31.126-10.149 47.019-14.761 16.583-3.9984 30.492-10.651 45.134-12.593 16.25-4.7242 34.709-7.3324 51.678-12.476 24.412 2.8691 40.86-9.0013 65.826-5.1064 20.378 3.7492 36.73-4.1995 54.51-5.4775 9.2352 5.0659 24.583-2.4458 37.837 5.4775 20.409 3.1985 38.141-6.7706 56.405.51064 14.985 9.514 41.783-6.6081 54.536 8.6809 18.832-1.2277 31.36 7.8076 49.359 8.3265 8.1613 7.8098 24.188 5.5924 33.567 12.245 17.782 1.5869 29.254 10.943 45.779 13.131 10.226 9.7989 27.525 8.112 36.894 18.383 16.252 2.3662 25.726 18.344 42.277 17.362 11.554 8.8016 20.631 12.551 32.276 22.468 9.5978 6.5106 21.539 10.367 29.084 15.902 11.819 7.4338 27.374 20.187 38.391 27.643 14.993 7.1094 17.76 16.878 30.618 23.348 6.5518 13.013 28.659 15.943 28.596 28.888 15.821 4.0638 23.581 17.441 34.723 28.695 12.818 5.788 10.186 20.331 23.489 28.514 12.775 20.214-4.0075 35.917 0 58.442.8406 47.571-1.6717 95.763 1.2398 142.95 9.0589 8.7764-7.97 29.803-1.2398 46.665-1.3021 23.141 6.7295 30.339.5449 49.948.2356 104.82.4712 209.63.7069 314.45 9.781 13.034-6.5993 37.27-.2305 57.818v156.2c8.683 9.409-5.78 33.897 0 51.106 3.4635 21.379 2.8208 25.598.055 47.396 13.394 19.854-12.409 15.328-.1462 36.688 1.3339 20.619 1.9957 35.168-15.231 45.512-6.7307 6.5718-18.053 17.437-26.91 26.553-10.518 8.8008-21.991 25.532-31.936 31.466-2.3367 12.282-18.914 8.6245-21.834 17.549-9.1834 10.876-23.216 11.986-27.574 21.969-10.388 2.853-16.7 15.212-28.475 15.83-6.5261 3.8584-10.701 18.009-24.238 18.144-10.577 4.626-15.819 14.865-28.762 16.435-10.53 7.8235-25.14 10.675-34.423 18.476-9.7106 5.8951-22.451 8.3512-33.268 15.365-16.884 6.7649-31.547 15.895-49.805 17.362-10.26 9.4188-28.262 8.3094-43.164 12.255-14.475 12.784-37.12 5.6406-52.13 17.138-18.441-.022-35.229 2.0577-49.394 10.421-29.649 2.1558-62.84-3.4923-90.351 3.374-6.5975 6.8343-27.358 5.1868-34.606.7249zm65.213-17.871c-1.1694-2.2139-1.2738 2.1135 0 0zm-95.417-4.0112c10.002-.2482 35.318 5.0427 52.807 2.4793 16.476.031 40.688 1.9057 50.78-4.8227 9.8818 1.714 35.516-5.504 53.685-2.3262 14.183-5.9452 32.985-7.6155 49.746-10.213 12.724-1.0894 31.562-3.5493 37.577-12.255 20.069 2.3029 32.592-8.0105 49.298-11.259 11.126-8.2202 27.199-7.731 37.822-17.337 14.676-5.732 29.963-8.1232 42.908-16.374 13.06-8.7 25.855-9.2222 37.9-23.439 14.8-1.3924 24.102-15.788 37.694-19.935 13.178-1.4707 17.695-16.998 28.497-19.915 10.627-4.5555 19.967-8.0507 27.458-17.711 9.4366-8.206 16.802-21.376 30.864-24.883 21.762-23.4 38.503-41.336 62.975-64.68 12.983-17.121-4.5765-28.223 5.1299-44.294-.3411-310.34-.6821-620.68-1.0231-931.02-13.32-3.2926-18.35-19.316-26.298-31.459-15.58-11.358-23.439-31.832-42.14-34.884.7703-14.706-16.658-11.902-21.029-22.468-10.551-6.1297-21.916-18.417-34.807-22.468-10.978-12.327-23.419-18.289-37.631-26.099-8.9912-11.669-22.791-8.7409-32.502-20.88-14.363-2.5271-20.312-17.105-35.484-17.358-10.658-7.3177-21.161-10.705-32.091-16.34-12.807-3.7552-27.251-8.6352-38.378-13.113-10.143-7.7115-27.406-6.2563-37.221-16.504-17.855-.54499-32.705-8.533-50.934-10.213-16.218-1.0384-26.677-11.664-45.893-7.1489-13.163-9.3922-38.489-3.5065-57.218-5.1064-13.263-8.7741-39.028-1.0858-58.122-3.3942-20.642 2.3922-46.616-4.9364-62.889 5.4368-24.952-3.6229-41.75 5.4291-64.579 5.1064-16.796 6.3393-36.264 7.3764-52.395 12.255-19.356-1.5015-30.515 10.389-48.369 11.234-9.4893 12.076-30.498 6.0672-39.508 14.806-11.742 8.406-26.827 5.754-34.216 18.896-20.413-5.8109-27.855 15.087-44.229 17.362-9.5771 6.9202-21.226 8.3283-29.553 16.236-11.74 5.259-18.577 13.137-29.164 18.488-12.591 4.9458-22.15 14.177-30.987 21.584-11.402.76829-18.847 19.27-33.107 21.945-10.908 14.633-26.76 20.602-38.382 30.988-8.7741 13.463-23.652 19.634-27.429 34.759-5.9208.60199-10.391 14.051-20.511 18.296-1.9258 122.84 2.5477 246.41.98681 369.54-.0088 200.77-.0176 401.55-.0264 602.32 9.9886 19.947 29.408 32.479 43.086 48.521 6.2905 5.0612 16.44 18.326 25.296 22.437 16.048 3.091 19.483 25 36.003 26.061 9.5232 16.195 26.66 15.65 36.487 26.025 12.5 3.8181 21.353 15.58 32.425 22.468 12.332 8.777 26.739 9.435 35.289 20.426 16.788 7.9557 44.002 24.128 37.021 19.388 14.993-.4413 22.62 11.881 36.094 12.288 14.206 3.141 24.011 11.658 38.644 14.96 16.868 4.9154 34.571 7.864 50.62 13.621 15.324 3.2699 27.643 6.3641 42.605 10.213 22.605-3.2122 35.227 8.7442 57.608 5.1064 11.655-6.3714 24.675 7.7338 28.809 4.6672zm-10.796-15.95c-15.222-2.8786-27.635-9.0628-46.128-6.0815-8.0591-10.59-34.394-1.92-47.764-9.0888-15.451-3.8811-31.672-4.0749-44.077-12.358-15.566-5.5847-32.641-7.1325-47.568-13.954-14.76-4.0701-25.773-9.6522-40.119-14.642-12.462-12.39-30.271-10.045-43.17-22.446-12.394-1.2455-20.068-10.597-28.851-16.362-14.721-.5722-24.352-18.678-36.026-23.089-16.154-.3106-16.559-14.24-29.941-17.762-9.2153-10.777-16.955-14.676-28.688-22.374-12.755-11.216-11.044-13.219-23.788-23.584-14.163 1.6958-19.782-20.542-30.178-23.485-11.515-10.816-23.042-24.708-30.638-35.698 1.4105-17.746-3.9931-41.116 5.1693-54.061-9.87-13.49-5.5088-38.92-2.0346-36.373-11.239-20.274 6.9596-39.558 2.0817-61.685.45328-267.98-.7737-536.14-.58269-804.01 7.6249-7.77 20.394-17.511 22.941-32.112 13.863-11.326 21.527-18.301 33.512-27.422 8.4741-11.127 39.138-27.874 32.36-25.619 13.763-9.1979 18.649-22.443 37.86-25.42 7.3662-11.56 19.751-17.69 31.587-21.656 9.2332-10.869 20.583-13.242 32.78-20.288 15.952-7.4661 29.944-16.58 47.39-21.155 8.4268-9.4637 28.778-11.138 40.041-18.73 10.586-10.234 29.16-6.1997 41.181-14.934 15.327-7.6359 34.441-6.9346 51.453-14.015 17.372-3.6229 31.808-7.5741 50.036-8.273 18.574-10.269 48.36-1.9961 69.545-6.075 15.575-13.583 44.206-3.1119 65.07-6.8226 18.311 1.3842 40.023-5.947 52.97 5.7487 23.261-4.8863 37.046 9.0174 59.301 6.1277 18.26.80067 32.623 11.144 51.35 11.234 15.034 2.0271 25.771 11.924 40.996 11.234 13.258 5.8965 26.981 9.6225 39.288 16.95 12.734 3.138 23.616 7.7615 35.899 11.646 9.3781 10.031 25.174 11.868 37.168 20.346 10.737 6.5181 23.844 8.6628 31.075 18.462 10.59 8.3018 19.571 14.04 31.69 21.029 11.936 9.743 25.828 15.048 35.431 24.928 11.941 12.294 25.104 13.565 34.485 26.816 12.082 11.561 23.889 23.95 35.745 35.348 1.0141 12.861 15.291 17.47 21.993 27.315 14.316 17.219 3.3352 45.17 7.1507 66.844.1818 270.09.2813 543.94.6734 815.48.1045 28.054-.054 56.108-.1999 84.162-10.738 6.9049-20.689 19.866-30.575 29.403-5.8847 11.162-17.731 15.545-25.596 26.33-11.607 8.1768-25.014 15.723-35.745 29.22-3.9881 8.6593-18.913 7.9317-22.906 17.799-10.273 11.924-28.04 9.7952-37.385 24.948-15.084 2.581-28.175 16.318-40.553 22.417-12.573 2.8231-20.511 17.22-34.84 17.414-10.697 7.5877-26.215 9.6804-38.654 17.362-12.884 4.2575-31.319 5.6776-40.268 17.362-22.707-3.448-34.985 12.405-57.013 10.213-15.491 10.181-33.098 11.132-52.41 12.255-18.393 4.2867-38.836 2.7447-56.225 11.042-42.043 1.7336-84.261 1.5183-126.3.1442zm102.13-1.4858c-1.1692-2.2139-1.274 2.1132 0 0zm-109.28-7.1489c-1.169-2.2142-1.2741 2.1133 0 0zm133.79-3.5015c10.886-13.062 39.2 5.9808 48.08-10.286 21.022 4.6717 32.866-6.813 51.638-6.1276 13.913-8.1398 33.449-5.9316 46.693-16.34 17.807-1.9823 32.407-9.8158 49.143-13.924 11.596-5.1826 20.44-4.9845 28.106-11.464 13.846-7.4556 26.987-13.267 41.44-20.571 8.648-8.8396 38.067-22.552 30.867-16.34 12.692-9.9032 26.251-18.038 39.013-24.511 11.697-5.7834 17.462-17.058 31.966-22.716 11.42-12.693 24.491-15.812 33.942-27.326 9.4295-7.9044 16.894-24.4 30.838-26.043 4.0522-12.167 28.253-17.723 21.128-32.572-13.554-3.2499-30.019-20.094-41.347-6.7476-11.542 14.98-24.44 28.951-40.602 40.851-8.5087 10.769-22.413 17.323-35.193 30.638-9.7171 6.8654-21.729 7.7273-26.561 16.34-11.887 2.6989-17.91 16.516-32.383 17.58-5.245 8.539-13.695 15.53-25.224 17.228-10.738 7.0769-20.662 6.6307-29.392 16.256-12.015 6.564-23.337 8.1792-35.335 17.044-17.463-3.4006-41.406 18.987-33.113 11.521-11.377 5.3642-27.576 4.2393-38.016 11.266-16.15 1.3475-30.447 3.9811-42.684 11.745-24.287-1.8898-42.853 5.552-64.401 6.6383-20.824-4.2916-37.746 8.9608-54.42 0-10.674 12.642-54.692 9.9985-47.408 3.4529-14.925 1.5083-31.215-6.6787-50.696-3.4529-12.555-12.937-36.916 2.4321-49.203-10.974-18.492 4.1787-29.908-9.4159-47.958-6.388-10.252-10.331-32.448-6.651-42.83-16.341-13.08-.8977-20.646-12.659-35.896-11.234-15.613-3.4715-25.013-16.097-39.361-20.13-10.357-8.6099-32.292-4.655-37.083-19.701-13.937-3.703-26.252-14.45-38.992-20.598-6.6253-9.8572-19.806-10.449-26.88-19.102-12.894-1.3238-16.986-16.457-27.501-22.16-9.1131-5.6686-18.377-15.992-28.158-21.884-8.9416-9.7921-19.406-21.171-29.024-29.143-9.7066-8.1718-42.585 2.681-36.495 14.845 21.608 22.7 47.681 46.139 67.026 66.306 14.612 3.1817 20.884 19.826 35.117 23.056 10.028 8.3489 19.26 16.441 31.105 18.894 5.9132 9.8846 15.202 12.283 23.233 17.362 10.605 9.1405 23.024 14.362 35.12 17.362 10.469 11.249 28.888 11.818 38.299 22.468 14.971 6.2891 30.983 9.8994 46.49 14.918 9.5353 7.9201 23.983 6.4685 33.381 14.699 14.52 5.23 32.364 1.0446 44.661 10.936 16.53-3.9962 23.809 10.599 37.502 4.3838 16.521 5.2861 34.195 7.8776 53.724 6.1277 19.64 6.9408 43.183 4.9205 65.791 5.0343 23.61-.5827 49.852 1.2921 71.856-.8757zm-128.68-1.6049c-1.1692-2.2139-1.2739 2.1132 0 0zm229.79-11.234c-1.1694-2.2139-1.2738 2.1135 0 0zm22.468-6.1276c-1.169-2.2142-1.2741 2.1133 0 0zm-388.09-3.0638c-1.169-2.2142-1.2741 2.1133 0 0zm397.28-3.0639c-1.1694-2.2139-1.2737 2.1135 0 0zm-415.66-1.0212c-1.169-2.2142-1.2741 2.1133 0 0zm-9.1915-3.0639c-1.1694-2.2139-1.2737 2.1135 0 0zm463.66-1.0213c-1.1694-2.2139-1.2738 2.1135 0 0zm-482.04-3.0638c-1.1694-2.2139-1.2737 2.1135 0 0zm-4.0851-3.0638c-1.169-2.2142-1.2741 2.1133 0 0zm2.0426-1.0213c-1.1692-2.2139-1.274 2.1132 0 0zm277.79 0c-1.1692-2.2139-1.274 2.1132 0 0zm-302.3-7.1489c-1.169-2.2142-1.2741 2.1133 0 0zm533.11 0c-1.169-2.2142-1.2741 2.1133 0 0zm-141.96-1.0213c-1.1692-2.2139-1.274 2.1132 0 0zm-403.4-1.0213c-1.1694-2.2139-1.2737 2.1135 0 0zm157.28-6.1276c-1.169-2.2142-1.2741 2.1133 0 0zm269.62 0c-1.169-2.2142-1.2741 2.1133 0 0zm-267.57-1.0213c-1.169-2.2142-1.2741 2.1133 0 0zm410.55-1.0213c-1.1692-2.2139-1.274 2.1132 0 0zm-103.15-4.0851c-1.1692-2.2139-1.2739 2.1132 0 0zm-498.38-1.0213c-1.1694-2.2139-1.2738 2.1135 0 0zm2.0426-8.1702c-1.1692-2.2139-1.2739 2.1132 0 0zm640.34-2.0425c-1.169-2.2142-1.2741 2.1133 0 0zm-651.57-4.0851c-1.169-2.2142-1.2741 2.1133 0 0zm-9.1915-1.0213c-1.169-2.2142-1.2741 2.1133 0 0zm110.3-3.0639c-1.1694-2.2139-1.2738 2.1135 0 0zm-35.745-9.1914c-1.169-2.2142-1.2741 2.1133 0 0zm-111.32-5.1064c-1.169-2.2142-1.2741 2.1133 0 0zm8.1702 0c-1.169-2.2142-1.2741 2.1133 0 0zm93.957-1.0213c-1.1692-2.2139-1.2739 2.1132 0 0zm-110.3-7.1489c-1.169-2.2142-1.2741 2.1133 0 0zm760.85 0c-1.169-2.2142-1.2741 2.1133 0 0zm-663.83-2.0426c-1.1692-2.2139-1.274 2.1132 0 0zm-108.26-6.1277c-1.1694-2.2139-1.2738 2.1135 0 0zm780.26 0c-1.1694-2.2139-1.2738 2.1135 0 0zm-774.13-1.0212c-1.169-2.2142-1.2741 2.1133 0 0zm691.4 0c-1.169-2.2142-1.2741 2.1133 0 0zm7.1489-2.0426c-1.1694-2.2139-1.2738 2.1135 0 0zm85.787-5.1064c-1.1694-2.2139-1.2737 2.1135 0 0zm-722.04-3.0638c-1.1692-2.2139-1.274 2.1132 0 0zm752.68-12.255c-1.169-2.2142-1.2739 2.1133 0 0zm-2.0425-1.0213c-1.1692-2.2139-1.274 2.1133 0 0zm-84.766-1.0213c-1.1694-2.2139-1.2738 2.1135 0 0zm-777.19-1.0212c-1.169-2.2142-1.2741 2.1133 0 0zm84.766 0c-1.169-2.2142-1.2741 2.1133 0 0zm690.38 0c-1.169-2.2142-1.2741 2.1133 0 0zm-778.21-6.1277c-1.1692-2.2139-1.274 2.1132 0 0zm78.638-2.0426c-1.1694-2.2139-1.2738 2.1135 0 0zm-85.787-1.0212c-1.169-2.2142-1.2741 2.1133 0 0zm806.81 0c-1.169-2.2142-1.2741 2.1133 0 0zm7.1489-7.149c-1.1694-2.2139-1.2738 2.1135 0 0zm-827.23-1.0212c-1.169-2.2142-1.2741 2.1133 0 0zm905.87 0c-1.169-2.2142-1.2741 2.1133 0 0zm-66.383-3.0639c-1.1694-2.2139-1.2738 2.1135 0 0zm-408-8.6808c48.952-2.3816 100.37-.3368 150.27-1.0213 15.929-12.434 39.955-2.1839 56.78-12.304 16.977-4.6483 38.863-1.0324 52.328-10.164 17.47-.4035 34.469-6.2752 49.647-9.4689 9.0678-4.0439 47.984-12.266 35.54-26.114 3.2473-17.886.2306-29.358-14.018-33.863-9.862 11.77-26.454 16.466-42.385 17.362-16.745 3.8599-32.158 10.546-50.546 11.75-20.233 1.4836-41.058 2.8509-56.85 10.2-17.67 1.9498-40.595-2.0521-55.66 2.8912-21.259 8.8211-51.124 1.8651-75.645 4.5661-35.755-1.1048-74.237 3.8967-108.3-.954-13.848-9.8146-41.112 1.2413-55.975-9.0565-21.166 4.982-29.694-7.4284-45.191-7.149-20.534 3.4652-33.413-10.145-52.123-10.213-17.198 1.6843-24.796-14.195-41.612-12.249-8.2769-6.3767-15.544-14.451-24.773-20.433-13.81 9.5972-11.79 43.082 1.3376 48 6.889 12.11 21.489 16.43 35.946 19.404 19.173-1.1945 30.846 13.787 49.231 14.292 17.93 6.6462 37.373 7.1251 58.171 10.53 20.792 2.068 33.303 10.932 55.131 8.8689 17.755 5.9771 37.522 7.4693 58.558 6.1276 6.1161-1.0652 15.098 1.8693 20.14-1.0024zm-106.72-.5107c-1.1694-2.2139-1.2737 2.1135 0 0zm2.0426-1.0212c-1.169-2.2142-1.2741 2.1133 0 0zm-268.6-2.0426c-1.1692-2.2139-1.274 2.1132 0 0zm808.85-7.1489c-1.169-2.2142-1.2741 2.1133 0 0zm63.319 0c-1.1691-2.2142-1.2741 2.1133 0 0zm9.1914-1.0213c-1.1691-2.2138-1.2738 2.1132 0 0zm-700.6-5.1064c-1.1692-2.2139-1.274 2.1132 0 0zm638.3-2.0425c-1.169-2.2142-1.2741 2.1133 0 0zm-835.4-1.0213c-1.169-2.2142-1.2741 2.1133 0 0zm842.55-1.0213c-1.1692-2.2139-1.274 2.1132 0 0zm73.532-3.0638c-1.169-2.2142-1.2741 2.1133 0 0zm-743.49-1.0213c-1.1692-2.2139-1.2739 2.1132 0 0zm522.89-1.0213c-1.1694-2.2139-1.2737 2.1135 0 0zm212.43 0c-1.1694-2.2139-1.2738 2.1135 0 0zm6.1277-1.0213c-1.1694-2.214-1.2738 2.1135 0 0zm-995.74-1.0212c-1.169-2.2142-1.2741 2.1133 0 0zm65.362 0c-1.169-2.2142-1.2741 2.1133 0 0zm-67.404-4.0851c-1.169-2.2142-1.2741 2.1133 0 0zm61.277-4.0851c-1.169-2.2142-1.2741 2.1133 0 0zm-74.553-1.0213c-1.169-2.2142-1.2741 2.1133 0 0zm1022.3 0c-1.169-2.2142-1.2741 2.1133 0 0zm-813.96-16.34c-1.169-2.2142-1.2741 2.1133 0 0zm317.62-3.5745c22.168-3.51 50.097 1.7867 73.17-2.5539 13.673-10.42 41.717 2.8443 57.424-6.3793 15.534-12.122 43.851 3.4944 58.545-9.4505 20.131 3.9216 31.314-7.1255 50.545-5.1012 12.827-7.2918 28.686-6.651 38.94-18.165 7.9821-22.841-19.219.096-31.011.7973-18.759 1.4498-32.706 9.6893-53.246 10.893-22.204-4.5969-35.824 7.549-56.682 6.4688-18.391 3.9331-38.176 6.1766-60.026 5.0568-13.309 7.7923-15.404-2.564-24.042 5.1247-19.56.9762-42.205-3.9204-55.615 7.1809-18.226-8.3976-32.973.751-54.513-4.6619-9.9424 4.4642-36.873 1.427-49.026-5.5515-15.419 4.5041-30.424 3.8428-45.899-4.3405-17.348.7276-32.069-9.3783-50.505-7.9149-13.947-4.6062-31.501-1.1112-44.478-11.457-16.059 4.7946-16.229-13.398-32.252-11.011-4.8839-5.0652-30.213-16.159-21.225.9405 8.2872 8.4565 18.24 17.007 32.659 16.422 16.798 7.4652 32.825 10.489 52.315 13.984 15.876 4.4024 30.346 9.532 48.54 8.4842 17.406 14.677 47.718.2236 67.043 7.9149 15.998 10.057 42.501 1.4323 62.494 4.311 11.814-.6867 26.781 1.4015 36.844-.9914zm-162.38-.5107c-1.1694-2.2139-1.2738 2.1135 0 0zm240 0c-1.1694-2.2139-1.2738 2.1135 0 0zm-237.96-1.0212c-1.169-2.2142-1.2741 2.1133 0 0zm17.362-2.0426c-1.1694-2.2139-1.2737 2.1135 0 0zm452.43-1.0213c-1.1694-2.2139-1.2738 2.1135 0 0zm-370.72-3.0638c-1.1692-2.2139-1.274 2.1132 0 0zm-488.17-3.0638c-1.169-2.2142-1.2741 2.1133 0 0zm683.23 0c-1.169-2.2142-1.2741 2.1133 0 0zm66.383 0c-1.169-2.2142-1.2741 2.1133 0 0zm304.34 0c-1.169-2.2142-1.2741 2.1133 0 0zm-990.64-1.0213c-1.1692-2.2139-1.274 2.1132 0 0zm426.89 0c-1.1692-2.2139-1.274 2.1132 0 0zm565.79 0c-1.1692-2.2139-1.274 2.1133 0 0zm-528-1.0213c-1.1694-2.2139-1.2737 2.1135 0 0zm11.234 0c-1.1694-2.2139-1.2737 2.1135 0 0zm-515.74-3.0638c-1.1692-2.2139-1.274 2.1132 0 0zm1035.6 0c-1.1692-2.2139-1.274 2.1132 0 0zm-1039.7-1.3393c20.444-5.4303 38.322-6.4687 29.604-36.968-.32589-288.51.45635-577.02-1.5585-865.52 6.576-11.192-.36487-20.249-12.122-24.511-11.752-11.013-34.046-8.6435-28.179 15.485-4.5496 20.39 7.2849 43.742 0 56.579 1.4715 37.335-2.8765 80.489 2.0989 114.32-.16619 245.75-1.1014 494.51-1.1746 738.38-.09693 4.2033 8.1254 3.8006 11.331 2.2352zm486.13.318c-1.1694-2.2139-1.2738 2.1135 0 0zm98.043 0c-1.1694-2.2139-1.2738 2.1135 0 0zm-569.87-1.0213c-1.1694-2.2139-1.2738 2.1135 0 0zm19.404-1.0212c-1.169-2.2142-1.2741 2.1133 0 0zm253.28 0c-1.169-2.2142-1.2741 2.1133 0 0zm114.38 0c-1.169-2.2142-1.2741 2.1133 0 0zm639.94-1.2766c11.625-16.421-.5663-21.641 3.4787-41.41-.463-20.156 6.0229-31.009 3.1033-52.678-4.464-19.107 2.2068-37.8-.053-59.462-.171-25.442 1.3842-52.072-3.0638-74.574 6.9193-45.834 1.1906-96.907 3.0638-144.83-.6803-102.83 1.3637-208.39-1.0221-309.51-2.3787-79.251-.3355-162.92-1.0212-243.87-11.531 2.3862-29.052 2.4845-39.83 7.511-12.604 10.515-2.0918 38.955-5.3688 56.924-.9116 30.851 2.203 61.39.2789 89.038 3.9822 248.74.9443 497.56 2.0077 746.33 3.1848 5.0822-2.9325 22.007 15.388 25.891 2.3168 4.142 19.224 3.4107 23.038.6394zm-440.79.2553c-1.1692-2.2139-1.2739 2.1132 0 0zm-35.912-3.2279c24.317 2.368 42.788-3.9234 64.071-5.453 17.96 2.355 34.587-1.9096 49.399-7.1489 21.592 1.7157 38.745-4.7823 57.855-7.6596 18.994-.6584 32.139-9.5076 51.991-10.213.1649-19.156-20.201-29.185-25.581-44.936-8.9086-12.38-12.756-26.764-19.431-39.054-8.2898-14.335-14.763-26.528-16.775-43.316-7.354-13.678-12.816-22.262-13.277-38.629-4.8214-15.251-8.3922-31.114-10.566-48.857 5.3564-33.044-11.761-20.368-33.303-19.591-18.43 6.0486-38.933 7.4726-60.678 6.1277-20.936-.91558-35.985 9.043-58.876 5.0873-22.349-.82469-46.915 3.2541-65.721-5.3408-22.902-1.0393-48.499 1.6446-69.84-1.552-14.589-8.7352-37.468-1.2769-52.706-10.45-16.211 8.0785-32.068-14.665-29.245 9.2224 2.62 19.099-12.5 28.619-7.1489 49.136-4.7219 15.616-3.1283 32.122-8.1702 46.836-3.9865 11.871-12.673 22.96-12.256 37.28-10.462 10.424-6.7074 25.847-18.383 32.076-2.2733 10.779-10.563 19.251-15.319 30.726-4.7168 12.143-12.324 12.318-20.426 20.426 4.0427 14.072 22.193 10.884 32.946 17.362 15.925 4.7007 31.448 13.538 51.26 12.234 16.812 6.6913 37.712 8.937 57.879 10.598 19.802 1.0815 33.919 8.5446 56.058 5.7777 38.753 1.3579 77.49-.2882 116.24-.6893zm-168.34-.8572c-1.169-2.2142-1.2741 2.1133 0 0zm652.6-1.0213c-1.1692-2.2139-1.274 2.1132 0 0zm-675.06-1.0213c-1.1694-2.2139-1.2738 2.1135 0 0zm432-6.1276c-1.169-2.2142-1.2741 2.1133 0 0zm-470.81-1.0213c-1.1692-2.2139-1.274 2.1132 0 0zm372.77 0c-1.1692-2.2139-1.2739 2.1132 0 0zm31.66-3.0638c-1.169-2.2142-1.2741 2.1133 0 0zm-403.4-1.0213c-1.169-2.2142-1.2741 2.1133 0 0zm-45.957-4.0851c-1.169-2.2142-1.2741 2.1133 0 0zm-55.149-2.0426c-1.1694-2.2139-1.2737 2.1135 0 0zm528 0c-1.1694-2.2139-1.2738 2.1135 0 0zm-557.62-2.0425c-1.169-2.2142-1.2741 2.1133 0 0zm581.11-5.1064c-1.1692-2.2139-1.274 2.1132 0 0zm-578.04-2.0426c-1.1694-2.2139-1.2737 2.1135 0 0zm843.57-30.638c-1.1694-2.2139-1.2738 2.1135 0 0zm-772.09-25.532c-1.1694-2.2139-1.2737 2.1135 0 0zm4.0851-8.1702c-1.1694-2.2139-1.2738 2.1135 0 0zm765.96-5.1064c-1.1694-2.214-1.2738 2.1135 0 0zm-295.15-4.0851c-1.1694-2.2139-1.2737 2.1135 0 0zm-22.468-31.66c-1.1694-2.2139-1.2738 2.1135 0 0zm6.1277-1.0212c-1.169-2.2142-1.2741 2.1133 0 0zm-435.06-9.1915c-1.169-2.2142-1.2741 2.1133 0 0zm745.53-72.511c-1.1692-2.214-1.274 2.1134 0 0zm1.0213-17.362c-1.1693-2.214-1.2739 2.1134 0 0zm-727.15-7.1489c-1.1692-2.214-1.2739 2.1134 0 0zm184.85-20.426c-1.1692-2.214-1.274 2.1133 0 0zm78.638 0c-1.1692-2.214-1.2739 2.1133 0 0zm34.617-5.4636c15.701-9.8677 43.908 4.1468 57.362-8.3241 22.342 11.972 30.867-22.796 9.6608-6.1277-20.636-1.1979-40.65.0137-57.391 5.6469-62.422.16362-124.84.32723-187.27.49085-11.753-17.046-43.783 4.6736-56.863-12.265-17.902 5.8725-45.918-9.2198-54.417.82328 12.734 10.127 33.993 11.14 53.309 11.294 17.688 2.3385 34.786 7.6702 55.782 5.8507 17.786 7.7932 38.85 7.0542 60.164 6.2966 39-.14984 78-.29968 117-.44952l2.4155-2.9382zm-207.21.35719c-1.1692-2.214-1.2739 2.1134 0 0zm242.04 0c-1.1692-2.214-1.2739 2.1134 0 0zm-314.55-5.1064c-1.1692-2.214-1.2739 2.1134 0 0zm-13.277-6.1277c-1.1692-2.214-1.2739 2.1134 0 0zm263.76-5.9118c8.2597 5.9783 21.917-8.6944 31.695 2.3373 12.325-13.694 40.012 3.1263 51.1-11.234 20.245 2.4538 42.511-6.6779 37.442-30.296-8.6341-10.601-23.656-11.927-37.608-4.4279-20.058-.5025-41.367-1.0423-56.799 5.1064-27.876 5.3596-61.629-1.7487-89.781 4.3362-20.131 4.1102-46.414 4.4573-65.003-2.2936-16.326-6.5271-45.085 2.7614-62.709-4.5957-19.062-2.697-38.808-4.4816-56.611-8.6809-22.165-11.335-32.946 20.617-17.713 29.65 14.258 10.328 39.656 3.8326 35.786 9.1257 15.281 5.8418 37.842-2.8934 51.637 7.7231 24.376 2.1555 52.971-4.7471 74.667 3.1615 20.265 8.2389 47.767 1.0214 70.754 3.4466 10.296-1.9048 25.369 4.0248 33.145-3.3586zm36.493 2.848c-1.1692-2.214-1.2739 2.1134 0 0zm-300.26-7.1489c-1.1692-2.214-1.2739 2.1134 0 0zm359.49-2.0426c-1.1692-2.214-1.2739 2.1134 0 0zm-286.98-1.0213c-1.1692-2.214-1.2739 2.1134 0 0zm-67.404-5.1064c-1.1692-2.214-1.2739 2.1134 0 0zm-5.1064-6.1277c-1.1692-2.214-1.2739 2.1134 0 0zm673.02-20.426c-1.1692-2.214-1.274 2.1134 0 0zm-390.13-1.0213c-1.1692-2.214-1.2739 2.1134 0 0zm-55.149-5.617c9.5995-1.3755 25.143-2.9276 43.702-4.0848 25.617-1.2928 54.578 3.4439 76.737-4.0851 17.179 6.7533 34.753-11.908 19.861-23.932 3.3451-17.712 4.6316-36.318 9.8278-53.998.008-15.166 8.7709-26.364 12.255-39.403 3.4252-12.16 9.6894-28.118 16.34-36.877 8.077-11.947 15.227-24.386 22.645-35.666 9.4674-8.1513 12.418-27.858 24.334-30.72 7.9919-8.7205 12.78-21.48 21.12-27.574 13.128-14.091 26.629-25.706 25.211-23.377 3.5884-6.1968 29.275-17.173 17.021-22.4-12.595 9.9898-33.001 4.6517-49.93 5.9482-11.205 14.505-41.53-4.521-52.398 11.234h-86.471c-17.454 12.617-46.604 2.2615-68.753 5.6566-65.387.005-130.78.44016-196.16-.88535-18.859-10.797-46.293-2.1219-68.568-5.1622-20.615-1.1146-37.973-9.3174-61.202-5.7364-10.958-5.7472-60.761-7.157-49.724-1.0022 9.2199 7.9228 18.592 15.836 26.716 24.508 4.7539 8.2522 23.414 12.226 24.988 26.926 12.35 7.1058 7.9402 20.828 21.806 26.509 3.0749 13.501 16.146 23.581 20.221 38.475 7.4847 12.148 12.805 21.996 14.503 35.389.3517 14.956 10.303 24.972 12.255 40.132 3.1527 13.765 10.591 25.392 7.1489 45.055-8.1558 27.378 21.007 29.995 41.131 28.551 15.146 13.9 47.765-3.8557 64.113 12.209 10.485-8.5983 34.511 4.7468 52.603-.52566 36.884-.0272 73.768-.0544 110.65-.0816 17.015-12.314 44.973-1.8785 66.38-5.0605 23.36 3.5521-36.133 18.705-29.83 11.813-75.789.23986-153.96.15011-228.22-1.2184-11.745-7.5463-35.021-3.501-49.928-8.9961-11.243-10.67-42.598 3.8185-15.686 4.0991 12.473 10.901 32.798 4.4942 47.919 10.353 21.897-.55616 43.261.31453 62.063 5.8597 31.416-1.3549 65.334 2.8405 95.313-1.9295zm23.489 1.5319c-1.1692-2.214-1.2739 2.1134 0 0zm-141.96-1.0213c-1.1692-2.214-1.2739 2.1134 0 0zm-41.872-2.0426c-1.1692-2.214-1.2739 2.1134 0 0zm182.81-1.0213c-1.1692-2.214-1.2739 2.1134 0 0zm-198.13-3.0638c-1.1692-2.214-1.2739 2.1134 0 0zm54.128-8.1702c-1.1692-2.214-1.2739 2.1134 0 0zm8.1702 0c-1.1692-2.214-1.2739 2.1134 0 0zm12.255 0c-1.1692-2.214-1.2739 2.1134 0 0zm126.64 0c-1.1692-2.214-1.2739 2.1134 0 0zm29.617-2.0426c-1.1692-2.214-1.2739 2.1134 0 0zm67.915-2.5532c1.3257-4.0371-3.336 3.8125 0 0zm27.064-4.5957c-1.1692-2.214-1.2739 2.1134 0 0zm-359.49-2.0426c-1.1692-2.214-1.274 2.1133 0 0zm18.383 0c-1.1692-2.214-1.274 2.1133 0 0zm-19.404-5.1064c-1.1692-2.214-1.2739 2.1134 0 0zm-8.1702-52.085c-1.1692-2.214-1.274 2.1133 0 0zm385.02-46.979c-1.1692-2.214-1.2739 2.1134 0 0zm8.1702-19.404c-1.1692-2.214-1.2739 2.1134 0 0zm3.0638-6.1277c-1.1692-2.214-1.2739 2.1134 0 0zm-426.89-7.1489c-1.1692-2.214-1.2739 2.1134 0 0zm432 0c-1.1692-2.214-1.2739 2.1134 0 0zm8.1702-8.1702c-1.1692-2.214-1.2739 2.1134 0 0zm8.1702-19.404c-1.1692-2.214-1.2739 2.1134 0 0zm-467.74-12.255c-1.1692-2.214-1.274 2.1133 0 0zm487.15-8.1702c-1.1692-2.214-1.2739 2.1134 0 0zm-490.21-3.0638c-1.1692-2.214-1.2739 2.1134 0 0zm-14.298-7.1489c-1.1692-2.214-1.274 2.1133 0 0zm-19.404-32.681c-1.1692-2.214-1.2739 2.1133 0 0zm-11.234-7.1489c-1.1692-2.214-1.2739 2.1134 0 0zm584.17-8.1702c-1.1692-2.214-1.2739 2.1133 0 0zm-285.96-12.255c-1.1692-2.214-1.2739 2.1134 0 0zm68.426 0c-1.1692-2.214-1.2739 2.1134 0 0zm-297.19-8.1702c-1.1692-2.214-1.2739 2.1134 0 0zm80.681 0c-1.1692-2.214-1.2739 2.1134 0 0zm281.66-4.2842c21.783-7.6451 51.521 1.3965 74.473-4.5801 14.775-14.362 46.9 4.662 59.85-10.029 22.579-1.8978 47.82 5.3712 66.566-7.1002 13.244 1.6924 35.589-16.016 7.1489-10.262-17.023 2.7153-33.055 4.5756-51.574 8.1702-13.921 9.5829-42.692-3.9458-53.617 7.149-22.314 3.0669-55.469-1.2031-78.915 3.9955-20.389 7.5196-48.158.87526-71.253 3.1286-88.959.008-177.92.0165-266.88.0248-13.217-12.064-39.747-1.596-58.269-5.1064-16.463-4.3935-32.612-8.5279-52.966-6.1277-12.352-15.283-38.732.25369-55.379-7.2695 3.45-5.1678-54.094-2.2058-32.795 1.1418 13.538 9.7959 34.869.60731 47.825 12.255 25.217-3.9368 40.932 6.8958 64.768 5.1064 22.519 1.9911 42.174 9.5613 67.487 6.1512 18.929 2.7188 21.058 1.2725 35.259 6.104h296.27zm-462.43-.82215c-1.1692-2.214-1.2739 2.1134 0 0zm51.064-3.0638c-1.1692-2.214-1.2739 2.1134 0 0zm430.98-8.1702c-1.1692-2.214-1.2739 2.1134 0 0zm-209.8-3.3348c15.296-10.042 42.207-1.4322 62.008-4.2966 11.943 9.4108 26.375-7.2465 36.645 3.1872 15.664-1.3786 37.045-5.1546 57.723-3.3586 24.75-1.2746 50.568 2.0121 74.667-2.0407 7.4647-1.9661 28.698-4.8285 45.804-4.2701 14.532-3.4256 38.057 6.3954 44.124-5.8012 22.341 2.5435 40.785-2.7136 60.66-5.1064 17.849-5.4494 35.625-9.5071 54.38-12.766 8.8672-7.4931 32.556-13.428 25.021-34.633.17172-18.783-15.505-23.448-24.511-33.282-13.279-8.3251-33.291-6.2069-48.829-11.274-9.0899-11.646-35.234 3.8593-44.078-11.705-22.736 3.6939-38.105-6.4747-58.184-6.6383-23.9-7.9884-30.977 9.5803-36.824 24.467-4.506 12.404-5.4586 26.41-8.7542 38.852-8.3927 12.262 9.868 29.714 22.999 29.198 21.143-3.4763 57.682 6.2089 15.591 5.525-21.371.76002-44.729-3.0345-62.878 5.1078-30.688.006-61.376.0111-92.065.0166-14.685 14.302-42.241 2.0338-61.88 6.1091-41.08-.84759-82.79 1.7015-123.48-1.2398-13.069-11.365-40.363-1.7065-58.812-4.8878-24.079 2.0071-43.028-9.061-67.871-5.1064-9.9146-17.192-42.092 5.0748-51.895-12.255-17.298-2.1009-31.853 4.843-43.269-3.0376-16.847 1.4817-35.935-7.0965-46.75-11.042-14.004 1.7434-33.163-17.221-13.528-16.988 11.424 9.4849 28.974 14.459 45.772 16.769 15.364 3.6806 33.845 3.2234 47.619 9.1915 22.599-5.4425 35.984 10.472 57.668 7.1489 22.286 9.1325 50.96 3.6379 76.592 5.1064 15.993 11.645 44.774 1.9408 65.846 5.1064 22.483-4.7556 28.414 11.217 42.87-7e-5 15.821 13.592 42.514 2.1004 62.556 5.9527 19.975-2.8762 44.667 5.8276 61.799-4.0256 6.1439-15.017 20.048-21.16 24.464-35.797 13.329-7.6459 7.5667-23.821 18.074-34.724 4.743-13.741 18.767-39.337-10.872-32.49-17.997-3.0113-26.884.29628-37.158-6.3373-74.381.62552-148.81-1.2973-223.15 1.4959-10.996 11.164-42.635 1.6851-61.662 4.8183-17.619-.20426-31.195 4.9866-47.843 5.1064-11.856 10.776-37.809 1.3801-51.301 12.255-19.328-2.9192-30.3 8.9355-47.703 10.213-12.616 6.7434-30.419 5.2014-34.911 18.383-11.769 1.3632-26.682 24.979-16.874 34.116 6.9526 11.669 19.434 18.137 31.416 21.032 13.759 3.0233 28.506 4.9802 41.511 12.944 22.304-.97088 44.394-1.9926 62.998 4.4176 23.669-2.1262 40.277 8.8151 64.8 5.1064 19.232 4.1599 38.244 9.1203 60.369 6.5984 33.004 1.5688 69.831-2.226 100.49 2.6296 2.0846 3.7911 7.237 3.9652 10.614 2.2465zm321.97-40.027c-38.606.37688-7.493-6.7188 12.038-4.117 18.864-.56848 34.786-9.5487 51.219-12.266 14.699.61124 21.748-6.4457 31.744-12.255 21.48-17.574 26.76-6.3108 4.7421 9.0197-16.386 7.479-34.564 8.5364-51.305 13.448-15.844 4.2983-27.958 10.054-48.438 6.1701zm24.684-2.5956c-1.1692-2.214-1.2739 2.1134 0 0zm77.617-25.532c-1.1692-2.214-1.2739 2.1134 0 0zm4.0851 0c-1.1692-2.214-1.2739 2.1134 0 0zm-741.45 67.404c-1.1692-2.214-1.2739 2.1134 0 0zm5.1064 0c-1.1692-2.214-1.2739 2.1134 0 0zm700.6 0c-1.1692-2.214-1.2739 2.1134 0 0zm-2.0426-1.0213c-1.1692-2.214-1.2739 2.1133 0 0zm-7.1489-17.362c-1.1692-2.214-1.2739 2.1134 0 0zm-704.68-6.1277c-1.1692-2.214-1.2739 2.1134 0 0zm761.87-7.1489c-1.1692-2.214-1.2739 2.1134 0 0zm128.68-1.0213c-1.1692-2.214-1.274 2.1134 0 0zm-361.72-8.1702c20.499-2.9724 17.16-27.669 23.675-42.275-1.0982-16.588 6.6902-28.924 11.234-41.845-1.009-18.025 12.031-29.675 11.234-47.969 8.6053-8.843 9.4773-25.68 14.809-38.372 6.2246-13.838 9.9554-27.017 17.872-40.433 5.4702-13.342 13.773-33.133-2.6202-42.286-4.2646-7.7607-45.658-9.9359-18.514-14.905 21.928-7.5346 32.004 16.247 46.777 23.489 23.315 4.2155 35.303-22.679 33.472-41.429 3.7725-18.563-5.6348-30.124-11.488-43.856-11.762-8.0385-20.81-20.903-38.479-18.885-11.964-13.396-31.088-.34404-45.058 1.2766-2.1524 19.703-25.927 10.618-25.366 32.324-5.0308 9.6557-8.0045 35.239 2.4469 40.517 5.0223 9.2881 17.949 29.269 4.9205 36.181-3.2039 15.75-7.4415 27.663-11.049 43.88-3.2436 19.529-10.329 31.642-17.129 49.056-7.1004 12.628-9.7071 27.47-13.938 39.778-6.278 10.724-11.174 20.119-14.273 33.086-8.4721 12.37-10.46 24.857-20.112 36.844-2.0745 10.907-8.4833 14.024-11.548 28.709 2.8209 21.312 41.157 4.1405 58.23 9.6682h3.7397zm-570.71 1.0213c-1.1692-2.214-1.274 2.1133 0 0zm148.09-1.0213c-1.1692-2.214-1.2739 2.1134 0 0zm-18.383-4.0851c-1.1692-2.214-1.2739 2.1134 0 0zm10.213-3.0638c-1.1692-2.214-1.2739 2.1134 0 0zm685.28 0c-1.1692-2.214-1.2739 2.1134 0 0zm-232.85-3.0638c-1.1692-2.214-1.2739 2.1134 0 0zm-610.72-8.1702c-1.1692-2.214-1.2739 2.1134 0 0zm65.362 0c-1.1692-2.214-1.2739 2.1134 0 0zm-62.298-9.1915c-1.1692-2.214-1.2739 2.1134 0 0zm528-1.0213c-1.1692-2.214-1.2739 2.1134 0 0zm85.787-5.1064c-1.1692-2.214-1.2739 2.1134 0 0zm-2.0426-3.0638c-1.1692-2.214-1.2739 2.1134 0 0zm228.77-7.1489c-1.1691-2.214-1.2739 2.1133 0 0zm-818.04-5.1064c-1.1692-2.214-1.2739 2.1134 0 0zm594.38 0c-1.1692-2.214-1.2739 2.1134 0 0zm215.49-1.0213c-1.1692-2.214-1.274 2.1133 0 0zm-296.17-6.1277c-1.1692-2.214-1.274 2.1133 0 0zm358.47-10.213c-1.1692-2.214-1.274 2.1134 0 0zm-268.6-2.0426c-1.1692-2.214-1.2739 2.1134 0 0zm-563.74-1.0213c-1.1692-2.214-1.2739 2.1134 0 0zm568.85 0c-1.1692-2.214-1.2739 2.1134 0 0zm163.4 0c-1.1692-2.214-1.2739 2.1134 0 0zm-245.11-3.0638c-1.1692-2.214-1.2739 2.1134 0 0zm-470.81-5.1064c-1.1692-2.214-1.2739 2.1134 0 0zm477.96 0c-1.1692-2.214-1.2739 2.1134 0 0zm188.94 0c-1.1692-2.214-1.2739 2.1134 0 0zm-630.13-6.1277c-1.1692-2.214-1.2739 2.1134 0 0zm37.787-8.1702c-1.1692-2.214-1.274 2.1133 0 0zm536.17 0c-1.1692-2.214-1.274 2.1133 0 0zm-538.21-1.0213c-1.1692-2.214-1.2739 2.1134 0 0zm404.43 0c-1.1692-2.214-1.2739 2.1134 0 0zm75.574-5.1064c-1.1692-2.214-1.274 2.1133 0 0zm-364.6-3.0638c-1.1692-2.214-1.2739 2.1133 0 0zm5.1064-1.0213c-1.1692-2.214-1.2739 2.1134 0 0zm223.66 0c-1.1692-2.214-1.2739 2.1134 0 0zm65.362 0c-1.1692-2.214-1.2739 2.1134 0 0zm337.02-17.362c-1.1692-2.214-1.274 2.1134 0 0zm-258.38-11.234c-1.1692-2.214-1.274 2.1133 0 0zm308.43-23.489c-1.1693-2.214-1.2739 2.1134 0 0zm-295.15-16.34c-1.1692-2.214-1.2739 2.1134 0 0zm-766.98-5.1064c-1.1692-2.214-1.2739 2.1133 0 0zm1062.1 0c-1.1692-2.214-1.274 2.1134 0 0zm-1061.1-4.0851c-1.1692-2.214-1.2739 2.1134 0 0zm1061.1 0c-1.1692-2.214-1.274 2.1134 0 0zm-1063.1-4.0851c-1.1692-2.214-1.2739 2.1134 0 0zm-3.0638-53.106c-1.1692-2.214-1.2739 2.1134 0 0zm55.568-9.1915c12.378-11.686 27.452-26.461 40.432-40.206 5.565-11.776 25.37-22.984 37.312-32.815 8.1551-7.8564 17.373-14.906 29.581-21.195 16.907-9.1547 32.236-21.739 48.753-28.848 6.5397-6.8392 24.171-7.8355 31.555-17.362 14.589 1.283 18.16-13.724 32.398-12.252 8.0964-9.6423 30.853-3.7715 35.89-16.343 20.378 2.6732 31.155-15.939 53.702-11.234 10.853-6.7267 27.456-9.7931 41.941-12.255 11.352-8.5018 30.766-2.4587 43.414-10.057 51.133-2.5778 104.95-1.2879 157.11-2.3828 6.8938 9.604 31.914-.38555 40.413 8.7924 19.972-.81466 36.134 9.266 55.63 8.7538 10.735 11.836 37.365 3.6125 46.791 17.362 12.087 3.7919 45.488 15.595 35.757 12.216 14.831 7.4771 24.664 10.415 37.81 18.087 10.66 9.0159 24.012 6.6607 30.587 19.483 12.802 2.9029 20.816 9.1571 32.841 13.709 11.747 1.6742 16.038 16.153 28.458 16.164 7.2218 9.9966 24.384 14.146 29.755 26.32 9.3841 8.8319 22.859 10.252 24.109 23.128 11.601 5.4895 17.865 22.49 31.806 29.162 7.2531 19.321 28.194 13.044 41.453 7.1765 19.228-3.6563.9939-23.312-8.6108-30.322-9.8405-9.5699-13.066-27.092-30.544-29.648-7.8517-12.812-19.544-19.281-30.432-25.1-11.018-15.656-24.133-16.719-35.962-30.334-12.67-4.1836-24.172-16.106-37.962-19.915-7.3146-9.1847-20.758-9.8711-30.601-19.915-11.143-.81436-19.501-6.0102-26.405-13.857-12.464-7.2993-26.175-12.603-38.809-15.462-16.865-8.6583-32.809-14.483-51.749-18.337-13.379-9.3508-27.844-13.858-44.04-14.642-12.795-8.6946-31.903-2.8848-44.026-12.264-16.598 6.4873-29.614-10.083-33.802-2.1059-15.809 1.8366-30.911-4.9342-46.979-6.5664-15.256-1.1538-21.58 5.9658-39.177-.51064-22.366 1.1998-38.655.58265-53.988 5.1532-15.109 3.9595-41.367-8.3402-48.139 6.0809-18.731-.50894-37.021-1.8095-49.857 8.6808-18.803 4.2946-39.785 1.5664-57.857 9.9511-10.05 8.5251-26.283 12.766-40.58 15.07-10.638 8.3946-26.626 5.5766-38.139 12.255-11.824 12.559-29.959 9.5914-42.115 19.18-12.568 7.2001-23.887 13.766-35.922 19.628-8.2366 9.6177-20.842 7.562-29.289 16.413-9.1299 10.944-20.239 15.686-33.095 20.864-6.9885 8.8019-17.378 14.178-29.167 22.882-13.885 17.856-31.568 26.452-47.015 40.693 1.9876 16.229-28.881 21.668-21.631 36.806 12.873 2.6848 26.218 18.865 38.391 9.9153zm-18.802 1.0213c-1.1692-2.214-1.2739 2.1134 0 0zm0-2.0426c-1.1692-2.214-1.2739 2.1134 0 0zm-32.681-1.0213c-1.1692-2.214-1.2739 2.1134 0 0zm1052.9 0c-1.1692-2.214-1.274 2.1134 0 0zm8.1702 0c-1.1692-2.214-1.274 2.1134 0 0zm-67.404-5.1064c-1.1691-2.214-1.2738 2.1133 0 0zm-926.3-1.0213c-1.1692-2.214-1.2739 2.1134 0 0zm707.74-3.0638c-1.1692-2.214-1.2739 2.1134 0 0zm-768-4.0851c-1.1692-2.214-1.2739 2.1134 0 0zm1046.8 0c-1.1692-2.214-1.274 2.1134 0 0zm-978.38-2.0426c-1.1692-2.214-1.2739 2.1134 0 0zm677.11-1.0213c-1.1692-2.214-1.2739 2.1134 0 0zm-741.45-8.1702c-1.1692-2.214-1.2739 2.1134 0 0zm80.681-4.0851c-1.1692-2.214-1.2739 2.1134 0 0zm877.28 0c-1.1692-2.214-1.274 2.1134 0 0zm-950.81-1.0213c-1.1692-2.214-1.2739 2.1133 0 0zm71.489-2.0426c-1.1692-2.214-1.2739 2.1134 0 0zm864-14.298c-1.1692-2.214-1.2739 2.1134 0 0zm71.489-1.0213c-1.1692-2.214-1.2739 2.1134 0 0zm-80.681-7.1489c-1.1692-2.214-1.2739 2.1134 0 0zm70.468-7.1489c-1.1691-2.214-1.2738 2.1134 0 0zm-174.64-1.0213c-1.1692-2.214-1.274 2.1133 0 0zm100.09 0c-1.1692-2.214-1.274 2.1133 0 0zm61.277-1.0213c-1.1692-2.214-1.274 2.1134 0 0zm-948.77-3.0638c-1.1692-2.214-1.2739 2.1134 0 0zm83.745-5.1064c-1.1692-2.214-1.2739 2.1133 0 0zm-68.426-6.1277c-1.1692-2.214-1.274 2.1133 0 0zm846.64-1.0213c-1.1692-2.214-1.2739 2.1134 0 0zm-196.09-3.0638c-1.1692-2.214-1.2739 2.1134 0 0zm-649.53-1.0213c-1.1692-2.214-1.2739 2.1134 0 0zm6.1277-4.0851c-1.1692-2.214-1.2739 2.1134 0 0zm748.6 0c-1.1692-2.214-1.2739 2.1134 0 0zm-99.064-2.0426c-1.1692-2.214-1.2739 2.1134 0 0zm-2.0426-1.0213c-1.1692-2.214-1.2739 2.1134 0 0zm-633.19-7.1489c-1.1692-2.214-1.2739 2.1134 0 0zm100.09-7.1489c-1.1692-2.214-1.2739 2.1134 0 0zm776.17 0c-1.1693-2.214-1.2739 2.1134 0 0zm-174.64-2.0426c-1.1692-2.214-1.2739 2.1134 0 0zm162.38-1.0213c-1.1692-2.214-1.274 2.1133 0 0zm-847.66-5.1064c-1.1692-2.214-1.2739 2.1134 0 0zm9.1915-1.0213c-1.1692-2.214-1.274 2.1133 0 0zm99.064-5.1064c-1.1692-2.214-1.2739 2.1134 0 0zm627.06-1.0213c-1.1692-2.214-1.2739 2.1133 0 0zm-709.79-2.0426c-1.1692-2.214-1.2739 2.1134 0 0zm714.89 0c-1.1692-2.214-1.2739 2.1134 0 0zm-16.34-5.1064c-1.1692-2.214-1.2739 2.1134 0 0zm-697.53-2.0426c-1.1692-2.214-1.274 2.1133 0 0zm19.404-7.1489c-1.1692-2.214-1.2739 2.1134 0 0zm2.0426 0c-1.1692-2.214-1.2739 2.1134 0 0zm654.64 0c-1.1692-2.214-1.2739 2.1134 0 0zm103.15 0c-1.1692-2.214-1.2739 2.1134 0 0zm-761.87-1.0213c-1.1692-2.214-1.2739 2.1134 0 0zm113.36-6.1277c-1.1692-2.214-1.2739 2.1134 0 0zm-94.979-10.213c-1.1692-2.214-1.2739 2.1134 0 0zm10.213-1.0213c-1.1692-2.214-1.2739 2.1134 0 0zm702.64-1.0213c-1.1692-2.214-1.274 2.1133 0 0zm-699.57-4.0851c-1.1692-2.214-1.2739 2.1134 0 0zm121.53 0c-1.1692-2.214-1.2739 2.1134 0 0zm445.28 0c-1.1692-2.214-1.2739 2.1134 0 0zm-559.66-1.0213c-1.1692-2.214-1.2739 2.1134 0 0zm15.319-4.0851c-1.1692-2.214-1.274 2.1133 0 0zm655.66 0c-1.1692-2.214-1.2739 2.1133 0 0zm-646.47-6.1277c-1.1692-2.214-1.274 2.1133 0 0zm630.13-1.0213c-1.1692-2.214-1.2739 2.1134 0 0zm6.1277-5.1064c-1.1692-2.214-1.2739 2.1134 0 0zm-16.34-2.0426c-1.1692-2.214-1.2739 2.1134 0 0zm-598.47-1.0213c-1.1692-2.214-1.2739 2.1134 0 0zm4.0851-5.1064c-1.1692-2.214-1.2739 2.1134 0 0zm5.1064 0c-1.1692-2.214-1.2739 2.1134 0 0zm11.234-2.0426c-1.1692-2.214-1.2739 2.1134 0 0zm184.85-6.1277c-1.1692-2.214-1.2739 2.1134 0 0zm8.1702 0c-1.1692-2.214-1.2739 2.1134 0 0zm168.51 0c-1.1692-2.214-1.2739 2.1134 0 0zm2.0426-1.0213c-1.1692-2.214-1.2739 2.1134 0 0zm167.49-1.0213c-1.1692-2.214-1.2739 2.1134 0 0zm-515.74-5.1064c-1.1692-2.214-1.2739 2.1134 0 0zm38.809-9.1915c-1.1692-2.214-1.2739 2.1134 0 0zm9.1915-3.0638c-1.1692-2.214-1.2739 2.1134 0 0zm423.83-1.0213c-1.1692-2.214-1.2739 2.1134 0 0zm4.0851-4.0851c-1.1692-2.214-1.2739 2.1134 0 0zm-362.55-4.0851c-1.1692-2.214-1.2739 2.1134 0 0zm-40.851-3.0638c-1.1692-2.214-1.2739 2.1134 0 0zm23.489-1.0213c-1.1692-2.214-1.2739 2.1134 0 0zm329.87 0c-1.1692-2.214-1.2739 2.1134 0 0zm-34.723-10.213c-1.1692-2.214-1.2739 2.1134 0 0zm-165.45-8.1702c-1.1692-2.214-1.2739 2.1134 0 0zm-6.1277-1.0213c-1.1692-2.214-1.2739 2.1134 0 0zm3.0638-5.1064c-1.1692-2.214-1.2739 2.1134 0 0zm100.09-2.0426c-1.1692-2.214-1.2739 2.1134 0 0zm-122.55 1452.3c-1.1694-2.2139-1.2738 2.1135 0 0zm241.02-1.0212c-1.169-2.2142-1.2741 2.1133 0 0zm-42.894-3.0639c-1.1694-2.2139-1.2737 2.1135 0 0zm-345.19-2.0425c-1.169-2.2142-1.2741 2.1133 0 0zm-4.0851-2.0426c-1.1694-2.2139-1.2738 2.1135 0 0zm40.851-5.1064c-1.1694-2.2139-1.2737 2.1135 0 0zm391.15-2.0425c-1.169-2.2142-1.2741 2.1133 0 0zm4.0851-13.277c-1.1692-2.2139-1.2739 2.1132 0 0zm-508.6-4.0851c-1.169-2.2142-1.2741 2.1133 0 0zm558.64 0c-1.169-2.2142-1.2741 2.1133 0 0zm-571.91-6.1277c-1.1694-2.2139-1.2738 2.1135 0 0zm585.19 0c-1.1694-2.2139-1.2738 2.1135 0 0zm-8.1702-5.1064c-1.1694-2.2139-1.2738 2.1135 0 0zm-596.43-5.1063c-1.169-2.2142-1.2741 2.1133 0 0zm-17.362-7.149c-1.1694-2.2139-1.2737 2.1135 0 0zm657.7 0c-1.1694-2.2139-1.2738 2.1135 0 0zm-6.1277-5.1064c-1.1694-2.2139-1.2738 2.1135 0 0zm-635.23-1.0212c-1.169-2.2142-1.2741 2.1133 0 0zm-15.319-8.1703c-1.1694-2.2139-1.2738 2.1135 0 0zm673.02-6.1276c-1.1692-2.2139-1.2739 2.1132 0 0zm-691.4-1.0213c-1.1694-2.2139-1.2738 2.1135 0 0zm724.09-1.0213c-1.1694-2.2139-1.2737 2.1135 0 0zm-735.32-6.1276c-1.169-2.2142-1.2741 2.1133 0 0zm724.09 0c-1.169-2.2142-1.2741 2.1133 0 0zm-759.83-13.277c-1.169-2.2142-1.2741 2.1133 0 0zm3.0638-3.0638c-1.169-2.2142-1.2741 2.1133 0 0zm803.74-4.0852c-1.1694-2.2139-1.2737 2.1135 0 0zm-803.74-4.0851c-1.1694-2.2139-1.2738 2.1135 0 0zm-5.1064-1.0212c-1.169-2.2142-1.2741 2.1133 0 0zm802.72 0c-1.169-2.2142-1.2741 2.1133 0 0zm18.383-2.0426c-1.1692-2.2139-1.2739 2.1132 0 0zm-5.1064-6.1277c-1.1694-2.2139-1.2738 2.1135 0 0zm-828.26-1.0212c-1.169-2.2142-1.2741 2.1133 0 0zm824.17 0c-1.169-2.2142-1.2741 2.1133 0 0zm5.1064-6.1277c-1.1694-2.2139-1.2738 2.1135 0 0zm7.1489-1.0213c-1.1693-2.2139-1.2737 2.1135 0 0zm11.234-7.1489c-1.1692-2.2139-1.274 2.1133 0 0zm20.426-4.0851c-1.1692-2.2139-1.274 2.1132 0 0zm0-13.277c-1.1692-2.2139-1.274 2.1132 0 0zm2.0426-4.0851c-1.1692-2.2139-1.274 2.1133 0 0zm5.1063-5.1064c-1.1691-2.2138-1.2738 2.1132 0 0zm-964.09-9.1915c-1.1694-2.2139-1.2738 2.1135 0 0zm996.77-2.0425c-1.169-2.2142-1.2741 2.1133 0 0zm-8.1702-5.1064c-1.1691-2.2142-1.2741 2.1133 0 0zm-999.83-3.0638c-1.169-2.2142-1.2741 2.1133 0 0zm1013.1-3.0639c-1.1694-2.214-1.2738 2.1135 0 0zm29.617-33.702c-1.1692-2.2139-1.274 2.1132 0 0zm27.574-10.213c-1.1694-2.214-1.2738 2.1135 0 0zm-1118.3-5.1064c-1.1694-2.2139-1.2738 2.1135 0 0zm1115.2-9.1914c-1.169-2.2142-1.2739 2.1133 0 0zm0-31.66c-1.169-2.2142-1.2739 2.1133 0 0zm9.1915-1.0213c-1.1692-2.2139-1.274 2.1132 0 0zm-3.0638-12.255c-1.169-2.2142-1.2741 2.1133 0 0zm10.213-6.1277c-1.1694-2.214-1.2738 2.1135 0 0zm-16.34-22.468c-1.1693-2.2139-1.2736 2.1135 0 0zm-1124.4-40.851c-1.169-2.2142-1.2741 2.1133 0 0zm1124.4-100.09c-1.169-2.2142-1.2739 2.1133 0 0zm0-7.149c-1.1693-2.2139-1.2736 2.1135 0 0zm0-7.1489c-1.1691-2.2138-1.2738 2.1132 0 0zm0-229.79c-1.1691-2.214-1.2738 2.1134 0 0zm11.234-529.02c-1.1692-2.214-1.274 2.1134 0 0zm-25.532-3.0638c-1.1692-2.214-1.274 2.1134 0 0zm2.0425-1.0213c-1.1692-2.214-1.274 2.1133 0 0zm-12.255-13.277c-1.1692-2.214-1.274 2.1134 0 0zm-1065.2-4.0851c-1.1692-2.214-1.2739 2.1134 0 0zm1060.1-7.1489c-1.1692-2.214-1.274 2.1134 0 0zm6.1277-5.1064c-1.1692-2.214-1.274 2.1134 0 0zm-19.404-2.0426c-1.1692-2.214-1.274 2.1134 0 0zm-1032.5-5.1064c-1.1692-2.214-1.2739 2.1134 0 0zm1043.7-1.0213c-1.1692-2.214-1.274 2.1134 0 0zm-13.277-2.0426c-1.1692-2.214-1.274 2.1134 0 0zm-1001.9-10.213c-1.1692-2.214-1.2739 2.1134 0 0zm-13.277-4.0851c-1.1692-2.214-1.2739 2.1134 0 0zm985.53-10.213c-1.1691-2.214-1.2738 2.1134 0 0zm-942.64-9.1915c-1.1692-2.214-1.2739 2.1134 0 0zm-13.277-6.1277c-1.1692-2.214-1.2739 2.1134 0 0zm934.47-2.0426c-1.1691-2.214-1.2738 2.1134 0 0zm-24.511-16.34c-1.1692-2.214-1.2739 2.1134 0 0zm-868.09-13.277c-1.1692-2.214-1.2739 2.1134 0 0zm824.17-12.255c-1.1692-2.214-1.2739 2.1134 0 0zm24.511-3.0638c-1.1692-2.214-1.2739 2.1134 0 0zm-822.13-1.0213c-1.1692-2.214-1.2739 2.1134 0 0zm816 0c-1.1692-2.214-1.2739 2.1134 0 0zm-22.468-4.0851c-1.1692-2.214-1.274 2.1133 0 0zm-761.87-7.1489c-1.1692-2.214-1.2739 2.1134 0 0zm742.47 0c-1.1692-2.214-1.2739 2.1134 0 0zm-743.49-5.1064c-1.1692-2.214-1.2739 2.1134 0 0zm730.21 0c-1.1692-2.214-1.2739 2.1134 0 0zm14.298-8.1702c-1.1692-2.214-1.2739 2.1134 0 0zm-34.723-4.0851c-1.1692-2.214-1.2739 2.1134 0 0zm-690.38-5.1064c-1.1692-2.214-1.2739 2.1134 0 0zm30.638-2.0426c-1.1692-2.214-1.2739 2.1134 0 0zm-15.319-4.0851c-1.1692-2.214-1.2739 2.1134 0 0zm55.149-11.234c-1.1692-2.214-1.2739 2.1134 0 0zm-29.617-1.0213c-1.1692-2.214-1.2739 2.1134 0 0zm15.319-5.1064c-1.1692-2.214-1.2739 2.1134 0 0zm609.7 0c-1.1692-2.214-1.2739 2.1134 0 0zm-578.04-3.0638c-1.1692-2.214-1.2739 2.1134 0 0zm7.1489 0c-1.1692-2.214-1.2739 2.1134 0 0zm548.43-5.1064c-1.1692-2.214-1.2739 2.1134 0 0zm-546.38-7.1489c-1.1692-2.214-1.2739 2.1134 0 0zm490.21-3.0638c-1.1692-2.214-1.2739 2.1134 0 0zm46.979 0c-1.1692-2.214-1.2739 2.1134 0 0zm-44.936-1.0213c-1.1692-2.214-1.2739 2.1134 0 0zm18.383-4.0851c-1.1692-2.214-1.2739 2.1134 0 0zm-457.53-10.213c-1.1692-2.214-1.2739 2.1134 0 0zm378.89-1.0213c-1.1692-2.214-1.2739 2.1134 0 0zm-312.51-1.0213c-1.1692-2.214-1.2739 2.1134 0 0zm40.851-9.1915c-1.1692-2.214-1.2739 2.1134 0 0zm80.681-21.447c-1.1692-2.214-1.2739 2.1134 0 0z"/>
</svg>
