<?xml version="1.0" encoding="UTF-8"?>
<!-- Created with Inkscape (http://www.inkscape.org/) -->
<svg version="1.1" viewBox="0 0 804.77 986.55" xmlns="http://www.w3.org/2000/svg">
 <path d="m353.87 984.51c-13.158-1.0346-26.935-1.5522-39.537-4.0851-13.742-.003-26.664-.62456-38.322-5.1064-12.79.61662-21.109-2.4832-33.079-5.1064-11.936.37029-21.056-5.3072-33.11-5.1064-8.2488-4.7018-18.17-2.1849-27.08-7.1489-9.0399-1.8617-18.873-3.6208-27.112-7.1489-8.7472-3.6828-18.215-4.6829-27.076-8.1702-8.4603-1.1345-19.083-9.3302-29.484-9.1915-6.3057-3.7833-17.597-3.1709-21.455-9.1915-10.566-.75506-15.435-5.6338-25.453-9.3064-10.847-4.702-22.386-10.864-34.802-14.222-8.1444-4.6628-19.372-9.0089-15.241-23.036 3.2935-13.421.23089-18.774 2.519-33.574l-1.0654-568.06c-1.7871-8.606.00954-26.559-2.0426-35.037 3.5693-20.635.50703-44.383 1.5319-66.213-1.2159-9.1279.81456-27.935 0-41.158-.065341-14.312.033128-24.67-3.0638-34.762 1.7076-12.029 17.616-10.303 23.489-16.165 9.2823-2.971 18.417-8.7265 28.282-11.234 9.3655-5.9433 17.356-5.9369 24.824-11.234 7.8912-2.8362 18.804-5.5251 26.024-9.1915 11.392-2.4459 20.855-9.0177 31.938-9.1915 9.055-4.7968 19.776-5.6361 29.356-9.1915 10.55-.81741 18.296-7.4998 29.878-6.1277 8.6411-5.896 20.232-4.6969 30.357-7.1489 10.186-7.2316 22.616-2.9199 32.441-9.1915 13.974.17792 18.682-2.834 34.026-2.0426 12.67-2.9145 26.05-3.9298 39.344-5.1064 15.442 1.2569 27.28-1.5268 40.348-3.0638 23.701 1.0783 49.405-2.1073 71.904 1.5319 11.406 3.9091 28.185-.80146 37.771 3.5745 16.073-2.3555 28.022 4.0695 43.461 3.0638 8.6924 3.589 23.507 2.3547 30.087 7.1489 13.844-.80782 24.763 4.6554 37.779 5.1064 8.637 2.1957 18.399 3.7943 26.496 7.1489 11.265 3.5941 20.209 5.7886 32.292 8.1702 9.3762 1.9176 19.772 6.9961 29.114 10.213 10.412 1.2919 20.663 7.2408 31.712 9.8435 9.1078 1.37 16.209 7.1138 26.186 8.5395 7.173 6.2406 16.789 5.7676 26.395 12.626 9.7837 4.9413 19.875 6.4849 26.159 12.905 15.612.68264 15.022 13.444 12.379 26.028.32601 57.707.65202 115.41.97803 173.12-4.0957 3.119.75034 13.034-1.3203 19.915-.49741 9.4231.14362 19.987 1.5126 28.085-3.2819 8.5162-2.6296 20.398-2.7794 33.435.4723 153.1.9446 306.2 1.4169 459.3.83098 7.9989-.88908 27.601-.15008 40.405 2.907 10.379 4.2439 24.731-9.4416 29.58-9.0739-.53311-16.208 8.3816-23.114 9.1915-8.294 4.3517-16.053 7.6318-25.657 10.213-9.5853 3.006-18.051 9.5662-28.012 10.213-5.7461 7.1013-18.863 3.9008-24.073 10.213-10.578 2.9092-20.079 5.6616-29.617 8.6808-9.9084 2.6226-18.857 4.7404-28.716 8.6808-13.143 1.6099-21.848 4.7936-34.475 8.1702-10.434.92643-21.318 5.1331-33.685 5.1064-10.069 6.2609-20.757 2.8427-31.805 6.6383-13.087 1.9478-25.705 3.7261-39.741 3.5745-9.8655 6.0937-26.554.84385-36.855 4.0851-31.964 2.3783-68.354.33146-102.01 1.0213zm37.641-9.7021c8.97 2.1246 24.584-1.4502 33.127.70991 13.69-2.5505 32.149-2.5195 49.111-2.2418 11.078-4.0751 26.429-.6455 37.623-5.1064 13.228.22156 22.876-2.2545 35.242-5.1064 12.193-.8874 23.632-2.9719 36.081-6.6058 11.979-1.2818 20.899-6.8508 33.011-6.6708 8.8875-3.9774 19.066-6.0094 28.716-8.6809 8.1301-3.6778 18.407-3.4581 25.652-8.6808 11.549-.66079 19.839-4.3598 29.909-9.7523 10.501-.81116 19.592-6.3112 29.716-10.61 10.028-4.8777 17.524-6.8733 26.958-11.047 11.026-5.4547 22.998-7.8635 31.462-14.749 6.0436-11.134 1.8055-24.243 3.3903-38.828-.45975-225.63-.91949-451.27-1.3792-676.9 3.7991-10.78-1.7886-26.199-.0817-39.694-.55459-14.388 3.864-32.784-14.874-35.862-10.648-5.2195-21.264-8.196-32.198-15.17-10.299-.39653-16.634-7.5521-26.61-8.3195-7.3402-1.5406-15.742-10.198-24.578-8.006-8.491-5.2912-17.234-6.6461-26.429-9.3557-7.9548-3.3544-17.204-3.836-24.25-9.1915-10.909.11002-19.853-4.0559-29.99-7.1489-9.2963-2.1509-21.671-1.0895-30.136-7.1489-11.853.67648-20.842-4.7655-31.985-5.1064-12.831-2.082-24.541-5.621-38.48-5.1064-11.985-4.7002-26.993-2.173-38.157-5.1064-16.515 2.3089-29.233-3.5371-44.789-3.1258-28.348 1.0622-58.139-1.3264-85.602 1.8493-12.037 3.3091-27.514-.86589-38.759 3.3191-12.057.55746-23.088 3.8182-35.13 4.0851-9.9531 2.5355-21.799 2.9-31.269 6.1277-11.624-1.2369-20.202 6.4631-30.956 6.1277-7.4131 6.2139-19.741 1.8779-27.257 7.1489-10.071 1.7113-18.79 5.1355-28.207 8.1702-10.627-.70592-17.266 7.2104-27.593 7.1489-9.4629 4.4592-20.764 7.2741-31.831 11.349-7.5152 5.4477-15.817 4.6739-23.254 9.0766-10.602 5.3573-21.729 9.9201-33.313 14.298-7.1372 6.2393-23.885 4.6794-19.381 19.448.46729 129.75.93458 259.51 1.4019 389.26-2.9084 6.757.37545 16.323-1.1722 23.713-.86478 7.9678 1.6319 18.322 1.0869 33.215-.70729 17.016 1.4171 36.864-1.0213 52.15 1.0116 7.6215 1.3128 26.212 1.0213 38.696-.82271 30.436 1.6456 62.236-1.2255 91.823 2.6714 10.595.74802 25.682-.81702 36.391 1.3603 8.9456 1.358 12.883.76596 21.949.63302 7.6066-1.6381 25.163-.29588 37.919 1.3186 16.205-1.5203 34.007 2.3758 49.222 7.9159 6.6062 18.938 9.5608 28.944 13.968 9.336 2.6914 17.118 10.675 27.194 10.287 8.0127 5.6335 17.203 9.0282 26.931 12.255 10.388 2.401 19.905 4.4654 28.589 9.1915 10.524 1.4125 16.676 5.1467 26.164 8.1702 9.6375 1.9301 19.635 5.6815 28.229 7.1489 9.226 3.5468 19.431 4.5668 28.833 7.1489 12.25-.3515 18.771 6.6054 30.786 5.1064 9.6609 6.4558 23.959 1.8714 33.684 8.1702 12.564.37533 25.213-.59507 35.242 5.1064 22.672-1.4229 41.865 3.3919 64.496 2.0426 6.9844-3.1534 9.3425 7.4052 15.278 1.5319zm-9.7545-12.85c-16.959-2.9201-37.873-.0149-54.824-4.001-13.108-1.3878-26.244-.0367-38.424-5.0414-12.742.1504-24.508-.5553-34.965-5.1714-13.201 2.1175-21.568-5.0967-33.85-5.1064-9.9377-2.5221-20.003-6.1808-30.751-7.1489-9.7168-1.9727-19.595-5.7993-28.458-7.1489-7.5472-4.8827-17.728-5.2912-24.657-9.1915-8.9008-2.6215-16.338-5.3589-26.043-8.1702-10.096-6.2774-18.471-5.5762-28.21-10.213-5.7742-3.0303-16.29-6.0826-22.27-9.1915-9.8151-3.4617-18.608-7.6743-26.626-11.745-10.679-6.3816-2.8272-28.114-5.7608-41.063-1.0646-243.7-.85886-487.41-1.4343-731.12 11.241-3.1512 16.048-10.136 26.482-10.626 6.165-4.9091 16.607-7.2177 23.357-10.213 9.3225-4.3758 16.747-8.1594 28.254-10.213 5.4942-3.2193 14.571-6.401 21.788-7.1489 7.8354-4.1264 19.922-6.9679 26.285-10.213 11.039-1.4599 20.388-5.3008 30.711-8.1702 11.003-3.1573 20.582-2.2941 31.554-7.6902 11.637-1.5825 21.834-3.9448 33.111-5.5864 10.662-3.5127 22.809-4.5354 33.823-6.1277 12.189-.32366 24.884-5.556 38.797-4.0851 17.356-5.105 40.964 1.004 58.329-4.0851 16.066.91109 34.644-1.7744 49.215 1.2766 9.5818-2.5401 24.649 2.6522 38.036.76596 12.017 2.7751 26.998-.23187 39.014 5.1064 12.544 1.2484 27.738-.39216 37.253 5.1064 12.269-.49673 20.617 2.9041 31.409 5.1064 10.106 1.5105 20.346 2.8416 29.77 7.1489 12.263-1.4694 18.671 5.7839 28.986 6.1277 9.7593 2.9334 19.166 3.4532 26.261 9.1915 9.1715 5.6473 19.806 5.6478 30.434 8.1702 12.046 3.3252 19.025 6.8526 29.676 11.234 7.3746 1.1092 16.93 7.0623 25.551 9.1915 7.0027 4.5604 17.891 7.095 25.189 10.213 14.484 3.626 10.881 18.896 11.034 33.613.15284 70.611.30568 141.22.45852 211.83-2.9759 9.7361 3.5112 29.944-1.6987 42.728 1.3921 11.696-.32074 19.943 1.6902 34.54-1.4812 12.689-5.7658 26.587-1.248 40.02 6.3473 14.196-7.8859 27.574.97938 41.655-2.1427 11.381-.87462 19.575-2.1735 33.553 2.0111 14.002 1.243 18.962.39957 33.456v305.79c-10.971-.12449-17.717 7.9748-26.678 10.213-6.7642 3.321-15.937 4.9134-23.614 10.213-7.705 1.5747-14.015 4.2475-23.481 8.2894-10.478 2.7702-19.054 6.5143-29.255 9.0723-7.0723 4.1855-16.032 5.2893-23.61 8.6808-9.6601 2.7671-19.148 4.3187-28.716 8.6808-11.865.52072-23.605 4.528-35.356 8.1702-11.097 2.1066-19.359 5.224-30.657 5.1064-9.8608 6.4309-24.001 2.5838-34.974 6.6383-12.498 2.1225-23.379 2.4423-35.54 3.5745-15.777.61979-30.546 3.6543-47.14 2.2899-16.878-1.9784-30.137 4.7954-47.022 2.8165.21228-7.2858-9.5442.43025-10.411-1.1055zm74.924-7.0717c12.865-2.5388 28.835-1.5784 41.7-4.0782 12.777-1.1738 25.541-2.66 38.128-5.1064 11.52.53357 19.638-4.8991 31.886-5.1064 10.466-2.5687 21.774-4.2116 31.845-8.1702 10.697-2.4703 20.721-5.5176 31.538-7.1489 10.577-5.1517 21.111-4.7503 31.845-10.213 8.4148-1.8023 16.599-5.1737 24.254-8.1702 9.4093-1.1034 18.427-7.6357 27.664-10.213 10.387-2.2748 17.653-9.432 27.696-9.1915 5.1773-6.9748 21.436-6.5771 20.983-13.438-6.4979-5.687-28.185-17.674-10.64-12.094 11.168 9.2928 22.428 8.2433 17.482-10.667v-105.09c3.0691-9.1095-.81738-18.203 1.0213-26.203-1.3419-4.4713 2.3976-35.386 1.0213-22.638-3.7521-8.9061-.84801-22.444-1.0213-31.489 1.1913-9.2595.83578-17.202-1.0213-27.404.80884-5.9528 1.7986-36.845.76596-31.234 1.6543-6.2945-1.2701-17.258.79765-27.145-1.6936-20.134-.39025-36.048-.35149-56.428.38694-134.96.77389-269.91 1.1608-404.87-8.3026-.48074-17.304 8.6157-24.95 10.909-6.971 8.2296-4.421 25.743-4.8355 38.809-.0548 72.641-.10969 145.28-.16454 217.92-.4686 8.0526-.95424 22.232.003 32.163-.95067 13.543.97275 25.37-2.0426 33.828 3.5346 8.8024.27713 22.984 2.0426 30.29-.89227 15.527 1.7508 33.594-1.2766 47.587 3.546 11.845 1.527 31.885 2.449 47.016-1.0402 7.3702-2.783 21.367-2.1937 33.373.44741 8.4223 3.359 14.181-.49133 24.543 2.2287 6.9261 3.7782 15.703.49133 22.971 1.8821 11.001 1.6759 19.534 0 30.24v166.74c-7.3251 7.9901-18.269 8.0726-27.816 13.057-7.4874 4.7755-17.308 7.53-26.432 11.075-11.075 1.1972-22.374 7.6926-32.26 10.213-11.157 2.6129-22.58 5.1574-33.492 10.04-10.922 2.759-22.075 5.5847-30.63 8.343-12.048.98522-20.124 5.626-31.928 5.1064-8.5282 7.4132-22.766 2.7436-32.533 7.1489-11.829-.28885-22.469 2.8742-33.005 4.7908-23.463 1.8996-45.632 4.6505-69.631 3.1188-39.658-1.1172-81.276 2.1054-119.32-4.8917-11.887-3.8034-24.744-3.2653-37.322-5.6508-13.786.59051-22.428-5.4598-34.331-6.5644-10.569-.18272-18.153-6.4731-28.637-5.1-12.097-3.4478-20.725-6.3444-33.785-10.213-10.474-2.325-19.099-9.2475-31.687-8.9282-11.925-5.8228-20.25-5.8254-32.424-10.754-6.3217-4.6167-14.267-7.6888-23.943-8.914-6.4676-1.6683-19.905-16.247-27.437-6.1277-8.5125 4.2247-24.08 14.328-7.9081 20.41 8.8203.79959 14.777 6.0065 23.609 8.1855 8.4402 2.2296 15.17 6.1482 24.048 9.1915 10.002 1.8527 19.106 10.008 30.944 9.3813 7.4663 4.6702 17.976 5.7158 24.085 10.023 9.1734 3.5164 18.801 2.373 26.171 7.1489 9.9933 2.4505 21.195 4.2192 30.218 8.1702 11.958-1.2189 18.969 6.1969 31.839 5.1064 8.8414 3.626 20.272 3.974 29.339 7.1489 11.809-.0205 22.949 2.4579 33.2 5.1064 18.527-1.0149 34.588 3.5552 53.463 3.1326 20.7 4.5999 44.928.68091 66.998 1.9738 11.258-.73307 24.843 1.4339 34.825-1.0287zm-35.917-35.738c-4.2894-4.8112-6.9069 4.5175 0 0zm15.83-5.1064c14.326-.42099 4.1756-12.51 16.08-16.34 11.208-3.1976 16.697-13.312 23.211-22.708 2.045 5.0738-14.666 28.735-1.2612 17.874 8.1986-21.991 3.1817.40988 9.97-5.2803 6.36-9.0929 10.94-23.557-1.6651-31.944-7.8819-8.1388-11.921-18.169-14.165-28.309-5.5125-12.714-4.8951-31.697-3.0638-46.568.8057-9.7114-13.967-17.17-8.3912-32.649-.20652-16.314-2.5476-37.204 13.075-45.479 6.41-4.8672 24.153-6.6154 31.737-.44967-5.64 9.2839-6.729 21.077-6.803 33.01 5.4606 8.1202 1.4917 29.193 16.405 27.695 5.4973 5.9266 13.26 14.049 21.131 17.055 6.9646 14.788 18.317 3.9633 26.139 13.584 9.6331 2.5487 18.101 9.805 25.023 16.554 8.0641-2.1875 1.9269-27.238 4.0792-38.211 7.3194-6.9738 1.8157-21.825-.8625-29.107-1.9491-10.942-11.982-19.326-15.126-26.677-.30176-12.367-16.12-12.551-22.781-17.538-9.4556-1.1698-38.491-8.3289-17.284 5.523 3.0698 10.603 31.25-2.5056 16.319 3.6685-13.709 2.221 4.9221 24.204 10.772 15.319 22.369 7.3557-7.0776.89706-1.0055 9.1915 8.042 9.4455 3.7582 18.318-3.8975 3.3637-5.464-14.529-21.536-26.045-33.933-35.023-9.8033-4.5015-17.307-8.3694-28.813-7.1489-16.131-7.9818 7.6007-8.8049 16.02-7.9171 12.855-10.07 1.0293-5.9797-3.1359-12.508-8.7691-3.7433-22.192 10.476-17.22-.0603 1.3132-3.3803 13.447-21.426 1.922-15.259-6.9525 5.3602-9.7419 11.491-11.114 20.426-5.4349 2.4064-15.292 15.379-13.156 14.298-10.626-.75532-9.6444 21.259-11.355 31.198-3.0146 10.699-2.2313 19.037-10.723 27.015-10.056 8.2129-6.5215 22.228-3.5745 33.256 1.6185 11.219 2.505 24.077 6.9074 32.105.32832 15.409.28131 23.936 8.4118 32.381.40683 13.337.43114 26.411-3.0638 37.066-6.5418 8.5953-11.725 19.414-21.064 27.295-5.7351 3.613 6.2232 2.8653 6.2551 1.3004zm40.34-40.791c5.6005-11.27 4.3269 6.9599 0 0zm-5.1064-10.273c2.4244-8.2708 2.1712 7.9501 0 0zm-7.1489-16.34c11.532-1.2829.73756-.92187 0 0zm-12.255-36.766c4.0494-5.0875 4.4941 4.6935 0 0zm1.7339-7.947c-7.004-11.429 21.327 4.5671 0 0zm111.63-18.606c5.685-10.003 3.5099 8.5232 0 0zm14.553-16.847c-3.6875-9.197 7.1271 5.7736 0 0zm-37.021-6.6678c3.6374-6.6423 11.148-17.939 7.1489-3.1559-2.5306.89434-5.6908 12.971-7.1489 3.1559zm-7.7416-15.65c3.5924-16.234 8.5589 6.4536 0 0zm34.295-3.2183c2.4095-6.3586 2.2914 6.0803 0 0zm-46.424-8.6103c1.6626-11.115 8.9262-13.907 3.5309.9507-1.0892-.47434-3.273 1.0147-3.5309-.9507zm-8.2665-3.2197c2.1169-18.556 11.057-6.2094 0 0zm-58.671 176.26c-4.8812-9.229-7.6332 10.257 0 0zm8.6808-6.6383c-5.1843-3.965-.76087 4.4491 0 0zm-48.431-12.584c3.879-4.855-2.7802-29.68 4.0053-22.285 5.7997 7.3582 1.9427-24.375 3.0638-32.479 4.024-5.2482 5.0112-18.497 7.1484-24.631 9.1524-5.957 3.5016-21.06.33895-28.666-.90251-21.384-7.9692 2.5959-10.552 10.177-12.362 5.4615 2.0194 21.449-12.576 24.506-6.122 8.1482-18.548 19.275-9.8917 29.02 1.688 10.163 9.5743 19.448 13.288 29.99-3.0717 5.2818 6.9363 31.842 5.1755 14.367zm-3.399-30.022c-3.4421-6.485-10.66-17.945-7.842-22.756 4.8348.87712 10.733 25.921 7.842 22.756zm3.3192-23.327c1.862-5.1863 2.5486 6.0771 0 0zm2.0426-11.684c2.2235-9.4865 8.1427 10.551 0 0zm3.8808-9.3958c8.4556-2.4757-2.3868 5.4277 0 0zm2.7919-2.8215c-9.827-14.777 15.448 8.3254 0 0zm1.4975-12.804c3.4868-.34208.94496-1.1235 0 0zm-383.95 68.644c9.9089-6.1437 22.938-12.082 18.612-27.078-.46347-235.12-.92695-470.24-1.3904-705.36-10.491-8.6764 14.3-1.833 18.43-10.763 10.634-5.2824 23.06-7.0886 32.62-13.03 11.942-2.9219 22.334-5.4814 31.165-9.8176 11.765-2.1562 21.508-3.9236 30.463-9.8338 11.694-.56374 22.997-6.2992 31.912-8.1702 11.011-1.3951 20.32-5.5728 32.058-5.1064 10.501-2.7331 20.844-6.267 31.245-7.1489 12.684-1.2857 25.016-5.896 39.142-4.6967 14.268-.68878 25.003-5.387 40.567-3.4735 29.958-3.6461 63.163-1.4676 94.833-2.0426 11.498 4.3206 28.095-1.6827 38.669 5.1064 20.95-.38076 42.662.90384 60.628 7.1489 14.305-2.0441 23.064 7.0014 37.148 5.1064 9.8374 1.9538 18.721 4.7902 26.955 7.1489 10.584 3.7017 21.777 3.8226 31.189 8.3704 7.3944 3.3235 20.247 6.1078 30.62 9.9284 11.707 1.9583 23.747 7.1609 33.222 11.318 8.5968 2.149 17.92 3.5499 22.987 10.213 9.8837 1.6623 23.433 11.069 31.27-2.4137 14.827-4.0594 12.988-11.765.51787-15.97-9.4837-2.3386-16.788-6.5682-26.201-10.213-11.119-3.2644-20.067-8.4016-29.784-9.1915-7.3121-7.9439-21.702-4.2468-28.075-12.255-10.067-.55841-19.024-4.3328-27.948-7.1484-10.162-2.7078-19.093-7.2943-31.101-7.1489-8.8041-5.0091-21.367-7.1058-33.236-8.1702-7.3724-4.7586-22.227-4.7955-31.024-7.1489-12.015-1.6517-22.608-5.3897-35.185-5.1064-13.183-1.1266-27.036-3.3838-38.347-5.1064-15.47.30483-30.978.54385-44.619-2.9349-27.527.81994-56.307-1.1211-82.412 2.9349-14.826-.75098-25.094 1.118-36.997 2.0426-13.124.6038-26.295 1.0945-37.509 6.3103-11.294-.47583-23.807 2.5092-33.759 3.9025-10.521 1.5463-19.511 5.5392-30.82 5.1064-7.1939 8.6223-20.454 3.013-28.781 9.1915-8.2232 2.65-18.553 3.6239-27.77 7.1489-7.3884 1.4412-17.058 6.2495-26.043 7.1489-7.3909 4.2679-15.419 6.1706-23.952 8.1702-8.279 4.6341-14.734 7.6583-24.048 9.1915-7.1249 6.3865-17.906 7.5725-24.725 11.745-7.9712 2.8466-21.743 6.8341-7.0076 16.659 17.265 8.7902.62863 6.4629-5.9824.37999-13.856-9.2953-4.6231 23.795-7.2511 32.891.26634 220.09.53268 440.18.79903 660.27-.89534 9.6417-1.1869 26.672-.33151 37.339-1.1812 3.0504-2.0461 27.865 9.2454 14.553zm394.86-39.73c-1.7219-5.7545-.0591 9.0208 0 0zm-32.239-44.745c13.21-9.8146 27.155-23.057 35.626-36.857 3.4289-7.6535 10.509-18.606 8.1702-27.352-3.099-9.459-.18679-16.934-5.1064-26.287 2.4515-14.662-15.382-17.698-5.1064-2.1906 1.9721 10.486-14.234 7.1029-6.2398 21.258 10.439 12.388-16.652-5.0356-3.9729 13.465 8.2056 15.28-13.172-5.2904-8.1702 14.482 3.6143 3.2541-12.861-.55646-2.7856 14.467-14.481 16.737-1.348-14.451-10.286-11.265-4.6326 7.7686-12.32 16.467-14.502 23.428-4.6794 5.1172.0304 24.746 10.182 19.11l1.7725-1.8264zm-101.22-11.777c3.3191-7.389 6.655-22.706 15.112-26.145 15.132-6.5807 15.662-22.563 27.594-32.391 3.1148-9.0674 13.371-18.487 9.3784-29.262 1.7331-14.989-5.8604-26.637-18.594-35.745-8.148-4.0384-10.024-6.8612-2.8524-17.997 7.6154-14.01.34525-7.6418-8.1228 2.7265-4.2065 10.871-15.778 7.2557-22.624 15.095-7.389 4.8954-25.43 17.345-22.037 26.305-3.2812 8.2312-14.482 21.667-10.87 29.53 12.331 4.3115-3.1012 17.632 8.506 22.718 1.3553 10.985 1.8654 22.843 6.1902 32.431 4.4129 7.6562 5.2977 19.732 18.32 17.362l-4e-5-2.5451zm21.936-52.588c5.1173-2.063 2.055-1.0295 0 0zm-21.17-3.623c-4.0631-11.446 10.487-21.899 1.3947-5.3923-.73025.35511.36979 8.4316-1.3947 5.3923zm16.243-1.2844c-7.9846-20.009 10.425 7.969 0 0zm-38.967-9.3664c16.013-7.1215 14.397 4.8889 0 0zm48.097-1.9416c-11.872-17.197 18.803 12.891 0 0zm-20.686-5.7754c-.0536-22.812 4.2856 6.6123 0 0zm14.206-3.0022c-5.6404-13.67 8.6425 5.9811 0 0zm-36.482-8.6387c13.423-7.979 22.291 2.786 0 0zm42.354-9.2379c.63693-6.0367 9.877 5.9009 0 2.0426zm-14.298-.88612c4.3371-6.3477 2.3696-20.408 11.234-21.582-1.0358 9.7101 6.8742 27.75-2.1477 11.882-2.829-16-3.3712 17.099-9.0863 9.7005zm-17.829-7.2135c2.3597-6.4513 11.423 3.683 0 0zm79.757 99.504c8.3261-4.7944 15.954-14.823 23.859-18.932 4.3233-13.659 15.345-16.884 16.691-30.937 4.8257-10.989 7.3446-18.5 10.884-27.857 4.9584-8.3404-.42892-18.309-2.0426-26.363-3.7752-9.034-11.207-16.394-19.545-20.029-6.196 7.5714-2.2192 25.426-3.7885 26.217-5.6657-7.5306.39096-16.46-9.3469-17.612 15.082-7.1996.41818-20.658-3.5664-25.933-10.791 2.4573-18.419 14.939-23.433 23.667-2.9684 9.6327-6.0948 23.08-5.6817 29.44 3.8742 11.893-1.2996 22.332-4.0851 33.504 4.1267 10.558 8.7826 19.702 10.213 30.868 7.9288 7.1207-.31494 19.938 9.2556 25.5zm1.0788-32.531c.88797-10.543 9.5678 5.526 0 0zm14.288-5.5528c-5.5773-11.276 9.689 6.3958 0 0zm-11.423-19.618c6.6548-4.2355 2.0755 4.6456 0 0zm27.83-1.6045c-6.5035-8.7671 2.3968-14.531 0 0zm-35.828-5.2018c-.47029-9.4128 21.921-8.7906 3.9127-1.8746-1.2571-.18891-2.7803 4.2196-3.9127 1.8746zm20.254-3.4043c2.4571-12.257 8.9071.47449 0 0zm19.658-14.202c-6.6818-18.931 9.0708 10.778 0 0zm-37.021-3.1622c9.1267-7.0474 19.915-10.385 6.1535 1.0213-.80634-.78078-8.6764 1.4424-6.1535-1.0213zm21.957-5.5568c7.1483-.69852 1.9534-.62199 0 0zm9.4468-.056c-5.6404-13.67 8.6425 5.9811 0 0zm5.8723-12.77c2.4244-8.2708 2.1712 7.9501 0 0zm-26.896-5.7895c2.1033-10.711 11.275-.23111 0 0zm-189.61 48.683c7.8204-8.0011 15.103-14.692 26.043-19.404 9.6354-9.0826 23.236-12.746 32.245-25.471 11.918-4.7669 22.347-12.962 31.733-23.834 6.0765-10.035 7.2673-21.509 5.1632-31.172 1.1917-14.939-10.688-4.1343-17.712-10.417-11.466-.46341-16.108 7.8324-25.897 11.234-6.8868-.43943 19.963-19.386-4.1872-13.277-7.1649-.54434-17.781 2.721-26.491 9.2562-15.571-.45731-2.9675 14.104-14.769 17.253-9.1762 8.6029-7.3604 19.803-8.763 32.39-2.599 11.176-5.3635 22.621-8.5987 34.036 4.4959 4.3852-.33762 29.073 11.234 19.405zm9.6594-28.849c-3.0044-18.836 7.7196 3.5239 0 0zm11.787-5.749c-7.069-11.68-2.1686-21.274 2.0426-3.8016.65982 2.1523-.41053 10.031-2.0426 3.8016zm11.825-13.548c-3.6462-21.986-.13601-17.91 3.4943-.29969.81213 3.9345-3.0649 4.733-3.4943.29969zm-31.229-3.9389c4.6497-8.5095 6.1107 8.128 0 0zm47.745-10.798c-5.281-3.3987-1.8019-32.84-.76596-12.904.30431 3.7066 4.3778 11.682.76596 12.904zm-40.596-5.5426c6.3855-4.814 10.133 4.2501 0 0zm6.3319-13.481c-4.6858-9.5234 13.779 2.7433 0 0zm48.817-.81702c-6.66-20.747 8.5695 7.1646 0 0zm15.83-1.0213c6.6548-4.2355 2.0755 4.6456 0 0zm-41.872-6.1276c6.1185-7.9957 1.3307 9.131 0 0zm5.1064-5.1064c12.659-9.0417-2.5457 9.2561 0 0zm-11.745-1.0213c11.532-1.2829.73693-.92195 0 0zm399.32 96.511c8.4734-3.8455 17.806-4.8382 26.343-8.6808 11.78-1.5804 15.593-14.486 6.3377-22.19-6.5216-9.392-16.777-19.392-27.188-22.746-13.103-1.4957-21.072-13.045-34.915-10.213-16.965-2.8114-25.367 1.3362-16.535 14.515 12.862 13.658-5.1706 1.4544-7.1713-5.5641-10.105-11.059-21.907-20.216-32.659-27.771 7.8391.55444 16.33 5.0024 24 9.6856 14.33 9.3483 30.705 1.0182 45.593 1.9861 16.215-2.6599 20.415-12.248 1.3922-13.277-3.6054-16.276-12.923-1.0917-12.772-7.0887 5.8471-24.191-5.9172 3.7469-8.2635-7.8218 1.9332-13.925 8.5061-22.389 12.349-5.7652 6.3722 9.1864 15.925 19.491 25.532 19.569 9.822.77507 13.724 20.045 19.813 16.426 11.308-1.4602 10.368-22.124-1.7358-21.309-22.291-12.352 2.0717-10.743-6.843-21.901 4.4448-9.8713 16.774 13.815 25.937 13.593 16.672 5.4678 29.502-17.925 5.342-13.259-8.0164-7.1626-18.457-11.198-26.173-14.315 7.8101-1.7201 22.748-3.719 27.84-13.399-16.024-15.461 11.289.0427 11.99-15.016 3.017-13.848-10.217-20.462-18.894-24.76-5.7836-6.9308-12.682-14.88-22.183-9.3331-9.6854 9.0708-24.722 8.119-33.029 18.91-6.2408 7.4295-7.5814 23.287-19.813 27.015-9.6646 14.179-9.6626 11.257-7.1876-3.8422 14.63-2.2151 16.101-12.083 7.3604-8.302 4.68-8.4957 15.25-19.415 12.214-19.272-.16292-3.3304-10.864-3.2214 5.7842-7.999-3.9546-8.939 7.8437-17.726 7.0458-28.38.81538-17.758-10.729-32.241-24.369-44.812-1.5787-14.365-22.867-19.856-29.883-6.6383-11.079 3.6413-13.628 17.02-24.109 21.469-3.931 5.7569-4.635 12.275-1.6349 11.212-9.6117 2.5326-15.727 22.908-2.056 10.733 8.623 2.7345-14.881 6.5466-13.672 15.792-.68688 14.402-4.8168 26.736-2.2066 42.321 1.6757 11.02-3.753 22.444-8.0061 29.196 3.5301 10.74-5.4894 29.61-8.1703 9.3198-1.1699-11.51-12.041-12.04-19.978-17.489-20.812-1.0507 2.0889 13.497 4.4351 21.388 17.636 11.746-11.155 8.2334-1.5768 28.144.95696 13.45 19.116-5.6414 9.9711 11.226 1.8307 6.7368 7.5208 16.628 11.234 24.008 4.4186 10.573 14.482 21.044 23.991 28.596 9.1748 6.6842 19.781 12.833 31.929 12.255 9.5305 6.4018 23.275 2.6696 33.952 6.6383 9.6292 3.1758 20.185 13.239 30.638 7.1475zm-15.319-19.915c-17.792-9.0834-3.9315-15.082 5.5531 1.0213-1.0584-1.0925-6.2725 1.8347-5.5531-1.0213zm-17.132-4.3585c-16.742-23.726 23.45 12.203 0 0zm29.898-.74792c-3.041-2.3413-21.457-8.4085-14.513-11.566-.10535 2.6821 30.194 13.846 14.513 11.566zm-5.0961-12.239c-18.376-2.3852 5.997-10.147.64148 1.0379zm-74.436-11.333c-8.4826-12.316 12.842 5.2078 0 0zm66.766 1.1036c-13.932-5.8521 7.3499-5.6363 0 1.0213zm-76.506-3.4792c-6.4074-12.255 13.079 5.1148.60336.64225zm67.315-6.7335c7.7542-.80634-.20823-.18925 0 0zm-91.915-18.869c-.7284-19.35 4.9482 1.9883 3.494 7.3222-5.9102 7.8141-2.7006-4.2714-3.494-7.3222zm-7.5192-10.812c3.7931-6.9794.12564-23.205 10.838-15.873 9.1085 8.6732-7.3692 11.596-8.017 16.958-2.6184 2.642-2.2446 3.2663-2.8213-1.0851zm30.703-11.816c1.101-20.133-8.7556 8.7179-7.8651-13.811-3.0476-16.419 18.732 3.144 27.574-1.8843 7.9924 2.2776 19.993-.82922 25.532-6.1277 10.266-2.818 17.766-7.8602 26.834-15.639 8.1595-5.0138 14.66-12.901 21.966-21.373 1.1591-5.8463 20.314-17.749 16.708-9.5336-5.3271 7.5811-16.975 13.784-15.465 19.38-8.6628.11861-9.0057 22.334-17.638 17.719-16.139 1.7902 21.102 12.549 4.3337 13.532-11.886-8.0278-30.754-6.2999-28.413 10.583-3.3536 2.0183-3.9135-20.559-7.5597.83593-4.0925-1.9156-9.478-3.0605-12.025-.6648-5.6353-13.189-6.0812 8.7473-14.273-2.5836-3.87-1.0595-10.76 16.447-11.948-.92634-10.787-8.6329 2.4243 15.825-7.7617 10.494zm-16.217-9.1651c-1.5023-17.309 11.212-1.6692 0 0zm109.02-14.666c10.173-3.3357 24.63-32.608 30.562-20.957-3.1299 8.5917-16.911 14.211-25.97 21.908-.88841-.43592-10.945.79934-4.5916-.95134zm-108.52-2.714c4.5706-8.7843 10.311-20.172 18.692-29.555 2.139-10.602 8.8689-16.371 13.571-26.234 8.203-6.247-8.8951 19.769 1.1183 12.511 10.699-1.7311 19.509-7.2303 30.103-7.1489 21.483-.32365 11.591 1.5571-1.5078 4.0851.40832 6.3215-17.335 2.549-14.298 9.2766-11.633 2.7709-23.409 4.0348-8.1702 9.1064-22.355.0716-4.9754 8.662-4.5877 7.1489-18.28-1.9481-19.963 8.6691-.63924 5.1064-1.035 4.4187-27.576 5.8049-7.0284 9.2502-7.7706 2.9808-19.58 4.5235-26.617 8.1115zm51.764.84132c7.4223-8.881 13.534.76352 0 0zm65.362-11.438c2.4245-8.2708 2.1712 7.9501 0 0zm-63.319-.89623c5.8618-10.744 4.9493 5.6917 0 0zm65.362-4.2102c2.4244-8.2708 2.1712 7.9501 0 0zm3.0638-5.0461c6.1195-21.637 5.4691 7.841 0 0zm18.894-5.1667c13.018-9.337-2.5093 10.242 0 0zm12.962-4.3866c-2.4879-9.2289-7.6399-19.794-18.142-11.516-5.9352 14.092-11.262 13.292-3.5015-.58359 7.3295-9.1926 22.146-6.8267 25.96 4.629 2.9401 1.5071.1002 15.256-4.3164 7.4706zm-23.175-18.081c15.031-11.134 3.0551 6.6892-.14068.15545zm-61.277-13.277c7.9279-2.7596 4.2492 1.2227 0 0zm2.2743-9.8108c4.038-12.151 10.261 2.5374 0 0zm-10.617-11.205c11.482-20.623 15.929-6.6323 0 0zm9.8742 1.0284c8.9754-9.1485 13.802-.20979 0 0zm-23.842-6.3904c-1.7698-12.312-4.675-30.671 1.3392-42.012 6.571-7.3463-1.633 19.019.54506 16.305-1.3588 7.995-3.4406 20.046 3.5745 25.532 1.5003 3.5603-5.1094 2.5109-5.4587.1749zm7.1378-.87876c6.5206-13.721 15.999-7.8434.70386.70386zm-.65784-9.1464c5.5927-14.301 3.7376 6.2787 0 0zm12.255-.95174c9.0256-14.323 14.657-1.8003 0 0zm-7.1489-6.3679c8.6162-20.005 6.9175 4.729 0 0zm-5.1064-5.238c2.472-8.2616 1.9229 6.8237 0 0zm2.0426-4.9756c11.291-19.898 7.3678 4.8353 0 0zm-2.0426-7.2547c6.4699-16.486 3.2319 7.6927 0 0zm-112.87 233.26c7.8995-7.152 11.478-16.137 15.959-22.96 4.2221-9.412 7.6422-22.342 8.5508-32.681-3.4119-10.585-6.2938-21.455-12.747-30.384-4.4647-8.5227-14.679-11.862-22.468-14.552 3.3426 16.362-1.1322 7.2699-7.6185 2.9973-3.1348 3.3281-1.1687-22.593-10.342-11.678-9.2998 16.824-5.6387 4.2312-2.4651-4.6096-5.0383-17.763 7.0282-8.0098 12.255 1.3913 2.7009 13.96 20.833 6.1754 27.392 17.327 15.07 15.771 5.3117-3.1822.18242-10.284-4.1943-11.817-19.375-18.036-30.654-20.184 4.36-8.7116 13.861-1.8409 12.271-16.711 8.3453 12.03 9.313-2.2576 7.6804-15.136-9.9831.98192-9.1194 9.6803-12.787-6.2888-19.426-14.406 9.4105 3.4248 5.287-3.4945-7.3474-6.6811-20.121-18.389-26.734-5.6823-5.2783 14.042 12.696 23.029 11.043 31.84-5.7243 1.4939-19.565-2.7149-24.567 5.8664 7.569 17.223-3.8964-3.7301-14.305 2.6437-3.7093 13.03 11.074 18.882 2.2979 27.668-3.8579 9.9136-4.277 19.547 0 30.62-2.9407 12.379 10.354 16.012 15.733 20.694 10.437 9.8903 15.646 22.038 27.161 31.435 7.5316 8.0714 2.1384 21.202 10.723 28.698 3.478.43879 5.3608-4.8951 8.1514-6.5358zm-7.8479-33.72c4.7226-12.842 17.45 1.0743.6438.6438zm14.505-4.5587c2.2236-9.4865 8.1426 10.551 0 0zm-19.915-11.234c14.173-11.071-7.5096 12.445 0 0zm5.0514-5.1954c.73788-12.358 3.6886 5.7296 0 0zm-17.817-6.9349c5.004-15.74 8.9472-7.8869 1.0213 2.9388-2.0384.71843-.91316-1.7269-1.0213-2.9388zm31.897.89623c-1.248-9.6619 6.7458 7.4406 0 0zm-8.7476-5.7872c-3.6482-18.525 5.5392 2.0366 0 0zm-40.511-4.2126c4.8945-12.928 4.9642 5.5365 0 0zm50.043-4.298c-16.009-5.1242-3.2015-8.1195 5.423 1.0213-1.0008-1.1247-6.192 1.8657-5.423-1.0213zm-40.057-6.6952c-2.4712-9.3982 10.55-2.2181 0 0zm7.3761-9.6452c2.4245-8.2708 2.1712 7.9501 0 0zm-26.992-25.416c2.9681-10.954 5.8704 4.8736 0 0zm36.694-32.797c.22754-5.327 8.0756 4.3526 0 0zm-11.117-12.73c-4.6504-11 7.8442 6.4022.25449.3884zm66.776 141.92c-2.2482-12.101-1.9659 11.11 0 0zm10.213-.51064c-2.4245-8.2708-2.1712 7.9501 0 0zm-12.766-19.915c-5.7655-10.194-6.2743 10.335 0 0zm-2.5532-10.273c-1.6278-9.857-2.4261 9.9099 0 0zm0-8.6206c-4.2896-4.8111-6.9068 4.5175 0 0zm-144.37-19.915c10.182-4.0424 20.95 3.3716 30.595-3.5745 15.532.4076 9.5397-18.275 12.668-28.181 2.2592-13.589-7.2902-17.698 0-25.606 8.2364 2.5218 17.806-11.269 22.971-6.4681 13.522.61547 14.444-8.0606-.49519-13.277-10.252-2.748-25.186-4.5029-33.935 3.1117-15.466-1.7455-10.729 14.5-17.136 21.649-3.4906 12.292-16.482 15.5-21.286 26.523-5.5283 6.579-13.869 19.467-3.8796 24.511 1.4538 3.153 9.2344 4.6418 10.498 1.3116zm13.646-11.076c6.7442-21.488 2.3278 18.194 0 0zm12.255-6.2859c1.6883-21.495 3.4797 20.895 0 0zm-27.574 1.0213c2.4095-6.3586 2.2914 6.0803 0 0zm10.213-18.689c8.0752-10.928 16.313 5.551 0 0zm20.426-11.949c-15.848-8.3502 19.726-1.3362 4.1048 2.5532-2.1355.92245-2.8329-1.4794-4.1048-2.5532zm7.1489-15.83c-17.205-7.5839 15.524.77906 0 0zm17.009-7.9953c-5.5028-11.136 12.916 7.4146 0 0zm-121.18 49.357c12.262-.61561 26.179-5.6942 37.787-1.0406 9.283-4.0769 16.071-9.7851 25.006-14.789 10.23-8.747 27.212-22.228 18.951-36.514-12.224-8.759 10.696-12.685 7.1068-2.4154 5.2724-.92943 21.953-5.6279 18.965-13.077-9.4904-7.2078-23.669-9.2435-30.765 3.5897-8.0688 8.685-13.339 16.637-24.274 17.777-7.4244 10.271-22.982 7.4019-28.363 17.158-6.5955-5.2784-22.656-1.0493-22.372 9.0679-3.0566-8.7602-17.662 3.0941-22.468-3.7578-10.328-.51821-18.425-16.216-28.851-5.2905-2.4728 7.915-12.354 16.599-14.043 24.184 4.5431 6.2028 26.138-1.4527 37.873 1.6047 8.1751.52016 18.11 6.9376 25.446 3.5025zm-46.468-11.745c6.1186-7.9956 1.3305 9.1309 0 0zm20.936.36791c7.2409-16.139 5.0131 7.9733 0 0zm43.62-1.0031c1.9578-17.865 12.156-9.7596 0 0zm17.656-4.8249c5.8949-24.445 4.3464 8.3295 0 0zm-73.532-1.6888c7.291-6.3387 19.648 8.5168 0 0zm88.851-15.319c4.6768-8.856 5.0957 8.4534 0 0zm12.643-8.632c.98645-12.652 9.6656 6.4526 0 0zm333.06 39.27c8.2164-.74256 24.795-6.5269 17.872-17.297 1.465-16.751-16.326-8.9575-13.933.74371-1.4127 8.2307-27.883 16.764-8.1639 17.574.95501-1.1532 3.9788 1.4042 4.2245-1.0213zm-410.29-24.255c-3.5887-6.5902-14.203 6.2015 0 0zm26.292-7.4043c9.2549-3.8818 18.418-3.6145 26.643-8.6808 8.6473-5.8032 16.576-12.782 27.149-14.456 5.6539-12.913 21.248-19.31 28.421-30.48 3.5536-5.7757 17.862-23.474 16.34-7.6596 9.5876-4.0041 23.865 12.984 17.65 14.557-9.725-23.493-12.204 18.502-12.544-5.3653-4.7073-6.196-15.493-11.278-20.157 1.0958-6.72 7.1767 7.6042 14.365 13.957 9.117 1.7384 9.5016 11.983 15.725 21.462 15.761 8.9686-.20495-.0891-15.73 9.2482-19.823 7.4558-10.816 19.261.99155 27.574 2.5298 9.3438 3.3279 19.927 5.0032 30.63 6.6383 11.32-4.8968 21.044-3.6674 32.88-6.8491 4.4973-8.3341 6.2157-14.381 7.9788-23.789 4.8003-4.5876 8.4381-19.099 11.865-24.316-9.5402-2.9268-17.733-3.9205-27.144-9.5159-4.6296-2.8593-25.171-10.705-9.2321-13.972 18.475-5.2096 4.696 1.983 16.34 2.867-8.464 10.453 8.4154 2.3476 3.4539 8.9964 10.56 4.9628 18.042.93292 27.175-7.4074 3.0901 1.4553-14.754 21.624 3.4155 6.8027 8.9564-7.5544 17.163-16.469 28.021-18.605 9.4204-.86305 16.405 9.5116 24.921 0 15.573-4.7925-3.4576-12.044-11.791-15.319-12.062 12.276 2.7676-15.524-11.057-3.879 5.4407-18.373-4.8936 6.6447-4.9352-3.7806-7.9185-2.4014-18.757 18.419-28.564 18.894-5.4167 2.6939-38.585 1.091-28.111-2.8737 8.8636 1.4584 19.668 3.4933 28.111-1.722 10.608-4.6094 16.671-14.649 25.602-20.469 6.5998-11.927 17.464-9.221 19.147 1.941 5.1298 8.1771 8.3824 18.816 22.693 14.954 9.4903 3.1392-7.5544 17.561 11.804 10.213 12.18.10248 17.736-5.776 27.319-11.764 9.8549-9.115 16.377-19.313 23.888-29.286 15.246-6.9371 12.226-15.9 10.484-30.432.76038-12.821-7.1688-19.469-9.7438-30.329-3.2162-8.454-12.889-13.852-12.724-23.686 5.267-7.2464-2.5739-15.619-4.5958-22.958-3.62-10.032-7.0037-19.302-14.073-22.099-8.96 6.633-25.274 2.5944-32.505 10.213-5.8786 3.6613-16.506 2.8798-22.359 10.236 3.1617 8.0572 24.001 1.8823 29.313 9.1681 12.061 10.062 29.08 13.44 38.091 26.847-8.2804.68629-14.912-11.662-24.511-12.549-7.6392-5.7045-16.616-15.81-28.757-14.12-19.872-2.1629-3.4385 16.56 5.2675 20.63-2.0828 16.176-1.2497-6.5544-13.267-1.6264-9.7402-1.8885-23.069 16.591-27.712 3.3926 23.195-1.1885.66163-1.8195-4.9782-7.1296-6.8783-17.299 6.6486 5.7466 15.98 1.9175 7.8161-3.8198-12.83-15.873-20.303-13.045-13.179-.29979 12.575-6.0952 9.4297-16.872-6.5846-18.221 4.5656-.23206 11.51-3.5298 11.645-2.5538-.68831-16.131 6.8726-22.974 1.6615-14.383-16.198-18.885-23.9-25.792-9.7706-6.0059-18.494-17.704-29.958-19.915-17.553 1.0603-37.608-5.0967-48.779 11.39-7.5166 5.6102-16.188 8.9601-22.876 16.687-6.899 4.0786-9.4168 11.575-12.358 17.369 3.6465 5.4213 18.613.21278 21.33-7.4854 11.361-2.9561 6.4646 10.234-2.6969 6.9748-9.4033 4.8147-18.866 4.2005-26.883 13.277-8.2716 2.3255-18.802 6.3367-29.537 8.4021-9.6878 1.7333-15.58 11.584-14.809 21.584-3.743 11.194.59191 29.197-4.7294 40.482-1.2794 9.8392-7.944 18.741-5.994 30.756-4.5474 16.454 13.308 25.306 22.999 34.606 7.5008 5.8858 13.832 7.8999 22.863 9.1915 11.096.62935 13.376 15.544 25.963 12.124 8.4844 2.6288 16.946 6.2111 25.197 7.2801 7.6799 4.4728-1.1284 23.798-3.0638 8.7492 4.7377-4.4101-12.341-11.999-16.461-6.7066-3.7486 1.2339-25.402 13.924-14.513 4.328 11.483-3.2601 10.789-15.733.0191-5.3492-15.351 6.8907 8.6003-9.0024-7.343-4.0851-15.677 6.3156-9.3787 2.9967-3.695-4.0851-13.325 1.0799-.0509-8.7405-20.195-9.1915-10.278-8.7956-21.223-4.649-17.552 10.917 4.5014 8.1154 6.8557 21.546 2.3781 27.859-8.822-5.8968-6.3475-18.918-9.4468-28.443-2.1207-9.1659-5.7752-18.178-7.1489-26.605-7.5083-7.5749-7.0974-19.413-10.213-26.622-1.6478-9.9532-6.9243-15.898-9.0668-25.29-6.4643-11.467-6.9585-20.691-6.763-34.454-13-.41943-12.78-16.506-19.915-24.366 5.004-15.068-6.862-18.437-14.298-26.187 9.949 2.4815 23.223.35755 31.66 6.0118 13.457 6.079-.9898-16.347-9.3165-14.182-6.6411-3.3367-17.208-6.1249-25.407-7.8345 9.7463-11.484 24.576 6.352 25.848-13.612 9.884-2.202 14.607-13.831 26.096-18.383 13.43-.48937-.87967 8.2258 3.2046 17.362-.31241 5.9074-28.107 20.618-10.691 20.426 11.321.97584 17.716-10.431 17.84-20.529.89563-12.477 14.583-25.546-8.6972-22.151-14.599-3.1258-26.504 2.7132-32.732 15.157-10.541 10.729-18.989 15.862-35.158 15.268-11.966 3.4938-20.973-15.914-30.557-3.0638-19.129 5.7066 6.1618-3.4826.33797-9.5929-9.8709-1.6599-19.205-5.6344-29.594-7.7688-8.3708-.58356-18.082-7.5304-27.129-10.213-7.8905-4.9605-24.191-3.6013-33.827-9.1915-12.275-1.6403-22.71 6.7052-32.525 9.3999-6.7172 8.2854-15.589 12.135-14.42 23.872 4.535 13.024 19.307 7.2878 17.579-3.9502 8.5202-7.7746 11.71-16.216 18.625-25.237 18.806-.11612-3.6346 10.93-.0541 14.995.4425 9.9179-10.273 10.39-7.4832 17.686 19.34-.80331 18.055 18.263-1.897 12.755-3.6829 11.237-17.823 19.116-7.8533 30.139 11.546 1.6301 18.795 12.553 29.778 17.13 17.944.49515 37.61 1.1785 55.131-.85256 7.0077-4.6992 20.934-6.3274 23.03-18.15 6.0548-6.0772 3.1315-19.944 8.1702-25.702 1.8769-8.8468 18.203-18.548 18.541-3.5745 6.6394 6.4528-1.841 19.507-5.5785 30.051 4.9938 2.8114 11.348-1.4862 1.3353 11.432-6.5398 18.498 9.8585 3.7869 14.298-2.0269.90417-8.872 25.079-23.221 17.084-10.349-11.747 9.827 15.862 13.709 15.593 25.524 1.8066 9.4576 5.8306 20.23 8.1737 28.483 11.061 8.7784-3.1768 22.647 12.189 22.925 5.5028 9.1092 3.3302 17.971 8.2364 27.303 2.0256 8.1488 4.9279 18.117 12.255 24.229 6.5535 11.245-4.2779 20.241-2.0426 32.821 10.117 9.6515-1.6545 14.227 4e-5 21.394-13.135 4.0982 6.9387 4.8536-9.1915 13.204 8.6455 11.085-4.1423 6.532-1.0213 14.5-6.8414 4.7302-15.222 12.31-27.333 11.159-8.8018 4.9496 9.791 9.9446-11.067 6.2022-7.1256 5.5581-19.719-13.744-25.641 2.234-8.6443 6.7312-9.0134 4.898-14.893 13.417-6.705-3.2981-9.18 4.5305-20.255 4.7745-11.419 5.8388-3.8247-11.943 4.3307-12.255 12.052.86418 21.213-4.1782 26.791-12.578-7.6968-1.2113-25.588 6.9134-10.692-2.7414 8.8414-1.8786 20.272-8.0734 29.339-3.0638 14.619.20326 26.998.0684 40.228-5.4995 7.7539-8.1032 2.8998-24.018 7.1489-31.769.16717-12.476 6.9997-22.829 10.897-35.034 6.7125-13.884-7.6511-18.697-11.905-28.058-9.5025-11.751-1.3862-11.07-5.1208-22.077-10.208-7.1428-22.204-7.8352-36.255-7.1156-14.869 4.8295-5.1608 17.536-.51063 24.819 6.6045 8.3511 12.706 16.866 10.213 29.159-2.4164-8.2911-4.6796-21.507-14.889-28.442-5.2451-8.4034-8.226-14.19-10.643-23.643-10.06-5.6834-19.189 6.8521-21.447 14.809-3.3213 11.211 7.2321 22.76 9.1915 33.582 7.8348 4.1955 2.5781 6.1184 0 21.931-11.856 12.474 21.015 12.237-5.1064 12.402-9.2472-2.4223-10.193 3.1202-3.0638-10.749 7.1648-10.299 1.8337-26.199 0-37.251-2.3224-2.4821-18.775-30.884-17.362-11.769 3.6812 11.976-14.968 9.1915-12.255 8.4892 14.441-6.6146-9.7252-21.3 5.4047-21.231 8.8211 7.3656 7.2256-19.313 14-10.213-9.755 13.621 1.7022 8.3464 5.1064-2.0426 3.2716 1.2405-5.7992 21.308 3.9591 7.3474 7.9428-6.8298 13.356-18.737-1.4789-22.083 1.1684-9.6974 14.965 10.415 22.344 11.672 12.251 5.9877 16.812-6.1288 7.129-11.508-3.2231-9.1934-13.174-14.526-21.617-18.888-10.779-3.1666-15.318-10.209-26.586-10.909-10.858-1.8274-18.684-14.877-31.377-10.274-11.414 1.9625-18.444 7.2422-22.588 17.07-16.501 17.827-2.658.38218-14.092-7.5889-7.9962-7.3075-18.111-12.895-27.013-14.073-9.9082-8.2067-30.877-1.3601-42.894-5.1064-8.4131-1.3431-36.217 3.1509-30.782 1.8477 10.743 10.341 21.31 20.69 27.931 32.78 8.3689 10.223 14.884 18.973 28.461 19.468 9.9325 5.708 19.348 5.46 28.976 10.245 16.175-9.5657 1.4701.78094 1.8449 7.2569 11.419-15.435 8.6682 23.701-3.2118.91411-10.223-5.5632-21.662-1.8492-31.92 1.6511-10.178 7.4423-11.307 19.344-18.235 28.188-7.8449 10.402-.0824 20.585 7.1489 28.284 2.0352 8.5441 5.6923 17.037 11.557 24.3 6.7738 8.0313-5.3041 16.977-4.4082 4.385-9.141-3.8255-2.7388-13.274-16.178-17.362-10.857-.62369-12.172 11.58-21.099 14.809 1.4922 12.267-22.556 24.056-3.7555 30.128 10.373-1.8349 14.667-12.633 16.522-21.681 2.9857-23.2 9.5708 4.6671 8.2851 14.453 6.7748 7.6278 5.6114 21.833 14.954 26.632 10.343 2.9621 10.628 17.126 20.556 20.246 10.005 5.7533 17.272 12.499 29.188 13.7 9.0406 7.6376 27.242-22.488 15.003-1.8721 1.1932 8.9735 18.804-.0321 25.376-1.4354 3.1522-3.104 18.933-13.011 18.916-5.1249-8.1361 8.3436 4.71 18.29 7.382 25.897 11.397 2.8384 26.466 1.9793 37.532.67453zm-35.234-2.7486c5.233-16.656 12.961-12.747 2.0426.19545-.41708-.6596-3.6234 4.9668-2.0426-.19545zm17.362-3.379c2.4245-8.2708 2.1712 7.9501 0 0zm-17.677-10.289c-14.151-7.6291 13.479-8.2762.55396 2.1184zm-60.961-11c6.3724-19.695 5.5951 13.008 0 0zm94.468 1.8843c6.6548-4.2355 2.0756 4.6456 0 0zm-101.62-3.0036c2.472-8.2616 1.9229 6.8237 0 0zm-5.1064-4.1454c3.732-1.3849 1.2485-1.1391 0 0zm7.1489-1.9823c2.1242-14.547 3.4054 12.555 0 0zm-12.255-3.9268c5.5085-20.268 5.9044 5.3511 0 0zm7.1489-.21856c2.4245-8.2708 2.1712 7.9501 0 0zm126.13 0c-4.3959-7.438 16.991 4.364 1.8485 2.0426l-1.7078-1.8871zm-146.55-4.0851c3.7319-1.3849 1.2485-1.1391 0 0zm8.1702-.96101c2.472-8.2616 1.9228 6.8237 0 0zm148.22.32673c-5.4847-15.642 20.259.36161 6.2624-3.7732-6.208-.13987 2.5142 9.563-6.2624 3.7732zm64.205-.387c2.4245-8.2708 2.1712 7.9501 0 0zm-152.17-1.5319c-11.916-.95912-25.257-8.3923-35.805-13.787-7.0256-3.284-16.157-9.9867-23.679-15.319-7.9906.25225-29.224-8.2853-6.6086-7.1489 8.9856 2.5239 2.8949-15.283 16.671-5.1064 7.7241 10.298 20.149 11.398 27.878 20.426 9.6756-.11234 18.124 7.4204 28.679 6.3733 11.877-2.1301 24.592-1.2514 32.545-11.99 4.6556 11.444-15.499 12.885-14.148 23.882-7.3093 4.7647-17.301 6.1873-25.532 2.6715zm13.108-6.5008c-3.0896-13.991-10.077 11.919 0 0zm-17.418-2.1801c19.646 8.3064-10.142-18.075-4.8382 3.3419 1.808-.60716 2.5312-4.0297 4.8382-3.3419zm25.553.81702c3.9149-9.4013-9.8042 3.809 0 0zm-36.746-5.6785c-1.7144-8.5383-7.3337 9.9316 0 0zm-10.028-3.8194c-1.3356-16.099-3.834 15.921 0 0zm-25.532-14.65c-5.6885-11.935-7.3904 5.67 0 0zm229.43 20.442c-9.6549-21.153 16.016 9.0724 0 0zm21.96-.17491c.33039-8.8671 1.0416 8.8704 0 0zm-8.3315-2.3571c3.9241-19.777 9.3009 6.6212 0 0zm23.195-4.4057c-.10202-16.808 9.9043-7.8623 0 0zm-40.556-3.5102c2.0366-7.0598 2.298 7.8759 0 0zm13.277 1.2167c3.0662-14.055 7.4293 2.1226 0 0zm34.723-.48889c4.4006-19.947 6.6866 4.4301 0 0zm38.175-2.1506c1.077-13.045 9.6104 6.9806 0 0zm-11.309-1.0035c1.3287-16.729 6.3653 6.8183 0 0zm-92.229-1.0277c2.1179-9.3747 2.5564 6.6456 0 0zm14.298-.51064c-7.4167-15.27 6.8273-4.2209 0 1.9823zm13.277-3.5745c5.9389-22.359 1.1378 17.32 0 0zm48 2.618c6.5926-15.874 2.9525 8.7811 0 0zm7.1489-2.6782c2.4095-6.3586 2.2914 6.0803 0 0zm-232.6-1.017c-.0617-7.1748 23.429-3.7734 2.8085-.5149.92403 2.7675-1.8872 2.6605-2.8085.5149zm36.511-.15236c5.5927-14.301 3.7376 6.2787 0 0zm17.872.65874c11.968-4.1285 3.5317 4.6759 0 0zm117.96-2.4929c1.4977-9.3769 2.4554 8.3274 0 .0683zm29.937-.37148c4.2024-20.653 5.8724 7.0088-.98354 1.0266zm9.8932 1.4908c7.2953-13.64 5.399 4.4851 0 0zm-150.13-.51064c8.0031-5.2219 5.6027-20.92 16.591-18.541-8.3644 12.941 20.326-7.7386 8.3362 4.0851-12.267 3.158-15.208 8.7453-24.927 15.319zm160.74-1.6021c.52608-10.071 5.8708 3.2473 0 0zm-242.96-1.62c-20.759-1.5759 3.2448-6.4848 7.7801 1.0213-2.2314-.80582-6.5634 1.53-7.7801-1.0213zm169.28-.50638c-7.3332-17.146 10.304 6.8062 0 0zm-107.21-5.6213c.69632-15.256.43993 14.895 0 0zm175.88 3.0414c.85816-8.5024 8.219.80312 0 0zm-310.41-.92825c-2.005-7.4885 21.923-16.332 18.85-2.3632-4.6624 2.4654-13.94-.73685-18.85 2.3632zm58.169-1.0918c6.6548-4.2355 2.0755 4.6456 0 0zm50.553-1.0213c6.3551-10.148 2.5336 8.5765 0 0zm109.28 1.0213c7.7542-.80638-.20826-.1892 0 0zm-165.9-2.5857c-15.029-1.9718-16.635-9.3179-.74271-3.3054 4.8948.40823 8.523 8.4412.74271 3.3054zm185.05-.19048c-8.4081-20.061 8.2563 4.0102 0 0zm25.308.43423c-1.22-9.3849 4.2414 5.5195 0 0zm53.585-.51464c9.1578-14.337 15.215-2.0828 0 .81401zm-201.55-.90242c5.6882-14.078 15.781-1.583 0 0zm178.72-1.0213c2.236-10.887 18.372-5.8658 0 0zm-161.49-2.668c-1.22-9.3849 4.2414 5.5195 0 0zm-79.181-4.807c-7.2721-3.1503-20.82-10.375-21.447-20.936-9.0179-12.101 4.2319-17.009 11.234-7.6596 15.693 5.0443 11.055 6.5637 0 6.8132-7.6805 14.028 6.6242-1.7131 10.213 12.63 3.3218-1.5031 19.435 9.1547 21.965 8.1313-7.8694-1.5054-15.401 5.1167-21.965 1.0213zm71.489-.89623c8.7257-8.5536 9.2534 6.9212 0 0zm48 1.4854c5.9332-10.327 20.865-9.7442 6.1277-2.1211-.72081 2.4551-4.8148 3.4604-6.1277 2.1211zm60.798-.88856c-1.22-9.3849 4.2414 5.5195 0 0zm27.032.73705c4.81-10.586 6.7697 4.9819 0 0zm30.114-1.4814c.85818-8.5024 8.219.80313 0 0zm12.78.0225c4.2896-4.8111 6.9068 4.5175 0 0zm-286.85-7.5384c-18.578-18.848 17.986 7.86 4.698 4.6551-1.566-1.5517-3.132-3.1034-4.698-4.6551zm62.676 3.4533c5.9268-2.6994 11.573-29.006 6.3159-6.3982 9.099 7.6474 27.741 2.2119 38.737.27057-.39443 5.0866-20.506 5.8426-30.346 5.1064-6.2291-2.5209-11.669 5.1977-14.708 1.0213zm76.107-1.5936c-14.959-10.56 13.258 2.9268.7177.70632zm75.553.51209c2.0366-7.0598 2.298 7.8759 0 0zm65.362.26453c2.9275-6.1522 24.991-11.01 10.463-4.2894-2.8689 3.2494-7.883 5.738-10.463 4.2894zm-120-5.3106c13.245-10.195 9.8399 2.8908-1.6822 2.0426-1.1662.0854 1.1474-1.3732 1.6822-2.0426zm194.04-1.0213c12.981-9.3486-1.7453 10.03 0 0zm14.298-1.0213c14.173-11.071-7.5096 12.445 0 0zm-88.845.009c1.0894-9.1937 20.507-6.3221 3.5575-.66748-.73138-1.3745-3.2029 3.3661-3.5575.66748zm69.153-2.2097c4.9566-5.3575 1.7352 4.9201 0 0zm-299.22-2.0592c-5.493-8.9025 15.322 2.586 0 0zm-53.644-5.741c-14.309-18.755 20.73 15.157 0 0zm85.58 2.8516c9.9633-3.9904 2.7642 4.5567 0 0zm210.89.0603c5.4595-6.9274 12.241 4.835 0 0zm-234.46-4.3701c-3.5747-9.521-20.434-13.458-13.884-24.64 4.243 2.978 12.167 10.714 16.504 20.78 8.2285-9.2038 4.1197 16.18-2.6206 3.8604zm30.204 2.2673c4.2894-4.8111 6.9069 4.5174 0 0zm60.767.002c2.4571-12.257 8.9071.47452 0 0zm20.935-.002c14.306-14.879 10.204 5.225 0 0zm94.979 0c4.2895-4.8112 6.9069 4.5175 0 0zm-170.96-1.8807c6.063-15.976 14.731-8.0502.53117.85945zm176.07-.16183c4.6737-4.974 4.6897 3.9506 0 0zm-197.11-1.3193c12.918-20.598 9.9901-.34106 0 0zm80.681-5.1607c7.2953-13.64 5.399 4.4851 0 0zm159.06-4.6903c-2.0779-13.214-21.769 3.5983-10.054-9.3298 9.9345-6.5795 24.323-9.2972 34.82-6.124-10.009 6.3626-15.432 5.3563-13.717 13.348-11.356-13.869-13.611-6.5118-4.6659 4.7526-2.1623 1.3713-4.9166-.47627-6.383-2.6464zm-133.02.95755c8.908-10.141 14.572 2.8175 0 0zm-189.44-1.5198c-.81206-8.9497 7.8953 5.5353 0 0zm345.95.92291c2.1489-9.9353 8.8509 2.4748 0 0zm118.72-1.2603c-3.4922-10.684-15.958-18.138-25.62-23.675-5.2525-.49863-23.014-12.791-8.0823-8.1702 10.917 9.274 16.724 4.3797 25.532-7.5828 7.0804-16.228-9.7889-13.052-.89052-20.996 9.0488-14.128 1.4603 17.292 14.417 17.345 6.1238-1.9352 31.101-.58882 18.358.83766-10.48-1.8326-2.2382 15.329-15.897 13.971 12.479 7.4173-13.542 5.2104 3.4172 11.809-12.605-.59022-28.258.68665-5.7024 4.0419 3.2182-3.425-9.7297 12.511-5.5317 12.419zm-3.5745-21.632c-5.2785-5.3981-18.746-3.9111-3.5255 1.0213.61351-1.3478 3.4992 1.3798 3.5255-1.0213zm7.6596-8.3285c-8.9218-4.6244-21.013.14651-3.8823 4.3764.60207-1.7643 4.4045-2.1137 3.8823-4.3764zm7.4916-3.5886c-8.328-9.4151-21.166-2.1936-3.6088.68307.75735-1.3034 3.0584 1.1199 3.6088-.68307zm-465.79 31.836c-3.3236-5.9489 7.8531-27.638 5.8723-8.9352-6.2708.037.24053 15.083-5.8723 8.9352zm82.468-.0686c5.582-13.597 4.702 5.1639 0 0zm75.574.12456c2.1179-9.3747 2.5564 6.6456 0 0zm-53.106-2.999c2.4791-10.457 6.5394-27.046 5.1064-9.7066 1.7331 3.2494-1.9372 15.403-5.1064 9.7066zm235.08-.89101c7.0417-12.561 21.251-6.1874 3.6507 2.2979-1.4016-.60564-6.118 1.666-3.6507-2.2979zm-160.84.62351c2.4464-7.3588 17.312-2.8501 0 0zm290.36-3.4317c6.3551-10.148 2.5336 8.5765 0 0zm-484.5-.91988c-4.1827-8.9899 13.535 7.5888.0489.0541zm102.55.11716c5.5085-20.268 5.9044 5.3511 0 0zm-53.078-1.7165c-9.8302-2.9801-18.622-12.183-8.1984-18.928-2.0162-22.69 11.416-2.7573 6.8936 2.0582-13.057 5.324 4.7822 16.682 5.1711 14.459 1.5421 2.54-2.8281 5.9846-3.8663 2.4106zm45.263-.072c2.7466-16.511 12.32-5.9468 1.5208 1.57-.8245-.0613-2.0069.39804-1.5208-1.57zm104.33-2.5152c.22763-5.327 8.0756 4.3526 0 0zm170.88-2.2979c-8.4857-3.6008-22.47-2.9984-29.922-13.021-16.489-2.9595 11.303-15.185 7.7236-9.2764-18.001 20.27 11.068-2.1602 12.447.23639-20.224 19.215 6.5891-.0414 2.4969 9.5866-12.224 15.445 29.288-18.19 16.631-7.6958-11.038 9.2904-14.211 22.406 1.154 8.3733 2.544.0899 4.95 11.673-1.8193 8.9884-1.6786 2.2798-8.1387 9.3313-8.7106 2.8088zm-223.91.37143c5.8779-8.3277 11.687 3.1653 0 0zm-143.6-1.6913c-3.7197-21.456 10.026 4.684 0 0zm84.802-4.0418c-8.6373-12.296-8.9625 8.7542-18.577-3.2926-13.427-14.105 22.195 6.6524 13.913-8.528-10.298-.7512-24.646-10.554-4.3756-9.1155 14.796-1.0548 17.221-22.223-1.0521-18.383-14.31-3.0796-17.88.73724-3.4508-7.1291 1.2208-9.469 8.5331 11.762 10.479 1.0015 6.8149 6.6616 17.012 13.19 16.34 24.511.55892 6.4033-15.587 10.631-11.233 24.511-3.2182.83635-1.9107-1.3987-2.0431-3.5745zm20.426 1.8485c7.4695-16.744 3.38 6.3668 0 0zm389.11-1.3378c2.4245-8.2708 2.1712 7.9501 0 0zm-302.27.25532c6.637-12.983 5.2365 3.9299 0 0zm-49.054-1.8193c6.66-10.392 3.0048 7.2354 0 0zm240 .54269c4.2895-4.8112 6.9069 4.5175 0 0zm12.255-3.0638c-13.707-.0297 14.153-18.082 1.6226-3.9708 4.7399 4.1118 1.7585 7.0784-1.6226 3.9708zm104.17 0c4.0494-5.0875 4.4941 4.6935 0 0zm-243.06-1.0213c4.2895-4.8112 6.9068 4.5175 0 0zm-67.396-1.7872c10.053-11.899 4.1471 5.4118 0 0zm211.91.76595c-.0134-4.4481 16.923 2.9296 0 0zm-399.83-3.0638c2.4245-8.2708 2.1712 7.9501 0 0zm23.489 1.3325c9.3299-15.381 11.834.64939 0 0zm384-1.3325c4.2896-4.8112 6.9068 4.5175 0 0zm-224.02-.77211c4.1785-12.668 14.289-3.7959 0 0zm66.924-1.5258c4.9534-9.0226 3.8334 9.5078 0 0zm162.2.25532c4.2895-4.8112 6.9068 4.5175 0 0zm-232.47-4.5721c3.7263-13.402 10.094-.30133 0 0zm-127.02-10.779c-8.7708-16.817 28.619-6.277 19.923-3.0318-15.378-8.866-20.396 26.414-19.923 3.0318zm267.38 5.9044c-15.974-5.8252 6.047-7.8549-13.842-9.2397-16.513.34816 16.812-8.9546-5.2508-9.9092-17.702-8.6238 12.539.26959-.45283-10.196 13.001.11921-13.969-19.255.33228-11.761 13.696 8.312-4.8948-17.197-3.0638-13.787 7.5542 2.4004 15.875 13.244 10.213-2.9432-5.1672-4.4862 14.286 5.4391 3.5745-8.6601-3.9121-7.9368-5.4497-20.566 3.5745-5.8559-1.2785 6.7547 19.035 26.318 8.2624 20.102-9.5042-8.2038-2.9476 10.38-8.2624 13.867-.40587 9.3779 3.9369 19.011 8.2332 26.933 2.5213 18.238 25.792-16.508 18.822-1.1166-6.1778 4.7794-14.675 25.464-22.14 12.567zm104.36.25532c-8.1053-12.889 11.156.28276 17.997-7.1489 17.822-.58934-33.029 15.892-17.036 9.1915h-.961zm-249.7 0c.22759-5.327 8.0756 4.3526 0 0zm67.915 0c6.3856-4.814 10.133 4.2501 0 0zm-73.532-1.3049c8.2485-13.351 9.581 2.5382 0 0zm176.68-.73761c2.4245-8.2708 2.1712 7.9501 0 0zm-303.32-1.4716c2.1179-9.3748 2.5565 6.6456 0 0zm344.17-2.6135c-6.0345-2.8786-17.173-9.0977-22.468-13.277 13.869-4.6777 21.356 12.681 31.66 13.277.88665 1.6138-9.9322 1.7675-9.1915 0zm88.851-1.8843c7.0607-12.534 6.6435 4.4899 0 0zm21.447-.66893c-18.615-13.789 14.587 3.1387 0 0zm-94.979-5.5317c10.834-10.931 18.835.29319 0 2.2738zm82.723-4.1102c1.2889-8.6907 6.6457-15.894 7.1489-24.984 6.5961-19.852 3.536 7.6933 2.0426 15.732-2.0742-2.4492-8.3709 20.642-9.1915 9.2518zm-375.83 0c2.472-8.2616 1.9229 6.8237 0 0zm388.47-.52201c1.0998-10.656 16.988 6.2658.56908 1.483zm-398.69-3.4983c-1.3277-11.891-15.022-15.419-24.112-19.529-14.941-1.8562-9.8005-6.3266 2.3491-2.0426 7.9637-22.728.43703-5.8918 9.4813-1.5077 6.0297-20.328 1.8941-.23514 4.1118 4.7901 9.2022-15.817 3.1889-5.6737 7.6515 3.8666 10.308-11.764.8084 1.0274 14.147.51063-9.7061-3.0277-8.8795 24.918-13.628 13.912zm-66.383-4.2102c4.875-5.7751-4.5071-17.169-13.397-17.362-6.515-1.0022-25.793 8.8741-14.079 0 14.116-.18261 13.033-8.5756 10.873-12.255 9.5198-.74019 16.761 20.985 24.928 10.392-1.1524 5.6165-1.4144 16.144-6.6639 21.267-1.0744-.15995-3.2189.75023-1.6604-2.0426zm470.55.34491c9.6355-.37017-3.1579 1.5982 0 0zm-156.26-3.7996c-11.621-9.968-9.8853-19.867 1.1552-5.4564 5.0608.92761 4.04 12.185-1.1552 5.4564zm12.256-.61443c-6.3158-9.1842-9.0442-15.977-10.986-26.323-2.7583-9.0069-2.9706-21.501-7.1412-31.118-6.5486-14.146 23.769-8.315 2.8218-16.469 2.6655-6.1126-13.453-20.354-.77924-21.084 4.3353 8.6196 3.1064 19.051 12.941 25.778-9.5964 9.8316-3.7312 6.998-4.7711 14.287-3.2049 6.7454 6.1909 11.613 1.3318 19.625 14.48-3.4271-8.1468 12.759 5.8171 15.005 8.1083-18.118 6.1296-2.9834 0 4.4456 7.6878 3.5849 11.641-6.4025 5.1064 13.577 7.9224-.31398 25.204-.97525 25.546-11-1.3295 1.2949 14.56 12.17 28.074 7.1329 15.231 3.9783 23.962-3.4905 29.006-15.216 4.1595 7.7021-3.3373 17.708-12.36 17.258-17.038.99108-33.491 3.0312-51.633 2.0426-4.5871 3.7177-18.992 6.2614-22.974 2.0585zm109.69 1.4629c5.169-8.8291 1.5324 6.1992 0 0zm-428.07-3.3171c7.1296-11.148 9.3908 4.1461 0 0zm254.75-.29324c6.5336-1.0125 2.2286-.60859 0 0zm164.43-.86405c-20.425-1.6973 3.3986-12.64 3.6255-5.2952 12.212-7.9194 6.3412 9.1174-3.6255 5.2952zm-350.76-8.7491c7.5743-1.4892 2.4016-1.3591 0 0zm171.81-2.5532c.34143-11.04.87613 11.644 0 0zm176.44.62378c6.4505-15.622 6.2174 3.8177 0 0zm8.6808-.62378c11.712-8.5106-3.5752 9.5772 0 0zm-61.086-2.8644c-9.8281-9.8232 27.73-2.0373 11.923 1.3325-1.4114 2.8792-10.482 2.4398-11.923-1.3325zm-23.17-2.3023c2.0366-7.0598 2.298 7.8759 0 0zm10.213.0603c2.4245-8.2708 2.1712 7.9501 0 0zm-404.43.0603c-2.4812-9.4298 21.641-9.6882 13.337-4.1454-4.6976-1.0572-10.279 7.1478-13.337 4.1454zm85.787-4.1454c5.685-10.003 3.5099 8.5232 0 0zm198.38.5149c-2.2918-8.4086 17.583 3.3709 1.2766 1.45zm107.43-.60388c.73788-12.358 3.6886 5.7296 0 0zm14.864-.36138c2.1179-9.3746 2.5564 6.6455 0 0zm40.851-4.1454c23.52-17.889-12.404 18.193-.18204.18433zm39.83 2.5532c4.2895-4.8112 6.9068 4.5175 0 0zm-279.57-2.5489c-3.6409-9.4744 11.493 5.053 0 0zm181.53-7.6638c1.7033-26.336 2.8914 25.73 0 .5348zm20.426 6.1277c5.685-10.003 3.5099 8.5232 0 0zm-417.7 0c4.2894-4.8112 6.9069 4.5175 0 0zm293.11-.51064c.19577-4.8555-13.842-10.801-9.0886-15.628 5.9944-2.1639 17.541 23.341 9.0886 15.628zm197.11-.51064c7.7858-5.1564 14.756 5.1651 0 0zm-75.574-5.1064c3.732-1.3848 1.2485-1.139 0 0zm73.532 0c7.7542-.80629-.20821-.18932 0 0zm-75.574-8.7411c2.5546-16.41 2.4153 17.169 0 0zm-13.277-1.9823c2.4095-6.3586 2.2914 6.0803 0 0zm-115.72-5.4176c-10.41-16.516 17.754 7.2639.98353 1.0266zm112.4 1.0884c-20.207-1.4687 23.364-5.6959 5.8723.3685-1.9574-.12283-3.9149-.24567-5.8723-.3685zm-100.01-2.5644c-16.033-8.2594-11.02-19.25 2.6598-2.8422 5.607 1.8912-3.14 9.4389-2.6598 2.8422zm43.078-6.383c18.597-17.569-9.1621 16.904-1.9704 1.9952l1.7884-1.8109zm45.392 2.4642c.73789-12.358 3.6886 5.7297 0 0zm115.97-1.9536c4.6768-8.856 5.0957 8.4535 0 0zm-399.32-1.564c7.9804-10.521 3.5664 7.3643 0 0zm-22.468-2.3629c8.1978-21.478 3.641 9.9231 0 0zm5.1064 1.1087c6.5766-9.3341 6.6145 5.0684 0 0zm10.213-1.2669c5.1325-8.5582 5.813 8.4124 0 0zm311.85.62595c-32.356-20.419 20.185 6.4825 0 0zm-343.95-1.5228c.74739-14.31 7.8276.72386 0 0zm9.6252-1.7293c8.3533-14.084 5.6747 4.3842 0 0zm426.38.58359c2.8818-3.9869 11.689 2.4335.63118 1.0213zm-83.234-3.4162c8.4405-20.963 1.1084 13.115 0 0zm-358.47.35236c6.7075-9.5361 1.2021 7.6332 0 0zm337.47-2.122c-16.566-11.834 6.0793-.65553 12.56-8.0908 20.033-2.3649-4.748 3.9937-7.391 9.6813-2.3278.26877-3.958 1.7709-5.1692-1.5904zm96.573-6.6002c9.2613-6.8927 25.327 1.3132 3.174 2.5945-1.7416-.22932-4.9843 1.1768-3.174-2.5945zm-441.82-2.9736c1.1503-12.083 13.668 4.2684 0 0zm15.319 0c3.9097-8.5338 19.844-7.9469 16.426-6.2344 9.7925-.18446 12.915-6.2648 3.611-4.657-3.4557-2.0264-35.92-10.627-13.277-10.094-7.2921-12.564 19.02 8.8062 6.1277-6.5956 8.9881 1.0033 13.814 10.126 24.511 8.6382-2.0925-6.9693-25.152-15.245-15.523-16.014 7.0636-2.7712 18.301 1.9864 25.72 3.7589 12.607-1.5528 30.893-4.3394 12.681 10.826-9.5083 18.468-14.541-3.2277-24.779 11.642-11.1-8.3665-4.1751 4.4393.23784 5.6362-11.751 4.4605-19.133 3.9994-31.246 4.5766-1.1163-1.0477-4.8036 1.6447-4.49-1.4831zm44.548-24.56c-10.211-10.474-9.3717 7.0014 0 0zm263.49 20.04c-4.5069-5.5544-8.0615-28.148-3.0638-12.388 4.5527-.25856 7.0205 22.421 3.0638 12.388zm-330.89.0332c17.861-6.3178-14.35-10.324 7.274-8.3285 11.401-2.3994-5.024 13.64-7.274 8.3285zm336-9.3498c-3.4859-4.8106-10.331-24.09-1.0213-12.255-1.8215 3.0302 7.4644 19.687 1.0213 12.255zm-207.95-1.4723c-1.172-17.702 12.105 8.5694 0 0zm183.44.45098c4.0495-5.0876 4.494 4.6936 0 0zm-175.15-2.0426c.22762-5.327 8.0756 4.3526 0 0zm167.49 0c7.9279-2.7596 4.2491 1.2227 0 0zm58.29.12448c2.1571-7.3262-.36115-27.24 3.2835-8.1216-.58213 2.3754 1.3945 11.856-3.2835 8.1216zm-21.013-4.0845c-5.5918-6.3536-5.2054-27.156-.034-9.1215.0909 1.7827 4.8691 16.267.034 9.1215zm15.319 0c-7.517-17.78 1.2924-13.95 2.0426 1.9175-1.0834-.23661-3.543.90297-2.0426-1.9175zm29.617-1.1463c4.2895-4.8112 6.9068 4.5175 0 0zm-9.1915-4.1454c2.0366-7.0598 2.298 7.8759 0 0zm-243.06-.80274c7.2559-12.933 9.858 6.6912 0 0zm214.21-.88513c-10.764-27.098 8.0714 4.3131 0 0zm21.033.17216c-.40689-8.4466 8.0663 7.1058 0 0zm-71.638-2.7134c-3.8059-7.6591 15.894.40041 1.2255 1.2255zm3.8808-6.9447c6.3856-4.814 10.133 4.2501 0 0zm7.1489-6.1277c4.6768-8.856 5.0957 8.4534 0 0zm-287.3-7.8085c-3.8967-6.9447 10.033.80341 0 0zm279.13 336.66c8.5017-3.865 18.441-8.414 24.149-18.859 10.341-4.6858 15.057-25.259 3.4511-12.801-8.3918-4.9423-6.503 15.88-12.281-2.2128 1.6544 20.242-5.035 13.567-10.213 2.2128-1.6608 3.8694.59509 30.077-5.1064 6.7991-11.526-9.4188-.31941 15.048 0 20.382-5.6227-2.0701-5.5316-13.286-10.257-19.639-7.5632-3.7616-5.6106 16.011-1.2765 20.224 2.2872 3.3185 10.18 4.2995 11.534 3.8937zm-12.934-29.279c-2.1212-13.878-9.5686 5.6303 0 0zm199.83-71.828c7.1129-12.446 2.2889-4.256 13.274-8.1361 7.9728-5.0079 20.535-10.702 28.512-17.404 11.257-4.9726.0116-16.879 3.1495-26.529-2.1984-9.3107-5.5428-18.5-9.7446-29.076-2.7445 1.618-5.6626 17.284-18.368 21.95-9.5484 6.5851-20.566 22.093-13.723 25.143-9.3583-6.236-16.301 12.304-5.1434 6.5983 1.8001-5.9801 4.83 9.53-8.6087 7.0284-15.444-1.1768-27.578 3.5842-43.226 2.0426-14.291 2.6751-14.404 19.538 3.8153 15.319 14.648 3.1024 19.62-11.699 34.159-7.6596 6.4414-2.1558 10.814 15.377 15.903 10.723zm-60.255-8.1702c2.731-7.8207 2.7144 7.4747 0 0zm56.17-1.9823c2.472-8.2616 1.9229 6.8237 0 0zm13.481-24.775c-1.8567-10.282 22.341 6.4536 0 0zm5.9234-7.966c4.396-5.4167 15.668 5.4235 0 2.0426zm6.6383-5.1064c-4.5858-9.0533 11.125 7.2291 0 0zm10.329-7.0081c-5.7474-11.689 10.751 5.7384 0 0zm-9.3078-2.1834c8.0844-3.8196 1.8754 4.4372 0 0zm-30.128 32.681c-4.2894-4.8112-6.9069 4.5175 0 0zm-63.508-126.88c.0995-14.198-11.878-7.0759-10.887-19.161-18.053 11.077 8.1837-6.829-8.3425-5.2368-14.543 13.12 6.7597 14.945 11.366 25.626.96426 2.6929 9.7252 3.4319 7.8633-1.228zm-311.48-48.175c-3.6873-10.721-2.3127 13.54.0227.18348zm10.184-6.9863c-3.9025-23.085-6.8583 23.824 0 0zm60.725-10.723c-2.6238-23.09-9.2815 18.974 0 0zm7.7004-2.0426c-5.9824-24.804-5.2943 24.225 0 0zm7.3533-4.6928c-5.2986-24.7-8.1533 16.992 0 0zm220.41-1.3777c8.5991-4.8364 18.954-3.2302 27.978-7.972 9.6808-4.6272 16.72-17.741 17.141-28.667-5.1094-8.1113-8.4787-19.934 0-27.243-1.0558-12.598-4.371-18.919-2.0426-29.934 6.2636-6.8677.049-23.352-8.4255-14.32-11.769 1.7091-17.569 10.179-27.893 13.042-8.6765 4.8998-11.546 12.663-20.12 17.726-10.198 8.1813-12.779 16.194-17.206 27.087-6.458 5.5968-11.428 23.333-.90893 31.186 7.603 12.224 9.6727-3.0153 11.295 11.345 8.0296-4.5592 2.8533-16.448-1.2321-24.222-2.7486-1.1841 17.101 9.315 13.426-10.414-12.827-20.175 6.3357 2.3497 7.1489-12.354-5.5617-20.754 6.5595-6.5528 14.877-22.339 8.2521-12.531 2.7644 7.1517-3.6583 10.715-3.5762 10.241-9.3483 16.128-11.219 26.677-3.5072 5.1746-9.3871 15.562-10.213 23.936-7.2732 5.936 3.5658 23.354 11.052 15.752zm.18237-6.4401c4.6737-4.974 4.6897 3.9506 0 0zm.66148-14.054c.40472-7.3161 19.126-10.836 22.317-9.7908-8.7405-.36251-16.394 9.3831-22.317 9.7908zm13.636-28.361c2.5987-6.4755 27.741-6.4127 11.484-3.5424-1.9753 2.2342-10.486 7.9856-11.484 3.5424zm8.1702-17.84c13.372-14.143 10.884 6.812 0 0zm-307.17 64.34c4.5506 6.0994 21.589-12.742 16.105.20426 5.7232 8.7769 12.783-17.3 16.774-5.3106 18.802-15.233-1.0434-10.685-14.423-10.213-23.342.19977.14064-4.6496 8.9874-7.1489 10.489 1.5782 17.602-4.7758 24.406-8.1897 11.851-.59252 18.28-7.1283 25.532-14.394 3.0362-11.242.86063-19.234 0-30.365 4.554-18.298-8.7959-22.153-24.494-20.215-13.744-3.7252-27.537 2.6698-29.622 16.616 2.8667 7.7054-1.7068 39.988-2.0543 16.717.95707-11.059-5.0652-19.018-7.1489-28.531-6.22-8.2258 1.0071-22.165-4.0851-23.554 10.536-8.3261-7.2364-7.4599-11.706 1.3901-9.5688 10.656-17.416 18.851-17.132 3.7275-1.2924-8.9939-23.108-12.406-10.481-15.33 11.284-1.1902-14.41-13.938-18.783-10.213-9.6385-1.9907-22.873 10.911-11.855 17.362 2.2762-4.6046 2.4352-19.042 15.835-10.415 10.178 8.101-15.585 15.462-19.273 25.367-5.5608 8.5119-11.126 16.528-11.371 27.006 10.197 10.849 2.2956-10.077 15.319-7.745 12.281-11.131 15.216-5.2122 4.0218 5.7731 2.2833 23.358 9.2984-18.726 8.2335 2.9928 1.311 22.525 4.2632-20.063 7.979-5.1915 9.5022-5.7442-2.5744 9.9566-2.8725 15.27-1.6497 12.916-11.754.22998-17.362-1.9936-14.34-1.3657-16.165-2.9112-30.497-3.0638-8.3618-1.2237-30.591-13.218-28.737 5.1064-4.9628 2.6861-13.126 19.459-3.5745 21.447 12.03 2.546 2.9158-6.0763 5.617-13.468 3.8279-2.5875 4.8908-23.278 9.1915-3.7356 1.2158 6.6456-10.933 26.915.58349 20.851 1.1983 3.0312 8.2033 5.9076 9.3971 5.799 3.2868 7.0911 13.873-3.5957 16.502 6.3394 6.7485 1.5087 15.711 8.9875 15.39-6.7152.39669 15.994 8.3426 19.858 6.2028.40544.6883 3.6834 7.6733 28.492 7.0738 5.875-1.1478-25.731 3.5993-15.645 2.0426 3.8956 2.0021 14.161 17.782 11.269 28.596 13.434 11.986-14.831-3.7287 12.632 10.258-1.2199 7.4244-4.0209-9.7898 20.706 6.758 6.2016 15.415-9.4867-13.156 14.729 4.6664 5.231zm-41.634-16.578c-4.3999-9.041 11.396-24.592 9.7388-18.145 9.0814-9.8569 2.3097-15.617 10.967-8.8841 4.2843-10.735 6.6823 10.125 9.4581-7.4563 5.2582 3.9081 10.233 7.7053 24.61 6.9706 13.131 1.1381 22.786-5.3425 35.525-4.9281 14-11.882 4.5408 8.6099-6.4449 4.0851-10.993 5.723-26.288 1.9876-38.298 5.1064-9.6268 3.3936-20.6 3.719-28.158 9.1915-8.8551-.58803-12.813 15.224-17.398 14.06zm17.909-6.7066c10.579-9.7258 11.762 7.3179 2e-5.72294zm-17.667-14.126c-1.5861-10.652 3.8913-22.368 14.603-21.823 5.4214-6.256 17.704-8.1289 24.659-15.639 8.6494-.32904-10.885 12.961-16.999 15.321-10.499 4.878-19.925 9.6125-18.383 22.257-1.2047-.3258-3.125 1.6694-3.8796-.11653zm-43.099-6.5629c-16.734-10.888-16.53-13.702.99518-5.0469 3.0688 7.9977 28.936-5.4306 20.14 4.4047-4.1813 4.8092-16.037 3.3084-21.136.64223zm25.7-5.73c2.4277-11.696 18.969-.45093 8.3923-2.3808-4.5458-2.4407-5.0868 5.2916-8.3923 2.3808zm95.832-5.4446c6.5569-4.9886 14.702 3.9559 0 0zm10.213-3.0638c11.08-7.7819 11.697 3.4525 0 0zm-17.872-2.0426c5.7944-.13431 17.184-9.6332 21.447-4.0851-7.2603-.61864-15.167 7.9807-21.447 4.0851zm10.213-15.112c12.002-19.92 11.63 1.8499 0 0zm10.213-1.1432c6.4699-16.486 3.232 7.6926 0 0zm-49.021-2.5783c2.1179-9.3746 2.5564 6.6455 0 0zm-34.095-3.4443c4.2213-12.642 5.9657 3.2195 0 0zm72.551-.65695c-15.865-4.1202 11.231-9.2472 2.5211-.15828-.56962-1.0811-2.7598 4.624-2.5211.15828zm-35.392-3.6186c2.2668-16.134 2.6565 16.009 0 0zm-51.064-7.5993c2.1179-9.3745 2.5564 6.6455 0 0zm53.592-1.7985c-4.008-27.945 8.2695.24658 0 0zm-50.529-5.8611c-6.1611-10.946 19.692-18.403 10.563-7.2092-9.3771-5.6537-8.6222 21.987-10.563 7.2092zm113.36 98.493c-6.9904-15.302-4.1024 13.337 0 0zm-126.64-71.137c-12.934-11.89-5.2635 15.378 0 0zm-22.672-6.2247c2.4304-8.3987-26.064-10.248-25.328-3.3192-1.257 7.6852 26.484 16.525 25.328 3.3192zm104.92-12.766c11.282-20.861-11.811-1.3111-7.1869-2.9498 1.7986 1.7377 4.3046 12.868 7.1869 2.9498zm-105.06.188c-.77504-7.8692-24.844-20.668-22.125-4.3825 5.2653 4.2434 16.652 8.9105 22.125 4.3825zm12.599-10.999c11.956-9.779-18.288-22.172-12.255-4.0131-.75696 5.7886 12.178 13.019 12.255 4.0131zm-18.809-7.8273c5.0598-12.219-8.7572 7.5512 0 0z"/>
</svg>
