<?xml version="1.0" encoding="utf-8"?>
<svg xmlns="http://www.w3.org/2000/svg" xmlns:cc="http://creativecommons.org/ns#" xmlns:dc="http://purl.org/dc/elements/1.1/" xmlns:rdf="http://www.w3.org/1999/02/22-rdf-syntax-ns#" xmlns:svg="http://www.w3.org/2000/svg" height="1500" id="svg1" version="1.1" width="1500" xml:space="preserve" viewBox="0 0 396.87499 396.875">
	<title id="title1">Ship</title>
	<defs id="defs1"/>
	<g id="layer1">
		<path xmlns="" d="m 193.48598,352.49782 c -5.01718,-0.94188 -10.98851,0.14805 -15.80745,-1.21596 -4.31205,-0.5397 -8.5203,-1.34839 -12.7,-2.16157 -3.85055,-0.51415 -7.2231,-2.04618 -10.94362,-2.83724 -3.35794,-2.05464 -7.71381,-1.98424 -10.87468,-4.45851 -3.42344,-0.60291 -6.55614,-2.31686 -9.48899,-3.64787 -2.89855,-1.86064 -6.4274,-2.56298 -8.92906,-5.26906 -2.75519,-0.72125 -5.36505,-2.82798 -7.79362,-3.78365 -4.12089,-2.69546 -8.74244,-5.52631 -12.89975,-8.64779 -4.770383,-2.85149 -8.625437,-8.06719 -13.196133,-11.34901 -2.54639,-2.49985 -4.989879,-5.46856 -8.753852,-9.12706 -4.213782,-4.57841 -8.113341,-9.22003 -11.559653,-14.11694 -1.673549,-2.9254 -3.996537,-5.01943 -4.863829,-8.32285 -2.555999,-2.20065 -3.579678,-5.11545 -4.863824,-7.4789 -1.165925,-2.22636 -2.708031,-5.15568 -4.053187,-7.41388 -0.990752,-2.61144 -2.178894,-4.74001 -3.242553,-7.58292 -1.348644,-3.03238 -2.443461,-6.18396 -3.242553,-9.47441 -1.350892,-2.5627 -2.519015,-5.25104 -2.431915,-8.80216 -1.29641,-2.69571 -2.033132,-5.9912 -2.431914,-9.48918 -1.734672,-3.39346 -1.68696,-7.53955 -2.431915,-11.19097 -0.331441,-4.20673 -1.231638,-8.02253 -0.810638,-12.74647 -0.251573,-2.62174 -1.758898,-7.3388 -0.146355,-10.40144 -1.402527,-3.64837 0.676404,-9.08497 -0.123858,-13.97417 1.278998,-3.59158 1.17977,-8.1305 1.621276,-12.29774 1.694407,-3.01953 1.47948,-7.91228 2.837234,-11.23425 0.904978,-2.782 1.071695,-6.07144 2.837234,-8.26192 0.147031,-2.91984 1.585659,-5.59416 2.431915,-8.11777 1.079636,-3.39198 2.770961,-6.49671 4.053191,-9.79356 1.085858,-3.06782 2.817135,-5.70881 4.053192,-8.41399 1.829983,-2.74306 2.834406,-6.38784 5.404255,-9.11584 1.274325,-3.47015 3.783331,-6.11903 5.918773,-9.10956 2.909546,-4.772551 6.737568,-9.360725 11.337022,-13.496389 3.181894,-4.552574 9.524253,-9.517385 14.108804,-14.4472 3.45306,-2.425607 6.214283,-5.05381 9.485593,-7.430839 3.33358,-1.678687 5.77264,-3.746134 9.00426,-5.497959 3.23907,-2.73429 6.8213,-4.115709 10.15028,-6.39136 3.48087,-0.923638 6.49929,-3.198781 9.71019,-4.863817 2.83899,-1.506514 6.11407,-2.589689 9.01474,-3.647873 2.83336,-0.937407 5.48155,-2.144232 8.48292,-2.837234 3.26672,-1.559939 7.13176,-1.937692 10.77817,-2.837233 3.8587,-0.954802 7.77883,-1.761308 11.92314,-2.026596 3.97684,-1.177147 8.765,-0.621573 12.96952,-1.415656 7.83093,0.217143 16.00447,-0.51968 23.62957,0.270588 3.39501,-0.870151 5.80804,0.502076 9.84082,0.318347 4.64323,-0.266363 8.28482,2.068211 13.13583,1.47195 4.21297,1.358091 7.54549,2.423431 11.86673,3.137746 3.25922,1.907021 7.33763,2.06961 10.5609,4.053192 3.63796,0.413047 5.83051,2.533517 8.75313,3.647872 2.46722,1.416869 5.25419,1.638921 7.66367,3.647872 2.79423,2.113047 5.40728,2.145595 8.12502,4.86383 3.59655,0.527837 6.13302,4.398949 9.26972,5.173372 5.22261,3.503615 9.70884,6.537776 14.57953,10.508784 2.48478,2.895176 5.17745,4.914631 8.47979,8.273687 3.20116,3.504417 5.50082,5.426219 8.18424,9.108743 5.29336,5.341193 8.9808,11.550513 13.24043,17.944843 3.49959,5.08797 6.74209,11.11113 9.32234,16.81393 0.78559,3.37038 3.55993,5.77058 3.64787,9.20419 1.39867,2.36944 2.18925,4.83744 3.24255,7.78061 0.6534,3.2497 2.42412,5.34117 2.43192,8.88945 1.65502,3.43887 2.14332,7.18597 3.24255,11.02702 0.42456,4.54481 1.70328,8.50251 1.62128,13.39551 1.76419,7.13294 0.36476,16.44043 0.81063,24.47954 0.25456,5.19403 -0.86352,9.44459 -1.21595,14.22139 -0.29515,4.48318 -1.86642,8.73806 -2.0266,13.42989 -1.75748,2.33072 -1.65852,5.9375 -2.43191,8.94465 -1.13766,2.91453 -2.01708,6.12144 -2.97234,9.31931 -1.10304,2.49804 -1.92515,5.18919 -3.24256,7.53988 -1.62286,2.53645 -2.56299,6.13182 -4.32346,8.20904 -0.23134,3.29956 -2.06413,5.77348 -4.28792,8.48129 -2.31798,4.64171 -5.09333,8.82509 -8.6822,13.24276 -2.24322,4.48944 -6.47994,8.04558 -9.3233,12.34623 -3.18348,3.92605 -5.44835,5.74653 -8.08731,9.16202 -2.85598,2.13132 -4.81566,5.29149 -7.62265,6.79886 -3.93174,4.49404 -8.74336,6.75119 -12.89796,10.5134 -3.14847,1.27694 -5.73262,4.53152 -8.5457,5.12881 -3.11013,2.01942 -6.51082,4.43643 -9.7277,5.54451 -3.05847,1.72936 -6.10331,3.21287 -9.45744,4.86383 -3.26327,1.30695 -6.38147,2.92284 -9.72766,4.0532 -3.15708,1.23597 -6.3658,1.76163 -9.28495,2.83723 -2.83455,0.94558 -5.63286,1.9439 -8.78192,2.43191 -3.62436,0.43284 -6.75612,1.58231 -10.65121,1.62128 -4.32698,1.3527 -9.80254,1.39539 -14.70282,1.80671 -5.9449,0.22322 -11.84998,1.34399 -18.18732,0.22152 z m 19.34037,-3.93482 c 4.63167,-0.46077 9.63963,-0.55315 13.8958,-1.73965 3.61438,-0.81694 7.26438,-1.0664 10.63601,-2.0266 3.1242,-0.53929 6.22743,-1.8716 9.34818,-2.43191 2.11018,-1.25222 4.56661,-2.0007 7.24112,-2.43192 2.261,-1.86425 5.2993,-1.99998 7.63213,-3.64787 5.13641,-1.53595 9.35079,-4.81815 14.58188,-6.89083 2.66269,-1.47026 5.797,-3.74985 8.59735,-5.39287 2.51437,-1.18158 5.03429,-3.42152 7.76013,-4.87507 3.95623,-2.50535 6.82362,-5.17404 10.5383,-8.87048 4.0824,-3.09818 9.63596,-8.25007 13.10532,-12.87501 3.34582,-4.09877 6.96187,-8.24406 10.26808,-12.1604 0.96895,-2.79297 3.50765,-4.8731 4.85218,-7.50198 2.50306,-3.3888 4.42057,-6.81729 6.0911,-10.4731 1.16504,-2.74105 3.70102,-5.53479 4.45851,-8.41398 0.53675,-3.04676 3.23691,-4.90629 3.24255,-8.19255 1.17331,-2.30343 2.61805,-5.40921 3.51277,-7.78182 1.12355,-3.29691 1.48933,-6.93845 2.56702,-10.19888 0.61413,-3.61689 2.18905,-6.20542 2.0266,-10.21027 1.76226,-3.42228 0.8694,-8.833 2.43191,-12.63994 -0.33922,-4.33025 0.48523,-10.58399 0,-13.55299 -0.12598,-5.38454 0.33784,-12.39326 -0.40173,-16.73362 -0.0595,-2.79963 -1.16166,-7.80326 -1.21954,-11.64807 -1.10111,-3.66038 -1.6975,-6.9671 -2.43192,-10.59292 -1.13241,-2.91588 -1.82285,-6.13555 -2.43191,-9.41118 -1.38667,-2.16336 -1.8174,-4.88577 -3.10745,-7.35356 -1.81832,-2.94295 -1.83623,-6.61733 -4.45851,-9.28835 -0.54913,-3.9035 -3.13645,-6.68046 -4.45851,-9.99447 -1.36131,-2.6279 -3.26431,-4.7943 -4.45842,-7.67229 -2.67764,-3.90442 -5.43575,-7.92422 -7.95394,-11.92199 -2.30124,-3.136286 -5.84408,-6.412093 -7.48407,-8.938035 -8.15488,-8.62504 -16.5138,-16.85633 -26.0452,-23.147304 -2.94193,-1.642948 -5.0711,-3.677213 -8.25283,-4.697115 -2.18223,-2.163406 -5.47204,-3.351939 -7.90928,-5.674471 -4.12537,-1.346941 -7.57421,-4.134545 -11.79929,-5.269149 -3.48713,-1.828478 -7.19615,-3.184427 -10.94362,-4.45851 -2.57545,-1.458631 -6.23728,-1.669083 -8.24149,-2.971979 -4.4304,-0.15569 -7.97969,-2.438566 -12.47734,-2.431915 -5.18248,-1.441389 -10.80397,-1.822937 -16.66703,-1.621276 -6.75854,-1.752962 -14.86435,-0.254035 -22.14194,-0.754171 -6.51882,-0.547383 -12.10553,1.343151 -18.62267,0.742275 -3.50372,1.790258 -7.85253,1.78089 -11.69527,2.84922 -2.86919,0.871109 -6.11871,1.141299 -8.1642,2.837234 -3.33181,0.310553 -5.99032,1.597977 -8.76149,2.431915 -2.78861,0.803171 -4.91612,2.303927 -7.86771,3.242553 -2.56096,1.851172 -5.72497,2.490646 -8.4253,4.053185 -2.59221,2.049769 -5.53527,2.846942 -8.14132,4.86383 -4.19221,1.902664 -8.57039,5.301121 -12.65964,7.83927 -8.28131,5.999793 -15.80248,13.553204 -23.531402,21.158303 -1.272001,3.801195 -5.021808,4.927817 -6.755319,8.91744 -3.699254,3.20513 -5.568718,7.24995 -8.106377,10.79551 -2.35116,2.84869 -3.813417,6.16186 -5.674468,9.25002 -1.721549,2.91416 -2.595361,5.05152 -3.782979,8.09677 -0.904255,2.86394 -3.122239,5.42872 -4.053191,8.69799 -0.543149,2.72099 -2.281938,5.30229 -3.242553,8.08204 -0.487736,3.26615 -1.631648,6.08128 -2.431915,9.13262 -0.439657,3.75509 -2.816913,7.02502 -2.431915,11.42353 -1.210818,4.02453 -1.6722,7.86246 -1.621277,12.46987 -1.969619,4.01778 -0.215166,10.5802 -0.762031,15.57014 0.378234,5.17512 -0.614637,11.15947 0.559367,15.86493 1.022626,3.89429 0.210218,8.88162 2.094149,12.46339 0.04572,4.23363 1.435926,7.66321 2.431915,11.08175 0.427255,3.2904 1.39462,6.20955 2.431914,9.08064 0.769708,2.86098 2.094172,5.89326 3.242553,8.83653 1.058397,2.26771 1.697294,5.10367 3.242554,7.31591 0.909921,2.4652 2.485282,5.44653 4.053186,7.3765 1.020174,3.49379 2.908478,6.12256 5.098552,9.29193 1.618392,3.36007 4.013027,6.2916 6.250379,9.65606 3.076993,3.99317 5.947608,7.892 9.997872,11.60973 1.828776,2.50397 5.511146,6.87267 9.015327,9.23329 2.245358,1.87441 5.851399,6.30283 9.240949,8.05392 4.052,4.5146 9.30622,6.19808 13.55223,10.26808 2.80319,1.0166 5.28478,2.72625 7.87049,4.57585 2.68066,1.04604 4.92822,1.81471 7.42809,4.07194 3.52896,0.42785 5.38753,2.47673 8.55674,3.64787 3.61797,1.12704 6.79481,3.19342 10.5383,4.05319 3.47527,1.5835 7.1014,2.84578 10.94362,3.64788 4.29713,0.96451 8.33201,2.45125 13.24042,2.5036 3.50958,1.35067 7.51268,1.32261 11.41855,1.8624 6.75815,0.72942 16.47601,0.1199 24.41053,0.19632 0.27684,-0.43037 1.00413,0.36549 1.21042,-0.25693 z m -23.93399,-4.71199 c -4.6083,-0.42994 -9.17155,-0.95582 -13.47891,-2.0266 -3.93929,-0.41661 -7.65478,-1.30981 -11.26278,-2.43191 -3.2593,-1.01777 -7.30203,-1.17338 -9.55837,-3.24256 -2.90165,-0.8908 -5.63254,-1.4619 -7.95085,-2.83723 -2.88115,-1.61785 -6.67169,-2.69387 -9.56377,-3.64787 -4.46078,-2.70735 -10.44258,-5.58149 -14.54558,-7.68303 -3.67345,-2.21471 -7.1553,-4.52234 -10.78548,-7.179 -3.394,-2.55 -6.88837,-6.08729 -9.87979,-8.10658 -5.023923,-5.39185 -10.75099,-9.4345 -14.64202,-15.32809 -2.967822,-2.11632 -4.904677,-6.11561 -7.432601,-8.82036 -2.431518,-2.50999 -3.991598,-5.67475 -6.017893,-8.53034 -2.344531,-2.54568 -2.205022,-5.20623 -4.856317,-7.39357 -0.789927,-2.90798 -2.395351,-5.01707 -3.647976,-7.75477 -1.133991,-3.73705 -3.259823,-7.00831 -4.45851,-10.71498 -1.013664,-2.38864 -2.012103,-5.14675 -2.837234,-7.56178 -1.31159,-2.74778 -1.209157,-6.46753 -2.837234,-8.99777 -0.32495,-4.05071 -1.555342,-7.60257 -2.414412,-11.44875 -0.840061,-4.61937 -0.963843,-9.5077 -1.908992,-13.58314 0.156352,-9.89317 -0.530576,-20.18235 0.810638,-29.51911 0.647891,-4.01785 1.041807,-8.03183 1.621277,-11.88048 1.510053,-2.86066 1.587124,-7.36951 2.837234,-10.4984 1.212526,-2.56386 1.010775,-6.26877 2.837234,-8.26192 0.800724,-2.72288 1.379078,-5.3614 2.837234,-7.77835 0.858158,-3.72613 3.272931,-6.6289 4.728723,-10.40319 1.274212,-3.09792 3.16499,-6.6841 5.134042,-9.99788 1.787859,-3.06465 3.74868,-6.21803 6.079787,-9.32234 3.458184,-4.01038 5.917823,-8.58932 10.403139,-12.445724 3.594131,-4.894894 9.131216,-10.647492 14.272061,-13.764909 4.07233,-4.635305 8.7322,-8.456176 13.54718,-11.360374 2.61247,-2.024465 5.05612,-3.106388 7.85816,-4.852382 3.78554,-2.313395 9.29714,-4.965943 13.54289,-7.025431 2.74791,-1.386099 6.58987,-1.789915 9.21184,-4.053192 4.13207,-0.233819 6.98255,-3.19671 11.01255,-3.647872 3.44429,-1.28107 7.2233,-1.612994 10.76991,-2.837234 3.72797,-0.424483 6.91312,-1.638683 10.94483,-1.621276 5.14212,-0.413659 10.17174,-1.114548 15.83252,-0.843957 8.94253,-0.05658 17.98433,-0.547388 26.60432,0.573744 3.91782,1.414765 8.48339,0.764865 12.11459,2.431928 4.28273,-0.155698 7.2828,2.419967 11.4868,2.431914 2.95032,1.519186 5.43167,2.745911 8.79915,3.242554 2.04582,1.699711 4.75922,2.428213 7.41362,3.242553 2.69066,1.219352 4.99761,2.484107 7.63213,3.647872 3.17959,1.528356 6.38641,3.973534 9.51002,5.101549 4.08027,2.5571 8.35759,5.205463 12.11731,8.00377 3.55574,2.505678 6.55143,6.324387 10.49209,7.836107 2.6189,3.763766 8.27905,7.989062 11.38485,11.724463 3.68841,4.037115 6.39913,8.504497 10.26904,12.309197 0.66193,3.20871 3.93402,5.25487 4.87806,8.09435 4.01748,5.62016 6.97815,11.654 9.7134,18.68896 2.17088,2.48273 2.56363,6.48603 4.05322,9.30154 1.34595,3.47304 2.30883,6.56167 3.42431,10.10663 0.47068,3.94564 1.90414,7.34848 2.92576,10.5686 0.86074,4.05639 1.13544,8.15417 2.02659,12.04472 0.34914,5.53067 1.2389,10.80746 0.81064,16.7032 -0.28061,5.30169 0.56247,11.37577 -0.40532,16.20512 -0.87194,3.86794 -0.19138,8.83561 -2.02659,12.39824 -0.14399,4.72185 -1.50129,8.24331 -2.43192,11.89239 -0.34601,3.54719 -2.05791,6.10079 -2.43191,9.8625 -2.8663,3.44201 -2.73481,8.37935 -5.67447,12.02171 -0.63121,2.80366 -2.76836,5.61064 -3.64787,8.40814 -1.69242,2.85457 -3.91649,5.82412 -5.09855,9.06473 -2.55281,3.02604 -3.74764,5.84387 -5.84506,9.08284 -3.62398,3.85502 -6.91765,8.08558 -9.9192,12.25933 -4.89903,4.89305 -11.02124,11.02561 -15.2788,14.89112 -2.91369,2.69535 -7.2365,4.98869 -9.27644,7.97136 -3.7398,1.55559 -6.74436,3.84569 -10.09815,5.82097 -2.95033,2.26145 -6.14557,2.77512 -8.91702,4.86375 -2.76224,2.09368 -5.42589,2.36881 -8.40857,4.04174 -3.20706,2.37105 -8.05948,2.00745 -11.39581,4.59362 -3.95148,0.87198 -7.34728,2.73809 -11.28694,3.24255 -3.02463,0.79018 -6.30419,1.37957 -9.46317,2.36411 -4.13864,1.10491 -8.34536,1.25141 -12.39119,1.9593 -4.83537,-0.0511 -8.63404,1.40601 -13.84351,0.81064 -4.58746,-0.2783 -9.76048,0.55876 -14.01794,-0.40546 z m 22.25395,-2.43192 c 4.30476,-1.0666 9.87344,0.35495 13.64696,-1.21595 2.89562,-0.68864 6.59673,-1.01343 8.74201,-2.70213 4.41475,0.23909 7.47674,-2.40245 11.76537,-2.43192 3.22175,-1.73005 6.76081,-2.7844 10.19916,-4.05319 3.53998,-1.50957 7.29678,-2.55743 10.46502,-4.8586 3.19232,-0.52585 6.23126,-3.1161 9.06633,-4.58736 2.46207,-1.26242 5.19008,-2.62112 7.72614,-4.87524 3.99588,-1.78929 7.36767,-5.11397 11.04016,-7.76 5.04118,-4.17077 10.24676,-9.17264 15.39906,-14.39452 3.96982,-3.28298 5.59997,-6.51293 8.16588,-10.26949 3.94992,-4.00454 5.91044,-7.97508 9.06825,-12.16102 2.2617,-3.442 4.40708,-6.92731 6.07979,-10.5383 1.60657,-2.35963 2.10901,-5.0954 3.64787,-7.35356 0.78963,-2.9264 2.46507,-4.97965 3.24256,-8.18367 1.13068,-3.16469 2.09445,-6.70775 3.24255,-9.58838 0.70751,-3.5699 2.24646,-6.48074 2.14518,-10.04639 1.58572,-3.59091 1.3022,-8.25107 2.71865,-11.76613 0.68045,-4.66167 1.05047,-9.53671 0.81064,-14.83095 0.42895,-3.14472 0.69862,-5.91125 0,-8.19906 0.50458,-6.62521 -0.63074,-12.57115 -0.81064,-18.91284 -1.68185,-3.30863 -1.89697,-7.2498 -2.70213,-11.00723 -1.503,-3.62523 -1.97203,-7.54935 -3.24336,-11.458 -1.14496,-3.15316 -2.30098,-6.64671 -3.24255,-9.65128 -1.83598,-2.2036 -2.29882,-5.28359 -3.64788,-8.16421 -1.62486,-3.42678 -3.26523,-6.1415 -4.72357,-9.45744 -2.45776,-2.86118 -3.41596,-6.61482 -6.21995,-9.23528 -1.54038,-3.23326 -3.56735,-6.19438 -6.48511,-8.98717 -1.94089,-3.8285 -5.48074,-7.072011 -8.08386,-10.649778 -3.21336,-1.899522 -5.89238,-6.697665 -9.47972,-8.686489 -2.89631,-2.535151 -5.90667,-5.025148 -9.24163,-7.026392 -4.7294,-3.882779 -8.89802,-7.54344 -14.80391,-9.695937 -3.26081,-2.836813 -6.99402,-3.740514 -10.8121,-5.981699 -2.61708,-1.535083 -5.65748,-2.029201 -8.00867,-3.507618 -2.07984,-1.668504 -5.43549,-1.480874 -7.45128,-3.242553 -3.54381,-0.433725 -6.69013,-1.914283 -10.21027,-2.837234 -3.20749,-1.067379 -6.88868,-1.126028 -9.79383,-2.837234 -4.74561,-0.277915 -9.50592,-0.524538 -13.86701,-1.621277 -5.29142,0.08108 -9.10866,-0.562547 -14.05082,0.332816 -3.50584,-2.25089 -6.26441,1.0016 -9.29173,-0.535471 -3.08853,0.672008 -8.83185,0.331796 -12.44341,1.28351 -4.25621,0.132078 -7.48311,1.761628 -11.92657,1.621277 -2.94056,0.93777 -5.72415,2.103933 -9.08386,2.431915 -3.28915,1.778318 -7.1222,2.398411 -10.46936,4.053191 -3.92595,1.124142 -7.19499,3.057356 -10.94362,4.323416 -3.14832,1.943719 -6.27931,2.363111 -9.14566,5.134043 -3.24781,0.309799 -4.93616,2.855809 -7.7571,4.053186 -2.93466,1.651952 -5.4884,3.851562 -8.65214,5.674468 -7.42606,7.039592 -15.55822,13.246172 -22.81318,21.00213 -1.498113,3.16229 -5.054327,5.44986 -6.314515,8.69648 -3.014591,3.44684 -5.74871,6.81631 -7.736549,10.69819 -1.893154,2.77599 -3.455563,5.09349 -4.863829,7.86805 -0.683164,2.79057 -2.331539,4.35678 -2.972341,7.33279 -2.30422,3.18294 -3.380848,6.94235 -4.863829,10.51094 -0.695826,2.69199 -2.054421,4.9284 -2.431915,7.83919 -1.603579,2.95923 -1.574488,6.68518 -3.242553,9.61413 -0.178522,4.82054 -1.741855,8.71226 -2.026596,13.27197 -0.724251,4.71343 -1.565354,9.34655 -1.215957,14.79796 0.05005,7.7481 -0.367593,15.71582 0.810638,22.93411 -0.06607,4.47112 1.295414,7.94587 1.839631,12.12073 0.84413,3.79505 2.045883,6.72928 2.483773,10.66748 1.051981,2.39678 2.072036,4.8155 2.431915,7.68801 1.416028,2.1307 1.781373,5.11668 3.242553,7.62378 1.503263,3.65826 2.948993,7.34353 4.86383,10.80851 0.897145,2.87539 3.638655,4.77354 4.053191,7.77835 2.088808,2.11679 2.993899,4.9536 4.863825,7.37759 2.399646,2.89827 4.872493,6.01428 6.755323,9.05069 3.670529,4.10793 6.745674,8.35369 10.977212,11.6955 2.652366,3.99117 5.947853,6.0905 9.089773,8.97937 4.25751,3.97799 9.012,6.61685 13.2963,11.05186 2.81711,1.31365 5.84094,3.55303 8.51968,4.7281 2.72486,1.58051 6.46102,2.68205 9.1141,5.26852 3.68221,-0.0348 5.64486,3.50159 9.27733,3.24255 1.80424,2.06944 5.26951,1.72235 7.45128,3.24255 2.63982,1.24694 5.67711,1.91558 8.26192,3.24255 4.24132,0.14244 7.58327,2.20004 11.7826,2.43192 3.77329,1.58898 8.00321,1.4752 12.17679,2.43191 6.32421,-0.0956 11.90171,1.39877 18.45719,0.81064 2.61709,-0.30343 5.83203,0.58661 8.15257,-0.40338 z M 190.56957,331.2184 c -4.28832,-1.2285 -9.12614,-1.1586 -13.40444,-2.09396 -4.47024,-0.003 -7.92011,-2.17863 -12.27276,-2.43191 -3.2944,-1.53361 -7.01739,-2.15459 -10.52107,-3.24256 -2.77345,-1.53019 -5.16664,-2.59088 -8.25872,-3.24255 -1.96896,-1.84353 -5.06235,-2.0512 -6.92241,-4.05319 -3.23585,-0.41754 -5.33898,-3.17357 -8.29244,-3.78365 -3.12043,-2.12872 -6.4005,-4.33384 -9.42345,-6.47582 -3.80783,-3.02944 -8.09572,-5.39632 -11.60069,-9.46762 -3.64594,-2.16928 -6.69412,-6.04484 -9.1705,-9.08841 -6.882128,-6.47511 -11.624874,-13.3627 -16.383126,-20.73168 -2.241581,-3.47431 -4.657482,-7.00145 -5.944681,-10.55493 -1.900995,-2.44672 -2.653696,-5.53039 -4.053186,-7.78067 -1.038008,-2.87998 -2.3865,-5.54655 -3.242553,-8.5516 -1.32695,-3.15587 -1.925784,-6.38373 -3.242553,-9.83122 -0.81439,-3.59274 -0.847082,-7.43925 -2.431915,-10.27112 0.0934,-4.46462 -1.65874,-7.90435 -1.621277,-12.50117 -0.572185,-4.45105 -0.128998,-7.45001 -0.810638,-10.00126 -0.325661,-6.60481 1.444976,-12.22519 0.810638,-18.97496 1.739569,-3.75285 0.841724,-9.09459 2.431915,-12.63994 0.600768,-3.0111 1.335206,-5.93033 2.431915,-8.60054 0.680693,-2.81365 1.406751,-5.33032 2.837234,-8.00867 0.414295,-3.38336 2.35017,-6.04064 3.377659,-9.20125 0.828139,-3.02523 2.467092,-4.87296 3.647873,-7.55194 1.568127,-2.93696 2.177792,-4.77278 4.728731,-7.66705 1.05086,-3.15564 3.755315,-6.1654 5.913141,-9.14025 3.126464,-4.29625 5.923773,-8.645 10.299732,-12.53095 2.317061,-3.12305 6.033271,-7.009908 9.758671,-9.747333 3.50962,-3.247088 6.10529,-5.923767 9.8732,-8.201629 3.30673,-2.402145 6.97855,-4.852373 10.28405,-6.905161 2.71835,-1.451944 5.20406,-3.516773 8.35316,-4.173557 2.83789,-2.624926 6.46528,-3.396302 9.71089,-4.86383 2.92193,-0.763284 5.63434,-2.883331 9.00317,-3.242553 3.0919,-0.336946 5.5178,-2.370333 8.95219,-2.431915 3.7941,-0.604615 6.59467,-2.543359 10.79473,-2.431914 4.87122,-0.805644 9.51463,-2.161282 14.94324,-1.621277 4.78746,-0.876035 11.59592,-1.143236 16.64759,-0.447067 4.56824,0.776767 9.76267,0.291402 14.29397,1.257705 4.6139,0.5475 8.06332,1.842794 12.7137,2.459989 3.8524,1.877284 7.94802,1.518975 11.19296,3.754905 3.8696,0.231941 6.19278,2.731215 9.94867,3.242553 2.43767,2.071063 6.14222,2.99419 9.42941,4.739386 2.40124,1.828998 4.66974,2.600729 7.44192,4.192635 3.59568,3.270626 7.83243,4.933586 11.32292,8.091371 2.79334,1.461371 7.41271,5.44275 10.65683,8.471491 4.78634,4.066892 8.81529,9.258791 13.28396,13.877601 1.67348,3.42142 5.3422,5.92579 6.21489,9.70511 2.58409,2.87437 4.70892,6.26501 6.0798,9.11585 1.12007,2.74238 3.08694,5.26689 4.45852,8.41399 1.24444,3.47473 3.56047,6.39731 4.05319,10.23661 1.79442,2.1784 1.47346,5.40369 3.24255,7.17515 0.30535,3.11623 1.63426,6.17536 2.43192,9.00318 0.96786,3.70813 0.76608,7.96554 2.43191,11.34591 -0.44095,4.87179 1.42031,8.78996 0.81064,13.73164 0.82096,1.75626 0.78992,6.46053 0.81064,10.20421 -1.5903,1.96022 0.32817,7.29077 -1.62128,10.38117 0.43293,4.85976 -0.52313,8.93079 -1.40619,13.10584 -0.2995,3.99594 -1.7478,7.7716 -2.7822,11.41735 -0.6679,3.29529 -1.98357,6.6103 -2.83805,9.47441 -1.55404,2.70239 -2.75562,6.00256 -4.05319,9.28791 -1.79727,2.68899 -2.45523,5.67659 -4.86383,8.08985 -0.27519,4.49948 -4.57297,7.03738 -6.3086,11.02975 -2.46552,3.67484 -4.65965,7.34392 -8.01268,10.70828 -2.62603,5.09019 -8.92761,9.84415 -13.36757,14.68826 -4.37185,3.66863 -8.7534,7.31104 -13.21196,10.70822 -3.98955,2.08652 -7.08282,5.16915 -10.70983,6.5585 -2.53169,2.047 -6.59393,2.74103 -9.05213,5.08971 -3.69643,0.71541 -6.33491,2.93086 -10.13297,3.67067 -3.18631,1.38919 -5.72979,2.70833 -9.39963,2.83724 -2.26855,2.41285 -6.65298,2.15694 -9.31425,3.51276 -4.41025,0.30808 -7.50706,2.27275 -12.39296,1.61497 -4.55508,1.50345 -9.20032,1.47389 -14.42972,1.55788 -4.62228,-0.23187 -9.83227,0.65663 -14.12468,-0.26695 z m 14.53556,-1.01314 c -0.59143,-0.62084 -1.58234,-0.16661 0,0 z m 2.87462,-1.75638 c 5.05972,-0.98621 9.44903,0.39164 13.20476,-1.21596 3.99235,-0.38996 8.21739,-0.85006 11.55152,-2.43191 2.632,0.75493 10.59022,-2.79792 4.32037,-2.97234 -2.36571,2.58636 -6.55615,1.70912 -8.57787,0 -2.06623,1.30424 -9.8191,1.64383 -9.38402,-1.77184 3.9324,-1.00489 4.71078,-6.55161 10.46487,-4.71323 3.70954,-0.16367 8.43673,-0.66332 10.13298,-3.7168 4.13597,-6.02262 -5.36529,-1.82201 -5.99234,-4.99043 1.81328,-3.64593 -7.24819,-2.42704 -1.70872,-6.54547 2.00653,-5.04188 -4.67439,-1.11589 -4.26918,1.36264 -2.83688,1.98381 -9.69683,-0.78983 -8.02541,4.91512 -3.12485,2.94094 -13.98402,-4.96473 -10.41297,1.65912 4.31097,-0.60377 7.68553,4.36568 0.74946,3.42745 -3.65763,1.00807 -8.53443,0.25025 -12.06858,1.45674 -0.54636,3.89329 9.8041,4.40289 6.39615,6.4851 -3.3449,2.0014 -8.39112,0.44 -11.2141,-0.81063 -3.77791,-0.0301 -5.07027,-4.07362 -8.97806,-3.10744 -0.30347,3.37877 9.04615,4.57322 3.51137,7.04124 -2.52837,4.15637 -6.33794,-1.23448 -8.85159,2.55067 -3.71846,1.31353 5.45438,2.49619 7.94842,2.97234 5.45674,0.051 10.3284,1.34793 16.06141,0.81064 1.50716,-0.3416 4.14675,0.64014 5.14153,-0.40501 z m -50.07221,-9.546 c -0.37331,-3.88978 3.21281,-2.93707 6.78745,-4.35604 2.24616,-2.42335 5.94282,-3.71785 7.81245,-6.63335 2.90269,-3.58167 -0.70513,-4.04624 -3.64792,-1.18059 -2.23443,1.82408 -5.2506,2.66217 -7.43114,4.15201 -3.06982,0.8111 -5.75181,2.18642 -9.489,2.0266 -1.70362,1.36227 -10.42322,1.71397 -6.10923,4.18829 3.43366,1.28352 8.20126,4.82283 12.07739,1.80308 z M 272.5606,308.18292 c 3.71995,-2.56175 8.31163,-4.88536 11.80366,-8.48548 2.60326,-2.43288 -8.58036,-0.83303 -11.437,-1.38712 -2.89087,1.33236 -9.78757,1.40388 -12.68177,0.01 -3.39683,-0.35451 -6.60324,-0.89543 -9.47441,-2.16165 -1.51559,3.25732 5.98501,4.25275 9.14664,4.41205 1.70065,3.18923 6.12207,3.29797 10.07455,4.09139 0.8631,3.96538 -8.60668,3.99943 2.56833,3.52096 z m -151.12371,-7.56595 c 2.18819,-0.26499 8.20435,1.70723 11.04718,-0.40532 6.95989,1.34081 -2.97445,-4.44835 5.00169,-4.05319 3.68365,-3.02558 7.46835,-0.78811 10.68232,0.11635 3.84522,0.71822 10.43486,1.65715 11.68389,-3.49403 6.42194,-2.37725 12.9934,1.02318 19.69477,-0.49187 -2.15114,-1.95797 -5.97048,-2.4576 -9.61373,-2.61553 -3.8769,-0.35373 -6.5107,-0.68538 -10.89902,-0.27021 -2.75997,-0.19332 -4.98518,0.32147 -9.23858,0.27021 -3.52253,2.27937 -7.96805,2.35837 -11.97312,3.51277 -4.33246,0.32112 -7.50809,2.03768 -12.11913,1.62127 -6.60831,-0.45071 -17.80349,-0.64919 -7.74151,4.59362 0.8333,0.53787 2.77856,2.33511 3.47524,1.21593 z m 87.45121,-1.89149 c 3.87981,-1.87765 8.28935,-3.32734 12.42979,-4.05319 3.77252,-1.61009 6.9842,-4.39866 11.55298,-4.1883 3.14973,-2.24783 6.66921,0.69447 10.081,0.54038 2.93015,4.08794 8.75123,-0.2233 12.84514,-0.81063 8.37023,1.43343 0.32604,-3.26546 -3.94508,-0.94575 -3.07835,2.39595 -6.752,0.15809 -10.37041,-0.13511 -3.52325,-1.00459 -0.36295,-7.09505 -6.23239,-7.36022 -3.10606,0.0754 -10.67025,-1.03167 -8.25691,4.18384 1.14736,4.91411 -4.20203,6.4605 -7.71795,6.95936 -4.63344,0.98916 -9.78411,0.87688 -14.91317,0.81064 -2.48034,2.92475 -6.92305,3.20599 -9.92894,3.91801 2.90349,2.79091 10.44758,1.30672 14.45594,1.08097 z m -84.00503,-10.3056 c 3.70613,-0.37648 7.78289,-0.16355 11.36429,-1.93599 4.74468,0.26125 8.82662,-0.97338 13.14025,-1.416 4.59561,0.56468 7.4421,-1.89055 11.50175,-1.88009 2.90769,-0.58617 5.66597,-1.68678 8.17975,-2.56702 2.50224,-1.2757 6.0885,-0.97435 8.18714,-2.83723 3.60421,-0.58173 7.09102,-1.02496 10.55526,-2.0266 6.03291,-0.65339 13.42499,-0.69281 19.45532,0 2.92254,0.89642 6.04189,2.90322 8.6559,2.0266 2.8875,-4.00652 7.10321,-4.55141 11.93927,-4.05311 4.32277,0.22566 8.28667,0.87562 11.40245,4.05319 3.33708,1.62546 4.08442,9.14593 8.35777,2.60516 4.2702,-0.93438 6.77498,1.8916 11.02363,1.44803 2.67967,1.31078 5.50687,1.5956 7.78557,2.75877 3.69221,2.35438 6.11223,0.86082 9.30092,-0.81083 4.72544,0.69331 9.1253,2.20099 14.40559,1.51496 2.84486,0.78262 14.23269,-0.50221 9.17376,-1.70654 -4.20387,1.19319 -9.33812,0.0231 -13.23972,-0.94574 -6.03275,1.73554 -12.64979,-1.17847 -18.77251,-0.61086 -3.38689,-1.30412 -6.74124,-1.92518 -9.92404,-3.56885 -3.58381,-2.86582 -11.385,0.28454 -13.62984,-2.77863 3.97589,-3.01842 -0.0552,-8.43654 -1.63413,-11.58072 -0.65262,-4.55133 -2.44964,-8.1458 -1.68263,-13.07206 0.85565,-4.83332 -4.43283,-12.14928 -5.6002,-3.70517 0.46586,8.18533 -1.62892,2.98474 -1.12234,-1.92909 -2.66346,-5.18828 -2.08765,4.15098 -2.92886,5.50329 -0.67592,5.15395 0.61726,9.38571 1.61926,13.74484 -3.51171,3.06376 3.88726,7.4512 0.027,7.34725 -3.55713,-1.19853 -6.17275,-1.07852 -11.24075,-1.24031 -5.14676,-0.7563 -8.39291,1.38562 -13.13218,1.62127 -4.29671,0.0636 -7.4839,-0.38997 -10.56805,-0.58043 2.46349,-2.63085 6.43545,-1.29448 9.04284,-2.93233 7.63264,-0.59883 14.22987,1.30207 21.81803,0.81064 -1.91925,-4.58536 -9.99797,-1.04764 -14.41695,-2.16171 -7.43441,-1.02934 6.23463,-1.29047 8.56168,-1.01857 10.04726,0.78551 3.82559,-3.88549 -2.75631,-2.22404 -7.10537,-0.40723 -14.85645,0.81591 -21.56728,-0.58753 0.78618,-2.43053 9.92961,-0.31189 13.8222,-1.03375 2.95458,0.31616 9.08837,-0.22326 13.27817,0 6.56254,1.57791 4.44177,-6.0903 3.88917,-9.59255 -0.0731,-3.23064 1.32007,-7.1851 -1.02984,-9.51929 -10.0652,-0.99583 -20.77536,-1.30638 -30.58512,-0.47861 -2.65474,1.37434 -5.31794,1.57187 -7.63213,3.64787 -3.70436,0.17343 -6.84329,3.19183 -11.11026,3.64785 -3.42049,1.18076 -7.57941,2.25368 -11.53162,2.83724 -4.39742,-0.30526 -8.54695,1.76335 -12.56016,1.35398 -2.78438,0.45248 -6.13213,-1.56975 -9.32725,-0.4902 -3.43501,1.95272 -2.31938,8.87293 -2.69179,13.56924 -1.19409,2.63323 -4.48184,7.537 2.09562,6.3733 1.24048,1.44623 10.70392,1.17465 6.90164,2.51877 -4.49401,-1.25801 -10.41311,0.85888 -6.53858,4.54389 9.37071,-0.86679 7.02759,1.99766 1.42229,2.39479 -3.64478,0.71046 -7.70679,1.00118 -11.66671,1.62127 -8.62481,-0.13146 -17.72428,0.59379 -25.63811,-1.25534 -2.11321,0.18058 -10.635311,-2.59799 -7.42999,0.98513 4.80227,1.20895 9.29339,3.4927 14.26166,3.82237 2.49617,0.1844 6.44149,0.72392 8.7892,-0.21051 z m 33.20504,-7.79866 c 3.05154,-0.5805 6.97318,-1.30836 9.51526,-2.83723 4.10903,-1.10875 6.26762,-0.39208 1.01971,1.0808 -3.75855,0.3001 -5.57795,2.05441 -9.43406,2.1617 0.038,-0.54006 -1.56983,0.56577 -1.10091,-0.40527 z m 20.18874,-5.16622 c 0.0652,-2.70981 4.24991,0.97869 0,0 z m -12.17243,-0.82349 c 1.94559,-1.57931 7.18363,-2.50386 10.97735,-2.52199 2.40637,-1.74556 7.12181,-0.78906 9.16628,-3.24255 3.37993,0.29073 9.42103,-4.22413 10.34536,0.94574 -5.38736,-0.33496 -9.65565,0.98016 -14.06829,2.56705 -4.11733,0.73519 -8.12165,1.71106 -12.24572,2.43192 -1.32879,-0.16062 -3.00267,0.32598 -4.17498,-0.18017 z m 16.97297,-0.0988 c 0.58294,-2.76782 5.07122,1.38465 0,0 z m 4.11648,-0.69898 c 0.0652,-2.7098 4.24993,0.97866 0,0 z m -37.61747,-1.07021 c -5.16681,-1.19925 4.62287,-1.73584 6.40746,-2.00506 5.25237,0.41393 9.45309,-1.97015 14.66914,-1.93244 3.15135,-1.69894 7.24826,-1.55673 10.86367,-2.39097 1.87327,-0.15923 8.63914,-3.42358 8.10136,-1.12787 -3.20395,2.12114 -7.14417,2.25953 -10.72354,3.42476 -4.22125,0.37882 -7.94846,1.80967 -12.24574,2.0266 -4.81854,1.70072 -10.708,1.46099 -15.79494,2.11247 l -0.4467,0.29361 -0.83071,-0.40101 z m 40.79579,0.14638 c 1.23892,-2.38296 5.26858,0.98792 0.18976,0.30697 z m 47.69889,-1.32486 c -1.44833,-1.52098 -3.5491,-10.81972 -1.21596,-6.67355 -0.0487,1.25945 4.06727,7.89028 1.21596,6.67355 z m -37.46185,-4.47446 c -6.49345,-1.62366 6.58727,-1.65166 3.36848,0.40539 -0.94125,-0.32195 -2.97871,0.66069 -3.36848,-0.40539 z m 7.31446,0.1049 c 1.18075,-2.31251 4.55843,1.16143 0.18564,0.30037 z m -61.99323,-0.643 c -1.28446,-3.99248 1.56248,-9.25448 5.62082,-6.21716 -3.38879,1.38524 -3.24982,5.74022 -5.62082,6.21716 z m 8.22501,-1.51204 c -0.10556,-3.74574 1.19205,-8.15815 6.09434,-7.00198 -1.57315,2.57926 -4.15631,5.1177 -6.09434,7.00198 z m 9.52843,-0.68562 c -0.15125,-3.31388 0.50938,-9.0924 5.48293,-7.10251 -3.48646,1.3207 -2.40515,6.46615 -5.48293,7.10251 z m 9.53612,-3.72043 c -0.15957,-3.88134 0.87284,-5.61135 4.89274,-6.1087 1.88251,1.86629 -3.02615,5.02037 -2.46073,8.10638 -1.87754,0.005 -3.00094,0.55888 -2.43201,-1.99768 z m 20.26596,-4.30128 c -1.0303,-3.16434 1.90756,-12.49128 1.59193,-4.43534 0.79577,4.25484 -1.20759,15.31848 -1.59194,5.47558 l 1e-5,-0.89679 z m -11.34894,1.63322 c -2.62149,-5.2503 8.82909,-7.17972 4.05319,-2.21506 -0.97946,1.6394 -4.58768,9.90833 -4.05319,2.21506 z m 23.50851,-4.06907 c -1.9189,-7.57898 7.3723,-4.41294 11.76431,-4.95795 6.82075,-0.78737 5.61987,3.12153 0.86649,2.61411 -3.09932,2.21305 -3.21204,7.41843 -5.74035,0.012 -4.28046,-0.40953 -4.4752,4.37186 -6.89043,6.202 -1e-5,-1.29004 -1e-5,-2.58009 -2e-5,-3.87013 z m 47.62986,29.27098 c -2.13813,-1.43837 1.01857,2.1036 0,0 z m 11.91345,-5.80957 c 7.30077,-2.76131 -1.52619,-1.8998 -5.4427,-1.78593 -9.71139,-0.0856 4.15009,2.92506 5.4427,1.78593 z m 4.12887,-4.44124 c 4.35419,-5.69769 -4.27773,-4.77159 -8.44956,-4.61089 -3.30976,1.1721 -14.07643,-2.70076 -11.71832,2.63596 1.91523,4.7887 8.42279,2.09635 12.79106,2.7683 1.9673,-0.64228 6.62083,1.22185 7.37682,-0.79337 z m -16.7718,-6.16461 c 1.9003,1.10226 8.45699,-1.91681 11.45699,0.56441 2.94891,-2.60493 11.03234,1.90645 7.85357,-4.09526 0.0646,-5.21782 -0.75381,-8.45649 -0.81944,-12.95351 -0.91011,-6.19692 -7.06334,-6.78625 -12.63383,-6.01085 -2.65841,-1.07839 -9.02246,-1.15161 -13.02292,-0.42154 -3.19579,1.75541 -2.73809,7.15835 -2.04013,10.68965 1.095,3.26855 1.51365,6.195 4.70286,8.91702 4.41324,-0.22558 6.18478,0.8217 9.23823,0 2.76563,1.79421 6.67138,-0.91337 9.77176,1.02016 -5.01227,2.65157 -12.81585,0.66317 -18.4437,1.6817 0.91733,0.22277 2.63276,2.16493 3.93661,0.60822 z m -5.82804,-12.85556 c -1.103,-6.31311 7.02461,-4.21882 10.41395,-4.19196 8.44358,-0.71556 -0.21658,3.37085 -2.30761,4.82035 0.44748,-5.39737 -6.59022,-2.01117 -6.48509,1.41126 -0.0897,3.20698 -2.66128,-0.27097 -1.62125,-2.03965 z m -88.18707,-1.12795 c 3.70329,-0.77332 7.79625,-0.97976 11.31154,-2.0266 3.28772,-1.09623 7.469,-0.36201 10.3029,-2.70212 3.38447,-0.0475 5.76128,-2.08214 8.7857,-2.43192 2.96926,-1.70251 5.92249,-1.84623 8.55768,-4.05319 3.36644,-1.37696 8.27172,-1.15441 11.02466,-1.61038 6.91933,-0.10265 13.11732,1.05124 20.06982,0.6885 3.96441,1.84174 8.82328,-0.69563 13.03408,0.92201 7.57354,0.30961 15.719,-0.59862 22.95503,0.42972 4.88039,1.74751 6.64935,-3.00178 -1.07761,-1.78078 -5.57905,0.57009 -12.67708,-0.85085 -3.04555,-0.98688 7.52226,1.09407 1.03328,-4.08304 0.86036,-6.86626 -2.05735,-2.30951 -2.30318,-6.82762 -2.03575,-10.07472 -1.24827,-2.42135 -9.37984,-1.24801 -11.97442,-1.25725 -5.67282,-1.43931 -12.921,-0.58672 -19.42923,-0.81064 -3.44206,-1.19951 -8.28135,-0.61826 -13.06947,-0.81064 -5.77467,-0.49077 -10.69778,-0.9164 -10.01234,5.87874 -0.22755,2.86483 -3.03736,10.0286 -1.73944,4.12354 -0.67097,-3.06451 2.51703,-10.87342 -2.59425,-8.381 -3.27418,0.31 -5.84849,2.1347 -9.26452,2.83726 0.2363,3.98449 -1.11384,6.72861 -2.56704,9.42006 -1.18384,2.65317 -4.95831,5.28449 -7.6321,7.19803 -2.84195,1.28032 -5.44604,3.58199 -8.58064,3.50861 -2.8303,1.3084 -7.08956,2.99637 -9.7067,2.16685 -4.81126,1.86971 -15.39913,1.95199 -10.55925,-5.47036 0.80406,-3.33345 1.94912,-6.0467 4.05319,-8.96677 1.78767,-2.77827 4.35538,-4.22008 7.70105,-7.4316 2.79594,-1.26117 5.82517,-2.94113 8.33503,-4.07118 3.70179,-1.0169 7.22369,-2.41691 11.39598,-2.43191 4.32154,0.94023 6.51082,-3.04456 10.26678,-3.24256 5.35981,-2.37277 1.65588,1.89403 -1.62545,2.7022 -5.59099,1.08846 -3.56444,6.65845 1.04346,3.37766 2.57278,-1.54122 6.39497,-1.90217 9.15569,-3.91808 6.65894,0.17344 13.82766,-0.55206 19.79912,0.81354 7.83208,-0.0442 15.66361,-0.0497 23.05507,0.80767 5.65481,-0.61607 10.26558,0.99107 15.71581,0.81064 1.19195,-6.27262 -8.81721,-0.88364 -11.41814,-3.78298 -5.55759,3.4e-4 -11.31169,0.28657 -16.11487,-0.81064 -8.61842,-0.18622 -17.71401,0.59074 -25.65172,-0.86019 -8.05382,1.39715 -2.48956,-3.10147 -0.85876,-6.47708 1.35649,-2.47684 2.67011,-5.18696 2.43191,-8.54742 0.57538,-4.39473 0.95351,-8.69219 7.66224,-6.63028 11.33954,0.22312 23.21012,-0.69278 34.22472,0.22726 6.87725,-0.29861 2.43089,-3.93856 -3.10103,-2.51987 -5.39901,-0.10317 -10.17348,-1.40337 -15.83481,-0.8626 -5.37291,-2.49568 3.90978,-2.69684 2.17148,-4.86383 -2.44331,-1.92804 -7.12574,2.74971 -10.2609,0 -5.24093,-3.03589 4.60085,-10.16478 3.41189,-4.75916 -3.71331,6.90211 8.11823,2.61226 2.79089,-2.66216 -6.49629,-4.03367 7.11771,-4.52112 10.63764,-2.5252 0.74653,1.41931 -7.71319,1.749 -5.49143,6.76613 1.33307,2.61941 0.60748,9.08698 5.08029,6.33265 3.02139,-3.9261 3.63968,0.61152 7.4058,0.22322 0.28489,2.2035 7.23262,-0.71232 0.66044,-1.9545 -0.56752,-2.04574 -3.4275,-4.87451 -4.09441,-8.00382 -0.508,-3.30107 7.61272,7.04462 4.90156,-3.26364 0.22429,-5.09339 -0.35163,-11.85439 0.51438,-15.91703 -0.0622,-2.55336 0.86529,-6.7028 2.01493,-9.15181 0.19853,-3.14502 1.65494,-5.95131 2.83723,-8.68671 1.73514,-3.2433 3.12781,-6.86359 6.07979,-10.00126 0.63925,-3.54672 6.6248,-6.29807 6.09696,-8.81596 -2.66329,2.03592 -7.13231,1.88504 -10.15009,3.64788 -3.86005,1.52679 -7.81999,2.92407 -11.95692,5.09758 -2.48642,1.42037 -6.14963,3.25768 -8.67572,4.77318 -3.66841,2.32861 -7.12324,4.66418 -10.59498,7.57512 -2.52087,7.02473 -6.95596,-6.19159 -5.52132,-0.0151 3.2852,6.9645 -6.6404,4.01696 -10.43269,4.59142 -7.41111,0.0645 -15.06711,-0.39244 -21.94357,0.81063 -3.22986,1.63997 -9.4999,1.19646 -6.08744,-3.6378 -2.93339,-1.25589 -0.86522,7.34215 -6.05486,5.25908 -3.85475,1.28275 -8.53868,1.45773 -12.52638,2.43273 -3.97779,3.62941 4.45268,3.29903 6.04127,1.35106 3.32208,1.36564 -7.09969,3.75682 -6.41619,8.20409 -1.39987,2.27866 -1.87518,5.56812 -2.97234,8.00874 -1.32524,3.30596 -2.46438,6.66414 -2.83724,10.20191 -1.11032,3.95267 -1.6951,8.15211 -2.43191,12.28018 0.009,4.54331 -1.0428,7.39018 -0.68808,12.5045 -0.40983,5.03479 0.41671,9.39459 0.71845,13.95436 1.64014,7.52636 -6.96627,5.19513 -6.51558,-0.23649 -2.79725,-3.89688 -1.19502,-9.85975 -1.62127,-14.87005 4.20522,-2.8849 2.76995,-5.21255 -2.68455,-2.43788 -3.74908,0.37345 -6.42617,1.8327 -9.70557,2.38006 -3.61557,1.19795 -7.38339,2.26911 -10.46077,4.65955 -3.00005,5.59297 5.47206,1.19168 7.586,0.20433 5.39826,-3.48305 2.87391,1.03071 -0.94748,2.0266 -4.79507,0.66087 -3.44149,7.76684 -2.43194,11.09597 0.3439,2.72411 1.97899,5.46326 2.70212,7.86715 0.82519,2.86992 2.08647,5.31464 3.64779,7.75057 2.05616,3.58991 6.21716,7.69638 10.11794,8.61728 4.46777,4.33297 -6.43114,7.51349 3.68909,6.66838 3.34255,0.56663 6.55706,-0.97899 9.36532,0.82876 0.43651,-0.0528 1.20341,0.31432 1.18364,-0.40714 z m -0.64537,-2.76164 c -6.27825,-1.90897 9.91178,-0.14913 0,0 z m 7.36964,-0.83485 c -0.73967,-2.31087 3.5208,0.60921 0,0 z m 3.97929,-1.19979 c 1.87107,-1.41766 2.28741,1.52314 0,0 z m 13.03777,-3.175 c 2.75471,-1.79095 8.73256,-3.56064 12.15957,-5.47572 5.57628,-3.78501 13.18668,-0.79909 19.67787,-1.56704 10.22552,-0.0824 2.83513,1.17397 -3.02041,0.75091 -5.85827,0.33731 -12.46994,-1.13754 -16.31839,2.50799 -2.86245,1.01098 -5.3103,2.40032 -7.91398,3.24256 -1.58521,-0.18236 -2.90209,1.81159 -4.58466,0.5413 z m -34.81976,-1.26834 c -0.19241,-5.03404 1.71654,-8.4115 1.52307,-1.96407 -0.80901,0.16567 -0.73542,2.52642 -1.52307,1.96407 z m 93.23075,-4.31606 c 0.42611,-1.57441 15.13091,-0.3492 7.39755,0.18015 -2.42569,-0.13575 -5.10595,0.2691 -7.39755,-0.18015 z m -91.60213,-2.97234 c -1.01724,-3.83154 2.1432,0.40527 0,0 z m 43.59433,-2.50603 c 1.22554,-3.21749 0.8333,-8.79063 4.93992,-9.73463 4.93122,-1.64231 -0.10657,4.32513 -1.94061,6.51269 -0.40397,0.51483 -2.5268,6.00444 -2.99931,3.22194 z m 57.1453,-4.19386 c -1.73736,-5.3742 3.38023,-5.80772 6.44718,-4.73911 -0.90353,4.34875 -2.3619,1.28524 -4.68618,5.35577 -0.0522,4.15441 -2.52964,2.94957 -1.761,-0.61666 z m -41.20275,0.29291 c -0.16745,-5.08098 1.61407,-8.05446 7.43091,-6.51819 3.23663,7.57183 -6.88581,3.23149 -6.62032,8.66539 -1.51979,0.84728 -0.55899,-1.34563 -0.81059,-2.1472 z m 13.24043,-1.60726 c -3.48837,-6.55649 8.1262,-4.847 5.20159,-3.18559 0.55792,3.266 -5.0406,5.73922 -5.20159,6.15993 0,-0.99144 0,-1.98289 0,-2.97434 z m 16.21276,1.8733 c -0.50474,-4.93955 1.92016,-7.16135 7.97123,-5.97359 -3.2411,1.24769 -1.24669,5.34838 -6.21489,5.67451 0.79342,2.71743 -2.5019,3.61856 -1.75634,0.29908 z m -86.73829,-0.16402 c 0.96221,-3.28247 0.86171,3.15519 0,0 z m 5.86971,-7.19057 c 0.77217,-4.41444 6.73658,-6.41084 9.54371,-9.82574 4.06264,-3.1168 8.97889,-6.41675 13.38146,-7.84283 3.37214,-0.68349 6.94052,-1.74775 10.25725,-2.43192 3.00386,-0.0201 9.95728,0.7246 12.44711,-1.03157 2.28003,-4.68764 -5.91399,-8.51028 1.5732,-7.75036 2.99883,2.48733 -0.32569,6.48566 -1.05652,9.76626 -1.05405,2.96721 -2.0856,6.94264 -5.81734,7.93267 -3.17482,-1.119 -9.08697,-1.42139 -12.22101,0 -4.16203,-0.0378 -7.66566,0.67608 -10.80548,2.43192 -4.24801,0.29475 -6.84268,2.92628 -10.64123,4.05319 -2.00025,1.83555 -4.64035,3.81127 -6.66115,4.69838 z m 16.87776,-29.70187 c 0.97296,-2.57045 0.63796,2.72145 0,0 z m 27.42262,-1.65732 c 1.95607,-1.38978 7.22839,-8.52391 8.73629,-6.92867 2.6917,2.33687 10.27441,3.40044 9.18723,-2.67196 0.74478,-1.20456 4.27644,5.15361 1.89259,6.36179 -5.04563,-0.65224 -10.85701,0.83974 -13.73457,1.95263 -1.36179,-2.08489 -4.38844,1.63572 -6.08154,1.28621 z m -24.31727,-2.43004 c -0.60361,-3.9628 3.91377,-1.69278 0,0 z m 47.10462,-1.71382 c 2.5774,-3.38526 2.43979,2.81528 0,0 z m -44.67517,-1.5312 c 0.29634,-3.56546 4.28809,-6.72195 6.77357,-9.79997 1.75371,-2.8098 4.7544,-4.79552 6.82716,-7.65159 5.24073,-6.2223 10.36224,-7.43972 1.28352,0.53331 -3.75708,3.66741 -6.92533,7.6009 -10.20054,11.48779 -0.99559,1.72676 -4.04045,4.50278 -4.68371,5.43046 z m 59.26666,-1.99446 c 2.26653,-2.9525 -0.58587,-8.17483 3.24255,-2.52819 -0.14702,1.69906 -1.36105,3.89603 -3.24255,2.52819 z m -26.0305,-0.43746 c 4.95215,-7.6012 6.07265,0.23203 0,0 z m 4.95391,-4.79992 c 0.42086,-5.07832 11.60089,-4.67466 3.86392,-2.31577 -0.94887,-0.38926 -3.87998,4.93095 -3.86392,2.31577 z m 22.39281,-7.24706 c 3.27577,-5.98873 1.4199,-12.57545 -1.58646,-4.28275 -2.22226,5.87999 -2.24709,-11.64998 -3.18317,-0.32007 -2.462,8.66697 -0.25868,-8.83065 -4.56334,-3.21592 0.70934,6.4361 -2.40757,4.09045 -3.74575,-0.085 -3.08901,0.79221 2.0728,4.83294 0.8921,7.13165 -2.52204,-1.99311 -2.60173,-5.07695 -5.15949,-7.3677 -3.60591,-4.05092 1.28656,-4.14342 4.48051,-3.27678 3.2315,-1.21722 8.01747,1.01285 12.5831,-0.0155 4.93857,-0.78169 10.45572,-0.36989 4.55114,4.28065 -1.86588,1.06239 -2.54356,8.91492 -4.26864,7.15149 z m -37.25452,-11.49319 c 5.89561,-7.76585 4.32528,-0.15621 0,0 z m 38.01386,-1.78464 c -2.51,-0.77473 -9.08138,-3.04326 -4.73021,-5.61031 -4.72877,-2.9774 -2.10445,-3.29976 2.24928,-1.98569 -2.88224,5.58112 5.78916,6.86812 3.71067,7.88904 -0.19227,-0.46439 -1.38049,0.74931 -1.22974,-0.29304 z m -11.9395,-0.70759 c 2.59629,0.38131 1.35864,-9.60564 3.10862,-4.05911 0.68907,2.97283 -0.75918,4.56578 -3.10862,4.05911 z m -19.92702,-2.07585 c -1.31927,-2.94481 5.41875,-1.55461 0,0 z m 2.90596,-2.51397 c 0.76473,-3.63064 4.67539,0.32885 0,0 z m -47.49759,90.18162 c 2.55943,-1.96914 5.00033,-1.45014 7.91179,-1.8239 2.13547,-0.68439 6.47129,-0.25825 6.53809,-5.25548 1.31765,-3.61271 2.39109,-7.08871 2.37732,-11.79667 1.22142,-3.13738 -4.31336,0.84987 -4.81472,-0.78186 -2.18211,4.06171 -3.19504,-2.51282 -5.7941,2.97234 -3.00711,-4.2448 -3.24749,4.36002 -4.79325,5.7437 0.48963,3.82437 -2.71913,5.69588 -2.43192,9.75101 -1.88386,0.99042 -0.0562,2.89386 1.00679,1.19086 z m 1.42515,-4.34439 c 2.00786,-8.53814 6.29734,2.64043 0,0 z m 5.72912,-2.14072 c 3.24121,-8.27635 1.96452,7.31564 0,0 z m 3.99854,-0.7012 c 2.92278,-9.67081 2.34702,7.19206 0,0 z m -7.29575,-4.03502 c 2.72522,-7.474 2.51986,5.18092 0,0 z m 4.50517,0.16675 c -1.05008,-4.95914 4.82042,-3.86868 0.64074,0.51264 l -0.64074,-0.51268 z m 3.60121,-1.32696 c 1.79822,-10.23736 4.72947,3.25184 0,0 z m 29.72341,10.82782 c -1.13487,-1.27296 -1.82749,1.19524 0,0 z M 88.972081,231.18821 c 3.02216,-2.81245 -1.401432,-6.91693 -3.976529,-3.73576 -2.521916,1.66383 -1.50254,5.80397 2.33541,4.93586 1.39336,-0.0104 1.819268,1.60004 1.641119,-1.2001 z M 278.87321,219.55314 c 3.34113,1.53341 5.23037,-3.36176 1.62128,-4.1883 -1.56232,-2.81318 -5.65443,2.1207 -2.46501,4.59362 h 0.50734 z M 71.890236,219.41803 c -0.690404,-0.96937 -0.690353,0.96939 0,0 z m 183.790954,-5.58124 c -0.64177,-5.99256 -9.34242,1.15906 0,0 z m -28.02204,-0.89421 c 1.04186,-4.9055 -9.2722,0.11965 -2.39127,-0.27982 0.60448,0.48729 1.91371,1.44738 2.39127,0.27982 z m 15.00555,0.0375 c -2.35269,-3.53856 -5.76264,1.13667 0,0 z m -26.88286,-0.31732 c 4.23267,0.30008 9.493,-2.43278 7.02232,-7.83617 -1.91773,-0.89879 -9.05654,-7.30335 -1.40495,-6.45596 7.7691,-1.1507 1.82211,-5.19382 -4.01361,-3.75762 -3.60751,0.44049 -4.01013,8.40765 0.51743,8.99799 3.7068,-0.0644 4.69278,6.46697 0.15554,6.07978 -2.46287,4.02666 -8.16959,-3.89026 -9.44049,0.81064 -6.56378,2.14866 5.61504,2.69575 7.16376,2.16134 z m 3.8361,-15.84108 c -0.87038,-2.50151 3.32387,0.71473 0,0 z m 28.64535,15.37885 c -3.54627,-4.54885 0.0414,-4.65858 3.94262,-2.78032 -2.74251,-3.4883 1.6009,-7.14318 -1.00155,-9.88943 -0.64214,-2.40338 -3.053,-7.51157 -5.83753,-4.60785 3.00758,3.75272 1.54659,3.64225 -2.60011,1.25693 -2.32524,3.37191 5.0711,4.96386 1.11396,8.5117 9.42597,-2.59 -2.87486,2.67843 0.60331,6.52572 1.46854,0.0543 2.35675,2.99453 3.7793,0.98325 z m -11.81348,0.0569 c 4.33134,-1.55932 5.43077,-5.3033 6.21489,-9.35542 -0.93024,-3.6151 -4.46881,-7.41939 -8.00867,-7.93819 -3.37408,-1.25746 -6.74271,2.1811 -8.97408,5.02997 -1.50944,3.97082 -0.2373,7.43924 1.97249,10.14212 2.49132,1.54951 5.68506,3.2411 8.79537,2.12152 z m -4.0532,-1.35106 c 1.7024,-1.90943 2.74116,1.79288 0,0 z m 3.78298,-1.62128 c -2.90109,-2.14707 -4.35317,-2.71583 -8.32949,-2.65205 -1.68378,-3.80243 -0.43809,-8.46162 2.98372,-9.9129 4.62965,-0.97061 9.32052,1.31018 9.65443,5.98188 0.63394,2.61853 -0.99338,8.16481 -4.30866,6.58307 z m 2.83724,-4.45851 c -0.19822,-1.71752 -9.56943,-2.31345 -10.5383,-0.13504 3.43846,-0.16923 7.93882,0.45107 10.5383,0.13504 z m -4.41191,-3.51748 c 0.60102,-7.65419 -3.56106,1.62031 0,0 z m 3.19595,0.005 c -1.13491,-1.27293 -1.82746,1.19523 0,0 z m -7.29574,-0.54043 c -0.64149,-2.1883 -0.57447,2.10347 0,0 z m -12.53573,8.17394 c 0.81609,-6.9912 -7.45035,0.5115 -0.35815,0.47286 z m 35.77402,-2.09415 c -0.75654,-3.37988 -1.61421,2.57137 0,0 z m -41.07234,-1.84645 c -0.93608,-4.82055 -0.44093,4.34537 0,0 z m 45.17198,-1.68327 c 0.50809,-3.52448 2.23354,-6.16094 2.38552,-9.97354 1.01091,-2.84388 1.51526,-6.03596 2.43191,-8.94465 0.0955,-4.37995 1.35215,-7.63762 2.43192,-11.61613 0.9897,-3.18315 0.53819,-7.59923 2.43191,-10.09879 0.19733,-3.92313 1.72493,-7.22155 2.0266,-11.09568 1.0261,-2.79625 1.46696,-5.6215 2.02659,-8.58899 2.22731,-1.80503 0.21569,-4.11533 1.62128,-7.17369 1.2331,-2.66762 1.95331,-5.53569 2.36151,-8.90099 1.59029,-3.15091 3.65339,-5.78818 2.23205,-9.48532 5.84251,0.4232 3.52779,-4.56088 -0.76554,-4.22128 -5.74722,-1.43886 -2.30073,4.39458 -1.98243,8.41833 1.59741,3.26001 -1.41563,6.60247 -2.38601,10.09045 -0.9266,3.55306 -6.45845,4.44482 -8.99916,7.97197 -2.63105,2.30415 -3.62981,5.7617 -5.7122,8.3167 -0.10345,3.95461 -1.82094,7.1131 -1.20305,10.05777 0.41488,3.39581 0.48941,7.22052 2.67322,9.79383 0.30143,2.99436 5.42129,6.23084 1.89149,8.90867 0.44775,4.68047 -2.33858,8.12893 -2.43197,12.65914 -0.66754,3.72435 -4.6875,9.93067 -2.43191,13.82171 -0.58426,1.93533 2.38997,2.2556 1.39827,0.0605 z m 6.43866,-45.49795 c 1.57899,0.30379 0.50823,-0.16378 0,0 z m 1.79407,-5.33748 c -1.31938,-2.02768 2.13574,-10.94423 2.25915,-5.82336 -1.51518,1.11779 -0.63958,5.37145 -2.25915,5.82336 z M 133.78163,202.6766 c 3.02007,-1.74927 6.72431,-1.95236 9.78116,-4.06495 2.76359,-0.3298 8.25663,-0.22159 6.95936,-3.47467 0.76468,-3.62295 -1.05563,-9.20524 0.72144,-13.07328 -0.32995,-5.82726 0.98574,-11.00596 2.52106,-15.87758 0.0103,-4.63797 4.73117,-5.49308 7.50332,-8.20777 -2.98553,-2.99818 -6.62013,1.05682 -10.28553,0.7461 -3.47335,1.94023 -7.20677,1.16606 -9.43518,3.67859 -3.03729,0.7983 -5.51161,1.48863 -8.07658,3.75367 0.85944,3.6795 5.64531,-1.26378 8.94504,0.03 4.19672,-0.98404 -2.33842,2.25779 -4.47889,1.89148 -3.72438,3.03748 -4.45729,7.37262 -5.24883,11.34893 -1.75094,3.91782 0.21311,10.06045 -1.62128,14.2034 0.1092,2.23595 -0.4062,11.67498 2.71491,9.0461 z m 89.75857,-1.02474 c 0.86296,-3.2225 -3.22275,0.97576 0,0 z m 30.14979,-5.53936 c -1.90741,-5.74867 -0.74614,5.20873 0,0 z m 57.20343,-0.20266 c 3.7857,-0.96965 2.98855,-4.81122 -0.24886,-5.40425 -4.67236,0.82279 -1.57213,7.40008 0.0926,5.56733 z m -27.78139,-9.51406 c -5.64565,-3.31745 2.01368,3.73622 0,0 z M 113.68314,183.0297 c -0.72395,-0.35821 0.40334,1.15782 0,0 z m 175.20062,-1.42969 c 2.74449,-1.28536 5.19911,-2.41877 7.81836,-4.33477 4.14426,-2.77936 7.37096,-7.3395 8.75968,-11.19029 1.75237,-3.95258 1.60905,-9.18761 1.51453,-14.15189 -1.01055,-2.81948 -1.97446,-6.30403 -4.05311,-8.99231 -1.50719,-4.30677 -6.28306,-5.9722 -9.47608,-8.89955 -2.8467,-0.36679 -5.76827,-1.93228 -8.4442,-2.1617 -4.69438,-0.82618 -9.87135,0.36323 -9.31219,5.92425 -1.74421,2.7894 -1.73585,6.06359 -2.89619,9.20766 -0.72065,3.74515 -2.30127,7.18342 -2.83729,11.04683 -0.92899,3.77883 -2.23689,8.01361 -2.66505,12.13408 -0.86506,3.326 -0.67301,8.90112 3.41787,8.7042 2.071,2.62912 6.4415,2.00072 9.38903,3.51276 2.67947,-0.59957 6.7886,1.15675 8.78464,-0.79927 z m -170.05593,-6.88546 c 3.5409,0.13476 7.1926,-6.52523 1.02517,-5.04292 -4.07744,-0.88102 -3.81148,3.53081 -1.24285,5.43178 z m 30.53895,-17.51268 c 0.52396,-5.32557 2.57337,-9.37619 7.0442,-13.44309 2.68272,-1.64143 5.9888,-2.29773 8.94128,-3.23059 4.02593,-0.36076 -2.80973,-6.54853 -0.50878,-10.55822 1.0547,-3.5894 0.52211,-8.72187 5.5394,-8.50372 -3.30229,-3.47136 -9.07211,-0.22324 -13.41274,-0.67556 -7.35194,0.91553 -0.49059,4.45966 -4.2862,8.52893 -0.70559,2.54305 -2.57341,5.36576 -3.24255,8.50691 -0.90446,2.64343 -1.47785,7.55884 -1.62203,9.95662 -0.077,1.59928 -0.81572,9.88512 1.54742,9.41872 z m 7.49997,-32.63692 c 0.58255,-2.76781 5.07151,1.38462 0,0 z m 15.86901,23.05708 c 2.42717,-3.24108 6.18113,-7.21874 10.75235,-7.1058 2.39379,-1.68967 6.14687,-2.55747 9.14789,-2.97234 3.33803,-2.02038 8.83628,-1.48449 12.03679,-1.62128 5.05489,-0.36135 9.90622,0.34388 14.11081,1.62129 3.69194,0.26071 7.87218,4.4623 10.90815,0.0367 -1.07979,-3.22537 -2.95518,-5.30906 -2.42918,-9.4367 -0.84237,-2.0615 -0.20081,-7.74015 1.21596,-9.95798 1.13639,-3.08276 2.60989,-5.80709 5.26906,-8.40948 -0.90403,-5.14677 10.61828,1.52987 8.13941,-4.11721 -5.51795,-3.52289 -13.80507,-1.06683 -20.63082,-1.75987 -7.1606,-0.18376 -14.26035,0.0452 -20.782,1.7301 -4.67989,-0.44495 -8.77924,0.51197 -12.83949,1.38079 -3.86438,0.4424 -6.22283,2.07427 -9.40243,4.92958 -3.12173,3.74754 -5.15305,7.85983 -6.81635,12.41659 -1.52778,4.92894 -3.2306,9.70165 -2.50203,15.32184 0.0358,2.66375 -0.45808,11.86767 3.82188,7.94372 z m 52.97252,-40.13931 c 5.98334,-1.51823 6.72018,1.03662 -0.11202,0.33777 z m -36.14039,38.70798 c 1.26741,0.59201 9.99656,0.66186 7.65004,-2.20829 -0.39137,-1.79576 5.83047,-3.13878 -2.62519,-3.13448 -5.07592,-2.43045 -7.7986,3.89612 -6.4042,5.81584 0.16234,-0.75677 0.85248,-0.45051 1.37935,-0.47307 z m 0.50909,-1.7406 c 0.23409,-4.48283 3.47644,1.99419 0,0 z m 3.19023,-0.89398 c 1.97924,-2.06541 2.27133,2.10137 0,0 z m 10.43552,1.10047 c 3.28639,-7.36751 -3.75424,-5.77781 -1.65241,0.24121 0.0451,0.77387 2.06335,0.66 1.65241,-0.24121 z m -87.30536,-16.15101 c 3.82673,1.12909 7.14806,-5.41944 2.26331,-5.48569 -0.57086,-2.59459 -7.46273,2.16294 -3.20455,4.25763 -1.06704,0.75344 0.20542,2.33359 0.94124,1.22806 z m 29.80137,-3.25637 c 3.33285,-2.07588 5.35023,-4.95879 7.97458,-7.74592 1.41704,-3.42937 0.72778,-7.41805 -3.11084,-8.63794 -0.51684,-3.5627 -3.91323,-5.71932 -3.24255,-10.094211 -1.41079,-4.897351 1.87338,-9.750859 7.16612,-8.514575 4.33776,-1.10722 7.06408,3.100551 10.88145,0.994739 4.03898,-3.447471 0.86798,-6.80281 -2.5461,-9.575468 -1.29031,-2.971796 -0.96284,-5.856245 2.66896,-7.091611 4.48939,-0.464047 7.54747,4.369545 12.12837,4.765949 3.78354,2.386112 7.08263,5.549227 12.37818,4.421293 3.1922,4.052144 11.5358,0.957808 5.96083,6.538622 -1.78795,1.947318 -1.4409,5.362158 -3.24256,7.300048 0.23187,2.249797 -2.74774,7.241894 0.54043,4.282544 0.0953,-3.474851 1.8342,-6.226231 2.83723,-9.474406 1.20131,-2.732881 3.58461,-5.297417 4.47251,-7.971514 3.86611,-5.845124 3.93598,0.400414 2.28232,3.377659 -0.89771,3.071454 -1.17618,5.753078 -2.83723,8.442768 -0.12641,2.1032 -3.95001,9.079083 -0.70339,5.013203 0.54909,-3.046106 2.55033,-5.699564 3.27047,-8.862354 1.28001,-3.484635 1.75036,-7.563423 2.83724,-10.848136 1.92232,2.092356 0.0278,7.541088 -0.54038,10.451693 0.83983,3.11427 -3.62662,10.032197 1.35106,10.124117 0.24072,-4.670919 0.84032,-9.173304 1.21596,-13.780865 1.31379,-4.43427 -0.63882,-10.140818 2.97234,-13.283764 4.53527,-2.93848 -3.49808,-5.506985 -1.01622,-8.635198 -1.56604,-5.390179 -2.8205,4.038898 -4.5231,5.858523 1.919,3.135922 0.69319,9.308416 -4.38206,7.738 -5.14821,0.222122 -7.75802,-4.703351 -13.47779,-3.296712 -2.28681,-1.919273 -5.81752,-2.617633 -7.7934,-4.593617 -3.07108,-1.038407 -6.65162,-2.52006 -9.97357,-1.806102 -4.76201,-0.366773 -6.89191,3.175133 -9.79677,6.530093 -5.52302,3.06685 1.08233,6.140618 1.1087,9.555821 -2.85921,4.475019 -10.50097,-1.114612 -13.32126,3.284018 -4.19888,1.561869 -3.75319,7.932104 -3.70215,12.369093 1.0637,3.8111 2.10389,7.12973 5.84768,9.80638 1.7431,3.12039 -1.5553,8.94026 -5.68525,8.36276 -3.77847,2.08252 -7.5816,0.19231 -10.49418,-1.62538 -2.85681,-2.45075 -4.07575,-5.83344 -4.80025,-8.6468 -1.24678,2.92147 -0.48718,6.03607 0.54038,9.24975 1.47423,2.84061 4.72225,5.31551 8.66377,4.80122 1.6968,1.07459 5.68682,2.29847 8.09047,1.21628 z m -26.3007,-6.53015 c -1.2429,-0.36392 0.35084,0.79785 0,0 z m 178.92544,-4.41239 c 1.88229,-6.02128 -8.03872,0.10417 -1.91357,1.02456 0.68135,-0.31261 2.51044,0.63109 1.91357,-1.02456 z m -19.167,-3.41801 c 1.95092,-5.26728 -7.47073,1.76775 0,0 z m -64.01306,-9.79041 c -2.21525,-2.719976 -1.87937,-6.660902 -3.51276,-9.696793 -1.48777,-5.522404 -0.5004,-0.975976 -0.27023,2.580356 2.00025,1.214813 0.69961,7.600337 3.78299,7.116437 z m -4.3234,-13.408617 c -0.34518,-0.484676 -0.34518,0.484676 0,0 z m 22.96808,-0.405319 c -1.13495,-1.272961 -1.82742,1.195258 0,0 z m -23.36483,-1.611808 c -1.01959,-6.167736 -0.57587,2.84695 0,0 z m 15.23062,-8.92649 c 7.13011,-1.027615 -4.40168,-7.120337 -0.009,-2.537469 -0.21293,6.440942 -6.2872,-4.844375 -4.28625,1.390446 1.30416,1.683599 2.01131,3.417098 4.29549,1.147023 z m 24.61719,0.810639 c -0.95092,-2.268368 -0.93415,2.166339 0,0 z" id="path2" style="display:inline;fill:#000000"/>
		<ellipse xmlns="" cx="200.41182" cy="195.04221" id="path1" rx="148.83965" ry="148.0365" style="display:inline;fill:none;fill-rule:evenodd;stroke:#000000;stroke-width:2.5;stroke-dasharray:none;stroke-opacity:1"/>
		<ellipse xmlns="" cx="200.92542" cy="195.14555" id="ellipse1" rx="157.40852" ry="155.94891" style="fill:none;fill-rule:evenodd;stroke:#000000;stroke-width:3.5;stroke-dasharray:none;stroke-opacity:1"/>
	</g>
	<metadata id="metadata1">
		<rdf:RDF xmlns="">
			<cc:License xmlns="" rdf:about="http://creativecommons.org/publicdomain/zero/1.0/">
				<cc:permits xmlns="" rdf:resource="http://creativecommons.org/ns#Reproduction"/>
				<cc:permits xmlns="" rdf:resource="http://creativecommons.org/ns#Distribution"/>
				<cc:permits xmlns="" rdf:resource="http://creativecommons.org/ns#DerivativeWorks"/>
			</cc:License>
			<cc:Work xmlns="" rdf:about="">
				<cc:license xmlns="" rdf:resource="http://creativecommons.org/publicdomain/zero/1.0/"/>
				<dc:title xmlns="">Ship</dc:title>
				<dc:subject xmlns="">
					<rdf:Bag xmlns="">
						<rdf:li xmlns="">icon</rdf:li>
						<rdf:li xmlns="">ship</rdf:li>
					</rdf:Bag>
				</dc:subject>
				<dc:description xmlns="">A wooden sailing ship is seen from the reat, at night. The water is choppy, the sails billow, and a pennant flies above.</dc:description>
			</cc:Work>
		</rdf:RDF>
	</metadata>
</svg>
