<?xml version="1.0" encoding="UTF-8"?>
<!-- Created with Inkscape (http://www.inkscape.org/) -->
<svg version="1.1" viewBox="0 0 1574.8 1563.6" xmlns="http://www.w3.org/2000/svg">
 <path d="m778.21 1561.5c-17.295-3.8643-46.22-19.194-36.255-14.298-12.287-4.2241-23.901-9.1207-36.255-13.277-10.577-7.8003-25.691-9.4584-36.908-18.383-14.206-3.2558-28.111-9.5606-39.688-15.319-12.337-3.6627-20.99-11.01-35.745-12.255-8.6308-9.6139-24.154-12.336-35.33-19.404-12.393-6.8616-27.683-5.7103-36.398-16.34-13.953-.7779-21.922-9.3608-35.506-12.766-18.253-.3878-21.713-16.18-40.851-14.809-7.9744-9.1646-46.039-22.517-36.098-15.319-15.365-2.2189-24.756-10.412-36.413-16.34-16.84-.878-26.522-7.7912-39.534-13.277-13.766-3.2901-19.202-12.566-35.019-14.298-8.8746-7.4692-47.035-21.703-36.766-15.319-8.9094-6.7502-27.339-3.9803-30.638-16.34-7.7967-8.5719-22.158-46.593-16.34-35.745-5.9942-11.368-24.29-45.157-16.34-35.745-5.1725-12.693-9.0921-22.426-13.277-35.449-6.111-12.237-14.596-20.206-14.298-38.083-9.585-6.8732-9.0024-23.914-16.34-33.034-1.9668-13.575-12.575-18.508-12.255-34.37-10.09-8.5491-11.401-23.749-17.872-35.745-14.511-24.517 9.3897-24.193-14.809-31.66-2.5848-13.649-9.6492-24.86-15.319-36.098-.39998-13.985-11.72-20.125-13.277-34.893-6.4816-11.152-25.927-40.052-17.362-32.511-5.2386-11.379-4.0806-28.111-15.319-32.328-1.4965-16.206-8.8698-26.534-14.298-38.809-3.9875-13.511-9.7219-24.566-13.277-39.83-7.8972-9.7524-12.662-22.638-16.34-36.609-10.504-10.218 10.531-48.715 4.0851-41.519 4.2879-13.736 9.0619-25.493 16.34-37.692 6.4665-12.799 8.7033-29.829 15.319-42.479 5.0616-10.827 10.671-19.931 14.298-32.977 8.0399-11.337 6.9616-27.548 18.383-36.279 1.4332-16.503 10.083-25.789 14.809-39 2.1797-14.63 13.631-22.865 13.787-39.611 5.2239-13.862 9.8568-22.877 15.319-36.378 4.9267-11.997 10.525-25.613 15.319-37.372 4.7383-13.304 10.435-25.651 16.34-37.787 6.49-11.514 7.381-26.454 16.34-37.004 4.709-11.862 20.605-48.253 13.787-38.57 4.678-12.918 10.035-25.157 13.787-39 4.8512-14.083 15.662-21.575 16.34-38.971 7.4453-8.7363 23.922-40.805 15.196-33.349 3.5071-16.48 25.8-11.035 34.847-21.447 15.911-1.8367 21.555-14.804 40.851-14.298 8.071-7.5885 40.311-22.327 31.66-15.319 11.672-6.541 24.395-12.031 38.298-16.34 13.606-1.1537 21.008-12.798 34.213-14.808 15.003-2.0181 23.241-10.801 36.255-14.809 15.73-2.7034 24.756-10.386 39.734-15.319 15.323-2.5811 23.606-12.202 37.372-16.34 14.239-3.9209 27.104-9.2163 39.162-15.319 11.92-4.9832 42.484-25.13 34.37-16.34 14.504-3.1984 26.471-8.9333 39.83-13.277 11.847-8.5786 37.329-3.5225 42.894-18.383 12.638-5.5219 27.922-8.3986 38.14-16.34 14.311-2.9326 22.904-11.584 40.498-11.234 4.5702-8.6569 37.868-13.356 31.66-13.277 15.266 1.9253 26.08 8.3033 38.298 13.277 11.439 5.6804 28.072 8.0859 37.63 16.34 13.052 5.0476 44.027 24.581 36.413 15.319 15.424 2.6182 25.886 10.199 39.83 14.298 11.371 5.5765 24.781 10.235 36.255 16.34 12.634 3.1437 20.898 10.656 35.077 12.255 10.302 7.4026 20.517 15.138 37.114 15.319 12.182 6.7531 23.61 12.168 36.279 18.383 13.612 3.0338 22.415 8.9852 32.977 14.298 14.971 4.7674 29.559 8.3685 42.798 16.34 10.002 7.051 43.896 24.317 35.84 15.319 14.731 2.2901 24.331 9.7117 36.766 14.298 15.614 2.0883 22.104 13.3 39.83 13.277 8.1749 9.4738 24.255 11.029 35.745 18.383 13.995 3.5579 25.999 10.155 40.851 12.255.2368 15.762 6.0351 28.564 11.234 39.759 6.7255 11.371 11.601 22.539 16.34 34.284 4.2402 11.948 6.5835 24.695 14.298 33.917 4.1412 13.969 8.7928 24.96 13.277 39.104 12.576 6.0945 13.572 23.77 17.362 38.651 7.8893 9.1844 10.287 23.86 16.34 34.881 5.097 13.154 11.001 24.042 15.319 39.4 6.0148 10.188 23.138 43.19 16.34 34.132 3.0793 15.011 8.8147 26.158 14.298 39.534 5.5826 12.883 13.098 22.537 14.298 40.126 12.102 14.312 21.443 40.457 17.872 35.745.9664 16.992 14.829 21.69 14.808 38.809 7.3217 10.158 12.693 22.266 15.319 37.119 8.1035 10.514 23.995 56.788 16.34 33.349 4.4565 13.831 10.249 27.207 16.34 38.298-5.7277 10.102-25.675 37.644-16.34 31.149-2.6671 16.299-8.0544 26.939-13.276 39.83-4.3516 13.612-12.937 22.99-14.298 39.592-18.25 26.983 4.051 10.33-16.34 32.289-4.8898 14.326-9.8004 25.642-15.319 37.906-7.0031 10.987-9.053 26.927-16.34 37.63-2.671 13.327-23.213 45.075-16.34 35.391-.1464 16.705-8.7985 24.904-13.787 36.766-5.2911 12.022-10.293 23.69-13.787 38.808-10.096 17.336-17.973 40.108-15.319 35.745-6.1973 10.289-6.3103 27.157-15.319 35.745-4.4426 14.031-11.473 24.146-15.319 39.534-1.8475 15.992-15.839 21.133-15.319 39.104-5.6781 10.95-12.134 21.123-15.319 34.566-8.1477 9.5225-11.066 24.179-16.34 36.923-11.954 3.7055-21.799 9.5198-32.681 14.298-9.5063 6.4937-23.499 8.5007-34.723 13.277-9.8273 7.5344-23.844 10.879-35.745 16.34-11.067 6.8667-24.542 10.609-38.043 15.526-14.277 4.552-23.75 10.312-38.257 14.091-13.088 4.9851-23.957 13.056-40.126 14.298-11.604 8.1845-23.973 13.382-39.162 16.34-11.108 6.4764-24.083 11.085-37.434 15.319-6.7941 10.568-45.415 24.032-35.745 16.34-11.477 5.87-47.118 21.296-36.599 15.319-12.795 8.2551-23.362 10.77-36.074 17.362-9.3763 5.0123-22.874 4.4098-26.902 15.83-21.667-.6334-29.801 10.644-44.779 15.83-14.911 2.9203-23.303 10.82-39.477 11.234-5.0153 12.464-26.606 8.353-36.098 16.34-3.9377-1.7002-16.133 3.4322-15.987-2.0426zm16.34-19.915c14.749-3.1231 24.211-11.534 39.83-13.787 9.1577-7.3005 23.235-9.6813 33.034-16.34 11.902-5.5888 40.827-25.103 34.37-15.319 18.83.4665 26.646-11.734 41.204-16.34 15.774-2.7472 23.704-11.68 37.315-15.319 13.448-2.8823 21.055-13.066 33.821-15.319 10.159-7.5435 28.671-6.7331 35.745-17.362 12.693-4.9229 26.769-9.8141 40.851-14.298 13.053-4.4166 25.49-10.164 39-13.277 11.566-8.113 23.434-10.507 37.204-16.34 10.985-5.4376 46.154-21.434 36.136-15.319 14.722-2.5873 22.992-11.626 38.651-13.277 7.399-8.1736 41.282-20.458 30.7-15.319 13.338-2.6936 20.797-11.267 33.798-14.298 10.965-5.5007 26.233-7.1252 27.574-23.489 4.3032-13.739 11.722-24.363 16.34-37.787 3.4441-12.896 11.427-21.254 13.277-35.745 8.8686-7.9306 10.314-23.248 16.851-34.723 2.7894-15.423 12.815-23.611 14.808-39.83 6.948-9.5627 24.531-41.512 17.362-32.17 3.7276-12.133 9.0172-24.712 14.298-37.692 5.4868-11.701 9.8493-26.258 16.34-37.726 1.0188-16.465 13.467-23.369 16.34-37.434 3.4474-13.744 6.8026-27.58 13.787-37.787 8.4517-8.8691 7.038-28.179 17.872-35.745 1.5749-15.328 21.577-44.464 14.298-35.745 4.6211-13.213 9.3492-25.758 13.787-39.319 8.7514-9.8084 9.386-23.813 15.83-36.374 4.3172-12.035 22.634-44.269 15.319-35.626 1.164-19.324-11.39-24.931-12.255-42.226-7.0261-9.3668-10.8-21.986-15.319-33.86-4.5826-14.088-10.921-26.421-16.34-39.672-2.4637-15.323-12.971-22.602-16.34-37.019-5.8619-12.998-8.7845-25.369-15.319-37.811-6.8298-9.6132-10.312-20.042-13.532-35.115 3.6381 2.9848-53.615-89.144-16.085-30.638-16.205-25.804 7.4594-23.45-15.319-34.723-4.1818-13.236-10.504-25.19-14.298-39.104-4.0619-13.773-13.208-20.489-15.319-35.449-11.258-4.5191-22.972-40.137-15.319-32.013-4.6699-11.666-23.688-45.108-16.34-35.391-3.5561-15.852-9.8583-26.082-14.298-40.555-9.2986-9.0781-6.1404-28.638-17.362-35.019-.9886-16.18-9.3544-26.13-16.34-37.277-15.34-2.1415-20.287-13.904-36.766-13.787-8.237-6.9119-20.928-9.3702-31.66-13.787-16.413-.77871-21.306-13.077-36.766-14.809-11.743-5.4484-46.015-22.751-34.723-16.851-14.435-2.129-24.313-9.8904-35.234-14.809-23.219-6.5539-41.174-16.632-37.277-15.319-11.691-4.0994-44.629-24.611-35.748-16.34-15.936-3.061-26.052-8.8702-40.126-13.277-10.941-7.9126-29.472-6.261-35.446-18.383-16.979-1.0632-27.992-8.0934-40.851-13.277-12.322-6.4525-21.999-11.169-36.766-13.277-6.3232-9.4541-21.18-10.375-32.013-15.319-14.08-2.4827-19.205-13.921-33.349-16.34-13.68-2.6209-24.753-10.572-37.787-13.787-13.395-3.8283-21.63-12.816-36.862-14.809-17.57 1.5418-24.732 13.187-41.777 14.809-10.429 5.7467-42.86 25.023-34.723 16.851-14.722 2.5874-22.992 11.626-38.651 13.277-10.04 7.0919-22.514 11.068-35.806 15.319-12.734 5.3404-26.158 9.9907-37.883 16.34-9.7113 5.9483-37.857 24.781-31.66 15.319-16.089 1.8595-27.033 9.0527-39.534 14.298-14.373 4.1012-24.356 10.033-40.126 13.277-8.4816 8.1419-46.412 21.766-35.745 16.34-11.048 6.3513-25.076 7.2768-35.983 15.319-13.345 4.1084-24.099 8.1612-36.528 14.844-14.191 5.8497-44.631 24.952-35.745 17.837-14.722 2.5873-22.992 11.626-38.651 13.277-12.154 4.9061-20.002 15.222-37.945 15.319-8.6415 8.3798-22.492 11.551-23.489 27.574-3.4147 14.628-11.672 24.414-14.298 39.83-7.3892 10.229-11.108 23.433-15.468 37.112-5.2959 11.408-23.345 38.482-16.192 30.292.83297 19.479-11.034 25.571-13.303 42.475-6.5701-6.1015-25.921 95.821-15.292 33.61-3.6496 13.201-11.283 22.419-14.298 36.255-6.5338 10.372-8.4391 24.564-14.298 34.485-8.0916 10.815-9.1076 24.452-15.109 36.637-5.4451 11.072-11.096 23.826-15.53 36.622-3.6685 14.236-9.1588 26.65-16.34 37.372-5.8879 14.228-7.7717 29.617-16.34 39.734-5.2562 13.044-11.736 26.904-16.34 40.183-3.9115 12.034-8.8017 23.09-12.255 35.583-7.2883 12.211-11.029 24.275-15.319 37.949-2.6769 19.939 6.7523 26.793 11.234 40.913 5.0036 12.168 9.9356 26.157 16.34 37.725 1.6845 12.635 31.699 68.944 16.34 36.413 4.1901 14.373 9.0418 26.532 16.34 39.224 8.1781 7.6835 5.2199 26.503 16.34 31.245-.63071 17.533 11.079 25.271 14.298 39.83 2.1704 15.532 13.227 22.178 13.277 39.83 11.466 6.1988 10.029 25.2 18.383 35.745 5.1156 10.954 11.755 26.216 15.319 39.83 11.64 6.6872 8.84 27.491 17.872 35.745 6.4129 11.69 12.449 23.135 13.787 38.808 7.9721 9.5568 12.951 22.464 16.34 37.749 6.7956 9.8285 14.649 20.847 16.34 36.804 9.3408 8.7114 11.171 24.658 15.319 37.521 8.0288 8.8161 13.209 16.541 27.574 18.65 13.566 3.7834 23.145 14.348 38.651 16.34 13.291 3.8464 22.938 12.845 36.923 15.319 9.3736 5.7754 41.093 19.503 31.66 13.787 3.5913 6.1959 77.798 16.491 32.17 13.787 9.5801 6.3192 46.83 19.929 36.255 13.787 12.88 5.6581 24.205 12.186 40.021 13.787 1.114 2.6813 90.875 39.897 36.575 16.948 14.14 2.7113 22.264 14.244 39.83 13.69 9.5934 6.5243 20.396 11.84 32.013 16.34 12.756 3.5641 39.602 22.165 31.306 15.319 18.328-.2472 26.063 11.74 40.34 16.34 15.017 3.8769 24.889 12.899 40.34 16.34 11.406 5.6883 25.693 8.6127 35.649 16.34 16.375 2.3798 25.195 12.315 40.947 15.319-3.1923 5.0082 13.197 3.9463 12.255 1.5319zm-16.34-23.489c-9.8453-6.0866-40.807-25.67-32.681-17.872-18.924.083-26.065-11.618-40.183-16.34-13.044-3.8595-24.666-9.1413-35.391-15.319-12.873-4.1487-23.97-10.072-36.766-14.298-10.384-5.7862-23.499-8.8414-34.213-14.298-17.14-1.5314-21.387-15.955-39.672-16.34-10.774-6.4704-23.719-10.769-37.434-14.298-9.3288-8.2031-25.327-9.7373-36.255-16.34-12.967-4.6121-25.166-10.22-38.202-15.319-14.289-2.7571-21.311-11.57-34.981-16.34-14.571-1.0347-20.777-10.434-35.583-11.234-11.881-6.0579-22.843-14.293-38.021-16.34-9.9381-8.7192-23.762-9.183-36.14-15.319-12.369-4.2175-59.4-33.346-35.115-16.34-11.202-5.8506-14.971-20.017-17.362-35.745-10.956-7.0998-11.265-24.745-15.319-37.726-11.367-14.428-20.357-29.777-17.362-28.658-.82381-15.42-9.4292-22.911-14.043-34.914-3.8722-13.201-11.6-23.929-13.532-39.639-5.9573-10.501-11.89-21.026-16.34-33.034-4.3392-12.548-9.4433-24.028-16.34-35.2-2.8196-15.745-10.07-27.059-16.34-39.353.56661-16.006-11.579-21.982-12.255-36.413-5.4704-10.983-13.316-22.414-15.319-37.048-9.6918-9.9604-12.036-23.963-16.34-37.505-6.5249-9.5928-23.742-40.729-16.34-32.013-3.5818-13.073-7.64-28.141-17.362-35.391.05427-17.579-10.214-25.112-11.234-40.694-11.987-4.7998 7.8364-38.529 0-31.817 2.5047-13.783 9.164-23.412 11.234-37.63 8.5385-8.8484 14.817-22.009 17.362-37.945 8.8069-9.373 13.491-24.253 16.34-38.651 10.274-5.0978 4.8606-25.883 16.34-29.774 4.4668-12.895 9.8198-24.904 13.277-38.809 4.9257-13.117 10.088-25.997 14.298-39.83 8.9733-9.2246 9.9476-24.867 17.934-35.745 2.4726-13.847 9.2456-23.394 13.726-35.234 1.989-14.862 12.119-21.583 14.298-36.255 7.6014-8.3512 19.12-44.691 13.277-34.581 9.8258-9.5106 7.0871-26.768 16.34-36.516 6.2851-10.867 24.999-43.608 16.34-35.115 1.0473-14.9 10.333-21.562 11.234-36.609 8.329-8.2577 21.619-41.074 14.298-31.817 7.3376-10.229 26.786-8.6114 36.766-17.362 11.96-6.083 25.913-10.172 39.83-14.298 6.0511-10.71 40.851-22.327 32.266-16.34 13.425-5.8907 24.472-8.8362 36.398-16.34 14.849-3.7781 26.204-10.887 39.592-17.362 12.93-3.9632 26.639-9.6502 38.298-14.298 12.179-4.6355 24.75-10.552 37.63-15.319 14.28-3.304 22.156-13.013 39.477-13.277 12.583-6.8548 44.664-21.161 32.517-15.04 15.235-1.2653 18.347-13.185 34.887-12.535-5.1226-9.5242 94.755-15.975 33.034-15.319 12.485-3.8924 45.511-23.276 35.391-16.34 15.992-.06248 22.946-10.598 38.747-11.234 10.183-7.4995 20.618-11.231 31.721-16.34 14.259-8.4125 51.375 14.121 41.872 6.1277 14.703 3.6803 25.073 11.693 40.851 14.298 7.8475 9.1738 45.741 22.344 35.745 15.319 12.21 5.9103 24.754 14.449 39.83 15.448 10.39 8.4258 26.078 10.901 36.766 17.744 13.66 4.133 23.225 12.361 39.592 13.787 9.5781 10.561 26.066 9.2069 36.279 18.383 15.279 3.5683 25.36 10.398 40.555 13.277 12.224 4.7119 22.78 14.661 38.021 16.34 10.312 7.665 23.98 11.351 36.532 15.319 8.6406 7.8084 23.27 8.3083 33.096 16.34 11.478 4.6251 46.116 21.818 35.84 15.319 12.354 3.676 23.022 10.731 36.255 14.298 12.104 5.2328 22.698 11.134 36.766 13.277 9.2227 5.7164 20.288 9.5896 21.328 23.489 9.5016 7.9708 27.143 38.985 17.481 31.66 0 18.499 12.321 24.68 13.277 42.226 6.6418 11.283 12.28 23.57 16.34 37.434 7.9334 10.107 13.156 22.639 15.319 38.556 7.1568 9.6122 12.082 24.045 16.34 37.019 4.7335 13.086 12.887 22.752 17.362 36.098 2.8939 14.01 21.644 45.971 15.319 35.391 4.2388 13.783 9.9476 27.718 16.34 40.183 1.9969 16.015 6.2987 30.022 16.34 39.285 3.1031 15.684 10.51 27.065 16.34 40.021 6.6748 9.4358 23.596 44.251 15.319 35.745 4.9632 15.004 10.143 27.732 16.34 40.183 1.8572 15.046 10.833 22.974 11.234 39.477 12.444 12.278 9.2587 38.365 1.0213 35.745-8.4796 8.6689-6.8502 26.453-15.319 35.983-1.2424 13.968-11.19 21.83-14.298 34.485-4.5766 12.084-12.261 23.93-13.277 39.83-9.2237 6.8941-12.058 20.177-16.34 32.013-3.3695 12.839-11.107 21.157-13.277 36.413-7.1507 10.669-12.395 23.245-15.319 38.141-17.092 19.494-.4414 22.778-16.34 29.264-.2341 17.843-12.113 27.453-16.661 40.172-1.6287 14.102-26.438 40.636-16.02 34.382.9948 17.285-10.862 22.324-11.234 39.281-8.9959 11.364-22.437 53.308-16.34 34.643-5.5775 12.965-10.123 24.869-15.319 36.885-7.8961 9.2954-7.4815 26.902-16.34 35.234-2.8137 14.888-7.9039 27.5-20.426 32.681-11.107 5.656-46.364 24.17-36.766 16.34-15.036 3.4647-27.867 9.1348-39.162 16.34-14.01 2.8937-45.971 21.643-35.391 15.319-17.006 1.2072-26.73 9.6956-40.851 13.787-12.4 4.111-20.692 12.329-35.745 13.787-7.8425 9.5287-26.624 8.1212-37.261 16.34-11.474 4.4541-44.731 22.371-35.249 15.319-16.508.8901-26.911 11.03-39.83 14.809-10.824 6.7084-21.852 13.212-38.808 13.787-5.1249 11.556-38.587 28.137-31.66 18.383-15.245 2.7976-25.696 10.389-40.851 13.277-13.11 9.1214-43.778 22.292-34.723 16.34-10.497 4.8217-19.827 10.812-33.702 12.255-11.873 5.9301-24.479 14.108-40.183 16.34h-3.7318zm27.574-15.83c11.147-7.2364 28.987-7.7792 36.766-18.383 13.55-4.2117 24.582-9.6952 39.534-13.277 12.808-7.6201 26.76-12.077 40.126-18.383 15.444-1.2373 21.628-11.734 36.766-13.277 9.8602-8.5667 42.859-27.523 34.723-18.383 14.935-2.9894 26.012-8.3387 39.83-14.371 12.874-5.484 24.897-11.82 40.851-14.224 8.3049-10.104 25.321-9.1629 35.745-18.003 12.679-4.4691 46.287-22.305 36.766-14.678 17.808-1.0544 24.225-15.091 42.226-15.319 10.849-7.0931 23.577-12.02 38.455-16.34 9.7617-6.7489 43.273-22.77 34.213-15.319 7.7605-7.5586 26.498-4.1404 28.085-17.872-4.1181-10.468-26.538-34.801-19.758-26.043-11.764 4.4587-24.575 7.8703-36.413 12.255-8.7615 8.0371-20.046 13.551-35.077 15.319-10.274 6.0856-43.56 25.279-35.391 16.34-14.662 1.8223-23.928 7.5885-37.181 12.255-12.1 5.1233-42.564 26.329-35.33 16.34-16.845-1.5975-23.538 12.851-39.162 12.256-10.545 6.9918-24.526 10.548-37.292 15.319-8.7807 11.25-27.248 8.8604-35.887 18.383-13.45 2.2211-24.191 7.1509-34.284 14.298-12.712 3.6312-25.406 8.9416-38.227 13.277-7.6637 10.379-30.499 5.5865-35.745 18.383-16.62 1.0825-26.595 8.8094-39.83 13.277-12.96 3.7208-23.968 9.3932-35.745 14.298 1.8611 14.32-6.3746 50.283 11.234 41.872zm-23.489-17.872c2.852-17.284 4.2253-28.843-16.694-28.085-11.283-6.6733-25.424-10.489-38.551-15.319-14.335-5.0112-25.014-11.609-38.298-16.34-12.793-6.8595-25.989-10.31-39.224-15.319-9.0491-7.2657-26.201-9.2489-36.098-16.34-9.9693-6.7186-24.093-7.1946-33.158-16.34-15.07-1.5242-42.546-20.528-33.893-13.276-16.308-1.7345-22.876-13.209-40.851-13.277-7.8114-9.3422-42.833-24.762-32.681-18.383-12.836-3.5554-25.462-10.057-38.671-13.277-12.34-7.4519-24.722-10.517-36.904-16.34-10.679-6.3427-44.361-23.724-35.745-15.319-14.962-4.314-26.294-10.782-41.443-16.34-14.152-8.4566-22.259.417-26.983 12.255-12.306 2.8138-16.765 17.853 2.5149 15.319 9.4307 8.7077 23.548 12.915 37.315 16.34 12.068 5.9221 22.112 13.868 38.651 15.319 8.7232 7.6212 23.727 11.076 35.902 16.34 12.705 4.4768 24.08 11.958 37.372 15.319 14.39 6.0232 23.379 14.446 40.436 16.34 13.427 5.3866 22.203 14.507 38.971 15.319 9.4779 8.8218 23.099 9.228 35.806 16.34 13.717 3.8466 25.865 9.2625 37.372 15.319 12.463 5.5796 24.619 11.466 37.787 16.34 16.392 2.0688 23.575 14.676 40.694 15.319 9.249 8.2731 22.167 12.264 36.923 16.34 9.3933 5.8787 21.426 12.652 35.492 15.319 5.734 4.1874 40.745 28.855 33.955-3.5745zm23.489-38.298c11.247-6.4574 30.187-6.2837 36.766-18.383 16.757-.9 27.935-10.091 40.183-15.319 14.926-1.3885 23.66-11.139 39.477-11.234 5.9049-9.5538 23.521-8.2457 32.919-16.34 18.682-6.4972 12.303-11.456-5.3446-16.34 5.476-19.205 48.181-1.1807 64.34-9.7021 10.352-1.13 43.558-16.004 12.255-13.787-12.346-5.7112-37.222-.055-40.662-14.043 12.376-9.5811 33.936 1.5509 55.666-2.2979 18.298 3.4137 39.113-2.6867 30.953-19.404-4.1563 16.503-22.24-5.0911-30.638 8.1702-13.543 3.0403-26.291-14.108-10.881-16.34 14.639 2.0129 37.885-13.938 23.136-27.574-.6004-16.328-13.666-18.993-18.383-31.956-6.5175-10.962-5.1915-27.837-19.404-30.342-10.643-4.5514-23.549-4.8079-30.638-14.417-6.9343-6.9835-11.755-16.08-23.489-18.264-5.9593-13.445-38.532-.2768-44.936-13.277-3.9826-10.996-11.553-18.404-23.489-21.447 4.5222-18.645-37.332-8.3582-28.085-16.34-11.63 2.9986-29.617 14.874-40.34 3.0638-.29899-17.747 25.711-7.8039 31.364-20.426 12.796-6.3474-8.3745-14.6-6.853-26.043 2.1073-21.328-31.74 16.503-28.596-10.566 8.9789-8.3884 32.76-5.8436 28.371-27.887 8.4115-24.538-38.547-3.7135-8.6132-21.292 8.9763-1.4469 22.731-11.686 8.8382-16.34-5.3743-12.873.85272-39.913-24.383-31.021-10.183 3.3328 30.627 17.314-.12766 18.766-12.336 1.0363-31.624 18.031-5.7744 20.426 13.071 6.8833-7.8888 12.461 1.6893 23.489 19.4 3.8005-7.4761 16.271-5.617 27.574-5.9169 11.916-4.3945 31.048-13.787 40.851 1.5086 18.754-30.855 33.524-23.489 25.021-16.796-.966-18.029 13.631-32.681 14.808.96536 17.496-22.74 13.87-29.97 23.489-18.197.5996-35.008 3.368-39.477-11.234-7.9228-7.4598-38.158-20.736-28.949-15.319-13.395-3.4357-21.975-11.686-40.279-10.213-17.206-4.841-38.012-3.5932-55.782-7.1489-15.106 1.6245-56.743-6.9042-33.094-15.03 18.647 4.7167 46.702.7916 62.458 7.8815 27.802 5.9717 16.916-8.2078 9.8595-18.383-2.2684-18.182-4.1789-33.936-8.1702-49.021-8.476-6.5028-3.9643-25.993-17.362-27.574-5.0342-7.3025-22.367-27.108-17.362-20.426.40849-16.068-29.968-32.671-23.489-23.489-16.19.41107-23.247-11.005-35.745-14.298-9.0756-7.2798-11.24-20.688-16.13-33.447.23057-15.171-15.145-14.016-16.943-27.83-16.803-2.887 7.7207-55.798 5.4979-31.66 11.931-13.456-16.026-15.595-12.255-34.213 4.4541-12.465 6.4175-26.14-7.6596-28.596 4.9817-25.215 11.16-25.546-23.056-24-18.289 1.4722-26.072-10.557-41.796-11.234-22.786-11.003 2.7219-15.482 16.34-7.1489 6.6268 6.69 56.376 19.635 48-9.5448-1.3577-19.302-24.973-15.751-40.183-20.072-6.4106-4.2912 11.713-19.658 25.217-15.319 22.717 2.7942 14.357-33.339 13.434-49.021.61703-16.798-26.159-5.2688-21.957-24.511 16.806 3.1529 22.467-20.922 9.7021-27.574-6.1875-10.153-20.582-12.098-33.702-15.319-15.542.0371-21.307 16.917-7.8504 22.213-20.4 13.572 1.7475-30.278-9.0006-26.298-2.9883-19.669 16.358-17.003 20.426-29.617 7.7358-8.8991 21.81-44.114 16.34-33.702 4.1792-9.1502 24.669-33.969 19.404-24.864-8.4767-10.58 3.0554-26.112 15.319-14.728-1.6581 12.841 11.596 32.117 10.213 39.592 8.3475-25.44 16.408 17.79 29.617 0-6.1953-13.549-4.7286-34.761-11.234-48-12.6-5.8282 14.027-11.063 8.4084-20.426 3.298 16.582 7.2258 35.398 6.9107 55.817 16.583 7.4307-.79413 44.45-15.319 23.842-22.58-4.2546 1.1241 41.205-5.1064 36.098 1.6779 17.901-14.67 17.775-17.362 31.306-8.7984 10.806-7.5545 31.258-5.1064 44.612 6.7569 15.249 11.166 30.444 12.255 49.737.6275 19.608 1.5674 40.219 26.65 34.016 17.391-8.9518 34.138 1.715 45.86-4.7909 4.2178 16.323-12.914 34.303 1.7466 43.915 20.769-3.9071 19.823 16.386 18.72 42.809 18.14 9.786 21.438 6.7346 44.619 5.1912 19.621 3.5312 45.306-14.311 32.957 11.745-.10472 14.484-56.242 5.957-46.979 2.0426-11.69 6.233-10.642 27.523-11.439 45.432 10.461 8.4354 18.571 17.855 27.483 25.546 8.3968 7.0728 31.501 25.478 20.721 22.468 10.196 9.6809 25.137 10.553 41.644 12.255 20.12-9.1132 33.46.005 56.084 0 11.834-10.193 33.043-8.6226 51.417-5.1064 24.289-1.2302 54.652 3.6137 71.451-5.1064 9.9049-6.1576 11.171-20.523 15.319-33.702 3.5599-5.9662 20.715-42.378-1.8852-39.83-16.584-12.108 23.265-22.873 18.226-16.34 12.946-8.1498 6.373-34.972 12.255-49.06 4.4066-15.98 7.421-38.492 3.0638-29.578 24.788-5.6172-44.331-34.034-16.694-20.426-20.037-.83902-39.722 8.7676-50.711-7.1489 29.364.55901 31.344-5.097 56.013 0 22.478 2.135 3.7302-50.708 3.2212-39.319-8.1441-9.3576-5.7997-30.522-22.872-30.128-4.2199-13.953 14.533-20.442 18.787-31.66 2.3553-22.883-3.4022-39.138-9.6558-56.17-8.5715-14.428-28.649-38.478-17.691-31.66-5.3288-14.587-22.208-14.332-15.036-31.66-5.8975-4.6444-31.225 2.4134-16.613-15.319 19.834-13.514 24.593 15.118 32.953 0 3.7126-13.319-15.031-15.106-11.745-31.66-8.9669-12.257-29.955-12.493-47.332-16.34-9.9949-5.0371-34.94-16.317-42.54.23823 11.122 16.719-14.233 10.553-13.47-4.068-8.7862-2.4719-47.191-15.198-32.487 2.9997 12.689 6.7268 11.2 21.208 18.128 32.305 8.3734 8.4867-1.6356 39.45-8.9362 20.828 2.5257-6.4328-17.34-13.373-13.268-31.623-6.5807-9.7962-.72413-35.335-19.413-30.666.85888-13.629-19.451 8.7092-25.532-1.2486 5.6597 13.793 18.261-1.921 21.447 11.972 15.473 4.1449 7.1166 26.537-10.055 15.602-4.6482-12.904-10.174-27.483-31.187-23.489-22.998-.84269-37.993 6.597-59.711 8.1702-22.634.45568-45.057.6995-62.451-4.0851-14.486-3.4559-19.662-18.814-36.763-20.426-12.697 6.1624-21.242 13.438-35.748 16.34-4.3628 11.807-8.4058 23.935-19.915 28.596-8.4392 6.0183-25.852 35.875-18.894 27.574-5.3065 13.545-12.237 27.827-20.426 39.39-6.4771 9.329-8.281 23.331-19.404 28.014-5.6897 9.6389-25.61 29.55-17.872 23.489-5.8417 11.639-12.552 23.324-18.894 35.745-7.5153 9.1406-17.103 19.335-19.915 31.66-11.643 8.5702-9.5087 34.589-24 40.851-4.509 10.803-12.339 19.292-20.13 25.532-4.4911 7.1899-25.196 22.198-7.4448 26.676-3.2831 11.892-23.824 39.964-18.383 29.494-10.295 9.1093-26.336 12.473-24.511 33.702 3.0573 15.133 15.086 23.486 17.362 40.183 2.3972 10.511 33.937 21.406 26.553 14.966 13.159 10.658-12.556-13.788-6.6383-11.234-6.3947-13.566 21.698-13.428 26.043 0-9.5816 15.56.60187 26.031 16.694 27.574 13.452 2.468 24.72 11.541 41.461 12.412 15.14-10.992 26.384 11.167 23.547 11.078 6.4659 6.7435 12.145.1832 30.638 4.0851 11.434 10.013 43.803-.9096 55.149 9.1915 14.915 16.415-43.102 21.737-31.66 18.383-10.128 6.2128-21.034 11.646-31.66 17.362-16.948 1.8358-30.579 5.8012-39.83 18.383-6.2948 12.016-21.977 15.398-39.829 14.298-7.7483 1.5358-26.192-.296-38.652 2.0425-12.8 2.5154-20.68 13.518-37.277 12.255-13.845 18.71 11.419 29.541 30.362 27.574 35.717-4.2075 13.092 14.409-2.7876 15.319-18.35-1.9644-13.353 35.502 4.4384 28.596 7.5716-8.3001 28.916-23.068 33.702-9.1915 8.2743-.014 28.589-20.324 9.7021-23.489-17.141-.5965-7.2914-48.843 7.6596-32.298-10.836 21.184 10.719 14.707 20.426 7.7872 6.2017-7.487-10.754-37.569 22.192-27.574 24.084-4.758 28.24 9.607 46.234 12.255 12.329 4.8714 25.552 11.671 39.672 15.319 10.619 15.978-42.133 5.3339-31.855 4.0851-21.725-5.3117-18.448-5.0244-7.817 8.1703-19.209 14.47-14.806 11.652 16.694 12.255 18.195-10.483 48.965 17.179 17.991 16.34-19.41-3.8789-38.619 12.96-46.94-5.384-15.369-1.1752-39.253 4.1603-27.574 14.576-4.1204 12.552-47.094 21.092-35.745 14.298-.96314 11.458-14.564 30.604-2.5532 34.723 8.1744 9.3906 22.802 12.075 37.787 16.851-.0404 18.055 33.306 32.829 28.085 21.958 16.793 8.0159 53.432-6.7033 64.34 9.1915 16.31 2.584 29.666 8.1215 44.426 12.255 11.064-5.5935 70.434 7.8211 59.745 0 19.336.1725 8.5812 23.916-8.1702 19.404-14.248-2.24-31.213-6.4288-35.745 7.149-17.347 2.6238-35.801-10.034-46.791-3.8298-14.68 16.786 13.049 22.338 30.213 20.17 16.805 9.5745 20.318 3.5172 38.064 8.1702 20.249-6.9279 26.193 17.891 6.5998 16.34-13.433 1.8849 2.3958 28.422-9.6462 40.851-2.2702 14.253-32.952 28.907-21.503 25.294 14.543 9.3507 31.944-3.7666 53.543 1.2595 20.034-.8737 37.099 4.3953 45.521 15.421 16.386-2.3449 22.33-12.86 34.814-17.813 5.1365-31.206 19.557 15.55 24.42-6.7993-2.0334-21.706 17.591-15.844 20.426-3.7318-6.565 15.553 27.722 15.045 27.574 14.966 17.862 8.7202 24.485 7.1399 42.736 0-.074 18.169 26.058 10.132 37.945 16.34 9.1704-11.73 22.696-35.384 16.34-29.617 10.211-2.7505 3.3578 30.446 26.553 21.447 18.481 3.8662 26.04 5.8612 39.162-4.0851 16.634 8.7179 31.546-3.5635 54.796 0 18.134 14.906 3.588 15.14-12.609 20.426-20.061-3.8058-25.277-2.1868-46.387 0-17.789 9.585-49.432 1.2277-72.416 4.0851-12.173 6.6255-57.971-11.253-49.355-4.0851-19.304-.5887-35.357 9.6104-53.106 5.617-7.1572 2.7338.57733 29.39 18.383 21.958 19.161 1.094 33.876 6.6349 51.064 9.7021 10.697 2.215 22.003-1.9205 42.502-1.5319 10.925-1.7591 62.492 6.0322 33.583 7.1489-20.774 5.3904-20.428 9.7997-46.468 5.1064-22.513-1.949-31.395 9.2964-51.898 10.468-5.1218 12.648 47.932 28.448 26.366 21.192 16.794 1.1958 21.577 14.403 38.651 15.319h1.1786zm-92.936-126.64c-12.365-6.6442 13.972-31.552 7.1489-3.7319 5.3206 6.3727-8.4767 8.4456-7.1489 3.7319zm-162.38-19.404c-9.5243-11.007 9.0681-53.865 3.0638-44.936 7.8362 13.258 9.0486 29.196 0 40.183 2.6854 4.1249-2.1159 10.749-3.0638 4.7531zm379.69-10.979c-10.414-21.843 17.751-24.378 11.457-19.66 14.959-10.278 25.238 6.149 14.298 20.426-12.441-6.3799-20.388 22.219-25.68 2.3599zm-353.14 6.8936c-8.5655-3.2508-13.425-36.611 7.1492-29.617-.65397 11.487 4.3183 35.877-7.1492 29.617zm416.68-18.894c-3.3837-27.886 16.954-5.4955 24.511-18.894 8.5769 4.5141 29.38-6.9607 23.489 18.383-22.246-13.988-8.7598-5.5935-19.404 14.809-18.151 6.4101-3.2819-35.524-16.34-15.83-.8939 11.172-13.818 34.278-12.255 1.5319zm-373.42 11.222c.71342-30.28 25.446 5.4096 0 0zm-27.939-7.6471c-.32603-11.894 17.185-17.836 13.277-6.1276.84028 3.9406-12.371 23.604-13.277 6.1276zm193.02-17.362c-25.89-3.9046 12.619-11.582 26.63-9.1914 33.084-1.7835 73.26 3.5237 102.05-2.5532-1.4512.7388 29.212-3.7017 7.1489 2.5532-14.61 7.9029-38.216 6.8093-60.389 7.1489-21.571 5.9933-49.478 3.7802-75.44 4.0851zm-153.19-6.6383c-10.451-10.534 18.057-16.665 16.34-11.745 26.763-3.1302 41.121 6.1442 66.813 4.0851 18.611-5.8284 67.422 7.1767 24.71 9.1915-35.355-1.0166-75.082 2.0206-107.86-1.532zm146.04-11.234c9.0812-10.834 32.956-6.8733 43.915-15.83 10.702-11.803 31.111-12.501 53.617-11.234 20.883.087 37.375-1.8994 49.532 0-11.685 8.9108-40.67.5217-52.085 9.7021-21.215 1.6848-44.648 1.151-58.996 9.7021-4.9002 7.9681-32.215 10.873-35.983 7.6596zm-208.34-30.638c7.089-10.823 25.749 10.75 0 0zm46.979 2.0426c-33.608-4.1845 13.023-15.958 23.489-4.787-.21506 7.4043-17.831 8.1425-23.489 4.787zm-187.91-197.62c-20.341-7.9609 4.5658-20.989 11.234-6.1276 32.865-.8563-2.3637 16.123-11.234 6.1276zm-76.892-118.47c-14.062-4.8003-50.369-21.579-39.534-14.298-9.4476-14.531 45.183.43847 34.174 0 10.062 8.8444 28.737 9.0753 45.485 11.234-3.0202 8.2155-33.145 5.781-40.126 3.0638zm255.62-5.1064c-4.2295-7.5237-13.316 8.622-13.277-17.362-20.568 36.322.41142-75.482-6.1277-24.511 19.759-2.9478 10.904 22.718 24.511 25.923-.28652 8.954 25.792 22.412 6.4424 22.077-5.334-1.4871-15.272 4.3618-11.549-6.1277zm76.596-4.0851c7.734-21.633 31.533 10.752 11.234 4.5957-.65951 1.885-17.05 4.9496-11.234-4.5957zm133.79 0c12.664-2.5102 5.0516-1.9462 0 0zm-413.89-8.0952c-17.692-4.2778-43.962 2.0799-55.894-8.2453-18.761 1.689-20.611-12.323-36.47-14.298-18.189-7.1965-32.114-14.863-.45329-10.213 13.63 3.6542 24.071 11.112 41.266 12.255 14.397 7.8194 41.588 16.594 35.487 12.255 8.4711-9.2609 34.331-7.1051 35.745 6.7574 4.0729 5.1946-20.249 4.8932-19.681 1.4879zm356.7-11.309c-20.786-1.6825-39.662-5.2739-61.277-6.1277-21.799-19.544-31.472 3.3474-37.787-16.34-16.604-.91008-21.209-27.043 6.1277-19.404 10.274 10.178 63.785 2.8391 56.17 2.0426 29 4.7166 1.0433 4.4668-5.1064 14.298-14.467 4.1633 32.754 9.3741 48.196 7.1489 32.511 5.3541 17.535-13.149-2.2384-11.234-4.984-23.455 58.798 2.2233 41.872 0 7.837 7.9782 38.419 10.026 18.383 23.489-12.402 10.83-33.213-8.0185-43.915 6.1277 1.2402 2.7016-21.546 3.9732-20.426 0zm-522.89-52.596c-1.0748-16.257 10.649-21.402 18.383-30.128 9.7289-5.5902 15.524-15.115 27.574-18.383 19.724-.542 8.9338 29.429 33.034 24.511 11.043 1.8967 30.994 20.294 2.0909 16.224-15.328 6.3438-25.97-4.9723-43.119-6.8361-6.3814.77893-12.397-2.1803-22.645 6.9525-3.6863 1.9624-16.476 28.629-15.319 7.6596zm535.15 2.5532c9.2423-15.877 17.852 17.45 0 0zm12.255-26.043c6.9576-22.918 22.612 23.772 0 0zm-202.21-23.489c-15.551-18.098 23.481 7.7713 19.404-2.5532-6.3247 8.1302-15.543.32745-19.404 2.5532zm-262.47-10.596c-9.1952-5.4085-52.022 3.7923-36.766-14.234 2.3205-16.755 7.8823-30.268 12.255-44.97 15.46.42839 36.08-24.045 24.511-20.583 16.221-12.663 17.733 15.424 31.66 15.319 7.9896 14.48-13.602 2.1896-28.596 5.1064-2.1036 17.336-11.332 19.989 6.1277 25.532 5.9522 15.092-34.781 11.58-6.1277 23.489 25.487 2.2632 15.096 15.199-3.0638 10.34zm453.11.21276c4.5265-27.702 21.915.56828 0 0zm-57.872-5.4468c-25.762-13.288 13.683-28.539 16.34-5.2976 5.4336 11.489-14.507 8.1656-16.34 5.2976zm77.617-4.0851c-17.765-12.777 14.202-22.381 7.1489 2.0426-1.5474-1.5164-8.9439 2.8162-7.1489-2.0426zm-248.17-3.5034c-15.605-12.428-6.9298-44.187-9.1915-66.965 2.4061-26.494 18.675-6.8624 17.872 12.255-.81451 14.431-10.422 52.74 25.021 39.83.38556 11.744-27.883 12.986-33.702 14.88zm222.64-4.6668c.61599-17.285 21.569-5.1691 7.1489 2.7679-2.2771 2.8712-9.3745 7.996-7.1489-2.7679zm-13.532 2.3598c-3.1622-11.036 19.936-30.993 10.468-4.4024-8.9996-1.8153.78807 9.1756-10.468 4.4024zm-70.213-4.4024c3.6597-16.262 3.105 15.721 0 0zm-92.936-4.0851c3.08-11.051 54.596 12.422 52.085 0-19.651-4.9088-42.593 8.3511-52.085 0zm-86.05-27.156c-9.5314-1.0829-30.993-21.6-3.8227-19.823 2.3673-10.064 4.8385-48.817-7.0153-31.66 3.7132-25.545-22.671-41.664-17.495-4.0851-25.67 14.247.36498-77.648-6.1277-38.298 8.9556-4.8953 12.635-15.067 24.702-16.851 6.2969-6.2611 29.741 25.497 27.688 14.688 4.7862-11.519 14.866-20.422 21.142-1.9224-5.4724 10.698-6.251 26.089-16.34 32.17-6.1479 8.7502 5.1649 35.629-3.9687 50.965 5.4644 19.869-6.0672 13.262-18.762 14.815zm6.3901-70.376c-3.5076-6.642-3.8218 6.3401 0 0zm-4.2757-21.781c-2.6674-13.59-3.8507 13.67 0 0zm179.94 80.504c-12.464-8.4182 1.9534-21.831-7.1489-32.681-23.396-.41568-18.363-26.067-16.694-20.426-54.448-11.233 35.372-11.842 11.587-19.404-43.909-.92881 8.8493-8.2783 26.434-5.1064 19.535-.39067 25.797 14.838 22.587 36.766-9.2622 8.5887 20.508 24.4 3.7318 35.745-9.687-3.5267-45.633-7.2048-24.157 4.0851 3.0079 5.3193-17.723 4.061-16.34 1.0213zm20.426-27.574c-3.594-8.5734-3.5306 8.1877 0 0zm-12.511-36c-4.9894-5.2566-4.1029 6.0621 0 0zm-223.4 47.234c-11.203-15.31 13.863-23.07 9.1915 0 16.146 1.5272-13.707 9.8574-9.1915 0zm325.79-7.1489c-5.9096-10.076 12.681-26.755-19.6-21.447-7.5248 22.352-18.472-3.5373-8.9956-16.34 6.9826-8.404 34.327-17.989 47.809-7.1489 23.133-7.4392 52.942 13.579 14.646 11.234-17.603-4.9538-35.082 23.794-10.685 23.489 27.523.29523 4.4325 14.624-9.898 12.255-2.4996-1.9448-14.645 3.3896-13.277-2.0426zm-428.94-3.0638c-21.282-10.351 3.3957-24.644 11.745-9.1915 15.972 2.9077-4.4033 20.133-11.745 9.1915zm203.23-10.723c10.471-17.553 21.908 2.6525 0 3.5745zm43.915-5.617c-14.956-8.371-6.6457-22.969 15.319-18.383 10.622 14.957 13.384 27.404-15.319 18.383zm-4.0851-27.574c-22.724-5.4561 5.7109-23.584 15.319-11.472 17.889 9.1542-16.079 12.785-15.319 11.472zm-67.404-53.617c-.0236-25.469-8.6223-42.362-5.1064-71.371-10.672-21.469 10.292-40.202 9.1915-7.7784 9.094 15.089 1.0327 47.333 7.1489 65.4 7.1395 20.892-9.493 59.252-11.234 19.995v-4.4384zm24.215-5.617c-3.9759-6.2626 3.9608-35.467.29591-29.617 8.0984-2.8478 13.469 40.961-.29591 29.617zm-44.64-21.957c-1.2601-39.397 12.534-3.9621 12.255 11.745-10.015 14.371-14.104 10.01-12.255-11.745zm-16.02-1.4375c-11.118-13.605 1.7162-44.418-7.4695-57.797-8.8413-10.745 1.5518-30.175 7.1489-12.413 7.837 14.854 2.5545 42.827 4.0851 63.987 11.519-3.1721-3.9109 13.014-3.7645 6.2221zm244.49-5.2008c-17.466 1.7668-23.85-17.52-.96359-14.298 5.9984 1.8496 17.241 21.884.96359 14.298zm-169.24-12.862c-10.473-21.227 4.769-55.99 4.0851-12.479 14.572 6.0686-6.7275 41.367-4.0851 12.479zm-19.404-14.202c-2.1441-9.0959-14.365-29.91 0-27.645 8.485-2.2635 6.0502 50.485 0 27.645zm39.83 2.0426c-14.559-15.558 16.588-23.478 8.1702 3.5745-2.4624-1.4525-11.189 3.3589-8.1702-3.5745zm-82.723-11.745c-5.1863-14.083-8.3993-44.914 7.1489-23.489-2.595 17.211 9.3324 43.14-7.1489 31.306v-4.4384zm94.979 8.309c-2.135-11.816 37.431-17.314 23.489-4.2239 7.2573 9.2571-26.478 11.171-23.489 4.2239zm-152.17 1.3931c-6.9734-4.048-13.459-52.553 0-37.277 6.2967-3.1396 6.8042 45.705 0 37.277zm324.43.85107c5.9981-11.105 27.827 4.7819.68085.68085zm-196.77-24.851c8.493-14.936 14.309 9.1337 0 0zm133.79 926.72c-2.7326-9.2175-3.6316 10.171 0 0zm0-19.661c-14.366-2.6447-35.37 3.5415 0 0zm-101.11-24.68c-7.5305-14.193-13.908 17.086 0 0zm22.213-15.994c40.703-1.4389-11.902-11.701-28.89-7.4957-16.784 5.6934-32.299 1.8051-47.655 1.9066 19.638 9.999 49.345 5.6517 76.545 5.5891zm46.213-13.113c-15.342-14.876-31.089 3.3027 0 1.5319zm429.96-29.106c9.6911-8.8923-32-12.603-27.574-5.1064 5.0191 3.2119 20.827 10.917 27.574 5.1064zm-681.19-13.277c-4.0495-5.0877-4.494 4.6937 0 0zm664.56-6.1277c18.492-3.5289 48.184-3.5547 64.636 1.0213 11.306-6.6733 23.541-12.321 38.556-15.319 18.994-17.625 22.241.5096 28.849-16.34 13.865-1.1041 27.554-6.7963 30.383-20.241 5.3778-11.353 12.65-22.429 13.532-37.972 8.4398-9.8552 23.098-33.259-8.9102-24.355-24.29 3.7261-39.307-4.8629-62.579-3.2194-11.168-9.3972-41.02-1.2638-55.502-.01-1.1395 7.6181-32.289 15.809-8.647 16.34 8.6339 16.447 41.7 1.5115 55.979 9.0283 16.922 18.762-38.837 26.376-32.681 17.525-10.604 9.0562-39.808-1.5553-42.894 12.772-8.1353 18.4 54.874 8.5853 48.15 13.787-6.7723 13.943-33.554 5.0556-48.696 13.277-18.798 2.151-40.281 13.663-3.5373 11.745-8.6248 10.729-41.545 16.79-38.299 12.766-9.3809 6.7562 18.012 15.412 21.662 9.1928zm-680.9-2.5532c-6.7989-7.2831-12.732 6.8715 0 0zm881.36-11.626c6.777-20.166 18.928-34.535 16.34-32.8 4.8706-14.088 8.1545-26.916 16.34-39.307 3.4627-13.277 11.661-22.921 15.319-36.9 5.2055-11.878 10.809-26.249 16.34-37.511 4.925-12.705 6.7785-26.64 16.34-36.555 3.2078-14.975 8.0963-25.856 14.298-40.279 7.7773-8.7193 26.022-41.664 17.362-34.132 2.224-16.617 10.59-27.092 16.34-40.183 4.5438-12.982 7.4389-25.5 15.319-36.651 2.11-13.236 20.274-43.986 14.298-34.482 2.8661-15.176 13.601-22.484 14.298-39.83 5.582-12.24 14.102-21.832 16.34-38.556 18.149-21.718-6.3422-27.189 16.34-33.955-2.9093-7.1413-42.772-21.76-40.851-.78712-6.8988 10.949-11.033 24.092-15.319 37.411-9.0349 8.8778-22.234 45.937-16.34 35.887-5.9495 11.795-8.1416 24.873-16.34 35.983-2.9911 14.068-10.769 23.35-15.319 35.86-2.6033 13.954-14.327 21.704-13.277 39.477-9.9916 6.8614-11.958 24.938-18.383 35.745-4.2939 14.123-14.273 21.584-13.277 39.83-9.9852 5.8446-23.359 39.96-16.34 31.149-3.0086 14.104-12.62 21.604-12.255 39.081-19.07 17.952.2073 20.15-17.872 28.834-1.2826 17.951-13.204 25.264-13.787 43.915-8.5933 9.2266-13.904 21.736-16.34 37.119-2.2204 9.6096-14.966 21.192-6.9107 29.264 12.383-2.2423 18.162 24.622 27.336 12.374zm-831.32-.059c-1.1931-29.085-17.749 14.519 0 0zm-198.13-4.656c6.2584-10.252 25.078-7.9436 20.426-29.106-4.957-3.594-31.469-58.604-16.34-31.54-5.0234-14.427-11.261-24.48-16.34-37.396-5.4034-12.246-10.448-24.851-15.319-37.63-5.309-11.324-23.938-40.538-15.319-34.37-.0374-19.144-11.951-26.412-16.34-41.204-5.8294-11.48-6.031-26.66-16.34-35.534-1.5018-15.813-8.8518-25.777-13.277-38.666-2.4142-16.642-14.143-21.325-15.574-40.851-3.8754-10.508-11.846-16.92-13.021-30.128-5.4251-9.053-17.35-43.67-14.298-32.033-8.1634-11.356-11.411-24.137-17.362-37.574-5.5742-12.902-8.5339-24.909-14.298-36.096-4.4639-10.515-24.877-35.038-16.34-28.596-2.1758 1.427-49.274-1.2487-29.106 13.787 3.3878 16.853 10.242 28.016 16.851 40.694 2.2415 15.002 12.201 22.287 12.255 39.477 10.959 4.8312 25.238 37.922 16.34 31.03 7.3764 11.905 9.5608 25.106 15.319 38.536 4.2084 11.208 10.267 23.43 16.34 33.936 4.513 12.101 24.808 43.135 16.34 35.391 1.445 16.283 8.9679 25.334 13.277 39.534 2.784 14.616 12.507 20.362 14.298 35.211 7.3663 10.808 10.146 25.221 16.34 36.064 6.6471 9.1827 25.756 37.563 16.34 31.149 1.0039 17.039 9.6324 26.453 14.298 39.83 6.0936 10.166 6.1854 28.637 17.362 34.723.52058 16.349 8.2042 28.174 13.277 39.83 1.7082 1.1868 7.8036 6.8531 10.213 1.5318zm104.17 0c22.118 4.5488 8.8282-29.281-2.9715-12.766-6.0689 21.45-10.563-19.792-18.986-4.0851-7.7633 11.415-16.431-22.081-21.957-3.0638 3.3882 13.89 40.367 26.204 28.949 21.447 3.5142-1.6032 14.777 3.0708 14.966-1.5319zm35.745-4.085c-19.324-30.921-8.3274 25.244 0 0zm44.936 0c-3.5076-6.642-3.8218 6.34 0 0zm610.42-4.8392c-1.679-6.1526.623 13.35 0 0zm-17.063-32.437c-4.6768-8.8563-5.0956 8.4536 0 0zm43.19-22.468c19.249-6.7949-22.414-15.23-23.785-1.0213-23.855-7.6295-19.564 8.8476 10.8 3.0639 3.031-1.7499 12.79 3.0848 12.985-2.0426zm-649.83-13.787c-6.7984-19.204-11.184 7.797 0 0zm675.61-19.915c-3.9964-10.187-2.9099 40.566 0 0zm-828.48 5.4151c-5.9466-5.3806-.91199-1.6022 0 0zm129.11.095c-5.767-1.0781-1.0058 2.1424 0 0zm-81.426-5.307c-9.1202-12.45-18.327-16.678-30.638-22.676-6.3246-14.659-35.543-6.1388-15.319 6.2513 7.4898 7.034 13.901 17.97 29.302 17.243 5.0331-.5807 13.071 1.1284 16.655-.8182zm954.89-10.416c11.616-19.216-22.626-4.3773-35.745-6.1276 1.6627 8.5493 27.261 10.942 35.745 6.1276zm-145.02-7.1489c19.683.043 12.859-26.421 41.558-17.362 11.783-2.9459 39.174-5.2186 35.038-7.149 19.276-7.7666 34.423 5.648 56.17 2.0426 4.6581 8.138 33.496 13.55 28.596-7.4066 17.43-12.388-.9696-21.247-22.545-17.104-25.236 1.9578-46.744-2.192-68.603-3.2016-26.696-.9339 33.703-8.8283 30.892.1377 14.992-9.1788 47.818-.5221 64.34-8.1702 13.945 1.4699 31.613-34.618 2.6725-24.532-37.719 1.442-71.685-.6521-106.94-2.021-24.355 1.675-43.275-4.4518-65.087-6.4553 7.0373-11.346 50.353-7.2764 44.757-6.8213 17.224 6.6436 59.818 9.0111 48.353 4.0851 23.772-1.9266 30.269-2.9831 54.873-1.0212 20.868.186 51.575 3.65 45.465-11.234 16.22-6.0597-2.9476-24.93.415-39.83-7.383-5.5699-15.511-32.249 2.3385-25.533 5.2287 11.532 10.241-11.932 17.066-6.1277 4.1465-13.974 23.401-15.471 16.851-31.658 12.049-3.1696 28.806-30.111 21.958-23.489 2.5429-14.478 10.855-23.188 15.319-35.745 2.9784-11.492 13.839-22.2 6.1277-32.681-7.4786-5.1198-27.218-26.236-21.447-18.383-7.6968-7.6068-27.216-31.965-20.426-24.511-9.3936-3.0319-26.721-22.981-19.404-17.872-8.0587-3.9643-29.44-24.453-19.404-20.936-4.6304-7.1025-7.563-16.336-16.34-20.426-8.2557-6.9038-8.2492-18.276-18.894-23.489-4.8314-8.6432-16.382-14.011-21.958-22.764-6.4163-8.9586-10.001-19.323-20.426-22.172-3.1827-9.5832-23.987-27.077-17.872-20.426-6.526-9.6442-15.783-16.557-20.936-27.574-17.756-13.999-19.416 6.0143-30.137 12.255-25.203 1.6252 12.59 24.497 13.797 5.5568 8.4121-30.121 23.927 24.75-10.723 9.7624-19.261-8.1152-52.58 17.018-17.362 16.34 12.371.40956 40.486-10.9 37.276 4.0851-16.182 12.056-37.777-3.2558-58.409 0-23.703 5.5454-9.0157 15.921 14.374 11.714 4.0725 17.37-44.399-1.5384-44.816 17.903-8.4566 10.258 30.765.44854 24.673 3.0638 21.349-1.7456 50.249 4.0595 65.2-4.0851 13.453-9.3337-29.578-20.087 16.89-17.362-1.8381 11.835-2.3691 40.999 4.5572 36.766-3.7085 14.491-45.036 11.697-35.745 10.723-.5822-1.5429-42.092 1.079-28.596-6.6383 5.1212-12.452 65.929 5.6259 51.732-11.234-28.474-1.4498-52.565 1.4836-78.009 3.0638-17.016-4.5378-62.972 7.8869-23.374 8.1702 46.816-.23565 9.625 6.8021-12.647 6.6383-29.56 5.531-3.7765 13.502 18.932 9.7021 13.864-5.6121 34.168 3.0905 57.702 0 17.43 2.4983 40.583-12.481 54.089 0 17.596.27657 16.997 18.748 21.958 31.66 8.884 27.019-14.064 11.157-17.872 0 6.9626-24.683-12.358-25.913-28.438-27.574-17.796 7.1842-48.886 1.0752-71.878 3.0638-24.174.63469-55.632-2.8593-71.258 7.1489 11.276 14.086 49.927.79665 68.426 7.6596-11.886 11.773-44.499 2.8202-65.362 5.617-4.0843-4.7341-27.452 14.616-25.021 8.1702-12.908 11.347 70.636 4.6489 30.834 7.1489 28.933-9.8409 27.068 15.075-3.4942 9.1915-23.576.8875-52.829-4.9262-63.595 11.234-15.98 10.111 2.4973 23.293 2.0426 35.745-11.152 9.6396-20.643-30.632-18.383-19.404-7.6015-9.8501-6.7428-27.632-25.532-27.574-8.7517 5.035-16.518 2.1798-28.596-2.0426-1.6422-8.9951 16.772-17.762-13.792-9.1916-12.177 8.3684-36.79-11.458-37.429 9.7013 2.5296 14.494-20.828 42.951 7.3057 38.299 15.662 3.9401 36.062 3.2773 52.085 8.1702-21.347 2.2415-41.473 3.799-63.319 7.4486-8.6187-10.979-16.2 18.748-12.255 34.462-9.133 7.9128-22.439 44.787-15.319 35.706 8.9539 11.895-12.418 35.668-11.234 24.511-12.102 15.099 4.2546 8.5018 7.1489-4.0851 17.602-3.8186 31.133-11.944 55.03-8.1702 11.748 6.3152 31.369 7.3761 44.544 12.255 15.638-4.2607 32.619-9.2098 51.575-10.753 18.274-4.6118-13.434-35.031-5.6325-28.959-24.691-3.897-49.048 2.6952-65.857.90374-6.3972-.74442-19.753-1.1996-34.662 2.0426-24.563-5.3392 22.316-30.686 11.526-19.404 25.288 4.2972 38.923-5.0977 58.723-7.1489 11.771-3.601 16.058-14.685 29.774-16.34 9.3038-15.547 44.512-5.1906 66.383-8.1702 26.051-.16605 52.979-1.2088 73.57 4.0851 32.265-1.4242 70.178 2.7996 99.025-2.0426 12.366-1.6641 36.572 2.6566 50.826 6.1277 7.3018 12.817 13.078 22.916 12.494 42.068-15.801 10.151-35.164 6.4855-38.808 5.9318-25.813-1.9317-59.123 3.6337-80.681-2.5532-10.969-12.928 78.9-4.9064 54.519-6.6383 18.359-1.9701 63.507 9.7101 46.842-19.22-7.036-10.685-15.82-17.963-35.076-16.248-23.261 2.7633-47.361 5.1799-74.096 3.8082-21.536.3124-39.985-2.4627-56.523-7.1489-12.309 2.8122-22.316.43457-40.694 3.0638-15.254-6.9812-31.004 4.7696-44.072-3.0638-21.06 1.7831-6.8299 24.471 9.23 11.234 21.975 2.2934 51.749-.7836 63.281 12.255-26.4 2.7211-42.275-5.325-61.553 0-45.047 1.6306-1.1542 8.9971 13.9 12.255 18.328-5.1258 40.81-5.3439 59.072 0-3.7772-12.61 18.488 5.3633 29.072 7.1489-8.1205 7.3448-30.7-4.6019-52.201 0-23.099 1.7658-53.336-3.6057-72.042 2.5532 6.1918 11.877 18.931 9.0943 31.66 6.6383 6.9856 3.912 26.294.1028 39.83 5.1064 14.797 9.7134 58.052-9.0304 64.34 9.1915-23.031-3.1277-56.888-5.601-80.681-1.0213-12.65 2.5318-37.43-7.0831-52.085 2.0426-13.994 18.734 29.437 10.922 24.511 10.213 30.892 5.812 14.148 7.5064-4.0852 13.277-15.609-7.492-34.903-2.2417-46.979 4.0851-4.2118 8.0427 56.176 7.2362 42.894 8.1702 13.82 11.031 51.228-1.5256 68.426 6.1277-18.612 4.7616-31.064 6.5477-50.396 2.0426-16.613 8.6168-36.126-4.5094-61.039 0-25.368-1.29-47.392-.48378-64.225 8.1702-11.791 8.329-21.221-12.476-36.766-10.213-9.8176-4.7754-28.991-10.771-27.574 9.1915-9.6475 6.9024 42.265 11.164 30.41 12.255 21.218 3.459 43.951 10.068 3.2152 8.1702-20.738-1.4122-40.171-1.5185-37.71 20.268-8.3387 11.198-10.788 29.542 14.498 23.647 31.537-4.1789 30.198 12.498-.55383 7.1489-34.496-5.5649-8.6802 23.661 10.685 16.34 17.497-1.8192 48.812 10.483 14.14 11.234-21.143-6.9566-28.553 13.235-15.089 20.426-10.628 10.849 117.87 36.032 37.949 15.319 23.427.3304 40.889-5.3044 66.226-3.0638 22.565 1.6704 47.572.7223 65.661 8.1702 22.335-3.235 45.458 5.4004 59.445 0 30.28-4.9058 32.672 17.925-.2344 11.234-15.476 3.3385-36.598 11.747-2.1229 12.255 11.668-2.8664 26.064 3.874 29.225 2.0421zm-38.808-51.574c-23.426-.5212-42.621-5.2738-66.226-5.6165-44.628-4.1909 55.223-3.0971 39.928-4.8596 19.267-3.3636 68.107-4.5935 61.532.2847 2.7878 7.9572 49.623 1.2977 35.902 11.724-24.279 1.8844-38.927-3.9701-57.349 0-2.599-2.0255-14.308 3.3231-13.787-1.5324zm123.57-16.207c-24.506-.9254-45.815-5.0488-70.545-5.7506h-92.859c-1.0103-16.404 42.655 5.0885 55.149-6.1277 3.1668 3.3498 48.006 13.268 39.83 2.0426 9.6941-5.6042 36.514 3.6715 56.619 0 4.9594 7.6743 66.447.4025 32.232 7.1489.9917 5.8182-19.084 2.8158-20.426 2.6868zm-196.09-28.219c-15.709-7.0202-49.003 3.5449-63.319-4.8682 12.175-6.7867 36.995 3.9022 59.115-.2377 20.978-5.6606 9.5412 10.279 4.2039 5.1059zm175.66-27.574c-14.52-3.1168-44.278-.9459-55.149-6.1276 7.6377-3.1055 40.032 2.206 57.702 0 25.101.3723 48.377.7327 69.702-3.7279 9.0096 5.5102 31.215-4.3149 26.298 6.7894-21.004 8.8028-57.299 3.3539-84.549 5.1019-8.9691-4.8101-7.3315-.9391-14.004-2.0358zm-152.17-4.0851c-8.9887-7.2397-67.018 5.4555-42.894-9.1915 11.396 9.488 42.63-.8627 55.502 7.149 45.122-1.4975 14.736 7.25-12.609 4.0851zm88.126-11.234c-21.91-1.688-60.426-5.4572-12.709-6.1277 22.055 2.9909 20.302-.4054 36.923 6.1277-.9441 3.0589-22.326 3.6567-24.215 0zm77.321 0c10.874-19.948 19.307 11.3 0 0zm-236.94-4.0851c-25.625-3.2076 35.636-9.627 23.347-10.213 15.291 8.5583 38.172 6.9938 59.305 8.1702 10.354 8.1179-73.961 3.0217-56.491 4.0851-7.444-1.5458-22.355 2.9636-26.161-2.0425zm-24.511-6.1277c18.303-19.413 12.788 13.508 0 0zm200.85-20.085c7.4249-14.019 26.139-1.1949 46.494-7.4894 20.425 13.541-37.276 7.0408-46.494 7.4894zm124.94-21.787c-21.029-6.2047-56.608 2.1399-77.617-4.0851-9.8855-1.1585-14.32 2.4919-27.574-2.0426 2.3991 7.2156-49.687-4.943-24.215-5.1064 22.728 3.3591 27.813-2.0162 52.3 2.0426 25.059.21059 45.391 5.1479 72.745 3.0638 25.827 1.4813 30.058-23.04-4.3959-16.031-23.347 2.1213-42.243-4.4076-58.49-.30913-19.441-4.8166-33.74-5.1002-6.285-11.234 6.4158 6.7298 18.691-1.6427 38.532 0 21.395 3.2078 57.1-7.8944 65.638 8.1702 3.7613 18.141 13.861 32.891-16.89 27.566-2.4818-2.3163-15.247 3.9215-13.749-2.0337zm-180.77-11.204c26.381-7.504 34.823 4.7983 0 2.0722zm238.98-80.2c11.771-17.424 31.339 8.1553 0 0zm-159.32-19.915c-12.38-15.058 52.195-22.504 48-10.213 23.803 1.6991 37.672-1.3688 27.574-23.843 15.011-15.266 15.496 49.499 7.3401 36.098-26.743-1.3918-59.609 2.716-82.915-2.0426zm107.23-7.7552c15.523-16.674 43.776 6.5847 4.9105 1.6275 1.2807-3.4601-7.1423 2.7836-4.9105-1.6275zm56.17-1.9469c18.23-19.225 2.0856 13.595 0 0zm-283.91-9.7021c-20.005-11.092 60.497-8.0525 48-6.1277 15.983-11.251 38.302 5.8279 62.179 0 9.3681 1.8135 40.215 3.631 4.8334 8.1702-23.213-.49477-39.753-7.0299-59.902 0-17.456-1.3857-41.166 2.7605-55.11-2.0426zm157.28 0c8.0989-10.175 8.988 9.3871 0 0zm-53.106-30.128c9.1842-15.802 10.647 15.103 0 0zm-39.83-6.1277c11.014-8.8828 31.56-3.4376 7.6596 2.5532-1.4418-1.9625-10.016 3.2074-7.6596-2.5532zm87.83-19.915c-7.4893-5.3949-74.746 1.3898-51.379-5.1064 25.699 4.3938 44.566-9.5652 66.698-2.0426 15.295 4.8152-15.81 9.0358-15.319 7.1489zm48-29.617c19.96-20.288 7.3962 16.027 0 0zm-85.787 407.49c-5.6512-9.1697-6.8689 8.7771 0 0zm-246.13-10.213c-3.3252-27.781-4.164 27.025 0 0zm100.09 5.1064c9.4986-9.2918-63.128-9.8573-41.949-9.1937-28.744-3.1317-60.482 5.2104-13.476 4.0851 23.642 1.5591 24.737 1.9408 46.077 4.0851 6.133-5.3673 6.0343 10.176 9.3488 1.0235zm-768.83-12c10.657-25.091-14.88 11.592 0 0zm-8.3639-21.702c14.426-1.0817 50.238-2.7141 32.681-22.468-13.526-.1463-17.028-22.732-24.511-9.1915-6.1528 3.2954-33.767 7.9437-19.404 18.383-2.6272 8.1383 4.5864 20.888 11.234 13.277zm479.74-5.8104c-12.904-.3494 3.4511 1.5371 0 0zm29.872-6.9556c-5.4702-12.489-22.043-16.583-41.718-13.92-29.445 4.5688 28.514 17.504 25.378 10.346 1.9324 1.3735 13.422 7.4383 16.34 3.5745zm14.298-10.213c9.404-4.9314 1.2164-34.21-3.0638-14.455-.45179 4.112-.29826 29.903 3.0638 14.455zm-80 1.8723c-4.6974-1.3753 1.3259 3.0152 0 0zm53.447-15.66c16.561-6.7794-13.5-18.404 6.9577-25.532 20.388 11.652 18.219-15.927-6.2868-7.2179-31.631-5.0139 9.7063-10.931 25.46-9.0739 21.129-16.869-63.25.1501-47.931-11.292-30.222-11.667 45.276.4139 11.902-11.234-25.805-1.5337-57.59 2.9125-79.974-2.0426-10.547-.2881-59.581-11.189-43.915 9.1915 10.879 3.376 47.987-3.9761 37.119-3.0638 14.923 7.2944 42.151-3.2892 51.882 11.234-14.238 3.6494-64.633-7.6152-56.32 6.2468 21.393 4.1182 51.01 1.2123 75.574 3.2705 2.057 25.868-40.422 13.047-45.447 18.057 11.29 12.71 53.29-5.2898 62.809 9.1915 5.4753 5.6674-30.625 7.2267-44.464 7.1489-19.738-1.0908 9.9794 8.535 26.788 3.7665 11.691-4.0266 19.891 6.3169 25.846 1.3493zm38.809-26.042c-3.643-14.315-3.1772 13.806 0 0zm-12.255-34.723c-10.188-9.3365-39.018 9.1557-2.8679 3.5744h2.8679zm-432-6.6383c-6.225-5.1407-13.351 4.8759 0 0zm368.01-9.8574c34.653-5.8087-38.981-.2999-32.011-7.5043 13.766-22.774-35.928-6.1232-52.258-11.234-24.478-13.125-21.477 11.102 6.6536 4.0851 28.469-.77779 29.062 11.118-3.2597 7.149-14.176-3.8467-58.621-2.1942-22.626 4.0851 16.053 9.6223 50.045 1.3043 72.939 4.0851 10.197-.035 20.392.278 30.562-.6659zm-43.245-31.504c-1.4609-16.934-36.078 1.2106-9.1915.51064-3.404 4.3065 13.553 5.4806 9.1915-.51064zm308.13-6.8817c-1.6797-6.1527.62522 13.35 0 0zm-120.21-3.3311c-5.5548-3.4894-1.8478-.97343 0 0zm-241.02.51064c-5.6514-9.1696-6.8686 8.7772 0 0zm110.3.51064c-6.4343-7.2167-10.36 6.7762 0 0zm167.49-1.0213c-23.581-7.0376-37.712 6.6535 0 0zm27.574 0c-10.767-7.2544-19.361 6.4033 0 0zm-443.23-29.617c-1.1692-2.214-1.2739 2.1134 0 0zm102.13-1.5319c-4.0495-5.0876-4.494 4.6936 0 0zm-31.66-8.1702c18.077-28.524-26.111 7.1635 0 0zm-15.319-10.213c11.189-4.4553 5.2647-37.237 0-11.234-10.297-3.9018-8.9759 28.343 0 11.234zm-13.277-11.33c11.095-13.324 7.0963-19.763-3.0638-3.9895-2.2372 3.7689 2.918 12.79 3.0638 3.9895zm480-4.5001c-10.967-14.381-24.085 15.515 0 0zm-485.05-15.83c5.798-2.7404 19.245-21.831 6.0717-11.234-10.556-1.1089-11.671 31.329-6.0717 11.234zm-53.507-2.2979c-1.9922-3.0537.87582 8.2701 0 0zm87.153-27.905c-6.5129-.0283-2.8876-.46765 0 0zm-29.86-52.201c-18.27-.30269 5.8995 1.5553 0 0zm440.41-7.9792c-2.4095-6.3586-2.2914 6.0803 0 0zm-65.362-12.255c-2.5087-14.998-1.6232 14.482 0 0zm589.28 0c21.588 2.1237-1.0418-34.742 3.0638-28.085-4.0297-12.992-7.8795-26.163-14.298-36.766-2.9954-15.388-10.43-26.336-14.298-40.851-5.5476-11.993-12.95-22.49-15.319-38.77-10.112-5.7386-22.251-44.249-16.34-34.132-4.9191-14.503-11.813-24.861-16.34-38.417-3.9977-14.105-11.899-23.88-15.319-39.83-11.059-5.6163-24.597-45.534-17.362-35.745-6.0959-11.266-23.616-45.83-16.34-35.745-2.8878-13.619-9.9151-21.85-14.042-35.56-3.5867-13.148-11.363-23.672-13.532-37.972-2.5498-15.875-16.961-21.363-16.34-39.768-8.9898-9.9334-9.4382-24.791-16.34-35.296-4.2037-12.289-6.9755-27.838-24.304-17.778-2.8511 10.602-15.373 11.402-15.526 24.655 8.9208 5.4183 11.819 23.884 15.319 37 9.0204 7.1884 11.343 23.385 16.34 35.272 2.138 15.28 16.552 21.234 16.34 40.803 8.5127 6.5886 4.3876 23.065 14.298 29.884 1.0148 13.468 9.4452 18.272 12.255 30.716 3.8839 15.005 10.454 25.282 14.298 39.534 7.4894 10.33 11.728 23.912 15.319 38.14 8.7945 7.956 6.8704 22.841 16.085 30.285 2.2487 16.196 11.508 23.345 16.596 35.745 3.5489 13.475 10.079 23.214 13.277 38.57 10.435 7.6972 23.32 45.556 16.34 35.983 5.8725 12.076 6.8361 25.095 16.34 36.904 3.3204 15.389 11.509 25.939 15.319 40.713 1.13 3.5709 22.283 2.7942 24.511.51064zm-554.55-2.0426c8.9868-3.2585 30.678 6.4969 24.749-2.5532 24.721 4.3083 18.777-7.2152 6.9107-14.184-2.9032-9.8433-16.252-12.565-15.319-25.645-9.3223-3.2735-27.243-23.14-20.426-17.362-10.847-10.331-36.642-27.353-24.447-18.383-17.899-16.9-14.62-22.351-19.468-28.596-6.3019-17.951-16.973-24.958-16.34 4.0851 8.888 8.5554 14.065 23.588 16.34 38.651 11.564 8.1927.82533 40.945 28.182 34.185 23.233 6.9896-48.372 15.122 7.754 14.994 5.4411 4.9237 4.9918 19.759 12.064 14.809zm20.426-8.0609c-11.786-23.128 5.5182-14.627 7.1489 1.4226-2.3605-1.9837-9.1352 4.3529-7.1489-1.4226zm-856.04.65669c3.3544-13.363 9.4987-22.718 14.504-33.957 5.2875-9.1583 23.075-38.078 13.277-32.681 3.8766-13.921 9.8082-27.967 16.34-40.183.1413-18.529 14.369-25.214 15.319-43.562 8.6978-8.5524 23.712-45.278 16.34-36.098 4.7277-12.531 8.5284-23.604 15.319-35.63 5.1895-13.381 10.056-25.462 16.34-39.2 6.0708-10.365 24.77-42.838 16.34-35.115-.20597-16.696 11.72-21.26 11.234-38.236 6.1558-11.512 8.9423-22.239 16.34-33.42 4.4504-13.484 20.803-45.476 13.532-35.762 7.2144-12.232 9.0194-26.665 14.043-39.646 10.949-15.463 6.9357-35.116 9.1915-31.66-4.8783-8.7387-18.939-8.2946-21.447-19.404-18.378-2.3116-24.248 37.316-17.872 27.574-7.0622 9.9723-8.3192 26.111-16.851 35.745-2.3309 15.924-10.246 25.995-14.298 39.83-4.4267 13.616-13.339 22.746-14.298 39.83-10.312 6.7343-12.271 24.466-16.34 37.63-8.0043 9.7503-9.8996 25.61-16.34 36.923-9.0341 6.9338-22.608 44.694-15.319 35.626-6.3912 13.138-11.048 25.089-16.34 37.906-5.3989 12.351-7.9398 27.287-15.319 38.14-3.0723 14.362-11.012 24.45-15.319 36.852-4.4478 13.437-9.6931 25.425-14.298 37.348-4.7944 11.792-10.716 23.601-14.298 37.787-7.8506 10.978-9.5965 27.18-16.534 39.574-26.785 26.815 31.767 26.045 36.753 13.787zm352.55-4.2128c-1.4435-50.579-8.3125 26.59 0 0zm936.3-29.489c9.9616-17.063-14.13-27.922-24.304-13.532-.9035 10.954 21.391 27.755 24.304 13.532zm-336.81-111.57c10.141-9.5445-19.326-9.8216-13.787-17.362-17.138 2.3572-9.843 31.259 13.787 23.489v-4.4384zm-183.83-28.085c-1.1692-2.214-1.2739 2.1134 0 0zm-453.45-2.0426c-6.799-7.2832-12.732 6.8716 0 0zm24.511-4.0851c-5.5549-3.4892-1.8478-.97354 0 0zm-4.0851-11.745c-2.779-25.822-4.6138 25.745 0 0zm-16.34-4.0851c-8.3018-9.7132-11.408 9.068 0 0zm15.319-18.383c-1.3743-9.7404-42.309 13.186 0 0zm-138.89-19.404c12.224-9.8901-12.029-32.355-12.255-16.34-30.499-8.0505 7.2724 36.703 12.255 16.34zm23.489-24c-2.1472-12.929-13.141 16.802 0 0zm945.7-4.0851c15.954-11.593-20.828-22.536-16.34-1.5319 4.0327.20824 12.105 7.2599 16.34 1.5319zm-213.45-46.468c21.444-4.9584 38.608-27.57 32.681-21.957 4.9923-10.664 13.616-26.579 9.7022-40.34.3544-18.227-6.4341-29.311-14.809-38.809-9.8141 11.091 6.8493 31.584-3.0638 43.247.2 14.871-19.32 36.861-15.319 27.221-10.428 4.7211-15.337 14.961-29.106 16.34-10.284 6.8026-55.566 3.3434-21.174 12.255 4.5362 7.9537 34.577 4.0736 41.089 2.0426zm-361.53-90.894c15.448 7.0725 33.393-13.052 16.34-22.591-.38267-19.199-30.387-4.4535-22.468 9.3148 4.6682-1.2321-.76987 23.362 6.1277 13.277zm573.96-75.574c6.3156-6.2802 27.834-22.549 19.404-18.383 2.8106-21.652-23.443-14.239-32.013-24.511-14.637-1.9528-23.944-11.513-37.315-15.319-16.153-3.4288-26.591-10.435-38.928-16.34-11.471-6.1062-25.137-8.9341-37.692-15.319-11.424-6.6508-25.24-10.909-37.883-16.34-11.764-6.2311-25.918-10.072-38.666-15.319-8.092-10.541-25.268-8.465-34.198-16.34-10.617-5.6706-40.056-26.573-34.37-16.34-17.424-.61827-26.583-9.502-40.851-13.277-12.139-4.9663-27.427-6.7839-32.681-18.636-15.24 1.6093-22.831-7.2737-35.234-9.9598-22.193-16.092-23.834 3.0027-33.191-16.34-15.875-1.1798-26.852-8.7632-39.104-14.298-12.028-2.6807-29.133-17.699-29.321 3.7704-4.0881 25.399-1.877 28.513 17.953 34.017 11.819 4.3144 45.297 22.171 35.153 16.34 14.842 1.4982 22.895 9.7854 35.745 13.277 15.546 3.7407 24.085 11.171 40.851 14.298 13.289 3.5205 22.077 14.374 38.14 15.319 11.44 7.0713 23.744 11.709 37.434 16.34 10.967 7.3757 26.056 10.289 36.766 16.851 13.105 4.9138 22.646 12.29 36.766 14.809 12.242 4.3942 22.78 14.204 37.63 15.319 10.273 7.6874 24.561 11.406 37.944 16.34 7.6073 9.7938 27.251 7.8181 35.745 17.872 12.236 4.2602 26.837 8.507 38.57 13.787 11.488 7.9121 27.902 6.4656 37.586 16.34 2.8456.75025 11.298 9.2705 15.759 2.0426zm-962.04-3.5745c10.82-5.7244 21.933-10.835 36.766-13.787 10.055-8.4456 24.146-12.856 39.162-16.34 9.5884-7.0877 20.347-13.869 36.604-15.319 13.831-5.3437 22.661-14.751 38.971-16.34 8.4296-7.6978 24.097-10.445 35.998-15.319 13.404-4.4478 24.628-10.947 36.766-16.34 13.83-3.9708 23.97-10.825 36.587-15.319 14.27-3.9322 46.869-19.928 35.318-14.809 17.921-1.558 22.764-16.452 43.915-13.787 10.09-8.0304 22.335-13.907 38.021-16.34 10.344-7.5255 40.706-24.473 33.468-15.319 16.369-.99238 23.29-11.433 37.787-14.298 13.969-5.1603 30.318-7.9406 23.489-33.898.054-21.648-20.4-13.099-32.75-7.9743-10.377 5.6422-25.447 11.812-39.761 16.34-12.536 5.624-22.037 14.284-38.14 16.34-13.118 4.0891-47.696 21.649-36.413 16.34-14.071 4.3737-26.014 8.896-38.971 15.319-14.07 1.1955-20.267 10.263-34.561 11.234-7.5853 9.8942-44.944 24.974-36.098 16.34-12.343 4.9657-27.491 5.2205-35.533 16.34-14.163 3.0667-27.66 9.5427-39.02 15.319-12.293 4.6049-43.538 25.766-36.413 16.34-18.908-.002-24.861 11.577-41.443 15.319-11.427 3.5935-20.865 6.7116-31.068 13.085-12.03 5.803-22.615 14.873-38.651 15.51-6.7247 7.7258-30.006 9.7651-17.519 24.511 11.385.70278 13.315 25.292 23.489 16.851zm629.11-25.021c13.735-13.683-16.144-20.584-7.1489-23.489-3.1838 8.6148-27.824 6.599-16.34 17.362-5.4211 7.2687 13.369 23.263 23.489 6.1277zm-367.66-10.723c1.2405-16.011-22.311-16.422-23.489-2.5532 8.4419 3.7984 7.399 22.233 23.489 7.817v-4.4384zm179.74-67.404c-7.7733-13.363-25.705-14.111-16.34 1.5319-4.9453 6.1949 23.198 7.2044 16.34-1.5319zm-13.277-.51064c11.393-9.6516 13.87 8.5546 0 0zm17.362-15.319c-9.4474-17.897-13.861 9.7396 0 0z"/>
</svg>
