<?xml version="1.0" encoding="UTF-8"?>
<!-- Created with Inkscape (http://www.inkscape.org/) -->
<svg version="1.1" viewBox="0 0 1203.1 1510.5" xmlns="http://www.w3.org/2000/svg">
 <path d="m502.47 1507.4c-16.505-7.1446-46.285-1.0148-67.886-3.0638-14.988-5.5432-39.21-1.8525-51.381-10.213-26.318 5.478-31.632-10.049-55.372-7.1489-10.352-10.361-33.503-7.9234-51.927-10.213-6.9926-11.796-33.835-5.9581-41.01-18.383-22.815 3.7299-24.487-13.684-46.022-11.234-4.1586-10.312-20.532-13.01-29.552-21.447-4.9964-13.557-18.714-18.392-26.043-29.617-13.036-5.5173-9.3857-27.721-27.064-28.596-1.7777-17.008-9.3988-27.34-16.468-39.592-1.5027-17.187-10.829-25.548-12.127-41.955-5.0377-13.589-9.0365-28.216-11.234-44.645-8.0156-11.537-10.758-28.348-12.255-46.404-9.25-11.949-5.9729-38.364-14.331-52.085-2.4321-19.366-8.0572-35.538-9.158-56.235-10.611-10.059 1.7135-43.054-11.234-50.776 5.0727-28.382-11.79-34.829-7.1489-62.779 4.1522-25.673-7.7371-35.305-5.1064-59.457 3.8341-25.355-5.9237-37.119-5.1064-59.457 1.312-52.842-3.4702-99.59-2.0426-152.55-5.1168-19.449-7.6236-58.112 0-55.088 11.231-11.057 4.17-40.406 6.1277-60.737 11.305-10.322 2.0942-41.159 5.1064-59.774 16.059-4.6526 5.2515-44.655 7.1489-43.404 8.8965-11.721 8.3766-32.858 11.234-50.618 10.142-10.602 3.8108-37.678 12.255-49.978 5.258-16.587 7.8733-35.841 11.109-55.691 7.4206-14.945 8.4843-36.42 13.912-53.586 1.6125-17.813 8.5122-30.339 14.809-43.469-1.7317-18.902 10.182-24.158 14.298-37.212 10.423-7.9596 3.5155-33.25 20.426-34.723-1.4066-20.052 18.814-17.616 20.681-34.908 7.7073-10.725 20.848-15.924 25.277-28.282 12.345-8.276 22.08-15.448 35.745-20.555 3.1503-15.009 29.325-6.2169 34.853-20.426 20.18 1.3293 27.712-9.9889 45.317-11.234 18.28-2.3583 32.11-9.1671 49.661-12.255 19.093-2.5769 40.735-2.605 53.776-11.234 24.685 3.653 33.959-8.1047 57.99-5.1064 17.581-5.4195 38.105-7.8958 62.873-6.1277 21.798-1.8693 38.592-9.3124 65.616-6.3701 44.465-.75134 88.933-.89371 133.4-.7788 8.9569 13.915 43.523 2.2205 62.488 6.1277 14.038 9.0178 34.899 9.1498 54.448 11.234 24.007-1.1642 36.089 9.1521 57.031 11.397 22.487-1.2558 31.179 11.347 50.714 12.093 17.329 2.1715 33.073 5.9274 47.266 11.234 8.2168 9.7062 28.74 7.1058 36.407 17.362 16.488 3.1707 22.346 15.701 35.816 20.426 11.327 6.7155 15.351 20.734 28.596 25.532 5.256 13.053 13.854 22.764 23.489 31.437 6.9369 11.18 4.5513 31.682 17.362 36.989-1.0415 19.425 8.5453 28.221 12.255 42.894 2.9518 16.898 11.603 30.534 11.234 50.897 9.7727 12.273 10.204 28.78 12.258 45.678 7.8947 12.007 9.4937 30.159 11.526 48.478 7.1951 15.337 1.072 43.23 12.984 52.852-2.7069 22.526 3.9538 35.684 4.0851 55.372.1098 22.838 10.416 35.479 6.1276 62.715 14.284 9.9074 4.0965 44.287 7.149 65.426 8.5854 14.99 4.0313 43.12 5.1064 65.62v120.79c6.4634 4.3369-4.3233 36.575 0 55.947 3.7491 27.183-5.6541 41.58-4.6737 65.262 5 26.782-4.6652 38.802-6.5604 59.463 1.5527 22.01-9.0646 31.849-5.1064 56.264-10.183 11.041-1.6111 40.836-12.255 51.416-2.8119 18.709-6.719 36.323-10.213 54.351-1.022 19.479-5.9312 35.07-13.279 48.223-4.7817 14.211-2.0353 35.205-10.213 47.344-1.8367 17.105-4.5758 33.308-12.255 44.571.2522 18.029-10.991 24.562-11.234 42.095-10.302 9.48-15.539 21.376-17.847 39.638-11.345 7.0761-14.485 20.887-23.004 28.791-6.8392 11.203-15.296 20.789-25.532 28.596-7.7546 10.812-23.147 12.464-32.17 22.979-18.084 2.1528-25.707 12.946-40.117 17.872-20.292.8529-32.386 11.425-52.017 12.255-15.094 4.9307-27.973 11.904-48.546 10.449-27.152-4.578-32.792 13.343-55.023 13.04-21.332.6253-35.498 8.4169-60.766 5.1064-15.677 6.0353-37.948 5.5721-60.247 5.8858-22.921 1.0169-36.202 10.332-63.298 6.3695h-131.13zm51.064-16.851c9.0633-7.0669 35.839 14.13 46.468-3.0638-.97622 12.228 37.842-13.672 43.915 6.6383 9.2629-14.206 42.788-4.168 63.258-7.1751 19.088-1.9824 34.215-8.9532 56.595-6.3091 16.421-5.2122 41.364-.1942 52.743-10.516 25.922 4.1952 34.273-8.9707 57.767-6.6383 13.769-5.1027 30.258-7.4864 45.382-11.234 20.462-.6657 30.537-11.719 51.128-12.255 8.3966-8.3722 23.201-12.699 37.212-16.34 6.5839-11.799 23.278-13.488 28.596-26.553 11.178-7.0937 22.397-16.973 24.511-32.681 15.858-2.1105 16.448-19.489 22.468-31.437 11.534-7.2258 7.9576-28.984 16.53-39.602 1.9625-17.115 12.758-23.848 12.066-42.388 10.374-9.2182 4.0475-33.497 16.851-41.297-1.9455-22.564 6.7639-34.013 9.1915-51.574 1.7179-19.695 9.998-34.822 8.7369-58.213 7.7487-12.769 6.2081-35.62 11.969-51.319 2.3014-20.567 6.3292-38.6 4.3158-63.064 16.577-6.5311-4.0994-49.281 12.732-56.457 1.2878-22.952-3.3557-51.784 1.496-71.202 8.2305-13.595-4.2898-46.496 1.8073-44.665 3.0024-56.212-.1132-112.52-3e-4-168.78-8.8389-13.156-1.3147-42.675-3.7802-62.204 2.9209-25.08-12.779-31.539-7.149-59.328-12.725-8.5345-.095-40.694-11.234-51.416 4.6197-27.598-9.3624-36.595-6.1277-62.809-5.6501-15.945-8.4298-34.761-11.234-53.552-3.6881-17.663-7.3402-35.362-11.234-52.819-2.8863-16.688-6.693-32.456-12.255-46.468-4.0107-13.474-10.81-27.77-12.255-44.135-6.4244-12.988-8.9792-29.147-18.383-37.855-3.0239-13.965-10.533-23.288-17.362-34.946-10.23-8.4016-16.23-20.116-26.836-29.308-12.836-5.255-20.159-14.516-29.335-22.778-18.786-.4482-24.451-14.017-42.894-14.809-15.236-5.2107-31.977-8.9174-47.554-13.787-14.686-4.3038-30.048-7.9306-44.713-12.255-16.118-5.2116-42.542-.11672-52.754-11.234-25.128-.65735-33.198-3.1404-45.957-3.0638-13.129-7.8284-43.917 2.0012-54.703-8.1702-21.912-2.0664-52.073 4.1157-68.872-3.0638-14.844-7.1113-42.938-.97038-62.809-3.0546-23.936 1.7681-37.585 11.096-65.461 7.1396-18.823 3.4416-51.511-6.9818-61.687 5.1064-24.7-.75248-49.185-1.2907-64.693 7.1489-19.41 1.2573-34.985 7.4913-57.861 5.1496-15.213 6.8477-33.628 10.493-54.99 11.191-5.8887 13.684-36.335 4.5001-42.031 17.362-16.347 2.1144-29.385 8.4513-42.06 14.043-13.273 6.1692-22.463 13.669-28.408 25.787-18.369.35489-17.753 19.694-29.617 26.553-8.3087 8.75-11.911 25.743-23.489 31.66-.30997 16.998-12.431 25.175-16.34 38.585-4.1764 13.94-12.409 23.824-12.255 42.095-9.6818 8.7012-8.4278 28.338-14.298 40.851-6.2298 16.095-3.7249 39.899-13.277 51.064 1.2729 21.689-6.8858 33.947-9.1634 52.085-3.931 17.729-9.0339 36.022-8.1983 58.058-12.029 9.2818 1.005 42.815-12.255 49.975 4.3481 28.147-6.4647 41.132-6.1277 65.268 2.6173 23.605-3.2381 39.776-4.6954 59.967-.1433 27.776-.2866 55.552-.42991 83.328-10.942-.0971 9.9072 36.11-3.0449 48-11.627 19.057 8.6524 32.024 3.4544 55.213 2.0082 28.776-2.3628 63.163 3.4393 88.603 5.3574 16.842.70878 42.369 2.2979 62.482 16.049 6.0784-1.9532 46.208 9.1915 57.192 2.8496 18.597 7.0581 35.836 9.1915 55.149-1.0153 22.92 8.1516 35.658 11.234 54.48-2.2495 23.534 10.84 31.728 6.1277 57.725 10.75 8.7588 7.9396 28.736 14.298 40.987 7.1046 13.173.01581 39.466 15.319 46.087-1.4573 19.382 8.2162 27.634 10.213 43.562 8.4267 9.1574 16.081 20.488 17.362 35.968 8.4604 8.6843 17.346 20.589 26.809 29.808 9.2724 9.984 19.606 16.252 26.809 28.916 18.967 1.3219 19.416 15.428 38.325 16.848 14.182 4.8125 27.388 10.339 39.356 17.042 20.5-.5973 29.726 11.854 51.828 10.508 15.905 6.0131 33.878 11.186 53.587 12.283 15.099 6.0077 38.133 4.0801 53.106 10.213 25.434-2.1676 44.974 1.5582 63.671 6.1277h70.339c-4.1297 6.7188 7.4256 11.749 6.1277 3.5744zm-33.702-11.745c-24.856-4.7613-58.584-.6502-86.809-2.0426-11.075-10.163-36.802-6.3793-52.34-13.046-16.437-5.0481-40.7-1.52-52.851-10.443-20.53 1.8062-31.333-6.1139-46.979-9.1914-13.851-4.7235-27.743-9.4062-41.426-14.298-16.103-2.0143-27.853-8.381-38.01-16.34-11.336-5.0653-24.996-10.946-29.84-22.468-11.205-6.6049-16.407-19.612-26.809-28.78-12.065-8.1033-14.644-24.227-21.191-35.56-5.4986-12.81-9.7305-26.887-17.362-37.564-2.37-15.939-5.2544-31.363-10.213-44.713.11879-21.222-13.133-28.034-12.255-49.467-2.5018-19.137-6.4558-36.821-11.234-53.682 1.5893-23.185-6.5479-36.643-9.1915-55.595-4.6389-17.245-2.9641-40.492-9.3604-56.298 1.8722-22.898-8.4551-34.782-4.9375-58.731-2.1076-20.752-9.5411-36.177-6.1277-62.45 4.6284-27.888-7.9242-38.466-6.4221-64.016-1.5123-65.87-.37148-131.77-.72682-197.65 13.969-9.9472 2.2841-45.548 6.1277-65.62 12.094-9.9 3.548-40.44 6.1277-59.855 6.9371-16.394 7.4026-37.087 11.234-55.197 1.5184-18.598 4.07-36.163 11.234-49.115-4.7361-27.151 8.7117-36.119 6.1277-61.118 6.6273-13.642 9.6286-29.51 11.234-49.18 6.4522-12.899 11.091-27.612 11.234-46.82 14.144-4.3612 6.6561-31.214 17.362-40.053 3.7194-14.719 14.61-21.566 18.38-37.75 7.6319-10.275 8.8788-26.469 22.471-30.611-.81848-18.861 16.548-19.537 22.468-31.66 11.682-6.1714 19.795-18.857 35.745-20.426 7.1819-11.201 26.284-10.482 37.787-17.362 17.558-3.0856 31.594-12.193 53.239-11.234 13.31-8.0184 35.114-7.543 53.772-10.213 13.092-8.9121 38.642-4.5732 53.393-12.857 23.913 2.603 38.305-4.2026 58.053-5.7155 22.608 1.9707 28.462-6.8045 45.031.2917 7.4496-12.67 39.861-.37718 54.128-6.2296 39.496-2.3767 83.414-.33099 124.6-1.0213 9.6864 13.963 45.023 2.2763 64.822 6.1277 12.105 9.0899 42.691-1.098 52.761 11.234 26.128-3.6617 34.327 10.605 61.27 6.1277 13.182 6.9772 27.371 12.948 49.244 11.234 11.889 6.4592 24.9 10.962 40.686 14.043 9.3249 10.473 30.266 6.5388 34.536 20.681 17.37.50058 26.142 9.6547 35.935 19.66 6.1382 12.485 23.678 14.558 23.299 31.404 13.454 4.5364 11.814 23.149 22.644 32.43-.7545 19.931 15.218 20.063 12.082 41.102 8.3936 11.298 11.507 27.877 12.255 46.82 6.9626 13.878 9.731 31.95 11.234 51.287 4.6524 16.039 14.969 26.415 12.255 49.82 8.6884 12.714 8.7243 34.081 11.234 52.974 3.3529 18.459 7.6057 37.206 11.234 54.771-3.9899 25.952 6.1462 39.205 5.8309 62.138-3.7252 26.535 7.6495 37.861 5.4032 62.586-5.6203 22.684 9.9702 38.666 0 47.519 13.969 9.9584 2.2849 45.57 6.1276 65.655v124.3c-13.3 9.7023-1.6046 44.068-5.0335 63.511-1.2903 20.148-6.5076 37.016-4.158 61.149-6.606 14.936-4.1313 38.888-12.766 52.308 3.5846 24.193-4.9571 36.039-5.8503 56.138.7501 22.552-8.101 36.613-11.21 54.731-1.0526 18.604-6.3492 34.112-12.046 48.738-1.5277 18.291-2.6429 36.995-11.234 48.223-1.3403 18.745-10.042 30.128-12.255 48-6.9906 11.318-6.7626 30.622-16.34 38.808-5.2933 12.143-11.284 23.588-16.34 35.968-9.0955 8.5855-16.92 21.556-24.511 31.149-5.2817 11.946-23.24 13.241-28.598 26.042-18.659.4184-20.431 16.95-39.574 18.169-17.82 1.2819-25.36 11.693-45.256 10.427-10.311 10.006-32.291 7.8834-48.477 12.571-14.088 6.8442-37.969 2.1947-50.076 9.8972-25.87-3.8381-31.535 12.528-58.946 7.149-24.726-3.4258-33.851 11.858-60.607 7.1453-22.94-2.7438-33.399 7.5526-50.201.013-13.623 9.0919-43.743 1.6859-64.059 4.0851-22.781-1.3502-51.709 2.7261-70.973-2.0519zm186.06-11.241c13.744-8.1373 40.23-.3474 58.022-5.2197 12.217-8.5089 36.269-5.1822 52.085-10.092 19.718-1.0475 33.322-8.2099 57.191-5.1064 10.373-10.51 29.404-12.363 49.373-13.277 10.108-8.1573 32.855-3.6765 37.435-17.362 19.845 1.1962 24.072-13.227 39.607-16.34 5.1616-12.429 22.954-12.695 31.372-24 8.0364-10.207 17.085-19.814 22.979-30.638 6.9291-10.79 14.328-23.356 17.362-39.167 7.9273-9.8493 8.8232-26.081 17.362-36.695-1.3794-20.028 6.4341-30.864 11.234-44.713 3.7426-18.479 7.1451-36.775 12.034-55.34 2.4908-19.903 12.491-33.94 11.456-57.069 6.7517-15.811 9.4639-35.662 12.255-55.433-1.3427-21.459 9.0443-31.189 5.1064-55.243 13.341-9.6196 1.4284-44.307 11.297-57.543 1.3107-22.853-3.6888-51.615 7.0857-65.715-2.9075-27.155-1.9475-58.178-2.0425-88.146 11.423-6.1949-5.2373-16.326 5.937-26.298-12.115-10.882-3.2303-44.258-5.937-65.112v-83.228c-13.916-8.9783-2.2217-43.567-6.1277-62.556-15.378-5.9829 5.8837-48.605-11.234-52.848 3.9223-25.22-6.9973-35.599-5.1064-58.788-8.296-13.491-3.1403-40.434-12.255-53.106-2.0071-19.514-4.3313-38.711-12.255-52.308-3.2144-17.477-4.4599-36.923-11.234-50.841.01-20.338-12.267-28.392-12.255-48.734-6.2513-13.398-3.269-36.029-17.362-41.585-2.6764-15.224-7.8704-29.418-17.362-36.46-12.631-5.5131-10.627-25.661-28.596-25.837-3.3608-15.175-21.892-15.18-29.617-25.992-12.525-6.6475-24.682-12.965-41.649-13.838-14.149-5.277-24.868-13.984-46.022-12.255-11.107-9.881-33.468-8.5078-51.73-11.234-16.393-6.4728-35.958-8.98-55.568-11.424-24.05 3.7261-32.398-9.8414-56.265-5.9379-25.953 3.3883-37.011-10.01-63.865-5.7572-63.653-.70652-127.3.10084-190.94 1.1615-12.397 12.052-45.159 1.2039-58.054 11.745-24.196-3.5258-33.027 8.3127-56.904 5.1064-14.507 6.8437-40.347 2.3549-51.798 12.255-19.841 2.5524-40.454 4.3339-55.947 11.234-16.277.96534-24.844 11.795-43.208 11.722-11.749 6.9775-18.908 16.13-29.749 23.001-11.087 7.1257-16.978 19.448-26.043 28.596-9.1529 8.374-18.634 18.639-20.936 34.723-8.7385 8.9958-15.917 22.145-17.362 39.362-12.77 7.644-9.4378 28.112-18.383 37.809-1.3374 17.971-8.9511 29.666-10.213 47.712-4.2545 16.268-12.559 29.47-10.143 50.428-9.0145 14.225-8.6096 32.957-12.325 50.678-9.621 10.709-.39009 40.269-11.234 49.755 3.4374 27.236-4.0874 43.51-6.1277 65.268 4.251 25.485-10.417 32.05-6.1277 57.573.04345 23.3-8.6983 37.815-5.1064 64.663v79.049c-4.6578.8152-3.1007 34.502 0 32.17-5.0133 9.3744-6.5656 18.093.000556 33.902 1.1854 37.025-1.8872 78.93 3.4839 112.86 9.2718 13.141-7.0435 50.917 8.7708 56.986-.55665 24.163-1.2635 48.477 6.1277 64.693-1.4235 22.285 8.8706 32.853 5.1064 57.479 9.8848 11.126 4.0584 37.963 12.255 50.776 4.0865 16.073 4.0612 36.258 12.255 48.223 1.8745 19.306 3.4075 38.954 10.213 53.329-1.6197 20.95 7.9719 30.688 13.277 44.713 2.1033 15.237 6.1657 28.515 13.787 38.233 6.842 11.672 10.76 25.08 20.732 34.979 4.7232 13.005 18.186 17.425 25.736 28.34 7.8305 9.9893 19.931 20.468 32.681 22.241 4.9878 12.938 27.226 8.6251 36.188 17.589 16.349 4.1075 30.809 10.532 50.621 10.213 10.058 10.212 27.1 13.441 48.556 12.255 12.128 9.9384 33.205 6.2817 48.594 11.234 27.468-4.703 37.323 8.2083 62.169 6.1277 25.559-2.1321 35.918 10.935 64.153 6.1277h182.87zm-216.7-34.699c-16.81-5.7488-47.004 2.128-59.945-8.1878-28.557 5.3789-37.381-8.9752-62.385-7.1489-20.531.2008-33.772-6.8876-50.776-10.213-15.483-4.704-34.635-5.7396-48.307-12.255-20.506-.4167-27.957-12.155-40.586-16.782-12.399-.7483-20.399-10.429-30.086-15.899-9.1057-7.7997-19.292-20.561-25.532-30.638-8.569-9.5059-13.173-22.381-17.577-36.511-3.3307-15.972-16.361-20.73-12.04-43.149-11.498-8.928-8.2119-32.639-15.319-45.958-4.1501-15.923-6.1142-32.447-7.811-51.83-6.9946-11.863-9.8558-25.33-12.615-40.437 1.8208-22.81-9.0511-32.927-5.1064-57.861-10.767-12.5-.96774-45.565-12.255-57.544 3.4175-24.83-8.7116-34.12-5.1211-59.14 4.1771-22.483-4.7784-36.857-6.9032-55.753-.07703-84.478-.15407-168.96-.2311-253.44 13.969-9.9472 2.2841-45.548 6.1277-65.62 4.4389-10.718 3.9145-19.46 5.1064-43.657 14.868-6.6959 2.4665-40.662 12.255-52.437-3.8403-24.18 9.1086-33.323 5.3585-57.159 5.7736-14.191 1.304-29.576 10.982-40.438-.29287-22.039 10.339-35.302 11.234-55.753 3.2376-16.042 8.4182-29.497 11.45-46.213 3.166-18.325 11.987-29.099 13.061-48.255 8.4766-11.248 12.844-21.475 17.362-32.968 7.9042-8.718 11.715-24.789 22.468-30.351 10.123-8.6958 17.21-20.428 32.968-23.489 4.5267-13.604 24.822-9.8741 30.861-22.979 23.631.24025 37.268-7.9904 57.541-11.46 19.594-1.7764 33.576-8.2892 57.352-5.3915 11.343-10.251 36.661-6.5276 52.528-12.255 20.539-1.6218 36.337-8.8834 61.153-5.9451 24.465 2.9812 34.501-8.6513 59.456-5.7251 46.786-1.1927 93.597-.30954 140.39-.58522 7.3161 2.65 22.725 2.3801 41.106 4.0912 23.393-3.655 38.803 4.5275 56.044 7.1428 19.471 1.6779 34.883 6.578 54.186 8.9362 17.7 5.4928 35.727 8.7299 59.047 7.4043 6.764 12.545 32.321 9.2673 45.957 15.83 12.76 5.4531 25.784 10.641 40.851 13.787 8.3576 9.4334 22.848 15.793 30.638 26.553 8.3459 9.3562 19.038 16.366 22.468 30.638 8.3324 10.317 10.438 26.86 17.362 38.585 7.5298 10.853 8.6671 28.099 12.255 42.894 5.4239 15.246 8.433 32.907 11.234 50.776-1.5828 20.647 10.438 27.689 11.234 45.957 7.1452 13.746 2.2471 39.335 12.276 50.329-1.3711 23.519 10.248 34.741 6.1072 60.165 11.69 8.7658-2.2909 43.202 11.234 50.133 4.3567 17.505-8.4838 52.207 6.1277 59.457 2.041 22.129-4.0826 52.423 3.0638 69.447 7.1448 17.051 1.0321 47.361 3.0725 69.517.6566 36.394-1.4283 72.894 1.3232 109.21-14.492 8.9716-2.5969 44.329-6.4304 63.959 3.1855 25.047-6.3256 37.398-4.0851 61.5-.4538 18.291-6.6057 30.884-7.149 49.086 1.3192 22.16-10.64 31.041-6.1276 56.393-6.6658 14.184-12.228 31.14-12.151 52.785-7.298 14.039-2.1925 39.889-11.338 51.831-.3375 20.354-9.8874 31.496-12.255 49.82-.3267 18.985-9.6864 31.812-9.9194 50.565-4.0971 13.022-15.469 22.965-16.634 39.754-10.018 4.7877-12.266 20.58-17.362 30.732-12.421 8.826-20.965 17.762-29.394 28.725-14.251 3.9618-24.337 11.014-36.734 18.176-11.591 6.092-20.507 13.657-40.948 10.419-10.602 8.8574-26.888 12.031-46.124 12.255-12.119 8.8364-31.256 10.875-52.915 10.535-20.47 2.6912-35.428 10.019-61.259 7.4352-18.627 3.1884-35.956 5.958-52.071 10.625-13.755-5.8037-29.363 3.1634-52.12 0h-165.63zm-75.217-28.613c11.569-5.7385 18.902-18.496 29.26-26.553 18.23.3914 20.645-15.081 31.517-23.489 12.485-9.6697-4.9137-45.967 9.334-52.085-1.015-19.664 12.66-24.638 18.383-37.564 3.7832-13.653 17.026-17.846 21.447-30.861 11.312 1.6844 19.803-39.177 3.5745-28.596-12.637 2.1718-6.01 23.607-20.936 23.489-4.5347 11.218-14.65 16.861-19.915 28.596-6.2393 11.868-18.783 18.104-18.544 35.775 18.466 3.8473-1.5964 26.229-1.3712 30.098-10.866.9067 9.2675-35.576-11.234-20.936-10.301 7.2292-12.141 26.346-23.489 33.615-6.4952 11.576-5.0602 31.083-18.383 35.832-3.7473-1.2741-9.5713 45.235.35711 32.681zm41.702-52.851c9.5918-16.221 26.805-1.49 5.3617 2.8085-1.0835-1.5636-8.6583 2.6601-5.3617-2.8085zm174.45 46.723c-20.191-12.763 30.294-3.4478 28.596-20.426 11.934-22.291-10.762-11.856-18.383-26.043 23.768 4.1814 23.283-18.413 29.617-31.149-21.461-9.2275 4.2455-14.909-2.4885-28.596-20.043-11.11 11.736-16.17-2.6179-29.561-40.691-.4429-23.627-3.6047 0-9.0246 5.4749-24.638-4.1348-37.448-29.533-30.861-14.117-15.926-17.153 11.12-39.468 6.1277-10.858-8.6901-51.17-10.129-6.892-12.465 22.191.3754 40.852-4.2634 58.531-7.9601 23.426 2.1484 14.163-27.82 15.271-47.649-.93758-19.36-8.0828-30.556-6.0791-51.897v-105.73c-8.7452-6.89 7.9863-60.698 0-53.617 18.129-.86068 23.321-14.658 42.16-14.809 13.486-1.8875 13.807-44.066 16.469-4.2783 10.516 9.0191 9.7598 27.213 16.946 38.491 8.2886 8.8302 11.673 25.26 17.362 37.277 4.5389 6.8492 26.82 38.057-2.1717 32.681-20.578-1.4514-32.85 4.5131-49.08 7.9149-25.2 6.4588.87712-13.43.12056-26.327 5.3418-13.561 9.0101-28.101 11.301-44.461 11.656-2.3732 16.154-36.527 0-18.829-9.2704 8.9198-10.23 26.151-17.362 37.209-5.431 13.13-5.7175 30.817-17.362 38.501 1.3615 14.367-22.43 24.221-6.1277 37.141 9.0867 6.4846 33.121-13.366 34.723 8.6808 16.332 2.5608 22.332 15.453 23.489 33.188 8.8597 10.566 15.618 20.29 18.383 35.237 13.16 8.0688 11.543 27.288 25.603 34.723 8.1595 8.8487 19.055 18.519 26.482 28.596 5.4285 15.455 24.67 17.097 18.383 44.267 11.588 6.1793 12.025-26.899 32.912-20.778 41.345.033 11.603 4.0699-5.3374 8.9685 9.9694 9.1247 5.8176 33.365 26.043 31.206 36.87-.5851-24.319 5.6309.79387 22.818 14.492 1.6066 8.7476 20.593 20.142 27.901 20.502 1.084 34.811 8.3608 59.651 5.1064 21.646-5.8171 2.1091-22.147 21.76-22.468 11.757-3.4705 11.814-40.992 15.61-33.702-1.7653-14.456-12.139-21.75-15.319-35.745-5.4367-13.739-1.0433-14.502-12.468-30.383-13.017-12.159-1.1868-18.761-17.149-25.787 3.9161-22.826-13.961-21.255-20.202-34.722-20.747-8.2714-32.11 20.186-39.032 6.1764 7.9756-7.5962 27.51-21.019 34.636-11.283 10.871 1.7001-21.237-35.236-10.125-34.723 1.8065-19.849-9.6731-26.412-14.298-39.83-8.2212-10.123-9.1493-26.016-20.426-34.859-2.0921-16.512-11.989-25.218-17.362-38.45-1.7896-13.352-7.3852-25.939-17.362-30.861-1.4404-16.784-12.307-25.514-15.319-39.83-5.1977-12.797-14.031-21.959-20.426-33.56-.005-17.465-11.888-24.396-15.881-36.908-3.0779-15.65-15.276-22.18-19.864-36.32-.0775-21.599 2.6298-40.413 12.255-52.308-3.8006-25.854 7.8438-36.263 5.1064-61.054-10.439-20.081 7.8519-17.569 2.8085-35.354-4.4938-12.188 24.084-13.31 14.553-38.689-9.3958-12.487-15.776-27.99-12.255-53.394-2.6915-17.617-3.7898-36.826-10.213-50.712-5.6661-11.976-14.682-20.857-20.99-33.702-6.8653-11.483-20.445-17.6-31.981-23.489-8.1325 13.549-19.206-14.509-33.104-12.255-19.54-7.3452-5.601-11.517 3.3514-22.468 2.0784-15.962 12.904-26.283 15.319-41.872 14.808-3.0668 5.1133-29.116 19.915-33.191.93025-17.754 17.132-21.81 17.872-39.096 6.8544-9.7638 18.194-18.014 17.515-36.989 8.1734-7.3316 11.661-23.281 21.393-31.431 4.4054-15.259 18.605-18.43 17.262-38.016 10.725-6.6336 27.286-8.0874 29.617-24.511-2.7048-16.073-14.489-21.507-23.615-31.557-14.331-5.1007-42.94-11.825-57.066-2.368.567 22.769 1.3302 45.734-12.255 54.351-2.653 16.188-5.6373 28.235-13.277 39.83-7.9412 10.069-7.5674 28.453-20.328 33.702-.60526 18.465-12.76 26.849-17.459 39.607-4.4505 14.082-9.5918 27.419-18.383 35.968-4.5846 14.041-12.901 24.35-17.362 38.514-4.0185 15.462-14.272 22.267-17.362 37.06-16.718 1.632-3.1022-19.658-7.9149-28.78 2.7388-13.325-2.3956-15.537-2.2979-40.35 1.7709-26.42-3.5109-59.892 2.5532-82.019 5.9625-18.783.86007-48.631 2.5532-71.683 1.889-18.472-.40874-41.131 12.255-48.828-1.4742-18.726 16.067-40.391-9.1915-42.894-4.7304-14.971-35.628-7.076-52.552-8.5622-20.715-2.4105-29.451 16.115-23.023 33.073 2.9737 16.282 8.6857 29.825 14.298 43.469v177.13c13.969 9.9472 2.2841 45.548 6.1277 65.62-18.301 16.052-21.459-14.261-23.489-27.099-10.35-7.4601-10.317-23.883-20.402-33.415.53874-20.243-18.315-18.968-15.343-39.83-13.071-5.0625-13.023-23.22-22.477-31.915-1.6527-17.277-7.8875-28.708-17.353-37.532-.56795-17.815-14.141-22.625-15.319-39.83-4.6813-13.962-13.014-25.002-13.974-43.532 9.0577-32.421-13.623-32.717-39.281-30-14.008 2.4078-24.181 11.225-30.49 22.468-17.812-2.0301-19.542 23.825-14.876 34.723 12.997 5.8985 20.919 15.508 32.749 22.979 3.0241 16.026 14.842 20.729 20.426 33.191 5.2446 12.933 10.404 25.95 19.808 34.723 2.4982 17.191 9.4958 27.25 17.555 37.56 5.1927 14.296 9.3327 26.841 17.477 37.249 3.5824 6.3308 19.26 37.067 3.1794 22.411-13.133-6.5348-12.939-24.098-30.956-22.666-5.632-8.2038-24.725-23.802-35.745-13.5-16.748 23.864 9.8291-31.062-8.2293-27.132-16.228 16.355-13.896-14.555-27.822-.21976-12.292 19.317-13.101-10.94 2.3489-9.1915-1.3882-18.623-14.598-25.423-12.255-47.777 6.7594-16.489 5.3738-28.801-5.1064-39.542-6.6159-11.374-25.095-10.884-41.203-12.766-22.853 6.4176-19.661-17.9-35.784-4.0851-14.713 3.1447-21.417 11.536-38.963 12.354-12.272 5.2938-18.338 16.624-30.092 22.369-7.3936 11.027-16.101 18.711-23.305 31.404-13.697 4.4191-13.993 23.46-22.652 31.915 1.5805 19.436-10.374 26.387-17.362 38.585-4.3916 17.609-10.243 33.758-7.1489 58.853 7.0423 12.064 18.929 20.261 30.35 28.46 5.7484 12.701 11.039 24.255 22.757 30.357 2.9849 19.707 34.665-10.877 28.596-3.5745 10.171-9.4467 19.33-19.905 38.938-19.915 19.178-7.1772 33.936 21.736 27.956-.41938-14.2-2.7671-17.223-19.852-38.298-16.942-8.7713-7.3097-32.53-16.75-45.957-8.1702-15.479 10.903 2.2036 27.447 6.1277 37.787 26.56-4.6302-13.337 22.738-15.064 4.2694-3.0825-18.383-10.868-32.703-8.4749-56.355-31.671-4.1764 19.805-6.7811 6.177-30.415 1.7422-17.396 11.682-26.594 17.362-40.053.93437-16.114 19.231-17.829 26.043-28.596 9.6464-8.9068 19.244-17.862 27.064-28.596 16.536-2.4534 28.002-9.9774 38.585-18.383 22.635 11.679 30.799-5.0933 35.968 3.639 9.3999 23.178 3.6047 13.665-11.333 18.601-5.685 17.604-1.8255 13.457-6.0284 36.994-16.989 14.239 15.72 39.02 9.9897 33.702 13.634 4.2219 17.762 20.107 25.755 29.171-4.2631 11.471-12.5 53.384-12.671 13.916-12.254-5.7114-11.297-25.372-23.073-30.831-2.6991-15.998-19.923-15.096-30.235-26.107-12.693-18.851-27.361 6.7153-9.5947 13.852-2.336 22.857 2.2659 38.777 5.1064 56.458-1.1867 17.547 18.111 17.869 17.362 35.457 13.995 3.5253 16.297 21.762 25.532 29.617 11.506 11.041 20.356 22.676 15.319 48.833 2.6619 13.148-7.1612 59.606 8.6808 43.081 10.042 11.868-21.165 15.187-14.809 36.1-15.293 10.32-8.2361 44.452-3.0638 37.432-8.3286-8.1341-13.947-22.219-25.532-27.574-10.647-9.5695-30.972-7.6894-42.128-18.189-17.015 3.5181-5.7615 23.927 6.383 28.402-2.9567 21.158 14.502 24.383 17.37 39.602.79984 22.562 7.0929 37.684 13.268 53.267 4.1105 15.779 18.453 20.354 23.489 33.77 11.403 6.9796 15.373 21.393 29.617 25.532 5.7014 10.875 15.36 20.225 22.887 31.149 6.9983 9.5488 14.877 20.216 21.027 30.128 2.0257 12.526 15.776 17.581 13.334 35.039-14.612 17.965-7.3835-15.276-29.675-9.5066-4.3429-13.87-29.95-6.4756-37.277-17.362-11.853 11.021-43.393 2.3532-63.513 5.1064-19.755-.31184-26.925 9.7091-40.402 17.174-11.619-13.147-23.27 6.9886-39.604 5.6438-14.124 5.25-18.82 14.299-33.283 20.708-5.5905 13.029-12.903 15.884-24.332 25.921-19.606-1.5064-20.504 13.666-31.461 22.281-4.4091 7.3869-22.46 27.968-7.4042 35.932 9.9807-8.3547 10.401-30.024 35.14-23.489 20.391-.74709 46.286 4.011 51.158-12.255 19.384-7.7407 26.936-3.2267 17.362 16.117-8.0277 9.0861-15.68 21.888-17.362 37.277-8.0642 7.4684-10.673 42.55 0 49.532 2.2107 9.7108 4.2548 46.131 11.234 35.014 4.894-12.116 14.445-22.528 23.489-31.217 9.7365-7.2375 18.287-16.572 22.979-30.638 14.261-5.7976 14.762-22.857 26.553-30.128 13.773-6.1418 2.3419-37.488 13.787-45.957-1.1808-19.83 9.9082-27.39 12.255-43.692 7.8231-10.294 15.87-20.364 23.489-30.861 11.086-3.5547 37.515-9.6858 32.17 5.1064-11.783 23.88 17.884-2.0365 37.147 6.1277 11.625 12.57.73242 27.04-8.5514 34.723-6.5252 11.644-9.6793 26.66-13.787 40.722-12.965 7.6907-14.101 24.09-24.511 32.587-2.9649 12.838-10.569 26.134-17.362 35.968-6.4401 10.254-11.192 21.76-13.277 37.624-12.21 3.9865-9.9997 20.97-20.936 27.227-6.9105 12.534-13.617 23.622-16.851 37.564-12.083 6.1041-6.4688 29.161-17.564 36.734-5.8221 15.861-1.251 11.751-16.138 26.905 4.1205 22.204-15.038 21.678-18.383 37.891.90727 22.724-16.119 27.514-11.234 54.215-2.7811 22.26 11.378 27.579 16.34 42.095 18.125.8644 24.247 13.732 47.777 9.1915 17.741-1.3974 32.765-5.5116 34.946-22.468 6.8227-10.156 19.114-17.747 21.447-32.526 5.8406-12.69 14.897-22.164 18.383-37.209 6.8952-15.324 20.55 25.149 31.149.2877 4.6481-11.996 13.056-23.461 19.915-33.702 16.293-3.1057 22.547-15.38 29.617-26.33-.27116-15.329 2.986-30.666 12.255-36.989-.34059-16.829 10.746-22.23 14.741-34.723 9.8587-9.6495 10.141-25.796 18.961-34.723 14.703-10.364 33.326-1.8391 50.33 0 22.505-5.8326-4.9522-21.998-3.4582-33.702-14.658-4.0679-13.164-23.703-22.477-33.473-4.9686-13.555-14.042-23.62-13.161-41.08-16.378-2.4476-21.307-17.514-12.255-32.458 9.2617-15.969 17.375-13.805 29.475-1.2443 6.4101 15.656 28.445 12.463 40.993 20.202v88.053c-11.803 10.767-1.8361 43.208-5.1154 62.398-4.079 17.334 8.5315 51.339-6.1186 58.113 13.148 13.385-6.0302 25.84 0 50.172 28.326.286 9.1588 8.2199 0 19.275 2.3868 28.565 15.2 10.912 0 34.054-4.9698 22.149 9.0959 37.384 0 45.605-3.2653 3.3164 3.4506 37.849 0 32.681 12.329-.02 32.304 21.279 12.255 8.1702-25.246-2.5953-8.985 31.842 10.807 22.468-9.1805 5.7398-26.214 15.295.28455 18.383 9.9313 12.811 29.831 11.851 51.335 11.234 2.3269-1.3539 10.491 3.0558 8.0414-3.0638zm-7.1489-29.106c-17.22-2.5936-34.15-4.9585-51.574-8.1702 10.297-20.003 27.692 7.5356 47.266.5107 18.907-2.9616 42.274 14.448 8.9104 10.213-.58615-1.799-7.3024 2.5321-4.6022-2.5532zm7.1489-22.979c12.569-9.857 14.746 8.967 0 0zm-59.234-11.234c15.747-14.984 16.653 13.889 0 0zm-11.234-5.9941c17.585-16.146 11.697 13.488 0 0zm70.468-.6442c-12.673-5.199-33.739-2.0058-40.851-12.766 16.75 1.5591 33.029 3.5885 44.713 10.213 44.119-3.975 16.29 12.336-3.8621 2.5532zm-59.234-16.851c-22.182-13.116 1.5882-4.2912 18.383-3.0638 5.7251 8.8467-19.931 8.3673-18.383 3.0638zm319.66-1.0213c19.136-14.254 26.263 12.687 0 0zm-260.43-5.1064c-27.512-4.6941-8.4709-10.396 7.7241-3.0638 38.059-4.1154 7.4217 14.946-7.7241 3.0638zm283.91-1.0212c16.236-14.035 41.564 12.765 0 0zm-633.19-8.3722c-21.716-16.289 4.3655 1.7003 11.369-11.032 11.571 12.775 3.6781 17.332-11.369 11.032zm313.53-1.33c-22.433-13.528 1.5274-4.3998 18.383-2.5532 4.7067 7.7439-19.423 6.8048-18.383 2.5532zm289.73 1.8992c10.875-6.7019 27.783-11.889 46.271-12.623-4.3364 11.042-29.98 14.169-46.271 12.623zm-626.75-7.0056c-20.599-3.4093 3.6454-23.225 6.1277-1.9747 4.6877 6.2365-9.1867 8.8648-6.1277 1.9747zm308.43-6.6382c13.325-9.7925 16.509 8.983 0 0zm365.62-1.532c11.328-6.8845 27.925-8.5003 34.723-19.915 21.875 6.1611 1.2874 19.704-16.405 17.362 3.248 6.7093-18.38 7.5554-18.318 2.5532zm-330.89-9.7021c19.163-14.278 23.802 12.768 0 0zm-17.362-6.1277c19.163-14.279 23.802 12.768 0 0zm-11.529-3.6988c-19.768-12.094-4.6093-9.5825 11.671-4.4714 1.5594 7.2554-7.887 5-11.671 4.4714zm46.252-7.5352c19.136-14.254 26.263 12.687 0 0zm249.19.047c13.375-11.066 48.26 3.9869 9.1915.9746 2.2342 2.8839-12.896 4.1173-9.1915-.9746zm-266.55-5.6637c4.785-10.756 44.426 9.7578 0 0zm-17.362-6.1277c-26.651-5.6137-9.2741-10.714 7.7241-3.5744 27.524-1.412-7.6211 16.22-7.7241 3.5744zm348.26-1.0213c20.884-16.799 24.468 15.276 0 0zm-377.87-10.213c14.892-12.292 17.491 11.38 0 0zm64.34 0c14.892-12.292 17.491 11.38 0 0zm296.17-6.6383c16.236-14.035 41.563 12.765 0 0zm-70.468-34.213c-10.111-32.676 22.129-24.679 5.1064-8.189-.0727 14.919 54.576-2.1878 44.28 10.742-16.995 3.6304-53.491-11.607-43.769 17.872 40.278-3.6472 11.056 12.801-5.617.7337v-21.159zm46.979 17.872c10.952-10.244 47.238 1.9019 11.745 3.0492-3.024-1.5792-13.874 3.4545-11.745-3.0492zm-504.51-11.745c4.345-34.246 5.2605 32.967 0 0zm539.23 5.1064c14.857-11.708 30.721 10.606 0 0zm-528-8.1703c3.5768-23.234 20.087-11.29 5.1064 2.5532 1.6438 6.0524-9.0881 3.9069-5.1064-2.5532zm-58.553-16.511c-4.6303-25.736 25.22-1.9565 0 0zm58.553-5.9574c3.5328-20.06 8.4197 17.892 0 1.7549zm463.66-3.5745c15.656-10.954 20.913-3.9049 42.701-2.0803 19.979 5.3663-42.945 5.8985-42.701 2.0803zm-545.36-10.213c-13.536.3721-37.561-17.132-6.1277-14.298 8.5382 2.4158 28.933 21.34 6.1277 14.298zm17.362-11.745c27.357-9.6877 38.527 7.4744 0 2.5532zm34.723-3.0638c13.648-19.888 10.878 14.248 0 1.7549zm465.5-.7659c-3.4472-15.817-25.037-13.746-32.99-23.234-19.029 10.65-3.3062-13.85 15.096 0 11.388 5.5459 22.992 13.534 36.734 17.576 24.976 14.788-25.085-9.3342-13.532 11.02-5.2923.5933-5.8798.3479-5.3083-5.3617zm-447.12-6.76c14.59-11.868 14.233 7.1506 0 0zm51.064-4.7294c4.375-20.513 10.059 18.394 0 1.7549zm-86.809-10.213c3.5329-20.06 8.4197 17.892 0 1.7549zm422.81-4.014c-14.281-18.854 31.601-2.2416 0 2.4821zm46.979-20.497c4.375-20.513 10.059 18.394 0 1.7549zm-422.81-4.0851c8.5205-15.745 23.482 18.323 0 1.7549zm184.85-15.83c-2.2929-21.816 7.2026-31.843 26.909-31.66 20.225 5.1026-30.456 5.6015-20.781 26.107 3.9356 20.095-6.9448 45.805-6.1277 5.5525zm39.83 3.5745c-2.6245-43.677 20.329 16.251 0 16.851v-16.851zm181.45 16.17c-.2903-11.154-40.439-9.811-24.17-16.681 10.584-2.499-17.778-17.236 11.234-8.7455 2.5137 2.7591 31.832 24.319 12.936 25.426zm-191.66-19.674c4.1678-28.578 6.8085 26.951 0 .5172zm-203.23.9503c12.163-12.106 35.826-5.4506 9.6376 3.0638-2.7771-1.2462-11.83 3.0834-9.6376-3.0638zm29.277 1.3617c-8.6348-16.573-1.5175-15.511 17.702-15.66-2.7272 6.1817-11.5 14.697-17.702 15.66zm278.13-8c14.344-12.433 15.509 11.442 0 0zm-348.26-8.1702c-10.101-6.9307-1.6514-38.459 5.1064-30.351-7.426 15.436-2.6838 35.406 13.277 19.627-1.121-11.9 48.108-14.222 25.021-6.1277-16.539 1.5119-18.272 19.092-38.298 18.383 2.2451 6.9596-8.9001 5.6803-5.1064-1.5319zm441.19-9.1915c14.859-11.708 30.719 10.606 0 0zm-40.667-10.979c28.573-8.6417 36.82 6.8896-.32635 2.2979zm-266.1-6.0283c-10.844-12.758-56.559 12.639-52.718-14.142 9.6191-8.563 15.738-21.339 17.419-39.124 8.4301-2.1601 16.187-40.836 17.304-11.94 6.1806 11.99 13.784 22.017 17.362 37.054 1.0412 8.3707 24.712 32.661 1.2766 31.372zm-116.04-21.801c20.574-16.874 22.373 15.34 0 0zm-157.28-9.1915c3.5329-20.06 8.4197 17.892 0 1.7549zm10.623-24.403c-.0174-22.869 23.271-12.586 6.7384 1.4245-1.6853-1.2908-6.6882 2.245-6.7384-1.4245zm324.36-31.256c15.631-9.1913-15.943-13.287-27.681-14.298 2.4992-25.244 23.756 1.0909 40.735-6.1277 19.224-1.2101 28.728-8.5286 45.159 0 12.032-14.359 35.816 1.233 51.639 0 16.74-16.288 12.672 12.819-9.7667 6.2103-15.216 5.959-29.268 13.082-51.351 12.173-17.902-2.0246-31.827 9.9212-48.734 2.0426zm-393.19-13.277c17.739-20.397 17.308 15.875 0 1.2443zm75.574-2.4854c-23.144-12.527 22.618-8.597 0 2.621zm23.489-14.876c-13.751-6.5682 8.7136-27.053 17.171-20.17-8.9738-.40377-12.514 39.674-17.171 20.17zm-53.106-3.0638c15.747-14.984 16.653 13.889 0 0zm302.3-2.5532c3.2411-24.396 7.6466 24.931 0 0zm208.34-1.0213c5.2609-16.443 13.791-35.974 12.255-.6691-8.4907-6.3372-9.2776 19.301-12.255.6691zm-528-2.0426c14.344-12.433 15.509 11.442 0 0zm499.4-3.5745c3.7007-18.609 8.1653 17.197 0 1.2443zm-193.02-1.5319c16.536-19.714-8.1527-6.8014-5.1064-7.4365-3.4484-32.099 36.385 2.1503 11.234 9.9897-1.2566-1.637-8.5119 2.7246-6.1277-2.5532zm-22.468-9.7021c3.2813-27.065 10.46 27.519 0 0zm105.87 5.4468c-1.3479-20.716 41.558 6.7391 0 0zm45.277-9.5319c16.236-14.035 41.563 12.765 0 0zm-111.32-7.6596c-16.2-20.062 37.832-10.554 7.1489-2.0426 43.176 2.7326 8.5333 16.312-7.1489 2.0426zm175.66-1.0213c13.29-27.373 17.488 26.03 0 0zm-221.62-4.0851c5.6065-27.651 8.6909 27.767 0 0zm93.617 4.9362c4.3241-19.28 43.172 5.4192 4.0205.68085h-3.3397zm58.553-2.8936c19.539-16.585 38.567 14.71 0 0zm93.617 2.8936c-6.8572-27.745 15.297.40875 0 0zm-169.97-42.979c-9.1723-32.73 11.422-35.437 38.697-31.404 22.249 1.0836 11.792 33.445 14.169 53.523-4.7326 23.419-3.4398-26.856-28.86-8.3184-16.476-.64427-22.334 39.066-24.11-1.7059.0347-4.0315.0693-8.0631.10401-12.095zm36.809 8.2643c24.331-5.6964 5.4976-40.769-19.784-27.876-10.889 3.6599-17.467 29.638 1.8826 28.543 5.9877.20778 11.935-.21627 17.901-.66683zm27.291-9.5409c-4.4938-25.015 2.8468-38.196 24.798-36.766 20.822-14.741 5.1198 4.8598 18.606 12.255 3.3334 9.3877 10.768 52.692-3.5745 56.17-4.6681-18.712 13.521-61.386-18.861-51.684-16.393-4.744-26.629 34.042-3.6074 29.216 35.334 6.4251-26.755-2.9459-12.313 21.762-10.444 5.4011-2.5714-25.141-5.0486-30.953zm69.447 29.106c14.103-21.144 19.662 13.27 0 0zm40.851-11.234c5.3778-34.37 7.1293 33.153 0 0zm-244.09-1.5319c-5.9812-13.179-9.1952-29.124-12.255-45.224-5.9323-16.788-7.2782-31.111 6.1277-11.968-1.9206 21.162 4.3319 36.904 11.234 49.82 2.481 7.1341-3.0467 23.954-5.1064 7.372zm39.83-2.5532c-6.9278-10.833 2.6286-49.05-16.851-31.66-.70325 45.016-9.1046 2.6823-5.617-19.31 10.635-8.9697 40.635 2.0367 22.468 14.269-4.5841 29.785 19.275 7.6907 13.274-10.82 9.3012-1.0453-9.3231 53.937-1.0182 49.054-5.84-1.9648-12.169 21.636-12.256-1.5319zm152.17-21.447c-10.05-32.998 14.676-31.219 39.736-29.106-.58098 13.106 6.9966 44.19-5.0122 51.064 3.7732-15.251-2.5068-68.732-11.234-34.371-3.0511 50.884-5.5821-29.517-12.255-4.4373-14.827 12.936 5.4206 31.482-5.1064 43.692-11.181 11.742-4.1814-21.286-6.1279-26.841zm-220.6 12.766c3.7007-18.609 8.1653 17.197 0 1.2443zm-6.1277-14.298c5.2329-33.744 6.5128 32.502 0 0zm-23.489-12.255c.7368-19.037-13.004-26.933-15.319-42.894-7.1648-29.856-11.093 14.246-2.8619 22.723 15.643 20.946-8.6609 20.836-4.2871-4.9156-12.876-7.6863 5.9814-63.183 0-54.128v-85.212c-9.4708-9.6414-7.7648-29.839-17.477-39.6-3.9612-16.731-14.829-25.462-13.228-47.208-22.013.54106 3.8455-37.481.0669-32.17 15.013-2.4184 36.307-14.671 9.6376-19.915-22.183-.32944 8.5272-18.85 5.6816-29.617 9.8105-7.2627 13.729-20.957 19.404-33.773 4.5386-16.227 16.195-25.364 12.958-48.758-4.5866-26.348 21.271 24.93 28.914-4.2773 7.296 11.518 15.976 20.897 32.708 24.507 6.7845 4.6667 20.405 28.01 24.484 16.854 3.2175-14.079 19.361 24.215 3.5745 21.957-6.9034 11.692-24.212 16.951-41.362 18.383-14.665 5.6331-18.426 14.595-24.894 26.681-4.3432 16.459-17.463 24.01-12.894 47.872-14.423 7.9703 3.477 48.264-8.9684 58.213-14.45-.43198 6.8998 54.249-2.3451 51.064-1.5299 20.669 11.936 26.354 17.441 38.809-16.761 13.667 3.3365 33.021.29116 52.628 1.2265 21.801 11.928 33.362 11.964 55.354 1.46 7.6041-30.038 40.938-23.489 7.4229zm297.19 2.0426c6.5024-7.512 6.529-57.349 11.222-17.074 2.8299 16.953 8.6448 33.553-11.222 17.074zm-238.98-7.6596c5.3778-34.37 7.1293 33.153 0 0zm99.064-11.745c13.325-9.7924 16.508 8.9832 0 0zm163.4-1.5319c-9.2589-41.295 14.423 16.272 0 0zm-193.02-3.5745c-12.762-10.888-3.1509-44.149-6.1277-64.822 9.327-17.973 37.87-12.891 29.617-11.263 25.922 4.4831 27.197 9.978-5.9692 8.6808-19.629 1.4244-8.3927 33.714-11.393 51.768-27.237 10.78 35.229 16.608-1.3089 18.7-1.0846-1.543-7.8424 2.5873-4.8188-3.0638zm-39.83-6.1277c14.998-15.578 12.511 14.245 0 0zm138.89-29.617c5.6512-24.354-17.7-44.618 17.362-37.787-2.5681 19.485 5.6146 49.721-5.1064 61.054-9.6759 28.877-15.745-10.262-12.255-23.266zm46.979 22.468c15.11-24.93 16.758 15.731 0 0zm-203.23-7.0842c-11.954-11.931-4.6897-41.316-6.6383-62.333 30.468-6.1295 26.626-4.4762 16.851 18.483 1.2119 38.26-5.5332 18.641-7.6596-3.193-6.4439 14.866-1.81 39.476 2.5532 52.085-4.8102.0496-6.4944 1.3261-5.1064-5.0417zm116.43-8.7456c-5.5765-18.603-2.4018-23.326 2.5532-43.404 13.688 6.0857-2.8936 24.42 2.5532 45.288 3.2047 19.548-8.5587 13.884-5.1064-1.8841zm69.447-15.83c-3.7382-25.717 2.373-41.585 30.192-35.745 21.899-15.983 22.397 6.839 20.919 30.638-3.7073 8.8624-19.275 38.885-10.827 12.481 3.9141-23.268-7.238-55.951-6.9552-14.205-10.1 25.34 2.9731-38.056-18.01-21.826 1.2857 9.8518-15.329 17.774-10.213 36.826 1.3859 40.004-8.4754 15.54-5.1064-8.1701zm68.426 19.915c8.19-14.172 6.1956-38.529 6.1277-60.96 10.697-15.888 4.5467 37.164 6.1277 50.207-10.47-5.2481-3.4234 40.984-12.255 10.753zm-272.68-15.762c-.91193-10.012-14.873-51.632 0-45.227 3.5054 17.337 8.6348 32.552 5.6634 56.043-2.4303 14.852-8.5351-4.9966-5.6634-10.816zm-17.362 5.0386c-12.265-8.6844 6.4758-27.214 0-48.352 5.187-33.11 7.9017 22.866 6.1277 35.205-.31656 5.6641 2.5984 25.813-6.1277 13.147zm-98.043-8.1702c3.7007-18.609 8.1653 17.197 0 1.2443zm376.85-21.957c-6.8098-25.568 15.438-44.873 10.213-8.6808-8.4658 6.2911-5.9591 59.967-10.213 15.413v-3.8621zm-290.04-6.6383c-1.9524-41.046 8.8812-11.883 5.1064 11.586-.17231 30.165-8.4488-.25489-5.1064-11.586zm-111.52-6.8936c-16.018-17.66 13.1-22.97 12.46-2.23 6.7803 11.398-16.238 11.693-12.46 2.23zm181.99 2.8085c19.163-14.279 23.802 12.768 0 0zm103.15-11.234c17.705-.67466 38.445-1.3144 30.639-28.311.67854-22.661-41.026 1.5395-43.915-15.604-10.238-18.126.15335-41.895 26.236-33.702 37.943-3.6879 26.361 10.495-4.1203 6.1277-18.128-6.4452-22.705 37.525 1.5026 27.57 27.466-.91725 55.403 1.7472 82.594-1.2549 13.393-12.684 30.392 3.3484 17.362 16.356-9.4327 8.6842-19.551 16.683-29.617 24.734-30.657-3.9762 1.8294-10.069 9.1915-17.362-2.0186-19.061-24.7-17.164-47.618-16.34-26.916 4.0361 20.14 42.173-11.885 39.83-8.8747-1.5773-25.281 3.1233-30.369-2.0425zm-126.64-5.617c-13.584-7.4655-33.104-10.298-12.255-20.426-2.2517-18.983-40.709-2.9604-29.438-35.777-2.3596-21.057 10.935-25.503 17.694-38.777 17.128-3.215 64.075 3.9296 22.759 5.617-16.926 2.7453-33.293 6.05-28.376 30.638-10.163 33.707 30.822 16.266 50.207 20.426h77.453c5.6723-24.566-9.1066-28.681-29.106-27.574-42.344-2.2891 11.361-9.4712 27.991-6.1277 16.246 8.0418 2.8916 45.684 7.2428 65.62-9.5528 4.6149-.51301-42.554-35.076-25.79-8.9618 15.337-9.8121 46.894-11.901 2.9692-10.287-1.276-55.116-13.5-52.597 8.7755-23.464 6.5776-12.419 12.402 4.0851 17.872 26.688-.91286-7.1223 11.592-8.6809 2.5532zm243.06-18.33c13.457-25.387 16.913 13.095 0 0zm-412.6-4.6491c15.637-27.188 14.191 15.752 0 0zm45.957-9.1915c5.0161-22.446 12.002 19.604 0 2.2656zm48-14.809c5.3778-34.37 7.1293 33.153 0 0zm17.362-3.0638c2.4646-38.639 9.5421 33.123 0 4.0205v-3.8621zm-65.362-10.723c-16.773.0938-7.3866-41.039 0-14.298 1.577 7.8965 13.214 25.867 0 14.298zm412.6-1.0213c14.113-24.06 19.219 22.446 0 0zm-34.723-6.1277c-5.142-14.018-14.981-23.338-36.032-21.447-20.974-1.6654-24.356 14.26-40.563 17.362 5.9794-13.661 18.89-19.149 32.681-23.489 13.365-7.3006 26.974-5.4894 37.935 6.2545 15.369-7.7946 15.638 41.492 5.9798 21.32zm-307.4-44.936c-2.4185-43.588 17.684 14.866 0 17.362v-17.362zm151.14-.25532c-4.2251-19.795 4.1458-52.802 5.2308-15.574 3.9387 17.405-4.6572 51.874-5.2308 15.574zm57.992 3.0638c10.312-27.126-48.471-4.7158-26.581-31.214 5.8876 28.844 24.55-9.0296 8.4255-17.552 9.9201-34.822 37.02 62.922 22.468 21.224.84884 9.7704-.23862 68.474-4.3124 27.542zm-138.67 5.3617c-22.755-5.4355-25.196.8129-17.282-25.532-23.963 8.8875 1.8731-20.51-.0795-19.915 9.0465-11.23 28.667-11.886 47.043-13.787 9.5308 10.041 4.6873 38.625-7.0229 42.638-26.987 4.6518-23.522 9.8584-5.297 19.66-3.9583-2.2994-18.88 4.4032-17.362-3.0638zm92.587-9.9574c.99343-14.063-5.7335-59.743 4.4343-52.563.42768 22.115-1.397 46.482 2.0426 65.585-10.399 2.8936-4.4529-7.3404-6.4768-13.021zm80.196 10.213c25.453-16.42-9.1523-8.353-17.12-19.66-3.6415-11.956-7.5874-19.643-.42944-32.458 3.4918-15.924 50.455 5.8052 40.851 3.8621-7.4704 22.261 6.538 48.701 8.3932 44.936-17.229-6.5654-23.552 12.062-31.695 3.3192zm-219.76-10.979c-19.125-5.5049 9.203-44.806 5.1064-11.745.39091 4.8184 1.112 22.238-5.1064 11.745zm255.32-3.5745c3.2812-27.065 10.46 27.519 0 0zm28.391.25532c-8.1715-7.7687-27.715 1.3872-11.03-19.66 4.0724-7.3952 29.899 20.071 11.336 25.532l-.20116-3.8568zm12.46-5.4573c4.8065-44.255 5.0862 41.583 0 0zm-208.68 5.5424c-4.9013-21.651 4.4321-33.032 10.553-45.277 23.048-14.379 12.064-.38845 6.4424 17.202 4.0342 25.381-6.6708 20.467-16.996 28.075zm39.149-39.66c4.375-20.514 10.059 18.394 0 1.755zm-126.64-9.1915c1.9551-9.1844 13.559-41.123 17.285-23.426 4.609 36.322-9.85 12.978-14.731 32.107-5.5457 2.1212-1.276-6.4651-2.5532-8.6808zm29.617-4.9643c1.6659-17.71 8.6171-30.511 25.086-32.312 11.213-2.114 22.558 32.789 4.7542 28.596-12.021 13.351-25.277-8.1288-29.84 12.397v-8.6808zm196.09 4.9643c-15.422-3.1307-26.853-10.253-35.745-19.915-12.379-27.234 26.151-29.574 33.479-17.362 20.855-12.077 24.69 35.202 13.364 17.362-20.795 7.3614 27.414 26.896-10.142 23.489h-.95671zm-23.489-25.532c-3.5329-20.06-8.4197 17.892 0 1.755zm53.834 28.473c-3.3276-17.755-2.4714-45.109 16.634-30.005-10.153 16.33-6.3305 23.04-15.126 30.682l-.7799.0509zm16.634-5.4939c3.2813-27.065 10.46 27.519 0 0zm-175-9.9574c-4.7975-21.595 10.754-28.705 21.719-37.021 20.618-3.5312 11.609-11.967 35.838-5.1064 12.305 6.8651 26.627 11.714 24.511 33.001-7.1715 17.399-36.689 4.5609-12.255-6.0016 4.6246-20.809-29.576-18.224-40.851-12.701-12.151 6.2828 1.6122 38.481-23.643 31.66-1.7984-1.2658-7.8914 2.59-5.3183-3.8298zm17.727-13.021c-7.039-18.353-17.561 19.383 0 1.755zm-121.33 5.4344c5.7939-26.944 8.2291 27.218 0 0zm86.604 3.2464c27.603-14.303-25.507-23.49-3.002-26.246 21.89-14.017 18.761 47.118 3.002 26.246zm52.085-6.1277c15.353-15.249 14.577 14.04 0 0zm-98.043-22.979c1.6696-15.582 26.289-11.621 28.596-27.064 17.805-1.1852 30.873-9.2984 49.309-10.213 14.702-7.7572 38.401-5.8878 59.968-6.1627 8.6422 10.093 30.177 7.2933 41.872 14.333 8.161 2.8917 32.111 28.771.89216 25.532-36.375 2.596-.83251-11.374-12.957-20.17-22.892-23.726-21.184 31.329-35.425 9.4468-.007-18.536-20.634-15.492-31.947-22.979-18.239-.12161-27.21 9.024-25.755 28.596-39.387 6.6473 15.555-17.692-17.714-18.383-11.355-1.0956-37.071 14.823-19.563 18.383 18.618 5.426-38.017 22.017-31.983 14.553-1.8384 8.4846-8.0861-.35651-5.2939-5.8721zm-128.68-25.532c5.2485-20.959 11.683 18.885 0 1.755zm-17.362-17.872c7.4616-45.73 10.913 44.89 0 0zm24.511 5.5492c5.9921-23.725 8.805 25.213 0 0zm-46.979-14.23c4.345-34.246 5.2605 32.967 0 0zm-11.234-22.979c4.2707-46.008 7.6142 42.419 0 2.7117zm69.106 8.5106c-5.6822-8.4678-4.7023-51.406-.68085-21.5 1.4551 2.0975 17.856 23.908.68085 21.5zm105.11-5.3984c-14.564-17.184-.89957-22.55 3.9985-1.8034 2.801 7.2555-4.9833 12.915-3.9985 1.8034zm-186.47-13.836c-9.1882-22.556.39385-20.8 6.1276-.95671 4.703 12.46-9.7416 14.154-6.1276.95671zm-146.04-8.6808c11.473-14.715 23.564 17.65 0 1.2443zm186.89-58.213c-14.59-3.6739-24.87-22.909 0-13.277 17.373 3.6965 7.1653 28.202 0 13.277zm-163.4-2.5532c-17.876-18.499 10.797-11.5 12.255 3.5745-3.3137-1.6488-14.834 3.718-12.255-3.5745zm82.723-83.234c3.6702-25.767 6.7457 25.926 0 0zm10.213 0c4.2279-21.706 11.274 18.634 0 2.395zm487.15-73.021c14.892-12.292 17.491 11.38 0 0zm-184.85-29.106c10.824-2.5496 53.75-9.9865 57.191 3.0638-17.435-2.2512-45.036 4.2985-57.191-3.0638zm209.36 1238.8c2.0537-13.784-26.855-26.472-10.077-31.66-10.111-9.0733-8.3643-26.503-20.561-31.66-9.0016-10.904-17.732-22.382-26.553-32.235-3.7853-14.197-12.032-23.932-20.818-33.127-6.3184-13.596-13.97-22.58-25.96-28.596-4.4916-24.213-28.863-5.5741-13.978 10.213 8.4752 11.893 13.97 22.226 25.523 30.128 1.7444 17.847 15.839 20.03 18.383 37.277 3.5636 14.706 17.326 27.586 6.6383 37.787 13.639 4.6126 18.425 18.131 31.431 22.567 14.419 4.6023 28.707 6.9571 25.76 27.475 7.6125-.2221 12.744 2.7539 10.213-8.1702zm-40.231-26.126c-6.6007-10.711-17.669-29.288.91201-15.746 17.513.8525 9.5252 18.276-.91201 15.746zm-23.088-45.363c4.1794-21.986 10.34 19.094 0 2.2656zm-65.617-98.686c9.3885-10.321-22.16-.3342-2.2979.6157zm336.32-134.2c4.0219-19.079 8.4201-32.283 14.898-48.985-8.8668-12.484-6.983-35.718-12.923-51.128-9.7813-8.183-7.8019-29.025-22.723-30.367-16.886 20.305-9.3751-27.344-23.928-13.2-4.3635 22.348-4.5943-22.687-17.178-21.219-6.7097-31.873 35.495 25.389 22.979 9.1915 9.4087 10.256 26.428 12.892 36.766 20.936 8.0124 9.8321 29.588 6.2432 38.721 16.34 13.318 4.0724 24.526 10.256 30.726 21.447 22.083-7.967-.984-18.559 5.1064-41.122-8.7588-8.853-5.7461-29.478-23.489-29.346-4.3386-11.321-13.664-17.656-23.489-23.489-9.2856-6.971-47.06-32.039-27.575-20.426-4.3992-15.01-30.898-7.946-40.883-17.347-16.998 5.3205-26.303 10.343-36.734-5.1206-17.297-2.0761-26.702-12.044-47.906-10.213-19.526.93104-44.702-3.7888-51.158 10.213-19.368-6.5239-26.906 32.423-.09 22.468 15.981-2.5671 36.259 25.706 23.579-.13567 5.716-25.848 38.75 4.6689 35.557 3.4548 10.253 11.231 15.537 25.128 17.549 42.638 3.993 16.357 12.91 27.79 11.234 49.816 11.217 8.4912 6.752 30.525 23.489 31.886 1.6942 16.348 17.06 19.025 25.532 28.596 5.274 12.493 16.246 21.816 20.426 34.723 6.0241 7.3604 6.8467 23.692 21.514 20.389zm-31.727-89.836c3.6702-25.767 6.7457 25.926 0 0zm-7.1489-25.532c-22.319-21.331 21.592-8.7088 0 3.0638zm54.128-46.468c5.3778-34.371 7.1293 33.153 0 0zm-48-34.213c-1.6428-9.366-34.227-16.631-17.872-25.532 12.096 6.6275 20.665 16.782 36.255 19.915 22.594 15.616-20.49 2.443-18.383 5.617zm-75.574-17.872c-20.558-16.818 30.069 1.3058 0 2.5532zm-17.362-11.234c-20.185-19.667 30.105 2.1409 0 3.5745zm-643.4-10.213c14.1-4.1123 29.641-6.7846 33.702-20.936 13.882-11.083 3.4944-34.064 17.362-20.426 14.898-3.677 10.421-26.729 17.362-38.362.97868-21.303-6.4091-32.041-11.239-49.22-10.841-8.1105-16.762-20.075-29.612-25.779-5.5339-13.839-25.052-13.694-41.778-16.34-23.837-3.282-35.442 4.012-50.392 11.03-10.5 6.5127-16.524 16.373-25.738 22.672-6.3185 14.116-12.733 27.613-16.024 45.16.004 22.583.62324 42.424 13.422 52.887.0325 17.427 21.027 15.475 22.468 30.532 19.219 3.4392 31.768 11.156 52.596 11.336 4.4205-1.8258 18.039 3.5896 17.872-2.5532zm-29.617-40.851c15.103-11.553 43.154 10.776 0 0zm53.106-2.5532c6.9139-2.0894 3.2443-1.4779 0 0zm-23.489-2.5532c14.859-11.708 30.719 10.606 0 0zm-75.574-20.426c3.5329-20.06 8.4197 17.892 0 1.755zm57.191-26.043c14.654-9.2644 34.338 7.664 0 0zm45.957-3.0638c4.5824-19.046 9.7627 17.679 0 1.2443zm-57.191-15.319c15.353-15.249 14.577 14.04 0 0zm-35.745-5.617c17.247-23.685 18.085 13.362 0 0zm99.064-14.873c6.8206-26.823 10.035 28.268 0 0zm-57.191-13.723c-.70465-19.472 38.772 4.7445 11.745 2.5532-2.5018-2.0372-13.832 3.8433-11.745-2.5532zm-18.383-8.6808c4.1793-21.987 10.34 19.094 0 2.2656zm837.45 146.55c11.774-6.7791 26.244-10.863 35.745-19.915-21.146-4.9543-26.706 4.9041-32.936-12.068-6.4809 26.677-6.5275-10.214-30.958-.18748-6.2374 17.6-49.04-2.9631-19.498-5.1064 20.369-4.2007 12.481-14.393 31.371-.41003 22.256-4.1006 53.258 10.884 44.872 4.2721 6.2039 24.951 18.055 4.3428 23.489-4.8834 6.2329-14.914 7.7443-35.111 5.5024-57.598 1.1979-20.046-6.6745-33.307-17.679-40.444-10.574-10.591-15.82-23.531-33.963-25.277-15.828-6.5748-31.221-11.929-53.94-9.4468-10.954 7.695-27.719 9.5789-34.723 21.224-10.337 15.082-6.2926 12.16-18.383 24.734-13.527 5.0486-5.8206 31.49-16.34 40.764 8.1212 11.15 4.8692 32.208 12.255 45.767 25.426-4.7705 14.29 2.6527 38.075 6.4053 33.369 20.745-18.103 6.1029-15.607 12.191 7.0626 12.313 20.48 16.898 34.723 20.49 9.5239 2.542 39.526 4.3955 47.995-.51064zm11.418-63.064c16.153-12.184 13.358 10.835 0 0zm-16.865-25.957c.1966-21.767 23.862-1.9881.6809.68085zm-42.755-24.085c-3.5052-7.5157-35.198-3.4879-27.557-3.0638-23.952-.16353-7.6158-30.041 4.2694-15.064 7.392-2.8427 10.571 5.9864 27.794 6.1277 11.824-13.467 9.306 19.875 19.184-6.1277 20.959 9.5351 5.7889 16.841-15.965 17.362 3.2286 7.8803-10.18 9.8273-7.7259.76596zm42.074-6.383c4.8504-20.912 13.657-7.8346 20.936-21.957 6.4314 5.6187 26.502-1.2093 13.787 16.476-12.719-11.458-19.282 9.772-28.596 3.7264 4.7012 8.7604-9.2435 11.502-6.1276 1.755zm-41.872-30.638c7.0909-26.824 17.736 31.036 0 .95671zm-171.7 147.96c12.767-7.2218 12.599-24.903 26.545-30 4.4334-14.927 14.375-21.098 20.615-33.702 8.2305-9.7943 14.609-21.441 25.479-28.596 5.3662-13.55 20.528-16.391 22.858-33.73 13.864-5.5559 8.1356-28.27 17.944-36.738-.5581-20.762-.31021-42.369 12.304-49.82-8.3105-19.315 23.555-36.235 3.5099-42.095-23.592-4.3798-30.784 7.6408-44.361 13.277-10.633 6.3964-15.187 27.558-29.617 15.319.43572-22.818-9.4506-33.606 0-52.437 2.8193-23.787-7.1962-30.163 0-45.605 10.598-9.2908 6.7713-30.934 16.118-39.83 12.198-7.1769 12.653-22.938 24.223-29.617 10.643-7.8362 7.9132-29.044 16.851-38.585-8.0292-18.514 20.787-32.901 5.617-41.585.77439-12.368 17.092-39.248-10.245-35.233-5.9882 10.905-17.254 18.612-23.457 30.126-2.9292 17.051-17.69 20.234-24 32.968-6.4574 5.9764-5.8727 37.606-12.255 12.358 1.2145-20.912-1.8011-37.153-11.234-48.969-17.993-16.473 10.647-13.362 11.745 3.6423 22.755 4.8209 22.71-14.467 35.234-20.713 12.233-18.321-.4638-31.032 0-53.905-10.069-23.578-9.6808 6.3534-27.351-6.5737-5.4263 5.7982-8.3176 41.527-19.627 22.911-22.262-10.415 18.803 24.919-3.8621 17.94-1.5569 17.131-19.57 22.286-19.627 0-26.6-5.2112-8.2904 10.847-10.213 25.241-16.653-2.6172-19.708 40.215-23.489 23.27-1.3475-8.1863-14.201.37465-22.468 5.1064-18.942 1.3633-5.8026 28.958-29.617 15.83 10.964 19.698-4.4429 15.426-14.233 27.574-10.411 10.094-14.179 24.27-21.512 35.745 17.35.0971 16.876-21.244 29.617-26.043 11.035-6.625 25.852-10.94 35.745-19.915 2.4571-19.542 23.703-6.3211 39.777-3.2953 1.7256 18.044-1.564 38.686 12.308 43.125.90028 16.997 10.657 27.375 17.743 39.096 7.592 21.169-.47222 27.638-18.254 19.117-20.234 1.9559-10.153 28.233 10.788 20.426 7.2544 10.807 23.862 10.788 24.111 30.045 2.7214 30.045-15.164-13.482-23.154 3.4341 9.6869 11.095-1.0224 26.961-6.1277 42.095-8.8479 13.067-4.0962 40.085-5.5462 60.703-7.9778 15.319-5.5404 39.654-5.6878 61.85 13.969 9.9472 2.2841 45.548 6.1277 65.62-2.3654 10.388-18.589 35.789-17.362 3.8268 7.3097-8.7713 16.75-32.53 8.1702-45.958-7.9338 9.4944-14.072 23.439-15.319 39.83-6.9953 8.7216-15.861 33.088-5.1064 43.692-4.3617 15.268 11.958 8.2422 20.298 8.7762zm20.553-75.447c5.1342-28.938 11.1 29.464 0 0zm7.1489-30.128c-1.5249-41.077 7.0969-11.273 4.0851 11.586.58576 27.858-7.1056-.0268-4.0851-11.586zm45.957-20.426c-20.07-17.864 15.76-10.828 0 3.0638zm-45.957-34.213c4.345-34.246 5.2605 32.967 0 0zm57.191 3.1317c6.7399-20.132 13.656-18.516 5.7037 3.5325-1.425 3.7914-8.9244 3.2564-5.7037-3.5325zm-40.851-14.366c2.8688-21.867 17.556-23.48 6.1277-.95672 4.703 12.46-9.7416 14.154-6.1277.95672zm34.541-9.7021c1.7772-43.473 13.764 29.336 0 0zm-40.669-33.702c-2.4538-40.793 15.099 13.393 0 16.34v-16.34zm-10.213-2.0426c3.3819-45.463 6.0767 41.839 0 2.7117zm16.34-161.36c-4.8869-29.379 8.5766-51.962 6.1277-9.7315 2.2227 14.767-1.6628 70.168-6.1277 31.049v-21.318zm23.489-10.213c-6.1998-22.762 17.344-1.1843 6.1277 1.0213 3.7825 14.971-10.107 13.426-6.1277-1.0213zm-39.83-20.936c3.2411-24.396 7.6466 24.931 0 0zm62.298-15.319c4.345-34.246 5.2605 32.967 0 0zm-75.574-37.277c-16.471-14.945 21.577-17.55 13.274 5.1387-3.0013.40857-17.609 5.1167-13.274-5.1387zm39.83-34.723c6.587-15.697 17.673 18.214 0 1.2443zm-5.9402-25.277c12.394-13.719 35.47-6.2517 10.471 2.8085-2.7183-1.2578-13.074 3.0266-10.471-2.8085zm18.196-17.617c14.998-15.578 12.511 14.245 0 0zm-660.77 351.83c11.414-6.7435 28.469-11.767 23.255-34.979 10.951-30.325-24.351-14.933-23.255-35.777-7.3829-10.493-34.485-9.1461-28.596 11.809-13.583 2.3455 4.0729 30.694-2.4681 26.776 5.1038 15.557-22.513 12.848-15.915-10.213-10.092-8.8157 14.181-37.547 11.112-34.661 13.267-12.885 19.004-2.1901 30.25-10.786 22.568.65805 23.369-16.717 46.975-12.766 11.401-8.9594 21.337-16.71 33.195-23.489 11.938-7.2433 19.164-19.199 23.489-34.054 2.3333-12.437-4.3312-45.099-12.255-28.635 14.698 10.46 1.9128 43.792-2.2979 11.441-7.9368-15.322-12.383-13.466-25.17-16.156-1.8343 24.631-18.195-19.113-13.383 22.468-10.617 8.0323-23.374 13.924-32.458 23.489-22 1.6626-22.982.59641-38.58 4.2901-13.496 3.9439-23.602 9.9102-29.047 20.731-15.311 5.0782-29.111 11.667-26.553 34.614-5.2244 21.69 11.216 23.109 14.553 37.198 5.1119 13.681 13.616 22.665 20.17 34.4 5.8237 13.336 32.841 5.4785 39.607 17.872 2.738-.8528 10.052 2.5866 7.372-3.5745zm-5.1064-16.851c15.353-15.249 14.577 14.04 0 0zm-6.1277-14.942c-10.136-25.24 44.234-2.9252 13.787-.37709-14.348-5.2269-9.1806 29.038-13.787.37709zm16.34-80.037c3.2812-27.065 10.46 27.519 0 0zm812.94 102.13c.7229-2.013-31.536-5.294-5.1063-11.234 15.345 8.8585 21.05 12.63 35.745 0 1.0425-15.693 5.7144-29.532 13.021-40.017 11.948-2.7119 15.327-42.007 3.3192-46.791-8.6008-9.9739-12.08-25.07-33.256-22.468-5.3818-9.7629-26.307-6.0776-30.063-18.383-21.461 1.0354-42.796 1.9447-46.979-14.298-20.489-2.6703 11.295-41.276-7.1489-26.553-10.102-8.8791 4.5619-20.311-20.963-22.874-6.143-11.507 26.361-16.368 27.602-.10513 5.7442 13.637 18.305 20.451 27.862 30.128 12.868-5.5866 26.314-10.703 36.989-17.362-2.6464-15.903 32.98-15.29 16.34-26.043 18.21-.51437 25.505-15.241 23.489-36.1-2.1723-17.401-6.8664-32.28-10.213-48.507-2.4439-15.141-9.8177-25.352-18.383-34.371-8.2147-8.3447-10.174-22.937-22.552-29.617-5.8915-10.781-16.236-19.404-24.682-26.717-9.206-4.7894-22.909-8.3282-28.117-17.198-13.421-2.9938-21.034-11.796-35.968-13.277-20.969.61745-39.63-1.0728-51.862-9.1915-13.088 3.5794-26.256 8.0058-35.968 17.497-14.388 12.951.47044 29.119 0 46.109 3.7764 25.258 13.113-13.469 29.617-6.4153 9.009-18.974 28.657 6.591 47.198 0 19.412-2.2301 27.425 11.869 33.482 23.489 12.916 5.2117 28.361 7.0875 29.617 25.309 12.164 5.9531 10.473 25.761 24.511 29.84 7.8276 12.366 13.238 28.93 10.578 51.416-1.9482 20.102 5.2129 49.389-12.174 53.776-27.207-3.4393 7.6307-37.248 7.7241-27.351-1.931-16.526-20.471-16.444-29.617-25.755-5.7275 12.648-26.447 14.076-34.5 24.511-26.167-6.6888-22.071 16.886-35.968 22.468.72176 18.821-11.167 25.908-5.2527 48.632 4.8576 13.271 8.0229 27.093 23.125 31.538 10.242 9.4031 18.678 18.112 37.564 17.872 14.924 3.7039 29.523 7.7319 44.649 11.234-8.5464 10.177-22.569 14.878-33.702 22.468-6.5499 13.216-24.584 14.948-19.404 39.894 7.1752 12.512 13.17 25.965 34.529 23.882-.56384 7.3274 36.181 10.17 34.917.5643zm12.255-14.298c-17.812-6.925 10.806-27.693 0-20.561-2.2575-23.399-5.764-29.112-15.607-34.588 6.7937-9.4151 5.9077-16.861 9.4791-28.596 19.874-13.85 13.915 1.5973 6.1277 15.096-15.45 16.792 6.0411 5.6739 11.234 18.606.4194 21.004 13.398 28.656 0 45.224-5.5748-2.237-5.7544 16.777-11.234 4.8188zm-44.936-6.6383c-23.979-10.561-6.128-11.414 14.944-7.6596 18.255-.24906-11.781 18.984-14.944 7.6596zm-25.532-16.851c-2.5489-19.122 25.288-13.932 35.745-9.1915-7.159.83384-40.72 27.204-35.745 9.1915zm41.872-25.532c3.6703-25.767 6.7457 25.926 0 0zm-36.766-46.468c-10.875-25.577-1.8844-4.5678 9.7021-10.723 14.093 2.7969-14.232 28.683-9.7021 10.723zm-34.723-74.553c5.3475-39.722 8.6119 39.83 0 .15847zm-11.234-3.5745c5.2329-33.744 6.5129 32.502 0 0zm100.09-45.447c26.491-4.6638-15.64-14.129 11.234-19.915 20.21 1.0133 4.8122 23.33-9.4792 22.468h-1.7549zm5.1064-45.957c15.984-27.714 19.242 14.064 0 0zm-52.426-90.043c-2.024-18.074 30.121 5.9675 0 0zm-117.11-19.745c5.0856-28.902 8.9642 28.646 0 .44608zm11.234-1.5319c3.5329-20.06 8.4197 17.892 0 1.755zm35.745-3.5745c4.0357-31.201 7.7421 29.452 0 1.4674z"/>
</svg>
