<?xml version="1.0" encoding="UTF-8" standalone="no"?>
<!-- Created with Inkscape (http://www.inkscape.org/) -->

<svg
   width="143.97375mm"
   height="137.38609mm"
   viewBox="0 0 143.97376 137.38609"
   version="1.1"
   id="svg1"
   xml:space="preserve"
   xmlns="http://www.w3.org/2000/svg"
   xmlns:svg="http://www.w3.org/2000/svg"
   xmlns:rdf="http://www.w3.org/1999/02/22-rdf-syntax-ns#"
   xmlns:cc="http://creativecommons.org/ns#"
   xmlns:dc="http://purl.org/dc/elements/1.1/"><title
     id="title1">Logo EP Dutton</title><defs
     id="defs1" /><g
     id="layer1"
     transform="translate(-23.381591,-35.124063)"><path
       style="display:inline;fill:#000000"
       d="m 92.009571,171.96688 c -2.495172,-1.11482 -0.145421,-4.67791 2.110973,-4.20475 2.780474,0.0181 3.016051,3.91442 0.223851,4.60811 -0.745364,0.26565 -1.714329,0.16468 -2.334824,-0.40336 z m -5.877149,-5.85508 c -2.222298,-1.06432 0.357842,-5.74184 2.659964,-4.19416 2.051759,1.16031 1.790894,3.53404 -0.102402,4.74031 -0.92015,-0.0236 -1.836221,0.20025 -2.557562,-0.54615 z m 6.500675,0.36783 c -2.12721,-0.51148 -1.447902,-5.09501 1.047085,-4.78596 2.353534,-0.69054 4.095928,2.98148 2.397871,4.28966 -0.900613,0.77622 -2.344918,0.61281 -3.444956,0.4963 z m 7.021918,-1.41885 c -2.323511,-1.14661 -0.791009,-4.76945 1.802635,-3.81117 2.01564,0.55843 1.73717,4.73628 -0.75667,4.06077 -0.38549,0.0949 -0.704519,-0.12862 -1.045965,-0.2496 z m -19.743993,-0.47135 c -0.37854,-1.83126 0.233679,-4.78555 2.7267,-4.28148 2.979761,0.0871 1.363521,5.41039 -1.219493,4.49381 -0.440457,-0.1457 -1.277865,0.2975 -1.507207,-0.21233 z m 25.296818,-1.25378 c -1.64697,-1.28048 0.19835,-5.01871 2.3968,-3.58131 2.50563,1.83443 2.15492,-3.58255 -0.654,-0.79027 -8.87606,3.176 -18.744923,2.67578 -27.439181,-0.86318 -3.021813,-0.83154 -5.205938,-3.07831 -7.788376,-4.59461 -3.101387,-2.30034 -5.752402,-5.02528 -7.903633,-8.22268 -0.968669,-1.8387 -2.730805,-3.4911 -2.65339,-5.82111 -5.825217,-1.70917 -11.104013,-5.1985 -16.209799,-8.53831 -1.875966,-2.06631 -3.494503,-4.328 -5.106888,-6.59997 -0.289408,1.86887 -4.231267,4.08311 -4.28582,1.36254 2.482288,0.35204 1.242187,-1.22758 -5.5e-5,-2.29964 0.88084,-2.10089 4.287145,-0.79624 1.746402,-3.79087 -1.408581,-3.24653 -2.797997,-6.38382 -3.228208,-9.9426 -0.718645,-4.7852 -0.188389,-9.754073 0.313717,-14.56592 0.552401,-1.874322 2.643142,-3.51865 2.38506,-5.232744 1.096115,-1.773746 0.889183,-3.993614 2.222613,-5.482881 -1.858336,0.643504 -4.423865,-1.535968 -2.700137,-3.192591 1.500988,-2.433713 3.278829,1.298204 4.692764,0.227923 1.391117,-1.77128 2.54782,-3.039691 3.9277,-4.686698 1.972066,-1.819769 3.968084,-3.335481 6.300217,-4.49668 3.179981,-1.598714 6.401494,-3.608649 10.001187,-4.089878 2.06748,-0.313594 0.598338,-3.380411 2.457606,-4.664498 2.164075,-4.075621 5.535552,-7.274962 9.187421,-10.101275 -1.153261,-1.400993 -2.271299,-4.114962 0.796073,-4.441975 1.601635,0.289159 3.630147,3.890975 3.41052,0.816844 -2.322327,-1.640605 0.738733,-5.59514 2.531844,-2.872722 1.981001,3.065372 2.642006,0.320137 2.125106,-2.009913 1.605478,-1.918439 4.686373,-0.519819 3.836459,1.991303 2.871358,0.963332 0.673647,-2.617903 1.870701,-4.019386 1.347007,-1.891771 5.421484,0.74496 3.320533,2.567007 2.019977,2.112033 2.972368,-1.081039 2.838025,-3.203739 1.320427,-1.83845 4.283483,-0.834709 4.67074,1.291947 -0.939606,1.975281 -1.132562,2.915054 1.593754,2.255227 -1.394251,-2.161692 1.935595,-5.173336 3.539865,-2.954744 0.0797,1.268652 0.75458,5.787271 2.01013,3.480954 -0.39603,-2.397522 2.85824,-3.234565 4.29876,-1.675994 1.04064,2.300764 -3.41009,4.190517 0.65966,4.23419 1.37997,0.267959 0.87761,-3.714537 3.53226,-2.819726 2.92486,1.324713 -0.51857,3.311868 0.007,4.683231 2.13031,2.408642 2.20387,-3.3861 4.8053,-1.417509 3.10955,0.791729 -0.615,3.414746 -0.61328,4.354918 1.84762,2.065177 4.12151,3.136313 5.93728,5.320553 2.47648,1.834508 2.89108,5.187088 5.18572,7.185555 -0.0547,3.410471 4.56902,2.714958 6.50886,4.508516 5.81073,3.38289 11.42321,7.492319 14.90404,13.369604 0.84522,0.754494 0.38873,-4.598846 3.15573,-2.897635 2.21194,0.449401 1.69586,4.537692 -0.82011,3.892767 -3.22087,-1.165343 0.39625,2.225544 0.12281,3.994792 4.19241,7.688393 3.86421,16.841267 2.2747,25.194617 2.06921,-0.80463 4.63917,0.31343 4.01647,2.81872 -0.79876,1.93223 -4.80705,2.22048 -4.49792,-0.41506 -0.28598,-2.40465 -1.74206,2.67748 -2.4191,3.66224 -1.20504,2.7503 -2.87294,5.09237 -4.54951,7.56063 -5.04925,5.76993 -11.88814,9.69399 -19.17321,11.90397 -1.56462,2.41335 -3.10111,4.80852 -4.70387,7.12369 -3.61631,4.2733 -8.18598,7.98214 -13.31706,10.36861 1.90082,-0.0222 4.46524,2.70171 1.57306,3.99527 -2.63374,-0.0487 -3.08776,-0.0184 -4.69061,2.20483 -0.55228,0.57628 -1.86627,0.45731 -2.40249,-0.0843 z m -8.076368,-5.13623 c 0.102573,-2.86799 -3.129041,-1.78952 -5.097101,-2.06336 -1.750447,0.0331 -5.563572,-1.89155 -5.935398,0.0173 -1.5214,2.0793 2.495972,0.98327 2.685385,-0.0309 2.031977,1.01833 -1.108954,2.74477 2.601903,1.87313 1.904682,0.52294 3.8047,0.33509 5.745211,0.20382 z m -3.507455,-0.65179 c -1.047099,-2.38418 3.287248,0.72102 0.193044,0.14248 z m 7.641783,-0.0765 c -0.51102,-0.95261 -0.92651,-2.98489 -3.011938,-1.48779 0.699232,1.72703 1.174582,2.4395 3.011938,1.48779 z m 2.88687,-0.70344 c 0.1095,-2.24393 1.78136,-1.84539 3.66823,-1.29797 4.11772,-0.54788 -2.33287,-0.80065 0.60421,-2.30548 0.98631,0.58868 2.82243,2.04653 3.01684,-0.30911 -1.28672,-2.74801 2.03814,-0.033 3.11523,-1.09476 1.03058,-1.29863 4.91369,-2.76437 2.03526,-3.66265 0.83851,-2.99203 1.60369,1.67665 2.94711,-0.89141 1.35913,-1.70431 -0.70924,-2.38553 2.15363,-2.51599 1.45485,-1.05377 -1.58856,-3.85447 1.84433,-3.17571 1.907,-1.45145 -2.93961,-1.33834 -2.77813,0.8294 -1.54749,2.74552 -4.73456,4.37703 -6.35,6.81597 2.65662,1.37224 -0.86251,1.21049 -1.73055,0.86041 -2.97049,1.75582 -5.79636,3.89949 -9.25851,4.62664 -3.27136,-0.40694 -1.63864,2.51979 0.27343,2.47023 l 0.31693,-0.24141 z m -19.988308,-0.9352 c 3.145312,-0.86194 -1.328163,-2.81299 -1.911843,-0.53045 -0.57694,0.71328 2.032565,1.74266 1.911843,0.53045 z m -3.423206,-1.85956 c 1.394111,-1.22895 -2.86024,-1.85203 -3.66314,-2.9282 -3.226654,-2.69986 -6.495908,-5.35126 -8.801429,-9.06141 -1.602996,1.58672 -1.614268,4.23162 1.126929,2.97884 1.300726,0.84907 -0.405744,3.9039 2.186977,2.38125 1.630202,0.73163 -0.29525,4.13079 2.923423,2.40677 1.146358,0.4806 0.03123,4.62432 2.727676,2.59125 2.761702,-1.45883 0.328831,4.18179 3.499564,1.6315 z m 16.943761,-0.0323 c 2.168884,-0.28982 4.902823,-0.41228 6.484363,-1.91144 -6.222453,1.53089 -12.936198,2.23991 -19.084901,0.018 -0.979021,1.09546 3.772363,1.49369 5.344402,1.7713 2.406859,0.35016 4.845844,0.55109 7.256136,0.1221 z m -14.858272,-2.6612 c -1.877756,-0.40113 -3.117522,-2.89291 -5.05726,-2.47448 2.099024,1.2692 3.972365,3.38385 6.609792,3.27551 -0.517511,-0.26701 -1.035021,-0.53402 -1.552532,-0.80103 z m 24.835865,-0.34539 c 1.91276,-0.91173 3.69527,-1.20464 4.63021,-3.10918 -1.54687,-0.40263 -3.16863,2.38716 -5.09323,2.78247 -2.60472,1.22298 -2.27159,1.82923 0.46302,0.32671 z m -6.74462,-0.49312 c 3.78212,-0.94892 7.32937,-2.89094 10.6116,-4.94001 2.87015,-2.25912 5.63282,-5.01894 6.94201,-8.43731 1.44194,-1.70604 1.25204,-4.33893 2.46602,-5.85283 4.75105,-1.12907 9.92208,-1.82495 13.71249,-5.22756 1.98177,-0.86168 3.35905,-2.44124 4.75928,-3.93609 1.77052,-1.29855 2.00212,-4.14492 4.34834,-5.4045 1.52064,-2.92433 2.67963,-5.95154 2.6384,-9.29605 1.26915,-3.08914 -0.40731,-6.15655 -0.28389,-9.347953 -1.03125,-3.755712 -3.01881,-7.277549 -5.2648,-10.382451 -2.6734,-3.645816 -6.76669,-6.324101 -10.67472,-8.705595 -2.95303,-1.02511 -6.40848,-1.303811 -9.0896,-2.599689 -1.68325,-1.789299 -0.55916,-4.31191 -2.43123,-5.995831 -1.95575,-2.645168 -3.46387,-6.123706 -6.66719,-7.406689 -0.89802,-2.327255 -3.72222,-2.722579 -5.3209,-4.464955 -2.09477,-0.666183 -4.14402,-1.377076 -6.29523,-1.975073 -4.992561,-0.332388 -10.132643,-0.230508 -14.864086,1.517534 -2.712892,0.94074 -5.165357,2.25033 -7.210624,4.311545 -5.382203,3.439367 -7.756523,9.604976 -9.863097,15.315967 -1.814506,0.854321 -3.896331,0.783595 -5.786931,1.542306 -2.273112,-0.216075 -3.309392,2.173239 -5.6312,1.992597 -1.775085,1.257198 -3.567101,2.8596 -5.28604,4.135807 -1.529125,2.141496 -4.156378,3.811086 -4.798679,6.372456 -1.35572,2.095495 -1.8537,4.611471 -2.657513,7.014418 0.59425,3.854176 -1.676976,8.267456 0.244709,12.116026 1.2295,2.57761 1.116377,6.04911 3.483961,7.86901 1.006575,1.58928 2.648365,3.54283 3.947345,5.23156 4.368282,3.30609 9.407497,6.04737 14.875353,6.67876 3.784643,0.95333 2.667109,5.69747 4.952319,7.99558 1.212445,3.20676 3.66011,5.73157 6.582045,7.41835 1.879442,2.70092 5.261575,2.59048 7.814214,4.28318 2.237782,0.39191 4.583907,0.69295 6.812051,0.97434 2.671343,-0.1425 5.379491,0.15879 7.935593,-0.79685 z m -7.249953,-7.39699 c -2.001854,-2.03521 -3.771887,-4.17259 -4.999769,-6.3765 -0.761328,-1.11269 -2.294558,-5.99266 -2.913381,-2.69435 -0.903589,3.15315 -4.099331,6.86231 -7.701706,6.0465 -1.958973,-0.25257 -4.112472,-3.03657 -1.956823,-4.27685 2.439929,-2.24343 2.199699,3.32964 4.124714,2.08119 2.660952,-1.80145 3.350785,-5.27352 4.264124,-8.16559 -0.04928,-1.61415 1.89562,-5.52533 -0.63726,-5.39696 -2.739165,0.10802 -5.55733,-0.6316 -7.599516,-2.31797 -2.932817,-2.60991 -5.42817,-6.34982 -6.88249,-10.12805 -1.145312,-4.1959 -1.662249,-8.44777 -1.351869,-12.793469 -0.630988,-3.259701 1.578963,-5.814279 2.529065,-8.770992 0.882821,-2.161492 2.242528,-3.666588 3.721077,-5.383987 1.502177,-1.428651 2.916248,-3.487109 4.691105,-4.165764 0.562956,-1.836364 4.200695,-1.632616 5.328231,-0.817853 0.514433,-1.554593 -0.923205,-4.191586 -1.729543,-5.935562 -1.483518,-3.391363 -2.295034,0.541471 -4.130908,0.635264 -2.634671,0.544936 -2.602033,-3.618309 -0.378907,-4.26197 3.297757,-1.407544 6.650261,1.809034 7.424689,4.949496 0.922486,3.819582 2.226775,0.186207 2.482271,-1.77014 1.680949,-4.276939 5.201966,-7.290945 8.403516,-10.41772 2.214874,-2.080867 3.329963,1.906679 4.688393,3.122508 3.61728,3.397391 4.60928,8.581555 7.49548,12.346584 1.56693,-2.149225 4.24327,-2.54223 5.54465,0.08742 4.11983,3.562545 6.44265,8.496693 9.21015,13.063478 0.75322,1.881409 1.59715,3.928588 2.2286,5.920085 -0.91801,2.172133 -1.22596,5.087442 -2.59553,7.353172 -1.22705,3.18377 -3.25154,6.15725 -5.65372,8.56316 -1.40205,1.67122 -4.19658,1.38322 -4.49632,3.62415 -1.56976,4.8579 -3.96563,9.54666 -6.30443,13.97747 0.70645,2.73228 2.35461,5.12317 4.46594,7.01626 1.18604,-2.51255 5.75116,-1.22562 3.68966,1.40793 -1.64573,2.1862 -4.99312,1.08135 -6.36386,-0.89876 -1.97649,-0.69061 -2.14996,-5.75359 -4.1108,-3.95562 -3.05704,2.97002 -5.153093,7.33275 -9.014095,9.19334 -0.735774,0.25064 -0.981834,-0.50224 -1.470738,-0.8599 z m 3.437855,-4.18837 c 2.048723,-2.75841 4.919248,-5.22276 6.191088,-8.36054 -1.93755,-0.49985 -1.56078,-3.0636 -2.64492,-4.60553 -0.076,-2.65594 -1.841379,2.41975 -2.465839,3.23859 -0.601223,1.79514 -4.437572,4.22163 -3.142533,0.69934 3.66649,-5.81904 3.629556,-13.17675 4.252973,-19.92255 -0.156915,-8.1626 0.937549,-16.593416 -1.284569,-24.529721 -0.319588,-2.573147 -3.211754,-3.528657 -3.446424,-5.636742 1.339789,-1.340056 3.585437,1.37269 4.570137,2.647512 1.259255,1.125193 2.515405,6.145573 3.650575,2.501831 0.57399,-2.15517 4.87049,-3.206882 2.88805,-5.737095 -0.95733,-1.790673 -1.87968,-3.951112 -2.7455,-5.546705 -2.30047,-2.293172 -2.964141,-6.378726 -5.800568,-8.088603 -3.483938,3.37841 -6.88133,6.978113 -8.396094,11.708496 -1.872004,2.15153 -1.529786,3.316044 0.83202,2.927164 2.257135,1.874679 3.977737,4.710831 6.985754,5.412193 0.705942,2.377487 -2.876784,3.081131 -3.129437,5.423958 -0.972944,3.33095 -3.830605,1.344554 -2.623751,-1.466707 0.215357,-2.687424 0.411885,-5.906336 -2.448884,-7.255447 -1.923207,-1.684333 -0.729457,3.669696 -0.916356,5.027717 0.371176,11.668661 0.774634,23.371579 0.01924,35.032389 1.780078,-0.58498 2.790846,-3.62791 2.935807,-5.67422 0.336042,-1.81562 -0.177577,-5.85903 2.572899,-5.29079 1.203895,2.12479 -0.05815,4.82979 1.340934,6.99628 0.07674,1.61749 4.761184,3.47352 1.983062,4.3346 -2.814438,0.0972 -5.529348,1.05334 -8.332457,1.10453 -0.106247,4.43192 0.626181,8.95801 3.39867,12.54767 1.260667,1.34636 2.579928,5.00892 4.709684,3.81087 0.348812,-0.43283 0.697625,-0.86566 1.046438,-1.29849 z m 8.308818,-12.61267 c 1.86696,-3.70627 2.83456,-7.77027 3.9234,-11.75211 -1.6956,-1.32855 -3.7406,-2.34499 -4.65709,-4.61777 -2.05792,-1.46367 -1.92679,-3.64366 -1.62206,-5.92233 -0.1008,-3.44345 1.20771,-7.168394 4.29732,-8.967266 2.69228,-1.432109 6.40146,-1.576229 9.21265,-0.495837 2.05453,1.096876 2.13713,4.031892 0.44798,5.495416 -2.18076,0.193167 -5.19138,-1.523772 -1.83293,0.794977 -0.0675,3.78568 0.19279,8.05127 -1.62974,11.58826 0.91072,0.88624 3.08993,-2.47908 4.15377,-3.70389 2.02755,-3.408 3.34783,-7.34804 2.473,-11.326648 -0.13068,-5.750539 -3.59468,-10.62097 -6.18782,-15.498179 -1.14648,-1.680847 -3.481,-3.70558 -4.75973,-1.11664 0.42756,1.725276 2.32988,3.363998 2.52636,5.492919 0.67108,2.086245 1.90377,4.698663 1.3528,6.707894 -1.74734,1.799377 -4.57459,0.426686 -4.24716,-2.125758 -0.59261,-2.186496 -0.67764,-4.907303 -1.85376,-6.687936 -2.85062,2.545462 -3.11185,6.994489 -4.57897,10.451042 -0.20807,4.453725 0.15738,8.963456 -0.4488,13.378306 2.97998,0.62275 -1.18359,3.26587 0.27749,5.39353 -0.21956,4.98684 1.04363,9.79023 1.6158,14.69796 1.12578,0.32703 1.01818,-1.15113 1.53749,-1.78594 z M 85.169216,112.855 c -0.205951,-10.06274 -0.05518,-20.165091 -0.691027,-30.199738 -0.788226,-2.247201 -4.05213,0.343541 -5.390679,1.319115 -4.082447,3.337665 -6.700775,8.318846 -6.60762,13.639319 -0.232052,1.957976 0.644138,5.174554 3.208087,4.485924 3.15667,-2.791819 0.665353,-8.24991 3.74272,-10.997562 1.758078,-2.022437 4.619764,1.230931 2.699521,2.795475 -2.371839,0.307494 -2.294543,2.713668 -2.116666,4.837504 -0.562427,2.385813 1.136629,4.393473 1.058333,6.698333 -1.421588,1.76528 -0.471568,4.59833 -0.977571,6.77583 -1.393727,2.91675 1.157004,3.29784 2.858116,4.25818 1.119005,3.01266 -4.563278,2.8258 -4.322557,-0.0224 -0.933833,-3.23019 -0.653071,-6.99877 -2.450836,-9.85511 -1.839191,-2.19364 -4.063354,0.36808 -3.52587,2.58779 -0.01295,4.10261 2.15661,8.28132 5.181566,11.0087 2.070525,1.67435 4.822106,2.46294 7.436245,1.96882 -0.03392,-3.10006 -0.06784,-6.20013 -0.101762,-9.30019 z m 24.584774,-3.05465 c 1.04912,-2.34779 0.21004,-5.43228 0.51743,-8.06946 0.0239,-1.875485 -0.61826,-5.863045 2.26688,-4.933096 2.71569,-0.220005 -2.24875,-1.4138 -3.42062,-0.08355 -4.52533,1.765716 -4.47531,7.762436 -2.33249,11.379836 0.40293,0.9888 1.91518,3.20183 2.9688,1.70628 z m -37.942521,-5.45178 c -0.302905,-0.57358 -0.330039,0.54751 0,0 z m -0.661459,-3.30729 c 0.129893,-1.255321 -0.918178,0.97179 0,0 z m -8.183184,21.28006 c -1.87286,-2.74128 4.095026,-0.58639 2.579895,-3.50169 -0.002,-2.85521 -1.582782,-5.58387 -2.835422,-8.02793 -1.620159,0.72739 -2.862381,3.12778 -3.996702,4.68671 -0.804207,1.44493 -2.692614,4.33406 -4.097634,1.65176 -1.826431,-3.22786 -5.238266,-5.74623 -5.824241,-9.49686 1.953201,-1.9688 4.107522,-3.87052 5.418932,-6.18659 2.84801,-1.31407 -1.109764,-3.291821 -1.185598,-5.163683 -0.06102,-2.128861 1.784244,-3.732671 2.691222,-5.560372 2.720457,-0.0336 3.528711,3.252936 4.813697,5.128225 0.604072,1.979841 -3.399671,3.36747 -2.164043,5.12729 1.802063,1.59076 3.16174,3.82736 3.956516,6.10623 1.373418,0.90697 2.545054,-3.89918 3.931774,-1.37628 -1.244745,1.87405 -2.890172,3.54234 -1.63434,6.07293 1.771233,2.66688 3.361452,6.1224 2.43599,9.28607 -0.676356,1.02019 -3.055927,2.26707 -4.090046,1.25419 z m -5.310565,-8.2189 c 1.073567,-2.02536 3.940666,-3.2813 3.83448,-5.78512 -1.226945,-2.29532 -3.159895,-4.10108 -4.253662,-6.48229 -2.692931,0.45901 -3.626817,3.95167 -3.941563,6.3514 -0.39543,2.29017 0.320629,4.63064 1.942725,6.20505 0.436825,2.18704 1.721123,1.09187 2.41802,-0.28904 z M 57.155657,97.667838 c 1.372528,-2.002616 -1.912143,-4.957268 -1.253127,-1.126416 0.0016,0.59168 0.617936,2.490968 1.253127,1.126416 z m 74.670223,17.255572 c -2.12994,-1.78358 -2.59778,-5.10025 -3.73935,-7.61885 -2.002,-4.33489 0.86157,-8.980616 2.97077,-12.71636 1.13945,-2.797512 3.17051,-0.620654 4.43879,0.378173 2.47616,-1.91849 3.29225,0.503691 1.41598,2.376665 -1.46184,3.267642 -2.55772,-1.595313 -4.24676,-1.32167 -1.62399,1.214833 -1.73283,4.130312 -1.85249,6.169102 -0.0382,3.26261 0.52968,6.78586 1.65709,9.73254 2.27918,0.69613 2.35263,-3.55471 4.39832,-3.20872 1.16019,1.71879 0.97259,3.99288 1.61751,5.95866 -2.07592,1.60691 -2.29688,-4.28677 -3.99396,-1.45476 -0.71993,0.77226 -1.32306,3.00428 -2.6659,1.70522 z m 8.0803,-8.5051 c -1.40609,-2.07527 -1.47282,-4.55291 0.12842,-6.525731 0.79301,-3.335442 3.06685,-1.644746 3.41423,0.847151 2.013,2.51837 -0.0492,5.3155 -1.41206,7.5776 -1.64027,0.7128 -1.46467,-0.86488 -2.13059,-1.89902 z m 2.15216,-3.08398 c -0.59888,-3.444583 -1.30529,3.55391 0,0.17339 z m -64.690622,44.91768 c -0.676555,-1.2068 -3.22668,-3.32914 -4.220399,-3.09677 1.332327,0.79269 2.731242,3.68187 4.220399,3.09677 z m 37.302292,-2.20594 c 1.54379,-2.36051 -3.70202,2.67752 -0.0319,0.0252 z m 2.13728,-2.17342 c 0.50342,-2.20782 -2.84927,2.56526 0,0 z m -49.226397,-3.00433 c -0.61741,-1.84796 -3.739981,0.0453 -1.9657,1.75399 0.04584,1.96591 2.650099,-1.21346 1.9657,-1.75399 z m 4.503045,1.99186 c -2.452302,-4.2199 0.152985,2.92089 0,0 z m 46.306322,-0.83115 c 0.84138,-2.67376 -2.19301,2.23146 0,0 z m 1.76387,-2.57512 c 2.04828,-3.58282 -2.56115,1.64297 -0.44506,0.9741 0.14835,-0.3247 0.29671,-0.6494 0.44506,-0.9741 z m -54.568032,-1.10638 c 0.720346,-1.32653 -1.311112,-4.32343 -3.564212,-3.70417 -1.094563,2.1746 0.209496,3.80449 1.644633,1.44743 3.093538,0.26635 -1.652525,2.13804 0.500307,3.23041 0.636719,1.31812 0.589831,-1.42472 1.419272,-0.97367 z m 60.630592,-0.24978 c 1.73455,-1.88504 3.72184,-0.6867 1.46901,-2.72201 1.96883,-2.49142 1.32967,2.50443 3.86468,0.209 1.49916,-0.84986 5.01073,-1.27155 3.49651,-3.24324 -1.20816,-1.57605 -2.86998,0.7752 -1.53845,1.70257 -2.80253,2.42067 -0.70721,-2.56573 -3.52436,-0.42174 -1.91393,1.4513 -5.20867,0.35734 -5.7556,3.00196 -2.5265,1.64321 0.96468,3.17803 1.93328,1.5665 z m -1.31433,-1.3901 c -0.33585,-2.78019 3.4783,-0.0214 0.49926,0.58151 -0.5124,0.25431 -0.37858,-0.32843 -0.49926,-0.58151 z m -64.58618,-1.65884 c 0.824854,-2.88259 -2.87156,-0.73913 -1.206316,1.22124 0.88663,0.0256 1.031494,-0.42625 1.206316,-1.22124 z m 61.41334,0.74108 c -0.70889,-0.35076 0.39495,1.1337 0,0 z m -54.945134,-1.27882 c -0.302905,-0.57358 -0.330039,0.54751 0,0 z m -9.56565,-0.81313 c 2.439334,-0.42467 -2.619067,-3.01761 -2.123712,-0.60416 0.619291,0.79977 1.148105,1.4816 2.123712,0.60416 z m 68.964604,-0.66857 c 4.37946,-1.31789 8.65874,-3.16699 12.27316,-5.95497 1.86075,-2.20916 4.9192,-3.69279 5.8854,-6.45063 -2.294,1.07567 -3.24476,4.13881 -5.56824,5.11172 -1.45819,2.38235 -4.56511,2.76093 -6.65647,4.4466 -3.02837,1.263 -6.08566,2.43346 -9.32956,3.00675 -0.60583,1.66409 2.61553,-0.11313 3.39571,-0.15947 z m -60.192704,-0.33555 c -1.331488,-1.16521 -4.355035,-0.54401 -6.061237,-1.8894 -2.789915,-1.91698 -3.752911,-0.10168 -0.360047,0.57911 1.987574,0.35459 3.364356,1.72426 5.557395,1.54681 0.245794,-0.16564 1.160151,0.5198 0.863889,-0.23652 z m 72.033254,-0.0573 c -0.77851,-1.36457 0.085,-4.32902 2.01402,-2.38627 2.04374,-0.65283 3.39483,-2.15539 4.99042,-3.39241 -2.11687,0.13233 -1.03175,-3.69597 -3.19886,-0.44207 2.09854,3.48101 -1.47357,1.41628 -2.65366,2.16154 -1.17459,1.46235 -4.19291,2.04519 -2.27684,3.67653 -0.37666,0.77244 0.83468,0.6423 1.12492,0.38268 z m -84.245851,-0.99138 c 1.732938,-2.33906 -4.565433,0.16094 -1.162585,0.617 0.580862,0.19225 0.821469,-0.25774 1.162585,-0.617 z m -2.942891,-1.43352 c 2.376523,-0.82392 -1.856932,-3.87397 -1.248679,-1.93232 -1.588277,0.65483 0.614213,3.3069 1.248679,1.93232 z m 5.101321,-1.13278 c -1.978124,-1.83646 -3.082778,-0.3562 0,0.27288 z m -8.109479,-1.05003 c 1.974934,-1.04144 1.183633,-2.1776 -1.292569,-1.4811 -1.128664,-0.19512 1.472541,4.05103 1.292569,1.4811 z m 5.728229,-0.55394 c -0.53503,-0.6843 -4.759047,-3.3401 -1.92141,-0.93384 0.47038,0.15689 1.748094,1.84787 1.92141,0.93384 z m -7.259458,-3.33537 c -1.655156,-1.59264 -4.375066,1.53932 -0.86428,0.9705 0.735827,-0.21266 2.363004,-0.20461 0.86428,-0.9705 z m 3.237103,0.10223 c -1.23105,-1.25705 -2.771651,-3.94493 -3.915144,-4.24876 1.250287,1.47373 1.761842,3.28619 3.56308,4.5545 0.538783,1.0311 1.077884,0.0681 0.352064,-0.30574 z m 97.079296,0.42951 c -1.89934,-0.48591 0.59585,-3.75074 -1.39841,-2.44496 -2.0597,1.88842 -1.1399,2.67913 1.22682,2.89202 l 0.14276,-0.37195 z M 43.23647,123.0167 c 2.160696,-0.5339 -0.672435,-5.2695 -0.527215,-3.38519 -1.89215,0.90238 -1.088341,3.21792 0.527237,3.89973 l -1.7e-5,-0.3984 z m 105.54954,-0.97673 c 1.48989,-1.93299 1.44397,-3.51302 0.28379,-5.41951 -1.40762,0.66613 -2.89929,6.08998 -1.10192,2.52305 2.14582,-1.05495 1.29985,3.25639 -0.44748,1.99842 -0.8763,1.24322 0.43292,2.46929 1.26561,0.89804 z m -3.22074,-3.02516 c 0.83322,-0.98356 3.20544,-6.23001 1.07044,-3.4486 -0.21674,1.36882 -3.15841,4.58708 -1.69044,4.62109 0.20667,-0.39083 0.41333,-0.78166 0.62,-1.17249 z M 42.429935,118.59658 c 0.02344,-3.27257 -3.30271,-2.48946 -2.347595,0.47935 0.758113,-0.19688 1.662741,-0.13858 2.347595,-0.47935 z m 108.491945,-1.29904 c -0.85811,0.0812 -0.15319,-0.2251 0,0 z M 43.252503,114.24241 c -1.389111,-1.69356 0.06412,-4.49035 -1.096469,-6.07105 -1.600489,0.0754 -0.8498,3.88613 -0.0157,5.1348 0.521386,1.44589 2.56864,5.41912 1.112173,0.93625 z m 108.407277,1.2144 c -0.45989,-2.91664 -4.69524,1.28914 -0.93514,0.54897 0.49621,-0.11197 1.10317,0.31539 0.93514,-0.54897 z m -111.19216,-1.6976 c -1.176987,-2.2874 -3.787008,2.27173 -0.206292,1.14301 0.946235,0.30337 0.507328,-0.76958 0.206292,-1.14301 z m 112.30097,-2.12406 c 0.54751,-2.0079 1.3173,-3.94269 1.04844,-6.09772 0.2651,-1.43965 -3.52913,-1.96132 -0.82082,-2.50814 2.44946,-0.93563 -2.88527,-3.059406 -1.54523,0.46414 -1.51296,2.62167 3.47123,2.20759 1.18486,3.90177 -3.26606,-0.42899 -0.76908,2.21092 0.46523,3.17375 -1.33651,0.81451 -4.56272,2.04417 -1.00946,2.11398 0.39064,0.007 0.41446,-0.81873 0.67698,-1.04778 z M 39.742303,111.08994 c 0.310414,-2.6544 -4.650114,-1.96006 -2.19279,0.55075 0.526926,0.004 2.46535,0.64986 2.19279,-0.55075 z m 109.065837,-0.79372 c 0.63304,-3.6745 -1.6189,2.23806 0,0 z M 39.099102,107.15664 c 0.803323,-2.74531 -4.923351,0.84649 -1.257256,0.60391 0.605627,-0.055 1.156976,0.21981 1.257256,-0.60391 z m -0.625132,-3.69311 c -0.309146,-3.15809 -3.618706,0.46741 -0.926042,0.48816 0.396842,-0.13188 1.246368,0.35773 0.926042,-0.48816 z m 2.910416,-0.57017 c -0.605809,-1.14716 -0.660075,1.09501 0,0 z M 38.42434,99.119208 c -0.918216,-2.452954 -1.859037,2.073342 -0.0134,0.06957 z m 114.19569,0.173968 c 2.18658,-1.904863 -3.40425,-0.910882 -1.19931,-3.16437 2.53417,1.238676 1.13997,-3.7304 -0.69727,-1.178864 -1.71154,1.127949 0.20852,3.526552 1.37785,4.503833 0.18749,0.02513 0.34705,-0.100451 0.51873,-0.160599 z m -3.93707,-2.534638 c -0.42682,-2.760874 -1.91448,-5.11364 -3.24197,-7.461369 -2.21567,-3.681637 -1.10529,0.601011 0.53457,1.978021 1.7794,2.323095 0.85642,5.653651 2.94708,7.884773 0.46648,-0.531696 -0.26779,-1.71292 -0.23968,-2.401425 z M 39.29053,95.854416 c 0.03697,-1.203472 -1.658015,-4.891304 1.472925,-3.117976 1.957231,-0.273278 1.086435,5.497662 1.943848,2.058892 -0.234006,-1.374069 2.649035,-4.43261 1.321944,-4.392705 -1.385737,2.723414 -3.238704,-0.699198 -1.366631,-1.996639 1.129846,-2.874006 -3.822706,-0.90773 -1.542986,0.894085 -0.71799,1.313024 -3.457642,1.739133 -3.332314,4.495593 -0.767002,1.538563 -0.257656,3.291266 1.503214,2.05875 z m 111.6975,-3.676683 c -2.40748,-1.198503 -1.84048,1.500784 0,0 z m -1.38906,-3.353412 c -1.5635,-2.491766 -3.25203,2.241168 -0.62392,1.069186 0.27855,-0.35626 0.85705,-0.492756 0.62392,-1.069186 z M 46.090127,87.745962 c 0.268683,-2.182793 -1.870438,3.151971 0,0 z m 0.960721,-1.162348 c 0.260837,-1.914135 -1.448893,1.477739 -0.02409,0.06279 z m 100.666922,0.01274 c 2.34934,-1.733782 -2.64449,-1.159465 -2.70023,-2.558601 2.58105,-2.366822 -2.35236,-2.4685 -2.35366,-1.252403 1.66597,1.086907 2.63812,5.017095 4.92093,3.877335 z m -4.3836,-0.305595 c -1.39811,-2.780837 -2.71748,-1.610218 -0.36406,0.398971 0.31027,0.126901 0.86769,0.206311 0.36406,-0.398971 z M 45.037339,83.464882 c -0.257433,-1.587026 4.911154,0.236599 2.167879,-2.74587 0.113248,-2.499196 2.277619,-1.788365 2.915829,-0.844399 2.464794,-2.156252 1.567159,-1.171283 -0.546501,-2.191355 1.814346,-3.208793 -0.927449,0.161608 -2.15509,0.913151 -1.145874,1.409472 -2.963965,2.664762 -3.814091,4.51935 -2.638311,1.811866 0.802434,3.367571 1.473476,0.764843 l -0.03958,-0.396431 z m 4.499648,0.105583 c 2.625599,-2.630209 -1.04514,-0.0039 -2.067184,1.147608 -0.410808,2.376882 1.419405,-1.334122 2.067184,-1.147608 z m 91.330733,-0.214627 c -0.48352,-1.060595 -5.00309,-4.409367 -2.82841,-1.629142 1.12803,-0.500653 2.05898,2.59473 2.82841,1.629142 z M 51.695474,81.737031 c 1.176507,-1.253829 -2.204101,0.928489 -0.05252,0.03323 z m 90.759746,-0.374813 c 2.39938,-1.865842 -1.72943,-2.836799 -2.38125,-0.994098 1.01626,-0.296879 2.04459,2.266809 2.38125,0.994098 z M 53.490398,80.46992 c -0.401335,-1.250055 -2.253381,1.657248 0,0 z M 139.44547,78.9857 c 1.7586,-2.20667 -1.19803,-2.888499 -1.29387,-0.421882 0.33055,0.368068 1.80827,1.9402 1.29387,0.421882 z m -4.39859,-0.301717 c -0.3029,-0.573587 -0.33003,0.547509 0,0 z M 57.209776,78.039061 c 0.185163,-1.190376 -1.732422,1.294554 -0.115755,0.347265 z m -3.601024,-0.979677 c 2.865756,-0.962662 -2.472432,-3.283488 -1.905616,-0.738891 0.433514,1.283987 0.633579,2.023646 1.905616,0.738891 z m 78.761838,0.223546 c -2.45548,-1.556578 -5.40108,-2.2827 -8.09617,-3.126561 -2.6337,-0.310568 1.6695,1.929315 3.07413,1.670371 1.40078,-0.301017 5.85768,3.394683 5.02204,1.45619 z m -74.141065,0.03404 c -1.216998,-0.35632 0.343535,0.781201 0,0 z m 78.250355,-1.207511 c 0.57673,-1.908656 -3.99431,1.082889 -1.70033,-2.220723 0.0454,-2.890014 -2.0987,-0.04675 -2.51066,0.651038 -2.30595,1.111098 2.73998,1.356651 3.27553,2.390744 0.69693,0.08901 0.78361,-0.24248 0.93546,-0.821059 z m -74.418553,0.09293 C 63.097592,75.860923 68.49836,74.732535 65.268729,74.6 c -1.370698,0.27576 -5.415061,1.073866 -4.652601,2.09961 0.481733,-0.16574 0.963466,-0.331481 1.445199,-0.497221 z m -4.956979,-1.081631 c 1.859091,-1.748054 -3.306966,-2.632755 -1.167879,0.162835 -0.289235,0.930622 0.83342,-0.310836 1.167879,-0.162835 z m 73.661522,-1.589561 c 0.50247,-3.426166 -3.88989,0.0015 -0.98263,0.74382 1.18878,0.499154 1.00741,0.37508 0.98263,-0.74382 z m -69.417892,0.215527 c 0.370169,-1.117266 2.397378,-4.27196 3.095792,-1.149383 2.419023,-1.555096 -0.627599,-3.466694 -2.040734,-1.540603 -2.171289,-0.567651 -3.940506,3.315531 -1.366422,2.831853 z m 65.718932,-1.425188 c 1.93933,-2.550482 -3.03376,-1.95054 -1.54228,0.0016 0.39426,0.719609 1.36782,1.124726 1.54228,-0.0016 z M 55.407303,71.540232 c -0.302907,-0.573586 -0.330036,0.547512 0,0 z m 13.229166,-0.79375 c -0.624229,-1.647337 -0.593645,1.575237 0,0 z m 53.181251,-0.89673 c -1.58857,-3.459976 -1.36557,0.484214 0,0 z m 4.97258,-0.726092 c -0.38092,-1.501584 -2.59642,-4.74629 -2.81016,-1.034781 -0.93811,1.656008 2.82995,1.977882 2.81016,1.034781 z M 67.020875,68.263362 c 1.644489,-1.358299 -3.139161,-2.335386 -1.823989,0.498745 0.686548,-0.0058 1.348687,0.129523 1.823989,-0.498745 z m 3.203094,-0.03042 c -0.605813,-1.147174 -0.660072,1.095025 0,0 z m 49.510581,-2.38125 c -0.75196,-1.47809 -2.44691,-2.850261 -3.68175,-4.233333 -0.32397,0.930368 2.48692,3.014493 2.84216,4.712366 0.95973,1.125007 1.59322,1.306283 0.83959,-0.479033 z m 3.68806,0.255275 c 2.4126,-2.195568 -2.36881,-2.577026 -1.26246,-0.43353 0.30188,0.653963 0.60679,1.006435 1.26246,0.43353 z M 71.546885,65.719399 c -0.234761,-1.379805 -0.731864,1.627573 0,0 z m -2.523289,-0.381103 c 0.08906,-2.30544 -4.182299,-0.792759 -1.048586,0.212997 0.322551,-0.117803 0.947532,0.319683 1.048586,-0.212997 z m 1.521635,-2.892844 c -0.554423,-2.852546 -2.207719,-0.108583 -0.585849,1.395405 0.539478,-0.339208 0.591731,-0.804536 0.585849,-1.395405 z m 51.002139,-0.797459 c -0.73527,-2.900719 -3.92618,0.844862 -1.00482,1.458243 0.18188,-0.2474 1.80965,-0.87694 1.00482,-1.458243 z M 76.177094,61.08919 c 0.12988,-1.255304 -0.918171,0.971795 0,0 z m -2.876415,-1.183826 c -0.934859,-3.112258 -3.164337,1.232502 -0.007,0.01813 z m 45.567141,0.09961 c 1.83385,-0.888486 -0.52809,-3.59195 -1.4914,-1.032451 -0.87948,1.319263 0.42655,1.65665 1.4914,1.032451 z m -5.85301,-0.92772 c -1.64137,-0.269934 -0.0716,0.516494 0,0 z m -30.884592,-1.84035 c 3.090149,-0.401188 2.454762,-3.226812 0.264584,-0.645631 -1.242072,-0.333477 -5.508623,3.049676 -2.976563,1.878468 0.863998,-0.499334 1.79344,-0.850043 2.711979,-1.232837 z m -5.886979,0.510523 c 1.993,-1.673302 -3.599656,-1.368679 -2.853204,-0.176293 0.925811,0.218895 1.920379,0.520666 2.853204,0.176293 z m 34.177841,-0.518251 c -1.00215,-0.910842 -5.33429,-1.720681 -1.85975,-0.457728 0.68195,-0.09544 2.46479,2.125943 1.85975,0.457728 z m 5.28619,-0.0047 c 1.72026,-3.424852 -2.99685,0.301028 -0.54254,0.689735 0.18085,-0.229912 0.36169,-0.459823 0.54254,-0.689735 z m 2.40628,-0.686099 c -0.35491,-2.386243 -0.73194,2.564295 0,0 z M 79.807204,55.778199 c 1.6931,1.21442 3.278234,-2.583379 1.661556,-3.37198 -1.403701,0.790045 -4.493621,1.601554 -3.579726,3.678707 0.656332,-0.357587 1.18697,-0.835915 1.91817,-0.306727 z m 33.546356,-0.311384 c 1.15523,-3.503238 -3.36103,0.964212 -2.49068,-1.488124 1.01799,-2.782739 -5.40099,-1.200015 -1.84412,0.07413 1.38522,0.384893 3.0392,3.339233 4.3348,1.413994 z m -7.67543,-0.06615 c -1.52767,-1.839846 -1.36733,1.350191 0,0 z M 87.043002,55.111513 c 1.635151,-0.228174 5.075654,-1.608756 1.492517,-0.917195 -1.617018,0.183107 -5.767529,2.026743 -1.492517,0.917195 z m -10.9982,0.02457 c -0.302848,-0.573636 -0.330094,0.547477 0,0 z m 27.781248,-0.364496 c -1.02287,-1.470155 -3.69311,-1.507115 -5.423957,-1.344254 -3.169184,0.343482 2.375177,0.491909 3.286437,0.993246 0.5763,-0.0386 1.93172,0.982594 2.13752,0.351008 z M 84.491168,53.260462 c 2.533039,-2.216697 -1.321189,-3.111726 -1.318167,-0.07115 -0.685442,1.14745 1.027734,0.766238 1.318167,0.07115 z m 10.206758,0.420394 c 1.368107,-0.812423 -4.310167,0.261656 0,0 z m 11.665164,-1.454617 c 0.97701,-3.136987 -3.29661,-0.02363 -1.04908,0.660866 0.65781,0.02048 1.04203,0.17549 1.04908,-0.660866 z m -5.75342,-0.149418 c 1.82341,0.704945 4.40801,-0.906207 1.64454,-2.100132 -1.72993,1.555222 -2.966149,-1.790409 -3.991569,0.132292 -1.072424,0.937755 1.765999,3.4036 2.347029,1.96784 z M 89.155554,51.800002 c 2.708805,-0.73961 -2.701495,-3.369327 -2.037462,0.01586 0.318401,1.162595 1.262752,-0.06298 2.037462,-0.01586 z m 3.028831,-1.312548 c 0.618792,-2.221316 1.733091,1.914985 3.926709,0.547573 1.427895,-2.787705 -1.779957,-1.672968 -3.165545,-2.033922 -0.561638,-0.455559 -4.18714,1.957383 -1.687201,2.237121 0.760599,0.0278 1.153853,0.348195 0.926037,-0.750772 z m 3.439583,-3.70138 c -1.312501,-1.282328 -0.67274,1.518473 0,0 z M 74.751197,161.79435 c -2.224615,-1.75766 1.272943,-5.23178 3.019437,-3.06826 2.342989,1.65492 -1.38304,5.31545 -3.019437,3.06826 z m 61.486313,-0.41089 c -2.97903,-0.50653 -5.29875,-3.87811 -4.70754,-6.67088 1.72332,-2.09172 3.07388,2.50079 4.71686,1.61888 0.88137,-1.65265 -0.94889,-4.12311 -1.92961,-5.64703 -2.16507,0.32085 -4.14218,-0.014 -2.27075,-2.13563 -1.46165,-1.49909 -3.29746,2.90765 -4.85108,-0.30163 -1.12162,-2.64125 3.04758,-2.81781 4.25598,-1.44282 1.36849,2.62408 3.83472,0.0912 0.79862,-0.74861 -1.80804,-1.01488 -3.71728,-4.49677 -0.24041,-3.73946 1.29695,0.52769 2.99731,4.95427 3.56647,2.62665 -1.67268,-1.57491 -2.28367,-4.25994 -0.23765,-5.80165 2.52548,-1.04929 4.76184,2.07838 1.91032,3.23047 -3.08321,1.66332 0.81833,1.46299 1.97632,0.64128 1.94711,1.32573 -2.40982,3.34886 0.78473,4.02629 1.12738,0.7332 4.23393,2.73945 4.56218,0.88836 -1.09238,-1.45641 -4.74112,-2.05649 -3.00234,-4.30353 2.07327,-1.01826 3.33173,1.03776 5.12803,1.69684 1.12003,1.66335 3.36351,3.9524 2.32357,5.93444 -2.23105,2.13601 -5.40859,-0.3618 -7.69417,-1.32801 -1.48762,-0.0151 -4.15439,-4.41705 -4.2958,-2.09622 1.57374,1.542 3.54823,2.54279 5.13927,3.64227 2.77306,1.53161 5.19541,3.92476 6.66195,6.74332 -0.5414,2.52806 -3.98591,2.16013 -5.31264,0.39368 -2.90118,-1.81807 -5.11108,-4.66052 -5.82712,-7.98566 -1.76554,-2.61547 -3.7084,-1.8244 -1.14134,0.62886 0.77107,1.82061 2.39077,3.54324 2.47128,5.74835 0.078,1.75753 0.0733,4.88384 -2.37853,4.47992 l -0.3872,-0.0938 z M 50.115636,159.5142 c -2.186844,-1.01979 2.429175,-6.012 -0.321612,-4.33911 -0.827886,1.53878 -2.175385,4.7171 -4.510912,4.01822 -2.407558,0.64324 -3.629264,-2.82349 -1.310721,-3.78546 2.703354,-2.04049 5.033462,-4.57771 7.706215,-6.59405 2.633811,-0.26899 1.983633,-4.53596 -0.235896,-1.7805 -1.210286,1.62325 -2.793845,2.98927 -4.634314,4.16504 -1.582493,1.29548 -5.033032,2.6677 -5.75503,-0.11032 0.310486,-2.92354 2.933747,-5.03283 5.225863,-6.61867 2.365438,-0.34838 3.191297,2.89692 0.63663,3.31397 -0.27434,2.4977 2.508058,-1.12879 3.95239,-1.19037 2.813337,-1.63421 -3.009857,-3.18443 0.01261,-3.99858 2.242168,1.09038 2.87741,-0.32799 0.822296,-1.69411 -1.074301,-2.5056 2.640522,-3.43589 3.437283,-1.16663 0.871536,1.54337 -2.534573,4.89729 -0.356834,4.74761 1.760339,-1.36806 2.332532,-5.04094 5.253926,-4.41476 0.930859,3.00832 -3.268726,4.21893 -4.101043,6.48229 1.894805,-0.17083 3.234366,-2.16727 5.316375,-2.45274 2.673955,0.1308 1.619256,4.96757 -0.769156,3.39112 -3.30717,-1.52075 -1.344354,0.93398 -0.308756,2.29308 -0.68252,2.88679 -3.28127,-1.28629 -4.416843,0.52764 -0.918992,0.97052 -3.265961,4.70338 -1.418228,4.71688 0.83626,-1.93774 4.998774,-2.21572 3.269338,0.49273 -1.403583,2.48463 -3.544101,5.27754 -6.756517,4.52504 -0.370732,0.12613 -0.469647,-0.40474 -0.737067,-0.52832 z m 3.241146,-8.73521 c 2.202047,-3.30692 -1.487158,0.32196 -0.926042,1.32287 0.50196,-0.0391 0.591717,-0.97912 0.926042,-1.32287 z m 16.719214,8.12737 c -2.391834,-1.40517 0.727861,-5.4902 2.604186,-3.32665 2.824536,1.40782 -0.942389,5.2576 -2.604186,3.32665 z m 44.855284,-0.10443 c -2.78492,-1.22763 0.52838,-4.61454 2.32975,-2.84461 1.88531,1.16532 -0.57733,4.63369 -2.32975,2.84461 z m -68.910467,-15.377 c -0.928813,-1.46593 0.605193,-4.77566 1.655618,-1.95492 0.883204,1.18001 -0.5419,2.45181 -1.655618,1.95492 z M 151.26263,128.38605 c -2.02473,-0.90754 -1.40082,-4.36289 1.0055,-3.79686 2.33183,0.52553 1.78672,3.70252 -0.54777,3.94785 l -0.13702,-0.0209 z m 3.09884,-4.42113 c -2.22411,-0.47917 -2.45073,-4.10499 0.24758,-4.13823 2.73577,-0.46645 3.294,3.79751 0.67846,4.44 -0.30868,-0.10059 -0.61736,-0.20118 -0.92604,-0.30177 z M 32.82111,121.39499 c -2.468764,-1.67069 1.47464,-5.21972 3.274473,-3.04453 1.342783,2.04155 -1.15656,4.94333 -3.274473,3.04453 z m -2.090209,-4.47711 c -2.059629,-1.62419 0.364477,-4.24537 2.583694,-3.7345 2.419559,1.39173 0.169296,4.23541 -1.913012,4.26206 -0.223561,-0.17585 -0.447121,-0.35171 -0.670682,-0.52756 z m 126.798739,-4.71786 c -1.52111,-0.65685 -0.86147,-4.42265 0.80031,-4.27958 2.1877,-0.3131 3.21262,1.93807 2.09744,3.68505 -0.76748,0.49072 -2.0097,0.79683 -2.89775,0.59453 z M 28.70626,110.60915 c -1.550283,-1.90503 2.601082,-4.88454 3.843739,-2.55132 1.534143,1.92394 -1.116591,4.14586 -3.160659,3.56678 -0.412594,0.0495 -0.420081,-0.79033 -0.68308,-1.01546 z m 129.33689,-3.95464 c -1.71171,-0.99835 -0.52424,-5.14001 1.73397,-4.5549 2.83416,-0.59828 4.61113,4.8168 1.30144,5.14576 -1.13513,0.0218 -2.30193,0.64332 -3.03541,-0.59086 z m 6.23892,-0.43107 c -2.27223,-1.50887 -0.0631,-5.08492 2.11462,-3.47321 2.42207,0.97052 -0.29347,5.90726 -2.11462,3.47321 z M 23.417903,105.56036 c -0.248254,-1.32363 0.808031,-4.31904 2.202143,-5.24908 1.389563,1.46824 2.716426,1.70725 4.485663,0.99458 2.702388,-0.68367 3.920004,3.52384 1.371352,4.49792 -2.241829,1.03837 -3.713569,-2.21986 -5.56507,-0.64827 -0.651036,0.61597 -1.712243,0.96101 -2.494088,0.40485 z m 134.118447,-5.18069 c -1.40179,-1.492141 -0.0688,-5.015092 2.09681,-3.858231 2.37759,0.712886 1.90361,4.336061 -0.48708,4.255251 -0.55249,-0.10541 -1.34738,0.30443 -1.60973,-0.39702 z M 27.507464,99.246992 c -0.40772,-1.896193 1.408151,-5.046964 3.761626,-4.161282 3.067355,-0.143737 2.019509,5.06367 -0.737199,4.302218 -0.964587,-0.115989 -2.177794,0.240161 -3.024427,-0.140936 z M 156.07539,94.091886 c -2.19855,-1.533249 2.08389,-4.664711 3.18046,-2.203197 1.66828,1.674374 -1.92479,4.066413 -3.18046,2.203197 z M 30.734902,93.611746 c -2.169675,-1.061183 -0.822237,-4.198777 1.245404,-3.823276 2.524422,0.30367 2.273896,4.126485 -0.120919,4.096952 -0.429347,0.03127 -0.784918,0.03036 -1.124485,-0.273676 z M 154.71546,89.912134 c -2.36266,-1.107256 0.42392,-5.502828 2.4888,-3.369275 1.28568,1.382116 -0.74516,4.134618 -2.4888,3.369275 z M 33.116152,88.584662 c -2.221672,-1.091238 -1.010764,-4.896311 1.467045,-4.206373 1.952167,-0.05501 2.833333,3.052612 0.857393,3.874379 -0.446853,0.854647 -1.631769,0.775815 -2.324438,0.331994 z m 19.933786,-20.16391 c -2.392225,-1.316798 1.067171,-3.235532 0.385961,-5.328384 2.749615,1.674155 1.951387,-2.769787 0.0966,-0.313106 -1.152796,-3.191777 -0.475573,2.696761 -2.601555,1.749511 -1.530406,-1.126834 1.195055,-3.982592 -2.408467,-4.254164 -2.104508,-1.231291 -4.308899,-1.578872 -2.90476,0.948399 -1.545896,1.614685 -3.452884,-1.654879 -4.80485,-2.737335 -0.07339,-2.436558 3.812821,-2.407791 5.201724,-1.171929 1.837624,-0.113404 4.766886,3.864863 5.423958,1.650704 -3.563853,-1.478154 -6.169569,-4.806446 -8.566311,-7.652047 -1.235204,-2.704274 2.910459,-3.571973 4.108939,-1.518097 1.385922,1.916885 4.434442,3.280909 4.192789,5.90208 0.547232,1.423687 3.653436,5.479817 2.705677,1.915897 -1.381124,-2.523543 -2.965769,-4.8526 -2.95883,-7.863342 -0.40691,-2.67718 3.766258,-2.286659 4.768806,-0.523526 1.412316,1.027146 3.461159,4.761912 0.530013,4.720027 -0.687991,-1.935426 -3.74853,-2.651929 -2.219923,0.405917 0.0346,3.019125 4.208891,1.297892 4.071631,3.690672 -1.767939,2.444502 1.961185,1.738915 2.460409,-0.127742 2.282761,-0.29373 3.089488,2.79504 1.107791,3.958494 -1.659431,1.149748 -3.583004,-1.164665 -5.079366,-1.202494 -0.719106,1.422809 3.083109,2.356154 3.132717,4.155753 1.960407,2.792103 -1.92822,2.885871 -2.5658,0.628872 -2.262673,-1.50999 -0.247219,3.807106 -3.169917,3.221573 -0.341033,0.232656 -0.603873,-0.178336 -0.907239,-0.255733 z m 83.849032,0.148428 c -1.65395,-1.114785 -0.69806,-3.792136 0.26468,-5.074327 -1.33921,-0.456585 -2.69817,3.63366 -4.63988,3.415171 -2.89693,0.0053 -0.0996,-3.439736 1.2295,-4.309422 2.87081,-2.913708 -0.41582,-0.685671 -2.21021,-0.53625 -2.52854,1.199811 -4.32421,-3.718554 -1.2716,-3.885579 1.75469,-0.19141 2.54384,3.565612 2.92292,0.528187 -1.11447,-2.862917 3.32961,0.09927 3.34973,-3.096568 1.26524,-1.290155 2.01111,-5.608098 -0.23784,-2.445484 -1.68494,2.931983 -2.74982,-1.032543 -1.40119,-2.578524 0.0676,-2.466094 2.87752,-3.906243 5.03673,-3.098989 2.03566,2.192375 -0.70753,4.410386 -0.82666,6.754514 -0.007,1.537264 -3.43701,4.528802 -1.24995,4.466031 2.27485,-1.958687 1.44413,-6.059399 4.55756,-7.433985 1.36504,-0.821719 3.92006,-3.435825 5.09579,-1.453973 0.76069,4.195832 -3.65786,7.005698 -6.92476,8.680703 -2.15451,0.645192 -3.09322,4.753981 -0.4377,1.56019 2.37417,-2.272343 5.83218,-3.146961 8.93535,-4.045537 2.25629,0.694796 1.45573,3.976772 -0.16675,4.986464 -1.02184,1.28877 -3.51285,3.310404 -4.74637,1.684795 -0.4265,-1.334657 3.31157,-4.048847 0.0289,-3.276881 -1.43942,0.739138 -4.81912,2.295781 -3.97523,3.810493 2.78828,1.948049 -0.85142,3.25665 -1.89556,0.786399 -2.14012,1.440307 2.82415,1.448813 0.88556,3.554106 -0.17302,1.200423 -1.45083,1.097899 -2.32303,1.008466 z M 93.778615,39.400086 c -2.46527,-1.819168 1.660699,-6.169057 3.360728,-3.350864 1.60457,1.764817 -0.147617,4.455962 -2.429805,3.8733 -0.476156,0.225987 -0.631301,-0.322263 -0.930923,-0.522436 z"
       id="path1" /></g><metadata
     id="metadata1"><rdf:RDF><cc:Work
         rdf:about=""><cc:license
           rdf:resource="http://creativecommons.org/publicdomain/zero/1.0/" /><dc:title>Logo EP Dutton</dc:title><dc:source>https://archive.org/details/karmareincarnati00blac/page/n7/mode/2up</dc:source><dc:subject><rdf:Bag><rdf:li>logo</rdf:li><rdf:li>publisher</rdf:li></rdf:Bag></dc:subject><dc:description>Stylized logo showing the company's initials inside a rounded frame, surrounded by four fleurs-de-lis.</dc:description></cc:Work><cc:License
         rdf:about="http://creativecommons.org/publicdomain/zero/1.0/"><cc:permits
           rdf:resource="http://creativecommons.org/ns#Reproduction" /><cc:permits
           rdf:resource="http://creativecommons.org/ns#Distribution" /><cc:permits
           rdf:resource="http://creativecommons.org/ns#DerivativeWorks" /></cc:License></rdf:RDF></metadata></svg>
