<?xml version="1.0" encoding="UTF-8"?>
<!-- Created with Inkscape (http://www.inkscape.org/) -->
<svg version="1.1" viewBox="0 0 397.33 593.33" xmlns="http://www.w3.org/2000/svg">
 <path d="m196 591.7c-3.3-.14537-12.123-.45845-19.606-.69575l-13.606-.43144-5.7146-7.2414 1.2639-11.316 7.2654-9.5255 1.5329 1.5329 6.1978-5.8226v-10.044l1.3333-.82405 1.3333-.82404v-6.6667l2.6667 1.6481v4.9944l3.8725 2.7575c2.1299 1.5166 4.5184 2.7575 5.3079 2.7575h1.4354l.85839-3.4201.8584-3.4201-7.4982-7.8265h1.5041c.82726 0 1.8749.6 2.3282 1.3333.45322.73333 1.5386 1.3286 2.412 1.3229l1.588-.0104 1.71-3.6563 1.71-3.6563-5.7155-4.6667h5.0954l3.2-3.2v-5.9414l-14.702-1.8369-.72774-1.1775c-.40025-.64763-1.8569-1.1775-3.237-1.1775h-2.5093l-.82235 1.3306-.82235 1.3306 4.5827 7.7579 7.5713 1.5143v2.7333h-1.9213c-1.0567 0-2.2921-.6-2.7454-1.3333-.45322-.73333-1.4586-1.3333-2.2342-1.3333h-1.4102l1.3497 5.1611-3.7053 1.4219v4.2411l-1.3333-.82404-1.3333-.82405v-7.0098c0-3.8554-.6374-10.458-1.4164-14.672-.77904-4.2142-1.1398-8.3744-.80161-9.2449l.61483-1.5826 3.1974 8.6667h2.4575c1.3516 0 2.7665.49996 3.1442 1.111l.68665 1.111 7.8016-1.145 1.8065 2.923h5.976l3.2-3.2v-6.8724l3.8753-4.2429c2.1314-2.3336 4.8314-6.1595 6-8.502 1.1686-2.3425 2.1247-5.3315 2.1247-6.6422v-2.3831l2.6667-1.6481v6.4144l-2.2559 4.5382c-1.2408 2.496-3.938 6.3382-5.9938 8.5382l-3.7379 4-.012 10.264-1.8325 4.2015c-1.0079 2.3108-2.5079 6.6711-3.3333 9.6895-.82546 3.0184-1.5008 6.7872-1.5008 8.3752v2.8872l-3.9847 1.5291.99197 1.527c.54558.83982 1.0285 3.6758 1.0732 6.3022l.0812 4.7752 2.9192 6.2102c1.6055 3.4156 2.9192 6.7433 2.9192 7.3948 0 .65154.83851 1.8805 1.8634 2.7311l1.8634 1.5465 12.12-6.7664h2.6647c1.4656 0 2.9946-.53371 3.3977-1.186s2.6886-1.509 5.0787-1.9037c2.3901-.3947 7.0457-1.3454 10.346-2.1128l6-1.3951 66.667-.1102 49.333-2.678 15.281 1.7244-.71942 1.164-.71942 1.164h-12.732l-1.8964 1.8964-111.21-.66196-9.3333 1.9301c-5.1333 1.0616-11.433 2.6704-14 3.5752-2.5667.90478-8.1002 3.2085-12.297 5.1193l-7.6301 3.4742-.0732 4.3814-4.169 1.5998.78065 1.2631.78064 1.2631 3.9705-1.3841c2.1838-.76127 3.9705-1.8741 3.9705-2.473s2.773-2.6388 6.1622-4.533l6.1622-3.4441 8.8378-1.4559c4.8608-.80075 9.8095-1.9584 10.997-2.5725l2.1593-1.1166 72.149.1912 1.7664 1.1199 1.7664 1.1199-14.667.18764c-8.0667.1032-21.567.40966-30 .681-8.4333.27135-21.633 1.1125-29.333 1.8693-7.7.75677-15.2 1.7383-16.667 2.1812-1.4667.4429-4.4667 2.5151-6.6667 4.6049l-4 3.7996-16 8.0168zm-19.028-7.8677 13.88-.14722 2.4157-6.3537h2.7327v-9.5794l-5.3333-6.7802v-4.6472l-1.8708-1.5526c-1.0289-.85393-3.7289-2.0855-6-2.7368l-4.1292-1.1842v5.9574l-4.3333 4.1145c-2.3833 2.263-5.7177 4.532-7.4097 5.0423l-3.0764.92784-1.257 3.306c-.69132 1.8183-1.257 5.267-1.257 7.6637 0 2.3967.39582 4.7535.8796 5.2372l.87961.87961zm197.03-8.0364c-2.2-.0997-10-.87069-17.333-1.7132-7.3333-.84252-14.336-2.0024-15.562-2.5776l-2.2292-1.0457-4.9596 2.6543-9.2488-1.8916v-2.5573l25.094-.7724 1.3862 1.3862 1.3862 1.3862h24.643l.83749-1.3551.83749-1.3551 2.2307 1.3786-1.5408 3.322-1.5408 3.322zm7.033-17.182-3.033-.0507-1.7192-1.9493-1.7192-1.9493-7.6141-.224c-4.1878-.12319-13.468-.0525-20.622.15699l-13.008.38099-3.3182-2.6918-69.333-1.2866.23334-.86778c.12833-.47727.42833-1.4095.66666-2.0716l.43334-1.2039 37.333 1.1844c20.533.65139 48.248 1.2081 61.588 1.2372l24.255.0529.7549 1.2214.75489 1.2214-1.3099 3.4452-1.3099 3.4452zm-100.43-1.4921c-2.8967-.11521-8.2667-.62094-11.933-1.1239l-6.6667-.91439 2.6667-.31867c1.4667-.17527 6.2667-.22716 10.667-.11532l8 .20335 1.2667 1.2392 1.2667 1.2392zm83.719-13.975c-7.1423.18393-18.086.13942-24.319-.0989-6.2333-.23833-12.233-.87215-13.333-1.4085l-2-.97518h-37.266l-.50507-2.5439-.50508-2.5439 88.455 1.8931 6.6185 3.0156-4.1586 2.3273zm-100.48-9.9466c-1.01-.0719-3.243-.90549-4.9623-1.8524-1.7193-.94694-5.5167-4.0381-8.4386-6.8693l-5.3126-5.1476-5.4799-10.667-.92344-11.333c-.50789-6.2333-1.4399-12.533-2.0711-14l-1.1477-2.6667 4.103 3.331.80262 11.001.80263 11.001 7.4577 14.438 9.7836 7.853 3.1884-1.9705-.92174-8.1471c-.50696-4.4809-1.4184-8.753-2.0256-9.4936l-1.1038-1.3465-.92086-16.556 5.7632 1.4519.95465-8.9144.95465-8.9144-1.7678-5.5338c-.97227-3.0436-3.3588-8.5338-5.3034-12.2l-3.5357-6.6667 11.453-11.372 4.2302-8.9806c2.3266-4.9393 5.4561-11.534 6.9545-14.656 1.4984-3.1212 3.0051-5.3943 3.3481-5.0513.34304.34304-.57494 3.1968-2.04 6.3417s-3.0443 6.948-3.5095 8.4513l-.84583 2.7334 4.6719 4.5282c2.5695 2.4905 4.6719 5.1282 4.6719 5.8615v1.3333l-9.3333-9.0462v8.2735l-5.3333-1.3947v8.2273l-4.0993-1.5731-5.234 4.7367v8.3267l1.8011 2.63c.99059 1.4465 2.202 4.28 2.6921 6.2967l.89099 3.6667 3.2825-8e-5 7.6333-9.5667-1.4833-1.4833c-.81581-.81581-1.4833-2.5844-1.4833-3.9302v-2.4469l2.579 1.3802c1.4184.75913 3.2184 1.3802 4 1.3802h1.421v-5.2496l3.9315 1.5086 2.0343-2.0343c1.1188-1.1188 2.0343-2.6036 2.0343-3.2996 0-.69593-.9-2.0122-2-2.9252s-2-2.1508-2-2.7508v-1.091l3.6667 1.9127c2.0167 1.052 4.2667 1.9068 5 1.8996.73334-.007 3.3646-1.8035 5.8474-3.9918 2.4827-2.1883 5.0344-3.9787 5.6705-3.9787.63607 0-1.0952 2.0283-3.8474 4.5074-2.7521 2.4791-6.9538 6.2127-9.3372 8.2969l-4.3333 3.7895v3.4062h-1.4199c-.78095 0-4.313 2.9703-7.8491 6.6006l-6.4292 6.6006-5.3652 11.466-2.9225 20.68-3.2196 5.1553 1.5118 3.0823c.8315 1.6953 1.8636 5.1823 2.2935 7.749.4299 2.5667 1.1471 7.5167 1.5938 11l.81219 6.3333zm96.83-2.1908c-5.1333.30751-18.508.33988-29.722.0719l-20.389-.48717-1.3564-3.5346-6.2955 1.2035-4.9042-2.851 45.843-.081.82405 1.3333.82404 1.3333h9.0186l.82404-1.3333.82405-1.3333h28.038l-.9105 4.6667-6.6425.22638c-3.6534.12451-10.843.47797-15.976.78547zm5.1147-11.287c-4.2797-.21536-12.281-.76313-17.781-1.2173s-17.692-.90415-27.093-1l-17.093-.17427.42607-3 .42606-3 25.333.81895 6.1646 3.0531 5.1326-3.2054h18.258l14.97-3.0064 4.8084 2.0118-19.669 3.4635-1.4322 1.4322-1.4322 1.4322h15.043l.86003 1.3916.86002 1.3916zm-13.036-14.392h-3.2546l-1.6481-2.6667h8.1574v2.6667zm-25.523-2.6667h-17.889v-1.9213c0-1.0567.67836-2.3406 1.5075-2.853l1.5075-.93166 50.064-.29406-.51479.83285c-.28313.45807-3.9456 1.1174-8.1389 1.4651l-7.6241.63225-.51164 1.5349-.51163 1.5349zm-158.15-3.298-.74639.74639-1.8208-4.7817 3.3136 3.2889zm-1.4706-7.017-.57543 2.9817.0364-13.333.55723 3.685c.30647 2.0268.29828 5.0268-.0182 6.6667zm87.061-5.685h-1.7778l.88888-.88889.88889-.88889 1.7778 1.7778zm-2.9638-2.6667c-.33449 0-1.3045-1.5282-2.1555-3.3961l-1.5474-3.3961.16689-4.9373.16688-4.9373 1.0373 5.3333c.57052 2.9333 1.4654 6.6833 1.9886 8.3333.52321 1.65.67762 3 .34314 3zm99.283-2.9416-9.6525.39174v-2.7835h4v-2.6667h-24v-2.6667h31.602l8.5341 2.975-.41554 2.1792-.41555 2.1792zm-181.83-3.0584-1.1309 2.6667.80609-8c.44335-4.4 1.2699-8.5022 1.8367-9.116l1.0307-1.116-.70587 6.4493c-.38823 3.5471-1.2148 7.6493-1.8367 9.116zm62.644 1.3111c-.37889.37889-1.0889.28889-1.5778-.2-.48889-.48888-.88889-1.5089-.88889-2.2667v-1.3778l1.5778 1.5778c.86777.86778 1.2678 1.8878.88889 2.2667zm-19.686-2.7148-1.263.78055-.71007-1.1489c-.39054-.63191-1.0199-3.7917-1.3985-7.0218l-.68843-5.8728 1.6397 4.6667c.90184 2.5667 2.0995 5.3752 2.6615 6.2412l1.0218 1.5745zm15.492-10.099-.53962 3.5026-.31528-8 6.3408-7.2011 6.4542-.62159c3.5498-.34188 7.6083-1.0758 9.019-1.6309l2.5648-1.0093-.89815 2.3405c-.49398 1.2873-.89814 4.0914-.89814 6.2315v3.891h-2.1051l.0526-3.6667.0526-3.6667-13.118.62548-6.0703 5.7027zm97.806-1.1641h-2.588l-1.7203-2.7835 1.7113-2.062 1.7113-2.062 1.7368 2.3752c.95525 1.3064 1.7368 2.8606 1.7368 3.4537v1.0785zm8.6573-.206-2.3764.46067 1.1948-3.588 4.7528-.92134-.59738 1.794-.59738 1.794zm-125.74-6.595-.9964 3.5436-4.6375-4.7134-8.9346 4.2606-4.5473-2.3434c-2.501-1.2889-5.3598-3.4947-6.3528-4.9018l-1.8054-2.5583-8.3891.68794-7.5876-3.8409-4.3751-7.3527 3.4797-5.5719-7.1148-10.751.92167-7.3768c.50692-4.0572 1.4292-8.3302 2.0496-9.4954.62036-1.1653 2.6651-5.5315 4.5439-9.7028 1.8788-4.1713 3.416-8.324 3.416-9.2284 0-.90433-1.0007-2.75-2.2238-4.1016l-2.2238-2.4573-.21898-24.161 4.8422-3.5568-.4211-5.1222-.4211-5.1222-5.9976-2.6313-1.6467-8.7775 1.3993-9.4282 1.3993-9.4281 6.8456-9.8782v-9.2907l3.9458-4.6163c2.1702-2.539 3.9702-5.254 4-6.0335.0298-.77947 1.805-3.0946 3.9449-5.1448l3.8907-3.7276 18.219-1.4458 6.6489-4.4656c3.6569-2.4561 7.2316-4.4656 7.9438-4.4656s3.5751-2.2265 6.362-4.9478l5.0671-4.9479 2.3225 3.1732c1.2774 1.7453 3.9725 5.5621 5.9892 8.4818l3.6667 5.3086.008 2.1327c.005 1.173.91175 3.8652 2.0161 5.9827 1.1043 2.1175 2.9576 7.1171 4.1185 11.11l2.1106 7.2602-.65569 2.5074-.65569 2.5074 3.4559 2.8682-.64435-13.718-.64436-13.718-2.7827-6.6667c-1.5305-3.6667-4.4598-9.2167-6.5095-12.333l-3.7268-5.6667 8.5764.0838 2.1985 3.0302c1.2092 1.6666 2.8558 5.3978 3.6592 8.2914l1.4607 5.2612.014 18h3.8366l1.8483-12.325-1.5818-7.504c-.86996-4.1272-2.2288-8.8136-3.0196-10.414l-1.4379-2.91 1.6688-4.3489 1.1879.73418c.65336.4038 2.5517 3.5918 4.2184 7.0845l3.0305 6.3503.38713 10c.21292 5.5.44012 10.3.50489 10.667.0648.36666.97523-.83334 2.0233-2.6667l1.9055-3.3333.0473-8.892.0472-8.892-2-4.108c-1.1-2.2594-2.886-5.9323-3.9689-8.1618l-1.9689-4.0538 2.3022-.87533c1.2662-.48142 3.3945-2.2557 4.7296-3.9428l2.4274-3.0674 2.9059 1.5062c1.5983.82839 5.4069 3.5268 8.4637 5.9966 3.0568 2.4697 5.9068 4.4904 6.3333 4.4904.42659 0 .77561-1.1467.77561-2.5481v-2.5482l-4.3333-3.4589c-2.3833-1.9024-5.4001-4.4784-6.7039-5.7244l-2.3706-2.2655-16.999-1.0824-11.891 10.961h-10.502l-3.2666-3.2666-2.6153 1.6333c-1.4384.89831-3.4248 1.6333-4.4142 1.6333h-1.799l-16.835 18.62-4.8019.77916c-2.641.42854-6.9019 1.6077-9.4686 2.6204-2.5667 1.0127-7.1768 2.2185-10.245 2.6796l-5.578.83838-6.0886 5.4712-6.0876 5.4711v3.2346l-4 1.5349v5.417h-3.595l-4.7824-10.605 1.7858-2.364c.98219-1.3002 3.4009-4.164 5.3749-6.364s3.9614-5.2418 4.4164-6.7595l.82727-2.7595 9.3063-4.4379v-1.6153c0-.88841 1.6122-3.2981 3.5828-5.3549 1.9705-2.0568 4.1401-3.7396 4.8214-3.7396s4.0994-2.1 7.5958-4.6667c3.4965-2.5667 7.0822-4.6667 7.9683-4.6667s3.1366-1.2 5.0012-2.6667c1.8646-1.4667 4.312-2.6667 5.4387-2.6667 1.1267 0 2.9958-.85516 4.1535-1.9004 1.1577-1.0452 6.905-3.5661 12.772-5.602l10.667-3.7016 12.015.0443c6.6085.0244 13.658.45671 15.667.96074l3.6513.91641v-2.5966l-5-.79362c-2.75-.43649-8.6301-1.4499-13.067-2.2521l-8.0669-1.4584.122-13.617-7.9883-11.009-8.4114-3.0712-6.4925-8.5864-.86031-4.3947-.86032-4.3947-3.1572-4.272c-1.7365-2.3496-3.5121-5.2827-3.9458-6.5181s-1.9594-2.8728-3.3905-3.6386l-2.602-1.3925-1.6738 2.0168-1.6738 2.0168-.13283 6.5968-.13284 6.5968-2.6667-.77989c-1.4667-.42894-5.2124-2.0219-8.3239-3.54l-5.6572-2.7601-1.7562 1.7562 3.202 3.1571c1.7611 1.7364 4.552 3.8666 6.202 4.7338l3 1.5767v6.6831l6 12.955 4.6667 2.4674c2.5667 1.357 7.5167 5.0995 11 8.3165l6.3333 5.8491-.0204 2.8176c-.0112 1.5496-.46123 3.4627-1 4.2512-.53877.78849-6.8369 4.3048-13.996 7.814-7.1589 3.5092-13.459 7.1235-14 8.0318-.54109.90826-2.5502 2.492-4.4647 3.5193-1.9145 1.0274-5.9638 3.5251-8.9986 5.5504-3.0347 2.0254-6.2627 4.8754-7.1732 6.3333l-1.6555 2.6508h-12.375l-3.2893-4.3333c-1.8091-2.3833-3.9966-6.4918-4.8612-9.1298l-1.5718-4.7965.85862-2.2375.85862-2.2375 1.7995 1.4934c.9897.82138 2.3739 1.2867 3.076 1.034l1.2765-.45939-3.5374-8.3561-11.992 2.7441-4.9343-2.0318 1.6667-.62255 1.6667-.62254v-1.8889c0-1.0389.48-1.8889 1.0667-1.8889.58666 0 1.7767.71 2.6444 1.5778l1.5778 1.5778 1.7899-1.7899-12.42-10.932-.80731-3.2166-.80731-3.2166h-4.0824l.80416 6.7899.80417 6.7899-1.8242-1.514-1.8242-1.514-3.7942.94562c-2.0868.52009-5.5942 2.0283-7.7942 3.3515s-6.0233 3.3235-8.4962 4.4451l-4.4962 2.0393h-13.864l-12.524 12h-15.627l-1.617-1.9484c-.88935-1.0716-2.9128-2.336-4.4966-2.8098l-2.8796-.86146-10.667-9.9678-4.6667-1.7554c-2.5667-.96547-6.0167-2.9629-7.6667-4.4387l-3-2.6833v-9.1535c0-5.0344.64148-14.906 1.4255-21.938l1.4255-12.784-3.0926-12.891-13.092-11.914v-11.041l-8.0715-11.731.85011-3.3871c.46756-1.8629 1.3479-3.6947 1.9562-4.0707l1.1061-.68363 2.4128 2.4655c1.3271 1.356 4.5128 3.9997 7.0795 5.8748 2.5667 1.8751 6.0167 3.8194 7.6667 4.3206l3 .91127v-17.187l3.4609-2.8723 13.885 14.617 1.9871 21.928 11.333 5.1232v3.5435h4v6.4731l3.5131 2.7634c1.9322 1.5199 4.3322 2.7634 5.3333 2.7634h1.8202v4h2.0662c1.1364 0 3.9864-1.0168 6.3333-2.2595s5.4453-2.4585 6.8852-2.7018 3.9483-1.6919 5.574-3.2192l2.956-2.777 1.8488-10.943 7.9965-9.9506 9.6733-4.5949 24.301.57711 9.7906-4.6688-.37932-1.4966c-.20863-.82316-4.3558-5.2022-9.2159-9.7311l-8.8365-8.2344h-17.18l-11.147-9.5411v-14.694l4.0813-8.2157c2.2447-4.5186 5.0998-10.016 6.3448-12.216s3.3083-5.4835 4.5854-7.2967l2.3219-3.2967v-5.9159l2.6667-1.6481v6.824h1.8202c1.0011 0 3.2511-1.0834 5-2.4075 1.7489-1.3241 5.8798-3.1826 9.1798-4.13s7.2-2.3633 8.6667-3.1466l2.6667-1.4241 19.333-1.2426-.0664-1.4913-.0663-1.4913-13.163-10.667-.0189-1.6667-.0189-1.6667h-3.5582l-12.524-13.228-9.6778-1.8156-1.8909 2.5218-1.8909 2.5218 1.4742 11.211-1.3738 7.7281c-.75556 4.2504-1.6807 8.7781-2.0559 10.061-.3752 1.2833-1.2417 2.3333-1.9257 2.3333h-1.2435v-2.4c0-1.32.61894-3.0189 1.3754-3.7754l1.3754-1.3754 1.6781-27.545 2.4522-2.4522c1.3487-1.3487 3.3168-2.4522 4.3735-2.4522s2.2921.6 2.7454 1.3333l.82404 1.3333h5.9681l4.7465 5c2.6106 2.75 5.1135 6.05 5.5621 7.3333l.81558 2.3333 3.417.06638 17.333 17.533 11.333 5.3608v2.373l4.6667.07817 8.4171 7.6613 3.3978 15.183-1.5741 2.5206c-.86578 1.3863-1.5941 3.2787-1.6185 4.2054s-1.1682 3.0318-2.5418 4.6783l-2.4974 2.9935-10.25 3.3463-.4243 5.1757-.42429 5.1757 2.8486 2.8486v6.2546l6.7111 6.7111 2.9778-.9234c1.6378-.50788 5.4592-3.1942 8.492-5.9697 3.0328-2.7755 7.3815-6.0119 9.6637-7.1921l4.1495-2.1458 3.6697 2.3655c2.0183 1.301 4.6987 3.5657 5.9564 5.0327l2.2867 2.6672-.71649 4.0564-.71648 4.0564 6.3521 3.3995 25.92 1.1904c14.256.65473 27.786 1.2013 30.066 1.2147l4.1459.0243 1.684 2.0292c.92622 1.116 2.5106 2.0291 3.5208 2.0291h1.8367v-1.5197c0-.83582 1.05-2.3167 2.3333-3.2909l2.3333-1.7712 12.667-.0848v-5.2395l3-1.5942c1.65-.87678 6.45-4.5879 10.667-8.2469l7.6667-6.6527v-8.3401l-4.272-6.0991 1.4576-1.4576 6.5756 7.0952 2.1254-3.4389.1224-26.026h-3.1488l-5.171 6.5739-1.1243 7.0464-1.1243 7.0464-.92226-11.231 1.531-2.8608 1.531-2.8608-1.4568-1.4569c-.80127-.80127-1.4568-1.9369-1.4568-2.5235v-1.0667h5.2008l2.1963-3.9246 6.6028-.74204v11.948l4.9408.96744-.94078-13.696 6.6049.78062 1.4791 2.9837c.81348 1.641 4.8774 6.5465 9.0309 10.901l7.5518 7.9173v6.7073l-2.6667 1.6481v-4.2411l-3.837-1.4724-1.6677-7.593-1.9143-1.5887c-1.0529-.8738-1.974-1.3653-2.0469-1.0921-.0729.27313-.36335 3.0466-.64533 6.1633l-.51269 5.6667h5.1333l.76711 1.2412.7671 1.2412-1.3551.83749c-.74529.46062-1.3551 1.4498-1.3551 2.1981v1.3606l8.5455-1.8769-2.2916 3.1658c-1.2604 1.7412-2.6514 3.9266-3.0913 4.8565l-.79967 1.6906 1.6469 3.9761c.90581 2.1868 2.13 3.9761 2.7204 3.9761s2.6698 3.45 4.6208 7.6667c1.951 4.2167 4.2017 8.8667 5.0015 10.333.79982 1.4667 2.3328 4.4667 3.4066 6.6667s3.1152 6.3021 4.5363 9.1158l2.5839 5.1158-1.5738 1.5738-1.9232-2.5693c-1.0577-1.4131-2.2948-4.1994-2.7491-6.1917s-2.2826-5.769-4.0631-8.3926l-3.2371-4.7702v-4.9296l-4-1.535v-1.5325c0-.84287-1.65-3.4691-3.6667-5.8361-2.0167-2.367-4.3246-5.4344-5.1288-6.8165l-1.4621-2.5129-8.4091 8.4091v5.0051l-1.6253 1.6253-1.6253 1.6253.57058 29.949-3.0003 15.333h-3.6531v4.9049l-4.6311 4.2142c-2.5471 2.3178-5.2714 4.2142-6.054 4.2142s-3.1986 1.3128-5.3689 2.9174l-3.946 2.9174v4.3329l-7.4792 7.1656h-10.594l-2.63-1.8003c-1.4465-.99015-4.9358-2.1615-7.754-2.603l-5.1239-.80268-8.8165-6.7247-3.2621 3.9306h-7.7673l-6.6561-4.3612-1.6786 1.6786 2.5476 5.008c1.4012 2.7544 3.2985 5.608 4.2162 6.3413.91777.73334 2.8678 4.6249 4.3333 8.6478s2.6647 8.422 2.6647 9.7756v2.4611l-4.6667 5.6951c-2.5667 3.1323-4.6667 6.3832-4.6667 7.2244v1.5294h2.0145c1.108 0 4.5611 1.197 7.6736 2.6601l5.659 2.6601 11.32 10.987-.0296 2.8466-.0297 2.8466-4.6074 5.8357-9.0644.83097-1.4008 2.2379-1.4008 2.2379 3.5996 7.1146c1.9798 3.913 3.5996 8.225 3.5996 9.5823v2.4677l9.8544 9.0263h3.572l12.957 13c7.1263 7.15 14.59 15.199 16.587 17.887l3.6296 4.8867 7.9289 1.7415 4.9192 3.9092c2.7055 2.1501 5.7366 3.9092 6.7358 3.9092h1.8167l.0261 1.6667.0261 1.6667 13.281 14.04.008 1.6467c.005.90566.99232 3.4467 2.1951 5.6467l2.1869 4 .13822 11.6.13821 11.6-1.6667 1.6671c-.91667.9169-1.6667 2.655-1.6667 3.8626v2.1955l-9.2666 9.5415-3.0334.95744c-1.6684.52659-7.7223 4.221-13.453 8.2098l-10.42 7.2524-3.3246-1.2758-3.2511 2.4988c-1.7881 1.3744-3.7518 2.5122-4.3637 2.5285-.61193.0163-4.6684 2.8232-9.0143 6.2376l-7.9017 6.2079-1.4277-1.4277 5.2534-4.1607c2.8894-2.2884 5.5486-4.1607 5.9096-4.1607.36091 0 4.2502-2.4 8.6429-5.3333 4.3927-2.9333 8.8438-5.3333 9.8914-5.3333h1.9046l9.8544-9.0263v-4.307h-7.5867l-4.7993-5.3031-9.9689 1.5941-21.651-4.6779 1.2178-1.4732 1.2178-1.4732-.70766-3.6864c-.38921-2.0275-1.1857-3.9818-1.7699-4.3429l-1.0622-.6565-7.5571 2.883-9.7818-3.2188-.76654-2.1559c-.4216-1.1858-2.5606-4.8559-4.7532-8.1559-2.1927-3.3-4.4468-6.9639-5.0092-8.1419-.56241-1.1781-2.9542-4.3281-5.3152-7s-4.8467-4.8581-5.524-4.8581-1.5538-.8402-1.9479-1.8671l-.71648-1.8671-10.862-1.8351-4.6619-4.1273c-2.564-2.27-4.6486-4.7669-4.6322-5.5487.0163-.78173 1.2499-2.9213 2.7413-4.7547l2.7117-3.3333-.90971 5.9697-.9097 5.9697 1.9135-1.5881c1.0524-.87345 4.2186-5.0598 7.0359-9.303 2.8173-4.2432 6.8586-10.115 8.9806-13.048s4.8174-7.4333 5.9898-10l2.1315-4.6667.49716 1.3966c.27344.76814-.70423 4.8885-2.1726 9.1564l-2.6698 7.7598 1.6421 2.657 3.8276-8.2317c2.1052-4.5274 3.8276-8.7298 3.8276-9.3387s2.1-5.3561 4.6667-10.55c2.5667-5.1934 4.6667-9.7593 4.6667-10.146 0-.38701-1.35-.69323-3-.6805l-3 .0231-12.713 12.31c-6.9919 6.7706-14.212 14.41-16.045 16.977-1.8329 2.5667-4.0494 6.3167-4.9255 8.3333l-1.5929 3.6667h-2.673l-.90841-3.6194c-.49963-1.9907-2.4611-5.8214-4.3587-8.5127-1.8977-2.6913-5.2875-6.1626-7.5328-7.7139-2.2454-1.5514-4.841-2.8206-5.7681-2.8206h-1.6856l3.1014 4.1028c1.7058 2.2565 4.3014 5.4746 5.7681 7.1514 1.4667 1.6768 3.4167 4.3305 4.3333 5.8972s2.4016 4.0336 3.3 5.482l1.6333 2.6334-1.3319 1.3319-1.3319 1.3319-7.3717-1.9715-11.292-11.128-7.7063-2.9299-1.1453 1.1453-1.1453 1.1453 5.3504 6.1691 3.8551-3.1995 3.128 5.8446-3.2568 2.0128 5.8634 5.8634 1.6731-2.2881 1.6731-2.2881 5.8202 8.1737-1.3575.83896c-.74661.46143-1.3575 1.4184-1.3575 2.1266v1.2876l6.8756 2.6141-1.7542 7.9866h1.4393c.7916 0 1.4202.45 1.3969 1-.0233.55-.95797 2.2-2.077 3.6667l-2.0346 2.6667-1.2785-2.2546c-.70318-1.24-3.9799-5.223-7.2817-8.8511l-6.0032-6.5965-5.3567-1.4008 4.037 4.5979c2.2204 2.5288 4.037 5.122 4.037 5.7626s2.772 4.5677 6.1601 8.7269l6.1601 7.5621-2.9868 2.9868v12.267l-2.899 2.899 3.0285 1.8717-1.3929 1.6784-1.3929 1.6784-.33848 13.381-.33847 13.381 4.4297 4.9764.87325 6 .87326 6-8.4275 12.667h-3.7487v4h-1.4223c-.78226 0-3.4839 1.5724-6.0036 3.4943l-4.5813 3.4943zm87.165-79.866c.92472 0 2.0617-.61547 2.5266-1.3677l.8453-1.3677-13.856-13.567-1.1517 1.8179c-.63346.99984-1.1609 2.5211-1.1722 3.3807l-.0204 1.5628 5.5733 4.7706c3.0653 2.6238 6.3299 4.7706 7.2546 4.7706zm-121.67-9.7182c.72678-.24226 1.721-1.3048 2.2094-2.3611.48841-1.0564 1.5813-3.2625 2.4286-4.9026.84731-1.64 1.5406-4.19 1.5406-5.6667v-2.6848h-2.6332l-3.3501 5.3068c-1.8425 2.9188-3.3501 6.1188-3.3501 7.1111s.4125 2.2168.91667 2.7209c.50416.50417 1.5113.71845 2.2381.4762zm96.407-22.282c.49226 0 1.9923-.99299 3.3333-2.2066 1.3411-1.2136 2.4383-3.0136 2.4383-4v-1.7933h3.5494l1.784-3.3333 1.784-3.3333h3.2329l7.3431-9.6273-6.3599 1.9171-5.123 4.8551c-2.8177 2.6703-6.8677 7.3632-9 10.429-2.1323 3.0655-3.877 5.9155-3.877 6.3333s.40276.75976.89501.75976zm-93.018-14.846 2.5435-3.141-1.494-2.4173-1.7965 2.4568c-.98806 1.3512-1.7965 3.3086-1.7965 4.3497v1.8929zm-6.5149 1.5123h1.3619l1.5731-3.6667c.86519-2.0167 2.6932-5.3167 4.0622-7.3333l2.4891-3.6667h-3.7578l-3.5452 6.5138c-1.9499 3.5826-3.5452 6.8826-3.5452 7.3333s.61286.81956 1.3619.81956zm-2.8619-9.3333h1.5v-3.3585l5.3333-3.3307v-1.5694c0-.86319 1.3046-2.9581 2.8991-4.6554l2.8991-3.0859h3.5352v-3.7504l-2.672.69874c-1.4696.38431-5.0776 2.8781-8.0178 5.5418l-5.3458 4.8431-.81551 4.3333-.8155 4.3333zm-68.167-106.8c.18333.07191.33333-.33555.33333-.90545s-1.65-2.8624-3.6667-5.0943c-2.0167-2.232-5.0167-6.4974-6.6667-9.4787s-3-6.4623-3-7.7356v-2.3151l4 3.3197.04214 2.1701.04214 2.1701 6.4545 7.3333h5.4612v-1.5548c0-.85515-.90188-2.5052-2.0042-3.6667-1.1023-1.1615-4.1023-4.7186-6.6667-7.9047-2.5644-3.186-4.6625-6.336-4.6625-7s-1.05-2.3132-2.3333-3.665c-1.2833-1.3518-3.3554-4.3518-4.6047-6.6667l-2.2713-4.2088h-2.9704l.89266 3c.49096 1.65 1.7823 4.8 2.8696 7l1.9769 4 1.1727 12.667c.64498 6.9667 1.2321 13.567 1.3048 14.667l.13208 2 2.5478-6.3679 2.6508 2.3989c1.4579 1.3194 3.9966 3.1434 5.6416 4.0532s3.1408 1.7131 3.3242 1.785zm-65.24-6.9422.46057-2.3915-2.1104-3.2209c-1.1607-1.7715-2.1104-4.0685-2.1104-5.1045s-.9-2.6306-2-3.5435l-2-1.6598v8.7415l7.2996 9.5703zm87.531.40625c.38961 0 .63456-7.65.54434-17-.0902-9.35-.43058-18.05-.75638-19.333l-.59234-2.3333h-2.487v9.176l-2.6667 1.6481v14.184l1.8032 4.4962c.99173 2.4729 2.1729 5.5462 2.6248 6.8295.45192 1.2833 1.1404 2.3333 1.53 2.3333zm182.71-33.333h3.3333v-2.6667h-6.6667v2.6667zm19.667-2.6716 3.6667.005v-3.7881l-7.6238-1.6745-4.1881-4.7306c-2.3035-2.6018-4.1881-5.458-4.1881-6.3472 0-.88916-.83326-2.7562-1.8517-4.149l-1.8517-2.5323 1.2528-3.2648-8.2161-4.2487v-2.5982h-3.7381l-5.5503-8.6667-.0225 2.0664c-.0124 1.1366 1.5843 4.5445 3.5482 7.5732l3.5707 5.5068 4.8452 1.2671.55447 1.7932c.30496.98629 1.3206 4.5812 2.2571 7.9886s2.3506 7.0815 3.1425 8.1646c.79194 1.083 3.5293 3.2429 6.083 4.7996l4.6431 2.8305zm-53.725-1.3284h1.0408l.16697-7.2424.16696-7.2424-4.9823-11.515-3.8338-2.7702c-2.1086-1.5236-5.881-3.4763-8.3833-4.3393l-4.5496-1.5691-1.4067 1.4067 2.9718 2.0815c1.6345 1.1448 3.6983 2.974 4.5862 4.0649.88794 1.0909 2.5199 2.9958 3.6265 4.2332 1.1066 1.2374 3.2909 4.4172 4.8538 7.0662l2.8417 4.8164.93004 5.5049.93004 5.5049zm-230.66-1.3333h7.5318l8.1816-8.6667.65902-4.6667c.36246-2.5667.35762-5.5117-.01074-6.5445l-.66976-1.8778-11.128 12.827-15.225 1.2626-1.5453 2.5004 4.6745 5.1653zm126.87-1.4178c.4481.0465 2.2471-2.6155 3.9977-5.9155 1.7506-3.3 3.5332-6 3.9613-6 .42808 0 4.9291 2.031 10.002 4.5133l9.2239 4.5132 3.3333-2.6864v-13.007h3.3762c1.8569 0 5.5302.9 8.1628 2s6.0934 2 7.6905 2h2.9038l1.4306-1.4306 1.4306-1.4306-1.5054-4.9027c-.82799-2.6965-2.633-6.5714-4.0112-8.611l-2.5058-3.7083.78977-.78977.78978-.78977 1.7242.82289c.94829.4526 2.7629 1.5666 4.0325 2.4754l2.3083 1.6526 2.1979-2.1979 2.1979-2.1979-1.7177-6.8439-3.7445-1.9363c-2.0594-1.065-4.4799-2.8225-5.3788-3.9056l-1.6343-1.9692 1.4183-.87654c.78005-.4821 2.2868-2.9553 3.3484-5.4959l1.9301-4.6194-1.1864-3.1205-1.1864-3.1205-7.1162-1.7861-2.2058 1.6884c-1.2132.92865-5.0733 4.5545-8.578 8.0574l-6.3722 6.369h-6.0556l-3.2 3.2v6.635l-5.8781 8.5785-7.2 4.2532h-11.661l-9.123-8.3326-18.163 3.246-12.922-1.7772-4.5264 1.892c-2.4895 1.0406-5.299 2.8236-6.2432 3.9623l-1.7168 2.0703 6.5932 5.1862.8405 11.481 2.2553 1.4131 2.2553 1.4131 2.5164-2.2773c1.384-1.2525 3.1036-2.2773 3.8214-2.2773s3.2082 2.7 5.5342 6l4.2292 6h6.1152l2.5132-4.6667c1.3822-2.5667 3.0387-4.6667 3.681-4.6667s3.3102 2.1424 5.9288 4.761c2.6185 2.6185 6.0485 5.2805 7.6222 5.9155 1.5737.63499 3.2279 1.1926 3.676 1.239zm137.47-3.9155h2.6219l-3.1418-3.7338c-1.728-2.0536-4.623-6.8536-6.4333-10.667-1.8103-3.8131-3.7499-6.9328-4.3101-6.9328-.56021 0-1.0186.52534-1.0186 1.1674 0 .64209 1.5556 4.6921 3.4568 9 1.9012 4.3079 4.0747 8.5826 4.8299 9.4992l1.3731 1.6667zm-268.03-5.4236 3.588.0902.82405-1.3333.82404-1.3333h5.242l2.5259-6.6435-.82795-2.3449c-.45537-1.2897-1.861-3.5449-3.1236-5.0116l-2.2957-2.6666-1.5577-19.749-8.6434-8.9178h-1.6598c-.91287 0-2.0468.62628-2.5199 1.3917l-.86014 1.3917 1.2547 1.6083c.69006.88454 1.9059 3.545 2.7018 5.9121l1.4472 4.3039-.96461.59616c-.53053.32789-3.9387-.0382-7.5737-.81343l-6.6091-1.4096-4.1392-3.1571c-2.2765-1.7364-4.873-3.1571-5.7698-3.1571h-1.6307l.8664 3c.47652 1.65 1.9271 4.5 3.2236 6.3333l2.3572 3.3333 10.399 1.3333.43507 3.8032.43507 3.8032-5.5368 3.8781v3.7033l7.3333 3.5038.40347 2.815.40347 2.8151 2.9299 1.4156c1.6114.77855 4.5445 1.4562 6.5178 1.5058zm307.64-3.177c.67451-.41687 2.7745-3.5278 4.6667-6.9133l3.4403-6.1554v-6.3308h-2.5596l-1.6331 5.6667c-.89823 3.1167-2.4223 6.8502-3.3869 8.2967-.96454 1.4465-1.7537 3.4319-1.7537 4.412v1.782zm-327.23-16.733h3.5289l-.44936-2.3333-.44936-2.3333h-5.2603l-.44936 2.3333-.44936 2.3333zm151.68-4h5.2342l3.5145-2.7645c1.933-1.5205 4.5737-4.3705 5.8682-6.3333l2.3537-3.5688.009-6.1111c.005-3.3611-.36631-6.4862-.82477-6.9447l-.83355-.83356-11 11.997-18.24 1.634-1.5612 4.0685 10.246 8.8568zm-8.4078-15.357c3.2656-.36635 7.9156-1.3814 10.333-2.2557l4.3959-1.5896v-3.4643h3.779l1.4468-6.7464 1.4468-6.7464-.8401-5.2536-.84009-5.2536h-4.666l-1.7328 2.0879c-.95304 1.1484-3.5765 3.0321-5.8299 4.186s-4.4162 2.5879-4.8061 3.1866c-.38994.59864-4.2899 2.0888-8.6667 3.3114s-9.9077 2.5147-12.291 2.8714l-4.3333.64847v3.7981l3.7328 3.6217c2.053 1.992 5.803 4.6662 8.3333 5.9429l4.6006 2.3212zm-3.8631-8.6495-1.9257.007 4.5181-3.3337c2.4849-1.8333 5.1515-3.3118 5.9257-3.2854l1.4076.048-4 3.2788c-2.2 1.8033-4.8666 3.2817-5.9257 3.2854zm194.66 6.6733h2.598v-6.7737l-11.333-10.526-5.4903-.0332-4.768 3.4865 4.4625 3.4303c2.4544 1.8867 6.1434 5.0022 8.1979 6.9234l3.7354 3.4931zm1.2646-12.175 2 .14173 3.3333-4.9835 3.3333-4.9835.20194-2.6667c.11107-1.4667.26107-3.7167.33334-5l.13138-2.3333h4v-3.4588l-11-10.541-1.2222 3.3333h-3.7778v7.5011l-8.1917 7.8322.70013 3.5214.70014 3.5214 7.4581 7.9741zm7.7374-23.118c-.35344.35344-1.7319-.56106-3.0633-2.0322l-2.4207-2.6748h1.3767c.7572 0 2.1357.9145 3.0633 2.0322.92762 1.1177 1.3974 2.3214 1.044 2.6748zm-240.88 21.814c.47154.0799 1.1388-.60469 1.4828-1.5214.34402-.91667.19488-4.9667-.33142-9l-.95692-7.3333 1.112-3.891c.6116-2.14 2.6334-6.19 4.493-9 1.8596-2.81 3.9296-5.109 4.6002-5.109.67054 0 2.2055-.9863 3.411-2.1918s4.0983-3.4855 6.4286-5.0668l4.2368-2.875 12.771-3.5755 17.596 1.6431 6.4208 4.2071 1.4386 3.5961c.79125 1.9779 1.9172 4.7961 2.5022 6.2628.58498 1.4667 1.4217 4.3167 1.8594 6.3333l.7958 3.6667h3.9114l7.0374-10.634-1.2239-14.758-7.5626-7.8937-6.1066-2.1419c-3.3586-1.178-7.2904-2.7773-8.7372-3.554l-2.6306-1.4121-19.923.3787-1.341 1.341-1.341 1.341h-6.0604l-15.391 7.2873-14.213 14.713-4.1509 8.6577-4.1509 8.6577.0958 6.3536.0959 6.3536 1.7409 2.0977c.95751 1.1537 3.8768 3.1833 6.4872 4.5101 2.6105 1.3268 5.1321 2.4778 5.6037 2.5577zm16.476-6.0758 4-.73757 8.8323-6.6367 1.2505-3.2891c.68779-1.809 1.2505-3.8787 1.2505-4.5993 0-.72061-1.5876-2.7816-3.528-4.5799l-3.528-3.2697h-2.2671c-1.2469 0-4.1658.94719-6.4864 2.1049l-4.2193 2.1049-2.6522 5.822c-1.4587 3.2021-2.6522 6.9632-2.6522 8.3581v2.5361l6 2.924zm1.8436-7.3715-2.1564 1.6255-2.8679-3.4557.92373-1.4359c.50805-.78975 2.8397-2.4174 5.1814-3.6171l4.2577-2.1812.63806 1.0324.63805 1.0324-2.229 2.687c-1.226 1.4779-3.1994 3.4185-4.3855 4.3125zm25.76-9.0741h6.5237l3.3018-3.5628c1.816-1.9595 3.6416-4.9162 4.0567-6.5704l.75488-3.0077-1.6618-5.236-7.6298-1.1198-3.1412 1.1527c-1.7277.63396-5.3912 3.3425-8.1412 6.0189-2.75 2.6765-5 5.4473-5 6.1574 0 .7101.993 2.3883 2.2066 3.7294l2.2066 2.4383zm2.3964-6.6667h-2.6667v-1.2577c0-.69175 1.3335-2.1918 2.9633-3.3333 1.6298-1.1416 4.0298-2.0756 5.3333-2.0756 1.3035 0 2.37.3 2.37.66667s-1.2 1.8667-2.6667 3.3333l-2.6667 2.6667zm193.33-4h2.6667l-.0147-2.3333c-.008-1.2833-.38658-4.5833-.84112-7.3333l-.82645-5h-3.6511v14.667zm-82.425 370.67c-.77985 0-1.8134-.63991-2.2968-1.422-.48338-.78212-.60429-1.6966-.26869-2.0322s1.3692.30432 2.2968 1.422l1.6866 2.0322zm9.4247-41.736-5.6667 6.1422v-1.5664c0-.86155 2.4733-4.2496 5.4962-7.5291l5.4962-5.9627 5.305-1.4285c2.9178-.78568 5.5694-1.1642 5.8924-.84111.32307.32307-1.9875 1.59-5.1346 2.8154l-5.722 2.228zm39.242-356.06c-.23998.23998-2.0426-1.2403-4.0058-3.2894-1.9632-2.0491-3.5695-4.3919-3.5695-5.2061v-1.4804l-12-10.563v-2.9971h-4v-1.2259c0-.67424-3-4.5084-6.6667-8.5203-3.6667-4.0119-6.6667-7.9603-6.6667-8.7741v-1.4797h13.038l2.617 2.3333c1.4393 1.2833 5.7058 5.9799 9.481 10.437s6.8641 8.6626 6.8641 9.3459c0 .68338 1.2 1.9919 2.6667 2.9079l2.6667 1.6654v3.9774h-1.2655c-.69601 0-2.9457-2.25-4.9993-5-2.0536-2.75-4.7841-5.784-6.0678-6.7423-1.2837-.95825-2.334-2.4745-2.334-3.3695 0-.89498-1.7662-3.561-3.9248-5.9244l-3.9248-4.2971h-6.817v1.037c0 .57037 4.6195 6.1204 10.266 12.333 5.646 6.213 11.373 12.488 12.726 13.945 1.3535 1.4569 3.3366 4.4043 4.4069 6.5498 1.0703 2.1455 1.7497 4.0972 1.5097 4.3372z"/>
</svg>
