<?xml version="1.0" encoding="UTF-8"?>
<!-- Created with Inkscape (http://www.inkscape.org/) -->
<svg version="1.1" viewBox="0 0 460 598.67" xmlns="http://www.w3.org/2000/svg">
 <path d="m362.36 591.67.77458-3 5.9391-5.6286c5.1199-4.8523 10.399-12.25 9.2859-13.013-.19645-.1347-11.757.25663-25.691.86962l-25.333 1.1145-8.6771 2.8339-5.125-1.6266-2.3688 4.2327-22.496-.78252-.85214-6h-3.3168c-1.8243 0-6.0336.68409-9.3542 1.5202l-6.0373 1.5202-.69575 1.8131-.69576 1.8131h-2.2273c-1.225 0-3.4108.80596-4.8574 1.791l-2.63 1.791-47.437 3.529-9.3198-4.4443h-12.443l1.2667 1.2039c.69666.66216 2.4667 1.5364 3.9333 1.9428l2.6667.73885-15.474-1.4284-3.642 3.0226-5.7752.45732c-3.1764.25152-11.475.86726-18.442 1.3683l-12.667.91097-10.986-2.5215-4.3267 1.8192c-2.3797 1.0006-5.3844 1.8192-6.677 1.8192h-2.3503l-1.6598 2-1.6599 2h-13.007v-5.3333l3.3333-.016 6.6667-6.4089c8.6966-8.3598 15.333-15.624 15.333-16.783 0-1.5699 8.845-10.125 10.468-10.125h1.532v2.6667h16.168l14.391-7.0465 5.8963-6.2764-1.6221-1.6221-3.7498 1.9815c-2.0624 1.0898-7.3096 3.8524-11.66 6.1391l-7.9107 4.1576h-11.512v-2.004-2.004l9.3333-11.418c5.1333-6.2799 9.3333-11.889 9.3333-12.465s1.6842-2.8093 3.7426-4.9632l3.7426-3.9163 2.3762-5.9482c1.3069-3.2715 2.8839-6.5628 3.5045-7.3142.62053-.75131 2.1054-4.3513 3.2996-8 2.8068-8.5754 9.2172-20.999 14.867-28.813 2.4572-3.3982 4.4676-6.7982 4.4676-7.5556 0-.7573.51714-1.5769 1.1492-1.8214s3.9321-5.8271 7.3333-12.406l6.1841-11.962v-5.6034c0-3.0819.71783-8.7133 1.5952-12.514l1.5952-6.9107 1.7381-.66699c.95599-.36684 1.7382-1.2724 1.7382-2.0124 0-1.5272 9.4119-14.8 10.977-15.48.56258-.24444 1.0229-1.2604 1.0229-2.2577v-1.8133l4.6667-3.4845 4.5166-9.2542c2.4842-5.0898 4.9267-10.49 5.428-12 .50125-1.5102 2.0688-5.2897 3.4834-8.3989l2.572-5.6531 2.9865-.0272.8537-5.6667c.46954-3.1167 1.2085-7.8764 1.6422-10.577l.78847-4.9106-5.6042 1.4655v3.1478l-10.112 9.8745h-3.2209v1.4874c0 .81805-2.5216 3.7924-5.6036 6.6096l-5.6036 5.1222-.18568 5.7237c-.25456 7.8471-.76772 9.1143-1.7779 4.3904l-.85534-4h-6.3498l-2.8027 4.4431 3.5052 4.2235h5.5402l-2.8751 2.8751-7.3892-.87514-2.6941-4.3054 8.7742-12.218 6.828-.81011 3.7232-6c2.0478-3.3 4.0768-6.9 4.5088-8s1.3421-3.0424 2.0223-4.3164c.6802-1.274 2.1277-4.874 3.2166-8l1.9799-5.6836.12474-8c.0686-4.4.83205-12.025 1.6965-16.944l1.5718-8.9438 1.6562-1.6562c.9109-.91082 1.6562-2.6626 1.6562-3.8928v-2.2367l3.9294-3.2611 1.7502-9.3292.82687 1.2291c.45478.67603 1.8248 1.5966 3.0445 2.0456l2.2176.81649 18.898-9.0567v-2.7708h1.4264c1.9809 0 11.811-6.8991 18.453-12.951 3.0477-2.777 7.9217-7.144 10.831-9.7044l5.2898-4.6553v-1.6118c0-.8865.80555-2.0916 1.7901-2.6781.98456-.58643 2.8871-2.7674 4.2279-4.8467l2.4378-3.7804-3.7892-2.4656-6.261 1.4762.50661-1.0582c.27864-.58199 1.3256-2.6904 2.3265-4.6853l1.8199-3.6272-3.4469-4.1532-10.139 9.5031c-13.837 12.968-14.159 13.238-15.866 13.238-.82658 0-2.5762 1.0727-3.8882 2.3838-1.3119 1.3111-4.5952 4.0111-7.2963 6l-4.911 3.6162h-2.6829-2.6829l-3.4788 7.1442-4 2.4081c-2.2 1.3244-5.3654 3.008-7.0342 3.7412l-3.0342 1.3331-1.6296 4.2468 3.9028 3.9028 3.5642-1.3551c1.9603-.74532 3.5643-1.0412 3.5643-.65751 0 1.299-7.3219 7.1518-9 7.1942l-1.6667.04214v1.3544c0 .74489-2.6695 5.023-5.9322 9.5069l-5.9322 8.1526-.82019 3.7343-.82018 3.7343-1.9143 1.5887c-1.0529.8738-1.9143 2.4553-1.9143 3.5144 0 2.34-5.453 9.8916-12.284 17.011-2.7773 2.8947-5.0497 5.6527-5.0497 6.1288s-1.95 2.9315-4.3333 5.4564-7.401 7.894-11.15 11.931c-3.7494 4.0373-8.3112 8.3196-10.137 9.5161l-3.3202 2.1755-2.6773 13.541 2.9852 4.0826 10.508-10.761h1.5661c.86138 0 2.3131-.9 3.226-2l1.6598-2h5.6277l-7.2817 6.3333c-4.0049 3.4833-9.4177 8.4333-12.028 11l-4.7466 4.6667-.37036 8.6667-.37036 8.6667-2.0443 2.0874-4.4459-1.706v-3.6209l-5.7235-3.0631.91364 3.1513c.5025 1.7332 1.2594 5.0432 1.6819 7.3556l.76829 4.2043-2.6802 1.4344-2.6802 1.4344-1.6366-1.972c-.90013-1.0846-2.4631-1.972-3.4733-1.972h-1.8367v3.8574 3.8573l-2.109.80932c-1.16.44513-3.467.80932-5.1267.80932h-3.0176l-2.4133 2.6667c-1.3273 1.4667-2.9424 2.6667-3.589 2.6667-.64664 0-4.9036 3.6492-9.46 8.1093-4.5564 4.4601-14.389 13.857-21.85 20.881l-13.566 12.772.04936 8.5553.04936 8.5553-7.3566 7.6786-4.7969-2.5672-3.4069 4.4667c-1.8738 2.4567-3.4069 5.2175-3.4069 6.135 0 2.0357-5.2093 9.676-7.5998 11.146l-1.7336 1.0662v6.2076l4 3.3197v4.4867 4.4867l10.667 6.7336v1.9164c0 1.054-1.8425 4.6465-4.0945 7.9833l-4.0945 6.0668h-2.5722-2.5722v-1.8367c0-1.0102-.9-2.5837-2-3.4966l-2-1.6598v-4.7508-4.7508l-2.7652-2.9434c-1.5208-1.6189-3.7708-4.9575-5-7.4193l-2.2348-4.4759h-3.5483l-1.8925-2.5882c-1.0409-1.4235-1.8925-3.6735-1.8925-5v-2.4118h-9.176l-.70747 1.1447-.70747 1.1447-16.258 1.4742-9.961 6.903h-7.19v-5.0785-5.0785l3.732-5.1037 6.6804 3.5753 1.4605-.90262c.80326-.49644 1.4605-1.703 1.4605-2.6813v-1.7787l4.04-1.5503 2.4472-6.4366 14.504-8.2984h5.4135l4.9285-7.7839 12.507-9.5495h2.08 2.08v-7.0185l9.3718-8.8387 10.585.42211 4.3549-3.9786c5.4095-4.942 12.509-9.9197 14.148-9.9197.67869 0 2.2168-1.5 3.4181-3.3333l2.1841-3.3333h1.8582c1.022 0 2.0582-.51713 2.3026-1.1492.64263-1.6616 17.554-16.184 18.846-16.184.5984 0 3.4528-1.9004 6.3432-4.2232l5.2552-4.2232v-2.1768c0-1.1973.58742-2.7643 1.3054-3.4822l1.3054-1.3054 4.1971-22.589 4.4145-6.6667c2.428-3.6667 4.7858-7.7387 5.2397-9.049l.82518-2.3823 13.267 1.7599 4.4131-1.6935-3.3133-3.9923-10.27-1.6422-3.0226-3.642 2.8194-5.9981c1.5507-3.299 2.8194-6.9046 2.8194-8.0126v-2.0145h3.6592l.82076-5.1328.82077-5.1328 5.074-6.4505 1.7094-5.9753c.94015-3.2864 2.5058-6.9225 3.4793-8.0803.97349-1.1578 1.77-2.751 1.77-3.5407s1.1722-3.7424 2.6048-6.5617 3.9083-8.126 5.5013-11.793c1.5931-3.6667 4.1104-8.385 5.5941-10.485l2.6976-3.8185 1.0808-19.03 4.4057-4.0928c2.4231-2.251 5.438-5.6684 6.6998-7.5941l2.2941-3.5012-1.8888-24.145h-.95031c-.52266 0-1.667 2.3921-2.5429 5.3158l-1.5926 5.3158 1.6938 12.769-5.8607 9.9332h-4.8329l-3.3658-4c-1.8512-2.2-3.7857-4-4.299-4-1.3451 0-7.239-6.5694-7.239-8.0687 0-.69555-.52266-1.2646-1.1615-1.2646-.63881 0-2.5888-2.0959-4.3333-4.6576-1.7445-2.5617-3.5955-4.6617-4.1134-4.6667-.51781-.005-4.1907 3.1409-8.162 6.9909-10.756 10.427-17.623 15.908-25.158 20.08l-6.7675 3.7464-12.909.29403-4.3645-2.1648c-2.4005-1.1906-6.559-2.5094-9.2412-2.9307l-4.8767-.76591-8.1099-6.4828c-4.4604-3.5656-12.008-10.247-16.773-14.847l-8.6627-8.3642 3.2986-3.98.8622 4.4153h3.9022 3.9022v-1.108c0-.60941 1.4609-1.8898 3.2463-2.8454l3.2463-1.7374 1.7849-10.565-2.6061-2.6061-2.9451 4.7653c-2.8454 4.604-7.4773 8.7633-9.7591 8.7633-.60831 0-1.7167-1.7519-2.4632-3.8931l-1.3571-3.8931-3.9296-1.5079-7.8878 8.9837-13.996 6.7022-9.1898 9.6083h-3.8898-3.8898l1.1816-8.0506-3.4288-2.8456-2.7835 1.7203v4.4789c0 2.4634-.36419 5.428-.80932 6.588l-.80932 2.109h-3.048-3.048l-.80932-2.109c-.44512-1.16-.80932-5.0246-.80932-8.588v-6.4789l2.6667-1.6481v-6.8745l17.528-19.584 10.723-2.8875 31.498-.49617 6.6348 6.1992 5.4515-3.4045 3.0823 1.525c1.6953.83876 5.1823 1.908 7.7489 2.376 2.5667.46804 8.2667 2.5832 12.667 4.7004l8 3.8495 11.642 13.421h2.6232 2.6232l-.4908-1c-.26994-.55-1.5851-3.55-2.9226-6.6667l-2.4318-5.6667h-1.9663-1.9663l.5307-1.6667c.29188-.91667 1.8501-2.2625 3.4628-2.9907l2.932-1.324-1.2862-3.3519h7.3559 7.3559l10.874-5.2537-.76253 4.699-.76254 4.699 4.9912 4.9912 2.7219-.7118c1.4971-.39149 3.4151-1.547 4.2622-2.5677.84715-1.0208 2.0668-1.8559 2.7104-1.8559h1.1701v5.0667 5.0667l3.2 3.2h2.4418 2.4418l.76747-2c.42211-1.1 1.3033-2 1.9582-2h1.1907v3.3939 3.3939l3.2727 3.2727c1.8 1.8 3.8862 3.2727 4.6359 3.2727s2.2433-1.35 3.3189-3l1.9557-3 .30319-7.6667c.16676-4.2167.62798-7.6667 1.0249-7.6667s2.0145 1.6213 3.5946 3.6028l2.8728 3.6028 7.0212-4.6005v-2.7636-2.7635l-2.2632-3.8314c-1.2448-2.1072-1.9624-4.1323-1.5946-4.5s3.702.30136 7.4094 1.4869l6.7407 2.1556 8.2681-3.6598.42192-2.698c.52073-3.33-1.5782-12.774-3.3407-15.031l-1.3014-1.6667 1.8299.0542c1.0065.0298 3.8523 1.784 6.3242 3.8981l4.4942 3.8439 6.1646-2.8088 3.3347-8.0507-4.548-7.9244 1.5267-1.8395c1.757-2.117 3.8668-2.4297 3.8668-.57304 0 2.1577 8.0636 13.34 10.597 14.696l2.4005 1.2847 4.3356-4.7908v-3.265-3.265l-2.0756-2.9633-2.0756-2.9633 1.0756-.21067c.59159-.11587 3.4864-.29494 6.4328-.39795l5.3572-.18728 8.6189-6.3723v-2.9193-2.9193l-3.8699-3.2117-22.13 2.6752-4-.68327c-2.2-.3758-5.9057-1.5357-8.2349-2.5775s-7.4292-2.4988-11.333-3.2378l-7.0984-1.3435-.44445-1.3073-.44444-1.3073h-3c-1.65 0-3.3885.38853-3.8634.8634-.47487.47487-4.4616 1.0391-8.8593 1.2539l-7.9959.39046-1.5499-2.5077h-4.9963l-.91422-3c-.50282-1.65-1.6636-3.9-2.5795-5l-1.6653-2-.85-9.6347-.84999-9.6347-2.3039-5.0319c-1.2672-2.7676-5.5173-9.211-9.4448-14.319l-7.1408-9.2869 1.7608-14.093h-1.8893-1.8893l-2.004 2.3333c-1.1022 1.2833-2.3764 3.3833-2.8315 4.6667l-.82749 2.3333h-1.3752c-2.0857 0-1.6807-1.3471 1.7663-5.8741 1.7278-2.2692 3.5846-5.5274 4.1262-7.2403l.98469-3.1144-2.6883 1.4388c-3.3875 1.8129-10.897 10.837-10.897 13.094v1.6962h-2.699-2.699l12.899-16.667 14.381-8.6667 12.118.0959 8 6.6892-4-1.0122c-2.2-.55673-5.8-.90162-8-.76643l-4 .24581-5.93 7.3704-1.707 11.383 13.864 13.994 3.2197 6.7953c1.7708 3.7374 3.2197 7.7956 3.2197 9.0181 0 1.2225.56201 3.2646 1.2489 4.538s2.0369 6.8152 3 12.315l1.7511 10 5.7215.81565 4.4911 4.9626 19.367-1.4647 17.087 6.1916 25.867.1614 3.3333-3.3333h4.1506 4.1505l7.1656 7.4792v4.1513c0 2.2832-.37271 5.1226-.82824 6.3097l-.82824 2.1584-7.7628 4.0143 4.528 5.6102c2.4904 3.0856 5.4678 7.4102 6.6165 9.6102 5.5134 10.559 11.608 23.526 11.608 24.696 0 .71725.6 1.3041 1.3333 1.3041h1.3333v1.8469c0 2.3868 3.803 14.941 6.1661 20.355 1.0086 2.3108 1.8339 4.8906 1.8339 5.7329s.84511 3.1656 1.878 5.1631l1.878 3.6317 8.4553 1.7314c4.6504.95229 11.372 3.0221 14.937 4.5996l6.4819 2.8682 10.37 11.78v2.5259c0 1.3892.81321 3.8547 1.8071 5.4789s2.5258 6.3531 3.4041 10.509l1.597 7.5556 6.6342 6.6342 2.3511 6.6761c2.6499 7.5247 5.0264 10.912 7.6562 10.912h1.7898l1.3802 2.579c.75914 1.4184 1.3802 4.0494 1.3802 5.8466v3.2676l-6.4789 4.2452-10.444 1.6701-5.7434-7.3015v-6.0217l4-1.5349v-6.3371l-2.6667-2.4133c-1.4667-1.3273-2.6667-3.149-2.6667-4.0483v-1.6351l-4.5777-3.4916c-2.5177-1.9204-5.1465-3.4916-5.8418-3.4916h-1.264l.10926 7c.0601 3.85-.3383 9.25-.88533 12l-.99461 5h-1.7729-1.7729l-.77053-3.8526-.77052-3.8526-6.1256-6.8703-16.15-8.9879-8.4128-1.6826-1.6135 2.6106 4.1161.82322c2.2639.45278 4.439 1.3457 4.8337 1.9844.39468.63861 1.6273 1.1611 2.7392 1.1611h2.0216l14.208 11.097 2.8666 5.7398 2.8666 5.7399-1.3316 2.4881c-.73236 1.3684-2.1638 3.1787-3.181 4.0229l-1.8494 1.5349 1.4433 7.6888c.79379 4.2288 2.0401 8.5888 2.7696 9.6888 3.0806 4.6454 4.6737 8.49 4.6737 11.279v2.9743l-4.8766 4.4133h-3.4649-3.4649l-5.7353-7.2912.78671-3.9336c.43269-2.1634 1.6796-4.9202 2.7709-6.126s1.9842-3.1034 1.9842-4.2168c0-2.3547-4.3756-7.7657-6.2798-7.7657h-1.3003l-4.6859-8.6667-5.6609-4.3308c-3.1135-2.382-7.456-4.9566-9.6499-5.7214l-3.989-1.3906-1.8838-6.0658-1.8838-6.0658-2.6667-.4255-1.0846 9.9659-1.0846 9.9659-4.9154 5.8502c-8.3893 9.9848-9.854 12.198-10.992 16.609-.60652 2.3514-2.3374 7.8184-3.8465 12.149-1.509 4.3305-2.7437 8.0805-2.7437 8.3333 0 .25283.91485.45969 2.033.45969h2.033l1.3357-3.6667c.73463-2.0167 2.1672-5.4667 3.1836-7.6667s2.5945-6.5441 3.5071-9.6535l1.6592-5.6535 4.226-4.3465c5.1719-5.3193 10.022-13.199 10.022-16.282v-2.2871l1.169.44444c1.3814.5252 13.856 11.143 18.145 15.444 1.6454 1.65 3.6429 3 4.439 3 .79614 0 2.0248 1.0315 2.7303 2.2922l1.2828 2.2922-3.6677 7.0926-2.0493.78639c-1.1271.43252-2.0493 1.3682-2.0493 2.0793s-1.7892 3.2518-3.9759 5.646l-3.9759 4.3531 4.1917 6.3973-.86549 2.8639c-.47602 1.5751-1.1416 6.1296-1.4792 10.121l-.6137 7.257-1.9741 2.1813c-1.0857 1.1997-1.9741 3.1004-1.9741 4.2236 0 1.1233-1.4883 4.2355-3.3074 6.916l-3.3074 4.8737-6.6928 19.938-1.6601 14.125 7.2048 8.5624h2.595c1.4273 0 3.924.83263 5.5481 1.8503l2.9531 1.8503 17.359 1.2742 13.307 6.0278 8.6667 8.8652v5.4655h2.6667v3.2243c0 1.7734.3642 4.1734.80932 5.3333l.80932 2.109 3.048 4e-5 6.6475 9c3.6562 4.95 7.8092 10.344 9.2289 11.987 1.4198 1.6427 4.1919 6.1427 6.1604 10l3.579 7.0132 5.5239.82676 3.1868 3.8399h13.691l9.0659 2.6001 3.7374 4.3666c2.0556 2.4016 3.7618 5.174 3.7916 6.1608.0759 2.5147-4.8141 9.1936-11.641 15.9l-5.7969 5.6942-1.9204 4.5963-1.9204 4.5962-.0318 5.0428c-.0175 2.7736-.52614 7.168-1.1303 9.7654l-1.0985 4.7225-4.7848 6.2684c-2.6316 3.4476-6.473 7.7928-8.5363 9.6559l-3.7515 3.3875 11.693-.64918c11.854-.65811 14.307-1.2618 14.307-3.5198v-1.2546h-12v-4h1.3333c.73334 0 1.3333.6 1.3333 1.3333v1.3333h13.333v-2.6667h7.8426l1.7151-2.7751 4.557 1.4463 9.9857-1.2661c5.4922-.69634 11.016-1.6616 12.276-2.1449l2.2902-.87884v7.872l-4.6667 4.0653-10 .87165c-5.5.47942-15.1 1.3518-21.333 1.9387l-11.333 1.0671-2.7253 1.4685-2.7253 1.4685-19.883.56562-7.3333 2.9522v3.349h-5.6599l3.1227-3.7626-1.5046-.92991-1.5046-.92992-1.969 2.8112-1.969 2.8112h-3.5991zm-197.69-7.6667.82404-1.3333h11.843v-2.6667h-41.333v2.6667h21.176l1.6481 2.6667h5.0186zm6.7461-6.7952.90347-1.4618 62.35 1.9414v-2.6401l29.557-1.4009 1.5395-1.5395 1.5395-1.5395-23.318.29513c-12.825.16233-34.481-.18428-48.125-.77022l-24.807-1.0654-18.891 1.8971-4.7278 3.457 1.7796 2.1443 1.7796 2.1443h19.516zm100.15-10.458 2.8917-1.9198 4.0385 3.3517 51.298-.0986 2.7469-2.7469h8.6426l.80075 1.2956.80074 1.2956 12.278-.57756c6.7529-.31766 15.428-.9586 19.278-1.4243l7-.84675v-4.9186l1.3333-.82405 1.3333-.82396v-9.0186l-2.6667-1.6481v-5.2268l3.6667.80343c2.0167.44189 4.47 1.0549 5.4518 1.3623l1.7851.55891 3.3744-2.6543c4.0302-3.1702 7.6599-9.6083 9.0316-16.02.54912-2.5667 1.5678-5.3748 2.2638-6.2403l1.2654-1.5736-.83874-9.98-2.9507-.96747-1.6238 13.71-1.2417 1.5255c-.68295.83902-2.011 4.1166-2.9512 7.2836l-1.7095 5.7581-5.4498 3.8172h-11.227l-.84032-3c-.89137-3.1823-1.1526-3.8257-6.6306-16.333l-3.5038-8-11.205-9.9963-4.6667-.004v-4.066l-3.0222-1.149c-1.6622-.63197-6.1446-3.6171-9.9608-6.6337-3.8162-3.0166-7.3538-5.4846-7.8613-5.4846s-5.2749-3.6-10.594-8-10.071-8-10.559-8c-.48799 0-3.3882-2.0376-6.445-4.528-8.4801-6.909-21.549-14.139-25.557-14.139-.92065 0-2.4208-.9-3.3338-2s-2.5107-2-3.5506-2-3.7264-1.35-5.9701-3l-4.0793-3-5.0667-9.8938.1924-10.106 6.3742-5.3333c3.5058-2.9333 7.5125-6.9816 8.9038-8.9962l2.5296-3.6628 3.3333-.008v-1.4223c0-1.2028 5.7917-9.801 8.0232-11.911 1.8639-1.7624 5.3101-8.116 5.3101-9.7898 0-1.036.86931-2.6051 1.9318-3.4869l1.9318-1.6032 1.5701-4.8934c.86356-2.6913 2.3119-5.7933 3.2185-6.8933s1.9888-3.8 2.4047-6 1.1625-5.05 1.659-6.3333l.9027-2.3333h-1.1505c-.63277 0-2.0066 1.95-3.0529 4.3333-3.6916 8.4087-10.744 23.033-12.378 25.667-7.3007 11.771-11.378 17.588-13.371 19.076-1.2833.95825-2.3333 2.3082-2.3333 3s-2.4526 3.7103-5.4502 6.7079l-5.4502 5.4502-4.4764 1.8704c-2.462 1.0287-5.9822 3.3761-7.8225 5.2165-1.8404 1.8404-3.9734 3.3461-4.74 3.3461h-1.3938v1.8367c0 1.0102-.88949 2.575-1.9766 3.4772l-1.9767 1.6405.53718 28.995-1.6253 1.6253c-.8939.89389-1.6253 2.5601-1.6253 3.7027v2.0774l-11.725 11.989c-13.815 14.127-24.275 26.361-24.275 28.391 0 .79602-1.0604 2.2313-2.3565 3.1896s-3.504 3.5423-4.9065 5.7423-5.4421 7.4812-8.9768 11.736c-3.5348 4.2547-6.4268 8.3981-6.4268 9.2075 0 .80937 1.4123 3.3282 3.1385 5.5974l3.1385 4.1259 1.2565 8.635-2.1001.56607c-1.155.31134-5.4001 1.3053-9.4334 2.2089l-7.3333 1.6428-5.5986 3.8242c-3.0793 2.1033-5.8718 4.2664-6.2058 4.807l-.60713.98275h113.74zm-198.67-35.636-.88889-.88889-1.7778 1.7778h3.5556zm-7.6947-33.635 4.5275-2.4121-1.4999-.92701-1.4999-.92702-5.0078 2.6801-4.8088-1.3278c-2.6448-.73027-5.1719-1.9153-5.6158-2.6335l-.80698-1.3057-1.2412.76711c-.68266.42191-1.2412 1.4927-1.2412 2.3796v1.6125l7.3333 4.5467 2.6667-.02041c1.4667-.0112 4.704-1.1058 7.1942-2.4325zm9.1392-11.752c2.2718-4.8917 2.0997-6.9972-.98539-12.057l-2.6421-4.3333-11.373.0394-6.643 3.361-.39444 2.0482-.39444 2.0482 6.8264 3.6534-1.0075 2.85-6.8533-.73619-.78915 1.2769-.78915 1.2769 5.9713 4.1825 17.407-.0208zm-9.8512-6.3904-.76747-2 1.4663-3.821 6.6455 3.1362-2.1199 2.3424c-2.5966 2.8692-4.2141 2.9752-5.2244.34243zm23.095-22.25-.70029-1.75-.10526 2.5556-.10526 2.5556.80556-.80556.80556-.80555zm73.089-65.083.82404-1.3333h-2.824v1.3333c0 .73334.26459 1.3333.58797 1.3333.32339 0 .9588-.6 1.412-1.3333zm124.57-34.18 2.7634-3.5131v-5.9805l-3.966-3.2915-1.8522.71075-1.8522.71074.66049 3.4551.66048 3.4551-7.0093 5.5135 1.5161 2.4531h6.3157zm-10.57-6.4868v-3.3333h-2.6667v6.6667h2.6667zm-7.5532-15.513-3.7801-5.8199.0802-16.347.0802-16.347-1.304 1.304c-.71721.71721-2.0943 3.5733-3.0601 6.3469l-1.7561 5.0428-.0238 16 1.9918 3.8191c1.0955 2.1005 1.9918 4.9004 1.9918 6.2221v2.403l7.3333 5.3768 2.2269-2.1813zm76.144-3.7359 2.3373-2.5826-1.7519-2.8347h-7.9263l-.76747 2-.76748 2 .76748 2 .76747 2h5.0037zm-91.217-33.91-1.374-1.374.169 9.2 2.5789-6.452zm123.82-2.0598 1.861-1.1784-1.7535-4.5695-1.9842 1.6468c-2.0602 1.7098-2.7335 5.3355-.98422 5.2998.55-.0112 1.8374-.55068 2.861-1.1988zm-27.861-27.299v-1.8516l-9.0628-1.7002-3.3456-2.6316c-1.8401-1.4474-3.8963-2.6316-4.5695-2.6316s-2.6331-1.5-4.3554-3.3333c-3.3352-3.5502-5.3333-4.2544-5.3333-1.8797 0 2.0801 6.9402 7.9524 14.329 12.124l6.3372 3.5781 6 .1772zm-91.816-25.815c2.9662-3.5845 4.8555-8.325 6.4032-16.066l1.4127-7.0656v-20.98l1.4733-.49112 1.4733-.49111 1.8399-5.2867 1.8399-5.2867.0201-4.3333.0201-4.3333h-2.6667v3.421c0 3.1855-2.0248 8.3772-3.8663 9.9134-.44022.36723-1.7889 2.5587-2.9971 4.87l-2.1967 4.2023 2.9267 2.9267h-2.694l-.6298 22-2.0573 8c-1.1315 4.4-2.6771 8.75-3.4347 9.6667l-1.3774 1.6667h1.2899c.70947 0 2.1588-1.05 3.2208-2.3333zm-122.85-8.1701c0-1.424-2.5159-3.4579-5.6667-4.5811l-2.3333-.8318v6.583h8zm65.333-16.83v-2h-1.2546c-.69005 0-1.5737.51631-1.9638 1.1474l-.70911 1.1474.85264.85264c.46896.46895 1.3526.85264 1.9638.85264h1.1111zm-162.04-17.95 2.3684-2.617-.92612-2.383-.92612-2.383-3.2356 3.741c-1.7796 2.0576-3.2356 4.3076-3.2356 5v1.259h3.5867zm190.04-17.526v-2.8093l-2.109.80932c-1.16.44513-2.66.80932-3.3333.80932h-1.2243v4h6.6667zm66.667.14265v-2.6667h-1.7778c-.97778 0-2.1726.39479-2.6551.87732l-.87732.87732 1.485 1.7893c.81676.98414 2.0116 1.7894 2.6551 1.7894h1.1701zm-260 392v-1.3333h-22.157l-4.7629-3.4827.91992-6.5173 33.25-1.9581 4.7081 3.0122c2.5894 1.6567 5.9081 3.6585 7.3748 4.4485l2.6667 1.4364.85214 5.7277h-22.852zm388-9.2175c3.3-.5992 11.1-1.4223 17.333-1.8291l11.333-.73966-6 1.0811c-3.3.59459-11.1 1.4177-17.333 1.8291l-11.333.74803zm30.509-3.7825c-.0868-.55-.0868-1.45 0-2l.15789-1-27.333-.0408 1.7006-1.0793 1.7006-1.0793 9.6327.31395c5.298.17268 11.283.36754 13.299.43303l3.6667.11907v5.3333h-1.3333c-.73333 0-1.4044-.45-1.4912-1zm-12.53-16.446-2.6453-1.0332 18.157-.1874-1.4991 2.4256-5.6839-.0859c-3.1261-.0473-6.8742-.55084-8.3291-1.1191zm2.9465-14.073-.85264-.85264 1.4182-2.2947h11.843v4h-5.7778c-3.1778 0-6.1615-.38369-6.6304-.85264zm-184.93-271.81c0-.36666.3-.66666.66667-.66666s.66667.3.66667.66666c0 .36667-.3.66667-.66667.66667s-.66667-.3-.66667-.66667zm2.6667-1.3333c0-.36667.3-.66667.66667-.66667.36666 0 .66666.3.66666.66667s-.3.66667-.66666.66667c-.36667 0-.66667-.3-.66667-.66667zm4-2.6667c0-.36666.3-.66666.66667-.66666.36666 0 .66666.3.66666.66666 0 .36667-.3.66667-.66666.66667-.36667 0-.66667-.3-.66667-.66667zm5.519-3.2186c1.7312-1.4035 3.4468-2.2545 3.8123-1.891.78197.77766-3.9482 4.4429-5.7338 4.4429h-1.2262zm5.8144-4.1148c.45323-.73333 1.724-1.3333 2.824-1.3333h2l-.82405 1.3333c-.45322.73333-1.724 1.3333-2.824 1.3333h-2zm6-2.5093c0-.73333.6-1.7042 1.3333-2.1574l1.3333-.82404v1.3333c0 .73333-.6 1.7042-1.3333 2.1574l-1.3333.82404zm8-6.4063c0-1.5404 17.728-19.084 19.285-19.084h1.218l-2.5847 2.6027c-1.4216 1.4315-3.2579 3.3815-4.0807 4.3333-3.7259 4.3105-13.837 13.188-13.837 12.148zm-162.67-63.067c-1.1-.6373-3.05-1.4832-4.3333-1.8798l-2.3333-.72102v-5.417h8.1797l-1.6969 5.3465 2.0919.80276c1.1506.44151 2.0919 1.3386 2.0919 1.9934 0 1.454-1.3475 1.4119-4-.12486zm4-9.252 2-1.3916 7.176-.0408.80165-1.2971c.44091-.71341 3.1692-1.9346 6.063-2.7138l5.2613-1.4167-.31761-1.5403-.31762-1.5403 5.2484-1.1326-1.8738 2.2578c-1.0306 1.2418-4.6115 3.6384-7.9576 5.3258l-6.0838 3.068-12 1.8135zm39.567-4.9765-.87732-.87732 1.2633-1.5222c.69481-.8372 1.6647-4.0324 2.1553-7.1005l.89201-5.5783-4.3337-1.663v-6.3814h-1.0667c-.58667 0-1.7342.6675-2.55 1.4833l-1.4833 1.4833-3.3611-1.1204 11.794-5.5806.3888 2.8672c.21384 1.5769 1.0391 4.1684 1.8339 5.7587l1.4451 2.8915-.83392 4.1085c-.45866 2.2597-1.202 5.9085-1.6519 8.1085-.80387 3.9309-1.8784 4.8591-3.6149 3.1227zm-13.567-8.456c.45322-.73333 1.0886-1.3333 1.412-1.3333s.58798.6.58798 1.3333v1.3333h-2.824zm4.6667-4.6667c.91292-1.1 2.2599-2 2.9932-2h1.3333l-1.6598 2c-.91292 1.1-2.2598 2-2.9932 2h-1.3333zm-18.37-6.7423-2.9633-2.0756v-2.3252c0-2.9195 2.9971-9.4992 4.3333-9.5131.55-.006 1-.79076 1-1.7445v-1.7341l6-3.7926c5.7319-3.6231 7.5929-6.0725 4.6136-6.0725-3.6189 0-17.195 9.0357-17.349 11.547-.0378.61578-2.5347 3.096-5.5485 5.5116l-5.4796 4.392-8.2097-1.8032-8.6933-6.6307v-5.2718l2.4722-3.5392c1.3597-1.9465 2.8748-5.2038 3.3669-7.2384l.89468-3.6992-6.3759-5.9349-1.9313-23.342 2.12.81354c1.166.44745 2.12 1.3544 2.12 2.0155v1.202l2.3333-1.1819c1.2833-.65002 4.6037-2.1551 7.3786-3.3446l5.0452-2.1628h5.8761 5.8761l.73276 1.1856c.40302.6521 2.1517 1.5418 3.886 1.9771l3.1533.79142 4.8593 4.451c2.6726 2.448 4.8593 4.9426 4.8593 5.5436 0 .60094 1.1167 3.5583 2.4816 6.572 3.6908 8.1491 5.7755 14.294 6.4993 19.156l.64654 4.3436-2.3134 4.9898c-1.2724 2.7444-3.7896 6.9667-5.594 9.383l-3.2806 4.3932 2.95 3.5545-3.0281.81132c-1.6655.44622-4.5446.81951-6.3981.82952l-3.37.0182zm.31545-40.735 2.6121-2.4873-5.2242-3.9502-5.1315-.08481 6.2531-6.6562-1.5599-1.5599-2.6509 1.4187c-3.179 1.7013-10.911 11.206-10.911 13.412v1.5646l5.3465-1.6969 1.5982 4.1649 7.0553-1.6381zm31.388 30.686v-1.4582l5.3625-1.4023.79663-3.174.79662-3.174h3.7109v3.2527l-4.3333 3.7038c-4.6481 3.9729-6.3333 4.5721-6.3333 2.2519zm-64-54.795c0-1.484 5.4657-11.671 6.6568-12.408l1.3432-.83012v-14.599l-9.8658-5.821-2.7338.00042c-1.5036.000231-6.1066.46372-10.229 1.03l-7.4952 1.0295-2.7823 2.5921c-1.5303 1.4257-3.1536 2.5921-3.6073 2.5921s-2.625 1.8-4.825 4l-4 4h-8.7149l-4.4133-4.8766v-5.1967l4.3847-6.2601 14.561 1.5028 6.414-6.9208 1.6869 1.6869-3.4267 4.1289 1.4523 1.4523 7.7087-1.425c4.2398-.78377 10.645-1.425 14.233-1.425h6.5244l7.7949 7.7949v13.166l-3.3333 4.9119c-1.8333 2.7016-3.3333 5.4118-3.3333 6.0228s-.9 1.8578-2 2.7707-2 1.3991-2 1.0804zm-38.907-24.761.42607-2.9864h-5.5188v6.8622l4.6667-.88944zm136.24 2.9955c0-1.11-.74433-3.21-1.6541-4.6667l-1.6541-2.6486 3.4612-5.5423-2.9493-3.5536 2.7962-1.7281v-5.176l-2.3333-2.5635c-1.2833-1.41-4.695-5.6265-7.5814-9.3702l-5.2481-6.8066-6.4076-1.6082-5.5481 1.6998c-3.0515.93491-8.2481 3.4659-11.548 5.6245l-6 3.9246-6.2652 8.2165c-3.4458 4.5191-9.2958 11.194-13 14.833l-6.7348 6.6165v-1.5379c0-.84582.6-1.9087 1.3333-2.3619l1.3333-.82404v-4.677l-8-7.6645v-3.5011h-34.667v2.4058l-4.199 1.4638c-5.2794 1.8404-5.1988 1.8499-4.2958-.50347l.7549-1.9672 8.1419-4.0617 32.016-1.3841 4.9151 1.56v1.657 1.657l8.3164 8.5062h1.9038 1.9038l2.2713-4.196c1.2492-2.3078 3.3213-5.1412 4.6047-6.2963 1.2833-1.1552 2.3333-2.8461 2.3333-3.7576s1.8622-3.7782 4.1381-6.3703l4.1381-4.7131h1.7192 1.7192l1.5349-4h2.002c1.1011 0 5.5441-1.8 9.8734-4 4.3293-2.2 8.5771-4 9.4394-4 .86236 0 3.3381.91541 5.5017 2.0342l3.9338 2.0342v1.8288c0 1.0058 2.1801 6.0668 4.8446 11.247l4.8446 9.4179 12.978 12.287v11.884l-3.4201 1.3003c-1.8811.71518-5.1811 1.3003-7.3333 1.3003h-3.9132zm7.4366-5.7664c-1.2716-.24816-2.6251-.13808-3.0078.24462l-.69582.69582.91889 1.4868.91888 1.4868 4.1779-3.4628z"/>
</svg>
