<?xml version="1.0" encoding="UTF-8"?>
<!-- Created with Inkscape (http://www.inkscape.org/) -->
<svg version="1.1" viewBox="0 0 292 193" xmlns="http://www.w3.org/2000/svg">
 <path d="m216.5 192.29c-1.65-.25792-3.5625-.93423-4.25-1.5029-.86249-.71342-1.6464-.70499-2.5286.0272-1.436 1.1918-11.099-1.5665-14.959-4.2699-3.0096-2.108-5.9912-1.941-9.1073.51014-2.8421 2.2356-14.969 3.8586-18.324 2.4525-1.0072-.42209-3.6314-.69695-5.8314-.6108-2.2.0862-5.2889-.53069-6.8643-1.3708-1.5754-.84009-4.1203-1.5274-5.6554-1.5274-3.6761 0-11.046-6.1676-12.908-10.802-2.0114-5.0066-4.7576-7.4067-9.4864-8.291-4.2276-.79053-18.569.55439-22.086 2.0712-1.1.47444-4.2009 1.1234-6.8908 1.4422-2.6899.31878-6.7399 1.4241-9 2.4564-11.758 5.3702-21.584 7.9005-25.658 6.6073-1.1734-.37242-2.7741-2.0963-3.5571-3.8308s-1.8384-3.8286-2.3453-4.6536c-.50692-.825-1.5636-2.85-2.3481-4.5-3.1324-6.5879-7.2215-13.189-10.377-16.753-1.8278-2.0641-3.3254-4.0891-3.3279-4.5-.0025-.41092-1.3525-2.1852-3-3.9429-1.6475-1.7577-2.9954-3.6002-2.9954-4.0946s-3.4875-4.3027-7.75-8.463c-4.2625-4.1603-9.4465-9.984-11.52-12.942-2.0734-2.9576-6.3484-8.076-9.5-11.374-4.9824-5.2143-5.6013-6.2862-4.743-8.2138 1.2838-2.8833 2.2612-2.7958 5.9545.53304 2.845 2.5643 2.8994 2.5768.80472.18555-1.2355-1.4104-2.2464-3.1041-2.2464-3.7636s-.54253-2.0678-1.2056-3.1296c-.99296-1.59-.87743-2.2931.65499-3.9864 2.3725-2.6215 6.5506-2.7703 6.5506-.23315 0 1.0025 1.4025 4.715 3.1167 8.25 1.7142 3.535 3.4674 7.3272 3.896 8.4272s3.4348 5.1501 6.6805 9.0003c3.2457 3.8502 6.2033 7.7876 6.5726 8.75.36929.96234 1.3606 1.7497 2.2028 1.7497.84226 0 1.5314.39706 1.5314.88235 0 .4853 1.6875 2.66 3.75 4.8326 4.3702 4.6035 8.25 9.2616 8.25 9.9048 0 .4451 12.916 16.416 14.056 17.38.32506.275 1.4578 2.6788 2.5173 5.3417l1.9263 4.8417 4.7494-.54455c2.6122-.29951 6.2122-1.196 8-1.9923 6.2793-2.7967 13.39-3.9274 28.515-4.5342l15.264-.61239-2.4955-2.6859c-1.7325-1.8647-3.9536-2.8958-7.2645-3.3723-2.623-.37754-5.4448-1.2751-6.2708-1.9945-2.0381-1.7752-6.9982-3.5962-6.9982-2.5693 0 .45568-5.1568 1.1368-11.46 1.5136-6.8001.40654-12.594 1.2769-14.25 2.1406-3.6033 1.8795-6.2904 1.8657-6.2904-.0322 0-.92366.93789-1.5 2.441-1.5 1.3425 0 2.6826-.39087 2.9778-.8686.29526-.47773 3.8093-1.1717 7.809-1.5421 15.239-1.4114 17.027-1.7689 15.598-3.1185-.96206-.90841-2.8333-1.0274-6.8254-.43417-3.025.44955-8.2859.85022-11.691.89037-3.405.0402-6.4691.523-6.809 1.073-.76466 1.2372-6.1806 1.3258-6.93.11331-1.2235-1.9797 2.5425-3.0122 13.45-3.6875 16.313-1.01 16.391-1.0655 9.6028-6.8648-5.7631-4.9235-7.3122-8.561-3.6461-8.561 1.0873 0 2.7746 1.2375 3.7496 2.75 1.8864 2.9265 5.2812 6.1616 6.5235 6.2167.4125.0183.75-.72658.75-1.6553 0-1.432.30386-1.3624 2 .45819 1.1 1.1807 2 2.5371 2 3.0142 0 .47713 1.2343 1.9584 2.7428 3.2918 1.8708 1.6536 2.2336 1.7885 1.141.42431-.88099-1.1-1.8392-2.9-2.1294-4-.29016-1.1-.87762-2.8548-1.3055-3.8997-.69197-1.6899-.45602-1.8193 2.1366-1.1721 1.6029.40018 3.5894 1.2876 4.4144 1.972.825.68443 3.525 1.8554 6 2.6022s4.9845 1.7171 5.5767 2.1563c.59218.43917 2.8217 1.5276 4.9545 2.4187 3.5285 1.4743 3.7583 1.4762 2.5509.0214-1.1914-1.4356-.70154-1.5989 4.7955-1.5989 3.415 0 6.1224.44222 6.1224 1 0 .55-1.7734 1-3.941 1s-4.1684.36795-4.4463.81768c-.27794.44972 3.5089 4.8974 8.4151 9.8836 7.4202 7.5412 9.1207 8.8247 10.111 7.6317.96233-1.1595.77577-1.5426-.97415-2.0002-1.1904-.31131-2.1644-1.0216-2.1644-1.5785 0-.99721 14.612-.22422 17.626.93246 2.4543.94179 1.5077 3.3072-1.3759 3.4385-2.6784.12191.10423.86673 9.3807 2.5109l3.1307.55488-1.1254-3.5955c-.61895-1.9775-1.6902-3.5955-2.3807-3.5955s-1.2553-.60526-1.2553-1.345c0-.73976-.9-2.1595-2-3.155s-2-2.5888-2-3.5407-.67223-3.0196-1.4938-4.595-1.4966-2.4611-1.5-1.9683c-.003.49282-1.1097-.29468-2.4584-1.75-2.3119-2.4946-8.4596-3.9304-7.0478-1.646.36058.58342-.65628 1-2.441 1-1.6825 0-3.059-.45-3.059-1s.765-1 1.7-1c1.1484 0 1.3712-.32883.68648-1.0135-.55743-.55743-3.2089-1.1091-5.8922-1.2258-3.4846-.15165-5.5798-.86215-7.3325-2.4865-1.3496-1.2508-3.0311-2.2742-3.7366-2.2742s-2.9528-1.575-4.9939-3.5c-2.0411-1.925-4.043-3.5-4.4488-3.5-.40573 0-1.3156-.6963-2.0218-1.5473-.93773-1.1299-1.4802-1.2302-2.0106-.37189-.39955.6465-1.2561.84812-1.9034.44806-.85337-.52741-.69174-1.2635.58786-2.6775 1.701-1.8796 1.6553-2.0477-1.2653-4.6507-3.3205-2.9595-8.3692-12.642-8.3692-16.05 0-1.1827-.39754-2.1503-.88342-2.1503-1.2952 0-2.0975-5.3086-1.0024-6.6332.61633-.7455.41492-1.3335-.58866-1.7186-1.5464-.5934-2.086-3.7544-.85162-4.9887.37064-.37064.80745-1.6831.97068-2.9167.16324-1.2335.58421-3.9303.93551-5.9928.54283-3.187.36707-3.75-1.1707-3.75-1.3613 0-1.5252-.28419-.66198-1.1474 1.3372-1.3373-1.6187-4.0824-5.7474-5.3374-1.375-.41797-3.1152-1.2674-3.8672-1.8876-1.53-1.2619-12.008-7.2188-19.633-11.161-2.75-1.422-6.35-3.4257-8-4.4527-4.0388-2.5138-4.3608-2.4534-3.9258.73658.55643 4.0808 2.3047 23.379 2.3696 26.156l.0562 2.4058 19.576-.60035c15.597-.4783 19.366-.34633 18.539.64918-.71227.85823-5.0421 1.3153-13.826 1.4595-16.958.27835-23.289 1.0383-23.289 2.7953 0 .76163-.45 1.3848-1 1.3848-1.7534 0-1.0754 3.2909 1.1706 5.6816 2.8325 3.0151 1.7718 3.9771-1.8175 1.6483l-2.8204-1.8299 2.1869 3.0888c1.2028 1.6988 2.8829 3.6664 3.7336 4.3724 1.984 1.6465 1.9795 3.0387-.009691 3.0387-1.8105 0-7.4436-5.8444-7.4436-7.7229 0-.70243-.46114-1.2771-1.0248-1.2771-1.106 0-3.3316-4.5544-3.4206-7-.04243-1.1654-1.7061-1.5662-7.4577-1.7969-4.2381-.16997-7.8507.15067-8.45.75-.5758.5758-2.4822 1.0469-4.2364 1.0469s-6.8877.70153-11.408 1.559c-8.0016 1.5179-10.342 1.3738-8.4361-.51948 1.4681-1.4585 17.996-4.2171 28.295-4.7225l9.3612-.45942-.50154-16.267c-.27585-8.9467-.96805-17.127-1.5382-18.179-.57018-1.0516-1.2656-2.6611-1.5455-3.5765-.59637-1.951-11.923-8.8355-14.536-8.8355-.98529 0-2.6059-.9-3.6014-2-2.4204-2.6745-3.5-2.5203-3.5.5 0 1.7407-.54667 2.5-1.8 2.5-2.6972 0-4.2-2.0184-4.2-5.641 0-1.7825-.50926-3.5557-1.1317-3.9404-1.4365-.88779-3.3683 2.3133-3.3683 5.5814 0 2-.5 2.5-2.5 2.5-2.0896 0-2.5514-.53356-2.8134-3.25-.39472-4.0939-3.8024-4.629-4.776-.75-.64673 2.5768-1.9443 3.0823-4.2148 1.6422-1.641-1.0408-2.5795-9.9728-1.3282-12.642.5156-1.1 1.9336-4.5875 3.1511-7.75 2.0946-5.4409 2.3967-5.75 5.6189-5.75 2.6619 0 3.654.54577 4.5444 2.5.62649 1.375 1.5168 2.5 1.9786 2.5s.83948-1.125.83948-2.5c0-2.2907.3711-2.5 4.4336-2.5 4.0933 0 4.4579.21109 4.75 2.75.18837 1.6371.92343 2.75 1.8164 2.75 1.5645 0 1.6421-.7295.41386-3.8887-.70004-1.8006-.23367-1.862 9.9899-1.3167 10.434.55658 11.014.71481 21.41 5.8427 5.8773 2.8989 13.057 6.7539 15.955 8.5667 2.8982 1.8128 5.7421 3.296 6.3198 3.296s2.9315 1.275 5.2306 2.8333c2.2991 1.5583 6.9678 4.21 10.375 5.8926 3.4072 1.6826 7.4572 3.9489 9 5.0361 1.5428 1.0872 4.8302 2.9851 7.3052 4.2174 2.475 1.2323 5.6883 3.3531 7.1406 4.7128 2.4798 2.3217 2.8149 2.3821 5.5024.99236 1.574-.81394 3.718-2.426 4.7644-3.5823 1.0464-1.1563 2.3458-2.1024 2.8874-2.1024.54163 0 1.4844-.66802 2.095-1.4845.61063-.81647 4.8902-2.4196 9.5101-3.5626 8.2053-2.03 13.722-2.033 18.6-.01023 1.1.45613 3.9603 1.4184 6.3563 2.1384 2.396.72001 4.566 1.8557 4.8224 2.5237s1.4529 1.4623 2.6589 1.765c2.6319.66058 9.6538 7.6301 7.6874 7.6301-.75209 0-2.1935-.74755-3.2031-1.6612-1.0096-.91367-2.673-2.1512-3.6965-2.75-1.0235-.59883-2.9766-1.883-4.3404-2.8537-3.1719-2.2577-11.324-4.3388-20.479-5.228-5.7878-.56217-7.6394-.38681-9.4725.89711-1.2531.87773-3.0783 1.5959-4.0559 1.5959-2.103 0-9.7775 7.3799-9.7775 9.4022 0 .7712 1.2375 1.8897 2.75 2.4856 1.5125.59586 3.425 1.4699 4.25 1.9424 1.556.89107 3.3916 1.8696 11 5.8638 2.475 1.2993 5.175 2.7451 6 3.2129 4.8889 2.772 9.7722 4.0932 15.13 4.0932 5.7233 0 7.655.61119 14.87 4.7049 1.375.78012 3.2084 1.6474 4.0741 1.9274.86576.27994 2.4075 2.53 3.4262 5.0001 1.1597 2.8122 3.2736 5.4961 5.6546 7.1794 6.2958 4.451 4.4732 5.725-2.6548 1.8557-3.1649-1.718-4.0633-2.821-4.3032-5.2833-.3915-4.0181-4.3907-7.7519-10.482-9.7861-5.1206-1.7101-12.268-2.1301-13.109-.77017-.77135 1.2481 7.4674 7.7343 10.894 8.5764 2.4779.609 2.7748.50745 1.7059-.58345-.71174-.72642-2.7096-1.8018-4.4396-2.3897-1.73-.58789-3.3457-1.6695-3.5904-2.4035-.35334-1.06.7658-1.1984 5.4396-.67255 4.5494.51184 6.395 1.2399 8.1345 3.2093 2.5921 2.9345 3.0437 5.9708.75 5.0427-.825-.33384-2.2488-.90846-3.164-1.2769-1.07-.43076-1.4236-.28097-.9907.41957.37035.59923 3.3692 2.3625 6.664 3.9183 4.0885 1.9306 5.9907 3.4064 5.9907 4.6478 0 1.4196-.49402 1.6708-2.25 1.1443-2.1965-.65867-2.2055-.63055-.3801 1.1826 1.347 1.3379 1.9995 1.5077 2.3333.60732.8096-2.1837 3.0945-1.3883 12.21 4.25 4.8903 3.025 9.1905 5.5 9.556 5.5.36554 0 2.1396 1.125 3.9423 2.5s4.0003 2.5 4.8836 2.5c.88326 0 1.9658.56605 2.4056 1.2579s3.2747 2.5643 6.2997 4.1611c3.025 1.5968 7.3 4.1406 9.5 5.6529 2.2 1.5123 5.0539 3.0583 6.3419 3.4354 1.9145.56062 2.2774.35086 1.9885-1.1493-.19438-1.0093-1.2482-2.0053-2.3419-2.2133-1.0937-.20803-3.3292-1.3382-4.9678-2.5115-3.6556-2.6176-6.352-4.2425-9.1736-5.5286-1.1841-.53969-2.4712-1.4962-2.8602-2.1257-.38901-.62944-2.5702-2.0346-4.8471-3.1227-5.5385-2.6466-9.9037-5.1033-14.656-8.2484-2.1674-1.4343-4.4145-2.6079-4.9936-2.6079-.57906 0-1.3118-.675-1.6284-1.5-.31659-.825-1.2925-1.5-2.1686-1.5-1.1453 0-1.288-.30497-.50792-1.0851.78011-.78012 2.236-.35853 5.1801 1.5 2.2523 1.4218 4.3131 2.5851 4.5797 2.5851s4.8933 2.5875 10.282 5.75c13.393 7.8602 23.985 13.596 31.523 17.071.4125.19013.75-.36681.75-1.2376 0-2.0786 7.2474-2.1951 8.9498-.1438 1.6536 1.9924.92326 6.631-1.2532 7.9596-1.4295.87264-2.01.73806-2.7997-.64914-1.0218-1.7949-5.8969-2.4824-5.8969-.83156 0 .50514 1.575 1.8918 3.5 3.0816 2.032 1.2559 3.5 2.9678 3.5 4.0816 0 2.6009 1.1883 2.4113 4.0626-.64815l2.4112-2.5666 1.6908 2.0881c.92995 1.1484 1.9243 1.7104 2.2096 1.2487.2853-.46164-.35716-1.4706-1.4277-2.2422-2.4512-1.7668-2.4423-3.0178.0536-7.4614 2.2995-4.094 2.5128-6.706.77504-9.4886-.86122-1.379-.91087-2.2756-.16722-3.0192 1.3785-1.3785 3.6077-.47804 5.2242 2.1104 1.0742 1.7201 1.029 2.4607-.27152 4.4455-2.0797 3.174-2.0096 3.3592 1.1895 3.1402 2.4405-.16707 2.7864.19322 3.0738 3.2015.31393 3.2866.23179 3.3714-2.699 2.7852-2.9429-.58859-3.0145-.51217-2.7091 2.8916.17255 1.9229.59961 3.782.94903 4.1315 1.937 1.937-2.2326 4.7854-6.5489 4.4739-3.3022-.23829-4.2758 1.1185-2.6598 3.7062.94315 1.5102.95271 2.286.0417 3.3837-.95261 1.1478-.69833 1.6446 1.3102 2.5598 2.7044 1.2322 3.1853 3.0852 1.2922 4.9784-1.8651 1.8651-4.9297 1.4202-5.5102-.8-1.1091-4.2412-5.6522-1.2373-6.7144 4.4396-.63115 3.3733-.52894 3.7668.7111 2.7377 1.8485-1.5341 4.2534.9737 3.3046 3.4462-.57825 1.5069-.80516 1.4928-2.6355-.16363-1.4446-1.3073-2.3064-1.5089-3.092-.72325-1.3145 1.3145-.30187 3.2635 1.6955 3.2635.79254 0 1.441.9 1.441 2 0 2.439-.77111 2.5171-3.1949.32363-2.5637-2.3201-4.8764-.26864-3.0301 2.6878.67373 1.0788 1.225 2.6426 1.225 3.475 0 1.9549-2.6107 1.9704-3.3592.0199-.73505-1.9155-10.623-1.6889-10.634.24368-.004.6875-1.1322 1.25-2.5072 1.25s-2.5-.26541-2.5-.58981c0-1.6409 5.7899-6.4102 7.7819-6.4102 3.7899 0 12.914-7.0646 11.688-9.0492-.31275-.50604-.9318-2.8395-1.3757-5.1854l-.80708-4.2654-1.5609 3.5203c-.85849 1.9362-2.5024 4.3724-3.6532 5.4138-1.8731 1.6951-2.3678 1.746-4.7227.48573-1.4504-.77622-3.4488-3.317-4.4548-5.6638-1.0034-2.3408-2.3319-4.256-2.9522-4.256-.6203 0-2.272-.9-3.6704-2s-3.1701-2-3.9372-2c-1.4691 0-11.598-7.5816-12.169-9.1089-.54282-1.4511 1.4854-1.0152 2.8333.60893.68469.825 1.7523 1.5003 2.3724 1.5007.62016 4e-4 4.9092 2.2504 9.5311 5 4.622 2.7496 8.9782 4.9993 9.6804 4.9993s1.4207 1.0125 1.5964 2.25c.21333 1.5021.90124 2.1523 2.0696 1.9562 1.1217-.18834 1.7553.35022 1.7647 1.5.0113 1.3774.3217 1.2135 1.3371-.70616 1.5806-2.9882.64824-4.55-3.1726-5.3141-1.5267-.30535-3.8791-1.65-5.2276-2.988-1.3484-1.3381-4.2517-3.3259-6.4517-4.4174-4.7254-2.3445-14.965-8.4272-18.482-10.979-1.3652-.99054-3.6152-2.2985-5-2.9066-1.3848-.60806-4.5428-2.6553-7.0178-4.5494s-5.2875-3.745-6.25-4.113c-1.9645-.75128-2.3841-2.732-.57874-2.732.64419 0 1.8817.63759 2.75 1.4169 1.587 1.4243 7.5739 4.9482 14.079 8.2868 1.925.988 3.725 2.0214 4 2.2964 1.4428 1.4428 10.133 6.8112 14.5 8.9572 2.75 1.3515 6.272 3.489 7.8267 4.75 2.8133 2.2818 5.6733 3.0284 5.6733 1.4808 0-.94469-5.3714-5.1073-9-6.9746-1.375-.70758-4.3-2.3856-6.5-3.7289s-5.575-3.2394-7.5-4.2135c-1.925-.97411-3.6546-2.1223-3.8435-2.5516-.18894-.4293-2.6139-2.0043-5.3889-3.5-11.983-6.459-16.497-10.219-12.268-10.219.825 0 1.5.46114 1.5 1.0248s1.1558 1.4642 2.5683 2.0012c1.4126.53706 4.0426 2.1009 5.8444 3.4752 1.8018 1.3743 3.7086 2.4988 4.2374 2.4988s2.5113 1.1606 4.4056 2.579 5.4693 3.6725 7.9443 5.0089c2.475 1.3365 5.175 2.8505 6 3.3646 4.8603 3.0285 14.249 8.0475 15.054 8.0475 1.7645 0 .95807-1.6737-1.3036-2.7054-1.2375-.56455-4.3914-2.6618-7.0086-4.6605s-5.2748-3.634-5.9056-3.634c-.63083 0-2.6219-1.125-4.4246-2.5s-3.5642-2.5-3.9144-2.5c-.86812 0-15.281-8.7072-18.997-11.476-1.65-1.2297-3.9719-2.543-5.1597-2.9184-1.1878-.37544-2.7054-1.3402-3.3724-2.1439-.66701-.8037-1.9452-1.464-2.8403-1.4674-.89516-.0034-2.8651-.6517-4.3776-1.4407-2.8483-1.4858-3.6432-.84639-1.55 1.2469.91994.91994.92546 1.4745.0236 2.3764-.90183.90183-1.5903.80636-2.95-.40908-.97547-.872-3.7986-2.6662-6.2736-3.9871-7.663-4.0897-9.4722-5.2367-10.3-6.5302-.43983-.6875-1.5064-1.25-2.3703-1.25-1.443 0-4.477-1.6898-13.915-7.75-1.9272-1.2375-3.9437-2.25-4.4811-2.25-1.7736 0-8.9125-5.2261-8.36-6.12.29774-.48175 3.0163.50115 6.0413 2.1842s6.2615 2.9127 7.1923 2.7325c1.181-.22864.63491-.84138-1.8078-2.0283-1.925-.93537-5.525-3.064-8-4.7303s-4.9928-3.0316-5.595-3.0339c-1.5139-.0059-4.8762-3.8664-4.0698-4.6729.36097-.36097 1.6707-.10314 2.9105.57295 5.9026 3.2188 8.6186 4.8521 13.054 7.8507 4.5515 3.0768 8.6999 4.2278 8.6999 2.4139 0-.45706-1.2375-1.4092-2.75-2.1159s-3.425-1.6616-4.25-2.1221-4.7202-2.466-8.6561-4.4569c-8.4889-4.2938-8.6359-4.4175-7.2431-6.0957.83551-1.0067-.0124-2.0006-3.7044-4.342-4.6255-2.9334-7.0262-3.8425-6.0382-2.2864.26192.4125 2.201 1.6321 4.309 2.7102s3.9904 2.0607 4.1829 2.1835c.19257.12277.0604.69204-.29375 1.265-1.1123 1.7997-10.525-4.0503-10.542-6.5518-.008-1.1787-.72621-2.4162-1.5962-2.75-2.4463-.93873-2.7695-.7352-1.4182.89301 1.9172 2.3101-1.5289 1.9543-5.632-.58156-4.8268-2.9831-4.2148-5.5124.69771-2.8833 3.5481 1.8989 1.9971.39667-4.5657-4.4221-3.575-2.6249-6.5-5.1867-6.5-5.6929 0-1.3913.9272-1.1227 3.7271 1.0798 1.3984 1.1 3.1345 2 3.858 2s1.6753.5625 2.1151 1.25c.71216 1.1132 4.5814 4.0564 8.0497 6.1232.69117.41187 1.25.2574 1.25-.34553 0-.59972-.7875-1.3798-1.75-1.7336-.9625-.35376-2.1099-1.2396-2.5497-1.9686s-1.3972-1.3254-2.1276-1.3254c-.73032 0-1.9455-.74471-2.7003-1.6549-.75484-.9102-2.8349-2.2662-4.6224-3.0134s-3.25-1.75-3.25-2.2285c0-.47847-.86633-1.0965-1.9252-1.3734-1.2481-.32638-1.7603-.07367-1.4563.71856.25791.6721-.41551 2.3087-1.4965 3.6368l-1.9654 2.4148-6.119-5.8381 2.1199-1.4848c1.6631-1.1649 2.521-1.2344 3.9812-.32248 1.0912.68146 1.8612.75696 1.8612.18248 0-.53894-1.4625-1.3772-3.25-1.8629-2.8391-.77138-3.5299-.55376-5.464 1.7214-1.2177 1.4324-2.2302 3.2157-2.25 3.9628-.04362 1.6477-4.7963.73342-6.9043-1.3283-2.1868-2.1387-.3989-3.8307 2.1565-2.0409 3.9878 2.7932 5.3704 1.5904 1.7118-1.4893-1.925-1.6204-2.9109-2.9583-2.191-2.9731.71996-.0148 1.0501-.44581.73369-.9578s-.11799-1.2136.44098-1.559c1.2225-.75554 1.352-2.5101.18529-2.5101-.45706 0-1.4331 1.125-2.169 2.5-1.6624 3.1062-2.711 3.1214-6.4946.0941-2.8791-2.3035-2.9271-2.4706-1.2431-4.3314 1.6824-1.859 1.652-1.9808-.7708-3.0847-2.3834-1.086-2.488-1.0124-1.8985 1.3363.50761 2.0225.25383 2.4856-1.3621 2.4856-1.0923 0-2.5462-.675-3.2309-1.5s-1.8648-1.5-2.6224-1.5c-.75766 0-1.3776-.45-1.3776-1s-.88588-1-1.9686-1c-1.2758 0-1.7797.49232-1.4318 1.3988.70788 1.8447-1.4655 3.1352-2.8867 1.714-.61208-.61208-1.8678-1.1129-2.7904-1.1129-2.4574 0-4.532-2.7905-3.1224-4.2.75474-.75474 1.533-.79122 2.4076-.11285.71081.55131 2.1924 1.2947 3.2924 1.6519 1.4275.4636 1.1063-.13607-1.1218-2.0948-1.717-1.5094-3.4452-3.7897-3.8406-5.0673-.68634-2.2182-.80495-2.245-2.6282-.59501-2.2809 2.0642-2.556 4.6034-.40943 3.7797.94984-.36449 1.5.01379 1.5 1.0314 0 1.4941-1.2165 2.0879-3.4193 1.669-.5056-.09616-.35436.50583.33609 1.3378.69045.83194.9178 2.0588.50523 2.7264-.52767.85378-.21839 1.0097 1.0429.52571 1.8933-.72652 8.5351 1.2207 8.5351 2.5023 0 .41377 1.9669 1.6224 4.371 2.6858 4.876 2.1569 6.3676 3.8216 4.8151 5.374-1.111 1.111-8.1861-2.5744-8.1861-4.2641 0-.48788-.67847-.6267-1.5077-.30849-.82925.31821-2.6683-.18187-4.0868-1.1113-3.4014-2.2287-4.585-.93826-1.3906 1.5161 1.3668 1.0502 2.788 1.9194 3.1583 1.9316.71808.02372 13.596 7.0519 19.674 10.737 2.009 1.2181 5.074 2.8944 6.8111 3.7251 1.7371.83071 3.3121 1.8591 3.5 2.2852.18789.42617 3.7166 2.5191 7.8416 4.6509 4.125 2.1318 8.2906 4.5668 9.2569 5.4112 2.2116 1.9325 5.0318 3.5899 10.743 6.3134 2.475 1.1802 5.175 2.7019 6 3.3816s2.625 1.5015 4 1.8263l2.5.59059-2.8058-2.4496c-1.5432-1.3473-3.4006-2.4496-4.1276-2.4496-.72698 0-1.8487-.63494-2.4928-1.411-1.644-1.9809.52768-3.1696 2.6037-1.4251 1.6197 1.3611 7.0247 4.3551 13.322 7.3799 1.925.92455 3.8078 2.1714 4.184 2.7709 1.4906 2.375-.42306 2.3999-4.8188.06265-5.0383-2.6789-7.1121-2.568-2.952.15782 1.4227.9322 2.5868 2.1102 2.5868 2.6177 0 1.0807-8.0642.29118-8.9192-.87323-1.2855-1.7506-7.7289-5.9872-9.9748-6.5586-1.797-.45715-2.1087-.32372-1.25.53501.62923.62923 1.144 2.5568 1.144 4.2835 0 2.41-.60371 3.4146-2.5981 4.3232-1.7908.81595-2.4048 1.6875-1.9759 2.8051.34451.89778-.12718 2.4494-1.0569 3.4768-.9235 1.0205-1.4968 1.8898-1.2741 1.9319.22275.04208 1.1907.227 2.151.41093.96032.18393 1.9994-.0755 2.309-.57651.99778-1.6144 2.445-.96983 2.445 1.0891 0 1.1-.6199 2-1.3776 2-2.7603 0-5.33 5.36-2.6224 5.47.825.03352 1.7374-.81266 2.0276-1.8804s1.0777-2.1247 1.75-2.3488c2.2463-.74875 1.2991 4.7641-1.2976 7.5528-2.2321 2.3971-2.3178 2.746-.75 3.0534 2.8404.55694 3.7096 1.9183 2.3052 3.6106-1.0851 1.3074-.95677 1.5424.84239 1.5424 2.2106 0 2.8528 1.4306 1.1224 2.5-1.8763 1.1596-1.005 2.5 1.625 2.5 2.4061 0 2.5729.26032 2.0006 3.1219-.54635 2.7318-.43169 2.962.91738 1.8424 2.3999-1.9917 4.3442.3854 2.5999 3.1785-.93749 1.5012-1.0011 2.3989-.22496 3.175.77613.77613 1.0821.45117 1.0821-1.1493 0-1.2273.64659-2.4795 1.4369-2.7828.79027-.30326 1.1921-1.1891.89301-1.9686-.32035-.83481.0726-1.4172.95615-1.4172.825 0 1.759.675 2.0756 1.5.31658.825 1.4674 1.5 2.5573 1.5 1.0899 0 2.3698.6935 2.8441 1.5411.8441 1.5083 5.6919 3.1867 17.737 6.1407 3.3.80933 6.7814 1.887 7.7364 2.3948.95504.50782 2.8675.92331 4.25.92331s2.5136.43378 2.5136.96395 1.5717 2.032 3.4927 3.3373c3.9407 2.6778 8.0774 9.7195 9.0461 15.399.35648 2.09 1.4862 4.9923 2.5104 6.4496 1.0243 1.4573 2.1656 3.858 2.5362 5.3348.37066 1.4768 4.3988 6.5994 8.9515 11.383 6.3572 6.6803 9.9812 9.5617 15.62 12.42 4.0385 2.0467 8.3177 3.7193 9.5094 3.7168 1.1917-.002 2.3317.49069 2.5335 1.0959.50818 1.5245 15.515 1.5844 17.032.0679.64258-.64258 2.6108-1.1683 4.3738-1.1683 1.763 0 5.1605-.9639 7.55-2.142 2.3895-1.1781 5.39-2.6218 6.6679-3.2082 4.6232-2.1217 21.963-21.829 25.647-29.15 1.9378-3.85 3.5246-7.4728 3.5263-8.0506.007-2.438 2.6112-6.4538 4.0031-6.1733 2.1903.44145 1.5288 5.3363-1.4644 10.836l-2.5226 4.6348 1.9935 2.5343c2.7532 3.5001 2.4995 5.86-.98926 9.2024-2.8109 2.693-3.0892 2.7614-4.8287 1.1871-2.3516-2.1281-4.1885-2.1385-4.1885-.02352 0 3.9683-13.163 17.172-20.453 20.517-2.7756 1.2733-5.2716 2.6077-5.5466 2.9652s-2.525 1.1788-5 1.825c-2.475.64627-5.85 1.557-7.5 2.0239-3.8606 1.0924-17.113 1.9217-21 1.314zm-53.5-6.637c0-.18976-1.0125-1.2023-2.25-2.25l-2.25-1.905 1.905 2.25c1.7902 2.1144 2.595 2.7052 2.595 1.905zm17-.62999c0-.56023-1.3826-.71183-3.25-.35636-4.5573.86748-4.7025 1.3314-.41667 1.3314 2.0167 0 3.6667-.43875 3.6667-.975zm31 .59163c0-.21085-.90062-.61888-2.0014-.90674-1.1008-.28785-1.7492-.11534-1.441.38337.53825.87091 3.4424 1.3124 3.4424.52337zm-26.271-2.2208c-.3323-.33229-1.1948-.36781-1.9167-.0789-.79773.31922-.56078.55618.60417.60416 1.0542.0434 1.6448-.19293 1.3125-.52522zm16.271-.51246c0-.6243.88181-.88603 2-.59362 2.605.68123 2.5482.074-.12717-1.3578-1.6592-.88797-2.3158-.84071-2.9847.21481-1.1462 1.8089-1.1053 2.8532.11186 2.8532.55 0 1-.50248 1-1.1166zm-28.731-.53931c-.67703-.27392-2.027-.29059-3-.0371-.97297.25354-.41903.47766 1.231.49804 1.65.0204 2.4461-.18706 1.769-.46099zm-15.269-1.3655c0-.56179-1.2375-1.5446-2.75-2.1841-2.898-1.2252-11.25-8.6512-11.25-10.003 0-1.5075 2.6978-.78321 4.5 1.2082.99549 1.1 2.3027 2.0082 2.905 2.0182.60225.01 3.0281 1.3284 5.3908 2.9297 3.4882 2.3642 4.9921 2.8046 8 2.343 2.0373-.31266 4.2429-.99135 4.9012-1.5082.65838-.51685 2.2334-.8546 3.5-.75054 3.6258.29787 4.3573.0889 6.6499-1.8995 2.5432-2.2057 2.6817-2.7994.65301-2.7994-.825 0-1.5.40351-1.5.8967 0 .49318-1.4625.75568-3.25.58333-2.4789-.23901-3.25-.7879-3.25-2.3134 0-1.1-.45-2.3306-1-2.7347-1.4711-1.0808-4.5-.92283-4.5.23469 0 .55.9 1 2 1s2 .45 2 1c0 1.6771-4.5001 1.1144-6.5793-.82265-2.1806-2.0315-6.4207-3.4521-6.4207-2.1511 0 1.4956-4.0042 2.1617-8.8081 1.4653-4.3217-.62652-4.9642-1.1066-8.1446-6.0858-1.899-2.9731-3.8115-5.4057-4.25-5.4057-.4385 0-.79727-.675-.79727-1.5s-.48177-1.5-1.0706-1.5c-.58883 0-3.1763-1.7606-5.75-3.9126-7.0054-5.8574-24.003-13.848-21.77-10.233.3895.63021 1.2938 1.1458 2.0096 1.1458s2.9592 1.125 4.9854 2.5c2.0262 1.375 4.2473 2.5 4.9359 2.5s4.3811 2.8826 8.2056 6.4057c5.1349 4.7303 6.6656 6.7054 5.8523 7.5513-.8188.85172-1.8553.2987-4.0404-2.1557-3.3734-3.7893-7.7809-7.4846-5.617-4.7093.68273.8756.94523 1.8881.58334 2.25-.3619.36189.0183.65799.8449.65799.82659 0 3.2641 2.232 5.4167 4.9599 2.1526 2.728 4.3064 4.978 4.7862 5 .47985.0221.32861-.61518-.33609-1.4161-1.3487-1.6251-.47034-3.93 1.1226-2.9456.56138.34696.7685 2.0418.46026 3.7663-.43989 2.461.0786 3.9805 2.4102 7.0636 1.6338 2.1605 2.9706 3.4587 2.9706 2.8849 0-.57381-.9-2.1874-2-3.5859-2.1855-2.7784-2.5014-4.2992-1.0761-5.1801.50813-.31404 1.9383 1.4602 3.1781 3.9427 1.2398 2.4825 3.4116 5.2924 4.8261 6.2443 2.0036 1.3482 9.4108 5.5648 10.822 6.1604.1375.058.25-.35413.25-.91592zm22.086-.26036c1.4429-1.1081 1.4332-1.3785-.10719-2.9927-1.5194-1.5922-1.8253-1.6156-2.9776-.22711-1.0819 1.3036-1.0256 1.4482.35719.91755 1.0793-.41417 1.6414-.10809 1.6414.89378 0 .83801-.5625 1.7506-1.25 2.028s-.8.5256-.25.55153c.55.0259 1.7138-.50105 2.5862-1.171zm19.417-2.7128c-.33809-.54704-1.5102-1.4739-2.6047-2.0597-1.8277-.97815-1.8851-.897-.70376.99462.70745 1.1328 1.8796 2.0597 2.6047 2.0597.72516 0 1.0418-.44758.70376-.99462zm-5.5033-2.9464c0-.51754-.45-1.2191-1-1.559s-1 .0835-1 .94098c0 .85746.45 1.559 1 1.559s1-.42344 1-.94098zm-5-1.5c0-.24254-.45-.7191-1-1.059s-1-.14148-1 .44098.45 1.059 1 1.059 1-.19844 1-.44098zm-122.64-2.059c-.62715-1.6343-2.3616-2.0628-2.3616-.58333 0 .759.70084 1.2757 2.7186 2.0044.12024.0434-.04041-.59605-.35699-1.421zm11.124-1.0572c1.1081-.71218 3.7022-1.6032 5.7647-1.9801 2.0625-.3769 3.75-1.0558 3.75-1.5088s3.375-1.3906 7.5-2.0837 7.5-1.6844 7.5-2.2029c0-1.1021-10.818-.0359-12.434 1.2255-.58622.45764-3.7659 1.6474-7.0659 2.6439-3.3.99651-6.8876 2.4084-7.9725 3.1375-1.0849.72913-2.7724 1.3257-3.75 1.3257-.97762 0-1.7775.48575-1.7775 1.0795 0 1.3181 5.5552.24664 8.4853-1.6366zm111.51-2.6928c0-.4125-.4645-.75-1.0322-.75-.56773 0-1.3552-.80412-1.75-1.7869-.39478-.98281-2.2565-4.1335-4.1372-7.0016-3.2435-4.9464-3.514-5.1292-5.2561-3.5525-1.0102.91419-1.5844 1.9144-1.2762 2.2227.30828.30827.93573-.0466 1.3943-.78866 1.4338-2.3199 3.3109-.1102 2.6621 3.1338-.4645 2.3225-.28132 2.8631.82614 2.4382 2.0165-.7738 3.8971 1.8927 3.2246 4.5721-.49404 1.9684-.18315 2.263 2.3883 2.263 1.626 0 2.9563-.3375 2.9563-.75zm-33.5-8.75c-.33992-.55-1.0415-1-1.559-1s-.94098.45-.94098 1 .70156 1 1.559 1 1.2809-.45.94098-1zm-97.5-1.3776c0-.20765-.7875-.99515-1.75-1.75-1.5861-1.2439-1.6214-1.2085-.37756.37756 1.3064 1.6658 2.1276 2.1955 2.1276 1.3724zm115-4.4339c0-.44629.95248-1.8338 2.1166-3.0834 1.3827-1.4842 1.7767-2.6118 1.1363-3.2522-.64039-.64039-1.721.27518-3.1166 2.6405-2.4269 4.1132-2.526 4.5065-1.1363 4.5065.55 0 1-.36515 1-.81144zm-120.88-4.8636c-.87155-1.4988-1.0667-1.542-1.0917-.24167-.03234 1.6841 1.0192 3.2004 1.7279 2.4917.23375-.23375-.05257-1.2462-.63626-2.25zm68.858 1.1508c-.69572-.83829-1.5253-1.2638-1.8435-.94562-.3182.31819.0834.99718.8925 1.5088 2.117 1.3388 2.3936 1.175.95098-.56323zm51.27-5.9758c.47126-.62835 1.1014-.45329 1.6956.47104.52009.80907 1.2609 1.1557 1.6463.77033.38539-.38539-.49015-2.5002-1.9456-4.6996-1.4555-2.1994-2.6463-4.3324-2.6463-4.7401 0-1.514-6.546-6.2615-9.4714-6.869-1.6658-.34594-4.0712-1.2899-5.3456-2.0977-1.819-1.1531-2.6276-1.2109-3.7623-.26916-1.0184.8452-1.1413 1.5661-.41583 2.4402.56627.68232.75982 1.9436.43011 2.8028-.83135 2.1664 5.6216 1.9743 7.2476-.21579.92046-1.2398 1.4523-1.3272 2.3986-.39427.9536.94002.85527 1.7492-.45573 3.75-.91944 1.4032-1.2229 2.5514-.67433 2.5514.54855 0 1.7031-1.3647 2.5656-3.0327.86255-1.668 1.9991-2.7664 2.5257-2.441 1.5695.96999 1.0915 4.4766-1.013 7.4322-1.8376 2.5806-1.7973 4.0415.11144 4.0415.44421 0 1.5058-1.35 2.359-3s1.9898-3 2.5257-3c1.4229 0 1.1926 4.761-.27568 5.7003-.6875.43983-1.3151 1.603-1.3947 2.5848-.1228 1.5146.10447 1.5904 1.5.5.90461-.70679 1.9822-1.7351 2.3947-2.2851zm-17.058-13.575c.19708-.59125.78583-1.075 1.3083-1.075s1.1112.48375 1.3083 1.075c.19709.59125-.39166 1.075-1.3083 1.075s-1.5054-.48375-1.3083-1.075zm-111.29 7.325c-2.1198-2.7635-4.7517-5.25-5.5569-5.25-.40589 0 .78857 1.575 2.6544 3.5 3.6179 3.7328 5.1165 4.6363 2.9025 1.75zm208.1-1.309c0-2.0922-1.6006-2.4789-3.9951-.96515-1.2825.81079-1.213 1.1515.48897 2.396 2.3465 1.7158 3.5062 1.2426 3.5062-1.4309zm11.5.05902c-.48382-.78284-1.0591-.84093-1.7257-.17426-.55.55-.67341 1.5284-.27426 2.1743.48382.78284 1.0591.84093 1.7257.17426.55-.55.67341-1.5284.27426-2.1743zm-6.5-5c2.0972-3.9187-2.1587-7.9235-4.9044-4.6151-.89463 1.078-.64474 1.9604 1.1276 3.9819 2.7424 3.128 2.4665 3.0818 3.7769.63321zm-114.64-1.5077c-.31821-.82925.15629-2.6292 1.0544-4 1.5383-2.3478 1.5254-2.4923-.22338-2.4923-1.021 0-1.9133.5625-1.9828 1.25-.0696.6875-.42201 2.4875-.78324 4-.50624 2.1197-.29345 2.75.92841 2.75 1.0018 0 1.3723-.55486 1.0066-1.5077zm5.9311-.49228c.28766-1.1.11514-2-.38337-2s-.90638.9-.90638 2 .17252 2 .38337 2 .61872-.9.90638-2zm-9.8117-3.6069c1.2883-1.9661 1.4249-2.8879.55576-3.75-.8674-.86045-.9876-.71038-.48611.6069.37788.99256.20234 1.75-.40557 1.75-.58949 0-1.5535.9-2.1422 2-1.5758 2.9445.48122 2.4407 2.4781-.6069zm109.52.6069c0-.55-.59484-1-1.3219-1s-3.0895-1.3375-5.25-2.9722-4.4425-2.9847-5.0712-3c-.62866-.0153-1.402-.70282-1.7186-1.5278-.31658-.825-1.3772-1.5143-2.357-1.5318-1.6881-.0301-1.6902-.10102-.0407-1.3534 1.6543-1.256 1.6543-1.3965 0-2.8294-.95738-.82927-3.9907-2.7829-6.7407-4.3414s-6.3925-3.8709-8.0944-5.1388c-1.7019-1.2678-3.399-2.3052-3.7714-2.3052s-2.4642-1.1827-4.6486-2.6283c-3.1393-2.0775-4.2687-2.3816-5.3895-1.4514-1.6045 1.3316-2.9016.03962-2.0882-2.0801.3859-1.0056-.68434-1.3402-4.2867-1.3402-3.6132 0-5.5816-.61854-7.9557-2.5-3.7795-2.9951-4.3268-5.5053-1.0154-4.6566 2.1691.55596 2.1601.50781-.25-1.339-2.467-1.8905-2.5042-1.8899-2.8196.03994-.30905 1.8914-3.1804 2.8595-3.1804 1.0723 0-.48585-.9-1.1187-2-1.4064s-2-.38235-2-.21044c0 .57471 9.993 7.5002 10.822 7.5002.44972 0 2.6577 1.575 4.9066 3.5s4.4925 3.5 4.9857 3.5c.49322 0 2.4467 1.1638 4.341 2.5863 1.8944 1.4225 4.4568 2.9863 5.6943 3.4752s2.25 1.3501 2.25 1.9137.7875 1.0348 1.75 1.047c.9625.0122 2.875.90222 4.25 1.9778s2.8464 1.9655 3.2699 1.9778c.42343.0122 2.6734 1.2428 5 2.7345 5.0823 3.2586 9.1905 5.6517 13.23 7.7065 1.65.83932 4.125 2.4284 5.5 3.5314 2.7798 2.2298 4 2.55 4 1.0498zm-21.096-13.615c-1.1599-1.3975-1.0864-1.5661.54469-1.25 1.0369.20094 2.0726.92784 2.3015 1.6153.59396 1.7839-1.26 1.5459-2.8462-.36534zm-7.6118-4.2938c-1.2141-1.0134-1.9746-2.0755-1.6899-2.3601.73411-.73411 6.3974 2.2248 6.3974 3.3425 0 1.4923-2.3237 1.0074-4.7075-.98237zm-8.7514-5.5368c-3.8702-2.2556-5.7283-4.554-3.6816-4.554 2.0047 0 8.1405 4.22 8.1405 5.5988 0 1.6849.37545 1.7728-4.4589-1.0447zm-76.894 19.956c1.0434-2.2498.85142-2.657-2.118-4.4922-4.0917-2.5288-4.5293-2.5187-4.5293.10431 0 1.7449.25906 1.9074 1.4562.91391 2.1346-1.7716 3.7983-.22389 3.3131 3.0821-.51833 3.5316.33902 3.7106 1.878.3919zm-104.65.16399c0-.17912-1.2375-1.4166-2.75-2.75l-2.75-2.4243 2.4243 2.75c2.2659 2.5703 3.0757 3.2086 3.0757 2.4243zm221-.57648c0-.4962-1.3488-1.3724-2.9973-1.947-1.6485-.57467-4.5035-2.1937-6.3444-3.5978-3.763-2.8702-6.7419-3.5635-4.6905-1.0917.66701.8037 2.1846 1.7653 3.3724 2.1368 1.1878.37155 3.4317 1.739 4.9864 3.0387 2.8597 2.3908 5.6733 3.1153 5.6733 1.461zm-66.91-29.49c-1.0659-1.2843-5.0897-2.9021-5.0897-2.0464 0 .36002 5.1084 3.3161 5.8724 3.3983.20485.02202-.14739-.58633-.78275-1.3519zm-8.5897-5.1935c-5.5423-4.6434-8.7314-5.6459-4.5-1.4146 1.1 1.1 2.6484 2 3.441 2s1.7191.45 2.059 1 .92898.98382 1.309.96404-.65902-1.167-2.309-2.5494zm1.0115-5.9811c-1.0937-.82657-1.9937-2.1199-2-2.8741-.0144-1.7213-4.7912-5.5594-6.9192-5.5594-.87575 0-1.5923-.675-1.5923-1.5s-.71025-1.5-1.5783-1.5-6.1556-2.2818-11.75-5.0707c-5.5944-2.7889-11.297-5.4915-12.672-6.0058-2.4134-.9027-2.4307-.88064-.5.63683 1.9672 1.5461 18.328 9.6698 21.75 10.799 1.9623.64776 2.4144 3.6405.55 3.6405-.91098 0-.90095.29905.0416 1.2416.98886.98885 1.4192.95436 2.1137-.16941.66788-1.0807 1.6349-1.1923 4.13-.47668 3.4278.98307 5.2045 3.4044 2.498 3.4044-2.7166 0-1.7321 1.4298 2.1718 3.154 4.7484 2.0971 6.3156 2.2138 3.7564.27959zm-111.51-1.4769c0-.44557-1.35-1.4836-3-2.3067-3.3739-1.6831-3.3506-1.7024-2.0549 1.7057.70496 1.8542 1.4672 2.3493 3 1.9485 1.1302-.29555 2.0549-.90192 2.0549-1.3475zm-2.1217-11.505c-.29176-7.2115-1.8783-8.2063-1.8783-1.1777 0 4.7909.49422 6.7257 1.7181 6.7257.2116 0 .28372-2.4966.16027-5.5479zm-5.1485-10.18c-.21648-2.0748-.39722-.6223-.40166 3.2277-.0044 3.85.17268 5.5475.39359 3.7723.22091-1.7752.22454-4.9252.0081-7zm103.2 5.5366c-18.912-10.181-28.2-14.809-29.724-14.809-1.8494 0 .97684 2.2612 6.2896 5.032 1.65.86056 3.9 2.0726 5 2.6933s2.675 1.4011 3.5 1.7341 4.9878 2.5033 9.2507 4.823c4.2629 2.3197 8.9585 4.2876 10.435 4.3733 1.9736.1145.71619-.90362-4.7507-3.8468zm-53.935-2.8403c0-.56726-.7875-1.3082-1.75-1.6466s-2.9828-1.7539-4.4896-3.1457c-2.8368-2.6203-4.4651-2.4551-3.391.34394.33906.88358 1.0789 1.3207 1.644.97146.56514-.34928 2.4028.5222 4.0838 1.9366 3.3835 2.8471 3.9028 3.052 3.9028 1.5403zm-45.878-11.056c-.55029-3.9709-1.5773-7.5763-2.2822-8.012-1.7295-1.0689-2.3768-.253-1.059 1.3348.58612.70624 1.3843 4.2046 1.7737 7.7742s.95639 6.9179 1.2599 7.4408c1.1492 1.9799 1.2762-1.5477.30755-8.5378zm34.685 3.5606c-.30789-.30789-.86705.24711-1.2426 1.2333-.54268 1.4252-.42782 1.5401.5598.5598.68342-.67833.99067-1.4852.68278-1.7931zm-39.145-3.7235c-.27741-.6875-.50439-.125-.50439 1.25s.22697 1.9375.50439 1.25c.27741-.6875.27741-1.8125 0-2.5zm34.878 1.2861c-3.2071-2.1141-4.1221-1.9936-3.1956.42078.33833.88168 1.7844 1.5403 3.3735 1.5365l2.7814-.006589zm-4.7795-2.2861c-.22302-.6875-2.173-2.0932-4.3333-3.1239-2.1603-1.0306-5.1476-2.8991-6.6384-4.1522s-4.8658-3.0916-7.5-4.0855c-2.6342-.99394-7.1977-3.0629-10.141-4.5978s-5.631-2.7906-5.9725-2.7906c-.77648 0 3.4269 2.9832 7.0329 4.9914 1.4899.82971 6.1353 3.5336 10.323 6.0086 14.865 8.7854 18.026 10.207 17.229 7.75zm41.239-.12756c0-.20766-.7875-.99516-1.75-1.75-1.5861-1.2439-1.6214-1.2085-.37756.37756 1.3064 1.6657 2.1276 2.1955 2.1276 1.3724zm-34.5-21.622c-.33992-.55-1.068-1-1.618-1s-.72188.45-.38197 1 1.068 1 1.618 1 .72188-.45.38197-1zm-42.5-5c0-.55-.19844-1-.44098-1s-.7191.45-1.059 1-.14148 1 .44098 1 1.059-.45 1.059-1zm33 0c-.825-.53316-1.95-.96937-2.5-.96937s-.325.43622.5.96937 1.95.96937 2.5.96937.325-.43622-.5-.96937zm-43-2.941c0-2.5212-1.7146-3.5408-3.4844-2.072-1.8208 1.5111-.82866 4.013 1.5914 4.013 1.2072 0 1.893-.70323 1.893-1.941zm-23.755-4.559c-.5188-2.714-.99156-2.946-3.1804-1.5609-1.1898.7529-1.2117 1.1784-.12756 2.4847 2.0378 2.4554 3.8569 1.9474 3.308-.92378zm10.152.90976c.75081-1.9566-.05734-3.4098-1.8963-3.4098-1.7995 0-2.8237 1.714-2.12 3.5479.7434 1.9373 3.253 1.8509 4.0163-.13813zm40.104-1.9408c-1.65-1.3525-3.7875-2.4613-4.75-2.464s-1.75-.40682-1.75-.89798c0-.49116-.65208-1.1432-1.4491-1.4491-.86924-.33356-1.2631-.076261-.98434.64301.6953 1.794 8.3103 6.1654 11.433 6.5634.275.03504-.85-1.0429-2.5-2.3954zm-22.668-6.1013c-.48847-2.5364-3.8323-3.0957-3.8323-.64103 0 2.4012 2.1086 4.5647 3.2938 3.3795.49158-.49158.73391-1.7239.53852-2.7385zm120.67 151.63c-.35191-.5694.50929-1 2-1s2.3519.4306 2 1c-.33992.55-1.2399 1-2 1s-1.6601-.45-2-1zm-13.319-5.7451c-5.9534-.24189-8.2003-.6817-7.9004-1.5464.56818-1.6385 15.366-.96158 18.72.85633l2.5 1.3552-2.5-.1635c-1.375-.0899-6.2438-.31562-10.819-.50153zm-16.598-6.7695c-1.2316-1.8797-1.1742-2.2591.49955-3.3044 2.3043-1.4391 6.9181-1.5597 6.9181-.18091 0 .55-1.3234 1-2.941 1s-3.19.40285-3.4943.89522c-.83234 1.3468 2.0731 2.1272 5.4241 1.457 3.8328-.76657 22.011.58557 22.011 1.6372 0 .44155-6.0809.76156-13.513.71113-12.619-.0856-13.605-.23221-14.905-2.2152zm12.418-4.4854c0-.55 1.35-1 3-1s3 .45 3 1-1.35 1-3 1-3-.45-3-1zm-85.5-2c-.36706-.59391.80328-1 2.882-1 1.925 0 3.7781-.45 4.118-1s3.929-1 7.9757-1c4.0467 0 7.5076-.41294 7.691-.91765.51689-1.423 5.8333-.0247 5.8333 1.5342 0 1.054-1.7721 1.3834-7.441 1.3834-4.0925 0-7.7191.45-8.059 1s-3.2649 1-6.5 1-6.1601-.45-6.5-1zm208.5-2.5c0-.825.45-1.5 1-1.5s1 .675 1 1.5-.45 1.5-1 1.5-1-.675-1-1.5zm-151-.86191c0-1.3756 1.2337-1.6381 7.7-1.6381 9.3682 0 8.7839 1.5902-.95 2.5858-5.8672.60011-6.75.47616-6.75-.9477zm169.84-14.253c.31729-10.876.1302-12.264-2.9321-21.751-3.0639-9.4921-3.6716-10.53-9.5974-16.384-3.4795-3.4375-6.9818-6.25-7.7827-6.25-.80096 0-1.938-.9-2.5267-2s-1.8594-2-2.8237-2c-.96436 0-3.536-.91459-5.7148-2.0324-5.0293-2.5803-21.906-4.4079-33.407-3.6176-9.4362.64838-16.587-.64479-19.343-3.4979-.98392-1.0186-2.4464-1.852-3.25-1.852-.80357 0-1.461-.56829-1.461-1.2629 0-.69458-1.0125-1.7071-2.25-2.25-1.4767-.64785-2.3561-2.0182-2.5586-3.9871l-.30856-3 3.943 4.25c2.1687 2.3375 4.67 4.25 5.5586 4.25.88853 0 1.6172.3375 1.6193.75.002.4125 1.9146 1.5223 4.25 2.4663 3.4379 1.3896 7.8633 1.7451 23.246 1.8673l19 .15097-.0594-8.3673c-.03264-4.602-.38386-11.067-.78046-14.367-.63514-5.2847-.55593-5.7616.66452-4 1.421 2.051 3.6753 16.912 3.6753 24.229 0 3.8529.26028 4.2191 4.4361 6.2405 2.4398 1.1811 4.5774 2.4588 4.75 2.8392.17265.38045 2.4711 1.8167 5.1076 3.1917 4.951 2.582 9.9285 7.1015 12.3 11.168 7.4368 12.752 9.406 19.951 9.406 34.386 0 9.8147-.498 12.444-2.357 12.447-.81126.00093-1.0446-3.3706-.8041-11.616zm-177.84 9.6149c0-.55556 2.6667-1 6-1s6 .44444 6 1-2.6667 1-6 1-6-.44444-6-1zm-60-5.4147c0-1.1872 1.0212-1.5853 4.0657-1.5853 2.2362 0 4.8237-.39207 5.75-.87127.92634-.4792 4.9468-1.0941 8.9343-1.3665 5.7045-.38965 7.25-.20392 7.25.87127 0 .94345-1.3312 1.3665-4.3 1.3665-2.365 0-4.7275.40031-5.25.88957s-4.4375 1.2026-8.7 1.5853c-6.7002.6015-7.75.481-7.75-.88957zm45.972-.6369c-.60389-1.1284-.95722-3.0409-.78518-4.25.27889-1.9602.90885-2.1984 5.8128-2.1984 4.2222 0 5.5.34848 5.5 1.5 0 1.083-1.3382 1.5854-4.8142 1.8074-3.1919.20383-4.6748.70929-4.4005 1.5.29819.85973 3.805 1.1026 12.564.87029 7.2098-.19124 12.151.0629 12.151.625 0 1.4502-5.3008 2.1973-15.59 2.1973-8.3946 0-9.4509-.20762-10.438-2.0516zm108.19-2.9484c-2.2778-1.65-4.5953-3-5.15-3s-1.0087-.45-1.0087-1c0-1.8341 2.3048-1.0337 7.6768 2.6662 2.9278 2.0164 5.3232 3.8164 5.3232 4 0 1.1809-3.3127-.11015-6.8413-2.6662zm-116.16.5c0-.825.45-1.5 1-1.5s1 .675 1 1.5-.45 1.5-1 1.5-1-.675-1-1.5zm-8-3.4442c0-1.0693-1.0735-3.1922-2.3855-4.7175-1.8231-2.1194-2.7072-2.5176-3.75-1.6888-1.6531 1.3138-32.532 2.6182-31.233 1.3193 1.1321-1.1321 5.9664-1.7428 20.405-2.5776 10.857-.62777 11.537-.79137 11.549-2.7791.0074-1.1616-1.5441-3.5102-3.4476-5.2189-2.3271-2.089-3.2545-3.6452-2.8305-4.75.62162-1.6199 3.6679-2.3513 3.7202-.89316.0148.4125 1.3444 2.325 2.9548 4.25 2.3694 2.8324 2.8189 3.0708 2.3565 1.25-.62207-2.4495.55873-2.9531 2.4619-1.05 1.5144 1.5144 1.5585 4.5138.07363 5.0088-.74306.24769-.39584 1.8074 1.0203 4.5833 2.5694 5.0364 3.3038 5.3843 2.0362.96448-.51161-1.7839-.9302-3.8089-.9302-4.5 0-2.3007 2.0356-1.2958 3.0252 1.4934.53662 1.5125 1.4789 3.617 2.094 4.6766.88513 1.5248.78078 2.1734-.50043 3.1102-.89031.65101-1.6188 1.6966-1.6188 2.3234 0 .62687-1.125 1.1398-2.5 1.1398-1.8094 0-2.5-.53705-2.5-1.9442zm-32.39-.0658c1.3834-1.3834 29.39-2.6187 29.39-1.2963 0 .98724-14.135 2.2909-24.95 2.3012-3.6695.003-5.12-.32481-4.4399-1.0049zm42.1-3.74c-.87667-2.0625-1.8967-4.875-2.2668-6.25s-1.5979-3.5107-2.7285-4.7461c-3.4192-3.7358-.91467-3.9018 2.7013-.17897 3.1126 3.2046 5.5654 8.9972 5.5787 13.175.0094 2.9386-1.6027 1.9571-3.2846-2zm9.9569 1.0833c-.36667-.36666-.66667-1.2667-.66667-2 0-1.5497 6.5407-1.8855 7.469-.3835 1.1109 1.7975-5.183 4.0028-6.8023 2.3835zm-5.9417-5.9417c-1.6188-1.6188.91249-2.3916 7.8341-2.3916 4.294 0 7.441.42293 7.441 1 0 .55402-2.6394 1-5.9182 1-3.255 0-6.541.23899-7.3022.5311-.76121.2921-1.6858.22934-2.0546-.13948zm73.726-.38926c-6.5386-.95176-12.315-5.1056-15.218-10.943-2.3172-4.6595-3.0306-11.059-1.2329-11.059.55 0 1 1.6999 1 3.7775 0 8.3797 9.5639 16.2 19.833 16.217 2.1268.004 3.1901.4354 2.9375 1.1931-.52789 1.5837-1.3834 1.6789-7.3196.81486zm-48.245-4.7426c-1.8003-2.2731-2.7559-4.3696-2.316-5.0813.50843-.82266 1.807.10505 4.0448 2.8897 2.1524 2.6783 2.9559 4.4414 2.316 5.0813s-2.0434-.36271-4.0448-2.8897zm58.794 2.3711c0-1.4177-4.855-2.5999-10.759-2.6198-3.3166-.0112-9.2409-4.4352-9.2409-6.9007 0-.64522-.67242-1.4312-1.4943-1.7465s-1.2331-.99596-.91391-1.5124.0409-1.589-.61836-2.3834c-.95366-1.1491-.86921-1.5708.41313-2.0629 1.3665-.52438 1.2455-.90671-.79511-2.5118-1.3238-1.0413-3.0156-1.8933-3.7594-1.8933s-2.537-1.0984-3.9848-2.4408c-1.4478-1.3424-2.8618-2.2113-3.1424-1.9307-.96461.9646-4.7049-2.1112-4.7049-3.869 0-2.1837 3.2743-2.3423 5.3571-.25945.825.825 1.8924 1.5 2.3721 1.5 2.1519 0 6.2097 2.6332 6.0012 3.8943-.14801.89551.79206 1.4456 2.6278 1.5378 1.572.07889 3.372.80692 4 1.6179.62798.81094 2.3793 2.0218 3.8918 2.6908 1.5125.669 2.75 1.676 2.75 2.2378 0 .56179.5625 1.0235 1.25 1.0261 2.1484.008 13.953 6.6071 14.925 8.3433.50851.90865 1.5772 1.6521 2.3749 1.6521s1.4503.72378 1.4503 1.6084c0 1.2361-.60672 1.4561-2.6208.95063-1.4414-.36178-3.2736-1.3106-4.0714-2.1084-1.6294-1.6294-4.7657-2.0006-3.8078-.45063.33992.55 1.2665 1 2.059 1s1.441.6437 1.441 1.4304.97725 1.5742 2.1717 1.75c3.5236.51847 3.4515 2.8196-.08834 2.8196-1.9431 0-3.0833-.50631-3.0833-1.3692zm-7.2166-10.131c-1.4829-1.375-3.4678-2.5-4.411-2.5-.94319 0-2.5378-.74474-3.5436-1.655-1.0058-.91024-1.8287-1.2435-1.8287-.74055 0 1.0777 3.0925 3.2344 7.9889 5.5714 4.7568 2.2704 4.9098 2.2128 1.7946-.67584zm-79.28 7.6705c-1.6016-1.6016.36329-2.1705 7.4962-2.1705 6.1505 0 8 .3203 8 1.3855 0 1.0617-1.7518 1.3742-7.4962 1.3371-4.1229-.0266-7.7229-.27502-8-.55212zm-58.504-5.9406c0-1.1332 9.5635-2.2298 19.447-2.2298 3.9343 0 7.6224-.46907 8.1957-1.0424.72318-.72318 1.4405-.56266 2.3425.52417.71507.8616 1.1235 1.73.90762 1.9299-.96942.89738-30.893 1.6899-30.893.81816zm61.192-.30483c.19708-.59125.68458-1.0412 1.0833-1s2.525.075 4.725.075 4 .45 4 1-2.2875 1-5.0833 1c-3.1809 0-4.9492-.40232-4.725-1.075zm19.808-3.484c0-.85746.45-1.2809 1-.94098s1 1.0415 1 1.559-.45.94098-1 .94098-1-.70156-1-1.559zm-26.25-.19037c-7.646-.5798-5.456-2.2506 2.95-2.2506 4.5302 0 7.3089.3654 6.75.8876-1.4344 1.3402-4.437 1.7621-9.7 1.363zm-56.75-.99856c0-1.6782 3.8895-2.224 15.95-2.2384 7.0136-.0084 11.082.34387 10.5.90908-1.3858 1.346-26.45 2.6057-26.45 1.3293zm68-.25206c0-.55.45-1 1-1s1 .45 1 1-.45 1-1 1-1-.45-1-1zm-72-3.7224c0-1.3023 4.9411-2.1182 17.75-2.9311 9.126-.57912 10.25-.4693 10.25 1.0015 0 1.3625-1.1125 1.652-6.3491 1.652-3.492 0-9.792.29103-14 .64674-4.9381.41742-7.6509.28653-7.6509-.36916zm50-.27758c0-.55.42344-1 .94098-1s1.2191.45 1.559 1-.08352 1-.94098 1c-.85746 0-1.559-.45-1.559-1zm5.2525-.25c.37972-1.1323 1.3499-1.2528 6.9975-.86894 3.9016.26517 1.4228 2.1189-2.8333 2.1189-3.2236 0-4.459-.37084-4.1641-1.25zm-57.548-1.3792c-1.2582-1.2582 2.8986-3.2512 7.8853-3.7806 15.666-1.663 18.411-1.6806 18.411-.11806 0 1.2137-1.388 1.5401-6.75 1.5875-6.7636.05973-14.394 1.0904-17.302 2.3372-.85373.36596-1.8634.35426-2.2436-.02602zm48.296-2.3708c0-.55.42344-1 .94098-1s1.2191.45 1.559 1-.08352 1-.94098 1c-.85746 0-1.559-.45-1.559-1zm6.25.29427c-3.8562-.74274-2.4639-2.2943 2.0589-2.2943 2.3699 0 5.1824.66069 6.25 1.4682 1.807 1.3668 1.6648 1.461-2.0589 1.3638-2.2-.05741-5.0125-.2994-6.25-.53775zm16.75-.17764c0-.92173 4.1196-2.3304 4.8065-1.6435.21659.21659.0972.87374-.26535 1.4603-.79317 1.2834-4.5411 1.4345-4.5411.18316zm-28-4.7391c0-1.3288.27149-1.3971 1.5-.37756.825.68469 1.5 1.4148 1.5 1.6224 0 .20766-.675.37756-1.5.37756s-1.5-.7301-1.5-1.6224zm8-.37756c0-.55 1.35-1 3-1s3 .45 3 1-1.35 1-3 1-3-.45-3-1zm20 0c0-.55.9-1 2-1s2 .45 2 1-.9 1-2 1-2-.45-2-1zm37.948-6.5627c-1.1879-1.4314-1.0798-1.5873.88953-1.2833 1.233.19032 2.2577.78479 2.2772 1.321.0611 1.6831-1.7565 1.6614-3.1667-.03774zm82.052-12.199c0-.53815 2.1375-1.56 4.75-2.2708s5.9445-2.1193 7.4044-3.13c1.4599-1.0107 3.1615-1.8376 3.7814-1.8376.61985 0 1.386-.675 1.7026-1.5.59644-1.5543 3.3616-2.1203 3.3616-.68806 0 .98104-5.5442 5.1881-6.8371 5.1881-.50493 0-1.4332.62077-2.0629 1.3795s-2.4323 1.637-4.0058 1.9517c-1.5735.3147-4.0384.86772-5.4776 1.2289-1.4868.37317-2.6167.23426-2.6167-.32171zm-93.744-4.6618c-2.859-1.8829-5.9987-3.6968-6.9772-4.031-2.5394-.86725-7.8122-5.3458-7.1148-6.0432.32233-.32232 3.4003 1.1203 6.8399 3.2057 3.4396 2.0855 8.2208 4.8651 10.625 6.1769 4.2854 2.3383 5.623 4.1149 3.0983 4.1149-.70005 0-3.612-1.5405-6.471-3.4234zm84.744-.057549c0-.83548.56916-1.5191 1.2648-1.5191.69564 0 2.944-.9 4.9964-2 4.0768-2.185 5.7388-2.4983 5.7388-1.0816 0 1.2253-5.8094 4.662-9.25 5.4722-2.0773.48911-2.75.27591-2.75-.87154zm-97.781-2.0262c-1.8048-1.2847-2.8269-2.6168-2.2714-2.9601 1.0735-.66345 7.0529 3.2834 7.0529 4.6554 0 1.2687-1.2306.83244-4.7815-1.6952zm91.531-2.2644c-2.5595-.5486-2.1382-2.2285.55887-2.2285 1.2699 0 3.1824-.66069 4.25-1.4682 1.0676-.80751 2.6515-1.4825 3.5197-1.5 2.6135-.05265 10.613-5.881 18.024-13.133 5.2423-5.1291 7.1315-6.4516 7.573-5.3011.65859 1.7163-9.0758 11.92-14.349 15.04-14.326 8.4775-16.223 9.3097-19.577 8.5906zm-99.288-2.2901c-.36089-.58393-1.7374-1.4728-3.059-1.9752-2.5848-.98275-3.2784-2.9631-1.0377-2.9631 1.6728 0 6.6349 3.7937 6.6349 5.0726 0 1.2648-1.73 1.1733-2.5381-.13426zm119.08.13698c-.28933-.46814 1.5389-2.5432 4.0627-4.6113 2.5238-2.0681 5.3432-4.57 6.2654-5.5598 1.1455-1.2296 2.1386-1.5141 3.1351-.89825 1.1626.71855.56314 1.6715-2.9554 4.6977-5.756 4.9506-9.8512 7.4339-10.508 6.3716zm-30.347-1.2753c-1.8152-1.8152-1.4484-2.7983 1.05-2.8151 4.0725-.02725 15.727-5.3484 15.744-7.188.003-.3867 1.6406-1.4786 3.6382-2.4265 7.1001-3.3692 18.934-17.266 25.368-29.79 2.1741-4.232 3.6452-4.1975 5.0357.11804.67373 2.091 1.5375 4.2518 1.9196 4.8018s1.2518 3.025 1.9328 5.5 1.8888 5.9266 2.6841 7.6702c.79526 1.7436 1.7371 4.6261 2.093 6.4055.92109 4.6054-1.2814 2.9373-2.7958-2.1176-.65222-2.1769-1.5646-3.958-2.0276-3.958s-.84171-.66503-.84171-1.4778c0-2.4275-5.3216-12.522-6.6013-12.522-.65158 0-1.4578.7118-1.7917 1.5818-.84793 2.2097-.76145 2.6317.39301 1.9182.57828-.3574.98659.56659.9682 2.191-.0294 2.5953-.13624 2.6713-1.4043.99877-1.1095-1.4634-1.5781-1.5592-2.4455-.5-.59014.72064-2.8682 3.5602-5.0624 6.3102-5.0528 6.3328-13.291 14.5-14.626 14.5-.31341 0-2.4583 1.2375-4.7665 2.75-6.9785 4.5729-8.0631 5.2203-10.664 6.3649-1.375.60519-3.2814 1.5019-4.2364 1.9927-2.1852 1.123-2.128 1.1279-3.5636-.3076zm-90.039-5.8c-1.8065-1.65-3.9614-3-4.7886-3-2.4147 0-5.3725-1.9463-5.3725-3.5352 0-2.2075 2.4907-1.7643 5.8176 1.0352 1.6341 1.375 3.5811 2.5142 4.3267 2.5316 1.3531.031542 6.8556 4.3821 6.8556 5.4204 0 1.592-3.9695.16873-6.8389-2.452zm-10.911-.031162c-1.2375-.49741-2.25-1.3689-2.25-1.9366 0-1.4625 4.1653-1.2227 6.25.35982.9625.73064 1.75 1.6163 1.75 1.9682 0 .89508-3.0692.68616-5.75-.3914zm15.75-2.4688c-.68469-.825-1.8648-1.5-2.6224-1.5-.75766 0-1.3776-.675-1.3776-1.5s.38931-1.5.86514-1.5c1.2921 0 6.1349 4.0042 6.1349 5.0726 0 1.4134-1.6062 1.1069-3-.57258zm-25.139-3.429c-1.7163-1.4024-2.0623-2.2332-1.2674-3.0434 1.3117-1.3369 7.3902 1.7206 7.4003 3.7224.0095 1.8851-3.4658 1.5003-6.1329-.67902zm-8.6108-4.7454c-2.4413-1.703-3.031-4.3256-.97251-4.3256 2.0039 0 5.7225 2.961 5.7225 4.5567 0 1.8523-1.8954 1.7601-4.75-.23113zm4.4098-3.7437c-1.5621-.69065-3.1371-1.6666-3.5-2.1688s-3.0153-2.0381-5.8942-3.4131c-4.7674-2.2769-6.9966-5-4.0932-5 2.236 0 8.7761 3.5061 8.8018 4.7186.01419.67024.65528.97706 1.4246.68183.76937-.29523 1.7131-.02835 2.0971.59307.38406.62142 1.7796 1.541 3.1012 2.0434 1.3216.50246 2.4029 1.5997 2.4029 2.4383 0 1.7824-.52081 1.7952-4.3402.10659z"/>
</svg>
