<?xml version="1.0" encoding="UTF-8"?>
<!-- Created with Inkscape (http://www.inkscape.org/) -->
<svg version="1.1" viewBox="0 0 272 522" xmlns="http://www.w3.org/2000/svg">
 <path d="m64 517.33c-6.4799-2.9311-8.9349-12.671-1.9532-16.377 7.9469-4.083 1.1646-11.625-3.9824-14.738-4.5862-1.7972-11.742-8.7475-16.064-5.3154-1.4803 4.5595-12.293 2.4639-14.495-2.8228-7.856-8.6211-17.862-16.334-24.378-25.521.5436-8.3646-1.5776-17.618.659-25.457 2.5675-5.2261 14.112-11.893 5.7937-3.0385-7.4839 1.9725 2.8816 15.652-4.3422 10.289-2.0452 4.1863-2.5485 12.692 1.5017 16.672.26577-3.8936 1.4426-20.696 3.2609-9.4291.6341 7.0345-3.8706 12.666 3.9346 16.927 6.8182 6.8435 14.371 15.057 21.407 20.367 4.252-11.626 1.9669-1.3347 7.9947-1.8942-4.5084-5.9318-1.2824-13.651-1.8363-20.497 9.209-2.3884-2.2456 7.392 2.3397 13.396.955 10.097 6.1656 6.3928 4.36-2.1669-2.0019-6.5667 3.7982-16.046 2.9632-4.4338.30549 4.1811-2.3639 20.175 1.848 12.386 1.3659-11.848 1.5297-2.357 3.0715 2.797 8.609-.8202 6.7009 5.5666 10.889 10.712 6.1597 10.847 3.4693-3.7515 4.0287-9.0062 4.7106 1.3552-.04266 12.311 4.5 16.316-.37791-6.3398 2.2432-14.158.1484-19.651-5.1513 3.2298-5.3739-3.4376-6.9942-8.3487-4.1411-7.917-9.9674-5.1224-9.6404.008-1.0517-3.6753-2.0938-11.796-3.0137-2.79-3.9999 3.6055-2.7398-12.851 5.2447-6.0213 5.5475 4.2958 13.021 9.3878 16.755 13.698.90009 1.2653 13.646-.45017 4.3548 2.6053-5.5037 5.0228-.2546 9.286-.61096 15.398 3.5429 8.5959-6.9378 10.502-13.339 9.6024-7.3367-.82876-10.505 10.119-1.8837 11.636 8.5029 5.6479-5.9906-8.9585 1.4786-4.1356 2.1453 2.5778 4.1565-9.4525 12.072-7.1493 8.0011-1.1519 14.883-4.7819 23.135-5.3476 8.6428-2.7511 17.58-5.2932 25.63-8.8629 5.2249-4.9817 10.997-8.7607 8.0124-16.584-1.2652-7.1972-.27689-13.552 3.0922-5.5558 2.5064-7.8409.29293-8.2136 6.0575-2 1.0027-6.3714-.15728-14.129-6.3431-6.8533-4.9392-.98813-12.696 8.553-11.14-.6467 6.8921-.56602 13.322-4.0127 19.483-7.0041 2.7069-1.8732 20.307-4.0095 13.608-.58569-3.544 3.6325-13.452 1.9781-11.608 9.3038 5.373-3.483 13.974.52098 16.369-7.1368-.0398-6.6471 7.819-6.7419 12.965-5.514 7.9476-.35297 15.001 3.3325 2.9166 2.3305-4.1428.40543-15.498-2.01-11.212 5.3718 18.979-1.4062 38.005-1.865 57.019-2.5507 4.9158-3.8548 13.743-.69321 20.239-1.7148 10.525-1.118 9.478 3.6702-.45349 2.1284-17.131.11326-34.222 1.4716-51.344 2.0466-5.8271 3.944-14.232.97922-21.091 2.1559-12.94-.39994-4.4472 3.5882 3.6852 2.0353 20.135-.10798 40.271-.21596 60.406-.32394-6.5855 4.5827-15.77-.54876-22.11 2.1352-3.4233-.78958-10.316 1.8387-16.405 1.0377-6.2442-1.0953-16.97 1.6068-7.2822 4.3929-.83462 4.1939-10.94-.54823-14.31 2.4809-7.8447 2.6779-17.452.5544-25.97 1.3954-3.0408 2.3468 11.394 2.7837 15.269 2.5037 26.8-2.0773 53.741-.61098 80.602-1.1544 3.0699-4.1012 18.078 2.871 6.418.86598-32.692 2.4666-65.468 1.7956-98.211 2.7639-4.023-3.3924-16.762-4.5655-8.0833 1.3519 7.2084.7878 13.893 2.873 20.668 4.6091 24.716 1.9869 49.697.63914 74.516 1.3171 7.3581.83503 15.623-1.4775 22.399 1.3766.28079 6.9141-11.285-.29158-14.946 4.4598-4.5868-2.7414-11.637 1.3911-17.872.0237-12.394.13276-24.788.26561-37.181.39848 2.7164 4.5203 13.699.77408 19.71 2h37.172c3.345-5.6421 13.913.0564 3.2241.54723-6.0462-.23139-10.665 1.7703-16.242 2.3431-23.325.56539-46.651 1.1124-69.949 2.4246 4.8848 4.5024 13.15.34315 19.411 1.3175 15.801-.12977 31.884-2.3682 47.509-1.1849 5.9467 4.635-11.106 1.798-15.201 2.589-11.798.89593-24.205-.20719-35.634 2.0562-.54 1.9527 12.517.3493 17.388.88672 10.015-1.4455 11.929 2.7348 1.0538 2.5946-19.998 1.06-40.127.28305-60.082-.46091-9.6786.16214-10.033 5.8496.0164 3.8868 3.9893.44757 16.069-3.8983 8.514 1.3724-17.782.39103-35.607-.0714-53.166 3.0192-8.0155-.0629-11.175 1.4042-6.4204 4.6375-7.1031-.69656-13.614 1.0598-19.952 3.9677-3.5188.00476-7.6429 2.5554-10.352-.66316zm13.8-10.534c3.8355-8.0802-9.6676 3.7329-.38017.38017zm32.65-1.9189c-5.8728-.81827-5.6417-3.5732 4.1451-4.7524 5.9785.13336 10.29-1.2057 14.548-5.1287 5.3195-.57997 9.4694-1.919 14.831-3.6293.20792-5.1436-5.0772-4.0465-11.643.1231-8.2126 4.437-17.614 4.8487-26.223 8.7034-5.4147 2.0349-16.796 5.1754-18.449 6.5134 7.4501-.87581 15.93.41691 22.792-1.8295zm19.55-1.7995c12.112-1.4807-6.1458-.46921-10.375-.60892-10.101 5.2922 8.3365.45046 10.375.60892zm45-4.0816c-2.2897-4.3358-2.4948 4.1387 0 0zm-22.75-2.3062c4.6883-3.1723-10.239.47194-14.194-.69378-12.296 1.0705 3.2798 2.9686 8.315 1.1655 1.9594-.1606 3.9166-.3486 5.8788-.47176zm13.013-3.7244c2.7686-3.7878-.18112-12.43-5.533-14.969-7.6967.75296 3.6544 8.1869 3.2697 11.583-.97458 6.6336-10.655-.27062-14-2.5834-.78557 6.8165 9.2995 6.2448 14.084 8 .72654-.67687 1.4531-1.3538 2.1796-2.0306zm28.737-5.0723c.36202-1.0388-10.163-.75931-11.659-3.8971-2.1288 6.9361-7.2472 1.7035-6.4145 0-3.6277-1.4995-11.134-5.7102-5.8582 2.8778 3.4384 6.2523 12.271.99549 18.12 2.1041 1.9615-.29561 4.1757.30163 5.8122-1.0849zm-34.5.10293c-.28725-4.0084-5.0099 2.842 0 0zm-3.5-4.4022c-6.2644-8.565-7.6554 4.4692 0 .24275zm-10.333-6.2645c-4.9891-1.0865 1.7744 2.5886 0 0zm30.491-12.873c7.3929 2.6065 13.883-8.3042 3.2918-6.2467-9.634 2.2082-19.462 2.0983-29.285 2.0474-2.825 6.636 9.8462 5.0191 14.335 5.1698 3.8914-.26051 7.7746-.61366 11.658-.97053zm-28.491-.12679c-4.9891-1.0865 1.7744 2.5886 0 0zm-63.667 26.667c-1.0528-12.141 4.6535-.73968 4.0256 5.0451-3.3657 3.7054-4.8854-.8824-4.0256-5.0451zm5.9326 3.4188c-.15778-2.6382 2.4854-21.332 1.4677-17.769.3249 4.0816 1.7401 18.345 4.5997 13.46.91971-3.568-1.8834-18.23 1.4682-14.551 1.8641 5.0219 3.1731 12.816 2.7747 17.598-3.0511.46956-8.5984 3.9855-10.31 1.2617zm12.867-3.6188c.11286-8.5203 9.8825-1.1196 1.6406 1.2-1.1897-.37148-4.6976.97077-1.6406-1.2zm7.8467-9.4509c-.0708-3.8279-2.6457-17.857 2.3532-8.9669-2.2976 5.3878 4.005 14.276-.72134 16.448-2.2495.99923-.85708-6.238-1.6319-7.4812zm7.1943-4.8228c1.3251-6.3762.48372-14.393-6.1185-8.5263-7.5269.79995-3.3234-3.7546-11.723-.45802-7.4865 2.781 8.0228-9.7266-3.1596-12.513-5.2622-4.2358-9.1245-12.555-16.97-9.2562-6.2719 2.0687-11.644 3.0713-16.345.15845-8.9728-.33793-15.685-.64474-2.751-.68119 4.806-1.2622 19.484 3.2744 13.644-5.3381-8.1304-1.8356-10.934-.50474-4.4177-4.9434-6.1183-4.4812 3.2436-7.4685 5.3018-13.569 5.3952-7.0067 3.3399-15.798 3.6982-24-2.5119-3.9123-.13792-9.3098-2.0575-15.638 2.4443-10.388-6.4579-8.4411-7.871-4.8111 2.2156 16.538 1.2963 33.386 2.2469 50.049-6.9507.40455-2.1632-11.366-3.9309-16.293-.13916-11.569-.2567-23.138-.38755-34.707-5.8678.86759-15.132-1.6471-19.053 1.1594.0699 16.78.1398 33.56.2097 50.341 4.0416 4.5005-5.3216 8.1-1.3164 11.5-9.3536-.59654-.13958 8.7562-7.982 6.5804-6.6329 1.4594-11.288-8.7005-4.2167-11.695 5.7579-5.2724 9.251 8.8355 10.114-3.885.7211-5.5962 3.6761-13.16.24398-17.277-1.2358-5.783 1.6236-12.424 1.2459-16.877-.50734-4.4056-.65585-9.2193-.21777-13.329 2.2982-8.5538-4.771-7.1148-10.932-10.683-7.8815 1.3823-2.7923 12.618-4.6421 18.582-.13548-1.9669-.15415-13.108-.2433-18.713-.04659-8.4716-.0166-17.705 2.292-25.609 6.6304-5.2515 2.1943-14.884 3.4728-22.254-.38172-65.247.7083-130.52-.68551-195.75-1.7485-5.3917 2.8313-17.309-3.3874-18.091-8.0765-.3443-3.8427-12.216-4.9025-17.782-.56608-9.187 1.1408-19.363-.84831-27.931-6.3994-4.4353-1.7608-13.561-2.9658-20.204-1.0337-5.8285 3.3501-15.715-3.6917-18.084-5.6569-3.4214 1.0538-11.862 5.2016-14.813 4.1603-6.5501 15.808-3.6012 5.7649.98996-2.425.54899-8.4131 12.098-1.817 6.9688 3.1759-3.4265 15.992-8.4973 9.857-12.262.49761-4.0471 11.466-2.0983 16.158-2.1555 8.0703.076239 16.936.43881 23.15 6.2713 5.4355.93879 11.626 6.1464 13.665 11.324 2.748 7.5544 13.932 7.3223 18.498 14.087 4.4653 5.5693 11.155 7.9326 15.742 12.927 3.0239 5.2542 10.267 8.7909 11.286 14.249 6.2137 6.0828 8.9287 15.437 13.363 23.022 2.0031 6.4613 5.0292 10.023 6.3006 17.307 5.5086 15.659 9.5799 32.281 18.631 46.286 3.3234 7.2406 11.149 9.5921 18.518 9.8345 13.161 1.3012 21.181-10.872 28.455-19.951 4.8884-5.1426 6.8019-11.977 13.714-14.486 4.6124-4.9149 13.016-4.7177 18.727-2.785 6.1013 5.498 12.831 12.402 12.292 21.186-6.6936-.21263-2.9998-10.435-8.0063-12.097-2.1724-5.734-10.198-6.6454-15.913-7.1641-8.648 3.7031-13.342 11.491-19.105 18.369-5.1676 4.6691-7.5208 10.605-13.355 15.063-4.7934 3.4835-10.959 7.5854-16.893 7.7856-6.8464.10609-12.695-3.5121-17.554-7.2708-2.551-4.9331-6.3193-5.7718-7.8298-12.368-.51767-4.0472-4.4382-6.7576-6.2038-12.946-2.0558-10.336-5.5764-19.889-8.2442-29.987-2.4849-5.255-4.3959-10.588-5.8962-14.005-4.6584-9.5754-7.5595-19.55-15-27.419-5.1314-8.7606-14.787-15.001-22.431-21.959-6.6205-2.6464-12.635-8.2904-19.546-11.325-6.0232-5.0421-8.196 5.8999-7.1739 10.479-1.6449 6.4663-1.8979 13.961-2.9829 19.629-7.4333 8.5014-5.0321 20.354-6.6444 30.717 3.9162 7.4933 11.111 5.9234 15.639 6.5802 6.6084 5.5088 9.444-3.7909 13.133 4.6664 7.3584 6.6225 7.83-5.3 7.0061-10.426 1.0937-6.8737-3.2851-16.338 4.6316-19.982 6.0173-1.4062 7.1931-14.902 13.272-9.8576 4.9507 7.26-7.7201 6.6162-9.9898 10.536-5.2147 6.5632-6.9475 14.184-6.5771 22.444-2.2995 7.7666.88366 13.135 7.6399 16.941 5.111-.32806.94145-12.791 2.0675-17.821-1.8953-7.9866 1.5219-13.88 7.7958-18.649 3.5914-9.5358 11.841.69934 3.5121 3.0377-7.2433-.23389-3.9646 10.495-7.6196 14.943-1.6393 7.6678-.28505 15.83-.73226 23.695 6.0366 8.8959 11.062 6.1707 9.0985-4.0394.19052-10.048-1.0668-22.185 7.9863-28.883 5.2545 4.4016-6.2113 9.4478-3.4145 15.809-1.731 5.7342-1.3854 11.985-3.6702 16.943-1.051 7.3343.66761 12.252 4.6164 17.999 2.614 2.85 4.7138 17 6.9521 8.5843-.80732-7.1696 3.1337-15.76-2.5685-21.465 1.2344-5.8756 5.0345-10.548 6.9547-17.196 5.1822 2.6008-2.3159 10.086-1.9547 14.523 6.0681 3.7614-2.3817 9.5079-.46472 14.787.29311 9.8672-3.0849 20.542 3.4931 29.027 2.4451 8.1746 8.1021 3.1085 6.9715 12.304 4.2428-.38814 13.305 13.176 13.056 3.5276-.33753-3.9809-2.3088-19.17 3.8507-10.656 1.2349 3.685-5.1408 13.606 1.619 16.118 4.906 4.6123 5.4661-5.4608 5.4982-9.617 1.5655-9.5433 6.9275.99142.97629 4.0322-3.0497 8.7118 4.5829 11.685 9.1237 4.0957 4.3914 9.3673 7.5814-3.7577 11.285-3.4387 8.5314 3.4043-2.3335 5.6906-5.6926 8.226-13.493 1.4737-29.655 1.6097-39.313-9.5183-4.3072-4.6731-7.7351-10.388-11.003-16.127-2.3802-5.3154-3.4733-9.9731-5.5077-15.422-5.3496-15.896-18.369-26.787-29.911-38.187-6.658-1.4029-11.569-5.9648-18.875-5.648-4.4494.46282-14.77-4.3971-14.944-1.7539 3.156 3.3408 10.281 4.7269 15.957 4.3684 4.8489 3.53 13.004 2.8269 18.305 7.459 9.7299 4.9799 13.661 15.908 20.123 24.091 3.9032 8.4835 8.3948 16.835 11.11 25.467 5.88 11.986 15.482 22.748 27.11 29.1 9.0455 1.4724 19.676 3.2417 27.648-1.8761 7.1498 3.0597-2.4196 3.1503-5.2286 7.1323-2.2019 3.2216-1.8188 15.461 1.8829 15.985 5.6599-2.6528-4.0793 7.5023-1.0702 11.513-4.2624 7.063 2.0835 13.328 4.3422 2.8422.94642-7.2257 5.9857-10.657 4.9621-.71196 6.2848-2.7451-2.4091-9.7504 3.5698-14.537 1.3705-7.4458-1.1786-8.5285-5.8741-5.463 3.1584-4.6911 8.2891-8.3875 6-15.826-9.7293.12318 3.2899-7.0221 6.3302-9.6743 7.462-3.9574 10.601-12.61 16.939-18.19-1.5809.77322-7.3422-1.2785-10.946 3.7966-.14412 4.1452-4.3716 14.036-10.219 11.84-1.6211-3.6123 1.7901-18.223 3.6746-10.653-3.1832 10.103 3.662 6.1892 3.13-1.8199.17267-6.1298 8.4396-9.5875 11.091-11.818 4.7081-10.184 3.7639 1.796 6.2612.11555 3.7984-3.7426 11.428-6.5243 15.239-1.6728 1.2464 4.7805-2.0792 16.428 2.1048 17.201 6.787-5.363 11.549-12.169 14.454-20.299 6.5226 2.5516 2.1567 10.171.98717 15.343-1.7282 6.1074-4.4518 11.795-6.3744 17.714-4.0537 5.2383-4.1255 12.347-7.8526 17.949-3.353-2.0553 5.0751-13.11 1.6564-13.406-6.1574 18.039-14.689 35.13-21.133 53.03-3.4939 5.9218-5.3824 13.121-9.0249 18.522-3.9857 1.3652 4.0064-7.9001 3.2127-11.692 5.1851-11.838 10.846-23.549 14.878-35.96 4.494-3.5797 2.9924-10.654 6.918-15.055 4.3728-7.8438 4.2911-12.411-1.3252-2.5508-.59667 5.0018-4.1774 9.6372-5.6879 14.786-5.1157 10.956-9.7478 22.107-13.851 33.359-8.1354 16.953-14.167 34.652-22.654 51.459-2.8004 10.87-9.6376 20.293-12.256 30.945-12.837 28.18-26.938 55.757-39.221 84.187-4.0826 8.2282-6.3848 16.749-11.33 24.654-1.3559 6.9378-6.1624 13.011-7.625 20.091-6.5124 1.2142 2.0241-9.5964 3.0046-12.935 10.538-24.618 21.12-49.225 32.62-73.416 1.4651-5.9374 6.0161-11.314 7.7712-17.57 8.6826-17.354 15.695-35.485 23.807-53.251 6.0617-14.634 12.942-29.262 18.922-43.704 5.4948-9.8174 7.8287-20.705 13.165-30.623 4.4193-9.4032 8.2623-19.207 10.924-29.019.57212-4.6787-4.5204 9.1834-5.6251 12.142-3.7221 8.7136-8.124 17.298-11.552 26-1.9392 5.3464-6.001 10.533-6.4113 16.272-4.0402 3.9753-4.687 10.799-8.0858 16.015-4.9456 11.339-10.49 22.851-14.914 34.13-3.0921 3.1503-4.4066 9.0582-7.0523 14.248-15.797 33.965-32.374 67.871-46.948 102.21-3.0213 3.1399-4.4161 11.206-7.8326 16.247-2.3771 4.6089-5.1625 8.3918-6.1674 13.643-1.0071 4.513-10.925 13.376-6 15.237 4.7271 2.4453 1.8696 10.61-3.4705 6.582-3.1717.24408 2.1687 10.26.004 16.065.73813 12.009-5.2927 5.3762-2.6953-3.024zm-6.841-11.526c4.6074-3.9081-9.1356 3.6345 0 0zm4.7292-1.6042c-7.6426-.81967.50138 2.0322 0 0zm2.9375-1.0625c-4.9891-1.0865 1.7744 2.5886 0 0zm1.0081-11.083c15.368-29.239 26.793-60.366 41.579-89.914 9.9181-23.27 21.324-45.5 32.478-68.221 14.674-30.346 27.453-61.198 42.077-91.615 1.3012-6.1799 4.9087-11.569 5.1961-18-9.6594 22.578-21.404 44.16-30.502 67-4.1241 5.357-5.5121 12.93-9.3219 19.032-10.337 20.87-19.678 42.183-30.195 62.968-1.0413 5.3329-4.1283 9.774-6.4815 15.45-8.5139 18.001-17.513 35.792-25.462 54.05-3.3028 2.5369-4.842 11.811-8.6648 16.787-3.5674 9.4367-8.6643 18.654-12.378 28.113-2.7706 2.7891-7.1836 8.9577-4.8652 14.1 3.4127-.14863 4.389-7.2901 6.54-9.75zm-13.222 1.9673c1.9279-6.816-4.4333-9.0174-8.2819-12.521-3.713-5.924-9.2522-8.4514-11.93-.2768 2.2912 5.2413 9.878 9.5958 14.192 14.498 1.762 1.8279 6.7247 1.9965 6.02-1.7003zm5.8243-11.417c2.4386-5.6212 5.6418-8.8284 8.2511-14.583 6.1214-13.901 13.5-27.419 18.621-41.614 14.489-30.01 29.582-60.944 43.591-91.65 5.1085-10.888 10.48-21.648 15.76-32.453 9.3173 2.3371-1.1385-6.8576 5.2869-11.376 12.444-24.183 23.718-48.998 36.326-73.124-4.9283 3.367-10.592 9.5332-5.1131-.12886-7.4165 2.4378-.29518-4.697.54313-8.526 2.4532-.28018 1.9116 9.6817 4.8219-.26984 2.8268-8.5517-10.441-3.5953-12.09 1.4014-4.5173 4.1534-5.4145 9.5275-9.2137 13.182-1.8089 6.6754 3.3336 13.373-2.2168 18.507 7.5836 3.6506-3.9678 9.9184-5.1499 15.35-6.8993 12.151-13.607 24.468-21.168 36.131-4.3858 9.5541-3.0418-1.0255-.28639-4.259-7.3205.50193-1.6657-5.3634.75957-10.687.0721-5.0826 1.4048-19.402-5.299-9.4796-7.7609 5.4893-3.3785 15.756-4.7011 23.777 7.9074-4.4368-.30512 1.2661.91137 4.929 7.6562 3.8844-.75633 8.7772-2.2327 13.593-7.0305 7.4122-5.4521-3.4067-2.6786-8.1166 4.2913-5.3651.85472-13.597 1.3599-20.379-7.0217-2.9967-6.7039 8.6961-6.4882 13.587 1.2533 5.1579-3.2289 15.935 1.8072 17.387 5.3255 6.3699-4.1878 11.1-6.0136 17.039-.74429.88296 1.5808-10.792 1.1605-15.012-.0581-7.1652.92528-14.974-.23757-21.772-8.9122 2.6901 2.3157-2.1219.59065-7.7559.10701-10.944.21403-21.889.32104-32.833 5.6025-1.4819 1.0359 11.148 2.5 15.409.81608 3.9093-2.6364 19.824 3.9848 10.674 5.9272-5.6412 1.6979-15.22 2.9878-22.659.37523-3.9934-1.2539-21.321 2.0298-14.772.26252 8.9067-.78552 17.922 1.2593 26.681 4.6221-2.6034 10.088-9.2802 8.7206-15.565-1.216-5.6786 3.3556-17.23-4.8005-17.882-5.5985 1.1061-16.852-3.0073-14.182 6.2445 1.2127 10.184-4.5405 5.1866-2.5-2.0856 2.5515-7.217-5.2378-8.5193-10.154-10.711.50678 5.8947-1.7448 16.698-2.6754 4.5211 1.4156-6.8296-1.9042-13.245-8.33-15.491-3.1548-2.3092-3.6186-9.1931-6.3409-13.008-1.3447-3.4879-3.9368-12.707-5.9442-12.362 1.1818 10.443-3.0182 8.8917-2.3968-.8032.23846-7.3287-3.1707-14.39-7.9264-19.809-3.9082 5.07-.67637 14.121-1.7327 20.781v37.572c-4.3322-4.9081-.86556-13.089-2.0788-19.307-.14041-15.019-.28083-30.038-.42125-45.058-6.3797-9.5855-8.7964-4.0767-7.432 4.9235-.0291 23.511-.24532 46.88-1.4514 70.194-1.0114 41.36-1.2276 82.734-1.8786 124.1 4.118.62537 6.5463-12.552 8.2619-4.9089-3.9061 5.0373-10.038 9.2614-8 16.47v23.464c6.8829 1.0103-5.3022 15.138 3.0874 5.7997 4.5763-7.3497 4.1182-7.4603 1.9126-11.934 8.3228-3.6 3.9386-13.372 5-20.498.80513-6.5634-.71261-13.803-1.3366-18.687 2.8547-9.9216.62604-21.054 1.5145-31.443.31625-30.005.63249-60.011.94873-90.016 4.3697-3.9322.75885 11.535 1.9142 15.416-.0651 33.028-.13023 66.056-.19535 99.084 3.5429-2.4586 10.511-8.2797 8.9882-14.372.21935-39.877.43872-79.753.65808-119.63 4.5316 4.024.91822 13.975 2.1805 20.378.11914 13.628.23827 27.256.35741 40.884-2.6122 3.6026 1.666 10.417-.0297 16.612v39.128c3.9173-2.4794 10.033-8.4593 9.9976-13.978.00063-25.785.001-51.57.002-77.355 3.0396 6.3218.40984 14.971 1.2108 22.212.3632 16.439-1.1475 33.497.3898 49.548 3.8009 4.864 10.956-7.5896 9.0333-12.838.17709-9.1963.35419-18.393.53128-27.589 4.1694 2.8551.70879 13.34 1.8352 19.238-1.8053 8.5467 2.5442 7.9726 5 8.1852-3.5263 5.2417-6.497 10.628-4.7038 17.724 1.7173 5.2998-3.3892 16.704 4.0858 16.853 7.6775.005-3.9313 9.3136-4.7034 13.655-7.7114 11.029-14.162 22.847-20.814 34.745-4.2377 5.4218-6.3643 11.399-10.476 16.135-3.4272 5.5943-5.7006 12.739-10.072 16.538-2.7493 6.6268-7.7851 11.853-10.314 18.187-5.3629 6.8149-8.2565 14.64-14.503 20.869-2.8113 6.6229 4.9854 12.404-.46192 18.529 1.4592 5.7815 10.053 7.9106 12.659 12.29 1.1415 4.6063 6.7442 3.1639 7.5796-1.1493zm44.25-232.71c-1.6659-11.544 5.8085-4.0529 1.5404 1.915-1.5023.71295-1.054-1.2396-1.5404-1.915zm65.891-14.565c-3.5135-6.128 12.185-12.419 6.9878-5.3813-2.1983 2.5263-9.5876 16.214-6.9878 5.3813zm-76.132-4.02c.38859-14.124.69503 13.56-.00099.36235zm83.214-19.5c3.5822-4.1466.33144 4.6414 0 0zm-95.893-.82748c-1.5619-8.6614 4.0966-10.089 2.3934-.29055-.7841.0388-2.1086 2.3668-2.3934.29055zm-51.593 271.55c5.4558-4.2919 4.6544-11.545 9.9862-16.107.18522-9.3052-8.0739 4.703-9 8.0213-2.3618 2.8945 2.1974-9.5782 4.9818-11.947 1.5918-9.9302-3.7558.50443-6.1227 4.7348-6.1485 1.3965 8.0383-11.194 1.2376-11.421-5.0163 2.2308-7.1273 10.906-9.4563 16.29-.67679 2.6667 6.5575 13.453 8.3734 10.428zm11.393-35.082c6.5032-7.6941-.55256-5.8859.31054-10.278 2.6604-6.0119 1.801-7.7076 4.2856-15.865-.64339-14.858-2.3113-29.73-.05026-44.471.42916-71.841.85833-143.68 1.2875-215.52 4.7176 1.0221 1.1146 12.784 2.2084 18.062-.43339 65.452.25659 131.01-1.3985 196.39 3.2212 6.0719 2.771 5.2591-.5122 12.439-.63971 11.894-1.1079 23.784.63334 35.612 6.0222-1.3748-2.5766 14.73 5.0952 4.3764 8.269-7.5145-2.4561-6.1196.73415-9.4945-4.5114-.86258-4.3752-2.2853-.0445-5.2228 3.1323 6.6175 4.877-6.2062 2.1809-9.6592 4.2385-2.8485.70453-13.47 1.8636-19.397-.35301-6.2284-3.3878-10.783-1.7872-17.928 1.1201-6.1697 2.135-12.283 1.6297-18.928.4376-62.449 1.22-124.9 1.2971-187.35-.53963-5.0508-11.039-13.786-9.9445-4.2182-3.3872 8.2172.22495-9.0384-7.711-7.6978-7.4434-.81859-3.1184 11.582-4.3515 16.609-.55412 74.514-1.5585 149.06-1.9719 223.55-2.9251 12.703 10.656 1.5484 5.1817 7.7367-8.086 4.7491-3.6163 14.62-4.4579 22.324 2.5259 9.3589-3.2324 13.794-2.9445 2.1914.189-79.473-.32894-158.95 2.1821-238.4.25012-11.469.50024-22.937.75036-34.406-6.1584-3.4624-12.523-1.0464-14.527 5.5652-.15792 38.614-.31584 77.227-.47375 115.84-1.6714 4.0046.9019 10.499-1.8606 16.159-.43571 32.95-.87142 65.9-1.3071 98.85 5.1178 4.0428 2.8352 11.976 9.0171 16.405-.26426 6.8626 2.4286 12.376 1.5284 19.401-.13795 10.228-.2759 20.456-.41385 30.685 7.0584 2.6083 5.2274-11.564 9.3764-6.5277 4.3192-2.5242-6.3957 11.788 2.3824 6.3002.60407-1.0454 1.2081-2.0908 1.8122-3.1362zm-4.9063-8.6362c2.4466-.80015.49999-.46845 0 0zm16.515-61.191c2.6495-12.101 2.733 4.8544 0 0zm-46.489 37.148c4.8373-1.7309 12.546-.97749 16.474-6.2672-.77602-7.5872-8.4865 3.7558-13.659 1.5786-5.6069-1.3041-15.127 2.9114-18.341-1.7687 8.4336-.23628 17.002.82843 25.206-1.6291-9.7919-2.9998 12.871-7.7359.8092-7.4553-6.2577 5.0933-15.306 2.4553-22.779 2.3571-11.736-2.9168-1.241-4.8549 5.3705-3.8177 6.8808-.006 9.7694-5.0269 13.407 1.045 5.321-3.5703 8.3004-13.589-.85218-8.5776-4.6737 3.2203-10.584 2.6338-14.598.57765-4.9992 1.9253-13.693-9.1422-14.924-.94381-3.3907 5.683 10.623 10.66.45942 11.26-.1215 1.2363 6.4496 10.763-2.5025 3.6839-5.7271 3.3653 5.4322 10.184 10.39 8.484 5.723-1.0926 10.859 4.2997 15.54 1.4732zm57.083-3.7072c5.1197-7.7341 1.8971-10.529-1.7119-1.4624-2.7544 2.5951 1.0898 5.3691 1.7119 1.4624zm13.39-19.953c6.954-8.5402-1.1797-5.2987 1.7586-11.442 6.3145-9.1932-1.0261-5.3725-3.1675 1.6445-6.1749 3.5754-4.0505 10.685-2.5858 15.212 1.0354.27831 4.4022-3.5227 3.9947-5.4144zm-75-3.797c.67989-5.9385 6.1632 8.1377 4.6167-4.9555.14484-8.6316.28967-17.263.43451-25.895-2.9295-1.6345 1.0317-9.0417.76861-14.07 1.4469-3.3658-1.9252-8.9677.61103-13.381-.43337-10.454 1.1108-21.561-.49925-31.626.06575-4.2431 2.0008-11.68 1.0684-17.886-.68917-6.1919 1.3975-13.931-.98626-19.179.57238-3.4927 1.6377-11.512.91671-17.176 1.5104-6.8551-2.6166-14.17-.52174-19.359 1.3469-24.907.27729-50.509.69655-75.684-3.8785-3.9249-5.0862 2.1936-7.4437-5.304-7.0831-2.7532-8.4918 10.928-8.6616.01352-7.9458-.65443-7.5684 8.8494-7.0534 14.503.10513 75.516.21026 151.03.31539 226.55 4.4123 4.3811 10.343 4.1276 15.647 5.9485.28023-.46475-.038078-1.8632.090671-2.4989zm0-9c1.7581-11.936 2.8088 12.01 0 .0217zm-.22565-5.2337c-.38537-33.253.26984-66.873.22565-100.27 4.5203 2.7164.77408 13.699 2 19.71v80.172c-.68782-.0551-2.0971 2.3346-2.2257.38434zm-8.7743-14.766c-.68207-13.768 5.6909 4.6996 0 5.5v-5.5zm0-35c.95294-4.263-2.1511-19.208 2-16.341v33.841c-4.474-1.0073-.79933-12.891-2-17.5zm.625-23.625c-1.4344-16.464-.2204-33.191-.625-49.757 5.1022-4.1366-2.8517-8.5177 0-15.553v-83.565c4.7018 2.6239 2.3285 12.396 2.9796 17.935.0068 44.688.01361 89.377.02042 134.07-2.5726.78725-1.8123-1.5271-2.375-3.125zm9.0417-51.542c-3.2005-10.067 4.1354-6.4321.66667.66667zm.88639-11.978c-.17364-12.242 3.524 7.244.09928.39556zm-.077547-7.1054c-4.1878-9.2232 3.9643-8.6486 1.5245.72825.27624 2.4667-1.4828.30892-1.5245-.72825zm-1.4755-11.25c1.6805-8.5924 3.6312 8.6805 0 0zm.49317-7.25c-1.2564-9.8752 4.9413.77373.27277.67503zm-.49317-9.25c1.7581-11.936 2.8088 12.01 0 .0217zm2.3605-39.5c-.16001-10.408.11652-9.7263.74909 0-.80322 9.2007-.80824 14.163-.74909 0zm9.0657 224.12c1.6112-26.362 1.0771-53.388 1.6843-80.01.60478-37.352.3947-74.741 1.5154-112.07 3.8056-5.8046-1.9682-9.257 1.1583-15.019-.41476-9.6131 1.22-19.954-.45143-29.121-7.4632-7.0433-4.6595 7.4447-5.0637 12.012.14511 42.648.04826 85.356-1.7905 127.95-2.0732 6.9765 3.2189 11.385 1.5214 18.596-1.2444 5.8152-2.8818 11.411-2 18.412v60.128c1.0925-.35841 3.1055.84928 3.4262-.88058zm63.538-11.055c3.8373-4.7807 5.1315-10.872 5.0819-17.468 2.6284-9.2834.83551 13.374 4.9541 1.8881 6.2409-6.1679-.9283 5.2871-2.7716 8.1747-1.8499 7.4392 2.1066 11.622 4.9173 2.37 2.8659-6.2346 1.502-10.005 3.5174-15.963 1.0355-5.4823 1.815-12.579 1.3369-19.544 2.2339-11.159-3.7787-9.355-7.9212-1.1949-4.5847 2.339.0954 20.36-4.0788 13.354-.24731-8.3111-8.7065 4.2628-9.9037 7.2102-.0176 9.5361-.34051 19.074-.0864 28.609 1.3586-2.4985 5.0593-4.4452 4.9541-7.4356zm24.311-23.816c5.5891-7.9576 2.8315-6.4087-2.1917-7.8522 2.6653-5.1901 7.8691-7.8365 5.9163-16.443-.99284-4.2944 2.0763-18.656-1.6092-16.277-4.8648 4.7727-10.609 9.1906-8.3908 16.821 1.2523 6.1854-3.0384 14.974 3.1264 18.852-7.2701.955.44464 10.218 3.149 4.8984zm1.2246-9.2482c.80587-4.0508-5.4876 4.1308-.008.0137zm42.5-63.8c3.169-8.1314 1.4267-6.5043-2.5808-1.5926-5.3497-1.1457 2.3123 8.2588 2.5808 1.5926zm16.344-26.406c-.14573-9.7126-7.1813 9.3723 0 0zm-1.9255-4.4007c2.6999-3.7905 6.7714-11.379 4.5221-16.99-3.0795 2.605-8.615 6.9735-6.9403 13.265.33578 2.1039-1.2586 6.0578 2.4182 3.7251zm0-15c1.9649-1.301 7.8568-10.737 2.3804-8.3106-2.2133 1.4215-6.9485 5.7954-3.9622 8.9176l1.0824-.41538zm36.582-7.5127c-2.4116-1.8304-3.9526 8.7669 0 .10314zm5.3616-1.3803c.75418-7.5825-3.7835 6.3287 0 0zm1.6384 1c-1.1448-2.1679-1.2474 2.0693 0 0zm2-3c-1.1448-2.1679-1.2474 2.0693 0 0zm-13-2c-1.1448-2.1679-1.2474 2.0693 0 0zm1-17.443c-1.2198-4.5245-13.717-6.8516-13-1.095 5.8353-3.1033 10.224 1.7695 13 1.095zm-20.333-3.7234c-4.9891-1.0865 1.7744 2.5886 0 0zm-187.49-58.553c-6.8392-1.9792-4.4814 10.785.84603.84603l-.81983-.81983zm35.804 4.4695c-1.8373-4.7736-8.3081-6.9331-13.23-6.25 2.3317 3.0573 10.319 8.5661 13.23 6.25zm-16.591-7.1648c6.2104-7.8899-4.6494-8.6077-10.826-7.707-9.314-.15533-7.378 2.9934-3.9159 5.8709-1.9152 6.2078 10.621 2.7004 13.926 2.5114zm-10.644-3.8086c11.764-.52248 8.5176.975-1.3877.40332-3.5738.11506-.06441-.20772 1.3877-.40332zm26.25 4.3373c-.23596-2.5722-12.9-8.3299-10.428-3.3978 2.2312.78182 9.8225 7.6265 10.428 3.3978zm-.015313-19.305c-1.2722-7.3958 2.0593-12.717.78831-19.309-5.7687.61516-1.4981 11.74-3.2679 16.541.40937 7.2068 1.6798 6.3108-.50507 10.459-4.4471-2.718-1.0358-13.45-2.3264-19.387-.76487-11.971 1.8215-7.9967-5.1736-2.2591-6.5297 4.5536.46698-10.48-7.882-11.89-5.6781-.60171-8.3059 9.3589-11.618 11.049-4.8476 5.029 4.0012 10.739-2.3816 15.218-.12352 5.1791 5.5088 10.44 11.541 8.2377 9.3735 2.3339 6.5589-8.414 7.2185-14.054 2.803-10.557 3.0802 5.5069 2.6221 9.6113-3.9556 11.303 9.2636 1.5437 8.6817 9.8218 4.2998.1815 1.4673-10.773 2.303-14.039zm-35.77 9.3784c1.7938-9.4656.24477-19.906.78566-29.737-9.0425-6.1775-7.0597 6.7357-7.4433 12.354.54139 6.7753-2.2084 14.419.51413 20.619 1.9133-1.1674 5.1587-.98206 6.1435-3.2361zm40.786-38.487c.089351-6.036 3.3141-11.156 2.7688-17.735 2.3212-6.5245-8.6347-10.102-12.434-10.387-4.9325 4.792-1.1899 12.927-2.3345 19.178-1.0033 9.2162-.62968 12.572 8.5574 12.708 4.2587 2.8429 3.4684-.58586 3.4426-3.7638zm-6-8.2c-.93573-10.855 4.8394 1.1068 1 4.5-2.2587 2.5649-.41359-3.9283-1-4.5zm-2.75.31574c-2.5679-2.8696-1.865-17.756 1.858-9.5918-.90061 1.8237.87339 15.616-1.858 9.5918zm-20.915 8.149c4.0817-9.1823 12.086 3.2325 14.441 1.0353.24134-10.606.48268-21.213.72402-31.819-5.7555 1.4994-15.426-2.5968-18.41 3.5267-1.048 7.5677-1.7009 15.165-2.0896 22.792-4.5182-2.6514-.77243-13.567-2-19.509 1.0131-8.4335-12.551-1.2823-13.25 2.7586-1.2469 7.6841-1.127 15.512-1.7562 23.26 5.7078.25992 15.025.28187 17.287-1.894.96154 6.006 1.6565 2.7443 5.0541-.15137zm36.665-28.465c-1.9937-2.447-8.4095-7.76-13.313-8-6.5444.71147 8.3342 5.7818 10.509 8.75.82404 1.829 3.8406 2.0623 2.8044-.75zm-59.333-3.6667c-4.9891-1.0865 1.7744 2.5886 0 0zm32.642-2.3197c12.363.49779 1.9414-3.5839-4.6552-2.0137-10.147 1.9601-5.2411 3.403 2.4838 2.018l1.1594-.0023zm9.691-4.9751c-5.1908-2.4545-13.645-2.3191-20.044-.77587.63554 3.4381 12.605.57634 17.674 1.55.60533-.44038 3.0128.91598 2.3704-.77414zm57.643 475.19c-1.4187-3.6094 1.3353-21.826 2.6894-10.639.39133 3.4522 2.2973 12.234-2.6894 10.639zm-20.357-7.7318c.38859-14.124.69503 13.56-.00099.36235zm26.733 2.0225c-2.3843-2.251.67982-20.59.92859-12.589-1.4474 4.597 6.7185 12.819.29761 14.066l-.74045-.89218zm-73.409-3.2725c1.4095-10.861 5.7247 4.6051-.64816 2.75.21605-.91667.43211-1.8333.64816-2.75zm138.55 1.1602c3.0046-4.2289 12.411-.63808 17.956-1.7256 8.4282.10515 16.856.21029 25.285.31543-4.904 4.3762-13.095 1.176-19.317 2.5131-8.0971.26911-16.194.53821-24.291.80732l.21925-1.1385zm45.431-.26438c3.1216-2.1548 12.583-1.5484 18.229-2.1368 11.437-.61897 4.9522 2.7541-2.8117.8268-2.862 3.5602-11.421 2.5064-15.417 1.31zm-152.59-3.1458c1.5029-.4299 14.088-5.4538 7.8104-.43235-1.8991.55522-7.3762 3.0836-7.8104.43235zm12.5-3c.67213-4.3641 5.8498 3.2551.008.0137zm95.441-6.4286c5.3858-3.25 13.544-.62295 20.052-1.4964 6.3984-1.2234 19.243 1.5263 6.0044 2.1227-9.0575.91623-18.15.85991-27.242.8024l.74045-.89218zm36.059-.57137c2.1201-3.0782 19.686.31652 7.3623 1-1.8967-.66199-7.3914 1.4301-7.3623-1zm-198-2.3286c1.1103-3.9042-13.11-12.457-7-11.229 9.0587.14545 7.511 3.6108 10.328 9.6578-.99341.21542-4.3852 6.1593-3.3282 1.5711zm210.42-4.5456c4.7106-2.9022 19.605 1.6522 6.1854.87414-1.2654-.55327-7.6908 1.1278-6.1854-.87414zm-104.41-9.3044c1.7518-5.637 4.7859-11.052 6.4457-16.667 3.9983-6.5013 6.1359-15.141 9.4043-21.154 2.4475-4.2509 3.4936-10.911 6.6406-15.656 2.667-7.2066 5.6418-14.268 9.6518-20.844-.13196 6.7284-5.0394 11.572-6.1524 17.789-8.2376 16.492-13.74 33.664-21.761 50.211.0987 1.673-3.8046 9.993-4.2295 6.3214zm9.0213-1.8214c1.8713-9.9541 8.4388-18.684 10.676-28.5 5.6653-10.4 1.8901 2.8731-.65855 7.1195-2.5799 6.2077-5.6342 12.754-6.7895 19.05-.92077.4692-3.8872 6.1912-3.2278 2.3308zm77.72-2.6623c9.098-.28589-4.441 1.6253 0 0zm-70.75-2.3377c4.5571-5.1042 3.5392 4.677 0 0zm5 0c2.9866-4.2463 9.5108 4.4184 0 0zm9.75.33201c-4.7273-4.3069 10.901-1.5859 14.909-2.332 4.4503-.70827 21.669.46447 9.7029 2.0054-8.2006-.14582-16.634.14276-24.612.32664zm69.777-.28798c-1.139-4.8928 17.284-.36799 6.5018.68027-1.9557-.45068-5.6429 1.7394-6.5018-.68027zm-186.53-1.9274c6.8101-5.0735 10.98 3.3477 0 .88337zm-35.75-5.9801c-7.7001-2.4583.4207-13.684 4.4244-6.5462 4.8861.68153 11.042 10.574 2.8256 8.8925.49978-6.9885-6.3333-5.2117-7.4863-7.3734.61285 3.9482 12.688 12.941.23626 5.027zm151.25-.18254c9.2302-1.5975 18.674-.34509 28-.67238-10.884 2.2066-21.974 1.3533-33 1.4512 1.6667-.25961 3.3333-.51922 5-.77883zm-112-.95399c.27138-3.7935 9.223 2.0397.61803 1l-.60954-.98626zm143.26.29274c15.646-.15345-6.2564 1.345 0 0zm-173.09-8.4978c-11.902-1.5728 3.6661-8.4301-3.7574-12.964-2.2476 5.6808-10.003 11.819-5.1432 2.0088 4.7564-3.7228 7.419-8.6433 9.2255-13.117.8073-11.87 2.3131 2.5768 1.5058 7.5681.62249 5.5004-3.2647 11.609 1.5554 15.872 9.0659 4.0092 1.2487 4.766-3.386.63242zm149.62.19427c11.328-1.8705 23.176-.0781 34.708-.51351-3.2327 3.5106-12.985.47179-18.75 1.4383-4.0691-.45937-20.026.80035-16.529-.75311zm-103.1-7.4892c.55765-9.9994.6054 10.01 0 0zm119.09-2.2363c5.6702-.94403 19.319.9501 6.2633.38222-3.1214-.10742-17.321.27396-6.2633-.38222zm-29.28-7.7047c2.9084-4.3488 4.146-11.029 6.9752-16.169 6.3415-18.615 15.215-36.532 22.372-55.027 3.3218-5.6798 5.0131-13.214 7.6513-18.363 2.3092-4.6574 4.9077-11.03 7.0326-16.5 2.0036-2.8594 4.7232-15.606 5.524-8.8912-3.972 14.565-11.543 27.684-16.555 41.775-2.7333 3.2286-3.6256 10.584-7.3047 15.213-2.4963 9.7752-8.616 18.832-11.103 28.903-4.0573 4.0656-4.5667 11.053-6.5924 15.57-3.2376 4.3009-3.9358 13.064-8 14.93v-1.1594zm-122.91-26.946c-3.3346-8.4677 6.4913 4.6993 0 0zm131.91-10.613c2.2897-4.3358 2.4948 4.1387 0 0zm40.431-82.112c1.4143-3.4869 4.0426-10.428 6.0152-15.388 4.9624-12.6 11.208-24.078 15.554-36.719.92407-2.6716 5.7569-13.456 4.1407-5.8718-3.8931 10.15-8.2308 19.864-11.464 30.114-4.1333 3.9171-4.3932 10.937-7.1392 16.35-1.9942 2.8228-4.3006 15.143-7.1062 11.514zm-4.3991-1.6382c4.6227-11.414 3.9433 2.6864 0 0zm-9.9641-70.3c1.5012-12.23 1.9244 12.758 0 0zm-8.0677-38.639c.19637-9.2995 9.008-2.7613 1.0115 1.9771-1.6468 2.6755-.8228-.93998-1.0115-1.9771zm8.6781.93899c-2.4524-8.5803 7.4883-10.151 2.3054-.76068.41909 1.5486-1.979 2.3142-2.3054.76068zm-44.042-15.89c-.11857-4.8797-2.4738-13.924.86408-16.36 3.5521 3.1532.4502 12.96 1.5 18.616.39253 6.1418-3.0558.36691-2.3641-2.2555zm.36408-22.169c-.53929-8.7819 5.3329-10.018 2.1673-.34672.89047 5.5391-2.9919 8.0752-2.1673.34672zm-59-56.556c-1.0895-7.3123.62882-13.653 4-19.421 6.4785-.5138 6.107-14.466 12.496-11.322 4.9435 5.8182-5.4403 4.9768-7.4956 9.8372-1.3083 3.9508-4.6692 10.808-6.2743 16.399-.64819 3.8151.0222 20.885-2.7257 14.553v-10.046zm-12.066 7.1151c.3816-9.7926-1.0128-20.384.77869-29.685 3.9092-5.5465 11.049-9.4001 11.87-16.565 10.946-1.8825 3.1811 7.8992-2.0808 9.9873-6.5074 3.1587-.71152 12.653-7.6818 15.118-.42918 8.4604-.86542 16.921-.81938 25.395-3.5363.9602-1.4898-2.3001-2.0662-4.25z"/>
</svg>
