<?xml version="1.0" encoding="UTF-8"?>
<!-- Created with Inkscape (http://www.inkscape.org/) -->
<svg version="1.1" viewBox="0 0 395 218" xmlns="http://www.w3.org/2000/svg">
 <path d="m152.11 217.47c-16.866-.0278-33.76.50633-50.604-.57022-3.7003-3.9892-10.311-.9628-15.271-1.9175-8.0311-1.211-16.724-1.4356-24.318-3.6705-5.1116-.93664-8.9785-4.6942-14.208-4.8321-7.5864-3.7228-15.898-4.9981-22.757-10.402-10.146-5.4049-17.405-14.292-21.849-24.673-.63873-5.9808-4.5169-11.107-3.0999-17.463-1.1361-6.9508 2.5808-10.523 4.25-17.061 4.8755-9.2196 14.156-15.21 20.917-23.048 4.2795-2.4366 9.0788-5.7479 13.386-6.9215 7.2629-4.7056 15.226-8.4969 23.947-9.1653 3.8781-4.6221 14.074-.88095 11.495-9.7007-.24426-7.4041 1.1746-15.374-.061508-22.441-4.4671-8.0943-4.6912-18.516-3.3379-27.217 6.0513-9.4894 17.966-11.138 27.404-15.828 19.826-6.6782 39.214-14.813 60.021-18.024 19.996-5.281 40.905-3.7772 61.378-4.7162 16.415 1.828 33.124 1.7299 49.041 6.3861 18.968 3.3699 37.532 8.9679 55.799 14.703 6.5931 3.9838 13 10.299 11.26 18.522v55.532c4.4459 6.6288 13.201-6.0322 13.515.74268-2.0774 6.5323 5.7532 6.8334 9.7629 9.5374 10.244 4.0314 18.458 11.342 27.096 17.893 4.5484 4.2421 10.806 8.644 9.1097 15.746-.0174 7.6212-2.7551 15.253-8.0659 20.714-11.381 10.857-23.852 21.183-37.279 28.901-8.6982 4.9569-21.191 9.8085-32.138 12.07-9.142 3.5136-19.504 2.8159-28.703 5.2201-5.699 2.7684-13.073 1.233-19.43 2.3109-10.855.95143-21.981.93725-32.666 2.4935-9.2587 3.5018-20.309.70962-30.099 3.0807-6.6788.87979-13.797.50442-19.791 3.5279-11.568.0898-23.136.17963-34.704.26944zm-28.964-2.6557c.80817-3.0442 13.499-2.8303 5.8322-5.0229-6.1177 4.163-14.457 1.4363-21.641 2.206-6.0205-1.0692-12.054 1.4735-2.6698 1.7394 6.1608.33742 12.326.61733 18.479 1.0775zm34.187-.0324c5.401.59918 14.364-1.8403 16.345-3.7983-4.6783-3.0056-9.483 2.6137-14.696 1.4638-2.9197-.38947-15.483 1.7032-8.5706 2.6966 2.3074-.1207 4.6148-.24139 6.9222-.36208zm-79.664-3.1178c1.8099-4.1474-3.395.55011 0 0zm5.8924.33333c7.8716-1.5486-7.9377-2.8433-.7538 0zm54.691-.01531c8.8809.94946 2.486-4.2144-2.5081-1.4642-4.25 1.9796.23153 1.3985 2.5081 1.4642zm12.75-.62933c11.779-1.2387 23.244-4.2239 35-5.4993-.27749-4.6138-8.9867.0735-12.64-.81683-3.4516 3.1112-8.6625-.14295-11.297 2.6677-4.0087.59549-22.31.93709-12.563 4.1532l.85547-.28788zm39.059.64464c-.66584-2.9721 7.0515-2.4147 11.318-3.1879 3.8616-4.6336-14.497 1.0266-18.833-.0326-7.4057-.50442-7.7586 3.8083-.12599 1.6186 4.4626-.39298 6.0893-1.5723 7.6404 1.6019zm9.382 0c6.4512-4.2401-6.6453-.10553 0 0zm-124.13-1.1169c1.0561-2.0292-10.542-3.0619-.78837-3.8831 3.8359-2.3299-7.6083-2.5532-10.381-3.1265-1.9726-6.1361 19.528 2.6356 4.1147-3.3735-10.974-1.8656-.2033-6.1666 4.9335-.0994 10.104.14457 20.208.28915 30.312.43373-10.185-.80174-20.392-1.485-30.5-3.022-.37143-5.5992 8.2197 1.155 12.013-.85284 18.12.30149 36.397-.0725 54.308-2.4207 9.588-4.4385 21.798-2.2955 30.771-6.0299 10.314-2.0378 21.673-1.1803 32.115-3.0731 8.6193-3.0743 18.58-1.3329 27.621-3.0745 10.96-.4965 21.161-4.3393 32.186-4.0102 22.206-.85695 44.519-4.4454 66.633-4.3168 6.755 2.7389-6.3033 3.5163-9.1732 2.9454-7.3214.54217-15.257-1.4752-21.875 1.9296-24.473 1.0274-48.902 2.6911-73.134 6.3343-20.522 2.2725-41.399 3.6112-61.75 6.2383-9.0187 4.3775-20.291 1.8689-29.414 6.3474-8.8043.79218-17.988.38963-26.565 1.8977-4.5076 2.926 8.9187.31967 12.196.84418 5.3618-.83077 11.8.80087 16.482-1.5846 9.3313-2.8717 21.366-1.1174 30.783-5.5068 16.908-1.7426 34.235-2.4404 51.304-3.7956 5.3737-3.4753 12.804-1.4545 19.017-2.6886 8.7129-.41318 17.289-1.0735 25.719-3.0854 13.893-1.5275 28.273-1.1547 41.92-3.7584 8.7063-2.4658 18.321-.84135 27.371-1.7919 10.192-.84984 21.347.10996 30.991-2.2755 6.7532-6.5566-6.1651 1.2883-10.183-.74728-6.7786.32359-13.557.64717-20.336.97076 2.8415-5.9612 17.627-1.4201 24.569-3.8735 4.7762.17672 15.219-.85118 14.549-4.9755-26.528 6.2694-54.096 4.7-81.118 4.8932 4.9318-3.2517 10.993-2.6909 15.604-.39483 12.614-4.3657-6.4011-3.6171-11.483-3.9503-6.5251 1.5061-13.125 3.087-21.208 2.5473-12.283 1.3268-25.018.96027-37.072 3.3094-10.641 2.8964-22.318 1.5556-33.169 3.5889-9.5393 3.2779-20.158 2.3292-30.138 3.8833-10.952.72995-21.331 4.3489-32.425 4.7804-5.7787-.40658-10.34 2.6206-15.564 3.0113-6.8506-.58803-14.403 1.2881-20.799-.89457-6.6968-2.3558-15.643 3.7426-23.003 4.9749-9.5746 1.1718-19.37 1.3059-28.743 3.5589 9.7791 5.6793-11.261 1.3728 3.567 6.1665 5.7532 1.4326 21.067 4.6212 7.5813 5.5481 3.9229 1.3358 8.1056 1.65 12.161 2.4015zm-15.142-7.8831c-7.5315-4.9988 5.0425-3.4957 0 0zm38.833-8.1318c-7.2099 2.5709-19.984-4.1956-6.7005-2.6399 22.833 2.4356 45.461-3.9585 67.999-6.7178 9.1393-3.296 19.791-2.2151 29.45-3.7881 5.8278-1.0407 12.544.48051 17.651-2.5194 26.432-1.553 52.648-6.0869 79.1-6.971-14.734 5.0039-30.856 2.7007-45.699 6.8446-13.434 1.0624-26.867 2.1248-40.301 3.1872-8.0752 4.344-19.634.95492-28.796 3.582-11.401.41418-21.544 4.0475-32.854 5.259-12.708 3.8881-26.642 3.0663-39.85 3.7633zm21.468 14.438c7.4881-.52667 15.514.45293 22.678-.98183 6.5653-2.8328 14.668-1.889 21.829-3.2588 13.592-3.8871 28.29-4.17 42.525-5.2873 6.4318-3.7992 15.285-1.082 22.469-2.9099 5.2956-1.2205 33.255-.66335 27.355-3.9602-16.836 1.3405-33.96 1.6828-50.618 3.642-8.1294 3.407-18.007.61741-26.664 3.0586-12.514 1.9151-24.879 4.6395-37.543 5.5728-4.8489 4.2017-12.028-.44076-16.736 2.8182h-25.764c1.8554-3.9061 10.668-1.1386 15.331-2.3518 11.099-.0208 21.949-1.2486 32.802-3.452 6.9546-1.5671 14.946-.60585 21.424-3.2513 7.9553-2.7011 17.43-1.8288 25.868-3.2654 7.8642-.38782 15.532-.32221 22.778-2.6831 16.005-1.4179 32.365-.43924 47.95-4.3909 11.849-2.0365 24.465-1.3699 36.053-3.4233 5.0823-3.2156 12.165-.92357 18.076-1.8585 11.207-.27456 22.413-.54913 33.62-.8237 6.4384-4.9498-5.3212-1.4692-8.4024-2.009-43.488 1.4348-86.699 6.5275-130 10.489-5.0332 3.4426-10.802 1.5373-16.38 1.0165-2.9055 3.9851-9.8406 1.1887-14.349 2.476-17.776.0798-34.677 6.5939-52.459 6.4948-5.2739.0665-8.2965 3.6479-14.158 2.26-12.685.0908-25.369.18168-38.054.27252 3.7988 3.247 10.051.86959 14.815 1.9042 7.0647 2.2082-5.4095 2.3547-8.4161 1.836-9.1018-1.552-5.8523 2.786 1.3229 1.9754 10.873.48348 21.767.23053 32.646.0909zm100.53.09236c3.2348.0473 15.47-.37324 11.702-2.3607-5.896.47771-20.502 1.8181-21.398 2.8033l9.6967-.44256zm-8.3998-2.7592c8.0655-1.5966 17.535-.36543 24.938-2.7018-2.5132-2.2941-15.777 1.4862-22.309.9221-5.0685-1.2006-10.937 3.8398-2.6297 1.7798zm36.543-.1899c18.44.3363-4.3826-4.7086-8.3573.70636 2.7858-.23545 5.5715-.47091 8.3573-.70636zm-193.73-.52875c7.0455-.20248-6.2796-1.1475 0 0zm140.41-.76343c5.6513.90172 9.6468-2.5342 15.08-2.3492 14.184-1.2406 28.356-2.5301 42.598-2.9847 1.6714-2.8155 13.645-1.8353 5.7922-3.8237-5.2171-.82589-7.8605 3.1955-13.443 2.1808-13.791.89083-27.569 1.9691-41.349 3.0048-4.0109 5.0039-13.044-1.7149-16.356 4.346 2.5594-.12466 5.1187-.24932 7.6781-.37398zm69.456.15185c15.971-1.39-13.585-2.3834-3.4283.38714 1.1428-.12905 2.2856-.25809 3.4283-.38714zm-214.72-1.3095c3.5099-1.6632-6.6984-2.1911 0 0zm202.44-1.382c10.673-1.0309 21.357-1.9319 32.038-2.8711.16583-4.8831-18.188 1.6936-24.235.50214-3.1489.13817-15.247 1.0075-11.507 2.7411 1.2346-.12403 2.4692-.24806 3.7038-.37209zm29.55.31571c7.8505-1.1363 16.704-.68091 24.036-3.1837-2.8197-2.0803-14.964.99437-21.27 1.0902-2.2386-.77702-9.3896 2.9906-2.766 2.0935zm-239.43-1.9337c3.5478-.74993-6.096-3.3764 0 0zm5.1404-1.0066c.58112-6.1455-11.677-3.7706 0 .00041zm262.24-.63178c4.7864-5.046-6.3561 1.6999 0 0zm-273.25-.43473c-.13895-6.1681-14.824-6.0199-1.3397-.57092zm254.25-.9269c6.7675-1.5148-4.813-2.5577 0 0zm-25.95-.98325c7.1119-.9761 35.118-.71962 30.795-4.0715-10.76 1.1696-22.137.88993-32.517 2.9533-2.7742 1.7624.34989.90403 1.7219 1.1182zm54.878-.63652c14.247-2.2831 2.6629-2.6763-4.0342-2.3744-6.014 2.0792 1.1299 3.9236 4.0342 2.3744zm-274.51-3.389c9.9327-1.0364 20.48-.63599 30.13-2.5544 11.322-3.8987 23.808-5.4506 35.056-8.8072 5.1979-2.4876 28.947-4.7402 11.897-7.3788-17.755-4.1594-35.409-11.123-47.971-24.855-.8046-4.6082-2.759-10.119-5.3199-8.454-1.5356-3.9446 5.8614-6.3002-3.7092-3.783-.48276-4.1384 13.907-6.1046 3.2706-7.1589-1.3386 3.5165-11.788 5.72-6.6458 1.3918 4.2378-1.2739 17.241-7.9761 6.6251-5.9646-4.2275 1.1029-16.853 12.471-13.783 5.729 3.8745-5.8311 14.921-5.1921 16.533-11.37-8.7888 2.422-16.821 6.7778-23.09 12.83-9.8138 4.0249 12.958-15.299 19.84-14.224 9.483-4.763-10.343.7789-14.43 3.5287-6.2628 4.4387-12.669 9.8725-18.597 14.052-3.6208-1.6496 10.924-10.991 13.763-13.973 7.405-5.828 16.713-6.684 25.013-11.019-17.331 2.0055-31.851 12.755-44.156 24.398-2.8977 4.4273-9.5682 6.2203-3.713-.44512 4.9447-3.9178 22.617-20.718 7.9622-9.3252-5.1142 5.0654-11.844 9.8459-15.593 15.711-3.7263 3.5566-.19177-7.3754 4.2721-8.5502 11.312-12.653 26.449-20.587 41.986-26.843-9.2742-1.3454-19.769 8.3507-28.727 12.142-12.25 6.0984-20.923 17.034-26.45 29.309-3.3851-6.8185 4.979-12.978 8.3998-18.326 2.075-8.1623-10.405 9.1783-10.686 12.257-4.9953 8.0803-4.2082 17.983-1.3746 26.684 1.6687 5.4984 3.7252 10.877 8.6454 14.997 7.7213 9.695 20.112 7.5983 30.851 10.003zm-35.098-25.333c-2.0212 8.7812-3.2222-12.262 0 0zm-1.8182-8.6586c-4.6586-4.95 4.292-3.6104 0 0zm256.25 34c16.884-.39306 33.495-3.6989 50.182-5.046 6.9949-1.0352 33.246.78456 28.757-3.2038-16.563.80584-33.127 1.6117-49.69 2.4175-5.1863 3.5391-12.504 1.6866-18.573 2.9901-4.4318 1.3553-11.197-1.086-14.047 2.8422h3.3716zm53.496-.71531c6.8479-.98918 14.6 1.2815 20.75-2.2239-12.846-.17207-25.696.15325-38.5 1.2387 2.1612 3.396 10.657.26039 15.337 1.0591.80427-.0246 1.6086-.0493 2.4128-.0739zm-198.32-5.7908c5.3675-.69341 11.518.83792 15.969-2.3761 9.9489-1.5875 20.576-1.5025 30.103-4.1293 9.6526-2.601 20.667-1.5335 30.658-3.5972 16.835-3.7918 34.344-2.6599 51.143-6.4299 12.682-1.1809 25.664-.944 37.991-3.9612 13.845-.12928 27.721.35659 41.54-.50124-35.52-2.4017-70.938 1.5998-106.27 4.8303-9.1163 1.7718-19.36 1.0064-28.012 3.8336-9.4872 2.1589-20.792.33388-30.61 3.4194-12.639 3.6073-25.927 3.6228-38.956 4.6349-2.1365 3.6352-17.606 2.9394-14.68 4.7456 3.7082-.15621 7.4163-.31243 11.124-.46864zm31.112-9.1139c11.438-1.3025 2.8803-3.9874-4-.25352-3.0016 1.9671 1.9579.17896 4 .25352zm12.557-2.7181c14.422-1.7727 29.013-1.7146 43.105-5.1534 5.0312-2.0517 15.408.86283 17.798-3.5085-21.577.42607-42.544 5.9144-64.064 7.2957-3.3329 3.7637 1.3293 1.0595 3.1614 1.3662zm-24.597-.79527c27.5-2.5845 54.298-11.188 82.1-10.867 4.581-4.3568 12.47-1.2276 18.31-2.7783 5.382-1.7768 23.843 1.7321 13.09-5.3475 8.0954 1.5822 3.8022-3.905-2.2942-1.8743-6.6034-2.6337-9.1381 5.3103-14.308 1 .53053 4.4837-8.6896 1.3744-12.532 2.4499-18.046-.008-36.592 2.4052-54.058-2.7334-6.9459-.76238-13.892-1.5248-20.838-2.2871-4.5503 1.6842-13.068-4.2779-20.392-2.9777-7.658 1.2585-26.39-10.557-26.267-3.4517-6.8254-1.7498-12.559-5.0041-18.637-8.3737-8.0109-8.4755-7.184.60481-6.0066 6.8058.91688 7.0208 6.0552 3.2983 10.671 7.342 4.6205 1.2154 19.616 8.9936 7.1357 6.4272-6.072-2.2418-17.398-9.5366-5.9163-.43299 7.5926 5.3724 16.33 7.7577 24.97 11.044 8.1865 2.5949 16.26 5.8109 24.972 6.0545zm11.096-2.8666c-9.1961-5.6193 4.0817-5.4757 0 0zm2.5265-5c-8.6555-5.0411 2.2917-5.1736 0 0zm39-3c-9.8277-6.105 5.1976-4.4978 0 0zm7.6509-1c-9.4531-3.725 5.027-2.8758 0 0zm15.286-1c-5.8597-1.8313 2.6019-3.569.66457-.29375zm-69.142-2.0333c-14.024-7.9378 8.8077-.10352 0 0zm7.6903.03327c-9.674-5.5692 7.203-4.2694 0 0zm91.393 0c-4.03-2.6925 3.8934-2.3567 0 0zm4.5833-2c-7.8272-3.8695 6.4194-2.96 0 0zm-148.33-4.0339c-7.2638-.43688-20.153-5.5307-20.003-11.88 2.4131 3.6092 13.014 7.1489 5.1751 1.7765-11.177-7.424-.08728-4.0919 6.0304.96614 4.3377 2.7401 9.5298 1.3592 10.683 6.1709 3.9895-.39406 1.8166 4.8054-1.8859 2.9661zm-3.9392-2.9661c5.1282-1.1916-13.741-6.8392-2.0892 0h2.0892zm235.28 19.622c8.5753.17125 32.161-2.1161 34.11-4.4165-10.551.9058-21.129 1.447-31.701 2.0514-1.8723-4.0117 13.337-1.9262 5.4102-4.2569-7.2709-3.0902-6.3074 5.7598-11.971 5-3.5363.39785-13.283-1.4393-11.856 2.2877 5.3359-.22191 10.672-.44381 16.008-.66571zm-99.638-3.8022c21.197.20089 42.256-3.7216 63.498-3.1757 24.92-.55942 49.938-1.1407 74.616-4.9437-1.4806-4.6518-23.039 2.6109-30.787.76014-11.951.58598-23.918.53703-35.88.5395-4.1925 3.7912-11.029 1.1246-16.335 2.1972-16.431.74193-33.117.5629-49.388 2.3265-6.1698 2.5044-19.078 1.956-5.9585 2.2904zm140.61-1.0745c5.1102 1.8062 16.889-12.71 6.8316-7.8343-7.183.31012-18.526 5.5289-5.7384 3.3606 11.073-.006-10.476 3.5666-4.1663 4.8201 1.0244-.11546 2.0488-.23093 3.0732-.34639zm-15.067-1.2208c6.2885.66943 12.532-4.1591 2.713-2.0712-5.0316-.87439-14.284 3.9509-4.3242 2.2322l.89814-.0897zm-83.172-5.2279c4.6184-.69151 10.882.76914 13.741-2.2966 4.0724-1.1729 12.845 2.3542 13.931-1.8052-.12729-13.022-1.6805-26.029-4.5-38.695-7.1037-1.0093-15.436-.72534-13.094 4.5-2.2132-4.0144-6.264-4.898-12.201-3.4489-4.1069.26918-12.041.1603-12.12 5.3674-1.0264 3.5672 9.3584 6.9812 3.4136 7.0815-5.296-1.8008 3.1523 5.1635-.5 6-4.3737 3.4912 2.5346 7.9155 1.4302 8.9953-5.4435-1.4354-1.4242 7.5955.56979 6.4651-1.9533.16301-8.3552 3.5151-2.8805 8.3885 4.026-.0904 8.1494-.3832 12.209-.55231zm-9.8282-1.2966c-12.692-4.4357 9.2401-2.4478 0 0zm5.7744-.87442c-5.1168 2.1588 1.6788-5.8272 0 0zm5.7846-1.1256c-6.2644-2.9314 3.9914-4.0163 0 0zm23 0c-6.2644-2.9314 3.9914-4.0163 0 0zm-16.937-2c-10.411-3.7135 5.78-4.4409 0 0zm7.4366 0c-9.1826-5.0732 6.3826-2.2544 0 0zm-19-3c-9.1826-5.0732 6.3826-2.2544 0 0zm26.048-1c-7.0586-3.4846 3.7945-4.5312 0 0zm-19.781-1.9778c-3.7043 2.3533-2.151-7.6077.11362-.34086zm9.329.97785c-10.635-6.3009 2.2692-4.7463 0 0zm-5.9144-5c-7.7606-5.6217 2.4441-6.5871 0 0zm9.8819 0c-8.6555-5.0411 2.2917-5.1736 0 0zm7.0097-1c-11.361-3.3902 5.8567-5.513 0 0zm-26.965-1c-6.8402-5.0615 1.9721-4.6761 0 0zm11.302-5c-9.7926-5.3864 7.616-4.5639 0 0zm-9.4096-1c-7.5054-.76593 2.1454-5.829 1.941 0h-1.941zm25.91 0c-8.0766-7.1137 5.7227-3.0898 0 0zm-9.5-1c-10.16-5.5204 7.6776-3.647 0 0zm-13.433-4c-8.9124-4.2811 6.6381-5.009 0 0zm7.2148-3.0153c-9.5746-1.8418 3.6812-7.54 0 0zm7.75-.98469c-6.9354-2.0829 6.4821-3.0403.36145 0zm-23.5-4c-6.8934-3.0299 4.2006-3.6322 0 0zm8.548 0c-7.5359-7.2254 6.4336-2.2612 0 0zm17.39-2.3125c-10.043-5.989 6.112-3.9461 0 0zm28.812 36.09c4.2896-1.4204 14.321 2.68 14.196-2.9848-.55196-8.5469.40181-17.637-1.0606-25.856-3.2302-4.9349-.57515-12.594-3.318-17.502-5.0473-4.9934-12.339-1.1947-18.568-1.5596-13.153 1.9019-10.864 9.5682-8.6923 20.925.007 3.9528.35628 11.032 4.5396 9.9178 4.8606 4.6519-8.2007-1.5236-2.4865 8.3747-1.1061 9.6009 4.1477 9.7575 11.968 8.7507 1.1402-.0222 2.2805-.0444 3.4207-.0666zm-6.0833-.77746c-6.8402-5.0615 1.9721-4.6761 0 0zm14-1c-6.8402-5.0615 1.9721-4.6761 0 0zm-9.5-1c-9.4283-4.491 7.0774-3.8928 0 0zm-3.7844-5c-6.6525-1.3293-4.5917-8.7859.1518-1.4205.89052 1.2786 2.7105 1.653-.1518 1.4205zm7.2137 0c-10.92-5.9527 5.4119-5.2801 0 0zm7.3474-2.1216c-5.7208.69626-8.7885-12.59-1.3127-3.22.44847 1.0951 3.6719 2.262 1.3127 3.22zm-15.321-6.8784c-10.202-4.1311 8.2413-.91797 0 0zm15.722-3c-6.6944-1.8003-2.117-6.8188 1.3201-.27971 1.0414.70685-1.1438.0772-1.3201.27971zm-11.639-2c-7.4115-.84653-1.8525-5.8484 1.5504-1.25 1.0988 1.8897-.35339 1.1045-1.5504 1.25zm-10-1c-8.7295-4.3239 3.2039-3.2892 0 0zm22.657-5.0871c-3.0008 3.4312-7.9145-9.2496-1.2394-2.6095.91271.91995 2.3598 1.0846 1.2394 2.6095zm-18.613-.56703c-4.0736 1.3324-7.3869-9.921-1.6151-3.1661.21335.99838 4.2815 2.5498 1.6151 3.1661zm8.9564.65411c-8.7295-4.3239 3.2039-3.2892 0 0zm2.4167-7c-11.065-5.7481 6.9938-3.4344 0 0zm-8.9042-1c-10.624-3.2226-5.9014-10.923 1.0555-1.179.85287 1.5106.10895 1.202-1.0555 1.179zm13.75 0c-9.229-4.7185 5.648-4.9009 0 0zm-9.5315-4.0222c-10.646-3.42-3.1031-8.3903 1.0543-.3773 1.1976.80115-.68848.25781-1.0543.3773zm4.3129-3.0938c-10.494-1.8573 1.7341-7.1515 0 0zm49.927 43.116c4.759-.50919 9.9199-3.3553 13.394-6.578 6.0793-8.0227-6.323 2.9619-9.835 3.7084-1.8407-.13088-9.5664 3.4935-3.5593 2.8696zm-29.108-1c7.9546 2.3926 3.8803-6.2729 4.1464-10.948.27857-5.4238-3.3884-9.2495-2.369-14.838-.38268-10.391-.76535-20.781-1.148-31.172-5.1671 3.0814-15.114 6.8275-9.7932 13.839 11.59 6.7295 3.6435 3.8297.27663 3.4154.83042 4.1755 3.0713 8.6623 2.3595 13.777-1.696 5.0979 3.2715 11.327 2.0297 13.628-4.3638 2.6727.76746 8.4452 3.4293 8.2021.1397 3.5135-7.2637-1.7788-3.0974 4.0974h4.1661zm2.098-5c-6.8402-5.0615 1.9721-4.6761 0 0zm-3.6667-14c-6.3404-1.4446 6.3286-2.8161 0 0zm1.75-8.0318c-11.207-6.0108 2.1697-7.4733 0 0zm-5.191-19.968c-11.892-3.4321 9.7389-3.6023 0 0zm14.441 46c1.7937-1.2775-1.7937-1.2775 0 0zm-151.77-2.1871c7.7441.0177 15.488.0353 23.232.053 2.8264-3.8317 9.3558.93942 13.602-1.0237 8.4302 2.6479 3.5096-8.308 8.7742-2.7658 3.1596 4.8311 9.2402.36561 10.185-4.2964.10968-8.1571-7.6142-5.9081-4.3654-.77985-2.709-3.919-10.765-7.8668-13.161-3-1.0388 8.4078-3.2684-3.9144-8.2937-.89328-5.2643-.0187-10.529-.0373-15.793-.056 2.6727 7.3493-3.0321-.38291-6.369-.0507-3.267 3.6493-10.931-2.2525-11.214 2.7043-4.4989-5.0612-12.288-2.2186-18.37-3.4766-5.2488.3808-9.6068-1.0265-13.786-2.2251-21.486-.52018-42.749-3.427-63.674-8.1864-7.5115-2.7917-15.341-6.3296-23.335-9.099-6.0218-4.7734-5.0313 6.708-2.7834 9.2673 6.9651 6.6728 17.353 7.2689 26.119 11.013 14.746 3.6175 29.658 7.6149 45 7.2425 7.8999 4.5015 17.715 3.0716 26.458 4.9612 9.1737 1.177 18.539.31491 27.774.61178zm6.7676-1.8129c-6.3404-1.4446 6.3286-2.8161 0 0zm8.059 0c-5.7794-2.1385 4.7208-1.104 0 0zm21.91 0c-9.229-4.7185 5.648-4.9009 0 0zm-7.7186-1.0572c-12.375-5.3216-1.6848-10.333.88281-.19842zm-30.75-.94284c-4.03-2.6925 3.8934-2.3567 0 0zm12.358-1.9576c-6.8663 2.1371-.87186-11.001 0 0zm37.797.95762c-10.535-7.0977 1.488-7.9256 0 0zm-47.155-2c-4.03-2.6925 3.8934-2.3567 0 0zm29.206-1c-8.7295-4.3239 3.2039-3.2892 0 0zm-89.387-1.9569c-4.9627 1.2687-2.1377-8.1625.0847-.25405zm7.431-1.1659c-11.307-2.632-1.2134-8.627 0 0zm-59.875-8.1689c-4.1875 1.7998-15.064-8.4339-8.3294-5.2555 8.4523 2.485-9.3949-8.2492 3.2396-3.048 2.7801 3.8686 13.779-.26062 12.012 5.0952-6.0018-1.9927-16.901-.73429-5.85.5 2.2493-.78296-1.3131 3.3024-1.0726 2.7083zm274.52 19.292c3.9532-1.2762-11.36-11.547-8.8542-7.0527 3.9683 1.2224 5.5053 6.4654 8.8542 7.0527zm-5.3955-1.1416c-4.1473-7.5424-15.879-2.4475 0 0zm11 .0484c-.31246-4.5299-11.232-10.512-18.04-11.745-5.1895 2.6601 6.7126.50155 7.9798 4.6207 3.2601 2.4976 6.3839 5.2419 10.06 7.1243zm3.272-1.3455c-2.581-8.722-13.219-11.713-20.611-15.168-9.3153.5989 8.0262 4.6697 10.863 6.8333 3.0358 2.8703 6.0514 4.2196 9.7478 8.3343zm2.9466-1.6254c-4.9388-6.6743-1.4776-6.2664-2.8173-10.035-4.4839-5.9949 2.366 8.0015-5.0221-.28392-2.9377-3.6146-26.831-12.318-16.129-5.6174 8.8857 2.5313 16.788 7.179 22.474 14.508l1.4954 1.4281zm3.0686-1.7977c-.64573-8.606-2.466 4.6385 0 0zm-27.371-2.2172c7.0458-.20251-6.2797-1.1476 0 0zm28.932-1.9211c2.7731-.87736-10.027-8.6114-3.3486-2.5l1.9525 1.7656zm3.1514 0c1.7937-1.2775-1.7937-1.2775 0 0zm-289-1.0306c2.5455-.80667-9.588-3.4951 0 0zm288.39-1.5217c-6.2744-9.1435-15.212-16.069-25.499-20.168 5.6278 5.9006 14.332 7.584 19.056 14.585 2.0644 1.9406 3.9138 4.201 6.4428 5.5824zm2.781-.78103c1.8099-4.1475-3.395.55015 0 0zm-173.17-3.2477c6.5668 2.296 2.9864-10.095 6.6816-.6166 4.6531 1.1085 8.7076.25393 3.5084-3.8024 5.1632.43158 7.9471 6.2254 14.289 4 7.2979 2.2926.008-11.298 7.8562-.87859 6.5804 4.3197.47925-7.3379 6.5821-3.5206 3.1028 6.5759 4.4866-5.123 3.5825-9.1376-2.689-4.1973-11.545.8479-16.623-.9801-5.6157.57875-12.168-1.5728-17.17.79523-2.8926.0466-10.978-3.232-14.208-.37581-7.3504 2.0559-22.266-1.3749-32.103-.46317-17.815.12206-35.455-1.5881-52.901-5.0275-15.219-2.8477-30.283-7.2333-44.467-13.369-3.152 2.3335-5.4065 9.0515-1.7591 11.492 14.924 7.4271 31.142 12.588 47.723 14.644 2.825 4.2124 9.8669 1.13 14.438 2.3211 5.7027-.91663 10.159 2.2599 15.693 2.0072 5.4782.25966 10.956.51931 16.435.77896 2.9993 3.9198 10.015.63622 14.598 1.714h19.343c1.2234-9.9822 2.9719 4.5132 8.5.41899zm-3.3125-2.6482c-5.9961-1.5654 6.1562-5.4486 0 0zm25.012.22917c-7.7265-5.3543-.26562-7.2832 0 0zm-33.141-2c-6.6945-3.5169 3.5085-3.7456 0 0zm3.0543-2.57c-6.5944.60922.85525-8.3448 0 0zm8.5091.57003c-7.34-3.7774 2.7956-4.6992 0 0zm9.1616-.45074c-8.3112-3.3432.41572-6.7023 0 0zm-80.534-.67204c-12.6-3.2031.65977-9.724 0 0zm94.833.091c-13.684-8.4863 6.854-3.873 0 0zm16.756-.4746c-9.5412-4.1274.94391-8.0218 0 0zm-26.59-.57257c-8.2218-.65137 3.4508-7.1671 0 0zm-32.191-.92105c-6.7878-4.5157 4.6926-4.915 0 0zm49.41 0c-9.229-4.7185 5.648-4.9009 0 0zm-98.36-1c-8.3555-5.7005 4.1425-4.1921 0 0zm-51.636-8.0438c-8.3542 1.3827-21.071-10.08-5.4725-3.6794 1.6986.30642 13.365 4.7081 5.4725 3.6794zm4.5865-2.9562c-4.713.2631-7.6964-3.5549-13.053-3.1748-9.9295-5.897 3.7451-3.445 6.9944-.7346 1.6429 1.6412 16.17 2.5728 6.3896 3.9094zm271 22c.32083-4.3048-21.229-14.408-19.635-10.42 6.8001 2.8767 13.676 6.0463 19.635 10.42zm4.941 0c5.5026-1.3291-5.4254-.89186 0 0zm13-1c-.95145-5.9741-7.0997-11.032-13.269-15.185-6.8131-5.1308-14.274-8.2811-22.25-12.77-13.052-1.9002 12.325 6.4922 14.503 10.27 8.1872 4.0062 15.225 11.063 21.016 17.685zm-15.723-2c-1.8787-4.4505-18.881-14.001-23.946-13.305 6.1226 4.9302 15.316 6.6812 21.668 11.805l1.1825 1.0594zm9.904 0c3.2045-.0252-5.0708-5.0859-.94467-.31329zm-5.5148-5.3333c1.8099-4.1475-3.395.55015 0 0zm-357.92-1.6985c5.8042-3.6119 13.441-12.225 2.6833-4.3495.27558.41907-5.4736 3.4187-2.6833 4.3495zm355.37.03183c3.5478-.74993-6.096-3.3764 0 0zm-5.559-4c.10837-2.4836-3.6429-2.6317 0 0zm-327-2.0153c8.1823-3.4547-2.4665-1.2361 0 0zm322.75-1.0201c-.92371-2.0221-11.743-9.6184-16.496-7.7309 5.1645 3.3491 10.94 5.2258 16.496 7.7309zm-162.81-1.6354c18.34-.1749 36.677-.61253 55-1.4397 8.276-2.7712 6.7937-4.9772-1.3872-3.7637-3.8272 1.3996-13.691-.9723-5.0083-1.8335 12.242-1.201 24.782-1.7564 36.844-3.7825 5.2652-.74277 28.892-8.6325 14.45-7.2116-15.079 3.3735-29.889 8.8553-45.565 8.702 5.2903-6.6347 19.977-2.0803 28.18-6.5613 7.7047-3.7025 23.718-3.1515 26.379-10.013 7.7419.77487 7.813-6.1562.25032-2.6593-14.684 7.2077-30.853 12.738-47.164 13.248-7.3584-4.6328 11.297-2.481 13.635-4.01 12.063-2.6858 23.612-7.1279 34.814-12.312-7.4916-4.3111-15.937 5.862-24.086 6.1348-4.9843 2.2009-23.377 2.3187-12.092-.84418 13.364-.0988 25.068-6.9534 37.236-11.196-4.4347-5.1106-12.128 3.4443-18.01 3.7591-4.1182 2.4874-24.184 5.338-15.268.45425 8.2238 1.0025 15.201-4.0912 23.305-5.1912 5.3369-1.5324 15.256-8.7963 4.5137-6.8916-8.0314 4.0528-16.075 8.1122-25.27 7.8205-4.0797-4.9455 14.808-2.723 18.663-7.7377 4.3068-1.4262 18.345-6.4551 7.5805-7.9692-4.6485 3.0947-23.246 12.737-21.628 6.1897 8.7146-2.7327 17.452-5.6625 25.274-10.474-5.5314-4.3464-13.713 5.9746-20.065 4.804-2.6828-4.9253 8.5034-2.358 11.082-6.419 3.749-2.1205 9.2386-4.3112 10.739-7.1319 8.144-8.6988-9.2736 3.2845-13.933 4-6.6197-3.2211 13.237-4.698 13.635-10.485.53369-8.4511 7.2764-3.0471 11.8-6.3832 2.5861 7.5175 6.877.30998 3.8279-3.4886-1.4647-5.079-4.3944-10.317-9.9308-11.893-4.163-1.0958-21.084-5.9315-12.646-1.1692 3.8774 3.7624 12.73.44019 13.345 7.5066-2.772 6.4842-14.494.6141-20 .42031-18.093-3.8482-36.162-9.225-54.882-8.5079-2.803-4.553-10.133-.74692-14.841-1.7811-25.458.29349-51.061 2.0143-75.794 8.2162-16.365 2.1768-32.036 7.7939-48.12 11.037-5.6938 3.9853-12.813 2.8844-19.362 3.8183-1.3908-11.08 15.068-12.118 22.206-16.717 7.3162-5.6707 17.075-1.774 5.3062 1.3038-8.398-.11201-16.192 9.8408-3.8594 3.7484 16.875-5.13 33.543-11.183 51.215-13.221-3.2545-2.7331-25.062 2.9655-34.766 5.2624-11.366 1.6786 1.0983-4.1092 5.5747-3.8754 28.43-6.8494 57.477-10.837 86.749-10.688 4.6983-.18683 12.158-.49231 14.885 2.455.97247 3.3494 9.6399.48311 13.572 1.442 1.6548 3.2732 11.841 1.8789 3.2955 4.1334-8.484.3626 12.053 1.5686 14.85 2.7358 2.4707-2.3357 4.7258-2.992 4.4725-8.2875-6.6685-2.0283-16.08-1.6755-20.293-3.9707-5.4222 1.859-9.5597-2.8991-15.131-1.8553-17.659-.86197-35.336-3.2266-52.954-.61274-13.019.1846-25.011 5.2951-38.035 6.1139-14.491 5.4933-29.851 9.65-44.088 15.243-5.9816 2.5373-13.639 5.0123-19.853 9.0239-6.809 2.357-10.497 10.023-7.2761 15.896 2.4436 4.2213 1.5571 10.582 2.7585 15.601 1.9826 5.8382 1.2856 7.1621.31023 13.182.3877 5.7446-1.1629 12.432.44627 17.582 8.0521 7.026 20.111 6.0085 29.009 11.042 11.87 1.3593 23.045 6.318 35.014 6.9228 6.5454 2.0584 14.448 1.1216 21.52 2.0177 13.174 1.2427 26.363.62704 39.57.56146zm-95.441-14.329c-15.139-2.7392 13.176-2.8026 0 0zm-14.622-3.422c-7.589.24037-16.151-9.1871-2.9245-3.5464 1.7636.97355 6.9875.84287 2.9245 3.5464zm12.388-3.7851c-9.6324-1.2143 4.1938-5.9506 1.1881-.57404zm-7.884-1.8952c-9.2875 1.6727-23.057-11.45-7.5125-3.4277 2.8941-.46138 14.376 2.8217 8.247 3.4496zm-.38211-6.8976c-4.4164-1.8406-11.794-.76865-14.643-5.7513 4.6506 1.2515 10.625 3.8995 16.444 2.7494 3.4738-.25422 1.6964 4.7401-1.8014 3.0019zm112.69-3.539c-9.6154.2917 5.1994-3.0773 4.75-6.63-1.7663-4.3982-12.083 2.7875-17.054 3.4-8.4374 6.5595-8.7922-2.1374-.11921-1.4212 6.8396-3.6209 4.5499-12.042-3.5271-5.3302-5.3947-.2832-4.9292 9.4026-8.3861 8.1432 4.3488-10.492-7.1214 3.7194-8.5256-2.7517-2.9132-1.7243-14.387 7.0809-6.4733-.99274 6.526-3.3373 20.562-17.62 5.3492-7.6475-4.7104 6.1804-16.791 8.1239-6.0493.76894 7.3638-1.0388 9.3742-11.799.58064-3-5.3626 5.7628-14.338 9.3933-5.0444-.09561 8.4638-10.55-5.917-1.605-7.3525 3.0741-6.8947 1.8373 3.0762-7.3658 5.6176-9.1269 5.5558-3.8901 18.182-16.397 4.7236-6.8796-5.7035 8.8622-16.127 9.9425-5.4583 1.3589 4.5578-5.4827 10.727-8.2998 16.853-11.589 7.5146-10.425-17.155 6.8517-20.597 9.7698-5.2954-.97425 8.222-9.8413 12.476-11.746 5.4129-2.7149 10.701-5.7819 16.578-6.7586 6.2776-2.765 14.278-1.9706 21.226-3.3507 12.125-1.7878 24.445.77964 36.54 1.6904 3.4913 1.3925 13.867 2.6636 8.0267 7.3186-4.9666 1.9923-9.326 4.7556-12.255 9.3337-6.1603-.71792-8.7311 6.9448-13.204 10.166 1.1922 6.6717-4.4852 5.2803-5.9249 9.303 5.9757 3.0155-2.7357 2.8704-4.9528 6.0314-2.0909 4.6705 8.0886 1.6296 11.119 2.4996-1.8243 5.883-14.442 1.3442-18.916 4.461zm-29.013-6.0375c6.7065-3.3935 18.633-14.385 4.0782-7.2726-2.6227-.98396-9.7106 13.789-4.0782 7.2726zm25.013-3.2046c4.3743-3.4387 12.897.7009 14.767-6.2188-5.8781-.017445-18.148-.33037-14.767 6.2188zm-8.3988-4.7591c6.4633.7587 15.016-9.2281 4.1593-5.5791-2.8408-.92209-10.602 7.199-4.1593 5.5791zm-9.4796-3.4597c7.8734-.54958 15.768-8.1328 4.1284-4.7542-1.2587 1.5701-3.6788 2.7171-4.1284 4.7542zm28.157-.59824c7.1037 1.743 11.915-6.4436 2.2435-4.4018-5.1839-1.9866-13.266 8.0108-3.8268 4.5606l.89811-.0901zm-32.747-2.9435c7.6866-2.3066 11.381-11.18.16706-3.262-3.4982 2.7082-6.0606 6.6282-.16706 3.262zm-9.1636-.50304c7.231-1.1294 16.434-15.526 4.4679-8.3866-2.585.16186-11.297 12.58-4.4679 8.3866zm31.572-.95525c7.3647 1.065 10.201-6.5851.91213-4-3.4331.22495-8.539 5.9174-.91213 4zm15.314-2.0419c10.558-.34356 7.6994-4.5516-.45325-4.055-4.5014 2.0317-4.8204 5.7483.45325 4.055zm-25.235-.95812c7.4829.40108 14.455-12.572 1.9987-4.3322-2.2846.23738-7.4528 5.2479-1.9987 4.3322zm-3.7335-5.5607c14.586-4.8744-1.0356-7.5116-4.5353.61777-.42365 1.7875 3.6593-.7998 4.5353-.61777zm19.548 1.5267c3.6846.85064 16.303-5.3477 6.9038-3.8167-4.3042.72538-13.107-2.0036-9.6625 3.1927-2.3663 1.4502 2.4551.26828 2.7587.62406zm16.103-.96607c7.0298.82503 10.553-4.8659 1.3808-2.9794-3.949-1.1509-9.274 4.895-1.3808 2.9794zm-46.053-3.207c3.3757.78412 18.786-8.9368 10.548-7.393-2.7493-1.0521-14.813 6.3791-10.548 7.393zm22.307-1.793c4.6409-2.8047-1.9042-2.7539 0 0zm6.4366 0c9.9216-5.6738-4.0486-2.2629 0 0zm7.6224-.15158c10.062 2.9411 15.227-8.954 2.4858-3.8484-2.5008-.08225-10.735 5.8019-2.4858 3.8484zm18.417.11998c3.2596.94626 11.908-6.6488 5.1601-6.9684-3.8365.80018-3.9467 5.3267-9.0768 4.8333l.66667 1.5zm-35.819-3.9863c5.6297.0346 9.8104-5.8669 1.7107-3.9821-2.8903 1.6256-10.704 6.3401-1.7107 3.9821zm12.902-1.6118c15.279-2.6418-4.9723-4.6624-3.606.50167 1.202-.16722 2.404-.33445 3.606-.50167zm-26-.37033c4.6455-3.2407 23.556-6.1015 6.8864-4.9367-2.1614.637-13.65 1.2987-6.8864 4.9367zm40.882 0c8.7269.58824 5.2494-3.5131-1.4718-2-5.6794.30912-3.0492 3.2071 1.4718 2zm20.868-2.0997c6.1048-4.279-15.219-2.0167-2.3234-.28304zm-41.941-1.9454c11.928-2.139 4.672-4.5196-2.7975-1.7453.42968 1.1057 1.5871 1.8695 2.7975 1.7453zm29.75.0451c8.5017-.66314-6.7785-4.7261-2.441 0h2.441zm-8.868-1.1502c8.9534-.70186-.4117-2.8245-4.7844-1.6833-14.439-.23283-1.6899.96043 4.7844 1.6833zm-132.19 42.868c-6.9806 2.7742-21.5-6.9403-6.3321-1.8793 2.0282 2.0858 16.267 1.5163 7.722 1.8605l-.90253.0122zm4.3333-5.868c-4.318 2.3632-25.276-6.5409-14.481-5.4927 5.5453 2.885 11.968 2.1891 17.986 3.1426 2.2872 3.8938-1.0966 2.0452-3.5047 2.3502zm132.15-2.8502c-.86089-8.3929 14.811-21.278 24.906-25.797 10.081-3.5243-3.084 6.602-7.254 7.024-5.2001 3.2217-9.2732 8.5425-13.268 13.104-1.4199 1.8581-1.159 6.6499-4.3844 5.6687zm14.004-3c-4.1594-5.0443 7.6088-11.43 11.224-15.888 12.371-3.6251 1.1705 3.9658-3.8257 7.8213-2.8284 2.3433-4.3691 5.9925-7.3981 8.067zm-154.74-3.0902c-6.1466 1.5939-19.483-6.7312-5.1153-3.1736 4.5721-.27537 15.286 3.6113 5.1153 3.1736zm-6.55-7.9098c-9.2442 1.0786-2.2171-5.7673 2.897-1.803 4.1816 3.1673-.93727 1.3111-2.897 1.803zm-4.5647-5c-10.435-5.0784 6.7536-2.6461 0 0zm-.63528-6c-8.9684-2.5574 6.7708-3.4486.69478 0zm226.76-1c-6.1636-3.8801 13.404-8.1744 4.3464-4-2.0424.13738-1.8177 4.7324-4.3464 4zm48.113 72.864c2.8814-3.0389-10.008-3.7656-3.5998-.66149l.47736.0919zm-320.12-2.215c8.4739-7.3111 27.714-10.712 32.909-15.824-9.2151 1.0075-17.406 4.97-25.853 8.4685-.84219 1.8933-14.698 8.8463-7.097 7.3841zm18.25-1.2162c8.3048-2.4836 31.2-9.3754 10.849-6.1756-.11026 3.2818-10.263 2.8522-10.849 6.1756zm219.46-2.4291c17.082-2.4593-4.8894-1.885-5.0355.48144l5.0355-.48144zm14.264-2.0035c8.8793-.39007 17.645-1.699 25.64-5 4.4262-4.3545-5.9059-3.2656-8.2537-.10963-4.8278 1.1941-20.804 3.1233-18.208 5.1096zm-218.13-5.3288c13.194-2.5074-5.86-1.789-.6625.17726zm257.41-.99754c7.8059.98191 2.5455-2.8673-.30002-3.6736-4.229.35427-6.0482 4.7867.30002 3.6736zm-9.691-1.7054c9.8409-1.9828 1.4836-6.3667-2.7408-1.6668.40129 1.0941 1.5861 1.772 2.7408 1.6668zm18.691-.9682c1.7937-1.2775-1.7937-1.2775 0 0zm-263.5-1c8.7221-1.6031-8.9994-2.5364 0 0zm239.48-1c14.963-3.14-9.2632-4.1738 0 0zm18.523 0c4.6586-4.95-4.292-3.6104 0 0zm-3.5576-2.322c9.5021-6.0222-.31605-5.9669-3.9424-.71858 1.4596.50346 2.8812 3.2259 3.9424.71858zm-7.2871-2.678c6.6944-1.8003 2.117-6.8188-1.32-.27972-1.0414.70686 1.1438.07722 1.32.27972zm8.1447-5c9.0513-4.592-1.323-6.1561 0 0zm-5.991-2.0318c10.852-3.4313-1.2962-6.6208-1.7827-.92561l.76775.66683zm-5.7074-2.9682c10.451-.22388 1.2959-8.0566-1.5842-1.316.51313.45635.90896 1.0515 1.5842 1.316zm13.339-3c6.5189-1.0312-1.5527-2.9066-2.7337-3.9206-9.0996 2.7364.52749 1.325 1.6953 3.9206h.90261zm-11.461-4.165c7.9084-.81501-.8065-5.9667-2.7033.13913-.4399.54409 2.32-.27658 2.7033-.13913zm11.306-1.835c6.6806-.89831.0942-6.525-2.096 0h2.096zm-5.4084-2c6.7872.09102 3.753-6.6958-1.481-2.3904-2.1181.62553-.81379 3.6515 1.481 2.3904zm-5.7927-2c10.677-2.7244-6.3638-5.3299 0 0zm12.367-3c7.6399-6.9103-7.088-3.4177 0 0zm-4.6144-2.8006c4.3429-6.4579-10.002 3.171-.54304.49003zm-7.4557-.19941c9.7535-7.3083-9.1619-5.1056 0 0zm10.963-4c8.8914-.89182-5.6826-6.8428 0 0zm-6.5361-1c11.982-2.525-2.642-7.2881-1.3089 0h.90261zm-2.8833-3.2278c4.5012-5.6773-11.139.75308-.44173.23641zm9.0005-2.7722c10.393-5.875-6.2457-6.3038-6.3875-1.5974 2.0492-.06262 4.4033.65293 6.3875 1.5974zm-1.6977-7c7.3477-2.8177-1.8198-4.9131-1.1358 0h.90261zm-5.638-1c7.9122-7.1662-6.7364-2.7213 0 0zm-181.59-20c15.967-1.7251 31.44-6.49 47.563-7.2914-1.0802-4.6918-19.192 1.0253-25.562 1.2664-3.5664 3.3025-26.148 2.1027-22.001 6.025zm162.31-.13618c4.8514-2.1098-15.294-3.5789-3.809-.58468l2.1502.35675zm-10.191-1.8638c5.2641-1.0942-8.2245-3.3888 0 0zm13.5 0c3.5478-.74993-6.096-3.3764 0 0zm-20.118-2c5.5026-1.3291-5.4254-.89185 0 0zm14.417-.07895c7.0456-.20247-6.2796-1.1476 0 0zm-20.417-.92105c5.5026-1.3291-5.4254-.89185 0 0zm16.5-.15215c2.9288-.23434-7.1794-4.2845 3-3.0778-6.134-.30631-22.071-8.9141-22.663-4.2245 2.7158.55187 13.676 1.7362 6.6933 3.8365-13.908-1.2078 10.664 3.4698 12.97 3.4659zm-21.941-.84785c1.4573-3.0752-3.9705-2.1347 0 0zm30.5 0c4.5467-3.0954-6.6458-2.8487 0 0zm-112.06-3.232c10.698-.51801-10.884-.15142 0 0zm-18.808-1.2945c15.7-1.9751 31.505-2.9203 47.308-3.5992 4.2375-3.9287-8.3518-.95447-11.449-1.8743-6.0159-1.5655-8.7853 2.6918-14.314 2-8.9544.23918-17.84 1.4493-26.737 2.4009-1.0452 3.5326 3.4582.66778 5.1924 1.0726zm54.321.19361c4.4584-.51129 12.901 1.2272 15.028-.60066-3.8186-2.5347-10.283-.32391-15.101-1.0665-4.8616.53159-11.845-1.0442-15.435.75 3.4974 1.7642 10.741.3801 15.508.91715zm2.9036-4.7461c7.0456-.20247-6.2796-1.1476 0 0z"/>
</svg>
