<?xml version="1.0" encoding="UTF-8"?>
<!-- Created with Inkscape (http://www.inkscape.org/) -->
<svg version="1.1" viewBox="0 0 545.33 780" xmlns="http://www.w3.org/2000/svg">
 <path d="m248.33 770.96-5.6667-.44978v-2.763l5.3333-1.3947v-2.1983l-2.6667-1.6481v-4.677l-8-7.6645v-3.0363l-6.6667-6.263-.005-2.1009-.005-2.1009-5.3234-8.7311v-3.4822l-13.33-13.471.88447-4.4914.88448-4.4914 4.8943-3.4845.0448-4.5155 10.627-10.474 1.3231-4.7629 1.3231-4.7629.007-2.3514.007-2.3514 2.3486-4.6305 9.6514-20.243v-3.3451l3.8129-7.0781 1.4109-4.4865 1.4109-4.4865-.72939-1.1802-.72938-1.1802h-5.3423-5.3423l-5.1247 2.7426-4.6833 7.3212-4.6833 7.3212v2.3082l-6 3.8948-7.3333 1.3754v-6.3825l1.8332-4.3875 1.8332-4.3875 8.6098-9.8061h4.8997l.82405-1.3333.82501-1.3333h10.183l3.0435-3.6672 10.718-1.7139 1.5166-3.9522h3.1397l4.7144-7.9808 5.1939-2.7797v-4.8772l-12.035-4.5961-11.127 12.432-10.065 5.135h-13.073l-9.7911 7.781-9.9089 1.5976-13.87.52899-2.1298-2.1345 8-6.6106 9.0846-7.8292h4.758l1.6481-2.6667h6.3519l.82405 1.3333.82404 1.3333 5.588-.0444 5.588-.0443 6-5.0054v-.92714-.92713l6.6667-7.9229v-3.6673l11.814-8.1281h5.5557l4.6305 2.4425 9.7364 4.2242h5.2713l8.9923-3.8074 1.6053-2.6466 1.6053-2.6466 1.6589-12.899-4.1624-9.8176-2.7019-1.6698-6.9282-15.179-6.4104-14.073-.008-2.2969-.008-2.2969-3.9836-7.6382v-2.7053l-9.3333-10.331v-2.4228-2.4228l-8.8167-10.48-7.8499-13.376-4.3181-9.2908-3.0853-7.6126-1.6046-15.352 3.008-1.8591v-5.8426-5.8426l2.6667-1.6481v-2.3627-2.3627l-6.5758-3.5192-2.0796 1.7259-2.0796 1.7259-8.5984-4.2132-2.0413-.59774-2.0413-.59775-2.2642-7.1539-2.2642-7.1539-12.722-7.1147-6.4935-6.9158 9.0666-9.3543 9.981-2.6876.68393-1.1066.68393-1.1066 16.745-3.4468 2.6983-2.067 7.9683-.86714-.63522 6 5.9686.0364 6.6667 1.6962-12.667-11.293v-1.3683-1.3683l-10.667-12.74v-1.4637-1.4637l-8.6667-3.63-15.333-17.482v-2.597l-4.208-3.4924-3.1175-6.1521-3.1175-6.1521-7.4715-3.4042-8.5855 9.6481v8.3702 8.3702l-9.3541 14.203-7.4792 4.9314-7.176.018-.80702-1.3058-.80701-1.3058 1.367-2.5542 1.367-2.5542-3.5104-2.9134-5.4763 5.9667-1.7028 9.7266-1.7028 9.7266-1.1091.68546-1.1091.68546v1.8921 1.8921l-9.007 19.392-.91364 3.3333-.91363 3.3333-2.2792 5.3333-1.2921 4.0988-1.2922 4.0988.77534 14.37 10.964 9.4326-.00022 3.3333-.00023 3.3333 1.9592 2.7209 7.5499 3.3206 17.783 2.8796 9.3333 1.3949 1.4359 1.147 1.4359 1.147 29.128 4.1173 4.7018 2.6506 15.976 1.6699 2.0127 1.4761 2.0127 1.4761-2.9628 22.667-1.8349 2.8989-1.8349 2.8989-5.5592 1.7644-13.845-3.1956-6.3708-4.0043-20.198-2.5076-1.3824-1.1099-1.3824-1.1099-12-1.9369-6.6667-3.3705-13.333-3.3892-13.333-3.1028-7.1446-3.5108-7.2151 5.6754-4.1535-.0472-4.1535-.0473-6.6667-3.811-3.4972-.0472-3.4972-.0473-11.672-5.3318-2.5882-2.0007-2.5886-2.0012h-5.3779l-9.4458-8.9225-17.333-4.5705-7.4564-6.485-.76388-6.4498-.76388-6.4498 10.317-8.5148 8 1.5452 17.333 4.1258 4.5048 2.3952 1.6006-2.5899 13.228-6.0684v-2.0745-2.0745l3.1199-3.1199-3.535-10.711-.12578-25.343-.12578-25.343-4.8889-.016 1.1655-3.3333 4.2151.7434.92231-6.3717.92231-6.372 1.9867-2.6667 3.5061-14.667 3.5084-4.2146-.86804-10.269-.86804-10.269 1.8324-5.6238 1.8324-5.6238 6.6652-5.3306 12.069-5.9193 5.0568-.0834 12.829-12h6.4476l8.3333-1.6667v-1.5456-1.5456l14.084-13.909h1.3872 1.3872l10.475-7.9258 3.5289-.0742-.45416-2.3333-.45416-2.3333-19.954.1922-45.333 3.3105-5.3333 2.3585-15.381 3.0044-21.952 8.7108-9.3333 5.6784-8 3.7174-12.049 11.694-14.617 16.948-2.3946 4.3852-5.115 4.9348-1.4773-1.4773 1.6576-6.6044 3.996-3.996v-1.1456-1.1456l7.8916-9.2326.05419-1.6667.05419-1.6667h1.2132 1.2132l11.574-12.265 14.667-11.197 21.897-9.8716h3.5101l5.2824-3.6999 11.978-3.4336 1.3333-.97893 1.3333-.97893 32-3.0663 6.6667-1.8782 10.667 1.3693-3.2764 2.1222-12.724.97559-2 .23556v2.6666h7.0667 7.0667l2.6472-2.6472 32.438-.60258-4.4946-4.9665-13.391 1.427-8 .7893-.66667-1.3333-.66666-1.3333 5.3333-.52025 15.333-1.6716v-1.3264-1.3264l-6.6667-8.7404v-12.499l-4.6667-1.5351-8.403-3.7145h-1.3019-1.3019l-1.6062-1.9354-1.6062-1.9354-13.638-6.796h-4.2764l-3.2 3.2v3.5009 3.5009l-6.1719 5.7982h-1.3483-1.3483l-5.7982-6.1719v-2.6646-2.6646l7.4792-7.1656h2.8247 2.8247l7.5379-6.1765 16.717-5.9851 17.866.82829.9669-6.582.96689-6.582-1.3408-2.1694h-4.7288-4.7288l-15.052 3.8054-9.3333.58223-11.129-.38765-12.227-9.3333h-4.4485-4.4485l-4.0979-4.6667-.80805-2.6667-.80806-2.6667 14.01-7.3333h2.2486 2.2486l.79392 16.398 13.011 3.7834 8.3226-3.3521 11.673-10.131 9.6604-2.7057 18.084-1.7166.70329-1.138.7033-1.138h22.352l1.9459-3.1485-6.4157-4.1848-8.2595-8-5.2961-8-3.1506-10.976v-4.426-4.426l-5.3834-5.7304 2.2362-10.442 7.3808.53402 3.7664 3.1258v3.3984 3.3984l-4.035 4.4586 2.7466 6.209 2.7465 6.209h2.4491l9.1115 8h2.5573 2.5573l1.2667 1.1443 1.2667 1.1443 17.029 3.4859 10.971 10.192 5.7415.0332 12.486 13.029 9.8852 1.5807 6.8957 7.3903.67681 6.4371.6768 6.4371-7.1751-6.8742h-4.6604-4.6604l-1.2667 1.0612-1.2667 1.0611-10.667 3.5498-1.6667 1.3272-1.6667 1.3272v4.4247 4.4247l-2.6667 1.6481v6.3519l1.3333.82404 1.3333.82405v4.3658 4.3658l-1.8426 1.8426-.38671 6.492-.38672 6.492 3.9494 3.2777v7.1323l10 9.6391 20.519 3.2441 4.2411-1.6274-4.3202-8.3543 2.8936-2.8936v-2.1294-2.1294l-10.663-10.412 2.5258-2.5258 6.7098 4.3964h4.8114 4.8113l-.89476-4.6461-7.7474-1.3539-.95155-2.8613 5.3982-4.8853 4.9317 4.4631 14.032.61685 1.3346-2.0533 1.3346-2.0533-7.0163-10.339-4.9218-2.8877-10.503-5.7861-1.5961-3.503-1.5961-3.503.0296-1.8745 6.8304 8.6667h6.3675 6.3675l4.2797-10 .75644-9.4359.75645-9.4359-2.9311-6.5641-2.931-6.5641-.20364-9.7005-.20364-9.7005-6.1196-8.2772-.68495-8.533-.68494-8.533-6.3679-5.9225-9.2608-12.673v-2.05-2.05l-5.2026-10.198 5.3064-5.6958h1.8392 1.8392l14.058 12h3.624 3.624l12.245-11.901v-2.7164-2.7164h1.5617 1.5617l4.8203-4.3623 25.065-2.3041 9.807 4.0976-1.6276 12.569-1.1842 5.7835-18.543 13.487-2.7841 5.2022 11.294 6.2299.87748 5.2977 3.6198 8 .38328 10.667.38327 10.667 3.0011 8 2.2493 5.3333 2.2493 5.3333 1.1361 2.0532 1.136 2.0532 1.0384 7.2801 1.0384 7.2801.30994 41.333 4.3438 9.3333 2.9302 9.0646v10.053l3.8637 7.5494 1.386 4.6667h17.26l.76065 1.2308.76065 1.2308 7.3028 1.6576 11.903 10.548h.9879.98789l.87822 4.6813.87821 4.6813-3.4646 4.1746-9.4982-1.7819-.98102-1.5443-.98102-1.5443 1.606-8.7733-4.9536-5.4737-5.0971-2.7279-16.812-2.0849-14.754-12.94-.0168-.98847-.0168-.98846-9.6863-12.69-1.647.57996-.82803 6.3767-.82803 6.3767 3.928 9.3333 2.8454 6h1.6114 1.6114l3.1289 3.7701 12.531 5.6757 9.9694 4.5542.0153 1.7712.0153 1.7712 10.814 10.707-.81422 4.1349-6.6667 4.7443-8.5124 1.7163-1.8123-9.6604 1.5425-9.505-7.6793-7.6793h-4.0239-4.0239l-.78806-1.2751-.78805-1.2751-3.6449 1.3987-1.7604-2.8485h-2.5201-2.5201l-6.8024-8.9184v-4.415h-1.3619-1.3619l-2.8964 7.3333-1.1899 2.3152-1.1899 2.3152v9.2121l-2.6667 1.6481v2.988 2.988l2.3373 2.5333 6.658 12.156 1.5612 24.772 2.4934 3.0726 4.2088 24.703 2.6854 5.0177.82808 13.806.82808 13.806.39962 8 6.6667-.70716 12-5.7549 5.3783-2.3225 22.622.78456.4296 4.4914.42961 4.4914-3.2357 7.8116 7.0431 7.3514v6.9021l-4 1.5349v2.7734l-8 11.044v1.875l22.242-.68273 17.058 3.9409 1.3495 1.0096 1.3495 1.0096 16 3.5593 7.2001 3.5546 14.133 2.9786 2.6667 2.0075 10.667 1.8666 10.667 3.5619 6.6667 3.0993 4.3333 5.7071 4.3333 5.7071v2.1242 2.1242l1.2204.75425 1.2204.75426.92107 9.8293.92108 9.8293-.8768 3.992-.87679 3.992-23.196 24.916-12.02 12.174-4.93 7.4274-4.93 7.4274-31.134 31.728-11.84 13.841-1.9474 7.2815 1.2689 8.1054 1.2689 8.1054 4.4655 6.8047 4.4655 6.8047v1.4818 1.4817l5.3377 2.8567 3.6402 8.5705 8.3128 9.3333.0426 2.5397 7.8155 8.127.86549 3.5154.86548 3.5154-6.0493 5.6358h-4.6731l-1.5866 2.5672-8.5708-4.8366-10.372-7.064h-2.5911l-6.3701-5.3333-6.3701-5.3333h-2.9632v-2.0724l-7.3333-8.3011-11.267-14.892-7.3995-1.5762-7.0781-3.8246h-3.7904l-6.2702-6.6743-.0973-6.8155-.0973-6.8155 6.1258-4.3613 12.775-9.72 9.6519-13.148 3.0958-13.131 2.3516-4.6305.001-4.3514.001-4.3514 3.8413-8.1197 3.8413-8.1197 1.9716-6.4273 9.0104-12.673v-2.6253l13.059-13.128 5.6078-3.0012v-3.8202l-48.667 1.7962-57.969.1144-1.0828 2.8216 3.0697 11.849 1.0802 1.6835 1.0802 1.6835 1.9163 18.186 1.9163 18.186 2.3572 2.9268.85846 7.3333.85845 7.3333 2.933 17.333 2.0566 2.6667 2.9978 24.814-1.8353 13.853-2.2257 4-2.2258 4-5.1607 2.6667-9.2915 7.2136-8 12.061-2.9159.0586-10.598 12.667-.86482 2.3257-.86482 2.3257-8.3864 5.1001-1.5572 3.1243-1.5573 3.1242-7.922 3.6517-14 13.591v3.0578l-4.0301 5.0713-4.0301 5.0712-1.5137 6.0312-3.7593 1.4426v3.0054l-5.6638 7.954-1.181 5.2561-1.181 5.2561 4.6924 7.1406 1.459 11.594 1.459 11.594 9.7487 8.5595v3.3641l5.3333 6.7802v12.056l-4.2052 4.2052-24.462-.60177zm5.9722-5.102-.80556-.80555-3.5 1.4006 5.1111.21053zm7.0278-36.425v-11.898l-6.6667-7.9229v-8.3674l2.0636-4.939 2.0636-4.939 5.0788-5.4061 2.0449-4.6485 2.0449-4.6485 7.9803-10.667 2.5195-5.6363 4.2443-1.6287 1.3101-3.0342 1.3101-3.0342 3.3397-5.2719 1.8833-1.5046 1.8833-1.5046-1.4832-3.8653-11.47-3.7856-7.4796-7.3116v-4.0899h2.3783l13.347 12h2.9777l5.2306 3.2666 3.2566-3.2566-5.0783-3.7133-3.3703 1.2933-7.4081-3.3297-5.9808-7.3256-1.6494-4.2983 4.1675 1.5992-.77641-4.7845-.77642-4.7845h1.5338l10.148 9.3939 6.6667 1.6309 4 3.3041 9.6307 1.7226 3.5312-4.2548-3.759-2.3232-18.736-3.1362-10.052-10.838-8.7522 9.1669-5.1353.9228-9.3936 8.2007-7.3574 9.9289 1.6427 4.2809h-2.5897l-4.6139 12.667-1.8742 4.2015-1.8742 4.2015-.005 1.7985-.005 1.7985-5.3234 8.7311v7.7782l-1.3333.82405-1.3333.82405v4.61l-7.6275 9.1365 2.5804 9.3454 10.732 12.084 3.7596 9.3333 5.6279 10.667 2.5874 3.3333h10.34zm-18.64-54.07-1.6866-2.0322h2.8358l.87887 1.422.87887 1.422-1.2204 1.2204zm1.9941-8.1875-2.2858-3.4886 3.3701 1.1234 1.9434 2.9269 1.9434 2.9269h-2.6852zm4.6458-6.5114-1.7133-2.0644 1.3333-1.3333 1.7133 2.0644 1.7133 2.0644-1.3333 1.3333zm4-6.6667-1.7133-2.0644 1.3333-1.3333 3.4267 4.1289-.66666.66667-.66667.66666zm8.5175-.64009-2.8158-1.1377-5.7016-7.2485.30934-5.6404.60976 2.3333.60977 2.3333h2.0981l9.7064 9.1543v1.5124l-2-.169zm6.8158-5.287-2.6667-1.0914-4.4011-4.9814-4.1295-10h2.1026l1.5188 3.3333 1.5188 3.3333h2.5384l.85214 6 6 2.6323v2.0343l-.66667-.169zm3.2864-8.1252-5.9531-6.719-.90629-2.281-.90628-2.281-.1874-3.9524 3.2304 4.6428 3.2304 4.6428 10.966 10.121 5.9063 2.377-9.4272.169zm-1.9531-17.281-.82405-1.3333h2.824v2.6667h-1.176zm34.558 9.8573 2.109-.80931v-2.3814h-9.1172l-8.8828-4.4512-4.9264-2.4002-.93474.93475 12.229 9.9167h7.4141zm147.61-3.2783 2.655-1.4209-9.4854-10.499v-5.3256h-5.1472l1.1014 3.6667 1.1014 3.6667 1.019 2.6667 1.019 2.6667-6.5989-6-3.8281-.0232-9.822-9.3102h-2.8447v2.1678l7.3333 6.8187 18.638 12.347h2.2038zm-137.5-8.47v-.55762l.67824-1.7757.67824-1.7757-10.023-.70022-9.3333-4.2903-7.3399-6.848 2.9486-1.8223-1.5179-2.8362-1.5179-2.8362h-3.9062v2.1333l3.311 3.311-3.4475 2.1307 2.9851 6.425 9.818 4.5331 11.656 2.5892 2.8777 2.8777h2.1333zm-45.571-8.1903 4.1719-2.0812 2.6996-3.7913 2.6996-3.7913v-4.255l-3.3333.0606-4.1844 8.4913-7.6318 4.2299-.53637 1.6091-.53638 1.6091h2.4792zm46.587-1.5016-2.3178-.60677-6.0311 1.1597 10.667.0538zm119.43-5.977 2.4625-4.6761-9.205-14.431-.99089-3.3333-.99089-3.3333-3.8006-6.0256-.29421-9.725-.29422-9.725 10.885-13.191.85648-2.3534.85649-2.3533 6.735-2.5606v-2.0802l-9.2149-2.8842-1.2433 3.2401 3.0416 3.0416-9.25-1.7589-4.6667-2.3849v-2.5062l8 1.6v-3.2497l-5.3333-1.3947v-2.6447l6 1.431 13.333 1.7148-3.9777-2.7458 3.2572-3.2572 6.3226 3.3837 6.1891-.90429.9884-3.0053-10.113-5.1341-12-3.6678-4.6667-3.9395v-2.2078l9.4144 5.2878h4.9266l9.5733 4h6.7523l-.0208-2-7.1775-3.3333h-2.2376-2.2376l-1.8299-2.2167-1.8299-2.2167-11.555-5.1228 1.1995-1.1995 13.022 4.4029 1.3333 1.8807 5.3333 2.1601 12.667.93246v-2.6204l-10-.0258-11.581-9.2063-5.0859-1.6142v-2.487h2.5093l1.6481 2.6667h4.5826l6.5934 4.6667 9.3333 3.2932 5.4667.0402 3.2-3.2v-2.1335h-14.202l-6.263-6.6667h-4.7646l-5.4372-5.8362v-2.5771l4.8766 4.4133h3.9234l2.5333 2.2509 14.667 5.6582 6.6667.75765 1.3333-2.376-4-2.1472-9.6809-1.5377-16.319-10.548v-2.9423l8.6667 5.1054 12 3.5758 2.5333 2.203h11.309l1.4607-2.3635-5.97-1.6001-7.3129-.0364-22.565-12h-4.6426l-7.4792 7.1656v4.8344h-4v2.6666l-6 5.8949-2.8468 8.7192-2.8469 8.7192 2.1625 2.4538 2.1625 2.4538-5.141 3.7592h-2.157v4.108l-2.8548 3.8614-2.8549 3.8614.80159 5.0846.80158 5.0846 8.7732 7.6901-5.3333-2.033-6-1.3013v4.2494l6.7499 4.4227-1.1852 1.1852-6.7808-4.4429-1.392.86029-1.392.86028v3.9813l8 2.7888v2.2196l-7.3333-2.2028-4.3969-1.7929-.81424 1.3175-.81424 1.3175 6.9274 5.4491-14.235-1.4432 9.3333 8.4501-5.3333-1.8784-4.6667-1.3418.008 1.8222.008 1.8222 8.5143 5.3333 6.117 3.47 10.019 12.017 11.322 12.513.012 4.1333 1.6167 1.6167 1.6167 1.6167 2.7508-.91694zm-20.113-68.673-3-2.0927v-2.0068l10.667 5.2774v1.0547l-4.6667-.1398zm-97.225 70.481 2.1884-2.4182-2.9312-2.9312 1.6624-2.6898 17.972-1.8777 6.8421-3.4793 7.1579-10.329v-5.6993l2.8485-1.7604-.97455-2.1985-.97455-2.1985-6.058-42.667-4.4344-20-2.407-2.5333v-7.3093l2.7962-1.7281-2.5208-3.0959-3.2357-12-1.0629-2.6667-1.0629-2.6667-1.6999-6.6667-1.6999-6.6667-6.1808-11.73v-7.6028h2.6667v3.4903l3.782 5.1722 1.4791-1.4791-2.7636-10.009 1.0595-3.1744 4.2619 9.3333.42392 2.5562.42391 2.5562 1.6667.55493 1.6667.55494v-10.378-10.378l3.2 3.2h2.1333v-5.176l2.6667-1.6481v5.3333l1.3428.82986 1.3428.82987 1.7634-4.8357 7.6792-11.333h2.572l-6.7001 10.614v5.3863h2.4426l8.6986-11.333 1.0961-1.2667 1.0961-1.2667v2.8165l-9.3347 12.225 3.0847 1.9064 10.935-11.748 6.6808-8.1171 3.4082-2.1064-.92069 3.7784-.92068 3.7784-7.5988 8.7594v2.5739h5.1111l1.0012 3.0037 11.57-6.337 6.3173-3.4788v-3.7506l5.8362-5.4372h1.9142l-.70825 2.7083-.70824 2.7083-14.866 13.25h-2.1344v3.9568l10-4.5629 8.7595-7.394h2.5739v-3.1234l4.4133-4.8766h3.5867v2.6667h-4l-.0332 3.3333-10.337 11.128-10.964 5.5932v2.6125h3.6735l3.3197-4h4.914l8.7595-7.5501 4.6667-1.6996v-4.0837h4v-3.8426l2.8441-1.7577.64285.64284.64285.64285-.86411 3.4429-.86411 3.4429-4.7863 1.5191-6.2819 9.1752-7.0568 1.5524-4.4502 4.9174 2.5628 1.5839 7.6109-3.9694 2.6667-.0208 10.032-10.662h3.8165l3.9068-5.5777 5.5777-3.9068v3.047l-16.018 15.771h-1.1178-1.1178l-4.8414 5.3497 1.503 1.503 10.836-5.5281 2.6855-5.0179 6.0703-1.5659 11.758-10.821 2.5452.8484-7.3344 8.7164-14.969 9.7122 2.2351.48063 2.2351.48064 15.53-10.026 6-5.2636v2.6667l-6.6667 6.263v3.5352h1.8876l9.4458-9.1534 8-1.8649-9.1511 9.645 1.7452 1.7451 9.228-7.0385h1.4276l-1.3963 3.6388-6.52 2.9707v3.0647l11.333-1.5326-3.3333 1.414v3.7778h6.1114l11.777-12h2.1114v2.403l-12.439 12.264h8.3747l8.5008-9.3417 1.2691 1.2691-7.0385 9.228v2.8446h2.7879l6.4598-6.4598 6.0648-1.9249-1.9895 2.5257-1.9896 2.5257-3.9958 3.1153 2.0144 2.0144 11.315-8.14 3.4326-6.3231-1.6869-20-3.7457-4.21v-3.1234h-1.2403-1.2403l-16.853-7.6998-6.6667-1.9599-1.3333-.96325-1.3333-.96326-13.333-3.4403-2.8863-1.7763-2.8863-1.7763-18.227-2.8003-5.3333-2.4132-25.333-7.9946-24-1.2913-16 2.7375-4.1763 3.644-3.5274 12.954-12.702 13.743h-6.4827l-15.224-3.0575-7.3664 7.0575h-.86019-.8602l-12.367 8.3464-17.131-1.3751-1.3586 2.1982 4.7005 2.6306-.88315.88315-.88316.88315-14.521-3.0146-6.155-6.5517h-6.2018v1.79l4.4133 4.8766h4.92v2.4281l13.857 6.9052-5.1902-.002-16.906-7.9979h-3.9403l.84637-2.6667.84632-2.6668h-2.6014-2.6014l-9.6436-10.674v6.4698l6.9037 8.2046h1.9207 1.9207l13.922 11.049 8 3.764 10.667 6.4765-4.0176.0438-8.6491-2.4805v5.4325l3.3333-1.107 9.3333 8.801-3.176.0206-1.6481-2.6667-5.8426-.1948-8-5.1091-4-1.8331-8.2517-6.1963h-2.6642l-11.374-13.488 1.4405-1.4405 18.849 15.229v2.0428l7.839 3.247 1.4138-.87379 1.4138-.87378v-2.6454l-9.1865-3.8384-2.1468-3.3589-8.6282-6.0514-6.5201-2.4789-5.5897-12.637-4.4811 4.4811 1.4526 1.4526 1.4526 1.4526-1.9794 3.9679-1.9795 3.9679 4.3879 4.8486-3.9786 1.5267 4.2497 8.5188 8.2804 7.5392 2.92.0782 4.7177 5.213 22.222 14.787h2.5419l13.629 6.3144-3.7936 3.1484-1.7281-2.7962h-4.8494l-3.3197 4h-10.34v-2.6667h5.2079l6.7921-3.0947v-3.2311l-10-1.7632-9.3333-5.0992-5.3333-2.5708-13.233-13.574h-2.1002v3.7102l14.957 14.957 4.3768.0848 2.5882 1.9576 2.5882 1.9576h-3.0027l-6.8403-2.6007v2.3826l1.6186 4.2181h6.224l.93712 1.5163.93711 1.5163-5.8626 4.4222 5.8687 5.2119.57901-1.6548.57901-1.6548 3.9762 3.9762h2.4762v-2.3858l9.5283 2.149 4.4717 3.8787 7.9851 1.9059 3.7365 3.119 6.9451 3.2979-11.884-1.6254-7.086-5.2389-6.304.89971 13.947 10h2.334l1.6599 2 1.6598 2h4.5935l4.4806 4.951-4.0673 3.3755v1.8424l9.4617 3.7125 2.8648 3.4519h-8.1891l-7.0148-6.5011-8.456-1.8222-10.901-6.3434h-1.7657v2.797l10 4.6025 11.109 7.159 1.7149 2.7747h6.3519l1.6481 2.6667h4.7626l5.08 5.7101-10.667-1.934-8.3148-5.1094h-4.3442l-10.792-9.7495-3.0136 3.0136 3.622 3.3568 3.622 3.3568 7.2201 1.7328 12 8.4309 7.7935 3.8587 4.8732 2.6323v2.0343h-1.5886l-7.0781-3.7674-13.333-5.8252-8.762-4.0898-.72702.72702-.72702.72701 1.4883 2.7809 1.4883 2.7809h7.2872l9.8109 6.6667h2.9161l7.892 5.8348v1.9502l-10-2.729-3.2113-2.6147-9.9401-5.0678-1.4209 1.4209 2.8281 4.5388 8.207 2.7355 5.0805 4.5978h2.7968l1.7494 2.1078 1.7494 2.1078-9.8388-1.8458v4.5464l5.3333 1.3947v2.6667l-6-1.6079-4.8054-.0364-1.4042-4.0281-1.4042-4.0282-5.0528-2.7042v6.6138l12.667 12.328-6.4412-1.8347-6.5979-7.8412-2.8442 2.8442 13.217 13.699-4-1.3499-6-1.879v1.6884l2.7318 5.1044-8.0651-1.613v4.3333h2.9217l7.7432 5.5136 5.1107-1.6221.85757 1.3876.85756 1.3876h2.096zm-25.442-107.69-4.3333-1.895v-2.659h1.4396l10.56 5.3875v1.2791l-1.6667-.10876-1.6667-.10877zm-4.3333-21.221-3.3333-1.9055-2.5408-.0472-2.5408-.0473-8.2517-6.2439-7.5302-1.8564-11.136-11.591-7.8322-8.3091h2.8089l14.357 13.262 3.0068.0714 3.4293 4.132 10.897 5.3931 12.667 6.449v2.6926l-.33333-.0473-.33334-.0472zm185.33-33.328 3.1266-3.3281.65324.65323.65323.65324-4.8414 5.3497h-2.7182zm-94.662-9.9296v-1.2577l5.536-3.8775 4.464-8.9325 4.6573-.86823-1.8102 4.8604-10.71 11.333h-2.137zm-32.667-8.0756.82404-1.3333h2.6667l-1.6481 2.6667h-2.6667zm-52 168-.82405-1.3333h-2.6667l1.6481 2.6667h2.6667zm3.5778-6.9556-1.5778-1.5778v2.7556l1.7778 1.7778 1.3778-1.3778zm15.756-13.504v-.46002l-5.3333-4.8266v5.7466h5.3333zm-12.236-51.096-.43109-2.2228-11.1-3.6986-7.0377-6.5223h-3.9564l2.7454 5.1298 15.348 7.4388.44444 1.049.44444 1.049h3.9733zm5.5689.88951v-1.3333h-2.6667v2.6667h2.6667zm177-46.998-.55472-1.6642-14.223-2.047-2.8893-2.3168-8.0766-1.7235-1.6397-2.6255-1.6397-2.6255h5.5464l3.8095-3.8095v-1.2128l-5.1085-1.3359-1.5012 1.5012-1.5012 1.5012-9.868 2.7687-.38622 2.0054-.38621 2.0054 16.316 7.243 3.5507.0752 3.5507.0753 9.3333 3.5313 6.2222.31816zm-262.4-6.0025 1.7142-3.6667 2.3555-4.6305v-6.0614l-6-3.808-4-.50849-30.667-3.3517-5.26-3.64h-7.4066v3.9072l7.8183 8.9045 1.8198 7.2505 5.622 3.9378h6.8733l2.7246 2.7246 11.809 2.3166 10.883.29218zm-17.93-4.3333-2.0685-4h2.7351v2.5628l5.8362 5.4372h-4.4344zm11.38-6.579-1.3802-2.579v-1.666l2.3448 1.4492.70278 2.6874.70278 2.6874h-.98985zm258.62 8.1878v-1.0579l-10.728-2.8635-1.6135 2.6107 3.675 2.3277 8.6667.0408zm19.053-.94213-.28052-1.3333-4.7916-.76731-5.314 4.137 10.667-.70303zm-9.7195-2v-1.3333h-4v2.6667h4zm-304.52-3.4424-.80932-2.109v-2.1376l-5.1243-1.34-.92257-6.1522-.92257-6.1522h-8.4372l-5.26-3.6326-13.059-1.9228-4.2747-2.0521-10.098-4.8653-4.222 4.222 2.0581 4.1255 2.058 4.1255h-2.4265l-3.8997-9.3333h-4.1361v4.8761l8.1956 12.373 8.4711 1.5466 5.3333-.78321 15.401 7.7865 2.9423-2.9423-5.7138-7.264 1.3707-1.3707.83733 1.1111 10.246 12.783 2.7715-2.7715-8.6634-12.291.99306-4.3876 4.069 9.3333 4.5889 3.8058 3.8926 7.5276h5.5502zm-47.92-13.447-.88889-.88888v-2.7556l1.5778 1.5778 1.5778 1.5778-1.3778 1.3778zm344.11 13.303-2.3333-.60977-4.6667 1.2195h9.3333zm-366.81-16.782.10169-7.0346 2.1404-4.1391 2.1404-4.1391 14.736-1.8411 5.3609 1.7015-.0408-6.1797-1.9592-2.9391-9.3333-4.2939-40.452.56632-6.7431 6.3349-.73944 3.4992-.73944 3.4992 2.199 8 4.4749.8622v-10.705l1.3333-.82405 1.3333-.82404 1.4202.87772 1.4202.87773-4.3474 4.8038 2.5381 1.5686.87824 4.6814.8782 4.6814h3.8792v-9.3333h2.6667l.04241 5 .0424 5 3.5764 4.713 4.2133-1.6168-3.0474-4.8797 3.475-4.1872 1.1823.73067 1.1823.73068v6.966l4.4133 4.8766h1.6726zm9.8125-2.9654v-2h-2.5093l-1.4182 2.2947 1.7053 1.7053h2.2222zm167.33-8.661.82054-1.3277-7.4837-2.9649-4.9263-2.5645-1.5626 1.5625 2.9311 2.9311 6.2245 3.4297 3.176.26147zm-220.66-5.8752v-1.8696l-8.3979-2.9275-10.935.1537 13.333 6.4179 6 .095zm216-2.1304v-1.3333h-2.824l.82405 1.3333.82404 1.3333h1.176zm27.355-1.2976-.80199-1.2976-9.8867-4.5184-4.6667-3.9662-4.8766 4.4133h-4.2993l-.94905 1.5356-.94906 1.5356 4.9171 3.5954h22.314zm-27.584-5.817 3.658-3.5046 8.5702-1.714v-3.2945l-16.667-2.6676 16.667-.37124v-3.0394l-4.6667-3.5425-12.819-.0848-11.54 2.9058-9.9986 10.239.81125 2.1141.81124 2.1141 6.476 2.4622 1.8216 2.9474 13.218-1.0596zm-210.44-.88532v-1.3333h-8v2.6667h8zm252.84-1.9934 3.8295-2.5135 20-.1598 7.2872-5.3333 2.6979-9.3333-.0218-4-.0219-4-2.6326-5.8017-2.6326-5.8017 1.604-2.5953 1.86 3.585 1.8599 3.585v3.8384l30-1.8256 2.6667-2.0097 8.187-1.7478 5.813-11.965v-6.0541l-10-9.6122-13.461-1.7718-3.7952-2.3456.95734-.95735.95735-.95734 20.295 2.5732.71744-1.8696.71745-1.8696-3.3014-2.0404-19.228-.44582-9.1926 6.6983-5.4219 2.8884-3.6208 8.18-6.2906 5.4696v2.4492l-8.2844 7.7388 2.0908 4.6644.55886 6.3333.55885 6.3333h-2.924l-.0364-6-1.6079-6h-4.0604l.80629 6.8078.80629 6.8078 3.1389 3.7821-1.3959 1.3959-4.3175-4.3175v-6.2581l-1.6114-4.1991-5.722 1.1741-14.667 1.6054-10 8.9395v1.5954h3.7954l8.1644-6.8699 4.7068.94007-10.667 7.5362 11.333-1.3526v2.4129h-2.9127l-6.7802 5.3333h-10.529l1.0943 3.3333 8.7107.85423 5.1469-4.6579 3.0926 3.0925-1.7106 1.7106-17.352 1.7959-2.0163 2.0163 3.9228 2.6384 15.008-.92994zm7.9752-15.901-.81002-3.2274 1.6163-4.2119h2.3814v10.667h-2.3776zm18.743 1.0052-.88889-.88888.0405-2.1111.0405-2.1111 2.83 4.8667-.56666.56666-.56667.56666zm35.132-22.778-.0204-3h2.6667l-.0408 2-2.585 4zm-11.77-9.75.58333-1.75 1.75-.58334 1.75-.58333-.58333 1.75-.58334 1.75-3.5 1.1667zm-9.5833-3.838v-2.588l2.6667-1.6481v6.824h-2.6667zm-246.96 48.512 2.9633-2.0756v-11.255l3.5581-5.26 3.4328-13.333 2.6077-6 2.6077-6 1.7413-3.3333 1.7413-3.3333 2.9782-14.133 4.022-7.7776-1.7561-22.846-2.2663-1.4007.12025-4.2546.12025-4.2546 1.3333 4.6667 1.3333 4.6667 1.3764 1.6667 1.3764 1.6667 5.6735-.0838 2.5905-3.5498 2.5905-3.5498.0762-9.5938.0762-9.5938-5.2512-5.8181-14.161-6.4775h-7.4472-7.4472l4.3067 6.5728-.0888 2.0938-5.3113-6.3778-.29999.52222-.29993.52222-2.9573 5.3333h-3.0663l-2.7275 4.485-2.7275 4.485 1.6297 7.4202 5.1822 4.6898v1.3591 1.3591l-3.0859-2.8991-3.0859-2.8991h-4.4948v3.4684l3.3333 7.274 6 1.5467v2.3776h-1.9108l-11.482-4.385-1.487 1.487 4.5198 6.898h4.7413l1.6814 4.3817-.65644.65644-.65645.65644-6.9653-4.5638-3.7846 1.4523-.02404 4.7504 8.6907 7.5758-5.3333-1.8784-4.6667-1.3418v9.6086l9.7428 4.0708-1.7468 1.7468-6.4828-3.4695-4.3693 1.6767 5.8518 8.2181 6.3376 2.8876v2.1203l-11.083-3.9102-1.0172 1.0172 3.1712 6.96 5.5953 1.9129 1-.26417 1-.26416v4.0938l-5.3884-2.8838-1.3058.80702-1.3058.80701v3.5174l6 4.1854-6 .1398v3.1234l4.4133 4.8766h3.5867v2.6667h-3.4667l-3.1126-3.1126-.85303 2.223-.85303 2.223 1.5349 4h5.2596l.82405 1.3333.82404 1.3333h-6.824v3.6667l8.4718 1.6944-2.5692 1.9438-2.5692 1.9437-3.3333.0848v2.6667h11.843l1.6481 2.6667h3.2493zm28.63-107.21-3-3.8038v-2.0772l8 7.6645v2.1678l-2-.1476zm-30.667-2.265-1.6667-.67252v-3.7778h2.0252l1.6654 2.6667 1.6654 2.6667-1.0113-.10526-1.0113-.10527zm4.1111-9.3392.88889-.88889 1.7778 1.7778h-3.5556zm139.84 110.89 5.4605-6h4.6379l1.5349-4h6.593l1.3148-2.1273-1.1404-1.8451-1.1404-1.8451-12.21-1.0234v3.641l3.2 3.2h-2.8735l-3.4327-4.1362-8.0218.80284-.51286 1.5639-.51286 1.5639 6.1264.87227.90682 4.757-8.8796-5.4137-5.8426-.01-1.9628 3.176 2.7606.92022 5.0448 3.8795-16-1.7441 1.9889 2.409 1.9889 2.409 10.689 4.7619 4.8225.1884zm43.717.71358v-1.2864l-5.3884-2.8838-3.0155 1.8637 4.9136 3.593h3.4903zm-73.419-5.299 1.9143-1.2113-3.4884-4.2032h-7.6735v3.8675l4.6667 2.7181 2.6667.0402zm68.056-7.4509-1.5837-1.9083-8.1291-4.0553h-.92363v4.2891l-6.6667-1.6732v5.3841h6.5093l.68666 1.111.68665 1.111 7.8016-1.145 1.1266 1.7948 1.1266 1.7948.47472-2.3974.47471-2.3974zm-60.278-.37208.52504-1.5751-7.057-2.6831h-8.0486l1.1026 3.3079 10.453 3.1426 2.5-.61718zm6.975-4.1795v-1.2546l-2.6667-1.6481-2.7102 1.675 1.5342 2.4824h3.8426zm41.333-2.7454v-2.6667h7.4667l2.8474 2.8474 26.353.21978 17.097-9.1423 10.676-12.596-.87856-.87855-.87855-.87855-5.1816 4.6893-2.4309-1.5024-5.6257 5.2411h-1.5528l-7.4365 5.498-29.973.38726-.66045 1.0686-.66045 1.0686 6.1713 2.4751-12.952.169 1.5022-3.9146-2.7182-1.68-5.1912 4.698-5.9741-2.9217-8-1.2642-10.505-2.0151 5.172 5.4915 20.727 3.315-.78676 2.4788-.78676 2.4789h4.1797zm-56 .0787v-1.2546l-2.6667-1.6481-1.3551.83749-1.3551.83748.76711 1.2412.7671 1.2412h3.8426zm46.667-.0787v-1.3333h-2.6667v2.6667h2.6667zm117.33 0v-1.3333h-2.6667v2.6667h2.6667zm-176.63-2.6667.0352-2 2.0869-3.3333h5.176v-2.6667h4.2222l-.58782-1.6667-.58786-1.6667-11.272.52726-3.8959 3.2333 1.371 3.5728h-9.2496v2.5815l7.3333 4.0319 5.3333-.61344zm19.298-6.3459v-1.0126l-5.2097-3.2535-1.6143 2.6121.82405 1.3333.82404 1.3333h5.176zm42.42-2.6541-.4425-2.3333-7.3105-.84379v3.9816l4.6667 1.2195 3.5289.30934zm23.652-1.7828.89584-1.4495 2.899 2.899h12.643l1.6481-2.6667h9.1291l12.168-11.659-1.248-13.007-1.4596-4.8557-1.4596-4.8557-2.0022-1.6617-2.0022-1.6617-5.3842 4.8726-13.899-.69167-1.9524-1.9065-1.9524-1.9065 15.905-.1874 5.3333-2.5004-12.525 1.4966-5.4754-5.4754.0848-2 4.0692-5.3333 2.6452 4.6667h2.4675l-1.654-8.2699 3.5933-2.2208 2.1273 1.3148v7.6521l4.1905 4.1905h2.2294l.5629-7.6667.56289-7.6667-6.1503-11.558-.83859-6.8875-.8386-6.8875-9.4829-19.563-6.3732-2.4231-7.8621-8.6079v-4.739h-3.3936l-4.8895-9.0792-16.384-5.9189-11.467-7.6685h-2.4392l-1.4272-2.6667-1.4272-2.6667h-4l-6.0794 3.9834-12.493 1.7124v-2.1906l5.6707-6.0362-1.4553-3.7925-7.4354-1.8662-6.683-6.683-13.388 1.6307-2.4623 2.4623 3.392 4.0871.9721 18.026-2.9962-8.6667h-1.6222-1.6222l1.2316 7.3333 3.0496 7.3333h2.1736 2.1736l10.19-9.3333h2.3274 2.3274l1.4603 2.3629-9.9696 10.663-5.8247 2.9744h-2.5219-2.5219l-5.5167-6-1.7785-10.667-3.7418-6.6667-.30502 8-1.3392-3.6667-1.3392-3.6667h-2.4444v9.3333h-2.6667v-13.333h-4v13.115l-1.6448 4.2862-3.6886-3.0612v-4.8494l2.6667-1.6481v-5.2596l-4.034-1.548-3.7716 3.1301.7318 4.5096.73181 4.5096-1.83 9.7548-.78093-.78093-.78092-.78093.2407-8.022.24071-8.022h-2.1644l-15.336 15.498-.67829 4.5845-.6783 4.5845 12.078 12.711 2.6109 5.1178 2.6109 5.1178.92509 6.9736.92508 6.9736 3.5869 1.3764 8.244-6.9369h3.4887l4.3682-6.6667h3.5789l6.7802-5.3333 8.9127.014 10 2.7771v4.1714l8.6667-1.437 5.1384 2.0073-4.4717 1.716v4.0837l7.3333.26581-6.6667 2.135-10.157.26581 1.6481-2.6667h5.3982l-.55537-1.6658-.55536-1.6667-7.1019-.1238-3.2096-3.2095h-15.467v4.0837l-1.9923.76454-1.9923.76453.7377 1.1936.73769 1.1936h5.2121l4.6305 2.4368 15.288 3.0776.7681 1.2428.76809 1.2428-1.7281 2.7962-3.1626-2.6247-13.933-1.8483v2.3577l8.6667 3.1547 17.943 6.1645.0285.97956.0285.97955-16.667-1.6358-2.5334-2.3233h-4.8v2.5093l3.3333 2.1213 11.824 4.0361.47692 1.5.47691 1.5-7.4444.0396-1.6989-1.3765-1.6989-1.3765-.82444.82445-.82445.82444 3.3732 4.0644h4.8494l1.5213 2.4615 8.6361 1.8597 7.5371 3.8527 11.13 2.2007-13.467.29217-2.9676-2.9676-3.1206 1.9286 8.8882 5.6808 20 4.6142-23.333-1.3951v4.1391h4.7043l14.591 5.3333h7.2136l.9544 1.5442.95439 1.5442-18.418-1.5623-5.3333-1.7605 7.2463 6.6983 14.087 1.6146 16 1.0363 7.8667.21853-1.4759 1.4759-1.4759 1.4759-12.915.64641-8 .52592 13.214 6.8718 22.786 1.213 3.7792 1.2119-1.3067 1.3067-1.3067 1.3067-23.713.32317-.504-1.512-.50401-1.512h-4.9537l-1.6481 2.6667h4.1574v2.6667h10.509l.82405 1.3333.82404 1.3333h9.0186zm21.337-16.18-2.0756-2.9634v-4.7792l8.6667-5.2836 1.2721.41873 1.2721.41874 2.1411 8.2628-2.6192 6.8892h-6.5815zm-39.047-28.037.5843-1.6667 7.7203.84768 2.5333 2.4856h-11.422zm-8.3621-7.6667v-1.3333h5.3333v2.6667h-5.3333zm-40.667-8-.82404-1.3333h2.824v2.6667h-1.176zm28.667 0v-1.3333h3.8426l1.6481 2.6667h-5.4907zm-6-8-2.4133-2.6667h4.2559l1.6481 2.6667h5.176v2.6667h-6.2534zm-5.236-6.0286-2.5693-1.9438 1.5129-1.5129 8.7777 2.2745.53514 1.6054.53513 1.6054-6.2222-.0848zm54.487-11.396-2.4958-2.7578 4.0007-7.1511 5.9109-.85214v5.6047l4.9965 1.9141-2.2439 6h-7.6726zm-23.764-32.529-2.1534-3.2864v-8.0938h4.9354l8.3979 2.9275v3.3294l-2.0976 4.2048-2.0977 4.2048h-4.8313zm-115.93-1.6025-.88889-.88888.13648-4.1111.13648-4.1111 2.1896 9.3153-.34237.34237-.34238.34237zm5.3333-6.6667-.88889-.88889v-10.065l2.6667-1.6481v13.491h-.88889zm98.486-3.0442-.7827-1.2664 5.2327-2.8005h4.1753v2.1333l-3.2 3.2h-4.6426zm-47.898-12.316-.50498-1.7512-2.9712-10.976v-2.0171l3.421 2.8392.3293 4.3217.3293 4.3217 2.7165 3.2732-2.815 1.7398zm5.496-7.2234-.97222-.97222.0405-2.7778.0405-2.7778 2.7743 4.7671-.91096 2.7329zm9.6944 144.81-3.3333-2.6074-4.8889-.0594.55444 1.6667.55445 1.6667 7.78 1.6845 2.6667.25621zm30.937-3.6878-1.4634-.48781-11.354-7.6253-5.0723 2.7146-2.9137-2.9137h-4.0727l7.1845 7.1845 13.483.30578 4.5812 4.5812 1.0905-3.2714zm-16.27-3.8088v-2.1633l4 3.3197v1.0068h-4zm98.428-21.851.42846-11.319-3.2828-14h-3.1093l-6.1233 6.5179.954 6.4077.95399 6.4077 2.0694 2.6667 1.8232 10.667 1.419 4.8183 4.4388-.84781zm-105.1 6.6814v-1.3333h-1.176l-1.6481 2.6667h2.824zm-12-13.333v-1.3333h-4.0837l-1.5349-4h-3.7147v2.9163l5.3333 1.3947v2.3556h4zm-68.245-4.3447.42189-3.6553h-3.8918l-1.6186 4.2181v3.9774l4.6667-.885zm6.4951-27.074.40243-19.914-7.3194-14.45-3.4042-1.1291.72405 5.7896.72404 5.7896-1.0237-2-1.0236-2-7.9238-8.6667h-4.7395v3.572l6.2966 2.8689.72687 2.7796.72687 2.7796h-2.417v-4h-3.5867l-4.9775-5.5-11.349.69791-.93227-.93226-.93226-.93227h-15.639l-.74272 1.9355-.74273 1.9355-8.8293 2.9139-4.2683 13.049v1.4989h6.6667v-7.6788l12.222-10.015 19.111 4.5146 7.1787 1.846 14.444 9.3333 5.8849 10.963-.9294 8.2148-.92941 8.2148-1.1819.73044-1.1819.73044 5.6562 7.9435 2.9066-.96887zm51.083 18.449-3.3333-.60666-4.6667-4.1702v4.2178l4.6667 1.2195 6.6667-.0538zm120.87-15.987 1.7546-5.0428-1.5231-9.3333-1.3576-4.9105-5.0763 1.3275v-10.417l3.3333.66666.84758-7.3726-3.032-14.605-10.482-13.951v-3.5956l-3.8095-3.8095h-2.8571v-5.1111l3.0491-1.0164-2.7793-5.2059-1.5936-16 3.8702 8 .1202 4.5093 2.6667 1.6481v5.176h2.6667v-12.152l-2.897-11.505.51203-3.1712.51204-3.1712 3.6306 15.333h2.3083l2.8619-7.3333-7.2722-22.549-7.7753-7.7753 1.2844-1.2844 12.183 12.535 1.6081 6.4072h3.7109v-4.9737l-5.3333-6.7802v-1.2096l6.9565 1.3298-1.5252-2.8498-1.5251-2.8498h-3.684l-.61393 1.6667-.61393 1.6667-11.762-11.333h-1.5855-1.5855l-4.2658-6.5105-4.4623-1.1802 6.9362-.30934 11.73 6.1206 12 3.7786 16.747 16.601 1.4234 4.083 1.4234 4.083h4.8228l-.9367-4.6667-.79787-4.9856-.79788-4.9856-10.914-12.695-8.1774-5.2707-11.913-1.3959-1.1021-3.3333h2.1111 2.1111v-2.5728l-5.4192-2.9003-26.581.59311v2.7531l8.1533 8.4121 1.5233 14.76-5.8677 1.8623-5.0429-4.5638-3.9543 1.5174.76861 4.7363.7686 4.7364h-7.9555l-.15252 8.9505-.15252 8.9505-3.0786 7.4323-7.0098.28257-7.3333-.48355v3.8544l12.667 3.4786 5.3333 3.1426 15.348 3.4882.7891-.78911.7891-.7891-2.3203-4.4256-2.3203-4.4256-2.2859-4.6305v-1.5269l2.5778 1.5932 6.7555 13.45v6.4476h-5.7466l4.4133 4.8766v3.2768l6.5331 11.702.71952 7.5846.71951 7.5846 8.9792 10.975 1.03 3.2598 1.03 3.2598.5871 16.505 5.7349 8.054v4.1225l4.6667 2.6331 1.2238-1.2075 1.2238-1.2075zm-11.536-34.376v-3.3333h2.6667v6.6667h-2.6667zm0-12.745v-2.7454l2.6667 1.6481v3.8426h-2.6667zm-10.415-9.2546.0824-8.6667 1.9654 12-2.1301 5.3333zm-11.442-38.109-.80932-2.109.0848-3.1152 3.9152 5.1764v2.157h-2.3814zm-13.469-7.2161-2.4207-2.6748h2.7534l1.6866 2.0322 1.6866 2.0322-1.2852 1.2852zm2.3259-9.2663-3-2.5027v-1.641l8.0872 4.182-1.5779 2.5531-.25465-.0444-.25464-.0444zm26.333.59142v-.66667h1.3333v1.3333h-1.3333zm-20.889-8.2222.88889-.88888.88889.88888.88889.88889h-3.5556zm-90.512 113.86-.65094-1.6963-13.281-4.717v-2.557h3.8426l.82405 1.3333.82404 1.3333h5.176l-.0656-2-9.3773-4.6667h-2.5571v4h-2.6893l3.0852 4.9401 8.2708 4.2408 5.3333 1.1764 1.9163.30934zm96.735-45.68v-.70949l-1.7935-4.2905-1.7935-4.2905-2.2065-1.8299-2.2065-1.8299v-5.9268l-5.234-4.7367-4.2683 1.6379.82987 1.3428.82986 1.3428h-2.9571l-22.685-11.773.40921 2.1118.40922 2.1118 8 4.8428 6.6667 2.777 8.9404 4.596 13.726 15.163 3.3333.1706zm-22.968-27.529-.5238-1.5714-1.9206-.88802-1.9206-.88803-5.9638-3.0811h-3.0294l3.3197 4h4.6803l3.3197 4h2.5624zm-31.416-14.762-.3838-3.6667h4.1009v-2.2161l-6.64-3.5536-5.5979-11.564h-.87735l-4.0511-1.5545-5.3055 10.4-4.1949 3.4815v5.0905l4.6667 1.7035 7.6989 6.3483 10.968-.80213zm-13.616-10.333v-4.1574l2.6667 1.6481v5.0186l-2.6667 1.6481zm-38.152-.33333-1.0301-4.3333.22711-7.3333.2271-7.3333-5.2132 6.6667-.0296 7.5689-.0297 7.5689 4.6667 1.2195 2.2119.30934zm-8.1021-7.8731.79978-9.5397 2.7872-2.7872v-2.1333h-4.8961l-4.4372 15.96v8.0403h4.9466zm37.159 1.005 2.3396-2.7986.0444-1.6667.0444-1.6667h-2.5342l-1.0662 1.7471-1.0663 1.7471-6.3307 4.3218-5.0026-3.1242v-2.0252h5.3333v-2.5342l-4.5978-2.5731-4.7355 2.5344v6.4216l5.9374 4.1587 9.2947-1.7437zm-45.572-4.8831v-5.0914l2.6667-1.6481v-3.8426h-5.5726l-5.0054 6-.0444 3.0825-.0444 3.0825 2.3333 3.1207 2.3333 3.1207 3.3333-2.733zm6.6667-18.794v-2.2369l1.5674-4.0845-9.4587-3.9521-15.442 1.0647 5.3333-1.505 2.4342-2.3087-7.7676-2.9813-8.352 1.3302-2.7256-2.7256-10.922 1.8453v4.7042l18.667 8.604v2.2636l20.076 3.2387.69031 1.1169.6903 1.1169 5.2097-3.2535zm11.333 2.8784.82405-1.3333h-5.4907v2.6667h3.8426zm-74.444-3.5556-.88889-.88888v3.5556l1.7778-1.7778zm83.561-2.9836 2.2968-5.2058 16.996-14.922h2.4004l9.1898-9.567 10-5.1538v-2.2689l13.052-1.7314 3.5281-4.2511-6.2507-5.0615-6.3295-1.2995-6.761-1.4078-2.2663-5.9255-5.5985-5.043-13.083 1.5495.1879-4.1384.18789-4.1385-9.3333-2.3232-5.3333-2.3455-10.667-2.7051-5.8732-1.8004 3.1246 8.2779h3.4814l1.2673 3.3333 1.2673 3.3333h4.066v4h2.0756 2.0756l-4.1336 5.9016-12.62 4.9573-.47648-1.4294-.47647-1.4294-20.444.0652-12 2.6951-8.04 3.7341-6.1606 6.5576 2.5584 1.5812 15.642-2.9177 15.29 1.361 9.7435-7.7432h1.0175l-1.6732 6.6667h5.6224v2.8975l-16.325 17 1.6803 4.3789 3.5527-1.3633 3.6973 2.285 4.7276-4.2784v-3.1734l5.3333-4.8266v3.8057l-7.5828 9.2742-1.8316 8 2.081-2.9739 5.8217-1.8159 5.5001-11.362 5.4487-5.8485h3.0859l-8.5231 8.7936v3.9207l-6.6667 9.8109v2.8081h4.92l4.0551-4.6667 1.8944-7.9392 10.268-9.7679 8.1956-4.0885v2.0996l-10.667 7.392v3.5758l-6.6667 4.3682v3.0661l-5.4092 10.092 1.5666 2.5348h1.9961zm143.28-26.017-.62478-20.556-11.389-23.096-.68611-5.1153-.6861-5.1153-5.6794-1.5241-4.8154-.036412 7.482 6.7145-8-1.7489-1.5656-1.2289-1.5656-1.2289-9.5355 1.7889v2.3699h5.1429l4.1905 4.1905v5.0401l-11.333 3.4163 14.174.83186-1.0141 3.188-16.493 3.9934v2.0066h6.5093l.62965-1.0188.62966-1.0188 12.898 1.1512-10.51 3.0832-1.0455 3.1366h7.7778l1.7363 1.7363-4.6252 3.5637 6.6667 5.3074-6 .0592v2.7327l7.3333 3.1668-10.667.94541-2.5333 2.4885h-5.976l-.82404-1.3332-.82405-1.3333h-2.5093v5.1407l14.404-1.4867 10.262 2.1584-9.1214 1.5209-1.1009 3.3333h4.5316l13.584 10 8.1065 3.0152 3.6903.31816zm-169.07 14.556 1.6598-2h-2.7751l-4.2181 1.6186v2.3814h3.6735zm-1.9068-12 2.5132-4.6667h2.0602v-5.5289l-4.5729.88066-6.0938 9.0426v4.939h3.5801zm156.24-63.005.50171-1.5051-7.5034-3.8411-11.652-1.9368.58317 1.7495.58316 1.7495 9.0007 2.3323 5.4349 3.8068 2.5497-.84989zm-2.5815-10.662-.44201-2.3333-8.6448-.83562v2.3208l7.3333 2.8978 2.1955.28368zm-22.865-9.2222-.88889-.88889-1.7778 1.7778h3.5556zm5.4167-1.25-.80556-.80556-3.5 1.4006 5.1111.21053zm13.694-.44909v-1.2546l-2.3928-1.4788-8.2739 1.6548v2.3333h10.667zm-27.297-4.5782 2.63-1.8329 11.386-1.9109 3.6387-3.6387 10.435-5.439 3.3738-9.3301-1.4609-2.3638-6.3454-1.213-4.8703 3.5613h-2.4118-2.4118v-4h-2.3814l-1.5349 4-4.7504.0848-4.1677 3.2485-4.9333 8.4285-9.5657-1.4417-6.8126-6.3202h-3.5208l1.6983 8.4917 3.9683 4.385v2.8123l6 2.0511 6.6667 1.9444 2.74.31551zm-105.1 714.17-27.729-.38914.80721-1.3061.80721-1.3061h43.47l12.372 1.6958v2.3042l-2-.60952zm83.818-4.1897-.73894-1.1956 11.316-4.6136 16.637-.65154 3.7824-3.1392 12.913-2.1409 13.064-7.0707h4.4028l2.8478-2.8478 17.019-1.3632 53.145.1918 4.1887-3.6325 8-1.8488 14.667-3.1661 3.7153-2.3935 52.285.55589 15.367.50424.69543 2.1932.69543 2.1932 16.012-.1508 3.0533 3.0533-1.7464 1.7464-51.409-2.6319-41.963.43046-6.2087 5.8328h-17.318l-5.1764 3.9152-14 .0848v-2.6667h-18.133l-3.1072 3.1072-25.743-.41131-7.6963 6.476-12.654 1.8312-2.6667 1.9392-20 3.0622-19.061 1.0896-5.4434 2.9132zm-149.76-2.4286-4.3333-.55194v-1.9948l106.67-.68266v2.8464l-54 .0696-44 .8653zm-26.333-8.4049-2.6667-.98389 12.699-1.9685 1.4579-2.359-32.824-.47542-4.6667.0204v-2.2116h7.8426l1.6481-2.6667 29.843-.33926 29.333-1.873-13.467-.45437-1.4675-1.4675-1.4675-1.4675-9.5965 3.4702-3.2017-3.2017h-9.976l-.82404 1.3333-.82405 1.3333-51.176-.0408-1.9679-1.2444-1.9679-1.2444 6.6025-2.6346-2.6667-.4224-13.333-1.0004-10-.74621v-2l-6-.01-8.0914-4.9343-12.916-1.9369-3.6591-1.4041v-4.5147l-1.5815-1.5815-1.5815-1.5815 8.1015-10.01 11.715-1.9998 4.3992 1.3963 68.948-2.759 26.006-3.1919 1.5345 1.5345 1.5345 1.5345 4.2581-2.2076 26.667 2.2029 28.264.1294 20.322 1.7178-.68668 1.1111-.68668 1.1111-66.756-.0812-76.457 1.7636-2.5333 2.3777h-8.8362l-5.2971-3.3081-5.2972 3.3081h-7.8181l-4.3383 1.6648 5.4193 3.7958 8.7009-1.415 34.69-1.2156 1.9885-.63899 1.9885-.63898 28-1.5504 88 .0376 9.3333 2.2534-4 1.4871-38.667 1.6347-106.67 1.3751-29.333 2.5346-4.6667.01v3.0674l51-.95827 51-.95738 1.2667-1.243 1.2667-1.243h43.022l1.8029 1.8029 17.465.35477 1.2615-2.0412 4.1071 1.576 16.243.30751.56004 1.6667.56005 1.6667-75.556.20825-50.667 1.016-35.462 1.7226 1.0361 3.0532 27.759-.61712 122.67-1.1596 21.333 2.0409-.66667.24446-.66666.24445-112 1.2564-32.929 1.2149-3.0711 2.4886-5.3333 1.4974 98.667-1.602 12-.1866 42 .57826v2.6666h-65.333v4l15.333.4079 18.667.48882 36.667.43661v4l-67.333.26399-22.667.53222-9.3333.62194 4.5854 3.4831 42.512-.59797 1.5934-.98481 1.5934-.9848 10.607 3.5007 5.1085-3.1903v2.3051l36.581.4323.97523.97594.97523.97595-117.87.29527zm-62.333-25.645-.55556-1.6667h-12.889l-1.1111 3.3333h15.111zm220.33-24.869 3.3333-.97311 22.276-.68243-1.7662 2.8579-27.176-.22921zm-238.67-5.5336 6-1.3348 10.667-.71326.82612-2.451-10.159-2.8986 6.6667-2.3042 10.667-1.5622-.39588-2.3512-.39588-2.3512 3.4584-1.1044 26.667-1.6211 49.333-1.3025 2.8519-1.4476 2.8519-1.4475 12.963 1.7385 21.333 1.2601 49.333 2.2156-96 .77279-31.363 1.6384-.31829 1.1359-.31829 1.1359 109.07.93257 2.7957 2.7957-34.533.29356-40.31-.53881-5.6233 3.5118-1.6333-1.6333-1.6333-1.6333h-41.911l-.89934 2.698-25.323 1.0262-.99319.27579 2.8354 3.4165 23.491-1.9636 33.333-1.6345 13.326 2.6273 3.3056-2.7434 6.5589 1.6462 43.476.012 21.934 1.6684-1.2875 2.0832-101.98-.0958-74.667 1.5834zm28.889-11.486-.88889-.88888-1.7778 1.7778h3.5556zm237.11 11.299-8-1.1991-16.667-1.4381v-2.4414l43.333 1.4382 10.667 2.1548-4 1.5243-17.333 1.1605zm.15725-11.719 2.8239-1.1407 13.019-1.8859 1.548-1.2299 1.548-1.2299.77362 1.2517.77361 1.2517-9.0462 4.2927-14.264-.169zm39.176.0858v-1.4427h7.4667l2.9949-2.9949 27.538-1.6718 28 2.314 13.333-3.3055 5.8494-5.3319 19.484 2.3053 26.667-.44068 34.772-.8746 7.4776 4.8916 25.254 2.3892 2.6266 1.6233-1.5613 1.8813-1.5613 1.8813h-31.229l-2-2-.88889-.11515-.88889-.11516-4-1.4553-11.073-3.322-8.9271 1.8212-19.383 1.4803-26.648-3.2643-1.4604-2.3629h-5.3143l-11.195 5.79-2.4696 1.2014-2.4696 1.2014-23.639 1.0294-1.2933-2.0926-26.129.70261-19.333 1.7199zm-253.36-15.41 1.7141-2.0653 3.7391 3.1032 15.24-3.3032 6.2158-1.2053-.91368 4.7716-27.71.76446zm34.36.11151-2.3333-1.7713v-3.8394l-1.6555-1.6555-1.6555-1.6555 3.9777-2.5148 23.867-.0408-2.7826 2.7826-16.499 1.8841.37408 1.3333.37409 1.3333 37.333.5101 38.667 1.8087 5.26 3.6812-82.593-.0848zm42.333-9.051-10.667-1.0257-4.0003-1.2729 24.596.69026 1.8488 1.8488-.55556.39266-.55555.39265zm-121.86-312.27-2.8092-2.9902v-5.6041l10.304-8.161 17.669-1.3572 4.6933-2.414 12.667-6.0444v-.64339-.64339l-4.6667-3.5425-5.6735-.0848-3.3197-4h-2.5182l-9.822-9.3838-6.4855-1.6938-8.1812 9.4987-5.3333-2.1063-5.1034-5.674 1.7429-3.2566 1.7429-3.2566 8.0156-2.7943h4.2687 4.2687l9.0646 2.9132 13.241 6.5905 22.008 1.5532-1.613 2.6099-27.493-1.2227 2.6448 4.9419 13.71 6.6142h7.3435l.74377 1.2034.74377 1.2035-7.9968 2.7877v1.2993 1.2993l-10 3.1294-7.3333 3.0617v1.7214l11.92 3.5196-2.6489 1.6371-7.8522-1.1525-1.5395-1.855-1.5395-1.855h-8.6954l-7.6448 15.092-5.715 2.05zm41.857-10.152-.82405-1.3333h2.824v2.6667h-1.176zm191.33-185.33-2-1.2989-10.157-.0408 1.4567-2.357 12.034-5.6566v-2.6022l-6.6667-1.6732-6.4189 1.611-4.9144 1.844 1.8299-2.2496 1.8299-2.2496h4.8494l.82405-1.3334.82404-1.3333h4.7663l8.1291 4.0553 1.553 1.8713 1.553 1.8713-.89443 4.7677-.89444 4.7677h-2.1518l-3.5514 1.3053z"/>
</svg>
