<?xml version="1.0" encoding="UTF-8"?>
<!-- Created with Inkscape (http://www.inkscape.org/) -->
<svg version="1.1" viewBox="0 0 220 260" xmlns="http://www.w3.org/2000/svg">
 <path d="m102.54 258.24c-10.988-.0879-21.976-.17583-32.964-.26374-2.6974-3.814-8.0556-1.2401-12.02-2.0121-10.852.33385-21.615-.44508-32.358-1.9691-7.9617-.44487-15.871-.88507-23.334-3.9824-.98044-5.6749 3.9626-4.6526 8.0073-4.6461 8.6157.12186 17.399-.89396 25.908-.0477 4.4144 2.2466 8.4583 2.2794 12.224-1.4185 6.4936-4.1047 14.024-7.0162 21.536-8.3843 8.0369-.39606 15.747-2.4923 23.465-4.5504-1.3609-4.6451 3.1782-6.0008 2-10.544-3.6659-3.2272-10.437-3.53-13.162-8.444-2.471-2.6788-7.1258 2.2108-9.9829-1.3963-2.8208-3.0769-8.1833.47369-9.4419-4.1457-1.9755-3.5597-7.6845.63303-10.191-2.9886-2.6656-2.222-2.9185-5.0752-5.2225-6.997-1.1665-3.7634-9.7542-1.1676-12.073-5.0042-.58178-3.6223-3.991-8.1835.99874-9.9555 3.898-6.2424-7.8664-16.067-7.8579-24.341-4.2084-6.4419-1.9088-14.323-2.5458-21.57-1.394-4.4416 3.2701-6.7103 2.6517-11.07-.16093-8.9513 6.9186-15.785 7.7479-24.628 2.5929-8.619.91651-19.591 8.2045-26.074 4.4819 1.3704 3.6405 7.6916 4.3309 9.1506 5.5762-4.6767 5.4356-12.763 7.7437-19.182 1.5424-4.7762 1.8961-9.6035.24492-14.411-.57046-4.5422-2.9547-11.506-8.7757-8.6645-5.6904-.18351-12.13 6.0062-16.6.64041-4.938-4.2966-12.338-8.8406-11.144-16.433.39971-4.7169.025842-9.702 3.7049-13.282 2.0166-4.9047 7.7836-5.5336 11.869-8.0796 6.1822.35325 13.039-2.5123 18.485 1.3531 4.1383 1.3191 16.853 11.349 12.156 13.104-4.1174-1.8748-6.1301-7.7176-11.141-8.6357-4.9208-2.3859-10.852-2.1777-16.111-2.2708-3.642 2.2821-9.4168 2.4034-10.536 7.2416-2.5647 4.5777-5.365 8.9477-4.3535 14.39 4.0072 8.3612 11.785 10.27 18.31 2.1609 3.3604-4.3687-3.8748-6.5077-4.3622-1.2495-.92791 5.2368-7.7061 1.1865-8.1087-2.2525 1.5314-5.3153-.39139-11.612 4.0645-15.635 4.8334.04275 3.0054 6.7753 7.9329 6.5669 5.3728-.07277 3.4887 5.4283 4.0699 9.0359 2.2802 4.1174-4.293 6.9339-2.0381 10.244 1.863-1.4568 6.9131-4.9544 6.1315-8.7214-1.9843-5.1263 4.1093-8.5877 5.935-2.564 3.7508 4.3247 7.3317 8.1482 8.0583 13.278 4.2034 1.3585 2.1934 6.4695 3.6765 8.411 6.4826-1.7229-.96025-15.405-.77036-20.806-2.4013-2.4326.40691-10.677 1.473-4.7743-.13827 6.3446 7.9207 5.4327 12.492 5.5807 3.3097-3.8052.73856-8.9741.85719-13.5-5.8324-2.1504 5.0771-6.3177 3.7782-1.4924v14.492c3.3498-.79393 10.496 2.3434 9.1173-3.3472.15522-4.4278.31044-8.8557.46566-13.283 5.5435-.58304 2.6057 5.5295 3.0613 8.9631.35817 3.5022-2.4908 10.339 3.5 7.9842 5.9579 1.3352 3.368-5.33 3.9926-8.9864-.95974-3.0915.90838-10.82 3.1588-6.628.90287 4.7826-4.9078 15.989.9777 15.658 5.725 1.2027 3.4463-5.3018 4.2266-8.8607.93962-3.0741-1.6079-9.8466 3.5-8.5-.4313 5.881-.0325 11.928-1.6792 17.64 3.9968-.16289 8.463.11094 6.789-5.3277-1.2308-3.7071.66456-16.919 3.5313-9.8087-.38752 5.0416-.77505 10.083-1.1626 15.125 5.1831.49584 7.8823-1.219 6.3996-6.6557.73348-3.1405-1.8926-9.5734 1.1279-10.473 5.0392-.84256 1.357 6.6427 2.1673 9.8383-.38953 4.1363-1.4058 8.8711 4.3266 7.1617.25819-5.6515-.76164-11.594 1.214-17 5.5258-1.5698 2.4246 5.0627 2.9063 8.2887-.28383 3.516-1.4834 8.9933 3.7194 8.6841 2.5674.61962 11.234-1.2778 9.4499 1.1376-3.5703 2.5663-9.1459.14773-13.461.86842-23.944-.05261-47.885.89894-71.828 1.1455-1.314 5.1538 5.7357 1.9946 8.7078 2.8882 26.696.16251 53.393.32503 80.089.48754.31619-5.6196 1.7171-10.896 4.8496-15.624 4.458-8.0205 12.527-13.706 21.545-15.607 5.0214-2.4172 10.706-.51562 15.884.23953 3.5038 1.8683 7.6812 3.0109 9.0207 7.2107 3.3797 4.8778 7.7446 9.8881 5.5035 16.138.39707 4.6686-4.527 6.8256-6.9923 10.143-6.6098-1.3286 5.2647-7.4793 3.3923-12.036.0284-4.0944.91921-8.5521-3.3548-10.834-2.8694-3.7509-6.9608-5.0944-11.15-6.1384-2.8252-.27045-15.731-1.2169-11.156 2.0084 3.7192.71115 8.828-1.5368 11.529 1.342.0429 5.5026-10.997-2.5604-14.644 2.094-4.1584 1.9865-7.7366 4.5853-9.7146 8.8732-5.0531 5.4089-4.2454 13.112-5.8346 19.877 1.3038 7.9931 1.0257 16.432 3.3626 24.134 2.7039 6.9702 6.6791 8.5567 4.4854.38746-.75942-3.4942.45447-7.7808-2.5062-10.391.0519-6.1476-.80802-12.504-.20899-18.526 3.3451-5.1896 5.6372-12.511 11.314-14.696 3.5115-2.0957 7.4666-1.7192 11.377-1.5944 1.6238 4.7991-4.6219 2.0341-5.6613 5.8042-2.3038 3.1195-.61536 7.0793 3.2375 7.8069 3.3137-.11495 12.237-3.6292 7.7238 2.6889-2.4429 1.9282-7.7909 1.8167-10.353.23263-2.5059-2.6502-6.1575-4.9441-4.0611-9.0258 2.8667-4.9433-7.1529-1.3175-5.3863 1.8938-6.3454 2.4647-4.2744 11.495-5.3068 16.939.30706 9.9734 3.8209 19.739 7.5288 28.926 3.5807 6.7939 1.0544-4.8169 1.4615-7.2881-1.3979-6.2763 3.4226-4.1497 5.7733-.63927 2.5224 8.2088 4.734 17 7.0983 25.529 1.6925 7.7578 7.6869 13.688 8.2524 21.47-.16008 5.211 4.7305 8.9499 3.6504 14.309.27397 7.618.54789 15.236.82181 22.854-5.4375-.72293-1.1748-11.472-2.829-16.009.65698-7.2733-3.0439-13.771-4.3838-20.754-4.1517-11.161-10.561-21.489-11.738-33.585.69808-4.1341-4.3685-12.032-3.0034-3.9014-.50043 4.8992 4.8684 14.51.97953 16.991-1.2326-3.2284-6.6853-11.022-5.8488-3.9384 3.8119 13.264 15.814 22.455 18.678 36.197-5.1665-2.0016-5.7539-10.962-10.227-14-2.2494.37988-3.7683-6.9518-2.6053-.0688 3.1294 4.8261 6.5826 9.4081 7.1859 15.285 2.9215 3.8114 2.9718 8.2964 2.9922 12.907.005 4.0771 1.3668 8.4612-1.5507 11.877-5.1975 1.0767-6.1254-7.8502-11.653-6-3.3135-.70417-8.0746.43381-7.2766 4.7 1.629 6.8471.89294-3.6913 4.8397-1.7 4.0052 2.345 5.161 6.5141 4.3101 11.029.29629 5.7499-3.7776 10.788-8.6786 13.364-3.3871 2.975-7.7234-1.1529-9.5166 4.7333-3.2545 5.3379-10.229 6.0415-15.3 9.1156-7.0915 1.0302-14.176 2.9821-21.289.99271-3.9726-.68306-8.6298-.12405-10.614-4.4146-4.472-3.4211-4.5883-13.786-11.832-9.9572-7.4371.57556-6.0886 12.829-13.732 13.102-8.6645 2.4202-18.275.60843-26.637-2.1058-5.1815-.5898-10.412-5.1457-14.55-6.5289-1.4582-4.5551-5.5958 2.2046-1.0348 3.7618 4.9365 2.7526 8.5551 7.5903 14.518 7.8386 19.275 5.8678 39.671 4.0543 59.582 4.7133 8.7.24428 17.479-.83765 26.043-1.9493 6.872-4.294 15.494-2.2987 22.592-6.1994 4.6496-.83636 9.0301-2.0619 11.694-6.283 1.166-2.529 8.9114-8.1894 6.7204-3.2122-8.527 6.5626.70578 4.5006 4.885.75511 1.8492-6.4793-7.4358-3.9654.5-10.484 3.43-2.5559 4.0332-6.1565 3.5-10.177.64509-4.3981 4.8527-6.7714 3.9952-.62686.72315 4.0104-.96228 7.4285-2.9949 10.761.66879 8.0399-3.391 17.259-11.858 18.988-5.5829.85151-3.7578 5.5291.53011 6.7989-2.8787 3.3028-.72979 12.033-7.1173 9.975-5.2159.4011-10.262-.1979-15.026-2.4466-2.9451-1.7891-9.4862 1.1967-4.5445 3.1106 1.6824 5.134 5.4292 10.024-2.486 8.3458-3.8494-1.9384-6.6447-6.9883-11.499-5.9666-6.4222-1.21-9.819 3.1907-13.745 3.9666-2.4473 4.409-7.4347 8.2476-6.2546 13.826-.99833 4.2054 3.5012 6.3125 5.5503 9.3548 5.7361.57691 11.872.1042 17.365 1.3188 6.2421 3.9758 16.909 2.4806 21.029 8.8968 2.4003 3.0272.71766 8.2382-3.0478 9.1946-5.7744 1.2226-11.965 1.0202-17.897 1.7045-.31695 3.5677-7.124.82296-10.044 1.8591-15.137.30342-30.281.16171-45.42.0821zm65.914-7.306c2.7808-2.0185 10.332.79411 7.018-5.0924-6.5957-3.1806-13.805-6.5861-21.35-5.8378-1.5097-3.3811-7.1825-2.2193-10.002-1.0928-3.4847 1.6817-7.0841-3.4384-10.616-4.5427-3.303-4.0009-1.8691-9.1855-4.1348-13.551 3.8199-4.3058-1.2651-4.1576-5.6382-3.8138-3.042.72461-3.7535 5.7609-8.4668 6.1419.0971 3.9042-1.882 4.3712-2.2602 7.958-1.8342 3.521-5.3893 5.8962-8.5294 6.994-1.8473 4.6151-7.5487 2.9165-11.471 4.1332-.62116-4.2689 6.7785-2.7928 5.7781-8.0945 4.9882 1.1978 1.9545-4.4334 2.0511-7.4425 3.9495-3.4645-.33414-5.7138-2.7251-1.9085-2.2936 4.8843-5.0284 10.749-10.975 11.499-4.4131 1.5038-13.878-.2853-14.805 4.1648 2.758 4.7657-5.1926 1.6952-7.7724 2.5548-3.0062 1.8964 14.163 2.6303 18.204 3.3396 5.6892-.93087 9.9765 3.1739 2.1076 2.6604-6.626-.53526-13.832 1.6007-19.735-2.2629-8.2232 2.4323 4.7486 3.5694 8.2713 3.2444 2.9201 2.0202 6.5872 2.4146 10.492 2.2075 27.865.69952 55.741-.0865 83.609-.32838l.47859-.46866zm-72.7-1.5969c-5.7856.83997-5.916-3.5466-.06109-2.2494 24.91-.0344 49.82-.0688 74.73-.10313-2.8926 4.1986-8.6557 1.5446-12.973 2.3415-20.564.10056-41.137.54954-61.696.0111zm-18.75-6.3334c1.708-2.318 7.704-.34806 11.078-1 6.7714.007-1.6124 3.3627-4.6371 2-1.6355-.57893-6.594 1.2142-6.441-1zm72.5 0c.1946-3.8884 9.1228 2.1782 0 0zm-93.25 4.3377c-10.967.0942 2.9435 1.3468 0 0zm3.4792-3.9419c-6.5579-.73191-.96312 1.903 0 0zm76.026-30.154c-1.2649-2.9198-10.674.3641-14.631-.52695-7.4398-1.7721-8.8282 3.3142-1.2764 2.2217 5.1634-.1454 10.327-.29081 15.49-.43621l.21085-.63579zm31.245-4.619c-5.2483-9.7667-4.8585 4.3796 0 .0379zm-28.25-2.242c2.9764.70941 11.361-1.8988 4.5719-2.2063-11.598.63635-23.412-.0223-34.822 2.0405 6.2078 3.1636 13.413.302 20.045.80521 3.4032-.18862 6.8063-.38657 10.205-.63942zm-34.25-.38046c-2.8765-2.2641-8.0658-.3798-11.859-1-4.5162 3.3784 4.8491 1.5609 7.3683 2 .98665-.46449 6.5677 1.0474 4.4905-1zm-19-1c-4.3339-3.6365-6.4736 2.8351.06855 1 1.2498.37623-.01422-.64911-.06855-1zm23.5-3.393c-3.9061-4.022-6.0422 2.7098 0 0zm19.5-.60699c-2.718-2.2436-7.7052-.41736-11.349-1-5.9162-1.0546-5.9074 3.5357.09 2 3.5085-.3757 9.7239.75778 11.525-.56981zm52.5-1c-2.9341-4.0383-3.9313 3.6431 0 .33016zm-40-1.5c-1.2775-1.7937-1.2775 1.7937 0 0zm-70-1c-1.2775-1.7937-1.2775 1.7937 0 0zm117-1.5c-2.6925-4.03-2.3567 3.8934 0 0zm-90.385-11.695c7.9026-6.2214-.6191-5.5236-5.3651-5.5156-3.2324-.91054-10.439 2.0409-8.7642-3.6381-.16756-39.441-.33512-78.882-.50269-118.32 4.8169.77075 1.5969 7.338 2.5513 10.894.10436 33.489.25009 66.977.46561 100.47 8.5626 1.1552-3.7364 3.5935 1.8942 5.958 11.369-.47061 22.737-.94123 34.106-1.4119-.96966 5.1561 2.1764 4.8846 2.6698 1.2667h25.33c-3.0956-5.6385-12.917-2.5182-19.066-3.6269-3.5849.76772-9.4561-1.1476-6.1843-5.5208 2.4407-3.8591-1.917-7.3706-.53433-11.711-.2138-38.05-.2083-76.107-1.2153-114.14-5.1853-1.0525-7.5918.61856-6.1846 6.0274.47848 36.368 2.0482 72.716 2.4332 109.08-.0911 5.2114-.20158 10.422-.30066 15.634-4.0377-.28975-17.731 2.7678-14.078-1.2074 2.7575-2.4067.38208-7.8136 1.155-11.38-.1387-39.386-.004-78.783-1.3054-118.15-3.5516-.66071-8.4408.22971-7.7892 4.8424-.47528 6.0443 1.6386 12.567-1.1542 18.183 3.6106 3.6147 1.2021 9.2712 1.9361 13.862.16125 30.958.32251 61.916.48376 92.874-3.2008 2.8357-7.0268-.066-3.1961-2.8306v-127.04c-2.917 1.2117-9.6507-1.5906-9.7295 2.606-.60028 7.4668-2.1026-.97249-3.608-1.5239-3.3309 1.0009-10.797-1.7534-9.0333 3.8742.44678 6.1791-.4543 12.637 2.6595 18.265-4.8926 4.9635-1.7735 13.959-5.7637 20.038.36627 2.8158 2.4521 6.5679 1.475 10.935.95551 5.8225-4.8687 9.4402-7.4046 14.127-1.2877 2.6517-5.3299 6.5346-7.9164 3.8012 5.201-6.2146 10.512-13.038 12.538-21.012-4.9741-1.414-2.9841 9.1634-8.2168 6.6492.32693-6.4667 7.1063-10.715 7-16.931-.56355-4.7449 4.1359-8.1447 3.5062-13.054 1.1267-4.2757.35454-8.5004-.60728-12.72-3.7895 1.7572-1.0819 7.1474-1.9227 10.553-1.4592 6.3414-3.1314 12.592-7.1238 17.868-5.1611 6.0119-6.1824 17.407-13.541 20.634-6.1842-2.0313-5.6194 4.3309-6.8887 8.5606-2.1844 8.8773-6.3544 17.283-6.14 26.6-1.1834 6.604.65971 13.263 2.48 19.548 3.7723 6.8683 7.1619 15.351 13.996 19.292.34121-4.7594 1.0328-10.869-2.0163-15.377-3.1989-5.8558-.87736-12.859-1.408-19.27.75007-4.3098-1.728-9.9878 2.6655-12.753-1.2643-5.5578 3.5862-9.2152 6.0961-13.6 10.853-.92565-8.2493 10.317-1.0294 14.51-2.9665 7.5707-3.7696 15.716-3.0667 23.786 2.5438-3.2137 3.935-8.6834 9.2076-7.1918 5.2533-1.1284 7.3329 4.9918 4.0715 8.3584-1.6483 3.2474-4.4644 6.5189-1.1094 9.6633-.68245 4.3474-3.6582 8.9302-.35922 12.88 2.298 3.6436 7.6487 4.276 11.199 6.6838 5.6545 3.9328 12.837 1.8963 19.22 3.311 1.1283-1.2318 2.2566-2.4636 3.3849-3.6954zm-55.124-27.318c1.7183-2.6188-4.8145-5.1027-1.1721-7.5838 5.1958-3.3565 5.755 7.7392 2.3868 8.5288-.78692.73899-.78934-.68639-1.2147-.94501zm-3.2023-14.203c-1.336-2.1584-1.5481-9.628 2.2226-8.7833 1.8187 3.5095 4.7249 8.5769-1.2116 10.067-.33698-.42777-.67396-.85554-1.0109-1.2833zm2.4163-14.211c-1.1107-2.3941-.2282-10.294 2.91-6.2669.49197 2.9696 3.3517 9.0009-.89242 9.6944-2.5151.85848-1.3553-2.108-2.0176-3.4274zm3.4825-11.643c-4.1025-4.3216 5.6767-11.321 3.6612-2.9393-.3215 2.4731-.91684 7.9615-3.6612 2.9393zm37.812-67.429c.26522-7.7105 5.6743 6.4958 0 1.8302v-1.8302zm67.764 136.55c4.97-2.2855 10.184-4.0904 13.393-8.7918 4.9565-3.2138 7.8993-12.427 14.178-11.752 8.2337 2.5055 2.5085-3.7303-1.9231-4.4978-3.49-2.5105-2.6746-7.0851-3.635-10.808 3.1345-2.8721 5.6535-7.1487 9.1485-9.1982 7.7869 1.869 2.1401-7.4158 1.162-11.512-1.3316-6.1143-.65403-12.822-2.1757-18.786-4.5824-5.214-7.9811-11.702-6.9108-18.765 6.471-1.0733-2.9172-6.8279-3.327-10.148-5.1847-8.8172-8.8171-18.854-10.164-28.966-.21354-4.8134-.42707-9.6268-.6406-14.44-3.08 1.1376-9.7607-.8473-8.0253 4.4661-.15473 30.086.7529 60.146 1.2066 90.219.0104 14.453.3192 28.92-.16598 43.364-4.8595 1.1212-10.505-.0766-14.561 2.7357-3.3878.45454-8.7689-3.2956-10.426.80905 2.8626 2.5939 4.2469 8.2584 8.953 7.0231 4.5297-.51116 9.8135 1.106 13.914-.95151zm-1.093-18.298c2.0481-3.6363.17866-8.5054.66092-12.635-1.1803-37.168-.68389-74.381-2.0594-111.53 1.4397-4.8109-4.2269-6.1382-6.826-3.4978-2.198.54816-5.8967-2.2853-6.3319 1.9129-2.0604 2.0004-.16063 7.9022-.71524 11.386.80451 38.034.53258 76.11 2.101 114.11 5.7051 2.6015 4.578-2.6682 4.5-6.7292v-41.371c-4.4958-2.254 2.757-5.0223-.56981-8.6341-3.0518-2.4205-.60225-7.8942-1.3638-11.586.31446-18.373-.5173-36.958 1.0543-55.161.95333 1.9122 3.8058 6.7045 1.0398 9.4977 1.548 2.7264 1.9822 6.6647 1.6643 10.351.5461 34.771.52556 69.561 1.7864 104.31 1.2916.94136 4.4012 1.619 5.0594-.42994zm-90.878-.943c2.941-3.0354-7.6544-9.365-4.793-1.4975.79701 1.5179 3.2795 3.9934 4.793 1.4975zm73.227-.33085c2.663-3.4924.43707-8.6847.9977-12.908-1.049-38.18-1.0246-76.377-1.0175-114.57-5.1854-1.0539-7.5838.62227-6.1756 6.0273.92904 40.987 1.5407 81.981 2.1756 122.97 1.4888.17039 3.0718-.25467 4.0198-1.5238zm-16.797-1.8609c1.5805-13.45-.1735-27.284.16257-40.88-.34521-28.226-1.3243-56.444-1.3855-84.674-6.947-1.1228-8.1448 1.633-6.3068 8.6269.9805 39.528.71843 79.085 2.0062 118.6.75517 1.9229 4.6864-1.0385 5.5236-1.6755zm-54.723-11.615c.91748-3.5493-6.0014 1.9648 0 0zm132.59-22.306c-3.6464-2.0138 2.2331 8.7931.62013.62013l-.47365-.47365zm-3.1519-7.0678c-6.8845-8.3313-.88967 1.8297 1.7821 3.9833-.22364-1.4711-1.1057-2.7021-1.7821-3.9833zm-139.38-30.53c-3.2001-4.685-3.615 8.7513-.47445 2.2478.94274-.84259 1.5555-1.1476.47445-2.2478zm14.107-32.763c-4.6016-1.3966.91364 3.0068 0 0zm-.66667-5.8333c-1.2775-1.7937-1.2775 1.7937 0 0zm119-44c-1.2775-1.7937-1.2775 1.7937 0 0zm-5 173.06c.0514-5.2172 9.0122-1.0858 5.3302 1.441-1.5121-.58001-6.21 1.388-5.3302-1.441zm8.3095-4.1949c-2.7175-5.1531 8.6254-7.3938 5.0342-1.2963-1.2336 1.4103-3.9385 4.7535-5.0342 1.2963zm6.8216-8.7061c-3.2218-5.1936 13.16-2.2771 2.2913 1.342l-1.1588-.39421zm3.8325-6.9418c-4.8525-2.8872 2.8348-7.3894 3.5364-2.8765.28672 2.7407.0824 5.4468-3.5364 2.8765zm-48.399-143.89c-1.5648-2.6618-.28074-11.631 2.402-7.49.20483 3.3023-1.0943 17.5-1.9328 11.5-.15641-1.3365-.31282-2.673-.46923-4.0095z"/>
</svg>
