<?xml version="1.0" encoding="UTF-8"?>
<!-- Created with Inkscape (http://www.inkscape.org/) -->
<svg version="1.1" viewBox="0 0 294 405" xmlns="http://www.w3.org/2000/svg">
 <path d="m136.5 403.14c-7.6728.55064-2.3602-9.7802-3.7531-14.492-.14309-10.01 1.0082-20.333.0548-30.147-1.0428-7.9328-10.562 1.1609-12.92-4.498-7.4873.96373-11.66-8.4861-18.184-9.979-10.778 2.6234-23.854 9.4827-33.315-.47438-8.133-3.3741 1.1703-16.21-9.5867-14.547-5.6089 1.3723-9.8098-4.484-11.415-9.1236.033789-6.6629-6.4565-4.5057-10.442-6.8764-6.7115-6.1639-8.642-15.672-16.457-20.754-6.3406-3.5112-7.4511-11.365-4.833-17.634.020445-6.5716-12.131-7.33-13.464-13.408-.064372-10.337 11.889-15.613 16.112-24.204 20.384-24.178 41.427-48.219 65.085-69.188 9.4943-4.4648 18.768-10.21 27.887-14.813 6.6774-.99829 19.422-3.4866 11.397-12.361-3.7226-7.2023-4.544-31.342-14.597-16.574-5.9974 3.0816-12.301 8.2182-19.284 4.3837-6.8265-.14345-15.29-7.4236-20.287.1609-4.7673 3.4854-13.279 1.2605-14.967-4.9664-4.2836-11.535-8.5611-23.749-11.526-35.845 1.4862-9.2462 3.848-18.241 2.8212-27.713 5.2816-8.5114 6.4963-19.843 15.661-25.654 7.1829-5.9582 13.327-14.982 22.997-16.426 8.6437-1.9027 18.045 8.0853 6.2848 8.9944 6.5442 3.8225.43772 23.319-6.0149 14-5.1888-.33025-8.2955 1.9714-13.005 3.392-5.6754 4.3889 2.0798 8.0998 6.1831 9.6145 6.2845 4.9206-7.2055 13.477 1.5795 16.133 7.1914 2.4408 7.226 16.173 16.341 13.592 8.3369-3.804 16.35-8.6262 25.847-7.8146 8.2041-3.8688-9.8369-5.2724-10.525-9.2428.3258-5.6059 8.682-8.1793 9.8475-14.24 5.7889-8.8268-3.12-19.067 1.3245-28.346.63094-6.2148 2.6034-11.733 7.6884-15.636 4.1184-3.8619 11.214-1.3474 16.573-2.5519 7.1115-.27937 14.327-.10321 20.635-3.8995 12.433-1.7502 19.831 11.705 29.943 17.178 6.272.691 11.232 16.089 1.9019 12.439-11.769-5.0074-2.404 13.24-9.2931 16.383-4.5904-.006217-8.5699 6.2408-7.7962 10.858-2.2603 5.7033-10.082 5.8674-11 9.539.48924 4.9268 7.053 8.2558 11.103 10.712 13.846 1.8908 20.438 14.759 28.011 23.952 3.2627 5.238 11.036 8.2547 16.141 13.678 5.2961 4.9199 8.8119 12.664 9.5944 19.734-1.1623 6.6414 1.0784 14.638-5.1565 19.159-5.4664 6.5205-17.16 10.498-25.483 15.27-6.6316-.13219-16.144 2.578-4.9634 7.6274 11.777 12.469 21.558 26.779 30.783 41.143 8.2647 12.6 15.654 26.076 21.712 39.675 7.1867 8.3186 13.768 17.338 21.258 25.524 2.3926 8.8071-6.541 15.833-14.755 16.127-3.667 5.0791-2.965 16.439-12.106 15.011-8.8873-1.8472-14.542 4.1178-20.138 9.6694 3.4459 2.0873.73094 10.009 4.2592 13.158 4.1789 4.8224 11.632 7.7451 11.722 14.94 8.3576.61308 8.1476 11.989 13.085 17.079 4.381 9.6044-9.1433 3.8556-14.481 3.9489-4.7395-2.5558-8.053-6.101-7.6795-11.787-8.8949-5.9963-15.525-19.652-20.895-28.014-5.4209.73758-11.895-.93295-15.21 4.6189-6.668 5.4592-11.103 13.85-19.689 16.549-7.4874-4.604-14.968-13.697-24.435-10.609-9.6134 2.4475-9.3626 15.79.62298 15.877 2.3624 8.6097-5.0421 16.869-6.5105 25.34-10.3 17.641 20.698.21753 29.119 3.9005 20.775-1.8893 41.504-3.9332 62.385-4.6813 5.1257-4.1534 12.895-1.5459 19.143-2.827 9.8385-.51807 19.677-1.0361 29.516-1.5542 3.4545 4.8546-4.634 9.6573-9.4004 8.2995-23.025.52604-46.059.97575-69.052 2.3517-6.415 4.5952-15.738 1.8563-23.203 3.8356-7.3188-.76585-12.902 3.1566-19.804 2.967-7.7301-.76784-14.552 1.6447-21.62 4.2457-2.4906.63583-4.8972.34477-7.3731-.18159zm10.245-73.648c5.8093-3.0372 14.176-7.2562 19.754-1.9416 10.443 11.633 17.358-5.4143 27.149-8.283 5.8342-3.7021 14.218 1.0075 19.397-4.2647 8.8512-5.1577 16.798-9.0901 9.5297-19.241.0774-8.4337-2.7104-11.438-6.7222-.72458-2.1445 6.563-9.7772 2.0496-12.96 5.9656-6.4946.0315-13.341-1.2776-18.052 4.2656-6.139 6.6683-12.519 9.7071-21.618 6.8842-10.401-.86383-22.731-5.3911-31.378 2.9013-7.2283 9.2024-17.877-5.6618-23.728-.30117-4.9532 1.2991 1.3213-16.806.38358-22.469-1.3809-6.6792-6.1102 9.9578-7.7527 12.728.49321 6.4298-1.3178 14.1.58516 19.771 6.0964 5.3782 2.4105-6.5509 5.367-6.7794 2.8833 2.6417-.97692 11.564 7.05 11.922 8.9064 2.0496 18.715 4.5285 27.646 2.2032 1.7832-.87851 3.5664-1.757 5.3496-2.6355zm-50.177-3.742c1.7603-9.6817 3.12-24.491-10.757-15.278-4.2687-8.6533-12.885-9.1146-12.466 1.7134-1.6335 5.4754 5.5357 9.968 9.0228 12.817 2.424 3.5412 8.605 1.3864 14.201.74767zm-25.266-18.998c8.6484-10.925-2.8915-13.434-11.461-13.575-4.9948-.77484-7.2511 8.2377-3.6748 11.202 2.9008 1.9263 14.339 9.8732 15.136 2.3724zm67.197-3.1808c4.7857-3.129 11.542-5.8638 15.882-.56924 7.209 1.0576 13.886 2.5041 21.046-.1613 4.1537-4.534 11.234-9.7983 18.607-10.155 5.329-2.7194 11.76.23933 15.768-5.8916 4.0597-5.3695 12.631-9.3929 8.463-17.504-2.628-10.554-8.062-31.238-12.629-34.158 3.6608 13.344 10.794 25.679 11.237 39.87-5.9316-4.6283-9.3821 3.9949-14.183 7.0523-6.1741 2.175-14.123-.57821-19.912 4.6436-7.7242 3.9054-14.399 9.5953-23.428 6.5196-8.5874-1.5736-17.434-1.1667-24.852 4.1394-7.4815.29821-14.963.59643-22.444.89464-3.475 4.787 3.8322 10.339 8.2313 9.7781 6.4765-.37909 12.754-.42738 18.213-4.4584zm-39.956-5.5858c5.7115-3.2641-10.744-10.447-16.435-10.34-5.924 2.0997 4.7155 7.8621 6.6699 10.962 2.8615 1.0189 6.8234.11941 9.7655-.62253zm146.17-2.242c6.1019-3.1785-3.3745-19.674-7.485-21.353-8.3844 2.4646-10.154 6.8785-7.9786 14.834 1.3549 7.78 6.7718 12.203 13.909 7.4362l.85245-.50296zm-192.71-2.8736c5.9191-7.5037-7.4537-12.232-10-19.045-3.2359-6.0267-8.2651-10.306-15.153-10.941-8.2036 8.5108 11.491 15.092 13.13 23.769 2.4178 3.5936 10.356 18.496 12.023 6.2168zm201-2.2454c5.8057-6.0766 4.8037-15.909-2.7757-20.839-3.7486-5.4326-11.576 1.2765-7.3601 6.3484 2.5484 3.5821 6.9144 19.2 10.136 14.491zm-176.54-6.3724c.12832-4.1669-11.424-14.703-14.349-7.02-3.3336 7.0857 12.24 11.154 14.349 7.02zm32.664-1.6745c5.5649-2.7433 11.255-5.4254 17.235-5.5755 5.6153.11 9.7345 3.9117 16.037 2.4605 5.4715-1.0066 10.289-3.7274 16.728-2.4605 8.3439 1.603 6.7385-11.477 7.8385-17.601-.98081-13.36-1.9022-27.133-4.7052-40.162-6.8358-17.518-12.691-35.387-18.447-53.325-8.0599 8.4669 5.599 22.212 4.3364 32.757 4.918 22.09 8.5458 44.582 6.8533 67.331-9.5864.33754-19.511-.65218-28.896.47327-9.2096 5.4838-25.929 5.8981-9.3531.23077 7.3946-6.717 18.977-.60066 25.334-3.6501 4.5624-.80354 13.293 2.6603 10.915-5.0437 1.7076-6.2286-13.358-.25864-1.2734-7.1927 3.801-6.0514-.98348-6.0768-4.6959-3.8147-7.5137-1.1943-13.85 2.0185-20.934 3.8184-4.6294.33956-10.077-5.8297-14.597-1.8212-4.7551 3.8274-10.096-2.6236-14.276-5.174-4.9046-3.0929-11.635-1.7785-14.909-7.7993-3.4957-5.9392-10.077-6.8361-11.231 1.0205 3.8299 5.9451 11.822 11.651 18.785 15.025 6.1107-.86914 9.0833 6.0381 14.906 4.9277h21.625c-5.7862 4.8947-15.24 1.9187-22.251 5.2181-5.9621-2.8269-9.2327-5.8405-15.87-6.9131-7.7602-1.3596-10.077-11.721-18.142-13.077-8.8144 2.1435 6.6623 14.013 8.5139 18.598 6.119 6.1968 15.8 4.5346 22.229 9.8294 10.34.4757.69827 8.222-2.7344 1.7626-6.3265-4.5724-15.833-4.4465-22.124-8.7745-2.8836-7.3336-13.043-11.208-12.022-19.575 2.7839-6.1791 8.2035-13.206 10-17.909 8.9328-13.72 17.84-28.387 27.911-41.582.009 7.4627-9.9638 15.924-13.781 23.781.52059 4.5056 11.311 12.668 18.305 10.921 6.619-1.5217 12.049.75441 17.054 4.3325 7.7772-.84985 16.192.64314 23.211-2.6128 5.6313-1.5859.86633-13.06-.39746-17.859-2.6584-11.664-3.9275-23.78-9.1613-34.38-3.9799-2.5156-11.403 1.6318-16.038-1.9354-3.4113 5.3537-12.563 9.2812-3.8924 1.0622 7.7435-11.605-14.265 3.3331-16.63 7.9882-16.267 18.913-29.776 40.293-41.663 62.229-4.2678 6.4556-4.7485 15.409 1.7996 20.63 7.1629 11.774 18.859 16.055 30.622 20.187 6.418 3.2641 10.8 9.7348 17.785 3.6541zm-3.9366-101.64c7.6167-8.4016-1.0696 5.7688 0 0zm-45.382 92.407c4.5642-5.1923 2.5907-8.0013-2.9619-12.507-4.4536-6.1625-14.234-17.011-22.001-9.6885 3.0779 8.0297 15.82 10.375 16.535 19.677 2.0689 2.267 7.4983 8.9874 8.4282 2.518zm169.27-4.9815c6.6653-1.2571 20.132-17.16 8.7112-16.218-5.3359 4.482-9.0681 11.899-16.79 12.014-1.6637 8.1838 2.3205 7.7549 8.0787 4.2038zm-204-15.215c4.4273-5.0099-5.3594-12.907-5.9059-4.6809-1.768 5.2071 3.5575 14.434 5.9059 4.6809zm169.29.35253c-6.5541-5.6148-14.541.4308-1.143 1.3979 1.8608.17162 2.052.42942 1.143-1.3979zm27.26-6.75c-3.5272-11.448-12.937-29.229-19.264-35.332 6.045 13.097 13.614 25.371 19.416 38.582zm-87.121-.23681c8.2647-1.2425 18.647-3.3329 17.784-13.013-5.6022-1.379-11.162 3.6323-14.392.5-6.8963-2.1276-10.068 3.6754-16.283 3-3.6286-5.934-9.7812-5.5113-15.936-5.0821-9.0496 2.5324-14.023-5.21-20.28-10.334-3.6705-6.1859-8.4816 1.7369-7.3934 6.2018 4.9907 2.1607 6.2812 8.7405 12.19 10.764 8.512.57701 14.177 10.057 23.145 7.6363 7.6484-1.3221 13.314 4.2345 21.166.32659zm59.088-2.3614c-3.764-2.6441-12.161-4.7526-15.617-2.2958 3.6838-.83856 22.325 10.859 15.617 2.2958zm-2.6234-6.6054c-6.2945-4.0484-15.125-2.3975-2.356.77779.89492-.15626 6.5007 2.2926 2.356-.77779zm32.036-2.642c-6.4569-12.856-13.58-25.443-22-37.181 1.2984 8.5581 8.1443 14.908 12.312 23.354 3.807 2.0966 5.8253 16.695 9.6882 13.828zm-188.33-2.571c-2.471-1.1375 1.2804 4.4642 0 0zm8.3333.40332c4.5366-7.2096 13.679-25.496 3.0269-9.1126-.6346 2.0107-7.4426 14.17-3.0269 9.1126zm104.25-2.4618c10.181-4.31-1.8244-9.5186-8.218-5.1573-6.6469-2.627-13.07 4.1302-19.244.30684-6.4166-6.9939-18.089.57215-24.288-6.7983-7.6118-12.266-16.944-.26824-5.5673 4.1207 5.7937 7.3326 13.941 6.3549 22.091 5.8244 5.5116 1.1628 10.146 6.069 16.398 3.9472 6.2285-.80763 13.12.75507 18.828-2.2436zm82.102-.0101c-6.0396-11.882-11.765-25.162-22.521-33.45 7.1022 8.8369 13.005 20.113 18.634 30.935.50529 2.2818 5.7672 9.655 3.8871 2.5147zm-25.25-1.977c-3.7215-5.9712 2.4506 10.378 0 0zm-166.1-1.0731c1.0095-2.6247 15.221-20.249 6.2911-12.226-2.972 1.7281-14.356 23.723-6.2911 12.226zm164.2-5.4146c-3.5383-2.0511.54597 7.3107.50013.50013zm-149.2-7.3c-1.2775-1.7937-1.2775 1.7937 0 0zm2.6361-5.1972c-2.7143-2.9481-3.6975 10.509 0 0zm-4.2424.11367c1.4398-5.465-5.8793 5.9146 0 0zm151.57-.16644c-3.8833-11.142-4.2645 1.8809 0 0zm-140.97-6.56c-1.1574-3.0892-8.0754 11.21 0 0zm111-1.6079c-4.573-7.0534-3.6374-15.073-9.8491-20.18-2.9224-3.0344-4.6225-15.091-8.8448-10.258 3.463 9.3736 14.17 19.983 16.732 31.355.6609.0721 1.9514.0998 1.9619-.91784zm5.1833-5.2988c-.52436-8.9319-22.481-26.429-8.8941-13.019 1.0685 1.849 9.9774 18.923 8.8941 13.019zm14.85-10.42c1.3083-1.3438-15.249-1.934-11.211.3592 2.4701 2.3701 8.5484.95936 11.211-.3592zm-2.2188-4.113c-3.6704-4.314-14.399-1.6807-2.2478 1.1381 1.9077.77243 3.226 1.3088 2.2478-1.1381zm-12.815-4.1826c-3.3021-6.1723-17.634-8.6467-6.0211.41078 1.0552.45823 6.2758 1.406 6.0211-.41078zm9.5-1.0674c-.67703-2.8241-10.445 2.6894-.61803 1l.52034-.84196zm-6.1843-3.2019c12.802-5.0616 28.703-2.3731 39.129-13.199 8.7815-2.741 11.212-9.3607 12.592-17.638.013-8.7328-2.6739-17.836-10.13-23.063-3.348-3.4532-9.5959-11.314-13.899-5.684-2.6968 5.245-14.655 9.0966-13.669 8.2266-.0594 5.1308-9.6209 5.211-10.339-.77873-3.2544-11.534 16.879 7.3757 3.8812-5.3655.84961-2.9561 1.2624-8.6121 5.8967-6.8464-1.7316-7.6644 9.855 2.5969 2.69 1.8996-5.2192-1.3232 6.4109 7.4448 3.3101 2.6928 3.14-5.5889 9.9969-8.7206 1.2892-17.06-3.6514-6.4232-11.26-9.2777-15.299-1.4772-4.8229 4.0792-9.2089 8.4588-10.783 14.773 4.6422 4.4915.0393 14.513 8.0141 16.739.25482 5.5738.51512 11.141-2.9462 15.473-2.5982 8.4006 8.5515 8.8718 14.415 9.4504 8.4391 2.2689 15.467-6.8544 13.295-14.749-5.5867-10.764 2.9448-13.673 3.4599-2.7127.71655 7.7009-1.0012 15.131-8.5141 19.321-4.7377 3.5898-11.674.82733-17.353 1.6998-6.4032-9.9137-22.121 9.6408-13.65 15.233 2.4993 1.7831 5.2523 6.394 8.6088 3.0655zm-49.766-6.6897c6.0671-2.7759 14.149-.4811 19.87-5.1745 5.3672-3.4405 7.0887-14.781 13.195-5.0938 4.6604 6.2166 8.5736-2.6734 11.781-5.7962 1.6876-4.8555 3.4132-9.3415 5.0055-14.46 4.4302-7.0833-7.1475-9.9859-7.4011-3.0006-7.7889 2.145-9.0164 11.814-16 15.595-.35365 7.4506-13.457 4.7326-16.583 9.2537-7.273 5.3814-11.911 5.0152-14.42-.92956-.94312 4.6597-7.0854 7.7221-.99687 9.4981-.70868 2.4314 4.9273.37133 5.55.10835zm4.45-15.24c-7.4747-6.7348-3.7085 11.236 0 0zm-1.1278-5.2539c6.7171-5.4716-13.383 2.4352 0 0zm3.1278-6.5442c-2.5626-4.5455-13.376 4.7851-1.2307 1.9302 1.818.67988 1.0916-.95104 1.2307-1.9302zm.0839-3.518c2.2094.2101-3.2227-4.8357-5.2001-5.5519 2.4392-4.686 10.8 5.9684 8.1392-5.7307-1.2291-5.1115 4.3626-16.214-4.523-14.769 5.1153-3.5166 1.8918-7.4456-5.2268-6.1412-6.8936 5.5903-3.7513 14.85-4.2732 22.641 7.1048-2.4881 7.8637.3759 2.0849 1.9741.94174 8.6223 2.0121 9.2843 8.999 7.5778zm-2.5465-14.802c4.6259-10.418 5.6461 6.7296-.48893 2.2822.16298-.76073.32595-1.5215.48893-2.2822zm-5.9357-7.2506c-5.6234-2.6378 6.3777-7.7887 5.3984-2.4994-6.7665-2.1103 2.5388 8.2202-5.3984 2.4994zm-61.602 11.656c-.63819-3.0975-9.5239-11.974-3.316-11.569 4.7322 4.9112 9.4345 9.8747 16.624 10.48 5.8752-2.5686 9.1804 3.5969 14.692 2.934-3.0336-6.565-6.0314-11.036-.41105-6.2556 3.1517-4.2155-5.8404-10.935.41105-11.744.5981 5.173 4.504 10.575 9.0546 14.4 8.8016-5.108 4.231-15.559 4.7336-23.888-1.9198-7.7149 5.6992-12.535 9.2251-18.681-3.2126-3.9546-10.394.78497-14.403 2.471-8.7283 2.0102-14.512 4.5779-13.077 14.175.24278 2.894-2.8673-16.49-11.086-13.46-6.5865 2.6109-8.5562 10.973-9.451 17.201-1.6128 3.1285-6.7253 13.551-6.9964 4.8736 2.2152-4.7458 6.3113-8.9163 6.1528-14.719-5.4-6.8104-3.6019 9.9913-10.033 11.422-2.7733-4.7057 10.321-14.58-.11938-20.521-2.7181-3.9971-2.59-11.417-9.9285-9.2729-6.3363 5.289-4.8791 15.644-3.0715 23.001 2.0762 4.7678 4.777 9.3618 5.9403 13.539 1.7771 5.4441.27425 12.488 6.0467 16.012 1.2108 2.2125 9.8912 2.6268 9.0131-.39703zm14.789-5.6897c-7.4952-6.2328-4.2902-17.321-5.1768-25.924 3.0742-8.3147 2.403 11.803 4.0646 14.885-1.2487 3.284 9.6794 16.537 1.1122 11.039zm6.6567-3.5524c-.61742-7.2952 4.4637.80221 0 0zm13.725-1.0102c-1.091-7.9612 9.0386 7.5541.26127.41836zm-13.671-10.903c6.5224-2.9085-2.8965 4.5088 0 0zm7.5 18.5c-1.2775-1.7937-1.2775 1.7937 0 0zm47.727-22.5c3.7-3.2138 8.1643 6.2329 13.212.15246 7.4348-.43212 14.918-1.3287 20.296-7.1808 14.347-11.244-1.9817-5.1027-8.7353-.11836-6.8918 1.2396-12.865 4.3925-20.103 3.4515-5.1687 1.71-10.051-6.7353-14.421-2.3449-3.9907 5.9941 5.7731 10.191 9.7513 6.04zm-12.074-7.5372c-.15762-4.2585-8.1796-8.3377-11.119-10.114-3.4973 4.2491 4.4202 10.354 6.4458 11.651 1.6708-.40574 4.6868 1.2362 4.6731-1.5372zm32.584-1.4835c4.9985-2.701 14.258-3.5015 15.764-8.4377-3.5538-6.2186-16.567-5.4586-14-14.459-1.6793-4.2732-10.349-3.2562-11.761-9.6785 1.8477-3.0088 7.8742 6.9982 13.649 4.8394 6.3558.54454 9.725-4.5393 11.112-10.006 1.6961-7.5647-9.0322-2.7696-13.544-4.159-4.7692-2.0795-11.344-4.4173-16.68-3.1936-2.5252 6.077-1.5018 13.895-2.7169 20.615-5.3234 6.5399-13.257 8.3536-21.059 10.437-.99569 5.9591 6.4078 8.8182 10.22 12.116 9.3688 3.1306 19.487 7.1499 29.016 1.9264zm-1.5235-35.6c-3.6857-4.3317 12.88-2.5005 8.7996.18502-2.7713-.32455-6.5528 1.4475-8.7996-.18502zm-10.518-4.8794c.26828-9.9269.49486 10.506 0 0zm-77.649 34.09c2.3909-2.4054-12.324-3.6032-11.279-12.09-10.426-2.7387-.089902 10.62 1.6735 13.5 3.1669-.48512 7.1806 1.24 9.606-1.4102zm6.4322-4.8398c-2.1012-4.1348-7.3253-9.842-11.191-11.518-9.6198 3.1672 2.4149 16.138 9.9517 12.71 1.3328.32819 1.4621.05216 1.2397-1.1921zm57.593-11.255c6.1596-3.257 6.9005-10.803 5.6955-16.995-4.832.1049-13.453-.95034-12.579-7.3084-1.1372-5.633 3.5203-10.216.43328-15.285 2.1252-6.8618-1.0868-8.4657-7.1794-4.8455-5.3506 4.6766-1.9327 12.557-2.9411 18.82 6.5283 5.1452-3.6792 12.491-6.1436 17.599-9.5037 8.4328 8.9929 12.341 15.52 11.465 3.1998.92343 4.9048-1.7887 7.1948-3.4509zm-71.978-2.0987c9.009-2.8572 6.9794-12.35-2.0726-5.4315-3.9121 1.4929-8.8737 3.879-13.255-.20118-9.6087-2.3406 1.7216 11.326 7.8619 7.1459 2.7209.46535 5.0652-.27864 7.4654-1.5132zm110.87-27.382c6.7267-1.5903 3.8232-10.817-2.919-8.0145-10.125-.78164-6.2019 12.019 2.919 8.0145zm-4.1998-3.705c9.1904-6.114-4.8612 8.414 0 0zm-9.5764 1.5162c7.1349-6.8781-7.5709-10.079-11.644-4.7516-1.1151 4.8693 8.7568 10.157 11.644 4.7516zm-6.0189-1.4924c-1.2632-7.3861 10.574 3.1049 0 0zm41.142-8.0833c-4.8325-10.776-17.495-14.338-26.291-21.438-6.4572-2.5634-12.829 3.391-19.745 2.2192-7.5196 1.072-15.769.53391-22.833 2.61-5.3836 2.1536-7.4544 13.515-.38891 6.3381 4.6508-3.5101 12.056-2.0187 17.222-1.3089 4.4172 4.6658 8.9419 9.0673 15.872 7.5538 10.282 1.1361 21.529-1.7428 30.806 3.9118-.80681-.41566 7.1032 2.3443 5.359.11352zm76.52 349.82c-6.4421.99923-16.879-3.289-2.8287-3.295 11.497-1.1641-2.5265-1.8617-4.4928-2.5899 2.4358-5.5347 16.282-4.5553 20.983-3.4397-8.2122 2.0109-9.9527 8.3815-.73999 5.0362 6.1282 9.0558-9.4129 3.2061-12.921 4.2883zm-5.2931-12.622c-6.4477-1.492 19.562-9.3462 15.964-.5868-5.9047-1.1296-10.915 2.5885-15.964.5868zm-1.8398-6.5591c2.846-2.2824 11.431-4.5766 14.741-1.3574.53642 1.5947-15.622 4.3569-14.741 1.3574zm-1.9458-5.0273c-4.9472-5.7786 18.717-3.4192 9.7705.13355-3.0233-1.0444-7.6642 2.7477-9.7705-.13355zm-3.25-7.8664c1.6565-3.2169 14.681.41379 4.9127 1-1.2349-.54511-5.4027 1.1621-4.9127-1z"/>
</svg>
