<?xml version="1.0" encoding="UTF-8"?>
<!-- Created with Inkscape (http://www.inkscape.org/) -->
<svg version="1.1" viewBox="0 0 468 314.67" xmlns="http://www.w3.org/2000/svg">
 <path d="m424.45 313.25c-7.6287.0666-15.257.1331-22.886.19965-3.0519-3.2518-9.2238-3.4729-15.348-4.6248-14.109-.97605-26.408-9.4129-40.168-12.399-7.8286-4.484-15.185-5.4252-23.499-7.5747-14.003-6.7202-29.991-6.8932-45.215-5.7416-13.384 3.5544-3.8553-7.1516 3.875-4.3284 33.312 1.8255 64.443 14.855 95.459 25.605 14.585 3.2936 29.666 6.3481 44.764 4.8871 11.267-.76869 23.221.28713 34.057-1.6246 7.3933-3.9809.0875-9.6474.46553-14.724-1.1887-10.952-5.2001-21.432-3.9524-32.596-6.4494-12.211-3.3905-26.49-4.9646-39.761.35495-6.964-4.5752-11.932-3.0813-19.299-.89573-14.684-.32929-29.81-2.1364-44.219.60229-9.9622-1.5478-23.25-12.239-13.268 1.4971 14.401.52527 29.506 3.7682 43.555 3.085 13.139 1.3883 27.35 3.4816 40.803 2.1403 18.87 3.2649 38.499 7.5942 56.811 4.8517 6.6467 5.3238 18.464-5.6462 16.65-13.075-.84468-26.634-.1488-39.41-1.9438-6.9615-6.8988-18.29-2.0497-25.464-7.6166-25.324-5.615-49.046-17.227-74.355-22.663-6.9602-.0132-13.92-.0263-20.881-.0395 2.139-6.922 15.393-2.0724 22-2.5062 15.286 3.7324 30.071 9.2042 44.617 14.737 20.672 4.8552 40.892 12.695 62.2 14.461 10.443-.57477 21.366 1.4174 31.517-.72201 6.8699-3.9714-3.0942-14.104-1.8834-20.796-.74708-12.485-3.2092-24.825-5.1056-36.982-.8903-28.764-3.5581-57.423-4.37-86.193-1.8914-13.292-4.9265-21.852-20.746-17.763-32.075-.44336-64.153-.63392-96.23-.93344 2.1503 7.3109 4.8526 18.187 6.6304 21.915 30.234-.009 60.473-.43448 90.704.11452 1.1032 5.723-14.33 4.8698-.66667 7.8666.72958 3.5412-11.892 1.8454-16.532 2.0364-23.153-.42576-46.311-.67617-69.468-.56974-.59837-7.4085 11.671-1.6975 16.788-3.2793 19.754.36966 39.508.78903 59.249 1.6324-3.6465-8.0425-30.744-1.5332-41.859-4.309-12.528-.24662-25.056-.49323-37.584-.73985-1.024 7.3113 3.8505 11.274 3.4066 17.783 1.4096 6.4668-1.6414 10.447-2.6667 15.556-2.1161 24.472-17.74 45.555-33.75 63.215-7.8451 8.8633-4.085-7.1235-5.467-11.822-1.5739-10.021 11.151-7.5768 12.109-17.37 7.7842-7.8218 14.166-16.572 16.577-27.45 6.0574-13.108 1.2249-28.115 5.5225-41.732-5.6831 14.5-9.3945-2.5873-14.963-4.169-2.6731 6.0827 9.1109 14.03 6.7406 21.935-.44645 8.9532.39601 18.236-5.2016 25.871-5.8319 12.255-12.891 26.853-25.274 32.469-2.51-10.176-13.137-15.46-22.477-16.591-3.1739 4.7613 10.229 7.1534 13.658 10.932 3.6947 5.4672 9.7414 12.017 9.8221 19.738 4.6351 9.3651.95715 18.959-3.3879 27.277-3.4383 5.0806-9.2429 9.0772-9.2714 15.72-7.4755-.8637-16.325 3.2591-22.619-1.891 6.0262-5.6557 11.395-11.075 13.146-19.283 3.5573-6.4151 4.5943-14.575 4.821-21.782-1.7826-5.4299-.79403-14.145-4.149-17.711-.0106-3.4459-8.3143-7.1321-5.4271-11.957-7.8462-4.1706-26.529-.90831-37.731.45809-8.5275 6.9943 12.874-1.757 5.8102 4.3563-4.4766 4.7726-8.0559 9.9277-7.6771 16.771-.25688 3.9788 7.917 9.8184 13.361 16.899 13.039.69866-3.2468 12.932-6.3867 14.123-3.4358-6.7727-5.646-13.612-5.7624-21.391-1.5908-9.208-6.199 5.4798-3.4145 8.5517 2.442 11.008 10.121 20.991 14.057 30.423-.1364 6.5372-11.836 1.5116-16.92 3.1009-5.8102-6.4439-6.0695-15.979-13.533-21.24-12.679 2.9279-27.01.48698-39.353 5.8869-18.976 4.259-37.024 12.043-56.194 15.745-7.9842 7.2844-19.278 3.1362-29.055 4.2282-13.282-.30789-26.858.68599-39.955-.43729-15.371-2.1664-5.1118-16.661-3.6568-26.85 5.4281-11.531 3.3311-25.278 7.8621-36.229 1.4776-11.016 1.3172-22.7 3.7929-33.308 3.5429-6.3013.72968-14.878 1.7147-22.094-.52165-9.3549 1.3239-19.373-.67027-28.315-8.9365-1.9468-.72546-2.9377 1.9669-8.062-.81208-7.8076-.91516-14.895 8.954-11.846 3.2319.29889 20.021-.25219 12.388.72785-6.9684 8.2174-16.076-3.6852-18.993 3.9926-1.2579 25.756-.8748 51.903-2.8354 77.44-4.5658 10.242-3.457 22.272-5.7146 33.242-3.0835 8.5106-3.7643 17.243-5.9135 26.731-10.493 16.348-.49075 20.549 13.393 21.732 4.3317 3.9646 12.618.5483 18.512 1.5982 8.6861-.18093 17.425.88455 25.416-3.0304 10.678-2.7409 22.072-2.6714 31.846-8.0434 19.477-6.213 38.971-13.455 59.74-14.405 12.751-.22965 25.823-.69057 9.6233-10.082-8.954-2.4581-8.5993-16.161-19.624-9.6316-13.065 1.855-26.321 1.8472-39.064 4.9168-5.3889 1.3637-10.715 3.7626-17.06 3.4038 2.3325-7.6599 18.742-2.6155 25.028-8.1516 11.029-2.5406 22.94-1.1953 34.306-2.2501 2.388-9.6503-13.843-18.09-15.028-29.167-.96219-9.2547-5.4787-15.903-6.3055-24.231.65313-10.91-1.3019-22.414.9679-32.956 5.0984-8.6184 4.6923-19.346 10.996-27.28 7.1527-19.914 17.253-38.929 21.106-60.035 3.3358-11.677.80658-24.214 1.5957-36.264-5.0815-9.4995-7.6854-21.196-17.11-26.67.63895-5.9479 9.6931-7.9888 13.5-3.2101 9.1636 5.3824 10.582 17.116 15.965 25.598 1.3837 10.842 1.3348 22.388 1.0443 33.422-3.8911 30.559-16.716 59.44-17.559 90.478-.94023 10.309-.63843 21.341.99791 31.287 1.7957 8.962 8.7293 14.195 16.939 16.692 6.6574-.86292 17.444-2.523 17.571-10.93-1.0218-12.657 7.0438-13.817 16.81-12.667 8.0576-.15811 16.115-.31621 24.173-.47432 1.0728 7.1072-.99215 15.737 6.5162 19.722 6.428.36736 14.71 2.2575 18.944-4.2552 7.6599-6.4355 9.9234-15.458 13.279-23.877-.51811-13.129 2.9338-26.838-1.3461-39.333-.7008-20.524-12.78-38.873-11.178-59.612-.2299-7.3024-.45979-14.605-.68969-21.907-5.1348 3.848-12.557 2.9229-19.162 3.8186-9.9867-2.1193-4.3808 7.849-4.6936 13.673v83.487c10.489 7.275 21.796 13.27 31.968 21.021 1.6624 18.894-12.687 13.897-21.181 3.7534-10.468-11.628-4.9909 3.6186-17.551.76601-12.908.65969-25.83.99922-38.746 1.4708-1.8962-9.4028 6.5651-7.518 13.151-7.6768 11.38-.32667 22.76-.65335 34.14-.98002 2.4514-7.5587-9.0561 2.8397-4.0032-10.302-.11469-35.01-.19223-70.021-.44564-105.03-10.156-3.0831-5.7949 8.351-6.6667 14.552v98.781c-10.78-5.3368.0963-31.189-3.575-43.495.0506-23.28-.23047-46.559-.42495-69.838-10.141-3.083-5.8369 8.3509-6.7399 14.552-.21273 28.388-.0877 56.781-.71303 85.163-1.1203-8.0417 1.5423-16.951-3.7525-23.879 7.4236-7.5047-1.2676-11.939.53869-19.829v-51.849c9.6236-5.4591-12.238-7.1738-7.8.32004.33156 36.508.66312 73.015.99468 109.52-4.7571-9.8984-1.311-21.525-2.3869-32.199-.047-27.267-.0941-54.534-.14107-81.801-9.6242-2.9928-7.6255 5.5873-7.489 12.313.14555 33.7.29109 67.401.43664 101.1-5.1416 4.0639-1.2456-14.066-2.8525-12.964.4606 9.171-1.3225 16.828-11.05 20.55-7.7673 5.3312-22.308 16.515-19.884-.38459-1.4043-6.462-2.6522-12.753 5.7341-8.4998 10.322-6.1632 2.2579-5.7474-5.492-5.4438-2.8844-5.6662 10.475-1.2853 14.597-2.1515 11.125-2.417 3.1161-6.293-4.0746-4.5203-4.9062 1.6901-17.79-2.08-6.7825-2.5839 6.5515.80961 14.045-1.5711 19.436 3.1704 6.8238-3.0325 8.7924-8.4801 7.3611-15.619-.18747-28.323-.28255-56.646-.60627-84.967-5.7466.7023-16.484.73053-10.882-6.2987 25.208-1.249 50.442-1.9034 75.682-1.7013 6.7236 8.2571.086-8.1524 5.4137-10.23 3.3785-10.203 7.5621-21.293 13.63-29.879 19.77-10.785 7.5848 10.19 4.6281 19.163-6.8498 5.7857-4.0238 17.194-8.2009 24.917-.0577 6.564-1.1757 14.19.50229 20.304 5.0597 13.112 3.8661 29.793 11.212 42.958 5.1931 4.6873 1.4721 19.083 9.352 16.557 30.411-.87178 61.442.26522 92.091.16581 7.3424.0501 14.685.10019 22.027.15029.51138 6.3634 6.7494 11.871 12.632 8.1474 7.4532-3.3641 4.6826 10.45 5.3624 15.123-.86059 7.2593 1.2343 13.696 2.6455 19.968.27599 6.2017-2.8212 13.456 1.0988 18.437 1.5379 13.578 1.2522 27.949 3.9052 41.042 4.0368 10.965.9631 25.266 5.1285 37.039 3.7672 12.831 3.7181 26.504 9.5608 38.776-9.7078 2.2327-19.073 5.8342-29.196 5.1624-4.2707.0373-8.5413.0745-12.812.11176zm-234.41-57.274c4.5201-5.1042-2.6957-14.365 5.1086-18.856 2.6971-7.2181 7.4318-12.834 13.526-17.43-10.908-2.8462-13.959 20.529-21.518 8.1035-8.0855-8.5584-17.188-16.417-20.93-27.964-5.3034-9.1996-2.4006-20.443-3.8129-30.612 3.3902-4.6745 2.5842-14.254 9.0212-15.196 9.6734-7.9884 1.4381-7.7364-3.5709.0862-6.6078 8.7302-3.5814-8.7683-11.161-9.8161-1.5802 2.6593 2.8886 16.846 1.8896 24.14-3.304 10.794-.96582 22.395.42605 33.219 5.484 9.4382 9.3387 20.156 19.015 26.23 7.2714 5.4469 13.604 10.91 9.3743 20.23.97205 1.6859-.69073 12.432 2.6322 7.8671zm43.851-51.973c7.0817 2.1119 9.6386-7.2575 5.0979-11.118-6.3539-6.6836-16.488 5.5995-9.5544 11.118h4.4565zm.718-2.9722c-13.184-5.8599 8.9451-6.2065 0 0zm21.398-38.361c5.4094-1.7104-3.2501-11.162 0 0zm-24.096 149.25c-12.036-.0758-24.072-.15156-36.108-.22734-5.7164-11.216 5.4751-10.382 12.959-10.249 7.0819-.29735 14.164-.59471 21.246-.89206-9.1729-.18147-18.346-.36295-27.519-.54443-1.484-9.612 9.4565-4.9772 15.404-6.0675 15.372-.0713 30.743-.1426 46.115-.2139.85211 6.3548 12.648 7.5039 4.544 17.024-4.57 3.2731-13.377.36029-19.561 1.2779-5.693-.0359-11.386-.0717-17.079-.10753zm18.762-10.323c18.327-1.5357-17.874-1.5872-13.12-.87494 4.3308.72451 8.7255 1.1941 13.12.87494zm-198.67 6.1383c-17.01-.80457-34.808.84631-50.905-5.7281 1.2932-12.432 5.8586-24.193 7.1459-36.658 6.3543 1.2139-4.0223 23.034-4.1649 31.143.64594 7.976 13.857 6.4747 20.62 8.0605 16.685 2.1527 33.386 1.7569 50.096.11091 13.749.30148 25.844-7.087 39.261-9.5088 20.465-5.7155 40.448-15.311 62.105-15.148-10.737 6.0048-29.493 5.0699-42.222 11.78-21.482 6.7279-43.441 14.042-65.961 16.056-5.3251-.03596-10.65-.07193-15.975-.10789zm178.81-19.728c-6.1033.66999-9.5855-7.5516-10.476-12.753-.52237-6.3253 8.6515-9.5958 12.047-14.687 8.3988 3.288 15.327 19.932 2.4772 26.969-.79984 1.1474-2.8484.1175-4.0484.47088zm-44.147-5.3333c-7.9805 1.9817-12.669-3.9717-2.0396-3.3861 4.0692-2.7013 16.885 1.1087 7.6434 3.3861h-5.6038zm183.56-2.6667c-10.117-2.2539-1.333-20.392-10.872-22.066-22.537.13735-44.849-3.6269-67.357-3.8109.76051-5.6257 11.927-.40357 16.777-1.7666 9.9064.90764 20.647-.14184 30.032 1.9899 5.1712 3.6875 13.037.66959 19.294 1.6531 2.7947-4.142-4.5236-18.802-11.435-23.135-8.4519-8.188-17.854-15.194-28.001-21.128 3.931-3.9319 2.0683-20.066 7.2582-18.423 7.4185 8.3978 19.505 9.7032 28.451 16.02 5.9138 6.3236 15.664 5.0246 23.644 7.3628 10.082 2.4943 20.317-1.7094 30.471-2.319 8.6759 9.0725-.77663 22.409-4.1563 31.982-3.1967 8.4672 12.271 6.6761 17.062 9.7175 3.6208 6.3143-14.765-1.0641-19.849-.011-3.9155 1.5698 9.6458 3.9756 13.762 3.9657 9.7038-.84411 5.4638 7.2634 5.8436 9.1849 2.8542 9.6548-22.342-6.0625-30.308-.93743-7.7439 2.6043-12.327 10.518-20.616 11.721zm1.6961-4c7.5914-5.4672 19.509-11.87 21.408-21.311 8.9677-4.3533 8.2962-16.833 14.4-24.528 2.8188-7.143-2.5666-13.895-9.0005-7.331-8.8758 6.1858-15.002 16.165-21.362 24.79-3.4598 7.9548-10.227 14.449-8.0372 23.777-.3943 2.2034.15516 4.0368 2.5922 4.603zm43.074-9.4911c7.32-2.9698-14.763-5.4479-19.035-5.8204-5.9084 6.7976 17.488 2.2871 19.035 5.8204zm-323.84 6.782c-6.2816-1.2003-11.639-6.049-16.334-11.126-11.714-12.222-19.914-29.04-22.83-45.487 2.932-10.714 15.548-5.0836 23.55-4.1922 9.7761 1.6457 20.311.96765 29.777-1.2223 9.7203-4.5131 20.485-6.1731 28.985-13.159 7.2205-4.2647 11.103.60869 11.032 8.0091 3.8941 13.007-18.995 13.632-25.164 22.07-10.6 11.756-19.716 25.876-21.957 41.816-2.2724 1.5196-3.9662 4.0943-7.0608 3.2909zm1.8367-4.099c7.6903-.86975.13926-13.4-1.5147-17.77-6.7368-15.165-16.321-30.508-31.694-38.294-10.797 5.8324 2.7657 23.134 6.1635 31.849 4.3549 9.2425 13.164 15.67 20.624 22.26l3.2971 1.3222zm155.46-2.5878c-.96836 7.8731-18.179-10.955-9.34-11.562 7.6652 2.0111 15.57-18.676 14.95-11.042-.95286 7.71-2.4082 15.476-5.6102 22.604zm-191.08 1.3959c-4.2496-.74972-18.508 2.4954-13.59-3.748 9.7906-.284 19.586-1.0157 29.379-.73868.62008 8.271-10.808 3.0067-15.79 4.4867zm47.291-4.4562c-5.7367.93836 6.3302-7.9893 10.667-6.2431 11.852-.36457 22.329-6.583 34.138-5.5827 8.3993-.12822 16.799-.25643 25.198-.38465-4.379 6.7036-18.202.4812-25.476 3.8799-15.299.66563-29.774 4.8828-44.526 8.3305zm-54.933-2.2104c-10.984 2.1409-6.9736-7.0009 1.8873-3.853 3.6045.2725 20.855-.14169 13.711.67169-5.9226.59778-9.4479 4.5596-15.598 3.1813zm-38.784-1.6497c-5.3731-1.6415 2.1819-8.6638 1.5319-13.214 3.3114-21.16 8.4054-42.188 7.5188-63.803 7.2001 2.0749-1.2046 18.552.77923 25.229-2.218 7.5908.32862 20.976-4.7976 25.223-.76579 8.3389-.18445 20.437-5.0324 26.564zm43.717-5.0169c-14.207 1.2028-4.984-5.5137 5.2088-3.8876 8.2397.0471-.20483 6.3383-5.2088 3.8876zm295-3.8067c-9.827.90239-19.907.38469-28.225-2.86h-25.599c3.3766-5.9983 12.625-1.0367 18.544-2.2892 13.097.50976 26.226.65104 39.28 1.8652 3.5113 4.215-1.7661 2.6029-4 3.284zm-235.75-4.721c-9.5706-.44568 5.6611-3.7848 9.6118-3.4392 6.9762-5.2306 18.399-3.3795 27.467-4.5063 13.718-2.2375 10.535 3.9892-2.2732 3.5195-11.597 1.5011-23.277 2.4347-34.806 4.426zm222.75-2.139c-7.6789 1.8707-11.724-2.7768-18.421-2.6667-4.6273-1.4574-15.343 3.174-15.579-2.6753 15.596.90302 31.424.25841 46.836 2.6565-1.725 5.1768-8.7025 1.6618-12.836 2.6855zm63.933-33.622c-13.976-.42212-27.955-.76618-41.933-1.1271.21495-6.3373 11.852-.79573 16.778-2.234 10.799.91471 22.414-.11022 32.701 2.0195 5.545 3.2484-6.4475.73614-7.546 1.3416zm-321.08-2.4721c-8.3809.0312-16.762.0625-25.143.0937 1.0139-7.7291 10.83.003 17.674-2.5092 12.648.0461 25.296.0922 37.945.13832-9.3313 4.375-20.436 1.2983-30.476 2.2772zm313.48-4.1159c-15.207-.46336-30.417-.84324-45.627-1.2169-6.3349-5.7028 10.017-1.3437 14.079-2.435 15.405.38121 30.81.74071 46.214 1.159 1.9716 6.291-10.967 1.1026-14.667 2.4929zm-311.23-2.5576c-9.4093.0622-18.819.12448-28.228.18672-3.8032-5.8424 10.952-1.3375 15.09-2.7529 12.506-.39386 25.463.78992 37.685-.59295 6.2079-6.0813 11.608 4.624 1.4423 2.9872-8.6631.0573-17.326.1146-25.989.1719zm39.895-.005c-15.497-1.7785 8.1875-7.6042 1.2151.0548l-1.1183-.0504zm277.44-3.8947c-21.462-1.7222-43.048-2.2864-64.602-2.6667 3.6451-5.0892 12.465-.7623 18.192-2.0639 18.506 1.1447 38.104-2.2022 55.577 4.5647-2.2262.36409-6.2748.0717-9.1674.16592zm-319.37-2.7996c-8.3071.0443-16.614.0886-24.921.13291-3.9854-6.3149 8.9689-3.7645 12.772-3.6087 6.1931 2.3977 11.976-1.4643 16.88-1.2069 7.9211 5.05 18.043.17756 26.857 2.4148-9.9582 4.0577-21.089 1.4398-31.588 2.268zm41.255.11308c-13.898 2.3146-8.0316-6.3719 3.6961-3.8554 3.8594.47944 23.055-1.4787 10.637 1.9139-4.5579 2.5064-9.3326 1.9315-14.333 1.9415zm-96.778-18.96c-6.4279 1.7972-1-12.453-.22184-16.322-2.1089-9.6349 5.6424-22.13 2.1139-6.7616-2.0524 7.359.9198 16.175-1.892 23.083zm340.11-3.9405c-13.889.0124-27.778.0247-41.667.0371.74141-5.6128 11.792-.91619 16.613-2.4499 7.7824 2.1148 11.109-3.8037 18.298-2.6608 16.331.16289 32.662.32578 48.993.48866-.52794 10.322-32.56 1.3213-42.238 4.585zm-278.74-2.5629c-10.752-.0177-21.503-.0355-32.255-.0532-2.0883-8.4884 9.6913-2.9054 14.551-4.3442 24.046-.0591 48.173 2.0839 72.088-1.2271 9.8263 2.8618-9.5103 2.7256-13.892 3.1323-6.701.5896-12.163 3.9799-19.431 2.5269-7.0203-.0116-14.041-.0232-21.061-.0347zm-21.255-7.1038c-9.9231 3.0747-10.772-6.1964-.49478-3.539 24.876.56686 50.387 1.5626 74.886-2.0536 15.766-3.2427-7.7203 7.3759-15.518 3.9211-19.618.76161-39.248 1.1525-58.873 1.6714zm45.667-8.3168c-18.001.32968-36.015.39144-54-.52602 2.6699-4.311 13.224-.74285 19.03-1.9192 24.046-.02 48.093-.04 72.139-.06-12.076 3.4456-24.77 1.7599-37.169 2.5052zm169.11.90397c-21.234 1.4953 12.456-5.6922 7.7695 0h-7.7695zm-68.759-15.879c-4.9913 2.654-18.744-11.929-25.25-14.638-1.6116-16.517 9.348-10.561 18.62-2.7938 7.576 2.6358 5.6203 10.994 6.63 17.432zm48.715-2.7878c-3.4213-3.0172-3.2618-15.577 3.993-17.815 9.4478-8.0623 26.68-15.845 19.976 3.4538-9.8315 3.5797-9.6699 8.5868 2.2118 7.0279.33369 5.813-10.606 1.8886-14.968 3.6137-4.8792-.81673-7.2803 1.8128-11.213 3.7196zm-163.07-6.2346c-11.352-.16235-22.891 1.937-34-1.1765 16.519-3.9035 33.751-1.0599 50.592-1.9222h34.875c1.697-6.9377 16.224 1.3608 6.5088 1.3804-19.331.33741-38.644 1.36-57.975 1.7182zm64.87-21.81c-23.994-14.242-46.379-31.316-70.993-44.672-5.1622-7.7357-14.107-3.0253-20.098-6.055-5.4639-3.6693-2.3722-12.422 2.496-15.254 5.5194-6.5496 15.344-3.7452 15.298 5.5632 11.465 10.673 28.049 16.968 41.095 26.327 12.263 7.5151 24.499 15.075 36.667 22.743-.41713 3.1576-1.0258 11-4.4638 11.348zm-86.07-53.53c5.9828-.59835 9.8247-18.523.15132-12.201-3.1629 1.8687-5.3855 14.499-.15132 12.201zm229.81 53.574c-12.915-18.461 16.679-20.697 26.074-30.422 15.003-10.312 31.57-18.054 46.655-28.326-1.0912-5.761 7.0151-10.772 10.999-5.5819 7.7538 6.0036 6.8221 19.092-4.8243 16.001-11.042 1.0254-19.93 11.415-29.927 16.292-17.535 8.9071-32.246 22.047-48.976 32.038zm83.833-52.087c3.6131-4.1559-2.3015-14.646-7.5507-10.239-5.5274 2.1975 3.5756 13.285 7.5507 10.239zm-228.65-.60698c-9.6408 5.4857-14.744-10.035-4.7247-13.121 7.0262-2.8764.89606 12.641 8.5091 4.4817 6.7222-1.7465 18.936 1.0608 9.5244 7.427-4.4551.14545-8.8873.67518-13.309 1.2123zm155.43.67358c-5.2033-.66112-5.2986-17.553.44171-14.016 8.6448 1.505 8.7986 12.758-.44171 14.016zm-13.474-3.0667c-7.0456 4.576-10.179-9.4526-2.2324-7.5795 7.2161-3.2953 12.195 4.5986 5.5838 7.3594-1.1171.07339-2.2342.14677-3.3513.22016z"/>
</svg>
