<?xml version="1.0" encoding="UTF-8"?>
<!-- Created with Inkscape (http://www.inkscape.org/) -->
<svg version="1.1" viewBox="0 0 338 228" xmlns="http://www.w3.org/2000/svg">
 <path d="m165 225.52c-7.1638-2.0722-15.438-3.8494-19.102-11.035-2.029-3.4292 2.9639-7.8094 1.3759-12.299 3.0452-9.8946-12.587-.27393-13.274 3.5907-5.9439-.2481-10.003 6.8025-15.677 8.9229-3.662 4.4975-9.5982 1.9946-14.575 2.4447-5.4935-4.6214 4.4676-7.0814 7.6957-9.1677 9.0638-4.9087 17.495-10.954 21.93-10.754 3.4507-5.7007-3.9256-3.7416-7.264-4.6389-4.1276-4.5653-7.7054-1.2955-11.271 2.1512-4.3894 3.0726-7.9054 7.9258-13.652 8.1483-5.6356 2.7698-11.293 4.413-17.614 3.6081-7.0424-.45689-14.632 1.5698-20.837-2.6805-15.116-7.0038-27-19.343-38.737-30.919-1.2278-5.9757-5.259-11.036-5.3215-17.444-3.2278-6.2925-.84626-14.021-1.5409-20.981-.17958-5.8234 1.9126-11.699 4.4958-16.763 4.1289-4.6924 7.2977-12.374 11.367-14.041 1.5123-4.1795 7.5249-6.1024 10.802-9.3968 5.1844-2.9209 11.54-3.914 16.987-6.4478 11.041-1.7693 22.476-1.406 33.421-2.2865 9.0819-3.1227-7.104-7.4987-8.7713-11.874-8.5768-5.4231-18.124-11.111-28.64-10.069-5.4034-1.4186-9.141 1.3957-12.407 5.4079-6.0923 1.3945-8.6006-1.0976-7.7062-7.2796-1.1163-6.6105-.9472-13.378 3.6636-18.838 4.3452-8.0135 12.266-12.816 18.766-18.883 4.3778 2.37 5.5574 1.5914 6.6976-2.9982 8.0379-1.5185 14.554-8.6665 23.185-7.0018 5.751-1.0168 1.8804 13.168-1.5488 6.9857-6.1551 3.8719-15.53 10.012-22.755 13.584-2.9407 3.7982-8.4963 6.5011-9.6932 11.03-.96903 4.2982-6.6295 6.6657-6.0666 11.981-4.0318.71071-7.1963 11.593-1.3902 4.9979 3.6233-4.2478 5.4135-6.8042 9.0355-2.6109 4.7575.05653 8.9674 1.4771 12.529 3.0332 7.2927 5.0178 16.757 4.0395 8.7712-4.3334-5.5599-2.851-5.19-8.1157-9.291-11.823-4.4323-8.6973-2.7097 1.0894-4.1674.8227-6.3867-2.3945-9.8343 7.7413-8.4201 10.333-2.7448-3.1891-4.9278-3.7555.37726-8.7447 7.0024-8.8096 15.228-15.112 24.495-20.6 4.9248-5.4623 5.3195 2.496 4.6591 6.4655-.46633 5.4251.08158 10.612 3.2923 15.173 3.1144 9.1462 12.12 13.904 18.418 20.679 6.3375 6.338 9.0414 5.9287 16.298-1.6506 6.7934-5.5309 11.364-7.9092 18.608-12.687 1.7365-6.5388 17.403-16.097 11.886-5.1191.60737 7.1205 4.5803-3.8395 7.8596-5.1406 6.2118-3.8233 6.3242-7.5269 12.189-9.3617 9.4957 3.8274 20.434 7.3664 30.134 11.583 6.0274.11155 3.5205-13.478 8.0031-17.309 5.673-4.8657 12.438-9.6751 20.263-8.2881 14.65-.24286-9.9355 9.491-10.323 15.82-3.1141 4.206-1.7013 11.009-4.5799 14.821-3.5911.97593-.66725-8.4138.82783-11.108.37462-6.4494 3.9785-10.784 8.4742-15.143 9.2547-1.8592-2.2116-4.1687-4.0645-.11675-6.0426 1.4518-8.8521 6.0649-11.122 11.383-2.5048 5.8255-1.7221 13.282-3.3729 18.742-8.8265 7.6253 12.306-3.9491 16.699-5.786 9.0731-3.1317 17.482-8.347 26.367-11.613 7.7089 1.3223-12.665 7.2721-15.468 9.5929-13.256 5.5265-25.519 12.884-39.114 17.927-7.7579 5.2679-21.176 7.4881-26.554 12.766-5.478 3.1945-11.436 4.2846-12.197-2.7217-3.3543-1.9333-10.004-3.1809-12.172.43567-5.6337-.93354-8.4351 5.5677-12.703 8.2182-3.3811 2.9778-6.8442 12.801.77986 10.282.92722-5.5802 2.1788-10.969 7.1582-14.344 6.3393-2.0764 12.611-.51048 18.883.98571 1.607 3.7556-10.213 4.5472-1.3236 4.3469 7.732-2.4124 7.4106 5.1194-.53821 4.6399-.76529 3.419-14.487 6.0748-6.4436 5.2604 5.4776.2287 10.871-7.6318 15.648-4.6437-4.1138 7.2096-18.612 8.8773-26.07 14.255-10.337 6.3434-.48867-4.5673-6.0608-4.9807-1.6961-5.0993 6.3614-5.1266 9.452-7.6106-1.7048-3.4422-20.655 14.061-18.664 2.2413-1.1345-5.3764 3.7303-9.1174 6.5718-13.017 6.5005-4.9484 13.414-11.177 22.165-9.6332 6.2352-1.1437 12.664 7.8201 18.17 2.0665 8.242-1.968 9.846-4.7395 1.7634-8.7314-6.6306-5.1623-15.386-6.4763-23.353-4.03-8.4276 1.3968-15.335 7.4096-22.104 12.408-8.1379 5.1986-12.779 14.732-22.868 16.447-11.169 4.4031-23.753 2.8019-35.384 4.4723-8.2256 2.8372-18.185 4.6207-24.73 9.9342-2.5507 4.6022-15.437 11.122-7.169 1.721 6.5313-4.7394 13.012-11.033 21.32-11.844 7.9436-.97177 15.078-4.4345 23.186-4.06l19.867-1.411c2.218-5.7782 10.822-2.7105 13.915-8.1023 9.8984-9.4367 20.532-19.021 34.121-22.339 4.663-.88911 10.274-.90227 14.724.01949 5.4741 2.1764 10.698 4.4022 14.582 9.0898 5.0922 5.5233 10.962-5.1546 1.1822-6.5438-8.5078-4.3457-16.895-11.138-26.733-6.447-5.6163.73604-11.604.52718-15.496 5.3498-8.6253.49341-14.293 11.005-22.22 14.736-4.827 4.3758-9.9605 7.1676-16.178 8.6685-15.02 4.2459-30.92 1.8925-45.892 6.3977-4.8397 2.2895-10.419 3.7066-14.201 7.9292-10.747 6.3806-17.05 17.347-19.73 29.388-1.6271 6.8506-1.0003 14.015-1.6542 21 3.5151 5.3233 2.4548 12.399 6.5632 17.603 4.2364 8.9384 12.943 14.813 19.773 21.697 7.1961 6.1089 16.25 9.0654 26.197 10.039 14.758.62014 29.94-3.8963 40.586-14.372 9.722-6.6721 14.107-17.948 20.255-27.389 5.4092-5.3101 9.957-11.845 17.554-14.13 10.327-4.1505 21.578-6.9113 31.284-12.489 5.6442-5.7715 11.288-11.543 16.933-17.315-.7732-5.0053 3.7889-7.8282 2.4146-13.172-1.6047-7.7505 8.431-10.056 13.728-12.722 5.4553-2.1902 16.361-9.9233 4.1039-3.9175-6.5718 5.8458-24.537 6.0448-22.24 17.346-1.0496 6.0835-4.122 12.497-7.3997 17.794-9.0375 11.151-22.478 16.617-36.091 19.766-3.7527 2.4322-21.064 8.627-10.247 2.0106 10.968-5.8352 23.939-6.5021 34.364-13.444 7.9211-6.0581 15.206-14.464 16.495-24.726 3.2697-6.1991-1.5003-6.6443-5.4398-2.8078-11.209 6.7399-3.1233-1.8632 2.5299-4.3202-5.8196-1.0224-11.02 5.8323-16.029 8.569-9.7493 1.6066-16.939 11.421-27.118 10.859-5.0576 9.042-20.114 6.9289-27.994 14.175-4.41 2.6301-10.979 6.0222-15.076 6.8637 5.7946-5.3487 16.011-8.3337 23.118-13.143 7.6305-5.0092 17.144-5.1761 22.79-11.084 7.2093-2.2139 20.139-13.098 5.5106-5.1969-3.4119 3.3395-17.984 10.152-16.202 2.7964 9.0502-5.0341 18.72-8.6651 27.948-13.523 4.0675 1.6832 5.433-6.2143 9.661-.51605-6.0873 7.0577 11.682-2.9783 14.846-4.7575 24.343-12.432 48.459-25.612 72.628-38.163 4.5111-6.5107-16.246 7.1042-21.653 8.7216-12.481 6.6963-25.517 12.541-37.882 19.238-7.5784 3.3817-15.25 7.007-22.686 11.253-11.316 4.7804 7.88-8.5171 12.034-8.9946 12.202-7.0658 25.737-11.795 37.89-18.673 10.396-3.707 20.328-10.587 30.853-14.932 4.9736-2.3306 26.719-12.577 12.74-3.6917-7.1273 3.2575-9.4208 6.6715-.40335 1.9516 6.1051-4.6133 10.873-3.9273 13.944-3.5271-.93512-3.8564 5.5266-6.2127-4.1364-2.7273 1.6063-4.9273 4.1264-6.3644-2-4.2589-1.9471.73374-6.1339 4.6832-9.4677 3.7813-.4186-1.519 7.9514-4.0537 10.846-5.9555 3.6335-6.5494-12.941 4.052-16.378 4.7801-8.0842 2.821-27.088 14.421-30.293 11.516 7.4103-4.0268 15.527-7.4385 22.507-9.9334 4.3884.30022 8.4377-4.7167 11.785-4.8115-.10747-2.7391-13.465 3.3312-5.5532-2.3462 4.893-.6523.78557-10.484 7.3037-7.4731 2.7123 5.0613 10.733 1.1566 13.25-.36922-2.4197-.41641-8.0142-3.6327-1.9436-6 4.8309-1.0947 4.8972 6.8774 10.494 4.5584 5.3204 1.7432 6.4116-4.9397 12.185-3.2133 3.8357.19242 4.2528 9.9373 7.8621 4.0847.79366-5.0745 7.9139-.08961 9.6814 2.7061 2.2095 4.8712 10.559 2.2892 10.542 8.2893.36201 4.3125.53747 9.9811-3.5003 12.734-2.86 4.8453-7.1664 5.3871-12.194 3.783-.0891 1.1266-1.4151 9.3415-6.486 6.6197-5.964-.18472-1.2676-8.0551-6.5134-9.7004-6.3799.98535-1.9607 8.4395-8.4304 9.3711-6.1945-3.2769.68302-14.049-9.0735-7.1308-7.1208 2.2538-11.562 6.2695-9.3916 14.357 1.1651 5.8497-1.6283 10.074-5.9156 13.684-4.6664 4.1443 7.2972-13.779.14045-5.4231-2.3744 3.1114-12.711 15.442-13.72 11.116 8.6159-6.3565-.69489-6.1992-1.7372.54503-2.677 1.653.26336 5.3724-5.4669 5.6623-2.8735 1.7848-8.999 9.6234-10.086 5.2135 5.5569-2.2167 8.5795-11.234 1.2504-5.5073-4.8558 2.459-3.3415 7.8642-7.5312 10.044-4.7515 4.436-5.5261 19.053-13.346 9.7743-8.3279-.11433 6.544 4.6034-1.6142 3.3705-4.9967.8354-1.7336-6.0254-8.997-4.7974-11.197-2.19 9.0268.0706 11.791.34364 6.5169 1.7654 9.0105-8.4355 10.963-13.183 4.0882-4.5929 8.337-9.5449 14.482-11.464 5.8748-3.9537 12.199-5.3457 16.809-11.048 4.0426.21867 7.2963-1.4738 3.8929-4.2602 2.8078-1.9335 4.5574-10.992-.67308-9.5276-5.2762 5.2283-17.131 5.002-10.623 14.55-2.4604 9.7745-5.1028-9.9765-9.9031-2.391-11.993 1.9336 3.8657 8.8153.4994 9.8407-4.561.47834-6.4025-8.6008-11.09-3.5504-5.25 4.0311-16.594 6.8674-17.644 13.293 1.2743 3.0933-.55113 7.7427 4.9672 7.257 6.8324-1.6779 5.0304 4.6994-.43371 2.1315-4.2825-2.4736-9.6405-.26888-14.392-.70458-3.1979 3.7764-11.639-1.4226-9.8484 8.3511-2.4677 10.819-9.3859 19.745-16.576 27.864-8.7248 5.6347-18.322 8.9853-28.215 12.313-4.4022-4.5573-11.847 6.2239-15.958 9.4321 3.6758.96964 18.054 8.001 4.4419 4.114-5.7138-4.9549-8.4104-1.7768-7.8706 2.4989-9.7022 7.7378 13.822 6.8286 18.462 12.202-5.6046 3.1288 11.712.58594 14.335-1.0774 5.7176-.29094 11.567-.0402 17.334-.12476 3.3671-7.3359 6.4122-14.834 11.97-20.838 3.6599-3.5857 4.9709-10.125 9.84-6.4397 3.9826-4.9579 5.3966-10.161 6.1374-15.968 4.0099-2.9221 3.5218-9.9496 6.3693-9.755 2.6513-6.5941 7.3369-5.5273 1.4608 2.1572-5.601 4.5302-2.8249 7.4894-2.5171 9.0462-4.7006 7.3235-10.198 14.887-16.221 21.915 5.1978-11.469-3.0657-1.5544-6.049 3.8126-3.5529 4.8167-6.2112 9.5101.7502 4.202-2.9096 4.7995 1.7325 6.9033-4.7012 11.656-.12099 9.1199 3.6651-5.7337 6.9372-4.7887-.96626-6.9327 12.927-11.132 14.299-19.772 4.8138-8.3909 12.147-26.142 16.318-28.402-3.969 4.3462.48016 10.486-4.2802 13.192-3.3095 9.0477 12.858 3.8366 14.726 11.097-6.0559-.2183-14.342-9.5783-19.062-3.2926-.11477 5.2524-2.8058 9.3652-6.1753 13.178-4.5243-.15442-8.6904 11.214-1.7979 11.655 6.1525 3.1536-6.3832-1.073-7.8995.90895-3.6027 4.0008-7.9978 20.25-10.553 16.452 4.0593-4.9449 5.6364-15.992.3516-4.7211-5.2599 6.4076-6.8366 16.112-14.725 19.789-3.3323.50364-1.3695 12.194-4.1861 7.4164-.9468-3.9801-5.9048 10.946-10.611 12.228-5.9206 3.2203 5.7577.24758 6.1057-4.3004 6.5562-4.8192-3.0622 6.0944-.26613 5.5399 5.0288-2.5631 7.5913-9.9706 11.667-14.225 4.3179-3.0385 8.7429-23.79 10.7-16.492-3.8627 12.759-11.623 24.703-20.76 34.378-3.5992 1.0163-8.0549-.5462-11.789-1.1038zm3.7383-6.4948c4.8383-4.2558 8.3069-9.4998 8.4843-16.029 2.41-2.1096 4.8301-9.0419 8.1768-12.823 4.752-7.9646 6.1534-13.478-4.2937-11.091-10.25-1.018 2.8047 2.647-6.4745 1.8123-3.3097 1.0373-13.691-2.1233-11.631 2.1016 3.8003 5.5346 3.2901-3.0541 9.3006-1.0545 1.9201 2.4836 12.545 2.369 4.172 2.874-7.9407.7176-6.5795 1.0486.46194 1.1436 5.8693 2.6752-5.504 2.7126-7.2432 1.3465-3.346-1.5055-7.2342-.66914-11.054-2.2077-11.888-1.3679 13.622 5.7044-1.0899 3.2248-8.8153.0385-15.405-5.5256-24.105-6.2616-7.2032-3.5892-.46663-3.4329 4.0563-1.9996-4.929-8.7235-14.123 3.1221-3.7596 3.9035 8.1555 3.5364 19.185 3.6323 22.195 8.5862 7.5105.17007 15.021.34012 22.531.51018 4.82 4.1244-6.4663.53428-9.3259.98035-4.0058-.3426-11.596.2872-11.248 5.4039-.51969 3.8551-1.3603 12.093-1.6816 13.239-.40699-3.8925 1.3089-11.48-.43153-13.052-.41773 2.9212-2.6197 11.785-2.8931 3.4251.41379-8.858-.4915-1.2747-3.9349.53005-.75917 4.4808-3.3653 9.5229 1.7646 12.214 4.9165.39913 6.9191 4.7771 11.548 5.1943 2.6058.0175 4.8329.55044 6.4753-1.9708zm7.7617-28.029c-1.2038-2.402-13.655-.48323-5.5672-1.737 4.0616-2.1899 15.7 2.8919 6.1852 2.737l-.42663-.69031zm4.4294-9.585c-3.7914-4.576 11 1.7467 2.4649 1.585-1.3191.47126-1.7221-.83482-2.4649-1.585zm-66.429 30.17c7.6019-6.1968-5.9872-1.7869-7.9803 1.3834-1.6443 2.4419 7.604.87268 7.9803-1.3834zm23.167-15.251c-5.2936-2.8533 1.7642 4.0637 0 0zm16.333.16667c-1.2775-1.7937-1.2775 1.7937 0 0zm35-2c-1.2775-1.7937-1.2775 1.7937 0 0zm-52-1c-1.2775-1.7937-1.2775 1.7937 0 0zm11.5-1.5c-6.1279.55835-8.303-5.2233-14.409-4.5262-4.1128.92241-9.7356-6.1955-11.091.52622 5.3362-1.2848 8.1764 4.7284 13.632 3 5.2262-1.1507 7.2165 3.4742 12.611 1.8833 2.3642.21709.15554-.4614-.74309-.88333zm4.3526-7.6696c-1.6547-2.0142-6.6837-8.2446-6.8526-1.4298.65793 2.2735 11.305 2.5027 6.8526 1.4298zm6.1474-1.3304c-1.1706-3.878-3.4681 2.0549 0 0zm-37-1.5c-1.2775-1.7937-1.2775 1.7937 0 0zm73 0c-1.2775-1.7937-1.2775 1.7937 0 0zm-69-4.6546c4.9407-7.5816 3.2842-8.863-1.1892-1.0474-2.3276 3.7384.098 4.096 1.1892 1.0474zm25 .65465c-7.8772-4.4864 1.9974 5.9524 0 0zm-5.55-1.4222c-6.0886-3.338-13.506-2.0609-2.299.41741.65847-.0144 4.8838 1.3328 2.299-.41741zm-9.7208-2.682c-10.71-3.6711 2.3498 3.3906 0 0zm-2.3793-10.379c-5.7158 3.6919-3.2228 9.3905 0 0zm10.08-10.017c12.012-8.2975-4.0338-1.9361-6.1564 3.6549-6.7444 10.46 2.3948-2.3004 6.1564-3.6549zm77.07 0c1.294-3.6331-4.2634 2.1065 0 0zm-.5-17.5c-1.2775-1.7937-1.2775 1.7937 0 0zm-75.95-34.026c9.9768-8.2666-11.878 5.4773 0 0zm27.7-.46336c7.056-6.508-7.504.74329-4.559 1.985l1.8792-.5847 2.6798-1.4006zm23.25-7.511c4.8515-6.1053-9.8649 6.2008 0 0zm-46-1.5c5.1102-3.5652-9.2621 3.5484 0 0zm49.667-.66667c-5.2936-2.8533 1.7641 4.0637 0 0zm-45.167-1.3333c1.723-3.3922-5.5048 2.4958-.73023.70625zm5.2292.39583c-10.712-3.6727 2.3504 3.3914 0 0zm43.771-.39583c1.723-3.3922-5.5048 2.4958-.73023.70625zm5-3c.6641-4.5785-7.511 4.6162 0 0zm-61.5-.5c-1.2775-1.7937-1.2775 1.7937 0 0zm69.617-4.2165c-6.4945 1.0729-6.1584 7.3077 0 0zm-112.62-.62853c-3.8778-3.6217-1.7151-6.1898-3.7493-8.2344-5.6273 2.8424-7.7141-5.6725-13.347-4.9899-8.8691.33148 9.5179 9.1966 11.176 12.081.69004 1.8691 6.2641 4.2998 5.9206 1.1429zm115-.15499c-1.2775-1.7937-1.2775 1.7937 0 0zm-109.25-2.25c.10638-.84315-10.667-5.7997-4.5718-.10626.7604 2.4302 3.4015 2.1742 4.5718.10626zm114.75-.25c2.1749-1.5242 10.573-5.0967 3.5566-3.9454-3.2286.79787-11.13 9.1008-3.5566 3.9454zm5.5.5c-2.4414-6.1552-1.4221 7.4097 0 0zm4.5-2.5c1.723-3.3922-5.5048 2.4958-.73023.70625zm4.7079-3.25c10.388-11.149-9.3937-.26657-5.7399-.09934 2.389-2.0192 2.7969 4.258 5.7399.09934zm-141.44-2.75c-7.2229-6.6048 3.7311 6.5739 0 0zm148.73-1c1.723-3.3922-5.5048 2.4958-.73023.70625zm-1.5-2.5c-1.2775-1.7937-1.2775 1.7937 0 0zm9.5618-2.2715c-5.5524 1.2756-2.2075 4.4644.0356.03563zm-57.93-12.375c5.1742-4.827 2.3958 5.4497.70667 8.1048-2.884 5.477 8.6339 2.503 6.1412-1.8365 1.4336-4.5567-1.8753-8.7159-6.3537-9.4087-8.7117-5.7072-8.518 2.2058-11 7.7668-7.2684 3.3605-1.5704-8.175-.21038-11.48-10.14-11.777-9.3417 10.681-15.293 6.9561.70755-2.7811 7.5121-11.288 1.036-8.391-2.663 3.7986-15.764 10.472-4.8455 9.5232 9.4552 1.1652 17.806 6.448 24.678 12.798 1.8402-4.5347 1.6863-10.435 5.1415-14.033zm-16.632-3.8538c1.0739-4.8982 1.1408 4.8889 0 0zm67 17.5c-1.2775-1.7937-1.2775 1.7937 0 0zm-159-1.941c-2.7727-4.7911-2.9485 2.6265 0 0zm164.92-1.2144c6.1628-3.3731 14.05-8.0529 2.2639-2.9253-3.0234.69886-9.8935 7.5113-2.2639 2.9253zm9.0816-.34462c4.6545-3.6759-9.2196 2.0648 0 0zm7.5-4c.28259-2.6876-8.9825 2.5283-.61803 1l.42663-.69031zm10.167.33333c-5.2936-2.8533 1.7641 4.0637 0 0zm-197.9-2.5208c-6.3996-6.9696-1.2629 6.3864 0 0zm190.23.6875c-1.2775-1.7937-1.2775 1.7937 0 0zm-64.866-4.1536c-3.2192-4.248.54869 9.3381.25761.44319zm111.87 2.2126c-3.0987-7.0916-2.8002 3.9824 0 .62948zm-274-4.2501c-4.8002-6.363-2.5508 12.37 0 0zm234.5 3.6911c.6641-4.5785-7.511 4.6162 0 0zm-127.13-3.2195c7.5327-9.6361-12.265 7.1735-2.0195 2.5804.67317-.86015 1.3463-1.7203 2.0195-2.5804zm115.63 2.7195c-1.2775-1.7937-1.2775 1.7937 0 0zm34.823-1.8329c-2.0082-6.8761-4.5258 7.4464-.0143.07381zm-213.82.28427c-1.927-5.45-13.504-22.507-8-9.0894-.1212 2.8478 6.2498 11.632 8 9.0894zm-8.0278-.7014c-2.9864-4.883-7.2489-8.9734-7.1661-15.097-7.6079.49856-3.9068 8.7164 1.2219 9.3955 3.0616.70498 1.0373 9.5686 5.9442 5.7017zm194.03-.25c4.465-4.2012-8.919 3.1014 0 0zm4.5-2c1.723-3.3922-5.5048 2.4958-.73023.70625zm10 0c1.294-3.6331-4.2634 2.1065 0 0zm-1.8204-4.2906c-.13458-3.2007-9.5804 5.5523 0 0zm15.82.29064c-10.258-3.5341-7.2355 2.6308.24319.8889 2.8762.055876 1.5917.011094-.24319-.8889zm14.5-.8786c-6.179-2.275-20.911-3.9759-6.476.8343 3.6743.9394 23.184 1.4044 10.376-.1686-1.3002-.2219-2.6003-.4438-3.9004-.6657zm-270-5.4272c-2.4559-1.2943-7.8821 12.706-.72162 1.6676l.72158-1.6676zm141.67 4.6391c-5.2936-2.8533 1.7641 4.0637 0 0zm129.94-4.3073c2.5191-6.1512-10.366-1.4272-7.6106-5.8284 4.5404-1.7371 6.2939 3.1871 11.004 1.8023 2.1056-4.2584 1.9129-4.993-4.5915-5.2329-4.5526.36352-8.2669-1.4532-11.969-3.0342-2.571.53437-13.935-2.0218-10.124.7559.95876 5.0412 4.8607 3.5526 9.3905 5.7537 1.7973 3.4269 11.739 1.796 9.5572 5.3932-2.6218-.43286-13.094-1.7266-7.6536 1.4493 3.6099-.56772 13.557 4.7249 11.997-1.0589zm-18.337 1.318c-15.187-.07148 4.7751 1.2282 0 0zm30.731-.84406c-1.2775-1.7937-1.2775 1.7937 0 0zm-56-8.941c-2.7727-4.7911-2.9485 2.6265 0 0zm-206.5-4.559c1.294-3.6331-4.2634 2.1065 0 0zm3.5-5.5c-1.2775-1.7937-1.2775 1.7937 0 0zm7.5-1.5c1.2059-3.3896-5.993 1.4658 0 0zm164.25 194.37c-4.1608-3.335-4.1007-5.4071-9.1762-6.9475-5.8789-8.155-6.246 1.7633-13.574-.41818 3.3696-2.1555 8.0712-10.162 1.5801-11 3.427-5.7339-3.5833-5.6155-9.5957-6.3797-5.9196 1.1514-17.024-4.3551-5.5434-3.6203 5.229-1.2621 7.153 3.4037 12.461 2 4.5369.46599 8.9087-6.3167 10.529 1.2361 4.3859 2.5964-2.001-4.3849.96457-5.9792 5.8469-6.1599 11.769-11.99 18.605-16.914.5968-7.8622 11.107-11.458 15.411-17.743 6.0948-6.2819 17.243-12.122 20.598-19.1-7.1946-2.4347-20.902-8.1106-21.83-13.261 2.7234 3.0144 23.571 13.997 19.092 7.6239-2.1104-4.9408-8.625-3.2872-10.037-8.2935-7.9854-4.0783-20.1-5.0176-26.234-10.349 5.2858-.33915 11.428 3.8656 15.581-2.0513 6.7508-3.9425 12.259-6.8654 8.7992-13.791 4.3968-7.6833 1.1083 10.084 6.7169.69986 4.0692-4.7284 12.325-10.604 8.6778-17.463-1.0086-3.5565-1.9036-10.933 1.3407-12.269 6.0339-1.9037 10.788 2.9753 16.067 5.0742 6.8898 6.6555 12.334 14.382 16.81 22.826 1.5278 5.3591 4.7434 9.8364 4.0071 15.553.79801 5.4804-.79175 10.438-3.5 15.15-7.7233.85818-6.7875-10.065-14-10.919-11.066-.31912-22.486-.2784-32.5 5.0886-.57674-5.199 7.6695-3.8946 11.126-6.1208 5.0168-2.6163 11.738.16565 16.207-2.9018 4.4005-6.654-10.252.32428-13.432.10603-5.843.26858-10.877 4.2639-16.175 5.423-5.062 6.6587 11.773 9.4856 15.147 14.361 9.7558 3.1538 14.528 8.0779 15.039 18.178-2.4403 3.3298-1.3702 7.2318 2.037 2.0116.30719-7.4153 8.4182-17.226 3.0601-23.183-2.4443-1.7772-11.756-8.6435-4.6502-6.2003 7.6585 3.8761 11.802 9.5852 7.6806 17.88-2.6378 6.6099 4.0019 10.454-2.1892 17.204-3.3752 6.7449-10.712 3.0214-12.146 8.3799-3.0877 7.2982-4.6208-1.7205-3.6414-5.5628 6.879-8.6136-.0479-8.2607-5.1836-2.6926-3.3218.61113 1.4976 7.5726-5.9057 5-7.3226 5.0415-17.896 11.183-21.973 17.195-6.7145 3.0006-10.786 12.635-18.573 16.483-4.846 2.6702-6.3698 7.06-7.7562 11.14-8.0539 2.9969 9.1162 7.2129 10.329 4.1823-.68336-.46776-9.6031-5.4934-5.6375-6 4.4989.56784 6.966 6.1394 10.656 8.6989 3.8506 1.4917 4.4064 9.5831.48132 10.076-2.4082 1.0649-3.8577-1.3855-5.75-2.4097zm3.325-4.6407c-1.595-2.5595-3.5587 3.7362-.29953.62953zm-18.075-17.225c-1.6894-5.5265-3.0125 4.5874 0 .6885zm13.853-12.673c4.303-2.7929 8.2007-10.525 1.6302-3.7916-2.5787 3.1258-8.9024 7.803-9.153 9.9645 2.9449-1.278 5.169-3.994 7.5228-6.1729zm-.18614 4.5062c-5.2936-2.8533 1.7642 4.0637 0 0zm12.344-14.827c4.5266.42999 8.2234-8.3184 2.405-3.776-.83142-5.6426-11.768 11.441-4.8774 4.2817.9938-.90135 1.2725-1.7545 2.4723-.50569zm5.989-8.0068c4.8515-6.1053-9.8649 6.2008 0 0zm9.4607-5.2959c-.3924-8.1442-9.1834 6.8284-3.046 4.8256 1.4038-1.4592 3.1936-2.5324 3.046-4.8256zm4.206-5.8708c-5.2936-2.8533 1.7642 4.0637 0 0zm4.3333-2.8333c4.8515-6.1053-9.8649 6.2008 0 0zm6 0c-1.2775-1.7937-1.2775 1.7937 0 0zm-2.5427-2.4309c1.0873-5.4504-4.7398 1.3776 0 0zm10.282-12.884c-3.5418-3.5523-9.0271 12.487-1.6557 3.642 1.0869-1.4106 4.2926-1.7896 1.6557-3.642zm-24.428-22.554c6.5584-6.9481 17.982-8.9074 26.849-12.484 5.861.53445 16.079-5.1479 6.5293-2.791 2.3981-4.4912-.84051-3.0318-5.7453-2.4401-8.975-1.7875 9.1833-6.0398 2.5371-7.9157-1.0885-1.9669-1.2967-7.9084-6.3613-10.26-3.3251 11.775-14.541 20.216-23.901 27.927-9.5638 4.0546-13.206 10.323.0927 7.9634zm51.749-8.6312c4.159-.95542-4.1981-15.504-2.3089-8.7994 4.1344 7.1793-7.8673-2.0564-1.707 5.9058.47428 6.8866 3.2064 14.244 3.0336 3.4086-.29132-.84375.52451-.48493.98227-.51504zm-14.06 4c-1.1706-3.878-3.4681 2.0549 0 0zm4 .5c-1.2775-1.7937-1.2775 1.7937 0 0zm12-2c-1.2775-1.7937-1.2775 1.7937 0 0zm-7.6285-20.066c-2.6076-8.2401-9.6699-11.463-14.834-17.635-3.6738-2.2901-9.0492-4.0684-11.556.77553-.35621 5.2803 4.394 7.6922 3.0186.73547.48011-4.7377 14.443 6.2799 5.455 3.7043.2193 3.748 8.1715 1.6439 10.75 6.6225 2.4879 2.5726 14.454 19.415 7.1661 5.7975zm-5.2445-.18393c-4.7707-7.4568-8.5368-6.0121-1.236.62076 2.3273 2.0555 2.5546 1.2225 1.236-.62076zm-100.82 118.87c-6.1846-1.9741-15.631-4.5778-7.5508-5.6266-8.0417-5.258 6.9071-.20063 10.249-1.4896 1.0717 5.6172-15.26-.29149-2.1933 4.6851 10.559 2.9872 7.8317 5.9194-.50456 2.4311zm69.247-6.6419c-5.4004-3.1075-10.154-7.8289-8.5491-14.402.009-5.0536 7.3826-6.3541 9.0192-8.672.27919-3.4331 5.2046-18.996 6.6384-12.864-2.3749 4.5671-4.4127 9.2084-3.6576 14.464 5.6378-4.1649 9.4266 10.396 4.9955 3.8983-4.4458-6.3933-5.5145-.58508-2.9955 3.6542-1.3573 3.1479 2.05 10.458 5.1495 6.9646.50673 5.8155-.92706 9.682-7.386 8.501-1.1047-.17672-2.1528-1.118-3.2145-1.5439zm.45092-6.2832c-3.5585-2.0698-2.8368-15.565-5-6.6386-1.0343 2.9495 1.6602 9.0343 5 6.6386zm3.9682-3.9411c-3.1493-11.933-5.4186 2.5478.0171.93863l-.0147-.81137zm-210.47 8.6857c-17.959-.21207-31.886-14.452-41.02-28.603-2.5653-7.5639-7.1451-14.67-5.7009-22.947-.09283-6.655-.49796-13.371 3.0306-19.321 2.3635-7.4328 4.9636-4.6997 3.7766.99364 3.5852 4.963 13.756 2.6269 12.376 10.214 2.5407 3.7879 10.625 8.0633 15.449 4.5935 19.764-9.3668 38.716-20.277 58.464-29.593 3.298-1.5163 10.907-5.9321 2.9268.0381-7.6886 5.2175-20.571 8.9982-25.803 14.482-4.8982 1.5102-10.066 5.0094-14.506 6.2174-6.7617 4.4362-14.315 7.4955-21.52 11.139 1.8939 2.0145-5.8266 7.5579-3.1264 11.099 3.6709 2.7536 14.014-4.3323 7.1524 3.7524 11.114 1.1027 18.555-9.6589 28.455-12.944 5.1561-6.2899 13.289-2.9294 3.4402-.22001-9.2161 5.4541-18.368 11.545-27.304 17.138-6.1675 6.6746 3.6531 5.0086 6.7175.81332 15.321-9.6408 30.846-19.068 46.937-27.338 7.9119-5.0344 17.152-8.1381 24.581-14.18 8.1002.005 14.199-7.8916 22.726-9.1764 1.2954-2.2923 6.5364-6.65 9.8428-4.0194-7.6084 4.3168-1.9562 5.7669-7.8837 11.742-3.3212 5.6018-10.321 5.819-15.727 8.369-5.3059-4.8516 11.738-2.246 13.225-8.8845 7.0347-11.753-2.1015 4.2972-7.3261 1.1676-5.1496-2.5172-6.4831 5.5397-11.954 4.5797-11.018 2.325-18.147 8.1725-27.479 12.656-18.788 9.1593-35.757 21.723-54.375 31.019-7.5056 8.8354 8.9576 2.4062 12.224-2.3332 22.501-12.09 43.997-25.827 66.149-38.541 4.0977 4.9142-11.466 6.3657-14.423 10.785-20.788 12.579-41.76 24.831-62.883 36.865-1.2298 4.7197 10.265-1.3022 6.2988 3.8379-6.9301.47186-3.7828 7.2882-1.2415 10.662-3.7779.77584-10.807-1.6411-8.1981-6.3467-.4294-4.2345-4.0058-2.4412-5.4934-7.7165 1.9902-10.268-12.803.64342-17.842-5.9907-2.0573-4.0918-6.2724-7.8214-3.7705-12.679 2.0974-3.5993 9.1449-7.2787 2.4345-11.203-2.7488-5.6993-9.5136-12.639-8.1309-2.2782-5.1973.76359-2.5613 7.9394-2.6199 11.647 3.2383 6.8698 8.0122 13.643 10.62 20.176 5.5112 4.4593 9.1797 12.285 16.988 12.548 1.51 5.1207 8.0349 3.0635 12.071 4.5682 4.1564 1.8581 8.1485 2.949 13.139 2.2755 6.9973-4.4416 19.36-3.9496 25.447-12.401 5.7728-5.5599 12.391-10.495 15.687-18.009 6.42-7.6924-1.238 7.213-4.1429 9.3836-6.6938 6.2248-11.733 14.738-20.858 17.601-6.0266 3.6061-12.612 5.5705-19.714 4.7028-2.3754-.049-4.7502-.15333-7.1188-.34197zm-28.528-31.469c-1.5933-5.8853 9.3713 8.8822 2.8303-3.4818-.95384-2.4487-4.5772.6004-5.748-2.6731-1.4495 2.9377 2.9378 12.673 4.1347 7.6213-.40566-.48879-.81133-.97759-1.217-1.4664zm22.028-4.1214c-2.6055-6.3002-8.0798 8.4868-1.9792 3.1361.89491-1.0116 2.523-1.4906 1.9792-3.1361zm-8 .76198c.67415-9.082-12.61.58141-4.1437 2.893 2.7963-.19836 5.0105 1.1899 4.1437-2.893zm-2.5826-15.241c-5.0782-5.1945-7.4253 5.2844-1.8413 3.0173.45236-.95296 3.4583-1.8458 1.8413-3.0173zm-13.866-9.592c-6.0563-4.8802 2.4706 11.525 0 0zm-8.5518-2.1077c-2.013-5.6988-4.2501 3.0093 0 0zm173.75 61.098c-11.464-1.1708 2.2436-5.0778 6.8969-.49238 8.4098 1.3334 1.6901.91612-2.5141.76983l-2.2623-.12857-2.1205-.14891zm-147.29-9.3315c-.80276-5.8093 7.0554 4.4754.23252.37622zm151.04-3.9335c-9.2648-2.1994 15.668.50152 7.5655.78774-2.5413.02522-5.084-.22402-7.5655-.78774zm-157.5-3.8776c.19572-6.8406 4.7744-4.9983 3 1.1896.91005 3.3834-4.8564 1.8773-3-1.1896zm177.81-.80555c7.4813-.60027-3.2474 1.9774 0 0zm-6.5625-.97917c-5.2899-7.0176 11.883 3.9845 0 0zm4.75-2.1368c-5.935-2.6517-15.632-9.2132-3.7975-4.2744 1.6627-.17966 9.094 7.1725 3.7975 4.2744zm-67.473-3.7635c-13.015-5.8054 18.447.43422 2.3935 1.0922zm9.932-.50392c-1.1529-3.0907 18.71-1.1636 12.918 1.0665-3.97-.70461-10.01 1.4145-12.918-1.0665zm57.874-1.6001c5.2936-2.8533-1.7642 4.0637 0 0zm-51.098-1.041c-5.7523-2.3094 4.6795-2.683 7.2648-2.2287 9.7054 5.6873-3.7223 1.6423-7.2648 2.2287zm-7.7763-1.3588c-.47702-5.7524 7.2114 3.0228 0 0zm72.541-1.5799c-6.8214-4.2395 10.593 2.9479.34859.18462zm-39.812-1.4161c7.5232-8.5783-.95527 5.7541 0 0zm34.388-.8159c-7.6282-2.6876-9.5936-7.3788-1.2589-3.0738 3.0054-.22124 5.9211 6.2933 1.2589 3.0738zm8.4248-1.1216c2.6925-4.03 2.3567 3.8934 0 0zm-118.26-.61446c.34186-5.5639 8.5746-9.2085 1.3932-.21288-.71715.5729-.77904 2.0417-1.3932.21288zm119.72-2.4521c-.80276-5.8093 7.0554 4.4754.23252.37622zm-57.459-5.6655c-7.3259-.70037-18.183-8.8882-7.0399-3.8813 5.3444 1.0378 10.689 2.0756 16.033 3.1133.76598 3.4552-7.6305-.0145-8.9933.768zm-152-1.1514c-2.689-.20437-6.8471-7.5357-1.3651-3.1892 6.1209 1.0213 6.7779 5.4716 1.3651 3.1892zm32.44-.21291c1.2085-4.2385 9.8169-1.9315.56085.90747l-.42663-.69031zm64.56-.3447c2.1235-6.1674 1.8433 5.3167 0 0zm96-.059c-3.6201-5.8217 10.486 5.5034 0 0zm-171-1.5172c6.7102-6.2662 18.543-9.3739 26.812-14.688 9.8553-6.3621 21.503-9.829 30.433-17.294 3.4227 1.0636 14.464-6.9283 8.5632-1.1987-22.068 10.297-43.088 22.864-64.508 34.199-.90615-.17395-1.7704.55425-1.3-1.0172zm19.472-3.0273c6.7508-5.7628 20.949-12.137 30.549-17.393 10.167-1.7274 21.643-18.132 30.663-13.238-.42341 4.0578-10.307 2.6573-13.703 6.4892-15.816 8.0276-31.798 15.793-46.919 25.098l-.42648-.6904zm117.53-3.4555c6.4309-2.5432 6.3599 4.5237 0 .6885zm59.717-1.4072c-4.7067-5.5063-11.294-5.7418-15.753-9.8418-6.3715-1.2639-8.9214 6.0766-4.7657-5.1154 3.6961-2.7786 1.4519-9.4556 4.9009-13.24 2.7147-5.6573 5.3045-11.527 11.388-14.313 5.3251-5.4703 10.601-1.7286 2.2864.76991-3.7778 2.8714-6.1906 2.9241-8.2652 7.3453-2.6007 5.9358-9.3062 15.638-.50742 15.114-1.5152.20464-9.5072 1.6548-2 3.1885.50322 4.3334-11.13-2.7114-3.8143 4.0209 6.5258.87252 10.267 4.437 15.948 8.6004 6.0108 3.2814 4.7167-3.1616-.13401-2.4328 1.3481-7.1267 7.3796.12642 10-2.6885 3.0934-4.6649 12.864 6.666 1.5156 3-4.7165 4.7539-1.4653 13.112-10.799 5.5928zm5.8242-6.0263c-7.1801-5.6209 1.7451 5.2138 0 0zm-73.791 5.2712c11.596-.21625-4.4765 1.4811 0 0zm10.413-.69994c-9.7971-.3215-.24583-5.0641 2.766-.61659 10.054.37269 8.9957 3.3536-.45715 1.0617l-2.3089-.44508zm-146.46-1.1399c22.032-11.853 45.091-21.925 66.832-34.313 16.75-3.6339-9.4802 6.154-13.4 9.388-17.118 9.2645-34.714 17.683-52.14 26.427-2.1103.0483-4.9349.32198-1.4425-1.3967zm151.8-1.4978c-1.9971-2.0304-10.82-.17356-10.192-3.0423 6.7275 1.0403 17.008.44086 21.267 2.9205-1.7178 1.8057-9.2092 1.7786-11.075.12173zm43.508-6.9737c-4.331-3.9802 6.4493-2.1499 5.9916-4.6513 6.8388-3.5291 6.2628 6.5737-1 3.4993 1.1075 3.817-3.2048 1.685-4.9916 1.152zm-39.904-6.1112c-5.9266-3.213 6.6062-1.1464 9.1424-.77873 4.2382 3.7916-8.401.96043-9.1424.77873zm-2.1048-4.8081c2.4674-3.5916 9.8053-1.5177 12 .0289-1.9047 1.5065-10.004 1.3521-12 .0526zm-203.99-12.357c-.45729-9.0984-1.2274-18.325 9.0636-20.941 5.3357 3.2134 14.542 3.2177 11.923 11.52-.74407 8.1451-11.032 12.21-15.946 18.072-7.1812 9.1335-4.6608-3.8131-5.0403-8.5724zm12.832-12.568c5.6199-6.2375-5.5547-2.1149-6.3087 2.3326-3.018 6.3155-3.4052 15.192 1.0741 4.6674 1.7699-2.206 2.2835-6.1953 5.2346-7zm3.1539 7.6997c-.49091-3.2506-3.8285 5.1081-.29375.88779zm2.8594-7.382c-.40866-5.9655-3.28 12.951-.25246 2zm237.39 21.14c-7.6549-8.0896 11.561 5.658 0 0zm-127.18-2.7896c-7.0466-1.7518 9.8606-8.5017 4.2981-.5862-1.4242 1.6673-2.4212 1.595-4.2981.5862zm-3.0701-6.3752c.37997-5.1515 11.822-3.4276 5.4182.91776-1.3611-.0462-6.3649 2.2335-5.4182-.91776zm41.473-12.519c-2.1671-4.0182 8.4871-6.2902 7.5271-1.8052-1.2195 1.3777-5.828 4.1426-7.5271 1.8052zm-138.07-3.1065c1.0419-4.518 12.037-16.703-.74091-8.4736-5.9294 1.4809-.61179-5.7177.929-6.5847 8.6798-1.8242 17.526.09761 26.283.35711 2.3464 4.952 8.3553 2.105 12.677 2.8515 5.3681-6.014 14.541-2.9599 4.372-.11849-8.8859 2.058-16.251 4.6396-23.372 10.583-6.0312 2.8736-13.144 1.26-19.639 2.2093l-.42663-.69031zm21.329-4.9641c10.008-5.0446-6.3579 1.1403-6.4922-1.2873 8.2505-2.0266 5.7703-7.2856-1.4907-.75308-4.8479 4.4993 5.6283 5.2668 7.9829 2.0404zm-6.3622-5.8855c7.0156-3.3757-7.2785-1.2865-7.7133 3.0268-2.5446 5.9594 5.4357-4.4487 7.7133-3.0268zm10.061.10478c.000737-5.9463-7.4571 3.9735 0 0zm110.23 9.2285c.15963-8.2865 18.828-7.3003 25.001-13.845 14.009-7.2721 28.675-13.113 42.63-20.488 8.6826-.7694-2.4494 2.8981-5.2719 4.705-20.681 9.694-40.781 20.559-61.44 30.295zm103.33-2.3333c9.875-8.5867-3.3682 7.3878-1.6945 1.814.56483-.60466 1.1297-1.2093 1.6945-1.814zm6.5 2c-1.1031-8.7649 6.4825 4.5877 0 0zm-97-2.531c13.998-6.688 28.016-13.807 42.303-19.919 8.4823-4.8721 20.566-8.4229 27.278-13.55 5.733-1.2055 20.582-11.58 22.352-7.1451-9.1753 5.3344-21.385 6.3494-28.567 13.95-5.7823 2.5902-14.087 3.9859-18.601 8.6214-9.5711 3.5896-20.358 7.8316-29.268 13.577-2.2746.59082-25.447 11.946-15.497 4.4656zm-156.5.49961c4.8692-6.2344 5.6484 2.9434 0 0zm247.71-18.969c4.327-7.3873 1.769 6.8614-.11239.42979zm-198.71-5c2.6925-4.03 2.3567 3.8934 0 0zm-5.5-1c-.64227-3.7896 7.6845 2.0754.85978.70625zm-4.6875-1.6831c7.4837-.60128-3.2481 1.9778 0 0zm73.567-2.3376c-6.7539-3.3885-15.26-8.4573-21.839-3.8327-4.8944.18593-10.227 1.3574-12.614-4.0991-3.8109-2.0888-5.7106-10.859-1.023-4.3239 4.7826 4.5981 13.361 1.6244 19.75 3.3518 4.9357 2.1101 11.083 3.2208 13.921 6.1029 3.2585-.92996 5.3702 4.4969 1.8051 2.801zm-26.379-6.9793c-1.224-4.0087-8.5672 2.3704 0 0zm103.01 3.95c-1.4291-7.3235 4.9102-12.815 2.4838-3.2203.88638 1.3834-3.2208 6.8627-2.4838 3.2203zm-143.68-3.6167c5.2936-2.8533-1.7641 4.0637 0 0zm71.241-2.5897c-2.6384-7.7801-6.9205-11.901-14.43-14.244-1.8598-8.2389 2.9565-7.3215 3.5653.64837 4.7472.63808 9.1646-1.4226 6.8499-6.5377-3.3678-2.1313-9.8155-14.824-9.4509-6.0529-.53256 6.943-5.0684-3.2756-3.7508-5.3157 5.3812-2.3129 15.536 1.1381 19.48 6.8827 6.0242 9.5735-12.64 15.255.30943 24.625 4.5777 5.0397-1.4795 4.1583-2.5727-.0063zm1.4256-19.862c-1.9114-6.1808-2.6874 8.5592 0 .37699zm17.68 18.057c-3.5625-5.0259 9.4596-10.286 11.578-14.868.64449-6.0252 3.0089-3.4133 5.9641-4.6699 2.9218 1.0024-3.4355 8.2609-4.1368 4.1372-.17603 5.7482-1.3949 7.409-6.1874 8.9705-5.5749 3.0855 3.6293 2.747-3.7874 6.8483-1.663 2.1494-1.9268 1.5416-3.4302-.41786zm44.932 1.2421c-2.5888-4.888 9.9423-14.41 2.4213-16.181-7.0134-7.4608-27.078-3.3924-28.033-14.875-1.9456-7.4171-1.6922 3.4317-1.0553 6.3749-1.5652-6.169-2.7865-12.486-3.2119-1.936-2.6453 6.1844-1.8627-6.5945-2.8227-9.064-4.2777-2.89-3.9306-10.671 1.7914-10.086 6.7376 2.2138 7.4196 9.3544 9.9451 13.486-1.7221 4.2613 5.2533 2.823 2.8968 7.1403 5.7484-1.3342 13.312-4.5851 17.042 1.7701 9.1394 7.5989 3.7072 2.2765 4.3423-2.0712 2.8404 6.8915 9.7249-2.6563 9.0473-7.7389-2.1207-6.4458 7.748-6.0414 6.8524-1.2323-5.7244 3.3713-7.8337 8.6077-10.992 14.09-2.0569 7.1426-3.2711 15.136-7.5299 21.445l-.42664-.6903zm-2.612-21.181c-1.1706-3.878-3.4681 2.0549 0 0zm-5.3333-3.6667c-5.2936-2.8533 1.7641 4.0637 0 0zm-84.417 23.446c-7.5389-5.7488 11.111 3.7769 2.3658-4.6133-4.1342-6.5086-15.728 3.4573-16.616-2.2028 4.206-2.4961 13.784-5.5079 17.867-.63256 6.6492 3.6527 3.1821 10.943-3.6168 7.4486zm87.75-1.3784c-1.7066-6.2455 9.6831-19.37 5.5015-7.0925-2.1081 1.8281-2.0845 13.954-5.5015 7.0925zm-4.6381-1.7068c.37432-6.4254 9.958-19.059 4.0586-4.4256.47061 2.8431-4.5137 11.685-4.0586 4.4256zm20.744-.69428c-.79016-2.4509 4.2471-12.074 4.9483-7.3195-2.5308.76553-4.7733 10.954-4.9138 8.1978l-.0319-.81088zm-24.106-1.441c3.9936-2.9662.52584-10.856 5.4262-12.553 2.4556 1.589-1.962 13.312-5.4262 13.994v-.8115zm-2.5598-2.559c-2.0779-6.0282 7.4466-17.017 3.1384-5.4158-1.694.69657-4.5908 14.694-3.1384 5.4158zm-4.376 1.45c-1.1835-4.8637 6.5277-21.688 3.9656-7.5363.0651 1.0559-3.6796 10.755-3.9656 7.5363zm-3.6673-2.7c-.98-2.878 4.5464-18.207 4.3276-10.002.77981 1.8718-5.7426 18.119-4.3276 10.002zm-3.0272-5c-.14518-11.861 7.0897-1.7867.44627 2.25-1.9981.61158-.40639-1.3698-.44627-2.25zm-64.37-3.25c-6.7649-2.4855-13.618-6.8825-18.155-13.607-3.5483-5.3563 4.6488-5.0829 8.1605-5.8218 4.994-.21168 9.9649 2.879 12 7.1395-.71222 3.1613 1.2931 15.862-2.0057 12.289zm-1.9331-6.625c2.583-4.2421-2.6921-8.3508-6.5655-9.6671-2.4634-1.3991-11.782 2.4046-5.0684 2.5311 5.0628-2.3437 11.603 3.7656 3.4001 1.8465-8.8924-3.0876 6.868 12.383 8.2337 5.2895zm93.933-1.9407c6.1321-7.2182-5.0142-6.855-4.8109-2.0726-7.4657 1.8538-7.9162-3.3639-7.5875-9.4773-6.9857-8.7721 8.3831-9.1876 4.1726-2.4718-2.5958 2.4889-4.8896 8.5113-.64824 10.283 4.0964-3.5043 7.8622-4.7365 10.374-8.5563-2.7424-5.734 7.3499-6.1332 5.1974-.9464-4.8728 2.9512-3.6255 8.3262-3.6974 13.179 1.2493 1.705-4.2429 1.6863-3 .06228z"/>
</svg>
