<?xml version="1.0" encoding="utf-8"?>
<svg xmlns="http://www.w3.org/2000/svg" xmlns:cc="http://creativecommons.org/ns#" xmlns:dc="http://purl.org/dc/elements/1.1/" xmlns:inkscape="http://www.inkscape.org/namespaces/inkscape" xmlns:rdf="http://www.w3.org/1999/02/22-rdf-syntax-ns#" xmlns:sodipodi="http://sodipodi.sourceforge.net/DTD/sodipodi-0.dtd" xmlns:svg="http://www.w3.org/2000/svg" height="198.03297mm" id="svg1" version="1.1" width="147.80641mm" sodipodi:docname="owl_A170.svg" inkscape:version="1.4 (e7c3feb100, 2024-10-09)" xml:space="preserve" viewBox="0 0 147.80641 198.03297">
	<title id="title1">Owl</title>
	<sodipodi:namedview bordercolor="#000000" borderopacity="0.25" id="namedview1" pagecolor="#ffffff" inkscape:current-layer="svg1" inkscape:cx="329.04649" inkscape:cy="329.04649" inkscape:deskcolor="#d1d1d1" inkscape:document-units="mm" inkscape:pagecheckerboard="0" inkscape:pageopacity="0.0" inkscape:showpageshadow="2" inkscape:window-height="1080" inkscape:window-maximized="0" inkscape:window-width="1239" inkscape:window-x="0" inkscape:window-y="0" inkscape:zoom="0.56982829"/>
	<defs id="defs1"/>
	<g id="layer1" style="display:inline" transform="translate(-31.578918,-45.382415)">
		<path xmlns="" d="m 91.025728,48.95875 h 5.404256 c -2.036145,1.983995 -6.716884,4.826655 -9.457447,2.97234 l 3.782979,-2.702128 -7.070879,3.017926 -6.43976,1.575691 c -1.744026,1.506044 -3.956426,2.151741 -6.214894,2.431915 v 0.270213 c 3.137311,0.359816 6.252365,-0.864915 9.452904,-0.800759 1.894128,0.03796 3.716398,0.397716 2.166245,2.422035 v 0.270213 l 4.323405,-2.431915 c 1.26795,1.055173 1.325987,1.939747 1.080851,3.512766 2.362688,-1.313906 4.655002,-3.531023 7.295745,-1.621276 l -1.621277,1.891489 c 2.524595,-1.063617 3.794895,-1.599045 6.485104,-0.810638 v 0.540425 l -3.782976,2.97234 c 1.682224,-0.353219 3.21172,-1.373988 4.897076,-1.607043 1.79991,-0.248888 2.28068,0.900885 1.85824,2.417682 l 4.59362,0.270212 -1.62128,1.080851 v 0.540426 l 4.35886,-0.693575 3.58063,-0.390146 5.03073,-1.618407 v -1.621276 c -2.68301,-1.270432 0.74179,-2.488385 2.16197,-2.747779 3.1518,-0.575653 6.07901,1.172335 9.18696,1.396715 v -0.540425 l -2.70212,-2.161702 8.6468,-0.270213 v -0.270213 l -1.89149,-0.540425 v -0.540426 c 3.66333,-0.502625 7.23574,-0.307189 10.80129,0.662948 2.11787,0.576247 4.06629,1.552998 6.22212,2.03918 -1.14997,-1.20852 -2.44917,-1.592976 -3.96174,-2.197293 -1.39348,-0.556753 -2.71107,-1.337771 -4.18025,-1.684806 -2.60937,-0.616357 -5.44611,-0.580354 -7.99686,-1.34191 -3.35557,-1.001852 -6.2553,-3.242669 -9.56425,-4.394025 -3.56806,-1.241504 -7.28187,-2.284126 -11.04584,-2.703909 -2.75265,-0.306991 -5.6101,-0.108026 -8.37659,-0.107828 -5.02816,3.63e-4 -11.070333,0.686681 -15.402132,3.51275 m 19.725532,-1.621277 v 0.540426 l -3.78298,1.351063 v 0.540426 l 6.48511,0.270213 c -1.49742,4.400506 -7.30234,2.387995 -10.5383,1.621276 v -0.540425 l 1.08085,-0.540426 -4.863828,-1.621276 v -0.810639 c 3.936148,-0.864684 7.574638,-1.400376 11.619148,-0.810638 m 4.05319,1.891489 -2.1617,-1.080851 V 47.06726 c 1.37885,6.44e-4 3.25683,-0.284577 4.52649,0.359009 0.68087,0.345138 0.70158,1.046052 0.0294,1.415071 -0.7038,0.386369 -1.61679,0.351009 -2.39417,0.387622 m -15.672338,1.621277 c -0.75745,3.102928 -3.815131,3.084967 -6.485107,2.702127 v -0.540425 c 2.019125,-1.314236 4.077518,-2.019718 6.485107,-2.161702 m -2.972341,4.86383 v -0.540426 c 1.650279,-0.750408 4.294459,-2.233032 6.042719,-0.88934 1.5453,1.187689 -0.99927,2.553827 -2.08075,2.460051 -1.324549,-0.114854 -2.668728,-0.718413 -3.961969,-1.030285 m 13.510639,-1.89149 c -0.72784,2.81967 -3.21894,1.768934 -4.86383,0.270213 l 4.86383,-0.270213 m -2.97234,4.053192 c -1.47778,0.659831 -2.3902,0.527198 -3.78298,-0.270213 v -0.540426 c 1.31622,-0.358084 3.18932,-0.687753 3.78298,0.810639 m -43.234044,2.161702 v 0.270212 c 3.81017,0.628661 7.532783,1.47611 11.289691,2.35252 1.086413,0.25344 3.322661,0.384028 4.002774,1.393318 0.580713,0.861781 -0.29719,2.074044 -0.739762,2.795689 -1.435724,2.341025 -2.90569,4.418417 -3.610228,7.119753 -0.775481,2.97333 -0.697026,6.875665 0.248339,9.802667 0.425828,1.318425 2.434954,3.192202 1.954483,4.617333 -0.338875,1.005151 -1.734085,1.381361 -2.614644,1.701529 -1.291006,0.469426 -2.659601,0.842667 -3.868038,1.507627 -1.196274,0.658264 -2.203899,1.58087 -3.420062,2.215946 l -4.176601,5.982481 -2.28286,6.421152 -1.917135,5.97083 v 0.27022 c 0.699269,2.82226 -0.471013,5.83292 -0.730003,8.6468 -0.574367,6.2404 -1.29924,12.4251 -1.891464,18.67097 -0.30399,3.206 -0.02139,6.48387 -0.09973,9.70137 -0.174886,7.18314 -0.264927,14.42795 0.04795,21.61702 0.130826,3.00612 0.781306,5.87387 0.781727,8.91703 4.45e-4,3.20521 -0.259188,6.5393 0.09416,9.72765 0.270683,2.44247 0.975242,4.97074 1.473714,7.38576 0.241158,1.16838 -0.123809,4.63949 1.206017,5.17099 1.454571,0.58134 3.930302,-1.77152 5.088969,-2.46193 4.851535,-2.89093 9.628156,-5.87162 14.294621,-9.01396 h 0.540425 c 0.598228,4.53554 -1.718062,6.64326 -4.892605,9.40338 -3.514968,3.05611 -7.389612,5.6464 -11.074159,8.48485 -1.984383,1.52871 -3.353981,4.06728 -5.650257,5.07985 -0.987669,2.08984 -2.041658,1.96046 -4.053192,1.35106 -1.442708,5.16127 -4.450504,10.36084 -8.376596,14.05107 v 0.27021 c 3.742642,-0.95513 4.928621,-3.63837 7.141837,-6.43004 2.328087,-2.93655 4.996697,-5.54653 7.278943,-8.55348 1.100976,-1.45058 2.128198,-2.95159 3.566416,-4.10118 0.481074,-0.38454 1.270663,-0.98897 1.922471,-0.64149 0.697904,0.37207 0.520651,1.42759 0.42443,2.05452 -0.27909,1.81842 -0.634206,3.56943 -1.091654,5.34895 -0.694482,2.70158 -0.830693,5.50242 -1.303397,8.23512 -0.288849,1.66983 -1.007364,3.16501 -0.671845,4.89766 0.364298,1.88128 1.56547,3.40367 2.728544,4.86441 3.657133,-0.91415 3.29669,3.35795 6.291345,4.2051 1.141382,0.32289 2.334123,-0.0774 3.471399,0.31735 1.422365,0.49368 2.566229,1.60727 3.910589,2.26969 1.649046,0.81257 3.695152,1.21525 5.511848,1.44003 2.39348,0.29615 3.956818,-0.86228 6.186997,-1.263 1.145856,-0.20589 2.286946,0.23322 3.42849,-0.0441 1.538599,-0.37378 2.735945,-1.53761 4.235466,-2.0181 1.348458,-0.43209 2.727291,-0.41084 3.939691,-1.23534 2.49776,-1.69864 3.03488,-4.01207 4.1432,-6.61028 2.42955,-5.69546 3.37143,-12.17588 5.00158,-18.15414 0.94296,-3.45811 2.18181,-8.10866 5.76024,-9.71147 0.79632,-2.22196 2.48015,-3.73231 4.11333,-5.37196 4.2451,-4.26192 9.17645,-6.85121 14.72941,-9.03824 1.7145,-0.67525 3.59679,-0.60725 5.2062,-1.53235 1.57165,0.53917 3.22002,0.63029 4.78585,1.13389 1.32481,0.42608 2.53384,1.21329 3.83261,1.72465 2.02099,0.79575 4.18866,2.14468 4.44502,4.53454 0.16166,1.50697 -0.87948,2.73634 -1.69543,3.88804 -1.6317,2.30311 -2.91716,4.84856 -4.61273,7.09335 l -0.81064,4.05319 h 0.54043 c 0.61736,-1.78863 1.42586,-3.49213 2.32044,-5.15875 1.01219,-1.88572 2.37035,-3.61332 3.75496,-5.24109 0.61682,-0.72516 1.43699,-1.47667 2.46952,-1.32359 2.38026,0.35287 3.58251,4.57061 4.95044,6.18921 1.52135,1.80016 3.73542,2.44162 5.85244,3.25369 1.71283,0.65701 3.0984,1.30962 4.97135,1.19968 v -0.27021 c -2.25283,-1.40815 -4.99557,-1.93992 -7.15406,-3.41979 -1.47115,-1.00863 -2.5091,-2.67155 -3.41228,-4.17685 -0.6204,-1.03399 -2.45053,-3.61333 -0.96228,-4.62086 1.16361,-0.78775 3.17429,-0.48574 4.50261,-0.48066 4.99483,0.0191 9.40508,2.50208 14.32175,2.70028 v -0.54042 c -2.58854,-0.82463 -5.00772,-1.89065 -7.67401,-2.50481 -2.27275,-0.52351 -4.6984,-0.62009 -7.00751,-1.0513 -2.12702,-0.39724 -4.53944,0.16888 -6.54224,-0.76799 -1.81648,-0.84971 -3.07952,-2.63512 -4.58441,-3.90568 -1.62763,-1.37419 -3.50484,-1.8145 -5.34154,-2.76945 -0.61629,-0.32042 -1.26698,-0.85436 -0.89372,-1.61207 0.68408,-1.38865 2.74978,-2.25098 3.91854,-3.19539 2.94348,-2.37845 6.55839,-4.44598 10.35045,-5.08658 3.9883,-0.67376 8.36969,0.62429 12.27681,-0.44143 2.16018,-0.58921 4.09704,-2.37941 5.76785,-3.79509 v -0.27021 c -2.54367,0.36927 -4.2127,2.28981 -6.60368,2.94753 -1.20309,0.33094 -2.41395,-0.0761 -3.63251,0.0114 -1.74664,0.12538 -3.36994,0.6176 -5.14871,0.51229 -0.76639,-0.0454 -2.38501,-0.19708 -2.24086,-1.32718 0.22129,-1.73497 3.87377,-3.14765 5.13567,-4.05375 1.26046,-0.90504 2.41283,-1.78992 3.84328,-2.41367 l 1.08085,-2.43192 -5.47386,3.0341 -2.43275,0.81745 0.38686,-1.99926 3.76969,-4.82111 2.17545,-9.90218 4.27674,-12.79921 h -1.35107 l -3.68983,9.82422 -3.56237,11.41477 -4.68375,5.79726 -4.33197,5.42177 -4.95269,3.84021 -4.99003,2.61241 c -2.14353,4.75288 -7.88626,6.03032 -12.42979,7.56595 -0.93906,1.67153 -2.16177,2.31129 -4.05319,2.43192 v -0.54043 l 0.66334,-4.21884 3.66108,-1.05258 8.91601,-1.75411 v -0.54043 l -14.32128,0.54043 v -0.54043 l 4.42209,-3.82368 3.41408,-4.2827 5.36901,-10.52431 3.25072,-9.75422 1.42526,-4.92503 0.42154,-7.76239 0.56193,-5.07495 -0.70524,-4.11846 -0.0771,-5.64923 -0.70699,-4.09855 -0.0817,-7.26945 c -1.04766,-1.53095 -0.75108,-3.06561 -0.89957,-4.8288 -0.11499,-1.36543 -0.49452,-2.7281 -0.82355,-4.05517 -0.41699,-1.68189 -0.99708,-3.41343 -1.76337,-4.96937 -0.73872,-1.499937 -1.69521,-2.813068 -1.83191,-4.532112 -0.14086,-1.771111 0.47794,-3.418347 0.64413,-5.158353 0.17517,-1.834178 -0.14788,-3.784528 0.41109,-5.566326 0.42702,-1.361207 1.37201,-2.492459 1.94749,-3.789262 1.00915,-2.274049 1.80979,-5.271013 2.29188,-7.714819 0.41108,-2.083808 -0.66574,-4.324608 -1.42324,-6.223073 -0.37711,-0.945118 -1.1306,-2.306737 -0.53682,-3.309777 0.43711,-0.738401 1.45726,-0.926069 2.21175,-1.15284 2.2658,-0.681024 4.1861,-0.639001 6.52534,-0.603361 0.88308,0.01346 2.48265,0.191807 3.14464,-0.556192 1.14361,-1.292186 -1.79316,-2.646664 -2.60212,-2.934161 -1.32259,2.175408 -3.42761,1.71342 -5.6745,1.647269 -3.41853,-0.100637 -6.84823,-0.02563 -10.26805,-0.02601 -2.23387,-2.47e-4 -4.41741,0.151863 -6.48511,-0.810621 -2.74741,1.615751 -5.62887,2.644964 -8.47516,4.033565 -1.39744,0.681766 -2.94996,1.302328 -4.02167,2.470194 -4.2891,4.673918 -2.12994,11.863732 -2.7212,17.544664 -0.24775,2.380459 -1.66616,4.318176 -1.53516,6.755831 h 0.27022 l 2.1617,-2.702128 0.27021,4.593617 3.78298,1.351064 v 0.540425 l -4.86383,0.540426 v 0.270212 c 1.09861,1.398051 0.20367,1.896091 -0.81064,2.972341 1.91559,0.10321 3.17175,0.587115 4.59362,1.891487 l -4.59362,1.35107 v 0.54042 l 0.81064,1.08085 -0.81064,0.81064 5.67447,0.81064 -2.70213,1.89149 c 3.3061,2.40676 -2.37407,3.22208 -4.05319,3.51276 v 0.27022 l 9.72766,1.62127 v 0.27022 l -4.86383,1.62127 v 0.27022 l 0.81064,0.27021 v 0.54042 c -2.80258,1.38245 -4.29163,0.33673 -7.1003,-0.12753 -2.61727,-0.43262 -5.63782,-0.40603 -8.30183,-0.41289 l 1.89149,-2.1617 c -0.83393,-0.68492 -2.03709,-1.18895 -2.73616,-2.00056 -0.83244,-0.96646 0.55607,-0.89311 1.11488,-0.70157 h 0.54043 l 4.05319,-1.08085 v -0.27021 c -2.57585,-0.38759 -6.73987,-0.17763 -7.56596,-3.24256 l 6.48511,-1.08085 v -0.54042 c -3.0573,-0.003 -6.32746,0.5136 -8.3766,-2.16171 1.95841,-0.0405 3.82633,-0.33634 5.57375,-1.28636 0.45562,-0.247701 1.59876,-0.987059 1.02776,-1.636681 -0.46742,-0.5318 -1.48784,-0.288305 -2.09326,-0.269933 -0.96153,0.02917 -1.74229,-0.217602 -2.61676,-0.590002 l 1.3463,-1.597478 2.16647,-1.104649 -4.59362,0.810638 1.62128,-3.782978 h -1.62128 c 0.74721,-0.751249 1.57153,-1.452872 2.18217,-2.325374 1.06065,-1.515494 1.79259,-3.802621 4.03272,-3.349094 h 0.27022 v -7.295745 l -1.62128,0.270213 c -0.39665,3.945627 -2.51137,6.927138 -6.262298,8.419426 -1.008745,0.401328 -2.08497,0.474209 -3.136325,0.702877 -1.353752,0.29444 -2.664112,0.883073 -4.079167,0.678055 -1.651887,-0.239322 -2.392399,-1.61308 -3.780752,-2.30517 -1.152948,-0.574746 -2.567071,-0.462977 -3.81805,-0.469656 l 1.891489,-1.351064 v -0.270213 l -3.512766,-2.161702 1.351064,-1.621276 h -0.270213 l -0.270213,0.810638 H 83.459774 L 82.10871,79.763023 84.540625,79.49281 79.406582,76.790682 84.810838,75.439619 81.298072,74.62898 v -0.540425 c 1.425824,-0.321043 2.387443,-0.664796 3.242553,-1.89149 l -2.161702,-1.891489 4.323404,-1.351064 V 68.6843 l -2.431915,-0.270213 c 0.645326,-2.0593 2.162337,-2.938415 4.313517,-2.902577 0.685098,0.01141 1.792254,0.08035 2.085169,0.845454 0.540673,1.412218 -1.586247,3.695667 -1.778631,5.193102 -0.715625,5.570004 4.118147,8.283478 8.890584,9.023595 1.87592,-1.375143 4.329649,-1.641249 5.992459,-3.371293 3.12296,-3.249249 2.32787,-8.062381 -1.37851,-10.464511 -5.208107,-3.375399 -11.933575,-3.489214 -17.843861,-4.055764 -1.15407,-0.110631 -2.16905,-0.648665 -3.299444,-0.831666 -1.516063,-0.245424 -3.134586,0.845141 -3.736602,-1.002297 l -5.786073,-0.632503 -4.016793,-1.7122 -4.248198,1.534065 m 88.629791,-1.89149 v 0.810639 h 1.35106 l -1.35106,-0.810639 m -16.48298,9.727659 2.97234,0.540426 v 0.540425 l -1.89149,1.351064 v 0.540426 l 1.89149,-0.810639 1.08085,1.080851 1.35106,-1.080851 c -0.13329,1.608512 -0.9103,1.97443 -2.43191,2.161702 l 4.59361,0.810639 c -1.12953,1.698379 -2.63501,2.509644 -4.59361,2.97234 l 0.27021,0.810638 h 4.3234 c -0.51136,1.290685 -1.5137,0.91906 -2.68607,1.180961 -1.00709,0.224974 -2.06079,0.804173 -2.98839,1.250954 l 1.89148,1.351064 -3.78297,1.351064 v 0.270212 c 0.89433,0.20454 3.62077,1.200405 1.41716,1.956157 -0.29413,0.100868 -0.61839,0.131313 -0.92476,0.17134 -2.46227,0.321735 -4.50614,0.760006 -6.97751,0.304418 v 0.540426 l 2.70213,1.351063 v 0.540426 l -2.97234,1.080851 c -3.0125,-1.494449 -6.51811,-1.805481 -8.86041,-4.520027 -1.38181,-1.60142 -1.90508,-3.848438 -2.75874,-5.748058 3.36647,-0.229624 5.59025,2.747235 8.92288,2.589732 1.11227,-0.05256 2.1909,-0.396694 3.17517,-0.907219 0.7588,-0.393576 1.4619,-0.891599 2.08601,-1.475631 4.131,-3.865754 0.86501,-8.576154 -1.75428,-12.096243 1.58846,-1.380618 3.27398,-1.748252 5.36404,-1.561969 1.41563,0.126167 2.46361,0.899235 1.53525,2.331739 -0.26879,0.414753 -0.62082,0.761227 -0.9546,1.121719 M 97.240622,78.682153 c -1.95073,-0.593086 -4.486103,-0.770348 -5.818052,-2.498413 -2.809963,-3.645646 0.708592,-8.954393 4.72832,-9.587489 2.368411,-0.373011 5.56283,1.112483 6.29373,3.481446 0.47878,1.551827 -0.0384,3.763105 -0.75561,5.187297 -0.84939,1.686603 -2.956239,2.415241 -4.448388,3.417159 m 29.993618,-1.080851 3.51277,-1.89149 c -0.25325,1.626439 -0.82497,2.495708 -2.43192,2.972341 l -2.43191,0.810638 0.81063,-1.621277 c -2.86306,-0.06388 -4.36965,-1.142697 -6.4851,-2.97234 l 1.89149,-1.891489 c 1.73851,0.702579 4.15548,-0.05857 4.28138,-2.27108 0.0675,-1.186205 -0.79873,-2.388243 -1.30904,-3.403388 1.14192,0.01547 2.47842,-0.07072 3.49366,0.548325 1.04106,0.634796 1.26892,1.848048 1.33176,2.976315 0.16088,2.888707 -0.88299,4.572441 -2.66372,6.743445 M 94.538494,70.305557 c 0.0168,0.704641 0.0061,1.428348 0.165799,2.119564 0.0895,0.387425 0.224125,0.768236 0.455704,1.095348 2.547709,3.598658 5.959843,-4.005281 1.382787,-3.659978 -0.675557,0.05096 -1.350989,0.278839 -2.00429,0.445066 m 13.510636,16.212765 c 0.0786,3.290893 2.10403,7.165091 5.40426,8.106383 l 0.81064,-3.512766 -1.89149,1.89149 h -0.54043 l -3.24255,-6.485107 h -0.54043 M 79.406579,97.597045 68.868281,98.677896 c 1.719749,-3.531484 8.174176,-4.453364 10.538298,-1.080851 m 16.753192,-1.891489 c -0.66247,1.189635 -1.381393,1.614663 -2.702128,1.891489 v -1.891489 h 2.702128 m 0,4.863834 -1.891489,-1.351068 c 1.245017,-0.293682 1.676773,0.125194 1.891489,1.351068 m -19.45532,43.23404 h 0.540426 l 1.194744,7.53966 -0.834726,4.09851 -0.291888,4.50054 -1.419194,6.28894 h 0.270213 c 1.758263,-3.58404 2.36202,-7.70032 3.14126,-11.57691 0.933401,-4.64349 2.236434,-9.08062 1.666425,-13.88982 -0.166392,-1.40387 -0.932827,-2.61292 -1.190398,-3.98914 -0.260136,-1.38993 0.0047,-2.75192 -0.453696,-4.12413 -0.390228,-1.16819 -1.598104,-2.67449 -1.405031,-3.94573 0.331874,-2.18514 4.694155,0.92103 4.477353,-1.76655 -0.31701,-3.92972 -4.28809,-5.3247 -7.046551,-7.18431 v -0.27021 c 2.367025,-1.52089 4.157102,-0.66537 6.755319,-0.54043 -0.06388,-1.46615 -0.173996,-2.99917 -1.247372,-4.11843 -1.228714,-1.28125 -3.149725,-1.19798 -4.454519,-2.27715 -1.436677,-1.18825 1.057118,-1.48787 1.812066,-1.3624 l 1.483741,0.28424 c 0.798764,0.12758 1.599057,0.15575 2.406084,0.178 -1.414407,-2.11082 -3.268455,-3.4998 -5.739552,-4.2233 -1.117229,-0.32709 -3.024712,-0.0806 -3.912708,-0.90771 -0.564361,-0.52568 0.174259,-1.00576 0.656029,-1.14445 1.188572,-0.34213 2.576451,-0.17109 3.768375,0.0618 1.119509,0.21877 2.196369,0.44742 3.336366,0.53915 l -3.596143,-2.2345 -4.240027,-1.27827 h -0.540425 l -2.972341,0.81064 v -1.89149 c 3.542741,-0.41815 7.337463,-2.189455 10.653696,0.11906 3.313281,2.30648 3.317924,6.64815 3.794416,10.14906 0.248369,1.82483 0.83132,3.53409 0.985154,5.38514 0.721463,8.68128 0.930481,17.5935 0.07419,26.27596 -0.193209,1.95904 0.04643,3.9566 -0.320003,5.89837 -0.657613,3.48477 -2.160944,6.62655 -3.190107,9.98885 -1.586993,5.18473 -3.437054,10.64698 -5.854835,15.49398 -0.503193,1.00875 -1.934967,4.2767 -3.227718,4.3775 -1.725954,0.13459 -0.762315,-3.80696 -0.591511,-4.58587 0.816324,-3.72271 1.40586,-7.46845 2.048453,-11.22318 0.273037,-1.59537 0.316799,-3.17068 0.763193,-4.73787 1.348615,-4.73471 1.968221,-9.8603 2.701241,-14.71759 m 11.889362,-40.53192 c -0.388101,0.98023 -0.904356,1.03505 -1.891489,0.81064 v -0.54042 l 1.891489,-0.27022 m 6.75532,0.27022 v 0.54042 c -0.987133,0.22441 -1.503389,0.16961 -1.89149,-0.81064 l 1.89149,0.27022 m 1.891489,1.89149 v 0.54042 l -3.782979,1.08085 V 105.163 l 3.782979,0.27022 m -7.83617,1.62127 c -0.208713,1.22074 -0.665422,1.56205 -1.89149,1.62128 v -0.27021 l 1.351064,-1.35107 h 0.540426 m 42.423409,1.08085 c -0.46391,0.33543 -0.8959,0.65936 -1.4715,0.77432 -2.22147,0.44372 -2.36533,-2.08972 0.0712,-1.36828 0.48931,0.14489 0.94048,0.37803 1.40035,0.59396 m -33.506388,2.1617 c -0.533474,0.33634 -2.885499,1.9442 -3.351741,0.78264 -0.560093,-1.39536 2.883495,-0.86574 3.351741,-0.78264 m -7.83617,0.81064 c -0.282088,0.33013 -0.53975,0.67774 -0.903763,0.92523 -1.283066,0.87234 -1.97302,-0.77092 -0.175835,-0.96128 0.356147,-0.0377 0.725884,0.0138 1.079598,0.0361 m 43.234048,3.51277 c -0.54137,0.54186 -1.11001,1.13204 -1.94519,1.08491 -1.25933,-0.0711 -1.639,-1.34721 -0.40534,-1.82834 0.40761,-0.15897 0.8457,-0.23863 1.26968,-0.33742 v -0.54043 l -1.89149,-0.27021 c 0.008,-0.46441 -0.0709,-1.09833 0.24018,-1.49242 0.51719,-0.65526 2.24257,-0.5857 2.60331,0.20015 0.51837,1.12922 -0.87884,2.58352 0.12885,3.18376 m -36.478729,0 c -0.355363,-0.0293 -0.726304,-0.0374 -1.077404,-0.112 -2.112002,-0.44861 -0.63741,-2.12149 0.479931,-1.04678 0.328192,0.31567 0.446245,0.74576 0.597473,1.15878 m -17.834043,0 -1.891489,0.81064 v -0.81064 h 1.891489 m 43.774472,0 -1.89149,0.81064 v -0.81064 h 1.89149 m -32.695748,0.81064 v 1.89149 l -2.972341,-1.35107 2.972341,-0.54042 m 34.587238,4.05319 v 0.54042 l -2.70213,1.35107 v 0.27021 l 2.70213,0.54043 v 0.54042 c -0.86805,0.72787 -1.76738,1.54361 -2.93792,1.69626 -2.51565,0.32808 -5.90029,-1.3296 -4.89825,-4.12817 -0.78926,-0.002 -1.62471,0.0581 -2.37893,-0.21695 -0.77331,-0.28198 -1.3555,-0.79099 -2.2166,-0.82624 -0.99912,-0.0409 -1.60067,0.54966 -2.48307,0.86065 -1.47892,0.52123 -5.51227,0.74115 -6.16183,-0.89831 l 8.35753,-1.94486 4.09855,0.74283 8.62052,1.47224 m -27.831919,-2.1617 c -0.151219,0.41299 -0.269281,0.84312 -0.597473,1.15879 -1.117357,1.07472 -2.591908,-0.59817 -0.479931,-1.04679 0.3511,-0.0746 0.722024,-0.0827 1.077404,-0.112 m -5.674468,2.97234 v 0.54042 l -1.891489,1.08085 -1.080852,-1.08085 v -0.54042 h 2.972341 m 11.348937,2.43191 v -0.54042 c 2.59154,-1.08504 4.77007,-1.21513 7.53334,-1.42165 0.53006,-0.0396 2.31873,-0.51912 2.59383,0.19985 0.33639,0.8792 -1.45959,1.89856 -2.02058,2.22277 -2.6586,1.53643 -5.47954,0.60418 -8.10659,-0.46055 m -3.782979,-1.62128 c -1.164139,1.62763 -2.967608,2.20804 -3.782979,0 h 3.782979 m 35.397869,0 c -1.1551,1.64642 -2.96719,2.20975 -3.78297,0 h 3.78297 m -55.123402,1.89149 v 0.81064 l -2.161702,-0.54042 2.161702,-0.27022 m 12.159575,1.08086 v 0.54042 c -0.542759,0.32865 -1.211604,0.83613 -1.893403,0.72465 -1.16267,-0.19011 -0.0027,-1.21064 0.594876,-1.29199 0.43376,-0.059 0.865583,-0.004 1.298527,0.0269 m 30.534047,4.59361 c -0.0172,0.43789 -0.0104,0.87922 -0.11717,1.30809 -0.80255,3.22267 -4.19943,-0.24106 -5.98144,0.36507 -1.92064,0.65327 -3.26228,2.7999 -5.48051,2.67249 -0.81936,-0.0471 -2.95865,-1.08387 -1.91422,-2.15146 0.46725,-0.47761 1.25894,-0.49749 1.87419,-0.57291 v -0.54043 c -0.8138,-5.5e-4 -1.62943,0.011 -2.44282,-0.0192 -2.03256,-0.0755 -3.78417,-1.2491 -1.5063,-2.8787 1.9831,-1.41871 4.74173,-2.79598 7.19103,-2.97675 1.63179,-0.12043 3.58785,0.0532 4.79824,1.29005 1.48369,1.51618 1.14452,3.04778 3.579,3.50375 m -21.88724,-2.70213 v 0.54043 l -1.891488,1.35106 v 0.54043 c 0.464742,0.25758 1.059271,0.51362 1.221293,1.07707 0.225485,0.78415 -0.590472,1.5836 -1.364109,1.4728 -0.755488,-0.10821 -1.235394,-0.91003 -1.572839,-1.51333 -1.057118,-1.88996 -0.942635,-3.11044 0.634804,-4.54931 l 2.972339,1.08085 m 35.39788,-1.08085 c -1.01733,1.39011 -2.09875,1.76334 -3.78298,1.89149 0.94173,-1.46991 2.10083,-1.77112 3.78298,-1.89149 m 5.40425,1.89149 1.08085,1.08085 v 0.54043 h -2.97234 v -0.54043 l 1.89149,-1.08085 m -7.56457,1.38346 c 0.64412,-0.32716 0.952,0.72228 0.32089,0.96217 -0.61116,0.2323 -0.84348,-0.69674 -0.32089,-0.96217 m -43.235431,3.48037 h -0.270213 l -1.351064,-1.89149 c 1.323802,0.1087 1.690051,0.57284 1.621277,1.89149 m -28.372341,-0.27021 c 1.159281,7.95003 -0.506736,16.37572 -2.108766,24.13889 -0.425802,2.06338 -0.359379,4.1307 -1.233418,6.09371 -0.244914,0.55005 -0.870539,1.77159 -1.647616,1.18134 -1.100555,-0.83596 -0.683844,-3.47643 -0.684524,-4.66294 -0.0014,-2.42249 -0.09043,-4.86643 0.03656,-7.28613 0.0966,-1.84061 0.629402,-3.3538 -0.0367,-5.14359 0.910405,-1.47946 1.134018,-3.04705 1.634557,-4.68399 0.964435,-3.15406 2.050027,-6.97498 4.039911,-9.63729 m 27.877525,1.36544 c 1.244737,-0.42508 2.542044,1.57303 1.078782,1.97501 -1.080563,0.29685 -2.376575,-1.53182 -1.078782,-1.97501 m 41.837363,1.6069 c 0.32264,-0.48682 0.61906,-0.978 1.13381,-1.28805 1.23395,-0.74325 2.88728,0.47505 1.12807,1.07939 -0.27748,0.0953 -0.58645,0.12434 -0.87651,0.15274 -0.46,0.045 -0.92385,0.0451 -1.38537,0.0559 m 10.26809,-1.08085 c 0.22443,0.98713 0.16962,1.50338 -0.81064,1.89149 l 0.27021,-1.89149 h 0.54043 m -39.72128,2.1617 v 0.54043 c -2.5117,0.96646 -4.212141,0.67264 -6.755314,0 v -0.54043 c 2.524776,-0.5775 4.256379,-0.82983 6.755314,0 m 7.56596,-0.27021 3.78298,1.08085 -1.62128,1.08085 2.70213,0.81064 c -1.35543,2.15531 -4.42194,4.26194 -5.94468,1.08085 -1.52509,-0.61515 -2.22767,-1.39995 -2.70213,-2.97234 l 3.78298,-1.08085 m 13.51064,1.35106 v 0.54043 c -1.43972,0.39166 -4.20433,0.85394 -4.86383,-0.81064 l 1.08085,-1.08085 3.78298,1.35106 m 11.07872,-0.27021 c -0.56366,1.42264 -1.99433,1.18253 -2.97234,0.27021 l 2.97234,-0.27021 m -42.693613,1.89149 -0.810638,0.27021 c 0.398458,0.24481 0.904216,0.47841 1.247441,0.80394 1.760713,1.66989 -2.514369,2.76622 -3.204258,1.24918 -0.653176,-1.43632 1.763954,-4.85867 2.767455,-2.32333 m 32.425533,1.89149 c -1.66677,1.19801 -3.38052,1.46618 -5.21252,0.3944 -0.60145,-0.35188 -1.66207,-0.78444 -1.32162,-1.68232 0.25245,-0.6658 1.06442,-0.66291 1.6554,-0.59707 0.78911,0.0879 1.43072,0.53486 2.19266,0.70406 1.17236,0.26033 2.17508,-0.10882 2.68608,1.18093 m -24.048937,1.08085 h -0.540426 l -2.161702,-2.97234 c 1.391141,0.004 5.694895,-0.14517 3.527465,2.18709 -0.25703,0.27658 -0.55012,0.5284 -0.825337,0.78525 m 31.344677,-0.54043 c 0.28037,-0.23675 0.55721,-0.51158 0.87946,-0.69638 1.57458,-0.90294 2.07789,0.85065 0.43607,0.89762 -0.45081,0.0129 -0.87946,-0.10757 -1.31553,-0.20124 m -17.83404,3.24256 c 1.3837,-1.92304 3.62329,-2.16207 5.85737,-1.68695 0.76977,0.1637 2.07469,0.57174 2.24361,1.49091 0.2397,1.30428 -2.45732,1.38976 -3.22082,1.48013 -0.68212,0.0807 -1.36401,0.12874 -2.04263,-0.009 -1.02565,-0.20816 -1.93853,-0.76686 -2.83753,-1.2751 m 21.07659,-1.62128 -1.35106,1.62128 h -0.54042 l -0.27022,-1.89149 2.1617,0.27021 m -32.42553,1.62128 c -1.00515,2.27452 -3.7071,2.13017 -4.863825,0 h 4.863825 m 9.45745,3.78297 c -1.20173,1.70825 -3.89037,2.37455 -5.1783,0.23287 -0.68291,-1.13559 -0.49224,-2.74698 -0.49617,-4.01584 l 3.87652,0.8163 1.79795,2.96667 m -19.455318,-2.97234 0.270213,2.16171 -0.270213,-2.16171 m 7.025533,2.97234 c -0.356246,-0.0293 -0.727583,-0.0377 -1.079598,-0.11187 -1.742653,-0.36717 -1.10592,-1.84704 0.155343,-0.96411 0.399365,0.27957 0.649762,0.68494 0.924255,1.07598 m 31.344675,-1.89148 1.89149,1.89148 c -2.33807,0.73614 -4.30059,1.14049 -6.75532,0.81064 v -0.54042 l 4.86383,-2.1617 m -14.05106,1.89148 c 0.43562,-1.0995 2.95596,-1.79667 3.57785,-0.43298 0.66618,1.4608 -1.35549,1.58744 -2.21508,1.22993 -0.48131,-0.20018 -0.92323,-0.52226 -1.36277,-0.79695 m -22.968084,0.27022 v 0.54042 h -2.97234 v -0.54042 h 2.97234 m -22.968085,0.54042 c 1.563198,2.47796 0.501631,4.09359 0.318131,6.76457 -0.271082,3.94585 0.572417,8.10707 -0.858557,11.88011 l 0.810638,1.08085 c -0.930151,1.93551 -0.651626,3.84346 -0.931866,5.90939 -0.176939,1.30439 -0.69677,2.5284 -0.85457,3.83734 -0.181978,1.50951 -0.03053,3.03757 -0.194541,4.54826 -0.315522,2.90631 -1.317329,5.94861 -2.882852,8.40289 -2.244701,-0.88936 -0.460256,-3.37507 -0.10293,-4.8799 0.357289,-1.50464 0.10293,-3.30786 0.10293,-4.84776 0,-0.94768 -0.114553,-1.98956 0.100113,-2.91927 0.178477,-0.773 0.607002,-1.40866 0.684327,-2.21758 0.176349,-1.84488 -0.184069,-3.74585 0.102649,-5.58191 0.157379,-1.00782 0.875602,-1.75832 0.977991,-2.79469 0.166842,-1.6888 -0.179091,-3.43586 0.08079,-5.11518 0.133342,-0.86162 0.64486,-1.57602 0.730056,-2.4553 0.207661,-2.14319 -0.04492,-3.71284 0.823733,-5.7202 0.784919,-1.81387 -0.574627,-4.54929 1.093955,-5.89162 M 99.97054,150.013 c 2.48237,-1.08219 5.25867,3.27435 2.30219,4.49688 -3.1203,1.29027 -5.47315,-3.1145 -2.30219,-4.49688 m 28.54098,-0.087 c 0.78767,-0.51273 3.29172,0.17982 2.03906,0.99522 -0.78766,0.51273 -3.29173,-0.17981 -2.03906,-0.99522 m 11.69293,1.17314 h -2.1617 2.1617 m -46.746807,2.43192 c 0.09654,0.24238 0.272613,0.58124 0.325776,0.8594 0.174845,0.91481 -0.436663,1.73273 -1.424298,1.29799 -1.040544,-0.45803 -1.815179,-2.57507 -1.143391,-3.55342 0.512421,-0.74626 2.429392,-0.87359 2.685371,0.18759 0.109766,0.45503 -0.219028,0.85488 -0.443458,1.20844 m -27.561702,-0.54043 c 0.227571,2.39228 0.677296,4.96781 -0.810639,7.02553 v 0.27021 l 1.080851,1.08086 c -1.443211,2.37143 -0.910653,4.90395 -1.148915,7.54689 -0.202231,2.24325 -1.010659,4.19613 -0.932262,6.49851 0.09176,2.69492 0.694354,5.752 -0.891163,8.11204 v 0.54043 l 0.05331,3.53524 -1.134163,7.00305 c -1.129805,-0.44763 -1.074959,-1.30993 -1.080608,-2.43194 -0.0108,-2.1465 -0.11593,-4.33505 0.01101,-6.47775 0.07141,-1.20539 0.92033,-2.06302 1.042489,-3.25077 0.503722,-4.89771 -0.235912,-9.93665 0.03816,-14.85348 0.06421,-1.15186 0.725479,-2.09423 0.788538,-3.25078 0.05357,-0.98245 -0.09304,-2.0016 0.111201,-2.97144 0.187309,-0.88944 0.638423,-1.67921 0.789057,-2.5853 0.191408,-1.15136 -10e-4,-2.34718 1.002281,-3.08917 v -0.54043 c -0.561733,-1.21386 -0.115426,-1.73544 1.080852,-2.1617 m 47.55745,2.1617 c -0.60838,2.52453 -3.11004,1.76189 -4.86383,0.81064 v -0.54043 l 1.08085,-0.54042 v -0.27021 l -1.89149,-1.35107 5.67447,1.89149 m 7.56596,-1.62127 v 0.54042 c -0.99642,0.20758 -1.5498,0.21633 -1.89149,-0.81064 l 1.89149,0.27022 m 11.34893,3.51276 -1.89149,1.89149 h -1.89149 c 0.0254,-0.7823 0.0643,-1.48644 0.62528,-2.09707 0.9223,-1.00385 2.66278,-1.20427 3.1577,0.20558 m 4.62615,0.5339 c 0.55788,-0.26623 1.07581,0.53715 0.47536,0.8237 -0.55785,0.26622 -1.07582,-0.53715 -0.47536,-0.8237 m -36.02083,1.79599 c 0.85471,-0.57837 2.4267,-0.50073 3.37231,-0.22861 0.57685,0.16601 1.26214,0.75002 0.52817,1.2433 -0.85836,0.57686 -2.43683,0.50307 -3.38536,0.22861 -0.58029,-0.16792 -1.24092,-0.75216 -0.51512,-1.2433 m 11.39894,3.34458 c -1.19983,-0.47918 -3.01216,-0.62775 -3.51277,-1.89149 1.01275,-0.52938 4.57431,-1.79056 4.01803,0.70075 -0.095,0.42543 -0.31472,0.80441 -0.50526,1.19074 m 10.5383,-2.43192 v 0.27022 l -1.62128,1.35106 c 0.0507,-1.21367 0.39333,-1.6113 1.62128,-1.62128 m -62.689369,9.72766 H 59.14062 l 1.080851,-9.45744 c 2.1375,0.52294 1.511919,1.79947 1.229745,3.57023 -0.325215,2.04085 -0.605179,3.9037 -1.229745,5.88721 m 68.363829,-8.10638 1.89149,1.08085 v 0.54043 h -3.78298 v -0.54043 l 1.89149,-1.08085 m -38.099998,0.81064 v 1.89149 l -1.89149,-0.27021 1.89149,-1.62128 m 15.402128,0 -1.89149,1.89149 -1.08085,-1.08085 v -0.54043 l 2.97234,-0.27021 m 12.97021,1.62128 c 0.47485,-0.41115 0.93484,-0.83882 1.52412,-1.08314 1.27401,-0.5282 2.71191,0.67637 1.00118,1.12731 -0.36502,0.0962 -0.7495,0.1115 -1.12495,0.10233 -0.4709,-0.0115 -0.93443,-0.0848 -1.40035,-0.1465 m 16.21277,-1.62128 1.35106,1.62128 -2.97234,0.27021 1.08085,-1.89149 h 0.54043 m -34.85745,2.97234 v 0.54042 h -2.161701 l 2.161701,-0.54042 m 9.45745,0.81064 c -1.54134,2.46197 -3.39151,1.48035 -5.67447,1.08085 1.3578,-2.51459 3.36502,-1.7115 5.67447,-1.08085 m 11.34894,2.1617 v 0.54043 c -1.33754,0.3017 -3.17878,0.71436 -3.78298,-0.81064 l 3.78298,0.27021 m 13.24042,-0.27021 v 1.89149 l -1.89149,-0.27022 v -0.54042 l 1.08085,-1.08085 h 0.81064 m -29.45319,1.89149 c 0.4618,-1.16557 2.67948,-1.67703 3.46103,-0.43299 0.89338,1.42205 -1.27321,1.57308 -2.09826,1.22994 -0.48131,-0.20018 -0.92324,-0.52228 -1.36277,-0.79695 m 17.0234,2.1617 c -1.43795,1.83136 -2.73648,2.60027 -4.86383,1.35106 1.55054,-1.29062 2.87873,-1.59541 4.86383,-1.35106 m -11.34893,1.89149 v 0.54042 l -4.86383,1.08085 c 0.65907,-2.745 2.65376,-3.02073 4.86383,-1.62127 m 0.81064,2.70212 v 2.70213 c -1.77658,-0.65572 -1.34284,-1.75806 0,-2.70213 m 7.56595,0.81064 c 0.22443,0.98714 0.16963,1.50339 -0.81063,1.89149 l 0.27021,-1.89149 h 0.54042 m -60.527658,12.15958 c -0.533878,-4.18856 0.123124,-7.58489 1.080851,-11.61915 0.90874,1.60877 0.809117,3.33283 0.8103,5.13424 0.0016,2.45377 0.328126,4.9292 -1.891151,6.48491 M 75.6236,179.74172 v 0.54043 l -1.221214,5.61542 -1.751126,7.89522 c -1.526255,0.52718 -4.18361,2.95009 -5.820715,2.28584 -1.753555,-0.71152 0.209549,-3.87504 0.728518,-4.80355 1.432512,-2.563 2.599486,-5.19911 3.912053,-7.82304 0.973155,-1.94544 1.802149,-3.57496 4.152484,-3.71032 m 46.20638,4.59362 v -0.54043 c 0.94997,-0.38543 1.92994,-0.85365 2.97756,-0.84148 3.2585,0.0379 5.45487,2.46565 4.48588,5.68295 -0.39705,1.31829 -2.26977,4.03554 -3.97994,2.82635 -0.99459,-0.70326 -0.74968,-2.54921 -1.03453,-3.59256 -0.39857,-1.4599 -1.40026,-2.50201 -2.44897,-3.53483 m -2.97234,10.80851 c -1.69689,-1.49735 -1.25277,-2.594 -1.40022,-4.63485 -0.11341,-1.56951 -2.21135,-3.65064 -1.68978,-5.11953 0.803,-2.26151 5.15611,-0.28154 6.15488,0.79776 3.05524,3.3016 -0.60556,6.98719 -3.06488,8.95662 m -9.52599,-9.22337 c 1.67179,-1.30503 4.45619,0.52563 5.23642,2.034 1.18386,2.2887 0.28648,4.58979 -1.7031,6.05978 -0.27255,0.20138 -0.57198,0.40468 -0.8912,0.52511 -3.10814,1.17261 -2.07458,-2.9922 -2.42757,-4.65563 -0.21751,-1.02506 -1.28529,-3.1274 -0.21455,-3.96326 m -12.361241,6.25103 h -0.810638 c -0.769275,2.52533 -2.005098,4.57907 -4.86383,3.51276 1.204726,-3.48238 1.353538,-6.06938 -0.810638,-9.18723 0.81016,-0.12912 1.610523,-0.24689 2.43391,-0.18653 3.20989,0.23535 3.936945,3.12308 4.051196,5.861 m 10.538301,-3.78298 v 0.81064 h -8.646811 v -0.81064 c 3.031361,-0.47389 5.780561,-1.52489 8.646811,0 m -19.995748,3.24255 v -0.54042 l -0.810638,-2.97234 c 1.108039,0.0623 2.211534,0.13426 3.08218,0.90956 1.898532,1.69061 1.847768,5.54955 -0.393189,6.99749 -2.931406,1.89403 -2.712394,-2.91677 -1.878353,-4.39429 m -3.782978,5.13405 c -1.329228,-1.52932 -1.704688,-3.09083 -1.573845,-5.10763 0.04442,-0.6847 0.133004,-1.92617 1.006792,-2.07359 0.785866,-0.13262 1.547638,0.65148 1.926123,1.24448 1.25709,1.96957 -0.293096,4.26031 -1.35907,5.93674 m 21.887236,-6.48511 c -0.88792,2.40681 -3.55978,1.9287 -5.67447,1.62128 v -0.54043 l 5.67447,-1.08085 m 4.86383,6.75532 v 0.54042 l -1.89149,0.27022 v -1.08085 l 1.89149,0.27021 m 7.56596,-0.27021 v 1.08085 h -1.89149 v -1.08085 h 1.89149 m -28.642558,2.70212 c 0.242967,-0.40015 0.464263,-0.81878 0.827947,-1.12678 1.205699,-1.02106 2.089209,0.61054 0.240782,1.01358 -0.347711,0.0758 -0.716598,0.0837 -1.068729,0.1132 m -9.997873,0 v -1.89149 c 1.186382,0.46846 1.118227,1.37726 0,1.89149 m -8.646809,-0.54042 1.621277,-0.27021 -1.621277,0.27021 m -6.485106,5.13404 1.621277,-0.27021 c -0.739123,-0.37417 -1.055115,-0.33871 -1.621277,0.27021 m -3.782979,2.70213 2.431915,-1.08085 c -1.15792,-0.25544 -1.719122,0.18869 -2.431915,1.08085 m -9.72766,-0.27021 v 0.27021 l 4.323405,-0.81064 v -0.54043 l -4.323405,1.08086 m -2.702128,1.35106 H 50.2236 l -0.270213,-0.81064 -1.89149,0.81064 m -2.97234,0.27021 v 0.54043 h 2.431915 v -0.54043 h -2.431915 m -1.891489,1.62128 1.621276,-0.27021 -1.621276,0.27021 m -0.270213,0.54042 c -0.717916,-0.15212 -1.415399,-0.27709 -2.15432,-0.22053 -1.201613,0.0919 -4.599241,1.66085 -2.277321,2.92708 1.368383,0.74625 3.978485,-1.47045 4.431641,-2.70655 m 6.214894,1.62128 c -1.716167,3.08817 -2.395747,7.60152 -1.89149,11.07872 h 0.270213 l 1.621277,-11.07872 m -17.563831,2.1617 v 0.27021 c 1.437656,0 2.729038,0.03 3.512766,-1.35106 l -3.512766,1.08085 m 22.968086,-1.08085 0.270213,1.62128 0.270213,-1.62128 h -0.540426 m 15.942554,0.54043 c 0.335754,2.32413 -0.08802,4.23766 -0.399823,6.5204 -0.354481,2.59519 -0.524074,4.9923 -1.08671,7.56589 -0.376829,1.72368 -0.653383,4.17058 -2.316212,5.20598 -1.19528,0.74426 -2.077257,-0.56685 -2.403037,-1.57805 -0.690012,-2.14176 -0.267623,-4.4534 0.801526,-6.36529 l 1.080851,1.89149 h 0.540426 l 2.41513,-9.32907 1.367849,-3.91135 m 31.885102,0 c 0.21687,4.09798 -1.14203,8.47837 -2.10348,12.4284 -1.297495,5.33068 -1.789928,11.92916 -6.813537,15.1333 -1.817595,-2.85033 -0.788662,-4.49021 0.19537,-7.3888 0.57708,-1.69988 0.989532,-3.37728 1.69612,-5.04099 l 1.080851,1.08085 h 0.270213 l 1.76895,-6.30344 3.905513,-9.90932 m -17.0234,1.08085 c 0.327376,1.45134 0.538892,3.37078 0.162773,4.83282 -0.202371,0.78669 -0.778396,1.38336 -0.916215,2.20005 -0.490017,2.90371 -0.164323,5.99582 -0.654818,8.90234 -0.182811,1.08329 -0.946041,1.84699 -1.012399,2.9825 -0.120106,2.05513 -0.04349,6.34654 -2.448836,7.24142 -3.002831,1.11718 -5.172651,-4.53484 -2.42625,-5.62296 l 1.351064,-8.3766 h 0.270213 l 0.540425,3.78298 h 0.540426 l 2.564209,-9.83519 1.488983,-6.10736 h 0.540425 m 22.96809,0.81064 c 0.31629,2.1723 0.53251,4.35594 -0.81064,6.21489 0.003,2.19271 -0.76874,4.35499 -1.31377,6.46604 -0.58117,2.25104 -0.94868,4.55583 -2.06972,6.63021 -0.48149,0.89095 -2.74847,4.18384 -3.95298,2.42271 -1.049653,-1.53472 0.6983,-4.13115 1.24565,-5.57383 2.04214,-5.38265 4.09797,-10.86475 6.36103,-16.16002 h 0.54043 m -35.938303,11.34893 1.351064,1.89149 2.702128,-9.45745 c 1.053127,1.86804 0.641883,3.66166 0.270497,5.67437 -0.437962,2.37352 -1.064631,4.91729 -1.289596,7.30836 -0.177843,1.89022 -0.107136,4.25045 -2.137628,5.20699 -1.637691,0.77149 -2.730049,-0.81186 -2.920253,-2.26309 -0.342404,-2.61253 0.894292,-6.04041 2.023788,-8.36067 m 19.185107,-3.51276 -0.270213,-2.97234 c 1.770253,0.65668 1.31436,1.74188 0.270213,2.97234 m -0.270213,0.81063 c -1.15e-4,5.01959 -0.612893,10.11595 -2.397833,14.85597 -0.506484,1.34499 -2.345074,4.55484 -4.24335,3.35874 -1.258063,-0.79271 -0.807777,-2.98432 -0.574746,-4.16241 0.754341,-3.81355 1.945353,-7.52421 2.622312,-11.35017 l 1.080851,4.86383 0.793643,-2.6197 1.355863,-2.78434 z" id="path1" style="display:inline;fill:#000000;stroke:none;fill-opacity:1"/>
	</g>
	<metadata id="metadata1">
		<rdf:RDF xmlns="">
			<cc:License xmlns="" rdf:about="http://creativecommons.org/publicdomain/zero/1.0/">
				<cc:permits xmlns="" rdf:resource="http://creativecommons.org/ns#Reproduction"/>
				<cc:permits xmlns="" rdf:resource="http://creativecommons.org/ns#Distribution"/>
				<cc:permits xmlns="" rdf:resource="http://creativecommons.org/ns#DerivativeWorks"/>
			</cc:License>
			<cc:Work xmlns="" rdf:about="">
				<cc:license xmlns="" rdf:resource="http://creativecommons.org/publicdomain/zero/1.0/"/>
				<dc:subject xmlns="">
					<rdf:Bag xmlns="">
						<rdf:li xmlns="">icon</rdf:li>
						<rdf:li xmlns="">animal</rdf:li>
						<rdf:li xmlns="">bird</rdf:li>
					</rdf:Bag>
				</dc:subject>
				<dc:title xmlns="">Owl</dc:title>
				<dc:description xmlns="">An own sits near the end of a branch, facing forward. </dc:description>
			</cc:Work>
		</rdf:RDF>
	</metadata>
</svg>
