<?xml version="1.0" encoding="UTF-8"?>
<!-- Created with Inkscape (http://www.inkscape.org/) -->
<svg version="1.1" viewBox="0 0 170.67 316" xmlns="http://www.w3.org/2000/svg">
 <path d="m73.188 309.49c-4.6335-1.3781-7.9762-5.8639-12.496-6.8207-3.8959.11346-7.4297-3.6234-9.9699-6.0442-.70432-4.2601-1.0082-9.018-6.5289-7.2892-5.7881-6.3451-9.8435-14.178-11.095-22.686-.13518-4.1754-2.3811-6.7111-6.2562-7.981h-18.842c2.3917-4.2657-4.507-6.6873-1.764-9.4811 4.9114-3.1792-2.9568-5.025-.90265-9.4096-.60991-4.5984 6.6785-1.6996 9.7354-2.8174 5.8923 1.3551 6.1949-2.2212 5.1064-7.0247-.60655-5.3106-3.8207-10.019-4.5678-15.422-2.4749-4.4235 1.3699-10.687-3.3915-13.763-1.565-5.9211-1.1462-12.757-1.9669-19.022-2.1788-17.479.09357-35.043.4351-52.57 2.7912-7.5304 4.2876-15.79 7.8871-22.865 4.15-2.3176 1.3008-7.301 5.1187-9.6772 3.8186-3.5849 7.0412-8.5418 11.227-11.282 4.8778 1.2772 4.6119-5.3475 6.7582-8.2665-1.833-8.3875-5.966-16.682-5.4003-25.333 1.3104-6.6193 1.0765-13.838 3.3782-20.073 1.9745-3.1775 5.6894-6.9203 5.0201-10.577-3.1719-3.6995-7.6395-6.8699-10.006-10.898-1.3708-5.5811 5.7968-1.7903 9.0626-2.2821 5.4395-.12541 10.407 2.4726 14.532 5.8273 4.3182-1.8204 8.2363-5.3391 13.205-4.3974 2.3605-4.2073 6.7982-3.3999 10.929-3.3333h18.804c2.1762 4.0225 6.2016 3.2114 9.9819 3.5909 4.4817 1.3833 8.8229 4.2867 13.205 5.1646 5.8667-1.6887 11.681-4.4011 17.579-5.4757 6.3931-.00716-.81919 5.5379-1.8709 8.5688-1.6765 4.0634-6.074 5.3093-9.4281 7.6355-1.1418 4.5348 2.0482 7.57 4.696 10.793 1.5385 5.8299 2.8566 12.198 3.2536 18.278-1.3917 7.2858.18621 15.511-4.5019 21.754-1.9823 2.5993-4.1938 8.666.41175 9.5085 5.4976 1.0252 4.9999 7.9336 9.2856 10.726 5.8991 5.304 7.6973 13.399 11.509 20.123 3.303 9.191 2.8438 19.261 4.135 28.898 1.8107 13.244-1.1218 26.511-1.6698 39.766.0702 4.7168-1.0638 9.1137-2.9973 13.348-1.8227 8.448-2.587 17.259-5.0604 25.484-2.7875 3.8574-3.5383 8.216-3.0568 12.878-1.2046 4.3979 4.5677 5.0332 6.9853 7.4777 1.788-4.1764 5.0999-5.3507 9.4302-4.5185 2.6809 3.1683 1.3912 9.053 1.6109 13.381 1.4938 5.7944-1.8336 6.8876-6.9744 6.2126-5.7958.51964-12.072-.14961-17.571 1.1036-4.9239 2.7869-5.4294 8.4411-7.1559 13.303-3.3499 2.8346-4.1644 6.9305-4.971 11.03-3.1387 2.5008-4.9429 7.9478-9.0534 8.303-4.3284 2.8047-6.292 10.017-12.396 9.804-5.0409-.031-8.6494 3.0946-12.269 6.196-3.868-.18414-7.8628-.56662-9.8215 2.6564-4.1433.19371-7.7889.0162-11.298-2.5024zm-4.5718-56.489c-.01687-4.9993-.03374-9.9987-.05061-14.998-4.5829-1.8973-7.1477.14896-8.4287 4.7037-2.0748 3.3892-3.9234 6.8182-2.4114 10.836-.40934 6.0829 4.9479 9.7787 7.9246 14.46 5.4107 1.401 2.1196-5.8591 2.9865-8.9806-.0068-2.0071-.01354-4.0142-.02032-6.0214zm48.919 12.669c4.0628-4.7561 6.2755-11.493 4.7617-17.59-2.5982-2.6284-3.0568-9.067-7.6867-8.0771-5.3038-2.7742-5.1299 8.1244-8.9518 2.2945-1.5415-3.8119-8.5057-2.484-6.9247 1.7547.39723 7.0959 1.0725 14.179 1.2659 21.284 5.1935 1.6839 6.1216-2.9994 7.5822-6.8877 1.5811-3.9431 1.6768-8.318 2.623-12.446.98 6.1022 1.9771 12.2 4.2255 17.988-5.1795.90739.65059 6.9491 2.484 2.4216l.44265-.52997zm-65.536-5.588c-1.7106-4.8383 2.9405-5.8517 2.9593-10.123 1.0063-5.5211 1.8214-11.073 2.6542-16.622-5.0105-1.4874-7.1718 2.3142-9.3129 6.1532-3.9363 4.5814-3.3657 11.172-4.0113 16.782 1.8028 2.8894.34715 10.059 5.1068 9.0645 4.3215 1.0542 2.0496-2.6263 2.604-5.2546zm29.304-6.812c1.5304-3.9546 3.7893-6.4281-.000839-10.567-1.6027-3.0339-8.4971-4.5333-6.6362.7529.34892 5.4533-.68322 11.479.48827 16.591 1.5745 3.4647 6.6077-4.7937 6.1488-6.7772zm12.03 2.3333c-2.8668-4.0503 6.1201-7.7447 1.0184-8.7822-.5511-3.155-3.2266-6.5674-6.5733-2.0629-2.5014 3.1324-.43873 8.1553-1.1117 12.045 1.6078 3.3124 8.2837 5.3643 6.6667-.25256v-.69052zm41.274-31.249c.19886-4.235 2.9993-7.3137 4.0055-11.066 1.7208-8.9127 1.5714-18.304 5.6926-26.574-.74199-17.366-.48564-34.817-1.8625-52.13-1.1704-6.6091-1.4386-13.606-3.166-19.976-3.0437-4.2292-5.913-8.0224-4.23-.43684.40627 7.865 1.5204 15.628 3.6054 23.188-.14915 18.751.31623 37.607-.21592 56.292-.61258 3.5013-3.8915 7.6075-2.9259 10.751 1.1546 3.3624-1.2222 7.8148-1.4277 11.597-1.223 4.3692-.43262 9.8019-4.7499 12.536.55595 5.5291 6.0357.0335 5.2017-3.893zm-100.35-6.0177c-2.2112-18.166-1.2797-36.545-2.0736-54.807-.87276-13.613.25011-27.164 1.5473-40.71.51854-6.7658.93654-13.546 2.605-20.149-4.2645-.45718-4.4163 6.232-5.7282 9.3725-2.5858 13.889-4.6525 27.971-5.4404 42.055.80093 18.288.38302 36.677 3.5605 54.77.89263 6.5983 2.2811 13.137 5.2591 19.137 2.9894-.30754-.20726-7.007.27039-9.6667zm56.781-136c3.7935-7.1786 2.3876-15.748 3.7317-23.583-.67768-3.4811.24448-10.932-5.098-9.4175-3.9769-.35481-7.8131-.39269-9.8563 3.6105-3.0273 2.8563.0054 7.6924-.38557 11.41.93279 6.6367 3.132 13.25 5.2905 19.515 2.7035 4.7288 4.976 3.0125 6.3177-1.5357zm-18.11-17.554c4.684-2.0343 3.8262-6.5912 3.6977-10.816.5004-3.4548-2.084-10.841 3.6671-7.6039 5.0547 1.8682.89476-5.5911-.03044-7.8683-4.3848-7.2464-10.228-13.883-16.347-19.743-5.874-3.0158-11.506-6.9613-17.526-9.415-2.9191.99341-10.265-2.4397-9.0532 2.6843 3.9929 3.3031 8.035 6.5557 11.259 10.649 4.7059-.15783 7.3357 5.2517 11.118 7.5709 3.1434 2.0091 5.335 6.5707 9.529 5.7624 3.5861 3.5874 2.0038 8.298-1.2989 2.8252-3.6216.0063-8.2016-.7462-11.643.32202-2.5074 3.2506-7.4158 5.4847-8.2978 9.4236.33958 4.8875-1.3724 10.387 2.618 14.185 3.3553 6.4541 11.677 4.9562 17.807 5.2325 1.7715.05505 3.0056-2.3832 4.5003-3.2091zm-13.575-8.7518c-1.4006-3.0584 2.1233-8.3317 6.0776-6.6942 1.9301.54735 2.892 10.226-2.0159 8-1.5703-.23485-3.5205.8017-4.0617-1.3058zm65.248 7.5133c3.5441-2.958 3.8391-7.0136 3.4012-11.317 1.3412-5.6288-5.0022-8.0086-7.9554-11.822-2.5496-3.7038-7.7487-.75505-11.313-.26336-5.5998 3.6894-2.9439-1.509.84594-2.8942 11.516-6.1634 22.004-13.962 31.257-23.185 2.5773-5.6747-5.5364-.65077-8.4859-.31614-7.4458 1.947-14.288 5.9194-20.679 10.02-2.7346 3.4262-6.1952 5.2515-9.51 7.0704-2.7786 3.3882-6.8426 6.2626-8.826 9.9686-1.7018 4.4315 2.1745 8.784 5.0431 3.9214 4.1239-1.5324 1.6701 6.3757 1.7968 9.2044-1.4328 4.5209.34314 7.8657 4.0521 10.502 2.3736 4.2804 6.7401 3.7497 10.961 3.5695 4.7684.58539 7.087-.05253 9.4121-4.4592zm-14.377-7.0964c-2.6383-2.8843-.34262-8.3399 3.6764-6.9685 3.6264.9822 5.7434 8.9738.67263 7.8573-1.4718-.24826-3.4525.6963-4.3491-.88889z"/>
</svg>
