<?xml version="1.0" encoding="utf-8"?>
<svg xmlns="http://www.w3.org/2000/svg" xmlns:cc="http://creativecommons.org/ns#" xmlns:dc="http://purl.org/dc/elements/1.1/" xmlns:inkscape="http://www.inkscape.org/namespaces/inkscape" xmlns:rdf="http://www.w3.org/1999/02/22-rdf-syntax-ns#" xmlns:sodipodi="http://sodipodi.sourceforge.net/DTD/sodipodi-0.dtd" xmlns:svg="http://www.w3.org/2000/svg" height="151.52182mm" id="svg1" version="1.1" width="484.60114mm" sodipodi:docname="palette_A161.svg" inkscape:version="1.4 (e7c3feb100, 2024-10-09)" xml:space="preserve" viewBox="0 0 484.60114 151.52182">
	<title id="title1">Palette</title>
	<sodipodi:namedview bordercolor="#000000" borderopacity="0.25" id="namedview1" pagecolor="#ffffff" inkscape:current-layer="svg1" inkscape:cx="1097.0108" inkscape:cy="352.8224" inkscape:deskcolor="#d1d1d1" inkscape:document-units="mm" inkscape:pagecheckerboard="0" inkscape:pageopacity="0.0" inkscape:showpageshadow="2" inkscape:window-height="937" inkscape:window-maximized="0" inkscape:window-width="1239" inkscape:window-x="0" inkscape:window-y="0" inkscape:zoom="0.33728017"/>
	<defs id="defs1"/>
	<g id="layer1" transform="translate(137.59999,-73.930777)">
		<path xmlns="" d="M 115.71299,79.791578 C 98.754287,85.165342 80.08348,86.69773 63.000369,93.655056 45.442288,98.387853 29.840517,104.62406 14.431833,113.19525 7.1527655,121.30735 31.008211,105.31563 36.32764,104.53139 53.248002,98.367945 70.437468,91.601221 88.375268,88.992072 98.644049,86.060374 109.15797,84.83504 119.3868,82.253643 c 9.02838,-1.492173 17.75039,-3.336777 26.92067,-4.356739 16.39348,-1.77793 32.93557,-1.93444 49.39563,-1.491403 18.24435,1.784041 37.00368,3.859447 54.07626,11.307412 14.70668,6.690379 26.60595,26.704547 19.50192,42.782417 -7.07396,15.5916 -22.45881,23.9754 -36.0101,32.53466 -14.84441,7.843 -30.73445,14.22857 -46.95927,18.39474 -20.07581,5.55225 -38.36127,8.11246 -58.6389,9.52826 -18.08957,0.11535 -36.180248,0.63913 -53.709804,-3.33982 -14.27148,1.14644 -21.30048,-9.06681 -18.237455,-21.93334 -2.272828,-8.61726 2.501851,-10.21448 10.182177,-8.91739 9.431109,-0.29397 18.078329,-1.47621 27.647611,-1.04585 10.156481,-0.63193 27.055301,1.32891 26.685091,-12.73162 -3.10845,-16.50097 -24.702437,-11.53362 -36.291426,-8.44459 -17.764378,-3.43966 -35.491015,-6.83619 -53.118322,-11.40521 -8.511809,-0.49623 -16.287517,-4.30402 -24.5495163,-4.53065 -11.5178039,-2.30188 -22.8130737,-5.67225 -34.3416497,-7.72684 -10.490067,-3.00879 -20.656635,-5.01643 -31.17306,-7.97904 -3.817691,4.62358 18.911155,6.21173 25.643709,8.48694 17.188143,4.63229 34.56509344,8.72876 52.05947,12.59699 17.49018,2.66487 34.358119,8.53773 51.769132,11.37302 19.849014,5.94258 -16.034267,-0.16401 -21.358848,-2.44655 -17.664798,-2.03216 -34.141455,-5.91253 -51.7748684,-8.43292 -5.8355779,-1.90542 -12.3442336,-2.57829 -18.6452946,-3.18484 -8.654318,-1.54841 -17.358355,-3.38804 -25.886568,-5.51226 -6.445543,-0.2703 -12.400459,-3.63109 -18.983809,-2.75116 -12.07405,-3.381 -36.348639,-12.12187 -42.656709,-3.75967 16.598607,8.25504 35.320038,6.02302 52.71618,10.57529 18.106072,3.09285 37.038133,5.43062 54.2915248,9.87299 18.4300172,0.60035 36.3991202,5.05953 54.4762492,8.28887 7.058975,1.62021 31.898649,5.15898 29.48487,7.18499 -17.36052,-2.36551 -34.923344,-3.92767 -52.116369,-6.51004 -11.435695,-3.21801 -31.4235809,1.35579 -37.235193,-7.07333 -13.393302,6.97142 -31.004512,-3.39857 -46.311521,-1.72962 -17.121997,-2.45053 -34.684241,-10.23499 -52.662521,-6.34113 -7.26557,0.15056 -19.09405,2.84613 -4.7067,4.96749 21.526968,8.52636 45.103156,3.91724 67.621968,6.08925 7.796687,3.93164 31.61674,-3.12936 29.568646,9.01258 -17.746519,2.19811 -35.376333,-2.17239 -53.104439,-2.07903 -17.53642,-0.15406 -34.780555,-8.8439 -51.787265,-1.47794 -4.83355,0.16243 21.470653,5.76267 28.144055,5.49183 16.268972,-0.78656 32.33073,-1.09035 48.616413,0.59568 6.564412,1.11938 36.8945695,-0.52667 22.551078,8.09137 -10.027647,0.22844 -18.739486,-1.55986 -28.327922,-0.12784 -12.303581,-0.43403 -24.845331,0.96204 -36.952929,-0.88624 -7.797334,-6.76082 -37.883085,-1.52827 -34.221175,1.82303 8.36129,2.14 17.2428,1.45682 25.737756,3.08672 10.01486,-0.16259 19.826299,-2.10348 29.926087,-1.31453 14.925192,-0.002 29.850384,-0.004 44.775576,-0.007 -8.189396,4.32708 10.800393,0.53747 -2.092215,5.60344 -15.647286,4.96787 -32.5962,6.87013 -46.381425,16.22184 -15.021986,5.33358 -29.424565,10.63652 -44.448559,14.57592 -6.72647,5.1498 -32.26929,9.16646 -19.74638,-4.59341 10.89487,-2.8149 20.54175,-8.27805 32.036319,-9.63888 11.634526,-3.89467 23.593833,-8.69605 35.84993,-9.13344 7.962547,1.48781 15.361212,-3.37902 23.400186,-3.49361 6.508696,-1.03404 12.564338,-3.69563 18.680016,-6.02909 -16.967305,1.32014 -33.804743,8.57316 -51.220402,8.1407 -17.704888,5.76174 -35.464919,11.19477 -53.477589,15.93353 -18.41733,-0.72768 -13.26184,23.97915 3.7603,18.36398 15.76056,-3.77797 30.775858,-9.27991 46.425189,-14.28734 16.046759,-5.18703 24.076373,-20.52676 42.73419,-20.62526 4.276025,-1.6424 24.4706562,-7.01956 13.399589,-0.22987 8.778604,2.27662 -30.584065,4.21896 -8.878596,4.45067 3.214986,0.57255 16.478561,-0.97741 12.90897,1.46559 -11.78636,0.0409 -23.285942,2.15676 -35.104843,1.91992 10.426265,3.72757 24.50398,-0.93121 36.371407,0.9632 9.7485419,2.0667 -8.513568,1.26476 -12.592683,1.78918 -9.306718,2.16597 -18.904557,1.15998 -28.372341,1.57103 8.735223,1.52854 19.813357,0.48188 29.449193,0.77524 7.141475,-0.98942 14.271671,-1.30834 21.6210207,-1.31572 -4.0662828,2.32285 -14.5458727,1.86368 -20.6598027,2.99258 -10.339806,2.50576 -31.039094,-0.16495 -34.875941,4.05147 18.116351,-1.57689 36.546934,-0.51876 54.5899279,-2.80884 10.1010714,-2.24672 17.2930921,3.24842 5.53943294,1.70946 -8.85634414,2.39682 -19.01274684,1.18097 -28.29699484,2.90317 -11.6336,0.15943 -23.480362,0.37442 -34.392368,2.2309 20.739351,1.24618 41.07517,-2.90174 61.8454252,-1.28933 8.9994024,-1.26729 24.3772588,-0.62994 8.5197461,1.77805 -7.37919005,0.11648 -14.809557,-0.6551 -21.9111053,1.28969 -9.58482,0.21129 -18.926572,2.2666 -28.60225,1.46898 -7.195791,-0.6603 -13.987893,2.09195 -21.20288,1.61658 14.689892,2.63417 30.987569,-0.64944 45.936171,-0.54044 10.9517392,-2.31485 21.6004245,-1.61121 32.257335,-2.72296 6.113389,0.531 12.247707,-0.63864 18.102028,-0.82587 11.977593,-1.13434 24.65144,-0.94233 36.919362,-0.23419 -13.592556,4.87536 -31.532641,1.98859 -46.490054,5.59623 -18.9688796,0.6894 -37.57999,1.54046 -56.461011,4.40165 4.428844,2.63694 11.954595,-1.18548 17.587482,-0.68024 8.8477453,-0.4014 17.6145863,-1.95517 26.602153,-1.48714 7.560613,-0.60649 15.028881,-1.92019 22.760225,-1.34622 13.705926,-0.52993 27.220756,-3.02772 41.135248,-2.70134 10.028187,-1.63094 14.925228,3.26842 0.810638,1.89153 -18.389842,3.98138 -37.764332,3.32179 -56.609854,5.46876 -8.510063,0.0541 -16.1625073,1.76634 -24.6804979,2.73829 -16.2097991,0.78394 12.4418829,1.53195 16.9797129,-0.37087 17.076437,-2.76912 34.607497,-1.95573 51.746613,-4.12932 16.400725,-1.85373 32.516301,-1.99612 48.669993,-3.64926 16.28693,-1.3596 32.48912,-3.13621 48.93508,-3.55033 14.6529,-4.74343 11.38699,6.27069 -0.16717,3.7588 -7.64473,1.75365 -15.59337,0.80057 -23.30075,1.83355 -6.8655,1.88108 -14.25622,-0.12459 -21.01107,2.37245 -8.66318,-0.76412 -16.842098,1.9816 -25.44985,0.97423 -7.029483,-0.28453 -13.653029,2.52219 -20.786675,1.5798 -7.859473,1.62606 -38.527743,2.94699 -13.956768,3.69591 17.058304,-1.7534 33.628281,-3.74392 50.793603,-3.5605 17.30007,-2.84448 35.50688,-2.08032 52.87545,-4.42737 15.2393,-4.65164 7.27504,6.46685 -3.88618,3.19201 -5.65037,2.87616 -13.67624,-0.22899 -19.90765,2.88212 -4.18952,0.45063 -18.51819,1.2328 -15.3529,2.29255 17.82289,-3.18213 38.32964,0.94885 54.32612,-8.31163 16.29578,-8.28614 32.69071,-1.11282 49.76031,-1.22021 6.76947,1.81934 18.69432,-7.2452 5.3052,-2.76329 -6.60091,2.3202 -41.82699,-2.7642 -19.24306,-6.17082 18.9512,-2.88498 38.90999,5.6724 56.80568,-1.11524 15.25229,-8.1382 34.01433,-4.6159 49.99509,-11.51496 -17.13608,2.89111 -36.62226,3.24293 -53.50213,10.26805 -19.53971,3.82116 -40.05957,-0.82462 -59.44681,5e-5 -21.57339,-0.87031 14.77932,-6.98421 22.44025,-1.45076 21.73663,-0.8237 -7.61674,-1.20519 -8.97189,-6.23387 16.20998,-4.15976 31.64418,6.75964 47.177,3.5781 -1.4578,-6.97989 -33.72382,-4.72848 -30.38153,-10.48496 13.46709,-2.20239 27.3786,6.00186 41.1634,7.37022 14.56975,-3.08978 -12.86151,-5.25719 -2.82206,-6.68052 13.83623,8.3148 24.95335,-7.81927 39.01237,-7.95257 10.70606,-2.16657 23.407,-1.10896 32.03144,2.15229 -0.0344,5.67483 -15.45431,6.95425 -2.07235,5.87567 17.85475,-11.29222 -16.36244,-14.70873 -25.49142,-11.04834 -12.33007,2.70423 -25.26666,-5.45456 -37.23627,-3.49784 7.06334,0.66171 31.49597,8.79069 11.60933,5.9714 -6.12841,-1.29518 -12.38004,-4.14718 -18.90507,-3.53946 7.44035,2.79215 33.8541,9.63526 12.16973,6.77154 -14.96047,-2.70254 -2.75693,0.98309 3.79472,3.51676 -7.3194,4.68591 -16.59833,-3.25399 -24.96376,-2.76413 -7.10369,-0.65717 -13.90257,-3.15263 -20.99431,-4.28162 2.64573,-2.60406 15.17586,0.25736 4.31781,-4.29458 5.39088,-2.33763 8.42682,-6.49229 17.91237,-5.6099 4.73099,-0.66848 -15.61863,-1.47871 -3.61486,-3.84523 11.04077,-0.86592 -5.96842,-5.40896 7.45861,-5.71368 9.3951,0.0779 12.18278,-3.9266 0.58973,-2.50363 -1.93793,-7.14233 9.60028,-16.39035 5.84062,-26.25094 -1.01599,-11.93509 -8.5674,-22.561283 -19.1551,-27.997129 -10.34173,-8.43886 -24.3483,-8.133038 -36.60654,-12.04108 -20.02695,-2.72983 -40.51203,-1.770059 -60.77881,-1.650471 -14.02587,2.066008 -28.05193,4.387734 -42.15319,5.600238 m 68.36383,15.131914 c 12.48315,3.790902 13.99939,-13.082763 0.21661,-8.599359 -6.65067,0.665483 -4.73957,6.721436 -0.21661,8.599359 z m -40.26171,-1.891489 c -4.7187,-9.624521 -29.58786,5.963152 -8.30397,3.430115 3.21525,0.362796 6.23051,-0.993745 8.30397,-3.430115 z m 85.65745,5.134042 c 7.56333,14.666855 20.2969,-6.803549 4.33988,-5.221004 -1.74855,0.343233 -7.76072,2.911748 -4.33988,5.221004 z M 74.370432,102.21924 c 3.949156,12.09011 25.829078,-5.506022 5.944071,-1.58602 l -3.078567,0.41702 z m -16.212766,4.3234 c -8.975385,-5.57126 -26.242732,10.82224 -7.317344,5.04722 2.777172,-0.68416 6.723431,-1.70047 7.317344,-5.04722 z m 39.99149,30.53404 c 5.580774,-8.23792 21.576444,5.09045 5.615394,0.59207 l -2.79193,-0.38139 z m -72.957448,5.40426 c 6.940176,-1.77839 31.538387,2.44222 32.821632,4.37429 -8.175903,0.42007 -16.41688,0.4426 -24.323106,-1.26466 -13.660395,0.14365 -27.3902111,0.0617 -40.8905457,-1.21885 -11.2573833,-5.21071 9.1923836,-6.86038 15.0763022,-4.51392 5.5888115,2.4919 12.1256005,-0.52602 17.3157175,2.62316 m 61.878724,-2.43192 c 5.785615,-5.81476 37.021048,5.96738 15.666318,1.57887 -5.308994,-0.20205 -10.682632,0.73332 -15.666318,-1.57891 m 206.442558,5.94468 c 13.04844,0.67487 26.93948,-2.4928 38.80984,4.60934 13.48861,1.433 9.10924,7.41459 -0.008,2.33956 -10.07891,-3.56581 -21.13029,-2.45096 -31.4153,-1.28309 -6.90619,-1.64292 -14.09299,-0.83649 -21.01229,-2.3486 0.87243,4.29854 25.85623,5.21337 35.52509,3.63066 8.88521,-5.30423 35.77665,15.16683 27.3621,-2.46056 -10.30755,-1.58688 -19.29642,-9.05126 -30.60017,-6.86455 -5.93165,0.64156 -14.02965,-2.31098 -18.66088,2.37725 M 5.4661755,149.50647 c 16.1619145,-4.0329 28.7950835,2.50185 46.0643215,0.13929 5.00278,1.76378 29.022014,-3.33507 24.252732,3.38079 -14.664238,-0.65209 -28.790978,1.52791 -43.523074,1.07354 -14.611179,-0.25182 -29.3186791,0.51509 -43.843582,-0.37388 -6.16893,-9.17795 13.839036,-5.78918 17.0496025,-4.21978 m 45.9361705,7.56596 c -13.168662,1.24339 -19.362051,21.53714 -34.305706,21.75642 5.445824,-2.81674 19.562982,-14.90931 25.677464,-22.19916 2.920366,0.4718 6.127422,-2.06223 8.628242,0.44274 z M 37.08107,156.80221 c -6.699271,13.70566 -24.720823,26.09396 -40.8460812,19.15107 -13.6999768,-7.20737 -10.8424068,-25.28127 5.8633812,-19.15107 11.6609,0 23.3218,0 34.9827,0 z m 217.18757,5.14459 c -1.17169,4.19461 8.02469,-0.0746 1.6326,-0.49153 z m 13.84435,1.34052 c -4.21324,3.70812 7.3267,3.00505 0,0 z m -19.18511,3.78298 c -7.19878,4.612 -16.77994,-4.31593 -2.67401,-0.0278 z m 5.67447,1.35106 c -1.58244,2.86737 -4.85568,-1.20159 0,0 z m 12.97021,3.24256 c -2.30029,2.69 -5.51114,-1.04967 0,0 z m 49.98937,3.24255 c 8.42473,4.39891 18.91012,-4.55982 3.84344,-1.55899 l -1.92733,0.7573 z M 106.79596,217.8703 c -19.692631,4.4758 -40.423442,5.41416 -60.847679,5.42584 -12.199467,3.25163 -20.766093,-6.2654 -19.061527,-13.93436 -3.155256,13.82278 -20.7423486,13.26373 -32.8234608,12.79899 -4.3813032,0.41432 -34.2122882,1.60554 -15.5832142,2.18704 15.6806602,-1.23569 32.188993,2.2238 47.044359,-3.95562 5.074531,4.56187 12.102971,3.98552 18.420307,5.01211 9.102735,0.41247 17.937998,-1.97359 27.124449,-1.23361 10.426838,0.36471 20.584745,-1.20609 30.779816,-2.73854 7.16255,0.71656 11.78724,-5.21919 17.37165,-8.05646 9.71291,-2.45594 19.87757,-0.57042 29.60938,-2.77552 7.81252,-0.31984 15.80154,0.87379 23.3574,-1.64697 6.60095,-2.40269 34.65616,2.57086 40.93914,-4.90662 -17.05648,4.0013 -35.15699,-0.92231 -51.46407,4.0985 -20.14575,1.03193 -40.03923,4.70343 -60.27022,3.82697 -15.42216,4.1032 24.67281,-0.20338 5.40367,5.8982 M 35.730006,206.52136 c 4.333958,1.38219 7.71571,-0.43029 0,0 z m 54.042554,6.75532 c -0.535597,2.67913 7.845163,-0.88062 0,0 z" id="path1" style="display:inline;fill:#000000;fill-opacity:1;stroke:none"/>
	</g>
	<metadata id="metadata1">
		<rdf:RDF xmlns="">
			<cc:Work xmlns="" rdf:about="">
				<cc:license xmlns="" rdf:resource="http://creativecommons.org/publicdomain/zero/1.0/"/>
				<dc:title xmlns="">Palette</dc:title>
				<dc:subject xmlns="">
					<rdf:Bag xmlns="">
						<rdf:li xmlns="">icon</rdf:li>
						<rdf:li xmlns="">art</rdf:li>
					</rdf:Bag>
				</dc:subject>
				<dc:description xmlns="">A painter's palette lies on a cloth, five dots on its surface, brushes protrude through its opening, and a trowel lies to the viewer's left.</dc:description>
			</cc:Work>
			<cc:License xmlns="" rdf:about="http://creativecommons.org/publicdomain/zero/1.0/">
				<cc:permits xmlns="" rdf:resource="http://creativecommons.org/ns#Reproduction"/>
				<cc:permits xmlns="" rdf:resource="http://creativecommons.org/ns#Distribution"/>
				<cc:permits xmlns="" rdf:resource="http://creativecommons.org/ns#DerivativeWorks"/>
			</cc:License>
		</rdf:RDF>
	</metadata>
</svg>
