<?xml version="1.0" encoding="UTF-8"?>
<!-- Created with Inkscape (http://www.inkscape.org/) -->
<svg version="1.1" viewBox="0 0 838.67 305.33" xmlns="http://www.w3.org/2000/svg">
 <path d="m22.713 296.42c-9.5029-12.108 12.405-6.6295 19.101-7.7407 25.441.75316 51.416-1.442 76.519 1.1742 9.8542-2.1623-7.6916-16.176-12.134-21.786-6.548-7.0052-5.9835-16.808-11.287-23.755-.9961-9.9976-7.1748-16.726-5.5791-27.622 1.8519-8.9851-4.2835-21.721 4-27.686 2.2617-11.797 13.546-21.779 18.486-32.244 5.9229-8.0065 14.146-10.502 20.937-16.097 7.0712-5.4885 16.364-7.3088 24.882-9.9976 12.008 1.3236 25.6-2.6121 36.63 1.9583 8.9989 3.4098 17.234 5.5532 24.016 12.707 5.4357 3.796 12.243 12.472 16.579 19.698 5.9828 13.254 16.743 24.398 12.878 39.801-1.0856 14.213 2.5543 31.188-8.426 41.625.5786 13.526-12.288 23.344-20.13 33.948-9.0673.0901-12.565 12.209-21.85 10.265-10.259.74926-18.405 8.4658-29.833 5.3132-10.137-.75805-21.611 2.9231-29.501-5.2982-10.634-2.1153-18.225 8.4732-29.119 5.3421-10.192.57107-21.502-2.1608-29.817 3.9732h-53.538c-.93805-1.1927-1.8761-2.3854-2.8142-3.578zm150.97-15.089c9.0705-2.0965 16.513-8.0995 26.037-8.0008 7.1383-8.8931 20.156-14.426 21.855-26.474 5.7282-4.4234 9.4236-13.4 9.0927-21.315-1.0109-15.05 3.7782-31.548-6.9134-44.211-5.7076-10.422-9.5877-13.67-15.757-23.178-6.7908-6.3709-16.936-6.8562-25.475-10.154-14.469.53941-29.887-2.9265-42.213 6.6521-7.8921 8.2845-18.731 15.906-24.308 25.378-.76579 7.6253-7.9713 12.426-9.3333 19.902 1.8516 11.915-4.674 26.73 5.3333 35.822-.75369 16.511 14.726 26.471 24.6 37.579 11.135-1.8075 17.785 9.4203 28.493 10.655 3.3759.75153 5.7677-1.1549 8.5891-2.6552zm12.985-19.333c1.7033-2.3916 1.7033 2.3916 0 0zm-18.667-24.515c-11.149-.63972-22.762-10.042-22.667-23.66.80907-8.9533 4.3966-16.517 11.629-22.992 7.9334-1.7389 15.227-7.7258 23.832-.19381 11.685 3.1813 12.956 14.728 11.12 24.987-2.8945 11.705-10.642 22.499-23.914 23.041zm11.084-18.558c10.359-7.7533-5.269-17.364-13.529-15.629-12.238-.61892-9.1359 14.629-1.3719 19.304 5.2593-.57654 11.899 2.3682 14.901-3.6755zm32.916 11.37c2.3829-5.7193 7.0739-27.973 6.3778-23.445-.10613 9.1955 2.1858 24.012-6.3778 27.815v-4.37zm-92.876-16.297c.0352-28.689.90667 20.676-.004 5.3891.001-1.7964.003-3.5928.004-5.3891zm43.543-53.182c9.4828-4.8398 14.257 3.2331 0 0zm438.52 134.16c-10.046-1.7567-23.051 3.0434-31.177-2.9675-6.0923-9.2127 12.343-8.5384 18.493-7.9977 15.269.72285 31.79-1.8379 46.291.89597 6.5719 7.8983 20.581-2.4303 25.573 8.3725-19.399 3.1754-39.545 1.323-59.179 1.6968zm88.62-.22419c-8.0308-8.2457-22.806.68365-28.489-12.858-11.115-11.061-23.143-21.552-27.981-36.916-3.3085-8.5241-7.7064-17.98-6.6667-28.467-1.5249-10.776 1.4342-19.242 3.9742-28.781 4.4939-13.132 9.7047-34.668-8.8145-15.827-8.4509 8.855-19.648-2.3307-29.067.31332-11.848 4.4005-24.36-2.4827-35.53 3.2861-9.0597 1.6696-15.902-8.3677-26.029-4.8347-7.0304-7.3898-1.3618-20.029-3.1617-29.581 10.398-4.9918 12.245-14.635 1.0122-22.597 1.2409-6.8705 6.7822-16.095 4.2829-25.305-8.1404-5.0724-1.4004-20.347-9.5021-22.188-10.86-1.4908-2.5781 18.095-5.1646 25.714-4.4578 9.3465 2.4903 19.152-4.6868 25.804-15.126 11.734 9.6961 12.557 4.6592 25.616 4.8136 18.608-3.606 26.697-20.942 22.537-10.512.16899-21.595-1.936-30.324 5.3333-11.8-3.1921-19.84-1.6501-30.31-5.3333h-98.069c-7.2479 11.273-15.005-4.9036-24.585 1.3069-21.002-1.3833-45.761 3.0559-65.039-3.5146-6.37-13.811-15.792-24.618-27.841-33.792-9.8873.24394-13.578-14.146-25.401-9.3423-7.9013-6.4468-17.624-5.9679-27.462-5.1158-11.609-2.5653-19.21 4.4653-29.315 5.1251-10.693 7.052-21.7 11.355-30.889 19.299-10.746 7.358-14.589 21.327-20.461 31.351-.29407 15.001-12.732 14.494-24.529 13.35-11.329 1.9969-19.553-2.2252-29.286-4.0012-9.875-.31552-20.745 1.5486-26.015-8.8537-5.8518-7.7668-3.9527-21.226 4.2877-27.329 6.5533-11.707 18.544-11.686 25.822-21.544 9.4005-3.0652 15.704-7.7022 24.996-11.643 9.5229-7.9378 22.021-5.7323 30.091-14.885 7.9248-4.438 18.891-1.1518 26.513-8.7038 8.7668-6.3287 21.008.15751 29.056-7.043 10.407 3.173 16.622-7.5324 26.738-5.3308 7.4877-10.307 24.834 2.4277 32.789-8.8419 8.2365-3.0407 20.988 4.0707 26.531-4.4914 9.4828 1.6033 24.666-4.4899 28.961 6.7097-2.712 14.62 11.533 11.076 8.9335-1.6874 7.5862-4.2048 5.2342-14.541 12.186-20.106 9.5864-11.875 25.796-4.9267 29.521 8.7169 6.9505 5.8229-2.8146 21.363 8.1876 22.08 13.853-11.321 28.048-1.5911 11.364 5.6207-10.356.74296-28.151 13.454-18.271 24.602 6.0876 7.1547 20.095 6.4657 27.451 1.628 14.251-.35736 26.12-11.093 35.45-21.563 2.3592-9.2987-19.097-20.499-2.7656-12.125 14.59-3.4349 9.9027 8.7183 5.3816 15.643-6.7038 6.4373-13.373 13.937-21.39 16.482-8.6231 1.0708-16.101 8.4444-25.883 7.3333h-51.124c-5.3129-5.6132-17.075-5.7753-15.711-17.289-6.4238-7.1731-2.3764-17.498-6.4291-25.838-7.3095-12.439-14.462 4.0436-8.1154 11.264 2.9287 11.863-1.1992 25.657 12.061 34.715 9.0323 8.3534 21.31 9.5561 33.516 8.4577 15.391-.70532 31.652 1.3416 46.506-1.0653 7.6148-6.0122 18.423-2.4866 26.387-9.2982 12.135-6.7869 18.193-18.957 26.101-29.612.3662-12.273 9.8815-21.988 7.1198-36-1.4855-13.684 15.739-4.6878 22.823-3.2149 10.896-.51347 15.224 8.4566 26.955 5.2149 10.651-1.5519 19.804 1.3392 29.072 3.9244 15.428 1.0358 31.837-1.9963 46.629 1.6745 11.302 8.2057 27.258.4222 38.89 5.0882 7.7099 6.0022 20.582 1.0113 30.343 2.6463 11.376.8185 24.012-1.6274 34.62 1.1815 8.7383 7.3567 22.469 2.2502 33.357 4.239 10.712-1.7624 21.98-10.967 32.384-.24025 11.337 8.4145 10.265 26.06 8.1877 38.82-12.852 2.0859-2.7719-17.089-7.168-24.482 1.8996-12.971-22.955-17.071-19.088-2.4837 1.2546 9.3659-4.3375 23.708 3.1727 29.633 16.863-1.896 14.309 4.3542-1.1153 2.6667-10.985 2.6012-24.366 13.942-32.781 14.333 14.104-17.516-11.223-20.666-6.7091-1.1325-8.7057 5.0362-19.458 32.63-1.7808 24.395 3.0397-10.392 8.0929-9.888 18.623-13.527 8.3128-6.9638 17.684-14.758 29.498-13.402 6.2536-7.335 20.614-4.5229 28.924-1.5607 8.8468 5.1335 20.472.84739 27.928 9.3897 15.061 15.516 33.822 29.436 36.36 52.773 6.355 7.4078 4.1888 18 4.4476 27.937 2.5191 12.692-12.136 20.535-9.3333 32.973-9.3401 9.002-14.515 23.379-26.335 29.155-7.9653 3.8803-14.608 10.409-23.954 11.352-10.364 5.7908-24.037 1.4992-35.712 3.2953l-1.6164-.6943zm38.586-20.75c12.037-3.4127 22.681-12.764 28.95-23.015 4.1093-6.9918 8.8438-14.307 13.327-20.644-1.0238-9.6657 1.9342-21.201-1.3537-29.804-9.9698-8.1972-2.5997-25.385-14.131-32.974-8.672-10.257-21.338-16.253-33.77-19.609-8.4255-2.2074-19.415-7.937-27.403-.8495-13.384-1.072-24.465 7.2933-34.011 16.432-7.1803 14.619-19.194 27.408-15.997 44.487.89367 11.979-3.0248 24.969 5.0349 34.741 3.8486 9.3272 17.201 13.602 18.298 24.284 8.891 6.9546 19.928 5.0169 28.119 11.619 11.185-.89469 23.425 2.9253 32.937-4.6664zm-45.425-12.076c-12.859-12.434 20.175.21435 3.3252 1.8365zm19.037-26.836c-13.617-.82824-19.389-12.283-19.333-24.21-1.2553-10.103 5.959-26.34 17.94-24.211 10.98-1.6993 20.269.55022 26.285 10.447 7.8996 5.8245 6.9956 19.657 1.16 26.603-5.5573 8.6986-15.411 15.268-26.052 11.372zm13.154-15.185c11.139-7.1893-6.6862-30.159-16.049-18.045-9.0612 6.0817-2.1252 24.046 9.3738 20.808 2.9161.7666 4.63-1.054 6.6751-2.7635zm38.44-27.237c.78799-12.404.0961 12.464 0 0zm-12.217-16.586c-2.1185-13.271 10.431 8.649 0 0zm-164.14-18.261c2.7725-7.6455 5.7785-13.548 8.2682-21.636 11.378-11.332-3.3929-28.594-8.1156-3.638-4.3925 7.807-4.7387 15.67-8.0557 22.728-1.8733 6.9287 6.0889 8.0518 7.9032 2.5458zm26.062-9.1523c6.0877-5.4782 15.737-31.367 3.1343-30.447-7.5528 9.0336-5.7726 19.688-13.745 29.311-10.41 13.433 8.6718 19.196 9.7992 2.7718l.78204-1.5758zm15.597 10.459c4.3923-11.013 23.395-32.45 9.5829-41.793-6.1724 5.845-11.103 16.232-12.491 24.922-1.8151 5.7604-12.758 22.471 2.9078 16.871zm-63.92-2.7934c6.6914-8.5394 6.9352-18.038 10.358-26.64 11.741-6.3884-.14419-21.686-5.7711-8.4327-4.7835 10.355-20.345 31.205-9.5336 38.74 3.4138.82775 4.0223-.76668 4.9469-3.6667zm-74.451-14.442c.93742-18.308-14.953 10.822 0 0zm123.15 82.122c-7.4477-6.4559-24.062 1.9815-26.737-8.5024 12.151-1.3291 26.571-2.877 37.733 4.406 2.319 7.8575-6.5269 7.8938-10.995 4.0965zm196.6-4.2794c-2.9228-11.914 15.457-17.561 1.4925-23.733 23.36.39217 3.5456-16.191-6.6508-15.228 4.1991.7195 18.269.30365 23.348 5.2479 9.784.93453 21.077 14.747 12.29 24.015-4.1692 9.1886-15.694 3.9546-20.406 11.298-3.1859-.73268-8.0086 1.6672-10.073-1.5996zm25.733-22.4c-5.7969-9.2828-13.735 7.1516-.0457 2.0053.71001-.0494-.0426-1.402.0457-2.0053zm-566.44 19.111c-5.7156-15.931 2.8898-26.523 21.687-20.566 10.491 2.9202 18.223-5.0214 27.907-5.1443 95.648.44563 191.34-.57311 286.96.79143 9.2521-2.2935 26.429 3.8273 14.372 10.576-11.417.32577-23.106 2.0913-33.312-3.4349-33.946.0134-67.892.0267-101.84.0401-10.776 8.5256 4.8388 12.579 13.165 10.076 26.405.19448 52.811.38897 79.216.58345 11.271 11.68-9.9518 7.2181-16.844 7.9666h-74.362c-11.466-1.3536-16.618-16.461-28.622-14.666-35.74.006-71.481.0113-107.22.0169-11.886 10.075-28.83 3.3799-43.166 5.3302-8.6294 3.7147-18.083 5.284-26.436 9.319-3.6121-.64721-8.572 1.2878-11.509-.88936zm87.196-120.74c.75958-10.717 16.021-13.783 11.916-.21881-3.9935 1.1206-16.832 9.8676-11.916.21881zm42.603-33.294c-3.5699-8.1758 4.006-27.723 6.6463-11.516-.5074 9.226-4.8517 17.078-5.3333 26.437-2.854 6.2202-.51994-13.936-1.313-14.921zm-28.02.4179c3.5207-4.8273 2.9387-21.487 10.219-16.739-2.5263 5.3582-2.3574 23.744-10.219 18.816v-1.7592zm-48.548-20.266c-8.5374-8.8063-1.0402-22.853 3.2642-31.458 6.6534-6.5219 20.78-7.1312 26.815.36052 9.9699 9.9222 5.6574 27.871-10.3 32.511-5.2303 3.062-16.622 5.58-19.779-1.4131z"/>
</svg>
