<?xml version="1.0" encoding="UTF-8" standalone="no"?>
<!-- Created with Inkscape (http://www.inkscape.org/) -->

<svg
   version="1.1"
   id="svg1"
   width="334.66666"
   height="320"
   viewBox="0 0 334.66666 320"
   sodipodi:docname="ship_A165.svg"
   inkscape:version="1.4.2 (ebf0e940d0, 2025-05-08)"
   xmlns:inkscape="http://www.inkscape.org/namespaces/inkscape"
   xmlns:sodipodi="http://sodipodi.sourceforge.net/DTD/sodipodi-0.dtd"
   xmlns="http://www.w3.org/2000/svg"
   xmlns:svg="http://www.w3.org/2000/svg">
  <defs
     id="defs1" />
  <sodipodi:namedview
     id="namedview1"
     pagecolor="#ffffff"
     bordercolor="#000000"
     borderopacity="0.25"
     inkscape:showpageshadow="2"
     inkscape:pageopacity="0.0"
     inkscape:pagecheckerboard="0"
     inkscape:deskcolor="#d1d1d1"
     inkscape:zoom="3.1796875"
     inkscape:cx="80.511056"
     inkscape:cy="168.09828"
     inkscape:window-width="2905"
     inkscape:window-height="2222"
     inkscape:window-x="0"
     inkscape:window-y="0"
     inkscape:window-maximized="0"
     inkscape:current-layer="svg1" />
  <path
     style="fill:#000000"
     d="m 201.99999,317.64803 c -24.79676,1.5299 -47.93703,-11.30861 -72.84197,-9.64803 -7.77899,-4.82024 -17.6085,-2.1553 -26.35603,-3.44 -7.105176,-0.0712 -14.227877,-0.0721 -20.301945,-4.2786 -8.489506,-3.71267 -13.786144,-12.37379 -19.83338,-18.98307 -9.902798,-16.77271 -20.083787,-33.83573 -34.666666,-47.0965 -0.307298,-6.64348 -9.497037,-8.09343 -11,-15.21378 C 10.2408,213.24875 7.5304112,204.08901 3.7708781,196.40526 2.5070085,189.84667 4.1428873,182.15049 0.98906898,176.33333 -0.36507784,172.71554 4.4017643,167.42298 3.0426705,162.13993 3.4778477,155.56413 3.4799773,148.8726 7.3336941,143.21046 14.539058,126.50408 24.369811,109.62137 23.999995,90.824045 28.900862,88.1777 26.211804,80.787048 27.732254,76.027675 27.21489,66.724202 36.566197,61.247511 41.076039,54.119518 48.884621,45.512334 57.30446,37.495101 65.568838,29.333333 77.406934,25.580705 88.576958,16.55947 101.74468,15.613095 c 5.96294,-4.456055 14.38683,-2.292079 21.42328,-3.920363 20.72302,-1.537467 40.18022,-12.234266 61.17578,-11.47279054 8.06625,0.92598734 16.61806,0.0395008 23.65625,4.80293224 13.74235,7.1540233 26.02937,16.7431103 39.1533,24.8573793 11.27677,5.642594 22.73035,11.175399 34.46378,15.56579 5.7959,3.731183 9.49025,8.301646 13.0084,13.723331 4.89851,10.551428 7.09116,23.306898 12.35786,34.163959 6.77583,13.785687 18.2547,24.359537 22.33472,39.438777 5.28931,8.28747 2.92387,18.58243 4.32463,27.89456 -1.9343,10.40392 -0.81763,21.66014 -6.37903,31.02083 -4.50701,7.81809 -6.06225,17.85794 -12.70124,24.23295 -11.88572,12.82311 -25.8778,23.89723 -36.67255,37.51403 -4.17328,1.27229 -7.68781,5.78193 -10.67702,10.14676 -1.2568,6.02974 -9.23657,2.19531 -7.21285,8.69464 -10.69931,12.60118 -21.1511,25.99859 -34.32819,35.95173 -7.88795,3.00068 -15.0331,9.15866 -23.67181,9.42042 z m -34.66666,-37.03391 c 11.88061,-0.15655 24.04596,0.0609 34.91234,-5.63552 8.82382,-0.012 14.5456,-7.1309 23.08063,-8.59926 -0.22945,-5.28403 8.5551,-3.9227 11.31599,-7.69777 6.45924,-6.93827 16.05273,-10.28136 20.35632,-18.82501 12.90605,-15.28636 25.46737,-32.44557 28.46459,-52.68156 4.51818,-10.12889 3.04447,-21.62725 4.6323,-32.44045 -1.21144,-14.54579 -3.72361,-29.0667 -8.32943,-42.82311 -4.81144,-3.16785 -3.0665,-9.9945 -6.15495,-12.656003 -7.20396,-7.505965 -13.00986,-20.219954 -21.5683,-28.102341 -8.46971,-5.892892 -13.07785,-15.011892 -23.03477,-18.35809 -14.63611,-8.951557 -31.18284,-15.207931 -48.18595,-17.443624 -14.48174,0.543836 -29.15428,-0.512095 -43.51769,1.023856 -8.81895,1.237008 -17.3108,4.249432 -25.05524,7.624762 -6.1921,1.136602 -12.28795,4.68885 -17.582651,8.291199 -5.779408,4.121315 -12.709999,5.685683 -16.911404,11.888154 -7.029483,7.063643 -14.058967,14.127287 -21.08845,21.19093 -5.470608,9.051201 -11.072117,18.195047 -14.535274,29.032227 -5.33034,8.11576 -4.006081,19.52418 -8.727937,25.2398 0.14703,13.57852 0.294059,27.15705 0.441088,40.73557 5.703236,7.18693 5.176797,18.63486 9.488786,27.11226 4.294713,7.61425 9.462208,16.46643 14.678237,24.33218 8.684532,9.22679 18.067186,17.87536 27.015207,26.88392 6.646548,-0.10907 6.000107,5.46169 12.158383,6.76072 14.874295,7.70577 30.562765,13.64349 47.359695,15.29885 6.82682,0.77857 13.90206,-0.22753 20.78848,-0.15169 z m -6.66667,-10.08816 c -5.80449,-0.60312 -12.59559,2.17294 -17.24802,-2.37597 -5.61768,-1.08824 -12.19587,-0.38598 -17.26561,-2.49565 -2.89437,-4.73412 -9.05052,-1.97391 -10.66435,-5.65434 -9.44997,-0.14495 -16.763726,-9.10164 -24.507438,-13.99792 -14.176633,-10.8447 -26.280135,-24.86717 -33.329563,-41.33541 -1.354756,-10.6358 -11.118024,-18.26065 -10.318347,-28.73749 0,-14.9944 0,-29.98881 0,-44.98321 6.075308,-2.64235 2.831852,-10.23325 6.666666,-12.76147 3.548656,-2.77116 1.457303,-10.28978 6.627605,-13.81096 5.309096,-11.813576 18.387407,-20.761553 24.294717,-31.040207 12.089967,-5.369093 22.0584,-17.34139 36.05181,-18.666666 2.19529,-7.103962 12.81884,-4.025936 19.06043,-7.488382 12.83045,-2.292547 26.205,-1.078336 39.25218,-1.974043 3.9843,3.10345 9.427,3.097418 14.57557,3.534308 6.35204,-1.32595 9.6952,3.514261 14.56451,4.594783 5.37189,-1.581801 6.83119,6.282237 12.49321,4 1.72944,6.63201 11.07866,2.867146 9.74663,9.174156 5.27654,1.889301 10.09857,4.797898 13.11902,9.871658 15.04573,16.498598 26.93269,36.279993 33.74702,57.341453 2.08347,18.05992 1.23218,36.69857 -2.24681,54.38937 -3.24491,9.27292 -8.02116,17.38643 -12.32131,26.52983 0.9692,8.1989 -9.92371,6.16892 -8.26598,14.21539 -3.67425,1.78681 -12.04857,10.21431 -17.26407,15.63027 -1.727,4.59674 -7.77213,1.62802 -10.59034,8.1641 -4.77475,0.16121 -8.31566,1.76192 -11.0785,5.85669 -6.41581,-1.4138 -7.96555,6.27122 -12.15236,4.60738 -4.70944,-0.0116 -8.72165,6.40051 -13.84567,3.53927 -9.62322,2.58453 -19.07204,4.51771 -29.101,3.87306 z m 0,-11.48182 c 4.87144,-1.97428 26.10894,-8.27354 10.91047,-10.25958 -12.70746,-0.84448 -25.65896,2.61448 -37.97601,-1.77415 2.51199,7.87581 14.84154,11.08753 23.06554,12.708 1.33333,-0.22476 2.66667,-0.44951 4,-0.67427 z m 6.93314,-14.73879 c 8.03245,0.26061 15.73227,-1.28417 23.16005,-4.30535 6.19932,2.54565 10.22713,-4.56353 13.901,-0.23159 5.03749,-4.90833 -5.57882,-11.4487 -11.20893,-9.10121 -7.01393,-0.43752 -13.88392,-0.0913 -20.19053,3.32218 -7.79711,3.65076 -16.87022,1.62226 -25.16886,1.74591 -3.24286,-1.68214 -15.32966,-4.45504 -8.31846,1.24522 4.32561,4.99988 12.31066,4.13324 17.01349,7.83807 3.60408,-0.17108 7.20816,-0.34215 10.81224,-0.51323 z m -4.26647,-15.42138 c 5.78234,-0.057 11.79412,0.6098 16.1543,-3.93289 5.6358,-3.37675 -8.48471,-1.29519 -11.3971,-2.31024 -6.12888,-1.00928 -13.41816,0.78194 -18.76705,-2.10977 -3.70241,-2.34544 -24.16666,-12.0416 -8.37428,-6.49156 8.81546,2.42461 14.66149,7.35103 22.99777,7.2936 4.9099,-0.837 11.72604,1.74536 15.38636,-1.33311 4.04288,-2.67309 11.01938,-0.34729 15.64153,-4.10989 7.99177,0.4891 10.87787,-5.62842 18.78046,-3.89011 6.31552,-2.87076 15.66521,7.9739 18.67762,1.32124 2.9135,-5.34119 2.24023,-11.31095 2.23372,-17.16386 -3.89397,-5.26686 -5.4817,-18.02949 -14.54247,-16.58996 -5.86616,5.94917 -14.62408,6.30237 -20.93273,11.13715 -8.39792,1.46616 -18.22921,0.2103 -27.17884,0.62876 -10.70681,-0.38737 -21.95528,0.77386 -32.32585,-0.57486 -6.05355,-5.22301 -15.33999,-3.01636 -22.44393,-6.28769 -12.33166,-2.22994 -19.173306,-14.20952 -30.109107,-16.41328 -9.030386,-2.99838 -27.319773,-16.43665 -31.268789,-13.06655 11.874703,6.40276 24.661761,11.58394 35.360861,19.67572 8.922355,6.14642 16.054795,18.08465 22.107525,27.59794 2.42188,3.4945 8.9201,6.73043 13.68557,7.08836 17.50859,5.73032 -12.1861,-0.52929 -16.98587,-2.6863 -6.70424,-1.68412 -9.55532,2.67295 -15.414024,3.24405 -7.371624,2.50065 -14.660152,8.17878 -14.641143,16.53329 2.541866,4.77718 4.649614,-6.04112 9.978675,-5.73388 3.33105,-6.01805 10.201302,-2.779 15.716342,-3.08462 6.73265,0.80661 14.37676,-1.0217 19.47894,4.49843 11.44309,0.23886 22.07403,7.69996 33.82942,6.81218 l 2.15495,-0.012 z m 76,-0.46211 c 4.71653,-0.37106 10.76377,-4.60728 10,-9.75519 -12.06136,0.6793 -23.79809,-2.40495 -35.33334,-5.4768 -8.09266,2.4168 -16.38708,4.04117 -24.66666,5.66804 0.45732,3.98268 -13.72421,8.16119 -1.72266,6.38796 7.96799,-5.64483 18.05106,-2.37229 27.15683,-3.24107 9.18791,-2.06629 15.21139,9.67203 24.56583,6.41706 z m -1,-32.54537 c 8.18594,-5.29381 14.37732,-18.16565 0.39629,-14.54316 -9.83298,-1.2659 -3.89386,8.98501 -2.76242,13.93351 -0.40905,3.38762 0.35802,1.60295 2.36613,0.60965 z m -82.92131,-5.20982 c 9.75981,-2.16642 -7.14807,-5.20432 -11.41888,-4.67482 -5.16892,3.7224 7.46286,-0.23514 7.82508,4.12606 0.49874,1.24303 2.54215,0.22078 3.5938,0.54876 z m 10.8102,-0.44445 c 1.80909,-6.21214 -3.98478,1.27818 0,0 z m 9.11111,0.44445 c 8.82917,0.81427 2.75185,-4.61014 -2.76697,-2.66667 -4.99413,0.0921 -0.44343,4.40571 2.76697,2.66667 z m 11.55555,-0.0424 c 5.65357,0.39737 11.71405,-6.5405 2.29477,-3.63438 -3.93098,-1.62998 -8.33741,4.86836 -2.29477,3.63438 z M 136,186.66667 c 6.50558,-1.0026 -6.54271,-1.99477 0,0 z m 39.33333,-1.00674 c 7.45622,-1.35634 17.90892,1.06059 23.0797,-4.3266 6.51591,1.36471 15.60064,-9.4778 15.82598,-1.31222 8.2343,-1.79037 1.9394,-5.44836 1.01665,-5.4618 5.04471,-5.25922 5.35867,-11.20271 4.16406,-18.0228 -3.98762,-4.22576 -9.04529,0.59647 -7.09375,6.52881 0.55528,8.55861 -10.53943,10.79665 -16.46184,14.76368 -8.95844,2.53846 -18.80966,2.56288 -28.11803,3.7175 -17.89796,-1.51832 -36.71584,-0.61471 -53.296,-8.44105 -3.74148,5.69391 10.14769,6.90058 14.01179,7.78491 7.0026,-1.78876 10.16731,4.1968 16.64112,3.63959 10.05477,0.79232 20.1395,1.46816 30.23032,1.12998 z m 29.85229,-0.3266 c 14.08134,-5.47807 2.04199,-9.6678 0,0 z M 121.33333,184 c 5.37331,-3.59003 -5.19118,-3.14221 0,0 z m -4,-2.66667 c 6.50562,-1.0026 -6.54272,-1.99475 0,0 z M 241.37516,180 c 5.92203,-0.11114 12.35953,1.34778 16.62483,-3.80955 -10.56118,-2.5788 -21.65928,-1.97771 -32.46532,-2.92826 -3.68557,4.95355 6.66425,7.80265 10.84827,6.73781 1.66407,0 3.32815,0 4.99222,0 z m -99.7085,-1.42357 c 2.42209,-2.64004 0.27591,-10.27895 1,-14.77704 2.95805,-5.75394 -10.81361,-5.68348 -8,-0.1101 0.60662,5.54221 -2.65676,13.64971 5.4125,14.39839 z m 19.81738,-5.56535 c 4.46703,-6.19017 11.79916,-6.38765 17.84929,-12.5811 6.20761,-4.04838 12.34506,-7.34547 19.87366,-5.36283 4.75538,-0.41255 14.43592,3.70247 11.17203,-4.70016 -10.55639,-23.44057 -2.70508,-52.433234 16.31203,-69.156359 7.30874,-8.751804 -8.94134,-3.080572 -12.69106,-1.178955 -10.43056,2.015559 -19.01102,9.140148 -27.70362,14.940609 -7.46719,4.211249 -9.91286,10.915065 -15.45125,17.236095 -5.07503,5.38161 -5.80092,12.12361 -8.70881,18.55569 -2.62633,8.17832 -2.02483,17.84795 -6.13631,25.35825 0.58383,6.17679 -1.13259,13.30636 0.81737,18.91728 1.03531,2.19187 3.3488,-1.7556 4.66667,-2.02852 z m 32.88869,2.36372 c 8.08401,0.56129 2.77019,-10.07774 4.29393,-15.0857 -1.41847,-7.08215 -8.7963,1.66731 -7.95574,5.81116 0.42319,2.85042 -1.79929,11.78045 3.66181,9.27454 z M 106.08608,172 c 4.75903,-4.96555 9.20597,-10.07152 15.71213,-12.84834 5.42373,-3.52744 12.81432,-2.89625 18.91907,-3.12517 5.57543,2.25168 16.55092,10.06727 13.47952,-1.10315 0.34651,-8.55898 -0.94561,-17.69133 0.38982,-25.90427 5.37731,-6.70504 3.29273,-16.87113 8.15806,-24.24482 -0.43376,-4.59467 13.7692,-13.458503 4.25531,-12.75417 -12.3395,1.529933 -23.26511,9.02996 -33.25431,15.91531 -7.34294,8.77301 -17.28256,15.75791 -21.26329,26.8462 -4.73995,8.80328 -8.48314,18.21873 -7.14906,28.33969 0.55555,2.52781 -1.07927,7.68735 0.75275,8.87872 z m 135.24725,0 c 6.22222,0 12.44444,0 18.66666,0 -0.79405,-6.11578 4.72606,-18.30995 -5.7825,-15.63575 -9.58138,-0.0441 -19.68857,-1.73232 -28.94277,-0.75338 -5.12709,2.84812 -1.54555,9.92922 -2.60806,14.753 2.06963,3.70224 10.91348,0.63027 15.67949,1.63613 0.99573,0 1.99145,0 2.98718,0 z m -8,-5.33333 c -8.77211,-0.67173 3.89893,-11.1392 2.66666,-1.74435 0.66085,2.55337 -1.03369,1.58371 -2.66666,1.74435 z m 16.98468,-0.25088 c -8.36094,-0.0651 4.61059,-10.91558 2.59002,-1.85875 0.26036,1.8774 -1.32588,1.53024 -2.59002,1.85875 z m -151.318013,-9.123 c 2.423123,-2.79577 0.274325,-10.35237 1,-14.91573 -0.268353,-8.46693 9.082223,-13.73799 13.662173,-20.04377 13.895,-10.45685 -5.63304,-4.55654 -12.6002,-0.53601 -8.31283,3.89784 -16.19447,9.07269 -21.656716,14.20272 -4.65433,1.88696 -16.043778,13.96251 -11.564659,16.78882 8.91589,1.12254 18.470793,0.15451 26.978517,2.61238 l 0.793273,0.46163 z m 142.555553,-3.95946 c 5.23842,-0.30992 1.15486,-9.94183 2.44444,-14.2006 -1.01005,-8.78495 -10.40183,3.46974 -6.59652,8.71391 -0.028,2.83281 0.43698,6.08311 4.15208,5.48669 z m -25.71198,-8.31689 c 7.46617,-6.21845 16.66415,-10.60192 26.53373,-10.11498 12.87681,2.6492 5.09075,-9.20015 6.36884,-17.41272 -3.07216,-5.11393 6.42306,-12.22854 3.04927,-13.484 -8.89529,-0.24475 -18.11688,-0.57431 -25.62597,5.22654 -7.59362,5.53981 -17.8092,12.91099 -15.81587,23.60267 -0.14453,4.593 -1.30548,12.65725 4.06066,13.29815 l 0.72707,-0.56751 z m 53.28074,1.3771 c 6.87537,-2.39375 0.33316,-11.6542 -4.02056,-2.51035 1.13621,1.73313 1.53052,3.81823 4.02056,2.51035 z M 84.934369,106.48509 c 11.130489,0.32607 19.666291,-5.76366 29.522691,-9.501802 5.66388,-4.125986 12.22633,-3.881867 18.87627,-3.649926 -1.1957,-4.368123 2.46167,-12.072066 -2.01004,-14.188379 -4.47164,-1.060037 -10.43364,-0.03808 -13.97427,3.21321 -10.09314,8.21622 -20.845635,15.64831 -32.195584,21.996147 -7.926726,-2.17145 -6.923949,-6.687409 -2.486772,-11.021007 -9.391853,-2.732404 -9.608158,4.641394 -5.477009,11.795707 2.575115,0.48689 5.144343,1.01726 7.744714,1.35605 z m 53.864661,-4.60488 c 4.96568,-3.464887 1.51138,-10.665858 2.5343,-15.88021 -0.79708,-5.988954 2.57346,-13.827148 -4.03439,-17.237769 -3.49682,4.732854 -2.12191,25.403341 -1.23607,35.084839 0.53957,0.79783 1.98793,-1.69443 2.73616,-1.96686 z m 101.20096,-0.54688 c 4.71452,0.94457 2.86658,-10.505548 1.6,-11.999997 -5.24819,-0.0032 -6.51019,13.181907 -1.6,11.999997 z M 195.0007,86.335738 c 3.75526,-2.993756 0.97459,-10.838305 2.0699,-15.806205 -1.24509,-3.944171 3.58727,-15.044874 -2.93029,-12.780422 -3.6881,4.125795 -0.717,14.07763 -1.9681,20.118579 0.61196,1.605357 -1.15531,10.849661 2.82849,8.468048 z"
     id="path1" />
</svg>
