<?xml version="1.0" encoding="UTF-8"?>
<!-- Created with Inkscape (http://www.inkscape.org/) -->
<svg version="1.1" viewBox="0 0 340 333.33" xmlns="http://www.w3.org/2000/svg">
 <path d="m8.4253 331.45c-6.611 3.068-7.872-5.8031-6.9958-10.489l-.12576-131.45c.36217-23.563.12207-53.235.17938-78.842 6.1434.74422 4.5893 10.117 7.5666 13.801 4.5698 2.825 12.279 3.9817 16.097-.38123 4.5715-2.8582 7.6882-8.2133 4.2927-13.174-3.5678-5.3094-11.445-6.0007-16.791-9.4042-3.9794-1.0178-4.5258-12.291-7.9084-9.6261-5.6282 5.2941-2.7308-7.4273-3.4062-10.832v-75.391c4.8746-5.4389 13.036-1.853 19.495-2.941l61.884-.35447c4.4365 4.3744 7.8454 9.9158-1.318 7.4744-7.2741.34106-15.053-2.4573-21.84.91533 7.4847 5.3675-1.8669 5.2218-6.6064 4.8015-4.9408.57732-8.7122 7.0792-7.5594 12.113.83283 6.0586-.21775 11.268-5.8718 14.403-5.0231 3.3975-11.573 5.3106-13.195 11.886-2.204 5.163-2.4056 11.671-2.2033 17.105.9761 5.0475 7.5585 7.4167 11.41 4.2711.9848-9.4073 6.3223 1.3439 11.812-.66667 3.2281 2.911 10.936 8.8853 9.9935.30981 3.6065-5.7661 1.6772 6.8681 6.0796 8.7382 2.6689 4.6896 8.9188 6.5924 14.003 6.952 6.5225.15063 14.694-.79822 18.363-6.8729.99309-6.9656 2.8833-14.013-.69166-20.562-3.6601-6.2052 10.679-5.1217 4.4684-.92019-2.867 4.7048 7.1055 1.8334 1.902 8.9937 6.1271 1.5235-1.5205 6.8873-.87677 11.755-1.07 5.1934-5.9478 10.001-9.719 12.939-6.4518-2.0686-8.5993 4.3195-1.7364 5.5481 5.0658 6.0789 10.535-4.5259 12.141.33784 4.9951 2.7403 6.5858-7.2508 12.149.1141 2.9957-8.4399 4.9672 3.2 10.866 1.5469 5.8573.10594 10.28 2.5522 12.994 7.7865 1.0508 5.953-2.6847 14.001 3.5164 17.7 4.5419 3.7145 8.0603 10.03 14.745 8.3002 6.8676-5.7603 9.4548-14.744 8.0852-23.445-.6311-7.4449.47535-15.636-1.2375-22.616-3.6187-2.6619.83897-13.651 1.6172-5.9384 7.3735 2.1555 1.1058-7.6676 7.3333-9.3333 3.7254-1.9279 4.5222-10.688 4.9333-10.667-2.4875-2.0597-1.4392-9.3674-6.8866-11.838-4.7692-1.513-12.771.30425-11.191-7.1974-1.9284-4.5454-10.882-1.3317-13.115-.3051-3.7929-4.3735 10.064-8.8733 1.5481-12.875-5.1875-4.2165-9.3994-4.2224-13.777.21617-8.6162 1.6276-4.5415-4.8633-.72126-8.3152 1.1083-5.5839 9.3839 6.5312 9.2094-.64236-2.7131-4.3496-7.2931-7.8627-11.521-9.7769-2.3256-4.6005-9.6916-5.9449-11.442-2.6874-4.1884-1.8802-11.796-3.6575-11.278-8.8531 4.3753-2.4877 11.352-.28711 16.716-.99322l128.56.52174c2.6775 5.6684-3.5666 8.1692-8.6829 7.9174-4.9975 1.539-9.9123 7.1544-11.841 11.788-.18168 7.6166-2.7719 15.882 2.5168 22.375 3.712 7.9541 7.8955 15.758 8.6056 24.667 3.6607 2.1987 4.6345 7.8772 11.957 5.3333 4.0746-1.3074 13.869 3.1053 13.08-3.0667.43666-5.2905 4.6813-9.7616 5.2653-15.551 1.4574-6.958 4.9321-13.416 6.9612-20.015-1.2854-6.4527 1.4113-14.653-4.9783-18.866-4.1587-6.6213-13.233-6.0035-17.852-12.191 2.8969-4.8945 10.63-.88527 15.589-1.9851l62.349 1.3717c6.9985 3.2223 2.2206 11.062 3.6944 13.633.19368.24757-.008 14.875-.48805 36.617-.18575 8.4213.0451 17.268-.12391 25.828-.1478 7.4863-.77852 14.795.0745 20.871-54 .22911-110.49.45821-164.49.68732 6.4758 3.8345 11.585 11.787 19.947 9.937 44.092.021 88.183.042 132.28.0631 2.908-1.4663 11.71-13.289 11.416-7.0253 1.0946 6.0171 1.9507 6.3878-.819 11.692 2.818 5.3709.66382 6.6314.2879 13.128.0154 65.573-1.1159 131.06-1.1005 196.64-.66776 7.1062-8.5612 3.8323-13.386 4.8882-21.414 3.5935-44.251-.015-64.623.1594-4.3695 3.0685-10.425-1.5203-13.345.79529-4.3378-4.9142-5.368.93863-10.968-1.6084-3.077-3.2455-3.0841-11.388-7.812-12-6.876 2.0019-7.6255-4.3455-14.239-3.685-6.3851-2.6826-8.1157 5.8645-11.972 9.284-6.1574-.23811-10.988-3.4706-15.537-7.3413 3.5212-9.6679 4.7763-1.1174 9.0094.97759 5.8431 3.2091 9.7407-3.3843 8.1988-8.6523-4.3876-1.379-10.639-4.5395-10.667-9.5553-1.3474-3.721-4.5654-13.512-8.6667-6.3609-6.1119 7.5932-3.031-3.0001-6.6667-5.3333-3.7485-3.1712-.0921-9.8893-7.158-10.667-5.9076-.25103-10.199-.5914-13.494 3.083-6.973.14638-6.4749 7.924-3.6121 12.406 1.9418 5.3453 8.4546 7.3128 6.264 13.908 2.4516 6.6891 11.084 3.0005 16.644 3.9356 7.3654-.99956-.0599-7.252-.64417-10.766.27841-7.8167 6.1473.47506 7.2103 4.0129 3.3858 4.9267.29611 10.592-5.3713 10.871-5.436.3118-12.097-1.7124-16.789.0181-4.5348 4.4014-.89158 10.495-.74741 15.865-5.0466 2.1673-9.1692-6.6039-12.443-.39265-3.3918-5.1307-10.989 1.0436-13.193-1.01-2.4801-5.2212-8.5187 3.196-11.039.52548-2.3105-4.2738-2.2459-12.056-8.9839-9.7894-3.3579-3.1023-6.1534-7.219-12.277-5.3333-6.8844 1.3009.13233-6.9098-6.9269-8.8935-5.3243-4.8799-2.9402-12.142-3.4395-18.513 6.9221-5.6078.48014-8.0893-5.8228-6.4567-6.673-.46306-13.202 2.7401-15.255 9.4455-2.8521 6.2105-6.2584 12.136-9.5042 18.144 2.0454 4.771 10.741 2.3246 10.73-2.6591-2.5678-4.8338.30694-11.616 5.502-12.389 3.8152-.50115 13.704.91293 9.4048 5.3223-5.2533.12614-7.706-4.9707-12.389.64146-.16454 5.4757 1.1627 11.46-3.6273 15.359-4.0383 1.4202-14.729-3.102-13.732 2.8165-.8619 4.3058 5.1593 16.162-2.172 14.689-14.606.49649-29.571-2.5116-44.044-.72411zm145.8-21.226c1.5814-4.4907-3.1498-.04-.22079.22079zm-71.222-33.606c12.204-.77057 22.856-6.9958 34.333-10.485.74423-3.7035 9.0028-2.1886 11.603-7.2341 5.6234-2.6621 6.418-4.9884 11.898-6.9183 10.459-10.818 21.977-20.866 29.675-33.979 1.5194 7.4602-5.6092 12.414-8.5099 18.667-4.2322 4.3592-8.4644 8.7184-12.697 13.078 3.8597 1.4305 12.806 7.7518 4.2784 8.0185-5.2683.5594-11.529-4.6494-15.101 1.1979-7.3401 5.4111-4.2013 4.1594 2.1015 7.0568 6.7325.93215 7.3144 10.034 11.902 9.6505 5.1102-1.2205 10.327-1.8404 15.516-2.6147 1.0279-5.788-2.644-11.822-1.8903-17.034 5.427-2.6071 1.4648-9.3229 4.3716-12.571 2.9475-4.1747 1.5296-11.095 2.8034-16.322 1.0598-6.173.0233-13.143 1.9286-18.872 4.6704-3.4589 11.841-1.4721 17.526-2.7222 6.2137-.88447 13.112-.17536 18.916-2.0128 2.3168-3.1329 11.248-4.961 5.1215-7.5184-3.586 3.0521-7.8374.96954-11.213 4h-18.981c-4.4164-7.2016 4.5239-14.06 2.7504-21.749 1.1894-7.199-1.7174-13.533-4.854-19.818-4.6833-4.0104 2.4868-12.317-2.0281-14.528-10.427-.84433 5.7797-4.7069 1.6527-8.8165-6.248 1.1066-4.8615-4.5039-10.104-7.0047-4.07-1.7566-13.508 3.9654-6.9018 6.6396 2.8813 1.6406-10.178.9043-4.1463 7.9423 7.7776-1.8087 7.9432 4.4622.007 2.6667-1.7629 4.0908 12.174 5.2773 5.9436 8.3917-6.6753 2.0993 3.3927 7.7968 5.3289 2.3097 3.8534 2.2026 5.387 6.4964 7.0838 11.454 2.1039 5.3938 2.5535 9.8981-.18319 14.722-1.0679 5.0035.24372 11.077-4.809 12.626-3.1435 4.2155-8.0934 7.923-2.9897 11.976 2.7389 8.5766-5.6548 4.5592-8.1388 11.028-8.4517 10.142-14.755 22.444-26.352 29.425-3.1614 4.6614-9.9232 3.1208-10.759 8.7357-6.2563-.95744-9.2615 6.7364-15.603 6.8532-6.6028 1.2912-12.269 5.1192-18.092 7.8048-7.0025-1.8701-5.5678 4.754-12.388 2.2789-6.656 1.613-6.0794 6.1518 1 3.679zm77.754-25.949c-2.473-2.551 1.1682-10.692 5.9123-9.3333.9299 5.1403-.52287 8.4952-5.9123 9.3333zm-73.879 18.098c10.262-.44252 18.344-7.8256 27.791-11.166 15.069-5.3219 25.737-17.618 37.081-28.265 4.4766-.10105 3.1569-8.2441 8.4904-10.643 2.1868-4.9891 3.701-11.867-3.8266-12.023-2.2931-2.5678-7.9262-3.695-11.385-8.6376-8.3126-8.1978-16.625-16.396-24.938-24.593 4.3519-3.4691 9.095 3.6848 12.451 6.4204 3.7352 3.6747 8.5372 5.77 12.2 10.188 2.5936 5.1195 9.522 4.7849 12.594 7.2341 1.8349 3.9622 8.1599.0963 10.796-2.4374 5.9621-1.8527 8.0462-8.7634 10.429-13.786-.39745-5.7043 1.3458-11.796-1.511-17.055-7.3092-2.2375-4.5714 6.6021-8.3157 10.704-1.3212 6.4556-7.4397 8.24-12.676 10.822-9.6044-.3299-2.5047-2.796 2.5806-5.0046 2.0608-2.746 10.63-12.835 2.463-8.0621-5.3545 3.6862-11.217 5.7963-17.766 5.771-3.1181 5.2335-16.214-2.8276-8.4988-3.2305 6.6008-.66165 14.426 2.2757 19.204-3.743 2.7556-3.5088 12.013-6.2008 8.7343-11.059-2.1487-5.7915-10.982-3.1232-13.577-9.0632-3.7056-4.3249-9.0141-7.6625-14.088-9.8018-4.4857-1.1802-13.737 2.4049-15.108-1.8897-.31791-5.3363 10.459.42221 12-3.0552-.70211-7.3984 7.1577 2.0167 10 3.2769 8.9954 4.9819 4.7907 1.3459-.69225-3.1246-4.7174-6.4177-13.149-3.332-19.954-4.4074-8.2744-.77674-17.176 1.9947-22.374 8.709-4.5427 4.9263.21902 11.905 2.8819 16.828 4.0605 6.872 7.5915 13.717 9.0808 21.663 4.9226 6.2483 4.1448 15.232 6.5946 22.667-1.0788 9.9182-.26653 21.658-9.3713 28.172-3.3121 4.2073-9.1587 7.367-10.832 12.252-1.9398 4.805-6.9944 8.7801-9.7936 13.564-2.0406 3.958-7.1238 11.02-6.5724 13.561 1.9694-.26125 3.9389-.52251 5.9083-.78376zm45.023-31.432c-6.1058 1.083-11.058-.49996-14.344-5.9357-1.135-3.2437.67071-15.299 3.7782-9.7302-1.5213 5.5996 4.9949 10.153 9.8608 10.333 4.3416.35584 11.913-.68814 12.812-5.2228.84454-5.2658 2.4786-8.7808-2.6729-9.0554-1.8759-4.8374 9.2359-4.5019 9.1432-.29427.22398 6.4751-3.2208 12.702-7.7768 17.358-1.928 4.473-7.0146 1.8591-10.801 2.5481zm-.0258-9.3515c-4.0477-1.3807-8.389-8.7951-1.2066-9.2314 3.1646-6.5006-10.639-2.652-3.1205-7.9606 6.8849-1.1668 8.3301 3.3676 5.4724 9.0474-5.1232 9.2204 5.2645 1.5145 5.6481 6.1409-1.4639 1.081-4.6768 1.6842-6.7934 2.0037zm-7.6511-7.9818c-6.8788-1.3649 3.5133-7.7801 1.1111-.11034.0794.48651-.76233.052-1.1111.11034zm-8.8889-49.333c-7.563-2.6916 7.4759-3.3611.11034 0zm82.127 24.801c9.415-1.0865 18.758-3.6645 27.362-7.645 3.126-5.1248 6.0784-10.289 4.4516-16.491.40913-3.6826-2.6061-14.907 2.15-12.391-.89865 8.6914 2.6842 7.6381 8.088 2.6258 16.033-11.874 29.348-26.825 43.041-41.247 3.352-.69084 17.155-2.706 14.503-2.6671-3.8851-1.4507-13.446 2.6377-13.055-2.9859-8.0358-1.1061-15.88 2.2237-21.525 7.7291-6.099 2.432-13.053 7.1258-19.394 6.0739-4.8371-4.1673-8.5199-10.576-13.45-13.881-4.7359 1.1364-12.326-1.1674-15.312 2.078 1.1359 3.7001 10.304 2.0973 10.143 8.8958 5.1774 5.1008-1.7527 8.1766-1.188 13.837 1.2588 8.4119-7.8388 4.105-12.847 5.5476-5.6416 1.2414-11.4 3.9619-16.538 5.3385-5.5911-2.3822-10.013 4.4793-4.8582 8.7304 3.3025 4.1776 2.3078 9.7405 5.3848 13.274-1.1978 8.0704-2.2342 16.17-4.1628 24.108 2.4022-.31033 4.8043-.62067 7.2065-.931zm-37.164-43.468c2.0412-1.2938-6.5429-8.8128-9.7605-8.8762-4.171-4.2102 3.615 6.5199 7.061 7.855.73156.96928 1.5388 1.1932 2.6995 1.0212zm-109.7-9.3333c5.5784-2.476 5.9175-9.2736.212-4.6668-3.3411-3.995-13.575 5.4503-3.2869.99673 4.4267-2.4525-.50545 4.8537 3.0749 3.6701zm8.8033-2.6667c4.4129-.0571 7.7297-12.332 2.4728-6.3215-.30865 1.6722-4.1895 5.95-2.4728 6.3215zm-20.14-2.6667c9.689-2.8134-7.3399-3.5368-.03165 0zm28.745 0c4.3342-1.5014-4.9433-3.5746-.3885 0zm8.927 0c4.928.40962 10.93-5.209 11.073-10 2.1137-6.5748-4.3895-8.472-2.469-14.611 2.6542-5.2878-2.8687-12.055-7.6431-7.2119-6.5482 3.8779-13.38-1.4437-19.33-4.2672-5.1871 2.5312-1.4066 10.062-2.5582 14.843.83826 5.2949 7.556 8.1319 10.684 12.47 4.7371 2.2922 5.4691 9.9557 10.243 8.7774zm-44.371-4.1053c9.6621-.73806-8.8005-1.236 0 0zm61.58.10527c9.455-4.7761 20.174-4.7404 30.531-5.5112 2.8338-6.8939 10.424.75129 7.0447-9.024.38511-4.127-1.6495-13.116-7.0768-8.986-5.8369 1.1921-3.3671 10.264-1.0895 12.489-1.2729 6.0666-9.6889 1.741-14.244 3.0325-4.7856 1.234-14.366-1.0886-5.4277-3.8677 4.3347-1.4755 13.178 2.3323 14.667-2.0175-.92615-3.8557 4.0023-13.026-2.8179-11.626-6.3518.11785-12.704.2357-19.055.35356-2.7257 3.7446-8.911 2.4707-5.4441 10.27-2.1103 8.2418 7.9029 2.8516 7.4441 8.1697-4.3187.24181-10.401 2.9669-4.5312 6.7175zm-63.469-5.5439c10.626-.74644-10.536-.93933 0 0zm252-1.1228c6.5269-1.0532-6.5648-1.9381 0 0zm3.5556-1.7778c1.5814-4.4907-3.1498-.04-.22079.22079zm17.19-6.2222c3.8995-6.6134-5.4238-3.374 0 0zm-47.771-20.291c4.8642-1.2604 13.773 2.0259 15.957-2.2468 2.3331-5.9693-4.8135-9.6146-4.5316-15.631-2.7899-4.0669-11.356-.76185-16.495-1.8318-7.1252-1.918-8.0489 5.0456-8.8667 9.8822-4.1488 3.6081-4.3458 12.372 2.9662 10.09 3.6565-.08758 7.3129-.17516 10.969-.26274zm-170.45 226.92c-3.9313-.55668-9.7272-5.0606-9.1947-9.5931-1.8493-5.6831 10.544-9.2953 6.5113-4.2629-5.6666 4.2243-1.3189 9.1281 4.541 8.7126 3.3387-6.5757 8.1384.57097 2.6899 3.2722-1.4743 1.166-2.4887 2.3505-4.5476 1.8711zm17.355-229.29c-2.1365-1.6171-1.7209-11.285-.27131-13.333 5.9592 1.0232 1.4157 9.1865 1.4874 13.333h-.94483zm6.7839-4c-5.4284-4.0313 4.9504-5.1186.38851 0zm28.091-1.5169c-8.1782.19973-16.219-1.7137-24.091-3.7327-2.0642-7.6226 6.7537-2.2605 10.934-2.507 5.9652-.53305 9.3902 3.4996 14.336 3.7566 5.0752-.84545 6.9513-2.0547 11.906-2.878 6.1673-.70675.72831-11.143-2.3054-8.4274-3.1998 4.5802-11.116 6.1021-12.145-.75925 2.1797-5.8945 10.019-3.7432 15.065-5.2804 2.9867 4.57 9.065 8.0419 8.3451 12.917-.89813 5.8041-9.0383 4.2297-13.227 6.6814-2.7989.89141-5.9132.06537-8.8178.23012zm17.909-7.8164c2.8905-1.5264-2.7591-1.6632 0 0zm-77.127 1.3333c-5.3315-.52992-7.9828-8.0083-5.4967-12.347 4.4464-3.329 7.8761-9.3573 14.219-7.6529 5.3252-1.0463 7.9015 7.4523 7.354 11.739 1.6645 4.5609-6.8558 10.029-7.616 5.0384 2.362-3.7598 4.3392-7.8527-2.5622-9.1946-5.2534-2.7762-9.5891 5.9088-5.4378 9.0843 1.8357.30091 2.2677 4.5914-.46002 3.3333zm42.112-3.2201c-7.097 3.241-9.4296-5.4128-.93098-3.7821 5.2172.42491 12.167-3.1215 11.279-8.9978 5.56-.81729 1.6967 7.8813-.89415 9.718-2.9124 1.9187-5.9472 2.9508-9.4541 3.0618zm-4.1286-10.113c-7.7924 2.2256-7.913-6.025-.26667-3.8675 6.2076-.67275 7.992 5.7026.26667 3.8675zm55.354-1.5082c-5.8233 4.2759-1.4076-11.254-7.5778-1.9212-2.8365 1.4249-6.2618-9.4902-.7533-10.753 4.2227-1.4436 11.306 2.6094 10.12 7.506-.0245 2.1112.57488 4.1557-1.7893 5.1684zm-18.468-2.744c-4.2485 2.3553-10.141-8.0821-5.7681-9.8943 3.8974-4.1351 9.176-1.4658 10.193 3.6173-.86238 3.3274.67272 7.1753-4.4246 6.277zm-.33087-5.0812c3.5995-3.8575-6.0266-3.7873 0 0zm-35.412 4c-3.6386.94625-16.176-.60511-7.8322-2.6667h18.499c1.6221 5.2413-7.8712 1.5685-10.667 2.6667zm-50.307-5.3333c-1.7766-2.8751.98566-9.2907-7.8408-6.6667-3.6267-.50319-4.5119-10.619-10.694-4.8827-7.4848 3.0234.05783-8.407 4.7314-5.2015 5.9115-.62591 8.0667 4.7003 13.735 3.4175 5.151.14578 7.3133 6.1447 13.912 4.8421 7.2681 3.1393 5.1908-7.3015-1.1506-5.9992.54903-4.7613 10.148-5.7198 11.925-5.8982-1.882 4.6166 2.4955 13.474-.12534 14.56-6.7011.08687-13.552-.40545-19.145 3.9594-1.7732.73071-3.2872 2.3189-5.348 1.8696zm44.811 0c-7.0915.76299 5.874-8.8957 2.8299 0zm-7.7898-10.667c-4.8638-2.6333 2.3684-11 7.6259-8.4311 5.1165.61101 13.382-1.6869 14.994 4.6903-2.5737 3.0567-11.032-1.7899-15.456-.04855-2.4158 1.0621-4.392 3.9857-7.1635 3.7894zm-1.2136-15.167c-8.3838 2.6486-1.7006-4.9668 2.4062-6.1667 3.8889-.84887 16.738 2.5101 9.4384-3.593-4.4432-.97365-10.749-6.6346-2.326-5.7403 4.8353 2.9728 11.208 5.0885 8.9814 11.998-.0714 5.5958-10.012 1.3223-14.333 2.6683z"/>
</svg>
