<?xml version="1.0" encoding="UTF-8"?>
<!-- Created with Inkscape (http://www.inkscape.org/) -->
<svg version="1.1" viewBox="0 0 1031.5 1956.8" xmlns="http://www.w3.org/2000/svg">
 <path d="m424.2 1952.7c-27.307-5.8623-56.892-6.1639-84.931-1.1249-39.602.055-76.226-19.698-92.117-52.65-8.6449-24.342-11.568-54.293-14.298-80.913 2.9306-18.266 6.3081-39.872 18.212-54.759 16.707-27.443 42.355-50.494 70.561-53.872 17.706.2559 47.686 17.749 60.332 24.445 27.066 9.5516 24.774 42.515 23.799 64.02-4.0553 17.621 5.5062 27.461 13.988 42.417-2.6084 13.5-49.388 7.2054-39.673 9.2929-23.543-7.9837-34.742-37.318-36.923-58.152-6.4519-11.216 8.4069-44.039-8.9362-32.47-20.027 24.735-36.648 53.504-32.024 86.981 2.3464 24.161 16.062 45.25 37.385 59.812 20.282 15.523 50.866 6.564 72.659-2.8163 18.767-10.284 37.745-19.153 54.235-32.858 8.873-9.9366 25.278-27.929 27.807-39.177 7.0413-11.86 15.432-18.57 17.616-34.433 9.7582-6.9181 7.7432-23.495 16.315-32.632-2.1739-10.795 7.5472-19.93 6.8502-32.412 10.377-36.478 16.05-70.817 14.294-107.55-3.6241-26.649 3.3847-50.445-2.6481-76.56-5.4167-28.612-6.3114-59.117-12.575-83.78-3.9438-22.153-8.9881-43.956-14.33-64.145-7.2388-26.374-11.827-51.849-18.351-76.34-6.174-20.118-9.002-45.384-15.064-67.258-5.9089-40.833-11.955-82.219-5.3072-124.63 5.331-25.454 17.79-56.483 45.275-67.966 12.873-5.8568 27.999 4.9554 38.09.4173 1.6924-12.141-7.3015-20.318-8.867-32.588-7.6529-21.07-11.958-52.376-17.362-75.064-4.5203-19.368-12.979-43.025-15.319-63.83-3.7956-8.8883 2.5099-44.304-15.356-29.143-12.306 16.789-33.083 30.767-46.942 34.76-23.713 10.211-48.657-13.378-71.104-23.489-10.484-5.3302-23.576-8.9398-39.476-11.234 3.6272-30.498 9.0523-51.599 19.168-79.124 10.162-21.061-8.5246-41.532-31.653-39.521-22.66-4.5399-41.861-8.0761-59.042-16.699-34.109-12.544-70.281-32.34-102.32-52.571-24.84-18.012-50.226-44.171-68.936-65.833-17.666-29.768-43.576-61.051-44.936-98.472.57343-18.64 12.097-37.667 24.511-51.167 4.997-8.8858 28.954-13.935 21.484-27.31-23.41-32.031-42.482-70.243-54.165-105.47-13.678-30.341-20.249-78.308-8.2703-112.85 2.3513-16.701 9.5677-29.177-3.9067-41.106-16.948-9.534-34.062-29.791-36.843-47.741-3.8771-26.818 17.182-54.604 35.119-75.151 7.5703-17.601 3.9239-46.436 30.847-42.957 28.045-4.7446 53.226 1.5589 84.44 1.0409 20.163 8.9755 36.689 10.526 61.21 23.63 19.845 4.6053 43.072 21.312 56.98 27.565 31.735 16.459 64.569 43.037 100.95 56.17 20.986 7.7121 53.285 5.9814 74.2 1.0212 21.265-5.0822 3.2936-20.348.71823-31.598 8.7713-16.783 33.317-28.334 54.117-36.726 29.27-5.4887 67.614-3.95 95.276 6.4902 26.039 7.3149 47.96 22.18 70.754 30.174 15.674 1.3324 33.695 23.404 45.42 12.255 12.483-18.165 37.298-43.754 66.651-32.786 22.187 6.6895 37.101 14.213 59.234 23.726 23.636 13.495 50.529 25.726 73.639 37.656 20.701 8.9767 24.1 33.8 18.541 54.114.23529 20.552-6.7161 41.359-12.01 56.849-12.117 21.324-35.514 29.831-54.115 43.76 8.9557 17.95 28.811 31.938 30.115 50.569 2.7026 16.748 11.113 33.331 26.043 34.458 20.081 6.833 29.406 20.71 40.388 35.82 37.263 11.043 66.086 43.635 61.74 83.788.9803 37.849-26.395 67.234-49.104 96.554-34.315 35.027-70.912 63.128-116.25 84.343-31.457 14.8-64.628 20.245-103.3 20.741-37.627-6.0798-77.245-33.082-80.626-69.762-2.0746-17.006-3.1605-28.723-1.0213-45.641-12.403-18.392-21.938 16.867-34.213 24.344-24.68 31.258-48.545 62.599-63.5 100.87-2.6116 15.32-.75975 30.184-7.4789 42.015 5.2258 18.458 6.3575 45.517 7.1489 68.876 2.7227 31.103 11.553 57.608 13.277 88.34 4.2754 15.499 6.2019 37.637 11.234 53.984 6.7424 18.043 1.3553 40.469 8.9792 57.639 14.068 10.475 9.3405 30.862 18.595 46.675 10.795 25.214 10.593 51.855 8.1702 78.23 3.5397 10.054-2.7101 43.917-19.119 30.026-15.487-5.0575-45.824-17.696-63.604-5.2618-5.3624 33.532-5.248 68.391 1.5376 101.63 4.3501 23.062 6.9571 41.901 13.781 62.292 3.1376 24.367 12.701 43.692 17.362 64.488 5.7353 23.872 16.711 52.222 19.404 79.66 5.8831 32.125 11.648 61.389 12.567 97.604 3.5858 21.184-.68273 43.997-1.4736 64.268-1.0113 21.474-3.5267 47.001-10.072 68.546-3.2508 29.862-13.082 56.174-21.951 81.21-8.7227 21.841-22.685 45.166-34.219 66.204-14.867 19.31-30.275 42.963-50.043 58.275-20.232 15.843-37.066 36.225-60.765 48.783-5.9054.072-11.519.9027-16.484 2.765zm-4.3776-7.149c25.762 2.8479 39.685-19.052 55.8-28.596 5.4438-9.7285 18.469-14.168 25.456-24.427 23.919-20.449 41.275-49.574 54.96-72.554 9.5312-19.584 23.747-35.053 25.071-56.211 7.9748-14.691 11.535-35.266 18.497-53.403 2.8812-27.207 7.3532-48.746 10.894-73.476.13778-36.508 7.9995-77.979-2.838-114.26-2.0023-32.495-8.6398-63.582-15.319-94.858-6.3741-23.34-15.061-47.896-20.426-74.042-6.0866-20.851-9.1255-33.315-14.298-52.145-1.3843-10.928-10.299-39.315-6.1277-29.496-6.8181-35.269-10.686-78.509-5.215-116.67-3.281-21.226-1.7958-46.776-18.395-58.536-24.939 19.183-7.8678-18.179 6.2478-5.3391 22.411 8.9335 6.6682 48.145 29.046 52.318 19.185 1.8438 35.865 3.0203 53.203 9.761 19.453 8.0884 15.11-51.341 13.751-38.676 3.6319-32.094-6.681-54.898-15.319-81.535.62347-18.608-16.75-26.046-13.277-46.774-4.4237-25.273-9.0876-47.104-14.432-74.187-5.4816-30.154-11.032-62.159-14.163-94.264-4.1361-12.983-7.7336-53.317-5.1064-42.312-.6065-48.565-5.5381-99.096-1.0213-148.31-1.65-28.633 6.658-52.806.51064-80.12-2.5675-11.283-21.16-17.103-29.426-2.059-14.743 29.56-18.278 59.883-19.208 97.532-3.48 41.233-2.9967 84.139.35051 124.6 3.5608 40.362 2.3115 83.444 11.007 120.44 4.0468 26.06 11.768 50.171 18.383 80.167 5.5875 24.443 9.0442 47.25 18.383 71.229 5.2666 28.46 28.238 59.804 5.8776 87.147-28.375-5.5114 9.2579-16.25 2.2926-30.766-1.531-21.207-27.559-27.642-43.404-26.426-27.801 9.6734-39.126 41.327-44.426 64.855-6.3005 41.537.57793 85.837 6.1769 124.27 7.8817 31.112 13.61 60.134 22.627 95.252 3.8856 19.951 9.3314 36.646 13.08 56.221 9.8906 26.112 11.63 57.537 18.37 85.717 3.5104 36.504 11.025 72.084 9.3555 113.56 1.6387 40.091-.99817 76.946-11.298 109.15-6.444 33.939-18.946 67.694-34.094 97.634-15.396 31.464-41.607 63.999-73.013 80.587-16.501 10.941-40.365 22.405-64.381 23.489-17.029 6.8921-33.132 9.1556-51.759 8.6809 2.9584-12.182 35.742-6.2119 7.2734-20.936-39.001-27.87-45.582-88.069-19.614-125.94 7.7934-14.741 17.308-25.584 29.386-39.785-6.6349-8.6836-43.811-10.657-11.184-14.015 36.599 6.7681 12.852 53.178 25.288 76.452 4.8798 21.832 21.511 46.324 49.021 38.956 15.388-2.0909-6.0002-36.323-1.0213-25.033-3.5028-18.994-4.4418-40.627-2.0426-58.272-7.6486-18.532-30.577-24.853-47.823-33.707-26.207-21.4-60.568-3.9292-78.089 18.732-24.357 26.169-37.51 56.89-31.642 93.674 4.7811 32.258 5.8402 61.201 33.616 83.462 27.874 22.374 59.732 25.936 94.246 19.169 15.591-7.6031 32.609 6.2165 50.191 4.0925zm195.29-800.74c-9.4246-8.931-31.368-3.3501-34-15.966 14.822-30.203.30326 15.859 18.948-1.0254 13.424-26.902-2.4573 30.238 19.711 4.286 10.693-20.979 5.7517 13.878-4.6591 12.706zm-167.54-251.83c30.673-2.2784 50.627-30.306 61.033-49.899 13.316-27.384 1.3266-65.791 2.1108-97.072-3.6149-23.626-12.582 10.622-23.112 14.896-17.149 21.619-26.729 48.276-35.068 76.225-7.1429 12.917-16.388 26.387-5.2075 39.368 2.8928 23.417-37.963-36.14-22.552-16.16-7.9153-32.209 13.566-62.298 32.58-79.555 19.738-18.882 36.609-33.474 41.035-58.213 8.6159-20.953 11.982-44.133 10.213-73.021-20.078 7.9327-16.398 39.715-26.646 56.967-9.7352 30.804-38.647 43.739-69.865 42.256-25.371 12.695-38.483 39.584-45.452 66.735-.52125 15.003-11.359 31.035-4.6508 42.383 27.877 4.26 53.211 22.62 77.309 35.781l4.3894-.36607zm-44.414-34.144c-14.228-8.1468-46.648-4.441-34.234-29.032 5.2505-15.122 7.3239 37.116 17.128 2.5532 10.186-19.315 1.9601 25.988 3.0638 16.34 14.012 5.3653 16.251-30.868 17.362 6.0642v4.1486zm34.813-19.33c13.981-5.7196 17.338-30.136 16.343-42.894-11.291 11.32-23.652 26.98-19.922 42.894zm-65.196-102.13c13.948-4.2517 28.291 2.7778 42.323-2.0426 28.591-.81794 62.215-22.112 62.869-54.007 11.24-33.473 19.33-75.454 2.5531-111.95-19.963-29.93-49.629-61.924-81.702-83.234-22.896-16.813-46.439-30.974-74.043-40.851-15.944-8.5008-42.38-16.729-63.846-23.024-27.353-7.9532-66.509-6.7239-91.899 2.5994-28.914 10.451-61.556 28.011-81.191 54.608-18.09 21.001-17.023 48.51-2.4044 70.666 9.6299 18.903 22.06 38.744 35.085 54.981 26.666 31.971 58.309 57.378 95.857 78.128 17.408 10.663 34.964 21.084 55.881 28.196 22.376 8.2111 51.189 18.721 73.964 21.981 6.9261 1.4119 17.88 1.3333 26.553 3.95zm35.889-13.277c-18.084-4.9873-33.926-11.065-55.759-9.2491-29.805-3.577-61.464-16.353-88.385-25.985-17.513-6.9454-38.995-19.752-56.17-30.108-23.356-15.371-48.615-40.04-68.681-60.078-13.057-15.503-26.508-40.152-32.426-56.53-18.827-.0496-15.001-30.042-10.944-43.058 16.787-21.002 35.824-24.098 63.407-25.206 27.538-1.025 52.874 5.1032 75.197 10.213 21.843 7.0129 51.972 16.169 76.085 28.526 26.79 15.182 55.713 33.497 80.681 59.475 20.887 17.636 40.289 44.068 53.58 70.785 13.815 22.352 21.726 64.28-11.49 75.499-7.9918 4.5724-17.354 2.5047-25.093 5.7154zm-197.19-156.26c19.936 2.6051 28.602-20.1 28.63-37.501 18.76-11.936 1.152-34.461-12.349-22.754-12.742 5.3337-39.546-4.6086-45.957 15.995-9.2207 15.364-1.8209 41.314 19.284 42.218 1.3207 4.7554 7.215.59194 10.394 2.0426zm554.86 108.26c13.257-2.3257 38.404-2.1028 55.016-10.212 29.475-6.2864 58.502-24.113 81.323-35.745 15.709-12.728 29.733-23.995 44.546-37.787 10.354-12.986 33.461-30.284 43.43-51.769 17.387-19.705 22.028-43.126 23.673-67.946-4.6671-29.685-36.014-60.87-65.545-63.094-17.474-6.8108-49.175-5.2502-67.915-1.0213-10.977 1.4344-23.984 12.242-34.022 8.9378 13.654-15.48 39.956-18.361 66.702-22.887 14.487-2.0911 41.758-2.3003 15.79-14.901-21.298-14.66-43.315-1.566-62.734 4.3693-.17807-12.023 41.313-22.145 32.646-17.901-4.844-21.224-38.099-26.027-54.759-15.83-20.411-10.386 21.968-10.484 32.595-17.067 15.514-18.266-24.843-13.187-36.049-6.3766-28.504 12.885-5.5549-12.401 10.809-11.279 25.249-2.836 14.827-16.69 3.0423-29.617-12.049-11.639-25.477-26.47-40.443-36.826-35.895-28.229-80.596-39.429-124.62-33.163-21.222-.13201-12.466 27.176-25.982 32.203-12.475 6.6203-35.645-1.4391-44.313 12.582-11.442 16.476 8.0009 35.646 2.436 56.359 1.0865 29.007-17.134 57.184-5.189 86.66 10.912 18.424 18.034 38.831 27.286 55.804 18.109-14.468 30.1-33.211 46.074-48.149 16.572 5.508-20.016 25.498-25.863 39.021-6.2026 14.899-31.809 25.07-15.75 41.31 20.963 12.854 17.931-24.146 32.681-31.747 13.552-11.623 23.599-36.662 42.383-38.733-6.3258 15.147-30.939 29.864-36.255 47.239-11.222 18.26-27.082 40.439-15.383 61.527 6.3805-4.4056 29.513-33.025 18.447-9.3962-6.5184 7.8539-21.516 28.369-2.4639 33.728 4.4542-4.3243 24.669-41.897 20.151-17.23-11.638 23.815-25.49 42.755-20.756 70.896.22627 24.805 18.997 50.148 41.954 58.122 12.239 6.9815 25.029 6.0372 37.057 9.9202zm16.484-28.596c-17.42-4.7708-34.432 2.5614-47.537-11.089-26.867-28.785-8.9713-77.53 9.2386-100.85 23.576-29.348 50.874-47.815 80.173-69.596 28.281-14.444 66.352-36.607 105.5-31.663 27.172-.73668 54.351 19.575 55.348 42.131 7.2751 20.928-15.1 21.041-14.866 39.084-7.4568 26.824-25.687 44.95-45.325 66.618-22.258 19.484-48.732 35.859-75.224 46.979-16.005 11.862-45.675 16.554-67.307 18.383zm37.277-59.99c23.937.4034 29.797-40.793 7.1489-43.159-9.6403-10.438-10.411-30.592-16.591-45.957-24.715-.42571-26.082 29.493-14.044 45.006-3.6845 19.511-1.1531 44.232 23.485 44.111zm-245.23 78.373c22.424-11.812 28.621-40.689 46.082-57.909 15.632-18.298 48.12-46.921 37.787-78.041.77761-15.149-18.185-33.641-30.638-17.856-18.55 21.924-40.194 43.284-52.085 70.034.0598 28.911-2.6272 55.307-3.0638 83.772zm-70.683-65.362c8.227-10.154 11.438-34.941-1.6266-49.339-7.99-16.854-27.644-25.473-33.778-42.576 13.589.73809 20 17.342 31.908 27.168 8.1009 5.2632 15.042 31.228 20.177 11.52 9.013-28.143-11.965-54.247-24.71-75.124-11.475-18.9-23.506-32.268-37.838-48.33-15.936-11.846 14.606-1.5805 17.399 8.6809 19.981 20.9 34.565 48.459 51.317 74.566 12.905 25.878 35.467.0156 20.327-17.63-18.373-22.782 3.7182-8.6024 13.335-20.171 13.533-21.515 22.043-53.807 34.723-78.19 8.2929-21.47 11.882-43.12 14.141-69.108 2.3586-33.501-6.9423-63.36-21.024-89.013-18.789-21.243-34.824-42.482-46.756-68.558-5.3334-20.466 52.128 1.8454 33.48-2.9794 21.788 8.0613 29.592 21.146 45.823 33.635 25.956-4.1201-46.545-40.898-21.069-26.025-27.648-17.141-52.554-37.011-83.844-47.099-7.7685 11.559 3.8006 38.914-13.177 43.683-27.661-4.722-56.793-10.989-79.66-.17537-45.034 12.621-89.65 47.99-113.87 88.34-10.787 16.355-26.176 34.312-34.723 53.617 21.426.22355 33.174 16.64 1.5319 8.5252-9.4342-6.346-47.605-2.5162-33.35 10.647 29.201 9.7272 66.403 12.483 93.095 22.7 8.3346 6.0336 31.623 4.2178 28.727 15.641-19.02-2.114-40.561-14.657-61.533-16.662-24.28-4.1257-62.605-12.612-78.965 16.354-19.403 11.959-13.824 20.397 5.5587 20.412 25.024 1.6124 45.987 7.6384 70.979 14.064 13.358 2.5063 45.133 20.957 15.361 14.532-25.901-12.551-55.449-15.974-84.808-21.447-17.011.16048-41.492-14.563-49.84 9.1219 17.813 6.0671 38.326 3.1055 55.457 8.2398 20.469 3.4959 46.136 9.8669 65.362 19.404 31.092 10.151 65.745 25.587 93.957 45.447 23.458 14.004 47.394 36.88 66.941 60.619 19.538 17.409 26.889 46.404 40.974 65.508zm80.334-58.247c16.967-8.638 24.319-28.301 33.368-41.959 4.3737-19.477 12.616-34.929 5.1058-53.557-2.8115-10.318-16.688-33.425-29.118-16.28-15.4 34.452-26.225 70.175-17.861 107.93 2.7334 1.5662 4.4712 5.8433 8.5053 3.8679zm-457.04-119.46c28.798-3.7891 18.567-19.758.19677-29.06-11.942-20.247-29.489-38.513-35.466-61.614-13.699-28.354-19.121-58.336-15.708-92.645 12.689-11.043 10.617-16.199 9.3017-30.128 5.8143-12.84 24.624-25.876 40.28-20.426 38.543 4.9545 72.825 36.399 91.937 68.74 14.338 12.364 12.746 42.617 33.127 41.49 19.722-5.8379 25.38-28.687 9.2939-41.533-17.076-27.981-42.754-53.36-70.468-71.25-22.929-18.978-57.372-30.86-89.362-26.043-28.914 14.518-44.02 50.246-47.555 80.338-3.9781 23.35-1.7363 47.774 5.1716 66.726 5.8056 24.853 18.547 49.776 31.66 73.532 8.9047 13.709 20.685 38.543 37.59 41.872zm40.732-83.867c24.356.12546 25.174-35.537 47.293-41.7 16.254-21.147-12.943-22.856-22.668-10.264-14.801 12.666-37.453 3.4965-49.842 21.054-8.8576 15.416 8.7859 32.402 25.216 30.91zm693.37-65.24c28.546-11.645 59.672-34.959 61.67-65.681 2.0618-22.981 15.649-59.661-8.8942-74.315-15.715-10.723-39.986-23.329-58.932-31.495-17.292-8.4401-37.279-19.388-52.49-25.638-20.475-12.171-53.598-9.6973-65.936 5.1291-7.0683 10.088-27.624 25.853-15.961 34.723 3.2704 11.678-5.1745 34.154 11.711 23.489 26.252-23.062 66.896-24.028 96.544-5.107 21.76 7.5684 45.82 21.341 60.255 43.207 4.1886 25.208-3.4197 44.7-18.383 67.711-1.3775 12.345-25.067 9.3818-22.25 19.805 3.9964 1.122 7.2757 5.4378 12.664 8.171zm-584.24-11.234c13.132-24.576-14.655-49.544-31.198-66.808-14.125-12.856-31.755-25.659-52.085-24.086 13.806 18.79 45.101 33.625 57.191 56.79 11.134 9.1881 15.087 24.929 26.092 34.103zm567.78-7.8253c27.738-6.7364 37.441-41.189 38.298-63.093-.27397-26.233-28.667-35.697-49.224-48.571-25.332-10.635-53.425-23.608-77.925-9.1915-26.547 6.9848-47.401 38.762-36.255 64.245 23.713 7.3852 47.281 6.6741 64.45 18.479 19.826 6.1796 36.291 21.319 47.891 31.66 2.5824 1.4658 5.5668 8.9984 12.766 6.4725zm-233.95-4.438c16.216-5.6734-15.386-17.712 0 0zm-317.16-10.205c26.303-15.985 44.927-43.004 69.027-59.384 14.533-11.087 35.565-16.992 47.531-28.246-22.546-12.711-50.012-23.439-77.25-14.498-15.967 5.037-39.015 6.9022-54.735 18.578 4.3871 10.77 37.567 34.881 17.858 31.45-14.557-6.9312-28.335-44.718-44.17-25.767 12.958 14.921 27.061 30.231 22.684 31.729-13.476-6.6044-23.087-23.123-39.025-25.351 4.3807 13.185 21.29 21.194 31.718 36.299 10.96 10.341 17.019 25.23 26.362 35.191zm345.83-1.0213c25.308-3.0651 9.424-14.032-8.1702-19.915-19.693-12.125-29.788-31.636-49.75-44.332-21.646-15.193-28.21-1.7573-13.699 16.247 18.206 20.544 38.918 40.806 67.534 46.979l.63119 1.0213zm10.643-21.547c21.843-11.372-28.367-31.435-10.229-6.6324 2.6572 2.8585 6.1722 6.2491 10.229 6.6324zm17.019-14.198c13.684-10.592 21.863-13.291 33.804-19.582 8.936-11.655 7.5667-28.202 13.652-41.588 4.2414-21.993-5.891-35.402-22.012-40.447-31.666-13.962-60.941-26.27-90.509-40.34-24.295-6.3212-56.487-12.253-86.172-8.1702-21.191.72307-39.963 16.839-58.723 27.574 6.8273 19.359 13.03 33.389 22.468 53.892 5.5354 9.9007 19.104 21.21 21.447 4.1998 5.2124-14.147-14.047-32.539 15.282-35.107 23.494-10.171 48.62-.51032 73.108 2.627 22.2 5.3334 51.748 18.566 70.929 30.558 13.6 9.6473 40.665 23.547 28.446 45.957-7.3428-.39401-9.0922-40.393-22.318-25.212 2.3274 15.597-21.28 34.037.59853 45.638zm-184.42-90.894c-8.8667-7.6011-18.241-33.748 3.3022-34.939-18.544 14.571 5.8773 19.975 3.162 17.254-23.791 17.325 23.423-2.8539-1.3442 13.6-1.6693 1.4291-1.658 5.8891-5.12 4.0851zm157.18 68.426c23.097-9.313 13.938-50.479-10.944-52.085-26.587-10.749-40.318-19.291-69.329-18.69-26.568-.89934-13.195 15.723 3.9289 22.006 25.219 15.752 49.697 36.159 76.345 48.769zm-575.39-7.7322c14.095-9.5056 26.094-23.763 36.255-28.013 31.257 3.1361-1.5675-10.78-8.3662-21.02-18.393-5.2779-13.464-41.519-30.563-32.086-17.398-1.8864-32.174 15.994-24.39 29.923-14.389 13.59-13.76-26.887-8.1702-21.437 13.075-23.931 42.804-21.053 62.211-28.345 37.093-3.9331 66.836 12.484 102.72 19.858 27.733 8.1935 54.241 25.868 84.96 35.744 18.075 17.135 40.236-2.936 60.428-2.0425 14.573-1.8892 44.241-2.8642 15.463-11.233-32.141-16.743-64.075-39.785-98.114-55.149-20.744-13.445-42.462-19.46-59.57-29.617-28.865-9.4973-53.016-18.541-85.891-16.525-18.668-4.7977-41.09.35764-56.443 4.2694-.47227 25.666-16.818 47.456-31.344 63.125-19.714 24.526-16.864 62.653 11.712 78.833 9.5994 4.7151 17.361 14.009 29.097 13.715zm-10.723-107.67c-2.6481-8.7538 11.766-22.336 9.1915-34.316 15.268-16.582 25.138-5.7258 4.0851 4.2301 14.169 7.6054 6.1371 2.8041-3.0638 17.831-2.7378 4.0965 26.844 4.3736-.51064 9.1915-2.4317 2.622-7.4156-.51967-9.7021 3.0638zm172.18 92.936c17.922-3.5053 36.035-29.322 14.547-39.731-37.648-16.61-73.473-27.182-112.94-36.829-12.891-3.5002-47.335-7.2659-48.255 15.988 12.652 17.609 29.131 33.125 48.068 42.189 16.183 5.4944 33.319 12.702 51.81 14.297 17.146-12.391 31.407-7.5414 46.769 4.0857zm219.09-9.1915c9.8077 2.0008 32.383-12.72 13.587-22.306-17.051-9.6543-42.979 10.273-20.611 22.306l4.4046-1e-5zm-444.38 1746.4c-4.7742-2.8097 4.0598-1.5265 0 0z" style="fill:#2e5d3a"/>
 <path d="m393.37 719.7c-32.065-4.4603-66.159-3.4865-96.266-17.959-20.698-7.7282-40.404-12.295-60.006-24.935-41.927-21.281-77.264-53.852-106.84-89.299-10.584-20.339-26.508-39.308-24.397-62.872 16.308-4.7816 7.2841-33.261 31.308-26.496.66476-12.932 22.648-3.1431 32.656-6.1846 22.911 5.1636-6.7907 33.945 1.398 50.637-3.4381 17.374 4.6846 19.811 12.088 28.229 11.175 9.2572 28.829 12.923 44.79 14.58 5.1311-17.773 28.972-19.807 22.711-43.786 5.3848-8.5731 12.7-14.994 28.942-11.829 20.37-1.3335 43.674.96365 57.838 9.2764 8.3001 9.3917 12.593 23.797 28.397 21.828 8.5882 4.8535 9.038 18.908 24.622 23.208.84067 19.307 26.168 24.825 28.783 40.435 4.4326 14.509 24.49 31.265 15.313 51.974 6.7857 20.274-9.6712 24.353-16.377 35.077-9.2814 1.278-24.338-5.1581-24.962 8.1161zm390.11-70.468c-27.253 2.1934-35.961-12.545-42.264-28.596-11.273-20.811-5.0884-63.044 19.464-75.009 9.8598-12.617 32.321-5.4564 24.331 14.344-4.5471 21.212 4.8426 35.048 24.762 38.027 20.419 7.6874 40.558-11.027 47.888-29.638 5.6715-23.85-20.981-15.907-18.828-36.575-15.614-1.4004-17.359-27.6-11.831-38.809 12.657-6.3229 19.962-27.19 38.013-28.851 9.7323-11.003 32.596-12.315 54.093-11.232 15.614-1.4558 31.215-.71886 33.393 12.551 7.4177 7.9982 24.016 13.982 23.489 28.596 9.074 9.7474-8.5571 14.417-8.7465 35.703-16.657 30.424-41.799 58.379-71.95 77.646-15.902 7.287-28.778 17.12-46.289 23.872-17.068 13.012-44.156 15.501-65.526 17.972zm-634.35-238.08c-20.894-9.6374-32.095-35.716-44.874-51.126-18.286-36.713-33.857-77.079-26.156-119.02 13.547-17.879 8.8473-22.359 28.844-29.904 11.006-19.078 40.384 4.7493 60.113 1.9669 7.3382 10.778 17.851 20.903 25.614 26.466 13.392 11.888 5.3808 27.605-.25694 33.548-6.698 15.973-39.903 3.8386-49.594 18.197-12.473-.28499-26.32 34.341-8.2078 33.366-1.7191 17.399 9.6953 24.347 26.399 23.307 2.9118 17.995 31.647-3.5346 38.368-8.7777 7.5811-7.6631 12.846-39.034 25.311-25.69 7.6749 25.833-5.6161 29.711-9.0515 47.769-12.886 12.666-33.355 16.7-45.938 27.333 1.1432 12.221-15.33 14.001-20.57 22.566z" style="fill:#d02429"/>
</svg>
