<?xml version="1.0" encoding="UTF-8"?>
<!-- Created with Inkscape (http://www.inkscape.org/) -->
<svg version="1.1" viewBox="0 0 729.19 1732.1" xmlns="http://www.w3.org/2000/svg">
 <path d="m189.96 1732.1c-8.5865-4.1795-35.442-15.622-28.596-9.7021-15.871-9.3506 8.6003-12.604 13.277-4.5958 15.018-1.5207 23.546 11.4 38.809 4.5958 4.1636-7.2407 26.237-19.38 21.447-12.766 9.0739-1.3091 11.386-9.3803 19.404-11.745-18.233-4.8401-33.69 14.071-29.617 9.7021-17.131-3.1246-47.138 6.6278-55.149-5.617-8.1268-8.6573 4.013-37.601-11.234-41.362-3.7282-6.6548-22.154-19.378-19.915-11.234-11.722-2.4058-20.594-7.6612-34.213-8.1702 4.5895-6.3472-55.124-14.255-20.936-10.213-6.2195-5.2098-18.511-10.103-14.809-24.695 5.2261-13.225 3.2977-34.635 0-48.326 2.7465-10.204.76347-48.649 5.1064-42.383 3.505-9.9418 3.3225-23.571 8.1702-32.17-1.5319-6.192-3.2043-26.176 6.1277-28.085-.65796-19.811 4.7456-23.096 5.1064-38.482 2.8695-11.935-2.1624-45.598 11.234-37.092-5.6312-14.516-2.8995-37.408 0-52.596 4.21-11.279 3.3551-27.624 8.1702-38.298.11974-17.582 3.9648-31.439 4.0851-49.021-5.0374-11.904 11.76-31.575 1.0213-29.617 7.1966-10.226 6.8059-28.04 6.1277-46.142 2.4186-22.797-4.7967-35.96-3.0638-58.07 7.2154-10.254-16.413-21.824-10.723-16.299-8.2684-4.5462-19.503-6.1263-28.085-10.359-8.2052-7.1784-17.802-6.6344-19.915-17.216-.42717-8.3134 2.2173-27.27 6.6383-36.255 4.9501-9.6882 1.4985-27.778 9.7021-34.213 5.9525-8.1752 3.4526-24.803 9.7021-32.681 1.1216-11.706 7.9068-17.748 8.1702-30.312 8.9891-11.034-2.5405-40.009 5.617-53.433-4.983-9.7524-9.7448-15.904-15.319-23.489-5.1749-15.389-27.015-40.119-20.936-34.723-9.8324-1.2928-6.2929-15.958-17.035-16.34-6.0055-5.044-21.514-25.819-17.688-19.404-6.9561-3.5971-14.544-6.562-15.319-16.34-11.346-5.4576-7.411-26.196-12.255-38.156 3.2333-19.311-5.6468-34.441-1.5319-49.674 4.2002-8.5657 4.1742-21.358 9.7021-28.596 1.6165-9.3014 7.1052-14.731 9.2644-23.489 6.3512-9.4207 6.5397-19.097 12.182-26.553 1.853-10.811 10.375-20.167 11.234-32.354 7.3247-6.7416 5.1866-22.946 8.1702-34.029 7.6787-8.8933-1.593-34.737 8.1702-41.546-3.7321-15.269 7.1151-28.268 3.0638-37.092 3.955-10.048.5998-24.808 8.7538-32.097 1.9531-13.246 8.1095-18.925 9.6292-31.222 7.8596.40643 8.8438-19.461 16.851-10.213.27589-12.546 14.987-15.829 25.021-19.404 6.9701-7.219 17.007-11.371 29.291-13.277 3.1046-11.983 24.321-5.8542 27.901-17.362 10.137-4.828 24.528-16.474 27.064-10.213 7.7102-3.6221 15.816-11.977 25.021-13.422 9.4052-5.6907 13.8-8.0242 17.799-17.799 5.8779-9.5794 15.406-11.446 14.881-25.97-12.432 2.143-12.488-59.865-14.993-24.511-10.679.71166-16.892-6.5603-23.816-11.234-5.0378-9.24-17.565-16.617-13.277-35.092-4.407-8.5126-5.7773-17.367-3.0638-28.227 3.0401-8.333 17.19-14.023 8.1702-25.205-4.0723-15.58 2.8616-40.45 0-31.986-2.0926-16.622 8.2399-20.819 8.1702-35.418 8.0833-3.9404 22.408-25.687 14.298-21.773.73285-11.352 9.4042-14.766 11.745-24.511 3.4434-4.2107 23.006-7.0156 17.872-11.234 10.725-2.1026 19.383-6.2719 28.269-10.213 15.635-3.7754 37.311 6.8765 45.263-3.0638 15.914-3.8326 21.188 10.215 34.286 3.0638 9.2504 7.2773 22.452 5.4652 31.076 13.277 7.128 5.6219 16.864 9.8467 18.383 19.404 4.3674 7.888 8.2796 16.231 12.255 24.511 4.611 6.1124 11.208 10.239 13.277 18.894 8.7427 11.35 1.8313 19.581 3.0638 38.298-12.191 13.946 10.638 18.654 8.1702 32.723.60616 15.911-2.8467 27.764-5.1064 40.809-4.125 7.4026-5.6544 21.652-14.298 26.043-12.637-2.254-6.4705 14.295-16.34 14.809 5.2029 13.708-11.103 24.182-1.459 32.097 3.2266 8.6703 8.7592 11.855 14.225 16.924 4.9266 5.4564 19.969 21.563 14.809 16.34 7.8467 3.5576 29.053 16.564 22.979 11.234 5.069 5.314 23.007 18.525 17.872 13.277 6.8802 4.5855 16.339 6.5925 23.163 11.234 16.047 1.4234 33.154 1.7867 46.284 6.1277 8.0782 2.1729 16.142-.51766 24.184 5.1064 9.8341.82793 9.8715 11.452 18.709 13.277-.37965 12.526 7.1463 17.147 10.213 26.227-.78025 13.144 4.3142 20.414 11.234 25.858 4.1222 7.3063 16.558 29.156 11.234 23.052 9.4001 11.967 8.895 27.544 8.1702 46.906-.37986 17.401-1.5344 35.577 6.6383 44.426 6.1698 5.0735 7.5826 11.89 14.809 18.616 8.7832 5.1254 4.8085 18.029 14.298 20.192-.12338 11.357 8.7243 13.744 13.277 20.426 4.4442 7.1302 16.295 30.003 11.234 23.489 3.0581 9.7693 9.0088 16.646 10.213 28.269 3.4015 11.251 10.05 19.254 8.1702 35.787-.20214 17.254 1.2207 36.134-5.1064 47.263-6.8967 6.4042-2.178 24.424-11.234 28.669-8.8916 7.7385-8.3095 14.638-18.383 21.228-5.996 8.2028-16.311 18.78-14.298 16.997-4.7834 7.0659-13.185 13.716-19.915 20.936-6.919 7.4049-8.7192 16.066-18.748 21.447-2.6255 7.6316-14.577 32.763-11.891 24.511-1.3921 10.417 8.0205 23.433 4.5958 40.851 7.9983 5.2783 6.6329 19.92 9.1915 30.638.94416 12.503 6.2936 20.6 10.213 30.128 1.0425 12.404 7.0949 19.799 8.1702 32.17-.14803 14.105 10.906 17.009 8.1702 33.702-7.8334 1.5283-8.2568 10.467-16.34 11.745-5.6117 6.448-12.278 7.9151-19.404 15.684 3.6582 18.071-5.9413 36.305 0 46.798-1.5548 20.047 3.0521 33.932 2.0426 53.433 9.701 7.5519 5.8871 28.619 8.1702 43.588 1.4581 16.012 7.4608 27.48 6.1277 46.284 9.6215 4.8466 4.8893 24.047 9.7021 33.702 4.5949 9.5327-1.3209 29.576 9.7021 32.681-.29812 19.376 3.1624 34.993 5.1064 52.127-.70936 18.738 2.7698 33.287 5.1064 48.979 6.1098 11.484 3.928 31.259 8.1702 44.61 2.2202 10.915 7.6329 20.024 11.234 31.475 4.0972 10.882 3.3086 26.649 6.6383 38.298 1.2776 14.76 4.8787 45.042-1.5319 57.192.0489 13.372-11.474 16.691-18.383 26.48-5.5614 6.0374-26.4 19.995-22.468 12.328-11.02 3.4265-18.878 8.1697-27.574 11.745-5.0828 8.5342-18.706 8.5279-21.447 19.404 1.6251 9.452 9.2029 15.845 14.809 22.979 6.1376 6.8142 12.361 13.79 12.766 24.511.27433 7.2508 13.867 14.383 5.1064 20.936-6.7754 5.5654-39.429-6.5071-32.681-1.5319-11.941-2.9293-24.273-5.4663-36.439-8.1702-4.7449-6.9383-14.393-8.9737-23.816-11.234-7.5004-6.8926-19.405-9.817-29.617-12.255-12.453-3.0359-21.185-9.7941-37.277-9.1915-19.896-4.284-19.336 11.889-38.666 8.1702-13.474 5.347-34.029.4605-48.653 0-16.174-1.5417-25.739-9.6935-47.021-6.1277-12.403 2.2084-27.883 2.4359-35.703 11.234-15.271-1.0815-25.497 2.8807-34.397 8.1702-15.927 10.614-12.447-5.4212-20.752 11.234-10.524 1.2817-12.22 11.392-24.184 11.234-7.3136 4.3697-11.213 12.154-24.837 10.213-.68565 6.5079-20.876.9045-23.489 6.1277zm441.19-22.468c19.731-.2741-1.7062-19.89-10.581-16.34-8.6171.6703-41.61-9.0248-28.738 3.0638 7.1491 9.4391 17.861 10.507 31.149 11.234-1.3918 4.7945 6.0881.7208 8.1702 2.0426zm-431.49-10.213c18.197 4.0692 21.072-7.1832 25.021-17.362-10.953-4.4887-22.465-8.4188-38.156-8.1702-.55041 9.3113-10.105 15.395-3.7168 25.532h16.851zm95.489-19.404c18.479 1.7986 23.697-9.6644 38.809-11.234 23.146 1.1465 51.387-2.8007 69.815 3.0639 16.463 1.0629 34.044 3.8061 49.674 0 11.518-.3969 17.706-6.1236 27.574-8.1702 1.7394-21.961-2.1336-38.31-3.0638-57.602 4.7966-19.08-7.1974-21.37-8.1702-34.682 5.3635-19.38-8.3558-32.652-2.5532-44.568 6.6868 5.2588 10.082 18.869 13.787 27.574 4.9398 6.5285 4.9873 14.467 13.277 20.352 2.6874 7.6318 7.805 17.487 13.422 23.562 6.2874 9.8386 10.986 14.755 12.62 26.553 3.6196 10.059 8.6647 18.692 24.695 16.34 11.088-3.4893 29.048-.1056 37.092-6.6383 8.6434-6.846 24.812-6.1671 36.766-9.7022 13.85-.6177 18.574-10.362 30.128-13.277 9.4134-3.0121 17.999-6.8515 26.043-11.234 6.7572-6.751 18.904-8.1122 19.404-21.12 6.4033-10.671 12.162-13.544 8.1702-31.702.24325-16.849-.48561-32.725-6.1277-43.689-1.9658-11.822-4.905-22.67-8.1702-33.192.0855-14.275-6.9245-21.454-10.213-32.354-1.2001-16.053-7.1524-27.353-6.1277-45.631-.68904-15.542-5.3108-27.152-8.1702-40.525.49474-18.306-1.7949-33.827-5.1064-48.326 1.8451-18.044-10.823-27.232-9.7021-44.568-3.532-13.721-6.1813-28.324-6.6383-45.12-4.3981-10.874-8.0718-22.472-8.1702-37.645-2.5175-16.532-.69032-37.41-6.1277-51.022 3.8978-11.93-.33491-15.056-5.1064-25.021-7.5978-16.291-15.166 1.2705-11.234 16.34-3.3357 22.924 10.092 29.085 6.1277 52.638 4.4335 10.872 1.1824 29.428 8.1702 37.745-.51394 17.216 5.7362 31.299 8.1702 44.61 1.63 12.777-.55649 29.37 8.1702 35.05 1.3458 18.63.0923 39.86 5.1064 54.822-.18341 16.864 8.5916 24.77 8.1702 41.872 4.9446 10.375.91178 29.726 8.1702 37.787 1.0081 14.883 5.7094 26.073 8.1702 39.503 1.882 17.754 3.6428 35.629 6.1277 52.78-.35612 18.694 2.0814 40.181-6.1277 51.022-3.1458 8.7691-19.288 28.371-13.277 22.468-10.033 4.1322-9.8963 15.999-24.511 13.277 2.9553-12.261 6.6026-21.674 11.745-29.617 2.4734-16.788 9.2655-29.258 7.6596-50.126-1.052-23.941 2.0908-52.078-1.5319-73.448 2.0343-7.7555-4.3694-19.232-4.5958-33.376-2.7674-10.108-5.4124-20.337-9.7021-28.922-3.2965-13.8-5.2616-28.932-6.6383-44.652.70904-15.333-3.5696-25.679-8.1702-35.703-.89872-16.123-4.8184-29.224-5.1064-45.957-2.4636-12.454-5.8151-24.02-8.1702-36.582-2.294-15.98-4.5262-32.022-6.1277-48.695-4.7771-11.393-3.733-28.608-8.1702-40.34 1.2005-16.502.0816-26.232-10.213-33.956-4.4564-8.6924-25.915-7.5417-35.745-4.1581-3.5016 7.2535-16.214 26.319-14.298 18.967-8.022 11.408-8.8999 23.705-8.1702 41.146-4.9821 31.694-14.497-24.755-13.277-17.219-2.3202-8.233-21.959-20.254-19.404-12.255-8.4144 5.5673-24.275 3.688-32.681 9.2644-8.7433 6.2566-15.745 8.5775-21.447 15.246-9.5595 2.5256-31.006 17.335-25.021 11.234-5.0413 6.7034-13.82 9.669-18.894 16.34-12.422-2.0393-12.134 8.6322-19.404 11.745-5.7622 4.1317-3.9511 18.815-16.34 17.872-.60763 13.241-5.2688 22.428-10.213 31.333-2.7912 14.724-3.2945 27.678-9.0456 42.199-5.571 10.832-5.6655 27.141-7.2948 41.914-2.0757 16.29 4.9391 23.293 0 34.682 1.3717 18.417-1.5544 32.537-4.1581 46.979-12.792 10.442 9.0397 24.428-1.9696 33.702-2.9357 16.015-22.41-1.2673-36.808 4.0851-5.252 6.9894-22.562 1.921-25.49 11.234-8.4328 1.6341-19.754 20.514-14.298 15.903-6.0649 8.1842-16.937 29.887-13.277 21.884-9.506 7.4144-20.614-1.2542-29.617-3.5745-11.001-2.2362-26.75-8.5443-33.702 1.532-12.053 8.3723-6.9362 33.915-8.1702 53.106.44452 22.062-.15414 43.08-3.5745 61.277-10.115 9.0213.49486 17.062 1.5319 27.574-7.4635 9.554 1.3943 28.782 16.34 25.532 7.7817 4.4736 18.948 5.5622 27.574 9.1915 5.7873 4.6835 32.603 2.8799 25.205 6.1277 20.347-3.5575 25.809 7.7703 45.263 5.1063-1.642 6.875 12.564 1.2216 16.34 3.0639zm314.55-8.1702c19.193 3.5821-6.8121-36.138-7.5173-22.468-17.509-4.2879-25.976 6.5127-12.981 16.34 3.786 4.8596 14.062 3.9177 20.498 6.1277zm-224.17-505.53c10.806-2.6412 25.165-1.7285 27.064-13.277 13.909-1.5699 25.119-14.724 20.936-11.234 9.918-2.5075 16.026-8.8246 26.043-11.234 9.8954-8.3795 23.005-14.833 19.915-13.277 5.2816-5.7822 28.241-16.014 21.957-11.234 19.334-9.7466 4.1578-.08 21.957-11.234 10.112 2.2668 11.241-9.9101 22.979-10.213 3.895-7.2302 13.65-8.5999 22.142-11.234 7.45-7.7047 14.096-11.424 24.837-13.277 2.1054-9.2989 28.068-17.549 21.447-12.766 6.8669-5.1288 15.15-6.5329 21.447-14.808 11.541.8176 13.305-8.1422 20.936-11.234 16.041-2.7983-17.679-51.406-1.5319-32.681 2.11-14.767-9.1911-16.123-8.1702-29.801-6.9056-6.6987-17.211-37.206-10.359-30.454-3.8208-15.319-6.5817-25.061-9.0456-38.993-.63977-9.852-18.881-23.087-13.277-18.199-14.246-.11373-20.934-7.784-34.908-8.1702-12.148-3.7748-30.885-16.461-25.348-11.234-12.288 1.0535-17.184-5.2839-24.511-9.1915 6.1447.99688-68.575-46.087-19.404-12.255-5.9185-9.1509-12.743-13.77-20.353-21.447-4.0951-9.1267-18.584-33.031-14.371-25.532-4.1211-9.7275-5.9016-21.796-8.1702-33.376 1.9778-14.812 2.4722-31.107 5.1064-45.263 12.183-10.122-19.445-23.271-14.809-19.404-10.588-.13587-13.784-7.6628-21.957-10.213-11.71-3.3746-28.484-21.222-19.404-14.298-8.5634-3.6919-7.8718-16.639-23.489-13.277-9.2658 4.1646-19.935 5.5849-28.085 13.277-10.342 10.354-16.788-4.5625-26.043-5.1064-6.0848-10.549-23.803-9.4639-38.666-11.234-5.0499 5.8912-20.245 1.6375-21.589 11.234-12.288-1.0535-17.184 5.2839-24.511 9.1915-9.1675 4.1091-18.976 7.5768-16.34 23.489-1.661 17.335 7.7779 23.569 8.1702 38.85 4.9186 19.873-9.3694 26.245-8.1702 42.852-7.8129 5.0182-5.6156 31.86-4.0851 24.511-5.7097 6.2052-6.5966 17.233-9.1915 26.553-3.8513 8.9147-8.3969 17.135-12.766 25.532-6.7873 5.2224-21.68 19.237-14.809 16.34-4.8001 7.1148-9.9203 13.91-24.511 11.234-17.611-2.2434-25.983 4.7528-37.933 8.1702-6.0795 6.7708-21.73 23.169-18.237 16.34-7.9682 6.2277-10.194 17.107-9.1915 19.404-1.7417 9.7849-14.508 18.879-8.1702 27.064-5.4663 9.6234-4.1 26.082-11.234 36.255-3.2935 11.747-7.8243 22.256-8.1702 36.95-8.6196 5.2765-18.224 37.36-11.234 30.454.36452 12.742 4.0935 22.119 16.34 22.979 5.2744 7.2984 8.8477 5.0708 19.404 6.6383 3.8188 8.976 11.346 2.9645 24.622 8.1702 4.526 8.373 33.836 17.761 27.463 11.234 12.795 1.1628 25.65 2.2647 33.702 8.1702 8.773 5.0142 24.244 3.3308 33.191 8.1703 10.28 2.3775 16.832 8.4823 26.737 11.234 10.175 2.1894 20.977 3.7514 28.922 8.1702 9.7138 5.1561 23.658 6.0817 33.376 11.234 11.595.9394 19.633 5.4359 29.433 8.1703 11.569 1.8779 16.812 10.081 30.128 10.213 4.1457 1.7222 5.8061 4.4261 13.787 3.0639zm-275.74-292.09c15.197-4.8244 33.508-6.5343 53.935-6.1277 18.148 3.5414 30.855-6.4335 35.427-17.035 8.4893-4.8961 10.951-15.82 14.298-25.858 7.038-7.6617 9.7064-19.693 11.234-32.865 1.4617-13.115 3.9959-25.158 8.1702-35.561 4.7331-9.7606 8.3984-31.482 2.0426-42.567-.53348-11.49-1.5431-22.504-10.213-25.858-8.7756-4.6323-53.545 9.5095-46.979 1.5319-4.0174 12.293-11.603 8.3021-21.447 3.5745-7.9118-3.4033-10.157-9.7764-15.757-16.924-6.1093-5.5957-5.3463-19.611-14.881-20.863-5.4386-4.9669 4.2254-67.802-2.0426-35.745-8.4166-10.072 4.9886-16.793 5.1064-27.574 3.5303-8.9566 12.539-12.434 13.277-24.184 5.17-3.9718 19.815-23.172 14.298-18.855 12.296-10.933.82229-17.356-5.617-5.9818-4.5927-4.8925-36.275 52.515-13.787 16.34-8.2447 1.1202-22.055 22.142-17.872 16.34-3.2485 6.794-9.7658 10.319-11.745 18.383-4.0001 8.4868-8.1587 16.815-11.234 26.227-.52675 15.614 2.4381 27.737 8.1702 37.092 4.1736 8.6537 9.6055 16.049 13.277 25.205 9.3415.98008 5.1137 15.529 14.298 16.667 3.2963 14.651 6.7342 29.161 5.1064 48.737 6.1816 5.8282 3.8025 20.217 11.234 24.795 3.345 16.313-14.661 8.1056-11.234-3.0638-10.153-1.2513-11.236-11.573-14.809-19.404 1.0378-2.3645-4.2302-18.682 1.5319-26.553 15.326 1.5453-19.447-49.666-3.0638-21.957-3.7656-7.9791-19.119-27.859-13.277-21.957-3.7522-8.1627-17.244-6.5858-19.404-16.34-9.8828-2.7129-5.0748-20.117-11.234-26.553 2.7545-12.733 13.38-30.45 9.7021-25.532 6.644-3.7877 3.19-17.673 11.891-19.404 3.8529-12.836 11.025-16.196 17.216-24 4.7482-6.3157 7.9564-14.171 16.34-16.851 3.0548-9.1597 14.928-9.2331 13.277-21.447-15.884-1.014-27.151 2.5885-36.439 8.1702-28.482 4.7202 19.198-22.315 3.7586-11.234 9.3613-3.7534 22.673-11.692 35.745-6.6383 9.7049-2.2243 20.264 18.795 21.447 2.1848 1.5957-14.981-3.2489-23.522-8.1702-31.986-.4881-12.897-3.519-23.252-8.1702-31.986 2.3439-10.812-18.483-25.886 1.2054-24.511 10.237-2.9779 16.675-9.755 31.475-8.1702 4.9761 7.1519 11.818 10.393 23.052 12.693 4.2427 9.4909 25.858 22.148 20.863 14.881 11.672 1.0943 19.013 6.5188 27.574 10.723 5.122 6.6227 17.379 6.1107 21.447 13.787 11.822-1.1039 14.91 11.62 24.511 12.255 11.149.33711 16.709 10.74 27.574 12.255 9.0982 2.1972 10.755 11.836 22.652 11.234 5.7821-5.731 23.396-22.656 18.199-16.34 8.1685-3.406 26.173-20.125 19.404-15.319 9.1328-3.1225 12.449-12.062 21.447-15.319 1.9282-7.8337 12.673-6.4844 17.872-13.277 5.0279-5.1849 12.929-7.4963 16.34-14.298 8.6127-1.7702 8.9134-11.853 20.936-10.213 2.0232-7.0223 17.1-19.083 12.839-14.298 9.1815-5.0638 12.318-11.192 21.884-13.277 2.7545-5.0431 14.27-15.937 19.404-8.1702 5.6568 11.905 6.837 25.788 19.404 13.277 7.952-4.6102 2.6069 39.389 6.6383 30.638-2.4353 17.164 1.3438 21.945-1.5319 40.851 8.1595 13.382-4.3414 31.934 0 51.432 1.2668 15.603.0428 30.042 11.234 38.44 5.4362 3.851 28.591-1.5894 40.525-2.0426 11.73 2.4214 21.477 2.7387 29.943 11.088 5.3398 6.0696 9.9926 9.6103 16.34 17.435 6.4027 5.1961 19.797 26.598 14.298 20.498 3.9793 11.312 12.348 26.818 9.2644 24.511 11.586 9.5768-7.4623 13.221-6.2006 2.0426-4.6918-4.8836-19.019-24.559-15.83-18.383-5.9662-8.7917-9.3288-18.359-14.809-27.574-9.9122-5.5875-16.479-12.18-29.617-12.255-12.904-1.1405-20.115-.67458-32.681 1.0213-7.0366 7.6164 6.7389 12.679 5.1064 24.184 7.3144 2.7236 22.63 26.096 16.34 14.624 9.4351.14702 13.076 10.436 19.404 14.809 4.4854 6.5784 18.699 25.557 13.277 19.915 4.2873 11.604 2.7454 29.037 8.1702 39.503-5.4559 11.116-1.3383 31.806-5.1064 44.61 2.4714 15.857-8.6685 18.102-8.1702 31.986-10.426 15.349-11.641 1.8001-6.1277-10.397 4.3582-9.9025 3.6516-21.636-10.213-20.936-20.054-1.8264 4.2137-14.573 2.0426-26.553 10.619-4.5298 6.9662-23.332 8.1702-37.277 3.68-17.808-3.2335-25.022-8.1702-34.213-2.1495-2.8373-16.774-13.284-14.809-5.1064 7.1561 10.592-20.349 50.281-6.6383 32.681-3.763 8.6626-7.3592 17.492-9.7021 27.574-6.4139 14.733 2.7154 26.25 4.5958 37.787-6.6495 16.97-47.008-78.24-17.872-16.34-5.8205-4.475-21.221-18.86-14.809-16.34-8.4059-6.2938-15.64-13.76-32.865-11.234-15.377.93133-30.67 6.3343-30.454 23.858-1.2815 14.388-9.318 27.141-4.0851 44.568 8.7474 3.5079 21.201 27.821 12.255 24.511.69714 11.53 11.758 14.294 12.255 24.511 5.4252 5.6075 11.57 14.948 20.426 16.34 6.7154 1.7275 18.123 10.464 16.34 9.7021 10.216 2.7742 18.364 12.409 30.638 12.766 10.291 3.8791 23.861 4.0781 32.681 11.745 9.2228.24704 15.194 10.578 24.511 4.5957-.039-14.167-2.5823-30.838 8.1702-34.213 3.4169-7.0146 17.887-30.095 13.277-22.979 9.0574-2.2684 11.606-12.956 19.404-17.872 4.4122-6.4814 12.008-9.7788 14.809-17.872 5.7928-5.7135 13.372-13.317 19.404-19.404 6.2989-5.6506 6.698-15.09 14.809-21.447-1.7432-16.892 4.4348-25.863 6.6383-38.809 5.4845-13.544 4.4106-24.312-1.5319-35.745-.87339-13.765-7.6057-21.671-9.1915-34.723-6.0145-5.2196-9.4853-12.983-9.1915-24.511-7.7375-2.6455-19.777-21.755-14.298-16.851-4.7744-5.949-18.177-24.717-13.277-18.894-2.1335-10.153.25786-12.255-11.234-18.967-4.4179-8.2164-20.539-26.537-16.34-19.842-1.9082-9.3559-12.446-24.341-5.1064-33.376-2.112-10.675 8.3153-28.135-3.0638-31.986 4.197-9.1358.74519-20.946-7.076-29.617-4.1402-7.8026-20.549-26.967-14.371-22.468 1.774-11.63-9.7962-13.885-7.1489-21.447-.0709-11.272-2.1545-20.961-12.255-24.511-6.106-12.15-22.256-16.984-19.404-14.809-11.55.53738-20.365-.64009-37.645-1.5319-9.8582-4.7-24.69-4.9362-32.823-9.7021-8.8928-.95611-28.996-16.751-22.468-12.766-8.6118-1.4308-10.686-9.399-18.383-11.745-4.9892-6.5246-27.285 4.4528-22.468-1.5319-3.6672 16.757-6.9582 21.794-9.1915 24.511-2.4302 9.1443-9.2817 13.867-12.255 22.468-9.059 2.0275-8.7956 14.502-16.34 20.353-6.2064 5.2343-13.233 13.166-19.404 18.967-6.5141 7.6449-24.01 24.099-19.404 16.997-8.1099 3.9069-15.438 14.629-21.447 4.4498-7.6866-2.3238-12.959-11.011-19.404-15.903-7.7691-8.2557-12.881-13.929-21.447-21.228-5.4682-13.207-17.363-24.948-16.34-21.082 7.5488-1.3343-60.092-43.159-14.298-16.851-2.2786-8.7852-13.959-30.296-10.213-22.979-5.2284-4.037-8.5701-21.171-19.404-12.766-6.8553 3.8681-25.046 17.848-19.404 12.766-10.398 4.9796-24.063 16.641-21.447 11.745-8.004 4.4829-15.779 9.195-26.227 11.234-.82213-8.6784-61.786 57.979-22.795 11.234-11.326.0779-17.668 5.1406-24.511 9.7021-8.9482 2.456-14.496 8.3121-22.468 11.745-2.0579 7.8145-10.282 9.4627-13.277 16.34-9.9858 7.6521-15.724 20.849-14.298 18.057-1.0255 13.844-6.1595 23.58-8.1702 36.439-1.0697 17.416-10.104 26.147-8.1702 44.568 2.4212 19.443-8.0447 25.998-5.1064 45.957-6.4663 9.4248-3.3727 28.41-11.234 36.439-2.5777 9.1056-7.7528 15.614-8.1702 26.88-6.0667 6.7607-9.1069 16.548-13.277 25.205.48632 12.855-9.2743 20.733-13.277 28.922 1.396 20.644-12.269 26.227-8.1702 49.574 2.7586 14.201 1.8068 32.113 8.1702 42.709-1.2075 12.659 5.165 17.738 9.1915 25.164 5.67 4.9948 13.657 8.0362 17.362 16.34 7.3475 3.6472 12.635 12.101 19.404 17.872 7.7444 5.4722 10.529 13.042 17.413 23.104 7.9922 11.49 11.879 16.253 16.8 24.385 6.9502 3.7732 3.3668 18.08 12.766 19.404.38298 1.4894-1.3404 5.0851 2.5532 3.0638zm441.19-174.64c4.9216-6.4827 11.134-11.674 11.745-22.468 11.481-1.4549 14.91-36.835 11.234-27.574 1.5283-13.515 2.544-11.317 3.0638-29.617-6.711-3.7333-19.205-22.573-14.298-17.035-3.2769-7.9619-4.5615-15.549-10.213-23.816-11.368-2.8212-2.7366-25.642-14.993-27.574-14.4 2.1025-.57068 11.804-2.369 22.468-17.255.90018-22.691-10.018-40.893-8.1702-21.753 3.6632-31.694-4.4863-48.142-6.1277-11.823-4.3716-29.913 2.5828-49.247 0-8.5721 7.2843 9.4609 10.758 18.793 11.234 1.9447 20.048-23.145-4.2-29.106 8.1702-4.6146 10.183 22.803 22.114 14.809 19.404 7.8075 1.9234 11.972 7.1443 17.872 13.277 5.9346 13.077-27.332-6.4391-17.872-3.0638-6.6814-.46776-23.065-18.428-21.447 1.2054 5.7455 7.2665 13.153 12.88 21.957 15.135 8.5916 3.8339 15.669 9.1816 22.979 14.298 11.503-3.1136 13.682 24.037 3.0638 13.277-8.7513-10.364-11.008-.164-4.0851 8.1702 10.998 2.4491 18.393 8.5011 27.574 12.766 6.9663 4.0975 29.176 15.079 21.447 11.745 7.0047 5.7394 16.371 7.7598 24.511 1.5319 15.242-9.1806 36.53 2.787 35.745 1.5319 7.4109 2.135 13.272 6.2892 17.872 11.234zm-98.553-55.149c-7.4296 1.9906-25.596-18.517-15.319-14.894 8.002-3.6327 28.389 9.9742 22.468 6.7234-.25726 6.6416 2.516 10.372-7.1489 8.1702zm24.511-29.617c-3.9593-6.5938-27.05-15.163-20.426-11.234-10.452-13.565 23.348 7.4431 20.426 0 7.5779 7.3842.88931 1.4181 0 11.234zm-273.19 62.298c11.82-1.7972 24.601-2.6326 31.149-9.7021 3.7067-8.7188 17.187-7.6637 22.468-14.809 7.2469-4.1574 31.992-13.625 24.511-9.7021 9.6084-6.3436 26.149-4.4197 21.447-22.979-7.6915 4.2234-30.072 17.588-24.511 11.234-13.492-14.468 20.225-26.365 16.34-19.404 7.2923-.77428 24.753-11.902 15.646-16.34-7.6125 3.0495-30.44 12.208-23.816 8.1702-15.416 9.3726-10.002-7.7198 1.5319-8.1702 6.6884-5.4257 14.706-6.79 22.979-13.277 5.6166-2.5948 4.7025-22.503 11.234-17.872-12.664-5.081-22.652 4.6139-33.191 6.6383-13.931 3.8939-32.062 6.0353-30.128 6.6383-10.245-6.1902 12.57-18.679 11.234-14.809 14.716 2.1385 29.34-6.6676 23.416-22.468-9.5782-6.0085-37.143-.15203-28.523 3.0638-21.55.22571-22.481 1.2621-37.277 5.1064-12.102 2.8764-22.368 7.5897-36.766 8.1702-10.987 5.0859-20.245 9.6203-20.426-8.1702-5.6696 6.3624-15.081 11.604-14.809 22.468-6.04 6.1065-7.631 16.662-11.234 25.205-.97356 11.337-7.7554 26.709-3.0638 37.092-1.074 12.648 6.2003 16.949 11.234 23.489 5.2026 4.346 10.724 12.709 21.447 12.255 2.7469 8.5593 21.11 4.528 29.106 8.1702zm30.128-19.404c-19.191.99027 15.598-23.54 4.0851-14.809 6.7752-9.0074 19.113.56514 8.1702 6.6383-17.179-4.7465-.56281 9.8448-12.255 8.1702zm0-34.723c-10.444-3.0598 13.631-17.724 9.7021-16.34 8.6393-7.9814 21.236.65503 10.723 8.1702-13.396-3.8083-12.233 7.5029-20.426 8.1702zm122.55-90.894c12.05.81602 10.237-12.231 23.489-10.213 7.2343-11.305 22.28-19.607 19.404-17.872 8.5554-2.4268 11.212-14.874 21.447-14.809 3.5554-8.5444 14.135-8.5287 20.863-16.34 9.455-.84718 13.997-12.104 22.03-14.298 2.3787 7.4417 59.486-52.025 20.426-11.745 4.0504-7.576 30.394-20.475 24.511-14.954 10.328-5.2432 17.301-28.862-1.2054-27.429-5.9739 4.7968-27.022 18.709-19.22 16.34-9.3047.57905-12.148 12.517-20.426 14.809-6.3652 4.3582-10.925 10.522-19.404 12.766-3.3834 5.9783-24.237 13.21-16.34 11.745-5.2893 6.3029-11.532 10.251-19.404 14.809-6.2523 7.2073-11.832 11.726-21.447 18.31-6.445 4.892-11.718 13.579-19.404 15.903-7.6452 5.5516-12.368 14.315-25.205 12.766-18.768-9.8215-3.2895-3.1302-22.284-11.234-6.7509-5.6746-17.043-7.808-26.043-11.234-4.665-6.2286-26.448-17.126-19.404-13.277-11.139-7.9416-29.591-18.458-24.511-13.277-12.03.56411-13.834-9.0973-23.163-11.234-7.7509-2.9111-26.606-16.042-20.752-11.234-11.428-.48681-10.924-12.906-24.511-11.234-5.0469-5.2083-20.703-5.8546-17.872 3.0638 7.9077 4.5988 16.83 13.405 28.231 14.298 7.9419 8.8748 19.642 10.1 31.698 13.277 7.4694 5.065 17.774 7.2949 26.369 11.234 4.5992 7.1177 17.567 6.4532 24.511 13.277 10.525 5.3328 18.422 10.834 29.617 13.277 6.4471 7.0611 18.002 9.0147 26.227 14.298 9.3831 1.1464 11.58 9.5512 21.773 10.213zm-18.383-184.85c11.872-1.506-3.6762-33.801 1.0213-29.291.70153-13.747-12.74-13.35-21.447-17.688-6.9998-7.4948-18.394-7.2182-27.574-15.246-15.916-3.6353-1.1112 26.606 2.0426 21.228 4.4241 6.8585 20.903 24.228 15.319 18.529 4.5851 6.0167 12.175 9.0289 17.508 14.298 3.6301 6.508 8.1256 5.6981 13.131 8.1702zm34.723 0c8.2448-1.0968 23.769-19.663 19.404-14.298 2.0288-7.2901 17.229-26.929 14.444-19.404 7.406-7.1837 10.219-12.041 12.62-21.447 7.0363-6.007-8.4876-19.51-9.7021-8.1702-5.2107 5.1723-22.435 19.097-16.34 14.809-7.2854 5.821-17.036 9.1768-29.617 9.7021-2.9557 10.123-7.1506 21.047-1.5319 30.638 5.3268 1.0835 4.493 8.3935 10.723 8.1702zm-13.277-43.915c14.149 1.0126 20.293-7.4351 31.66-11.234 4.4881-8.409 13.101-12.805 17.362-19.404 2.6773-10.259 8.147-17.725 9.1915-29.617 9.3021-4.1447 4.2034-22.69 12.766-27.574 10.029-5.9237 21.965-9.9404 20.936-26.922.63689-15.406 6.132-39.62-1.5319-51.717-4.9759-7.6438-12.62 7.6425-20.936 0-2.5577-10.889-2.8052-24.088-9.7021-30.638-8.9625-5.8265-12.587-13.462-25.167-13.277-15.927 14.21-40.247-5.0942-37.131-3.0638-5.9728-5.9895-12.229-11.827-14.809-19.404-10.766.63812-21.311 24.306-16.34 17.872-5.1008 6.3426-10.413 24.696 0 29.106 4.6459 12.273-6.1631 1.6836-8.1702 9.7021-11.959 3.5493-43.253-12.54-35.745-6.6383-3.4621-3.8053-13.618-18.954-17.872-11.234-7.913 3.4912-1.1082 21.7-12.766 21.447-7.7839 9.3342-1.4552 28.853-9.1915 35.745-4.8063-7.0685-14.65-9.9781-23.489-5.1064-5.7769 11.301.29332 40.249 1.5319 32.681 4.6794 10.915-2.8601 23.781 9.7021 21.447 2.3365 7.2987 17.205 15.836 22.979 8.1702 12.849-4.0558 12.823 15.419 9.7021 16.34 3.3856 7.6782 15.77 28.485 10.723 22.468 13.69 13.002 7.2022-5.7596 16.851 13.277 3.4777 8.7916 55.54 7.5191 24.511 13.277 8.1764 5.1002 17.282 9.2712 28.596 11.234 9.2867-1.4792 6.1248 5.6004 16.34 3.0638zm-10.723-19.404c-12.788-4.7001 14.757-.45026 11.745-8.1702-3.2222 2.646-9.0668 3.7657-11.745 8.1702zm-.25532-19.443c-9.9339-1.0202-21.139-20.397-1.2766-16.302 17.038-5.6725 15.964 16.069 5.1064 16.34l-3.7584-.0381zm-2.2979-29.578c-12.27-.98492-14.452-19.286 5.4747-13.277-1.1442 1.8387 1.6863 15.664-5.4747 13.277zm-106.72-24.511c-7.0724-8.0651 6.1736-14.242 0 0zm202.21-16.34c-3.3788-13.811-1.829-34.764 1.5319-46.979 9.8713 8.8542-.82046 23.264 5.1064 39.177-2.6644 1.9558-4.146 5.6981-6.6383 7.8019zm-210.38-14.298c-12.134-10.732 7.075-16.88 0 0zm50.043-2.0426c-5.5019-7.4735 8.9215-18.587 16.851-11.234 6.1168-9.5879 30.756.5443 21.957 8.1702-9.3944-12.008-20.044 11.15-28.085 0-5.5861-7.5219-4.6541 1.6316-10.723 3.0638zm94.468-6.1277c-3.027-7.7405 2.3098-17.639-15.319-20.099-1.6422-15.708 37.319-18.946 27.574-14.624 26.211.48671 3.5778 14.79 1.5319 10.213 13.048.39878 6.9681 19.926 17.872 22.468 5.3133.81374-53.647 2.8231-31.333 2.0426zm13.787-10.213c2.2795-19.662-8.9327 2.5104 0 0zm-100.09-3.0638c-3.8346-2.8433 17.992-21.673-7.6596-16.34-12.092.54329 46.614 4.6272 37.787-1.5319 3.9608 4.6035 20.417 15.802 0 12.766-8.6901 5.7423-23.982-5.1998-30.128 5.1064zm149.11-29.617c3.64 2.278 35.118-58.259 12.766-27.574 2.2281-14.557-3.3582-22.566-11.234-29.106-5.4563-6.9692-8.6106-16.24-11.234-26.043-5.6606-5.8071-7.2364-12.193-15.246-18.383-2.924-4.6662-20.598-20.946-20.498-3.0638 11.725 18.33-13.371 12.56-18.383 4.0851-6.3015-5.7362-12.84-11.235-23.858-12.255-17.7-3.5841-17.533 20.073-13.328 32.681 4.7355 6.6385 10.35 12.398 12.675 21.447 7.722 2.8312 6.7076 14.399 16.34 15.319 9.0419 4.0236 14.401 4.3089 16.34-7.1489 14.32-1.316 21.555 5.7491 29.617 12.766 9.0585 2.3457 17.251 5.5576 16.34 17.872 11.234-2.6369 4.5136 15.92 9.7021 19.404z" style="fill:#2e5d3a"/>
</svg>
