<?xml version="1.0" encoding="UTF-8"?>
<!-- Created with Inkscape (http://www.inkscape.org/) -->
<svg version="1.1" viewBox="0 0 1975.1 1463.5" xmlns="http://www.w3.org/2000/svg">
 <path d="m1016.4 1462c-1.3882-6.4628-16.555-3.7578-10.468-13.842-12.562-3.5253-13.739-15.455-19.988-23.438-6.6214-5.6212-5.0396-10.891-9.6292-19.676-4.3603-5.3746-8.8363-28.916-7.1489-24.154-2.7141-8.8082-3.7864-12.651-6.1277-22.383-1.401-12.687-1.4329-8.3643-5.1064-26.723-7.4608-10.386-3.3103-28.448-8.0368-41.658-2.1032-15.919 5.35-10.763-1.1547-34.06 2.2296-17.169 1.0774-23.401 2.4613-39.564-2.1396-15.137-2.3877-39.126.60249-31.782 7.09-16.924 3.8015-37.152 5.3617-27.149-3.1143-6.3885-4.8796-31.404.25532-24.936-.48543-8.5441 3.5194-17.202 5.1064-19.404-6.1283-8.9839.23965-19.962 4.5957-27.574-1.0305-9.8771 2.36-15.293 3.3171-25.93 10.428-6.9926 14.298-28.029 5.8744-36.504 2.4754-12.423-12.743-16.76-12.255-26.416-1.6761 5.0099-34.01-13.673-22.468-9.1915-4.4502 9.1952-22.215-2.9119-29.179 6.1277-12.854 7.8921-23.942 15.722-36.182 19.385-9.9513 5.4658-21.754 9.9369-34.723 7.1684-9.1653-1.7313-31.778 1.9456-27.574-1.0212-10.697-8.7656-31.013-.3964-35.745-14.144-4.1387-12.114-5.9118-18.994-17.136-22.622-16.935-3.7599-8.3887-9.5993-19.901-5.1064-7.6846-6.6618-28.418-6.6223-21.924-3.8298-7.8962-6.044-15.236-2.3636-24.784-7.4043-4.895-8.3147-16.366-9.0642-24.8-12.511-.63511-4.7903-7.7931-16.942-17.073-12-3.9748-9.5317-16.229-5.774-11.489-12.137-4.6823-9.1167 11.267-16.536 9.9574-27.532-6.6321-11.29-19.396-37.198-19.66-27.14-3.6769-7.927-11.161-7.6908-13.386-20-8.3975-8.4926-7.9818-23.742-6.2736-35.378 4.8835-3.5808 14.986 11.664 25.532 9.8465 7.4357 9.0171 40.665-5.8064 32.315-2.0426 16.525-1.4894 27.131 7.9544 44.852 6.1277 12.434-7.3007 18.315-13.225 27.659-18.383 13.884 4.0392 25.464.69675 37.217 0 11.274.6802 18.559 7.6364 27.489 10.286 7.0548 9.544 20.69 8.8648 27.574 22.323 15.329 4.5163 22.586 18.146 41.053 13.348 10.296-6.6238 16.402-18.021 24.912-8.6808 10.392 8.6927 23.618 13.763 32.077 22.998 6.7761 6.3202 11.924 16.301 15.173 26.534 11.44.57811 15.991 31.83 15.465 19.915 10.018 15.919 17.034 24.959 17.199 29.106.24509 9.5419 9.7654 31.784 16.503 19.477.92594-11.661 10.115-21.528 11.234-31.733 6.2894-4.8432 2.4139-7.4187 8.0804-18.383 5.8353-12.775 11.062-23.267 15.409-36.494 3.4596-10.171 9.8274-16.625 12.255-24.783 6.9782-9.1405 5.3517-11.041 12.255-20.876-3.737-8.4503 19.735-16.972 10.213-18.953 6.455-7.1953 6.0524-12.915 13.277-17.191-5.6049-1.7457 23.133-52.77 11.234-27.66 15.084-18.508.2737-22.367 14.808-22.79-7.3263-9.4805 8.177-15.378 9.3559-30.078 4.9635-10.849 7.806-32.456-2.8332-39.983.4847-14.129-4.6767-6.917-11.045-17.532-3.4987-10.722-15.027-9.8072-23.563-18.383-1.8775-.52556-23.566-3.7803-24.4-13.46.7449-9.9918-14.374-8.4662-14.409-20.242-8.1549-7.5691-9.4684-39.236-9.1915-32.681 2.0731-13.873-9.1091-2.5845-2.1884-20.426-2.8143-11.191 20.84-7.2613 13.422-29.322-2.8622-12.144-11.584-11.202-11.235-27.869-0-8.0985 2.3245-11.603-2.0426-22.612 2.1115-11.123-1.9303-34.307-.2331-51.138.9354-15.937-1.8366-24.144 19.037-24.802 13.94-.53032 11.053-17.83 22.047-23.854-1.8694-12.742 17.453-16.61 12-24.576 7.1373-8.1848 7.5826-13.166 15.574-18.464 4.6207 4.8447 15.486 9.0165 26.698 12.255 12.766-.71055 25.019 24.072 18.239 18.383 2.7888 13.555 7.5306 22.435 8.1702 35.745 3.3547 11.524 10.475 19.713 26.013 19.74 5.3588 14.879 4.4028 39.366.5404 53.367-.6267 10.162-9.645 17.907-9.1915 30.043-6.1679 2.5274-9.0556 27.141-3.6209 39.366 17.485 3.2282 17.905 25.024 12.812 41.315-5.2772 5.7318-5.4335 19.968-12.255 27.574-2.3914 10.253-11.437 18.318-13.504 29.617-6.8564 5.6683-7.0156 20.482-14.07 29.617-10.172 14.074 5.2526 22.769 17.362 7.1489 5.728-7.7163 16.551-20.814 20.426-29.617 2.8544-5.573 13.06-25.064 14.298-20.596 5.2832-3.6904 4.5137-13.637 12.391-20.892 3.9625-7.107 14.575-31.105 14.308-24.895 12.022-9.6792 5.8198-13.829 11.574-20.17 3.2474-2.4505 9.5715-13.953 4.6204-16.596 4.9047-5.7792 15.92-18.923 22.468-10.056 13.77-3.3937 10.884-14.068 23.489-19.561 5.3363-5.531 10.104-6.4761 8.3617-14.635 10.623-10.296 26.105-25.294 26.33-21.62 7.017-5.8887 14.452-18.307 22.5-22.468 5.8197-7.0502 18.673-9.0724 23.627-16.851 10.966-1.8034 18.794-9.8071 26.416-11.745-7.5382 10.426-29.128 34.623-24.511 27.064-11.073 8.0322-28.253 26.992-34.723 36.766-8.1307-5.3922-7.3086 14.259-19.202 18.383-7.0772 8.0236-11.488 8.8548-17.053 18.383-9.5334 7.6281-7.5699 8.5667-16.341 20.327-9.2687 9.7987-17.313 23.64-27.064 32.733-10.247 9.8193-12.351 21.832-23.489 27.621-2.4964 11.771-14.844 21.524-19.512 33.803-10.246 7.9957-14.217 21.115-22.27 30.537-3.3649 7.2407-11.108 24.678 3.1443 15.319 9.6593-2.2151 21.481-16.912 25.362-22.468 7.3033-8.3126 12.309-24.42 24.511-30.776 1.2798-10.711 25.906-29.132 20.426-23.352 6.0238-9.5076 16.926-14.592 22.554-21.447 8.3919-9.8937 16.051-15.326 26.467-22.537 8.8106-6.6233 17.674-9.3863 26.553-13.135 12.511-11.599 18.099 15.896 38.264 5.8073 17.45 3.1256 19.758-14.604 36.434-12.008 7.6954-8.6686 31.266-8.0511 34.224-8.6362 13.89 2.9117 30.738-7.6394 39.164.46604-.093 7.4291.8029 23.223 10.213 26.553 8.9748 8.307 19.383 11.499 33.707 11.949 11.875 10.986-5.5556 43.212-2.4855 32.55-10.682 7.6146-31.563.78001-43.477 6.5654-11.521 2.4758-13.034-.5299-24.511 3.0638-13.276 2.9044-26.91 8.1818-44.936 6.1277-5.8733 8.1107-21.554 5.274-32.446 10.018-8.9493 5.584-24.291 2.244-33.552 7.508-17.149 2.5937-25.539 9.1055-42.084 9.6809-12.243 5.8223-23.678 8.0533-38.046 11.602-7.0277 4.457-19.128 7.0691-28.511 12.255-11.056 4.236-25.678 11.935-34.723 23.322 7.7783 4.9349 24.643-2.5463 37.798-3.9309 9.4419-8.5132 28.808-1.5763 36.609-13.264 17.462.81318 24.8-9.6027 40.197-10.367 18.179-2.9672 26.159-10.639 46.757-11.22 12.126-4.1698 27.008-9.0425 43.289-8.7934 15.511.47209 22.439-12.918 41.581-8.649 16.946-1.7336 33.592-2.7775 47.344-6.7952 10.624.63583 34.826-14.452 37.537 3.9524 12.514 1.4142 39.032-11.587 30.436-9.2142 9.8223-8.3407 24.068-9.3892 29.33-22.445 8.5266-4.4196 12.559-14.948 21.718-16.34 5.6134-4.7147 22.838.81394 7.1505 7.1489-7.3933 6.2221-14.685 13.97-25.459 22.468-9.9215 6.9132-17.837 10.325-25.605 16.34-13.026 4.2214-22.868 10.319-33.336 13.277-9.5322 1.6204-23.437 33.784-22.834 24 4.0574 10.124-14.748 18.904-10.808 17.872-6.5285 8.2019-18.039 12.468-29.021 16.34-9.0972 4.0933-18.183 7.3393-29.702 11.234-8.0343 1.8245-20.087 1.0717-31.574 4.0851-8.708-2.5166-44.383-12.12-36.766-6.1276-10.734 4.5989-27.909-2.1846-32.681 11.38-2.3331 9.7233-4.5933 19.519-17.932 18.237-14.675 12.13-33.982-4.9705-42.323 6.1277-11.818-3.1064-17.643-2.6394-32.681-6.1277-6.8377-4.8134-18.726-8.6806-28.96-12.766-12.185-9.6073-27.638-13.51-28.231-8.6808-12.891-1.049-25.504-3.3152-38.209 5.1064-13.251 8.5738-18.851 20.164-28.174 32.507-5.4208 10.736-11.438 22.051-18.383 29.718-12.318 13.538 14.186 13.571 6.1277 22.541-2.5413 9.4916-12.233 18.044-18.082 25.532-10.108 10.003-15.421 15.057-20.726 24.511-8.4984 4.9864-3.942 12.238-11.234 18.383-7.8101 7.4162-10.026 22.15-16.34 29.617-1.5062 11.564-10.919 18.638-10.213 32.681-8.8927 5.4346-2.7896 24.301-14.298 27.574.6385 10.997-7.479 19.668-9.1922 34.795-2.0314 9.5112-4.1227 17.162-7.149 27.928-5.2082 13.331 1.2071 33.029-11.092 42.468-1.2514-3.5837-9.9384 46.085-5.2484 38.808-3.7218 13.586-8.8565 36.022-2.9528 53.558 9.3692-2.2753 9.1197 25.944 9.0804 19.974-1.4202 16.635-3.0727 20.549-6.2533 35.953 4.233 14.103-8.6707 21.526-1.9169 33.652-2.8688 11.905-1.687 19.051 0 32.666 1.5663 13.477 1.9622 26.234 7.1808 38.642-1.3424 12.937 2.9366 21.496 6.0958 30.735 1.8577 12.682 13.15 21.396 16.34 32.608 5.8916 9.7397 32.472-12.358 27.574-6.1741 6.6837-10.48 6.852-18.921 15.83-24.568-4.5123-18.67 10.417-25.116 8.8429-41.258 8.9965 2.5165 12.154-22.582 6.9877-16.851-2.3646-11.39-.2293-3.1328 2.0426-19.234.6086-12.254 2.7214-27.13.6511-42.258.5407-18.45-2.7095-10.203-2.6937-27.955-.7136-8.7042 3.0196-21.132-6.1276-28 5.1091-7.507 20.168-7.1142 20.426-20.426 5.7147 2.0358 1.5513-24.343 0-31.004-6.2128 25.112 1.6329-33.298-3.2734-24.5-2.1167-13.678 2.3667-23.863-1.833-38.964-6.9682-5.6971 7.6156-14.228-4.0851-15.83 7.8369-20.363-3.5381 1.0956-3.0638-17.433 5.4871-6.7575-4.3995-15.85-2.0426-17.29.6117-11.757-5.6014-14.221-5.5974-26.938-1.5011-7.4355-7.4435-15.029-7.6792-24.929-7.8526-5.3835-9.6498-21.911-4.2041-29.836 1.1926-18.579 11.183-19.481 13.396-5.1064 4.6467 8.7633 7.7527 22.35 11.234 32.681 7.4533 9.1627 3.9544 26.716 13.495 30.76 1.2519-16.942 2.8954-30.997 6.9305-46.305 2.6613-18.066 2.5404-42.92 3.0638-37.562 4.2185-7.985 2.8224-12.976 8.1702-20.863 5.375-11.561 13.235-23.602 17.342-34.286 8.9234-5.7817 11.155-16.548 21.466-20.426 2.4576-13.757 29.7-35.077 25.532-28.515 10.87-7.6018 19.174-9.7878 24.075-21.238 15.732-2.7986 32.168-15.777 25.968-11.524 8.5558-1.9726 5.0357 8.2588 13.131 15.319 9.8666 11.113 29.381 7.5203 36.912-2.0426 9.0413-8.2268 18.894-12.184 28.37-16.34 13.351-4.7049 28.627-7.4675 39.97-11.234 8.0686-2.7683 20.226-2.3704 26.639 11.685 1.5772 8.807 33.394 10.42 25.532 11.804 19.647-4.0678 35.85 4.0208 57.192 1.324.3871 7.2684 24.821-11.61 13.277 4.5631-10.735 11.981-8.7276 13.328-18.383 23.644-7.5748 15.832-15.266 9.8104-34.749 11.359-7.7754 5.7322-7.701 18.726-9.1656 14.405-12.638 6.231-7.0443 24.734-11.234 38.439 6.0858 20.397-15.035 17.674-18.383 30.823-12.889 7.6611-21.296 13.033-30.043 18.422-13.883-6.9344-12.571 13.613-29.735 10.146-10.096 3.4883-33.167-.15911-42.775 6.1941-9.0327-1.0355-27.361 20.266-21.021 14.298-4.3853 14.872-.8959 18.626-7.3615 26.859-11.901 4.2553-20.848-2.4701-28.383 6.8434-12.789-1.2861-16.285-9.2066-25.532-1.0212-4.5825-7.502-16.136-3.3596-31.216-3.0639-18.76-.46821-32.66.20572-44.358 13.244-5.8297 14.998-11.536 27.199-9.3226 47.271-.4059 13.804 1.0101 50.795 4.2161 41.101 2.8429 12.42 2.1347 27.418 2.5341 45.512.5397 18.299-.4237 41.727-.9645 56.148 4.2653 13.363-5.0973 27.798-1.5703 39.362-2.3251 16.898-4.1861 24.542-4.0851 43.182-2.9192 11.791-5.3344 29.385-8.2252 40.988-2.2289 11.681-5.868 23.447-8.1152 34.723-7.2892 6.1005-5.6817 19.446-12.766 26.188-6.4321 14.282-10.276 26.615-19.915 40.287-5.8291 9.2296-22.156 28.536-17.362 22.929-3.2397 7.0942-13.859 18.69-22.214 12.216zm70.213-349.79c-2.3384-4.4281-2.5479 4.2268 0 0zm46.547-142.21c7.7127-6.8889 16.5-8.9059 19.836-21.054 9.5068-6.4835 13.623-15.202 25.022-21.587 10.906-9.7081 23.467-14.232 34.212-19.402 9.6137-8.5459 19.681-12.269 30.546-19.404 3.6816 8.4435 30.083-5.303 21.904-5.617 9.0837-5.0461 31.449-10.152 25.337-9.7021 12.94-6.1839 25.85-4.9973 36.596-11.348 9.1828-4.955 21.554-5.9508 34.533-9.0168 10.811-4.4504 21.741-9.9974 33.893-11.139 4.6253-3.3292 31.66-16.055 19.234-17.518-9.3473-3.4276-23.486-.13109-34.695 2.3537-14.862-.0847-19.769 6.883-32.709 7.824-15.687 1.4155-30.315 6.0989-42.723 10.248-16.417-.20682-26.157 13.678-43.123 12.255-8.6469 5.689-15.026 5.5352-26.324 11.234-5.1569 6.6517-16.782 6.4907-22.537 13.277-7.2221 6.5448-13.87-.16442-16.409 11.234-9.2514-2.3482-12.638 8.2242-21.582 12.511-7.1018-.0107-13.625 13.991-24.016 22.434-11.803 10.671-13.01 18.135-20.078 29.964 1.0241 3.4287-4.4977 18.62 3.0844 12.453zm-177.27-2.8085c-5.569-7.981-10.313-24.735-23.489-31.66-8.4751-3.1024-18.166-10.064-29.617-10.213-7.0751-7.7184-32.293-2.637-38.383-8.4255-12.66 2.9571-26.068-5.2561-40.908-5.8724-8.7294-3.4612-20.387-4.3222-29.961-6.1276-16.19-6.8576-20.061-7.0832-23.514-9.1915-13.692-3.8959-23.354-5.6733-34.038-10.635-10.364-1.1346-19.858-5.5198-29.282-7.7479-5.9972-5.1824-17.816-12.902-27.574-15.454-9.5802-5.6262-21.48-12.599-36.766-12.121-6.941-2.6038 22.627 23.402 16.987 21.088 8.5965 10.434 19.2 11.977 28.028 19.252 10.733 5.1918 18.894 6.4786 27.692 10.802 13.137 2.7433 22.642 9.0166 35.024 10.346 13.753 4.6454 22.967 7.9382 36.146 9.8735 8.2403 5.1424 17.743 5.8786 27.983 8.2878 17.102-1.65 25.813 6.3908 40.566 6.1376 12.396 3.8949 31.854 3.2939 45.957 8.1702 7.6545 4.4096 23.115 3.5493 29.617 12.125 11.377 1.3378 16.175 14.691 25.532 11.365zm106.89-328.51c-4.6977-1.3753 1.3264 3.0153 0 0zm69.323-23.273c4.1284-7.2337 1.9683-19.239.4642-30.32-4.6833-13.281-8.5748-25.416-6.1276-39.684-.9059-4.0935-6.4083-11.187-6.1277-23.602-2.143-10.996-9.8001-24.348-4.851-36.228-1.1568-13.69-1.2092-27.487-1.2766-45.362 1.3226-7.3248.2331-22.285 0-35.097 7.42-8.0909-1.2236-14.859 6.1276-22.844-7.8077-8.9133 3.0614-23.308-8.5337-30.94-9.2397-7.1739-15.046 37.799-13.934 28.626-3.5364 12.84-2.8169 31.638-2.0425 44.144-3.9667 13.891-2.0902 39.382-1.0213 54.919 2.9291 13.071 1.0518 30.948 5.1064 42.894-.794 16.073 3.1843 27.586 5.1064 42.126.7028 7.9972 4.9293 16.423 7.1489 28.926 1.8535 10.371 4.5718 18.945 15.591 24.948h1.8636zm-54.685-247.71c-2.3384-4.428-2.5479 4.2268 0 0zm9.1915-16.34c-2.3385-4.428-2.5479 4.2267 0 0zm-77.913 530.74c-1.6307-2.3787-7.5172-20.207-16.044-28.225.45289-9.9764-14.506-37.844-13.277-29.668 1.8482-8.2386-11.607-7.4176-12.255-21.593-9.5752-.99827-2.2434-10.456-13.376-16.332 1.8245-8.4766-20.928-34.073-16.241-25.665-4.3056-8.7914-18.322-19.85-13.277-16.534-6.5068-12.402-8.3804-18.634-18.383-27.561-2.3397-9.5952-19.183-30.223-17.293-23.038-7.6466-9.1094-17.017-15.661-31.473-12.88-16.652 2.6616-28.092-2.156-37.676 3.6887-14.261-2.0563-19.427 10.801-29.31 7.9149-8.9602 7.2055-19.09 19.84-18.035 15.6-5.6173 7.487-18.863 21.201-28.085 25.063-7.4884 5.2861-29.537 9.2776-24 8.4432 11.108-1.6303-68.532 22.015-26.187 7.3191-12.981.19194-36.626 2.4777-26.474-8.0551-3.3067-6.87-20.428-9.9273-15.169-14.413-11.256-3.442-20.384-6.4844-30.213-9.1915-8.8318 8.4984-41.439 3.6731-37.772-.18237-10.174 9.7069-19.827 3.979-30.8 2.2249-4.958-11.903-17.243 4.5415-23.343-5.1064-10.619 1.5637-11.593-4.3184-21.447-6.1276-12.403 6.0913-1.2838-9.4767-18.09-2.0426-21.227-.77709-10.817-18.487-9.4849-30.927 1.1411-15.333-10.939-15.608-20.426-23.201-10.309-4.4184-19.36-9.1692-27.858-14.31-5.5377-12.4-11.901-6.3112-18.099-14.286-11.188-6.9155-13.063-12.875-22.468-20.284-5.7429-5.5623-17.531-11.131-20.426-20.567 15.032-4.8039 32.485 2.4045 49.872-2.1352 37.74 4.3636-38.296 19.598-13.106 14.471 9.6203 8.8693 32.355 16.927 25.451 16.004 9.0768 4.8075 17.792 33.492 34.804 23.745 11.447-10.286 30.424-5.5065 41.506-2.0426 17.883 2.9135 32.917 6.5346 52.219 7.0546 13.579 2.327 28.546 5.6707 42.268 8.4978 21.554-1.37 36.163 8.0051 55.156 7.8394 43.926 1.7702 90.736 2.9097 135.66.81737-1.8322-10.976-28.536-19.12-22.894-12.975-9.0365-.37643-21.359-1.9317-33.224-4.4455-19.664.98402-33.482 2.0366-51.851-1.0812-24.327-1.1705-42.301-6.0621-65.92-5.7074-13.468-8.1404-51.315-6.5548-37.516-8.1702-11.635.24445-30.077-8.9305-47.489-6.2232-11.912-3.7844-21.412-8.9188-35.416-9.5712-9.0821-10.153 12.27-28.598 10.395-21.993-2.2587-15.97 9.6077-26.083 8.6808-18.383 9.1566 4.83 15.957-8.1547 28.085-13.277 7.1462-8.3403 16.72-13.265 28.596-9.1915 13.158 1.0491 23.459 3.3027 35.652 8.1702 12.122 7.8052 25.329 17.598 37.88 24.511 2.7859 3.5405 32.788 9.3303 19.404 6.1277 14.389-.23102 16.805-9.0458 21.702-18.809-4.797-9.0259 24.387 10.511 21.191 4.5106 11.599 1.4522 22.631 8.8351 32.196 14.38 10.582 2.2178 17.303 6.6183 25.439 15.227 11.552 1.6052 16.182 15.992 28.379 19.549 6.232 9.1374 19.143 19.292 26.083 24.375 11.909 8.1501 19.854 14.532 31.391 18.383 12.149 8.8212 13.335-3.3178.44255-11.745-15.884-12.878-25.532-33.295-38.74-43.404-6.5713-12.236-23.063-22.996-32.535-36.766-9.5771-7.4472-28.799-27.312-21.627-18.383-10.875-6.6649-15.954-16.109-24.748-20.426-7.9921-10.125-21.935-15.299-28.325-24.603 11.689-5.1128 29.118-10.629 36.397-5.0135 4.6432 4.5794 14.187 9.8018 22.326 20.361 8.5933 2.3326 9.8189 11.878 19.262 16.405 15.163 13.595 33.404 34.899 45.589 50.043 7.8414 6.6172 16.804 19.748 22.614 25.532 10.139 17.786 29.629 34.091 41.837 45.957 3.0557-8.7028.32103-21.369-7.2596-28.45-.8897-13.097-15.584-20.8-17.205-30.784-11.02-11.553-22.992-27.524-30.795-39.745.0596-8.5993-21.623-27.659-13.008-20.511-.57359-11.276-10.239-30.317-8.6945-24.085.64665-7.4099-7.6015-15.867-7.9149-25.957-6.1125-12.936 34.184-16.244 20.426-17.362 7.0822-16.39-1.3047-30.643-4.0851-44.936-4.9106-.53787 1.787-40.927-3.0638-31.66 3.6676-7.7814-1.4337-26.709 9.1915-34.213-2.3403-11.822.92917-27.091 20.059-18.894 18.73 2.3185 15.807-19.39 25.898-28.025 3.1547-12.523 14.019-26.834 25.532-39.102-3.1762-14.816 13.021-21.482 19.404-5.3828 5.0023 7.4984 7.2326 22.786 11.234 31.66 2.5817 14.899 2.7173 33.772 5.06 49.857 3.9652 8.2306 5.7331 19.898 16.48 21.632 14.317-2.9832.41041 71.245 9.0986 33.702 6.3247 15.46-8.2858 15.776-2.0426 34.723-6.3176 9.4546.36453 18.981-7.4658 28.773-2.5061 15.809-9.5241 22.425-12.96 35.057-3.1528 9.6566-10.946 13.909-2.0426 26.638.68206 15.25 21.8 26.949 20.426 18.809 5.0488 10.071-9.0586 39.212-5.4347 30.991-8.3829 12.75-13.22 22.98-24.182 35.333-7.4316 8.3833-14.526 23.387-14.298 21.506-5.0276 9.2827-4.4756 23.071-2.0426 35.003 4.3818 12.984 12.095 20.377 14.552 32.84 9.1442 9.1062 11.486 20.133 18.129 27.964 5.0031 10.296 12.904 21.16 24.511 22.661 12.57-6.7655 5.1316 7.8102 14.298 7.1489 5.5449 8.6347 8.5149 21.075 7.3426 34.723 8.5025 5.8026 3.9761 17.886 13.083 28.596 4.7448 8.9666 7.6804 17.181 9.1915 29.763-6.0838 6.8585-2.2301 27.076-11.53 24.045zm-467.45-168.19c-4.2895-4.8112-6.9068 4.5175 0 0zm355.83-113.98c5.2129-10.594 7.4232-33.361 3.658-27.976-4.4569-12.369 2.1247-24.889-2.0426-37.847-4.9302-14.404-1.5916-39.267-.91331-55.09-1.8128-17.603 9.4111-28.068 7.6131-46.353 1.262-14.526 3.1522-21.435 6.5768-31.128 4.3328-13.115-.92705-25.027 3.3456-39.965 7.8645-7.7974 4.7076-26.616 7.8885-39.097 5.5594-11.014-7.4661-35.277-11.234-18.46.51658 14.36-3.5023 21.257-7.3704 33.047-3.5507 7.9107-4.2426 18.68-6.8098 27.574-3.2268 11.199-15.42 35.92-10.14 28.596-.12315 18.707-6.0322 32.669-8.3608 49.021.47432 18.979-6.5656 41.854-1.0213 59.234.0393 24.907-1.3413 51.234 4.0851 70.753 4.4486 9.1859 3.4897 29.557 14.725 27.691zm-190.72-31.721c-2.7363-1.3539 1.5245 4.376 0 0zm-102.81-16.17c-1.1692-2.214-1.2739 2.1134 0 0zm363.23-140.09c-4.6976-1.3754 1.326 3.0154 0 0zm-607.32-77.957c-9.3615-5.275-19.081-8.2645-23.489-16.34-8.056-9.6713-1.6331-34.602 17.482-29.106 18.622-4.8434 24.432 15.912 27.454 25.021.27317 6.6515 14.39 18.809-.50914 22.468-6.1651-1.6939-16.79 3.2719-20.938-2.0426zm-7.1489-20.426c19.622-4.706 8.3189-38.551-9.2716-20.342-10.696 7.6356-7.1893 30.591 9.2716 20.342zm49.678-5.617c-12.761-5.59-20.313-19.693-18.018-31.149 12.382-19.264-1.2078-.89537 6.8779 9.1915 10.18 5.3369 24.3-3.1941 18.216-16.924-7.473-2.7812-20.863-4.6255-2.6261-7.5866 6.7494 5.9071 16.804 16.835 16.34 26.553 4.5485 14.884-2.5037 27.819-20.79 19.915zm1187.5-8.975c-12.602-6.265-5.0002-43.868.629-17.068 9.2752 5.2166 19.142-.65905 23.489-9.1915.7897 12.601-12.207 22.004-22.979 27.497zm42.501.29417c-7.215-5.5972-4.419-19.668 0-28.596 2.0351 14.188 24.998 23.366 27.319 4.5958 3.0291 15.982-21.341 22.575-27.319 24zm-87.83-9.1915c-13.536-2.9794-1.3863-43.012-4.9605-35.745-1.758 16.368 23.255 22.664 27.429 9.1915 3.4224-22.751-5.3474 16.187-1.0213 9.1234-9.3349 6.2032-14.301 18.076-21.447 17.43zm-1092-10.944c-7.0361-2.537-18.069-11.546-23.234-15.894-11.305-5.5712 5.5319-31.929 0-14.013-3.6713 18.046 24.222 12.223 22.003-2.7447.56043-6.4299-19.276-10.94-1.5775-8.4894 9.1081 4.258 15.843 15.999 21.447 23.489 5.3291 16.352-1.2831 21.183-18.638 17.651zm-93.702-7.2989c-15.513 4.3916-28.606-19.143-12.017-25.927 12.788-12.002 39.901 1.4764 27.336 17.392-3.6155 7.0168-6.1392 12.775-15.319 8.5355zm-7.1489-7.2888c15.637 4.8108 31.636-26.424 4.536-19.404-7.385 5.8838-30.395 17.632-4.536 19.404zm1260.3 1.0213c2.4244-8.2707 2.1712 7.95 0 0zm-113.36-1.0213c-10.033-1.7428 1.3698-27.705-4.0851-24.511 7.5873 5.156 13.407 9.9161 22.468 4.0851 7.6327-12.596 10.583 4.0196 2.1885 10.213-7.8513 3.0992-12.063 15.976-20.571 10.213zm142.98-2.0426c7.3681-4.847 17.394 4.1467 0 0zm-1144.9-13.277c-10.774-6.7069-22.339-8.2433-26.553-18.383 10.172 1.538 30.266-15.149 14.298-22.468-22.891 6.9548-15.872-1.7842 4.8381-2.0426 8.807 12.961 22.201 21.557 20.929 39.776 1.3686 7.383-10.786 6.6361-13.512 3.1176zm1151-5.1064c-13.66-12.491 17.649-11.311 2.0426 1.0213-.6809-.34044-2.8937.85108-2.0426-1.0213zm-1251-1.773c-17.556-4.6004-16.569-38.986 6.1349-33.972 19.552-2.7307 19.241 25.748 7.7686 34.723-4.6321-.27116-9.3092.011-13.903-.75172zm7.067-14.567c17.308-8.2994-1.6904-25.955-13.876-8.6957-9.584 13.644 5.3938 15.39 13.876 8.6957zm29.617 13.277c4.6837-4.895 9.2598 4.6265 0 0zm1171.4 0c-10.535-1.7824-15.484-21.209-7.1489-27.574 4.2416 10.125 10 18.152 26.362 17.024 2.1332 2.6848-16.705 13.356-19.213 10.55zm-149.11-12.255c-4.5563-5.2463 12.219-21.546 5.1064-25.633-6.0314 8.8037 9.6282 18.015 19.404 13.378 7.6386.609-9.0766 18.118-20.57 14.298.1629-2.1573-6.4206 2.4317-3.9407-2.0426zm-989.62-3.0638c4.2895-4.8112 6.9068 4.5175 0 0zm1079-4.0851c-3.1246-6.4163.3442-29.337-.5106-22.468 8.806 7.7328 19.258 18.477 27.439 18.383-7.0434 5.6613-17.76 9.8314-26.928 4.0851zm-1108-11.745c-13.926-7.2564-20.316-23.955-5.396-34.281 19.523-4.8089 30.944 8.8887 22.626 25.259-10.544 2.6544-6.4408 20.734-17.23 9.0222zm4.5575-10.86c21.46-11.117-.29459-28.627-12.285-16.203-4.6735 8.2962-2.8699 26.124 12.285 16.203zm79.63 12.392c-8.8728-1.7126-20.199-14.148-25.532-23.489 5.9211 7.6176 19.519 7.5755 24.762-4.9881-.7381-18.055 11.491 17.443 14.557 14.18 11.969-9.2188-10.382 21.915-13.787 14.298zm962.04 0c4.2893-4.8111 6.907 4.5174 0 0zm119.49-5.1064c6.355-10.148 2.5335 8.5766 0 0zm-94.567-3.4628c-7.2168-.92872-13.301-22.454-.1411-12.878 17.379 5.7735 18.835 10.519.9342 14.491l-.1624.0301zm-974.53-9.105c16.649-6.0965-3.5915 5.1328 0 0zm1025.2-6.8365c7.3681-4.847 17.394 4.1468 0 0zm-1083.5-6.8858c-17.206-17.137 19.111-26.195 13.24-13.54-3.1375 1.9908-7.219 21.997-13.24 13.54zm5.2053-6.547c6.5649-20.672-14.172 5.598 0 0zm17.226 6.2839c11.156-14.558 5.206 10.124 0 0z" style="fill:#2e5d3a"/>
 <path d="m957.96 1143.3c1.169-2.2142 1.2741 2.1133 0 0zm146.04-82.723c1.169-2.2142 1.2741 2.1133 0 0zm590.55-393.19c.6278-19.603-5.3623-33.678-12.511-47.494-8.4919-15.756-27.227-33.646-35.212-49.542-8.2844-11.407-9.4518-25.042-12.788-38.326-7.1976-21.645 8.5144-46.683-2e-4-71.451-6.4781-13.246-12.754-24.124-18.383-36.766-5.4617-14.506-11.045-32.013-13.277-48.48-1.7925-19.746-10.298-31.252-9.1915-52.627 12.794 7.7722 19.883 30.144 35.089 42.78 12.679 12.707 18.536 22.871 30.272 35.812 13.121 9.9499 27.633 23.349 39.83 38.344 3.2739 8.9194 16.09 15.97 11.234 22.979 16.898 8.9047 7.7703 38.445 13.277 54.607-.2637 22.654-1.3098 44.646 7.1489 61.307-2.3769 13.68-8.4578 32.564-12.255 40.34-2.6039 10.645-6.2533 15.877-6.1276 27.064-2.8421 7.1102-3.9153 29.477-17.106 21.451zm-1675.1-33.123c-6.275-11.68-5.6015-23.909-9.1915-35.307.57036-15.879 6.3104-29.187 12.255-42.383 7.7298-13.872 17.384-26.201 26.553-40.387 4.0142-9.3728 21.443-21.934 29.617-26.03 17.38-26.228 39.635-48.503 64.34-64.619 11.709-4.7326 29.046-8.8118 40.37-13.22 17.023-6.3623 30.719-17.567 44.744-26.553 6.2547-.57277 16.457-12.021 26.857-13.532 6.4383-7.6053 20.821-4.1794 27.944-14.809 13.75-2.6768 35.652-11.932 19.915 5.7065-19.321 23.617-42.304 43.207-59.745 66.761-6.1792 11.854-5.2988 32.042-20.426 42.791-3.7689 11.419-12.078 15.248-23.549 24.657-13.266 14.748-24.676 22.187-38.749 30.638-12.255 3.6666-28.063 17.029-35.674 30.638-9.0339 7.2206-15.845 18.198-28.618 27.574-13.854 6.014-30.069 7.9225-44.137 18.383-11.033 7.6826-23.236 16.506-27.255 31.66-1.4069-1.0004-6.9405 2.1259-5.2523-1.9696zm1520.7-8.7538c-6.7698-10.347-.5286-45.424 2.0426-37.277-3.5503-11.885-2.6185-24.008-10.286-34.723-5.0262-17.24-13.875-32.911-17.289-50.043-6.4417-7.3474-6.9477-22.459-2.0426-30.638-5.8696-10.588 6.2367-22.515 5.1064-35.745 5.6557-15.858 2.6832-39.107 3.3192-33.277-4.714-15.37 12.057-49.131 7.9149-39.234 5.9995-19.275.4461 5.7085 13.277-21.374 6.1125-7.0047 5.5081-31.453 16.34-20.498 4.9861 7.0478 12.723 45.742 6.6927 25.168 4.7411 12.069-.3179 33.914 9.0725 46.501 2.1243 12.997 18.252 15.975 19.994 33.352 5.627 10.685 13.336 31.695 8.9221 43.66 4.3419 16.837-1.6009 32.807-7.9149 45.932 10.772 9.6692 4.5268 34.236 1.0213 28.025-.3739 17.397-6.1259 35.79-17.362 45.996-6.7421 14.442-21.443 29.261-18.131 25.739-3.0419-3.305-20.242 15.527-20.678 8.4346zm20.426-290.55c-2.3383-4.428-2.5478 4.2267 0 0zm-1342.6 282.5c-.24494-30.55-3.8572-66.4 9.7994-86.155 5.4008-10.353 12.28-16.297 16.851-25.137 1.141-15.93 9.4975-30.161 15.83-41.503 8.3732-23.905 35.872-47.899 57.508-70.979 19.026-7.9424 15.388-16.075 26.237-20.395 12.789-16.333 24.129.95238 18.383 20.905-21.994-.40385-.20479 33.008-9.1915 43.373-3.9523 16.654-8.3118 32.9-9.1915 52.627-11.248 7.1248-2.2611 34.484-18.352 36.766-7.774 5.4336-8.6921 25.899-22.499 31.347-11.863 12.236-28.35 15.844-44.79 25.844-12.35 3.8008-25.217 14.644-28.742 28.742-2.0751 3.5729-9.1968 9.1989-11.842 4.5646zm231.42-11.349c-6.3056-10.886-6.8248-27.558-18.383-33.191-2.4346-12.185-17.228-15.851-25.464-27.574-13.133-11.777-17.723-28.083-20.494-47.386-5.9766-11.424-4.8292-48.951-1.7558-39.465 2.8776-16.78 4.6021-12.987 13.426-30.362 5.3367-8.7922 11.744-15.414 13.862-27.059 9.552-16.698 3.7264-41.548 11.234-55.389-8.0422-9.8704 12.938-17.249 11.234.51064 21.319 17.06-4.3938 15.457 17.872 27.574 6.8311 7.2465 25.954 30.384 21.958 22.468 12.37 5.3612 16.434 22.398 25.021 29.617 7.1001 11.679 18.267 36.385 13.787 29.617 1.3182-3.4754-4.2494 69.091-2.0426 35.741-9.3658 11.502-.27676 34.554-14.298 38.302-4.0285 11.93-6.1568 15.026-9.1915 26.522 1.2982 17.408-19.934 44.594-9.1915 46.499 5.4477 14.21-34.128 29.028-27.575 3.5746zm1372.6-46.468c-14.915-10.925-29.399-16.337-43.883-26.553-9.6388-4.8799-18.116-21.149-24.032-30.274-7.4314-13.017-8.2956-27.826-13.787-40.195-2.2161-13.321-16.239-27.337-26.553-38.809-7.6461-8.9934-21.8-21.159-31.66-29.71-6.918-11.17-16.194-18.338-23.489-31.898-9.4092-14.032-14.899-24.433-18.383-41.541 15.16 7.1504 20.994 14.714 33.992 28.306 14.107 17.005 28.671 22.423 45.127 26.843 16.596 2.7762 32.828 8.2261 43.435 14.298 14.435 7.5168 27.32 26.013 35.745 37.787 5.1368 10.924 17.501 25.905 23.489 39.319 3.6926 6.5638 15.979 18.533 7.149 19.693-5.5989 18.811-4.9894 34.614-3.0639 55.267-2.8138 6.1213 7.4432 21.414-4.0851 17.466zm-444.26-31.66c-12.736-12.468 4.2094-58.049 2.0426-48.766 10.197-5.2802 10.107-26.259 23.927-31.477 9.7053-11.196-4.7314-30.697 7.7325-36.32-1.277-16.967 10.618-24.202 19.444-38.671 9.4089-5.8675 15.689-18.08 26.835-26.553 10.434-10.034 23.927-16.328 34.402-21.447 6.1582-11.306 25.063-8.9411 11.234 5.1064-1.8658 15.766-5.9011 32.08-7.1489 48.48-3.9265 21.391-5.6036 43.58-7.9759 65.668-4.5265 14.149-15.452 13.467-18.734 28.32-7.0132-7.2592-8.945 15.475-19.078 15.83-12.777 12.343-24.932 5.3455-26.723 14.809-12.73 1.7383-13.959 14.977-28.596 14.809-.2136 3.8713-10.327 13.877-17.361 10.213zm-724.09-32.681c-13.924-3.7782-28.488-6.9167-45.957-7.1489-.97718-19.931-8.7422-14.754-20.426-31.559-13.285-11.514-27.061-19.86-40.34-23.59-12.274.70129-44.017-18.559-24-11.234-2.2344-9.6571-16.985-20.414-22.468-30.545-6.0347-11.01-11.758-43.726-16.34-34.816-13.913-6.5048-7.6604-25.59-16.34-37.933 12.555-7.6811 25.029 11.554 37.787 13.422 13.869 8.3769 22.164 12.041 37.787 16.34 23.024-.62747 36.989 7.4927 61.344 6.9138 14.351 7.0312 28.623 11.713 39.763 26.745 8.1513 2.5886 17.385 18.935 22.468 25.575 6.1526 5.3316 20.45 49.731 18.383 36.906-7.9888 13.248 10.806 9.0642 7.1489 26.893 2.8404 7.5377 25.921 17.806 13.818 25.052-17.053-.71626-37.302 1.381-52.627-1.0213zm1311-29.106c-9.0317-8.7863-21.487-9.528-34.359-12.766-15.337-8.7861-31.919.68845-49.73-5.0585-11.023-5.6621-23.697-4.7634-34.015-14.502-17.234-3.4415-27.352-15.042-39.265-30.489-12.372-10.493-18.442-27.51-33.246-33.695-17.135-13.622-40.839-20.202-57.192-32.396-17.784-2.1092-25.97-15.022-39.83-23.867-6.26-2.9342-18.201-17.231-1.7574-11.141 16.471 8.6423 38.108 8.1314 58.949 9.1915 17.36 9.6319 52.704 1.2794 76.89 4.0851 19.81-.24904 36.026 5.1513 52.919 12.255 13.883 7.7611 19.106 19.186 28.489 29.617 7.9175 8.2116 22.082 29.529 18.383 20.426 6.2792 14.015 29.46 28.668 23.96 24.511 18.256 8.7002 18.43 27.948 30.168 39.83-2.4152 6.3439 23.804 31.849-.3648 24zm-721.68-12.766c-13.654 2.1097-16.64-10.964-33.161-9.1915-8.8735 6.1615-17.12-15.276-21.222-6.8011 4.7463-13.791 15.77-25.642 23.602-34.05 15.067-7.2204 23.055-16.941 41.505-18.383 19.607-2.7662 36.28-5.7735 50.928-18.383 8.6484-4.3156 14.648-16.406 24.136-19.807 11.532-17.045 30.116-16.994 41.872-26.151 17.346-3.6203 35.138-7.5114 50.042-12.936 18.476.67948 23.879-10.656 43.915-10.849 11.598.78889-3.6965 18.529-6.1471 20.721-7.7604 15.829-30.608 17.441-37.356 35.479-8.2204 5.6781-11.329 21.197-16.752 27.92-7.0208 13.431-28.133 40.622-22.468 30.558-12.434.8382-12.557 16.229-24.283 14.298-2.421 11.104-36.933 23.936-28.823 17.362-20.588-.27336-39.113 2.3253-55.149 8.1702-13.171 2.0327-16.881 5.4985-30.638 2.0425zm-45.957-22.979c-1.1692-2.214-1.274 2.1134 0 0zm-1138.7 1.6479c-16.093-5.5174-30.645-13.32-53.014-10.329-13.611-12.354 28.327-26.559 21.354-23.489 15.123-9.8711 31.737-20.721 37.787-38.809 8.7892-4.987 16.269-17.721 27.832-22.468 11.03-7.8618 27.404-5.5293 38.551-14.298 25.281-.22687 52.798 1.7824 72.438-4.0851 20.295-1.3278 31.933-13.444 54.633-10.373 10.9 2.0623 67.414-3.9195 43.984 9.7036-13.526 4.6668-28.431 10.346-40.298 19.052-16.179 6.5234-32.429 15.028-48.42 29.617-9.6001 17.148-28.052 21.295-42.505 26.461-15.142 7.6009-33.047 9.5326-51.064 11.442-19.042 4.784-35.315 19.45-53.106 27.569 2.0942 1.598-10.259 1.5831-8.1702.005zm634.21-60.371c-15.083-.61957-25.918-8.4615-38.855-17.362-10.119-13.476-26.393-16.626-38.762-22.468-19.038.30913-34.395-10.191-51.331-7.9149-10.78-5.4199-43.925-24.288-35.477-17.617-6.2601-9.3893-26.756-7.4851-28.596-22.468 24.799.76714 52.212 8.1095 75.574 1.0213 12.533.67998 23.871-10.594 34.723-6.1277 15.565-7.652 16.19-.47333 28.054-6.1277 19.62 1.2798 37.999 5.3506 52.627 15.319 18.317 7.5946 31.054 28.059 40.851 41.872 10.508 1.7694 22.364 9.2622 26.282 22.468 13.492 5.7112-16.233 14.187-15.048 13.277-14.59 3.7171-32.528 8.4838-50.043 6.1277zm471.83-13.277c-13.7-5.8111-32.75-8.6888-42.383-15.319-12.248-4.9195-16.768-.67199-26.042-12.109-3.1932-12.062-17.901-6.5707-23.489-15.465-16.596 2.7836-31.878-18.03-44.426-13.277.024-9.3261 18.578-8.1296 29.106-14.298 12.214-3.4661 28.287-13.736 42.237-18.894 16.405-9.1244 38.973-11.635 60.912-12.766 14.358 1.5368 27.298 7.4177 41.927 5.1064 13.961 4.1206 35.388 5.4298 50.499 11.234 17.624 2.9081 47.971 5.1334 63.794-2.4187 20.92-2.2476 37.505-12.287 59.27-11.879 14.406-6.127 28.008 5.6294 46.247 2.0426 12.273 16.533-36.769 23.354-24.884 19.404-12.828 1.7043-13.598 4.4102-22.385 13.277-11.886 9.8637-18.631 4.2506-26.507 15.319-9.0716 2.2544-17.643 13.022-28.556 21.447-9.8766 6.2176-18.145 8.2862-29.617 18.383-21.41 2.0394-39.219 7.0326-63.151 7.9149-16.406-.74026-41.752 4.7099-62.552 2.2979zm-50.042-11.745c7.2962.74981 1.8591-.32452 0 0zm-18.383-8.1702c4.8079-10.657 9.8707 11.492 0 0zm845.62-33.035c-14.517-16.065-44.521-6.0105-62.778-12.412-16.475-2.0151-27.369-9.3679-43.435-9.1915-15.069 7.283-39.813 5.7945-59.203 7.1489-24.186 1.8703-44.086-10.159-61.578-16.34-10.91-12.494-38.798.0953-43.644-13.139 13.841-7.0449 27.75-10.498 45.957-13.414 9.9443-6.8622 34.337-.83469 40.851-14.066 19.106-.5074 24.689-26.587 47.877-18.615 24.732-3.6228 35.693 8.4891 57.315 10.283 18.117 1.9877 35.71 3.0106 47.931 17.292 11.059 11.119 32.739 25.907 38.111 41.399 9.2106 9.6377 12.465 27.623-7.4043 21.055zm-1862.8-4.2414c-28.885 5.0476-13.364-19.185 2.9179-24.511 15.889-3.5868 25.093-25.4 40.997-35.177 3.6936-9.1342 21.931-18.237 34.352-19.972 16.281-3.6994 36.089-6.2138 50.414 1.8072 18.148.61466 29.249 15.159 47.193 11.339 19.037-4.4333 39.102-.50953 52.893 7.7904 13.954 5.3688 16.169 6.7565 1.2923 15.83-16.935 3.4641-28.657 11.185-44.186 15.319-8.8392 6.1548-23.675 8.0101-34.869 15.319-24.384 3.6009-48.256 4.5339-74.26 2.0426-14.557-5.2482-36.214-3.9196-45.229 7.1489-10.012 1.0095-19.934 7.0207-31.514 3.0638zm681.41-11.784c-12.457-3.6398-24.904-11.966-35.96-17.906-10.639-10.661-23.406-15.476-40.851-16.267-20.756-4.5443-50.074-4.1264-69.732 1.0213-17.157 7.3585-38.418 3.4982-53.757 0-7.4569-3.4126-34.305-16.714-34.809-7.1489 11.713-3.5004 22.237-11.815 36.766-11.234 10.946-2.0571 41.683-13.624 32.681-10.213 13.719-4.4212 20.587-9.6155 33.95-17.362 11.543-6.8415 17.75-19.956 36.518-18.383 17.364-9.7196 49.175-4.9921 75.124-6.1277 14.061 9.2656 34.374 7.8314 47.94 17.805 11.066 2.7705 23.806 16.457 35.234 23.046 9.5789 11.515 24.014 22.763 37.345 31.149 22.788 11.825 15.947 31.293-8.7616 21.726-25.974-.92584-49.304 1.0732-69.945 6.3589-4.7857 1.9507-17.819 4.32-21.742 3.5356zm515.74-36.766c-13.002-6.5395-28.207-4.5947-41.066-11.817-17.546-.69322-34.933-6.8279-48-13.166-10.187-4.6774-19.772-8.2253-29.106-14.717-12.081-6.16-23.187-15.443-33.057-21.027-3.8734-12.009-11.534-5.4096-21.581-16.195 7.771-17.196 37.324-1.2866 40.851-18.529 13.116-2.1285 18.1-12.388 37.562-8.1702 19.087-1.2556 26.947 3.933 40.055 6.1277 6.4061 5.8845 17.184 9.3467 23.627 20.426 18.628 2.5784 37.015 25.736 31.522 17.362 26.088 4.6041 7.8653 6.9876 33.702 8.1702 15.188 5.4984 41.973-.0736 56.17 1.0213 14.343 3.3877 27.088 5.4847 40.851 11.273 16.31 1.7952 19.481 13.965 2.5841 15.28-20.776-.39638-34.907-2.4734-50.839 4.4603-19.17 1.5031-28.831 19.732-48.62 18.008-7.6899 5.6484-25.852 3.33-34.654 1.4931zm-929.07-29.604c-12.82-5.7742-20.795-8.7158-32.101-12.74-15.759-10.084-31.889-2.0011-50.439-2.0425-28.693 3.6261-49.497-3.6827-66.926-22.931-9.166-6.6876-26.257-22.967-33.853-32.218 10.814-22.118 51.013-9.8028 74.553-16.34 27.019-4.8112 61.863-4.0017 74.691 25.532 14.492 3.1016 26.172 23.124 31.522 33.702 2.2341 8.9316-5.3207 32.934 5.617 30.494l-3.0283-3.4158zm1292.7 2.0728c-2.3193-10.335 18.895-11.655 25.25-16.855 12.313-12.803 18.63-18.234 28.62-32.169 10.022-13.245 20.208-29.833 35.993-37.277 15.113-13.25 43.67-16.518 65.116-11.498 22.069-6.9505 24.058 21.21 40.851 21.2 19.987-9.821-6.8993 25.726 0 17.872-13.224 1.1092-15.978 20.644-27.124 21.447-12.197 14.221-39.646 4.5361-50.42 15.319-11.194 8.0344-26.56 11.401-36.839 17.362-24.808 2.5126-57.4 4.4044-81.447 4.6zm-1100.2-27.068c-22.804-.49277 22.45-23.459 18.383-17.674 13.675-6.9862 30.918-13.176 43.262-25.219 13.871-15.421 28.984-27.715 43.615-40.851 8.1418-6.7851 21.561-14.141 34.655-16.34 14.248-5.7447 29.773-18.001 45.362-29.617 7.8142-9.3677 24.009-17.094 35.899-20.426 21.386-4.3628 57.059-8.1485 79.08-1.0213 16.089 6.7847 35.691 9.0611 53.377 10.213 9.4907 10.742 24.72 11.324 33.431 22.468 10.714 4.7586 25.256 6.5937 25.644 21.447-20.978 6.4219-44.563 10.096-71.663 8.6735-16.677-.0314-25.094 9.7175-35.614 22.986-14.99 5.7101-31.831 19.69-47.048 21.447-17.773 6.6411-44.483 7.4121-64.279 4.0851-17.964.54087-25.143 1.1115-42.955 3.0638-14.106 5.7226-31.619 6.5385-45.409 16.085-13.42 5.8734-28.353 11.603-41.399 16.374-14.532 5.6237-27.329 4.3243-41.872 3.2853-13.824-3.0979-13.532.48365-22.468 1.0213zm1066.5-2.5489c-1.3765-14.624 9.6047-34.659 2.8085-49.536-1.1732-18.478 1.3458-33.264 7.149-44.766-6.907-5.4326 40.615-38.703 22.81-25.702 13.008-3.3583 22.16-7.0971 34.381-12.294 8.862-10.849 22.619-19.392 20.426-18.344 9.3263 2.415 21.942 38.738 18.383 28.311 5.3115 15.793-3.3305 27.144-7.6596 39.094-4.5026 12.652-16.813 30.151-26.203 36.766-15.699 13.84-28.116 21.081-41.712 28.596-9.3632 3.5121-20.312 13.186-29.106 19.327zm-1208.4-2.5574c-19.806-9.1888-36.4-26.206-55.217-44.936-16.175-11.305-11.098-38.14-9.1234-57.197 15.246-15.99 28.849-26.081 24.511-49.724 9.0391-8.8799 23.699 3.8012 21.447 15.997 8.0172 9.6806 14.675 27.884 27.574 38.932 5.7269 12.815 6.6275 30.457 8.1702 47.456-7.7023 13.949-.0685 25.067-9.1915 39.332-3.4053 1.6219-2.9977 15.051-8.1702 10.14zm1030.5-2.0426c-14.844-4.1444-32.793-10.714-52.085-10.213-11.296-1.5975-40.343.77047-53.532-.76596-13.864.19158-31-6.6747-44.681-8.4255-11.85-12.334-20.969-11.936-32.179-22.468-19.355-10.652-34.155-27.498-47.874-39.319-14.347-13.975-33.418-9.3642-45.904-18.316-11.6-6.205-19.271-12.465-26.971-23.046-8.5554-3.3352-28.426-17.858-15.412-27.574 11.642-1.9 29.972-11.646 40.851-3.0638 11.378 4.7529 26.331 8.1247 35.733-3.3625 22.767-4.7421 49.484-8.3389 72.186.29868 14.683 8.1928 31.288 8.4309 42.025 20.181 9.2193 6.162 19.038 16.312 26.738 22.713 12.064 8.4272 22.739 24.901 26.553 34.723 7.6828 10.098 17.156 19.878 25.532 24.511 11.17 5.4364 23.428 18.413 36.03 23.489 10.738 8.4362 28.515 21.592 28.396 31.66-1.351-4.0033-10.48 3.4553-15.404-1.0213zm-182.81-156.77c-1.1692-2.214-1.274 2.1134 0 0zm303.57 145.03c-4.6224-21.154-14.042-32.085-26.58-50.996-14.901-11.736-22.198-27.94-29.845-40.413-4.9403-16.568 3.9474-35.137 6.1277-48.875 10.752-14.993-7.4235-23.805-4.0851-38.954 17.588-4.2472 25.51 19.458 40.919 18.383 12.398 11.313 23.1 19.035 32.362 34.213 10.274 10.723 18.524 29.271 10.463 41.362-3.1313 20.158-1.9022 48.717-12.108 61.277-3.0872 9.788-3.5868 29.219-17.253 24.004zm-1048.1-3.8517c13.36-14.714 15.724-27.549 22.468-43.642 4.7944-12.742 11.768-22.02 18.383-34.723 9.7713-15.451 20.592-27.084 33.702-38.116 11.712-16.282 30.353-21.826 41.872-29.288 14.873-3.9181 34.581-8.0757 53.106-8.1702 24.354-1.5726 46.111-10.281 74.553-8.1702 4.4776 19.564-16.179 13.333-22.468 23.489-11.454 4.0716-14.676 22.688-25.532 24.491-13.958 12.65-30.306 14.873-45.447 23.509-11.524 4.7847-25.264 18.616-38.298 28.025-10.078 17.607-25.498 29.376-43.477 36.315-9.3309 4.0897-19.887 7.0786-30.565 11.234-13.357-.42894-21.315 18.689-22.791 15.867-4.0914-1.1044-13.441 2.1341-15.507-.8205zm991.66-6.7652c-11.526-5.1016-19.984-16.727-31.66-22.579-6.665-7.2494-19.973-10.165-25.996-17.362-14.098-7.532-24.309-12.645-38.428-19.569-3.9935-13.137-21.493-11.562-22.519-26.389 2.1458-13.425-23.393-24.145-14.163-38.809 6.5897-16.85-31.552-21.949-16.34-34.723 13.203-3.4928 35.447 1.2409 52.085 1.0213 11.344 5.3153 26.857 9.3583 39.83 12.255 18.572 9.0006 24.404 20.957 24.977 27.064 5.0368 14.475 7.6947 29.416 14.853 41.362 3.4004 10.115 15.749 24.541 10.213 34.723 8.477 10.101 10.151 27.262 14.655 40.041 5.2992 3.1234-8.0645 5.8535-7.5063 2.9631zm-78.638-149.22c-2.3384-4.428-2.5479 4.2267 0 0zm-968.17 141.53c-.53111-20.191-13.292-43.162-3.1804-62.858-3.54-24.798 7.2572-40.811 25.459-55.184 14.824-12.542 26.388-19.649 44.761-26.043 15.241-5.3198 30.186-6.5742 44.759-12.766 22.694.70695-16.154 40.453-8.1228 33.447-15.818 11.957-26.638 27.642-30.144 42.565-9.286 22.065-14.069 45.1-37.714 63.903-12.143 4.8085-21.207 19.748-35.818 22.468v-4.5649z" style="fill:#d02429"/>
</svg>
