<?xml version="1.0" encoding="UTF-8"?>
<!-- Created with Inkscape (http://www.inkscape.org/) -->
<svg version="1.1" viewBox="0 0 717.96 819.06" xmlns="http://www.w3.org/2000/svg">
 <path d="m367.48 818.61c-6.6216-3.8356-2.191-22.426-6.3651-31.786-1.9505-11.7-13.678-19.469-16.638-29.985 5.3432-16.559-4.8609-32.356-18.184-41.847 13.03-8.6883 24.466-24.305 18.217-39.993-4.2216-.15633 3.5606 21.732-10.709 23.601-12.14 10.305-32.273-1.0278-28.633-16.899-.91257-10.596 12.314-13.939 18.5-16.744 9.976-10.965-9.8625-20.673-4.0679-28.548 15.65-12.751-10.362-10.33-18.963-12.149-19.055-5.2116-40.888-4.862-56.562-19.083-16.541-8.7108-16.133-32.417-3.066-43.987 6.3588-11.976 13.583-24.35 17.633-37.952-3.1577-7.5298-9.6155-22.664 1.9961-29.391-1.047-22.01 2.3553-43.908 3.288-65.665-3.934-11.721.6423-22.274 4.4428-32.751 3.1096-12.924 11.492-28.019-.061-39.819-11.14-10.323 1.763-15.398 9.6302-24.012 8.5886-8.1724 7.918-15.833-3.7781-15.008-13.265-5.5609-3.5882-21.371-6.3945-27.662-15.508 4.4048-18.769 22.728-19.29 37.478-3.3946 11.677 15.195 24.052 3.5252 30.753-12.043 8.8534-16.535 26.837-9.9629 39.602-12.001 6.794-15.933 24.175-7.1006 34.974-4.5328 7.6591-12.558 15.082-14.646 25.88-.21419 8.8942-2.4028 31.826-9.0263 13.801-8.2329-19.039-24.172-34.123-40.013-46.687-.895-11.127 9.4116-23.105 2.3604-34.472 2.3065-10.644-16.238-20.272-2.1116-27.68 10.728-8.4197 15.212-21.824 17.398-33.902-3.1702-11.496-6.3305-21.121 9.9425-15.989 15.196-1.4184 32.797-6.7093 38.09-22.332 10.468-13.828-7.9384 9.7551-13.521-1.8884-12.722-8.6715-29.697-3.5677-42.23.55054-11.573-15.642-24.988-30.34-42.413-37.936 6.7251-5.2015 19.863-3.5506 28.836-8.1513 13.158-4.1307 24.355-12.283 33.377-22.586 15.351 3.391 31.649 9.4602 46.079.60647 11.955-12.148 17.237 1.7159 30.486 1.6778 14.486 4.053 6.3111-20.329-2.1978-6.768-8.1201 6.1914-17.094-10.153-27.574-8.0464-10.408-.32174-20.526.42992-27.597-8.3608-17.639-12.749-35.185 5.2784-52.692 8.8307-22.273 5.5807-47.134 8.3469-67.525-4.8252-28.451-16.211-49.121-42.575-57.582-74.271-1.1487-19.359-.36911-39.995 14.024-54.81 7.0928-9.1277 20.998-17.739 7.6432-28.544-10.85 8.7382-16.038 22.648-14.519 36.375-10.824 1.2044-23.148 1.1311-28.051-9.806-2.6899-11.897-7.3933-17.781-17.584-25.366-6.65-8.1935-5.1774-26.056 6.3162-28.658 4.0135-8.5945 16.394-17.333 27.748-14.794 18.888-.95241 35.92 8.7096 52.098 16.919 9.9335 6.8629 23.163 9.4794 33.493 1.9599 23.374-6.6331 48.366-11.448 72.944-13.373 25.782 1.6367 50.679 6.1211 74.652 15.011 14.816 2.2598 26.102 12.047 41.282 12.66 5.8569-7.218 7.3819-15.773 14.815-19.998 9.4546-9.4077 24.366-6.2473 35.215-3.8168 13.649-5.3198 30.313 3.2758 28.571 19.219-1.0052 14.691 12.986 14.475 21.981 7.6596 16.386-9.613 33.957-22.134 51.84-27.988 22.399-8.2344 45.849-10.701 70.433-9.7995 18.168-1.4847 36.043 3.6077 53.404 6.0644 13.579 3.9029 27.159 8.8948 39.682 13.346 16.58-7.3331 36.12-15.266 51.798-20.579 7.7714-3.4946 21.21 2.9185 27.415 5.2538 9.6907 9.186 13.342 22.229 6.1901 34.213-9.1276 6.4138-11.641 10.946-16.427 20.346-7.0719 6.501-22.747 3.5169-15.326 17.612 8.0606 19.628-2.4454 38.237-13.497 53.957-5.4302 10.329-5.8652 21.527-3.905 32.451-1.7902 9.2186-6.6155 20.377-13.68 24.229-4.631 21.184-16.161 44.256-34.026 55.032-14.151 13.056-33.681 20.306-53.073 18.499-21.724-3.7799-39.119-21.296-62.15-19.311-12.498-3.8932-19.537 19.824-29.966 8.4328-8.482-10.352-24.856-1.2408-32.189-9.748-12.969-17.545-11.863-1.0042.51374 6.6878 11.621 13.135 29.566 18.414 45.774 22.278 3.3962-17.303 30.114-18.993 35.757-2.2013 3.8112 9.5453-1.7961 19.611-9.553 22.321-14.966-3.067-21.629 1.9833-3.9415 6.2756 6.8076 7.2638 26.041-1.5878 25.021 12.028 4.8362 13.103 14.291 24.414 25.447 31.346-2.9071 15.154 4.5644 31.071 14.337 42.354-5.8843 6.0435-11.311 15.221-17.487 24.245-5.1417 13.419-12.283 27.889-10.681 43.233-7.2339 2.928-5.7449-13.621-12.382-17.695-4.7564-8.6786-13.293-18.273-22.397-22.711.46173-13.018-5.83-28.785-20.241-30.773-5.3627-13.115-.12017-30.493-12.363-41.394-13.54-13.232 2.5639 12.697 3.7514 18.68-9.0753 11.8-19.936 27.807-12.661 43.844 6.5435 11.482 13.855 24.518 8.3246 38.192 2.3652 19.738 6.3657 38.406 7.4362 58.298 11.04 6.4741 9.0022 20.949 7.5385 31.385 4.791 9.2339 4.1556 23.241 13.293 28.327 14.89 9.0922 15.238 30.231 2.5455 40.811-9.8374 12.594-27.755 14.714-42.555 20.235-8.8582 5.7206-27.876-.11121-28.356 12.039-4.1465 15.394 3.5763 32.047 19.855 35.403-3.932 10.303-16.922 16.786-19.365 29.209-6.7673 6.1845-3.8096 25.034-12.51 19.868-5.9141-12.528-16.275-27.743-31.955-28.389 2.873-9.0644-23.874-.85766-8.4553 1.8569 17.891-1.524 14.711 7.462 9.7552 19.913-3.8293 14.107 12.97 21.136 14.53 32.326-8.6362 8.7342-5.8214 21.49-3.8538 32.384-10.166 12.859-13.272 31.798-29.338 40.15-2.5766 2.1055-4.0019 6.3347-7.8343 6.2434zm3.3844-8.7386c13.707-8.3082 18.506-25.302 27.724-37.88-8.462-12.091 1.8936-25.389.32927-36.215-10.123-9.9697-14.211-25.238-11.502-38.495-7.6714 1.4399-22.992-21.925-18.989-6.3886 4.2588 23.981 21.005 45.264 15.591 70.875-.43322 22.553-6.6426 6.1566-5.7635-6.5809-5.0419-21.234-18.099-39.462-24.931-59.92-1.3976 8.7856-19.007 16.548-11.456 25.29 12.341 10.199 6.2186 28.078 12.304 40.153 12.405 13.622 13.915 32.186 16.693 49.162zm9.7199-61.611c1.0646-25.029-19.547-44.308-23.214-68.602-10.913-17.069 14.044-10.198 9.8056-21.931-11.921-.8283-10.573-11.706-14.841-16.367-6.0409-9.4928-1.2916 18.15-11.832 16.273-5.6612 3.7978-22.506 17.159-9.0828 19.471 7.4858-6.0799 18.626-20.353 18.235-1.2565 6.5039 24.535 19.148 45.173 29.233 68.313-.22862 1.2333-.11224 4.8452 1.6956 4.0989zm45.565-49.709c6.1782-8.4346 11.413-20.011 17.403-29.807-11.376-7.6707-20.24-24.69-13.655-37.229-1.1441-9.9086-26.415-7.8953-17.665 1.3656 9.7091 15.979 15.845 33.96 18.742 51.253-8.7784-2.0373-10.382-19.367-17.074-26.641-7.2244-9.68-12.842-19.52-20.713-28.877-.93813 8.9762-14.53 19.047-.23528 27.587 8.4973 9.9838 2.22 25.574 17.529 29.218 5.448 3.9976 11.789 9.0473 15.669 13.132zm-101.39-3.6848c10.565 1.9525 15.468-18.174 3.0374-14.439-4.9872-8.6669-10.757-9.8817-17.335-.46095-2.3837 9.6302 4.5336 16.618 14.298 14.9zm56.288-17.827c12.957-.8972 9.0844-17.922-.85113-21.396-13.612-14.576-1.6541 5.1711-8.5859 11.621-5.0323 3.054 5.4457 11.3 9.437 9.7755zm-57.309-5.0416c4.5166-.9513-4.2971-1.0327 0 0zm98.553-7.1489c2.214-1.1692-2.1134-1.2739 0 0zm-1.5772-3.0638c-.81615-9.8282-9.9579-24.053-16.228-32.645-13.716-4.209 3.1997 11.883 5.8275 17.041 3.4341 4.8845 8.463 11.479 10.4 15.604zm-85.127-8.1702c11.057-2.1144 6.3478-18.192 12.079-23.605-9.061-4.3798-23.551.66942-18.937 13.071 2.3336 3.4005 4.2834 7.5771 6.8582 10.534zm29.944-5.1064c14.485-.46013 14.253-17.069-.029-10.659-6.6355 1.0388-3.6614 8.7157.029 10.659zm-3.5663-17.362c3.5833-2.7024 30.652-1.0583 18.189-5.8898-5.1203-1.752-34.474 2.4631-18.189 5.8898zm37.989-8.7532c18.937-3.6399 39.774-2.8164 58.731-9.5614 18.156-4.9013 42.306-9.628 49.904-29.62 4.6403-18.343-15.176-25.223-29.104-29.414-21.801-8.9966-44.357-13.625-67.379-16.447-23.918-3.9324-49.278-.58007-73.754-1.6942-22.12 6.9885-46.125 9.5066-68.036 17.872-13.294 4.9493-28.659 13.386-33.922 26.657.80082 18.511 21.931 28.754 37.014 32.698 15.974 2.1356 32.908 7.7099 49.954 8.0425 9.7015.28211 28.072 4.6479 16.863-9.5156-7.3272-13.023 2.3545-27.548 14.133-34.403 10.715-11.906-6.9889-18.837-17.647-15.907-18.319-1.7911-43.052-.70637-52.376 17.288-3.4131 12.405 2.9892 25.393 16.803 24.913 13.94-1.298 29.843 8.8074 7.0096 5.0892-13.094-3.9791-28.303-3.0211-40.656-8.9061-8.7619-7.9413-23.563-5.1393-21.378-11.285 10.148-22.109 36.813-29.698 58.914-33.699 35.652-11.18 73.753-10.467 111.08-6.9758 8.1874 1.7784 18.924 3.5448 28.097 5.4734 15.987 4.3551 33.548 8.1575 46.975 17.357 14.034 10.648-3.1624 25.955-15.779 26.512-21.377 7.0507-44.702 11.724-66.383 13.852-8.7452-4.1179-27.866 15.54-9.0604 11.673zm-33.679-1.4596c14.923 2.7417 27.285-10.347 24.845-25.021-8.3939-8.6634-19.186-16.368-15.297-29.943-11.567-11.944-10.19 8.394-15.842 14.573-13.362 7.5589-19.127 29.768-3.1028 37.727 2.8445 2.8064 5.584 3.0345 9.3966 2.6644zm.11502-3.1516c-13.526-1.5973-21.16-19.124-9.8064-28.143 7.1175-9.9188 22.626-3.9185 7.2839 2.2728-6.5061 8.7847-1.163 27.991 10.586 19.142 2.1498 4.6677-5.5545 4.8013-8.0636 6.7282zm41.858-10.621c18.008-2.5705 44.408-1.866 50.799-22.62 3.1878-17.219-18.914-18.173-29.751-22.923-14.139-1.874-29.746-2.7099-41.217 7.5471-.0694 11.167 16.196 17.276 12.778 30.322.39434 7.6843-1.9226 9.7589 7.3919 7.6747zm-153.43-53.632c9.3549-4.2828 21.408-7.2629 21.516-18.894 5.9766-11.221 2.2764-23.232-9.9525-11.494-4.3899 8.3119-10.878 21.373-11.563 30.388zm235.59-3.1709c1.8316-6.8844-6.3517-18.786-9.214-27.273-19.666-10.902-38.792-19.115-60.938-21.888-11.844-6.2438-28.833-2.4228-39.76-7.1312-14.684.29248-29.576.564-43.049 3.3012-16.602.408-32.209 6.7657-47.404 10.204 6.074 3.4298 20.111-4.4757 29.656-3.8096 2.5328 6.684-20.42 7.2632-26.937 13.725-5.3534 6.9342 16.547-1.1734 22.659-1.3786 23.072-2.5283 3.2523 4.6048-7.8268 6.3751-13.146 3.855-14.382 10.365-1.2106 5.2731 5.3829-1.218 30.546-5.7677 20.522-.78127-13.811 2.9523-21.83 9.5796-2.6601 6.958 9.0941-4.5862 19.398-4.4658 31.037-4.5022 25.317-1.102 52.004-.66939 75.988 3.6718 20.54 2.6839 39.885 10.144 59.138 17.255zm-33.131-16.342c-18.156-1.5948-10.974-10.469 2.5582-1.2082 2.6733 1.6967-1.256 1.3539-2.5582 1.2082zm2.5532-6.1375c-16.996-2.7906-15.96-10.889.76596-2.918-.66219.49801 1.1693 3.905-.76596 2.918zm-117.54-3.557c-9.1761-1.0385 5.0652-10.219 0 0zm117-2.4522c-10.469-2.0571-22.549-13.152-5.3336-5.3337 3.526-.066 10.415 2.4901 5.3336 5.3337zm-119.97-5.2907c-1.0748-5.321-1.1887-1.0246 0 0zm-1.727-11.05c-8.6572-3.4614 6.8768-8.0641 0 0zm143.94 9.7294c4.1738-11.181-13.302-15.182-21.498-19.181-22.605-6.8665-43.007-13.754-66.332-15.182-17.52-3.6835-36.629-.014-54.589 1.1947-25.106 2.8543-49.529 10.562-72.049 20.154-12.39 13.828 7.0967 6.2731 14.382 2.0417 17.937-4.2061 34.967-11.954 54.044-12.261 15.788-4.3903 33.719-3.5833 50.433-3.8576 5.8267 1.8917 20.277 2.1465 30.779 4.9684 22.538 5.2356 44.364 12.249 64.831 22.123zm-6.2757-16.95c3.2961-7.5877-2.9146-23.5-2.8076-34.394-1.6081-10.579-3.255-20.935-7.2629-31.114-19.939-22.988-51.314-27.214-79.654-30.614-13.997-4.5085-30.39-2.5014-45.153-2.3869-13.395 2.0365-26.621 4.2311-39.103 9.0538 1.9887 10.746 15.238-2.2392 23.286-.57726 20.958-2.9009 5.7872 4.1648-6.4354 5.1486-5.6082 1.4401-27.462 13.894-15.878 13.783 10.781-4.3047 20.716-10.058 32.9-9.5078-8.6729 9.65-30.067 5.4324-36.742 17.69 2.1632 10.413 16.548-2.5265 23.539-3.9398 15.765.0424-9.6716 6.6834-14.882 10.334-17.138 6.0464-2.4311 13.463 6.8138 3.231 10.418-7.4126 27.433-4.3191 6.8868 1.2215-7.4185 4.1876-22.641 6.8841-23.076 15.791 9.0627 3.4499 22.399-11.033 27.078-3.9741-9.4263 4.2612-21.656 6.5594-28.303 13.122 8.9934 8.711 22.409-6.4609 32.558-3.4306-9.1689 7.4363-24.472 8.7073-34.893 16.501-14.584 9.9289-7.1695-14.391-8.5659-22.347 1.1473-16.396 3.2814-33.162 5.502-49.183-11.397-.7081-21.296 7.9198-18.606 21.068-.39668 16.549-3.199 32.694-3.1618 50.058-6.2081 17.769 10.448 10.104 19.66 5.8551 38.154-11.628 78.059-16.387 118.02-11.517 16.162 3.6477 34.494 8.3889 50.776 14.075 5.8484.92613 11.133 6.0198 17.502 6.0555zm-21.554-16.408c-14.334.18688-11.08-9.2289.39207-1.9432 5.1779-1.4798 4.519 3.7853-.39207 1.9432zm-.76596-11.546c-19.627-.36187-6.2935-11.12 1.0213-.23026zm-115.74-3.6345c-9.8312-2.5977 8.802-6.7327 0 0zm115.4-5.1064c-11.115-.1109-20.658-11.654-3.6162-4.4918 1.9267.40305 9.4202 4.0993 3.6162 4.4918zm-115-6.1277c-8.6572-3.4614 6.8768-8.0641 0 0zm111.26-5.5742c-21.015.0159-3.0871-11.866 1.0213-.21209zm-109.62-7.7024c-11.256-3.3883 8.4748-4.3708 0 0zm108.85-2.1652c-15.509-.37141-9.6797-8.5173 1.3499-2.1606 1.9818-.64636 1.1561 5.0633-1.3499 2.1606zm-108.77-8.2318c-1.0748-5.3211-1.1888-1.0245 0 0zm108.32-1.9927c-21.795-2.2075 2.3291-6.4655.69172.0324zm-106.02-10.078c-6.9632-4.4622 6.6747-5.6277 0 0zm3.6995-10.213c-9.0207-4.0364 5.534-7.8194 0 0zm-132.44 48.686c1.2361-9.8885 9.7416-19.55 11.216-27.402-2.9406-9.0114-3.4194-17.86.83382-25.895 11.649-8.843 5.9304-20.946 8.5182-32.601 1.5835-11.978 17.996-20.192 8.684-32.745-1.0631-11.472-2.1402-18.794-.0896-29.951-11.83 9.0464-18.842 26.54-26.433 40.582-5.0608 23.112-12.354 48.904-8.4229 71.582 4.0536 6.5792 2.7557 28.537-3.5741 11.167-6.9834-24.371-6.3129-52.145-.35029-77.039 2.7727-14.878 10.786-27.051 16.538-40.619-8.895 2.5124-18.546 2.9271-25.44 6.0304 3.5079 12.57-4.2073 28.833-12.252 39.874-14.348 8.1218 1.0868 19.556-.66897 31.602 5.7078 11.702-7.9463 26.727 4.4403 34.353 10.449 9.2313 19.724 18.952 26.036 31.37zm327.24-32.567c4.6741-15.605 14.727-27.781 22.951-41.658-8.5329-9.9403-10.96-24.056-13.38-36.325-2.2146-12.178-18.316-17.128-20.795-30.125-.4173-11.985-14.064-9.3474-22.375-12.428 13.094 20.49 24.714 42.647 31.246 66.119 6.3404 9.3925 2.0335 28.741-3.2799 9.221-5.2397-10.533-8.1049-18.127-14.097-28.625-10.498-17.04-20.552-34.006-34.775-48 2.938 11.924-11.532 23.078.5054 31.854 6.8497 11.015 10.758 23.302 10.729 36.336 14.895 5.57 20.602 23.678 22.731 35.469 7.3726 3.809 16.395 15.482 20.539 18.161zm-77.427-3.8632c8.6562-9.8412-13.968-17.709-22.014-22.18-13.068-7.8385-27.909-9.5979-42.479-13.329-28.819-6.3568-59.063-5.479-86.907 3.0734-14.611 5.7587-32.081 7.564-42.862 20.108 5.4617 12.813 21.236-6.1637 31.633-4.8403 22.717-6.6917 46.222-8.9623 69.947-7.7933 19.874.007 39.486 5.6196 57.902 10.202 12.481 3.165 24.543 8.8461 34.78 14.759zm-1.8314-16.276c-.40224-24.34-10.759-49.357-26.31-67.942-10.581-12.484-25.407-17.546-40.619-23.529-.8656-9.5368-8.5475-24.07-16.048-24.964-4.285 9.4544 12.034 21.544-8.8116 19.349-12.433 3.3367-23.202-3.5597-16.719-13.768-12.018-4.0986-3.0386 20.247-17.836 18.404-17.117 8.3316-32.121 24.035-40.348 39.56-8.1027 10.85-12.005 23.05-16.069 35.76-7.83 14.887 14.573 5.755 13.178-2.9546 2.9137-22.873 16.555-43.844 32.175-59.169 7.9708-7.1538 18.795-13.298 26.581-8.0737 11.244 2.8301-15.178 3.8688-17.102 8.0159 8.3281 2.5158 16.993 1.9431 1.5319 8.5818-17.022 1.1965-12.496 10.036 2.7811 4.2058 6.416 3.9649-16.993 5.1102-21.895 8.8702-9.734 10.205 18.493-.91496 20.135 4.9926-5.7092 6.0147-26.695.5993-30.128 12.216 2.0835 10.191 20.109-7.7897 22.468.62474-4.6719 5.1397-23.225 2.7145-23.489 13.202 6.5127 1.9145 30.329-7.1655 24.388.0507-5.4595.93007-29.501 4.3211-19.69 8.1201 10.429-3.7384 23.272-7.0241 34.014-7.4206 11.869-2.9861 22.177 1.4882 34.857.0378 28.915 2.2295 57.885 11.28 82.176 26.532zm-19.927-17.491c-21.767-3.3314 12.878-4.1716 0 0zm1.1165-8.3182c-16.368-.17371-4.2338-9.7901 1.692-.32585zm-98.478-5.9149c1.2845-4.8676.18083-1.8555 0 0zm87.174-6.1277c-20.478-4.23 12.733-4.2576 0 0zm-84.876-2.0426c-8.3455-1.9609 7.5816-7.5711 0 0zm85.553-7.5929c-18.126.53951-2.0284-8.4888.95745-.19433zm-83.876-2.6355c-10.233-7.2259 13.816-3.8427 0 0zm77.399-5.0907c-22.665-5.5803 18.35-4.647 0 0zm1.1786-8.3419c-19.333.13101-13.418-7.0767 1.7872-1.7503-.22234.99444.84543 3.4088-1.7872 1.7503zm-73.351-.84959c-9.7684-2.9536 10.358-7.411 0 0zm56.153-7.7343c-25.538-1.056 21.25-9.1862 0 0zm-50.345-3.0606c-9.5894-1.706 5.2629-7.2715 0 0zm-156.65 70.54c3.9088-11.314 1.7371-25.307 7.2512-36.804 4.0806-17.68 11.778-37.074 24.687-49.511 7.2312-11.148 15.847-26.563 29.922-30.621 10.075-7.605 21.804 19.994 18.05 2.2651-8.0213-21.263 14.535-37.74 26.215-52.852 12.151-16.447 24.614-32.961 31.997-53.073 2.5288-24.514-3.9921-11.072-10.865 3.8474-12.637 24.685-26.458 48.791-47.168 67.734-19.96 21.587-42.644 41.591-58.362 66.21-12.996 19.719-20.961 41.94-20.426 65.833-3.961-1.0331-1.1585 27.219-1.3004 16.972zm260.96-31.404c9.6629-8.6628 10.245-18.82 2.9482-29.01-3.7613-9.7756-4.5433-20.293-.13791-27.416.0513-7.9353-11.09-16.527-13.41-25.901-3.2665-21.524-6.4579-6.8548-1.2768 6.6003.89787 16.26 4.2401 33.307-1.1862 47.033-4.1679 6.8469 10.871 17.082 11.788 26.777.34481.75018-.9384 3.7581 1.2749 1.9171zm65.901-11.752c-6.5679-23.943-21.741-45.689-37.048-65.472-15.887-4.7678 17.793-9.0539 3.7626-14.407-22.144 1.3466-41.888-10.722-58.505-23.518-4.364-5.7206-15.057-13.9-19.557-22.402-9.448 7.0688 10.365 19.335 11.277 29.459 10.654 21.631 16.526 44.419 19.926 68.007 1.8088-19.541 1.5364-41.338-8.8755-58.734 8.9682-3.6452 19.391 7.2688 27.475 11.968 11.028 10.148 19.292 15.454 29.094 26.525 7.4718 11.428 18.747 24.567 25.605 38.126 2.3444 1.5198 6.1909 16.461 6.8468 10.448zm-247.74-1.27c9.2495-15.176 25.767-35.188 44.184-45.759 14.005-2.3327 13.172-19.164 23.25-26.774-3.8378-10.469-5.9032-26.51-13.439-7.7194-7.0295 7.0326-3.5541 21.943-10.792 26.233-3.2401-15.986-11.032-35.103-29.657-36.933-13.863 8.5525 2.2422 18.188 7.3146 26.91 4.8299 11.628-4.5336 20.64-9.8153 28.949-1.209 10.973-15.947 18.011-17.593 26.463 2.3145 2.4171 3.4642 7.718 6.5482 8.6299zm165.08-18.791c-3.0256-17.353-3.5717-36.397-12.608-52.177-5.006-20.64-9.8401-1.8556-16.341 6.4801-1.1475 8.8984-3.5246 24.282 7.6498 28.44 8.0761 2.4697 16.857 18.349 21.299 17.258zm26.829-12.459c11.615-14.237-3.5497-14.64-2.5007.87707.48351 2.1769 1.6185-.24197 2.5007-.87707zm-189.47-13.686c12.821 4.019 19.364-19.122 6.284-20.531-5.5942 6.7477-19.908 2.6656-16.076 15.036 2.8106 3.9684 4.0896 7.023 9.7924 5.4952zm126.58-.20326c1.3146-11.362-9.3251-23.336 4.6292-30.04 10.465-6.5602 10.35-19.814 1.8535-27.97-6.2946-15.63-12.95-9.0908-5.5492 2.6694 15.738 11.234-4.6694 8.9978-11.593 16.224-9.5094 6.3052-15.56 16.502-3.7961 23.377 3.5008 9.0942 4.4579 13.77 14.455 15.739zm68.129-3.338c.69402-10.543-6.3574-19.092-15.598-24.622-7.7085-1.2492 4.1323 18.951 9.9246 22.102 1.7224.2223 4.8597 7.4125 5.6737 2.5201zm-113.73-13.019c6.7935-9.2885 5.1093-24.601 7.4428-35.998-.4505-21.115 1.618-42.432-3.1614-62.583-2.2288-17.756-2.7768-35.196-9.5172-51.327-7.8805 8.5512-2.3292 25.451-2.3572 37.144.16765 5.6089 5.2016 36.344-1.2168 20.375-3.498-14.343-3.2972-27.247-8.3018-40.669.3404 24.111-5.5897 47.749-2.6094 71.951 2.0195 15.372 3.0313 31.542 8.9738 46.594 5.1362 21.912 5.1977-2.1965 3.5034-12.332 3.4885-5.4192 1.896 16.087 4.9136 21.751 1.0177 1.2231-.90489 7.0605 2.3301 5.0924zm-4.3752-78.087c-9.065-.61557 3.1581-17.876 0 0zm145.88 69.116c12.515-.3731 12.767-19.507 1.251-21.447-13.48-2.3311-14.632 11.787-4.9693 15.933.48284 1.9835-.18714 7.3305 3.7183 5.514zm-319.08-5.6205c14.25-4.0323 28.998-2.5685 42.992.23232 10.4-4.2002 22.538-4.3722 30.113-13.814 13.334-11.397 12.229-16.832-5.7006-11.725-22.222 2.9728-45.284 4.1848-67.404-.77181 8.2683-4.4158 24.506-1.015 35.765-2.4969 10.491-4.8637 24.819-1.5467 36.599-6.2898 10.531-3.5964 22.154-5.698 31.806-10.829-6.0939-6.1999-23.158-.96216-31.497-10.044-5.9646-.54617-16.127 7.9542-25.392 7.6113-11.214 4.6975-23.583-5.2027-32.978-2.9075-11.589 13.025-29.083 19.759-45.973 23.463 11.137 7.8543 19.996 18.141 29.116 28.149l2.1256-.48143zm137.87-1.6054c5.1145-10.713 19.189-20.688 13.629-34.104-.78208-14.19-.12289-28.496-.35259-42.731-11.608 11.108-3.2346 29.758-7.4031 43.995-1.6902 6.6993-1.9279 27.834-9.2836 23.787 4.1812-10.798.27936-18.099-1.0585-30.285-2.526-15.804-13.796 10.267-19.531 14.057-5.2044 9.794 15.147 7.891 16.999 17.636 2.4187 2.3328 4.2803 5.8989 7.001 7.6454zm58.836-4.3482c6.8785-7.8517 26.243-13.854 16.623-26.923-6.4706-10.831 4.025-23.563 4.4529-33.257-3.4835-6.222-10.149-32.781-9.3525-12.464 1.9702 13.067-4.696 23.919-4.0544 37.107-2.5822 11.625-14.27 19.845-10.978 32.411 1.3316 2.3506-.74208 9.9378 3.3087 3.1266zm199.55-14.979c4.5166-.9513-4.2971-1.0327 0 0zm-7.2903-1.6738c13.01-.46114 23.146-6.1977 33.157-12.418 10.43-5.3433 15.724-11.916 24.906-20.121 6.0904-10.999 6.3162-25.021 9.1096-38.04-5.8176-9.1261 16.329-25.047 4.8917-19.54-12.378 1.8205-21.478 11.977-34.135 13.601-2.9804 11.336-3.0477 25.955-11.882 36.204-6.548 7.7992-10.761 13.506-21.698 16.68-19.738.11207-16.234 7.5297 1.4621 10.39 15.393-3.1671 21.989 4.3201 2.9149 5.0431-23.102 1.9268-39.509-18.937-53.729-34.55-11.472-17.452-22.306-35.085-33.835-52.135-11.368-18.119-28.545-34.197-41.836-51.15-11.947-8.6574-22.004-21.654-38.366-19.634-11.669-5.7497-25.964-1.6724-38.691-3.4637-14.177 13.163 9.2632 9.8066 17.457 12.226 26.918 13.282 48.702 34.399 63.502 60.79 8.913 9.7554 11.97 31.329 28.197 29.366 10.441-5.8704 6.2865 15.595 12.312 20.809 8.8314 16.559 22.799 28.789 39.638 36.469 4.6267 3.5084 18.341 7.5539 27.675 9.8918 2.966.0785 5.9727-.3257 8.9504-.41762zm-319.52-6.1228c9.1706-1.1533 20.603-.38814 25.669-9.7576-11.799 4.4028-24.331 6.4113-36.393 10.383 3.5745-.20852 7.1489-.41703 10.723-.62555zm70.284-6.4972c1.6425-5.1579 5.0662-31.212-2.5442-23.6-6.6265 4.6438 2.6964 30.43 2.5442 23.6zm152.66 1.6744c5.229-8.4098 31.24-7.5772 22.249-15.908-8.102-9.6578-11.984-21.262-16.365-32.749-16.982 1.8258-30.925-8.1244-41.232-20.455-4.0703 9.4558-27.089 2.6794-23.272 9.1403 14.601 9.377 33.361 12.327 45.036 24.788 5.8225.73382 21.754 22.619 12.719 18.697-15.156-11.218-31.335-20.082-49.996-23.831-13.073-8.2224-23.015-6.8122-14.74 9.4816 6.5534 12.094 27.879 9.0514 33.123 23.541 11.48-1.2484 24.03 3.1343 32.151 7.4717zm-93.609-5.6612c3.0849-10.976 4.6815-21.184 4.4505-32.841 2.451-8.7356-4.4689-26.868 1.8498-27.88 13.547 8.6913 27.554 17.727 43.448 22.378 10.423 4.2256 21.824 9.6825 30.965 14.403-4.9596-7.4348-16.465-13.384-25.709-16.9-12.339-7.1313-35.126-11.772-33.191-29.481 12.813-16.612-8.1283.48106-14.591-7.151-17.774-9.0015-24.937-29.64-27.32-48.248-12.018 7.7097-.89317 25.475 4.6421 35.234 10.747 17.94 19.432 37.37 16.333 58.697 1.4434 9.1868-1.9352 32.926-.87599 31.788zm-4.7181-.62733c4.2214-16.706 3.8594-36.722.87776-53.603-13.358.50754-1.4367 22.166-3.5306 31.279 1.0871 7.0646.89292 19.923 2.6528 22.324zm193.19-9.7858c12.515-2.2102 27.612-13.876 28.642-29.008 5.6512-10.8-.0305-28.816 15.814-32.71 10.7-5.8579.52309-24.375 7.5859-35.29 6.1638-16.108 15.867-31.693 20.402-47.844-4.8735-17.601-27.98-10.255-41.37-9.483-21.063 4.0961-40.958 11.905-59.034 23.199-17.476 9.9186-32.345 16.178-49.739 25.021-9.4792 1.6849-20.601 5.6696-7.4608 14.403 12.249 1.0672 16.407-15.488 29.58-5.2171 14.621 2.0721 28.024-2.9298 36.951-14.714 1.8648 4.7558-10.923 17.665-5.7264 28.057 6.7819 14.087 5.6639 16.33-6.2257 21.897-3.1678 12.838 2.8022 20.007-14.174 19.998-7.6638 7.5564 8.0944 20.474 13.813 27.541 7.7621 9.1646 18.793 13.421 30.943 14.15zm-276.61-6.3147c12.898-13.03 19.435-31.037 18.029-49.758-11.47.31299-18.215 7.937-16.542 19.779-3.6691 7.5373-12.951 14.931-4.0581 22.12 1.1889 1.5145-.20394 9.2753 2.5714 7.8586zm-20.757-20.062c15.085-6.055-2.7146-13.049-9.4642-17.789-12.32-2.9115-24.236-13.017-37.468-11.773-5.0986 7.3348-23.501 14.108-5.6988 19.271 11.628 12.681 31.919-1.0796 44.392 11.256 3.7509 3.4371 4.2382 2.7132 8.239-.9648zm-132.28 2.2002c10.52-1.3919 17.117-4.824 28.596-6.4509 25.925-9.1868 48.56-24.534 68.797-43.027 16.503-12.983 32.145-27.083 50.516-38.289 5.0227-4.3593-21.92 1.0097-.90424-6.4268 16.803-2.478 30.131 12.105 47.658 8.1702 9.1867-6.6774-6.7699-17.29-14.813-17.366-29.213-8.2683-62.707-3.9533-84.871 17.98-9.2227 5.6107-18.564 14.992-28.187 21.844-21.9 17.397-41.023 38.298-65.05 52.481-11.004 4.196-19.265 5.9916-28.951 2.6779-6.193-4.7578 20.972.54302 25.922-7.5682 10.348-7.8619 14.439-14.48-2.1669-11.836-9.8244-3.9939-23.374-4.2985-33.38-11.135-15.165-10.054-28.861-24.837-34.99-40.95-4.5573 8.6739-2.3869 23.224 2.233 32.722-8.544 3.0692-7.4054-19.284-8.2994-27.394 4.9049-18.11 13.438-37.747 24.887-53.839 7.8313-16.901 27.199-28.679 37.967-40.908-17.112 2.2088-33.92 13.362-48.156 24.15-6.9114 6.5907-15.201 13.262-19.832 22.853-12.87 20.389-14.345 47.928-1.1624 69.162 5.0006 14.884 20.871 25.244 32.177 38.105 15.057 10.072 33.746 16.718 52.009 15.044zm143.18-10.487c8.518-8.1371-11.624-10.414-16.545-16.257-11.71-.939-22.258-9.7989-34.383-10.258 5.7974 7.2107 19.557 6.1411 26.595 13.477 9.1184-1.3761 16.325 9.9113 24.333 13.038zm3.5061-8.2156c5.6017-9.1442-11.395-12.495-13.264-21.059-4.1244-12.21-19.498-14.684-28.699-6.2061-14.392 8.0293 3.282 8.4297 9.5429 11.948 11.586 4.5447 22.632 8.0749 32.42 15.317zm28.373-1.9589c3.2666-3.4955 15.627-25.552 3.4808-17.377-4.9718 3.6629-4.1198 13.443-3.4808 17.377zm204.64-1.8782c14.426-.85054 10.49-17.348 18.879-25.371-1.2124-10.867 1.2351-26.344-14.176-18.219-10.493 5.2465-20.672-8.1323-29.001 3.0183-13.162.45019 2.6112 19.844 10.121 15.608 8.6722 4.7506 22.007-15.386 22.046-4.2747-4.0334 8.2544-24.488 11.18-18.309 20.905 3.8641 1.8653 5.3589 14.526 10.442 8.334zm-60.714.22944c-3.083-7.0747-7.2492-21.081-15.163-15.584 3.2011 6.6473 6.2854 16.081 15.163 15.584zm185.96-2.4364c12.738-6.5259 1.0686-20.594-1.973-2.8937.7823.83993-1.498 4.7424 1.973 2.8937zm-224.73-4.0851c13.867 4.5951 15.104-13.07 20.956-17.767 5.6088-3.3152-7.5356-13.488-10.532-19.455-5.8595-12.648-19.671 2.7155-29.254-3.5518-10.453-1.3518-21.153-4.0932-30.587-10.027 1.2324 13.007 10.558 25.74 22.117 32.576 4.9955-7.3147 9.7509-23.496 23.858-20.583 15.226-1.9925 25.808 18.546 12.622 28.444-7.4907 4.224-31.202 6.4558-10.288 10.365zm-130.53-6.1277c8.0469-.95645 27.455-7.0912 7.9442-8.4101-17.471 2.823-27.168-23.393-10.809-31.359 11.828-11.118 35.446-3.1488 32.669 14.408 2.3583 17.663 16.217-2.288 14.259-12.525-.53449-9.2174-20.101-6.3107-28.613-10.341-9.3655-1.8212-21.755 5.3769-29.805 11.999-8.1734 4.957-23.026 15.601-3.5486 13.218 1.9155 9.6317 8.0163 18.848 17.903 23.01zm-147.65-1.4401c10.13 1.7479 25.422-3.6513 20.063-16.449-1.2931-8.4915-16.44-19.385 2.5746-15.903 13.534.51944 25.633-2.3066 36.34-11.112 6.5449 13.841 31.075-10.817 9.5168-4.9466-13.777.33481-26.439-.76838-39.061-5.3259-17.729-4.9378-34.712-13.434-51.071-21.257-9.5693-2.8481-16.229-12.386-25.454-15.482-13.7 19.637-20.736 48.935-2.951 68.158 11.652 14.361 30.696 23.948 50.043 22.317zm363.01-2.6488c18.804-6.3078-8.429-8.5775-.56171.004zm-84.785-2.5128c11.538-2.4197 12.231-19.607.10624-21.239-13.914-3.5303-24.745 12.927-7.5444 17.434 2.4514 1.4367 4.0717 6.0509 7.4381 3.8053zm210.99.47408c5.5358-5.2826 20.936-13.159 21.472-1.2397.96702-10.607 1.0363-24.185 6.5764-32.462 4.08-7.5356 11.041-12.777 13.242-20.936 4.3611-11.21 7.1218-24.912-6.267-29.758-14.201-12.773 2.3474 9.182-3.3871 11.821-10.898-10.006-19.674 5.9575-23.443 14.78-5.6786 11.678-9.5205 23.952-14.24 35.705.45008 7.0073-2.4477 20.141 6.0469 22.091zm-457.59-4.1986c6.1458-6.6511 17.042-12.097 22.599-18.005 7.803-15.252-10.695.88759-18.046.11388-15.448-6.1602-11.099 16.703-6.2876 18.915zm141.66.99574c16.661-4.8462-18.871-8.1108-1.7037-.13908zm-16.926-4.9711c14.476 2.653 19.544-19.678 5.4004-23.258-12.197-4.7206-26.266 12.627-12.834 20.712 1.617 3.2121 4.4264 2.6103 7.434 2.5454zm113.69-26.967c13.475-2.2532-11.35-13.293-16.079-16.815-7.6643-4.693-26.101-15.494-28.266-.43849 8.2558 16.417 28.914 16.889 44.345 17.254zm-70.121-9.7952c12.315-6.9107-6.7652-8.717 0 0zm136.07-.77165c22.012-2.6218 39.607-15.524 58.723-24.918 25.221-14.966 53.155-26.253 83.615-28.297 7.7219-3.4178-15.582-7.5982-20.26-10.703-17.524-5.6808-36.36-9.2954-53.742-.89068-23.061 14.365-47.548 28.559-72.975 37.667-5.837 6.1977-30.326 3.14-23.375 11.359 7.9059 6.4318 16.53 18.356 28.013 15.782zm-264.31-5.0204c16.789 3.9379 26.344-12.138 40.817-15.655 16.66-9.402 37.341-4.2862 56.001-5.617-5.2748-9.1807-23.457-2.4998-33.976-4.2942-23.855-.39988-48.428 1.7175-71.829-.97897-14.694-3.2567-29.24-6.3911-42.797-13.62-9.1455-1.2947-16.711-9.3711-25.726-12.747-8.4542-11.149-19.727-14.316-26.473-.69799-15.032 8.3901-.71383 16.511 7.2407 23.294 18.201 10.624 35.769 19.245 56.831 25.079 13.478 1.7783 26.384 6.8103 39.91 5.2366zm-168.71-.33559c2.214-1.1692-2.1134-1.2739 0 0zm309.73-6.0057c10.547-9.4646 6.1804-26.963 14.692-38.487 4.8988-13.409-1.9289-29.281 7.156-41.91 6.1623-10.853-17.695-16.128-20.3-5.0017-4.6722 10.467-6.7714 21.583-9.4905 32.312-10.969-1.9178 2.5909-18.712-.26429-26.962 5.6341-13.346-12.033-17.617-18.689-8.1142-12.965 10.823-9.3845 30.844-8.0076 45.245 2.2346 12.323 8.686 23.181 13.995 34.625 6.9886-4.985.78916-23.084 5.6182-31.868 6.7904 3.9507-3.9038 21.862 5.276 28.805 8.0294-1.9112 12.378-20.391 10.419-1.7118-1.0399 2.061-4.4384 16.365-.40441 13.068zm-31.367-10.335c12.001-6.3996-14.803-7.0697 0 0zm123-6.9904c28.373-1.0044 53.999-17.644 79.66-30.039 10.712-6.7707 21.429-12.844.88442-12.226-19.221-.61098-37.987.16054-55.615 6.219-17.951 4.6824-35.658 12.292-50.813 22.611-2.5935 8.7364 13.023 14.975 22.068 13.6l2.1774-.09385zm-202.57-7.5667c10.494-.40848 25.357 1.4439 31.51-4.7094-20.681-9.5808-40.464-21.407-61.813-30.669-23.295-10.674-50.898-15.944-75.74-8.4486-8.1905 13.91 7.7821 22.696 18.575 27.049 20.249 7.2029 40.514 15.003 62.298 15.21 6.6329 4.1475 17.269.48421 25.171 1.5691zm68.558.14083c15.454-5.0286-14.01-6.2362-20.211-10.268-13.982-5.7852-24.5-15.996-37.262-23.718 5.9271-5.5765 16.838 7.0327 23.456 9.0424 9.3278 6.5598 23.966 13.313 34.417 8.2107 2.7704-14.173-6.0181-24.115-19.523-27.142-13.519-6.4386-25.681-11.039-39.148-13.31-10.669-3.7193-20.557-5.8999-30.083-7.4039-12.308-2.9015-25.491-4.1964-37.668-5.4515-31.104 4.9873-65.06 8.7103-91.127 27.394 20.145-6.6632 40.662-14.361 62.349-10.786 24.932-.27305 49.556 6.4004 70.781 17.647 19.414 11.369 40.376 19.736 60.758 30.442 7.8936 1.5744 14.963 6.2769 23.26 5.3438zm358.44-3.995c-.74508-10.495-13.468-21.158-19.499-31.121-8.2206-6.6933-16.695-12.819-25.649-19.317-17.436-6.9681-37.025-16.315-56.371-18.393-20.38-5.1705-45.808-4.3106-68.208-2.6467-15.301 1.4248-29.754 4.7345-43.904 11.362-21.338 7.6441-37.864 22.435-58.283 30.748-4.5674 7.3685-21.159 7.8965-21.558 19.792-1.7538 12.252 19.25 5.0587 25.881 3.4761 13.065-3.2907 27.775-8.7546 38.98-14.298 11.117-3.5262 22.689-9.3292 34.157-11.657 28.739-6.5864 58.85-8.6339 88.522-8.0683 20.423 6.7591 43.553 7.7601 63.101 17.59 10.043 2.9212 22.521 8.3904 31.344 15.574 3.3225.6271 7.5838 5.2832 11.489 6.9582zm-636.77-4.0605c6.727-4.5959 4.6572-19.929 11.675-27.311.63393-4.5036-18.13-13.035-16.644-2.813-1.9027 8.9465-12.702 20.559-1.6826 27.465 2.1873.95988 3.9708 3.4881 6.6522 2.6592zm241.79.0038c2.214-1.1692-2.1134-1.2739 0 0zm402.14-14.329c16.25-.34879 6.4879-13.179 2.0181-21.926 1.0903-16.711-15.359-8.657-16.659-.71187 6.359 6.3654 5.764 19.384 14.641 22.638zm-10.304-3.0328c3.755-11.179-14.333-15.829-2.9357-2.2979 1.3032.03127 1.3223 2.9688 2.9357 2.2979zm-286.74-3.0865c20.282-7.9876-17.353-8.8001 0 0zm-362.25-3.1241c6.7468-2.3833 8.2084-26.958-3.7203-19.812-5.8182-6.3184 14.353-10.21 19.738-11.277 14.829-.70144 31.011 9.4882 36.434 24.111 6.0265.56591 24.654-10.174 18.282-16.12-10.994-5.2421-18.84-12.207-30.654-14.659-8.3157-8.3471-24.388-3.9801-34.918-3.2847-10.548 3.2788-18.73 12.257-21.406 23.467 3.3453 7.154 5.9427 17.608 16.245 17.574zm675.65-8.1679c12.195-.26724 12.478-14.878 14.443-20.566-4.5116-6.9364-9.6251-15.888-19.171-17.65-12.7-2.1848-23.036 3.9428-34.457 7.8214-8.6876 4.9282-29.005 9.1006-13.14 19.999 12.093 11.77 16.496 9.5539 5.9773-3.7061 2.649-11.347 17.056-15.503 25.962-10.296 12.319-15.084 3.1719 6.0302 12.811 4.6502 12.729-11.003-.0175 10.092.7911 15.473-.40071 3.5796 4.5881 3.2471 6.7822 4.274zm-314.33-1.9619c13.806-8.7335-11.101-7.9636 0 0zm-331.58-1.086c4.8095-6.0434-15.078-4.0793-1.3515-.06474zm-5.9356-9.6144c21.44 1.2499-2.4112-4.6995-8.953-5.64-7.2273 7.2222 4.8032 5.5501 8.953 5.64zm617.42-.79383c16.324-1.0289 2.6665-16.505-4.6656-3.8249-.74363 5.0289.20608 4.6892 4.6656 3.8249z" style="fill:#2e5d3a"/>
</svg>
