<?xml version="1.0" encoding="UTF-8"?>
<!-- Created with Inkscape (http://www.inkscape.org/) -->
<svg version="1.1" viewBox="0 0 3417.2 902.81" xmlns="http://www.w3.org/2000/svg">
 <path d="m3114.4 902.81c-34.145-7.4503-91.982-.51515-127.32-1.0213-26.297-2.2086-58.309 1.06-84.766-2.0426-27.598 2.0369-60.415.009-97.396 2.0426-27.918 1.4923-63.095-2.2728-84.495 0-1.1707-36.746 101.91-23.394 80.955-16.34 12.66-1.6487 23.061 4.119 36.766 1.0213 38.123-.16851 94.307 2.7116 136.85-2.9179 13.24-9.0307 1.6979-32.109 1.5319-40.997-6.0427-35.389-14.734-73.262-24-109.28-12.405-26.67-4.4665-53.59 31.66-42.894 40.868-2.3661 86.14-.32789 128.68-1.0213-4.3435-19.891 12.404-55.961-12.391-57.035-18.16 12.073-36.941 13.343-53.992 27.418-10.2 3.7014-31.984 18.598-22.843-4.8511 10.619-22.647-2.0948-20.828-15.965-11.489-17.61 5.3555-32.376 13.096-53.106 20.426-3.9864-13.232 22.582-30.733 9.2844-36.766-27.1 19.137-54.807 26.428-81.138 40.34-8.511 4.8299-24.742 17.61-14.954-1.5319-2.6576-13.806 22.174-7.2214 7.1489-14.072 10.562-8.7676 22.31-28.896 2.0426-18.608-9.4008.99998-31.434 19.923-36.766 6.2653 8.8498-6.5941 27.69-29.43 3.4894-18.521-10.59 2.0502-42.382 10.399-47.404 3.9149-16.588-18.469-58.336-1.4357-81.872 1.1392-37.425 1.688-57.659 14.151-95.83 15.371-28.909 5.0125-66.844 10.395-90.894 22.468-24.409 8.4781-48.366 15.516-75.686 23.618-19.262 10.206-38.026 6.4889-54.162 16.211-30.417 7.2224-57.125 20.883-83.599 40.851-15.9 8.4531-25.924 15.546-35.818 22.468-41.079 5.7541-87.427 2.5252-122.48 11.234.4927-10.947 22.16-9.1826 35.234-13.277 37.331-6.5732 68.668-15.541 105.7-26.553 18.832-8.6495 44.973-13.318 55.149-38.954-47.208-13.229-100.05-1.0272-136.85 11.38-11.18 3.42-49.068 15.284-40.851 0 40.484-7.4165 78.176-22.434 121.45-25.532 25.268-5.6743 46.791 7.5116 63.73 2.8785-6.0429-16.831 18.932-69.745-16.353-70.548-20.006 32.187-10.875-35.146-30.048-8.4153-15.574 9.3921-22.393 28.615-38.604 30.128-15.168-12.038-23.375 24.218-38.901 27.712.174 10.245-31.182 35.785-20.426 7.3097 7.9871-11.067 13.129-36.776-3.0638-19.703-14.822 13.184-.5135-22.144-12.255-9.1915 10.838-13.667 1.5951-18.838-8.1702-9.1915-26.26-3.7783 37.005-30.682 7.2219-33.702-41.216-11.73-92.848-3.3742-140.5-9.1915-28.576 3.6544-48.836-1.2018-85.548-2.2659-34.736-2.2995-45.841-.7552-76.326-4.883-30.672-1.5863-68.309-8.8003-89.597-8.9362-22.184-6.9214-56.273-6.3043-80.218-13.532-29.3 6.7198 19.774 24.54-10.177 27.678-7.133 10.324 38.849 12.869 17.611 21.343-21.588 1.243-27.496 10.953-9.1915 22.739 15.523 6.0998 26.079 26.266 2.971 24.24-9.3502 9.5508 3.4476 30.232 20.497 25.073 38.094-.59054 76.744 16.727 118.49 5.5656 31.472-5.2005 57.379-26.822 84.839-42.894 13.244-1.0026 33.018-21.738 43.842-9.6454-23.753 9.4527-50.508 16.642-67.046 31.848-25.748 24.168 63.263 21.574 42.566 24.773 23.588 4.2084 43.528 8.0631 69.417 9.1946-5.137 18.588-58.078 1.1294-43.831-.0339-51.077-3.5043-102.51-3.0486-144-.99918-37.782 2.9939-63.166 12.212-102.38 14.31-19.972 3.2797-41.821 16.249-58.046 19.404-9.5851 7.2345-32.205 6.4768-40.852 8.1702-24.599-3.3018-44.134-7.9168-66.298-18.383-26.105-9.8178-56.538-18.868-77.868-23.489-25.079-10.371-60.76-15.711-87.149-24.511-13.564-4.1227-45.924-6.9101-67.988-12.255-38.012-3.8131-74.234-14.077-114.23-13.212-12.177 3.1406-54.016 4.0917-32.818-9.2559 25.88-6.4212 16.823-13.678-1.9846-16.34 5.8136-9.9438 31.453-9.8786 33.702-27.574-21.797-1.4934-15.476-12.766 2.5532-17.077 17.351-.90223 52.882-5.0034 38.298-23.774-13.917 1.6731-57.49-10.468-24.706-17.286 18.118-6.3542 44.019-9.8632 55.344-22.521-18.089-10.155-39.774-11.614-55.775-21.816-37.538-.55587-67.199-11.507-99.215-6.5218-43.412-9.0724-81.132-.40439-131.05-2.5471-25.961 13.827-52.346-8.7021-71.412 6.3505-19.221-.13278-38.963.53557-42.818 2.5532-27.254 3.1667-45.271-4.021-62.838 6.6383-47.339 5.0776-85.478 20.705-126.17 31.66-40.892 7.41-80.064 15.753-124.16 22.906-2.8524 13.405 37.689 35.735-.26049 32.78-29.95-4.8388 1.247 18.225 2.8866 28.241 25.497 22.314-25.294 12.504-18.383 14.116-23.125-2.5314-36.966-12.779-59.234-17.362 6.3673 19.551.32993 40.774-13.714 23.489-16.62-4.3406-27.731-27.479-43.477-20.571-6.4573 11.04.23565 30.684-10.383 33.848-13.321-11.834-15.158-12.672-26.284-24.511-17.365-8.0114-6.7479 45.275-29.126 18.638-15.504-16.955-41.337-42.105-50.632-5.6469-6.9066 15.901 4.655 44.644 35.574 34.84 31.29.28541 48.47 3.1587 75.15.93481 8.1696 4.528 33.545-2.7647 46.723 1.2766 48.68-8.215 19.721 41.2 21.277 28.085-9.4993 19.373.42423 40.625-16.34 54.638-6.9 33.69-20.944 67.017-26.553 102.13-8.7334 13.184 25.092 19.524 30.809 18.383 9.5277 5.0949 33.408.68003 46.729 0 41.382.78152 73.571 1.4113 109.53 0 36.872 2.6777 82.785-5.2852 119.32-1.0213 12.33-.24163 32.949-.20941 38.809 1.0213 21.192-1.7998 65.568-.50165 91.915 0 47.438 4.5528 126.88.84451 178.23 2.0818 30.886.75117 80.013-2.1361 100.58 3.1097-5.0844-10.731 118.22 7.1636 70.468-3.1489 47.639-.30623 118.72.0706 165.45 1.3842 21.39-6.3303 72.687 2.8997 90.384-.12913 49.98-3.4286 105.44 4.9891 152.23-5.3402 18.218-12.26 30.821-25.581 53.557-28.596 23.106-.95586 42.207-15.591 63.319-21.447-8.1657 25.472-42.961 29.921-48 54.128 168.6-.0757 337.2 1.9204 501.26 1.9869 29.858.77222 81.807.74166 122.58-.9654 28.156 1.1573 43.055 1.9636 78.553 2.0426 36.388-1.3297 76.014-.53891 112.58-2.0426 47.221 2.8059 111.3-4.1357 160.34 1.7576 2.2181 19.449-13.233 13.807-20.426 11.519-34.536 4.8795-73.402 4.0547-109.28 3.0638-60.604.436-109.41-.17911-174.97 1.0213-24.062-3.3312-33.681.9469-52.737-1.9859-44.694 2.4556-116.78 1.3155-164.47 1.9859-16.689-2.4727-41.957-3.9148-63.916-.76596-24.792.35192-49.993.41028-70.984-1.2766-54.315-1.693-117.25 3.1007-156.34 0-25.123 1.3603-40.612-4.8415-56.57 0-16.339-.94496-34.091 3.4802-21.102-2.0426-8.2267 1.9879-32.844 7.675-25.444 2.0426-17.116-9.5985-30.259 8.0575-50.197-2.0426-68.99-.99138-128.49.24238-191.71 1.0213-35.57-.8321-65.277-1.8182-108.02-1.0213-29.91-2.8021-63.113 6.5582-98.19 0-24.707 2.1413-62.741-2.8356-89.958 0-51.055 4.8459-99.566-1.5903-150.13-4.5958-51.058 7.2006-102.81 2.5473-156.68 1.2766-23.251.29239-87.581 4.3979-107.83-.76596-23.82 4.6456-44.513-1.1411-64.58.81336-32.662.91656-48.575-1.8335-83.505 3.2718-28.407-3.2049-49.343.48627-77.617-1.0213-23.253 2.686-66.85-6.563-93.957 1.0213-28.709.40644-49.114-2.1694-82.949-2.0426-59.141.96164-105.68 2.119-161.68 0-36.232 2.7626-79.184-4.4051-108.15.58439-8.1852 35.972-32.408-143.07-11.818-21.86-4.4269-21.261-4.1688-32.541-7.1489-47.659-5.5548-19.985-5.7775-44.042-9.1915-56.681-7.677-19.852-5.8922-45.68-11.234-69.447-10.299-18.025 1.2688-30.102 26.315-24.511 47.962-2.16 104.48 4.2403 147.3-3.0638-5.0172-20.544 7.6182-46.275-8.7406-52.085-12.184 10.029-42.486 16.689-37.435-9.1915-17.898 5.3935-34.553 15.963-48.547 26.095-11.639 20.884-4.4709-25.076-19.66-10.776 2.8467-13.216-36.007 9.0382-26.203.68013-22.419 10.884-42.095 28.165-63.159 41.192-11.05-13.366 8.1819-31.991 11.745-51.325-26.054 7.2162-43.103 24.925-66.237 29.878-21.876 8.8433-5.6009-15.957 4.5666-23.307 7.855-10.084 26.642-28.07 2.4364-19.586-17.192 7.3299-54.193-7.5013-30.043-9.1915 14.507-6.7589 17.421-26.812.42553-20.426-27.925-4.0886 2.553-16.849 11.234-23.489 17.713-10.515 39.734-17.871 56.64-27.861 36.995-16.873-55.022-13.752-29.849-17.075-7.6198 2.6752-36.983 3.3422-19.71-9.1915 26.96-15.6-35.562-19.216-16.272-17.362-18.908 4.2015-17.266-12.676 0-15.319 13.133-1.0008 43.961-13.106 10.005-16.58 9.6613-12.552 35.381-14.435 45.144-24.271 22.386-5.6669 47.749-13.821 63.319-27.574-7.1556-6.7121-26.704-23.567-27.668-10.145-1.3573-17.239-54.003 12.459-57.098-7.65-31.943-13.701-73.062-14.957-65.872-13.896-.76454-13.623 33.047-14.732 38.914-21.834 9.6953-6.9522 26.804-7.9907 34.107-17.964-13.528-1.4749-26.882-15.729-4.5794-18.081 13.418-5.7485 45.255-27.839 36.239-20.276-12.464-17.41 17.797-19.11 25.689-30.068 25.669-8.2222-23.953-7.4857.79656-24.511 21.506-19.59-59.792-4.1063-41.804-19.927 18.085-15.73 41.159-17.006 58.127-29.095 24.291-10.638 52.103-18.381 70.554-35.39-25.036-17.788-48.683 17.469-45.957-16.695 15.421-8.8443 35.043-15.917 52.26-29.617 10.645-.55064 22.437-19.749 38.753-24.484-10.746-4.2599-27.059-5.479-11.353-14.324 24.078-13.061 40.007-37.263 64.282-48.735 14.414-20.099 44.25 1.8507 53.164 18.096 17.221 8.2112 34.082 18.911 43.386 33.356-28.051 3.8813-59.812.77524-19.561 29.253 14.033 15.289 40.542 20.325 51.75 36.143-19.076 2.5405-27.234 17.181-3.0638 18.696 10.635 11.493 35.565 13.038 48 23.562-4.7828 10.347-26.123 10.111-6.1277 16.267 11.726-.14888 43.669 14.299 18.383 20.426-12.264 6.3659 14.808 21.659 23.896 28.909 9.8114 28.381-82.824 19.595-63.726 10.92 13.319 15.341 37.346 25.028 51.71 34.723 12.148 12.586 33.498 6.1852 38.162 23.489-12.318 8.3566-36.624 10.38-42.867 20.426 22.607 15.166-17.958 17.26 17.921 22.696 15.211 1.9389 45.419-1.6815 45.955 14.654-9.745 4.0043-17.325 2.6805-24.073 14.736 20.855 2.6424 46.998 12.715 56.17 19.915 15.928-3.1882 12.914 20.66-5.1064 16.851-32.267 3.4748-73.201-5.8849-96.584.58359 27.582 17.043 45.082 29.984 71.052 44.207-2.3083 12.551-33.168 6.6592-26.699 19.55 30.191.51231 56.042 41.886 81.848 51.574 14.977 15.536 28.577 3.3712 50.043 1.5319 1.7306 2.3266 42.659-13.318 29.617-6.1277 18.996.96495 43.842-46.496 39.83-31.834-20.455 7.1235-39.533.0369-13.277-13.102 12.52-10.677 24.24-18.569 28.596-29.617-17.768 2.9268-31.066-3.4053-11.745-9.1915 13.461-4.7804 25.496-16.691 32.17-29.617-22.789-1.078 6.0882-16.865 11.791-20.89 13.663-17.808 28.719-12.865 30.081 9.218 14.613 11.959 18.042 25.205 37.35 26.407.70062 13.29-41.995 17.529-11.818 25.094 11.23 7.6434 44.947 2.791 24.06 21.447-34.204 9.1074 44.512 21.148 40.135 0-6.6547-18.321 28.813-11.416 37.933-20.426-17.471-6.1919 20.059-13.171 10.214-15.319 20.838-6.0149-49.403 2.3242-25.533-14.298 12.305-2.9174 31.337-9.611 37.35-16.924-27.559-12.751 8.1151-15.586 14.736-21.884-8.6298-5.0153-50.14-4.4553-29.617-16.34 17.087-6.7198 45.557-3.1725 55.149-20.863 1.2561-13.847-42.369.52888-30.639-15.903 19.865-7.4229 43.4-19.531 53.617-33.702 1.5405-11.775 14.446 4.2414 15.83 12.401 5.8438 20.015 28.605 17.313 32.681 29.617-11.288 6.17-31.492 14.276-7.149 20.28 25.421 2.0656-17.501 25.258 11.814 26.553 9.5196 5.8959 57.001-.6663 42.407 18.383-9.9506 1.3972-36.404 17.703-12.49 23.489 17.272 10.544 40.064 8.9943 52.227 22.45-7.4715 8.0302-32.261 5.9061-16.34 22.486 12.169 8.4461 39.521-.14465 53.106-7.003 1.8452-16.505 26.195-5.0941 32.231 7.1599 14.913 28.139 37.183.35602 54.982-8.2626 14.611-2.0628 29.898-11.952 12.872-21.212-19.697-13.351-9.4663-18.897 5.1064-22.767 14.612-.84055 39.973-12.623 21.4-23.489 6.9026-13.001 33.089-24.509 33.986-40.161 16.62-13.749 20.43 28.84 35.063 31.169 12.393 4.6438 27.674 28.184 34.146 14.098-14.662 2.9943-29.933 14.974-6.1277 18.383-8 11.721-9.1041 13.935 9.1915 17.479 9.1274 6.6754 42.287-.23341 36.844 16.301-10.178 4.7836-31.221 11.443-8.6997 19.326 16.547 12.632 37.306 26.242 59.685 33.702-9.4994 11.818-73.997 6.7844-23.569 16.34 21.838 5.0661 44.002 6.8201 66.462 13.277 30.855 1.6898 59.432 8.7519 85.787 9.1915 30.721 14.427 8.169-27.96 28.742-38.809 8.2383 19.243-.4218 49.917 27.939 48 19.675 2.908 58.434 6.7035 83.663 13.434 50.5 1.4342 89.096 11.866 142.52 10.383 40.73 12.044 96.881-.71352 147.05 3.7582 40.448 4.7549 81.115-.53276 114.43 11.234 33.64 4.4485 52.779-6.2689 23.489-20.34 7.1222-23.685-28.78 1.769-40.34-.0851-11.909 5.0816-35.785-19.137-31.149-4.0851-7.1935 9.2067-52.852 7.4353-21.957-5.1064 8.4325-7.0404 23.4-11.878 26.043-22.468-32.099 3.5647 16.877-15.668 1.0212-15.319 25.871-10.31 50.3-20.304 72.511-35.745-15.019 1.2595-38.542 11.006-46.468 7.1489-2.241-10.718 24.227-11.806 32.827-25.021-19.342-3.6777-43.75 13.986-54.785.64833 31.565-12.986 7.971-15.745-14.723-15.712-26.275-1.4763 29.753-24.472 19.737-17.106 21.151-9.3262 44.142-23.151 65.454-34.833 12.142-7.7321 28.02-12.945 34.723-24.401-23.083 6.7022-55.81-5.3654-63.163-3.0638 3.3888-10.8 25.869-10.43 36.464-20.426 15.846-7.7334-51.242-14.357-43.769-13.277.2911-8.923 25.495-13.114 31.517-22.468 12.941-6.4572 44.878-38.09 34.866-27.29-8.8336-3.6976-42.209-6.416-23.489-16.625 19.565-10.015 43.229-18.691 62.298-34.723 11.01-10.815 34.109-17.294 45.957-34.213-22.899 4.7175-52.758-3.0167-20.145-18.894 15.405-9.3344 24.195-18.506 33.422-31.434 4.1005-11.545 20.808-42.903 25.532-16.566 12.082 19.595 37.393 37.227 55.149 47.146-18.164 4.6494-27.93 15.363-3.0638 27.326 29.062 13.087-39.01 8.1487-1.2231 26.634 21.257 14.494 45.86 14.453 65.564 29.972-5.6307 6.5734-44.09 3.0341-29.617 13.943 20.015 5.5141 4.3964 17.4-9.1915 17.471 8.9649 10.823 23.954 21.682 41.378 30.581 5.8547 7.9608 19.548 5.9857 29.941 15.267 7.5095-2.5272 41.417 12.985 13.447 15.319-25.542 3.9428 8.6262 18.285 23.038 15.319 29.374 11.206-10.431 15.219-18.953 21.447-8.7624 11.052-32.835-4.5134-38.212 8.537 20.806 17.303 44.373 33.33 68.031 36.399 33.951.28895-46.756 40.559-14.927 15.319-21.342 3.6727 41.992 18.473.4271 25.532-15.989 10.481 17.578 9.761 22.468 22.233 11.93 3.8506 54.972 15.358 28.422 17.502-40.984 1.0153 17.897-1.8779-48.018-.92603-2.6007 33.033 54.736 6.463 55.341 24.657-10.413 4.8186-48.9 12.836-17.965 18.748 11.879 8.2878-20.302 12.355 4.6886 16.89-5.101 17.666-37.282 9.6926-48.652 8.7296-26.817-7.4329-43.905 18.968-64.199 2.4656-9.0848 11.916-53.455.88443-37.938 6.7714-16.756-1.357-36.127-19.226-42.232 4.4626-11.359.68473-19.196-31.655-27.574-4.9462-32.352 27.803 69.438 8.208 36.766 20.416 27.248 6.0486 60.192 9.671 89.872 14.147 38.37 7.1009 73.64-7.408 109.79-11.234 10.761-.29741 32.016-5.3061 50.383-9.1915 5.7069.76474 22.75-3.5532 34.894-6.1277 39.764-3.8441 81.219-6.8754 111.76-25.021 20.538-9.1874 13.649-18.15.5768-25.021 11.289-13.188 32.023-17.93 53.545-24.221 12.41.0671 37.235-15.473 35.306-15.609-20.559 6.8519-74.159.33713-34.723-14.298 14.936-9.4209 35.455-17.649 48-33.702-13.513-5.8041-44.05-23.967-57.77-5.617 26.97-14.223-33.725-6.5496-12.698-15.83-18.645-9.2068 30.188-26.535 26.116-41.435-27.653-5.7664-64.881 2.4284-88.413-9.6292 13.701-10.272 34.208-19.999 48-26.662 10.236-5.1382-31.233-7.5952-6.2205-15.21 4.8462-7.7774 38.07-11.339 15.646-18.866-16.905-3.7707-21.567-15.183-.2344-15.857 41.422-6.5873 86.559-4.3154 117.44-26.547 27.649-20.228-43.158-5.535-27.568-27.727 8.0832-4.0469 29.666-21.571 11.66-15.939-35.127.30629-19.458-11.568-2.4681-19.878 3.1072-15.741-55.028 9.7262-26.824-13.058 27.154-8.7542 43.527-23.714 71.623-34.723 8.5325-12.713 29.704-8.3715 30.776-24.511-28.358 2.8272 8.7121-24.646-15.319-25.532-16.224-1.7109-44.603-13.247-8.1702-14.601 19.147-12.566 57.386-4.6314 71.489-22.165-13.226-.58652-24.767-9.8971-9.417-18.383 19.529-11.065-13.031-7.7-1.8171-18.383 16.904-14.931 39.659-39.928 58.213-59.234 16.108-23.985 20.643 14.014 34.723 25.542 10.632 19.613 36.039 20.806 43.915 35.88-11.389 5.9363-35.312 8.1458-16.34 16.099 10.566 9.558 26.807 6.9261 34.723 20.07-12.711 7.5353-30.001 15.112-9.7702 24.451 25.562 13.475 50.774 18.173 76.153 29.459 7.7408 7.9691-34.433 17.942-2.9709 20.073 13.101 12.629-30.399 28.253-24.101 23.167-21.597 9.7724 21.722 23.95 19.924 17.684 28.828 4.4776 36.896 10.641 66.213 11.313 14.628-.50656 54.525-1.1126 32.851 16.124-18.295 7.6765-32.584 20.974-7.6131 28.176-6.6651 12.647-35.014 41.738-26.275 30.076-6.6803 9.1106-33.426 7.0432-29.823 17.214 23.724 8.3959 52.522 24.575 76.536 32.927 13.542 5.3746 24.99 23.172 2.4205 22.468-22.209 3.3721 10.362 18.613 12.328 25.532-4.2813 12.975-30.197 8.6006-9.1915 24.468-8.0581 3.644-27.224 9.9618-39.36 10.543 19.416 9.8994 41.333 27.126 12.237 40.564-12.554-5.418-18.632 23.31 7.3338 25.132 25.612 19.613-49.975 17.963-35.842 18.437-21.404.71181-10.514 62.095 5.5893 41.33 6.0177 8.0106 34.687 7.8938 24.365 25.399-30.62-.70131.3103 25.727 9.7484 34.989-.5364 18.033 30.562 37.936 15.419 46.713-12.219-.75762-38.286-21.916-40.34.43769-12.559 29.858-19.535 60.721-27.064 94.176-6.474 32.11-15.425 60.675-21.483 92.28-3.183 18.093-3.4215 27.805-9.7627 41.742-62.406 1.2702-133-.49141-190.37 1.1512zm-1518.1-5.1064c8.2706-2.4245-7.9502-2.1712 0 0zm1417.3-2.1032c61.86-5.457 138.7 1.1156 193.95-1.4874 11.698-7.4694 90.362 8.8321 61.479-10.707-14.513-1.0241-25.354-6.093-35.599-4.0851-16.382 3.1374-36.246-8.1722-8.1702-9.1915 22.411-4.8395 37.133-1.171 59.234-9.1915-37.606-5.437-78.222 1.9046-105.19-2.0426-62.771-2.0005-132.54 3.4146-178.64 0-22.852-3.9964-8.3682 25.769-3.6538 36.645 5.5319.0202 11.064.0405 16.596.0607zm-1145.7-1.9819c4.2574-2.3507-2.8627-2.2774 0 0zm-1577.7-5.1064c35.456-1.1906 78.747-.81905 116.05 0 25.21-.17064 65.247 7.5236 65.6-20.936 13.011-27.051-88.875-19.332-70.039-13.277-58.821 1.7477-124.62-3.4847-179.15 2.5532 17.921-6.1575 75.667 6.7355 41.277 9.9574-20.015-6.4414 8.2123 35.755 3.6596 13.678-23.024 9.7508-57.801-12.988-72.511 5.9818 30.772 1.5172 67.807-2.8953 95.116 2.0426zm2716.5-34.723c36.249-1.7447 49.895-.73363 93.482-2.0426 61.21-1.0702 134.31 3.0079 184.64-4.9137-34.792-6.0456-95.627-7.4561-73.208-3.0882-8.1961-33.625 46.591-6.5662 59.155-21.615 15.639-10.173-37.164 1.268-32.413-2.0426-22.906-2.9334-42.921 1.4278-70.723-1.2766-14.187 5.1752-39.56-12.459-34.298 18.784-15.019 8.6203-8.8299-31.865-36.481-19.55-34.238 2.9004-72.459 2.3343-101.46 0-30.49-6.6543-8.5814 24.71-8.0972 35.745 6.4681-2e-5 12.936-5e-5 19.404-7e-5zm-2644.6-8.7042c37.332-1.9901 80.845 3.5073 114.53-3.2958 19.84-26.909-3.744-30.937-33.561-26.809-26.035 25.815-17.18-7.4066-53.392 2.0426-21.513 1.6992-42.08-7.2659-55.952 2.5532-17.884 23.226 1.5505 30.752 28.377 25.509zm-94.979-.48727c30.761 11.972 76.98-10.756 41.587-29.617-29.958 1.4564-116.07 9.358-90.438 3.0638 15.437 1.4026 25.892.4039 24.267 3.5015 16.239-9.8865 47.818 14.361 11.897 9.7751-11.033 5.7954-29.377-.0159-40.93 13.277h53.617zm-50.553-26.553c.68924-2.9216.34305.01 0 0zm2765.9-5.186c13.62-.51931 43.647-2.2535 53.022.0796 37.123-1.3871 65.24-1.877 111.46-2.0426 43.591-.5924 90.023 1.655 130.51-2.0426-15.581-16.701-46.503.87221-56.263-13.422 25.146-8.0697 47.653 6.1611 65.613-8.7903-50.171-8.1369-124.23.83755-169.27-5.3617-30.172 9.7476-60.774-4.7942-90.856 7.9149-20.774 12.596-52.812-8.6622-35.101-7.9149-9.0473-2.0738-14.153 23.812-19.83 12.851 2.7257 6.4284.9057 15.723 10.724 18.729zm-2573.4-4.8894c25.052-9.9104 81.831 13.964 84.255-20.563-11.472-18.99-114.92-9.4673-88.534-6.1277-49.121 1.488-118.26-2.237-150.62 0-13.199-.16943-71.189-2.3716-36.596 8.1702 13.749 8.4595 51.658 28.009 61.369 7.1489-15.884.76267-78.684 6.9223-28.927 9.1915 56.885 1.196 104.22-.80506 159.05 2.18zm2657.4-31.592c26.304.5203 61.291 5.2482 56.681-24.715 8.8375-27.785-40.005-16.722-64.075-18.531-18.187-5.6917-24.304 27.899-21.056 7.8078-11.95-17.259-46.746-7.1488-64.997-8.6808-17.86-2.5993 24.053 45.078 5.8683 43.953 29.193.40195 58.384.5707 87.578.16694zm163.91.0145c25.224-3.256 68.356 3.8559 83.234-7.3682-20.914-6.704-50.11-1.3959-72.511-2.0426-16.718 4.3731-21.084-14.638 8.5611-7.0683 52.77.60509 12.559-13.94-15.626-8.8707 4.3182-22.172 99.422-30.222 79.916-13.678-22.128-12.413-69.45-1.4517-100.88-5.0879-26.08 5.9308-80.045-16.021-76.647 19.385-8.8002 44.604 59.68 11.606 81.958 24.812 3.9164 1.1952 8.0022-.0862 12-.0815zm-2809.5-2.2618c23.933-5.1675 54.002-5.6244 73.334 0 7.524-13.396 15.643-35.015 16.478-53.106-60.072 2.7516-112.17.77377-169.53.95246-10.559 4.0977-.9829 40.093-18.383 28.81 1.2366-23.589-2.2925-37.102-.7842-26.417-38.122-6.3192-82.419 1.73-124.98-1.3032 17.476 12.769 46.815 11.369 68.453 9.3689 36.844 9.5258-40.116 9.0824-25.626 9.0228-26.326-4.8338-46.175 6.1115-11.502 10.013 30.89 8.5777 5.6961 1.5294 29.508.19138 8.4698 5.6313 11.902-1.8176 26.122 2.9179-16.862 14.967-114.21 13.662-90.878 7.2948-6.4615-.0568-13.518 14.225-1.0369 9.1915 47.588 4.599 112.1-5.9715 152.17 1.0213 24.482-2.7856 48.657-.4879 76.656 2.0422zm-139.98-14.298c5.0242-5.3009-4.7618-11.442 0 0zm2680.1-33.763c47.754-5.9262 116.24 1.3109 151.91-1.9819 19.361 3.5218 32.009-2.0006 64.886-.6314 47.747-.64684 96.017 2.1373 143.46-.52752-9.8262-13.776-24.127-3.1-38.729-8.0407-54.028-2.9706 39.244-5.3273 29.538-7.1407 28.45 2.2379 40.573-15.951 9.1915-9.1915-55.011-3.8849-135.43-2.2012-197.73 0-31.279-.1984-65.93.76546-85.163-2.0426-23.477 3.373-66.08-4.7014-87.83 5.99 11.22 1.8817.2001 19.028 10.466 23.566zm-2721.4-12.195c69.701-.68358 126.67-3.2553 196.09 0 25.175-5.8396 94.356-31.698 81.191-11.234 7.5628-8.2527 4.6098-30.45-8.8516-17.872-108.9-.68191-211.67 1.535-316.97.51071-41.246 15.442 125.95 5.8688 73.844 9.1501 53.778 11.357-84.122 7.2173-65.35 8.6005-13.686-7.703-42.326-3.6247-21.668 8.8026 16.265 4.5985 42.094.79415 61.718 2.0425zm2150.8-17.362c28.772-8.0539 50.468-10.863 74.48-20.426 16.568-4.1183 47.575-13.676 27.307-30.638-17.115 4.4947-38.045-9.543-63.489-8.2841-14.233-9.098-61.444-10.884-39.319 14.687-2.2516 7.4305-12.114 42.888 1.0213 44.661zm768.26-7.1878c14.918-4.1606 55.198 4.7514 39.064-17.416-16.698-19.434-29.042-55.426-52.402-42.427 4.0512 24.186.8974 38.584 6.9552 59.804zm91.222-2.0037c35.021 7.7819 25.922-16.238 5.4976-23.954-21.028-29.287-48.976 26.995-13.899 23.953l7.0696.00019zm-364.67-30.638c27.409-9.5834 54.933-22.29 83.745-40.96 7.6993-15.267 26.734-11.79 13.277 4.7647-6.2738 8.041-15.086 26.872-11.234 28.025 24.362-7.0542 44.531-16.287 65.289-27.574 4.5528 10.809 2.2965 37.491-1.3992 35.745 22.072-17.006 46.595-18.531 66.834-36.182-4.9783-13.476-20.891-37.465-13.176-45.52 14.521 6.2797 22.457 25.558 28.43 3.6807-.07-20.542 22.818-22.356 19.086.65973 1.6875 18.312 8.2028 24.987 20.809 6.687 8.913-4.5452 21.115-31.997 29.617-16.886-4.5152 11.846-33.362 32.698-11.731 37.56 13.934 7.2222 46.339 34.622 39.306 2.876-9.462-10.654-7.6416-34.792 9.3026-18.748 11.66 17.061 7.6476-16.599 19.877.51063 10.059 12.812 25.505 25.619 35.216 9.4531 14.61-4.3919 30.373-8.5653 29.562-22.73 2.2968-13.113 4.7477-44.445-7.1489-28.596-16.334-3.8552-29.724 23.817-40.851 7.9684 28.305-22.028-37.375-.29287-16.647-19.202 12.624-10.399 37.242-19.812 41.157-32.681-10.038-24.433 44.495 1.0088 29.617-32.518 5.8808-26.978 26.331 28.578 35.234 15.483 16.057-30.944 32.776-6.4471 32.17-25.739-16.882-15.948-39.735-26.105-63.59-31.779-11.221 18.802-34.09-20.036-40.739-.30449 6.482 17.129-19.153-13.034-13.118 1.8364-11.837-17.837-14.283-7.5044-9.1915 2.5532 12.09 16.292-15.344 15.998-7.1489 39.24-10.225 5.2536-26.907 20.711-43.321 22.438-4.5721-18.354 22.354-32.951 16.986-50.444-9.8916 9.4173-39.405 11.53-15.803-6.7911 18.935-20.223-15.355-21.351-19.631-19.416 22.639-10.769 46.894-6.4943 34.348-43.48 5.4335-20.523 18.167 20.13 28.544 21.686 16.792-21.098 23.717 8.4242 31.693 5.9839 16.54-17.162 19.882 6.7337 33.568 10.357 1.1891-16.712 19.157-16.634 23.635-.90149 4.9713 18.47 39.452 20.127 49.896 8.0893-25.819-11.015 28.977-12.904 7.5183-23.528-18.179-3.6722-26.355-29.432.7971-25.532.058-15.68-32.264-12.745-42.469-26.553-14.892-.98834-27.567-14.515-35.197-18.495-14.855 2.8428-38.285-22.366-49.118-4.9947-26.102 11.765 10.286-28.081-19.234-14.199-10.835 7.0227-35.623 9.2787-17.039-7.4689 18.923-14.736 14.635-21.647 17.89-39.609 12.696 8.5503 14.923 25.029 29.532 11.234 10.473-2.7556 11.342 25.579 24.689 6.1277 17.23.18531 30.367 26.66 45.865 20.571-15.934-16.272 22.775-27.762 14.882-23.198-9.9163 4.0857-22.622-18.974-3.6482-19.842 30.102-22.222-20.824-13.555-35.745-17.515-28.148-6.2574-58.776-14.854-84.766-26.538 2.7434-17.007 36.31-9.9652 31.66-27.437-14.574-.0644 2.2658-25.014-3.9475-17.362 22.588-4.318-17.989-12.953-25.601-16.34-16.533-8.9717-39.149-15.625-53.175-28.742 7.8394-9.4993 32.841-16.882 11.235-23.454-16.512-4.11-46.893-28.348-9.1914-31.695-16.097-8.7872-37.733-28.162-35.791-35.599-12.961-4.9706-14.593-35.389-27.528-10.132-19.724 16.252-32.04 34.401-50.042 49.889 15.711-2.7758 23.652 11.62-.1459 18.456-3.9504 8.1027 29.878 24.88-1.2831 28.855-20.336 6.3813-45.108 4.5856-60.869 16.411 13.511-.2102 38.017 7.6232 16.34 21.118 2.2053 10.922 34.556 9.0301 10.949 20.426-30.392 17.67-62.113 33.934-93.672 50.918 7.1557-.24941 44.378-2.4849 11.213 17.508-18.326 13.803 18.736 3.1284 22.489 4.0851 9.701 13.865-23 19.883-26.553 32.681 13.823 2.1946 58.641 1.3745 29.868 23.269-23.037 17.421-52.156 22.387-80.932 26.774-13.87-4.009-31.779 9.267-39.72 9.1915 7.9359 2.3311 26.233 13.543 7.5503 16.34-18.562 5.4358-28.294 13.706-1.5326 16.507-8.72 13.041-32.528 14.458-43.915 24.344-25.45 8.0388 23.89 8.1864 33.987 9.1915 31.065 5.7248 40.022-3.1099 48.736 9.1915-7.7604-9.1511-5.9435 10.324-20.504 14.219-24.602 20.485-14.702 22.115 17.44 18.462 3.1092 13.86-36.258 24.607-4.5958 24.511 22.424.85213 48.683-2.8414 59.791-20.426 8.6407-6.7383 34.065-21.085 20.89-1.9442-20.36 21.334 24.421-20.972 17.345-5.9707 20.208-6.3116-10.966 22.441 2.6626 26.298 10.356 10.398 34.728 26.465 12.162 22.468-5.3328 2.2084-25.132-12.261-31.587 5.1064-12.55-4.574-20.492-16.445-36.839-20.426-13.367 16.359-39.708 28.452-58.213 40.851 13.095 5.6947 78.73-13.054 36.766 14.436-9.3823 5.1622-28.639 12.79-44.353 17.224-12.421 5.2461-35.629 5.1819-32.389 18.383 26.134 3.5063 1.7637 17.526-8.5091 25.532-13.016 7.9064-32.797 11.223-45.665 21.331 27.196 6.5559 53.306-6.8092 76.788-12.139 1.9842 11.066-20.017 22.93-9.1915 26.553 15.316-2.8216 26.725-15.146 40.851-12.401 1.588 11.69-24.591 29.609-19.402 37.933zm-1262-4.1476c16.884.47204 21.486-22.384 31.404-34.445-21.221-8.4137-7.7168-21.701 10.213-19.751 15.796-11.779-5.5698-8.1151-6.1276-20.44 25.499-11.809-5.8118-26.697-18.383-23.343-32.327-1.4432-59.777-9.038-91.822-11.234-9.2119-8.678-19.68 2.8578-27.667-9.1915-8.7084 2.3709-58.906-3.9455-29.613 9.1915 8.5206 10.407 26.261 7.3314 31.656 24.511-17.807-3.8044-31.84-.96317-18.383 16.701-13.831 8.9464-20.055 15.61 0 24.15 21.178-4.5952 41.657-2.7305 62.298-14.205-4.0308-29.12 12.382-11.635 18.383-1.4675 9.9838 16.344 47.509 36.277 7.149 36.244 12.545 2.9322 14.132 21.861 30.894 23.281zm-420.34-2.3205c1.3754-4.6976-3.0155 1.3262 0 0zm-798.76-6.8085c5.2751-17.16 12.889-45.06 32.891-17.566 23.907 34.572 7.6105-21.781 27.828-24.463 15.218 13.655 31.148 21.696 48 32.837.77303-12.592-6.4546-33.599 7.8972-31.915 18.866 14.427 39.388 21.124 68.968 22.723-1.9418-18.409-22.179-24.489-18.433-42.894 35.053 7.7054-2.2972-39.935 8.6133-26.351 12.616-13.174 30.227-2.6377 39.26-10.415 20.941-7.8389-17.894-18.899-23.679-30.128-16.704-16.358-39.577-29.244-63.221-32.17-5.3654-19.528 41.267-11.942 20.469-27.574-17.884-9.5984-34.621-19.814-57.321-36.766-16.452 9.3606-33.387 31.376-50.513 27.11-9.6207-21.601-24.604 11.88-25.485 21.4-22.447.65719-3.477-26.171-21.391-27.225-47.648 6.3252 42.283-39.982 7.6039-14.136 14.794-7.7499 38.61-18.414 33.447-36.34 8.3334-7.6988-.2271-34.545 16.742-30.043 20.023 19.045 28.478 57.383 60.03 45.957 25.415.79341 65.99 7.8566 84.845-.99793-20.705-13.261-44.237-12.062-68.936-23.176 7.9231-11.497 38.383-16.561 13.277-21.784-19.472-5.5611-50.305-2.0576-58.723-17.508 24.094-1.3358 15.977-30.615 14.344-21.301 10.937-6.0768 45.042-11.817 26.507-21.427-26.887-12.506-60.558-36.085-88.851-54.147 14.464-10.903 32.557 1.2294 45.5-4.2968 12.059-.0909 23.834 6.4223 29.053-4.0752-13.995-12.026-39.384-22.417-17.362-35.626-10.45-6.7682-33.364-7.9952-36.766-16.257 14.293-2.5915 21.508-15.221 4.536-15.319-19.484-13.158-36.159-15.525-55.6-28.012 4.1829-8.4532 36.034-12.976 13.179-19.988-16.213-10.194-29.466-24.436-39.732-31.457-9.6965-9.0746-26.65-19.557-9.0244-28.798 38.259 8.728-11.893-24.714 6.7266-18.038 1.4139-5.5869-22.415-19.126-16.085-9.3905-7.2457-11.891-28.501-33.23-43.915-12.401-18.052 14.667-34.095 30.216-50.043 41.965 30.961 3.8819-16.843 29.907-5.1064 24.349-23.26 15.827-45.829 29.723-70.767 41.735 13.984 11.613 60.139 12.684 49.877 10.883 3.944 18.675-32.951 15.749-38.344 31.195-17.449 12.535-23.548 26.945-39.202 42.174 13.626 4.4104 68.348-15.775 45.451 9.7896-7.5282 5.6712-35.504 22.983-22.589 21.568 19.116-12.818 32.919-4.1971 17.362 13.277-10.1 16.575 19.269-6.1316 26.315-1.352-2.5192 15.431-20.402 35.919-26.315 50.373 13.148-1.1419 27.636 40.252 28.596 24.511-4.6382 27.666-41.362-26.375-41.362 7.1489-15.22 8.9598-21.352-26.633-28.085-22.561-10.969-13.712-19.821 21.909-28.596.0928 4.898-14.583-7.9326-37.081-19.404-19.688-16.605 3.1406-32.707 9.1511-42.894 19.688 10.17 1.5225 31.224 9.1531 12.766 19.358-24.363 2.3342-41.555 12.737-60.766 23.536 8.4139 6.4384 118.21 2.4703 59.155 16.34 26.842-2.1106 53.466-6.1876 73.381-11.963 24.345 4.2594-31.04 21.301-8.9615 25.239 17.224-3.2095 36.983 11.569 12.255 16.34-16.895 3.5268-31.261 13.515-39.83 29.392-14.224 13.632 29.36 20.813 7.1489 34.949-5.9631 10.948 19.408 29.654 0 29.617 12.714-15.053 3.4029 35.014 6.1277 27.137-1.3046 15.157-12.621 31.755-9.2644 43.331 25.952-12.854 53.247-35.07 78.627-58.131 16.655-20.826 19.332-5.567 18.467 10.131 7.0051-8.3108 36.656-7.2524 16.413 7.1489-16.726 5.6022-36.379 27.866-32.754 47.549-11.268 22.417 12.151 7.7204 22.219 4.8858 26.193-11.287 3.7175 30.534 30.887 10.042 30.452 4.8777 32.448-9.554 28.135-30.818 9.1831 5.1759 17.785 10.805 27.78 18.383 9.3842-10.19 12.461-34.724 29.435-34.286-2.9701 24.551 4.9187 40.702 21.884 17.945 22.586-1.6116-1.4562 15.616-2.038 24.507-22.661 23.598 31.885 34.884 39.361 56.174zm53.571-25.532c4.8111-4.2894-4.5174-6.9069 0 0zm1925.2-8.1702c8.8014-10.423 19.373-23.145 20.304-39.83-31.755-20.918-18.375 20.282-20.304 39.83zm-20.903-9.1915c32.224-1.6066-8.6165-39.967-8.8349-10.796-2.7084 7.1855-4.3182 12.996 8.8349 10.796zm30.995 0c5.0877-4.0496-4.6937-4.494 0 0zm598.28-119.53c13.361-6.5871-18.527-5.4542 0 0zm-796.41-43.876c8.2706-2.4245-7.9502-2.1712 0 0zm209.54-35.764c16.798-8.4938 14.254-27.793-10.395-18.061-.3283 6.8685 1.7973 16.545 10.395 18.061zm-44.024-12.236c15.293-17.984 10.531-38.177 15.246-65.508-8.8265-23.476-33.158-18.097-22.861 13.423.3025 14.214-6.4005 47.618 7.6146 52.084zm45.884-31.66c32.498-2.3195 23.328-64.776-11.818-59.234-19.14 4.7854 1.1331 70.295-.4377 54.128 3.653 1.9648 5.6153 6.0655 12.255 5.1064z" style="fill:#2e5d3a"/>
</svg>
