<?xml version="1.0" encoding="UTF-8"?>
<!-- Created with Inkscape (http://www.inkscape.org/) -->
<svg version="1.1" viewBox="0 0 1093.8 1615.7" xmlns="http://www.w3.org/2000/svg">
 <path d="m460.6 9.1915-2.0426-3.0638-1.0213 3.0638c-8.185.45005-14.849 4.3216-22.621 5.7391-6.2021 1.1312-12.923-1.2009-16.188 5.495l-19.404 4.0851v4.0851h-11.234v3.0638l-29.617 8.1702c-3.3227 4.956-7.6711 5.0509-13.277 5.1064v6.1277l-9.1915 2.0426-15.319 14.298-18.383 8.1702v5.1064l-11.234 9.1915c-7.5813 2.6823-14.5 5.2309-17.362 13.277l-20.426 13.277-5.1064 7.1489c-4.9944 9.873-11.574 16.452-21.447 21.447v5.1064l-18.383 11.234c-3.7621 16.991-22.085 25.437-24.511 42.894-9.0779 3.6673-12.49 15.48-13.277 24.511h-5.1064l-8.1702 26.553h-3.0638l-8.1702 29.617h-3.0638v4.0851l-11.234-4.0851-5.4295-18.688-2.7407-26.248h-7.1489c-3.6706-15.132 2.8295-26.223 4.0851-40.851h3.0638l11.234-20.426c8.9291-1.5342 15.264-6.0404 22.468-11.234 4.2733-10.469 4.2733-18.127 0-28.596h-3.0638c-2.5806-7.7633-7.7225-12.483-15.319-15.319v-3.0638h-18.383v3.0638h-4.0851v4.0851h-7.1489l-8.1702 15.319h-3.0638v7.1489h3.0638l-3.0638 5.1064c4.2826 4.1095 9.8181 12.937 8.5398 19.256-.95133 4.7025-4.799 8.3133-5.476 13.425h-3.0638l-8.1702 24.511c-8.9046.45416-20.288-14.229-24.511 0-6.6598 3.9664-6.1501 10.272-7.8714 17.053-.9115 3.5912-2.5446 6.8876-3.3627 10.521h-3.0638l-8.1702 26.553h-3.0638c-1.8452 8.2466-7.056 13.076-13.277 18.383v2.0426l2.0426 6.1277h3.0638v7.1489h-3.0638v11.234h3.0638v37.787h-3.0638l-2.0426 18.383-6.1277 8.1702c-11.707 7.9022-19.881 17.517-14.298 31.66l7.1489 2.0426 7.1489 7.1489 19.404 33.702h3.0638l8.1702 49.021 16.34 2.0426v3.0638l15.319 4.0851h2.0426v-2.0426h2.0426l16.34 9.1915c9.3105 2.0255 18.302 6.3395 22.468 15.319l15.319 6.1277 2.0426 9.1915 15.461 15.717 12.114 17.985 8.1702 22.468c6.1631 4.7177 9.4011 13.056 11.234 20.426l14.298 13.277 25.953 32.795.65339 18.306-4.1379 50.006h-3.0638c-4.4688 10.814-7.7867 21.945-8.1702 33.702h-3.0638l-8.1702 35.745h-3.0638c-4.5989 11.219-7.7739 23.596-8.1702 35.745h-3.0638l-2.8894 17.319 2.8894 11.277h-4.0851l.33271 26.393 1.7098 25.692h5.1064c.0384 8.8496 2.9909 15.516 5.2411 23.871 1.3601 5.0497.78759 9.3357 5.9929 11.874 3.1572 8.7188 8.7817 16.519 17.362 20.426l7.1489 13.277 13.277 6.1277v3.0638l25.636 7.7051 21.342-5.6625v-5.1064h4.0851v-4.0851l7.1489-2.0426 7.1489-9.1915 8.1702-20.426c10.768-5.0424 7.3386-20.522 16.34-26.553l8.1702-33.702h3.0638c.0879-9.1566.057-18.745 8.1702-24.511v4.0851h3.0638l1.5853 25.715 5.5415 18.671 1.0434 16.891h3.0638l4.5132 66.137 3.4273 15.66.2297 29.522c6.0328 3.5729 3.621 7.5551 3.1522 13.337-.5984 7.3818-.0997 15.002-.0883 22.407.005 3.417-.44544 6.6799 2.0424 9.1916v2.0425l.7735 29.999-.34723 14.836 5.7014 24.612h3.0638l6.1277 22.468h-4.0851c.93092 6.8697 3.4667 13.546 3.9579 20.473.492 6.9369-2.2233 16.742 5.2336 20.378l4.8895 52.665 5.3233 32.101h3.0638v5.1064h-3.0638v8.1702h3.0638l1.144 15.369.89851 16.291v2.0426l-2.0426 9.1915v15.319h-3.0638v29.617h3.0638v13.277c-6.2395 3.0408-6.802 12.073-7.1489 18.383h-4.0851l-7.1489 6.1277-6.1277 22.468c-5.3233 2.5957-4.3329 6.8544-6.1652 11.807-1.7082 4.6169-4.5126 7.6148-5.0689 12.704l-19.936 17.162-22.957 5.3063v3.0638c-13.618.4352-23.582 4.7773-35.745 10.213v5.1063h-5.1064v6.1277h-4.0851l-2.0426 5.1064v2.0425l4.0851 4.0851h-4.0851l-2.0426 3.0639v2.0425l25.532 9.1915 2.0426-3.0638 1.0213 3.0638h31.66v-3.0638l37.787-2.0426v-4.0851l20.426-2.0425-9.1915 11.234-30.291 2.6584-18.756 3.4057-41.832.025-23.505.038v7.1489c40.491 11.22 82.833 3.5173 123.57-2.0425 2.3931-7.6398 4.2727-14.574 2.0426-22.468h7.1489v-3.0639h26.553c3.7862 6.4472 10.902 17.844 18.745 19.332 9.6933 1.8387 20.369-4.7571 30.276-5.034v-3.0638l27.574-6.1277 8.1702-35.745h3.0638l4.788-27.261 3.3822-44.228h5.1064l.17142-32.609 1.6137-20.379-1.7851-49.14 2.0426-26.553v-2.0425c-4.2594-12.855-2.0467-28.474-2.0422-41.872l-.00037-63.319c0-14.346.83452-28.77-2.0426-42.894h-3.0638l-2.0426-51.064 2.0421-19.405.00043-27.574-.13214-72.433-3.4966-18.659-.45641-23.291h4.0851v4.0851h3.0638l8.1702 38.809h3.0638c.74245 8.3705 4.4293 15.361 6.296 23.354 1.2898 5.5234 1.4189 11.722 6.9806 14.433l-3.0638 4.0851v3.0638h3.0638l.31205 14.071 3.6596 6.383 3.5745 20.624 3.6879 11.007-3.0638 1.0213v11.234h3.0638c.008 7.5638-1.3378 16.182 6.1277 20.426l-2.0426 2.0425v2.0426l2.211 26.455 1.8741 25.63h3.0638l8.1702 58.213h3.0638v4.0851h-3.0638v7.1489h3.0638c2.3825 17.205 1.4089 34.714 8.1702 51.064v2.0426c-5.0656 13.292-.28524 30.153-.0384 43.93.47542 26.531.0389 53.109.0384 79.644-.00012 6.0703.1905 12.19-.305 18.245-.444 5.4267-1.5892 10.2.305 15.457v2.0425l-.30799 19.538.30799 23.356h3.0638c0 15.589-2.9837 34.506 15.319 39.83v3.0639l26.553 8.1702v3.0638c9.8938 0 21.042-1.6907 29.617 4.0851h2.0426c7.6496-1.9622 13.265 1.9968 20.426 4.0851v3.0639c19.243 6.1484 35.566 18.108 56.17 19.404v3.0638c6.265.8282 12.31 2.9495 18.572 3.7699 9.4732 1.2409 19.859.5724 29.402.2756 6.2796-.1954 15.399-.9321 18.409-7.1093h5.1064v-6.1276c-12.708 0-28.87-2.6871-40.851 2.0425h-2.0426c-7.7157-5.1691-18.576 1.7026-24.511-7.1489-10.499-.2358-26.933-2.416-33.702-11.234-8.0757-2.2889-14.788-4.7713-20.426-11.234l-15.583-4.7379-11.917 1.0748-21.521-.422c.20951-6.8064.74452-11.894 7.1489-15.319v-3.0638h15.319c4.0741 7.8266 13.688 5.6589 20.696 8.8152 3.8517 1.7348 6.645 5.0686 10.246 7.2173 3.947 2.3555 8.4447 3.3969 12.417 5.611 2.8778 1.604 4.992 4.2214 7.9376 5.7385 6.2707 3.2296 15.24 5.6175 22.235 6.3201v3.0639l27.574 6.1276h11.234l19.998-2.7536 8.5979-6.4379v-2.0419l-6.1276-9.1915c-5.5948-2.4605-8.4902-5.8461-11.234-11.234l-20.426-8.1702-15.319-14.298c-17.289-7.1692-22.083-24.552-22.468-41.872h-3.0638l-8.0844-53.141 2.1181-98.963 3.6051-17.612.31697-34.538-2.0164-30.649-.17216-70.371-3.7276-19.579-.20994-49.955h-3.0638c0-31.684-1.3261-62.99-8.1702-93.957h-3.0638v-11.234c5.2286-1.4558 12.043-3.9549 14.298-9.1915 10.636-.067 20.921-2.1685 31.655-2.0287 5.2748.069 10.202 1.4895 15.415 1.8806 8.0538.6042 15.609-.2803 23.504-1.6053 7.4493-1.2503 19.543-2.1038 23.383-9.4806 6.908-2.7929 13.119-7.0849 17.362-13.277 6.0751-2.049 9.1851-5.1589 11.234-11.234 5.8428-2.3602 7.3128-6.5672 10.488-11.633 7.0107-11.185 11.428-22.28 14.023-35.346h3.0638l4.0269-54.093-4.0269-39.865h-3.0638l-4.5428-22.194-2.2269-20.345-3.4431-24.865c-5.5073-3.6925-4.6927-8.9308-5.9233-14.86-2.8516-13.74-5.3108-27.263-5.3108-41.31-5.9157-3.9663-4.5504-9.6936-5.7312-15.982-2.62-13.954-9.0436-38.903 5.7312-48.358l2.0426-9.1915 28.596-26.553v-3.0638l20.426-10.213c4.6105-6.5694 16.794-10.102 24.511-11.234 3.8361-5.7215 8.919-4.3156 14.914-5.8043 7.4564-1.8516 14.947-5.3119 22.841-5.0964 7.4726.20402 18.687 6.3374 25.591 2.0964 2.5586-1.5716 3.9652-4.4342 5.3864-6.9642 1.2403-2.2077 2.1064-4.2586 2.7569-6.6996 11.994-8.0952 18.688-19.305 33.702-22.468v-3.0638h5.1064l8.1702-24.511h3.0639l4.6906-12.029 6.5434-12.482 4.0851-13.277c19.169-7.4175 7.4936-30.028 7.1489-44.936h-3.0638c-1.0597-5.676-2.4803-9.7655 3.0638-13.277l6.1277-37.787h5.1064l.3518-14.529-11.586-13.046h-7.1489c-2.1324-4.4677-4.5266-6.5348-9.1915-8.1702-1.7845-5.3198-4.3675-8.3906-9.1915-11.234-.3247-4.9304-2.0746-8.873-3.4035-13.554-1.7105-6.0247-1.7145-12.879-7.8305-16.063v-4.0851l-11.234 4.0851c-1.1293 5.1397-4.7646 16.669-11.396 17.127-6.9237.47872-9.4758-12.366-10.051-17.127h-3.0638l-8.1702-26.553h-3.0638l-8.1702-24.511h-3.0638l-8.1702-22.468h-3.0638v-7.1489h3.0638v-37.787h-3.0638c-4.8576-14.587-18.967-14.309-32.029-12.054-5.3067.91594-11.131 1.7197-15.382 5.3202-4.7487 4.0218-6.7588 9.9993-7.7379 15.926h-3.0638v17.362h3.0638c1.6378 8.7155 8.0583 11.895 13.277 18.383 9.3324.42238 19.572.93339 22.468 11.234l11.234 11.234 8.1702 22.468h3.0638l2.0426 8.1702h-5.1064v3.0638h-4.0851c-3.1928-6.5479-12.126-6.5479-15.319 0l-16.34 4.0851c-8.2042 20.097-5.006 44.302 18.383 51.064v3.0638h13.277l18.383-11.234 2.0426-7.1489h2.0426l3.1191 20.098-7.2042 24.838h-3.0638c-4.9079 9.8293-13.745 16.141-22.468 22.468-.009 12.016-1.9423 22.418-6.1277 33.702v2.0426h2.0426v2.0426l-6.1277 18.383-8.0566 9.776-10.326 7.5856c.00019-10.028 2.0288-19.642 2.0421-29.617.009-6.6316-.98269-13.279 5.1068-17.361v-17.362h-3.0638c0-15.571-2.7669-30.607-3.9967-45.985-.45871-5.7361.29066-11.538-.17678-17.273-.4915-6.0304-.81115-18.083-7.0605-20.486-.0536-8.5136-2.3079-16.201-4.0859-24.462-1.1557-5.3696-1.9583-10.623-7.1482-13.325l-8.1702-28.596-10.797-17.354-11.672-23.497h-3.0638c-2.3254-8.1626-6.2781-15.41-13.277-20.426l-11.234-13.277-8.1702-15.319-25.518-26.555-19.418-22.466-16.34-11.234v-3.0638l-30.638-19.404c-3.7186-6.86-14.039-14.031-20.724-18.034-4.1498-2.4849-8.0513-3.386-10.936-7.4983l-18.383-6.1277v-4.0851h-4.0851v-3.0638c-8.5693-2.6714-18.558-4.043-24.511-11.234l-19.092-4.8324-12.567-6.4017-18.722-2.9988-12.348-.65064-25.1-4.5208v-3.0638c-3.9512 0-8.3282.53794-12.227-.11345-2.1983-.36727-3.9263-1.6954-6.1844-1.9007-6.0155-.54679-12.363.85447-18.326-.14187-2.1982-.36727-3.9263-1.6955-6.1844-1.9007-13.848-1.2588-30.011-1.2588-43.858 0-2.9136.26479-5.1944 1.9018-8.1986 2.0141-4.9519.18513-10.347-.74077-15.234.11345-2.5899.45267-4.4905 1.8265-7.234 1.9291-4.9495.18501-10.258-1.5229-13.277 3.0638m32.681-3.0638v3.0638h-5.1064v-3.0638h5.1064m25.532 3.0638h1.0213l39.717 2.706 12.614 2.854 30.392 2.6102v3.0638l54.128 8.1702v3.0638l26.553 8.1702 19.281 11.227 10.431 6.8024 19.28 11.468 11.263 9.3104 31.66 19.404 13.277 14.298 38.809 30.638 6.1277 7.1489 8.9232 12.541 18.651 23.204 8.1702 15.319 7.9847 11.928 5.2919 12.582 14.298 18.383 8.1702 29.617c4.6479 2.4015 5.7644 6.4846 7.1421 11.301 2.2326 7.8051 3.9108 16.323 4.0919 24.444 5.9537 2.903 4.9146 9.1132 6.1275 14.86 2.1804 10.332 2.4396 21.546 3.191 32.071.37157 5.2054 1.8224 10.101 1.9156 15.366h3.0638v42.894h-3.0638l-2.6708 48.675-5.4994 36.091h-3.0638l-8.1702 37.787h-3.0638l-8.1702 27.574h-3.0638l-8.1702 22.468h-3.0638l-10.213 24.511-11.234 17.362h-7.1489l4.0851-26.553c5.5767-4.717 9.1715-10.364 11.234-17.362h3.0638l10.213-29.617h3.0638l8.1702-26.553h3.0638l8.1702-40.851h3.0638c.0388-14.64 4.1599-29.493 5.9498-43.976 1.0359-8.3813-.41938-16.999.26623-25.41 1.0262-12.591 2.8948-24.952 1.8658-37.82-.25482-3.1861-1.6064-6.0976-1.8658-9.2799-.52603-6.4544-.17285-12.276-1.6189-18.634-1.7109-7.5222-.82966-15.701-2.2378-23.378-.94653-5.1601-.44543-9.1073-5.4232-12.055-.41433-6.7048-2.4194-13.091-3.6327-19.673-1.251-6.7868-1.5317-13.854-7.6014-18.114l-8.1702-26.553h-3.0638l-10.213-29.617h-3.0638l-8.1702-17.362c-5.4978-2.8606-10.063-12.424-11.234-18.383l-22.468-22.468v-4.0851l-42.894-35.745-9.1915-11.234h-2.0426v2.0426h-2.0426l-2.0426-7.1489-16.34-8.1702c-4.5911-5.9758-10.386-8.747-17.362-11.234l-16.34-14.298-24.706-12.766-15.124-9.7019-33.702-10.213v-3.0638l-54.128-8.1702v-3.0638l-37.791-2.0333-59.196.07667-23.524 1.9567v3.0638l-52.085 8.1702v3.0638l-35.745 10.213c-3.7612 5.9309-8.5458 8.0179-15.319 9.1915v5.1064l-20.426 8.1702c-3.303 5.5583-9.2889 7.648-15.319 9.1915v5.1064h-7.1489v4.0851l-2.0426-2.0426h-2.0426l-7.1489 9.1915-15.319 8.1702v3.0638h-7.1489c-4.0121 9.3467-12.742 18.222-22.468 21.447-4.5929 7.9732-11.944 14.784-20.426 18.383v4.0851h-4.0851l-6.1277 14.298c-6.2496 2.5942-11.83 6.8573-15.551 12.603-2.2976 3.5485-3.3768 7.7147-5.8717 11.153-8.6832 11.965-20.231 21.401-23.514 36.5h-5.1064l-6.1277 24.511h-3.0638l-8.1702 26.553h-3.0638l-10.213 46.979h-3.0638l-2.4891 25.26-3.5281 16.657 1.8091 35.772.12297 53.034h4.0851v13.277h3.0638l4.6574 31.433 5.5554 21.673h3.0638l8.1702 27.574h3.0638l2.0426 11.234h4.0851l2.0426 11.234h3.0638l8.1702 22.468c5.9984 3.7121 9.0066 8.7317 11.234 15.319 5.9 3.712 8.8509 8.8932 11.234 15.319l11.234 5.1064v6.1277h3.0638v11.234l-3.0638 3.0638h-4.0851l-7.1489-7.1489-19.404-26.553h-3.0638v-7.1489h-4.0851l-7.1489-11.234-8.1702-22.468h-3.0638l-8.1702-20.426h-3.0638l-10.213-39.83h-3.0638l-8.1702-42.894h-3.0638l-3.654-22.715-.60255-18.064-1.8615-22.546 1.4919-26.514-1.1297-21.275 3.0912-13.755 2.6646-29.345h3.0638l8.1702-42.894h3.0638l10.213-31.66h3.0638c.22228-6.486 3.3037-9.8485 5.2863-15.665 1.619-4.75.94412-8.4484 5.9477-10.888 2.2559-7.0144 4.8455-13.272 11.234-17.362 3.563-14.492 14.831-23.784 23.44-35.22 6.5104-8.6481 10.453-17.3 21.497-20.951v-3.0638c9.0455-4.8335 15.125-12.23 19.404-21.447h5.1064l6.1277-7.1489v-4.0851h5.1064l11.234-14.298 17.362-8.1702c6.7638-10.593 18.367-16.004 28.641-22.365 6.9439-4.2993 12.179-9.44 20.38-11.337v-3.0638l27.574-10.213v-3.0638l24.511-8.1702v-3.0638l46.979-8.1702v-3.0638l38.983-3.7769 29.442-4.3933m83.745 30.638v3.0638h5.1064v-3.0638h8.1702v3.0638l15.985 4.6732 24.866 5.5396c8.2433 9.9776 21.879 9.1885 33.702 9.1915v2.0426h-9.1915v5.1064l20.426 6.1277v3.0638c5.9473 1.811 14.303 5.6548 17.362 11.234l33.702 17.362v5.1064l16.34 8.1702 17.362 16.34h5.1064c5.8101 9.3848 15.698 16.098 24.511 22.468l6.1277 13.277h5.1064l6.1277 13.277h5.1064l6.1277 9.1915v6.1277h5.1064l8.1702 22.468c7.6055 4.9034 9.3644 12.004 11.234 20.426h3.0638l10.213 29.617c5.566 2.8758 6.2582 8.4743 7.544 14.152 1.8428 8.137 3.6787 15.211 3.69 23.636h5.1064l5.8194 48.175.25002 65.152-1.8985 20.495-.73491 27.181-5.4786 24.869h-3.0638l-8.1702 35.745h-3.0638l-10.213 31.66c-10.079-4.2287-4.7418-14.298-3.0638-22.468l6.5744-12.462 6.7022-17.155h3.0638l5.4283-22.377-5.4283-15.411-18.383-15.319-11.041-12.116 1.2275-15.329-7.5486-17.491-9.1915-11.234-16.34-2.0426-13.277-7.1489h-2.0426l-8.2309.17765-23.186-1.6056-11.476 12.662-8.1702 29.617h-3.0638l-2.0426 19.404h-6.1277v-17.362h-3.0638v-5.1064l7.1489-2.0426 4.0851-26.553c7.3925-4.9563 7.3926-19.554 0-24.511-1.3942-8.0608-3.5382-16.423-11.234-20.426-2.8966-12.039-13.77-19.492-23.544-25.952-7.9625-5.2628-13.949-9.5158-23.435-11.835v-3.0638l-23.044-6.691-10.906-7.9125-13.028-7.8645c-9.664-2.0454-24.281-7.116-33.641-2.1787-9.3324 4.9228-13.562 16.973-22.529 22.604-2.3146 6.9537-6.3228 10.962-13.277 13.277l-.49456-22.421 9.686-11.281c8.2916-2.4932 15.728-6.7578 21.447-13.277l1.0213 3.0638h11.234v-27.574l20.426-6.1277 8.1702-18.383h3.0638c1.9525-5.6842 7.5096-11.095 7.2366-17.294-.2231-5.0675-4.4241-8.2815-5.776-12.914-2.3864-8.1776 3.1471-19.359 9.7734-23.92l8.1702-19.404 14.298-17.362-3.0638-1.0213c-5.0071-10.334-16.227-13.98-26.553-17.362v-3.0638l-20.426-8.1702v-3.0638l-28.596-8.1702v-3.0638l-24.908-7.1489-7.773-4.0851-1.0213 3.0638h-7.1489v-3.0638l-20.52-1.748-11.158.15895-6.7726 12.425-3.4215 39.207h-3.0638l-6.1277 24.511c-4.3823 0-9.9527-.9193-14.156.42549-12.048 3.8546-3.3265 16.848-2.4066 24.203.4239 3.3897-2.029 5.4133-3.1537 8.3216-1.5512 4.0113-.621 7.5322-4.7943 9.9432v2.0426l11.234 6.1277v22.468h-3.0638l-8.1702 42.894-7.1489 7.1489-20.786 7.5294-20.159 2.4593-13.182 11.458c-3.2238 9.2309-10.355 10.903-19.404 11.234v3.0638c-15.538 4.4976-27.305 15.632-38.451 26.953-4.185 4.2505-6.6068 9.3807-11.592 12.877l-2.0426 9.1915h-4.0851c-2.8786 6.5231-6.9025 13.829-13.277 17.362l-14.298 20.426v63.319h3.0638c.001 5.666-.33015 11.503.56952 17.116.7465 4.6582 2.6939 8.9903 3.197 13.706 1.708 16.012 1.767 32.678 2.4837 48.786.50079 11.255 5.5802 24.788-9.314 27.625l-4.7074-53.333.22814-25.137-3.1946-13.731-2.539-31.374h-3.0638v-11.234h-11.234l-4.0851 11.234h-4.0851v7.1489l-11.234 13.277-11.267 17.761-20.393 8.7919v3.0638c-19.869 1.9523-30.137 15.38-37.787 32.681h-3.0638c-1.3106 7.0319-6.029 12.812-7.3127 19.682-1.3568 7.2621 4.8454 16.936 10.376 21.169l8.1702 20.426h3.0638l8.1702 19.404c7.5877 5.4759 10.376 13.411 11.234 22.468l-8.1702-11.234c-3.8063-1.8459-4.6414-4.0623-5.1064-8.1702h-4.0851l-2.0426-7.1489-11.234-15.319h-3.0638l-8.1702-20.426h-3.0638l-8.1702-22.468h-3.0638l-8.1702-26.553h-3.0638l-8.1702-35.745h-3.0638l-5.5578-34.025-.96786-16.864-3.6395-41.043 10.165-89.855h3.0638l8.1702-33.702h3.0638l8.1702-24.511h3.0638c.71426-8.3201 2.808-18.966 11.234-22.468.79617-7.3859 4.638-16.507 11.234-20.426 2.4072-6.663 5.29-13.208 11.234-17.362 2.2228-6.7258 6.7662-11.038 11.204-16.363 8.6044-10.326 17.865-23.354 30.668-28.573l11.234-14.298 16.34-13.277 15.319-8.1702 2.0426-7.1489 13.277-4.0851c4.8271-6.9673 12.105-10.574 20.426-11.234l15.319-14.298 18.383-8.1702v-3.0638l26.553-8.1702v-3.0638l22.984-5.2133 23.995-4.9994v-3.0638l64.801-7.4996 23.052 1.3141 26.283.48895 33.949 5.6966m0 69.447v3.0638l24.511 8.1702v3.0638c10.08 4.1825 2.139 13.948 4.1084 22.037 1.767 7.2584 10.137 8.89 16.317 10.644 6.7621 7.9189 9.6786 11.698 7.1489 22.468-10.243-.35019-25.628-2.024-31.66-11.234l-29.617-8.1702v-3.0638c-8.3467-.74065-16.815-3.1684-24.965-5.1069-4.7169-1.1219-8.5158-1.4824-10.779-6.1272l-22.468-2.0426v-9.1915h3.0638v-4.0851h-3.0638v-6.1277h3.0638v-5.1064l21.447 2.0426v3.0638c5.2231 0 11.327-1.0578 14.298 4.0851h2.0426l9.1915-15.319v-5.1064l17.362 2.0426m-459.57 24.511c2.5663 3.563 5.6299 7.0983 7.2465 11.226 4.0085 10.236-3.6842 18.02-9.289 25.54-6.7857.70312-11.469 2.3218-15.319 8.1702h-5.1064l-8.1702 25.532h-3.0638c-1.0071 6.7318-1.9521 16.256-5.5055 22.145-1.5735 2.6077-4.6911 3.0229-6.1402.0366-1.3556-2.7937-.65889-6.2498-.303-9.1876.35981-2.9701.5813-5.9202.71459-8.9086h3.0638l8.1702-24.511h3.0638l4.0851-11.234v-2.0426l-7.1489-9.1915v-22.468l5.1064-5.1064h6.1277v3.0638h-4.0851l-4.0851 11.234v2.0426l6.0825 9.2366 7.9605 4.3217 6.2821 2.8468 13.377-7.2136v-9.1915c-8.3142 1.1321-14.129 9.081-20.426 0h-2.0426l-5.1064 2.0426v-2.0426h5.1064l4.0851-16.34v-1.0213c5.4235-2.4012 9.8582-.38859 15.319 1.0213m399.32 11.234c4.5248 6.7537 13.823 6.17 21.078 7.7845 4.9947 1.1115 9.5196 2.9972 14.667 3.4496v3.0638l31.66 8.1702v3.0638l26.553 8.1702v3.0638c9.906 1.8423 10.215 8.8379 4.0851 15.319h-2.0426l-4.0851-7.1489-29.617-8.1702v-3.0638l-26.553-8.1702v-3.0638l-33.702-8.1702v-3.0638l-9.1915-2.0426v-6.1277l3.0638-3.0638h4.0851m-4.0851 16.34v6.1277h13.277l6.1277 5.1064-2.0426 9.1915c-5.4974 1.4246-10.369 2.9019-13.277-3.0638h-4.0851l4.0851 14.298c6.5142 1.716 18.479 7.2409 22.917-.80959 1.0749-1.9497 1.2811-4.1808 1.5935-6.3393h4.0851l-4.0851-13.277 24.511 6.1277 7.1489 11.234h-9.1915l-4.0851 11.234h-3.0638l-8.1702 24.511h-3.0638v9.1915l-11.234-2.0426v-9.1915h-4.0851l-4.0851 11.234h4.0851v5.1064l-16.723 5.3629-5.0672 5.6976 6.6817 9.4795 6.7493 6.5389 28.784 3.5594h2.0426v-15.319l-7.1489-2.0426v-9.1915c6.3711-2.7689 9.3853-6.628 11.234-13.277h3.0638l4.0851-18.383c10 3.8788 16.416 9.4284 26.553 2.0426h3.0638l1.115 12.772-8.2639 18.887h-7.1489v5.1064c7.0216 4.6056 7.0215 10.714 0 15.319l-13.277 18.383c-11.377 5.3906-22.541 10.923-35.599 9.8826-12.697-1.012-21.234-7.9515-29.936-16.383-10.337-10.016-17.67-18.076-19.923-32.784-2.2635-14.774 7.0752-29.81 4.7782-44.46h-4.0851l-7.1489 5.1064 2.0426-9.1915h3.0638v-20.426h15.319l4.0851-11.234c4.8708-2.9559 8.4971-4.9506 14.298-4.0851m436.09 84.766h-2.0426l-6.1277-6.1277v-5.1064h-3.0638c-1.9555-4.9236-5.3603-10.435-10.608-12.342-7.0373-2.5567-15.984-.31054-20.03-8.0837h-5.1064c-4.1794-10.255-2.1361-16.165 0-26.553h3.0638l4.0851-9.1915c6.5839-1.5844 15.29-4.0504 22.042-2.5826 10.403 2.2615 15.734 15.513 15.389 24.991-.30637 8.4274-5.4764 15.905-4.9475 24.487.44344 7.1934 5.3889 13.632 7.3464 20.509m-43.915-37.787c8.2071 2.8979 17.74 8.2777 26.576 4.6525 3.4691-1.4233 6.2594-4.4058 9.1686-6.695v-11.234l-18.292 4.7167-9.2829-3.6954 3.0638-1.0213v-7.1489c-12.138 1.2609-11.219 10.226-11.234 20.426m-298.21-11.234v7.1489h-7.1489v-3.0638h-4.0851v-6.1277l11.234 2.0426m-22.468 4.0851 2.0426 3.0638v2.0426c-7.468 3.6781-11.427-.8647-15.319-7.1489l13.277 2.0426m39.83 9.1915c-1.9416 4.8938-4.2284 7.3578-9.1915 9.1915l-6.1277 20.426h6.1277l-4.0851 8.1702h-4.0851v3.0638h-9.1915c2.7257-15.594 10.916-34.325 26.553-40.851m5.1064 9.1915v6.1277h-9.1915l9.1915-6.1277m-91.915 36.766-3.0638 3.0638h-2.0426l-2.0426-6.1277 7.1489 3.0638m416.68-1.0213v2.0426h-2.0426v-2.0426h2.0426m-463.66 15.319 8.1702 14.298 14.298 8.1702v13.277h-3.0638v20.426h3.0638v5.1064h-3.0638l3.0638 5.1064-3.0638 2.0426 3.0638 4.0851h-5.1064l-22.468-25.532-22.468-13.277v-9.1915c3.0232-.0474 7.2519-2.2082 9.9858-1.5366 6.4416 1.5823 8.597 10.726 11.66 15.357 1.687 2.5512 4.4227 3.9774 5.9291 6.6051h2.0426l-2.0426-15.319h-3.0638l-7.2302-17.787 1.1026-15.915 9.1915 4.0851m472.85-2.0426 8.1702 29.617h3.0638l8.1702 26.553h3.0638v11.234l-3.0638 2.0426h-2.0426l-6.1276-17.362h-3.0638c-4.8907-17.394-19.595 4.6561-24.511 11.234h-19.404c-7.0856-9.1496-16.221-26.447-5.6114-36.609 3.7365-3.5786 9.0824-4.5304 13.782-6.2849h2.0426l11.234 2.0426v4.0851l3.0638 3.0638h6.1277v-3.0638h5.1064v-17.362h-3.0638l-2.0426-9.1915h5.1064m-433.02 5.1064v6.1277h13.277c-3.073-5.4189-7.4016-5.8831-13.277-6.1277m401.36 21.447v3.0638l-11.234 6.1277v2.0426c4.0857 3.8607 5.764 4.3556 11.234 3.0638v-3.0638l4.0851-2.0426h2.0426l3.0638 2.0426v14.298c-8.013.81208-10.573 3.6542-7.1489 11.234h7.1489l11.234-9.1915c1.1842-8.6804 5.0283-20.252-5.1064-24.511-3.2144-6.5922-9.3956-4.608-15.319-3.0638m-330.89 3.0638h1.0213l27.574 8.1702-11.234 14.298c-6.6665 4.0835-13.636 10.996-18.262 17.316-3.3548 4.5832-3.1114 8.5829 1.9221 11.279v-4.0851l27.574-27.574h15.319c3.8159 7.5434 13.412 6.857 20.615 8.6934 4.1597 1.0605 7.3321 1.2642 9.0016 5.6044 20.096 7.3287 38.577 22.591 43.915 43.915 10.699 4.1148 5.8442 19.492 5.1948 27.602-.44095 5.5073 1.113 11.181-5.1948 13.249l-7.2267 21.792.69533 16.029-1.6388 18.349h-3.0638l-8.1702 35.745h-3.0638l-10.213 33.702h-3.0638l-8.1702 24.511c-5.1793 3.47-5.1641 8.7779-6.9389 14.334-1.1274 3.5292-3.0169 6.709-4.2952 10.177h-3.0638c-3.5526 14.169-16.605 24.207-30.638 26.553v3.0638l-46.979 8.1702v3.0638h-14.298c-3.6544 6.4556-10.666 6.7453-17.362 8.1702v3.0638l-24.511 8.1702v3.0638l-31.66 8.1702v3.0638l-31.66 8.1702v3.0638c-8.9854 3.9487-22.846 12.974-28.112-.306-1.1363-2.8658-1.8148-5.8947-2.5266-8.8855-4.8854-2.3809-5.192-6.7577-6.3478-11.689-2.2115-9.4353-4.3543-19.488-4.8862-29.162h-3.0638l-4.0851-11.234v-2.0426l-2.0426-20.426 35.745-8.1702v-3.0638l28.596-8.1702v-3.0638l22.468-6.1277v-5.1064l14.298-4.0851 2.0426-7.1489 17.362-8.1702c3.2604-6.2634 10.128-5.4466 15.616-8.793 8.5122-5.1902 16.716-17.044 28.079-15.288 12.044 1.8607 16.074 18.436 27.961 20.541 5.2463.92928 9.4731-1.7434 14.131-3.609v-7.1489h-18.383c-4.4333-8.1868-11.211-15.127-20.426-17.362v-4.0851h9.1915c3.4183-5.655 8.023-10.418 10.333-16.714 5.057-13.782 2.9433-30.14 2.9433-44.563h3.0638c.79756-19.076 12.829-32.089 19.404-49.021l13.277-4.0851v-3.0638c5.0498-2.7084 5.904-5.7069 5.1064-11.234h-5.1064c-4.2883 6.4394-12.342 8.8322-19.404 11.234-4.9907 8.8675-7.5462 21.791-16.34 27.574l-5.6818 25.667-4.3778 7.2949-4.3978-4.0305-8.0106-8.5061-17.303-30.244 2.8608-11.054 17.506-19.978 13.277-26.553c-11.021 4.7294-19.234 16.117-24.511 26.553h-5.1064l-6.1277 13.277-10.14 17.764-12.328 19.002c-5.2219 2.5472-7.4203 5.7736-9.1915 11.234h-4.0851v4.0851l-5.1064 6.1277h-4.0851c-4.7458 13.724-15.206 26.301-23.616 37.979-4.9384 6.8567-10.164 12.837-12.128 21.255l-14.298 17.362c-2.2248 7.1216-4.9721 13.97-11.234 18.383l-10.213 22.468h-3.0638c-4.3725 10.544-10.639 18.33-22.468 19.404l-4.0851-11.234v-2.0426l4.0851-13.277h3.0638l8.1702-18.383c6.2911-5.2723 8.9845-11.669 11.234-19.404h3.0638l10.213-24.511 10.474-17.557 7.192-10.267 7.8657-10.984 12.033-21.018 10.435-12.684 11.234-13.277 21.447-33.702c8.392-6.2816 18.082-17.024 22.468-26.553l11.234-15.319h5.1064c1.5355-6.1732 3.9909-10.542 9.1915-14.298 3.7377-8.7558 10.503-14.401 18.383-19.404m-59.234 2.0426c1.9985 8.3582 2.5175 16.207 0 24.511h-2.0426l-18.383 4.0851v-22.468h3.0638v-6.1277h17.362m-82.723 6.1277c3.6054 6.7021 8.1846 9.1199 15.319 11.234l18.383 22.468h4.0851l7.1489 11.234h4.0851c4.4171 5.8364 18.116 14.854 16.618 23.02-1.0797 5.8831-8.2006 10.966-11.511 15.789h-5.1064l-9.4752-10.298-11.972-11.858-33.702-33.702-7.5745-8.3688-6.2979-1.7872-6.9787-7.4042-13.872-12.369 27.387-1.7208 13.464 3.7633m-22.468 22.468v5.1064c8.7479 3.2885 14.659 10.846 21.112 17.333 10.997 11.054 22.021 22.081 33.162 32.988 7.2881 7.1347 13.352 12.457 11.088 23.211-5.8086 4.4312-9.533 9.1621-11.234 16.34l-11.234 15.319c-5.0087 4.2745-7.5724 8.9731-9.1915 15.319-9.0329 4.6776-10.898 15.413-13.277 24.511h-3.0638l-10.213 22.468h-3.0638c-1.9646 6.5372-5.5709 12.417-11.234 16.34-6.373 12.015-16.461 4.9979-18.442-5.6367-3.5422-19.015-.96206-40.421-.96206-59.725h-3.0638c0-14.972.16652-29.956-.0248-44.927-.087-6.8084-.19243-15.418-5.2201-20.687-7.2702-7.6192-20.83-7.8937-30.5-7.9183v-3.0638h-8.1702v3.0638h-5.1064v-3.0638l-9.1915-2.0426v-4.0851l9.3148-18.185 11.111-15.518 15.319-4.0851v-3.0638l22.468-8.1702c1.7937-4.6632 6.9738-6.2758 11.494-3.8752 7.2547 3.8524 8.8209 11.622 18.123 12.045m-374.81 7.1489v18.383c5.0924 1.6698 4.6319 5.2944 5.8585 9.902 2.2157 8.3227-.19605 20.73 8.4393 25.843.52626 11.185 2.3007 28.2 11.234 35.745.95922 9.7815 3.2495 22.225 11.234 28.596l8.1702 24.511h3.0638l8.1702 40.851h3.0638v9.1915l-3.0638-3.0638-8.1702-6.1277c-6.6363-3.9432-9.8706-13.136-11.234-20.426h-3.0638l-8.1702-24.511h-3.0638l-8.1702-33.702h-3.0638l-8.1702-46.979h-3.0638c-2.6082-19.112-4.6473-39.125-2.0426-58.213h2.0426m325.79 51.064v3.0638c10.777 3.2244 6.9131 15.113 11.234 23.489l-3.0638 1.0213v4.0851h3.0638l2.2721 94.883 3.0263 15.438-.76686 18.181 3.0692 12.754.56951 16.021h3.0638v6.1277l-3.0638 3.0638h-15.319l-11.234-14.298-9.1915-4.0851-3.984-27.635-.22409-39.719-3.9621-114.43 24.511 2.0426m-33.702 67.404v2.0426l2.0667 31.65 3.4419 49.371 3.6829 22.128v3.0638h-3.0638v6.1277l-15.319-6.1277v-3.0638h-4.0851v3.0638l-16.34 2.0426-1.8098-22.601-.66392-18.065-3.2228-13.707-.43116-20.179h-3.0638l-4.0722-53.114 2.0769-20.213 22.421-18.588 7.1489-6.1277c3.5032-.60776 7.6665-1.3812 9.6971 2.3642 2.5727 4.7454 1.5339 11.846 1.5365 17.04.004 8.8307-.19966 17.689.0846 26.516.17802 5.5284 1.548 10.988-.0841 16.378m405.45-56.17 2.0426 18.383 31.66 2.0426c1.9353-6.4929 4.4297-9.8365 11.234-11.234l-2.0426 22.468h-3.0638l-8.1702 31.66h-3.0638l-8.1702 24.511h-3.0638l-10.213 35.745h-3.0638l-8.1702 31.66h-3.0638c-5.1994 9.1466-19.575 6.1276-28.596 6.1276l-2.0426-13.277h-3.0638l-7.6546-21.528 5.6121-27.494h5.1064c.0201-7.591 3.3611-10.881 5.5272-17.59 1.6008-4.958-.0969-9.795 5.7068-12.027l8.1702-37.787c7.9438-6.5631 8.782-17.107 11.234-26.553l5.1064-5.1064h2.0426m-199.15 14.298c2.0624 6.9978 5.6574 12.645 11.234 17.362l11.234 15.319c2.2959 13.153 10.204 24.537 7.5479 38.456-1.0485 5.4943-8.797 17.17-15.009 10.004-3.7334-4.3069-3.5982-11.46-3.7731-16.801h-3.0638c-1.5131-6.2612-5.6153-17.099-11.234-20.426l-8.1702-17.362h-3.0638l-4.0851-11.234v-1.0213c5.3158-6.0418 10.576-11.717 18.383-14.298m254.3 11.234c8.9136 8.2258 5.0314 13.798 2.3467 24.093-1.3549 5.1954-2.0127 10.531-3.368 15.737h-3.0638l-8.1702 24.511h-3.0638l-8.1702 24.511h-3.0638c-.47224 5.0192-3.8365 7.9413-5.3353 12.578-1.81 5.5987.81707 12.414-5.8987 14.997l-4.0851 24.511-11.234 2.0426 2.0426-20.426c7.7832-4.9807 8.5983-15.478 10.417-23.846 1.103-5.0742.80492-9.4034 5.9232-11.899 1.0055-8.4714 3.3948-19.852 11.234-24.511l8.1702-29.617h3.0638l8.1702-28.596h3.0638l1.0213-4.0851m-257.36 51.064h3.0638c1.817 13.161 12.388 31.873-5.1064 37.787v5.1064l-22.468 8.1702c-4.2766 6.2319-10.018 9.6838-17.362 11.234-1.6044 3.5432-7.5439 9.5907-10.319 3.4026-1.7596-3.9237-.91556-9.4277-.91506-13.615.001-11.669 1.7972-23.416 3.6298-34.912.94741-5.943-.6964-12.079 5.5617-15.131.39632-6.9972 4.3869-17.477 11.234-20.426l4.0851-11.234c14.752-2.585 24.624 17.707 28.596 29.617m-266.55 62.298h3.0638l2.0426 69.447h-5.1064v3.0638h-13.277l-6.1277-18.383h-3.0638v-6.1277h3.0638v-25.532h-3.0638l-6.5011-49.883-1.1789-18.278 7.68-16.605h3.0638l8.1702-15.319c6.4579 3.1488 6.7549 14.912 7.0754 21.494.22686 4.658-.3775 9.4891.46217 14.098.7338 4.0279 3.1672 7.3282 3.5495 11.48.92423 10.037.14699 20.467.14699 30.545m545.36-39.83h-3.0638c-.18962 8.2883-3.2791 24.486-11.234 28.596l-8.1702 29.617h-3.0638l-2.0426 11.234v2.0426l-6.1277 18.383c-9.1432 4.5985-5.229 18.98-14.298 22.468v8.1702h-4.0851c0-7.8875-.87691-14.88-1.8648-22.585-.70749-5.518.0608-9.9945-5.2841-13.159v-13.277h3.0638l8.1702-33.702h3.0638l8.1702-22.468h3.0638l8.1702-24.511h3.0638l8.1702-26.553c2.0435-.43908 4.0395-.91231 6.1485-.73192 18.115 1.55 10.885 25.375 8.1493 36.477m-307.4-18.383-9.1915 14.298h7.1489v-3.0638h6.1277v14.298h-8.1702c2.4637 8.2377 11.436 9.8355 17.667 3.7138 2.4734-2.4298 3.1627-5.5424 3.7795-8.8202h3.0638v-9.1915h-3.0638l-8.1702-8.1702v-3.0638h-9.1915m326.81 5.1064c2.786 12.913-6.0089 23.248-8.1702 35.745h-3.0638l-8.1702 26.553h-3.0638l-8.1702 22.468h-3.0638l-8.1702 31.66-7.1489 11.234-7.1489-2.0426v-3.0638l14.298-21.447 1.5204-14.495 6.6498-19.207 6.4842-10.461 4.7498-15.071h3.0638l8.1702-28.596h3.0638c.32046-6.7661 1.21-11.197 8.1702-13.277m-358.47 9.1915c-.006 9.2541-1.6997 18.395-1.6997 27.574 0 14.459 6.8168 33.327-11.577 38.809v3.0638l-29.617 6.1277v-11.234h3.0638c1.2498-6.1226 5.1975-17.826 11.234-20.426l8.1702-17.362 9.6798-15.911 8.7032-10.642h2.0426m459.57 8.1702-8.9291 16.412-9.4539 13.205-10.213 20.426-20.426 15.319-2.0426 7.1489-16.34 8.1702v3.0638c-9.0108 3.8288-15.859 8.0267-22.468 15.319h-2.0426l-2.0426-2.0426v-2.0426l15.319-11.234 2.0426-7.1489 20.426-11.234v-4.0851h5.1064c2.432-5.7699 5.2352-9.1439 11.234-11.234l2.0426-7.1489h4.0851l5.1064-7.1489 21.447-30.638 5.1064-5.1064h2.0426m-705.7 3.0638 2.6104 25.286 3.5172 18.629h3.0638l4.0851 40.851-7.1489-2.0426-19.404-33.702c-6.7459-4.0086-9.4953-13.142-11.234-20.426-7.6236-4.9328-11.154-15.043 0-17.362v-3.0638l22.468-8.1702h2.0426m-103.15 13.277v4.0851h-2.0426v-4.0851h2.0426m65.362 11.234 17.734 32.59 7.2789 12.483-5.609 13.14-9.1915-2.0426-2.0426-5.1064c2.9765-.38186 6.2099-.78117 7.7546-3.7637 1.6343-3.1555.04-8.7626-4.3351-7.7703-2.7523.62434-4.7362 3.4045-6.4833 5.4063-6.4497-7.0961-17.483-15.562-20.137-25.112-1.0622-3.8221-.0103-7.8748.73253-11.654h3.0638c2.52-5.2262 5.5942-7.1095 11.234-8.1702m152.17 2.0426v2.0426h-2.0426v-2.0426h2.0426m401.36 2.0426v4.0851h-3.0638v-4.0851h3.0638m-59.234 15.319h3.0638c.82255 6.724 5.6262 16.492 11.234 20.426l8.1702 27.574h3.0638l8.1702 28.596h3.0638l9.9917 21.198 12.476 5.3548 2.0426 5.1064h2.0426l2.0426-5.1064c13.007-2.4155 18.774-13.229 29.617-19.404l8.1702-16.34 5.1064-6.1277h2.0426c.0883 4.5226 2.0678 8.7962 1.9158 13.244-.10852 3.1762-1.574 6.0828-1.8274 9.2521-.69895 8.7401-.0884 17.758-.0884 26.526 0 7.66-.66797 15.467 1.2895 22.91 1.8594 7.0702-1.5286 15.609 5.8594 19.984l8.1702 53.106h3.0638l8.1702 44.936h3.0638v5.1064h-3.0638l-2.0426 6.1277h5.1064l5.0257 32.268 3.7689 11.146 1.4182 16.841h3.0638v11.234l-5.1064 3.0638v2.0426l5.1064 2.0426v4.0851h-3.0638c-.10342 10.129-2.0771 20.278-6.1277 29.617v2.0426c2.5748 2.679.47049 5.6579-.66473 8.7776-2.1446 5.8937-1.0048 10.932-8.5268 11.648-1.5787 7.1004-2.7913 13.185-9.1915 17.362l-2.0426 9.1915-11.234 11.234-11.234 2.0426-4.0851 9.1915c-7.1492-1.0966-13.959 1.3831-18.383 7.1489l-9.2829 1.911-18.292.1316-11.69-.8716-5.6714-5.2561 14.918-9.934 23.89-21.726c1.7016-7.716 4.4787-15.821 11.234-20.426l8.1702-31.66h3.0638l5.8194-37.921-1.7343-53.994c1.799.28723 3.6276.66884 5.4611.60619 8.8434-.30213 6.7878-10.176 6.1398-16.142-1.3009-11.977-4.3789-23.432-4.4519-35.528h-3.0638l-4.0851-31.66v-2.0426c2.2902-6.9192 2.2902-13.506 0-20.426v-2.0426l.17141-27.674-.17141-37.688h-11.234l1.9196 32.753.12292 41.8h-2.0426c0-9.0223-1.8561-17.659-2.0227-26.567-.12865-6.8761 1.26-14.088-5.1262-18.37l-4.0851-16.34h-15.319v3.0638l-7.1489 2.0426h-2.0426l-2.0426-5.1064-16.34-4.0851-8.1702-29.617h-3.0638l-8.1702-24.511h-3.0638l-8.1702-26.553h-3.0638l-8.1702-22.468h-3.0638v-11.234h3.0638v-4.0851c4.8213 1.409 6.7614 3.3488 8.1702 8.1702m-501.45 0c.50925 1.4308.93465 2.8704 1.7658 4.1595 5.4664 8.4793 12.251-4.6057 2.7109-4.7366-1.5125-.0208-2.9972.31977-4.4767.57708m-112.34 27.574c-6.7629.42935-13.112 2.0959-19.747 3.3117-5.3947.98836-10.946 1.3301-14.727 5.8208-5.4467 6.4685-6.0029 16.564-7.3979 24.57h-3.0638l-8.1702 15.319h-3.0638v7.1489h3.0638c2.2567 16.296 3.3627 32.781 0 49.021h-3.0638v11.234h3.0638c2.7721 6.3061 6.8773 4.0384 12.357 2.3639 6.1162-1.8689 11.855-3.9864 18.281-4.4064v-3.0638c10.054 0 22.187 1.782 31.809-1.592 7.4725-2.6203 11.739-9.4626 18.352-13.375 8.8757-5.2512 20.426-6.2587 30.52-6.4796l.29417-22.489 1.7484-18.362h3.0638v-11.234c-7.112-5.0882-18.748-17.807-24.511-4.0851h-7.1489c-3.6377 6.6455-8.6736 11.682-15.319 15.319l11.234-20.426 8.1702-22.468h3.0638v-8.1702c-5.1673-4.4552-7.4859-12.868-13.514-15.998-8.8006-4.5696-22.831 10.648-25.295 18.04m105.19-7.1489c10.494 6.7001 23.42 22.657 20.426 35.745h-2.0426l-4.0851-2.0426v-4.0851h-3.0638l-8.1702-20.426h-3.0638l-8.1702-15.319 8.1702 6.1277m497.36 11.234h3.0638v9.1915l-11.234-4.0851c-.71422-3.6333-2.1811-8.3737-.44057-11.923 3.4532-7.0412 8.0095 4.103 8.6108 6.8163m61.277-9.1915c3.5571 5.0719 9.7145 5.8506 12.497 11.731 6.5169 13.772 5.5672 32.129 3.4148 46.793-.58288 3.971.23899 9.4687-1.9756 12.968-2.0512 3.2413-6.5057 2.9739-9.851 3.0612l-6.1277-9.1915v-9.1915h-3.0638l-8.1702-26.553-6.3441-10.696-7.9538-14.836 5.6714-5.2561 21.903 1.171m-412.6 0 4.0851 14.298 18.383 4.0851v-7.1489l-9.1915-6.1277c8.2165.21705 15.672 1.963 20.426 9.1915l20.426 8.1702 2.2553 33.588 3.8724 38.922h-4.0851v-3.0638l-7.1489-2.0426h-2.0426v2.0426h-2.0426l-17.9-16.898-8.6528-24.974h-3.0638c-1.5762-13.219-9.2774-22.128-22.468-24.511v-3.0638h-4.0851v3.0638l-26.553 6.1277c.66959-14.353 14.975-25.867 28.596-28.596v-3.0638h9.1915m-91.915 18.383c.58588 3.1242 1.2377 6.095 2.862 8.8722 2.7729 4.7412 10.458 10.789 5.8536 16.811-2.2188 2.9016-6.6478 4.2014-9.7368 5.9766-6.0669-6.9167-12.479-13.002-14.298-22.468h-3.0638v-5.1064l7.1489-8.1702 11.234 4.0851m636.26 11.234-6.1277 6.1277c-2.8607 4.9798-8.4116 11.062 0 14.298l11.234 15.319c1.3624 7.3574 6.1411 17.084 11.234 22.468-8.3616-3.5771-15.292-10.999-20.426-18.383l-7.1489-6.1277-22.468-5.1064v3.0638h-4.0851c-4.6133 11.301-2.7357 19.923-2.1591 31.706.23076 4.7153-.59971 11.282 3.1166 14.914 5.0334 4.919 16.858 6.7461 23.553 8.5293l24.511 25.532h16.34c3.0726-4.583 6.7988-4.697 11.9-5.7216 9.4336-1.8949 25.846-3.4855 32.015 5.7216l7.1489 2.0426h2.0426l5.1064-5.1064v-6.1277c-8.092-6.8355-6.3577-16.029-9.4525-25.288-3.2966-9.8636-9.9038-17.693-11.99-28.279-1.3242-6.7203 3.1093-19.677-2.0227-24.732-2.4138-2.3775-6.3425-3.0659-9.5447-3.6258-2.5991-.45448-5.212-.63232-7.8414-.798l-17.362-18.383h-5.1064v-4.0851c-8.4658-1.9899-14.374-.64471-22.468 2.0426m-189.96 16.34-3.0638 1.0213-2.0426 22.468h-8.1702c-2.2874 5.9467-9.1951 6.2184-11.234 0l-18.383-4.0851 4.0851-15.319c4.8959-2.3618 5.8728-8.0567 8.7045-12.378 5.1175-7.81 16.085-13.627 23.215-4.9598 3.2832 3.9909 2.8525 9.2748 6.8889 13.253m-470.81 4.0851h-5.1064v-9.1915c6.5725-.96935 17.599 3.8843 14.861 12.442-2.4064 7.5216-8.5492.80946-9.755-3.2508m480.44-8.461c2.5261-.42873 4.5507 2.8316 5.5846 4.6364 2.6899 4.6955 5.801 14.931-2.2967 16.123-8.8603 1.3042-8.3262-8.5839-7.0301-14.357.45797-2.0399 1.1657-5.9647 3.7422-6.402m-359.93-.73049v9.1915h3.0638l8.1702 26.553h3.0638c3.3382 7.2502 8.0688 11.981 15.319 15.319 3.6754 4.5542 7.5585 6.2508 13.277 7.1489l-4.0851 35.745-16.34 24.511-8.1702 24.511c-5.5323 4.5862-9.0787 9.458-11.234 16.34-5.7973 4.2113-9.0901 12.713-11.234 19.404h-3.0638l-8.1702 33.702h-3.0638l-8.1702 44.936h-3.0638l-8.1702 40.851c-7.4876 4.9614-8.0473 16.849-10.183 24.976-1.2364 4.7053-1.4727 8.4856-6.1576 10.769l-6.185 19.219-7.0916 12.44-9.1915 4.0851v4.0851h-4.0851v3.0638h-11.234v-3.0638c-14.118-5.2764-18.893-19.474-29.617-28.596l-3.6861-28.82-.37434-30.399 4.0605-45.973h3.0638l8.1702-33.702h3.0638c0-5.3578 2.3562-6.735 3.7731-11.319 1.4588-4.7197 1.3412-11.887 7.461-13.192v-3.0638l-3.0638-1.0213c4.276-3.7643 6.3378-8.3524 9.4958-12.973 1.5417-2.2557 3.8852-3.8013 5.3664-6.0759 2.6932-4.136 2.1078-7.345 7.6058-8.5255v-4.0851h3.0638l19.404-33.702c7.5597-6.5859 11.572-15.769 13.277-25.532h3.0638c1.4088-4.8213 3.3488-6.7614 8.1702-8.1702v-13.277h3.0638l8.1702-16.34h3.0638l8.1702-28.596h3.0638l4.0851-20.426h4.0851m386.04 42.894h-5.1064v-9.1915c4.1673 2.0275 4.8104 4.744 5.1064 9.1915m-394.21 22.468h-3.0638l-8.1702 21.447h-3.0638l-8.1702 22.468-14.298 14.298-8.1702 15.319-11.666 11.083-12.844 24.662c-7.2285 4.7542-8.9744 12.209-9.1915 20.426l9.1915-2.0426 8.1702-20.426 9.2393-13.35 7.1328-8.2846 11.202-12.068c4.4065-9.5746 13.877-20.459 22.468-26.553l8.1702-20.426c6.5696-4.3961 9.4686-10.863 11.234-18.383h3.0638c2.6928-6.5019 8.7462-16.714 6.7983-23.904-1.4225-5.2506-7.4401-6.801-11.032-2.6717-4.1086 4.7236-6.029 12.386-7.0005 18.406m75.574-22.468 5.1064 6.1277 4.0851 29.617c-3.6129-2.0873-4.0225-5.2247-4.0851-9.1915h-3.0638l-4.0851-26.553h2.0426m185.87 8.1702v3.0638l6.1277-3.0638c6.8742 7.7626 21.174 6.0582 23.489 18.383 9.153 3.7568 14.596 11.062 17.362 20.426l14.298 15.319 2.7538 17.486-8.6073 5.6832-21.721 3.3843v3.0638h-9.1915l-2.1183-18.35-3.5351-10.819-9.6658-2.4904 4.0851 31.66 5.1064 4.0851h-5.1064l9.1915 4.0851v3.0638h16.34v-3.0638h33.702l-3.0638 6.1277 3.0638 1.0213v4.0851h-3.0638v5.1064l7.1489 4.0851v2.0426c-3.3696 12.522 2.4214 27.4 3.6859 40.054 1.351 13.519-1.6343 27.072-1.6434 40.627-6.6667 0-12.072-.86993-18.411-1.9291-2.2536-.3765-4.6934.30182-6.8936-.42549-1.7036-.56312-2.7133-2.4516-4.4539-2.8085-1.3454-.27589-2.7229.75255-4.0283.96455-5.4684.88795-11.097-.23444-14.213-4.9929l-1.0213 3.0638-26.363 2.479-33.892 5.6912v3.0638l-33.702 8.1702v3.0638c-8.0635.18619-20.639 6.274-24.511-3.0638h-3.0638l-8.1702-24.511h-3.0638l-7.0168-30.241-1.1534-22.866h-3.0638v-35.745h3.0638v-27.574h-3.0638l-4.0851-42.894 26.553-10.213v-3.0638l29.617-8.1702v-3.0638l24.616-5.8503 17.577 3.0758 20.105 2.7745m133.79 0c2.9764 3.3832 5.7487 5.852 10.192 7.0743 3.9503 1.0867 10.589 1.1886 13.378 4.5707 2.9135 3.5332.16456 9.4849.69452 13.637 1.507 11.807 9.8221 20.36 21.693 21.697 5.0912 12.413 5.9318 27.492 6.1277 40.851h3.0638l.36646 29.46 3.5813 18.621 2.0094 26.571 2.2131 19.305v2.0426l-1.1448 28.412-.89773 23.673v2.0426c-4.4648 6.555-5.9246 12.543-6.1277 20.426h-3.0638l-8.1702 28.596h-3.0638l-2.0426 11.234h-6.1277c-1.5338 7.8326-5.8956 10.968-13.277 13.277-3.7243 5.4832-7.9624 9.1395-14.298 11.234v3.0638l-17.44 4.606-16.262-4.606-8.1702-16.34h-3.0638v-60.255h3.0638c1.649-8.2934 3.8495-16.463 5.5123-24.77.97346-4.8635.88831-8.6175 5.7217-10.974l8.1702-38.809h3.0638l8.1702-19.404h3.0638l8.1702-20.426 14.298-18.383v-6.1277l-7.1489-5.1064h-7.1489v-4.0851l-11.234-9.1915-6.1277-33.702v-2.0426l2.6062-16.021 3.5214-21.766h3.0638l2.0426-11.234v-2.0426h-2.0426v-2.0426l3.0638-3.0638m40.851 9.1915v5.1064c6.5189 3.3683 10.617 18.05 5.3325 24.078-4.6687 5.3262-9.819-4.6279-10.72-8.1648-.6449-2.5311-.69109-5.1559-.726-7.7521-.0594-4.4212-.014-8.846-.014-13.268h6.1277m-10.213 5.1064v8.1702h-3.0638v-8.1702h3.0638m-354.38 6.1277 4.0851 18.383h13.277v-3.0638h5.1064v3.0638h11.234v-3.0638c9.5478-1.1784 27.474-9.5732 30.146 5.3343.52747 2.9427.45616 5.9865.49244 8.9636h3.0638l.19457 52.019.23684 33.584 6.4848 37.843-6.9162 30.767h-3.0638c-.8632 6.1357-3.8392 18.758-10.849 20.733-5.3656 1.5121-12.521-1.0633-17.746-2.3504v-3.0638l-40.791-.67825-25.394.33155-39.007-7.8235c-5.878-17.974-.20093-37.9-.009-56.173.0899-8.5541.73912-19.869 9.2004-24.508.79925-6.7982 1.8683-12.74 8.1702-16.34v-6.1277h3.0638l8.1702-20.426c7.2758-4.3943 7.7299-11.193 11.415-18.154 2.3273-4.3958 5.91-7.2677 7.4321-12.188 2.0721-6.6981 1.7914-15.096 8.727-18.68.66837-9.5194 3.1756-16.473 13.277-18.383m93.957 13.277h11.234l-.65251 9.9858-6.4964 8.3972 18.383-2.0426c1.9183-9.4479 1.6326-16.569-2.0426-25.532-9.9381-2-17.884-2.2044-20.426 9.1915m-449.36-6.8085c.78982 0 .16361.50852-.34043.34047l.34043-.34047m749.62 94.638v15.319h-2.0426v-15.319h2.0426m40.851 0v4.0851h-3.0638v-4.0851h3.0638m-38.809 17.362v7.1489h-2.0426v-7.1489h2.0426m0 11.234v7.1489h-2.0426v-7.1489h2.0426m-311.49 42.894 2.0426 13.277h3.0638l6.1277 16.34 13.066 4.0559 20.636-4.0559v-3.0638l33.925-3.6887 22.245-4.4816h2.0426l42.894 8.1702v3.0638c9.3464 1.8762 13.562 7.3606 20.426 13.277l6.1277 6.1277 2.0426 22.468h3.0638l3.6786 25.769 4.4916 45.72h3.0638l4.0851 29.617h4.0851l2.0426 29.617h3.0638v4.0851h-3.0638v4.0851h3.0638l4.0851 7.149v2.0425l-4.0851 2.0426v2.0425l4.0851 20.426v2.0425l-.15054 24.61 1.4734 36.634.7197 22.5v2.0426h2.0426v2.0425l-2.0426 24.511h5.1064v7.1489h-3.0638v8.1702h3.0638v5.1064h-3.0638v9.1915l5.1064 2.0425v2.0426l-2.0426 4.0851h-3.0638v16.34h3.0638c0 6.9283 3.0963 23.52-3.0638 27.574l3.0638 1.0213-3.0638 6.1276 3.0638 1.0213v15.319h-3.0638l3.0638 8.1703-3.0638 2.0425 3.0638 1.0213v7.1489h-3.0638v28.596c-7.5097 14.227-6.1277 31.403-6.1277 46.979 0 10.012-.87741 20.511.4311 30.454.78783 5.9864 3.1333 11.473 3.654 17.546h-6.1277l-3.0638-3.0638-8.4422-17.291-1.7705-22.538h-3.0638v-16.34h3.0638c.00081-4.7311-.0974-9.4817.17142-14.207.63811-11.218 7.3802-30.661-7.3204-34.814l-2.0426 7.1489v2.0426l.22652 14.404-2.146 28.54 6.0046 51.013h7.1489v5.1064h4.0851c4.2221 7.604 10.676 13.412 18.383 17.362v22.468l-37.688.2327-38.908 3.8524v3.0638c-14.771.4133-27.943 9.9027-42.894 6.1277l-.12293-39.779-1.9044-22.528-.16287-73.462-3.6464-18.612-.37693-30.435-1.9567-40.886h-3.0638l-2.9278-28.188-5.2425-39.216h-3.0638l-8.1702-72.511h-3.0638l-4.3179-50.98-3.8524-24.594h-3.0638l-8.1702-46.979h-3.0638l-10.213-37.787h-3.0638l-8.1702-36.766h-3.0638l-8.1702-35.745c-6.2954-1.3972-7.1689.95844-11.234 5.1064v2.0426c5.0722 8.4433 4.8681 15.894 5.8135 25.308.87828 8.7459 2.3506 16.867 2.3567 25.755h5.1064v5.1064h-5.1064l3.0638 10.213-3.0638 1.0213 3.0638 8.1702v3.0638h-3.0638v11.234h3.0638c0 12.817-2.0322 27.532 2.0426 39.83v2.0425l-5.1064 4.0851 3.0638 1.0213-3.0638 9.1915h5.1064l-2.0426 35.745 1.1018 56.034 2.9779 28.736.0541 138.89 1.4528 19.363-1.4433 29.635 1.9429 27.576.0414 39.851v2.0425c-2.8156 5.49-3.8482 13.266-4.046 19.417-.18575 5.7778.74483 11.412-5.1455 14.285l-6.1277 50.043h-7.1489l-12.579-6.3122-7.847-7.9857-28.596-8.1702v-3.0638l-46.979-8.1702v-3.0639h-9.1915c1.0978-5.3425 2.0005-10.597 7.1489-13.277 1.9011-9.4882 7.6869-15.004 13.277-22.468l13.836-5.1391 17.824-3.0312 3.73-17.364-3.73-21.444h-3.0638l-8.1702-35.745h-3.0638l-8.1702-42.894h-3.0638v-4.0851h-8.1702l8.1702 37.787h3.0638l8.1702 42.894c6.4084 3.3345 7.893 12.378 11.234 18.383v2.0425l-8.1702 6.1277v3.0638c-15.142 2.1434-27.254 12.543-33.702 26.553-5.3706 3.1294-7.9728 8.044-10.012 13.809-1.6318 4.6128-1.5619 8.3784-6.3282 10.701v4.0851h-4.0851c.00097-6.7103-.2244-19.632 7.1489-22.468l10.213-19.404c9.287-6.2264 5.3421-19.379 5.6278-28.533.19227-6.162 1.5047-12.176 1.5226-18.444.0207-7.2196 3.0447-12.618 3.8576-19.492 1.5342-12.973.91313-27.695.14346-40.736-.2887-4.8916-3.118-8.7152-3.7565-13.458-2.0988-15.59-4.3306-32.099-4.331-47.847h-3.0638l-.56994-19.158-4.6458-19.124-1.4133-17.666-3.5838-38.01c-8.5716-5.1029-8.8389-16.594-9.2755-25.501-.50521-10.308-1.9586-20.258-1.9586-30.669h-3.0638c0-10.794.7696-21.905-.0559-32.666-.30727-4.0054-3.4126-6.4747-3.8881-10.319-.61742-4.9921 1.9798-10.686 2.7864-15.62.93996-5.7494-6.8296-10.739 1.1576-14.927v-2.0426c-5.2621-8.4304-3.5962-17.968-4.3933-27.441-1.6249-19.312-3.7528-38.951-3.7769-58.346h-3.0638v-37.787h3.0638l6.1277-13.277h5.1064l8.0702-9.6184 11.334-6.722 33.702-8.1702v-3.0638h18.383v3.0638c6.7051 0 13.565-.38853 20.241.31765 6.9226.73223 14.821 5.4872 19.431-2.2762.96505-1.6252 1.5538-3.4264 2.2003-5.1904h3.0638l8.1702-31.66 9.1915-2.0426m13.277 99.064-2.0426 13.277h-2.0426l2.0426-13.277h2.0426m42.894 161.36-4.0851 6.1277v-6.1277h4.0851m-195.06 30.638v5.1064h-2.0426v-5.1064h2.0426m291.06 376.85c-.12859 2.8506-.13931 5.8244-1.1463 8.5374-2.9648 7.9875-13.389 7.3418-19.156 2.9467-4.7933-3.6528-5.6112-8.7433-.18233-12.168 1.2256-.773 2.5614-1.3975 3.9386-1.8473 2.2672-.7404 4.6365-.9702 7.0015-.652 3.3309.448 6.4611 1.9261 9.5447 3.1828m-214.47 11.234-18.383 6.1277v3.0638h-13.277l7.1489-9.1915v-4.0851h4.0851c3.721-6.0994 13.358-12.628 18.552-3.8848 1.4333 2.4126 1.6045 5.2504 1.8734 7.9699m-98.043 4.0851 26.553 2.0426 4.0851 5.1063v2.0426l-9.1915 4.0851v3.0638c-9.936 1.7414-14.002-5.6339-22.468-9.1915l1.0213-7.1489m-52.085 13.277c10.518-4.9513 20.546-8.8842 31.35-1.8253 3.8894 2.5413 12.191 9.8707 7.9478 15.147-2.917 3.6267-10.845 2.7136-14.957 2.87-7.3513.2794-22.973 2.6607-24.983-7.3417-.58787-2.9252.1291-5.9713.64192-8.8499m474.89 20.426 2.0426 11.234-20.426-2.0426v-9.1915h18.383m20.426 33.702v5.1063h-3.0638v-5.1063z" style="fill:#2e5d3a"/>
</svg>
