<?xml version="1.0" encoding="UTF-8"?>
<!-- Created with Inkscape (http://www.inkscape.org/) -->
<svg version="1.1" viewBox="0 0 2284.6 1010" xmlns="http://www.w3.org/2000/svg">
 <path d="m926.3 35.745c-10.006 4.1809-19.502 12.273-23.489 22.468-6.5338 3.7622-9.9114 7.8084-11.234 15.319-16.418 10.483-11.908 32.519-15.788 48.675-3.2928 13.71-9.0349 26.094-15.631 38.483-3.4451 6.4704-8.079 12.054-10.453 19.054-7.393 5.1314-16.1 20.627-12.272 29.856 1.9279 4.6489 7.7008 6.9773 10.837 10.783 3.7249 4.521 6.2947 9.9882 12.038 12.305 9.195 3.71 20.668 4.2483 30.365 6.4588 6.4861 1.4786 11.992 2.5166 16.224 8.0002 8.7016 4.4516 17.097 11.691 20.728 21.048 5.328 13.731.11594 31.859-6.243 44.369-8.4112 16.548-21.763 25.816-37.054 35.38-12.982 8.12-27.437 15.427-42.793 17.671-2.4505 5.0328-10.201 2.9505-15.182 4.2222-9.555 2.4397-18.924 6.1896-27.466 11.158-4.6712 2.7174-8.0266 7.4776-13.522 8.1088l-8.1702 6.1277c-.065-47.548-2.4707-95.486-17.326-141.08-5.0236-15.417-12.925-29.818-20.168-44.258-6.8721-13.7-15.213-27.245-24.441-39.483-3.5633-4.7255-8.5116-11.214-14.733-12.356-4.945-.90801-6.153 3.5546-6.2376 7.5341-.16443 7.7361.79039 14.887 5.2883 21.299v2.0426l.13239 9.1915 3.9527 26.553h3.0638l-3.0638 14.298v1.0213l5.1064 33.702v1.0213l-.39719 6.1277.39719 8.1702v1.0213c-2.0487 1.1507-2.0486 1.9132 0 3.0638v14.298c2.9427 2.9426 1.968 7.2084 2.0426 11.234.17117 9.2429-2.0426 17.535-2.0426 26.553 0 4.0703-1.7639 11.221 3.0638 12.255l4.0489 26.013 1.6604 19.89.41832 15.374v1.0213l3.5573 19.121.80479 34.652-11.595 29.848-16.257 31.784c-3.9666 1.3948-3.9906 4.2726-4.0851 8.1702l-11.711 16.265-17.906 22.543h-5.1064l-8.1702 8.1702-3.0638 8.1702c-11.911 3.8643-22.777 14.648-26.553 26.553h-3.0638v4.0851l-4.487 7.0118-5.6359 16.435-3.5745 15.206-14.7 27.466-12.473 21.277-6.1088 10.648h-3.0638l-12.255 26.553h-3.0638c-3.4832 11.795-6.4094 22.891-4.2826 35.389.90166 5.2985 3.6025 10.008 5.068 15.138 1.7974 6.291 2.372 13.397 1.9259 19.914-.90378 13.201-10.761 22.949-24.158 20.453v-4.0851h-3.0638c-2.4842-11.673-8.1055-22.509-7.8244-34.671.26664-11.538 19.265-21.715 4.6213-32.319-2.1426-1.5516-4.5739-2.5025-7.0097-3.4778l-4.6884-31.323-5.5474-37.991-5.1497-31.836.93323-11.737 3.4841-12.542-5.5501-12.051-3.8466-21.643 10.565-27.674-10.153-16.26-6.6006-24.688-55.149.43821-24.511-2.4808c-3.8894 1.9466-9.9269 2.7313-12.844 6.0792-5.2272 5.9992-1.2463 15.996-4.2983 22.884-1.8969 4.2811-6.3486 6.2057-9.1151 9.7736-6.1536 7.9363-.89383 15.645 3.7893 22.54 12.924 6.2017 4.2554 27.865 3.0638 38.809l-8.1702 1.0213v7.1489h-3.0638c.7578 6.9971 6.9977 10.074 7.9775 16.405.81068 5.2382 1.0692 12.986-.35776 18.107-.93557 3.3576-3.0752 5.8984-3.5348 9.4641-1.1687 9.0667.24001 18.351-.83465 27.51-.44803 3.8181-1.868 7.4904-2.1365 11.295-.37027 5.2461 2.4094 9.3474-3.1564 12.198-.54611 8.4351-.54131 17.445-3.8468 25.37-3.7554 9.0033-19.181 19.151-6.3976 28.788 1.8667 1.4072 4.0042 2.1956 6.1594 3.0333l-3.0638 17.362c.32268 4.7298.45386 9.424-.34115 14.121-.48421 2.861-1.2781 5.6866-2.5725 8.2924-4.2748 8.6062-12.134 10.521-21.015 10.817-11.986.39994-25.979-2.9953-37.348 1.4927h-1.0213l-24.511-2.0426-52.085 2.0421-153.19.00044-45.957.655-22.608 1.4848-5.7905 9.3357-2.2402 26.312h3.0638v-4.0851h1.0213v10.213h-1.0213l-3.0638-3.0638c6.115e-7 10.631-.95315 21.769 1.543 32.182 2.421 10.1 6.6502 14.083 16.84 9.6899l-1.0213 4.0851c7.2911-.8205 13.645-1.1036 20.426 2.0426h1.0213c4.2995-2.5094 7.4031-3.5075 12.255-2.0426h2.0426c1.7862-.79756 3.4954-1.648 5.472-1.855 17.385-1.8212 17.194 25.041 21.081 35.557-4.9861 1.0685-3.5351 11.24 0 13.277v17.362h4.0851l-3.0638 5.1064c63.576.2342 127.59 3.182 190.98-2.0425 0-9.0927.45943-18.333-.30821-27.4-.8372-9.8884-2.91-19.057.30821-28.77v-1.0213l-2.0426-1.0213v-1.0213c5.28-7.9569 10.541-13.297 20.426-9.1915h2.0426l16.393-.0826 27.421.031 143.08.0486 24.585-1.8682 40.779-.58743 315.57-.60526v-5.1064l-31.683-3.0196-34.735 1.9125-51.029.0858-79.625-1.9843-20.495 1.8984-54.093.0863-35.745-2.0431h-1.0213c-13.746 4.5547-30.008 1.7442-44.216 1.2411-7.6861-.27215-15.427 1.7789-23.189 1.8154-8.7029.0408-18.31-1.204-26.553 2.05h-2.0426c-11.45-4.5201-26.681-2.0426-38.809-2.0426-19.698 0-39.496-.57864-59.183.0858-9.2695.31285-18.301 1.9428-27.626 1.9551-27.303.0358-54.356-2.0409-81.702-2.0409-40.248 0-80.225 2.062-120.51 2.0421-10.146-.005-19.634-1.9003-29.668-2.6532-17.643-1.3239-36.5-1.4029-54.077.61112v5.1064l-34.723-5.1063c0-15.286.54062-30.688-.22293-45.957-.2963-5.9254-2.3199-14.769 2.1187-19.657 5.8289-6.4197 18.97-4.6803 26.7-5.0761 24.143-1.2361 48.336-.79881 72.51-.79881 38.751 0 77.56.77281 116.3.14118 7.555-.12317 15.104-1.2421 22.65-1.2956 20.001-.14169 40.117 1.1544 60.196 1.1544h57.191c9.5626 0 20.565 1.5307 29.617-2.0426h2.0426l18.383 2.0426h2.0426l16.34-2.0426h2.0426c5.8035 2.288 11.558 2.288 17.362 0h1.0213c5.2221 2.0106 10.406 1.4873 15.903 1.6922 10.803.4028 23.893 2.3528 34.14-1.6922h2.0426l8.175.0236 24.506-.0236h79.66l22.468-1.0023 52.085.99759 27.574-.99759 18.322 1.2009 7.2293 1.8203 94.955.0189 9.2151-1.9574 20.407-.0804h96l19.39 2.0142 27.589-2.7659 86.808.75175 20.364.19859 8.2317-.19859h1.0212l24.687.17378 21.817-.40105 131.13-1.1572 43.981.36316 23.489-2.0426h10.213l24.51 2.0409 51.166-2.0857 111.22.0448 116.4-.80043 30.667 2.8399 46.986-2.0148 126.63-.0341 114.38-1.0118h51.064c12.387-4.1044 27.42-2.2006 40.27-1.4683 12.057.68723 24.367.034 36.457.22821 46.506.74719 93.224-1.8237 139.78-1.8237l3.1561 20.393 1.9503 15.351v1.0213c-2.56 2.6638-.3568 5.8468-.088 9.2192.4613 5.7944 2.1124 18-1.9338 22.661-3.9156 4.5109-13.926 4.8766-19.425 4.8852-7.152.0112-13.522-1.3864-20.486-1.954-10.066-.82043-20.478-.0884-30.578-.0884-4.0003 0-8.1622-.31883-12.138.17772-3.7323.46613-5.9279 1.978-9.3087-.17772h-2.0425l-37.787 3.0466-57.191-.60788-25.532.55758-43.88-.76035-20.495 2.775-40.619-.563-81.899-.37968-31.66 1.4102-97.021.59092-165.38-1.6398-35.811 1.5001-85.787-.46215-42.888.6676-20.431-.008h-2.0425c-14.824 4.1883-30.915.79619-45.958.79619-12.67 0-25.361 3.3214-37.787-.79619h-2.0426c-15.771 5.2249-34.732.46875-51.064 1.1367-4.1385.16924-8.1561 1.3275-12.308 1.4592-29.816.94561-59.96-.63356-89.82-.54716-10.215.0295-20.423.0195-30.638-.002-7.6284-.0163-15.145.38011-22.468-2.0463h-1.0216c-5.7063 3.1324-12.077 2.0544-18.383 2.0459l-33.702-.003c-42.23 0-84.456 1.0213-126.64 1.0213l-42.894 7e-5c-6.16.001-13.235-1.2627-16.34 5.1063l43.843.48595 21.519 2.5453 26.563-1.9854 135.89.63698 17.299-1.438 39.826.0807 83.745.50553 25.531-.75998 18.384-2.1137h2.0425l22.468 2.0425 36.766 6e-5 141.96-2.3434 87.83-.71702 104.17 1.0178 108.26-.98281 150.13-.0153 83.745-2.0657 4.0851 22.468v1.0213l5.1064 17.362v2.0426c-3.05 8.1143-1.9427 18.286 0 26.553 44.205 6.0854 88.255 3.0639 132.77 3.0639 10.8 0 21.659.317 32.449-.1958 6.947-.3301 13.656-.846 19.245-5.4473 18.658-15.36-4.0562-45.934 16.731-60.74v-4.0851l58.213-6.1277c0-19.818.938-39.782-1.5758-59.457-.7714-6.0375.2037-15.527-4.501-20.161-5.8242-5.7368-20.184-3.1053-27.625-3.1053-23.601 0-48.046 2.9882-71.489 0v-2.0426c4.3542-2.7128 4.6544-6.663 6.9659-10.898 1.7249-3.1603 4.6312-5.4945 6.0684-8.8455 3.8138-8.893-1.4419-15.742-9.9705-18.044v-4.0851l16.34-5.1064 1.0212-6.1277h-4.0851l6.1277-20.426-31.66 3.0638c-.3111-3.5609-1.6241-16.289-7.8146-9.6768-.6019.64297-1.0176 1.8239-1.3769 2.5278l-15.319 3.0638c3.8627-9.3647 8.9414-13.192 18.383-16.34v-4.0851c-4.8623-.844-10.866.10036-15.252-2.4124-5.6668-3.2467-3.7345-9.8332-2.1226-14.897 3.7762-11.862 13.937-19.952 17.374-31.712l-20.77 7.8442-18.312 5.067-22.194 6.493c-3.4448-23.295-21.082-38.064-39.83-50.043 2.4493-8.4127 7.5742-15.992 9.078-24.596.8418-4.8153.1135-10.348.1135-15.234 0-5.0563 1.5773-11.243-3.0639-14.298l3.0639-1.0213v-4.0851l-36.891 9.4631-28.471 4.8347c.228-9.0076.3063-17.704-2.3809-26.423-1.3244-4.2967-3.8993-8.8273-8.9535-8.9307-5.5235-.11295-10.58 4.0322-15.219 6.4921-4.2764 2.2677-8.5 3.0045-13.277 3.3292v3.0638c-16.066 1.5012-23.321 13.078-34.172 23.103-4.7756 4.412-10.478 7.7606-16.299 10.592-11.927 5.8018-25.918 11.187-38.788 14.455-18.127 4.6022-37.02 7.232-54.146 15.174-13.929 6.4592-23.822 16.726-36.453 24.885-14.212 9.1798-29.493 13.809-45.566 18.393-10 2.852-19.295 6.0582-29.896 5.7389h-2.0425c-5.6529 2.6077-11.954 2.3544-15.319 8.1702l-25.706 2.6753-21.272 4.4736h-2.0425l-3.0639-32.681-12.238 6.8158-11.041 17.693-22.681 4.0776-27.571 1.0305-3.0638 3.0638-3.6584 34.672 6.7222 35.796c-7.3812 2.6247-20.808 1.4926-25.052 9.106-7.0702 12.682 10.53 22.898 5.8046 35.526-2.0801 5.5592-9.7329 4.3863-14.454 4.3888l-30.638-.00037c-6.1539-.008-11.6.44095-15.319-5.1059l12.832-18.768 12.622-27.51 5.1841-25.211v-2.0426c-5.4614-5.4614 1.0213-14.812 1.0213-21.447 0-9.3259 1.6832-20.448-.1134-29.589-.8542-4.3464-3.3799-8.989-4.6809-13.39-1.0852-3.6712-.3475-8.3924-2.0426-11.773-5.6318-11.232-16.287-13.232-26.638-17.362-5.647-2.2528-10.566-5.3475-16.652-6.4114-7.1641-1.2523-21.208 1.7611-25.929-4.3972-4.3285-5.646-5.6334-12.475-8-18.979-.7559-2.0773-2.6832-3.3676-3.5462-5.4185-1.3643-3.2426-.6572-6.6393-1.5602-9.9007-1.3132-4.7431-3.8446-9.8259-4.6809-14.553-.9284-5.2486.166-10.994-.1418-16.312-.2933-5.0661-2.1176-9.5115-2.922-14.326-1.1632-6.9625.07-14.31-1.2482-21.333-.8915-4.7511-3.6929-9.7742-5.2767-14.411-.8653-2.5338-.3803-5.2674-1.3616-7.7447-5.1051-12.888-12.607-24.699-21.021-35.518-5.1963-6.681-10.105-13.925-14.071-21.447-1.8399-3.4897-.7205-7.8532-5.1349-8.7943 1.3607-8.6772-8.7223-14.373-7.2671-22.265.7887-4.277 4.9481-8.22 7.3097-11.683 4.8627-7.1315 9.379-14.824 10.993-23.381 1.074-5.6941.6914-11.494 1.3003-17.206.7997-7.5011 2.8754-14.717 2.8605-22.487-.04-20.539-3.1741-40.722-3.9433-61.277-.1888-5.0457.452-10.237-.099-15.258-.5615-5.1144-2.3316-10.128-2.8463-15.381-.3533-3.6057.3836-7.4397-.5391-10.969-1.1103-4.2476-3.3852-11.239-7.7683-12.52l1.0213 24.511v2.0426l1.4422 17.437.6004 6.052v1.0213l-2.0426 1.0213v15.319l-.5566 25.567-5.571 43.88v2.0426c1.4123 9.1428-2.8927 16.294-6.1277 24.511-6.3406 1.4788-12.605 4.4523-19.203 2.1258-8.1031-2.8573-10.411-12.649-13.311-19.628-9.1947-22.13-3.646-47.896-6.5242-71.222-.8662-7.0199-4.1599-13.684-5.4251-20.632-1.0645-5.8457-.501-11.764-1.6987-17.64-1.2532-6.1485-1.3993-12.77-1.7785-19.033-.2306-3.8087-.2847-8.5364-3.3694-11.32-2.6634-2.4035-4.4497.40162-4.3447 3.0959.1362 3.4893 1.8699 6.7998 2.2873 10.278.8109 6.758.9738 13.718.8979 20.519-.062 5.5983-1.3554 10.318 4.4693 13.158l.723 41.821-2.9789 16.49-2.8505 41.774c-9.3741-6.3152-17.988-13.89-27.675-19.738-14.423-8.707-30.32-15.131-44.921-23.693-14.768-8.6605-29.189-19.203-45.124-25.714-17.389-7.1052-34.038-13.918-49.994-24.054-8.131-5.1652-15.121-8.936-19.18-18.121l-8.1702-4.0851c-.3781-5.2894-3.4689-6.8164-5.305-11.3-2.7192-6.6406-3.9847-15.213-2.6666-22.34 1.1833-6.3985 9.6163-11.243 14.459-14.558 4.1743-2.8579 8.3791-6.4396 13.187-8.2837 3.4337-1.3171 7.3751-.49462 10.964-.84637 5.5627-.54511 10.896-2.4833 16.345-2.9456 10.704-.90808 24.943-.10827 32.719-9.0638 3.2098-3.6968 2.9886-11.74 3.0213-16.449.031-4.5231 1.9638-9.0306 1.8771-13.277-.047-2.303-1.6042-4.1123-2.5154-6.1277-2.1757-4.8124-2.7736-9.6325-5.7684-14.014-2.4083-3.5237-1.2626-8.1338-5.8486-9.4752-3.0005-20.862-23.9-31.831-32.682-49.813-4.7711-9.7691-7.2911-22.156-7.9822-32.983-.8562-13.416.5386-25.349-8.0958-36.75-6.8436-9.0367-17.56-13.978-26.732-20.156-24.931-16.793-55.211-31.451-85.87-31.766-11.297-.11575-20.873 3.7129-31.782 4.9983-6.3251.74526-12.651.39358-18.932 1.696-17.275 3.5826-38.091 14.166-48.35 28.943m38.809 40.851 3.0638 11.234h3.0638c6.3764 17.262 26.116 29.508 40.606 39.693 4.1713 2.932 13.717 9.9233 18.775 5.1475 3.2578-3.0762 2.1811-9.2182 2.0554-13.185-.2809-8.8577-.673-23.096 7.4823-29.037 6.1369-4.4704 15.506-1.3844 21.845 1.0073 19.791 7.467 29.958 24.038 32.81 44.374l-20.394 2.8731-18.612 8.7088-16.501 6.2998.358 14.799h11.234l4.0851-9.1915h19.404c2.3258 7.1123.9665 13.397-6.7456 16.174-2.1652.77974-9.8093 1.1786-9.8986 4.4483-.16 5.864 13.128 7.2652 16.777 5.8231 11.185-4.4203 19.822-19.021 26.42-28.488h1.0212c5.2646 8.7416 11.705 18.651 13.615 28.822 3.0125 16.041-1.6906 30.262-6.2188 45.221-5.1243 16.929-9.2088 36.831-18.91 51.857-3.1954 4.9495-7.8519 8.5669-11.983 12.675-9.4777 9.4249-19.64 21.449-33.838 23.261-5.0108.63942-10.075-.10921-15.102.27657-6.8766.52772-12.799 2.1109-19.69.43223-7.7389-1.8854-14.563-5.7423-20.901-10.488-18.261-13.675-38.959-36.785-29.951-61.163l12.255 2.0426-12.44-38.639-7.9858-30.808c6.5429.92079 12.045 4.6379 18.505 5.5731 6.4116.92809 12.78-1.5756 19.096-.64241 8.9875 1.3279 17.843 12.103 16.426 21.263-2.0336 13.146-14.511 21.6-16.24 35.083h3.0638l9.1914-17.362h1.0213l15.247 12.965 9.8283 17.166 8.6264 1.5288v-3.0638c-5.3525-1.4031-8.2779-5.2728-3.1579-9.6779 8.5581-7.3631 20.958-7.4262 19.498-21.982h-1.0213c-5.0338 9.2861-25.649 18.352-31.069 4.5805-4.7346-12.031.5106-27.852.5308-40.372.013-7.9406-3.1973-15.745-7.2493-22.421v-1.0213l3.0638-5.1064-16.018-11.292-12.886-3.3359-27.266-8.8611-4.6899-11.437.47043-10.958-3.7264-16.509 6.9247-18.287h6.1277m101.11 11.234-1.0212 1.0213 1.0212-1.0213m-114.38 48h1.0213c1.2344 1.4297 2.5473 2.8221 3.4466 4.5018 4.5044 8.4128-6.6336 10.717-6.207.88688.0863-1.989.89767-3.6318 1.7391-5.3886m134.81 11.234c3.5056 5.723 5.1551 9.754 3.0638 16.34-4.4823-4.104-11.685-13.073-3.0638-16.34m-88.851 23.489c-9.1571 4.7957-17.139 4.4321-22.468-5.1064l-6.1277 5.1064c-5.0669-8.6295 1.9411-17.072 11.887-15.589 7.517 1.1208 13.29 9.5115 16.709 15.589m-286.98 0v1.0213l-2.0426 2.0426c10.796 8.8617 16.942 22.937 23.215 35.076 6.2173 12.033 13.831 23.635 18.424 36.425 3.8516 10.726 5.0049 23.113 11.468 32.669-3.4049 9.4308 2.8754 19.68 4.8889 28.733.79139 3.558.1112 7.4632.63829 11.097.50603 3.4884 3.156 13.451.60047 15.319v1.0213c2.1109 2.3009 2.0791 3.806 0 6.1277v2.0426c4.185 10.601 3.2669 27.017 0 37.787h3.0638v1.0213l-3.0638 5.1064h3.0638v1.0213l2.0426 25.532v98.043h3.0638l1.0213 50.043-3.0638 1.0213-.681 42.894-.961 29.313-4.4857 12.56-18.383 6.1277c-.73567 4.7901-1.988 9.5843-2.0282 14.45-.0307 3.7172 1.3004 7.8901.26411 11.528-1.0013 3.5152-5.4444 5.8259-8.7282 3.672-2.9305-1.9222-2.1237-6.4753-1.9901-9.4162.36733-8.0867.30556-16.216.20233-24.31-.1213-9.5117-3.3162-18.287-3.8836-27.687-1.4064-23.299-.17678-47.024-.17678-70.365 0-20.368.8172-40.933-.22421-61.276-.86364-16.871-3.7914-33.467-5.6335-50.176-1.8451-16.736-2.5221-33.593-4.2436-50.334-1.301-12.652-7.1704-24.865-7.8301-37.469-.50908-9.7268 1.9675-19.661 1.8509-29.488-.0742-6.2539-1.7546-12.282-2.1258-18.506-.76689-12.86-.41701-25.769-1.3949-38.637-.39863-5.2456-1.9892-10.269-2.5207-15.491-.92397-9.0764.13894-18.253-.6598-27.34-1.1873-13.508-5.3686-28.242-9.8992-40.986v-1.0213l2.0426-1.0213v-1.0213l-2.0426-10.213 10.213 3.0638m324.77 19.404 6.1277 26.553h3.0638l-5.1063-26.553h-4.0852m-22.468 17.362v19.404c-10.033-4.1935-7.7641-11.447-3.0639-19.404h3.0639m5.1063 58.213v4.0851l23.489 2.0426h1.0213l22.468-5.1064v-9.1915l-18.494 5.352-28.485 2.8182m-19.404-8.1702-9.1915 20.426 16.34-6.1277-5.1064-14.298h-2.0425m14.298 20.426c1.7265 7.49 7.6658 9.2394 14.735 10.238 2.4693.34888 6.3065.90683 8.2995-1.0648 3.4773-3.44-5.0516-5.6022-6.8877-5.9087l-5.8137-.81508c-3.5105-.561-6.9165-1.4864-10.333-2.4496m81.702 14.298c-2.0492 20.231-21.15 42.151-38.616 51.59-4.5979 2.4848-9.456 4.2035-14.593 5.152-3.3956.62696-8.2152.77998-10.381 3.9507-4.2897 6.2812 6.4546 9.2693 10.553 9.5141 10.347.61816 16.297-4.4984 23.558-11.04 7.4904-6.748 13.947-14.194 23.352-18.316l16.34-28.596c6.2369 4.3841 13.669 12.901 12.346 21.129-.7814 4.8566-3.9744 9.3067-6.2179 13.595 7.3442 1.7849 11.679-.34558 16.34-6.1277l14.875 1.521 18.827 8.6918v5.1064c17.449 2.6398 31.355 14.297 46.317 22.669 16.679 9.3328 35.239 15.343 51.412 25.593 17.723 11.231 31.75 26.22 51.377 34.462l3.0639 6.1277v2.0426c-17.213 11.809-39.123 21.005-53.106 36.766l-21.71 16.504-32.886 31.71-18.936 19.19-8.1702 15.319-3.0639 3.0638c-12.043-1.7352-20.894-10.55-31.585-15.761-14.838-7.2318-31.245-11.603-47.576-13.699-8.3977-1.0782-16.86-1.6349-25.232-2.8799-4.9412-.73485-9.8819-1.3856-13.506-5.1734-9.0618-9.4704-6.1604-24.135-6.8538-35.967-.4204-7.1726-2.3833-14.223-3.1671-21.379-.8373-7.6455-.8042-19.567-10.973-18.501v1.0213l2.0426 1.0213v8.1702c-2.0117 8.9566-2.1239 18.43-2.3436 27.573-.142 5.9078.3274 12.026-2.6544 17.372-12.294 22.041-42.209 25.975-62.746 36.191-13.534 6.7325-26.765 17.295-41.532 20.992v3.0638l-11.472 2.6918-8.2328-11.011-15.757-25.107-20.036-32.037-17.343-18.449-23.736-24.511-22.54-16.39-26.927-25.314v-1.0213c9.0207-7.877 18.316-16.431 29.063-21.915 12.022-6.1345 25.577-8.8622 38.25-13.219 18.704-6.4298 37.789-15.473 54.163-26.564 5.4866-3.7163 11.403-6.9544 16.605-11.063 5.7721-4.5592 13.873-16.108 20.996-6.9105.97527 1.2593 1.5937 2.6758 2.2854 4.0974h-5.1064v5.1064h-4.0851c-8.067 10.224-20.63 14.942-31.913 20.623-11.772 5.9271-23.893 11.295-35.587 17.32-7.0888 3.6522-13.449 8.4161-20.838 11.543-9.2817 3.9276-32.061 8.8071-28 23.719 2.7102 9.9533 14.725 13.573 22.409 18.511 11.067 7.1104 22.433 19.196 26.526 31.86l14.298 12.255c-.85709-13.101-11.522-26.556-20.426-35.745-2.0669-5.8986-8.0225-13.359-6.2376-19.813 2.195-7.9371 12.836-14.607 18.468-20.184 10.975-10.867 23.745-17.679 36.028-26.703 11.831-8.6927 26.918-21.361 41.894-23.535 12.096-1.7565 21.933 6.4564 33.422 8.5337l-2.0426-7.1489-17.362-8.1702c2.1188-4.4762 4.5272-9.8739 9.2952-12.09 4.2403-1.9706 8.8271-.0775 12.553 2.1468 8.4414 5.0401 16.232 12.179 24.11 18.113h1.0213c.6249-9.6444-10.815-14.73-14.298-23.489 16.773 0 38.038 3.5066 53.486-4.2048 7.9998-3.9934 14.831-9.3325 21.141-15.621 6.8756-6.8522 12.249-14.021 21.374-17.962m-361.53 94.979 2.0426 25.532h5.1064l-5.1064-25.532h-2.0426m627.06 151.15v2.0426l-2.0426 23.489 3.1181 33.574 11.18 25.66v2.0426l-11.234 12.255c-7.9098 1.7702-20.262 4.398-19.438-7.8979.9882-14.758 14.172-24.934 15.006-39.156.3648-6.2148-2.2824-11.586-3.3585-17.56-1.6697-9.2702-2.7408-19.025-3.7961-28.394-.9825-8.7224-.074-17.557-1.2013-26.252-.9133-7.0467-3.7983-13.647-4.35-20.755-.9141-11.775-.039-23.776-1.6024-35.512-1.629-12.232-15.241-21.613-20.784-32.473-5.8538-11.469-2.8932-21.878-2.3479-34.042h1.0213c5.2974 16.021 10.991 40.852 32.697 40.681 5.6628-.0445 10.976-3.3737 16.324-4.9366l6.983-16.755 3.2298-25.117c9.3534 4.2949 1.8606 17.038.3559 23.617-1.0915 4.7721-.5781 8.8643-2.8484 13.432-6.5538 13.187-18.194 23.826-21.166 38.809-.5466 2.7558.8375 5.0957.6952 7.803-.563 10.705.4953 21.721.4953 32.764 0 9.3422-2.3958 24.696 3.0638 32.681m-46.979-119.49v1.0213h-3.0639l3.0639-1.0213m-409.53 150.13v1.0213c2.6518 4.6418 5.3045 13.748 11.47 14.635 5.7864.83197 11.862-7.0502 15.98-10.21 7.9377-6.0899 16.782-11.761 25.678-16.337 6.177-3.1777 12.905-5.1451 18.361-9.5345h9.1915l1.0213-2.0426 7.1489-1.0213-1.0213-1.0213c8.2942 2.0933 17.008-.12654 25.267 2.4255 11.867 3.667 25.422 11.627 30.747 23.371 2.7257 6.0109 3.3358 11.733 4.4398 18.057.5582 3.198 2.1012 5.8664 2.104 9.234 0 4.1817-2.2924 7.847-2.3026 12.274-.028 11.885-1.618 21.726-5.4374 32.946-1.2966 3.809-.3412 7.6297-4.7754 8.9267v4.0851c-7.9773 2.6003-15.349 6.7161-23.499 8.8097-15.773 4.0521-32.52 4.0122-48.464 7.6782-41.578 9.5596-83.614 30.115-107.78 66.236h-2.0426c-6.2273-9.4047-10.67-19.714-16.162-29.53-16.141-28.848-31.023-57.568-34.901-90.981-10.041 1.6242-12.999 8.567-20.426 14.298-2.5729-15.232-5.3452-36.119.34988-50.892 2.4027-6.2322 7.2893-10.988 10.884-16.513h3.0638c1.1343 1.6956 3.7067 6.1319 6.4087 4.3469 2.5072-1.6563 2.0421-7.4178 2.3905-10.005.78522-5.8301 2.5185-20.145-7.7349-15.247-1.4359.68593-2.7904 1.5591-4.1105 2.4425-2.5144 1.6825-4.9363 3.5457-7.1066 5.6577-2.9421 2.863-4.7424 5.9387-6.1875 9.7407l-3.0638 2.0426h-1.0213v-7.1489c-3.5128-4.0479-2.0426-11.18-2.0426-16.34 0-12.919.35867-25.895 0-38.809-.48208-17.356-1.0213-34.66-1.0213-52.085 0-3.5158-1.8721-15.492 1.3617-17.617 3.0492-2.0041 5.034 2.3356 7.0638 3.6028 6.9231 4.322 13.533 8.359 20.17 13.418 18.575 14.16 35.038 31.164 50.241 48.993 4.4874 5.2624 9.8598 10.09 14.014 15.574 3.0351 4.0068 4.6891 8.7806 7.6596 12.823 4.1016 5.5814 6.612 12.301 10.411 17.872 3.0975 4.5421 7.3668 8.8566 9.9007 13.674 1.4128 2.6859 6.7108 9.5169 3.7731 11.149m424.85 124.6c-9.6817 7.8781-12.654 20.786-17.79 31.619-1.4103 2.9742-4.0942 10.407-8.4468 9.8337-2.4965-.32875-3.727-3.2466-4.3468-5.3407-1.8082-6.1083-1.8821-12.895-3.2685-19.157-4.0363-18.23-2.4756-39.224-1.7569-57.805.2359-6.099 4.0246-16.656 1.6333-22.301-1.9453-4.5923-5.5812 1.1635-6.2473 3.3386-1.9842 6.4796-2.2421 14.285-1.649 21.004v1.0213l-2.0426 22.468.2561 28.496 2.6575 19.519-1.5496 29.272-7.4916 28.925c-12.278.45797-26.607 1.7166-37.733-4.6449-16.361-9.3546-21.642-32.352-32.36-46.829-8.3129-11.228-21.543-19.936-27.949-32.271l-22.357-12.737-29.021-13.786-27.26-10.243c1.1726-3.6526 2.4233-7.3584 2.3144-11.248-.5608-20.022-23.351-21.413-38.059-21.433v-17.362c9.5329.19648 23.735 5.7973 31.828-.95239 4.0807-3.4031 6.0209-9.049 9.0228-13.345v-1.0213l-6.1276-14.298c-2.7895-1.6177-5.4742-3.8454-8.5677-4.8412-18.399-5.923-16.14 20.479-26.156 26.288 0-8.4993-.601-17.381 2.4584-25.477 3.5586-9.4171 11.255-19.921 20.277-24.662 12.124-6.3702 32.22-5.71 45.07-1.8261 13.958 4.2186 22.239 14.289 34.322 21.327 3.8994 4.358 8.061 6.0075 12.099.65289 3.6909-4.8948 5.7067-10.932 9.0272-16.08 4.74-7.3495 10.701-14.055 16.255-20.795 10.92-13.251 24.797-24.982 34.108-39.352 9.5721-4.2252 16.6-11.548 24.871-17.705 11.129-8.2838 23.679-15.946 35.994-22.328 7.0267-3.6412 17.032-10.623 25.371-8.6154 5.9962 1.4435 8.8056 7.8934 9.9098 13.373 2.9556 14.669 3.1543 30.459 5.0936 45.355 1.8576 14.268 1.2392 28.618 3.1956 42.852 1.0281 7.4797 1.3139 15.065 2.4247 22.51.9177 6.1516 2.7801 12.022 1.9156 18.319-1.6506 12.023-11.918 20.611-13.589 33.014-1.8958 14.067 2.2133 27.792 1.2586 41.645-.5963 8.652-5.3734 17.25-7.5935 25.622m35.745-208.34v5.1064c6.7348 1.8368 10.143 6.0446 14.135 11.551 7.8665 10.851 14.951 25.705 14.234 39.428-.3555 6.7994-2.848 13.196-4.5511 19.727-1.9777 7.584-3.7702 15.161-4.7399 22.947-.3184 2.5564-1.2864 7.0346 1.0441 8.9909 2.228 1.8701 4.3067-1.3689 5.0641-3.0914 2.4172-5.4961 3.2895-11.989 4.4312-17.85 2.3584.01 4.7788-.0898 7.1161.28574 9.8223 1.578 8.9264 11.217 11.653 18.526 3.0865 8.2746 3.5849 15.321 5.0809 23.943 1.8486 10.654 4.1579 21.097 6.1275 31.66 1.611 8.6396 8.0571 17.364 5.2742 26.462-1.4459 4.727-6.5652 5.2256-10.748 5.7734-11.094 1.4529-20.581-1.4882-27.567-10.65h-1.0213c3.8153 21.82 32.592 17.052 42.236 34.914 6.1793 11.444-4.4253 26.098-6.4913 37.597 8.5235 1.0661 26.829 1.4028 29.202 12.687.9106 4.3298-2.2374 8.349-3.3918 12.314-1.1116 3.8179.059 7.0956.4348 10.894.613 6.1912-1.8684 10.449 4.3938 14.147.7493 5.7153-1.4728 9.9547-1.9054 15.484-.5043 6.4449 2.6686 12.271.4792 18.755-6.9284 20.517-38.42 13.274-54.729 13.611-7.9167.16375-17.524 5.8832-25.082 3.8665-7.3015-1.948-10.169-11.715-5.8696-17.714 3.4303-4.7869 10.409-4.3103 15.618-4.3829 8.2091-.11438 15.115-.43278 21.446-6.1305 10.108-1.5546 19.174-9.8019 22.468-19.404-11.18 2.8671-21.485 8.7236-32.392 12.506-14.957 5.1867-31.844 3.4943-36.033 22.218l-19.404-8.1702c-1.0454-2.7528-2.0728-5.4788-2.4178-8.4255-.2542-2.1711-.1885-4.3745.2016-6.5258 2.5428-14.022 15.229-13.751 26.25-17.005 7.7003-2.2734 14.823-5.6602 22.669-7.6727 8.7135-2.2349 17.311-4.3642 20.701-13.477-12.521-1.2107-27.928 1.9878-39.386 7.2063-8.3773 3.8158-18.61 11.536-28.085 11.618-9.8522.086-10.819-14.175-7.1353-20.749 1.4245-2.5422 3.7195-3.8581 6.1803-5.2244l-11.564-14.249.33-11.283c-4.8155-1.3149-6.7131-7.3741-3.7353-11.589 2.7831-3.939 6.5628-4.9522 10.87-6.1135 2.8552-.76976 5.1133-3.4815 7.1631-.6808h1.0213l12.486-5.1053 21.9-13.627 11.571-6.7996c-3.445-5.4224-8.508-21.322 0-23.489-3.4424-11.054-11.42-23.83-8.1702-35.745v-1.0213c-2.2135-5.3565-3.0209-11.099-5.3229-16.45-3.1399-7.2984-8.0931-14.612-9.4076-22.516-1.4773-8.8829-.5885-18.44-.5886-27.418-3e-4-10.106-.8849-19.76-1.7344-29.792-1.2452-14.705 2.1166-32.109-4.3933-45.783l1.0213-4.0851h3.0638m-60.255 25.532c-5.5526 10.965-13.514 25.199-13.023 37.718.3299 8.4166 4.3913 16.201 5.5819 24.532 1.1716 8.198.3084 21.201 8.4626 25.58.49-7.8982 2.3573-15.598 2.8252-23.499.7831-13.224.1604-26.575.2496-39.817.059-8.7417 3.9757-18.635-4.0961-24.514m-586.21 11.234c2.6104 3.0349 5.5699 5.9982 6.966 9.831 3.8554 10.584.97216 24.036 1.3625 35.105.60757 17.229-.27239 34.785 1.1711 51.952 1.8751 22.299 5.6885 44.619-.30818 66.516h-4.0851v3.0638l-32.503 2.4505-19.76-5.3289-20.248-3.2493h-1.0213l-2.0426 6.1277h-1.0213c-3.8335-6.2031-8.9561-4.4782-15.389-4.1933-5.4136.23974-10.853.10821-16.271.10821-.25195-6.46-2.2264-13.361-.74576-19.738 1.5308-6.5936 5.0247-12.452 8.183-18.354 14.941-27.922 41.452-45.428 58.617-71.51 3.429-5.2104 5.7917-11.035 9.2624-16.236 4.905-7.3508 10.794-13.903 15.931-21.062 4.0803-5.6866 5.2943-12.176 11.901-15.483m-235.91 27.574 6.1277 19.404-44.913 1.0796-43.938 1.9843c.003-7.2664-2.465-21.265 8.1702-20.426.0301 2.7029-.0253 5.4477.35063 8.1316 1.9544 13.955 18.834 4.0953 27.224 2.0812-4.6096-6.8894-11.731-6.8838-19.404-7.1489 3.7348-7.096 11.278-6.115 18.384-6.1249 16.011-.0226 31.986 1.015 47.999 1.0185m-39.83 26.553h1.0213c6.0358 1.8059 11.347.65388 17.496.23107 6.7131-.46158 13.542-.32694 20.267-.18956 10.527.21512 17.536 2.7323 17.386 14.256-24.176 1.3246-48.275 1.5835-72.412 3.2973-10.727.76166-23.513 5.0997-33.976.59934-7.3513-3.1622-4.5089-12.18 1.745-14.682 9.6314-3.8525 24.118-1.6874 34.174-.44905l14.298-3.0638m636.26 15.319c2.0435-1.5971 4.079-3.4252 6.4322-4.5595 16.425-7.9173 17.523 28.162.4436 22.104-1.5861-.5625-2.9801-1.5894-4.0247-2.9046-1.2979-1.634-1.9638-3.6243-2.339-5.652-.5458-2.9488-.4749-6.0026-.5121-8.9881m918.13 5.1064c2.3612 14.226-7.5376 32.815-23.598 33.354-7.4449.24971-15.07-5.2284-22.36-6.8005 3.2206-14.026 17.114-16.082 28.893-20.126 5.8182-1.9975 11.031-5.0269 17.064-6.4269m-1511.5 38.809h-88.851l3.0638-32.681c19.854-.71646 39.297-3.0592 59.234-3.0641 6.3623-.002 16.495-1.9891 22.244 1.2024 3.8271 2.1245 4.0128 7.1224 4.6004 10.949 1.3308 8.6673 2.9569 15.119-.2912 23.593m-82.723-24.511v1.0213l5.1064 3.0638c-1.6098 4.1848-1.2198 6.3988 3.0638 8.1702l-2.0426 2.0426v1.0213l25.532 3.0638v-7.1489c-7.8757.031-13.287-.95969-17.362-8.1702l11.234-3.0638v-5.1064l-25.532 5.1064m1660.6 9.1915 3.0638 5.1064v4.0851l-10.213 31.66c-4.8074 4.5414-6.2074 8.7639-6.1276 15.319h-1.0213v-3.0638h-3.0638c-3.1549 9.4668-6.7767 18.703-15.319 24.511.7917 4.2937 2.682 10.517 8.4273 8.149 8.5612-3.5288 11.668-13.016 22.33-13.265 16.62-.38753 30.846 19.034 32.562 33.711l-31.069 13.326-11.811 17.738-16.354 27.149c-7.3708 4.181-14.988 10.833-23.654 11.768-3.4183.36889-9.3927.23793-10.083-4.1953-.8826-5.6655 5.6361-13.279 7.1838-18.807-9.4909-.80647-19.184-2.4833-24.486-11.281-2.7368-4.5405-3.5675-14.808-8.384-17.463-2.984-1.6449-5.8278 1.5602-7.5461 3.5994-5.0098 5.9455-10.554 11.863-13.711 19.017-6.9353.99273-13.288 3.2275-19.441 6.599-2.4879 1.3632-5.7257 3.137-6.3304 6.1896-1.3637 6.8856 7.0063 11.912.8147 18.707-1.0206 1.1201-2.2542 2.0422-3.5806 2.7697-5.7799 3.1704-13.103 2.4939-19.463 2.4998-12.812.0118-27.531-2.0315-39.83 2.0436h-12.255c-10.695-2.2007-22.744-1.1447-33.642-1.351-25.571-.48389-51.328 1.1257-76.731-.49636-9.3463-.59685-18.992.60775-28.12-2.0009-12.827-3.6658-25.142-13.282-35.361-21.527-13.173-10.628-27.244-25.529-29.38-43.051l41.53-9.0277 20.187-3.7797 50.717-13.312 29.523.58743 5.1064-21.447c7.9797-4.9706 14.822-11.096 23.537-14.882 26.898-11.685 56.64-15.285 83.998-25.833 18.512-7.1367 35.372-20.35 55.87-11.37v2.0426l-9.1915 15.319c8.0386 1.3068 11.71-3.8051 17.912-7.9808 5.4911-3.6972 11.924-6.796 18.01-9.3841 14.153-6.0183 29.677-7.261 44.564-10.469 10.405-2.2421 20.24-6.5347 30.832-7.911m-1566.6 17.362v3.0638h-1.0213l1.0213-3.0638m1488 43.915h6.1276v-10.213c2.6487 1.3164 8.2124 6.4151 11.28 5.303 4.1356-1.4991 2.8479-12.455 4.1401-15.982 3.1482-8.5928 11.836-12.686 20.324-13.832l2.0426-5.1064c-13.263-4.8412-34.578 7.6581-40.527 19.765-3.1049 6.3186-3.3204 13.17-3.388 20.065m-1587.1-39.83h1.0213c12.587 4.1706 26.137 1.3958 38.983.30818 10.744-.90964 21.731-.30849 32.506-.30818 9.6356.00025 22.229-2.5193 26.553 8.1702-32.015 11.732-67.931.99092-101.11 9.1915-4.4586-4.4666-10.195-9.6554-2.8916-14.674 1.5432-1.0604 3.2672-1.8498 4.9341-2.688m684.26 0c7.8739 3.9884 12.365 7.1013 13.277 16.34-9.2672.98998-16.153-.20982-23.489-6.1277l10.213-10.213m285.96 0 2.0426 14.298c-5.3213 2.1206-12.049 5.3001-17.891 3.695-3.855-1.0592-7.5298-5.4056-4.836-9.3312 3.5681-5.1996 15.057-6.3053 20.684-8.6617m-877.28 17.362c3.4487 18.866 2.6899 40.687 11.234 58.213v1.0213c-1.2681 8.7687.79606 19.345 3.152 27.815 1.6505 5.9338 4.5566 14.052 1.3707 19.968-1.6995 3.1557-5.3114 4.0952-8.5425 4.8855-7.07 1.7293-14.467 1.7228-21.702 2.2095-7.7225.51943-15.388-.26797-23.102-.13134-23.894.42337-47.784.40218-71.686.40218l5.6121-34.76 3.1383-34.553 3.505-42.006c7.9571.00087 16.341-.97428 23.489 3.0638-6.3454.37431-10.778 1.5224-15.319 6.1277 3.1189.66834 2.9982 2.0493 3.0638 5.1064l-2.0426-3.0638h-1.0213c-1.0809 6.9752-3.9044 13.565-4.718 20.562-1.6314 14.031-1.1485 28.618-1.4428 42.733-.11064 5.3065-3.9451 17.817 1.3834 21.433 2.6911 1.8261 6.9024 1.181 9.9182.80759 8.6963-1.0765 16.686-4.832 25.498-5.8764v-6.1277h-18.383v-2.0426l23.489-10.213v-2.0426l-23.489-1.0213 3.0638-11.234c7.6858-.25352 14.291-1.2032 20.426-6.1277-7.2579-1.7693-16.492-.84637-20.426-8.1702l28.596-9.1915v-2.0426l-26.553-3.0638v-3.0638c6.4938-2.2016 16.513-3.3564 20.426-9.1915-1.8895-.62421-4.1225-2.0306-6.1292-2.0788-5.4262-.13028-13.579 5.8432-16.339-2.0063l14.298-11.234h-8.1702v-2.0426c21.549 0 46.72 3.6241 67.404-3.0638m873.19 2.0426v1.0213h-3.0638l3.0638-1.0213m-16.34 46.979c-3.7091-8.6591-4.5264-19.717-1.0213-28.596v-1.0213l1.0213-11.234c6.2491-.0254 18.738-3.6848 23.986-.0196 4.6411 3.2415 3.9982 9.8147 3.1487 14.649-2.5805 14.685-14.051 21.303-27.134 26.222m-296.17-34.723h1.0213c11.448-4.5193 23.568-.91151 35.022 1.4363 17.348 3.5558 34.957 7.8336 51.348 14.629 7.9141 3.2812 14.988 8.2214 22.907 11.509v4.0851c12.771 3.6344 21.006 15.148 31.66 22.468 9.3491 16.886 32.7 39.696 11.889 57.489-13.85 11.842-30.56 9.9595-47.634 9.9098-32.36-.0941-64.648-1.0417-97.021-1.015-39.127.0324-78.282 1.2176-117.45 1.0084-8.8479-.0472-17.708-.76259-26.553-.58326-7.7367.15689-16.481 1.4404-23.856-1.5975-7.6487-3.1504-11.151-12.764-12.874-20.203-3.9305-16.97 4.6016-29.217 14.41-42.251 5.0562-6.7186 10.099-13.7 16.232-19.499 7.6115-7.1966 16.953-12.52 26.65-16.35 7.6648-3.0269 15.801-4.5344 22.331-9.8032l49.072-8.4674 40.8-4.8092 2.0426 2.0426m455.49 67.404h-3.0639l5.1064 30.638-8.619 30.591-8.4841 10.515-14.556-.25408c4.2398-30.618-7.3259-60.522-18.814-88.607-4.8043-11.745-19.165-23.765-16.021-37.581 1.8736-8.2332 9.5675-6.0797 15.645-4.6233 12.989 3.113 26.612 5.8591 37.642 14.072 12.964 9.6538 11.166 31.18 11.166 45.25m-928.34 70.468h-1.0213c-4.1889-3.4601-7.987-7.1997-10.706-11.961-3.498-6.126-6.5765-13.8-7.1158-20.881-1.595-20.942 14.965-40.617 26.076-56.71 5.3703-7.7788 7.6257-19.73 16.377-24.613 3.9519-2.2049 8.6468-2.5773 12.997-3.507 8.8889-1.8997 17.304-3.8299 26.41-1.7781 4.1203.9284 11.388 2.9303 11.532 8.2088.11718 4.2968-3.532 8.7626-5.9332 12.024-6.0723 8.2466-13.016 15.859-19.172 24.083-7.3875 9.8704-13.863 20.306-21.335 30.094-10.833 14.19-15.86 31.947-28.109 45.04m500.43-120.51c-1.3219 3.4408-2.6562 6.8934-1.7643 10.629.8219 3.4424 4.1596 9.7826 8.2263 10.131 6.0868.52129 6.4038-9.135 5.3086-12.913-.8033-2.7706-2.2595-5.3127-3.6004-7.847h-8.1702m-327.83 3.0638c1.2919 5.3268 3.3428 12.143.9304 17.432-2.8255 6.1944-14.427 7.9512-18.704 2.3904-4.1641-5.414.63787-17.687 6.504-20.217 3.5924-1.5491 7.65-.42861 11.27.39482m217.53 4.0851c-1.0077 2.7312-2.0257 5.4546-2.3454 8.3706-1.5099 13.775 11.94 10.491 19.707 5.9272v-1.0213l-2.0426-2.0426 3.0638-11.234h-18.383m-245.11 19.404c-8.7264.0915-17.094-.17978-20.426 9.1915l22.463-.0236 8.175.0236h2.0426c6.0998-2.4268 15.298-3.8544 21.362-.66785 4.8432 2.5448 11.808 10.683 7.9077 16.354-2.327 3.3832-7.2243 4.5423-10.887 5.7606 3.3167 8.47 9.6151 4.2763 16.34 2.0426-8.477 13.552-22.4 9.6874-35.778 8.5442-5.8043-.49605-11.561-.0122-17.328.64728v8.1702l15.322-1.4262 17.275 1.1539 26.637-1.7703c.35991 11.962-4.9502 18.976-9.1915 29.617l-5.1064 2.0426h-2.0426c-7.5582-3.0075-15.015-3.3294-22.722-.48595-1.5025.55433-9.1175 3.6417-6.4333 6.3901 2.3401 2.396 8.7185-.0277 11.415-.54342 8.8121-1.6848 17.117 1.2525 25.91 1.7882.88052 6.8644-3.2893 10.416-4.8458 16.691-1.891 7.6234 1.9454 15.745-2.6112 23.022-2.6963 4.3063-8.502 4.0996-12.982 4.1729-10.863.17759-21.761-.32694-32.617.15141-11.401.50235-27.645 5.6928-37.579-2.5555-5.663-4.7018-3.7859-13.246 1.3843-17.487 6.3497-5.208 20.25-7.1146 27.974-4.5914h2.0426c.85348-5.9966-2.2348-8.4349-8.2269-8.3879-7.8326.0614-15.538 2.1442-23.433 2.2602-.74227-4.7915-3.2826-10.976-2.0232-15.778 3.018-11.508 19.226-8.5955 27.555-7.7111-2.9473-13.661-19.086-8.1983-28.596-5.1064-4.6004-11.167-3.1945-20.405 10.213-21.447-1.6387-4.544-10.631-13.367-4.5419-17.548 3.6822-2.5284 8.7179-1.0283 12.829-1.1309 1.7062-.0426 4.4805-.30824 4.9532-2.3856.78665-3.4573-4.9948-4.6543-7.2416-4.9952-5.2665-.79925-10.657-.1516-15.907-1.114-4.3794-.80286-8.4281-2.9036-12.56-4.486.97652-5.454 2.7799-7.73 8.1702-9.1915-3.5042-5.9718-7.7402-6.5013-14.298-6.1277 10.759-12.954 30.49-9.923 45.082-14.651 5.1458-1.6674 13.861-6.4741 19.091-3.1284 4.3294 2.7692 3.221 10.356 3.2313 14.716m1134.6-16.34c-7.1474 11.387-14.354 21.038-9.1915 34.723l14.094-1.4267 17.566 6.5331v4.0851l-6.1277 6.1277 29.617-15.319c-5.3213-8.1872-16.682-18.565-26.749-19.761-6.6254-.78734-13.715 1.3513-20.23 2.3994l3.0638-17.362h-2.0425m-721.02 8.1702v5.1064l6.1277-5.1064h-6.1277m-14.298 3.0638v6.1277l6.1276-6.1277h-6.1276m23.489 8.1702h6.1277l-1.0213-5.1064-5.1064 5.1064m-15.319 0 1.0212 6.1277 5.1064-2.0426-6.1276-4.0851m251.23 15.319-26.553 11.234v1.0213c14.949 6.257 29.967-4.5386 43.915-9.1915l14.298-15.319-19.12 3.9102-4.6526 3.4941-7.8865 4.8511m492.26-11.234c1.4732.30781 2.9817.51762 4.3518 1.1847 6.2416 3.0388-1.264 10.874-3.7206 2.7474-.3808-1.2598-.4599-2.6413-.6312-3.9321m-241.02 3.0638 3.9425 12.932 16.726 31.926 21.357 21.29 11.081 9.4259c-9.2254.29727-21.023 1.9559-29.796-1.4807-5.4714-2.1434-9.2863-7.9698-12.491-12.626-6.6849-9.7136-10.954-21.687-13.457-33.159-1.3236-6.067-1.4871-12.175-3.4899-18.096v-2.0426l6.1276-8.1702m-602.55 25.532c-2.4344 1.1812-10.924 6.9619-4.2215 9.0987 3.831 1.2214 8.1839-1.7516 10.904-4.1173 9.0761-7.894 9.5216-17.797 5.573-28.471-3.3435.10485-7.1057-.0308-10.147 1.5968-7.6389 4.0881-4.515 15.63-2.1084 21.893m138.89 1.0213c8.3559-3.379 10.703-17.743 1.0969-21.953-6.3782-2.7951-7.4354 5.3119-5.6231 9.3082 1.9368 4.2708 3.6496 7.9954 4.5262 12.645m466.72 50.043c-14.209 3.6823-25.651-5.5688-28.842-19.77-2.1307-9.4818.092-19.492-1.8651-29.061-1.4296-6.9889-5.0811-13.21-8.1009-19.594 5.5601-2.3502 12.075-3.8703 16.788 1.0982 5.7131 6.0224 4.8416 17.019 6.5894 24.668 3.4112 14.929 14.425 27.209 15.431 42.659m-493.28-68.426v2.0426c3.8945.83602 6.7244 1.0447 8.1702-3.0638l-8.1702 1.0213m439.15 34.723h3.0638v-16.34l-12.255 4.0851c-1.7083-8.6759-.6151-14.489 3.0639-22.468 19.004 4.7252 20.958 25.487 21.533 41.838.1365 3.8854 3.2543 13.806-.1608 16.748-2.8181 2.4274-7.7722-.98312-9.9808-2.7532-7.2821-5.8363-7.794-12.737-5.2636-21.109m-456.51-23.489 5.1064-5.1064c-3.3967.71061-4.3958 1.7097-5.1064 5.1064m-428.94-3.0638v3.0638h-3.0638v-3.0638h3.0638m234.08 2.124c-8.7516 1.7837-9.2832 14.417-10.327 21.226-.45579 2.9723-.76465 8.6722 3.8651 8.1726 7.2876-.78628 10.778-16.568 11.19-22.313.22166-3.0891-.47928-7.9517-4.7281-7.0857m204.04 5.0249c.8765-.20433 2.115-.36141 2.9955-.75311 4.1927-1.8646 1.7928-5.6114-1.0572-2.8306-1.0254 1.0006-1.4085 2.2989-1.9383 3.5837m10.213-3.0638 1.0213 5.1064c5.4004-1.8552 4.4841-5.073-1.0213-5.1064m-587.23 0v2.0426h-3.0638v-2.0426h3.0638m1555.4 2.0426v1.0213l-7.1489 3.0638c-4.6134 10.165-14.476 21.551-24.511 26.553v4.0851c-9.5155 3.3-12.817 14.438-21.739 18.465-3.3034 1.4908-7.4095.94068-10.942.93931-4.5309-.002-9.5015.84244-11.234-4.0851l18.383-15.319 18.414-11.118 13.411-8.5379 25.366-15.067m-1714.7 1.0213v2.0426h-2.0426v-2.0426h2.0426m724.09 26.553c1.5566-7.0474-.051-13.117-4.8506-18.645-1.5974-1.8396-4.4631-4.5796-7.1659-3.3555-2.9615 1.3413-2.5395 5.9314-1.9165 8.4636 1.7327 7.0424 7.5335 11.107 13.933 13.537m5.1063-24.511v6.1277h4.0851v-6.1277h-4.0851m50.043 0 6.1277 6.1277-6.1277-6.1277m-22.468 5.1064v1.0213l3.0638 3.0638h2.0426l1.0213-6.1277-6.1277 2.0426m23.489 6.1277-3.0639 3.0638v1.0213l2.0426 3.0638c3.705-1.4669 3.9121-3.418 3.0638-7.1489h-2.0425m9.1915 3.0638v4.0851h7.1489c-1.2695-3.6136-3.504-3.884-7.1489-4.0851m-27.574 10.213 4.0851-4.0851-4.0851 4.0851m-673.64.74676c7.6061-1.025 17.092-1.9226 24.625-.12249 4.0161.95963 6.6097 4.5468 4.3873 8.5276-1.9788 3.5445-6.3818 4.471-10.088 4.8475-8.3845.85167-17.039.29852-25.458.29852-25.64 0-50.97 2.0398-76.596 2.0427-9.1621.001-23.107 2.6942-31.424-1.8567-6.7082-3.6706-.69549-9.906 4.2371-11.35 9.533-2.7911 21.427-.0852 31.272-.0717 10.209.014 20.431.14381 30.638-.0489 15.983-.30188 32.573-.13264 48.406-2.2662m1699-.74676-7.149 10.213c-8.8815 2.594-17.782 7.9625-23.489 15.319h-11.234v-3.0638l41.872-22.468m-1216.3 3.0638 6.1277 5.1064v-6.1277l-6.1277 1.0213m26.553-1.0213v5.1064l5.1063 1.0213 3.0639-5.1064-8.1702-1.0213m173.62 0-1.0213 6.1277h6.1277l-3.0639-6.1277h-2.0425m15.319 6.1277 6.1277-6.1277-6.1277 6.1277m773.11-6.1277 12.255 21.447c-2.73.49337-5.6705 1.1667-8.336.002-7.4825-3.27-7.171-15.552-3.9193-21.449m-929.36 8.1702h7.1489l-2.0425-7.1489-5.1064 7.1489m20.426-3.0638v1.0213l8.1703 2.0426v-5.1064l-8.1703 2.0426m73.532 1.0213v5.1064h5.1063l-5.1063-5.1064m15.319 0 4.0851 5.1064c-.2852-3.2379-.9746-4.1466-4.0851-5.1064m-33.702 2.0423v1.0213h3.0638l-3.0638-1.0213m-648.85 7.8298-.34041.68081.34041-.68081m53.447 4.4255c.16973 17.782 6.3632 33.93 13.277 50.043l-153.19 1.0213 7.6653-31.436 2.5475-19.628 62.298.0994 67.404-.0994m462.64 1.0213c12.293 4.0731 27.023 2.0427 39.83 2.0426 11.732-.00012 23.121-1.5634 34.774-1.9567 17.989-.60719 36.078-.0858 54.077-.0858 12.409 0 28.118-2.5809 39.83 2.0426h2.0425l12.255-2.0426h1.0213l13.277 2.0426h1.0213c1.9108-1.9029 3.1956-1.9029 5.1064 0h1.0212c11.146-4.1224 26.068-2.0426 37.787-2.0426h62.298c11.495 0 23.942-1.5546 34.723 3.0638l-2.0425 7.1489-13.286 2.34-21.44-2.3252-69.445-.0148-176.68 2.011-40.851-.9898-86.809.00013-17.187.39775-19.579-.39788h-1.0213c-1.1506 2.0485-1.9132 2.0487-3.0638 0h-2.0426c-2.8426 2.732-8.4528.0477-12.256.004-8.1678-.0935-16.341-.00062-24.51-.004-5.629-.002-10.334.33523-13.277-5.1064l3.0638-4.0851 65.327-.0858 37.822-1.9567 30.638.18426 27.574-.18426m-515.74 3.0638-9.1915 2.0426v5.1064c8.468.70811 11.281 3.7618 11.234 12.255l-23.489 7.1489-6.1277-13.277h-2.0426c-.28885 3.0243-.53691 5.9795.10532 8.9832 3.3825 15.82 19.088 15.422 31.554 12.464v-3.0638c14.383-7.2453 8.4615-22.453 0-31.66h-2.0426m39.83 11.234 3.0638 3.0638-11.234 12.255c-3.1658-.71266-8.6673-3.23-11.812-1.6476-3.6078 1.8151-.50213 6.9777 1.3988 8.7942 3.7155 3.5504 9.3968 4.2768 14.259 3.2099 13.42-2.9444 18.936-22.565 6.4213-30.371-2.0776-1.2959-4.9247-2.3243-7.3983-1.7652-4.4118.99728-.82589 4.6361 1.48 5.5501 1.2107.47991 2.5603.65051 3.8218.91063m1690.2-4.0851 3.0638 3.0638-9.4515 20.501-8.175 9.13-21.182 1.0071h-46.979l-33.697.0236-10.222 2.0142-106.21.005-114.38.84163-44.936.1607-29.598-.0378-22.846 1.2766-5.7684-1.2199h-2.0425c-1.81 2.4761-10.745 0-14.298 0-5.6971 0-11.677-.52168-17.343.0804-2.0122.2138-4.0107 1.5227-6.0189 1.3617-6.3068-.50572-15.075-4.0954-20.553.60046h-1.0213c-10.016-3.3189-21.24-2.013-31.66-2.0493-15.362-.0537-30.564-.98637-45.958-1.0111-8.0901-.013-23.106 2.8286-30.061-2.0142-3.4959-2.4341-3.5974-7.3933-4.5397-11.146-1.8942-7.5422-5.6568-13.631-6.2499-21.567l74.498.90621 21.503-1.8758 87.829.94143 149.11-.99316 39.779-.12299 33.744-1.9042 24.528 1.9305 18.457-1.628 22.392.46314 18.332 1.1234 18.473-1.8093 18.338.94323 50.043-1.0382 53.106 2.0426m-1781.1 0c2.5712 6.6707 6.0606 13.478-3.9684 14.983-1.729.25949-3.4804.27115-5.2231.33598v9.1915l-13.277-8.1702c-.25476 2.6302-.46694 5.1908.48848 7.7257 6.2086 16.472 27.03 5.9218 33.447-4.0061 3.8463-5.9507 3.1444-13.566-3.1801-17.503-2.5358-1.5787-5.3977-2.0588-8.287-2.5566m302.3 4.0851v2.0426h-4.0851v-2.0426h4.0851m587.23 5.1064c-2.6519 8.0484-5.7584 21.305-12.768 26.612-6.6292 5.0187-18.247 3.0048-26.04 3.0049h-333.96c-19.39 0-38.829-.39969-58.213.0721-7.7538.18868-18.51 2.9766-25.389-1.7295-7.1995-4.9254-10.483-19.057-13.419-26.938 11.255-1.5443 22.406-.38123 33.699-.75748 7.5951-.25307 15.01-1.7073 22.571-2.1349 13.162-.74451 26.54-.26828 39.721-.15608 8.9299.0759 17.65 1.8908 26.572 2.0026 22.727.28462 45.665.70188 68.381-.0612 8.239-.27682 16.275-1.9012 24.552-1.9475 32.8-.18351 65.373 1.9118 98.039 2.028 16.51.0587 32.663-1.3975 49.07-1.9514 19.008-.64154 38.122-.0858 57.141-.0858 16.206 0 34.296-2.2623 50.042 2.0426m-729.19 6.1277-1.0213 1.0213 1.0213-1.0213m-9.5319 1.7021-.34046.68081.34046-.68081m158.64 5.4468h12.255v-6.1277c-6.6162.005-12.801 1.6637-19.4 2.0874-2.2037.14156-5.2299.4612-5.6714 3.1561-1.1852 7.2347 10.52 5.263 12.816.88414m-657.7 20.425v3.0638h-2.0426v-3.0638h2.0426m-45.957 2.0426 4.0851 3.0638-5.1064-2.0426 1.0213-1.0213m-6.1277 44.936v5.1064h-1.0213l1.0213-5.1064m0 16.34v3.0638h-1.0213l1.0213-3.0638m2207 29.617v1.0213l-2.0426 1.0213v1.0213c1.5703 5.1247.6695 10.536 1.2447 15.832.8186 7.5376 2.7165 18.83-2.8372 25.063-5.5118 6.1856-17.573 3.9648-24.961 4.2477-14.285.54692-28.595-.20732-42.894-.20607-8.7594.00081-17.381-.5961-25.532 3.0638-6.4755-1.95-12.455-1.1208-19.082-1.4185-13.053-.58644-26.06-.6239-39.13-.62409-6.2519-.00013-13.76 1.0462-19.799-.85005-6.7469-2.1187-5.7827-10.902-5.5542-16.514.52-12.772-1.0734-34.788 11.172-42.849 11.884-7.824 29.31-5.1484 42.777-5.1484 31.329 0 62.66-1.0377 93.957-1.0199 15.386.009 28.095.39064 32.681 17.36m-1543.1-14.298-1.0213 1.0213 1.0213-1.0213m-441.19 3.0638c5.3291 2.5354 10.383 3.095 16.256 2.9124 4.1604-.12941 9.1325-1.134 12.654 1.7004 3.5139 2.8283 4.9384 7.9972 6.1105 12.153 3.1012 10.995 3.8313 21.913 3.7813 33.273-.0232 5.2797.8785 13.566-5.0454 16.12-5.1108 2.2033-11.987 1.2441-17.416 1.2455l-34.723 3e-4c-16.996 0-34.079-.4966-51.064.1334-22.958.8516-46.553 2.4898-69.447-.1334-3.4979-10.602-6.3044-22.906-2.0426-33.702v-1.0213l.07294-20.366 4.9674-9.5332 10.228-1.0609 17.375-.12529 28.644 2.4184 32.67.0717 3.0638-3.0638 16.344 2.0868 25.528-3.108h2.0426m175.66 0-1.0213 1.0213 1.0213-1.0213m-321.7 53.106v3.0638h-1.0213l1.0213-3.0638m79.66 15.319v3.0639h-1.0213l1.0213-3.0639m-17.362 2.383c.78982 0 .1636.5085-.34042.3405z" style="fill:#285937"/>
</svg>
