<?xml version="1.0" encoding="UTF-8"?>
<svg version="1.0" viewBox="0 0 117.09 136.91" xmlns="http://www.w3.org/2000/svg">
 <defs>
  <filter id="filter3607" x="-.079812" y="-.03902" width="1.126" height="1.113" style="color-interpolation-filters:sRGB">
   <feFlood flood-color="rgb(0,0,0)" flood-opacity=".49804" result="flood"/>
   <feComposite in="flood" in2="SourceGraphic" operator="in" result="composite1"/>
   <feGaussianBlur in="composite1" result="blur" stdDeviation="2"/>
   <feOffset dx="-3.5" dy="4.3" result="offset"/>
   <feComposite in="SourceGraphic" in2="offset" result="composite2"/>
  </filter>
 </defs>
 <path d="m112.26 81.05c.45749 8.343-3.5149 17.527-11.676 20.723-6.7419 2.8254-14.777 1.7448-20.729-2.4179-1.8055-.83758-.30983 3.8198-.72519 5.2961.24188 6.0947.0082 12.315.5459 18.332 1.4728 1.985 4.1542 2.3026 6.3847 2.8918 1.1007 3.0203-1.959 1.5978-3.7722 1.6383-7.4685-.4766-14.99-.58898-22.445.14259-.68843-2.3145 2.197-2.0717 3.5097-2.8655 1.5617-.50416 3.4649-1.5114 2.8127-3.4958-.15938-16.438-.10271-32.888-.39661-49.318-.48816-4.7305-6.175-6.0938-10.053-4.8407-3.6262 1.4139-7.6028 1.4367-11.446 2.0543-1.4057-.08505-1.0055-2.594-1.492-3.7652-.41948-.9227-.1428-3.3195-1.4801-3.1384-2.057 4.1349-6.9431 5.8262-11.128 6.9622-8.155 2.0313-16.464-3.4407-19.562-10.903-4.1119-8.8034-2.8291-20.652 4.6838-27.236 7.5615-5.4276 19.62-4.7269 25.662 2.6803 1.7737 3.6933.87096-1.1705 1.012-2.903-.27469-6.312.011254-12.692-.6064-18.963-.61835-2.1856-3.7454-1.0852-4.7639-2.2078-1.5099-3.0399 1.2671-2.8883 3.5315-3.1183 4.2998-.59934 8.5996-1.1987 12.899-1.798 1.7913 17.296-1.0709 34.734.86731 52.015.43551 2.7676 1.0068 6.7836 4.5649 6.9445 6.4398.63881 12.731-1.4946 18.916-2.9802.2007 2.2343.0604 4.4857.27323 6.7186 7.007-5.3578 17.14-8.8362 25.372-4.1359 6.2367 3.4929 9.1554 10.807 9.2411 17.688zm-24.392-14.716c6.9048.03372 10.911 7.2121 11.486 13.355.82716 6.7498-1.0903 15.354-8.0674 18.106-5.1503 2.0683-10.904-1.4285-12.581-6.4644-2.5529-6.8495-2.4077-15.27 1.896-21.39 1.7122-2.2351 4.4293-3.6614 7.2664-3.6062zm-56.756-33.284c6.6345.01273 10.361 6.9468 10.935 12.802.79145 6.6716-.69877 15.023-7.1853 18.417-4.524 2.3357-10.115-.42718-11.833-5.0229-2.7871-6.6344-2.9701-14.649.15554-21.197 1.4987-2.9653 4.5407-5.0942 7.9279-4.999z" style="fill-rule:evenodd;fill:#2285e8;filter:url(#filter3607)"/>
 <path d="m112.26 81.05c.45749 8.343-3.5149 17.527-11.676 20.723-6.7419 2.8254-14.777 1.7448-20.729-2.4179-1.8055-.83758-.30983 3.8198-.72519 5.2961.24188 6.0947.0082 12.315.5459 18.332 1.4728 1.985 4.1542 2.3026 6.3847 2.8918 1.1007 3.0203-1.959 1.5978-3.7722 1.6383-7.4685-.4766-14.99-.58898-22.445.14259-.68843-2.3145 2.197-2.0717 3.5097-2.8655 1.5617-.50416 3.4649-1.5114 2.8127-3.4958-.15933-16.438-.10262-32.888-.39661-49.318-.48816-4.7305-6.175-6.0938-10.053-4.8407-3.6262 1.4139-7.6028 1.4367-11.446 2.0543-1.4057-.08505-1.0055-2.594-1.492-3.7652-.41948-.9227-.1428-3.3195-1.4801-3.1384-2.057 4.1349-6.9431 5.8262-11.128 6.9622-8.155 2.0313-16.464-3.4407-19.562-10.903-4.1119-8.8034-2.8291-20.652 4.6838-27.236 7.5615-5.4276 19.62-4.7269 25.662 2.6803 1.7737 3.6933.87096-1.1705 1.012-2.903-.27469-6.312.011254-12.692-.6064-18.963-.61835-2.1856-3.7454-1.0852-4.7639-2.2078-1.5099-3.0399 1.2671-2.8883 3.5315-3.1183 4.2998-.59934 8.5996-1.1987 12.899-1.798 1.7913 17.296-1.0709 34.734.86731 52.015.43551 2.7676 1.0068 6.7836 4.5649 6.9445 6.4398.63881 12.731-1.4946 18.916-2.9802.2007 2.2343.0604 4.4857.27323 6.7186 7.007-5.3578 17.14-8.8362 25.372-4.1359 6.2308 3.4858 9.1597 10.813 9.2407 17.688" style="fill:none;stroke-linecap:round;stroke-linejoin:round;stroke-width:.0088186px;stroke:#007dc1"/>
 <path d="m87.867 66.334c6.9048.03372 10.911 7.2121 11.486 13.355.82716 6.7498-1.0903 15.354-8.0674 18.106-5.1503 2.0683-10.904-1.4285-12.581-6.4644-2.5529-6.8495-2.4077-15.27 1.896-21.39 1.7159-2.2372 4.4251-3.6597 7.2664-3.6062z" style="fill:none;stroke-linecap:round;stroke-linejoin:round;stroke-width:.0088186px;stroke:#007dc1"/>
 <path d="m31.111 33.05c6.6345.01273 10.361 6.9468 10.935 12.802.79145 6.6716-.69877 15.023-7.1853 18.417-4.524 2.3357-10.115-.42718-11.833-5.0229-2.7871-6.6344-2.9701-14.649.15554-21.197 1.4987-2.9653 4.5407-5.0942 7.9279-4.999z" style="fill:none;stroke-linecap:round;stroke-linejoin:round;stroke-width:.0088186px;stroke:#007dc1"/>
</svg>
