<?xml version="1.0" encoding="UTF-8"?>
<svg version="1.1" viewBox="0 0 700.45 979.28" xmlns="http://www.w3.org/2000/svg">
 <g>
  <path d="m128.27 979.04c-68.867-6.0384-126.59-69.688-124.26-139.04-1.3494-49.065 27.638-96.497 69.913-120.5-.01705-153-.03409-306-.05114-459-47.932-26.568-76.48-83.163-69.11-137.53 6.6177-70.157 74.06-127.85 144.56-122.31 70.267-.32362 132.36 62.315 134.25 132.15 3.4854 51.282-25.423 102-69.564 127.66.3485 110.33-.69631 222.06.5222 331.52 46.94-25.499 101.28-31.648 153.98-31.985 72.422-11.68 132.95-82.545 125.44-156.98-6.6026-9.9661-22.55-15.311-30.587-26.032-41.228-41.565-51.165-109.22-23.902-160.93 22.744-45.068 70.923-74.491 121.23-76.191 74.68-5.8243 145.4 61.723 143.1 136.68 2.9651 50.095-27.197 98.489-69.783 123.54 6.4845 91.4-43.396 178.53-112.8 234.92-50.57 41.952-115.31 66.704-181.32 65.327-35.035 1.3307-71.421 16.133-92.864 44.48 46.023 48.567 49.467 130.58 6.5772 182.15-29.281 37.796-77.992 57.487-125.33 52.046zm30.038-69.661c44.82-7.8459 71.075-64.611 46.126-103.26-17.766-33.215-64.368-45.698-96.189-25.352-40.282 21.285-46.815 84.214-10.387 112.27 15.158 14.993 39.731 21.479 60.449 16.343zm425.7-561.93c43.085-10.99 64.998-67.483 39.38-104.12-19.934-34.825-71.365-44.172-102.24-18.258-34.23 24.738-36.424 81.2-2.8295 107.42 16.603 16.748 43.455 21.591 65.693 14.958zm-417.73-140.93c41.41-12.795 61.858-67.491 36.794-103.6-19.269-32.104-65.172-43.078-96.55-22.135-31.281 19.2-42.95 63.935-22.802 95.287 16.399 28.267 51.861 40.949 82.558 30.448z" style="fill:#000000"/>
 </g>
</svg>
