<?xml version="1.0" encoding="UTF-8"?>
<svg version="1.1" viewBox="0 0 120 120" xmlns="http://www.w3.org/2000/svg">
 <g>
  <path transform="matrix(1.0001 0 0 .9834 .99585 .99585)" x="0" y="0" width="118" height="120" rx="2" ry="2" d="m2 0h114c1.108 0 2 .892 2 2v116c0 1.108-.892 2-2 2h-114c-1.108 0-2-.892-2-2v-116c0-1.108.892-2 2-2z" style="fill-opacity:.25;fill:#d2d2d2;opacity:.75;stroke-opacity:.75;stroke:#c8c8c8"/>
 </g>
 <g>
    <path d="m60 2.5c-31.755 0-57.5 25.745-57.5 57.5s25.745 57.5 57.5 57.5 57.5-25.745 57.5-57.5c0-31.755-25.745-57.5-57.5-57.5zm49.833 57.5v.02044c0 22.765-15.262 41.962-36.115 47.917l-.35267.0869v-18.645q0-6.6342-3.5573-9.7111c2.6373-.26578 5.0242-.70022 7.3344-1.3033l-.32711.0716c2.4482-.68488 4.5847-1.5947 6.5627-2.7396l-.13289.0716c2.1722-1.196 4.0071-2.714 5.52-4.5182l.02556-.03067q2.2233-2.7038 3.6238-7.1811 1.4004-4.4773 1.4004-10.294 0-8.2749-5.4024-14.091 2.53-6.2253-.54689-13.953-1.9167-.61844-5.5404.75133c-2.4278.89945-4.4978 1.9115-6.4553 3.1023l.16356-.092-2.6016 1.6407c-3.9356-1.1296-8.4589-1.7787-13.136-1.7787-4.6767 0-9.1949.64911-13.483 1.8604l.34756-.08178c-3.0156-5.7602-10.662-6.1282-14.5-5.4024-2.5556 4.0736-2.2489 10.498-.48044 13.953q-5.4024 5.8164-5.4024 14.091 0 5.8164 1.4004 10.258 1.4004 4.4416 3.5931 7.1811c1.5129 1.8553 3.3376 3.3887 5.4127 4.5336l.09711.046c1.8451 1.0733 3.9816 1.9882 6.2304 2.622l.19422.046c1.9882.53667 4.3751.966 6.8131 1.2164l.19933.0153q-2.7344 2.4636-3.3529 7.0482c-.88422.42934-1.9116.782-2.99 1.012l-.08689.0153c-1.0938.21977-2.3511.34244-3.634.34244h-.276.01533q-2.2591 0-4.4824-1.472-2.2233-1.472-3.7976-4.278c-.84844-1.4362-1.9576-2.622-3.2813-3.5318l-.03578-.0255q-2.0189-1.3698-3.3836-1.6407l-.61844-.138c-.10222-.0255-.22489-.0409-.34756-.0409-.61333 0-1.1449.34756-1.4056.85356l-.0051.0102-.08178.15844c-.11244.20956-.17378.46-.17378.72578 0 .63889.37311 1.1858.91489 1.4362l.01022.005q1.5027.68488 2.9747 2.6016c.81267 1.012 1.5333 2.1569 2.1109 3.3836l.046.10222.68489 1.5742c.57756 1.7173 1.6253 3.1536 2.99 4.1911l.02045.0153c1.2778 1.0018 2.8264 1.7224 4.5182 2.0393l.06645.0102c1.4107.276 3.0513.44978 4.7278.48045h.02556c.18911.005.414.0102.63889.0102 1.1142 0 2.208-.092 3.2711-.26578l-.11756.0153 1.5742-.27089q0 2.5964.03578 6.0873c.01533 1.4107.02556 5.2491.03067 8.0858-21.533-5.8315-37.117-25.197-37.117-48.203 0-20.516 12.389-38.139 30.099-45.79l.322-.12267c5.7296-2.4891 12.4-3.9356 19.412-3.9356 27.513 0 49.818 22.305 49.818 49.818v.046z" style="stroke-width:5.1111"/>
 </g>
</svg>
