<?xml version="1.0" encoding="UTF-8"?>
<svg version="1.1" viewBox="0 0 22.5 22.5" xmlns="http://www.w3.org/2000/svg" xmlns:cc="http://creativecommons.org/ns#" xmlns:dc="http://purl.org/dc/elements/1.1/" xmlns:rdf="http://www.w3.org/1999/02/22-rdf-syntax-ns#">
 <title>Github Icon</title>
 <path d="m11.25 0c-6.213 0-11.25 5.037-11.25 11.25s5.037 11.25 11.25 11.25 11.25-5.037 11.25-11.25-5.037-11.25-11.25-11.25zm9.75 11.25v.004c0 4.454-2.986 8.21-7.066 9.375l-.069.017v-3.648q0-1.298-.696-1.9c.516-.052.983-.137 1.435-.255l-.064.014c.479-.134.897-.312 1.284-.536l-.026.014c.425-.234.784-.531 1.08-.884l.005-.006q.435-.529.709-1.405t.274-2.014q0-1.619-1.057-2.757.495-1.218-.107-2.73-.375-.121-1.084.147c-.475.176-.88.374-1.263.607l.032-.018-.509.321c-.77-.221-1.655-.348-2.57-.348s-1.799.127-2.638.364l.068-.016c-.59-1.127-2.086-1.199-2.837-1.057-.5.797-.44 2.054-.094 2.73q-1.057 1.138-1.057 2.757 0 1.138.274 2.007t.703 1.405c.296.363.653.663 1.059.887l.019.009c.361.21.779.389 1.219.513l.038.009c.389.105.856.189 1.333.238l.039.003q-.535.482-.656 1.379c-.173.084-.374.153-.585.198l-.017.003c-.214.043-.46.067-.711.067h-.054.003q-.442 0-.877-.288t-.743-.837c-.166-.281-.383-.513-.642-.691l-.007-.005q-.395-.268-.662-.321l-.121-.027c-.02-.005-.044-.008-.068-.008-.12 0-.224.068-.275.167l-.001.002-.016.031c-.022.041-.034.09-.034.142 0 .125.073.232.179.281l.002.001q.294.134.582.509c.159.198.3.422.413.662l.009.02.134.308c.113.336.318.617.585.82l.004.003c.25.196.553.337.884.399l.013.002c.276.054.597.088.925.094h.005c.037.001.081.002.125.002.218 0 .432-.018.64-.052l-.023.003.308-.053q0 .508.007 1.191c.003.276.005 1.027.006 1.582-4.213-1.141-7.262-4.93-7.262-9.431 0-4.014 2.424-7.462 5.889-8.959l.063-.024c1.121-.487 2.426-.77 3.798-.77 5.383 0 9.747 4.364 9.747 9.747v.009z"/>
 <metadata>
  <rdf:RDF>
   <cc:Work rdf:about="">
    <dc:title>Github Icon</dc:title>
   </cc:Work>
  </rdf:RDF>
 </metadata>
</svg>
