<?xml version="1.0" encoding="UTF-8" standalone="no"?>
<svg
   xmlns:dc="http://purl.org/dc/elements/1.1/"
   xmlns:cc="http://creativecommons.org/ns#"
   xmlns:rdf="http://www.w3.org/1999/02/22-rdf-syntax-ns#"
   xmlns:svg="http://www.w3.org/2000/svg"
   xmlns="http://www.w3.org/2000/svg"
   xmlns:sodipodi="http://sodipodi.sourceforge.net/DTD/sodipodi-0.dtd"
   xmlns:inkscape="http://www.inkscape.org/namespaces/inkscape"
   clip-rule="evenodd"
   fill-rule="evenodd"
   stroke-linejoin="round"
   stroke-miterlimit="1.414"
   viewBox="0 0 16 16"
   version="1.1"
   id="svg18"
   sodipodi:docname="Hathi_icon_16px.svg"
   width="16"
   height="16"
   inkscape:version="1.0.1 (3bc2e813f5, 2020-09-07)">
  <metadata
     id="metadata24">
    <rdf:RDF>
      <cc:Work
         rdf:about="">
        <dc:format>image/svg+xml</dc:format>
        <dc:type
           rdf:resource="http://purl.org/dc/dcmitype/StillImage" />
        <dc:title></dc:title>
      </cc:Work>
    </rdf:RDF>
  </metadata>
  <defs
     id="defs22" />
  <sodipodi:namedview
     pagecolor="#ffffff"
     bordercolor="#666666"
     borderopacity="1"
     objecttolerance="10"
     gridtolerance="10"
     guidetolerance="10"
     inkscape:pageopacity="0"
     inkscape:pageshadow="2"
     inkscape:window-width="2554"
     inkscape:window-height="1400"
     id="namedview20"
     showgrid="false"
     fit-margin-top="0"
     fit-margin-left="0"
     fit-margin-right="0"
     fit-margin-bottom="0"
     inkscape:zoom="1"
     inkscape:cx="9.1462666"
     inkscape:cy="3.6000984"
     inkscape:window-x="1440"
     inkscape:window-y="18"
     inkscape:window-maximized="0"
     inkscape:current-layer="g14">
    <inkscape:grid
       type="xygrid"
       id="grid897" />
  </sodipodi:namedview>
  <g
     fill-rule="nonzero"
     id="g16"
     transform="translate(-119.80022,-136.10521)">
    <path
       d="m 119.80022,136.10521 h 16 v 16 h -16 z"
       fill="#ee7b22"
       id="path4"
       style="stroke-width:0.999998" />
    <g
       fill="#ffffff"
       id="g14"
       transform="matrix(0.04589169,0,0,0.04885824,119.61638,136.10521)"
       style="stroke-width:21.1186">
      <path
         d="M 148.134,27.55 114.422,26.706 C 108.063,26.547 93.559,23.212 87.759,26.681 63.766,41.022 34.475,62.881 27.884,91.5 c -6.093,26.472 18.06,48.894 40.313,57.725 5.244,2.081 15.344,3.194 18.887,7.862 3.097,4.082 6.75,7.572 10.553,10.975 5.438,4.866 11.972,8.316 18.782,10.794 9.162,3.338 17.55,0.497 26.831,-1.187 4.547,-0.825 2.616,-7.738 -1.906,-6.916 -7.172,1.303 -13.75,3.556 -20.828,1.847 -8.1,-1.953 -15.016,-7.109 -21.097,-12.553 -10.516,-9.41 -8.107,-11.4 -20.938,-14.71 -29.847,-7.7 -55.1,-36.246 -37.719,-66.706 8.004,-14.025 21.744,-25.237 34.46,-34.809 4.019,-3.025 8.187,-5.853 12.403,-8.597 3.937,-2.566 2.163,-1.963 3.859,-1.922 18.885,0.475 37.769,0.947 56.65,1.419 4.628,0.115 4.616,-7.056 0,-7.172 z"
         id="path6"
         style="stroke-width:10.55927424;stroke:#ffffff" />
      <path
         d="m 146.325,35.341 c -16.4,8.796 -27.084,26.234 -23.541,44.925 0.86,4.537 7.769,2.612 6.913,-1.91 -2.938,-15.5 6.897,-29.662 20.247,-36.822 4.078,-2.187 0.456,-8.378 -3.619,-6.193 z m -41.034,18.618 c -18.138,-2.718 -37.272,-0.09 -53.854,7.66 -4.187,1.956 -0.543,8.137 3.619,6.19 14.669,-6.853 32.241,-9.347 48.328,-6.934 4.522,0.675 6.466,-6.234 1.907,-6.916 z M 96.425,76 c -18.25,1.341 -36.375,8.234 -50.756,19.462 -3.641,2.844 1.472,7.882 5.072,5.072 12.746,-9.956 29.497,-16.175 45.684,-17.362 4.584,-0.338 4.616,-7.51 0,-7.172 z m 3.444,18.894 c -16.894,2.59 -28.703,18.772 -33.66,33.831 -1.45,4.406 5.475,6.278 6.916,1.909 4.247,-12.909 14.197,-26.609 28.65,-28.825 4.559,-0.7 2.616,-7.609 -1.906,-6.915 z m 10.137,23.487 c -4.381,8.76 -8.759,17.519 -13.137,26.278 -2.063,4.122 4.122,7.757 6.19,3.619 4.379,-8.759 8.76,-17.519 13.138,-26.278 2.062,-4.122 -4.125,-7.756 -6.191,-3.619 z m 39.053,7.144 c 1.332,7.609 5.157,27.409 -2.734,32.447 -1.434,0.919 -1.978,2.406 -1.647,4.05 0.619,3.084 0.394,8.272 1.353,5.697 -0.428,1.147 -1,2.237 -1.547,3.325 -2.85,5.678 -6.715,10.768 -10.928,15.493 C 115.437,206.853 88.281,215.722 62,218.8 c -3.791,0.444 -5.156,5.95 -0.953,7.044 36.669,9.518 73.678,-6.619 95.944,-36.578 -2.657,3.575 5.403,27.946 6.059,33.068 1.672,13.085 2.187,27.71 -3.166,40.025 -5.512,12.678 -23.034,18.522 -35.184,12.866 -8.909,-4.15 -16.425,-24.756 -0.094,-25.316 3.95,-0.137 8.375,2.497 11.506,4.772 1.388,1.006 3.166,0.378 4.344,-0.562 2.435,-1.947 4.866,-3.894 7.3,-5.838 1.297,-1.037 1.225,-3.019 0.56,-4.344 -7.413,-14.818 -22.769,-20.053 -37.86,-14.109 -21.381,8.422 -22.1,30.219 -13.55,48.309 4.816,10.191 13.5,17.188 23.207,22.613 22.703,12.691 47.678,5.487 67.603,-8.816 30.381,-21.806 20.434,-67.915 19.162,-99.956 -0.075,-1.869 -4.522,-5.625 -2.687,-2.947 1.397,2.041 2.946,3.975 4.496,5.9 5.357,6.656 11.719,12.76 18.629,17.778 20.737,15.057 44.428,19.953 69.322,13.5 4.203,-1.09 2.834,-6.6 -0.954,-7.043 -26.865,-3.144 -52.665,-12.244 -71.55,-32.257 -4.35,-4.609 -7.975,-9.893 -10.928,-15.49 a 33.896,33.896 0 0 1 -1.547,-3.328 c 0.975,2.496 0.713,-2.516 1.35,-5.704 0.328,-1.64 -0.212,-3.131 -1.65,-4.046 -7.887,-5.041 -4.062,-24.844 -2.734,-32.454 0.791,-4.521 -6.119,-6.456 -6.916,-1.906 -2.034,11.66 -4,25.822 1.769,36.663 1.438,2.7 2.272,1.556 1.772,4.059 -0.234,1.163 -1.081,3.675 -0.619,4.988 0.794,2.228 1.863,4.356 2.963,6.443 16.959,32.132 54.025,46.213 88.09,50.203 -0.318,-2.35 -0.634,-4.693 -0.953,-7.043 -32.89,8.525 -66.631,-6.603 -85.003,-34.853 -0.625,-0.963 -1.85,-1.947 -3.097,-1.779 -13.078,1.744 -5.984,32.982 -5.647,41.5 1.103,27.747 1.079,50.594 -25.759,67.579 -21.141,13.381 -53.875,9.828 -67.959,-10.088 -7.76,-10.975 -13.082,-26.594 -3.941,-38.344 7.625,-9.797 22.441,-12.003 31.975,-4.45 1.944,1.541 3.563,3.6 4.991,5.6 3.275,4.588 -0.641,1.182 1.637,-0.64 -1.928,1.54 -3.856,3.081 -5.784,4.625 2.056,-1.647 4.922,0.793 1.187,-1.519 -2.997,-1.859 -6.684,-3.394 -10.178,-3.853 -7.262,-0.95 -21.05,4.078 -19.831,13.984 2.622,21.266 21.497,34.691 42.194,24.272 23.872,-12.009 23.587,-40.172 20.128,-63.469 -0.566,-3.797 -8.741,-45.806 -19.081,-31.893 -20.191,27.162 -54.56,41.543 -87.61,32.962 -0.319,2.35 -0.637,4.694 -0.953,7.044 34.716,-4.066 70.341,-18.225 88.097,-50.21 2.606,-4.696 1.425,-12.29 3.55,-14.756 7.65,-8.89 4.156,-26.944 2.328,-37.387 -0.794,-4.55 -7.706,-2.616 -6.916,1.906 z"
         id="path8"
         style="stroke-width:5.27963712;stroke:#ffffff" />
      <path
         d="m 209.55,35.084 c 18.456,-0.459 36.912,-0.922 55.369,-1.381 4.247,-0.106 0.509,-1.009 2.697,0.338 4.237,2.612 8.331,5.453 12.384,8.343 14.1,10.05 27.497,21.969 36.928,36.61 19.141,29.725 -7.444,54.993 -33.419,65.297 -4.393,1.743 -12.803,1.246 -15.74,5.115 -7.6,10.013 -16.428,18.544 -28.406,22.903 -7.86,2.863 -14.985,0.269 -23.019,-1.193 -4.522,-0.822 -6.453,6.087 -1.91,6.915 8.597,1.563 16.091,3.916 24.641,1.853 6.344,-1.531 12.672,-4.95 17.759,-8.937 10.532,-8.253 15.441,-15.431 28.585,-19.741 25.334,-8.312 47.95,-30.359 44.512,-58.387 -3.503,-28.575 -37.003,-51.603 -59.503,-65.469 -5.6,-3.45 -18.066,-0.506 -24.203,-0.353 -12.225,0.306 -24.45,0.612 -36.675,0.915 -4.616,0.116 -4.625,7.288 0,7.172 z"
         id="path10"
         style="stroke-width:10.55927424;stroke:#ffffff" />
      <path
         style="stroke:#ffffff;stroke-width:10.5593"
         d="m 130.26471,68.621752 c 6.98595,4.215834 12.66756,10.198724 16.95372,16.366197 3.43423,4.954158 7.21804,12.768087 5.63754,18.573781 0.13811,-0.50697 2.94655,0.84662 0.99296,-1.03857 -1.02822,-0.99921 -1.78322,-2.25928 -2.56172,-3.398762 -7.05941,-10.383299 -11.87143,-22.102972 -16.60708,-33.355039 -1.27792,-3.046821 -7.0976,-1.730142 -5.79323,1.346212 2.76148,6.590777 5.76386,13.127411 8.95131,19.595135 3.16689,6.445574 6.68337,17.020844 14.06298,21.089014 2.34139,1.28469 5.17925,0.16243 6.26035,-1.78428 2.96711,-5.33072 -0.29378,-13.011747 -2.60579,-18.042198 -4.25092,-9.261053 -12.64993,-17.911756 -22.25343,-23.712526 -3.15807,-1.897496 -6.15163,2.470925 -3.03761,4.361036 z"
         id="path893" />
      <path
         style="stroke:#ffffff;stroke-width:10.5593"
         d="m 225.30739,61.400334 c -10.57336,6.276566 -19.07816,15.290783 -24.26418,25.071544 -1.30868,2.478576 -9.60889,26.999922 3.28957,22.325882 8.0242,-2.90325 12.29769,-15.865024 15.34372,-21.807732 a 481.809,396.27837 0 0 0 10.51165,-22.494146 c 1.43208,-3.338599 -4.99117,-4.756836 -6.40377,-1.460971 -5.25744,12.27002 -10.75521,24.780419 -18.35725,36.198437 -0.70143,1.060332 -1.48079,2.077942 -2.29262,3.079522 -2.30238,2.83914 -1.17879,-0.15753 0.70142,2.07794 -3.50389,-4.1559 2.72778,-14.956927 4.98144,-18.778955 4.38392,-7.427716 11.65798,-14.623065 19.84778,-19.481394 3.4422,-2.043224 0.13322,-6.792046 -3.35776,-4.730127 z"
         id="path891" />
      <path
         style="stroke-width:10.55927424;stroke:#ffffff"
         d="m 241.494,122.369 c 4.378,8.759 8.759,17.518 13.137,26.275 2.072,4.137 8.257,0.506 6.194,-3.619 -4.378,-8.756 -8.759,-17.519 -13.141,-26.275 -2.068,-4.138 -8.253,-0.506 -6.19,3.619 z"
         id="path889" />
      <path
         style="stroke-width:10.55927424;stroke:#ffffff"
         d="m 255.916,102.175 c 14.453,2.216 24.4,15.919 28.646,28.828 1.438,4.372 8.363,2.5 6.913,-1.906 -4.953,-15.063 -16.756,-31.247 -33.653,-33.838 -4.522,-0.693 -6.466,6.216 -1.906,6.916 z"
         id="path887" />
      <path
         style="stroke-width:10.55927424;stroke:#ffffff"
         d="m 261.269,83.537 c 16.184,1.188 32.934,7.407 45.681,17.36 3.6,2.809 8.716,-2.228 5.072,-5.072 -14.381,-11.228 -32.503,-18.122 -50.753,-19.456 -4.616,-0.338 -4.585,6.834 0,7.168 z"
         id="path885" />
      <path
         style="stroke-width:10.55927424;stroke:#ffffff"
         d="m 254.3,61.237 c 16.088,-2.409 33.663,0.085 48.334,6.941 4.163,1.947 7.807,-4.237 3.622,-6.191 -16.584,-7.753 -35.725,-10.381 -53.862,-7.665 -4.563,0.684 -2.616,7.59 1.906,6.915 z"
         id="path883" />
      <path
         style="stroke-width:10.55927424;stroke:#ffffff"
         d="m 207.741,41.894 c 13.353,7.162 23.19,21.328 20.25,36.828 -0.857,4.522 6.056,6.447 6.915,1.909 3.544,-18.69 -7.147,-36.131 -23.547,-44.931 -4.071,-2.184 -7.693,4.006 -3.618,6.194 z"
         id="path12" />
    </g>
  </g>
</svg>
