<?xml version="1.0" encoding="UTF-8"?>
<svg version="1.1" viewBox="0 0 512 425" xmlns="http://www.w3.org/2000/svg">
 <g>
  <path d="m94 52c0-5.85 1.5115-14.042-2.4336-18.892-6.507-7.9993-35.121-8.4108-42.172-.8804-4.9588 5.2958-3.3943 14.123-3.3943 20.772-28.986 1.3246-44.17 30.585-45.91 56-1.6276 23.768-.089506 48.172-.089506 72v143c0 27.996-5.6862 63.235 16.039 84.961 16.153 16.153 36.683 16.039 57.961 16.039h277c35.5 0 72.674 3.1943 108-.16974 25.122-2.3924 46.914-17.739 51.536-43.83 4.4936-25.367 1.4638-53.297 1.4638-79v-146c0-29.287 6.4663-68.047-18.004-89.816-27.264-24.253-68.626-7.59-101-17.62-24.644-7.6363-32.731-34.212-55-44.251-15.157-6.8328-33.82-4.3133-50-4.3133h-66c-13.204 0-27.038-1.2545-40 1.6651-19.254 4.3369-26.577 20.801-40.039 33.046-13.761 12.517-29.731 17.289-47.961 17.289m336 38.329c22.155-3.9646 27.464 29.985 6 33.326-20.726 3.2265-27.635-29.455-6-33.326m-182 15.956c84.22-9.937 151.32 74.303 138.56 153.71-9.6948 60.335-58.972 103.66-118.56 110.71-94.131 11.143-166.7-87.487-137.65-174.71 17.57-52.749 64.344-83.426 117.65-89.715m2 39.139c-17.775 2.3408-34.214 6.7622-49 17.496-44.983 32.655-51.061 101.16-11.961 141.06 21.711 22.158 52.683 31.024 82.961 26.729 10.979-1.5574 21.426-5.632 31-11.143 68.81-39.608 56.622-145.34-18-169.9-10.849-3.5711-23.598-5.7476-35-4.2462z"/>
 </g>
</svg>
