<?xml version="1.0" encoding="UTF-8"?>
<!-- Created with Inkscape (http://www.inkscape.org/) -->
<svg version="1.1" viewBox="0 0 120 120" xmlns="http://www.w3.org/2000/svg">
 <g>
  <path transform="matrix(1.0001 0 0 .9834 .99585 .99585)" x="0" y="0" width="118" height="120" rx="2" ry="2" d="m2 0h114c1.108 0 2 .892 2 2v116c0 1.108-.892 2-2 2h-114c-1.108 0-2-.892-2-2v-116c0-1.108.892-2 2-2z" style="fill-opacity:.25;fill:#d2d2d2;opacity:.75;stroke-opacity:.75;stroke:#c8c8c8"/>
 </g>
 <g transform="matrix(.1203 0 0 .1203 8.9924 2.3727)">
  <path d="m11 95c13.227 31.721 47.091 25.735 74.553 26 235.35-.0379 470.71.0757 706.06-.0568 32.891-7.947 38.196-34.036 2.5537-32.919-125.44-28.777-250.39-59.709-376.17-86.966-136.11 29.251-271.27 62.927-407 93.941m18 51v83h777v-83h-777zm51 101.52c-37.419-4.4101-23.653 40.298-28.497 62.729-9.6691 161.18-7.6115 323.15 3.0959 484.13 32.14 28.142 95.6 11.541 79.623-40.466 10.08-164.93 8.9577-330.57-2.6084-495.32-8.8575-16.866-35.907-9.8645-51.613-11.075m263 553.48c10.673-158.01 12.967-316.61 3.8421-474.76 2.1439-40.028 2.1343-94.613-53.119-78.915-55.998 4.8664-19.326 87.908-33.751 126.02-6.1827 139.41-3.2451 279.1 5.9475 418.31 11.866 25.152 55.033 11.626 77.081 9.3461m194-553.48c-44.775.55772-21.091 61.53-29.688 90.989-7.9479 151.81-5.7686 304.31 4.3014 455.87 32.11 28.125 95.696 11.548 79.608-40.475 10.218-164.93 8.7045-330.57-2.547-495.32-8.899-16.837-35.949-9.8579-51.674-11.063m258 553.48c12.225-181.46 13.633-364.1-.93423-545.32-31.094-19.228-95.735-12.761-78.194 39.94-10.412 165.18-8.9647 330.94 2.0843 496.04 11.908 25.156 54.987 11.621 77.044 9.3443m-761 30v60h781v-60h-781zm-33 83c3.0412 12.994-6.3167 38.387 5.1061 43h840.89c-3.0412-12.994 6.3167-38.387-5.1061-43h-840.89z" style="fill:#020202"/>
 </g>
</svg>
