<?xml version="1.0" encoding="UTF-8"?>
<svg version="1.1" viewBox="0 0 847 958" xmlns="http://www.w3.org/2000/svg">
 <g>
  <path d="m11 95c6.3163 8.2592 14.344 20.601 24.348 24.561 5.417 2.1444 11.946 1.4366 17.652 1.4383l30 .00024h673l27-.001c5.5906-.006 11.725.469 16.966-1.8354 9.8945-4.3511 17.57-15.883 24.034-24.164l-278-64.998-83-19.407-45-9.5356-44 9.0932-86 20.149-277 64.699m18 51v83h777v-83h-777m51 101.52c-6.9421.60345-19.049.29492-23.562 6.6507-2.3791 3.3508-2.3108 7.9115-2.533 11.838l-1.1749 21.994c-1.7376 29.657-3.0151 59.335-4.5116 89-5.4499 108.03-2.336 215.98.84259 324 .70677 24.018 2.9198 47.994 3.9595 72 .31749 7.3299-1.0841 21.364 4.7183 26.853 3.3515 3.1706 8.9234 3.7538 13.265 4.4788 11.149 1.8619 22.73 2.2106 33.996 1.2812 6.9364-.5722 19.87-.64288 24.335-6.9622 2.3107-3.2704 2.4041-7.8215 2.7257-11.661.61336-7.3238.90186-14.66 1.4035-21.991 2.022-29.545 4.0986-59.39 4.5357-89 .5215-35.331 2.4632-70.666 2.9658-106 1.027-72.198-.15512-144.92-4.2385-217-1.3586-23.982-2.8376-47.997-3.7636-72-.29293-7.5935 1.4241-22.449-4.5271-28.134-3.6472-3.484-9.6998-3.8742-14.438-4.4814-11.255-1.4423-22.683-1.8508-33.998-.86718m263 553.48c.70697-27.649 3.1324-55.384 4.7288-83 2.6141-45.22 4.2712-90.71 4.2712-136 0-22.021 1.2062-43.985.97717-66-.28759-27.649-1.9335-55.348-1.9754-83-.0617-40.678-3.0787-81.37-4.8859-122-.53403-12.006-1.2565-24-1.9028-36-.33285-6.1796.40522-13.531-2.1473-19.322-2.6668-6.0504-10.343-6.5599-16.068-7.2936-14.246-1.8261-28.757-1.941-42.996.0356-5.2433.7279-12.207 1.4262-15.188 6.4779-4.7708 8.0844-2.8186 22.004-3.4166 31.102-1.6854 25.639-2.1329 51.367-3.795 77-3.5765 55.157-3.6021 110.74-3.6021 166 0 48.937-.33295 98.151 2.667 147 1.7366 28.278 3.0882 56.689 4.3123 85 .34579 7.9977.82431 16.014 1.4228 23.997.31289 4.174.23846 9.2609 2.4874 12.95 3.5476 5.8195 13.094 6.1794 19.111 6.9966 18.968 2.5762 37.46.12304 56-3.9437m194-553.48c-6.927.60217-19.011.28717-23.497 6.6507-2.5486 3.6157-2.3796 8.6154-2.6037 12.835-.38916 7.3305-.73993 14.669-1.1692 21.997-1.7179 29.32-2.6015 58.692-4.3971 88-1.9551 31.91-1.9127 64.041-2.3674 96-1.0831 76.123.54834 151.92 3.1258 228 .81366 24.018 2.8962 47.993 3.9715 72 .32767 7.3147-1.1093 21.38 4.676 26.853 3.3512 3.1707 8.9236 3.7538 13.265 4.4788 11.149 1.8619 22.729 2.2106 33.996 1.2812 6.9708-.57507 19.862-.65484 24.383-6.9622 2.3403-3.2651 2.428-7.8134 2.7519-11.661.61639-7.3232.83038-14.661 1.3306-21.991 2.0175-29.562 4.0889-59.374 4.5478-89 .53186-34.331 2.4637-68.665 2.9522-103 1.0423-73.265-.43317-146.84-4.1834-220-1.23-23.993-2.8753-47.992-3.7824-72-.28589-7.5669 1.4568-22.486-4.5032-28.134-3.6709-3.4789-9.7435-3.8722-14.498-4.4814-11.255-1.442-22.683-1.8508-33.998-.86718m258 553.48c.55389-21.666 2.6212-43.356 3.7869-65 2.7612-51.267 5.2131-102.66 5.2131-154 0-23.356 1.2202-46.64.97717-70-.27374-26.317-1.9142-52.68-1.9739-79-.0923-40.67-2.8532-81.384-4.8415-122-.60394-12.337-1.2668-24.667-1.9524-37-.32672-5.8767.28247-12.818-2.1436-18.322-2.6668-6.0503-10.343-6.5599-16.068-7.2936-14.246-1.8261-28.757-1.941-42.996.0356-5.233.72644-12.217 1.4218-15.18 6.4779-4.7426 8.0919-2.7441 22.009-3.3564 31.102-1.7262 25.638-2.1992 51.364-3.8632 77-3.4928 53.809-3.6022 108.09-3.6022 162 0 49.973-.0923 100.11 2.7271 150 1.5989 28.294 3.0273 56.682 4.2521 85 .36017 8.3267.80151 16.686 1.4287 24.997.31592 4.1863.29645 9.2532 2.5502 12.95 3.5482 5.8202 13.022 6.179 19.042 6.9966 18.968 2.5763 37.46.12304 56-3.9437m-761 30v60h781v-60h-781m-33 83v43h846v-43z" style="fill:#020202"/>
 </g>
</svg>
