<?xml version="1.0" encoding="UTF-8"?>
<!-- Created with Inkscape (http://www.inkscape.org/) -->
<svg version="1.1" viewBox="0 0 483 483" xmlns="http://www.w3.org/2000/svg">
 <path d="m21 .46451c-11.282 2.0349-18.755 10.325-20.56 21.535-4.2431 26.354-.43981 56.291-.43981 83v335c0 10.859-1.6004 23.558 5.1049 32.91 7.7576 10.82 21.09 10.09 32.895 10.09h388c12.155 0 26.145 1.8969 38-1.0432 11.756-2.9156 17.713-12.421 18.83-23.957 2.5338-26.165.16977-53.704.16977-80v-338c0-10.959 1.1911-22.898-6.5293-31.826-8.4505-9.7722-21.873-8.1736-33.471-8.1736h-384c-12.242 0-25.941-1.7104-38 .46451m286 200.54h-81v81h-111v-192h179c3.1508 0 9.739-1.2163 11.972 1.6034 4.1547 5.2457 1.0278 22.798 1.0278 29.397v80m79 11v70h-70v-70h70m-1 104c-4.8222 14.174-18.946 2.6682-30 4.3009-15.742 2.3251-26.191 15.893-29.331 30.699-3.3407 15.753.65237 34.113 14.346 43.779 9.3908 6.6292 29.549 10.661 37.382-.83411 4.0827-5.9914 1.6034-18.916 1.6034-25.945h-17v-10h28v49c-20.616.8988-38.23 11.829-58-1.3627-27.857-18.588-25.93-67.316-1-87.258 15.57-12.455 37.301-11.128 54-2.3788m-248-5v59c0 9.7164 1.4224 21.121-3.4174 30-12.974 23.802-51.436 12.346-54.583-12 3.0473 0 7.8277-.85504 10.441 1.0278 2.4698 1.7798 3.4708 5.6466 5.6682 7.8673 6.7397 6.8113 17.747 8.0069 24.783.99615 11.823-11.781 6.108-43.472 6.108-58.891 0-7.9149 2.3808-17.662-8-18v-10h19m37 64v38c-3.0031 0-8.8534 1.0719-10.972-1.6034-3.0376-3.8353-1.0278-14.691-1.0278-19.397v-54c0-5.211-2.8779-24.893 3.1482-26.682 14.022-4.163 41.53-1.3777 52.758 8.2006 13.871 11.832 10.588 39.488-3.9213 49.377-11.731 7.9947-26.539 6.1049-39.985 6.1049m127-64v10h-34c-3.5031 0-9.6627-1.1306-12.397 1.6034-5.1601 5.1601-1.6034 26.289-1.6034 33.397h41v11h-41v33h35l13.397 1.0278 1.6034 9.9722h-61v-100h59m-127 11v42c9.7823 0 22.187 2.0558 30.999-3.0856 11.431-6.6692 14.196-28.304 1.9853-35.687-9.151-5.5328-22.76-3.2276-32.985-3.2276z" style="fill:#7c8c94"/>
</svg>
