<?xml version="1.0" encoding="UTF-8"?>
<!-- Created with Inkscape (http://www.inkscape.org/) -->
<svg version="1.1" viewBox="0 0 120 120" xmlns="http://www.w3.org/2000/svg">
 <g>
  <path transform="matrix(1.0001 0 0 .9834 .99585 .99585)" x="0" y="0" width="118" height="120" rx="2" ry="2" d="m2 0h114c1.108 0 2 .892 2 2v116c0 1.108-.892 2-2 2h-114c-1.108 0-2-.892-2-2v-116c0-1.108.892-2 2-2z" style="fill-opacity:.25;fill:#d2d2d2;opacity:.75;stroke-opacity:.75;stroke:#c8c8c8"/>
 </g>
 <g transform="matrix(1.0698 0 0 1.0698 -57.674 -32.267)">
  <path d="m103.28 32.5.375.25s1.079.696 2.469 1.406c1.357.692 3.032 1.283 3.781 1.313.011 0 .052-.001.063 0 .041-.002.083-.002.125 0 .005-.001.025 0 .031 0 .758-.038 2.403-.626 3.75-1.313 1.39-.71 2.469-1.406 2.469-1.406l.375-.25h38.281v6c2.618 0 5 2.382 5 5v54c0 2.618-2.382 5-5 5h-35v.322c0 2.566-1.806 4.678-4 4.678h-4.5v1.75c.765.566 1.545 1.111 2.331 1.646.351-.153.703-.303 1.056-.454 2.654-1.124 5.339-2.185 8.099-3.022 2.028-.615 4.099-1.111 6.203-1.383.888-.114 1.782-.188 2.678-.21.721-.018 1.442-.004 2.161.05 1.508.111 3.004.395 4.438.876.343.115.682.241 1.017.378.368.151.729.315 1.078.507.831.458 1.587 1.052 2.225 1.755.672.741 1.212 1.6 1.589 2.527.602 1.479.786 3.131.477 4.701-.094.476-.233.944-.417 1.394-.205.503-.467.984-.78 1.429-.383.545-.843 1.035-1.36 1.455-.594.481-1.26.868-1.966 1.159-.447.184-.91.329-1.379.448-1.091.275-2.218.396-3.342.403-1.54.008-3.077-.194-4.581-.519-1.954-.423-3.861-1.055-5.715-1.798-1.852-.742-3.657-1.601-5.421-2.532-2.177-1.15-4.292-2.414-6.355-3.757-.499.222-.997.445-1.494.669-1.695.766-3.386 1.541-5.081 2.307l-.017.007c.468.163.936.329 1.403.496.394.143.788.287 1.181.433.318.119.635.239.951.362l.068.026c.16.076.205.087.348.193.268.2.464.487.552.81.047.171.041.218.053.394v1.287c.013.08.02.163.02.248l.001 2.073c3.137.698 5.477 3.51 5.478 6.883l.001 3.971c0 .18-.162.343-.34.343h-2.551l.001 4.169c0 .567-.453 1.024-1.016 1.024h-.001c-.563.001-1.016-.456-1.016-1.024l-.002-4.168-4.15.001.002 4.168c0 .568-.454 1.025-1.017 1.025s-1.017-.457-1.017-1.024l-.001-4.168h-2.551c-.178.001-.34-.163-.34-.343l-.001-3.971c-.001-3.373 2.338-6.185 5.474-6.885l-.001-2.074c0-.1.009-.198.027-.293v-.208c-1.829-.688-3.68-1.315-5.539-1.914l-.106-.033c-.33.139-.66.278-.991.416-.338.14-.677.279-1.017.418-2.635 1.058-5.309 2.031-8.063 2.736-1.937.495-3.915.859-5.912.989-2.43.158-4.894-.044-7.226-.772-.421-.131-.837-.279-1.247-.443-.239-.096-.478-.194-.708-.31-.252-.126-.494-.273-.722-.439-.459-.335-.859-.75-1.173-1.223-.254-.382-.451-.8-.586-1.238-.304-.994-.276-2.08.082-3.057.158-.433.379-.842.655-1.211.4-.535.913-.982 1.492-1.313.436-.249.909-.432 1.384-.588.79-.259 1.609-.429 2.433-.539 1.346-.18 2.713-.208 4.069-.15 1.645.071 3.283.255 4.909.51 1.692.265 3.371.605 5.038.992 2.234.519 4.445 1.126 6.64 1.787l.291.088.489.151c.509-.22 1.015-.445 1.522-.669.505-.225 1.009-.451 1.514-.678 1.525-.689 3.047-1.385 4.571-2.076l.326-.147c-.296-.212-.591-.426-.885-.641-.2-.148-.399-.296-.597-.447l-.057-.043c-.049-.043-.101-.083-.147-.13-.185-.185-.32-.419-.388-.672-.045-.169-.04-.215-.051-.388v-2.5h-4.5c-2.194 0-4-2.112-4-4.678v-.322h-35c-2.618 0-5-2.382-5-5v-54c0-2.618 2.382-5 5-5v-6zm-19.339 82.838c-1.208.013-2.427.1-3.602.397-.318.08-.632.177-.938.295-.186.072-.37.148-.54.254-.252.156-.467.369-.618.625-.307.522-.324 1.188-.046 1.725.1.195.238.369.402.514.121.107.256.198.399.273.166.087.343.156.517.225.458.184.926.343 1.402.477.928.261 1.882.426 2.842.509 2.079.179 4.177-.022 6.221-.417 2.831-.547 5.578-1.464 8.266-2.493l.009-.003c-2.483-.682-4.992-1.281-7.529-1.723-2.105-.367-4.235-.631-6.373-.657-.137-.001-.275-.001-.412-.001zm48.211-6.516c-.57.011-1.139.041-1.708.094-1.993.186-3.959.616-5.882 1.166-2.625.752-5.182 1.729-7.699 2.782.35.217.702.431 1.055.643 1.287.766 2.592 1.501 3.923 2.188 1.028.53 2.07 1.032 3.128 1.498.865.382 1.742.739 2.63 1.064 1.326.485 2.681.902 4.062 1.201 1.122.243 2.265.409 3.414.444.9.028 1.806-.026 2.69-.203.447-.09.891-.208 1.316-.373.533-.208 1.035-.498 1.464-.877.268-.237.505-.507.704-.803.162-.24.298-.498.408-.766.099-.243.177-.496.232-.753.051-.232.084-.469.099-.707.103-1.561-.524-3.131-1.633-4.227-.369-.365-.789-.677-1.243-.927-.42-.232-.871-.41-1.322-.572-1.027-.369-2.096-.613-3.179-.746-.608-.075-1.219-.112-1.832-.126-.209-.002-.418-.002-.627 0zm18.847-12.187v-60.135h-33.437c-.305.195-1.011.648-2.313 1.312-1.127.575-1.92 1.112-3.25 1.406v37.782c.011.792-1.207 1.521-2 1.521s-2.011-.729-2-1.521v-37.782c-1.33-.294-2.123-.831-3.25-1.406-1.302-.664-2.008-1.117-2.312-1.312h-33.438v60.219h34.25l.236.15 1.733.881c1.014.518 2.503 1.133 3.281 1.375 1.735.54 2.534.39 5.469-1.031l2.281-1.094.051-.001c.068-.04.105-.062.105-.062l.344-.218h26.297z"/>
  <path d="m88.774 52.5c-4.6667 0-9.4386 3.4386-9.4386 8.8421 0 3.0176 2.0351 5.7193 5.5088 7.4386 3.4386 1.7193 6.5263 2.6667 6.5263 4.7719 0 2.7018-2.7368 2.8421-4.1754 2.8421-3.2281 0-7.0877-3.2632-7.0877-3.2632l-3.2982 5.5439s4.1053 3.8246 10.877 3.8246c5.6491 0 10.912-2.421 10.912-9.3333 0-3.7895-3.5439-6.5263-6.7719-7.8947-3.2982-1.4035-6.0351-2.5614-6.0351-4.1754 0-1.579 1.193-2.5965 3.4386-2.5965 2.9824 0 5.8596 2 5.8596 2l2.6667-5.2632s-3.7193-2.7368-8.9824-2.7368z"/>
  <path d="m140.47 52.5h-17.164v30h17.164v-6h-10.327v-6.0364h9.8909v-6h-9.8909v-5.9636h10.327z"/>
 </g>
</svg>
