<?xml version="1.0" encoding="UTF-8"?>
<!-- Created with Inkscape (http://www.inkscape.org/) -->
<svg version="1.1" viewBox="0 0 799 800" xmlns="http://www.w3.org/2000/svg">
 <g>
  <path d="m374 2.475c-58.624 4.2022-115.46 20.092-167 48.545-39.844 21.994-76.054 50.776-106.13 84.98-30.097 34.232-54.56 73.624-71.431 116-44.422 111.58-35.467 240.57 23.747 345 24.146 42.584 56.221 79.917 93.809 111.18 37.831 31.469 82.246 55.309 129 70.446 46.26 14.977 96.369 22.281 145 18.966 60.048-4.0934 118.22-19.813 171-49.059 41.252-22.86 78.182-52.8 108.96-88.543 22.395-26.012 41.767-55.009 56.611-85.994 60.194-125.65 50.555-276.23-25.469-393-23.328-35.831-52.647-67.344-86.097-93.904-37.063-29.428-79.804-52.404-125-66.543-47.296-14.795-97.445-21.63-147-18.078m-24 27.525v1c-36.469 21.17-63.447 52.463-83.952 89-7.6179 13.575-14.416 27.651-20.447 42-2.18 5.1866-4.1116 14.366-9.6542 17.042-7.382 3.5634-21.676-3.22-28.947-5.4322-26.664-8.1131-54.212-16.706-79-29.609 13.017-17.872 32.257-32.537 50-45.504 35.191-25.719 74.197-44.997 116-57.305 18.099-5.3292 37.095-10.224 56-11.191m99 0c17.214.88391 34.437 5.2612 51 9.8285 43.432 11.976 84.75 32.149 121 58.904 11.839 8.7384 23.405 18.173 33.985 28.407 3.7109 3.5897 9.4531 8.1533 10.608 13.472 1.8047 8.3132-14.984 13.823-20.592 16.322-19.275 8.5883-39.55 14.841-60 19.939-6.069 1.5129-16.684 6.0727-22.605 2.5268-5.97-3.5754-8.133-14.39-10.659-20.398-6.5055-15.473-14.02-30.532-22.529-45-13.027-22.15-28.852-43.28-48.21-60.294-10.051-8.8343-21.835-15.143-31.998-23.706m-63 9v163c-41.991 0-85.226-4.7131-126-15 3.5661-13.825 9.5007-27.07 15.475-40 21.211-45.903 56.276-99.95 110.52-108m152 148c-41.105 7.9715-84.062 14.99-126 15v-119c0-9.6631-.0727-19.33.0131-28.992.032-3.6049-.5278-9.1385 2.2891-11.939 3.335-3.3152 9.9862-.73627 13.702.47864 12.449 4.0704 23.878 11.106 33.973 19.37 26.38 21.597 44.398 50.854 59.252 81.082 6.7733 13.784 14.182 28.765 16.771 44m-309 19c-2.9564 16.151-8.0745 31.944-11.588 48-1.3601 6.215-1.5692 15.53-6.268 20.304-3.1001 3.1501-8.0512 3.6018-12.155 4.4563-6.8015 1.4163-13.493 3.3329-19.989 5.8016-18.375 6.9829-35.304 18.795-48.358 33.474-10.606 11.927-19.113 25.925-24.511 40.964-2.4945 6.9502-2.8823 20.882-8.812 25.698-3.9153 3.1799-10.632 2.2912-15.32 2.3-12.666.0239-25.332.0239-37.998 0-4.5719-.009-12.298 1.0926-15.665-2.8344-3.2084-3.7424-1.6544-10.73-1.2881-15.165 1.0512-12.728 2.7133-25.435 5.0126-37.999 8.4856-46.365 26.105-91.269 51.423-131 5.8753-9.2199 11.962-18.369 18.723-26.969 2.8673-3.647 6.2487-8.3685 11.004-9.5789 4.104-1.0446 8.2337 1.1514 11.789 2.9407 7.325 3.686 14.511 7.5633 21.999 10.923 26.409 11.85 53.861 21.807 82 28.684m340 0c28.454-10.458 57.324-18.178 85-30.947 6.7583-3.1183 13.302-6.647 19.997-9.8904 3.5756-1.7324 7.6356-3.6343 11.644-2.2114 4.6025 1.6338 7.8709 6.3898 10.748 10.074 6.7432 8.6354 12.95 17.727 18.819 26.975 25.081 39.523 42.539 83.99 51.125 130 2.404 12.883 4.2494 25.928 5.2491 38.999.33405 4.368 1.6273 11.398-1.2862 15.165-3.219 4.1615-11.737 2.8306-16.296 2.8354-12.665.0134-25.332.0383-37.997-.003-4.7212-.0154-11.38.75647-15.093-2.8325-5.7072-5.5166-6.0955-18.84-8.7686-26.163-5.5292-15.148-14.206-28.955-25.1-40.823-13.054-14.221-29.028-25.449-47.04-32.441-6.489-2.5188-13.195-4.4299-19.993-5.91-4.1616-.90606-9.1717-1.392-12.367-4.5217-4.9515-4.8505-5.2233-14.878-6.6431-21.305-3.4946-15.819-7.7183-31.381-11.997-47m-23 5c8.0402 19.909 13.151 43.623 15 65h-96l-30-6e-5c-5.3611-.00043-11.303.63641-16.557-.61359-5.2209-1.2419-6.1227-5.6882-6.3483-10.446-.39173-8.2602-.23462-16.66-.0571-24.927.0792-3.6865-.0134-8.3632 2.7994-11.177 3.0337-3.0345 8.2216-2.7421 12.171-2.9447 8.3291-.4273 16.677-.88586 24.993-1.5162 31.629-2.3973 62.903-7.1983 94-13.376m-160 65h-95l-54-1c2.867-14.737 5.836-29.421 9.4423-43.999 1.2513-5.0584 2.1652-13.353 6.9835-16.426 6.7381-4.2979 21.27 1.3784 28.574 2.561 23.875 3.8652 47.853 6.5986 72 8.0017 6.6615.38709 13.296.67853 19.963.91748 3.2516.11652 7.3922.12738 9.735 2.7822 3.085 3.4958 2.2842 9.8736 2.2981 14.166l.00409 32.998m-172 20.48c30.522-2.9218 62.343-.47992 93-.47992h246c21.382 0 42.025-.37537 62 8.4905 13.927 6.1818 26.346 15.185 36.521 26.535 41.873 46.705 30.529 122.29-21.521 156.3-10.889 7.1138-23.242 12.033-36 14.533-13.85 2.7136-27.963 2.144-42 2.144h-306c-23.327 0-45.614-.15985-67-10.871-60.304-30.202-77.05-112.73-31.045-162.84 8.3459-9.0903 18.096-16.98 29.045-22.718 11.441-5.9954 24.135-9.86 37-11.091m-184.54 118.36c6.5188-4.5502 20.941-1.8365 28.539-1.8365 8.665 0 17.331-.0399 25.996.007 4.0163.0219 9.14-.45957 12.679 1.8291 3.6064 2.3325 4.2755 7.3465 5.1759 11.186 1.6028 6.8343 3.5865 13.498 6.3086 19.978 8.0532 19.17 20.702 36.23 36.856 49.345 11.875 9.64 25.442 17.142 39.985 21.917 7.5229 2.4704 20.471 2.4946 26.144 8.3788 3.9151 4.0607 4.3829 11.105 5.4801 16.36 2.3122 11.074 4.978 22.052 7.8337 32.997 1.2753 4.8877 4.1631 12.275-.68738 16.091-7.2215 5.6826-20.135 6.9222-28.771 9.7801-19.125 6.3292-37.816 13.807-56 22.487-7.2202 3.4467-20.128 14.034-28.445 10.807-8.8002-3.4142-15.396-16.738-20.438-24.163-16.336-24.055-29.669-49.845-40.026-77-10.78-28.263-18.048-57.96-21.62-88-.82501-6.9391-1.625-13.95-1.828-20.94-.09331-3.2128-.12238-7.1711 2.818-9.2235m743.54-.83652c-2.443 19.046-3.2554 38.06-6.8557 57-7.7861 40.959-22.635 81.08-43.799 117-7.0942 12.041-14.641 23.83-23.061 34.992-3.3785 4.4786-7.531 10.965-13.442 12.195-4.4977.93653-9.0078-1.7536-12.843-3.7333-6.9506-3.5878-13.877-7.1827-21-10.423-26.476-12.045-53.879-21.626-82-29.031 3.0084-15.814 8.094-31.215 11.375-47 1.252-6.0234 1.5122-15.491 6.3738-19.894 2.9732-2.6926 7.5049-3.1871 11.268-3.9886 5.7472-1.2241 11.429-2.6592 16.984-4.5913 16.337-5.6829 31.355-15.006 43.975-26.806 13.421-12.55 23.845-27.731 30.845-44.72 2.402-5.8303 4.1516-11.868 5.6431-17.987.90869-3.728 1.5123-8.3873 4.4251-11.177 4.477-4.2872 13.474-2.8346 19.112-2.8363 17.447-.00524 35.707-1.522 53 .99976m-532.46 110.89c2.6638-2.2306 7.3125-1.8094 10.54-1.8571 7.6374-.11267 15.281-.03381 22.919-.03381h75c6.9875 0 13.976-.0409 20.964.0211 3.6821.0326 8.0896-.33643 11.537 1.2046 3.8584 1.7247 4.2347 6.1226 4.4068 9.8466.38074 8.2371.29917 16.65.0323 24.891-.10522 3.2499-.12417 7.3944-2.7765 9.735-2.6496 2.3382-6.8831 2.188-10.186 2.2707-6.6816.16717-13.309.47583-19.978.93097-23.155 1.5804-46.067 4.0457-69 7.6358-6.3508.9942-12.67 2.0989-18.993 3.2515-3.4787.6341-7.6416 1.7126-11.092.42121-4.4109-1.6507-5.6292-7.1897-6.7059-11.231-2.891-10.851-5.3805-21.934-7.4372-32.973-.72512-3.8918-2.8886-11.05.76961-14.113m175.56-.0543c3.122-1.9537 7.365-1.7647 10.902-1.8142 7.3287-.10242 14.663-.02234 21.993-.02234h76c6.997 0 13.996-.0491 20.993.0131 3.4518.0306 7.7113-.29938 10.846 1.4255 4.9424 2.7193 2.7686 10.219 1.9436 14.565-2.0373 10.734-4.4705 21.403-7.1767 31.988-1.0483 4.1005-1.9888 9.9533-5.938 12.356-3.1236 1.9005-7.2995 1.056-10.684.51226-7.015-1.127-13.976-2.5955-20.984-3.7717-21.864-3.6692-43.888-6.2008-66-7.7672-6.3238-.44794-12.664-.92798-18.998-1.1984-3.9248-.16754-8.5442.22431-12.17-1.5616-3.7119-1.8284-4.4366-5.8618-4.6883-9.6217-.5476-8.1816-.43405-16.713-.0498-24.903.1734-3.6954.55533-8.0382 4.0111-10.201m-30.105 70.163v166c-52.186-9.3967-86.793-57.992-108.12-103-5.119-10.802-9.9492-21.76-14.041-32.996-1.3758-3.778-4.1295-9.568-1.4954-13.375 1.8692-2.7013 5.7216-3.4451 8.7027-4.1225 7.2525-1.6481 14.623-2.8619 21.956-4.0881 30.79-5.1488 61.772-8.4184 93-8.4186m153 15c-2.7978 14.309-9.0232 27.793-15.031 41-14.682 32.276-34.122 64.222-61.969 86.8-9.8846 8.0143-20.969 14.787-32.998 19.049-3.7958 1.345-10.385 4.1743-14.166 1.4753-2.7632-1.9726-2.6787-6.3533-2.7765-9.3652-.28043-8.639-.06-17.316-.06-25.959v-94c0-7.6297-.26724-15.318.0942-22.94.15384-3.244.39676-7.2017 3.3443-9.2229 2.9285-2.0081 7.1981-1.7658 10.575-1.6822 7.6737.19012 15.356 1.2194 22.987 2.0005 30.18 3.0891 60.085 7.8902 90 12.845m133 44c-12.816 17.875-31.516 32.428-49 45.538-36.773 27.573-78.708 48.126-123 60.359-16.931 4.6761-34.429 8.9315-52 10.103v-1c59.133-33.584 89.885-92.976 114-154 27.878 4.8827 56.103 13.207 82 24.626 9.6276 4.2454 18.592 9.6984 28 14.374m-322 116c-19.93-1.4183-39.911-6.5627-59-12.263-63.482-18.956-119.19-55.24-165-102.74 9.0063-6.4864 19.697-10.261 30-14.207 16.47-6.3093 33.136-11.94 50-17.096 7.3371-2.2432 21.431-8.9728 28.931-5.5174 5.7335 2.6416 7.7488 12.521 9.9632 17.821 6.2696 15.006 13.263 29.783 21.174 44 13.629 24.493 30.856 47.785 51.933 66.374 10.031 8.8472 21.846 15.065 31.999 23.626z" style="fill:#090"/>
 </g>
 <g>
  <path d="m234 419v-59h-38v-25h108v25h-39v118h-31zm150 0v-59h-38v-25h108v25h-39v118h-31zm150 0v-59h-38v-25h108v25h-39v118h-31z" style="fill:#000"/>
 </g>
</svg>
