<?xml version="1.0" encoding="UTF-8"?>
<!-- Created with Inkscape (http://www.inkscape.org/) -->
<svg version="1.1" viewBox="0 0 410 430" xmlns="http://www.w3.org/2000/svg" xmlns:cc="http://creativecommons.org/ns#" xmlns:dc="http://purl.org/dc/elements/1.1/" xmlns:rdf="http://www.w3.org/1999/02/22-rdf-syntax-ns#">
 <metadata>
  <rdf:RDF>
   <cc:Work rdf:about="">
    <dc:format>image/svg+xml</dc:format>
    <dc:type rdf:resource="http://purl.org/dc/dcmitype/StillImage"/>
   </cc:Work>
  </rdf:RDF>
 </metadata>
 <g transform="matrix(1.0056 0 0 1.0005 -.94271 -.21757)">
  <path d="m203.5.21875c-67.893.45377-127.98 35.956-164.72 90.188h332.03c-36.98-54.582-97.567-90.188-166-90.188-.43957 0-.87358-.002934-1.3125 0z" style="fill-rule:evenodd;fill:#608ab4"/>
  <path d="m27 110c-16.582 31.083-26.062 66.917-26.062 105.09 0 118.62 91.345 214.91 203.88 214.91 112.53 0 203.84-96.286 203.84-214.91 0-38.177-9.4491-74.011-26.031-105.09z" style="fill-rule:evenodd;fill:#375493"/>
  <path d="m38.781 90.406c-4.258 6.2848-8.1735 12.831-11.781 19.594h355.62c-3.6078-6.7627-7.5545-13.309-11.812-19.594h-332.03z" style="fill-rule:evenodd;fill:#d6dde3"/>
  <path d="m275.93 36.012c-.38427-.35404-4.5451 8.9315-4.0312 15.042-1.8485 19.416 8.335 34.048 10.101 44.234 0 0 2.8431-.0349 2.8623-.0305 20.488-2.3689 53.839 3.2269 54.187-4.9465-.17103-6.1386.90392-16.427-8.0876-27.046-17.336-4.5579-38.59-14.444-51.493-23.643-.64673-.46102-3.0662-3.0654-3.5375-3.6101z" style="fill-rule:evenodd;fill:#7bbce5"/>
  <path d="m275.91 36.001s.31406.02255-.38443-.11255c0 0-3.7327.65903-7.3798 1.1027-7.6409.92953-14.58-.35147-22.544-1.8792-13.888 8.9566-14.104 14.818-29.307 23.827-7.129-5.3949-18.68-7.009-31.846-13.945-10.59 5.3949-8.2374 1.5499-14.83 3.0913-6.8507 1.2845-27.963 18.051-38.587 23.193-8.6535 4.4111-31.045 11.647-32.329 19.097 15.671 5.5662 57.997 5.7346 73.668 3.5938 8.9059-2.1408 15.243.87378 24.406.53125 26.232 1.13 54.667-2.0738 80.409.66712 1.5489.16493 3.0874.16168 4.8046.12023-.1159-10.441-15.163-44.716-6.0812-59.286z" style="fill-rule:evenodd;fill:#ffffff"/>
  <path d="m196.27 53.898c3.3447 10.105 6.2447 20.209 5.138 30.314-1.1989 6.2512 1.4558 5.8231 6.4225 3.3397 4.8811-2.6546 7.4501-5.5662 14.643-7.9639 5.5662-1.5414 1.627-5.6518-1.0276-8.4777-7.9386-7.5514-16.572-12.324-25.176-17.212z" style="fill-rule:evenodd;fill:#7bbce5"/>
  <path d="m224.81 110c5.8512 77.793 58.104 87.35 91 71.625-16.448-16.265-10.482-49.416 7.0625-49.781 32.452-.78967 23.212 59.826 23.219 89.25 17.742-3.608 16.58-70.739 12.812-111.09h-134.09z" style="fill-rule:evenodd;fill:#294584"/>
  <path d="m56.75 110c.63779 6.6968 1.2685 13.397 1.9062 20.094 4.2923 7.8586 7.484 15.704 6.5938 23.562 8.4792-2.0895 13.532-3.1825 18.094 5.5 19.953 12.423 38.906 13.905 57.562 12.062 3.793 45.141 2.6868 81.452 1.0938 135.41 11.331 18.824 22.669 36.676 34 55.5 6.507 11.444 17.92 15.058 26.875 1.5312 7.6758-3.4724 15.324-6.9339 23-10.406v11.5c11.788 2.9662 23.448 7.4783 18.094 19.75-4.0744 7.9251-1.7814 11.451 9.8125 6.1562 10.241-4.9882 16.561 2.748 21.906 4.125-7.6201-8.1155-1.0625-24.091-.8221-40.591 10.934-.99882 23.419-10.91 34.353-11.909 22.482-21.82 26.354-29.939 26.312-58.125 2.2586-7.3103 5.5023-9.2412 3.8438-21.938 1.2793-7.8586 3.0644-18.141 4.3438-26 .87631-5.1436 1.7196-10.179 2.5625-15.156-.0609.01399-.12615.01877-.1875.03125-.00685-29.424 9.233-90.04-23.219-89.25-17.545.36552-23.511 33.516-7.0625 49.781-3.8132 1.8228-7.894 3.33-12.125 4.4062 1.3338 7.6713-4.208 15.543-11.469 15.875-7.2448-.64799-17.901 6.542-24.656 23.031-10.796 22.771-20.621 2.9608-24.562-3.1562-5.0586-6.7171 1.1533-12.961-12.719-8.9062-9.1447 2.8274-20.752 4.6952-23.531-9.125-11.696-11.879-22.897-22.308-34.594-34.188-4.6699-5.5582-.78034-10.134-.75-12.094-.00014-.04146.00092-.1093 0-.15625-.00047-.00721.00086-.02488 0-.03125-.00589-.02202-.02434-.07234-.03125-.09375-.00646-.02366-.02289-.0712-.03125-.09375-.01502-.03696-.04185-.09116-.0625-.125-.00517-.01097-.02585-.05166-.03125-.0625-.00826-.00823-.02726-.02664-.03125-.03125-.01949-.02103-.06717-.06956-.09375-.09375-.02993-.02347-.08288-.06635-.125-.09375-.0167-.01024-.04721-.02346-.0625-.03125-.0541-.0259-.12293-.0414-.1875-.0625-4.5621-2.8792-10.094.58695-16.125 3.0938-15.743 2.8906-21.891.10867-23.594-8.2188.09286-13.755-7.6436-12.32-20.281-10.406-36.428 5.1899-42.319-7.7036-52.938-31.062h-1.0625z" style="fill-rule:evenodd;fill:#e0e9ea"/>
  <path d="m57.812 110c10.619 23.359 16.51 36.252 52.938 31.062 12.638-1.9136 20.374-3.3485 20.281 10.406 1.7029 8.3274 7.8504 11.109 23.594 8.2188 6.031-2.5068 11.563-5.9729 16.125-3.0938.06457.0211.1334.0366.1875.0625.01529.00779.0458.02101.0625.03125.04212.0274.09507.07028.125.09375.02658.02419.07426.07272.09375.09375.00399.00461.02299.02302.03125.03125.0054.01084.02608.05153.03125.0625.02065.03384.04748.08804.0625.125.00836.02255.02479.07009.03125.09375.00691.02141.02536.07173.03125.09375.00086.00637-.00047.02404 0 .03125.00092.04695-.00014.11479 0 .15625-.03034 1.9597-3.9199 6.5355.75 12.094 11.696 11.879 22.897 22.308 34.594 34.188 2.7795 13.82 14.387 11.952 23.531 9.125 13.872-4.0549 7.6602 2.1892 12.719 8.9062 3.9415 6.117 13.766 25.928 24.562 3.1562 6.7552-16.489 17.411-23.679 24.656-23.031 7.2608-.33207 12.803-8.2037 11.469-15.875-32.269 8.2084-73.702-7.2558-78.875-76.031h-167z" style="fill-rule:evenodd;fill:#4d8ac0"/>
  <path d="m166.94 199.38c-10.498.68491-5.0262 35.786-3.875 52.406 1.5554 16.361 5.2025 12.507 16.625 5.375 5.2526 10.653 2.0587 16.606-5.375 23.5-5.5345 5.2301-8.7088 13.042-3.9062 22.031 1.4689 2.4482 2.7024 3.486 4.4062 7.3438 1.1425 2.285 2.2638 4.59 3.4062 6.875 1.3181 5.0522-.16914 8.2034-2.375 10.906-2.0427 2.9254-2.4372 5.8748.21875 13.969 1.4491 4.701-2.5228 10.314 3.625 15.25 2.7244 2.1163 5.3931 3.6997 8.125 4.875-2.3704-6.8995-2.4405-16.857-1.2812-25.406.7831-8.066 1.3263-13.081 8.6875-18.562 6.4215-3.289 4.6393-20.663 5.1875-31 .06316.05528.15277.10501.21875.15625-.00827-.04593.00765-.11024 0-.15625 13.736-2.9005 6.0885-13.887 1.875-24.438l-33.594-62.875c-.66383-.18427-1.2749-.27218-1.8438-.25-.04166.00162-.08383-.00269-.125 0z" style="fill-rule:evenodd;fill:#d6dde3"/>
  <path d="m168.91 199.62 33.594 62.875c4.2135 10.55 11.861 21.537-1.875 24.438 1.2244 7.3612 10.329 13.768 20.438 12.906 10.515-.6776 18.161 7.184 21.625 15.125.45746-8.757 1.5255-17.446 3.6562-26.031 1.3576-4.2435 9.0514-8.0032 2.6562-13.656-25.899-28.515-50.862-50.932-78.875-75.219-.42571-.18465-.82773-.32896-1.2188-.4375z" style="fill-rule:evenodd;fill:#608ab4"/>
  <path d="m200.41 286.94c-.54818 10.337 1.234 27.711-5.1875 31-7.3612 5.4818-7.9044 10.496-8.6875 18.562-1.1608 8.5611-1.0986 18.537 1.2812 25.438 2.4296 1.0384 4.9189 1.7421 7.5625 2.1875 4.4463.39814 7.2452 1.4975 16.625-.21875 8.2126-.9471 13.144-4.958 22.531-6.375 5.1239-1.0064 8.592-2.9618 8.3125-10.781-.39106-10.679-.7069-21.281-.15625-31.781-3.4635-7.941-11.11-15.803-21.625-15.125-9.9904.85133-19.015-5.4043-20.406-12.656-.00275-.01433.00269-.01691 0-.03125-.0051-.00441.00509-.02682 0-.03125-.07634-.06645-.17505-.11714-.25-.1875z" style="fill-rule:evenodd;fill:#236798"/>
  <path d="m338.47 276.53c-.86265 2.3922-1.9811 4.5295-2.9375 7.625.04108 28.186-3.8303 36.304-26.312 58.125-.20231.05072-6.6309 15.126-12.094 19.062-9.215 6.8124-8.6397 12.99-12.062 20.438-2.4771 3.7646-5.8979 4.3711-8.375 3.6875-1.5466-1.221-3.1096-1.7998-4.6562-3.6562-.09775 3.0456.11447 5.8188.90625 8.25.03549.07192.05839.14683.09375.21875.00329.00961-.00331.02165 0 .03125.43389.88276.84072 1.7735 1.25 2.6562.02237.03588.03974.0581.0625.09375.00391.00846-.00391.02279 0 .03125.37182.5792.8005 1.1386 1.2812 1.6562-.14636-.039-.2896-.07699-.4375-.125 9.4385 15.092 22.768 19.813 39.875 13.875 9.2112-4.0176 14.596-7.6959 20.312-12.031 4.9722-4.7163 10.888-13.57 1.5625-14.156-1.3287-.35167-2.0685-.69578-2.4375-1.0625-.01339-.01388-.05015-.04853-.0625-.0625-.03551-.04203-.06711-.11334-.09375-.15625-.03783-.0646-.07393-.15178-.09375-.21875-.00399-.01495-.02808-.04742-.03125-.0625-.00416-.02272.00241-.07072 0-.09375-.00185-.02314.00021-.07027 0-.09375.01852-1.3446 2.5774-3.2626.625-7.1562-1.3356-5.9556 4.3405-11.586 8.4062-13.094-2.7948-6.1137-5.6114-12.23-8.4062-18.344.19315-4.0145 8.0907-6.1337 6.8125-13.625 2.2795-18.844 5.3692-46.815-3.1875-51.812z" style="fill-rule:evenodd;fill:#608ab4"/>
  <path d="m288.03 202.31c-6.755 1.8178-14.927 9.0986-20.469 22.625-2.5304 5.3371-5.0146 8.3354-7.375 9.7188.23656 23.249 5.7596 39.801 17.188 48.875-3.3891 13.45-6.7678 31.992-.625 43.219-10.379-3.2832-6.1474 17.584-9.2188 26.375-5.1896 14.616-9.7532 13.979-14.625 15.25 4.4482 5.0837 10.171 10.479 18.75 13.656.00149.0166-.00308.04586 0 .0625.01737.07498.07804.17412.125.25.63926.97085 3.5167 2.028 4.9062 3.125 2.4771.68363 5.8979.07707 8.375-3.6875 3.4228-7.4479 2.8475-13.625 12.062-20.438 5.3354-3.8447 11.616-18.342 12.094-19.062-18.234-10.248-26.853-29.777-23.906-48.594.84727-5.1896 4.2416-11.008-.3125-19.375-5.4458-22.993-1.9776-49.745 3.0312-72z" style="fill-rule:evenodd;fill:#236798"/>
 </g>
</svg>
