<?xml version="1.0" encoding="utf-8"?>
<svg xmlns="http://www.w3.org/2000/svg" xmlns:cc="http://creativecommons.org/ns#" xmlns:dc="http://purl.org/dc/elements/1.1/" xmlns:rdf="http://www.w3.org/1999/02/22-rdf-syntax-ns#" xmlns:svg="http://www.w3.org/2000/svg" height="55" id="svg1" version="1.1" width="950" xml:space="preserve" viewBox="0 0 950 55">
	<title id="title1">Ornamental Rule with Medallions</title>
	<defs id="defs1">
		<clipPath xmlns="" clipPathUnits="userSpaceOnUse" id="clipPath11">
			<rect xmlns="" height="65.974373" id="rect12" style="fill:#ffccaa;fill-opacity:0.767149;stroke:#000000;stroke-width:0.1;stroke-dasharray:none;stroke-opacity:1" width="317.97482" x="339.60577" y="9.5536671"/>
		</clipPath>
	</defs>
	<g id="layer1" style="display:inline;opacity:1;fill:#000000" transform="translate(-32.548747,-16.251558)">
		<path xmlns="" d="m 347.78686,43.309915 c 2.01719,-0.427477 4.02485,0.467246 6.0266,0.585692 6.89619,0.408052 13.30378,1.757047 19.83371,4.073948 5.52418,1.960038 10.44703,5.210946 15.02721,8.807077 2.40273,1.886505 3.97602,5.072009 7.18916,5.41607 -0.26758,-2.260667 -1.50636,-4.012579 -2.073,-6.166981 -0.78289,-2.976559 -0.68629,-7.428818 -0.0301,-10.427073 3.00554,-13.733028 16.47254,-21.256301 29.11315,-24.221531 9.06663,-2.126845 18.18316,-1.310284 27.28738,0.159894 17.95666,2.899698 34.39684,9.834913 51.27132,16.314024 v 0.264583 c -3.704,1.460311 -7.34386,2.93808 -11.10232,4.263419 -2.10172,0.741121 -4.32413,1.658545 -6.59411,1.437687 -4.59694,-0.447262 -9.06088,-3.460341 -13.41304,-4.916052 -3.73307,-1.248644 -7.40174,-2.130293 -11.22386,-3.024238 -13.10127,-3.064207 -31.15727,-6.896491 -41.74364,4.119578 -6.61064,6.878951 -3.1116,16.405619 4.43833,21.007873 9.1008,5.547627 21.6573,4.414786 31.74857,2.864615 10.66127,-1.637727 21.24477,-4.470533 31.69145,-7.155668 4.07708,-1.047942 9.0405,-3.850436 13.28204,-3.456011 4.09858,0.381134 8.38072,2.93743 12.177,4.3989 5.57149,2.144882 11.49277,3.596005 17.19792,5.34646 2.93128,0.899375 5.9715,1.194484 8.95042,1.895576 13.26634,3.122274 27.37694,4.913831 41.03716,3.851049 8.49948,-0.661265 17.47858,-2.977019 25.20027,-6.701816 2.44287,-1.178384 4.50689,-2.918523 6.81928,-4.306827 2.89511,-1.738149 6.04427,-3.16351 9.11631,-4.557239 6.16429,-2.796632 12.62268,-4.403636 19.20832,-5.814358 5.03051,-1.077595 9.9556,-2.004224 15.00852,-2.8136 2.86558,-0.459008 6.05622,-1.113599 8.97051,-0.935691 2.14606,0.13101 4.81402,-2.491351 3.62547,-1.144914 -0.9338,1.057827 -1.77772,-1.480225 -3.33098,-1.134976 -1.1206,0.249083 -2.29379,-0.401223 -3.40108,-0.517093 -2.00466,-0.209772 -3.6812,-0.09872 -5.67275,-0.448593 -1.3224,-0.232317 -2.84708,-0.71725 -4.14545,-1.015869 -5.11474,-1.176385 -9.99907,-1.655002 -15.02351,-3.45832 -5.12972,-1.841102 -10.37888,-3.641505 -15.0545,-6.545906 -1.18701,-0.737354 -3.80261,-3.238691 -5.3219,-2.481587 -0.90815,0.452564 -0.4709,1.795158 -0.24004,2.514583 0.75764,2.360959 2.30697,4.341983 2.5638,6.876967 0.70564,6.964897 -1.20006,13.904424 -6.60412,18.661526 -10.03291,8.83185 -25.18767,11.500974 -38.04948,11.500974 -3.94075,0 -7.976,0.250631 -11.90625,-0.03914 C 539.67024,64.914556 520.15612,58.67258 501.43229,51.87398 v -0.529166 l 17.41744,-6.299133 c 0.55689,0.683601 1.61234,0.696949 2.20388,1.256586 8.3192,2.185154 15.41824,6.303944 23.77035,8.409622 11.21104,2.826446 22.80339,2.236701 34.0673,0.194812 7.89874,-1.431853 17.74601,-9.775237 13.02569,-18.535897 -2.27383,-4.220143 -8.22237,-7.141687 -12.43419,-8.997779 -5.45939,-2.405861 -12.38129,-2.486545 -18.25463,-2.486545 -14.1806,0 -27.6135,3.151322 -41.26176,6.740387 -3.38416,0.889925 -6.77817,2.166414 -10.06893,3.343026 -1.86364,0.666343 -3.76521,1.671696 -5.79206,1.658272 -3.07897,-0.02039 -6.89602,-2.43461 -9.67628,-3.680827 -5.40955,-2.424772 -11.09199,-4.226349 -16.55028,-6.547493 -3.56377,-1.515496 -7.6299,-2.392373 -11.36549,-3.408 -7.74856,-2.106667 -15.53232,-3.806402 -23.55395,-4.39777 -10.00453,-0.737548 -19.77454,0.139995 -29.2237,3.558795 -3.70185,1.339364 -7.05322,3.53684 -10.58702,5.230769 -1.48909,0.713793 -3.13288,1.01335 -4.63941,1.699012 -6.34122,2.88604 -12.52505,5.7187 -19.32063,7.381781 -6.60621,1.616733 -13.34831,2.532014 -20.0458,3.67382 -2.32667,0.396659 -4.60734,0.454842 -6.93553,0.760889 -1.39907,0.183912 -2.79143,0.677174 -4.21802,0.510715 -2.43089,-0.283649 -1.49493,2.113691 -3.07255,0.664987 m 210.60661,12.344859 -0.6452,0.100112 -6.60855,-1.293958 -13.2352,-3.669677 -12.96459,-4.825949 c 1.64021,-1.776298 3.76983,-2.0142 5.9675,-2.732361 3.96416,-1.295415 7.94209,-2.911077 12.02268,-3.767908 11.48632,-2.411856 22.41698,-8.048693 34.39732,-7.774804 5.48126,0.125311 12.0908,1.919319 15.08086,6.873805 3.06913,5.085526 -0.734,10.763902 -5.29573,13.140554 -6.46737,3.369461 -12.95687,4.050298 -20.10388,4.050298 -3.0253,0 -5.80467,0.958137 -8.67894,-0.131977 M 437.40313,34.942851 c 3.21915,-8e-6 6.34971,0.591881 9.52474,0.951048 8.09308,0.915513 16.45771,2.545087 24.13686,5.390809 2.43706,0.903123 4.81263,1.967956 7.2577,2.84894 0.56276,0.202766 2.23407,0.584965 2.22709,1.399796 -0.008,0.917345 -2.03518,1.358198 -2.66792,1.587605 -2.86982,1.04048 -5.67714,1.960628 -8.60015,2.829446 -7.86936,2.339037 -15.43201,5.02957 -23.41557,6.989572 -4.38939,1.07762 -9.20867,2.317474 -13.75051,2.317406 -7.68742,-1.17e-4 -21.91588,-6.818257 -15.28518,-16.355728 4.33404,-6.233971 13.50912,-7.958878 20.57294,-7.958894 z" id="path10" style="display:inline;mix-blend-mode:normal;fill:#000000;fill-opacity:1;stroke:#000000;stroke-width:0.2;stroke-dasharray:none;stroke-opacity:1"/>
		<g xmlns="" id="layer3" style="display:inline;fill:#000000;stroke:#000000;stroke-opacity:1">
			<path xmlns="" d="M 38.550922,41.061106 361.69076,42.232404" id="path6" style="font-variation-settings:normal;opacity:1;fill:#000000;fill-opacity:1;stroke:#000000;stroke-width:1.2;stroke-linecap:butt;stroke-linejoin:miter;stroke-miterlimit:4;stroke-dasharray:none;stroke-dashoffset:0;stroke-opacity:1"/>
			<path xmlns="" d="m 655.79779,42.281767 320.2197,-0.813774" id="path7" style="font-variation-settings:normal;opacity:1;fill:#000000;fill-opacity:1;stroke:#000000;stroke-width:1.2;stroke-linecap:butt;stroke-linejoin:miter;stroke-miterlimit:4;stroke-dasharray:none;stroke-dashoffset:0;stroke-opacity:1"/>
		</g>
		<g xmlns="" id="layer2" style="display:inline;opacity:1;fill:#000000">
			<circle xmlns="" cx="699.58246" cy="42.376839" id="path1" r="5" style="display:inline;fill:#000000;fill-rule:evenodd;stroke-width:0.264583"/>
			<circle xmlns="" cx="310.06024" cy="42.685875" id="circle1" r="5" style="display:inline;fill:#000000;fill-rule:evenodd;stroke-width:0.264583"/>
			<circle xmlns="" cx="339.12091" cy="42.185524" id="circle1-1" r="7" style="display:inline;fill:#000000;fill-opacity:1;fill-rule:evenodd;stroke-width:0.264583"/>
			<circle xmlns="" cx="670.69049" cy="42.355034" id="circle1-1-5" r="7" style="display:inline;opacity:1;fill:#000000;fill-opacity:1;fill-rule:evenodd;stroke-width:0.264583"/>
		</g>
	</g>
	<metadata id="metadata1">
		<rdf:RDF xmlns="">
			<cc:Work xmlns="" rdf:about="">
				<cc:license xmlns="" rdf:resource="http://creativecommons.org/publicdomain/zero/1.0/"/>
				<dc:title xmlns="">Ornamental Rule with Medallions</dc:title>
				<dc:description xmlns="">Typographic rule, Art Deco, featuring circular medallions, weight: 1.2pt (ATF 1923, pg.707).</dc:description>
				<dc:subject xmlns="">
					<rdf:Bag xmlns="">
						<rdf:li xmlns="">typographic rule</rdf:li>
					</rdf:Bag>
				</dc:subject>
			</cc:Work>
			<cc:License xmlns="" rdf:about="http://creativecommons.org/publicdomain/zero/1.0/">
				<cc:permits xmlns="" rdf:resource="http://creativecommons.org/ns#Reproduction"/>
				<cc:permits xmlns="" rdf:resource="http://creativecommons.org/ns#Distribution"/>
				<cc:permits xmlns="" rdf:resource="http://creativecommons.org/ns#DerivativeWorks"/>
			</cc:License>
		</rdf:RDF>
	</metadata>
</svg>
