<?xml version="1.0" encoding="UTF-8"?>
<svg version="1.1" viewBox="0 0 191.97 127.44" xmlns="http://www.w3.org/2000/svg">
 <defs>
  <filter id="filter1" x="-.0032053" y="-.011788" width="1.0064" height="1.0236" style="color-interpolation-filters:sRGB">
   <feGaussianBlur stdDeviation="4.5432684e-06"/>
  </filter>
 </defs>
 <g transform="matrix(1.2204 0 0 .99802 -18.273 .14739)" style="fill-opacity:.9;fill:#eb7f3f;filter:url(#filter1);opacity:.9;stroke-opacity:.75;stroke:#c8c8c8;white-space:pre" aria-label="BLACKWOOD BOOKSHELF">
  <path d="m21.262 84.964q3.5863 0 5.2209 1.0735 1.6346 1.0491 1.6346 3.2692 0 1.6346-.87829 2.6105-.85389.95148-2.0737 1.2198v.12198q.85389.17078 1.6346.60992t1.2686 1.2686q.48794.82949.48794 2.1957 0 2.3909-1.7322 3.7327-1.7078 1.3174-4.6842 1.3174h-6.514v-17.419zm.19518 6.9775q1.5858 0 2.1957-.58553.63432-.58552.63432-1.537 0-1.0003-.73191-1.4638-.73191-.48794-2.2689-.48794h-1.9274v4.0743zm-2.0981 2.8056v4.6842h2.3665q1.659 0 2.2933-.65871.65872-.68312.65872-1.7322 0-.95148-.65872-1.6102-.65872-.68311-2.4153-.68311zm12.674 7.6362v-17.419h3.7327v14.345h7.0507v3.074zm24.604 0-1.3418-4.0987h-6.148l-1.3418 4.0987h-4.0255l6.1236-17.493h4.5866l6.1724 17.493zm-3.4156-11.003q-.09759-.36595-.31716-1.0979-.19518-.73191-.39035-1.4882-.19518-.7807-.31716-1.2686-.09759.56113-.29276 1.293-.17078.70751-.34156 1.415-.17078.68311-.29276 1.1467l-1.2442 3.7815h4.4158zm16.846-3.5619q-2.0981 0-3.318 1.5858-1.1954 1.5614-1.1954 4.3183 0 2.7568 1.1467 4.2939 1.1711 1.5126 3.5132 1.5126 1.1467 0 2.1957-.26837 1.0735-.26836 2.1469-.68311v3.1716q-2.0737.87829-4.7574.87829-2.7812 0-4.5866-1.0979-1.781-1.1223-2.6593-3.1228-.85389-2.0249-.85389-4.7086 0-2.6349.97588-4.6598.97588-2.0249 2.8544-3.1716 1.8786-1.1467 4.5866-1.1467 1.293 0 2.6105.29276 1.3418.26837 2.5373.85389l-1.2198 2.9764q-.87829-.41475-1.8786-.70751-.97588-.31716-2.0981-.31716zm22.335 14.565h-4.1963l-4.5622-7.3435-1.5614 1.1223v6.2212h-3.6839v-17.419h3.6839v7.9778q.36595-.51234.73191-1.0247.36595-.51234.73191-1.0247l4.7086-5.9284h4.0987l-6.0748 7.7094zm23.775-17.419-4.4402 17.419h-4.1963l-2.3665-9.1488q-.0732-.26837-.19517-.8051-.0976-.53673-.24397-1.1711-.12198-.63432-.21957-1.1954-.0976-.58553-.14638-.90269-.0244.31716-.14638.90269-.0976.56113-.21958 1.1954-.12198.60992-.24397 1.1711-.12198.53673-.19517.82949l-2.3421 9.1244h-4.1963l-4.4402-17.419h3.6351l2.2201 9.5148q.14638.56113.31716 1.415.17078.85389.31716 1.7078.14638.8539.21957 1.4394.07319-.60992.21957-1.4394.14638-.85389.29276-1.6346.17078-.8051.29276-1.2442l2.5373-9.7588h3.4888l2.5373 9.7588q.12199.41475.26837 1.2198.17078.8051.31716 1.659.14638.8539.21957 1.4394.0732-.60992.21957-1.4394.14638-.85389.31716-1.7078.19518-.85389.31716-1.415l2.2201-9.5148zm17.871 8.6853q0 2.7081-.90269 4.733-.87829 2.0005-2.708 3.1228-1.8298 1.1223-4.6842 1.1223-2.83 0-4.6842-1.1223-1.8298-1.1223-2.7325-3.1472-.87829-2.0249-.87829-4.733 0-2.6837.87829-4.6842.90269-2.0249 2.7325-3.1228 1.8542-1.1223 4.7086-1.1223 2.83 0 4.6598 1.1223 1.8542 1.0979 2.7324 3.1228.87829 2.0005.87829 4.7086zm-12.662 0q0 2.7325 1.0247 4.2939 1.0491 1.537 3.3424 1.537 2.3421 0 3.3424-1.537 1.0247-1.5614 1.0247-4.2939t-1.0247-4.2939q-1.0003-1.5614-3.318-1.5614-2.3177 0-3.3668 1.5614-1.0247 1.5614-1.0247 4.2939zm32.143 0q0 2.7081-.90268 4.733-.87829 2.0005-2.7081 3.1228t-4.6842 1.1223q-2.83 0-4.6842-1.1223-1.8298-1.1223-2.7324-3.1472-.87829-2.0249-.87829-4.733 0-2.6837.87829-4.6842.90268-2.0249 2.7324-3.1228 1.8542-1.1223 4.7086-1.1223 2.83 0 4.6598 1.1223 1.8542 1.0979 2.7324 3.1228.87829 2.0005.87829 4.7086zm-12.662 0q0 2.7325 1.0247 4.2939 1.0491 1.537 3.3424 1.537 2.3421 0 3.3424-1.537 1.0247-1.5614 1.0247-4.2939t-1.0247-4.2939q-1.0003-1.5614-3.318-1.5614-2.3177 0-3.3668 1.5614-1.0247 1.5614-1.0247 4.2939zm30.752-.26837q0 3.0008-1.1222 5.0014-1.1223 2.0005-3.1716 3.0008-2.0493 1.0003-4.855 1.0003h-5.3185v-17.419h5.7577q4.0987 0 6.392 2.1713 2.3177 2.1469 2.3177 6.2456zm-3.9035.14638q0-2.8056-1.2442-4.1475-1.2442-1.3662-3.6595-1.3662h-1.9274v11.296h1.5614q5.2697 0 5.2697-5.7821z" style="fill-opacity:1;fill:#000;stroke-opacity:1;stroke:#000"/>
  <path d="m27.307 109.45q3.5863 0 5.2209 1.0735 1.6346 1.0491 1.6346 3.2692 0 1.6346-.87829 2.6105-.85389.95148-2.0737 1.2198v.12198q.85389.17078 1.6346.60992.7807.43915 1.2686 1.2686.48794.8295.48794 2.1957 0 2.3909-1.7322 3.7327-1.7078 1.3174-4.6842 1.3174h-6.514v-17.419zm.19518 6.9775q1.5858 0 2.1957-.58553.63432-.58552.63432-1.537 0-1.0003-.73191-1.4638-.73191-.48793-2.2689-.48793h-1.9274v4.0743zm-2.0981 2.8056v4.6842h2.3665q1.659 0 2.2933-.65872.65872-.68311.65872-1.7322 0-.95148-.65872-1.6102-.65872-.68311-2.4153-.68311zm28.807-1.0979q0 2.7081-.90268 4.733-.87829 2.0006-2.7081 3.1228-1.8298 1.1223-4.6842 1.1223-2.83 0-4.6842-1.1223-1.8298-1.1222-2.7325-3.1472-.87829-2.0249-.87829-4.733 0-2.6836.87829-4.6842.90269-2.0249 2.7325-3.1228 1.8542-1.1223 4.7086-1.1223 2.83 0 4.6598 1.1223 1.8542 1.0979 2.7325 3.1228.87829 2.0006.87829 4.7086zm-12.662 0q0 2.7324 1.0247 4.2939 1.0491 1.537 3.3424 1.537 2.3421 0 3.3424-1.537 1.0247-1.5614 1.0247-4.2939t-1.0247-4.2938q-1.0003-1.5614-3.318-1.5614-2.3177 0-3.3668 1.5614-1.0247 1.5614-1.0247 4.2938zm32.417 0q0 2.7081-.90269 4.733-.87829 2.0006-2.7081 3.1228-1.8298 1.1223-4.6842 1.1223-2.83 0-4.6842-1.1223-1.8298-1.1222-2.7325-3.1472-.87829-2.0249-.87829-4.733 0-2.6836.87829-4.6842.90268-2.0249 2.7325-3.1228 1.8542-1.1223 4.7086-1.1223 2.83 0 4.6598 1.1223 1.8542 1.0979 2.7325 3.1228.87829 2.0006.87829 4.7086zm-12.662 0q0 2.7324 1.0247 4.2939 1.0491 1.537 3.3424 1.537 2.3421 0 3.3424-1.537 1.0247-1.5614 1.0247-4.2939t-1.0247-4.2938q-1.0003-1.5614-3.318-1.5614-2.3177 0-3.3668 1.5614-1.0247 1.5614-1.0247 4.2938zm30.685 8.7341h-4.1963l-4.5622-7.3435-1.5614 1.1223v6.2212h-3.6839v-17.419h3.6839v7.9778q.36595-.51233.73191-1.0247.36595-.51233.73191-1.0247l4.7086-5.9284h4.0987l-6.0748 7.7094zm12.924-4.8306q0 2.3177-1.6834 3.7083-1.659 1.3662-4.733 1.3662-2.7568 0-4.9282-1.0491v-3.44q1.2442.53673 2.5617 1.0003 1.3418.43915 2.6593.43915 1.3662 0 1.9274-.51234.58553-.53673.58553-1.3418 0-.65871-.46354-1.1222-.43915-.46355-1.1955-.8539-.7563-.41474-1.7322-.87828-.60992-.29277-1.3174-.68312-.70751-.41474-1.3662-1.0003-.63432-.60992-1.0491-1.4638-.41475-.8539-.41475-2.0493 0-2.3421 1.5858-3.6351 1.5858-1.3174 4.3183-1.3174 1.3662 0 2.5861.31716 1.2442.31716 2.5861.90268l-1.1954 2.8788q-1.1954-.48793-2.1469-.7563-.95148-.26836-1.9518-.26836-1.0491 0-1.6102.48793-.56113.48794-.56113 1.2686 0 .92708.82949 1.4638.8295.53673 2.4641 1.3174 1.3418.63432 2.2689 1.3174.95148.68311 1.4638 1.6102.51234.92708.51234 2.2933zm17.901 4.8306h-3.6839v-7.5142h-6.9043v7.5142h-3.6839v-17.419h3.6839v6.8311h6.9043v-6.8311h3.6839zm14.876 0h-10.027v-17.419h10.027v3.0252h-6.3432v3.8303h5.904v3.0252h-5.904v4.489h6.3432zm3.9706 0v-17.419h3.7327v14.345h7.0507v3.074zm17.852 0h-3.6351v-17.419h9.9783v3.0252h-6.3432v4.489h5.904v3.0252h-5.904z" style="fill-opacity:1;fill:#000;stroke-opacity:1;stroke:#000"/>
 </g>
 <path d="m144.37 77.77-2.3189-.44648-9.7622-2.9704-12.16-4.0886-6.8951-2.5437-4.8625-1.0818-3.3703.34785-1.9827 1.0253-.20612.82126-.20613.82126.88298.86144 3.2.26516-.1534 4.6793-.3829.37996-21.039-.02866-.26684-.29133-.44896-4.9228 3.0704-.19716.95947-1.7163-1.2583-1.3904-6.4005.2691-15.68 5.1938-7.9491 2.3446-9.0108 1.8937-8.96.34867-4.8-.68357-4.3552-.97705-4.0399-1.9484-2.6449-2.2639v-.59013h2.9006l2.2194-.92734v-1.8535l-1.2293-1.1125h-2.8431l-8.5898 2.899-4.3459.69426-2.3519-.39319-2.9909-.94189-2.5245-2.7387-.79935-2.422.35386-2.6441.43547-1.44h-3.2369l-.32949-.53313.38455-4.5869h2.135l.31195-1.44.29843-25.92.98871-4.8.66659-4.4314 1.4265-2.581 1.6-.44383 3.0558-.0638.62416 1.6417v1.5583l4.64-.0066 1.0804-2.5719 3.041-1.3452 4.8041.40609 4.9777 1.3431 6.7434-1.989 5.9134-2.6194 6.08-2.7663 6.08-2.5469 10.56-3.6237 9.92-2.6168 8-.06361 2.9486 1.4528 1.1326 2.5116-1.9914 3.5286.37376.974 2.1264 1.3142 4.9064.93874 5.5437-.0048 4.1167-.66794 1.7165-1.014.99409-1.6828-1.8673-2.5044v-2.4134l2.08-1.5534 2.4093-.77191 6.1148.04904 9.0759 1.6423 10.24 3.422 9.28 3.5465 5.44 2.3376 10.56 4.0291 4.16 1.398 4.0673 1.1609 1.1467-1.1467 6.306-2.1007 7.2583-.27628 2.3417 1.0108 1.8597.18008.89876 2.56 2.5982 10.24-.4561 26.08h2.9016l.17757.28731.17756.28731-.20563 2.4327-.20564 2.4327h-3.1061v2.678l-1.0527 3.7517-3.3164 2.8333-3.4014.72947-3.8929-.44044-7.3766-2.9469-5.3324-.04506-1.5242 1.7685.198.55573.19799.55573.30951.4.3095.4h3.4l1.7304-.65791.18159.18159.18158.18159-.61114 1.1348-.61115 1.1348-3.2794 2.9851-4.1103 2.1044-3.52.96475-10.24.26686zm13.638-1.4597 2.3463-.65019 2.6546-1.3476 3.0127-2.312.0272-.56374-2.2764.36941-2.2259 1.9543h-.70004l2.6707-2.4-2.2369-1.5009-3.4437 3.5273-2.426 1.0136-1.0418-.05052 2.88-1.0122 3.5853-3.6569.20462-1.2796.20461-1.2796 2.0391-1.9936 2.1855-.41 4.2291.43328 3.8718 1.5315 4.3962 1.6375 3.6038-.0062 3.2-1.5555 1.7474-1.5967.6369-2.7615-.004-.64-.9233 1.22-.28-.75692-.28001-.75692-.45408 2.4205-.59375.97635-.59376.97635-.90737.59825-.90738.59825-1.28-.0098 2.6776-1.2157 1.0024-1.9385v-2.0741l-.46982.62116-.46983.62116-.0204-1.248-.64419.64419-1.7558 3.4388-.96.25372.72807-.52872 1.0319-2.4782v-1.0342l-1.7022 2.3924h-.81612l-.82142-.31218-.82083-.31208v-1.4317l-.94699 1.1079-.947 1.1079-.026.42375 2.72.44832.96.60833-1.8347-.39133-2.0053-.34445-.86278-.26862 1.9828-2.2583v-.29773h-.91687l-.20895.65833-.20894.65833-1.5955.60661-3.3909-.98576-.99322-1.0975.1144-.63916-1.28-.0114-1.12.90981v-1.5015l-.91429 1.2423-.4414-1.1388-.86396 1.1388-.0398-1.28-.69531 1.1968-.28262-.43839-.28261-.43839-.56.86833-.45698-.7394-.90302.74944-.0204-1.1984-.88386 1.166-.24798-1.166-1.0223 1.9215-1.1855 1.0686-1.8652.46566.42796-1.1152.21171-.85027.21172-.85027-1.0662.87836-.052-.87836-.74802 1.6-1.2275 1.8117 1.0262 1.7373-.80258 1.0255-.80259 1.0255h-1.5795l-1.7341-1.2115-5.4132-3.2685h.55701l2.9362 1.6837 3.3085 2.1563h1.9258l.50285-.50286.50286-.50286v-.6168l-1.008-1.5384 1.274-1.799.41714-1.44h-.55513l-.768.768-.006-1.248-1.9233 3.3537.75036 1.2015-.40654 1.0594-2.4066-1.0055-3.0668-1.968-.94104-1.3435-.0204-1.9376-.4251.56-.42511.56h-.40936l-.0204-1.12-.83392 1.0977-.37167-.37167-.37166-.37167-.47102.6228-.47103.6228-.0302-1.28-.6204.96-.01.83599 2.88 1.274v.22742l-3.0069-.90495-.50328-.79242-.02-.96-.29789.47103-.29788.47103-.45736-1.1919-.78138 1.0686-.46438-1.1388-.5041 1.28-.29967-.77135-.29966-.77135-.23115.60238-.23116.60238-.29788-.47103-.29789-.47103-.01 1.7416 4.64 1.3503 1.7737.67141.1488.24076.14879.24076-6.645-2.0861-.35225-.21832-.35315-.21826v-2.0046l-.46982.62116-.46983.62116-.0204-.64-.0203-.64-.92204 1.2182-.4133-1.077-.86396 1.1388-.0204-1.12h-.55626l-.3967 2.4-.008 1.0952 3.265.96962 5.535.71991.52044.48771-7.3008-1.1099-2.395-.79041.2153-3.453-.352.000872-.768.768-.0434-1.248-.71252 1.4804-.82148-1.4804-.016 1.28 2.1237 3.84 5.0553 2.0434 1.6134 1.8918 2.56.78208.613.56769-3.493-1.0298-1.92-2.066-4.6692-1.7764-.51127-.84644-.51126-.84644-1.2927-1.8753-.44734-1.9647-.69556 1.6-.22074-.74705-.22073-.74705-.27561.42705-.2756.42705-.30279-.47103-.30278-.47103-.48496 1.2621-.22625-.8-.22624-.8-.23613.75944-.23612.75944-.78648-1.4695-.4554 1.4348-.85052-1.1632-.45139.45139.3528.91939 4.0463.4589 2.0285.83513.37039.6921.3704.6921-.36092.94056-2.4084-.45037-1.92-.88631 2.24.3696 1.76.36916v-.59196l-1.2457-1.3371-4.6743-.73818-.96-.13198-.10226-.71673-.10225-.71673h-.59345l-.01.8-.67892-.96-.33352.82671-.84394-.70041-.2322.73159-.23219.73159-.54402-1.4706-.3227.19944-.32271.19944-.0203.54112-.0203.54111-.6323-1.5846-.22356.3123-.22334.3123h-.90667l-.27026.8108 2.7769 1.22 5.0764.69894.36358.37337-4.48-.4675-3.8022-1.3556-.28902-1.12-.28903-1.12-1.1929 2.24-.0268-1.76h-.58667l-.3228.8-.0506-1.12h-.40944l-.85021 1.12-.0346-1.6-1.2515 1.6-.0346-1.28-.92204 1.2182-.4349-1.1333-.84003 1.5151-.0113-.70111-.0113-.70112-.58534-.36176-.32594.80399-.61875-.88456-.43128 1.3588.4439.71825 2.7615 1.2215 6.276 1.8411 3.2.71 3.52 1.0203 7.68 1.868 1.6 1.81 3.84 1.4411 8.64 2.5026-2.4808-.37128-5.5192-1.5435-2.24-.72093-3.68-1.6188v-.53616l-.92639-.47905-.92638-.47905-2.4672-.58563-12.8-3.3104-5.12-1.6397-2.0807-.95591-.5816-2.0068-.0578 1.1425-.5168.78874-.51681.78874h-.66558l.52959-.5852.5296-.5852-.0288-1.5496-.46905.96-.46906.96.24854-1.3692-.55176-.87085-.01.86848-.45933-.17626-.45932-.17626-.63082 1.724-.0506-1.8384-.96.79673v-.75614l-.56745.3507-.40648 2.087-1.2134 1.5786-4.6927.41436-.91728.24702-.78045-1.6-.18859-1.4111-.18887-1.4111-.32454-.32454v1.0667h-.67777l.45666-.73888-.73888.45666-.0098 3.0022-.6204-.96-.0196-2.88-.6302.96-.6302-.96-.03016 1.28-.87821-1.1583-.35745.57836.6397 2.3168.6163.3809v.68059l-.89708-.74451-.83698-2.8348-.49613.78085-.0049.67684-.0049.67685 1.3105 1.666 1.7056.82032 1.5109 2.24-.13826.8-.13827.8-.5153 1.2146 1.7048-.32589v.53906l-1.76.37129-2.08.91055v.57945l1.2274 1.5109 7.4822-.1366 2.6698-1.2924 2.2579-2.411.78178-3.1206 2.2209-2.5946v-.50228l1.2908-.69079 3.0839 1.549 5.3546 1.085 6.4307 2.214 10.24 3.437 6.5075 2.3214 5.3325 1.6246 4.48.84815 9.2929.06924zm-10.839-.36548-2.08-.29668-.55735-.55699 2.4774.52992 5.6662.33895.18025.18024.18024.18024-3.7867-.079zm-2.4-1.7205-1.92-.41986-2.3268-.6001-4.3932-1.4896-3.4512-1.5941-.30432-1.1637-2.8858-1.2765h-.84087l-.19046-.30818-.19047-.30818 2.7432.85006 1.7477.82342.19529.6153.19528.6153 2.9817 1.2862 5.76 1.8849 4.48 1.0155.96.54617-.64-.05682zm-55.764-.85193.12936-.38807 4.4346-2.2639-.11258-.64-.22822-.64-.22821-.64 1.4467 1.3754-.44529.72049-4.4324 2.2321v.31642l4.64-.315-1.6.56673-3.7333.0638zm58.164-.2657-.8-.26998 4.8.36708.13333.11834.13334.11834-3.4667-.0638zm8.1377-.40504.61766-.38118 2.2847-2.0722-.96-.63796 1.44-.0098-.0212.48-1.0987 1.28-2.1291 1.76-.7509-.03764zm-9.4177-1.0413-1.12-.42376-1.9381-.03612-4.4619-2.1506-.58085-.65292-.58084-.65292.30144-.1863.30145-.1863 4.7258 1.2378 2.4654 1.0301 2.4876 1.6462v.87495l-.48-.07636zm.79624-.46597-.20153-.32608-3.2532-1.6485-3.5816-.92013-1.12-.34233v.63093l2.1306 1.3168 5.7094 1.5361.25889.03964.25888.03964zm1.7306-.30843-1.3668-1.2745-5.1601-2.6007 1.6.43261 3.2 1.5886 3.3839 2.5848 3.0805.296 3.1356-1.3503-.89784.79902-.89785.79902h-4.7106zm-53.087.18105v-.45347l1.2441-2.9024 2.4612-1.5537 1.8168-2.3819.26064.42174.26065.42174-.33795.40721-.33796.40721-.52815-.32641-.25966.42333-.25967.42333-2.7877 2.2068-1.2123 2.3745v.3455h.87369l1.6273-1.28h.45742l-.83175 1.0022-1.7748.9178h-.67178zm3.5764-.66653.1228-.32 1.7056-3.68h.7022l-.8721 1.52-.8721 1.52-.90915 1.28zm50.664-1.4224-2.24-1.2421-2.1783-1.0239.19308-.19307.19307-.19307 5.3121 3.0904 4.48.23988 2.874-2.0912-2.074-.84627v-.56456l1.76-1.1327-1.1214 1.271.21404.21403.21403.21403h1.4933v.72443l-2.1923 2.0676-2.8911.728-1.7966-.02024zm-58.519-.01765.17225-1.12-1.6854-2.475.2439-.2439 2.0277 2.8236v.89305l-.93077 1.2423zm2.0937-.66653.1442-.45347 5.1992-2.56 2.0443-1.92-.344.66632-.34401.66632-.92715.76946-4.0678 1.9695-1.849 1.3154zm82.665-1.6133-1.6-.64494-.64-.64099 3.52 1.4025 1.6.50822-1.28.0201zm-54.24-.77655-1.76-.42457 3.8091.37083 1.6309.49512-1.92-.0168zm49.12-1.2003-1.92-.67282-8.32.0036 1.6-.45032 6.5454-.0638 4.2997 1.6184.1508.1508.15081.1508-.58667-.0639zm-127.93 10.782 1.5312-.51442 3.2618-1.5312h.98886l.40157 1.6 2.3878-.0098.90971-.57577-2.3497-.98177v-.91501l1.92-.79529v-.56236h-1.4082l-6.1118 2.3023-3.84 1.4608-2.24.38933 1.92-.71454 11.008-4.0779h1.2582l.30569.8-2.0124 1.7204.83329.83958 4.7734-.0997 4.6333-1.3925 4.16-2.2697 2.88-2.6364-3.4981 3.6783h.82565l3.7972-3.6219.39433.39433-.39454 1.0282-.55149-.34084-1.4846 1.5803h.71527l.92799-1.3249.26183.7855 2.144-2.1806-1.0723 1.76 1.1348-.0084 4.48-3.8401 1.28-.27653 3.0033-.38865 1.9567-2.2286v-.6555l-.58534.36176-.28186-.80398-1.2128 1.4381-2.24.31327 1.4778-.47134-.01889-.24-.01888-.24-.02036-1.44-.875 1.1539-.38464-.83392-.38464.83392-.875-1.1539-.02036 1.12h-.64l-.02036-1.12-.86396 1.1388-.43012-1.1209-.6543.94206-.34875-.87242-.56253.87242-.60714-.94459-.6323 1.5846-.04056-1.44h-.59549l-.28326 1.44-.49652-1.5189-.84205 1.5189-.02268-1.12h-.53726l-.66786 1.44-2.1348 1.2388 1.4199-1.8052-.01018-.51685-.01018-.51684-.93965 1.2423-.0194-1.2423-2.1895 3.8178.27338.27338 1.1355-.86334-2.2055 2.3721h-.57252l2.9414-5.44h-.64326l-.02036.8-.93964-1.2423v1.0823h-.64l-.02268-.8-.43322.78222-.43322.78221-.1376-.62221-.1376-.62222-1.1179 2.56-.5386 2.8453-1.1123.81331-1.8761-1.5786h-2.5109v-.33272l1.5065-2.3873.48735-1.5368-1.0339.39673-.05772-.77991-.6222 2.1634-.97818 1.4929-3.4337 2.2792-.38596.6245h-1.3663l5.0605-3.36 1.0968-1.92.04678-.77991-1.065.40868.46276-.74876h-.59778l-.36304 1.8152-3.5923 2.7122-2.1841.91257h-5.6559l-4.4447-1.5524.96-.03822 3.7905 1.1831 5.0906.1227 3.4758-1.7586 2.203-2.4385-.0098-.79816-.54114.85366-.44349-1.1557-.30278.47103-.30279.47103-.55094-.85366-.35905.93567.64928.64928-.71106 1.3286-2.7082 1.5449-2.6215.38698-.39696-.39696 2.5877-1.8745.91076-2.1798v-.20436l-1.2328-.09286-.84716 2.5732-1.6808 1.0036-4.0792-.65109 4.5177-.0891 1.0737-.8.42852-2.1795-.7399.45729v-.77696l-1.2136 1.0983-.33584-.83912-.05052 1.4558-1.6417.62416h-2.7926l-1.0057-1.0057v-.80762l-1.12-.0098-.44557.68526-.43012-1.1209-.86396 1.1388-.02036-.86848-.91865.35252-.31082-.76405-.02526.59918-.02526.59912-.96-.79673v.68059l.60297.37265 3.5614.65836 2.7156 1.2327-.69981.014-1.7301-.59332-1.7301-.59337-3.0773-.45806-.38565-1.005-.85707 1.1721v-1.0823h-.64l-.02036.8-.86396-1.1388-.4702 1.1388-.30772-.82672-.84078.69779-.43396-.70216-.90302.74944-.0098-.87836-.54175.85466-.39683-.02686-2.4116.97571-5.12 2.0989-4.48 1.6988-1.92 1.2746 1.4737.0042 9.4063-3.2495 3.4223.32966 2.1425 1.4681.66145 1.4517h1.0158l1.2792-.68462-.83226-1.0028-2.5781-1.1051-.82144-.98978 1.4529-1.0177h3.4113l4.4393 1.0097.40721.65887-1.5201-.48563-3.2-.85534-2.9177-.0076-1.2002.87758 2.5178 1.5994 1.2083 1.351-.80669.972h-1.4433l-.76461.9213.20624 1.7674 2.1355 1.2426 5.2245.45671-4.2395.09198-2.7687-.97685-1.1116-1.006-2.2801.75251v.6305l4.2499 1.927 6.3227.81879.41409.41409h3.071zm11.531-3.5462-.5602-.14638.36154-1.4405-.84114-.66658-1.92-.7269 2.5551.37907.48487.29967v1.7542l.768.768-.288-.07424zm1.0402-.16699v-.25238h3.1763l3.2237-1.2707v.26379l-2.08 1.0808-4.32.43083zm-22.64-.42196-.72-.50672.0074-.76371 2.6029-1.2474-.40548-1.6326-.12476-1.28 2.2456-.18943 4.4744 1.6857 6.8148.50565.77357.47809-.86833.5502h-.96l.84667-.53681-3.016-.41339-2.3107-.0038-7.021-1.9033-.61411.61411.8204 1.5329-.68088 1.2722-1.9445.80542v.5782l1.44.5426 5.12-.31913-.32.31566-5.44.42219zm3.84-.98564-.4-.17813v-.90667h.70938l-.424-1.6894 2.1146.34711 3.52 1.5687-2.56.74752-2.56.28897zm3.6926-.73343.47411-.26532-2.981-1.1384-.25372.25372-.23284.92773-.23285.92773 2.7522-.44009zm22.93-.09745.94307-.73392 1.4065-1.4608.39082-2.0833 1.7565-1.0212 3.52-.74681 6.4-.25562-7.68.85239-2.4757.68467-1.2043 1.0899v1.1585l-1.8574 2.1023-2.1426 1.1478zm-6.4603-1.064-.69967-.49007-3.7031-.59541 4.4503.28363 1.2919 1.2919h-.63982zm4.8405-1.5787.5168-.78874.0098-2.1025.68299-.96-.34472 2.9244-.65224 1.7155h-.72945zm11.237-.95068 1.28-1.1259-2.08.30531-2.038.3276-1.162 1.0516v-.77185l2.1998-.91914 4.5202-.42011v.3371l-4 2.3413zm-25.2 9.5326 1.04-.18445v-.44645l-.80404-1.0996-2.556 1.1699-2.24 1.1027 3.52-.35762zm39.437-1.7185-.37469-.70012.31762-1.2146h-.83161l-.38847 1.0123v1.2483l1.44.54478.21186-.19058zm16.055-.47469-.10753-.96-.55209-.57514-1.7929 1.1382.8-.85108v-1.152h-.27826l-3.5447 3.5447 5.5829-.18466zm2.4478.08-.10027-1.04-2.08-.20055v1.6087l1.12.65234 1.1606.0194zm-91.971-5.4684 1.9508-1.0684 5.44-2.1058 4.16-1.7592 1.12-.37808v-.50009l-3.04-.02142-.44557.64348-.45172-1.1772-.84003 1.5151-.02268-1.5623-.93965 1.2423-.02036-.87836-.89776.74508-.33351-.82671-.65211.93854.67547.81389-.87208.27219-2.08.35938v-1.9131l-2.415 1.5981-3.4324.65094h-2.2019l-.90667-.90666-.90667-.90667h-1.0174v1.4933l1.2637 1.2637 1.4563.31136 1.28.27068-2.6337.07424-1.6273-1.28h-.39549l.9634 1.76 1.133 1.3035 3.84.84853.64.19744.2585.05052zm-1.277-2.4223 1.8923-.63242 1.6999.33997 2.3556-.98423v.53887l-1.12.45654-4.16.53286-2.56.38083zm64.988 1.577 3.2-1.0477 2.1475-1.6027-.6964 1.3012 1.1089-.29769.98937-.75949 1.0906-1.5824v-1.7776h-.58667l-.3246.8-.59936-.85317-.73858 2.9332h-.23217l.29672-3.04-1.4072 2.7301-1.5732 1.2375-2.995.38013-2.0321 1.0073-1.8079 1.9437.96-.32475zm-16.604-1.5263.22472-1.2.85957-2.0594v-.69236l-1.0572.59164-.09213.86407-.09212.86407-.75691.91202h-.78244l-1.0008-1.12-.21836-1.4512-1.404 2.8956 3.004 1.5078 1.091.08774zm91.964.57889v-.30112l-.64-.39554v-1.3013l1.28-1.6273v-1.2929l-1.12.97568-.87402-.31449-.55618.87801-.01-1.12h-.66009l-.41182 1.0732-.4594-1.2332-.45906 1.1249 1.0848 1.6555.80102-.75024.80103-.75024-.79916 1.76h-.97602l-.74063-.69578-.74062-.69578v-1.1484l-.96.36839v-1.1565l-.75064.75064.71504 1.5693 3.7156 2.5108.96.3667.8.05052zm-103.42-.78612.86486-.44724 1.0713-1.1855-.52729-2.24-.06552 1.12h-.58667l-.2723-.8-1.4068 2.7451-2.0542 1.2525 2.1118.0024zm57.613-.05425.10974-.09132-1.8841-.97428-1.3754.96338v.59147l3.04-.39792zm-20.975-.60846-.57494-.78994h-.32l-1.1499 1.5799h2.6198zm11.845-.47689.58021-.55136.86229-2.5018-.35032-.32-.28571.8h-.58667l-.06854-1.12-.59798 2.6636-.86979.72186-3.1037-.51728-.38946-2.8682-.51468 1.5528-.67667-1.5528-.21944 3.1668.7588 1.4178 4.8814-.34017zm-37.54-1.6915v-1.28l-.96.79673v-.75614l-.64.39554v1.5709l.77363 1.2388.82637-.68583zm-46 .52954 1.2-.78026-.0098-.79092-.6302.96-.6302-.96-.02926 1.28-.69531-1.1968-.56523.87678-.6302-.96-.0049.41889-.0049.41888-.60066-.37123-.60312 1.0777-.48679-1.5337-.59098 1.5895-.56802-1.0088-2.0731.09696-.22727.68181 1.7894 1.4075 4.1606-.42605zm166.56.24295.4-.49645-.01-1.3177-.5502.86833-.46144-.74663-.4391.57915-.43911.57915-.0102-.41888-.0102-.41889-.64.39554v1.1142l.71799.71799.521-.17971.52101-.17971zm-21.68-.05412.64-.64v-.71837l-1.0088.83721-.27724-.44858-.27723-.44858-.33838.88999-.33837.88999v.27834h.96zm16.309.02104.33126-.61896v-.71985l-.64.39554v-.75614l-.96.79673v-.79673l-.90302.74944-.43842-.70938-.4391.57915-.43911.57915-.0416-1.6-1.2124 1.4537-.13461-.56686-.1346-.56686.063 1.28 2.24 1.119 2.3775.000994zm-78.217-1.6253.18652-1.1157-.97607 1.6-.09846-.64.07578-.48h-.64l-.04056 1.44-.61579-1.54-.99589 1.22.35216-1.12h-.55144l-.38848 1.0123v.90766l1.76.0098.96.60706.78571-.78543zm-53.259 1.0942.56362-.51007-.35253-.91868-.86396 1.1388-.02036-.87836-.96.79673v-1.1607l-.93965 1.2423-.02036-.86848-.91865.35252-.2439-.73169-.41026 1.0691.97852.97852h2.6239zm77.887-4.5061 5.12-.21406-1.92-.52978-7.4412-1.2817-116.4.16173v1.6l6.72.35472 108.8.12314zm13.271-.09131.47074-.2977-.45508-.45507-8.8064-1.5043-11.2-1.5613-3.1005-.94974-1.1954-1.0818-.35525-1.0764-.35526-1.0764.72782-1.295.72783-1.295 1.5481-.38856 6.1626.36196 15.36 2.5447 3.36.44223v-.93826l-2.72-.44373-12.48-1.8542-8.5563-1.3039h-2.5833l-2.0884 1.5929-.38312 1.1608-.38311 1.1608.32934 2.4554 1.2938 1.817 3.4405 1.0845 15.971 2.5262 4.48.60045.32.072zm13.129-2.0542 7.84-2.0515 1.12-.45532v-.48278l-1.76.31331-9.92 2.5692-4.8161 1.0916-2.5337.83621.63491.24489.6349.2449.96-.25906zm42.672 1.5711.18782-.48947-.17448-.4547-.17449-.4547-4.5909-.27206-33.6.11072-4.48 1.0563-1.44.34665v.58796l44.084.05878zm-55.792-2.9883v-1.8588l.46982-.62116.46983-.62116.0204-.37816-3.36-.73664-4.16-.59743-11.377-1.9678h-4.7579l-1.2401 1.3311-.16025.83826-.16024.83826.27407.72087.27408.72087 2.0342 1.0519 12.233 1.9077 8 1.1601 1.44.07095zm11.617-.04786 6.4634-1.5867 2.56-.94151-1.4778-.0451.39554-.64-1.4778-.04498 1.28-.55004-.83777-.04498.39554-.64h-.71554l.43784-.70844-2.1601.38283 2.24-.92231-2.88.34128-.96.31579-8.2888 1.2414-.35222.5699-2.239.64178 1.6042.05772 2.0881-.59887-.37012.59887-1.0822.04918-2.56.85982 2.818-.36648-.21267.34412-.21268.34412-1.9584.43014.13108.13109.13109.13109 3.1436-.635 2.4782-.59833-.55825.48206-4.0041 1.1708.27334.27334 3.6215-.75182.16901.16902.16902.16902-3.4288 1.021-1.6.9142.51328.02268zm-123.22.4141-.40199-.16207.33255-.53807-5.5117-.20727-.33888.55156.88199.55865 5.44-.04072zm46.002-.1074-.48-.3102-4.3578-.0098.39554.64 4.9222-.0098zm34.255-.56.0152-.88-.0197-4.8-.0198-4.8-.39914-4.64h-2.3902l-.23075 6.64-.23076 6.64.4444 2.3637 1.6956.2604 1.12.0959zm-89.69-8.333.08517-8.733-5.2897.18605.20841 2.4h-.7674l.71281.85889-.43415.43415-.09534 1.2941.50709.3134-.36052.9395h.80766l-1.1009 1.2165.73746.45577-.63252.63252.56858 1.9825-.79183.50292.75466.0098-.29095 3.04-.30605 1.4008.6144.37972-.33632.87644-1.1436.29906-.41212-6.7356v-11.8l-1.2728-.33284.35057-.56724h-1.2308l-.40699 2.9693v16.444l.44349.44349 8.9965-.17682zm15.674-.92958-.10304-3.4574-.00095 13.44.20704-6.5252zm10.083 8.5426 3.3967-1.28h.719l-.35402-.57281-2.4038.54065-4.48 1.6753-.93714.91686h.66249zm41.518.78221v-.49779l-8.3211.19558.000561-.56.00056-.56h8.3518l-.59668-1.0662.28243-.98479.28244-.98479v-.80422h-1.8743l-.96.96h-3.5339l-.5118-.87616-1.44-.44696v1.6431h-.56626l-.42355 3.39.41828 1.09h8.8915zm18.56-.14221v-.64h-3.2v.85333l.42667.42667h2.7733zm61.897.35347.61661-.24155-.54414-.2088-.54413-.2088-2.8649.39268v.55301l2.72-.04498zm7.7034-.03347.64-.27502-1.12-.04498v-.64l1.44-.04332-1.44-.69449v-.49769l1.44-.27736-6.56-.08716-.08.96v.96l.08.96 4.96-.04498zm4.5062 0h.77383v-37.78l-.91521-.3512-2.2833 1.0835-2.3052 3.1403.33476.87236 2.4489.57998-.24988 32.051.47462.76794.9476-.36363zm-145.07-2.08.16926 2.24-.26644-23.328-.2996-.2996-.13704 13.067-.36592-11.2-.05056 21.76.78105-4.48zm1.7618-7.12-.10462-3.12v12.48l.20924-6.24zm19.641 7.92 2.6469-1.28h.7808l2.7905-1.1962.10274-1.3638h-.6687l.39952-1.0411-.68212-.8219.65797-.40665-.62689-1.2503-.66168-1.306.37945-.61397-.50232-.8-.05084-1.9395-.48239-.78052.35072-.56748-.85046-.70582.1161-1.9516-.54903-.33932.38554-.62382-.81394-.98074.81251-.50216-1.0857-.41664.79044-.95243h-.71837v-1.2422l-.65044-.40199.41243-.66733-.88199-.56845.94206-.60557-1.0706-.41083.17448-2.2156-1.0059-.58851.87836-.0194-.80956-.97547.40125-.40125-1.1101-.84293.8-.02036v-.64h-1.0285l.39952-1.0411-.72941-.87888h.47673l-.77346-.93196.41287-.66804h-.67777v-1.2116l-1.0123-.38847h-2.0715l-3.4762 1.0298-2.6657 1.5592-.73532.886 2.035 7.565.86845 4.16 1.9217 7.04 2.9423 11.2.61828 2.4h.24772zm.48716-4.2217-1.2336-1.661-.30903-.80533 2.3743-.99206h.88184v5.12l-.24-.000341-.24-.000345zm-4.3387-8.1783-.74053-2.48-1.7946-6.5547.42747-.23858 4.2938-1.3667h.96151l.61747 2.4 2.2872 8.8032v.23381l-4.7407 1.683h-.57107zm-4.0239-14.538-.15309-.42206-.98307-2.8356.4924-.47022 5.1022-1.6542h.73342l1.0936 3.8974-.10461.06461-.10462.0646-4.48 1.359-1.4432.41845zm3.3529-2.338.39498-.47592-.37002-.96426-1.7816.7657-.17506.09882.40354 1.0516h1.1332zm141.94 28.46.22449-2.0963-.35838-13.887-2.5051-.19218-.41454 3.9661v13.879l.42667.42666h2.4024zm-150.53.84691 2.0497-.9294 3.829-1.0921.58383-.54498-2.8038-.44835 1.4604-.65166-1.4804-.82148 1.44-.02268v-.64l-1.76-.05772 2.08-.60058v-.3307l-2.4.40289-2.24.66066-4.0711 1.9121.3927 2.4558.6226 1.6376h.24732zm32.279.6094.8-.2562-5.76-.054.96.6204 3.2-.054zm107.97.12576.50617-.19424v-.90737l-1.6417-.62416h-.1714l.0834 1.1313.24373.39437.24374.39437h.22989zm-69.393-3.4105.46989-1.7994.197-14.903-.51978-6.66-.58185-.99626-.58184-.99626h-1.5283l-1.3114 2.24-.1175 10.303-.11749 10.303 1.1499 3.7148.88956 2.1765 1.5819-1.5819zm-82.901 2.6448.64-.27502-2.88-.04882-5.28-.41102v.69035l1.44.27736 5.44.04218zm29.76-.79197 1.6-.78374-1.92.38571-2.24 1.1617.96.02004zm6.0712.36202-.6312-.42996-2.1755-.74009h-.6869l1.2624.86652 1.92.68295.9424.05052zm8.0088-.3816-.96-.43958 1.76-.02886v-.56536l-1.44-.46404 1.92-.42817-1.1723-.46244h-5.3499l-.39554.64 3.3978.0098-.96.6204-2.0422.0098-.39554.64h3.3444l-.36411.36411-3.1026.52062 6.72.0233zm19.431-3.7709 1.2713-4.1024-.41663-.41663-.6056.94147-.4014 2.4-.7182-.0082-4.1112-1.2886-.45799.49685-.98236 3.52-.2085 1.5164 3.52 1.1526 1.8393-.10904zm10.801 3.9424h.25959l.36838-.96h-3.1799v.91549l1.44.27465.85234-.23014zm-74.643-.92128.04529-.60128-1.3944-.72554 2.08.21724v-.22978l-1.44-.57881 1.1578-.04056-.39554-.64h-1.28l.39554-.64 1.4022-.02886-1.92-.93811 1.44.26706v-.52676l-1.76-.64281 1.6-.06032-.96-.6204.8-.0098v-.64l-1.44-.07573 1.92-.46045-1.92-.56426 2.24-.38338-2.24-.67042 1.92-.52615-1.6-.45582 1.7978-.0638-.39554-.64h-1.2422v-.59307l1.12-.29269-1.4778-.07424.39554-.64.70111-.01134.70112-.01133-1.6-.91464 1.6-.09692-1.28-.30788-.608-.57788h1.3713l-.27144-1.4095.7882-.50068-1.76-.0098v-.64l1.76-.0638-1.6-.51241 1.1578-.0638-.39554-.64-5.2422.0098-.70969.4702-.39746 5.76-.02126 4.96-.02125 4.96.01483.8688.01483.86881 6.56.20742.3438.13498zm153.72-1.0787-.26793-.72h-1.3511l-.0502-.64 1.4744-.34806.1948-1.0113-1.59-.30395-.31165.19261-.31166.19261-.1174 2.8781.0594.48h2.5394zm3.2086-.4.04-1.12v-.96l-.08-.5092-2.1918-.14762-.20281.32814-.2028.32815 2.2765 1.3432-.35682.57734h-1.2422v.26766l-.19424.50617-.19423.50617h2.3085zm-81.699-.08-.10126-.88-3.04-.19506v1.5284l.42667.42667h2.8158zm-38.341.24894v-.31106l-3.5675-1.0371-.31254.31254 3.72 1.2961.16.05052zm98.18-.40991.10692-.56097-1.0569-.40558-.9861.9861.45612.73801 1.3731-.1966zm-14.395-.57594 3.735-.65691 7.9274-1.5469.33924-.33924-.16405-.16404-.16404-.16404-5.0586.9942-10.8 1.8456-.34416.34417-.34417.34416h1.1379zm-74.825-.13558-1.12-.43882-4.8-.03996-1.6.46712 2.88.34964 5.76.10084zm-9.136-.14318-.304-.29567-3.36-1.2672v.49692l3.04 1.3407.928.02088zm16.303-.53321.19527-.50888-.35985-.58224h-1.2045l-.41287.66804.77346.93196h.81316zm-42.487-.5133 1.5607-.70218 5.7159-1.6632.29041-.87123-2.9823.40877-3.664 1.2112-3.04 1.4863v.83247h.55864zm104.76.38218-.48-.3102 3.9537-.0098 5.0063-.66212 6.56-1.3647v-.48223l-4.2562-.4558-6.4638.43403-11.195 1.5708-.32467.0098.96.6204 2.9877.0098 1.0087.38706-.17704.28647-.17705.28647 3.0778-.0098zm18.726-.52933 1.2743-.84933.22236-.17702-1.1824-2.1051-.59257-.69182-1.8074.26528v-.75041l-.74876.46276.20434-.53249.20433-.53249h-.98304l.40498-1.276-.53785.20639-.53786.20639.2185-.68841.21849-.68841h-.66304l.36838-.96h-.7618l.14342-.4.14343-.4-.64956-1.2574-.40488 1.3712-.40487 1.3712.48298 1.4175.48297 1.4175h.61761l-.19917.32226-.19916.32226.99688.38254-.15223.24632-.15224.24632 3.2258.30996.66591.6659-.37986 1.1844-1.9219 1.28-.002.48h1.1314zm-87.686.13632-.64-.37355-5.5702-.2703-1.7898.53873 4.48.38512 4.16.09356zm3.846-1.1482.33646-.42123 2.6232-.35185 1.3543 1.3543h1.8731l1.0057-2.0159-.73375-.88411 1.1259-.82331-1.1048-1.1048 1.0499-1.1602-.98324-.81602 1.1029-.80649-.89469-1.078.84084-.51967-.49258-.79702-.14656-2.3145.61614-.39423-.85899-1.3853.67877-.46047-.05214-5.44-.54862-.87155.80399-.49689-.56199-.87155v-1.28l-2.0151-.1957-2.3491.98151-1.5035-.98516-2.6954.19936-1.18 4.48-.0168 5.5126.61932 3.2656.25268 3.7018-.27255-1.76h-.59949l.00011 2.08.95989 5.0163v2.2829l1.4295-1.2192zm94.375 1.0714-.62116-.46982 1.7222-.02036.39554-.64h-1.3178v-.64h1.28v-.64h-1.28v-.64h1.28v-.64h-1.28v-.64h1.28v-.5422l-1.44-.69449 1.44-.04332v-.56536l-1.44-.48494 1.76-.27221v-.59749h-1.6v-.64h1.2422l.39554-.64h-1.6378v-.64h1.6v-.57062l-1.76-.45832 1.44-.55044v-.58598l-1.44-.46404 1.86-.41061-.90005-.71406-.96-.35541 1.44-.05052v-.26766l-.19424-.50617-.19423-.50617h-1.0596l-.60077.8-.60078.8-.71035-.02496-2.1003-2.855h-1.2597v16.64h5.8823zm-107.66-.14446v-.29428l-3.36-1.0611-.8-.25025v.56658l3.68 1.2828.48.05052zm38.08-.20412v-.4984l-2.6703.1968-.26307.8h2.9333zm-28.873-.64092-.17932-.17932-4.388-.63571-2.88.4999 4.48.38143 3.1467.11302zm60.993-1.1973.64367-.86213-.61428-1.7467-2.4537-1.3764-2.976-.42171-7.68-.93026-2.24-.38332.40549.40924 10.321 1.5448 2.714.71513 1.44.92266v1.4428l-.94878 1.3546-6.2512-.2887-7.04-.94231-2.88-.59149-2.88-.41554.35356.37049.35355.37049 4.4129.63334 7.04 1.0395 6.08.37207 1.5566-.35445zm-104.2-14.724-.09633-5.1797.000442 21.12.19222-10.761zm9.3537 14.769 3.0346-1.011.85802-.85802h.59429v-.64l-1.44-.02268 1.4601-.81058-.44674-.44674-1.6533-.02562 1.92-1.0824-2.56-.34499 1.9194-.51921-1.5638-.83692 1.2444-.30718-2.1956-.50683 1.5556-.65708-1.7709-.24336.36862-.59644h1.3489l-.1971-.19709-.1971-.1971-2.1125-.5003 2.1178-.06552-.39554-.64-1.4022-.05052.96-.32018.96-.38574-2.56-.40069 2.24-.70515-1.6-.06752-.96-.6204 1.6-.0196.96-.66903-2.24.4039-3.2.99362-3.04 1.2801v1.2493l2.5953 10.032.26457.8h.4985zm63.047-9.069v-9.76h-3.2v19.093l.42667.42667h2.7733zm-12.853 8.2031.10709-.75691-.73727-.72618-.91692 1.2423v1.2022l1.44-.20451zm41.295.67691-.0379-.24.0758-.8 1.12-.04498-.96-.43502-.16-.8h.36207l.61897.33126.61896.33126v-.66252l-.16-.0034-7.68-1.315-5.7448-.94773-5.2976-.20242.38916.4689.38915.4689-1.2182.89074h1.0598l.68504-1.28 2.3775.04498-1.2637.49379 1.9037.6907-1.92.06032.96.6204-1.568.0098.608.54554 5.12 1.0343 5.12.66073 2.56.21182 2.08.10758zm-57.025-.64-.55996-.56-7.4972-.18656-.96.66655.96.6302 8.6171.0098zm-11.097-.05844v-.29844l-1.12-.30364-1.8226-.4074.27352.82792 2.1891.39575.48.08426zm76.485-.64556.005-.496.6204.96.01-1.7077-.19424-.50617-.19423-.50617h-2.1718v.88l.3744 1.872h1.5456zm15.995.0243v-.2797l-1.6564-2.9635-.58364.36071v2.3942l.768.768h1.472zm-82.678-1.0474-.59839-.34766.87367-.53996-1.2769-.96492 1.6-.04304-1.6-.92367 1.5189-.42892-.75944-.42102-.75944-.42103 1.44-.02268v-.58614l-7.52.10614-.18804 4.64 1.148-.0098-.96-.6204 1.12-.0098v.59945l2.08.25813 4.48.08296zm20.059-.30375.17544-.67086-.34328-.8946-.57294.3541v-.64l.57294-.3541.4301 1.1163.55958-.99636 2.8642-9.8836 1.9055-5.92h-.48657l-1.4001 3.84h-.52516l-2.4805-.89491-1.7112-.67068.90355-3.3944-.01649-.48-.01648-.48-.65046 1.6-1.4657 5.76-2.3382 8-.27518.64.07514-4h.53498v-2.112l.8-.799.31009-14.529.36741 6.08.07752-9.92-.55003 1.28-.1493-2.24-.43136 3.52-.2119-3.52-.42482 3.84-.24907-2.56-.35703 14.4-.27608-16.96-.37083 9.92-.13458-9.76h-.56308l-.41398 4-.32806 21.44 1.066 5.2289.72588-.27855 4.4733 1.562.72536.04764zm-30.021-.5806-1.28-.56626-1.92-.46756.64.65078 2.56.91991 1.28.0294zm117.49-.80372-.19371-.50481h-1.0002l-.18575.48408-.18576.48408.81662.98397.9425-.94249zm2.2885-.42808.10225-.71673h-1.2867l-.41448.67065.18739.48833.18738.48833 1.1219-.21384zm-119.47.08479-.97006-.42628-2.5399-.39216 2.88 1.2612 1.6-.0164zm77.785-.94697.78545-.78546-.005-.89454-.005-.89455-.55228-.87168-2.7979-.53134-17.92-.30593 6.08.51733 8.64.12252 5.311.44141.29962.47385.29963.47385.01 1.6816-.93594.77676-16.504-.4584.41398.44064 13.666.49994 2.4291.09942zm-77.129.15414-.19241-.31132-4.2004-1.2974h-.67925l.36488.36488 4.3818 1.5176.51777.03754zm99.661-2.4631.3717-2.1345-.37077-1.5455-.37076-1.5455h-.52314l-.34651 1.6158-.34652 1.6158v1.2393l.77274 2.8892h.44156zm17.876 1.2294.10225-.69494h-.96674l-.41448.67065.18852.49129.18853.49129.79966-.26335zm-45.702.25061-3.36-.22712-6.72-.18562 14.08-.80141-10.56.17664 1.92-.4723 8-.17062-6.72-.47996-11.426-.46952 1.1682 1.3644.97777.04498-1.2375.48462.91752.5904 9.6.35947 6.72.0132zm-71.856-.26325-.304-.2777-4.3967-1.3133.55668.53761 3.84 1.3096.608.02144zm50.1-4.3099-1.3105-4.3395-.19708-1.6641-.19709-1.6641 1.1827-.86484h.81275l1.2484 1.34 3.4165 10.005.1864-1.2868-2.3102-6.6979-1.3594-2.88-.9969-.79687-1.9156.15686-.41169.86331-.41168.86331.64007 3.1367.64008 3.1367.83878 2.3981.83877 2.3981.16265.26318.16266.26318.29068-.29068zm3.525 4.0964.40761-.49114-.78154-3.4923-1.5924-4.9654-.63307-1.3812-.63306-1.3812-1.0968.22558.172 3.7274 2.27 6.8094.93278 1.44h.54689zm26.546-.69102.005-.38216-.77278-.89784-.77277-.89784-.33337.33225.35896 2.6762 1.04.22036.4702-.66884zm4.9082.6052.16796.41696.67892-.96.01.86847.96-.36839.0506.77991.34694-.87242.4639.7506 1.0566-1.6126-.37035-.81282-.37034-.81282h-4.6595l-.19441.31456-.1944.31456.42122 2.2453.56982-.35217.0102.41888.0102.41889.87501-1.1539zm6.6167-.67687v-.61383l-.19424-.50617-.19423-.50617h-.89153v1.8667l.8.32281.48.05052zm-93.296-.62364-.304-.27747-3.154-1.0451-.68599.0257 3.52 1.5486.928.0257zm44.016-.52253v-.8h-1.8416l-.77346.93196.20644.33402.20643.33402h2.2022zm-35.89.27606 4.2696-.1848-.62158-.62158-7.3918.02662-1.6459.41308v.46395l1.12.08752zm-53.454-3.5561-.09597-1.84-4.16-.16504-.82268.53683-.37653 2.3203.37912.98796h5.172zm46.464 1.7078v-.13225l-4.1338-1.3355h-.77284l.40211.40211 3.3846 1.153 1.12.04488zm8.8-.21113.64-.25605-5.12-.03076-.96.63617 4.8-.0933zm33.574.14914.50617-.19424v-.57153h-2.24v.53333l.42667.42667h.80099zm45.14-.17257.2063-.2068-5.3966-10.466-1.8436.22331-9.92 2.2133-5.3762 1.5529-.1919.21622-.19191.21622 1.28-.43039-1.6 1.2742 1.12.01845 1.12.01846-1.5265.84611.69703.43079 1.7894-.3728-1.92 1.1122 1.6.46405-1.44.45162v.56536h2.2778l-.39554.64-1.4022.0194 1.177.68425 1.5236-.29126-.3384.54754-1.0822.07572 1.92.50456 17.708-.10028zm2.8845-.13601.63844-.48246-.81856-.5059.20508-.53442.20507-.53442h-.64855l.1686-.64476.16861-.64476-.59856.22467-.59857.22467.87836-1.0798h-1.0183l.36838-.96h-.63757l-1.5109 1.28 1.4415 1.2238-.43024 1.1212.84958-.52507-.3609 1.3801h.58008v.96l.48-.02036zm-25.596-2.2972-1.1758-2.16-1.3068-1.28.3639 1.9806 1.6006 3.6194h1.694zm-64.059 1.44-.25399-.4-.0098-.60367-6.0174-2.1372-.68517.22839 4.4625 1.6665 1.2116.38108-.38359.38359-4.1972-1.1361-.35169.35169 4.0409 1.3149 1.92.25498.51777.0959zm-26.984-1.8265 3.04-.99765 1.5938-.46907.21314-1.1068h-1.5807l-6.1533 2.171-1.5929 1.0437v.69986l1.44-.34346zm33.433.22651.44077-1.04 1.2782-1.073-.34703-1.327h-1.2054v-1.3221l-.66252-1.2379h-.85984l-.82629 1.9948-1.5821 1.467.414 1.0789 1.2768.33388v1.1596l1.0057 1.0057h.62694zm35.755.08.1409-.96h-1.4368l-1.0123.38847v1.5315h2.1674zm52.268-2.7228-.19802-1.3205-3.4983-3.4548v.4637l3.6428 7.5144.12577-.94118.12578-.94118zm-132.54 2.519 1.4874-.20388-.7239-.87225.87836-.02268-1.6-.91464 1.6-.02662-1.8386-.9589-4.5614-.32823 1.28.65238-2.4-.1928v2.6448l.42667.42667h3.964zm37.642-.39711v-.28098l-3.68-1.3299-3.36-.95361v.30134l1.76.72195 4.8 1.7864.48.03581zm-25.2-2.1106 1.84-.53381v-.54125l-.8-.32461.88456-.61876-1.4491-.45993.88456-.56023-1.9722-.0098-4.3207 1.3562-1.6335 1.405 1.0897 2.2963 3.6367-1.4754zm25.024.81624-.304-.29537-6.0048-1.9693-.71525.0522 2.24 1.0007 4.16 1.4936.464.0068.464.0067zm-53.915-.64359.33126-.61896v-1.0407l-2.4.19864-.19774 1.7105 1.4777.2823.45748.08716zm97.124-3.301.21737-3.92-.2103-4.48-3.36-.19344.004 7.2334.41102 5.28h2.7207zm64.807 3.6-.48-.3102.96-.0196-.96-.6204-1.12.03723-1.12.03722 2.24.4715-2.56.12924 1.28.55004 2.24.03518zm18.32.0044.56-.0044v-2.1715l-1.0123-.38847h-1.5477v2.9546l1.44-.3859zm-172.75-.27927.1699-.2749-.23889-1.4051-.23888-1.4051-4.5427-.1864-.39281 1.4664-.0087 1.6533.42667.42667h4.6556zm136.61-1.7262.90466-.63756-.34466-.34465-.34465-.34466-.768.768h-.55513l.40498-1.276-1.1618.4358.96-1.1997-1.1913.44709.1828-.47637.18281-.47637-3.1651 1.7455-.01.8255 1.2956 2.5396 2.7044-1.3686zm-89.881 1.0817-.304-.27944-6.9613-2.0265-.32749.32749 1.8488.70592 5.12 1.5179.928.03406zm-.3443-1.3289-.3283-.3283-6.8464-1.9474-1.105.23048 2.88 1.0137 3.2 1.0086 1.6.2641.928.08716zm60.68.04734v-.28097l-1.3361-.88714 2.7991.22262 1.577-1.3123-4.16-.11538 3.52-.39264.84169-.5368-1.1009-1.2165-1.0208-.04056 1.6-.66664-1.28-.52781-1.354-.04498-4.726-2.3365-3.6177-3.7435h.50999l1.8577 1.76.93001 1.3131 4.16 2.3057 3.9435.7734.42823-.16036.42824-.16036-2.4-1.04v-.56139l2.4-.39 3.0296-.40044 1.5035.98516 2.0269.31944v-.53772l-1.6863-1.3265h-1.5137v-.59532l1.76.50594 2.24 1.367 1.12.0024-.0354-.48-1.7683-1.3923-3.8887-1.0077-5.0276-.0098-.86168-.54609 2.0855-.727.16144.16144.16145.16144h-.74668v.64l4.32.01 3.6662.86277.72691.52582.7269.52582 1.3105.94432 2.7176-.46874.1318-.60202-2.9294-1.5075-5.0706-.78378.1516-1.2667.20091-1.2146.20092-1.2146-2.0491-4.1622-2.3502-2.4705-2.5542-.39857-3.2-1.5751-6.08-1.954-4.8-.33435-2.0304 1.2845.3779 1.4796 2.8045 2.9432.96436 1.3768h2.6019l5.2018 5.0589 2.6944 1.3924 1.2484-.39622 1.118-1.735.85934-.51183v-.80585l-2.251-3.7381.23588-.23587 1.6482 2.4116 1.0824 2.3099-2.9604 3.0896-3.8107.27564-2.837-1.6626-1.7523-2.0926-1.6752-1.1158-1.6699-.0042-3.598 1.92h-1.262l-1.607-.73218-5.3032 1.0527-2.5067-.000497.2819-.2819 5.1048-.69748 3.2-.56681.71056.90619h1.1127l2.1272-1.0095.50472-1.0636.50473-1.0636-.0238-1.5033-3.4961-3.7686.004-1.3514 2.1152-1.44h4.2338l8.5266 2.6595.50225.42759.50224.42759 3.412.64708.96093.7975 2.5366 3.4337.6316 1.797.63159 1.797-.37081 1.2377-.37082 1.2377.10218.06772.10218.06773 4.777.78369 1.783.93855.97224.50954.97223.50954 1.0314-.39578-.74372-.79165-.74371-.79165h.65237l1.1584 1.28h1.8208v-.64h-1.0047l-2.69-1.8507-1.3327-1.4458-1.3326-1.4458-1.6764-3.3083.75476-.90944 1.0416-.02036.61365-.46433.61366-.46433-3.4283.14902-.57148-1.92-3.4676-1.3571v.36208l.83524.8718.83523.8718-.26824.80473-1.4135-2.2871-1.521-.99661-3.905-1.3155-9.635-1.9141h-6.3931l-2.5345 1.293v1.53l.69103 1.8058.69102 1.8058-1.0704 2.2447-3.3516 1.5182-5.0063.6826h-4.2204l.37249.37249 3.0942.85028-1.3846.05722-8.4186-3.2192-2.463-1.5548-.2269-.36713-.22663-.36714-.5502.86833-.0098-1.2972 2.56-3.407v-1.1165l-1.2195-1.1036-3.0422-.91558h-4.0164l-4.3758.92047-5.7461 1.6909-3.52.92627-4.16 1.3464-8.32 3.3744-8 3.6339-6.72 2.747-3.36 1.092v.32862l3.36-.45037 7.04-2.764 4.48-2.2115 1.6-.47121-6.3892 6.1145.4487.4487 1.819-.75346 4.1839-4.6196 3.4576-2.6248 1.92-.68311 4.4233-1.6486.24476.24476-6.908 2.7077-4.0013 3.2437-2.5193 3.2332.27672.27672 1.1475-1.0385 1.4164.3704v-.78312l-.96.36839v-.55144l.97947-.37586.72326 1.5874h.49082l1.3711-1.743.3569-1.7845 4.2385-2.9722 4.16-1.7661 1.12-.35412v-.98009l-1.44-.014 2.6342-1.1963 2.1658-.46775 7.9824-2.482.6576.04997-4.16 1.5001 1.92.11376-1.5963.44418 2.7962 1.1188 2.2107-.35134 1.3894-.67075-1.2633 1.0107-2.4576.39299 1.8009 1.2113 2.24-.31871-.80399.35377.33814.54711 2.0659-.69464.8-.6255v-1.0838l2.6157-1.4701-.53573-.53514-4.48-.24212 5.12.049531v.94677l-2.032 1.2932-.18862.71418-.18863.71418-1.9843 1.0261.74288.74289 2.5862-1.4884.26346.26346-1.599.85578v.48872l1.44.47006 3.3057.11052 2.0168 1.697 3.6374 1.0325.96 1.1329 1.7006.39736 3.03 1.2988-.28394.28394-3.8066-1.5648-1.12-.0152v1.2346l3.36.97774 2.2043 1.6277h.22466l-.42023-2.24h1.6113l-.31378-1.1999 6.7258-.45843 1.3279.42145v1.5569l3.04.04498 1.28.58259-2.9768-.37076-1.3432.42632v2.1847l1.44.29073 2.5579.34685.71266.97461 1.5294.05772-2.08.60058v1.9017h.768l-.768.768v1.5015l2.72-.11218 1.76.47207-.00053-.27469-.00052-.27469-2.5508-2.4h.73518l3.5078 3.8293 1.6043-.40265-.23136.37435-.23137.37435 3.4073 1.5478 1.44.03686zm-2.72-4.9826-.96-.43854-2.9684-2.1379-4.5465-3.4718.13027-.13026.13026-.13026 5.5627 4.2937 4.2415 2.4786-.62984-.02506zm1.1278-4.8494-1.7522-.47087-2.6562-1.5567-3.7731-3.1527-2.7062 1.5982v.57501l1.76.0638 1.6.54379-3.2-.34138-1.1552-.32051.21866-.65597 3.4376-1.8182 1.019.57403 2.24 1.9954 2.7433 1.9259 2.6967.9162 5.76.5505-4.48.04438zm16.844-1.9419-.21486-.21485-3.997-.72141-.42964-5.0889-.69036-1.8017.025-.75834.45727 1.0525.45726 1.0525.40196 2.5545.40195 2.5545 2.2565.59057 1.766.42636.35172.5691h-.5711zm-11.016-.60605.87594-.47528.20704-.87191.20705-.87191.94989-1.0942-.42234-1.6828-3.0692-3.0692-2.1042-.46215-.22103.35763-.22102.35763-1.5096-1.6068h.6354l3.2114.95369 2.6219 1.8993 1.6921 2.8874-.3937 1.2405-.93564.35904v1.5744l-1.0057 1.0057-1.3943-.02562zm-5.6759-2.8286-.96-.41917-4.9759-4.8913-.78409-.06484-2.04.11044-1.0764-2.1256-.81343-.66704-.81342-.66704.25489-.41241.25488-.41241 3.0409.36015 3.2233 1.9833 1.6098-.40404 5.7791 5.571.20309.6399.2031.6399-.86578.81995-1.28.35838zm2.063-.65006.38139-.45954-.63962-1.1609-4.768-4.7077-1.9766.43412-2.4202-1.9136-2.7241-.79539-.39532.39533 2.2171 3.0672 1.9513-.19144 3.751 3.1474 1.6 1.7656 1.92.85335.72164.02506zm-15.279-.56446-.384-.384v-1.0454l2.2207-2.5066.32475.48.32474.48.01 2.3264-1.5775 1.0336h-.53452zm1.6731-.75886.50286-.50286v-1.8743h-.59642l-1.3236 1.8588v1.0212h.91429zm-26.697-5.0986v-.14558l2.72-1.379.4702-.71403.0098-.45956-1.76-.95482 1.0208-.02562 1.1102 1.2268-.70568 1.3186-1.2222.65413-.82154.31235-.82154.31234zm48.64 20.629 3.04-.67998 11.2-2.5928.96-.58573-1.28.33975-3.2.61825-12.8 3.0037-4.64 1.0095v.44167l3.68-.87432zm35.374 1.3671.3338-.2351 1.8924-3.0389.48-.0011v.64l1.28 1.28h.64v-.64h-.92223l-.46276-.74876.52225.2004.52224.2004.3333-.53928-1.4328-.44974 1.568-.44431-2.4045-1.4187h-2.4933l-.81505.37136-.81506.37136v3.6916l.50286.50286.50285.50286.43429-.0098zm-141.79-.54492-.62116-.46982 1.6-.04303-1.6-.91464 1.6-.04536-1.6-.91464 1.28-.03248-.96-.6204.96-.08552-1.92-.48856-4.64-.07572v3.7333l.42667.42667h6.0957zm6.0571.21731.15606-.25251 5.9657-1.8104 1.44-.55083v-.74326l-3.4363.35466-5.021 2.0105-.82263.68272v.56164h1.5622zm125.73-.73431-.17421-.66618-3.7136-2.9716.1265-.1265.12651-.1265 3.3891 2.7048.1056-1.0651.10561-1.0651-.26561-.0898-.2656-.0898-2.2128-1.3489.62644-.47202.62645-.47202 4.6736.40518 3.8339-1.3612 4.4541.21144-.10272-.30578-.10273-.30578-4.4362-.81562-3.52-.39081-5.3543 1.7093-4.087-.21132.00134.5412 1.4074 1.9765.095 1.2895 4.4092 3.9769.42831-.26471zm-63.115-.69318.64084-1.04-.1711-1.28-1.3782-.19642-1.0218 1.4588v2.0976h1.2894zm67.321.35559 1.7885-.68441v-.54184l-3.3358 1.3148-.98424.57637.74305.0194zm-152.64-.54515.15512-.53044.42183-2.56 1.2123-4.7605v-1.1595h-1.5852l-1.0409 1.5885-1.1938 6.8915-.020116 1.0731 1.12.24881.77564-.26101zm51.709.47106v-.11851l-4.8475-1.7209-1.7125.22255 2.56.84185 2.88.85032 1.12.0432zm87.711-.75049.92937-.549v-.48192l-1.12.41974.96-1.1997-1.1913.44709.18559-.48363.18558-.48363-.77991.02268-1.6.91464 1.1984.02268-.79672.96h1.1068l-.36838.96h.36116zm13.42-.2564 1.5894-.80539v-.29988l-3.3358 1.3148-.98424.57637 1.1413.0194zm18.171-.06195-.10126-.86734-1.5526-.36296-.12344-.37033-.12345-.37033 1.9374.05508-.14545.23536-.14546.23536.89529.74303.85766-1.1743.90619-.06669.9062-.06668-.26252.79716-1.3913.2047-.34895.65201-.34894.65201.57929.57929 2.04-.408v-4.08h-2.56v1.6h-.64v-1.28h-2.88v4.16h2.6025zm8.8107.6251.14971-.24225-2.1045-8.7318-.21744-.35184-.21745-.35184-1.0822.0098-.41177.26126-.41178.26126.97178 4.5844.97177 4.5844v.21887h2.2022zm-152.01-2.171 1.2239-.22691-.5278-.51056-1.92-.24118 2.24-.70108-2.1956-.49011 1.5556-.65708-1.92-.25989 1.92-.84793-2.208-.05198.608-.57788 1.28-.35864-2.9885.2121-4.2115 1.9708v1.6021l.6765 3.1544 5.2435-1.7893zm64.213 1.7817.47732-.30178-.70752-.70752-2.1236.55028-.25686.7706 2.1333-.0098zm-84.054-2.0013.69678-.55288-1.024-.0142-2.7933 2.0235 1.2573.48036 1.1664-1.3838zm.46557 1.4947.7112-.49814v-.60371h-1.152l-.768.768v.832h.4976zm42.631-.3677-1.12-.49363-4.158-1.2005-.96204.01946 1.1395.66325 4.9405 1.5151 1.28-.01zm2.3526-.65416-.16716-1.2-.23759-.77978-2.4084-1.0063-1.1925.18608 3.6268 4h.54606zm99.607.39586 1.8183-.80414-.3242-.3242-4.0942 1.8851.78175.04742zm-92.056.16767 3.664-.0035-.69376-.69376-8.7977.06754-.56703.35044.4118.66631 2.3186-.38352zm61.395.000848.41888-.0044-.39554-.64h.69833l2.3794 1.0044 3.7628-.78943-3.4428-1.0443 3.52-.04786-1.28.51219.96-.0188 1.6-.46016-2.56-.50825 1.6-.60774 2.24.43646-1.28.5185.96-.0188 1.6-.51241-1.28-.12758 1.6-.55367-2.72.35372v-.30732l4.5103-1.1053-.27084-.27084-10.159 2.5609-3.2.6949-2.56.7111 1.6.49064 1.28-.2616zm-116.26-.96437 1.3953-.96h.66217l.59896-1.12-4.4164-.0758v.5558h1.2267l.14343.4.14342.4-.57604 1.12h-.93748v.64h.36469zm82.72-.62112v-.62111l-.64-.39554v-1.2336l-2.2559-.94257-2.1552-.40433-.77266 2.3412.42874.43712 3.955 1.39.72.02498.72.02499zm34.159-.37706 4.0814-.99817.32-.33114-1.6.32908-6.4 1.4227-.96.55624.4773.0194zm30.467.04403 2.3138-.95414 4.1363-.42378-.67942-.67942-3.4317.08034-4.3459 1.0899-4.3256-.3095-.76166.47073.5532.3419 2.4462.45891.16868.43959.16869.43959h1.4435zm-104.14.31835-.19517-.3158-3.5001-1.0175-.78731.26244 3.84 1.3361.83777.05052zm11.482-.34449 1.9553-.02028-1.6-.686 1.5935-.42076-.86188-.53267.85292-.52714-1.5478-.57257 1.8832-.51218-1.6-.48432 1.12-.0638v-.59307l-1.12-.29269 1.6-.08404-.96-.6204-5.12-.0011-1.44.3859v4.9387l.48.48777 2.8093-.3811zm10.366.10551-1.5093-.11942-3.3815.2358 6.4.003zm-53.59-.35923.58088-.22902-1.1681-1.0571-6.5537-.45138v1.0515l.16.48 1.7017-.19314.41602.67314 4.2822-.04498zm74.872-.366.16736-.64h-2.8201v1.28h2.4854zm-38.478-.93259-.35719-.66741h-.6067l-1.6216-3.2h.65078v.93773l1.9845 2.2602.57552-.35569v-1.5622h-.56236l-.68788-1.76-.18976-1.5597-1.12 1.1254v-.71548l1.916-1.0902.004-1.12h-2.1408l-.98202 1.12-1.1075 2.1842.33606 2.5055 1.0806 1.194 1.7873.39255 1.1291 1.2476.26911-.26911zm17.505.69738-1.52-.11985-3.04.23971h6.08zm-22.96-.26112v-.17633l-2.2194-.92734-2.1006.06274 3.52 1.1545.8.06274zm73.6-.14857.48-.3151-.96-.64566-1.5069-.40051-3.4986.8393 1.4855.82419 3.52.0128zm-113.21-.8628.55245-.49784-.34268-.55447h-4.0439l-.74944.90302.72122.44574 1.7099.52916 1.6-.32778zm126.01-.71689 3.36-.70671 2.24.34354-1.1659-.66975-3.7206.43182-5.6735 1.5399 1.6-.2321zm-63.429.38981-1.5093-.11942-3.3815.2358 6.4.003zm21.189-1.5252v-1.76h-2.88v3.52h2.88zm-75.937 1.2161-.57699-.14962.75235-.90653-.87836-.04498 1.28-.55004-1.12-.04498v-.64l1.12-.0638-1.6-.51241 1.44-.0638v-.64h-4.8268l-1.1585 1.12-.34708 1.4103.7323.96706 4.16.21937 1.6.04908zm30.28-.12102-.34488-.34488-2.2862-.51562-.40965.40538 2.4576.75082.928.04918zm2.7881-.27409-.33126-.61896v-2.6654l1.0412-2.1941 1.6051-1.2626h2.4737v-3.1216l-.85985-.71361-3.4025 1.0104-4.1389 2.7766-2.5287 4.6602 1.1323.82798h.5809l1.8568-1.9877v-.81395l.96-.79673v.48193l-2.284 3.1791.40097.40097 3.323 1.4006.25126.02788.25126.02789zm-.81126-6.3986.96-1.0883 2.1627-1.9741 1.5739-.85009.32289.32289-2.1209 1.0968-3.8586 3.5811zm99.84 5.8627 1.28-.55167 5.44-.02486 3.84.47597-7.4656-2.2333-2.3045-.96288-2.1285 1.8689-1.6417.62416-3.9245.44401.11614.34844.11615.34844 1.5526.47326 3.84-.25882zm-60.22-.04512-.19963-.56-.65404-.8422-1.9666-1.0258-2.4138-.44859-.34472.55778 1.5771.5996 1.3524 1.4516 1.7491.77559 1.0999.05198zm82.62-.24439v-.63562h-.96l-.10599.74847-.10598.74847 1.172-.2257zm-133.92-3.0356 3.1423-3.2h-.59655l-4.9458 2.4757-1.6.47546-1.92.84646-2.88.9718 1.929.03056 3.511-1.2888 2.08-.57957v.47052l-2.9979 2.9979h1.1355zm35.52 2.72v-.48l-6.24.08425 2.24.44486-2.24.32846 6.24.10242zm-38.904-.9914 1.5079-1.1514-.31904-.31904-4.3648 1.7348-.30146.28184.94146.5954 1.028.0098zm103.54.2604v-.251l-1.771-1.0462-3.1354-2.7718-2.6136-1.3271-.1948-1.3191 1.7211-1.3539h.87369v-.56236l-1.956-.81019-3.164 1.4819v.5561l.68562 1.3473.68561 1.3473 1.2463 1.4185 1.2463 1.4186 2.2946 1.5592 1.6817.50869 2.4.05501zm10.273-.89184 1.2712-.88096-.50419-.48576-3.9798-1.3304h-1.0229l-2.0373-1.4754-5.12-1.9953-.94917-.25897-.42424.81774-.42425.81774 2.1177 1.8568-2.24-1.6112v-2.4713l-2.3764.0709-1.6628 1.0895.1992 1.3996 2.0145.65118 3.1649 2.9604 2.0211 1.0451 2.3996.91282 6.2818-.23138zm-8.673-.3424-1.12-.53136 2.56-.50651 3.2-.02708.85419.54146-3.2195-.30935-1.7947.47142 1.28.52168 3.52.04104 1.8552-.9675.17106.17106.17105.17106-.7886.78933-5.5687.1661zm-64.675-.0057.38774-.851-.7916-.48923.91885-1.1129-.82671-.27816.76759-.92489-.71092-.71092.61818-1.1551-2.6756-.72046-4.2126.39455-1.6746.33114-.42946 5.2928.41253 1.075h7.8288zm22.057-.669.10225-.72-1.8045.0098-.82168.52137.21169.55164.21168.55164 1.9983-.19446zm-31.993.0592.10974-.09201-2.0782-1.0747-5.1813.43356-2.1922.45037-.1278.38339-.1278.3834 9.4877-.39207zm48.05-.39081-.8-.53804-5.5474-5.2904h-2.5099l-.3645.8-.36451.8h2.8726l4.782 4.434 1.4516.27888 1.28.05358zm-49.6-1.9884-.48-.3102h-4.8l-.96.6204h6.72zm2.4738-4.2497-.12202-1.3503.0036 5.76.2405-3.0594zm-2.475 3.2097.0012-.24-5.28.0098-.73999.4702h6.0176zm-.33646-.89773-.46233-.29251-4.5177-.0098-1.098.8 6.5404-.20518zm-3.8223-1.1006 1.12-.20195 2.72.61217v-.48104l-2.72-.65407 3.52-.13458-2.24-.64965-4.3658.3052-.64983.64983 3.0957-.23434-2.5489.64763-.65106.70168 1.6-.35893zm4.4533-1.8859-.13333-.12418-4.48-.37605 1.28.57942 3.4667.04498zm-2.9072-.84555 3.0938-.00973-1.1992-.69664-5.3748.28211-.786.84819 1.1723-.41419zm.05383-1.1853 2.4-.1889-1.92-.54339-3.3341.39778-1.1459.93699 1.6-.41359z"/>
</svg>
