<?xml version="1.0" encoding="UTF-8"?>
<svg xmlns="http://www.w3.org/2000/svg" xml:space="preserve" viewBox="0 0 2408 2158.7">
  <path d="M617.7 390.8c-6.9 6.1-22.6 26.5-31.8 20.2-3.7-2.6-5.7-7.7-9.2-10.7-4.4-3.9-9.8-6.6-15.5-8-12.1-3.1-25.9.6-34.9 9.3-7.9 7.6-10.8 18.7-14.5 28.7-5.8 15.7-11.5 31.3-17.3 47-6 16.2-11.9 32.4-17.9 48.6-2.7 7.3-5.7 19.6-9.7 24.2-3 3.4-12.7 9.5-17.8 13.2-13.2 9.7-26.5 19.5-39.7 29.2-24.5 18-48.9 36-73.4 54-14 10.2-28.6 16.4-46.2 16.6-15.7.1-31.4 0-47 0-19.6 0-38.2 1.3-56.2 9.9-12.5 6-22.8 15.2-33.3 24.1-25.7 21.7-51.5 43.4-77.2 65.2-11.1 9.4-21.7 18.6-29.6 31.1-10.4 16.5-14.9 35.4-15 54.7-.1 24.9 0 49.9 0 74.8v108.5c0 23.8-2.9 51 4 74.1 5.7 19.1 18.2 35.5 29 52.1l50.7 77.7c36.5 55.9 73.1 111.8 109.6 167.8 13.5 20.7 27.9 40.2 24.9 66.8-1.5 13.1-7.5 23-13.2 34.5-6.9 13.9-10.6 29.3-10.5 44.9.2 28.3 13 56.1 34.7 74.4 35.1 29.5 80.3 28.7 118.9 7.2 28.8-16.1 57.6-32.2 86.4-48.2 22-12.3 42-26.1 68-26.8 32.1-1 64.2-1.7 96.3-2.6 20.9-.6 50.8 3.6 69.2-8.2 18.1-11.6 35.3-25 52.9-37.5L909.9 1396c3.3-2.4 7.9-6.2 10.9-7.2 8-2.6 18.3-2.3 26.7-3.3 35.8-4.5 71.7-9 107.5-13.4 12.5-1.6 25-3.1 37.5-4.7 5.9-.7 10.8-1.2 16.5.9 27.3 9.5 54.3 20 81.4 30 26.4 9.7 54.1 18 79.8 29.4 2.7 1.2 4.1 2.2 5.2 3.8 2.1 3.3 3 8.1 4.3 11.6 5.9 15.8 11.7 31.6 17.6 47.4 10.1 27.3 19.6 77.3 59.5 68.8 17.3-3.7 27.7-20.3 38.9-32.6 3.5-3.8 7.6-7.9 12.8-3.8 5.4 4.4 1.1 11.7-.6 16.9-2.4 7.2-5.7 14.7-5.9 22.4-.3 14.2 7.6 27.4 20 34.1 16.1 8.7 35.7 1 52.2-2.7 9.7-2.2 25.1-10 31.9-.1 8.4 12.2 14.7 26.5 21.9 39.4 25.6 46.1 48.6 93.4 73.7 139.7 12.3 22.6 46.4 28.8 68.9 37 16.6 6.1 33.1 12.1 49.7 18.2 9.6 3.5 19.7 8.5 30 9.8 23.3 2.9 34.7-15 46.7-31.2 6.9-9.4 14.9-23.4 23.4-7.1 6.7 12.9 12.3 26.5 19.6 39.1 11.2 19.4 33 24.2 52.5 14.5 26.8-13.2 53.1-27.7 79.6-41.5 6.5-3.4 12.1-3.7 19.8-4.6 17.5-2.1 35-4.2 52.4-6.3 11.2-1.3 22.3-2.5 33.5-4 19.9-2.7 29.7-15.5 35.4-33.4 9.6-30.1 19.3-60.3 28.9-90.4 7.7-24 35-39.3 40.5-64.4 3-13.7-2.1-28.6.8-42.1 1.7-8.1 13.6-14.8 19.6-19.8 25.2-20.8 50.4-41.7 75.6-62.5 14.3-11.8 19-27.8 25.6-44.5l74.4-187.8c6.1-15.4 14.2-30.6 14.5-47.4.6-31.9 0-63.9 0-95.8v-71.9c0-14-.7-25.6-9.9-37.4l-19.2-24.3-65.7-82.8c-5.1-6.5-12.3-13.2-16.2-20.5.2.4-1-3.8-1.5-5.6-1.9-6.5-3.7-13.1-5.5-19.6-5-17.8-9.9-35.5-14.9-53.3-3.1-11.1-5.2-24.4-12.1-33.8-12.9-17.5-33.3-15.2-52.4-15.2-10.2 0-31.8 5.1-34.8-8.2-6.1-27.4-8.3-56.3-12.4-84-2-13.6-4-27.1-6-40.7-2.3-16-11-27.5-26.4-33.5-27.6-10.7-55.8-20.1-83.7-30.1-8.4-3-13-3.2-15.4-11.8-2.9-10.5-5.2-21.3-7.8-31.9-12.5-51.5-29.3-103.6-33.5-155.3-1.4-17.7-2.8-35.5-4.3-53.2-.9-11-.5-23.5-3.2-34.3-3.3-13.3-12.7-20-22.6-27.9-13.3-10.6-26.7-21.1-40-31.7-12.9-10.2-25.9-20.5-38.8-30.7-5.3-4.2-12.9-8.5-15.9-14.7-5.4-11-8.1-24.3-12-35.9-5.6-16.9-11.3-33.8-16.9-50.7-3-9.1-5.8-18.3-9.1-27.3-8.4-22.9-35.1-34.1-56.4-20.1-11.9 7.8-17.5 23.6-23.8 35.7-7.4 14.2-15.2 28.3-22.2 42.7-5 10.2-5.6 19.4-5.2 30.3.6 16.2 1.1 32.4 1.7 48.6.6 17 1.2 34.1 1.8 51.1.3 7.7 1.7 16.3-.4 23.8-7.3 26-18.6 51.5-27.8 76.9-6 16.7-12.1 33.5-18.1 50.2-2.8 7.9-4.8 17.4-8.9 24.8-4.4 7.7-28.2 4.1-37.7 4.1-8.3 0-12.5-.9-19.3-5.1l-76.5-47.1-82.8-51c-19.3-11.9-42.9-25.5-54.9-45-20.6-33.2-.4-64.5 13.1-95.5 21-48.5-1.1-103.8-50.8-123.1-18-7-25.8 22-8 28.9 21.4 8.3 36.4 30.6 37.2 53.3.6 18-6.7 30.8-13.8 46.9-8.1 18.2-16.7 35.8-17 56.2-.4 27.5 12.3 54.2 33.7 71.4 42.2 34 90 60.2 136 88.5 23.8 14.6 47.4 29.5 71.4 43.9 9.4 5.7 18.9 7.5 29.8 7.5 16.2 0 37.4 3.3 52-5.3 11.5-6.8 15.6-18.3 19.8-30.1 4.8-13.4 9.6-26.7 14.5-40.1 11.3-31.2 22.5-62.4 33.8-93.6 7.2-19.8 4.7-39.2 4-60-1-29.4-3.9-59.3-3.1-88.7.3-9.5 7.8-19.1 12.1-27.3 7.3-14 14.4-28 21.8-41.9 4.1-7.6 11.7-10.6 15.8-1.2 5.2 11.9 8.4 25.1 12.5 37.4 8.6 25.7 16.1 52.1 25.9 77.4 4.7 12.2 14.1 18.4 23.8 26.1 13.1 10.4 26.2 20.8 39.4 31.2 13.1 10.4 26.2 20.8 39.3 31.1 2.9 2.3 5.9 4.4 8.6 6.8 3.4 3 4.7 5.1 5.2 7.6 2.4 12.4 2.1 26 3.1 38.6 1.4 17.8 2.8 35.5 4.3 53.3 1.5 18.2 5.4 34.9 9.7 52.6 8.4 34.4 16.8 68.9 25.1 103.3 2.3 9.3 4.2 18.7 6.8 27.9 4.4 15.6 15.2 23.8 29.7 29 28.5 10.3 57.1 20.5 85.6 30.8 7.9 2.8 8.7 7.3 10 16.1 2.1 14.4 4.2 28.7 6.3 43.1 3.9 26.4 6.2 53.5 11.7 79.6 9.1 43.5 56.3 24.9 86.1 30.2 10 1.8 11.5 20.9 13.7 28.9 4.8 17.1 9.6 34.2 14.4 51.4 2.9 10.5 4.8 23.1 10.4 32.6 4.4 7.5 11 14.3 16.4 21 21.7 27.3 43.3 54.6 65 81.9 7.3 9.3 15.5 18.3 22.2 28 4.2 6.1 3 12.7 3 20.4v70.1c0 31.8 1.4 64 0 95.8-.6 13.9-9 28.2-14.1 40.9-24.8 62.5-49.6 125.1-74.4 187.7-2.7 6.8-4.8 14.9-8.4 21.3-2.4 4.2-7.8 7.7-11.9 11.1-25.5 21.1-51 42.2-76.6 63.3-9.4 7.8-19.4 14.8-23 27.3-4.2 14.6 1.1 30.3-1.5 44.9-.8 4.6-3.8 7.9-6.5 11.6-5.5 7.5-10.9 15-16.4 22.5-6.7 9.2-13.1 17.3-16.8 28.2-10.1 29.7-19.1 59.8-28.7 89.7-2.7 8.5-3.5 13.3-11.8 14.5-15.2 2.1-30.6 3.7-45.8 5.5-24.9 3-51.4 3-73.9 14.7-14.6 7.6-29.3 15.3-43.9 22.9-10.6 5.5-21.8 13.5-33.2 17.3-11.4 3.8-17.7-18.7-21.5-26.3-7.5-14.9-13.5-31.9-30.8-37.8-22-7.4-37 6.1-49 22.4-7.2 9.8-12.6 24.7-25.7 20.7-28.8-8.8-56.9-20.9-85.1-31.2-10-3.7-22.5-6.2-31.7-11.6-4.6-2.7-8.7-13.7-11.7-19.5-25.8-49.7-51.7-99.2-78.9-148.1-7.3-13.1-13.3-28-27.9-34.6-15.8-7.1-34.2 0-50.1 3.6-8.6 1.9-34.6 12.6-31.4-5.2 3.3-18.5 14.8-32.3 3-51.2-13.2-21.2-42.1-22.7-59.2-5.7-4.6 4.5-8.6 9.7-12.9 14.5-3.3 3.7-8.6 12.2-14.1 12.5-8.7.4-10.8-14-13.7-21.8-6.1-16.5-12.3-33-18.4-49.6-4.3-11.7-8.4-23.4-13-35-5.4-13.7-14.9-20.8-28.2-25.8-28.1-10.5-56.2-20.7-84.4-31.1-25.3-9.3-50.5-19.3-76-28-18.3-6.2-42.4.9-60.9 3.2-35.3 4.4-70.5 8.8-105.8 13.2-17.1 2.1-36.2 2.1-50.7 12.2-50.7 35.2-100.7 71.4-151.1 107-20 14.2-40.1 28.4-60.1 42.6-13.2 9.4-34 5.6-49.6 6-33.3.9-66.5 1.8-99.8 2.7-16.4.4-32.2 2.3-47.4 9.3-8.9 4-17.3 9.2-25.7 13.9-29.8 16.6-59.6 33.3-89.4 49.9-8.5 4.7-17.2 10.5-26.3 14-23.5 8.9-50.9 4.3-69.8-12.4-20-17.7-28.1-45.5-20.6-71.1 3.8-13.1 12.4-24.1 16.6-37.1 5-15.5 5.7-32.3 2.8-48.3-4-21.7-16.5-38.9-28.3-56.9l-110.1-168.6c-16.5-25.3-33-50.5-49.5-75.8-10.6-16.2-24.4-33.3-27.9-52.7-3.7-20.5-1-43.5-1-64.1v-107c0-23.8-.2-47.6 0-71.4.2-21.8 9-40.5 25.3-54.8 6.9-6.1 14.1-11.9 21.2-17.9 24.8-20.9 49.6-41.9 74.5-62.8 13.7-11.5 29.2-18.3 47.3-18.6 13.9-.2 27.8 0 41.8 0 19.4 0 38.1.1 56.5-7.4 11.1-4.6 20.4-11.2 30-18.3 27.1-19.9 54.1-39.8 81.2-59.7 11.5-8.5 23-16.9 34.5-25.4 9.9-7.3 18.8-13.7 23.6-25.9 9.6-24.2 18-49 27-73.4 5.3-14.5 10.7-29 16-43.4 2.8-7.6 4.1-18 11.4-18.5 6.9-.5 10.7 9.2 15.4 13 10.4 8.4 24.6 10.6 37.1 5.6 13.2-5.2 24.3-18.4 34.7-27.7 15.2-12.9-6.1-34-20.5-21.2zM1831.4 1979c14.4 5.6 28.8 11.6 43.3 16.9 11.9 4.3 22.9 1.2 34.1-2.8 9.6-3.3 19.1-6.7 28.7-10 1-.4 2-.7 3-1.1.4-.1.7-.2 1-.3.9-.3 1.8-.5 2.8-.7 1.7-.4-2 0 .8 0s.7-.1 0-.2c1.1.2 2.1.5 3.2.8 2.2.4-1.9-1.1 0-.1.8.4 1.5.9 2.2 1.2 1.9 1-1.6-1.5.1-.1.6.6 1.2 1.2 1.9 1.8.3.3 1.9 2.4.9 1-1.1-1.6.7 1.4.9 1.7 1.4 2.4.2.6 0 0 .2.8.4 1.8.7 2.5-.8-2.2 0-1.2 0 0v2.7c.1-2.8-.3 1.1-.6 2.2-.6 2.2-1.3 4.4-2 6.6-5.7 19.1-11.3 38.3-17 57.4-1.4 4.6-2.7 11.2-4.5 14.9-2.4 5-8.1 11.2-11.8 16.3-6.2 8.5-12.5 17-18.7 25.5-1.6 2.2-3.3 4.3-4.8 6.6-.7 1-.2-1 1.3-1.7-.3.2-4.4 4.1-1.8 2.2-.8.6-5 2.5-2.1 1.5-.8.3-1.6.5-2.4.8-3.3 1.1 2.5.2-1 .2h-2.5c-1.1 0-2.2-.8.2.1-1-.3-5.1-1.9-2.5-.6-.9-.5-4.4-3.1-2.5-1.4l-.3-.3c-1.5-1.4-3.1-2.7-4.6-4.1-7-6.2-13.9-12.5-20.9-18.7-12-10.8-24.3-21.3-36.1-32.3-.7-.7-1.5-1.4-2.2-2.2 1.7 2.1-1.9-3.7-.7-1-.4-.9-.6-1.9-.9-2.8-.8-2.9-.2-1.2-.1-.4 0-.6-.1-1.2 0-1.8v-71.4c0-.7.1-1.4.1-2.2 0-2-.9 1.7.1.1.4-.6.6-1.7.7-2.5.5-2.1-1.1 1.9 0 .1.5-.7.9-1.4 1.3-2.1 1.2-1.8-1.6 1.6 0 .1.8-.7 1.4-1.5 2.2-2.1-2.4 2 1.2-.5 2.1-1-3.9 2 3.8-1 1.5-.4-1.9.5.6 0 1.1 0 .8 0 1.7.1 2.6.1 2-.1-2-.8-.1.1 1 .3 2.3.5 3.3.9 7.4 2.7 16.7-3 18.5-10.5 1.9-8.4-2.6-15.6-10.5-18.5-20.4-7.3-42.8 4.1-50.4 24-3.1 8-2.5 16.8-2.5 25.2 0 19.7-.1 39.4 0 59.1.1 12.3 4.9 23.2 14 31.5 6.1 5.5 12.2 10.9 18.3 16.4 14 12.5 27.7 25.2 41.9 37.5 13.7 11.9 33.2 14.9 48.9 4.8 8.5-5.5 14.1-14.7 20-22.8l19.8-27c4.6-6.3 8.7-11.9 11.1-19.7 5.6-18.3 10.9-36.8 16.3-55.2 2.1-7.1 4.3-14.2 6.3-21.3 5-17.5-1.9-36.1-17.4-45.8-12.8-8-26.4-6.1-39.8-1.4-10.1 3.5-20.2 7.1-30.3 10.6l-3.3 1.2c-.7.2-1.3.4-2 .6-.1 0-2.8.4-1.2.3-.3 0-4.2-.3-3-.1-3.1-.7-6.2-2.1-9.1-3.3-10.2-4-20.4-7.9-30.5-11.9-2.4-.9-4.8-1.9-7.1-2.8-7.3-2.9-16.8 3.1-18.5 10.5-1.9 8.7 2.7 15.5 10.5 18.6z"/>
  <path d="M967.7 167.6c14.8 27.4 29.6 54.8 44.3 82.2l6.3 11.7c3.8 7.1 13.7 9.4 20.5 5.4 7.2-4.2 9.2-13.4 5.4-20.5-14.8-27.4-29.6-54.8-44.3-82.2l-6.3-11.7c-3.8-7.1-13.7-9.4-20.5-5.4-7.3 4.2-9.3 13.4-5.4 20.5zm-71.3 105.3c5.4 30.7 10.8 61.3 16.2 92 .8 4.4 1.5 8.7 2.3 13.1 1.4 8 11.2 12.5 18.5 10.5 8.4-2.3 11.9-10.4 10.5-18.5-5.4-30.7-10.8-61.3-16.2-92-.8-4.4-1.5-8.7-2.3-13.1-1.4-8-11.2-12.5-18.5-10.5-8.5 2.4-11.9 10.5-10.5 18.5zm-124-62c5.4 30.7 10.8 61.3 16.2 92 .8 4.4 1.5 8.7 2.3 13.1 1.4 8 11.2 12.5 18.5 10.5 8.4-2.3 11.9-10.4 10.5-18.5-5.4-30.7-10.8-61.3-16.2-92-.8-4.4-1.5-8.7-2.3-13.1-1.4-8-11.2-12.5-18.5-10.5-8.5 2.4-11.9 10.5-10.5 18.5zm-125.1 70.3c13.9 27.9 27.7 55.8 41.6 83.7 2 4 3.9 7.9 5.9 11.9 3.6 7.3 13.9 9.3 20.5 5.4 7.4-4.3 9-13.2 5.4-20.5-13.9-27.9-27.7-55.8-41.6-83.7-2-4-3.9-7.9-5.9-11.9-3.6-7.3-13.9-9.3-20.5-5.4-7.4 4.3-9 13.3-5.4 20.5zm447-206.2c5.4 30.7 10.8 61.3 16.2 92 .8 4.4 1.5 8.7 2.3 13.1 1.4 8 11.2 12.5 18.5 10.5 8.4-2.3 11.9-10.4 10.5-18.5-5.4-30.7-10.8-61.3-16.2-92-.8-4.4-1.5-8.7-2.3-13.1-1.4-8-11.2-12.5-18.5-10.5-8.5 2.3-11.9 10.5-10.5 18.5zm139.1-21.5c-1 31.1-1.9 62.3-2.9 93.4-.1 4.4-.3 8.8-.4 13.3-.2 7.9 7.1 15.4 15 15 8.3-.4 14.7-6.6 15-15 1-31.1 1.9-62.3 2.9-93.4.1-4.4.3-8.8.4-13.3.2-7.9-7.1-15.4-15-15-8.3.4-14.7 6.6-15 15z"/>
</svg>