<?xml version="1.0" encoding="utf-8"?>
<svg xmlns="http://www.w3.org/2000/svg" xmlns:cc="http://creativecommons.org/ns#" xmlns:dc="http://purl.org/dc/elements/1.1/" xmlns:rdf="http://www.w3.org/1999/02/22-rdf-syntax-ns#" xmlns:svg="http://www.w3.org/2000/svg" height="132.66614mm" id="svg1" version="1.1" width="209.84001mm" xml:space="preserve" viewBox="0 0 209.84001 132.66614">
	<title id="title2">Barrel</title>
	<defs id="defs1"/>
	<g id="layer1" style="display:inline" transform="translate(-2.5160236,-62.594338)">
		<path xmlns="" d="m 3.8491892,194.98647 c -2.6946256,-3.16779 3.2303781,-1.53258 5.3269964,-1.92761 2.6792914,-1.57505 -2.3842114,-2.19963 -3.7261727,-2.43191 -6.7727056,-0.4835 4.1565594,-1.68096 6.3863071,-1.20673 3.282201,-0.62205 5.292908,0.60185 8.173627,0.66634 2.848671,-1.46069 -3.022911,-2.5013 -4.177618,-2.48775 -2.243931,-0.53986 -5.226407,-0.0924 -6.7494912,-1.83569 -2.2861479,-0.60734 -7.4818381,1.69487 -6.4272869,-2.25317 0.2030968,-1.69542 3.6283202,-2.49378 5.4042553,-1.66492 2.2202918,0.78194 3.5105768,3.00034 5.9488378,2.81746 2.316404,-1.70943 7.895694,3.03446 7.426694,-1.46554 -1.79445,-1.34571 -4.088972,-0.11999 -5.789992,-1.42805 -3.05474,0.0162 -4.657274,-2.0911 -1.293159,-2.77395 1.836322,0.35307 4.804827,1.19231 7.778923,1.35953 4.214229,0.50061 -1.645427,-3.08734 1.38967,-2.40557 2.708247,1.95885 0.474917,-6.79995 4.846555,-0.83154 2.172033,0.78098 4.0114,2.75236 6.647575,2.43191 1.460887,1.37298 3.925245,-1.7425 4.897013,-3.0286 1.570008,-3.04724 7.508585,-4.54412 5.707456,-7.32831 0.990459,-1.71716 2.230047,-3.86842 4.421028,-5.50326 -0.79467,-3.04364 2.164802,-4.54597 2.064079,-7.30746 0.937483,-2.02079 2.045043,-4.90631 2.97234,-7.20598 0.150435,-2.76513 1.735474,-4.54417 1.621277,-7.4912 -0.342274,-3.32306 0.298832,-6.05625 0.804481,-8.71536 -0.395754,-3.23441 0.408836,-6.97318 -1.074694,-9.7581 0.559038,-3.05977 -0.854445,-4.76371 -0.810638,-7.46933 0.130833,-3.03662 -1.280804,-5.013 -1.621277,-7.72567 0.181473,-2.38998 -1.263376,-4.01622 -1.621276,-6.1529 -1.379414,-1.53806 -0.552435,-5.84377 0.270212,-1.903993 1.613614,1.176043 1.294955,3.680253 2.431915,5.183933 1.098902,2.14091 1.220464,4.9536 2.026596,7.29575 0.376933,2.68657 1.324708,5.00617 1.356306,8.09825 0.441025,3.75877 1.182733,7.31042 0.975041,11.28825 1.065489,3.58838 -0.85076,5.96456 -0.743097,9.42067 -0.83029,2.41729 -2.129896,3.90289 -1.723356,6.78613 -1.202128,1.63364 -1.129912,3.97211 -2.161703,5.60865 0.539369,2.82048 -1.569716,5.30064 -2.431914,7.20325 -0.283139,1.86835 -1.322029,3.91277 -2.702128,5.17768 0.06843,2.43463 -2.632597,3.25516 -2.922133,4.9657 -0.633657,2.37707 -4.030455,3.48745 -5.779484,5.32551 -3.200948,1.13027 -1.173574,6.6252 1.892254,4.53343 0.621759,-3.14012 4.843954,-2.37358 5.593405,-5.52271 0.882446,-1.51562 1.807113,-3.53292 3.217341,-4.91754 0.851452,-1.83918 1.546247,-3.36736 2.457116,-5.00556 0.643702,-1.98679 2.362598,-3.23457 2.026595,-5.89478 1.699974,-1.50312 0.727165,-5.59749 2.972337,-6.15932 0.471282,-2.34118 0.376346,-4.57118 1.891488,-6.51391 -0.613753,-3.0381 1.100816,-4.47581 0.810638,-7.2915 1.010739,-2.04912 0.02863,-5.30346 1.351068,-7.17468 0.09236,-2.96173 0.130656,-5.88629 -0.810638,-8.13752 -0.254877,-2.74121 0.682275,-6.0422 -0.810638,-8.20203 0.526705,-2.92533 -1.353377,-4.86817 -0.986078,-7.81987 -2.478721,-2.84544 -0.109946,-4.74956 0.175443,-0.60708 1.74794,2.78205 2.502644,4.46843 2.702128,7.42061 -0.481738,2.91171 0.588586,5.09457 0.810638,7.67578 0.367906,3.01596 -0.832292,6.49249 0.79275,9.10663 -1.243455,2.32648 -1.953737,4.03465 -0.79275,6.38279 -0.620001,2.36738 -2.005805,4.47605 -1.351064,7.27409 -0.821382,2.16291 -1.345695,4.53004 -2.431914,6.51092 0.237104,2.69411 -2.697361,4.34657 -2.431915,6.90105 -0.580282,2.01344 -1.183257,3.61838 -2.825729,5.3098 -0.488917,1.77987 -1.993716,2.74526 -2.038096,4.84395 -2.588157,2.93872 -3.235606,7.01242 -6.385687,9.55372 -2.557699,2.05716 0.837302,4.60754 2.753531,4.75318 2.141138,1.76367 -1.294512,1.67411 -3.645132,1.14153 -1.68908,-0.008 -6.86336,0.0474 -4.520603,2.23604 3.887314,-0.6707 6.267577,1.38396 10.109529,0.92103 3.90942,0.31348 -5.495902,4.5337 1.440299,3.89558 3.566621,-0.36664 7.663385,0.55166 10.894456,-0.62828 -2.386445,-1.04809 -4.763109,-1.23549 -6.857149,-2.16065 -3.244282,2.28908 -5.081227,-2.44187 -0.289384,-2.01285 1.873556,-3.48842 -5.070759,1.03301 -4.288845,-1.43236 2.924557,2.08376 1.432109,-3.31276 4.241154,-0.33777 2.413821,0.34126 4.695432,0.14026 3.30316,2.43148 1.839251,-0.044 5.068943,2.32626 5.440149,-0.81068 1.499782,0.58074 2.66838,2.83444 5.241102,0.76897 3.181194,-0.80756 4.91298,0.51018 7.693216,0.58204 3.294964,0.55574 3.8591,0.24944 7.295738,0 1.922155,1.75137 5.318716,0.36306 7.853138,0.81064 1.569027,1.78561 5.603987,-0.29893 6.944015,2.97189 -1.857107,1.30446 -5.49119,0.32771 -8.029298,0.7321 -2.527049,0.5579 -4.928183,1.22842 -7.78528,0.79939 -4.620279,1.52767 -3.46827,-5.15446 -7.568522,-0.27949 -2.368056,0.62147 -6.199648,0.65436 -8.345086,-0.0496 -2.03119,-0.0744 -5.105506,1.29733 -8.078047,0.68948 -2.871642,0.0438 -5.794264,0.29065 -8.310541,-1.08085 -2.876808,0.0806 -5.21976,1.68148 -8.378139,1.10798 -3.339783,0.0768 -6.679567,0.15354 -10.01935,0.23031 -1.961812,0.28886 -5.020829,-0.13856 -7.3202,0.82187 -2.752647,-0.77356 -4.017562,-0.65061 -6.661779,0 -3.035193,-0.11987 -3.222385,-0.84052 -6.093107,-1.08085 -1.638609,2.32714 -3.537553,-0.77796 -5.0740123,1.05148 -1.7264523,1.2633 -2.4938261,-1.28629 -4.0334238,0.56979 -0.1118373,-0.17488 -1.4410444,0.32548 -0.8620457,-0.23409 z m 14.0512828,-1.5512 c 1.548942,-1.94382 -4.959389,-2.8281 -5.755204,-1.50591 0.444633,1.39892 4.556379,0.87284 5.755204,1.50591 z m 27.597373,-3.91113 c -0.359462,-2.91752 -4.72634,-1.20575 -5.806184,-3.22069 -2.770062,0.45022 -4.996823,-1.00135 -7.312706,-1.06264 -3.132055,-1.75889 -2.337286,3.08792 -0.212395,3.22427 2.931243,-0.59623 4.67642,1.33324 7.573092,0.81063 1.752261,0.16464 3.915231,1.15738 5.758193,0.24843 z m 58.254895,2.19105 c -3.41056,-2.19933 -3.09277,-2.87531 1.32595,-2.40574 5.49016,-0.0112 10.98032,-0.0223 16.47048,-0.0335 0.56145,4.63015 3.7269,-1.45114 6.17035,-0.91603 4.33604,-2.13346 0.53266,3.42984 4.41719,1.94766 1.83078,-1.95912 -3.95221,-2.67683 1.48128,-2.92314 2.995,0.75283 5.96846,-1.28584 7.59617,0 2.46326,-0.24785 4.67746,-0.85803 6.78646,-1.62127 3.25661,0.6119 4.90121,-1.12142 7.95084,-0.81064 2.10023,-0.63762 4.71947,-1.2514 7.08465,-1.89149 2.49811,-0.32065 4.74136,-0.41619 6.92826,-1.59824 2.09919,0.0969 4.63712,-0.0584 5.68524,-1.64431 3.05436,0.55986 4.65453,-1.86038 7.36221,-2.43192 2.06723,-0.93565 2.43757,-2.75512 4.98544,-3.19234 2.52061,-2.28812 4.04459,-2.7491 4.86515,-5.50151 0.44707,-1.64696 1.04656,-3.20923 1.64432,-5.02099 0.55299,-2.8249 2.57214,-4.79344 2.43192,-7.64893 1.51373,-1.35812 1.81894,-3.63783 2.45621,-5.92772 1.46983,-2.86357 -0.55691,-7.17897 1.29237,-9.37667 -0.50043,-2.99177 1.01005,-5.19281 1.10602,-7.83645 -0.38521,-3.33346 0.31697,-7.09925 -0.75153,-10.16104 0.67956,-3.33692 -1.89764,-2.65501 -2.09074,-2.03534 -2.20387,-3.10754 -1.74549,2.23151 -2.03773,4.20006 -0.0803,3.42214 -0.1565,6.00371 -0.19656,0.9931 -0.0223,-2.83638 -1.40178,-4.66179 -0.85902,-7.83958 -0.97138,-1.9207 -0.73314,-4.51845 -1.47263,-6.47292 -0.82214,-5.3405 0.20712,0.0421 2.50135,0.42881 0.97204,2.44581 3.69739,3.0456 2.75492,-1.22221 -0.44091,-2.46719 -1.34436,-4.51036 -1.62128,-6.88 -0.32808,-2.59036 -1.17353,-4.876502 -1.62128,-7.202204 -0.81773,-2.193147 -1.31132,-4.850192 -3.20196,-6.830169 -0.56852,-2.030841 -1.98935,-3.979317 -3.55348,-6.052741 -1.21928,-2.472999 -3.78693,-4.111751 -6.69193,-3.425945 -1.21754,-1.476348 -5.28062,-5.047628 -3.04816,-0.689027 2.50347,3.741741 -0.8329,4.277818 -1.87903,-0.189431 -0.33221,-1.458273 -3.47839,-6.071496 -3.24256,-2.012329 1.56369,2.087075 1.37097,4.107044 3.23076,6.284054 -0.7428,3.083806 1.02516,5.098537 2.71396,7.129661 -3.55173,-0.733317 -4.65294,-8.934162 -9.43832,-10.096216 -1.02857,-1.170427 -6.94184,-1.004195 -2.76638,-1.201959 2.45426,-0.121761 8.06905,0.07689 5.17914,-3.02356 -0.82272,-1.841111 -3.84765,-2.915954 -5.67447,-3.633692 -1.61839,-2.089112 -5.17245,-0.207512 -7.00279,-2.179128 -2.10518,0.207561 -3.69629,-0.955013 -5.83649,-1.468743 -2.16535,2.036619 -5.24097,-3.306645 -6.07561,1.460442 2.46398,1.122207 1.3284,5.399465 3.99514,5.576531 2.04406,1.138554 4.10591,2.193619 6.95045,1.609831 2.70183,0.424485 5.98458,2.657842 1.38649,1.486165 -2.19689,-0.381035 -5.04373,-0.84481 -7.19803,-0.909327 -0.70941,2.91514 2.8257,3.851084 1.94318,6.981506 1.67386,1.967747 0.92761,2.770588 2.3827,5.215191 -1.06261,3.990374 3.20198,2.512604 5.33675,3.439226 2.46133,0.527239 6.37115,-1.05285 7.94272,0.768853 -2.05876,1.727678 -5.25642,-0.47597 -8.46411,0.311998 -2.45311,0.798995 -3.01782,3.498877 -3.33425,6.454423 -1.98478,-0.57462 -0.0495,-5.027974 -2.95904,-5.945969 -0.7902,-2.161474 -0.96043,-3.674412 -1.6323,-5.814993 -0.83791,-1.972292 -0.46694,-4.344491 -2.0266,-6.108561 0.0546,-2.466547 -2.34259,-4.056497 -2.70212,-6.29976 -0.98174,-1.85354 -1.05729,-3.906432 -2.31349,-5.883062 -1.59936,-1.168113 -3.17679,-5.77059 -5.78979,-3.01802 1.72757,1.378332 1.21803,4.060204 2.69902,5.283323 0.66598,2.77587 -0.24003,5.002656 2.32549,6.291348 -0.031,2.478056 1.4063,4.142211 1.72763,6.373358 0.20666,2.711126 2.50718,4.771833 1.62128,7.875245 1.73193,4.086525 -0.21002,2.845181 -1.89149,-0.620749 0.56181,-2.978796 -0.87294,-4.585234 -1.62128,-6.66348 -0.46157,-1.899309 -1.13631,-3.608556 -1.62127,-5.292371 -1.41315,-1.184096 -1.4068,-4.685457 -4.52331,-4.194554 -1.65951,-0.953437 -3.79022,-1.221375 -5.56499,-2.007107 -2.14151,-2.11526 9.54196,1.710555 6.25556,-3.572869 -1.00916,-1.924675 -2.17608,-4.216419 -3.99583,-5.098214 -4.43105,-1.404896 -1.73676,-2.451275 1.80925,-1.993251 2.80701,0.03159 4.90089,0.875987 7.72499,1.162196 1.61381,3.010767 6.0807,-0.320174 8.06046,2.051799 2.70002,-0.161356 4.57595,1.432141 7.49205,0.810639 1.48786,0.963666 3.78373,1.453757 5.92216,1.621276 1.47922,1.36565 4.27533,1.620079 6.34704,2.161702 2.01661,2.000052 4.82418,1.536652 6.88504,2.431915 2.87377,2.360901 6.68313,2.655861 8.9433,5.660315 0.29348,2.418658 3.16563,3.628769 3.01223,6.246009 1.25363,1.564705 2.40103,3.202432 2.43192,5.607606 1.5744,1.222272 0.72865,4.108063 2.43191,5.241763 0.0854,2.388676 0.85999,4.101286 1.62128,6.345036 0.36895,2.36525 0.85316,4.50482 1.28424,6.70794 1.17344,2.42599 0.19482,5.85547 1.40805,8.23991 0.10504,5.46928 0.21006,10.93857 0.31508,16.40785 -2.07647,1.22866 0.32067,5.33845 -1.78838,6.72189 -0.16406,2.201 -0.81703,4.94078 -1.48914,6.31956 0.31508,2.52864 -0.8655,4.5838 -1.21595,6.6576 -0.61123,2.4215 -0.91703,4.64408 -2.83724,6.91921 0.24693,2.95052 -3.01471,4.75397 -2.1617,7.90387 -0.2751,1.37885 -4.7193,4.92411 -0.87596,4.37496 2.16467,0.3066 4.30614,0.38594 5.75121,0.55924 2.67871,-0.0998 4.09702,1.40991 6.59336,1.4981 2.07724,-0.49612 6.44121,0.3144 6.09522,3.65784 -0.99347,2.4711 1.64832,5.24858 0,6.31682 1.45576,5.16989 -3.57366,3.79901 -6.86268,3.81159 -3.65707,-0.0517 -7.31415,-0.10335 -10.97122,-0.15502 -1.0861,-3.73987 -1.69148,1.97708 -4.66117,0.12618 -7.85502,0.54945 -16.10632,-0.1044 -23.77103,0.70482 -2.33384,-1.05007 -5.21323,1.42295 -8.25468,0.58865 -1.75691,-1.67153 -4.5798,1.21016 -7.50591,0.11856 -2.95824,0.28493 -5.62595,-0.19038 -8.18484,-0.92927 -3.05514,1.70067 -7.26204,0.63213 -10.80947,1.14474 -2.03954,-1.25403 -5.45682,-1.2374 -7.42988,0.0867 -6.31952,0.0448 -12.63903,0.0897 -18.95855,0.13448 l -0.37694,-0.32358 z m 48.00902,-2.91218 c 0.16344,-2.32283 -5.35574,-1.10232 -4.2403,1.01329 1.13025,-0.49428 4.93539,1.09448 4.2403,-1.01329 z m 17.34854,0.13511 c -0.1513,-3.3625 4.48398,-1.00513 6.19009,-2.63458 1.4867,0.37136 5.2098,2.09336 5.4304,-0.53488 -1.52605,-1.84336 -3.55241,-4.3617 -6.23684,-4.05916 -1.60263,1.01264 -4.61808,2.1214 -6.55963,2.82097 -3.24692,0.62099 -2.48322,1.54489 -0.17873,2.32861 -1.05165,1.76631 -3.31517,-2.66372 -4.60779,-0.28575 -2.56435,0.0345 -5.34564,-0.43034 -7.2559,1.08485 -3.71025,1.83948 4.17365,0.95398 5.91537,1.0919 2.80098,-0.95987 6.06371,1.40064 7.30303,0.18804 z m 9.07833,-0.0904 c 0.11783,-2.69837 -3.59372,0.41477 -5.67328,-0.65266 -3.99746,1.38484 3.37878,1.61942 5.13511,1.35107 0.56783,0.26515 0.40314,-0.40874 0.53817,-0.69841 z m 29.67189,-1.21698 c -1.88475,-1.29325 -3.5266,-1.84531 -5.76883,-2.52008 -2.02334,-0.89393 -4.15801,-1.55081 -6.74758,-1.239 -1.30842,-0.0972 -4.13724,0.81924 -6.35156,1.64241 -4.31798,-1.42521 -7.60555,2.64931 -2.09002,1.30687 0.33126,3.64977 1.94179,-1.31787 3.03133,1.32669 1.38757,3.2635 2.12686,-1.29868 4.43769,-0.53383 1.29274,-1.62955 4.159,0.36062 5.47875,0.85088 2.43826,0.4469 4.76868,1.20992 7.68326,0.93041 0.95213,0.53278 0.99656,-1.58664 0.32696,-1.76435 z m -12.28597,-5.50172 c 1.47898,-2.99171 -3.22604,-0.56516 -4.45359,-0.40612 -0.69718,1.72039 3.90278,1.34923 4.45359,0.40612 z m 12.71291,0.3453 c 2.75463,-3.96701 -3.86699,-3.07823 -5.34364,-4.27713 -2.49621,0.10391 -5.30279,-0.45311 -7.25433,0.81064 -2.21255,1.4105 3.85992,2.50054 5.63236,2.16173 2.00354,1.14805 3.94014,1.44646 6.32942,1.62128 0.0865,-0.23106 0.96216,0.32702 0.63619,-0.31652 z m -26.26258,-1.33586 c 2.64797,-3.1594 -0.52051,-2.48347 -2.0734,-0.34789 -1.92841,1.87631 1.50452,1.90575 2.0734,0.34789 z m 9.94378,-2.87372 c 1.39164,-0.35259 6.66551,-0.4287 3.44081,-2.73934 -2.40704,0.78604 -3.86453,2.54712 -6.81564,2.13136 -1.44324,1.62428 3.10821,1.28232 3.37483,0.60798 z m -102.020544,8.73104 c -2.391612,-1.27667 -6.117905,0.41261 -8.564146,-0.82731 -2.27183,-0.50727 -4.721931,-0.61008 -6.845945,-1.19925 -3.30826,0.81407 -4.934494,-1.03683 -8.214148,-0.55714 -2.105339,-1.19275 -5.460256,-0.56757 -7.661167,-1.62127 -2.333132,-0.10178 -4.920604,-0.53356 -6.530597,-1.59349 -3.961433,0.63203 -2.407869,-1.24071 -0.826823,-3.25767 1.479679,-1.81607 1.382624,-3.75079 3.231111,-5.75331 0.06999,-2.06836 2.739798,-2.92266 2.431915,-5.16351 1.890463,-1.87189 2.555792,-5.64713 4.323404,-8.08448 0.629333,-2.13853 1.646788,-3.79141 2.161702,-5.65484 1.641982,-1.47651 0.847802,-4.62757 2.431915,-6.14386 0.344163,-2.66914 0.49465,-5.2534 0.912092,-7.7425 0.846414,-2.04718 0.05694,-5.28525 1.403105,-7.24202 0.339003,-2.61255 -0.912723,-6.1384 -0.153494,-7.78813 -0.347178,-4.46578 0.885074,-4.2509 0.643912,-0.0159 -0.293685,1.97241 6.029549,-0.067 3.167693,2.71063 1.198881,2.85843 5.209378,1.35166 7.432988,2.43152 2.649979,-0.36242 5.05963,-0.24429 7.286912,0.60596 1.829723,2.17494 3.50122,-1.89056 2.004664,-2.73103 1.881757,-1.8435 0.958516,3.62091 0.270213,4.43529 -2.623754,0.81594 -5.323351,-0.33174 -7.655582,-0.57661 -2.376408,0.60512 -6.701131,-0.81281 -7.836681,1.18892 1.844901,1.52728 4.791945,1.12784 7.696767,0.90633 1.604084,1.64222 6.210374,-0.12023 7.390177,1.64093 1.813062,3.80433 -3.216007,0.35552 -5.457353,1.08086 -2.644608,-2.03194 -7.069882,1.05302 -9.556839,-1.02207 -3.52152,-1.03817 -2.337044,2.44651 -0.238647,2.64332 2.789801,-0.0809 4.470384,0.94735 7.586172,0.54043 2.712006,0.17509 5.766307,0.77146 7.965444,1.44169 1.249783,3.77659 -3.232318,2.14022 -5.006372,1.53064 -2.666944,-0.34926 -6.45925,0.8296 -8.168276,-0.8457 -2.350887,-0.70907 -6.825889,1.73795 -2.335502,1.41615 1.610582,1.44648 4.737576,-0.0864 6.414027,1.53721 2.465421,-0.30177 4.561086,0.55308 6.822406,0.86549 4.537838,0.52296 -3.407385,1.41466 -4.37505,0.54043 -2.1397,-0.63044 -5.457101,-0.0832 -8.040211,-0.27022 -3.695812,-1.12276 0.805897,1.79743 2.658475,1.89147 2.571541,0.22202 4.773597,1.31895 7.685844,0.88982 4.903112,-0.59131 2.787756,3.04431 -0.998484,1.81226 -1.805534,-1.18967 -4.150906,-1.22979 -6.331272,-1.62128 -1.6187,0.16723 -7.968175,-0.85822 -5.035129,1.82719 2.707818,0.52635 4.648251,1.56122 7.841241,1.14515 1.336128,2.14024 5.992175,-0.23551 7.578934,1.42935 2.61385,3.25436 1.689454,-3.09173 2.746973,-4.29738 -0.368595,-2.78158 -0.752417,-3.50174 0.810638,-5.71812 -0.348448,-2.71845 -1.228808,-5.07129 -0.810638,-8.31669 1.45278,-1.95747 0.61059,-5.37184 0.687798,-8.21662 -0.478847,-2.43251 1.18603,-7.30183 -2.565087,-7.22718 -2.839903,0.75837 -4.934678,-0.85074 -7.794674,-0.42093 -3.318507,-0.25669 -7.01217,0.42482 -10.102134,-0.40341 -3.399396,-2.82347 3.566169,-3.48565 4.429789,-1.68642 3.157451,0.38747 4.661188,-1.5414 7.194279,0 1.383766,-2.05941 4.277664,1.73349 6.461199,-0.6514 0.977379,-2.06727 1.085047,-6.1506 -0.20266,-7.74004 0.752453,-3.37623 -1.872188,-4.92611 0.987848,-5.36792 -0.123087,2.05199 0.809337,4.06628 1.308961,6.19274 0.495682,2.43805 0.858328,5.77028 0.675603,8.05616 0.807672,1.58652 1.041533,5.24329 0.456669,6.80554 0.10502,2.30644 2.537461,6.20782 0.586396,8.96464 -1.068777,2.34062 0.980942,6.48895 -1.043059,8.0418 1.077822,2.35523 -0.768846,3.41169 0.57232,6.50207 3.811233,1.15853 1.740917,-2.93526 3.34898,-4.2878 0.163372,-2.61232 -0.02213,-5.46664 0.944005,-7.63725 -0.702224,-3.18309 1.135933,-4.86846 0.53895,-8.20135 0.410228,-3.02345 -0.902183,-6.63858 0.794939,-9.19077 -2.409749,-1.75744 1.143197,-7.06278 -2.618852,-7.69942 -1.290887,-1.82438 0.0087,-4.81043 -1.79597,-6.27563 -0.841671,-2.83251 -2.085594,-6.026038 -3.405723,-8.771584 -0.245496,-1.699626 -1.443949,-3.196561 -2.026596,-4.778624 -0.298428,-2.222177 -2.220377,-4.542967 -3.377659,-6.4501 -0.768988,-1.855403 -2.308626,-2.874573 -2.161702,-5.241607 -1.910469,-1.510146 -3.57694,-3.330415 -3.377655,-5.909514 -2.035256,0.334536 -4.648206,-4.912352 -5.404255,-1.374021 0.261912,3.357631 -3.440144,2.845032 -3.107447,-0.626415 -1.131588,-0.813493 -3.442501,0.176561 -4.612589,-1.258603 -0.06775,2.121125 -2.854033,1.570532 -4.518442,2.530219 -1.77665,1.270828 -4.489816,0.809395 -6.173385,2.079893 -2.342257,0.576307 -5.597176,0.361114 -7.292,3.089665 -3.66153,2.931026 1.919151,2.420601 3.062768,3.348495 3.860627,1.75277 -3.07444,1.14983 0.184516,3.424565 2.385444,-0.809396 4.254769,-1.804807 6.861515,-1.080851 1.494319,-1.774154 4.284368,-1.663231 6.469809,-2.431915 3.104458,0.325751 4.797457,-1.401937 8.084443,-0.810638 4.197244,0.08214 -1.207259,-6.443134 1.318362,-4.124598 2.4213,-1.349017 2.755552,2.35023 3.910743,3.810771 1.957281,4.541061 0.908926,2.346899 -3.090499,2.205348 -3.267271,0.271171 -6.918965,-0.708491 -9.794477,0.823693 -2.671389,-0.502593 -4.203571,1.604465 -6.154652,2.800083 -3.950227,3.065408 2.692024,6.33345 2.286477,9.792664 2.268392,2.515138 6.237318,0.620198 9.285449,1.113201 2.914414,-0.340627 6.419848,0.457397 8.968491,-0.587918 2.146365,-2.129163 5.193569,2.038943 1.062103,1.460411 -3.106346,0.378647 -4.130618,-1.541135 -6.655176,0.139648 -2.392169,0.975974 -4.948845,1.10396 -7.936308,0.941203 -3.010928,1.303566 -2.815102,5.049509 -0.671408,7.361909 -0.36314,2.83416 1.917021,3.85142 1.621276,6.63925 1.301974,1.56827 2.120618,4.28743 1.812809,6.85783 0.01,3.66902 -1.556687,-2.93759 -2.023205,-4.06906 0.04058,-2.96899 -2.114629,-4.30159 -1.6811,-7.26631 -1.760764,-1.59177 -1.324073,-3.76881 -1.983344,-5.98658 -2.045688,-2.372508 -3.380451,-5.533645 -4.771963,-8.029553 -1.853885,-2.011399 -2.323119,-3.409762 -3.601116,-5.131205 -1.680284,-3.347407 -3.775361,-3.4617 -5.460282,-5.935113 -1.300956,-1.085423 -4.554078,-3.770949 -5.530096,-2.26105 0.26501,2.582656 2.860374,2.305853 3.647872,4.728772 1.232694,2.518751 3.753441,2.967759 4.658897,5.83957 -0.258347,1.580971 5.144553,3.690031 2.183234,4.008975 -1.783515,1.728239 -2.008493,-3.016926 -3.164616,-4.293757 -3.391199,-1.453695 -3.560687,-5.789848 -6.878193,-6.73869 -0.323857,-1.989078 -5.31209,-4.156407 -4.365273,-0.72643 2.324796,0.615317 4.3343,3.203678 5.35764,5.114004 1.655043,1.890905 3.748225,3.447342 3.694487,6.029937 1.518406,1.570458 1.950431,4.998286 0.51643,1.835574 -1.727559,-1.629526 -2.809711,-3.204238 -3.921003,-5.103541 -2.966979,-2.355268 -5.108296,-6.615092 -8.881855,-7.195815 -2.744059,-2.297454 -4.90922,0.859539 -1.006756,1.351064 -0.312722,2.273888 4.573997,2.161808 3.26985,5.387865 -0.03492,0.793807 -3.853677,-2.269487 -5.295558,-3.894821 -0.489283,-2.583388 -3.749662,0.732587 -2.515152,-3.110845 -1.46361,-2.345451 -2.326617,1.249998 -3.703265,1.259389 -1.512197,1.724322 -4.634659,1.926767 -5.754182,4.011554 -1.391133,1.869561 -2.048854,4.234651 -3.416767,6.121777 -0.372347,2.24988 -1.967979,4.473569 -2.257714,6.686939 -0.0139,2.28229 -1.607808,3.8226 -1.621277,6.10509 -1.110725,2.02605 -0.274601,5.3903 -1.621276,7.25417 -1.489571,1.5706 1.434031,5.19894 -0.09575,7.35543 -1.019295,2.32253 -0.171017,5.92874 -0.444674,8.76379 -0.471653,3.31242 0.549217,5.59893 0.810638,8.40745 -0.211165,3.10582 0.06449,5.72481 0.810639,7.87331 1.077589,2.07791 1.150431,4.79654 1.891489,6.95337 0.671871,2.38495 1.916796,4.7848 2.026596,7.29575 2.719391,2.91558 2.249071,6.89786 4.635517,9.46926 0.871831,2.36214 2.163845,3.67878 1.714483,6.5169 -1.817688,0.54502 -3.657731,-3.63258 -3.512766,-5.92212 -2.783716,-2.21162 -0.345277,-6.22808 -3.512778,-8.23872 0.620142,-2.47435 -1.883705,-3.0789 -1.621277,-5.47737 -0.168626,-2.37649 -1.701606,-3.81517 -1.621276,-6.36278 -1.545591,-1.83912 -1.158634,-5.2503 -2.283934,-7.7075 -1.2869345,-2.23122 0.435343,-5.94732 -0.823513,-8.2181 -0.9763573,-2.77828 -0.1186764,-6.41783 -0.4053192,-9.52 -0.5265228,-3.23723 1.0513742,-4.95902 0.6755322,-8.08774 0.200447,-2.72337 0.649163,-5.05338 1.057806,-7.77313 0.416892,-2.05691 1.40158,-3.84717 1.239002,-6.1762 1.855234,-1.39581 1.010209,-4.4917 2.431915,-6.521977 1.280666,-2.389757 0.38992,-4.912208 2.90986,-6.688811 2.050816,-1.682546 2.797459,-4.6846 5.601844,-5.498921 1.673158,-2.485198 4.359544,-2.357155 6.241026,-4.306779 1.714671,-2.21008 5.222636,0.05337 6.905426,-1.870794 2.798496,0.568226 2.710807,-4.048933 5.995007,-3.272727 1.716435,-0.860314 3.447823,-1.688789 5.599968,-1.621277 1.421259,-1.189518 3.453484,-1.258137 5.139608,-2.431915 2.64346,-0.04539 4.632053,-0.464863 6.798965,-1.621277 2.786313,0.04384 5.008264,-1.874655 8.06183,-1.096796 2.658152,0.01971 4.856389,-1.408976 7.732395,-1.074425 1.190388,-0.876259 6.991186,-3.223912 5.258347,-0.572074 -4.128153,1.10253 -0.628237,4.994167 1.262134,6.526308 0.589657,1.941084 3.837295,2.257931 5.368573,0.668865 3.907003,-0.05244 7.814006,-0.104877 11.721009,-0.157323 -1.691085,2.587459 -5.986124,0.02567 -8.028107,1.515053 -2.379891,0.415493 -5.385661,0.699502 -7.867714,1.48617 -0.888023,1.518904 3.457389,2.689421 2.906168,5.240637 2.279874,1.636082 0.792772,4.890494 3.56777,6.270116 1.258224,1.86129 1.614306,4.298112 4.153634,5.242436 2.447881,-0.414666 4.705773,-1.3329 7.489888,-0.88338 9.2058,-0.02079 18.41161,-0.04157 27.61741,-0.06236 -1.0101,1.795258 -5.54619,0.858913 -7.22034,0.135103 -2.40022,0.897695 -5.15439,0.930627 -7.94593,0.843108 -3.72463,0.03421 -7.44927,0.06843 -11.1739,0.102642 -1.65769,-2.271262 -4.029028,0.924848 -5.582318,1.351059 -1.93458,0.522946 -3.206298,2.766855 -3.340269,4.662551 1.05807,1.531058 1.645984,4.221018 1.351064,5.740638 -0.336862,1.70466 1.730322,4.2255 2.128882,6.0829 -0.07075,2.90021 1.415673,4.78689 4.273071,4.60042 5.79492,0.23588 11.89595,-0.37515 17.50148,0.38473 -1.31493,1.52708 -8.84957,0.46272 -12.46218,0.80477 -2.60024,-0.36228 -4.68148,0.63567 -6.76667,1.20704 -4.020962,0.40579 -0.791298,3.96581 -1.702253,7.07791 1.876893,2.38433 5.347063,0.76935 7.854833,1.88697 2.19341,1.23533 5.78711,-0.72232 8.01617,0.43171 2.32935,1.17074 5.68441,0.15732 8.40659,0.49154 3.317,0.28619 4.65309,0.13154 8.09373,0 4.50996,0.28071 0.59299,2.23433 -2.0576,1.89142 -1.82032,-1.45032 -5.2372,-0.57787 -7.89441,-0.81063 -2.12275,-1.25883 -5.34474,-0.77675 -8.31175,-0.7373 -2.75862,-0.29391 -6.54435,0.97546 -8.44727,-0.61377 -2.83212,-1.28453 -8.643719,1.46523 -4.03506,2.86218 3.22261,0.026 6.49899,-0.0223 9.43063,0.65051 4.8771,0 9.75421,0 14.63131,0 1.77016,1.96104 6.01449,0.2465 8.78407,0.72281 3.87749,-0.0755 7.75497,-0.15091 11.63246,-0.22636 1.55752,0.63625 4.37807,0.16825 5.87486,0.44929 1.49904,-1.39308 6.62775,1.94507 4.08704,-1.98567 -2.71718,-1.42027 -6.47705,-0.19099 -9.61073,-0.55289 -3.44705,0.0315 -6.8941,0.063 -10.34115,0.0945 0.95061,-2.2153 9.63099,-0.77503 13.84811,-1.20378 1.08778,-2.48113 7.10416,1.08488 6.64707,-2.38831 -3.70151,-0.49536 1.86182,-3.36737 -0.67551,-4.63755 -1.83786,-2.01465 -0.86033,-3.90685 0.40534,-5.50167 0.36992,-1.53896 -1.06608,-4.26697 -1.21595,-6.37266 1.97411,-1.54656 -2.691,-5.62064 1.59973,-5.6892 -0.86276,2.33585 2.07371,4.49259 0.29176,5.94468 0.12037,2.21931 2.23053,3.01208 1.62127,5.51406 0,4.71788 0,9.43577 0,14.15365 -0.41345,1.82658 -1.15436,4.91121 -0.72763,7.99539 0.26706,2.38861 -0.397,5.28769 0.99787,7.07517 -0.47282,1.79754 -0.004,5.12893 -2.29681,5.11811 -1.09257,2.72781 -0.0613,4.5809 -0.9458,6.36418 0.20921,2.77621 -1.52631,4.29665 -1.35106,7.12725 -0.67566,1.83512 -1.66419,3.81314 -2.64809,5.81335 -0.008,2.23359 -1.4648,3.8634 -1.62947,5.95854 1.2498,2.98195 0.94079,-1.34067 3.26571,1.64617 5.65185,0.403 -1.3764,-0.23208 -3.25555,0.56908 -2.75245,-0.47559 -5.27167,4.0959 -1.76894,1.8614 -0.90306,3.44508 2.27565,6.06174 -2.38851,5.06659 -3.06162,-0.62289 -5.09092,1.22508 -8.02787,0.85604 -4.00762,-0.64537 -5.58579,1.34008 -9.56049,1.02951 -3.23639,1.30256 -10.8052,-0.98497 -4.14442,-1.84015 2.48989,0.53326 4.76644,0.73738 6.49191,0.81064 2.34763,-0.48985 3.7765,-2.55973 6.95826,-1.89149 -0.20351,-3.15528 1.19666,-0.0212 3.14313,-1.24553 0.52519,0.64023 5.04678,0.80006 4.37709,-2.31649 -0.23069,-3.32134 2.46994,-1.17149 2.17194,-4.48719 1.12945,-1.85497 1.90947,-3.86238 2.42167,-5.68799 1.24436,-1.3496 2.3304,-3.9987 2.83724,-5.98833 0.92201,-1.39209 1.9457,-4.20302 0.37916,-5.40426 -0.38858,1.11283 -1.31,2.88876 -1.32491,4.80601 -1.46152,1.58976 -2.09038,3.52025 -2.78319,5.79534 -3.08858,3.06536 -0.19775,-0.99898 0.0811,-2.39071 0.40045,-1.96776 1.62207,-3.37108 2.0266,-5.33601 1.38892,-1.71843 0.74261,-4.06224 1.87902,-6.19319 1.21943,-2.40502 -0.0717,-5.35656 2.36991,-7.12262 -0.15351,-2.75912 1.20518,-4.7663 1.02022,-7.52409 0.18874,-4.89583 -5.59598,-0.36817 -7.97826,-1.51905 -1.63506,-1.61406 0.19443,-1.74674 4.27187,-1.76048 2.65714,0.40725 5.07844,1.63959 4.24677,-2.42612 -2.45775,-1.97588 -5.15761,-1.85919 -7.31437,0.16213 -2.92618,0.32197 -5.51503,-0.24947 -8.04478,-0.82326 -3.05203,0.31622 -5.79766,-0.0202 -8.53651,-0.52773 -4.71551,0 -9.43101,0 -14.14652,0 -1.74191,-1.82316 -5.77732,-0.30966 -8.42804,-0.81064 -2.3198,-1.82947 -6.39628,0.85469 -8.59243,-1.37983 -3.657953,-1.40218 -4.472856,3.38277 -0.637911,3.00114 2.891201,-0.46218 5.123081,0.73295 7.831501,0.58201 2.74737,-0.37889 4.54505,1.45894 7.49946,0.76911 3.15657,-0.28388 5.40253,1.38968 8.72233,0.87181 3.10747,-0.27777 5.53554,0.46366 8.30007,1.00671 3.36178,-0.61751 9.07507,-0.72171 11.89946,0.23918 -0.36952,2.95773 -5.17047,-0.58166 -5.63964,1.14073 -2.29537,-2.45369 -7.21374,0.79012 -9.91777,-0.67677 -3.5749,-1.03133 -7.85667,-0.28263 -11.69778,-0.64358 -3.48132,-1.47076 -7.76101,-0.33903 -11.80397,-0.51371 -2.25904,-0.0346 -7.25512,-2.70622 -7.588903,1.21475 2.853663,1.55884 6.317743,0.0369 9.026453,1.11224 1.88526,1.5835 5.77052,-0.44746 7.31844,1.22255 2.67834,-0.11244 5.38038,-0.44227 7.30599,0.88121 3.0688,0.13902 8.05667,0.3124 2.1899,0.29137 -2.90758,-0.1125 -6.34407,0.57547 -8.44291,-0.74177 -2.85064,-0.30963 -6.27759,0.60798 -8.7809,-0.44127 -2.2309,-0.87602 -5.21503,0.35047 -7.26826,-0.94358 -4.673794,-0.78035 -1.837869,5.04111 1.72446,2.86961 2.76255,-0.15524 5.04866,1.26067 8.08739,0.67699 2.20149,1.2192 5.2025,0.73585 7.94141,0.81064 2.65383,0.91398 5.77429,0.68916 8.87368,0.57709 3.16937,-0.34438 5.65431,0.49844 8.36065,0.18105 2.91848,0.58764 5.13774,0.0371 8.16358,0.23707 2.41359,-0.58934 14.5555,-0.35525 6.83219,0.35613 -3.39218,-0.45867 -5.77396,0.55259 -8.67349,0.81064 -3.59682,0 -7.19363,0 -10.79045,0 -1.93925,-1.60234 -5.93632,-0.14428 -8.68645,-0.54066 -3.30681,0.22773 -4.87221,-0.99144 -7.66915,-0.85018 -2.70964,-0.20153 -6.29125,0.47516 -8.48701,-0.24409 -2.34672,-0.42893 -5.412063,-0.0147 -7.506359,-0.7969 -3.311582,1.21123 4.878679,2.16747 -1.140444,3.36272 0.187808,2.36242 4.040747,2.16312 6.219063,2.31177 2.10686,1.18074 4.25264,1.35442 6.70332,1.62128 2.40457,0.55714 4.79782,1.13841 7.61795,0.81064 2.72514,0.17773 4.95521,1.26012 7.98887,0.64306 2.94304,-0.1994 5.74575,-0.34358 7.54837,0.708 5.17769,0 10.35537,0 15.53306,0 2.78018,-1.24593 1.66058,3.7012 -1.47073,1.54021 -2.34358,-1.68638 -4.36612,1.18978 -6.98038,0.35128 -2.60663,-0.34362 -6.25364,0.82634 -7.97126,-0.81064 -2.58131,0.11289 -5.16094,0.09 -7.30656,-0.76058 -2.8066,0.51388 -5.81758,-0.26684 -7.57498,0.28747 -2.96209,0.23238 -5.44679,-0.3899 -8.08037,-0.71782 -2.46397,-0.34497 -5.30108,-0.46857 -7.40113,-1.78148 -3.851503,-0.83432 -3.720199,-0.39991 -4.779717,3.09972 1.208182,1.56173 3.903725,1.64885 6.456557,1.4939 1.78495,1.70005 5.75731,0.21778 7.74609,1.62128 2.86885,-0.67522 4.4478,1.43102 7.23318,0.75406 3.28969,-0.64563 5.6031,1.06784 8.9446,0.69773 2.80151,0.17642 5.8944,-0.16231 8.19337,0.98012 2.92996,0.56164 4.6705,-1.40952 7.61794,-0.81064 3.6197,-1.15769 8.01745,1.88018 1.70061,1.75704 -7.2472,0.138 -14.49608,0.10111 -21.74418,0.13448 -1.6763,-1.85209 -5.70706,-0.13721 -8.33755,-0.54372 -2.51029,0.0273 -4.44317,-1.39367 -7.27211,-0.80734 -2.55099,-0.33299 -4.85281,-0.44047 -7.118295,-1.59824 -2.597699,-0.79604 -4.861896,0.79903 -3.871045,3.62483 2.860131,-0.43441 4.563645,1.47452 7.38721,0.94581 2.2693,0.24284 4.38493,0.81292 6.56083,1.25462 2.34629,1.0083 5.63622,-0.10361 8.33143,0.12072 1.75373,1.24746 5.16723,-0.0271 6.48123,1.597 2.45755,-0.59679 4.98515,-1.0628 7.7781,-0.81765 4.43564,-0.0427 8.87127,-0.0853 13.30691,-0.12803 -1.77249,3.28884 -5.96829,1.07304 -8.55189,2.51926 -1.22604,-0.50627 -4.65051,-0.62109 -6.96131,-0.49266 -3.163,0.28911 -5.79917,-0.18824 -8.33564,-0.81064 -3.05675,0.65021 -4.84942,-1.44689 -7.82,-0.61679 -2.15624,-0.85509 -4.13564,-0.43767 -6.17319,-0.73427 -2.72443,0.55627 -4.55022,-0.80106 -7.00892,-0.81064 -2.011147,0.30795 -5.767389,-2.40082 -6.616037,0.31804 -0.696158,3.58212 4.871076,0.6079 6.425517,2.25846 2.20378,1.02022 5.87072,-0.32588 7.6564,1.20653 2.10135,0.9021 4.52846,0.84497 7.10678,0.57445 2.75067,-0.0559 4.93828,1.38877 8.02932,0.77661 3.08682,0 6.17363,0 9.26045,0 1.50498,2.0437 5.23353,0.17937 7.60702,0.6966 5.05738,-0.13974 -1.24265,2.92302 -3.47197,2.2377 -5.13808,0.16046 -10.30075,-0.12857 -15.44825,-0.14037 -3.09223,-2.10938 -7.74041,-0.37595 -11.34648,-1.21554 -3.21586,-0.19138 -6.75783,0.17431 -9.447668,-1.03796 -2.839753,0.55382 -4.938812,-1.39052 -7.763645,-0.68609 -1.165213,1.74736 2.871562,2.21383 4.57448,2.03723 3.024582,-0.45277 4.447973,1.42394 7.582893,0.81064 1.76303,1.89839 5.1053,0.20272 7.53729,0.58037 2.47602,0.37487 4.87938,1.16878 7.77756,0.77069 2.98744,0.58505 4.57928,-0.37371 6.94672,0.81064 0.88143,-0.9418 5.75627,1.32583 6.88778,-0.81064 1.47102,1.79028 5.81794,-0.69146 6.15707,1.4985 -1.78289,1.34127 -2.3697,2.9857 -2.567,5.12172 -5.05253,0.33444 1.60145,-4.28286 -3.96033,-2.86656 -2.50672,-0.36611 -4.9422,-1.20027 -7.88748,-0.78135 -1.55714,-1.75008 -3.5473,1.11333 -6.24339,-0.068 -2.66434,1.21373 -5.28462,-2.14154 -6.63327,-1.01283 -2.68935,0.10653 -4.30635,-1.23799 -7.11699,-0.273 -3.09751,0.55263 -5.18506,-0.6643 -7.794953,-0.89892 -2.515145,0.11568 -4.460142,-1.26004 -7.146842,-0.61585 -3.402745,1.01832 1.658255,3.98736 3.789878,2.93637 1.112068,1.73846 -3.750175,0.38402 -4.746217,-0.58433 -1.926682,0.42421 0.379044,-4.7744 -2.946957,-0.75998 -1.482142,2.86225 1.085559,5.11942 4.018272,4.51992 1.862227,1.02712 4.407565,0.48275 6.446032,1.21596 2.456754,0.18323 3.345497,0.15794 6.470797,0.30881 2.92581,-0.67505 4.87887,1.30839 7.90663,0.63693 3.39281,0 6.78563,0 10.17844,0 1.37798,2.37686 -4.97378,0.46773 -6.7767,1.08085 -2.66001,-0.51331 -6.74542,1.04711 -8.47948,-0.81328 -2.66724,-0.41939 -6.590561,1.41957 -8.410865,-0.52253 -2.981832,0.32381 -5.270469,-0.35148 -7.701087,-0.82589 -2.821936,-0.99051 -6.985316,1.19994 -2.439024,2.1617 1.402935,1.59504 4.761419,0.30003 6.602891,1.63023 5.247751,0.17987 10.495255,0.36694 15.742575,0.55884 1.4334,1.82268 7.38732,0.76144 3.28462,2.67476 -2.20258,-0.46694 -3.74575,-1.22922 -5.98221,0.10552 -5.65386,0.066 -11.307723,0.13204 -16.961585,0.19805 l -0.316666,-0.38277 z m 7.957434,-1.36774 c -1.36996,-1.47102 -5.476803,0.18085 -7.31416,-1.49219 -1.57191,-0.0499 -8.210981,-0.0997 -5.105405,1.35694 2.842305,-0.14159 4.84592,1.44756 7.914575,0.74974 1.128691,-0.43337 4.369717,0.72891 4.50499,-0.61449 z m -23.828641,-2.0037 c -0.660808,-2.38349 -4.167462,-2.03784 -6.300082,-2.86079 -2.262582,-0.74049 -4.535915,-0.8954 -6.657603,-1.62128 -3.636129,-0.28024 -3.073324,-2.56389 0.408115,-1.14842 2.12767,0.82596 4.824526,0.99903 6.88763,1.68883 2.196029,0.17165 4.342722,1.63615 6.38739,1.72449 0.313417,-3.31281 -3.768104,-2.75494 -5.306539,-3.88686 -2.521201,-0.80928 -4.977132,-0.81088 -7.589941,-2.56702 -4.033777,-2.04582 3.151903,-0.38151 4.39512,0.8659 2.361045,0.34134 4.518196,0.15742 6.423417,1.83619 3.43041,1.6992 8.421368,-2.56617 3.809167,-1.63701 -1.270077,-0.50756 -4.06336,-1.42666 -6.297989,-1.33533 -2.047476,-1.04402 -4.378892,-1.76135 -6.843415,-1.89149 -3.602346,-1.55606 0.195304,-1.93283 2.103745,-0.68412 2.177988,1.30102 5.030952,0.86577 7.207384,1.70598 1.891022,2.58275 4.773916,-2.12089 6.819403,0.25107 2.516454,0.10272 3.19823,-2.44241 3.656306,-3.98865 2.792546,-1.78083 2.941062,-3.51857 3.637648,-6.21237 1.614215,-1.80153 1.816297,-4.10637 2.03682,-6.48379 0.531843,-5.26856 -4.023455,1.63733 -8.006027,-0.80046 -3.051063,0.0325 -5.1061,-1.38402 -8.528938,-0.81064 -2.866552,-2.31182 -3.289837,1.80846 0.333757,1.50011 2.572023,0.43182 4.950438,0.80089 7.483858,1.23297 2.099772,0.52483 6.455765,-1.35581 5.777633,2.13071 -2.819143,-0.29269 -6.1782,0.56435 -8.679431,-0.40532 -2.305339,-0.80021 -4.793851,-0.19032 -6.532155,-2.00356 -1.339077,0.31816 -3.738635,-0.70235 -2.46478,2.00356 2.214915,0.69562 4.329617,1.45149 6.807588,1.75709 2.522992,-0.34343 4.170448,1.42687 6.806435,0.81064 3.376008,0.73632 1.603497,3.61897 -1.802216,2.70213 -1.676195,-1.33958 -4.659233,-0.77793 -6.676521,-1.62128 -2.337004,-0.35893 -4.389086,-0.38143 -6.462181,-1.67696 -0.997359,-2.87398 0.829033,-4.57016 0.596108,-7.24006 -2.201483,0.73917 -3.127646,3.37522 -4.188292,4.96155 -0.723885,2.58642 -1.51761,6.07297 -3.647905,8.2813 -1.017942,2.15893 -3.446304,3.63069 -3.377667,6.34755 -1.689891,0.16005 -3.351735,4.54768 -1.460206,5.60718 0.759968,-1.54136 3.034244,0.68002 4.563476,0.74286 2.219875,0.41125 3.78584,1.56294 6.027528,1.62127 2.650094,0.006 4.679778,0.86774 7.006839,1.59456 l 0.444592,-0.0721 1.201895,-0.41866 z m 3.427578,-11.58005 c -1.449222,-2.30937 -4.433904,0.76536 -5.898948,-0.52744 -2.753491,-0.0483 -4.345583,-1.14937 -6.553366,-1.96647 -3.751129,0.21718 0.113988,-3.79751 1.439763,-1.08085 3.313572,-0.51837 4.987351,1.34889 8.314593,0.81064 1.01536,0.4664 6.726703,2.11228 5.292,-0.54043 -2.70124,0.35648 -4.580609,-0.93066 -7.037112,-1.16192 -2.287256,-0.61988 -4.632487,-0.7362 -6.950943,-1.35291 -3.367158,-1.69409 2.26112,-2.66493 3.580376,-0.99791 1.849767,1.2854 5.328459,-0.0214 6.715832,1.62127 2.227429,-0.0169 7.436689,-0.31246 5.421216,2.21745 -0.67579,2.97341 -1.690207,2.89141 -4.323407,3.52316 l -4e-6,-0.49678 z m 13.733415,-2.62902 c 1.997201,-3.72088 -0.656247,-3.34923 -1.692887,0.12178 -1.619304,1.30299 2.577839,1.69815 1.692887,-0.12178 z m -4.052566,-15.75476 c -0.01426,-3.01449 -4.607019,-0.28792 -6.078656,-1.81614 -2.317677,-0.64946 -6.506917,-0.63901 -8.400777,0.22865 0.880728,1.19041 3.668173,1.68225 6.014529,1.53476 3.279638,-0.50552 4.838237,1.42455 8.166112,0.683 0.411591,0.13665 0.225828,-0.39058 0.298792,-0.63027 z m 66.464724,28.9294 c 2.3552,-0.79437 4.8819,-0.54082 7.26489,-1.77943 1.70421,0.22333 7.35662,-1.46112 4.53375,-2.36654 -4.62684,0.34446 0.54172,-1.11458 2.34922,-1.4086 2.43755,-4.74363 6.90414,2.37301 6.98307,-1.43639 1.74498,-2.35683 3.79111,-5.23723 4.84074,-7.89875 1.84939,-1.58271 0.93645,-4.00024 3.16541,-5.5996 0.28059,-1.83629 1.98306,-3.52185 3.61291,-5.08962 0.42662,-2.39823 0.97504,-4.30004 1.75638,-6.20293 0.32692,-2.74795 1.76906,-4.76713 2.09832,-7.65108 1.53128,-1.43871 -0.24435,-6.88621 1.61211,-6.64443 1.12624,3.8071 -0.72086,6.01457 -0.60268,9.3569 -1.07652,1.8069 -1.53767,3.41293 -1.62128,5.62457 -1.41674,1.58612 -1.42624,4.28883 -2.36204,6.10353 0.55914,2.37659 -1.54174,3.9282 -3.31242,5.76794 0.35488,3.199 -5.30589,5.39992 -2.76107,8.07646 2.33372,0.36523 2.50865,-3.06421 4.11213,-4.45851 1.17399,-1.76633 2.32285,-3.37673 2.70213,-5.23325 2.95893,0.0454 1.3437,-4.34168 2.97234,-5.64975 0.0435,-2.51843 1.67956,-3.66151 2.1617,-6.0777 1.66234,-4.25673 1.96193,2.16814 0.22333,3.75792 -1.71706,2.20879 -1.44403,4.72355 -2.79034,6.85279 -1.39821,2.10997 0.0757,5.48543 -2.29682,7.09164 -1.31598,3.5271 -1.62751,0.24001 -3.1075,0.2041 -1.50326,1.6766 -0.14125,5.27067 -2.66352,5.80958 -1.46556,1.3339 -3.56184,0.61781 -4.2385,2.65 -1.58435,1.12022 -3.37997,1.4115 -5.25755,2.07872 -2.15426,0.52383 -3.90865,1.89913 -6.43938,1.62128 -2.03686,1.01458 -4.84626,1.67336 -7.69975,1.91958 -0.43418,1.72857 -9.14212,0.26236 -5.71901,0.60451 z m -27.10196,-0.51769 c 1.66483,-1.65896 5.17556,0.24544 6.36902,-1.98354 4.44623,0.62804 -0.64835,2.97665 -3.01018,2.00897 -1.11465,-0.0677 -2.24882,0.16428 -3.35884,-0.0254 z m -11.92675,-3.46971 c -2.35076,-1.13079 -6.31986,0.2364 -8.87963,-0.67553 -2.19158,-0.92488 -5.57925,0.48116 -7.701063,-0.67553 -6.116588,-0.44127 2.420073,-2.14295 3.968743,-0.083 2.92006,-0.2815 5.5405,0.15249 8.0985,0.75849 2.44498,0.378 6.3929,-0.74695 7.9285,0.54042 0.48385,0.94413 -3.41161,0.73012 -3.41505,0.13519 z m 26.30899,-0.77767 c 1.15954,-2.26818 2.91466,-3.33545 3.79102,-5.42631 -0.55471,1.30424 -1.26993,4.27059 -2.70149,6.13432 -0.48583,0.21072 -1.85345,0.45188 -1.08953,-0.70801 z M 33.3247,176.65449 c -2.483253,-1.18745 -3.665055,-3.80733 -4.998936,-5.81051 -1.691452,-1.21198 -2.124584,-3.05932 -3.512766,-5.16034 0.06503,-3.17081 -2.859183,-4.93829 -3.084402,-7.73328 -1.048984,-1.94529 -0.622347,-4.49022 -2.049641,-6.02163 0.02911,-2.48645 -0.925689,-4.5955 -1.178976,-6.94708 -1.64101,-1.82554 0.10301,-5.49508 -1.523152,-6.68866 -0.294699,-3.10664 0.570099,-6.75777 -0.405319,-9.54474 -1.541926,-1.99183 0.685126,-5.18987 -0.16812,-6.71537 1.139973,-2.47585 -0.593142,-6.19352 0.763626,-8.3782 1.327069,-2.04167 -0.674294,-5.81088 1.431103,-7.64442 0.758096,-2.159 0.233542,-4.90102 1.351064,-6.698241 -0.175436,-2.506931 1.267772,-3.901266 1.621276,-6.044623 3.186622,-0.302405 -1.550049,3.065629 -0.54042,4.881984 -0.175662,2.46669 -0.975186,4.36141 -0.838867,6.6403 -0.625329,2.39508 -1.135388,4.45876 -1.322835,7.00184 0.191524,2.84403 -1.585683,4.65459 -0.810334,7.74776 -1.372737,2.82144 -0.06116,4.82097 0.299194,8.53344 1.642202,3.1116 4.640419,1.84358 6.856723,0.94574 -0.894253,1.59977 -3.581966,1.49479 -4.454112,3.51277 -1.299891,1.97068 -1.55217,6.20391 0.462931,7.85757 2.364425,0.90498 6.178077,-2.51999 7.063533,-1.83264 -1.703626,1.84228 -4.513167,2.19821 -6.040294,3.92014 -2.135232,0.10977 -3.247632,3.98329 -1.509211,5.5032 -0.556995,3.16084 1.015952,4.83627 0.833678,7.7313 1.506166,1.43129 1.033414,4.22282 2.431915,5.72811 1.640637,1.72272 1.884823,5.79333 4.158356,5.81384 1.181861,1.76223 2.136714,4.13827 4.940666,2.70228 2.112754,-1.28837 2.501987,-2.70023 4.517212,-4.49483 0.896579,-1.80461 1.548091,-3.33688 2.492331,-4.93713 0.270178,-1.76315 1.892216,-3.86255 1.794635,-6.13584 1.274261,-1.45342 1.477529,-3.53502 1.848314,-5.0921 1.096721,-2.77238 1.342049,-5.20889 1.530672,-8.11811 -0.339701,-3.0119 0.301378,-6.4364 -0.659551,-9.18695 -1.30076,0.0683 -3.708511,1.25728 -5.53318,1.70235 -2.042103,0.69565 -3.201717,2.4786 -5.279547,2.89119 -1.800198,-0.34485 4.14261,-2.76358 5.078649,-3.51279 1.973562,-1.45958 6.40082,-1.04592 6.18804,-4.43503 -2.015857,-1.53621 0.825739,-6.51516 -2.883494,-5.86035 -4.15154,1.37923 2.691705,-1.90075 2.072852,-4.02082 -0.139952,-2.50042 -1.33763,-4.50413 -0.810639,-7.31775 -1.273088,-1.45405 -1.516142,-3.73789 -2.247827,-5.8743 -2.215861,-2.0385 -2.553823,-5.37544 -3.967066,-7.619376 -1.681954,-3.36479 -2.766733,-4.982028 -5.714954,-7.024762 -1.251876,-1.526338 -5.899105,-1.295737 -6.198312,0.810638 -2.136761,2.233657 -3.198477,-1.713205 -0.75767,-2.859253 2.164688,-2.451295 5.814275,-1.582056 7.614652,0.916998 2.15765,1.208949 4.228058,3.251194 5.326501,5.319915 1.34203,1.723821 1.62706,3.479742 2.814189,5.25002 1.69164,2.12926 1.322812,4.81416 3.054894,6.77788 -0.216628,2.52984 1.918661,4.77429 1.967087,6.89116 -0.579899,3.32724 0.911708,5.2306 0.810638,8.2287 -0.407012,3.14891 1.456243,4.73732 0.810638,8.05023 -0.186448,3.61574 0.373428,7.64756 -0.270212,11.0084 -0.293598,2.69962 -0.375065,5.39684 -1.080852,7.75513 -0.720605,2.03404 -1.330664,4.75906 -1.960368,6.75277 -1.520558,1.78867 -0.972738,4.68046 -3.612078,6.19255 0.112297,2.62341 -0.689484,4.43485 -2.888995,6.21374 -0.515962,2.09773 -3.257419,2.23937 -4.631437,4.56727 -0.821783,2.88387 5.295035,2.57931 5.526921,0.13947 1.169914,-2.26649 3.971392,-3.92376 4.965351,-6.20631 0.170721,-1.86284 2.632704,-3.62099 3.218381,-5.3348 0.277895,-0.73437 -0.64221,3.62878 -1.428409,4.31383 -0.505385,2.46584 -3.53655,4.91073 -4.623084,6.54571 -2.041839,1.30487 -2.439205,2.61544 -4.655623,4.11251 -0.491999,0.48342 -1.561836,0.22717 -2.205339,0.2895 z m 118.38697,-3.26648 c 1.7719,-2.2014 4.29681,-0.54153 7.13104,-0.86533 2.4855,0.0417 5.2828,-0.59086 6.70233,-1.41862 -1.65051,-1.46012 -5.63272,-0.26924 -8.1769,-0.71331 -4.39561,-0.0302 -3.28952,-1.21577 0.28113,-0.2999 2.955,-0.56845 7.06678,1.41718 8.92812,-1.56595 3.89404,-1.15384 4.24566,1.26475 1.71861,3.47534 -1.83806,0.96307 -4.69411,2.023 -7.39446,1.60341 -3.01186,-0.14652 -6.38707,0.29742 -9.18987,-0.21564 z m 11.18005,-5.05359 c -2.02055,-1.31653 -6.39226,0.5616 -7.8226,-0.89979 0.27932,-3.10941 4.79775,-1.68737 7.14712,-2.1392 0.70254,2.83842 7.25144,-1.74916 4.27818,1.05308 -2.34092,-0.86354 -1.04568,3.88308 -3.6027,1.98591 z m 7.34979,-1.27 c -1.61187,-1.94977 1.00336,-4.4454 -2.56463,-3.99915 -2.1654,-0.0891 -7.05015,0.51225 -6.85541,-1.04969 3.34544,-0.60396 5.26332,0.87151 8.27652,0.77954 2.33682,0.9767 7.03143,-1.57155 2.18329,-1.35106 -2.66361,-0.27207 -4.8397,-1.2534 -7.99466,-0.81064 -1.44238,-1.80582 -5.9221,0.49339 -6.07938,-2.21529 1.55596,-0.85203 5.34885,1.99367 8.34261,1.03942 2.8967,-0.48079 4.96888,1.17225 7.729,0.90569 4.61922,-1.03193 -0.80093,-1.16145 -1.94994,-2.16171 -2.96937,0.43371 -5.30797,-0.47578 -7.91643,-0.81063 -1.9941,0.37277 -7.80776,-2.48033 -4.23927,-2.16178 1.6078,1.63456 5.04125,-0.095 7.02774,1.47161 2.06292,3.04532 4.47537,-0.46255 7.02804,0.14967 2.06695,1.99374 4.07097,0.0952 5.99495,-1.02821 2.49615,2.48006 2.64842,-1.85301 0.17042,-2.76179 1.71644,0.20189 3.50111,-0.14072 4.8442,-3.28408 -1.98242,-2.80109 -4.08785,1.75516 -6.46448,-0.31988 -1.71815,-3.21933 4.13666,-0.30569 5.65384,-2.08259 -0.25776,-3.02222 1.90198,-3.86739 -2.95791,-4.15188 -1.82391,-0.71502 -3.86182,0.57467 -5.91219,-0.37795 -4.42916,0.0288 -8.85827,-0.0237 -13.28735,-0.0447 -1.04769,-2.12362 -1.00433,-3.14017 0.0144,-5.47002 1.19358,-2.66653 0.45147,-4.63499 3.12835,-2.36616 3.91298,0.25895 8.29977,-0.51155 11.92281,0.37736 1.43851,3.26206 -7.00421,1.33692 -9.49978,1.08951 -4.13177,-2.37207 -5.53376,1.78262 -3.09702,3.12677 -3.52842,4.41696 8.64224,1.30638 12.04085,2.06575 4.89833,1.11295 3.11469,-2.21174 6.68894,-1.5779 5.46864,1.44876 4.68298,-3.60743 0.70382,-2.80226 -2.19502,0.36203 -5.97999,-1.23 -2.15359,-2.27941 2.78578,0.3849 7.23645,0.0215 2.98734,-2.68684 -2.17006,-1.77589 4.32737,-1.89028 2.03405,-3.42924 -2.60452,0.48697 -3.94693,0.69616 -6.47365,-0.0987 -3.04813,-0.28022 -6.61581,0.54592 -9.35965,-0.38228 -1.92584,-1.413 -4.19867,0.39204 -6.09891,0.78758 1.24897,4.46162 -2.38705,0.50356 -2.41692,-1.73976 -1.08464,-4.19132 -0.36819,-9.10165 -0.89367,-13.54571 -1.81515,-2.25921 0.18525,-5.6765 -1.60012,-7.85173 -0.47003,-4.25164 3.6964,0.65991 2.74937,2.82927 -0.39849,2.88208 1.3843,4.88724 0.94539,7.71149 0.94165,2.47122 0.96251,5.5108 1.07128,8.44105 1.48174,3.28718 5.12709,1.2621 7.34344,2.2065 2.03448,1.31829 3.99624,-0.42381 5.84038,0.46272 1.84677,-1.87027 5.3189,-0.27941 7.79449,-0.81064 3.34865,-1.93383 -1.59729,-2.59625 -0.18759,-5.99441 -2.58874,-2.86132 -7.28667,-0.29512 -10.48877,-1.63737 -1.99971,-2.67332 2.96793,-0.29731 4.29179,-0.47461 2.36423,-1.77099 6.76168,0.0879 7.30366,-4.54174 1.90129,-0.0901 0.46144,4.8443 1.82659,6.34164 -0.0974,5.11696 0.595,10.46108 0.0269,15.44266 -0.37158,2.13442 -0.5539,4.79332 -0.50247,7.75421 -0.21952,2.08681 -3.43633,3.44798 -2.70213,6.25433 1.15774,0.96597 -0.0556,4.47167 -2.02659,4.55213 -0.55442,2.64875 -1.12389,4.15737 -3.19986,5.85927 -1.89459,1.41375 -3.2832,3.31876 -4.83184,4.0035 -0.96119,1.02979 -2.6014,3.36701 -4.21022,2.64823 z M 47.826506,155.8286 c 0.104516,-2.54335 1.359926,-4.15682 1.92713,-6.58664 -0.0034,-3.45419 1.067486,-6.06027 1.016937,-9.5158 -1.103133,-2.84596 2.554014,-4.87651 -0.06456,-7.20535 -0.247136,-2.88325 0.744283,-6.47527 -0.262817,-8.92362 -1.149832,-2.24578 -0.331954,-5.69653 -0.757609,-8.38578 -0.575593,-2.67875 -0.475465,-5.21227 -2.444926,-7.60593 0.588391,-2.5176 -1.350651,-3.81073 -1.621277,-5.69558 -1.667141,-1.55123 -0.05192,-4.7071 -2.586077,-5.131021 -0.189901,-2.803238 -4.411042,-4.267968 -2.086779,-6.521221 2.601618,2.470078 3.272254,5.317176 5.235991,7.234425 1.285683,2.705787 2.411967,5.212567 3.227527,8.026727 1.142738,2.1851 1.937158,4.21945 1.613665,6.87195 1.516259,1.71734 0.19755,4.77515 1.18395,6.73515 1.192334,2.68672 0.381268,5.64052 -0.103099,8.01803 3.489084,-0.82595 0.221814,2.50823 0.810638,4.61168 0,3.41667 0,6.83335 0,10.25002 -1.658496,1.652 -1.154661,4.25609 -2.258054,6.73684 -0.197125,2.32413 -1.41251,4.01617 -1.795207,6.18956 -1.519251,0.23058 -0.741084,4.68218 -1.035434,0.89656 z m 118.352214,-1.56885 c -2.32351,-0.63947 -5.15074,0.0697 -7.2413,-1.19235 0.29149,-2.53037 6.16957,0.43824 7.26366,-1.91477 -3.34084,0.4461 -8.13505,-2.13378 -2.77969,-1.20573 2.10218,0.79759 5.5523,0.50947 7.71918,0.13628 -0.17106,-1.97982 -6.35587,-0.83642 -5.16113,-2.03523 1.86733,0.74782 11.15193,-1.64603 8.34323,1.19253 -1.36776,1.37393 -5.95361,1.23251 -4.71924,3.55735 3.39051,0.5769 -0.42013,2.39521 -2.39742,1.87502 -0.43638,-0.0757 -0.83486,0.20814 -1.02729,-0.4131 z m -32.29303,-5.36905 c -5.30867,-1.25518 6.29354,-0.37811 9.14241,-0.65541 2.90376,0.75983 6.13995,-1.17159 7.70405,-0.34558 -0.75042,2.65076 -4.66454,0.89048 -6.7716,1.39471 -3.36609,0.63609 -5.14289,-1.03996 -8.22938,-0.81064 -0.0472,0.65588 -1.51036,1.40317 -1.84548,0.41692 z m 27.57891,-1.1623 c -1.35991,-3.7792 1.07859,-3.31622 4.94816,-3.03188 2.48215,0.73699 5.14142,1.05841 7.96298,0.96109 -2.88573,-0.23431 -5.42224,0.31685 -7.8802,0.92463 -3.54963,-1.61623 -4.75106,-0.30139 -3.84065,1.62128 -0.54985,0.0459 -0.90352,0.0818 -1.19029,-0.47512 z m -49.81559,-0.20036 c -2.08372,-1.03975 -5.8162,0.31917 -7.55942,-1.21596 -1.79234,0.72018 -8.403452,-1.09907 -3.89644,-1.06928 2.13553,0.94921 4.76847,0.88791 7.40058,0.79913 2.18725,0.6731 4.91484,0.67668 7.02381,1.20602 1.77392,0.96344 8.34041,0.3564 2.46506,0.61324 -1.6572,-0.26309 -4.28877,0.64477 -5.43359,-0.33315 z m 54.48526,-7.70107 c 0.46578,-1.20378 4.93745,-0.46166 6.50106,0 2.99328,0.75543 -4.23813,0.52485 -5.55414,0.54043 -0.55533,0.0987 -0.79214,0.0313 -0.94692,-0.54043 z m 25.01098,-4.74667 c 0.69206,-1.25322 0.005,-3.64619 0.58132,-5.20562 -0.8578,-4.89655 1.71297,-0.0874 0.88855,2.40524 0.34422,0.97462 -0.82266,3.64564 -1.46987,2.80038 z m -24.29058,-3.47533 c -1.39583,-0.92492 6.92772,-1.15673 8.80946,-0.1546 -0.17709,1.26104 -5.45025,0.17662 -7.5768,0.54042 -0.38617,-0.15599 -1.25718,0.36462 -1.23266,-0.38582 z m 24.34184,-5.28934 c -1.43652,-2.2337 0.63111,-6.34482 -1.28351,-8.04507 0.26557,-2.99563 -0.17022,-5.50916 -0.81064,-7.88204 1.26307,-1.47583 1.06618,4.42744 1.89149,5.58661 -0.51238,2.76256 0.70123,4.8896 0.77321,7.39288 -0.25516,0.53662 0.42099,4.43843 -0.57055,2.94762 z m -26.14309,-8.07638 c 0.83379,-2.37036 4.25409,0.96215 6.62196,0.0268 2.3311,1.60628 -4.41797,0.36402 -5.80036,0.75459 -0.81662,0.0925 -0.95244,0.0626 -0.8216,-0.78134 z m -14.92058,-0.34105 c -1.86658,-1.23104 -6.06341,0.8544 -7.49012,-1.03951 -4.732,0.67448 -3.02601,-1.61929 0.77266,-1.05682 2.60562,0.74224 7.17951,-0.61168 8.28181,1.9832 1.50002,0.70621 -1.79407,0.58131 -1.56435,0.11313 z m -27.50282,-1.29358 c 1.61327,-0.23943 5.03649,0.26657 6.87763,-0.82658 1.97303,0.3075 7.47373,-0.8327 6.87862,1.01001 -4.57416,-0.12463 -9.18136,0.43834 -13.75625,-0.18343 z m -64.51659,-12.9325 c -0.970257,-2.12077 -1.51175,-5.200728 -3.577028,-6.619624 0.786804,-4.772788 2.315619,3.101314 3.512766,3.482734 0.344701,1.01219 2.150727,4.3423 0.06426,3.13689 z m 29.051163,-2.48285 c -1.106689,-2.181207 -2.101475,-4.386475 -3.712751,-6.92342 -0.287847,-2.370833 -0.511854,-5.084095 -1.880292,-6.609061 0.707586,-3.704697 1.396961,3.970989 3.519179,4.26646 0.01112,2.380063 1.851776,4.281191 1.842865,6.815952 -0.286939,0.367309 2.218209,3.642879 0.230999,2.450069 z m 95.132837,-1.01602 c -0.92262,-1.364437 -3.44125,-2.457281 -4.75361,-3.310563 -3.44154,1.073592 -6.27143,-4.054429 -1.1623,-2.701693 2.1131,1.550022 5.12869,2.601487 4.36834,-1.607188 1.20934,1.442294 1.54608,3.865325 2.27322,5.660378 1.28185,0.626496 -0.14024,4.634896 -0.72565,1.959066 z m -42.10358,-5.877129 c -1.76045,-1.283666 -5.70135,0.537937 -7.83617,-0.937146 -0.86676,-2.235532 5.15692,-1.217561 6.41199,-0.549007 1.71281,0.298081 7.61649,-1.11026 4.81684,1.89149 -0.85681,-0.316461 -3.26793,0.599006 -3.39266,-0.405337 z m 44.5851,-0.664711 c -1.03859,-2.176286 -1.85219,-4.200008 -2.68222,-6.121263 -0.62444,-4.557065 2.29211,1.173561 2.27692,2.49996 -0.0902,0.954214 2.19575,4.195459 0.4053,3.621303 z M 108.48124,75.110984 c -2.15753,-0.938269 -5.5151,-0.130654 -8.12876,-0.405319 2.11464,-2.143985 5.747,-0.578149 8.51685,-1.120578 4.39405,-0.05973 8.78809,-0.11946 13.18213,-0.17919 1.82441,1.723859 5.82262,0.285214 8.50605,0.759342 3.89235,1.210641 -3.13194,1.249326 -4.70162,1.080851 -2.909,-0.214341 -6.43564,0.428277 -8.96129,-0.317945 -2.33831,-0.500816 -5.87119,-0.526676 -8.25783,0.588157 z M 94.586292,64.479391 c -0.03818,-2.680713 8.503548,-1.428522 9.941578,-0.717343 -2.84066,-0.379688 -6.167651,0.883489 -8.069671,0.0864 -0.790751,-0.10055 -1.15898,1.339127 -1.871907,0.630946 z M 121.69533,64.23492 c -3.0783,-0.786738 -7.16358,-0.110152 -10.62664,-0.337766 2.31884,-2.132676 10.52346,-0.11658 14.84307,-1.300455 4.05116,-0.09794 2.69178,2.889039 -0.9148,1.888609 -0.93786,-0.242684 -2.7917,0.592106 -3.30163,-0.250388 z" id="path2" style="display:inline;fill:#000000"/>
	</g>
	<metadata id="metadata2">
		<rdf:RDF xmlns="">
			<cc:License xmlns="" rdf:about="http://creativecommons.org/publicdomain/zero/1.0/">
				<cc:permits xmlns="" rdf:resource="http://creativecommons.org/ns#Reproduction"/>
				<cc:permits xmlns="" rdf:resource="http://creativecommons.org/ns#Distribution"/>
				<cc:permits xmlns="" rdf:resource="http://creativecommons.org/ns#DerivativeWorks"/>
			</cc:License>
			<cc:Work xmlns="" rdf:about="">
				<cc:license xmlns="" rdf:resource="http://creativecommons.org/publicdomain/zero/1.0/"/>
				<dc:title xmlns="">Barrel</dc:title>
				<dc:subject xmlns="">
					<rdf:Bag xmlns="">
						<rdf:li xmlns="">food</rdf:li>
					</rdf:Bag>
				</dc:subject>
				<dc:description xmlns="">A wooden barrel is seen from an oblique angle. It is closed, lying on its side and has two metal bands.</dc:description>
			</cc:Work>
		</rdf:RDF>
	</metadata>
</svg>
