<?xml version="1.0" encoding="utf-8"?>
<svg xmlns="http://www.w3.org/2000/svg" xmlns:cc="http://creativecommons.org/ns#" xmlns:dc="http://purl.org/dc/elements/1.1/" xmlns:rdf="http://www.w3.org/1999/02/22-rdf-syntax-ns#" xmlns:svg="http://www.w3.org/2000/svg" height="203.81735mm" id="svg1" version="1.1" width="115.24935mm" xml:space="preserve" viewBox="0 0 115.24935 203.81735">
	<title id="title1">Chair</title>
	<defs id="defs1"/>
	<g id="layer1" style="display:inline" transform="translate(-34.679748,-5.7348723)">
		<path xmlns="" d="m 83.456338,13.375535 c 0.276501,0.101973 1.20283,0.375286 0.779888,0.888153 -0.482528,0.585137 -1.711453,-0.310933 -2.401164,-0.01367 -0.732275,0.315616 -1.311552,1.057234 -1.890587,1.584218 -1.552721,1.413158 -3.668508,3.058827 -4.324307,5.107258 l 0.810638,-0.810638 h 0.540426 l -2.702128,8.646808 c -1.212106,1.677566 -0.967416,3.439935 -1.188394,5.404354 -0.403468,3.586702 -1.240672,7.354821 -1.055251,10.984601 0.12747,2.495312 1.489147,4.384113 0.352156,6.849342 l 2.161702,8.917021 H 74.80953 L 72.91804,52.8266 75.620168,56.609578 73.88285,46.585434 72.91804,40.667026 v -0.810639 c 1.47503,-2.464866 1.548376,-6.119402 2.040668,-8.923172 0.74734,-4.256346 2.934132,-8.904273 6.606141,-11.342784 -0.988745,3.714551 -3.450107,6.77854 -4.793935,10.303378 -0.679284,1.781749 -0.724902,3.745013 -0.977204,5.612885 -0.456124,3.376884 -0.917695,6.55703 -0.655085,9.997839 0.446299,5.847573 2.865679,11.780445 4.629405,17.319873 0.623556,1.958432 0.799469,4.006121 1.414169,5.967605 1.021173,3.258518 2.632479,6.829906 2.785546,10.254495 0.219482,4.910445 -0.0067,9.782117 -0.45821,14.655974 -0.220612,2.381283 -0.353327,4.863797 -3.025537,5.600714 l 1.621276,-5.674468 -4.323404,6.755314 h -0.540425 l 2.890261,-6.861625 0.877375,-4.766738 0.54861,-4.519665 0.817796,1.286331 H 82.6457 v -4.863829 h -0.270213 l -0.270213,0.810638 c -2.714047,-2.188412 -2.982582,-7.3063 -2.431915,-10.538298 h 0.540426 l 1.351064,7.83617 h 0.270213 l -0.810639,-8.376595 h -0.810638 l -1.621277,-1.351064 c 0.826393,-2.506032 0.232012,-4.261607 -0.270212,-6.755319 l -0.540426,5.134043 -2.161702,-5.944681 h -0.270213 c 0.340755,8.339421 5.208329,16.032222 4.722085,24.545408 -0.113876,1.993743 -0.351821,4.369559 -1.083894,6.234454 -0.696143,1.773362 -1.932176,3.337813 -2.78555,5.044496 -0.996208,1.992341 -1.517993,5.066884 -3.313714,6.477524 -2.09057,1.64227 -5.834202,2.12285 -8.351693,2.92105 -4.825538,1.53 -9.457409,4.19057 -14.027817,6.36018 -2.644769,1.25549 -5.540242,2.1295 -7.314736,4.62114 -2.22438,0.85657 -3.886128,2.76264 -4.745392,4.98924 -0.393976,1.02091 -0.507345,2.11879 -0.980071,3.1146 -0.76106,1.60319 -1.912186,2.96795 -2.651133,4.59616 1.546023,3.35789 2.00367,6.13965 1.080851,9.72766 l 3.782979,-4.05319 v 2.1617 l -0.270213,3.78298 h 0.270213 l 1.351064,-1.89149 2.702128,-1.62128 -0.270213,6.21489 c -2.230928,2.99138 -1.318354,6.45735 -2.431915,9.72766 v 0.27022 c 1.072969,2.25518 0.622934,4.62907 1.039175,7.02553 1.374718,7.91474 1.953555,16.7693 -2.660452,23.77872 -0.81505,-1.47766 -0.13186,-2.54116 0.810639,-3.78298 l -0.270213,-2.1617 H 39.68187 l -0.540425,1.89149 h -0.540426 l -0.270213,-1.62128 h -0.540425 c -1.226521,4.1475 -3.909993,8.46411 -2.880129,12.96312 0.40756,1.78045 2.094994,2.62458 3.806148,2.25639 2.370786,-0.51013 4.988105,-2.13672 6.08535,-4.34247 0.896244,-1.8017 1.786669,-4.01528 2.055323,-6.01321 0.226988,-1.68807 0.05197,-3.40451 0.209374,-5.09873 0.463691,-4.99107 0.774887,-10.11592 0.392775,-15.14093 -0.313782,-4.12644 -1.193866,-8.29749 -1.205963,-12.456 -0.0042,-1.45915 0.290894,-3.45897 1.171661,-4.65574 1.294966,-1.75958 3.431948,-2.01998 4.686737,-0.20817 4.761721,0.87977 8.2168,4.68977 13.030852,5.49239 2.150499,0.35855 4.503914,0.25379 6.675541,0.14353 2.11208,-0.10723 3.528269,-0.4852 5.153182,1.1194 -0.624282,1.63676 -0.05215,3.42456 -0.0119,5.13391 0.119191,5.06217 0.937404,10.41299 2.248853,15.31285 0.455353,1.7013 0.798644,4.81873 2.27068,5.96116 1.385875,1.07559 3.888494,0.48026 5.490243,0.34314 l -1.562427,-10.55177 -0.329062,-12.95674 h -0.270213 l -1.080851,1.62128 -0.810638,-1.89149 c 1.789236,-0.60638 2.273368,-1.75795 2.702127,-3.51277 l 1.621277,2.43192 h 0.270213 c 0.06414,-2.69906 0.624289,-4.18873 2.702127,-5.94468 v -0.27022 c -1.621293,-1.99888 -2.341107,-4.19329 -2.431915,-6.75531 H 85.61804 l -1.891489,1.08085 v 0.27021 l 0.810638,0.27021 c -1.495983,1.09616 -3.06925,1.07186 -4.86383,1.08085 V 146.05 h 5.674469 c -2.280127,2.15721 -4.625485,1.61247 -7.492187,2.07056 -2.960474,0.47309 -6.182313,1.32113 -9.175054,1.3798 -2.753552,0.054 -6.36164,-0.88865 -8.826783,-2.0837 -1.705753,-0.82691 -3.521989,-1.56673 -4.499594,-3.25815 -2.17228,-0.88875 -3.959604,-1.89416 -5.404255,-3.78298 l 1.621277,-0.54042 c -1.2737,-0.69092 -4.011474,-1.98925 -1.39749,-3.18326 2.181779,-0.99658 4.185036,0.56102 6.116928,1.40376 1.832595,0.79942 3.754321,1.14228 5.691509,1.57773 2.715012,0.61028 5.425823,1.01414 8.143944,1.55326 2.772361,0.54989 5.633485,1.31412 8.468851,1.33963 4.639157,0.0417 9.080165,-1.42693 13.778385,-0.79964 l -0.810638,2.97234 h 0.540426 l 1.34988,-2.75068 0.991433,-0.17971 -0.329128,1.89424 -0.931334,4.54892 1.351064,-0.81064 c 0.289789,2.22908 -0.217569,4.11267 -0.443504,6.30493 -0.282231,2.73849 -0.181232,5.76902 0.376895,8.46674 0.873388,4.22156 2.742216,8.06131 3.876148,12.1805 0.389256,1.41404 0.380391,2.8894 0.657539,4.32392 0.447969,2.31868 1.4633,4.19542 0.666964,6.5537 v 0.27021 c 1.021426,3.02047 -0.341534,6.73106 -1.080851,9.72766 l -0.288651,-4.60312 -0.7922,-7.01603 h -0.540426 c 0,3.24496 0.927307,8.06649 -1.080851,10.80851 l -0.270212,-4.86383 H 95.3457 c -0.177014,2.65651 -0.570232,6.0123 -1.837209,8.37663 -1.428153,2.66512 -4.335448,5.4381 -3.476041,8.7381 0.836593,3.2124 4.81213,3.53354 7.310225,1.97995 3.799775,-2.36311 5.702825,-6.69534 6.258815,-10.98838 0.37713,-2.91199 0.12081,-5.98479 0.12081,-8.91694 0,-5.82581 0.0286,-11.73575 -0.31199,-17.55037 -0.14352,-2.45012 -0.69885,-4.83788 -0.82745,-7.30935 -0.16049,-3.08421 -0.0685,-6.07851 -0.005,-9.16065 0.0375,-1.83272 -0.19764,-3.72632 0.7276,-5.39589 1.69333,-3.05558 5.08985,-2.59789 8.01519,-3.47651 4.0394,-1.21322 7.61407,-3.68175 11.39642,-5.48896 1.36168,-0.65062 2.70641,-1.31813 4.03645,-2.03105 0.42685,-0.2288 1.1418,-0.73018 1.65564,-0.49752 0.50405,0.22822 0.45763,1.07161 0.46726,1.51854 0.0287,1.32997 -0.0233,2.66544 -0.0238,3.99602 l 5e-5,7.83617 c 0.001,2.54456 -0.10242,4.65832 1.89134,6.48511 v 0.54042 l -1.08085,0.54043 v 2.43191 c 1.10827,1.82087 0.94038,3.66048 1.38772,5.67452 0.88598,3.98892 1.54163,8.03899 2.58508,11.98212 0.55811,2.10905 0.83174,5.32115 3.5885,5.44556 3.75111,0.1693 2.10446,-4.62312 1.82373,-6.88943 -0.1817,-1.46688 -0.70861,-2.85821 -0.89052,-4.32341 -0.2777,-2.23669 -0.0175,-4.51046 -0.17252,-6.75531 -0.10711,-1.55099 -0.56383,-3.04536 -0.6882,-4.59362 -0.22252,-2.77021 -0.0631,-5.599 -0.0687,-8.3766 -0.006,-2.96582 -0.28113,-5.91951 -0.0327,-8.88171 0.27664,-3.29867 1.06619,-6.50008 1.51169,-9.76297 0.49903,-3.655 0.52268,-7.39219 0.78278,-11.0598 0.2273,-3.20504 0.74134,-6.21758 0.70647,-9.47385 -0.0426,-3.97616 -1.51966,-7.75194 -2.40281,-11.59152 -0.68851,-2.993307 -0.93074,-6.481013 -1.07643,-9.546437 -0.21862,-4.599768 1.25098,-9.584174 2.59684,-13.944736 1.46265,-4.738932 2.8319,-9.367678 4.92009,-13.883434 1.1581,-2.504416 1.67705,-5.216257 3.263,-7.510856 l 1.4618,-9.997872 0.97012,-7.295744 -1.01564,-5.075164 -2.40283,-8.803669 -6.5794,-10.710528 C 137.75215,14.840793 136.22096,13.009369 134.2496,11.708212 130.21563,9.045666 124.55004,6.7940634 119.66485,7.4308545 117.65236,6.2940774 115.13753,6.628347 112.90953,6.1873216 108.432,5.3010159 103.85224,5.890556 99.398966,6.4798487 97.9865,6.666758 96.550277,6.5730972 95.149254,6.8583676 91.059082,7.6911882 86.053248,10.025154 83.456338,13.375535 M 122.63719,8.7819182 c 1.03793,-0.112792 2.45848,-0.4113388 3.45689,-0.042039 0.8604,0.3182554 1.38723,1.1575576 2.24947,1.4896658 2.46509,0.949472 4.68404,2.091296 6.99541,3.42656 0.69337,0.400553 0.82254,0.981105 1.34512,1.511948 0.78914,0.801617 1.96797,1.588902 0.27439,2.260673 -2.12104,-2.314999 -4.82913,-4.195175 -7.83617,-5.134042 v -0.810638 l -8.64681,-2.7021275 c 0.45637,-1.2937029 1.51166,-0.9968383 2.1617,0 M 96.156338,8.5117055 V 8.7819182 L 86.428679,12.83511 v -1.080851 h 1.621276 C 89.947118,9.2966155 93.09279,7.8126553 96.156338,8.5117055 m 15.942552,1.6212765 v 0.540426 c -1.37282,0.309646 -3.42896,0.764904 -4.05319,-0.8106387 l 4.05319,0.2702127 m -11.88936,0.810638 v 0.540426 L 95.886125,10.94362 h 4.323405 m -5.944681,1.621277 h -1.621277 v -1.080851 l 1.621277,1.080851 m -2.431915,0 v 0.540425 l -3.242553,1.080851 -3.782979,2.161702 -1.621277,1.621277 v -1.891489 l 8.646809,-3.512766 M 110.2074,12.294684 v 1.080851 h -1.35106 l 1.35106,-1.080851 m 14.59149,0.810638 v 1.621277 h -0.81064 v -1.621277 h 0.81064 m 9.72766,15.942553 3.01533,7.296652 0.55602,5.133135 -0.67431,10.240806 -1.81619,5.161321 -0.54042,5.134042 c 0.74834,-1.332641 1.07898,-2.741264 1.64497,-4.14667 2.49643,-6.19883 3.31851,-12.434537 2.57034,-19.091594 -0.26634,-2.369771 -0.93526,-4.830234 -1.77082,-7.060067 -0.57938,-1.54612 -1.45638,-2.913396 -0.82322,-4.559114 l 2.48851,4.231788 1.34667,8.458976 0.55374,3.536679 -0.32614,2.98476 -1.5118,8.644515 -2.82119,7.000727 c 0.0921,4.905342 -3.48768,9.707291 -5.0431,14.24631 -1.97025,5.749575 -1.98243,11.367201 -1.98243,17.368583 h 0.27021 c 0.002,-8.020935 1.74882,-15.487459 4.6597,-22.93284 0.77225,-1.975222 1.41222,-4.055583 2.3205,-5.969898 1.19242,-2.513156 2.68851,-4.756958 3.01767,-7.575984 1.54504,-2.102544 2.27583,-4.983829 2.45357,-7.565924 0.13169,-1.913062 -0.19138,-3.667746 0.78899,-5.404289 l -0.81064,-5.674467 h 1.08085 c 0.0856,2.107672 0.72333,4.115697 0.79119,6.221045 0.1559,4.835973 -0.86757,9.142819 -2.49064,13.671192 -0.91297,2.547164 -2.4609,4.831587 -3.5353,7.30879 -1.07884,2.487461 -1.85495,5.137918 -2.7552,7.694879 -0.60102,1.707054 -1.49461,3.300516 -2.02047,5.032366 -0.91419,3.010784 -1.29433,6.399345 -1.52369,9.523177 -0.24249,3.302586 -0.90397,5.928164 0.18517,9.184719 -1.22591,2.593162 -0.17473,6.11006 0.0782,8.89711 0.0688,0.75794 0.76222,2.7261 0.0258,3.31164 -0.41378,0.329 -0.81473,-0.25518 -0.97139,-0.56925 -0.42387,-0.84975 -0.62464,-1.88748 -0.80413,-2.81364 -0.77105,-3.97856 0.17828,-8.245531 -1.30081,-12.068413 h -0.27021 c -8.8e-4,3.637308 -0.13356,6.991883 0.47095,10.582383 0.0717,0.4258 0.73735,3.21921 -0.0977,3.23567 -0.81267,0.016 -1.2314,-1.75994 -1.37614,-2.31758 -0.70077,-2.69987 -0.34821,-5.761899 -0.34821,-8.528133 0,-5.665117 -0.0381,-11.174808 1.19173,-16.737342 1.20026,-5.428829 3.71357,-10.826355 5.8338,-15.958402 -1.61342,2.306935 -2.2452,5.491649 -4.07952,7.562808 -3.93821,4.446693 -11.71417,0.422537 -15.06531,-2.752644 -1.49261,-1.414247 -2.49227,-3.035474 -4.36368,-3.999525 l 1.62127,-2.431915 -2.1617,-0.540426 c -0.4009,-0.404972 -0.78249,-0.813722 -1.27614,-1.10968 -3.3844,-2.029003 -5.24192,1.88641 -6.94896,3.98427 -0.73012,0.897273 -1.69374,1.702188 -2.615907,2.395846 -2.567005,1.930922 -7.00951,2.071224 -9.765056,0.389453 -1.769334,-1.079862 -3.686288,-3.780125 -4.523722,-5.659889 h -0.810639 c -1.07829,-3.430781 -2.209254,-6.940051 -2.608005,-10.538297 -0.265747,-2.398039 -0.09385,-4.88593 -0.09416,-7.295745 -8.12e-4,-6.37713 0.788344,-11.91537 4.456173,-17.321851 1.716512,-2.530194 3.788042,-5.26176 6.553018,-6.707524 3.692843,-1.930923 8.921628,-2.702061 13.039768,-2.719989 3.51464,-0.0153 7.36866,-0.01916 10.79927,0.828335 4.50296,1.112418 8.7458,3.220651 12.43985,6.011343 1.97914,1.495159 3.65001,3.335274 5.67365,4.777772 m -59.717015,-7.295744 -1.621277,4.323404 h 0.270213 l 1.351064,-4.323404 m -2.161702,4.863829 v 2.161702 H 72.91804 L 72.647828,26.61596 m -1.080852,2.702128 c -0.04585,3.890955 -1.770277,8.089461 -0.270212,11.889361 l 0.810638,-11.889361 h -0.540426 m 4.593617,27.831914 0.810639,4.593617 c 0.470176,-1.619166 -0.245685,-3.081537 -0.810639,-4.593617 m 34.046807,5.404255 c -0.38809,0.98023 -0.90435,1.035051 -1.89149,0.810638 V 62.82447 l 1.89149,-0.270213 m 23.77873,0.270213 0.54042,0.810638 -0.54042,-0.810638 m -24.58937,4.053191 -1.89149,-1.621277 c 1.10756,0.194793 1.5112,0.567672 1.89149,1.621277 m -4.3234,-0.810638 c -3.12949,4.434481 -9.704261,4.677877 -14.59149,4.323404 0.796884,-2.011291 4.703053,-0.865756 6.477776,-1.135227 1.054026,-0.160043 1.886228,-0.702349 2.979671,-0.756262 0.434433,-1.197008 1.764503,-1.676065 2.972343,-1.621277 l 2.1617,-0.810638 m 1.62128,1.621276 c -1.39854,2.347853 -3.59777,3.654338 -6.2149,4.323404 -1.250565,1.924277 -5.505344,1.091506 -7.565955,1.080637 -1.096234,-0.0058 -2.032352,0.05566 -2.431915,-1.080637 l 8.002365,-0.399118 8.210405,-3.924286 m 9.45744,6.755319 v 0.540426 c -3.05815,-0.128543 -5.42564,-2.934358 -7.56595,-4.86383 0.60349,-1.81503 1.83802,-0.271004 2.71276,0.508529 0.69983,0.623663 1.56854,0.872089 2.29597,1.434252 0.91531,0.707362 1.66337,1.638627 2.55722,2.380623 m -2.97234,-3.782978 c 0.42801,-0.175662 0.82854,-0.380581 1.30734,-0.320664 1.36502,0.170829 1.01381,1.616989 -0.49833,0.84524 -0.27669,-0.141209 -0.55798,-0.3582 -0.80901,-0.524576 m 14.05107,5.404255 -1.62128,0.270212 v 0.270213 l 2.43191,0.270213 c -0.51384,1.296919 -1.74131,1.080307 -2.97234,1.080851 -2.71547,0.0012 -5.79544,-0.386641 -8.10638,-1.891489 v -0.810639 l 2.43192,-0.270212 v -0.270213 l -2.70213,-1.351064 v -0.540425 c 1.88245,-0.558188 3.65824,0.654141 5.47151,1.145039 1.87611,0.507903 3.99319,0.09836 5.06679,2.097514 m -19.18511,0 c 2.03872,0.698654 3.52352,2.315816 5.41112,3.323036 4.3212,2.30578 8.35557,3.431227 13.23356,3.432283 0,2.762902 0.18033,5.597926 -0.0807,8.350306 -0.18329,1.932902 -0.72728,3.735472 -0.71699,5.699776 0.0111,2.12165 0.68141,4.117834 0.76768,6.224304 0.0862,2.10412 -0.16636,5.35602 -2.94237,3.50434 -7.36048,-1.45143 -14.30337,-4.33903 -21.88975,-4.78935 -2.783443,-0.16522 -5.586925,-0.0665 -8.374014,-0.0756 -1.289856,-0.004 -2.949197,0.15983 -4.069675,-0.61174 -1.112467,-0.76605 -0.831803,-2.085539 -0.686751,-3.231181 0.254351,-2.008948 0.0044,-3.898393 1.243595,-5.613429 -0.108496,-2.251652 -0.264511,-4.498414 -0.267595,-6.753628 -0.0028,-2.085037 0.241347,-4.07337 -0.813257,-5.946371 v -0.540426 c 3.275225,-0.477606 6.793805,0.235265 9.978807,-0.731128 2.76945,-0.840308 6.41259,-4.03157 9.2063,-2.241212 m 11.61915,-0.540426 2.43191,0.270213 -2.43191,-0.270213 m 3.51276,0.810638 V 76.6053 h 1.35107 l -1.35107,-0.270213 M 82.375487,88.494682 v 2.161702 H 82.6457 l -0.270213,-2.161702 m 28.102123,18.374468 v 0.27021 c 2.14655,-0.0486 4.05432,-1.14406 6.12235,-1.19087 1.33948,-0.0303 2.72156,0.57207 3.96654,1.004 1.3842,0.48021 2.70124,1.09839 4.0564,1.64952 2.85055,1.15929 6.65592,2.23649 6.93131,5.8331 H 131.284 c -4.97574,-2.36737 -11.21976,0.58271 -16.21277,1.62127 l -2.11583,1.22701 -6.26076,2.28576 v 0.54042 c 2.40946,-0.45066 4.47336,-1.53827 6.76527,-2.33039 3.40075,-1.17536 6.99727,-2.20353 10.55443,-2.76471 1.2589,-0.1986 4.71374,-1.50909 5.65498,-0.17434 0.56341,0.79894 -1.06347,3.09988 -1.35766,3.91838 h -0.54043 -3.24255 v 0.27021 l 1.62128,1.08085 -4.32341,2.43192 4.86383,-1.62128 v -0.81064 h 1.89149 c -1.98416,2.38259 -4.85994,3.86488 -7.83617,4.59362 v 0.81064 l -14.05106,5.13404 v 0.81064 l -5.40426,0.54043 c 3.06574,-2.2834 6.82415,-3.35663 10.5383,-4.0532 l 4.22046,-2.13299 5.23699,-2.46062 v -0.27022 l -10.26809,3.24256 -3.7585,2.06487 -1.69695,-0.34044 4.62471,-2.60737 13.80095,-5.60217 v -0.27021 c -5.58767,0.81827 -11.22039,3.84701 -16.24247,6.30225 -2.14208,1.04724 -4.80277,3.32438 -7.26604,2.34456 h -0.27021 -0.270213 l -1.080851,4.86383 c -1.51189,-1.05847 -1.803411,-2.26906 -1.89149,-4.05319 -1.872366,1.17457 -1.351055,3.72961 -1.351063,5.67446 l 1.621276,0.27022 v 0.54042 l -5.674468,2.43192 c 1.765879,-0.66468 2.847509,-0.29905 3.782979,1.35106 -1.955938,0.0411 -3.36882,0.29573 -4.86383,1.62128 -0.998018,-0.3958 -1.122828,-1.01052 -0.540425,-1.89149 v -0.27022 c -3.629467,-2.95993 -8.575706,-1.67553 -12.951148,-1.93326 -4.107064,-0.24192 -8.03025,-1.56871 -12.17864,-1.5795 v 0.27021 c 3.060196,0.50831 6.115226,1.59864 9.206308,1.83265 3.480177,0.26345 7.051747,-0.29802 10.512883,0.17887 0.946878,0.13047 2.950599,0.56349 2.831701,1.885 -0.11534,1.28198 -1.820988,1.6141 -2.821554,1.76025 -2.872854,0.41962 -5.492589,0.10587 -8.374526,-3e-5 -3.541764,-0.13013 -6.950578,-1.28507 -10.359128,-2.12041 -1.356906,-0.33254 -2.789546,-0.17139 -4.126226,-0.5658 -1.648054,-0.48628 -3.113898,-1.43665 -4.788927,-1.90394 -4.54066,-1.26674 -9.277854,-2.63213 -11.265637,-7.28148 l 6.755319,1.62127 v -0.54042 l -3.242553,-1.08085 c 0.672994,-1.69598 2.503443,-0.41506 3.782979,0 l 0.452584,-5.59496 1.438905,-3.59228 h -0.270213 c -0.721888,1.11936 -2.284754,2.26995 -2.97234,0.54043 2.63833,-2.28433 4.922722,-4.23133 8.376596,-5.13404 1.412861,-2.32397 3.547977,-3.15282 5.861381,-4.37526 3.085215,-1.63027 6.216333,-3.93878 9.810959,-4.00134 -0.664874,1.23808 -1.903009,1.6846 -3.242553,1.89149 v 0.81064 l -5.134043,1.62128 -0.810638,1.35106 6.214894,-2.43192 c 2.661679,-2.27816 6.195341,-2.93096 9.448276,-3.95281 3.102912,-0.97473 6.065604,-2.24488 9.286437,-2.84702 3.753733,-0.70176 7.99745,-0.50866 11.799329,-0.32868 2.45688,0.1163 4.88063,0.69868 7.28955,1.17084 0.81899,0.16053 2.22004,0.23209 2.77752,0.95578 1.00525,1.30496 -2.20479,1.46425 -2.77133,1.48913 m -19.185102,0 c -3.53602,1.98238 -7.567487,3.03598 -11.209496,4.82147 -3.414228,1.67382 -6.667971,4.16948 -9.884095,6.21413 -2.643715,1.68075 -6.249693,3.6562 -7.980434,6.35014 -1.423039,2.215 -1.711348,4.91307 -1.73023,7.47383 l 3.34418,1.31137 4.221777,0.85033 0.172182,-3.43525 1.090025,-0.71145 0.208527,2.14633 1.77182,2.81101 c -0.05596,-2.49867 -0.98548,-5.16273 0.374362,-7.47341 1.120466,-1.90393 3.426911,-2.85995 4.75968,-4.68616 l -2.97234,0.54042 -2.972341,2.16171 v 2.1617 l -1.621276,-0.27021 c -0.296288,0.15216 -1.995025,1.06297 -1.883021,0.0684 0.134925,-1.19806 2.034038,-1.97178 2.907575,-2.5128 2.762696,-1.71107 5.121294,-3.87614 8.16268,-5.12158 2.630196,-2.92568 6.210766,-4.43691 9.645774,-6.1952 1.68326,-0.86162 3.2456,-1.96235 4.972066,-2.73475 5.24608,-2.34704 11.087737,-3.87049 16.726837,-4.8509 v -0.54043 L 96.966976,107.95 v 0.81064 l -8.106383,2.43191 -9.727659,5.13405 -2.161702,1.62127 -8.714989,6.23649 -5.336075,2.68053 v -1.89149 l 3.049199,-1.59723 5.099961,-3.39877 5.080331,-3.12164 4.33948,-3.24884 3.357737,-1.3946 7.539161,-3.43457 7.565834,-2.70072 3.689569,-1.6398 -6.482455,1.04145 -4.866477,1.39047 m 18.644682,0 -7.24861,1.95315 -8.153518,2.64047 v 0.27021 l 5.674468,-0.81064 v -0.81064 c 0.96422,-0.001 1.96876,0.0606 2.90528,-0.20986 1.25063,-0.36118 2.31336,-1.2031 3.57983,-1.52026 1.2461,-0.31207 2.95821,0.10478 3.24255,-1.51243 m -30.534043,28.91276 8.376595,-0.27021 v -5.40425 c -2.065493,-0.006 -4.124595,0.21841 -5.134042,-1.89149 4.862836,-1.40733 8.451504,-5.22372 12.708419,-7.76864 8.198471,-4.90131 18.067731,-9.25942 27.553281,-10.60583 v -0.54043 c -3.57645,1.9e-4 -6.95601,0.24497 -10.37401,1.41033 -2.40006,0.8183 -4.57357,2.19199 -6.91812,3.15285 -2.02103,0.82826 -4.18397,1.31292 -6.173779,2.21016 -1.379645,0.62211 -2.555757,1.59156 -3.871815,2.32767 -2.030418,1.13569 -4.142164,2.05778 -6.121237,3.2921 -2.081961,1.29849 -4.401793,2.35153 -6.17243,4.09063 -0.812563,0.79809 -1.294593,1.79591 -1.951988,2.70896 -0.648859,0.90121 -1.45229,1.6582 -1.763231,2.75912 -0.404622,1.43262 -0.178956,3.05879 -0.157643,4.52903 M 53.732934,115.51596 c 1.264507,-0.62951 2.562047,-1.22951 3.751828,-1.99508 1.592481,-1.0247 2.639102,-2.07039 4.624768,-2.05811 -1.726812,2.30285 -4.129208,3.53655 -6.490306,5.09287 -2.800645,1.84606 -5.230447,4.75807 -8.764091,2.5064 -0.589354,-0.37554 -1.034989,-0.87058 -1.498795,-1.38438 2.97253,-1.85473 6.090771,-3.54455 9.233314,-5.09379 0.480247,-0.23676 2.694385,-1.54043 3.081869,-0.63229 0.18318,0.42931 -0.324077,0.90529 -0.603895,1.1483 -1.038302,0.90175 -2.298158,1.49021 -3.334692,2.41608 m 39.451064,-3.24256 v 0.27022 h 1.080851 l -1.080851,-0.27022 m -1.89149,0.81064 v 0.27022 h 1.351064 l -1.351064,-0.27022 m -29.182978,2.43192 2.702127,-0.81064 1.080851,-1.08085 c -1.571589,-0.0697 -2.820444,0.68668 -3.782978,1.89149 m 52.69149,-1.89149 v 0.27021 h 2.97234 l -2.97234,-0.27021 m -25.129788,0.81064 1.080851,-0.27022 -1.080851,0.27022 m -1.89149,0.27021 v 0.54042 h 1.080851 v -0.54042 h -1.080851 m 8.646809,7.02553 v 0.81064 l 6.453799,-2.88097 8.94833,-3.87435 v -0.54043 c -5.92379,0.48196 -9.72294,5.49174 -15.402129,6.48511 m -10.268085,-6.21489 v 0.54042 h 1.080851 v -0.54042 h -1.080851 m -37.019149,2.1617 v 0.27021 c 1.675056,-0.26602 2.686018,-0.87029 3.782979,-2.1617 l -3.782979,1.89149 m 34.317021,-0.27021 v 0.27021 l 2.161702,-1.35106 -2.161702,1.08085 m 49.178722,-1.08085 0.27021,1.08085 -3.51276,2.1617 c 0.31517,-1.96515 1.41611,-2.68207 3.24255,-3.24255 m -51.610637,3.24255 1.89149,-1.08085 -1.89149,1.08085 m -4.323404,2.1617 v 0.27021 c 1.538179,-0.33843 2.78727,-0.91527 3.782979,-2.1617 l -3.782979,1.89149 m -33.506383,-1.62128 -0.810638,4.59362 v 0.27021 h 1.621276 l 0.270213,0.81064 H 44.5457 l 0.213602,-1.40498 c 0.120162,-0.73805 0.975918,-3.21059 1.674869,-1.33768 0.434204,1.16349 0.271149,2.60423 0.273231,3.82351 h -3.242553 c 0.359887,1.56412 0.07238,2.40517 -1.080851,3.51277 l -0.810639,-0.81064 c 0.407868,2.17415 0.02837,3.64772 -1.891489,4.86383 l -1.080851,-7.56596 v -0.54042 l 3.242553,0.54042 1.080851,-0.81064 c -2.075871,-1.34448 -2.371605,-5.12925 0.270213,-5.94468 m 59.987234,1.35107 v 0.27021 c 1.32599,-0.0415 2.18509,-0.23147 2.97234,-1.35106 l -2.97234,1.08085 m -8.917021,13.24042 -1.621277,-4.86383 9.997868,-7.29574 c -2.53469,0.3758 -4.61549,2.21799 -6.735684,3.53867 -1.088129,0.6778 -2.41412,1.34881 -3.135406,2.45125 -1.37504,2.10166 -0.718821,5.10576 1.494499,6.16965 m -38.910639,-12.15957 -0.904451,4.33869 0.904451,3.76769 h 0.270213 c 0.117567,-2.58073 1.324505,-5.88139 -0.270213,-8.10638 m 76.74043,0 -2.43192,3.24255 1.35106,1.08085 c -5.70958,4.18173 -11.87815,7.67376 -18.64468,9.86965 -1.29213,0.41932 -2.51223,1.36288 -3.80716,1.66777 -0.87054,0.20497 -1.79636,0.008 -2.67794,0.15179 -1.92059,0.3143 -3.57784,1.14942 -5.40446,1.69717 -1.096745,0.32887 -1.971696,0.96406 -2.431712,-0.41616 0.983017,-1.07347 1.622826,-2.6725 2.838812,-3.48854 1.69135,-1.13504 4.14574,-0.88788 6.0589,-1.46919 4.60427,-1.39898 9.27479,-2.99327 13.5207,-5.27816 3.94532,-2.12312 7.1077,-6.22281 11.6284,-7.05773 m -44.855323,6.21489 0.270213,0.27022 h 0.540425 l 7.025532,-5.67447 c -2.864644,1.17513 -5.890185,2.96106 -7.83617,5.40425 m -28.102128,2.97234 0.810639,-7.29574 c -0.667715,0.21809 -1.301843,0.41997 -1.709693,1.04103 -1.013748,1.54369 -0.896793,5.43517 0.899054,6.25471 m 67.012771,-3.51276 1.08085,0.27021 0.27021,-1.35106 -1.35106,1.08085 m -85.387239,0 v 0.81064 h 0.540426 v -0.81064 h -0.540426 m 32.695745,0.27021 c -1.336105,2.25824 -0.906819,4.14596 0,6.48511 h 0.810638 l -0.810638,-6.48511 m 51.070214,0.27021 v 0.54043 h 1.08085 v -0.54043 h -1.08085 m -47.827661,1.35107 c -0.927966,1.61896 -1.183405,3.45173 0.540426,4.59361 v -4.59361 h -0.540426 m 11.889362,0 1.351064,5.67446 c 2.172945,-0.99856 0.287612,-4.0119 0,-5.67446 h -1.351064 m -35.668085,1.08085 c 0.304424,0.54202 0.506211,0.54202 0.810638,0 h -0.810638 m 79.712764,0.54042 c 0.89952,3.30652 0.0637,7.13208 0.30121,10.5383 0.27578,3.95453 0.57185,7.91738 0.50662,11.88936 -0.043,2.61698 -0.40754,5.20245 -0.25615,7.83617 0.0645,1.12215 0.70949,1.91656 0.96216,2.97234 0.22708,0.94891 0.0963,2.00423 0.10858,2.97214 0.0154,1.21972 0.57201,2.10095 0.75533,3.25882 0.23731,1.49893 0.14137,3.06254 0.37855,4.56149 0.1955,1.23558 1.26924,2.35601 -0.32438,2.9884 -1.44758,-2.63121 -1.57202,-5.46663 -2.1222,-8.3503 -0.52112,-2.73136 -0.61443,-5.34863 -0.99077,-8.08645 -0.43477,-3.16301 -0.99259,-6.35861 -1.19952,-9.54731 -0.0805,-1.23986 0.34058,-2.43259 0.19736,-3.67932 -0.63564,-5.53326 -1.70871,-12.26057 1.14279,-17.35364 h 0.54042 m -78.361701,0.54043 v 0.27021 h 2.161703 v -0.54042 l -2.161703,0.27021 m 2.702128,0.81064 V 133.35 h 1.351064 l -1.351064,-0.27021 m -13.780851,0.54042 -0.270213,1.89149 h -0.540425 c -0.207564,-0.99642 -0.216328,-1.5498 0.810638,-1.89149 m 17.293617,0.27021 v 0.27022 l 2.97234,0.81064 -2.97234,-1.08086 m 52.961707,0.81064 h 1.89148 -1.89148 m -2.70213,0.27022 v 0.54042 h 2.1617 v -0.54042 h -2.1617 m -67.553194,2.1617 0.810638,-1.89149 c 1.77108,0.7025 0.538059,1.82158 -0.810638,1.89149 m 59.446804,0.81064 7.56596,-1.62128 v -0.54043 c -1.34334,0.0399 -2.47795,0.50467 -3.78284,0.71709 -1.57848,0.25695 -2.77117,0.006 -3.78312,1.44462 m -50.529783,0.27021 c 2.158734,1.59835 5.944828,4.28512 8.646809,2.97234 -2.257348,-0.13056 -4.150186,-1.1003 -5.944681,-2.43192 l -2.702128,-0.54042 m 37.829788,0.27021 0.270212,0.27021 -0.270212,-0.27021 m -37.829788,2.1617 v 0.27022 l 1.080851,0.27021 -1.080851,-0.54043 m 9.457447,1.35107 v 0.54042 l 8.152624,1.51344 7.519717,0.10784 -5.358085,-0.46555 -10.314256,-1.69615 m -6.755319,0.27021 1.080851,0.54043 v -0.27022 l -1.080851,-0.27021 m 1.621277,0.81064 v 0.54042 h 1.351063 l -1.351063,-0.54042 m 22.968085,0.81064 v 0.27021 h 1.351063 l -1.351063,-0.27021 m -19.455319,0.81063 v 0.27022 h 1.891489 l -1.891489,-0.27022 m -21.617022,0.27022 0.05882,8.62774 0.751818,7.0446 1.212104,5.40432 0.786744,4.57448 -0.541627,3.57795 -0.106158,5.08793 h 0.270213 l 0.941215,-8.65598 -2.692065,-18.13038 -0.140639,-7.53066 h -0.540426 m 24.048936,0.54042 v 0.27022 l 7.295745,1.08085 v -0.54043 l -7.295745,-0.81064 m 8.646809,0.81064 v 0.54043 h 1.080851 v -0.54043 H 71.02655 m 8.106383,6.48511 c 0.465257,2.43333 0.07065,4.86051 0.397761,7.29574 0.541077,4.02809 2.018993,8.33713 1.493728,12.42979 h -0.540425 c -1.439311,-3.38777 -1.687968,-6.96402 -2.282481,-10.56584 -0.543258,-3.29131 -1.406767,-6.35195 0.931417,-9.15969 m 11.619149,0.27021 v 2.97234 h 0.270213 l -0.270213,-2.97234 m 5.134042,4.05319 -0.270212,-1.89149 c 1.143069,0.38083 1.057233,1.11184 0.270212,1.89149 m 2.431915,0.54043 0.810639,-1.62128 c 1.661982,0.65924 0.682788,1.95937 -0.810639,1.62128 m -10.80851,-1.35107 2.431915,11.34894 2.97234,7.02553 -3.165034,-11.90312 -2.239221,-6.47135 m -50.8,1.62128 1.621276,5.94468 -1.080851,-5.94468 H 36.70953 m 54.853191,2.70213 1.080851,5.40425 h 0.540426 l -1.621277,-5.40425 m -52.691489,4.86383 -0.270213,12.7 0.540368,-5.40432 -0.270155,-7.29568 m 55.66383,5.40425 v 1.35107 h 0.270212 l -0.270212,-1.35107 m 0.810638,1.62128 c 9.11e-4,2.33627 0.09092,6.3797 2.161702,7.83617 L 95.3457,172.53085 m -58.095745,16.21276 h 0.270213 c 0.111906,0.28631 0.252174,0.59466 0.342574,0.89393 0.337493,1.11723 -0.424584,2.09243 -0.736254,0.64665 -0.113976,-0.52871 0.0099,-1.02629 0.123467,-1.54058 m 2.702128,0 0.270213,2.70213 c -1.35328,-0.53627 -1.147978,-1.76049 -0.270213,-2.70213 m 55.934042,6.48511 v 1.89149 L 95.3457,195.22872 h 0.540425 m -2.161702,10.26809 v 0.81063 c -2.213373,-0.49508 -1.930213,-2.43115 -1.891489,-4.3234 l 1.891489,3.51277 m 2.431915,-2.70213 0.270213,2.97234 c -2.476201,0.59823 -2.179778,-2.25512 -0.270213,-2.97234 z" id="path1" style="display:inline;fill:#000000;fill-opacity:1;stroke:none"/>
	</g>
	<metadata id="metadata1">
		<rdf:RDF xmlns="">
			<cc:License xmlns="" rdf:about="http://creativecommons.org/publicdomain/zero/1.0/">
				<cc:permits xmlns="" rdf:resource="http://creativecommons.org/ns#Reproduction"/>
				<cc:permits xmlns="" rdf:resource="http://creativecommons.org/ns#Distribution"/>
				<cc:permits xmlns="" rdf:resource="http://creativecommons.org/ns#DerivativeWorks"/>
			</cc:License>
			<cc:Work xmlns="" rdf:about="">
				<cc:license xmlns="" rdf:resource="http://creativecommons.org/publicdomain/zero/1.0/"/>
				<dc:title xmlns="">Chair</dc:title>
				<dc:subject xmlns="">
					<rdf:Bag xmlns="">
						<rdf:li xmlns="">furniture</rdf:li>
					</rdf:Bag>
				</dc:subject>
				<dc:description xmlns="">A wooden chair is seen at an oblique angle with a cushion on the seat rounded legs and an open back.</dc:description>
			</cc:Work>
		</rdf:RDF>
	</metadata>
</svg>
