<?xml version="1.0" encoding="utf-8"?>
<svg xmlns="http://www.w3.org/2000/svg" xmlns:cc="http://creativecommons.org/ns#" xmlns:dc="http://purl.org/dc/elements/1.1/" xmlns:rdf="http://www.w3.org/1999/02/22-rdf-syntax-ns#" xmlns:svg="http://www.w3.org/2000/svg" height="151.10985mm" id="svg1" version="1.1" width="275.8924mm" xml:space="preserve" viewBox="0 0 275.89239 151.10985">
	<title id="title3">Eye</title>
	<defs id="defs1"/>
	<g id="layer1" transform="translate(23.159025,-63.141953)">
		<path xmlns="" d="m 84.024911,65.661705 c 0.279266,-2.415329 -4.661194,-0.325222 -7.295745,0.810638 1.362045,-2.781038 -5.91172,2.474723 -8.279066,3.070955 -0.636401,-4.412631 -12.56929,11.403747 -6.993767,1.212304 2.225024,-4.100294 -8.780399,9.343608 -4.098306,0.314747 3.001719,-4.907332 -5.11578,-0.03202 -7.549417,-0.157348 -5.475179,0.527017 -0.306499,2.725757 -6.121273,4.959081 2.382175,-2.222978 -3.159188,-4.972883 -5.852175,-1.137308 -3.020714,0.62935 -6.811287,7.122014 -1.908125,3.356718 6.616424,1.60722 -8.710495,14.071364 -7.392977,11.079921 2.06521,-3.350149 5.529393,-8.262352 0.104726,-3.249516 -4.112793,2.474105 -6.299729,8.178793 -8.113877,6.490871 -3.837334,0.04785 -13.5117624,17.755112 -10.206476,10.415072 2.658499,-8.194951 10.763877,-12.408938 16.42137,-17.981029 -4.367273,-2.953745 -11.52817,8.248091 -12.547977,8.130338 3.538376,-4.317728 5.586495,-10.046125 0.11819,-2.185658 -3.681483,3.358707 -6.2434997,5.359517 -2.42815,-0.375318 -1.537307,-4.047126 -9.5522761,12.289867 -9.3342131,6.396366 -5.0872851,3.01447 -11.5640319,15.938781 -12.7777149,20.995631 2.112802,-4.4024 6.9848274,-11.24668 2.8716771,-1.80531 -1.7219447,4.61948 -7.6040281,15.05947 -3.5738501,4.30477 -1.175301,-1.29869 -1.099094,-1.40985 0.293658,-6.46219 1.903627,-2.68944 -9.096602,8.50865 -3.715982,7.49978 -0.05295,3.67602 -10.175334,11.37035 -5.086735,8.98225 4.853297,-3.92214 0.366535,2.6851 3.757692,0.54685 -0.946252,3.70832 -3.476905,-0.1167 -5.944681,4.77249 5.418669,-2.40085 1.88522,2.43763 1.284915,4.17626 1.935732,-1.37512 8.573466,-8.51576 4.713822,-2.78469 -3.601884,5.66348 -2.143176,4.44722 1.546802,0.19761 1.381279,-1.23537 7.847821,-8.97951 5.4713114,-5.40518 -1.9431744,3.26556 -5.0161054,7.14362 -6.2615304,10.03089 3.117285,-4.00104 12.1492562,-12.5877 11.667287,-12.49134 -2.4308882,5.36828 -9.676537,16.28318 -1.7330105,7.0152 2.145828,-0.28509 4.28101023,-4.49131 5.26806811,-3.38195 -0.62042511,2.47225 7.03680919,-8.34569 2.59369779,-0.0954 -1.8965581,3.62381 -8.9399717,13.18319 -1.3830188,6.17668 3.0914453,-7.21025 3.3143606,-0.0512 7.3656997,-6.14016 -1.0977904,3.66765 -3.8783751,9.43734 1.6212767,4.86383 -2.1237046,6.91167 -0.508224,1.14529 1.018363,2.59741 1.843389,-0.0207 5.652758,-7.83262 2.71137,-0.37638 -3.088821,3.3284 -6.055876,9.09521 -0.368397,2.4858 2.619024,0.34406 10.10154,-10.44713 7.503803,-4.78868 -0.575569,2.20759 -0.308301,4.00155 -2.758756,8.18823 3.347207,-0.66177 7.184239,-8.30592 5.674468,-1.35106 2.895999,-3.84769 5.555164,-7.26533 2.675805,-0.62621 -0.338112,3.46039 -6.096124,4.41501 -4.382433,7.21352 2.154872,-1.05739 6.15553,-8.00993 7.110884,-5.23625 6.163786,-6.01689 -4.928257,13.03274 0.420529,9.88723 4.299383,-5.04713 3.242083,-13.19852 2.551811,-20.69574 -2.123868,-2.96463 4.505204,-6.92302 1.060297,-0.0954 -0.925561,4.79301 -0.478103,13.19186 2.518179,12.34514 -1.334451,1.78498 -2.949756,10.59552 -4.275623,7.57312 -1.457078,-1.36396 -1.903111,8.45066 1.832357,1.27198 2.021373,-2.14958 6.034226,-6.58906 7.781812,-6.41196 0.422145,-1.12295 5.59149,-5.29281 1.540702,2.07626 -4.405874,6.44288 -2.890706,5.28848 1.431638,1.88558 -1.187222,4.82577 -1.509631,5.85438 -3.345809,8.30679 0.246943,5.41795 -1.781686,5.6731 -5.086015,11.72853 -3.160658,5.52384 7.758234,15.12097 15.997782,15.63277 -4.692874,0.74527 -9.112268,1.40521 -5.674469,4.05319 -3.562379,4.73882 6.0892,6.17342 8.712296,6.27919 15.350777,-3.73054 29.813483,6.02958 44.789833,8.04209 -2.674555,4.43418 11.290836,1.15962 4.457376,-2.0803 5.15741,-2.67328 14.17293,2.29461 3.64901,2.0803 2.42953,1.35797 6.5173,2.78477 9.89365,2.6988 4.49603,-5.28465 6.12977,0.93131 11.99122,-1.20304 5.48577,-0.21645 7.86822,-0.77286 0.54753,-1.16487 3.97141,-2.44857 6.61444,-4.99193 11.88462,-6.81596 5.4169,2.82365 -9.00651,3.32907 -1.27322,3.48771 6.12609,-0.64429 -6.53688,2.49412 -4.34232,3.06783 4.39383,-1.46461 8.78767,-2.92923 13.1815,-4.39384 3.98056,-3.26877 18.99241,-9.25974 18.56678,-13.54726 -11.07718,5.70097 4.14871,-6.66959 6.89976,-9.77018 2.0115,2.95704 -10.33549,9.371 -2.49846,8.99617 4.00274,-1.03666 4.06529,-7.07984 8.14919,-8.34821 6.59477,1.30423 17.00972,2.28058 21.57422,0.87359 2.04446,1.3031 7.27962,-1.32146 10.51224,-1.48094 1.7744,-0.70414 -6.2529,-4.15681 2.2916,-3.02897 3.83685,2.8453 23.61217,-6.93729 12.2526,-4.56356 -11.87776,1.33388 4.14323,-1.96873 7.88832,-4.8835 4.25233,-3.65417 -5.65812,1.35856 -8.17592,1.87683 -4.05509,0.43504 -8.23569,0.1945 -12.33906,0.36965 13.92352,-4.50664 -13.26811,1.36612 -7.26877,-3.03163 7.16904,-0.48751 6.64482,-2.44074 -0.0165,-1.06843 -3.58126,1.78829 -15.20676,-0.11726 -5.41469,-1.57441 -2.75771,-1.43181 -13.67842,-0.11632 -3.79305,-2.10542 6.39116,-0.8906 19.66231,-2.79103 21.00764,-4.54661 -10.06201,0.6633 -20.07926,4.82566 -30.12193,3.27606 -1.5556,-2.80344 6.517,-1.28784 9.21069,-1.94543 4.68641,-0.0313 11.51728,-1.50162 2.0278,-0.94919 -3.13557,1.04328 -22.49496,0.93296 -14.09812,-1.01727 6.51665,-0.54305 13.0333,-1.08611 19.54995,-1.62916 -6.3015,-3.16852 -20.09619,3.3184 -25.31063,-0.32019 5.46453,-0.4337 10.92907,-0.86739 16.39361,-1.30109 -4.05203,-0.88863 -10.02927,0.895 -15.05778,0.0897 -7.45843,0.1879 -1.55968,-0.96409 2.4838,-1.3304 4.73175,-0.6673 9.46351,-1.3346 14.19526,-2.0019 -4.74333,-2.25637 -20.95168,4.82815 -21.75142,-0.17842 4.5671,0.87738 9.26506,-0.69239 13.91525,-1.17269 -2.91082,-1.20268 -20.87937,2.22651 -17.56009,-2.17784 7.28199,0.27698 14.48328,-0.38462 21.61328,-1.87535 -8.39876,-1.3372 -21.06663,5.49832 -28.91277,-2.43192 8.70569,-1.63854 26.45653,-1.45358 29.73877,-4.93119 -9.90085,1.38697 -20.18397,3.08211 -29.85661,3.72098 -3.30073,-1.00373 13.40617,-2.74743 2.32698,-1.842 -9.89361,2.20414 -6.95705,-6.61619 -1.48404,-3.34758 -5.66151,0.15977 -6.42856,2.24063 -0.30484,0.89924 3.8983,-0.69081 8.56343,-0.70601 12.00953,-1.79523 -5.32674,-1.37581 -21.46335,1.21597 -19.11793,-1.33579 4.66353,-0.94531 24.9877,-2.74797 10.21356,-2.19281 -7.10755,1.01723 -15.16913,2.55314 -20.58104,-2.43349 -3.50933,-2.97426 -8.24583,-5.65111 0.007,-5.39653 4.80698,-1.78586 -14.20775,1.62897 -4.50088,-1.04673 7.54302,-0.74735 11.19693,-2.54537 2.17231,-1.76485 -7.5901,0.18138 -2.08402,0.10769 -4.22896,-1.03667 -4.38757,0.34153 -8.42798,1.12382 -2.87432,-1.54628 -4.05896,0.94668 -6.10816,1.57498 -4.68335,-1.30606 -4.62801,0.78705 -10.79619,0.3734 -1.85007,-1.7056 4.63783,-0.58081 13.67453,-2.08775 3.54491,-1.59996 -3.89944,1.79545 -18.99227,0.17206 -7.27957,-1.60329 -9.86755,-0.34283 -20.84071,3.26781 -32.020233,2.1738 -9.771568,0.61062 -18.908321,4.26991 -27.029814,9.71823 -4.780059,1.35515 8.297913,-7.49658 12.310515,-7.5133 6.81623,-1.38634 22.377262,-6.47083 22.856192,-9.3085 -5.672367,1.40961 -13.431277,5.54466 -4.35745,-1.12596 4.03303,-2.13752 17.13207,-7.445293 5.62196,-3.69975 -4.2317,2.46665 -21.640284,11.90646 -10.660119,3.39275 7.871649,-3.30309 11.474749,-7.408135 1.921791,-3.78078 5.983098,-5.699319 17.973108,-10.052098 26.971588,-13.862066 11.06341,-3.452521 -7.91139,5.847833 -10.77506,7.10635 -9.66937,4.071947 -9.37811,5.123386 -0.88361,1.707123 3.7268,-1.331 7.45361,-2.662001 11.18041,-3.993001 -0.64737,3.415055 -6.42403,3.623373 -9.08723,5.778174 -3.43292,2.09451 5.65225,-1.442575 7.53553,-1.626805 1.90614,0.03055 10.98478,-2.718175 7.67991,-0.155489 -3.14622,1.006655 -10.14665,4.375654 -2.9881,2.393065 4.98804,-1.228939 9.97609,-2.457878 14.96414,-3.686817 -4.00417,2.70052 7.40625,-0.711366 -0.69649,3.60412 -4.37228,2.336566 8.62016,-1.078811 4.84103,1.800136 5.76626,0.0482 -3.93266,2.95141 -5.77763,4.051 -4.32163,1.7826 5.49978,-1.01842 7.37116,-1.24291 3.29449,-0.80495 7.28371,-1.92327 2.36831,0.97489 4.75153,-0.69386 5.33896,0.74205 3.87392,1.32851 3.21273,-0.29883 9.61959,-0.45839 4.32,1.1034 8.43616,1.91264 -9.88179,4.39199 -13.41435,5.23754 -4.05926,2.31206 10.69172,-0.8332 14.2043,-2.1391 6.0046,-0.49323 0.62478,2.7277 8.02762,0.9804 -1.68331,1.23687 -6.99453,2.10896 -10.04466,3.19508 -6.71448,1.83643 2.87592,0.31688 5.22402,-0.007 2.38656,0.0834 10.09792,-2.29231 9.07544,-0.39515 -9.63619,1.52588 5.38346,0.89341 1.43735,2.2211 -15.7114,3.23518 13.98821,-0.7914 4.76728,1.59384 -6.98761,0.94609 8.72119,0.36177 2.31006,1.9513 -7.26479,1.61933 -1.53316,0.85442 2.5282,0.39592 2.57421,-0.49349 3.61245,1.61684 5.74467,2.06242 -4.60975,1.63871 -8.14544,3.07057 -1.11461,2.4675 4.63122,1.46609 0.35117,4.25859 8.4291,2.57146 4.30759,-0.25658 7.79743,2.64384 2.18911,3.64344 10.50519,-0.24253 19.81,4.16043 30.80427,5.49534 6.6878,1.39628 22.31761,0.24615 23.60376,-2.11326 -8.3955,0.91839 -16.78582,2.46071 -25.2022,0.8619 -5.36347,0.74927 -18.60916,-6.00109 -5.80972,-3.16298 10.74553,0.0306 -12.00742,-1.5706 0.0116,-2.29571 4.08619,0.21052 17.72414,-0.66651 16.32361,-1.46525 -5.22705,1.01183 -19.98259,0.43828 -18.39091,-2.13206 5.81821,1.57139 21.20377,-1.7897 7.71033,-1.04509 -4.28056,1.61583 -21.26676,-4.65033 -9.96297,-3.1806 3.50837,-0.13597 8.72046,1.57966 11.17609,0.29957 -5.8598,-1.18204 -12.48917,-1.68838 -18.64468,-2.61078 3.60089,-1.44449 8.69695,-0.7989 1.24734,-2.01227 -8.90098,-1.9798 10.79988,1.53935 13.6481,-0.16252 5.01101,-1.41839 -15.57517,0.13362 -12.79145,-2.72022 6.07555,2.2771 15.30607,-2.46736 4.06502,-0.90208 -5.4232,0.70711 -15.25478,-4.59124 -3.94478,-2.61979 12.54343,0.56425 -21.04003,-3.70418 -6.74989,-2.94969 4.31761,1.13374 10.88088,0.55608 2.02466,-1.35215 -6.73733,-2.07201 -20.20322,-2.79065 -23.04277,-3.58418 5.86395,-0.52296 10.54848,-0.50128 16.25775,-0.2841 6.26667,2.50054 5.36535,-2.03852 -0.71185,-3.408735 -8.57832,1.588125 -13.11117,-2.440397 -3.05357,-1.618152 0.15983,-7.764989 -21.72034,-1.375453 -17.38165,-4.831681 5.5205,0.148624 17.76363,-0.624565 5.11407,-1.607737 -0.93914,-2.792864 -6.57952,-1.607104 -10.62061,-2.249217 -11.75693,-1.489481 16.30143,-0.163395 7.77494,-1.446678 -2.59574,-0.422756 -11.43308,-1.307435 -4.41232,-2.407945 5.2411,-4.211485 -16.65872,-1.344829 -17.32199,-3.437484 4.65357,-0.258531 9.30713,-0.517063 13.9607,-0.775594 -6.85855,-1.333971 -6.32563,-5.304694 -13.12806,-6.095999 -4.57906,-3.798172 -15.9598,-5.342772 -19.61038,-6.954733 -6.91448,-2.814594 -17.80246,-3.580275 -26.06428,-4.852373 -10.41608,-0.585359 -21.119731,-1.485793 -31.178129,1.960552 z m 17.563829,-1.621268 c 0.41198,1.943661 -4.06573,0.03064 0,0 z m 18.91489,0.810639 c -2.1573,1.742808 -2.48417,-0.554994 0,0 z m -29.7234,0.270212 c -1.1602,2.885446 -8.730197,2.464392 -1.436926,0.191395 z m 19.72553,0.540426 c -2.61365,1.628016 -4.30803,1.119815 0,0 z m -14.051062,0.810638 c -5.090248,3.077428 -5.790796,2.393581 0,0 z M 62.678102,69.17448 c 3.941259,-2.252149 5.03614,-2.877795 0,0 z m 5.674468,-0.810638 c 1.798244,-1.28446 3.08464,-2.203315 0,0 z m 34.04681,-0.270213 c -1.26301,-0.947261 -1.53777,-1.153328 0,0 z m 2.97234,-0.810638 c 0.43605,0.595606 -0.80305,2.230052 0,0 z m -29.453193,1.621276 c -2.312314,0.721566 -1.355686,-1.857664 0,0 z m 25.400003,-0.810638 c -2.755633,1.530906 -3.032883,1.684934 0,0 z m -12.970215,0.270213 c -0.771094,4.281772 -13.84588,8.303423 -4.514889,2.195664 1.390827,-0.945584 2.919752,-1.673813 4.514889,-2.195664 z m 21.346805,0.540425 c -2.12401,3.413938 -12.912974,6.543351 -4.62478,1.461895 l 2.28037,-1.005752 z m 22.42766,-0.270213 c 0.0621,1.578188 -2.61598,-0.284022 0,0 z m 6.48511,1.351064 c -1.57732,0 -4.87235,0 0,0 z M 98.886613,69.714896 c -1.055052,0.847523 -2.266644,0.454967 0,0 z m 26.210637,0.540426 c -1.78574,3.376021 -11.27007,6.151291 -4.07734,1.40975 l 1.91786,-0.920225 z m -34.31702,0.540425 c -3.339248,4.513343 -15.779099,13.082141 -6.400628,3.19494 1.811111,-1.539909 3.939138,-3.05169 6.400628,-3.19494 z m 52.42128,0.540426 c -1.89851,0.69358 -1.17693,-1.195188 0,0 z M 119.15257,71.06596 c -4.67234,5.979106 -9.11286,2.808506 0,0 z m -18.64468,0.270213 c -3.21488,0.998726 -5.668515,8.279359 -7.842203,5.743054 -2.08075,-2.386115 6.374222,-4.041758 7.842203,-5.743054 z m 31.88511,0.540425 c -2.55562,3.325886 -13.39379,6.137804 -4.71253,1.576415 1.44488,-0.829557 3.04841,-1.419725 4.71253,-1.576415 z m -26.48086,2.972341 c 3.95846,-5.422358 8.14942,-0.339861 0,0 z M 77.539804,72.146811 c -0.682605,3.859385 -10.37376,6.775809 -3.503936,2.081664 l 1.667368,-1.111223 z m 71.336176,0.810638 c -5.00347,0.425349 -11.75963,-0.597867 -1.82837,-0.691583 z M 65.110017,72.687237 c -1.845862,4.134263 -5.612373,2.240127 0,0 z M 54.031293,74.0383 c -2.788649,4.619134 -9.326484,6.584563 -6.281927,2.605475 -6.862653,2.955042 1.637398,-4.383048 4.770847,-2.79783 z m 47.017027,-0.270212 c -0.39738,0.500701 -1.760233,-0.784534 0,0 z m -33.506388,0.810638 c -1.817824,5.600888 -7.834735,6.338569 0,0 z m 2.97234,0 c -3.63626,6.278309 -5.135883,4.946586 0,0 z m 7.565958,0 c -0.793805,2.413536 -1.610159,1.27588 0,0 z m 68.36383,0 c -3.26916,4.096655 -15.82469,6.094196 -5.76104,1.187296 1.82135,-0.757735 3.78893,-1.1606 5.76104,-1.187296 z m -97.817022,1.621277 c 2.807889,-1.754931 2.950739,-1.844212 0,0 z m 87.548942,-1.351064 c -4.37716,3.523344 -8.2115,2.691489 0,0 z m -72.146814,0.540425 c -1.408033,6.623566 -8.099091,6.504565 0,0 z m 95.385104,0.540426 c 1.20773,2.329323 -11.22272,0.0053 -6.21528,0.414352 2.07176,-0.138118 4.14352,-0.276235 6.21528,-0.414352 z m -99.708509,1.080851 c -2.312315,0.721566 -1.355686,-1.857664 0,0 z m 17.023405,-0.810638 c 0.247488,2.004099 -3.68511,0.759197 0,0 z m 86.197874,0.540425 c -1.31181,0.787085 -2.20836,1.325022 0,0 z m -60.61773,0.990786 -0.0901,0.180131 z m 27.65177,-0.180148 -0.27021,0.270213 z m 31.6149,1.080851 c -6.98904,3.702924 -9.42444,-2.817129 -0.92363,-0.09555 l 0.62841,0.06501 z m -15.94256,-0.810638 c -1.3591,2.554147 -1.5534,-1.694936 0,0 z m -91.602127,0.270213 c 0.245229,2.290883 -6.828578,6.261126 -6.755319,4.140722 2.098601,-1.46098 4.533272,-2.750881 6.755319,-4.140722 z m 57.825537,0.270213 c 3.72895,0.825864 -1.48806,0.579477 0,0 z m 41.07234,2.702127 c -4.86963,-1.372882 -4.1439,-4.824534 0,0 z M 108.07385,78.90213 c 1.2086,4.805785 -2.63696,-0.03719 0,0 z m -79.71277,4.053192 c 3.707948,-2.384329 4.322385,-4.54766 0,0 z m 25.4,-2.431915 c 5.646389,2.732839 -6.074261,3.968161 -0.149434,0.06404 z m -21.617021,2.431915 c 3.078574,-2.238964 3.903314,-2.838775 0,0 z m 124.297871,-1.89149 c 0.53899,2.369752 -2.01945,2.922213 -0.0545,0.122653 z M 40.790867,82.144683 c -2.117488,2.998678 -5.860165,5.846375 -7.295745,8.646808 3.294887,-1.929493 5.521348,-6.760842 9.72766,-6.214893 -6.455703,5.686774 -12.326047,11.828109 -17.56383,18.644682 -0.533581,-5.365337 8.064724,-9.773306 5.975101,-13.461724 0.92347,-3.978386 6.325824,-5.072403 9.156814,-7.614873 z m 111.057453,0.540426 c 6.4246,-0.05745 3.92682,4.701667 0.53662,2.297764 l -0.45932,-1.013248 z M 26.739803,84.576598 c 1.507509,-1.80901 1.870527,-2.244632 0,0 z M 47.005761,83.76596 c -2.441347,3.805361 -2.270807,-0.478632 0,0 z m 65.931919,-0.270213 c -0.0189,5.37089 -1.81086,-0.126432 0,0 z m 60.52766,1.891489 c -5.45662,1.793093 -22.55213,0.255428 -8.33724,-0.925398 2.67379,-0.388613 6.30379,-1.58808 8.33724,0.925398 z m -65.39149,-1.080851 c -2.94949,1.797263 -3.74666,-0.534833 0,0 z m -89.170217,1.89149 c 2.060984,-0.895021 1.720222,-2.19287 0,0 z m 33.776596,-1.531203 -0.09007,0.09006 z m 90.791491,1.621276 -0.0901,0.09007 z m -38.1,5.043969 c 1.45292,-2.578819 9.32461,-5.595336 3.92705,-1.83913 -1.30902,0.613044 -2.61803,1.226087 -3.92705,1.83913 z m 15.13191,-4.323404 c -3.77631,4.575838 -17.54485,8.395888 -6.45466,1.878775 1.99672,-1.026964 4.1787,-1.859979 6.45466,-1.878775 z m 38.64043,0.270213 c -2.0095,1.835249 -3.13127,0.944572 0,0 z m 10.26809,0.540425 c -5.62304,1.889348 -8.67872,-1.234525 0,0 z m -29.18298,-0.270213 c -2.42079,2.212856 -7.01033,2.950198 -10.26809,4.593617 1.46546,-2.845264 6.79142,-4.173117 10.26809,-4.593617 z m -41.342557,0.270213 c -1.58451,4.29543 -17.256602,15.268819 -9.167645,5.021776 2.734911,-2.216079 6.088613,-3.396941 9.167645,-5.021776 z m 7.025527,0 c -3.19934,5.289561 -17.461747,9.738601 -6.462939,2.425954 1.970749,-1.205641 4.154459,-2.139742 6.462939,-2.425954 z m -64.310634,0.810638 -0.270213,0.270213 z m 109.436174,0 c 1.74045,0.460743 -0.0965,1.486373 0,0 z M 41.331293,89.170215 c -3.529497,4.960427 -5.496313,0.934902 0,0 z m 101.870217,0 c -6.12199,3.769047 -7.03117,1.021105 0,0 z m 4.05319,0.540425 c -1.57787,2.724603 -4.25407,0.206186 0,0 z m -57.825534,0.540426 c -3.191973,4.853018 -11.309149,7.484631 -3.23854,1.046889 l 1.505888,-0.700327 z m 79.172344,0.270213 c -3.70581,2.287937 -7.79062,0.612586 0,0 z m 11.07872,0.270212 c -3.13783,2.895773 -11.43032,-0.607952 -2.78504,0.09604 0.92835,-0.03201 1.85669,-0.06402 2.78504,-0.09604 z m -26.21064,1.351064 c -2.85523,1.427614 -3.34987,1.674933 0,0 z m 4.86383,-0.270212 c -1.3591,2.554121 -1.5534,-1.69492 0,0 z M 37.548314,92.142555 c -1.278268,2.599434 -1.911397,1.269977 0,0 z M 145.093,94.304257 c -3.46038,-0.643468 -3.29305,-1.811505 -0.0966,-0.04393 z m 4.05319,0 c -2.48415,0.838401 -2.35745,-3.131994 0,0 z M 26.46959,93.223406 c -0.590523,5.919127 -12.991302,15.705074 -5.944681,5.674468 -3.028268,2.917106 -12.7811414,14.006286 -6.454247,3.180526 4.530106,-6.556914 7.388867,-2.591389 12.398928,-8.854994 z m 131.59362,0.270213 c 5.1404,1.067243 -4.51978,3.845638 -0.10504,0.140051 z m 14.32128,0 c -3.81347,1.838982 -4.90623,0.882161 0,0 z m -35.9383,0.270213 c -3.11873,3.236804 -2.04727,0.233943 0,0 z m -57.285109,0.270213 c -2.70704,2.128273 -8.839943,9.453115 -3.905837,2.030645 1.192836,-0.862131 2.494615,-1.588718 3.905837,-2.030645 z m 20.806383,0.270212 c -5.535779,4.547571 -0.723031,3.086023 3.528906,1.95012 -0.85251,4.470803 -16.194791,6.360073 -6.771459,1.832859 -4.594355,2.661694 -10.561872,3.870794 -2.867618,-1.651402 1.881311,-1.07196 3.954205,-1.858836 6.110171,-2.131577 z m 49.178726,1.621277 c -1.49386,-0.165984 -4.99381,-0.554867 0,0 z m 46.20638,0.270213 c -1.92767,2.004546 -7.44367,0.573383 -10.72989,1.277154 -5.49258,-0.427909 9.86902,-3.473744 10.72989,-1.277154 z m -16.48298,1.621276 c -6.86806,1.686288 -2.58977,-3.063046 0,0 z M 32.954697,96.465959 c 0.278997,1.659755 -1.659755,-0.278997 0,0 z m 130.242553,0.270213 c -1.33313,2.131658 -5.09167,0.638533 0,0 z m -91.602127,0 c -2.161702,3.152483 -4.323404,6.304968 -6.485106,9.457448 -0.204527,-4.00465 3.024522,-7.823995 6.485106,-9.457448 z m 82.144687,0.540426 c -1.37812,1.534517 -4.83874,2.688121 0,0 z M 7.2844837,98.897874 c -1.0739572,2.618216 -7.19476565,10.794696 -3.273865,2.610906 l 1.3516697,-1.634674 z m 2.1617022,0 c -0.249947,3.587936 -7.3153707,9.965676 -2.8073902,3.030166 l 1.275606,-1.60615 z m 72.9574481,0 c -2.299792,4.323056 -14.631823,18.420876 -8.157656,6.565736 1.909017,-2.98076 4.725618,-5.515339 8.157656,-6.565736 z m 85.657446,0.270213 c -5.65287,2.604853 -7.3933,-0.123965 0,0 z M 64.029166,99.708513 c -0.700694,4.772637 -4.364629,6.936997 0,0 z m 48.368084,0.810637 c 1.05144,1.39705 2.73532,-1.112394 0,0 z m 79.98298,0.81064 c -5.32695,1.78491 -13.805,-2.258937 -4.34491,-0.46972 1.4483,0.15657 2.89661,0.31315 4.34491,0.46972 z m -71.33617,0.81064 c 3.46038,-0.64347 3.29305,-1.81152 0.0966,-0.0439 z m 16.48298,-1.35107 c 1.58057,1.69659 4.3254,-0.60261 0.17506,0 z m -62.689364,0.54043 c -1.119824,4.33366 -8.302778,7.19876 -2.526459,1.16892 l 1.174131,-0.73224 z m 9.997873,-0.27021 c -2.198699,4.85107 -12.610092,12.3461 -5.237226,3.30983 1.458079,-1.48701 3.256164,-2.6538 5.237226,-3.30983 z m 49.448941,0.81063 c 2.00229,1.14958 5.41527,-0.897 0,0 z M 1.6100155,102.68085 c 1.5122206,-1.9909 -1.62075237,4.04249 -1.86838614,2.20271 -1.75066096,3.2251 -2.58308896,7.83816 -4.88693316,10.22708 2.7762813,-3.93557 0.5487009,-12.58429 6.7553193,-12.42979 z M 166.98023,102.14043 c -0.19803,1.20841 -2.49065,0.31031 0,0 z m -109.976597,0.27021 c 2.27305,5.33166 -7.748654,5.80609 0,0 z m 61.068087,0.81064 c 2.13558,0.50361 2.62665,-0.96172 0,0 z m 14.05106,-0.81064 c 0.37609,1.69301 4.15377,-0.45229 0,0 z m -35.397869,0.27021 c 0.957456,4.2662 -9.646591,5.67078 -1.866363,1.39977 0.622121,-0.46659 1.244242,-0.93318 1.866363,-1.39977 z m 74.308509,0 c -2.77586,2.13359 -6.14761,1.58553 0,0 z m -41.34255,1.08085 c 2.70222,-0.33777 3.05187,-0.38148 0,0 z m -70.525534,-0.54042 c 0.287289,3.47937 -2.212194,-0.68506 0,0 z m 55.663834,0.81064 c 3.64452,0.61332 4.36676,-1.72739 0,0 z m -28.372345,-0.54043 c -0.08155,2.9565 -11.697973,8.89217 -4.177981,2.24685 l 1.940529,-1.36177 z m 79.172345,0.46903 c 0,1.13696 0,0.66463 0,0 z m -39.18085,0.0714 c 0.96397,1.17994 3.33186,-0.19409 0,0 z m -15.40213,0.81063 c -4.30399,2.49032 0.65266,1.30099 3.53715,-0.18827 0.0932,-0.14339 -2.7485,0.16667 -3.53715,0.18827 z m -28.372343,5.94469 c 2.55151,4.47225 -7.569419,5.22751 -0.07629,-0.46849 2.646219,-6.17744 10.711566,-5.4989 1.629524,-0.59577 z m 40.802133,-5.40426 c 3.17141,-0.28831 3.68402,-0.33491 0,0 z m -2.43192,0.27021 c 1.59828,0.28756 2.88476,-0.65358 0,0 z m 87.00851,0 c 2.80128,2.24875 3.24606,-0.64644 0,0 z m -15.13191,0.81064 c -4.27245,1.54784 -15.28942,-1.00415 -5.26052,-0.90702 1.78229,0.0816 3.55204,0.39571 5.26052,0.90702 z M 8.9057603,105.92341 c -1.4413118,2.50662 -1.8249415,0.0487 0,0 z m 109.4361697,1.08085 c 2.17164,0.21123 1.7702,-1.27809 0,0 z m 18.37447,-0.54043 c 1.59831,0.28753 2.88474,-0.65356 0,0 z m -29.45319,0 c 1.19594,1.11933 2.26945,-0.55535 0,0 z m 66.74255,0 c -2.09366,0.86298 -2.13559,0.20618 0,0 z m -26.48085,1.35107 c 7.69471,-0.0759 7.55594,-1.89372 0,0 z m -32.96596,1.62127 c -5.23563,2.98292 -12.93484,2.60802 -3.71717,-0.45225 16.45401,-3.60957 -13.91496,-0.30472 -10.991279,4.23431 4.229149,-1.85747 8.655939,0.57137 12.795089,-1.60264 6.63863,-2.2292 13.8034,-1.4241 20.5386,-3.44539 7.13845,-1.44534 -1.44094,-0.6691 -4.20392,0.15112 -4.80756,0.34475 -9.65236,0.20795 -14.42132,1.11485 z M 65.110017,107.8149 c -2.92852,8.54468 -8.382915,7.96289 -1.322343,1.01649 0.456875,-0.30578 0.540864,-1.36998 1.322343,-1.01649 z m -61.6085121,1.08085 c 2.815533,1.05333 -3.27090779,1.94889 -2.76274525,5.50614 -2.58568545,5.2921 0.91454385,-7.40507 -2.64151015,-0.91253 -0.084337,-2.67248 3.1705308,-4.35751 5.4042554,-4.59361 z m 86.1978741,-0.54043 c -3.254025,3.54363 -6.043055,2.72016 0,0 z m -28.102128,0.27021 c -1.575424,4.7659 -9.47175,8.69845 -2.909591,1.49021 l 1.342333,-0.91233 z m 80.793619,0.54043 c 3.04058,0.6992 9.10188,-0.9602 0,0 z m -90.521279,-0.27021 c -1.245506,1.24551 -1.660195,1.66019 0,0 z m 141.321279,0.54042 c -0.76754,2.0961 -4.29763,-0.68309 0,0 z M 7.8249092,109.9766 c -1.6840735,3.41927 -5.9693715,4.99116 0,0 z M 76.18874,109.70638 c 0.279981,1.58688 -0.609741,2.79961 0,0 z m 62.14894,0.54043 c 1.50951,1.14371 4.55827,-0.15448 0,0 z m -88.629791,0 c -1.434593,2.79056 -3.176933,3.11858 0,0 z m 154.561701,0.81064 c -4.37378,1.34716 -14.62766,-1.60598 -4.33057,-0.35113 1.44352,0.11704 2.88705,0.23409 4.33057,0.35113 z m -149.968084,0 c -1.284458,1.79824 -2.203317,3.08464 0,0 z m 76.470214,0 c 2.19585,1.62171 10.43442,-0.30354 2.69451,0 -0.89817,0 -1.79634,0 -2.69451,0 z m -64.580852,0.27021 c -1.811275,5.05287 -7.89094,8.33967 -1.697858,1.12556 z m 49.448932,0.54043 c 1.68538,0.87981 3.42709,0.59203 0,0 z m -47.28723,0.27021 c 0.404008,4.13851 -8.368455,11.51834 -3.251376,3.69187 1.384257,-0.48174 1.35275,-4.08763 3.251376,-3.69187 z m 126.45958,1.89149 c -5.02997,0.83689 -11.75919,-0.56463 -1.98051,-0.87302 z m -83.76596,-1.08085 c 2.45271,1.66802 5.31211,-1.11783 0,0 z m -107.0042595,0 c 0.4786897,2.73786 -1.3825967,-0.33755 0,0 z m 45.3957455,0.27021 c -1.05116,2.00869 -1.202748,9.62094 -3.455392,6.30373 -0.239118,-3.87898 0.133974,-4.66938 3.455392,-6.30373 z m 3.242553,0.27021 c 0,1.27716 0,1.11165 0,0 z M 186.16534,114.3 c -2.33127,0.73296 -1.63324,-1.30548 0,0 z M 75.918527,113.75958 c 4.351871,0.95932 -6.266341,8.51159 -1.942388,3.23731 0.647463,-1.0791 1.294925,-2.15821 1.942388,-3.23731 z m -72.4170221,0.27021 c -2.0840426,3.57327 -2.78588945,2.0586 0,0 z M 207.51215,114.3 c -1.75115,0.67194 -3.77981,0.13191 0,0 z m -8.10639,0 c -3.52227,0.76475 0.19916,-0.003 0,0 z m -59.44681,7.56596 c -2.87148,1.2459 4.55431,4.13683 6.00683,6.108 7.41039,6.04749 15.62994,11.5434 21.82509,18.75157 -6.82082,-2.83272 -1.25637,1.78411 1.10544,4.4746 1.58582,2.74855 1.61137,3.16727 5.54206,6.11437 -0.0156,2.0568 1.10294,3.75326 5.40215,5.88597 3.93418,2.44653 7.71571,5.1172 11.45886,7.84421 -10.731,-4.13472 -19.93389,-11.67676 -28.56,-19.11765 -0.6588,0.30976 12.88587,11.81513 11.76743,12.5885 -1.9544,-0.13876 -9.3721,-6.30837 -6.2231,-3.44389 4.73913,3.45942 0.73751,4.05927 5.28861,6.9159 9.18836,6.90337 -2.68942,0.96833 -6.2097,-2.84992 -5.6822,-3.35901 -5.76198,-6.73865 -7.94835,-9.22485 -9.57164,-1.71977 -17.81352,-15.0535 -28.43435,-18.92934 -14.2447,-7.8779 -31.931251,-7.6569 -47.250601,-3.51473 -4.717744,1.87106 -15.431538,9.20788 -15.215309,7.27228 2.574928,-4.0051 15.431612,-10.51499 5.783241,-5.90481 -3.334072,-5.4454 20.424469,-8.95225 8.822623,-7.90557 -6.387668,-0.83299 8.16352,-3.04914 2.589287,-3.67184 -1.37763,-1.08229 6.502902,-2.38388 8.854048,-3.5545 -6.350208,-0.96712 -17.627809,8.40563 -19.211605,6.00382 8.854394,-6.55917 17.235509,-11.78686 29.204986,-10.83103 11.63369,-0.52494 22.62769,3.56697 33.51357,6.87913 z m -68.363827,-6.48511 c -2.797223,4.81902 -5.942835,7.01132 -1.50429,0.73817 -0.642436,-0.93299 1.128902,-0.44358 1.50429,-0.73817 z m -26.751064,0.27022 c -2.297583,3.73357 -2.937482,4.7734 0,0 z m 107.004261,0.54042 c 0.37609,1.69301 4.15377,-0.45229 0,0 z m -6.2149,0.81064 c 1.8374,1.68544 8.43143,-0.52066 0,0 z m 57.55532,1.62128 c -2.83205,-0.44046 -3.06836,-1.67893 0,0 z m -208.3340438,0.54042 c 4.87740334,-4.18739 -5.5007282,8.30758 -1.8417537,-0.18033 0.2093858,-1.67563 1.8487189,-0.73982 1.8417537,0.18033 z m 95.6553208,-1.35106 c 2.598292,1.08956 6.804756,-0.85967 0,0 z m 51.070213,0 c 2.05416,1.677 5.84669,-0.58338 0.62415,0 z m -56.204256,1.89149 c 5.022262,-0.49615 7.376955,-2.55971 0,0 z m -86.738299,-1.35107 c -0.1223494,3.74551 -2.5843832,5.42342 0,0 z m 165.100005,0 c 1.58057,1.69659 4.3254,-0.60261 0.17506,0 z m -113.489366,0.27022 c 3.260027,2.41235 -5.041405,4.27567 0,0 z m 2.702128,3.78297 c 0.74053,-4.39218 4.824468,-1.93277 0,0 z m 41.612767,-2.70212 c 5.145816,0.34937 13.811721,-0.35467 3.409863,-0.9561 l -1.264187,0.19122 z m 12.700001,0 c 3.1584,0.0409 13.56512,-0.4807 4.09782,-0.88177 l -2.1453,0.21894 z m 99.97872,-0.81064 c -1.35912,2.55399 -1.55338,-1.69484 0,0 z m -213.1978721,0.27021 c -0.5710993,2.12726 0.9646207,1.87633 0,0 z m 89.7106401,0.27021 c -2.217523,2.10363 -6.167818,0.62738 0,0 z m 76.740422,-0.27021 c 0.37609,1.69301 4.15377,-0.45229 0,0 z m 58.63618,0.27021 c 2.71319,1.25756 7.75873,0.18275 11.3718,0.54043 -1.51298,-1.03202 -8.00078,-1.01873 -11.3718,-0.54043 z M 37.278101,124.8383 c -1.895652,-3.06086 3.906834,-6.83736 0,0 z m 20.806384,-5.40426 c -1.001568,5.2058 -4.505787,4.73007 0,0 z m 57.825535,0.27022 c 1.05185,1.54951 5.8511,-0.68339 0,0 z m 73.22766,0.54042 c -2.96899,0.43396 -3.54803,-0.83796 0,0 z M 32.954697,119.70426 c 1.464725,6.34452 -4.174266,13.68562 0,0 z m 38.910639,0.27021 c 1.039277,3.01914 -2.505898,0.74511 0,0 z m 84.576594,0.27021 c 2.10882,0.26491 4.60894,-0.7004 0,0 z m -176.719149,0 c -2.099209,3.58914 -0.726774,8.52218 2.972341,3.78298 -1.069597,-0.99315 -1.490969,-3.60258 -2.972341,-3.78298 z m 139.159579,0.27021 c 1.91216,0.85361 4.31499,0.55513 0,0 z m 2.97234,0.81064 c 1.46453,0.63067 3.73385,0.21513 0,0 z m -31.885108,1.08085 c 10.488088,0.4636 9.206077,-1.85451 0.403085,-0.0474 z m 140.510638,-0.81063 c 2.43008,2.19323 6.12583,-0.94737 0,0 z m -61.87872,0.54042 c -0.49882,1.58697 2.27173,0.23827 0,0 z m 41.07234,0.27021 c 0.4179,1.71781 -4.67129,0.81666 0,0 z m -82.95532,0.27022 c 4.06383,1.45136 5.21558,1.8627 0,0 z m -39.180853,0.54042 c 1.539934,0.29897 3.977377,-0.72415 0,0 z m 77.821273,-0.27021 c 2.54682,1.06308 2.1972,-0.5494 0,0 z m 48.36809,1.08085 c 5.36333,3.48401 -5.37215,-1.24701 -2.54749,-0.54589 0.84916,0.18196 1.69833,0.36393 2.54749,0.54589 z M 39.710016,127 c 0.453896,-5.09756 5.654695,-3.15341 0,0 z m 167.531914,-2.1617 c -0.5784,1.80867 -12.73321,-2.22804 -3.77288,-0.81248 l 1.93055,0.38859 z M -8.387857,123.75745 c -1.3837489,3.16357 -3.164404,3.74084 0,0 z m 92.953193,0 c -2.065889,1.03904 -2.029417,-0.52128 0,0 z m 46.206384,1.08085 c 1.43424,-0.5737 1.96656,-0.78663 0,0 z m -86.197874,1.35106 c 2.630106,-3.15058 -1.051135,5.93768 -0.686947,1.23989 z m -50.5297881,-1.62127 c 0.9480435,3.32373 -1.3805915,0.12141 0,0 z m 35.1276601,0 c -0.816275,3.47929 -1.56214,3.91907 0,0 z m 62.41915,0 c 2.71229,1.32798 7.756116,0.3842 11.367962,0.83569 2.07731,0.035 12.26418,0.5412 7.54376,-0.34448 -6.30391,-0.16374 -12.607815,-0.32747 -18.911722,-0.49121 z m 61.878722,0.27021 c 3.41195,1.51114 7.52914,-0.98418 0.7178,-0.0378 l -0.6309,0.0332 z m 81.06383,-0.27021 c -0.28318,1.88098 4.61959,-0.9453 0.53662,0 z m -184.014893,0.54042 c -1.745623,4.05315 -7.326186,6.70238 -1.825832,0.52539 z M 132.393,124.8383 c 2.55174,4.17219 13.74424,8.34327 4.92274,2.45941 -1.53789,-1.00569 -3.18075,-1.86516 -4.92274,-2.45941 z m -43.774472,1.08085 c 3.171405,-0.28831 3.684018,-0.33491 0,0 z m 85.927662,0.27021 c 1.09955,1.04978 11.90568,-1.29742 4.68482,-0.32309 -1.5616,0.1077 -3.12321,0.21539 -4.68482,0.32309 z M -4.3346654,125.37872 c 0.587739,3.6255 -1.0619077,1.11855 0,0 z m 67.5531924,0.27022 c -2.1933,4.1003 -6.7543,7.20387 -1.706903,0.73179 z m 4.593617,0 c -2.762377,2.76604 -6.977365,7.5989 -3.251013,1.1326 0.279857,-1.28958 2.33181,-0.63262 3.251013,-1.1326 z m -41.612766,0 c -0.920379,6.29463 -2.461144,0.3883 -4.323405,4.86383 0.444059,-2.08442 2.275813,-4.22593 4.323405,-4.86383 z m 31.614894,0.81064 c -3.087237,4.63168 -5.023931,4.61844 -1.621277,-0.81064 0.540426,0.27021 1.080851,0.54043 1.621277,0.81064 z m 88.359578,-0.54043 c 2.03663,0.93107 11.05716,-0.26896 3.86903,-0.14881 -1.28968,0.0496 -2.57935,0.0992 -3.86903,0.14881 z M 3.5015049,126.45958 c 0.3109576,3.01415 -1.9353993,-0.44641 0,0 z m 48.4973211,0.55157 c 3.962613,1.08779 -4.128751,4.93899 0,0 z m 152.540984,-0.28136 c -3.6284,0.86765 -4.83959,-0.34779 0,0 z m 10.80851,1.89149 c -5.4416,-2.46871 -5.957,-2.21656 -0.12504,-0.05 z m -216.4404322,0 c -0.3132995,-2.09129 2.04754239,-0.49549 0,0 z M 149.4164,127.27021 c 3.05073,3.1213 14.80748,-1.57321 0,0 z M 169.95257,127 c 1.83738,1.68547 8.43144,-0.52067 0,0 z m -142.131916,0.54043 c 0.409643,2.98519 -1.050811,2.61961 0,0 z m 59.987235,0.81063 c 2.017764,1.97 11.335234,-1.96712 1.706691,-0.40935 z m -97.0063843,-0.54042 c -1.5098117,5.90106 -3.3979647,0.14585 -0.087531,0 z m 11.6191491,0 c -1.75493487,2.80789 -1.84420947,2.95073 0,0 z m 2.431915,0 c -0.5736971,1.43424 -0.7866268,1.96656 0,0 z m 160.5063812,0 c 1.8374,1.68544 8.43143,-0.52066 0,0 z m 74.57873,0 c 1.8374,1.68544 8.43141,-0.52066 0,0 z M 7.2844837,128.62128 c -0.5510212,2.5582 -2.0005681,0.38557 0,0 z m 144.5638363,1.62127 c 3.78298,-0.36028 7.56595,-0.72057 11.34893,-1.08085 -2.59421,-1.22283 -8.27829,-0.82495 -11.34893,1.08085 z m 34.58723,-1.89149 c 1.46372,1.6839 4.82313,-0.56906 0.44527,0 z m 17.83404,1.08086 c -1.89852,0.6936 -1.1769,-1.19522 0,0 z m -92.95319,-0.54043 c 0.51085,2.55724 8.38344,0.71861 0,0 z m -99.168086,0.27021 c -1.913812,7.6907 -3.1664117,3.48216 0,0 z m 3.512766,0 c -0.555742,2.9936 -1.620413,0.23196 0,0 z m 69.714894,0.54043 c 1.578766,0 1.922216,0 0,0 z m 98.897876,-0.54043 c 0.37609,1.69301 4.15377,-0.45229 0,0 z m -114.029791,0.27022 c -2.040257,3.79394 -4.240484,7.43225 -8.376596,9.18723 1.59816,-3.93141 5.066708,-6.72456 8.376596,-9.18723 z m -32.965958,0.27021 c -1.186701,5.13218 -2.251959,3.4352 0,0 z m 79.442559,0.27021 c 4.12633,2.69125 4.14912,-0.25011 0,0 z m -107.8148997,0 c -1.9570066,3.32559 -2.1946213,-0.93279 0,0 z m 74.0382987,0 c 0.198023,1.20842 2.490659,0.31032 0,0 z m 98.087241,0 c 1.36802,1.45385 3.72852,-0.38284 0,0 z m -194.282987,0.27021 c 0.561153,3.69642 -2.510814,-0.46199 0,0 z m 189.689367,1.08086 c 3.13225,-0.31323 3.3827,-0.33828 0,0 z M 27.820654,130.78298 c -2.173804,7.12625 -4.340688,6.00673 0,0 z m 53.502129,0.27021 c 1.051478,1.39711 2.735272,-1.11243 0,0 z m 73.768087,0 c 4.42311,0.66208 7.80153,0.0934 0.89576,0.0407 l -0.63111,-0.0287 z m 89.44043,1.35107 c 10.37591,-0.82745 7.48613,-2.41143 0,0 z m -102.68086,-1.35107 c 3.07857,2.23896 3.90331,2.83877 0,0 z m 71.8766,0 c -0.82779,2.51217 -5.44206,-0.84675 -0.44527,0 z m -18.64468,0.54043 c 1.46459,0.63065 3.73379,0.21511 0,0 z m -175.368089,0 c -0.87329,7.57582 -5.533822,2.72156 -0.346557,0.55449 l 0.334836,-0.53574 z m 59.44681,0 c 1.359126,2.55399 1.553381,-1.69484 0,0 z m 45.395749,1.35106 c 2.69637,-0.14659 0.45502,-1.68142 0,0 z m 67.55319,0 c 3.02379,-0.90714 3.36297,-1.00889 0,0 z M 71.865336,132.67447 c -2.886839,3.26198 -5.003825,7.39903 -9.187234,9.18723 2.078482,-3.76159 4.850677,-7.89143 9.187234,-9.18723 z m 153.751064,0 c 4.0095,2.31173 19.12494,0.46597 16.74958,-0.24275 -5.58319,0.0809 -11.16639,0.16183 -16.74958,0.24275 z m -164.829788,0 c -1.430182,3.40771 -1.928034,0.14194 0,0 z m 123.487238,1.08085 c 0.82408,1.27953 11.69568,-1.05119 5.05328,-0.54142 -1.68443,0.18047 -3.36885,0.36095 -5.05328,0.54142 z m -134.025536,5.13404 c -1.390327,-3.90806 5.591334,-7.30984 1.586989,-1.71743 z m -9.997872,-5.40425 c -0.170873,5.54589 -6.067569,9.038 -2.034407,1.67579 l 0.890241,-0.93077 z m 88.359578,0 c 0.99876,1.67683 4.44977,1.73696 0,0 z m 16.48298,0 c -1.49269,1.81877 3.68188,1.48693 0,0 z m -95.114899,0.27021 c -0.555396,6.82954 -5.265799,6.25867 -6.718196,8.91394 -2.275905,6.74751 -3.687249,1.02477 -2.107485,-1.88841 -0.143752,5.7114 2.801428,-5.3992 3.421426,-4.23206 -1.159414,7.15291 2.526395,0.49316 4.735936,-1.95807 l 0.394661,-0.49333 z m -50.80000042,0.27021 c -0.66804998,2.99263 1.34588272,0.85157 0,0 z m 57.82553242,0.27022 c -0.847394,2.49606 -7.210999,12.33508 -4.446379,3.90445 0.765283,-1.86093 2.226282,-3.90332 4.446379,-3.90445 z m 37.829788,-0.27022 -0.270212,0.27022 z m 0.810639,0.0901 -0.09007,0.0901 z m -52.961703,0.18014 c -0.719945,3.63921 -1.635484,4.60406 0,0 z m 16.753191,0 c 0.310959,3.01415 -1.935399,-0.44641 0,0 z m 146.995752,0 c -0.0621,1.57817 2.61598,-0.28402 0,0 z m -27.56171,0.27021 c 2.01119,1.68439 6.448,-0.51755 0.89436,0 h -0.63177 z M 132.393,135.1064 c 3.8498,3.17596 6.86352,3.78072 0,0 z m 71.33617,0.27022 c 1.05141,1.39705 2.73534,-1.1124 0,0 z m -189.95958,0 c -2.252148,3.94126 -2.877795,5.03614 0,0 z m 126.45958,0.54042 c 1.50044,0.75022 4.19625,2.09813 0,0 z m 57.2851,0.81064 c 3.35389,1.16036 7.54228,-1.77673 0.7658,-0.12092 l -0.62403,0.0985 z M 24.848314,136.18723 c 0.728363,5.54134 -2.646827,0.34017 0,0 z m -47.287235,0.27022 c -2.477094,2.75506 2.429809,0.85642 0,0 z m 79.98298,0 c -0.901179,2.62128 -2.599535,0.88701 0,0 z m 46.476601,0.54042 c -3.47672,1.52281 -5.265309,2.97352 -2.04625,3.43981 -6.56544,4.6752 7.85873,-1.59317 2.97056,6.57728 -5.344374,4.27246 4.83575,9.72347 -3.84019,7.37431 -15.153335,-4.58761 -3.130596,20.35045 -2.248806,20.54865 -7.989361,-8.04322 0.614865,3.50598 4.624256,5.29399 -5.995788,0.26068 -15.722717,-15.05452 -8.187167,-3.28377 2.589921,3.41981 14.920047,8.56525 4.221902,5.20972 -7.376969,-1.14242 -11.40109,-18.31263 -12.19898,-16.84741 1.442722,5.09916 6.318296,17.80829 0.542347,5.67534 -4.600398,-3.40945 -2.322674,-21.22241 -3.160291,-17.77634 -0.922685,7.13611 -0.971048,14.62636 3.013203,20.91921 2.166493,6.67729 -6.489772,-8.25714 -5.262223,-11.45969 -4.084223,-8.97729 7.356149,-26.26901 11.891911,-23.27136 -7.674756,10.2948 5.641494,-5.84823 9.679728,-2.39974 z m 112.1383,0 c 0.87458,0.63004 2.49677,-0.44882 0,0 z m -211.576604,0 c -1.4855963,3.46909 0.9204641,0.76694 0,0 z m 210.225534,0.54043 c 0.0516,1.18015 2.60199,-0.17686 0,0 z m -65.12128,0.27021 c 0.44057,2.23543 2.0659,1.55095 0,0 z m -12.7,0.27021 c 1.43423,0.5737 1.96658,0.78664 0,0 z m 6.48511,0 c 3.19772,4.96839 8.65839,6.09142 1.74791,0.95562 z m 69.98511,0.81064 c 1.25727,-0.31431 1.12592,-0.28148 0,0 z m -38.64043,-0.27021 c 3.3816,1.4289 8.96775,-0.61425 1.88816,-0.0899 -0.62939,0.03 -1.25877,0.0599 -1.88816,0.0899 z M 211.02491,139.7 c 2.48094,0.24572 0.92637,-1.29083 0,0 z M 24.037675,139.15958 c 0.777207,3.33567 -3.47023,0.3318 0,0 z m 2.161703,0 c 0.471397,2.88869 -1.65176,0.0936 0,0 z m 124.838302,0.27021 c 0.0777,2.78841 2.73684,2.41895 0,0 z M 55.382357,139.7 c -1.383032,3.65642 -2.208862,1.1581 0,0 z m 84.036173,0 c 2.22197,1.95226 3.77251,1.30503 0,0 z m 69.98511,0.27021 c 0.67129,0.68368 2.2147,0.0739 0,0 z m -113.75958,2.70213 c 8.16206,-4.7998 2.371802,-2.15989 0,0 z m -105.653194,-1.62128 c -0.992735,1.63412 0.8987564,2.24172 0,0 z m 15.4021283,0 c -2.0364486,3.23259 0.9454215,0.50142 0,0 z m 152.1297857,0 c 2.80786,1.75492 2.95077,1.84423 0,0 z m -179.961701,0.27022 c -0.401866,2.74752 1.650562,-0.0539 0,0 z m 226.978731,0.27021 c 1.46459,0.63065 3.73379,0.21511 0,0 z m -120.514899,0 c -0.9096,1.04235 -1.93407,0.83967 0,0 z m 136.187239,0.54043 c 1.52694,-0.3054 1.93555,-0.38712 0,0 z m -166.180857,0 c -1.383032,3.65642 -2.208862,1.1581 0,0 z m 88.629787,0 c 2.36442,1.3511 2.6704,1.52594 0,0 z m 59.44681,0.27021 c 0.75146,1.08202 5.24872,-0.99138 0,0 z M 54.031293,163.74894 c 0.955727,-8.9198 -3.150649,2.88783 -1.562967,-5.37671 2.83162,-5.34396 -0.369281,-7.3143 4.118466,-12.12908 1.981718,-3.42665 4.23031,-0.11106 5.170915,-0.56894 6.25702,-7.63745 -2.79434,9.72479 -4.72155,12.40422 -1.135966,1.80266 -2.645181,3.49333 -3.004864,5.67051 z m 164.829787,-21.0766 c -0.0621,1.5782 2.61598,-0.28402 0,0 z m -19.72553,0.54043 c 1.22613,1.18285 3.75426,-0.95405 0,0 z m -119.434044,0.27021 c -7.990719,15.82378 -1.598924,38.29958 15.430376,45.0514 11.374978,4.7999 24.872868,4.26766 35.666688,-1.96279 11.08645,-6.74477 17.09972,-19.57862 17.53698,-32.2801 2.04955,5.92785 11.04716,7.0894 13.24043,13.14908 1.46749,-1.66114 1.24436,6.63854 3.62432,2.56613 4.33616,1.13269 -0.79112,6.97221 4.38493,3.60816 0.29443,7.28571 -7.83787,9.81265 -11.96722,14.72229 1.26272,1.16114 -6.117,5.11781 -1.44629,1.082 -7.55,1.43915 -3.56843,5.35732 -11.61915,5.94468 3.992,-1.76156 8.34012,-3.77622 0.57388,-1.49827 -14.9454,6.1694 -31.55848,5.96101 -47.320688,3.93018 5.275638,1.88841 4.619628,2.45723 -0.427201,1.58238 -1.457195,-3.78792 -12.564564,-3.89548 -18.996717,-7.88994 -4.858012,-3.58217 -11.725099,-7.76676 -13.720912,-2.87967 7.415798,-0.36778 0.694722,1.41021 -2.90677,1.59714 2.828237,-2.93197 -13.372774,1.03961 -15.565589,-4.98338 2.705433,-4.88815 6.445389,-3.53921 9.536474,-5.95422 4.495231,-1.40553 12.587283,-0.24931 4.651691,-5.87157 -4.662679,-10.13793 6.82268,-22.28482 11.669702,-24.90462 1.354608,-2.93171 4.460206,-4.85862 7.655066,-5.00888 z m 103.761704,0 c 1.22611,1.18284 3.75428,-0.95403 0,0 z m -29.18298,0 c 1.13352,3.67337 9.78578,9.84712 3.61072,2.95717 l -1.77384,-1.57408 z M 37.548314,144.0234 c -0.993294,0.66954 -2.331408,0.0824 0,0 z m 131.593616,0.54043 c 4.77376,-0.0901 9.54752,-0.18014 14.32128,-0.27021 -4.42047,-0.86471 -10.22188,-1.28243 -14.32128,0.27021 z m 26.21064,-0.81064 c 1.6602,1.16359 6.72199,-0.1298 0,0 z M 94.022783,144.0234 c -2.036449,3.23259 0.945423,0.50142 0,0 z m 67.553197,0 c 2.51812,1.8886 2.70821,2.03116 0,0 z m -109.165964,0.27022 c -1.475422,3.35093 -2.022152,1.6835 0,0 z m 93.493624,0 c 1.43662,1.43662 2.33669,2.33669 0,0 z m -15.40213,0.27021 c 1.67617,5.33782 0.79485,18.92589 -3.10506,17.92492 3.0601,-5.10675 0.99576,-14.49683 3.10506,-17.92492 z m -61.608515,0.54043 c -1.436643,1.43664 -2.336679,2.33667 0,0 z m -29.993617,0.27021 c -0.475139,8.76117 -4.609957,2.68368 0,0 z m 172.125532,1.35106 c 3.14448,-1.14345 4.23228,-1.53901 0,0 z M 87.267464,145.64468 c -1.17063,1.78222 1.202384,1.40981 0,0 z m 59.987236,0.27021 c 2.31142,2.80676 7.36293,5.26741 1.48626,0.50389 z m -89.170215,0 c -1.909301,5.18846 -2.485338,4.69348 0.540425,0 z m 31.344681,0 c -1.760688,5.74412 -0.972585,5.52759 0.540426,0 z m 3.242553,0.27022 c -2.748159,4.13618 -2.874157,7.28825 0,0 z m -32.425532,0.54042 c -2.308202,4.75639 2.000213,-0.28033 0,0 z m 145.104253,1.08085 c 6.09037,-0.25403 3.54916,-1.30116 0,0 z m 20.53618,-0.27021 c 1.25165,-0.014 3.70165,-1.64329 0,0 z M 8.6355476,147.26596 c -0.2148908,2.95626 1.6688374,0.22218 0,0 z m 77.8212774,0 c 0.284646,3.10062 1.376899,-0.22664 0,0 z m 48.097875,0.27021 c 0.12096,8.52935 -0.99711,6.93106 0,0 z m 2.43191,0 c 3.84392,6.01731 -4.63199,26.49708 -6.21369,22.14857 4.98682,-6.29273 5.23236,-15.45024 6.21369,-22.14857 z m -90.251062,0.81064 c -0.484448,5.11454 -2.074452,3.17511 0,0 z m 4.053192,0 c -1.632286,3.04688 -3.560587,3.21063 0,0 z m 152.4,0.27021 c 2.01135,-0.28733 3.27133,-0.46733 0,0 z m -96.73617,0 c -1.43669,1.4367 -2.33665,2.33666 0,0 z m -20.806383,0.27021 c -0.66692,3.51676 1.162858,0.7182 0,0 z m 136.187233,0.27022 c 1.46463,0.63065 3.73375,0.21511 0,0 z m -165.370212,5.13404 c 3.057472,-1.47246 3.833578,-8.71537 0.536449,-1.47124 z m 84.306382,-5.13404 0.27022,0.54042 z m 58.63617,0 c 1.2009,1.27707 4.47366,0.27435 0,0 z m 18.9149,1.35106 c 1.77753,0.51519 4.77401,-1.69907 0,0 z m -73.76809,-0.54042 c 3.51028,1.86869 -1.23378,3.13921 0,0 z m -39.45106,0.27021 c 2.92252,2.65125 -1.37002,1.58888 0,0 z m 35.9383,0 -0.27022,0.27021 z m 24.58936,0 c 1.79825,1.28446 3.08464,2.2033 0,0 z m -12.7,0.27021 c 1.957,3.32558 2.19462,-0.93279 0,0 z m -63.229791,0.54043 c -2.946146,6.40959 0.296951,18.17949 0.16328,6.03431 -0.296403,-1.68905 1.111519,-5.30983 -0.16328,-6.03431 z m 2.97234,0 c -2.152938,7.68676 1.640505,3.10299 0,0 z m -5.404255,0.27021 c -1.118965,3.79502 1.258893,4.87928 0,0 z m -38.910639,0.27021 c -1.360056,3.45785 -6.1427,12.97202 -2.988773,5.55534 0.60198,-2.01534 1.389074,-4.09802 2.988773,-5.55534 z m 106.193615,0.54043 c 3.75972,3.63628 7.2477,4.91228 0,0 z m 3.78298,0 c 1.95701,3.32557 2.19463,-0.9328 0,0 z M 38.629165,152.4 c -1.079704,1.69876 1.606258,1.54016 0,0 z m -18.374468,0.27021 c -1.64728,3.32992 1.087055,0.42606 0,0 z m 189.148943,1.08085 c 2.70222,-0.33777 3.05187,-0.38148 0,0 z m -68.09362,0 c -0.53524,2.10828 -1.22921,2.14911 0,0 z m 65.12128,0.81064 c 2.85094,0.50563 4.34062,-1.10436 0,0 z m 21.88723,-0.81064 c 1.35908,2.55425 1.55342,-1.695 0,0 z m -67.55319,0.81064 c 3.52,4.94005 8.92799,5.69185 1.84708,0.67527 z m -74.308515,0.54043 c -0.717081,9.90119 1.144618,7.77638 0.540426,0 z m -68.36383,0.54042 c 0.284644,3.10061 1.3769,-0.22662 0,0 z m 73.22766,0 c -2.228127,5.56049 4.902593,21.54301 1.178427,8.73054 -1.149164,-2.55866 0.338595,-7.05259 -1.178427,-8.73054 z m 53.502125,0.54043 c 1.11667,10.32833 -6.13784,20.92004 -14.26849,26.12989 6.0605,-6.65235 13.00657,-15.55432 14.26849,-26.12989 z m -119.704253,0.27021 c -1.79071,4.38098 1.322634,0.60399 0,0 z m 196.985113,0.54043 c 1.52694,0.30539 1.93555,0.38711 0,0 z m -50.25958,0.27021 c 1.08234,1.27493 2.36564,-0.61249 0,0 z m -102.680852,0.27021 c -0.743881,4.75454 1.822157,2.15935 0,0 z m 30.804256,0 c -1.843593,0.65564 -4.372959,0.13272 0,0 z m 25.940426,0 c -0.42035,1.72075 -1.11667,-0.35169 0,0 z m -87.548938,0.27022 c -0.455854,3.02966 2.752339,-1.03855 0,0 z m 95.385108,0 c 0.49,7.66726 -6.94568,11.29187 -1.60931,2.5195 0.61868,-0.64476 0.45058,-2.73144 1.60931,-2.5195 z m 47.01702,2.43191 c -1.6203,-0.73641 -0.56025,-2.35349 0,0 z M 66.190868,159.15532 c -0.157512,3.19245 0.16209,11.30909 0.405504,3.77778 -0.305907,-0.97583 0.827793,-3.75525 -0.405504,-3.77778 z m -36.208512,0.27021 c -2.907924,4.30654 -0.01195,1.83123 0,0 z m 119.704254,1.35107 c 0.5627,3.65752 0.7198,4.67866 0,0 z m 15.67234,0.54042 c 1.6563,2.33851 2.26305,0.92247 0,0 z m 63.22979,0.27021 c 0.6477,1.19533 3.20233,-0.20099 0,0 z m -72.95745,0.54043 c -0.78658,2.87655 0.66209,4.28992 0,0 z m -3.51276,0.27021 c -0.61912,6.1319 1.74375,2.7469 0,0 z m 50.25957,1.62128 c 5.83744,0.4195 10.9655,-1.72631 0,0 z m 12.15958,0.54042 c 4.00956,2.73608 12.81649,-3.09463 3.29528,-0.49928 -1.09842,0.16642 -2.19685,0.33285 -3.29528,0.49928 z m -75.11915,-0.54042 c -0.15828,2.66769 -1.34768,-0.19951 0,0 z m -49.989364,0.27021 c -0.334718,4.47769 1.563284,0.71332 0,0 z m -41.072341,0.27021 c -2.822625,5.61699 -8.276572,5.77916 0,0 z m 77.551065,0.27022 c -0.4392,1.31759 -0.95732,2.87193 0,0 z M 157.793,165.1 c 0.59932,2.3973 0.80483,3.21935 0,0 z m -8.3766,0.27021 c -0.78707,2.90433 0.71679,2.70923 0,0 z m -106.463831,0.27022 c -2.035629,4.59624 -3.441117,2.4852 0,0 z m -32.695745,2.1617 c 1.284458,-1.79824 2.203317,-3.08464 0,0 z m 144.293616,-1.89149 c -0.67804,4.72047 1.75573,2.87098 0,0 z m -64.310636,1.62127 c 0.606346,6.31355 3.267501,2.71317 0,0 z M 60.5164,168.61277 c -0.619134,6.13191 1.743769,2.74687 0,0 z m 87.81915,0 c -0.65515,1.92799 1.97852,0.88519 0,0 z m -26.48085,0.27021 c -3.3678,2.87677 -4.11232,1.29633 0,0 z m -78.091492,0.54042 c -1.351096,2.36442 -1.525945,2.67041 0,0 z m 154.831922,1.89149 c -3.01022,0.0475 -6.07227,-1.09075 0,0 z m -38.37022,-0.81063 c -0.27998,1.58685 0.60974,2.79962 0,0 z m 34.31702,2.1617 c -3.56799,-0.7719 -4.43529,-2.87628 0,0 z m -155.912765,3.51276 c 2.263413,-6.96139 5.234258,-2.72849 0,0 z m 167.531915,-2.97234 c -1.91465,1.78338 -11.64529,-3.43576 -1.68013,-0.56286 z m -18.64468,3.24256 c -4.66514,0.23526 -13.73199,-6.51286 -4.18981,-3.08976 1.61793,0.66027 3.23107,1.53878 4.18981,3.08976 z m -28.10213,-4.32341 c -0.82117,4.47266 1.49852,0.6124 0,0 z m 43.77447,3.51277 c -8.83699,-0.5595 -10.00836,-4.57056 -1.82725,-0.64838 0.60908,0.21613 1.21817,0.43225 1.82725,0.64838 z M 56.733421,174.82766 c 7.388499,4.57114 -6.267963,3.56233 -8.738049,3.2986 -0.930555,-4.06472 9.638357,-7.57427 8.738049,-3.2986 z m 116.461699,-1.08085 c -1.33138,2.83781 -1.75847,0.81698 0,0 z m -45.39574,0.27021 c -4.90072,6.21715 -10.25943,4.3882 -2.33346,0.89748 0.77782,-0.29916 1.55564,-0.59832 2.33346,-0.89748 z m 86.46809,0.81064 c -3.41707,1.57205 -4.56063,-0.47242 0,0 z m -51.61064,3.51277 c 2.58896,-2.19067 6.11729,-5.1762 0,0 z m -42.69362,-1.89149 c -5.47647,1.15292 -7.08403,0.15576 -0.62606,0.0298 z m 89.44043,2.1617 c 3.604,3.42605 -20.94026,-3.39959 -10.06109,-1.97276 3.35369,0.65758 6.70739,1.31517 10.06109,1.97276 z m -18.10426,-0.54043 c -2.33942,-0.8059 -4.28454,-2.93732 0,0 z M 103.48023,177.8 c -2.41354,-0.79375 -1.27588,-1.61019 0,0 z m 7.83617,0.27021 c -4.00557,-0.0215 -4.36588,-3.12047 0,0 z m 64.31064,-1.35106 c 1.14528,3.46685 -2.03832,-0.9045 0,0 z M 64.569591,177.8 c -0.6013,1.81967 1.306532,2.02463 0,0 z m 44.855319,1.89149 c 3.97194,0.0504 -7.3771,-0.96227 0,0 z m 10.5383,-0.81064 c -5.37103,2.90562 -14.09807,0.64743 0,0 z m 69.17447,0 c 6.03645,0.16457 5.95985,4.35732 -0.43575,0.75899 l -0.10468,-0.75899 z m -29.45319,1.08085 c 1.26301,0.94726 1.53777,1.15333 0,0 z m -69.174473,0.27021 c -0.01542,2.85363 -1.77984,-0.66613 0,0 z m -46.476596,0.81064 c -1.082308,1.27496 -2.365677,-0.6125 0,0 z m 85.387239,1.62128 c -0.1076,2.03108 -2.46553,-0.98044 0,0 z m -12.7,1.62128 c -2.39578,0.008 0.22654,-2.72234 0,0 z m 59.98723,-1.35107 c 0.56115,3.69642 -2.51082,-0.46199 0,0 z m -22.69787,0.27021 c -0.94611,3.52987 4.98828,-1.3686 0,0 z m -38.64043,1.62128 c -3.24716,-0.31995 -2.82717,-2.28419 0,0 z m 49.44894,-0.81064 c -1.4413,2.50664 -1.82494,0.0487 0,0 z m -39.45107,0.81064 c -3.15707,4.45056 -14.07783,2.5089 -3.95069,1.01589 1.3169,-0.33863 2.63379,-0.67726 3.95069,-1.01589 z m 42.69362,0.54043 c -2.50261,2.27714 -4.29686,2.17166 0,0 z m -65.93191,2.1617 c -2.397284,0.59931 -3.219378,0.80483 0,0 z m 12.7,0.81064 c -2.60079,1.00097 -7.73779,1.23699 -11.032,-0.0209 2.8051,-0.22309 7.55081,0.035 11.032,0.0209 m 27.5617,0.27021 c 2.07354,0.47925 4.91778,-1.64067 0,0 z m 29.7234,0.54043 c -6.08541,5.0181 1.12868,4.70664 0,0 z m -85.927657,0.27021 c -0.359807,1.73565 2.387807,-0.3703 0,0 z m 53.502127,0.27021 c 0.99332,0.66952 2.33139,0.0824 0,0 z m -51.340425,0.54043 c 3.461914,1.69419 7.036877,0.50366 0,-2e-5 M 59.165336,190.5 c -1.828253,0.88528 -3.695635,0.52978 0,0 z m 78.361704,0 c 0.75146,1.08202 5.24872,-0.99138 0,0 z m 22.69787,0.54042 c -1.35908,2.55425 -1.55342,-1.695 0,0 z m -26.48085,0.27022 c 0.87452,1.69172 3.79024,-0.54841 0.2664,0 z m -67.553192,1.08085 c -5.328097,1.15471 -7.687055,-1.65608 0,0 z m 27.561702,-0.81064 c 1.389896,1.33748 4.217661,-0.33613 0,0 z m 37.01915,0.54043 c 1.58058,1.69656 4.32538,-0.6026 0.17506,0 z m -33.776596,0.27021 c 2.194918,0.66188 4.549946,0.12403 0,0 z m 26.480856,0.54042 c 2.9588,2.04225 7.48475,-1.25202 0,0 z m -22.42766,0.27022 c 3.5729,0.57723 9.24126,0.27419 0,0 z m 61.60851,1.35106 c -4.01828,4.03101 -8.84055,2.13912 -2.25086,-1.158 l 1.26545,0.0828 z m -92.682984,-1.35106 c 0.279987,1.58685 -0.609745,2.79962 0,0 z m 38.640424,0.81064 c 4.05155,0.5528 9.27858,-0.0931 13.78085,0 -4.46943,-1.35751 -9.26122,-0.75369 -13.78085,0 z m 57.28511,1.08085 c 3.32141,-0.6327 2.3906,-1.68929 0,0 z M 57.814272,194.55319 c -4.013742,1.98535 -4.237001,-1.30492 0,0 z m -6.485107,0.54043 c -3.221165,3.39991 -5.091865,0.32168 0,0 z m 29.723405,2.1617 c -4.170641,2.19302 -10.5749,-3.3551 -2.624016,-0.56229 0.874672,0.18743 1.749344,0.37486 2.624016,0.56229 z m 62.68936,-1.35107 c -0.99329,0.66954 -2.3314,0.0824 0,0 z m 6.48511,0 c -5.85614,1.1056 -1.08025,0.29618 0,0 z m -57.285108,1.08086 c -3.982127,1.627 -9.068648,-2.19318 0,0 z m -29.993618,-0.54043 c -5.075397,3.37258 -14.32012,0.88626 -3.82452,0.0676 l 1.309483,-0.051 z m 98.897876,1.35106 c -5.66919,2.95799 2.25344,4.35215 0,0 z m -8.64681,0.27022 c -2.90933,6.23569 -11.5238,2.31489 -2.231,0.16499 z m -67.28298,1.08085 c -1.417372,-0.23623 -2.772957,-0.46217 0,0 z m 42.96383,0 c -2.65665,2.34078 -10.10945,0.41085 -1.69852,-0.23119 z m -23.50851,0 c 6.6648,0.42971 4.1918,2.32098 -1.09228,1.62127 -0.76828,0.12406 1.05751,-1.32565 1.09228,-1.62127 z m 33.7766,1.08085 c -1.41737,-0.23623 -2.77296,-0.46215 0,0 z m -19.18511,-0.54043 c 1.42094,3.74058 -10.54819,-0.57791 -2.51921,0.11997 0.83973,-0.04 1.67947,-0.08 2.51921,-0.11997 z m -19.18511,2.70213 c -3.274195,-0.48716 -13.580731,-2.52224 -3.903964,-2.04198 l 2.095892,0.73637 z m 55.66383,2.1617 c -2.36285,-2.13683 7.37062,-6.47387 -0.27663,-2.32908 -1.42776,0.43102 -0.98077,2.40591 0.27663,2.32908 z M 86.727038,201.0383 c 2.375719,-0.457 1.552728,1.83395 0,0 z m -25.670213,0 c 4.938986,3.09477 10.479507,0.37825 1.99284,0.0153 z m 74.848935,0.27021 c -4.09361,3.45169 -6.01369,-0.16765 0,0 z m -10.80851,0.27021 c -3.83889,1.65684 -5.95967,-1.05 0,0 z m 5.13404,-0.27021 c -0.3186,1.95444 -5.35099,0.0256 0,0 z m -17.56383,1.08085 c -4.30176,0.91207 -8.26153,0.74758 -1.17976,1.24847 3.88649,3.21972 -13.575428,-1.2298 -1.74676,-1.55017 l 1.48357,0.11591 z m 7.56596,0.54043 c -3.30143,0.46054 -4.53409,-0.93063 0,0 z m -19.45532,3.24255 c -5.39159,2.13512 -13.940101,-3.16476 -7.657296,-2.97234 -3.775344,-2.10797 8.338856,0.8674 7.657296,2.97234 z m 27.29149,-3.24255 c -2.25344,2.68094 -5.83625,0.31019 0,0 z m 5.67447,1.89149 c -5.01844,3.73807 -10.28692,-0.91614 -1.76098,-0.80431 z m -13.51064,-1.08086 c -0.87303,2.67158 -7.35885,-0.8949 0,0 z m 12.15958,7.56596 c 4.02267,-0.2736 8.76798,0.55336 10.03954,-1.97964 6.56878,0.18771 14.85837,-7.61948 4.84921,-2.83354 -4.83736,1.99223 -9.86783,3.37358 -14.88875,4.81318 z m -15.13192,-5.13404 c 4.99425,-3.32199 11.91602,1.55097 2.68163,1.15925 l -1.3229,-0.31843 z m -33.506382,0.27021 c 9.050232,4.22701 8.258066,1.14906 0,0 z m 0.810638,3.24256 c 2.271273,2.34241 3.978588,-1.05582 0,0 z m 34.317024,0.54042 c 4.28237,0.66641 6.51254,0.12912 0,0 z m -30.263832,0.81064 c 4.115503,1.15921 3.108218,-2.77 0,0 z m 3.782978,0 c 3.923926,0.9995 3.662131,-0.46831 0,0 z m 35.127664,1.08085 c 4.0264,0.16132 6.41102,-1.17646 0,0 z m 10.26808,-0.81064 c 2.70555,1.40513 2.75759,-0.15603 0,0 z m -41.342552,0.54043 c 5.918212,1.46255 17.176452,3.56321 21.887232,1.62127 -7.31984,-0.24128 -14.59811,-0.94633 -21.887232,-1.62127 z m 24.859572,0.54042 c 7.75053,1.15198 7.0367,-0.99031 0,0 z m 10.26809,0.81064 c 2.19492,0.66188 4.54995,0.12403 0,0 z" id="path2" style="fill:#000000;fill-opacity:1;stroke:none"/>
	</g>
	<metadata id="metadata3">
		<rdf:RDF xmlns="">
			<cc:Work xmlns="" rdf:about="">
				<cc:license xmlns="" rdf:resource="http://creativecommons.org/publicdomain/zero/1.0/"/>
				<dc:title xmlns="">Eye</dc:title>
				<dc:subject xmlns="">
					<rdf:Bag xmlns="">
						<rdf:li xmlns="">human</rdf:li>
					</rdf:Bag>
				</dc:subject>
				<dc:description xmlns="">An open, human left eye is seen, including the lids and brow.</dc:description>
			</cc:Work>
			<cc:License xmlns="" rdf:about="http://creativecommons.org/publicdomain/zero/1.0/">
				<cc:permits xmlns="" rdf:resource="http://creativecommons.org/ns#Reproduction"/>
				<cc:permits xmlns="" rdf:resource="http://creativecommons.org/ns#Distribution"/>
				<cc:permits xmlns="" rdf:resource="http://creativecommons.org/ns#DerivativeWorks"/>
			</cc:License>
		</rdf:RDF>
	</metadata>
</svg>
