<?xml version="1.0" encoding="utf-8"?>
<svg xmlns="http://www.w3.org/2000/svg" xmlns:cc="http://creativecommons.org/ns#" xmlns:dc="http://purl.org/dc/elements/1.1/" xmlns:inkscape="http://www.inkscape.org/namespaces/inkscape" xmlns:rdf="http://www.w3.org/1999/02/22-rdf-syntax-ns#" xmlns:sodipodi="http://sodipodi.sourceforge.net/DTD/sodipodi-0.dtd" xmlns:svg="http://www.w3.org/2000/svg" height="72.492691mm" id="svg1" version="1.1" width="297.84152mm" sodipodi:docname="fish_A116.svg" inkscape:version="1.4 (e7c3feb100, 2024-10-09)" xml:space="preserve" viewBox="0 0 297.84152 72.492691">
	<title id="title2">Fish</title>
	<sodipodi:namedview bordercolor="#000000" borderopacity="0.25" id="namedview1" pagecolor="#ffffff" showgrid="false" inkscape:current-layer="layer1" inkscape:cx="605.77441" inkscape:cy="61.414917" inkscape:deskcolor="#d1d1d1" inkscape:document-units="mm" inkscape:pagecheckerboard="0" inkscape:pageopacity="0.0" inkscape:showpageshadow="2" inkscape:window-height="899" inkscape:window-maximized="0" inkscape:window-width="1542" inkscape:window-x="0" inkscape:window-y="0" inkscape:zoom="0.53732874"/>
	<defs id="defs1"/>
	<g id="layer1" transform="translate(36.787435,-103.89947)" inkscape:groupmode="layer" inkscape:label="Layer 1">
		<path xmlns="" d="m 123.66175,103.99814 c -0.95793,2.69506 -3.78208,0.6046 -1.35107,3.78298 -1.15811,-0.71841 -8.42391,-2.3961 -4.98777,0 -0.87086,3.03328 -5.35193,-2.49687 -5.35345,2.43191 -2.58697,-2.34668 -5.88375,-0.6575 -3.16941,2.43192 1.90231,0.0756 7.66249,2.24961 3.78297,3.78298 -0.94297,-2.38965 -4.38232,-2.28292 -6.21489,-3.78298 -2.83199,-3.96456 -3.40102,4.34012 1.35106,2.43191 3.09053,3.20937 -3.197,3.16839 -3.78297,0.73751 -0.4711,-3.18587 -5.61829,-0.19915 -2.16171,0.61356 2.43346,5.99368 -3.229801,-1.749 -3.782974,2.43191 -4.09953,-0.28415 -7.116635,0.61287 -10.020198,1.35107 -3.20045,0.24662 -4.072179,2.82196 -7.909305,2.43191 -1.449291,2.8069 -5.398468,0.68952 -7.419687,0 -1.452579,-0.62664 -8.364709,-2.12619 -7.273418,0.27021 0.327143,2.39025 -5.985512,2.00982 -6.828453,4.39654 -0.0086,3.40195 -4.937324,-0.94158 -2.775262,3.16942 -4.265015,-0.76918 -4.289526,2.70214 -8.055574,2.43192 -2.512959,1.13119 -7.140684,0.14762 -8.624482,2.30797 -0.939683,1.35323 -4.263906,5.47626 -5.94468,2.55586 -3.619774,0.0596 -7.843629,0.84704 -9.603717,-1.08085 -1.305592,3.9125 -4.261163,-0.97003 -6.974723,0 -3.606151,-0.0529 -5.488911,-1.82916 -9.8962544,-1.08086 -1.394215,-2.40985 -3.8929276,-3.22066 -6.76147399,-3.51276 -0.01621355,-3.22634 -4.76790411,-1.7172 -4.86382941,-4.86383 -3.1878863,0.56242 -4.2440639,-4.60211 -6.8284532,-1.35107 -2.97756,-0.49801 -6.505719,-2.1154 -1.818355,-3.04547 -2.974361,-0.10834 -3.99248,-2.74905 -7.588283,-2.62899 -2.234526,-1.00059 -4.199361,-2.27086 -7.273418,-2.43192 -0.848142,-1.79872 -5.598912,-2.89207 -7.295744,-1.81835 0.552294,1.38568 3.301262,6.71264 1.204794,6.68218 -0.738435,3.45549 3.705651,2.77918 2.307972,7.29575 2.400187,1.11741 2.610902,4.56721 6.847884,3.64971 3.044809,0.0648 5.956329,0.57744 7.546526,2.29497 3.458784,-1.18706 6.896837,3.41765 1.45268,2.43191 -1.192173,-2.12236 -5.78862,-1.10514 -7.684478,-2.29074 -1.863666,-2.66185 -7.582548,0.51112 -1.925393,1.20989 4.062472,1.92515 0.477605,1.53548 0.861447,3.51277 -0.226243,2.16382 9.884071,0.13785 5.455063,2.43191 -5.058894,2.47635 7.394191,0.13875 4.396539,2.43192 -4.499061,0.90899 3.319808,1.83937 -1.351063,3.78298 -0.754704,2.48883 -5.467033,-2.18196 -7.025532,1.08085 -3.107462,-0.62675 -7.780427,0.50788 -6.338837,2.43191 6.850899,0.26277 0.0031,1.51261 -1.964624,1.96463 -1.455137,2.02975 -0.99968,5.57553 -2.161702,8.03324 2.459412,-0.78314 3.399397,-3.08571 7.295745,-2.43191 1.419732,-1.96909 4.347662,-2.42998 7.46434,-2.70213 0.670043,3.2083 -4.268605,1.67349 -5.032426,3.78298 -4.276568,-0.87081 -4.404368,2.40715 -7.785361,2.43192 -4.062436,-0.36209 -4.421612,2.97908 -4.374212,6.72683 -0.876175,5.46663 0.990364,5.99858 4.863829,4.35189 0.484265,-2.89712 6.188243,-0.57452 6.485106,-3.65904 1.375416,-1.66261 5.205486,-0.87057 5.944681,-3.16941 1.131439,-1.87754 3.875582,-3.1447 6.214893,-5.13405 0.869951,-2.28253 4.456161,-1.8488 5.2071767,-4.25027 1.6469055,-1.4812 3.9799664,-2.27624 5.6013329,-3.78298 -0.6907255,-6.86292 2.6670835,1.76103 6.5805673,0 1.7190646,1.45035 3.9118845,2.42695 5.7252761,3.78298 2.68562,0.72014 2.593672,4.21785 6.704511,3.51277 2.357139,0.64569 5.648073,-4.9827 5.849218,-0.59124 -1.955754,1.19436 -6.184456,3.51479 -1.351063,4.71756 -3.453682,2.70427 2.639769,1.55928 3.782978,0.12395 2.584417,-2.14019 6.544738,0.15585 2.431915,1.69441 -2.70982,0.0711 -7.537261,3.13332 -1.351064,2.43191 1.228057,2.10457 5.165811,1.49944 5.134042,4.86383 2.486166,2.42449 2.931193,-1.53957 6.434298,-1.35106 2.184766,2.93158 4.988934,-0.4241 6.682184,-1.35106 4.164535,0.6868 2.792613,-3.25369 5.944681,-3.51277 3.050147,-0.50188 4.983365,-2.12069 9.30502,-1.35106 2.948368,0.60427 5.878664,0.7898 7.842325,2.1617 4.514804,-0.97022 5.782666,1.3065 9.282696,1.35106 4.336015,-0.60559 5.477426,1.90223 10.018069,0.92752 4.291819,-0.74927 4.954185,2.3147 9.729788,1.23419 5.313742,-0.74991 9.640402,1.21927 14.712862,1.06924 6.85546,-1.90162 13.09101,2.53466 16.66023,-0.27195 7.87751,-0.0856 15.75501,-0.17125 23.63252,-0.25687 0.78139,-4.66784 -6.23791,-1.45499 -9.20293,-2.338 -14.58625,0.14883 -29.17251,0.29767 -43.758769,0.44651 -0.563684,-3.162 -8.594576,1.3729 -8.91702,-2.03776 -2.696702,-0.94745 -8.603834,1.31553 -9.727659,-1.20479 -3.692908,0 -7.385815,0 -11.078723,0 -0.981194,-2.62236 -6.305932,-0.52841 -8.398921,-2.1617 -4.088221,0.54363 -4.623763,-2.46541 -9.282695,-1.35107 -2.393158,-0.98078 -3.711442,-3.03643 -7.6899,-2.43191 -2.63037,-0.98014 -5.649331,-0.95718 -8.084056,-2.16171 -2.897111,-0.63259 -6.768684,-0.29072 -8.157191,-2.43191 -4.602695,0.90979 -5.046794,-2.33902 -9.727659,-1.35106 -2.697261,-0.87171 -5.038062,-2.09987 -8.5451909,-2.16171 -2.4915362,-0.99685 -7.2921038,0.31533 -6.31651,-4.14865 -1.92372899,-1.25532 -4.5647469,-3.90918 0.9792344,-3.14709 4.5504519,0.81626 5.7037754,-1.77498 10.1436805,-1.14808 4.93917,-0.0677 9.878339,-0.13533 14.817509,-0.20299 -0.525442,1.34911 -7.489286,1.96105 -3.906921,3.51277 3.171662,-0.48026 5.694552,-1.67424 9.918287,-1.14659 7.6338,-0.0682 15.267599,-0.13631 22.901398,-0.20447 0.977113,-2.8734 -10.333081,-0.44015 -4.374212,-2.43192 1.969274,-1.40466 5.749539,-0.99833 8.15719,-1.96462 2.746832,-1.09029 7.518424,-0.15583 11.044086,-0.46729 1.926845,0.37881 11.785456,-0.92561 6.438731,0.99676 1.059708,4.8397 -2.023933,5.31358 -6.3243,4.75636 -4.980498,0.0639 -9.960997,0.12771 -14.941495,0.19156 -0.505252,3.91172 -4.793517,-2.68566 -7.025532,0.61356 -1.960017,1.79127 -7.228269,0.3226 -10.429398,0.89087 -8.773178,0.12902 -17.546357,0.25804 -26.319535,0.38706 1.151563,3.90976 4.771513,1.70629 7.970774,0.84118 15.698629,-1.07279 31.436484,-0.301 47.152626,-0.30076 1.388311,-2.48309 7.257508,-0.59591 10.427267,-1.34153 2.068872,0.67094 6.49494,2.25185 3.550662,5.93515 -2.01346,3.17652 5.04747,1.33057 3.315687,5.76993 0.954033,4.06436 0.04584,3.77893 1.080851,6.65986 5.764538,-0.0901 11.529076,-0.18014 17.293614,-0.27021 1.03106,0.84588 3.94997,0.14667 7.29575,1.08085 -1.26176,-1.9808 -4.37152,-2.11358 -4.86383,-4.86383 -4.35797,0.70638 -2.39576,-4.90743 -5.0101,-5.94468 -3.385668,-3.61722 0.96364,-1.12684 2.57818,-1.96463 1.96023,-1.76245 7.22905,-0.2163 10.43053,-0.7375 4.26925,0 8.53851,0 12.80777,0 1.02813,-0.94096 3.50703,-1.26347 7.34039,-1.35107 4.92349,1.05974 7.4405,-2.15264 1.06537,-1.27438 -3.39587,0.48188 -8.46964,-0.68444 -10.83768,0.80709 -2.98988,0.22525 -4.05733,-0.0542 -9.68044,0.72381 -5.8739,-1.6933 -16.578175,3.9021 -18.691895,-0.94321 3.904935,0.26524 6.066895,-1.26743 9.282695,-1.47501 6.00293,0 12.00586,0 18.00879,0 3.63353,-2.15076 17.49393,-3.55231 20.9419,0.9494 2.75899,2.7958 1.44789,7.69011 5.26874,8.04076 1.5221,3.34292 5.05646,2.60152 8.91086,2.62899 3.23796,-0.48138 8.55117,1.11249 10.07717,-1.08085 4.86542,-1.63872 -4.44075,-0.62691 -3.04548,-3.78298 -4.98633,1.56364 -1.89315,-4.95224 -6.4851,-3.78298 -1.94854,-3.61947 -3.42045,4.50347 -4.86383,-0.81064 -1.19419,-0.44321 -6.08984,-3.80762 -1.9423,-3.78298 4.28945,0.65478 5.38547,-1.9512 9.89489,-1.20353 3.54972,0.44501 9.60422,-0.66041 4.20698,-2.11215 -2.24117,-0.64905 -5.76002,1.53083 -9.7941,0.70334 -4.93175,0.0601 -9.86351,0.12029 -14.79526,0.18043 -0.78626,3.11383 -3.06031,-1.44401 -5.35326,1.37773 -5.6014,0.0812 -11.20279,0.16237 -16.80419,0.24355 -1.38863,2.46618 -7.25918,0.50754 -10.42967,1.21456 -3.3135,0.48249 -8.36852,-0.75435 -10.64692,0.75006 -1.072811,0.063 -2.879929,-0.66777 -4.396539,1.81836 -1.771634,-1.47092 -5.222264,-1.26285 -6.214893,-3.51277 -2.826578,-0.53043 -5.570546,-1.14346 -6.411971,-3.65904 -4.070265,-1.61242 4.65062,-1.21562 6.62522,-1.20479 4.639172,0.32658 4.141066,-2.07755 7.374666,-0.0368 3.890107,-0.0778 7.780217,-0.1556 11.670327,-0.2334 0.64907,-3.07361 6.93342,-0.51194 9.81697,-1.35107 6.40177,-0.48604 -2.64431,-1.61169 -5.01981,-1.01331 -7.3636,0.0676 -14.727187,0.13511 -22.090778,0.20267 0.64908,-3.07359 6.93342,-0.51193 9.816968,-1.35106 0.0125,-2.93463 6.42357,-0.77268 9.11136,-1.57547 3.08636,0.60385 3.37275,-4.52727 5.19374,-1.12666 2.15831,2.77052 4.20932,-1.35215 8.42114,-0.0356 12.12035,-0.0782 24.24069,-0.15639 36.36104,-0.23459 1.11009,-2.19641 2.03572,0.63722 5.13404,-1.35106 0.90154,4.47962 7.48039,-2.48261 0.71518,-1.08085 -2.74632,-0.8247 -8.84672,1.70469 -9.36198,-1.35107 4.22755,0.92125 6.61039,-1.69046 8.52286,0 3.16915,1.34446 5.07925,-4.4071 6.06863,-1.20479 -2.02116,3.32913 1.10346,4.83534 -1.08086,6.41197 1.05065,2.52781 1.83,5.32692 1.35107,9.38431 2.75208,1.71042 -0.85255,2.78257 1.35106,5.96701 -0.73755,4.02142 3.23352,3.33421 3.51277,6.33883 -0.38054,3.87663 3.42253,2.66635 3.78298,5.67447 -2.7276,0.85765 -5.69048,1.74635 -9.72766,1.47501 -0.64908,3.07359 -6.93342,0.51193 -9.81697,1.35106 -2.74283,-0.63305 -8.84348,1.19421 -6.12559,2.43192 1.56765,2.70195 4.97818,-1.48953 8.83773,0 4.74447,1.04874 5.61788,-1.70439 9.70392,-1.45328 4.64967,0.71383 6.10502,-1.7141 10.34263,-1.24885 0.40244,-2.15896 6.96504,-2.02694 7.39737,0 1.89524,0.72862 7.11648,2.36459 8.64651,-0.0192 3.49707,-0.12512 7.63878,0.27792 9.26066,-1.60211 3.48874,-0.0728 4.87484,-2.24821 8.25265,-2.43192 2.66148,-0.77548 6.40896,-0.83772 8.77437,-1.6825 2.31112,-0.96064 5.48273,-1.76203 9.00515,-2.00907 2.60542,-1.20653 5.43258,-1.89367 9.55662,-1.44247 2.04253,-1.29215 5.17316,-1.4962 6.95856,-3.04548 2.80973,-0.43283 5.05382,-1.43129 6.55824,-3.16942 1.71227,-1.64521 2.45724,-5.16645 0.7375,-7.29574 -4.14326,0 -8.28652,0 -12.42978,0 1.22609,-2.22098 5.03482,-1.85932 6.82845,-3.51277 3.69726,0.20888 4.37421,-2.60256 8.03325,-2.43191 0.97483,-3.63757 0.87127,-5.16835 -0.27022,-8.66914 0.21871,-2.91211 -5.01069,-2.72396 -5.94468,-4.57129 -3.2891,-0.0435 -5.6968,-0.96844 -7.56595,-2.43191 -2.68276,-0.69863 -5.29746,-1.46531 -7.44202,-2.70213 -2.56911,-0.90409 -4.56233,-2.01442 -7.75723,-2.84642 -3.02344,-1.04227 -5.35858,-1.85333 -7.91511,-2.82805 -3.40303,-0.17543 -5.64859,-1.50832 -8.77075,-1.96462 -3.27786,-0.1936 -4.93106,-2.01184 -7.78536,-2.629 -2.59552,-0.93418 -6.29054,-0.76886 -8.15719,-2.43191 -4.60982,0.90203 -5.07039,-2.34519 -9.77231,-1.35106 -2.95629,-0.85852 -6.19154,-1.43806 -10.36354,-1.08086 -4.2767,0 -8.5534,0 -12.8301,0 -0.90135,-0.84611 -4.47499,-0.8761 -6.48511,-0.19707 -2.74683,1.09029 -7.51842,0.15583 -11.04409,0.46729 -4.03042,-1.75956 -7.01374,3.1894 -8.41123,0.12394 -1.91606,1.07087 -4.5418,1.79719 -5.40425,-1.20479 -4.01611,0.4064 -4.61498,-4.34801 -9.01248,-3.51277 -0.59868,0 -1.19735,0 -1.79603,0 z m 1.08085,3.78298 c 3.22941,2.8568 -1.35367,2.8223 -2.43192,0.46729 -0.2728,-1.06557 1.87148,-0.17062 2.43192,-0.46729 z m 5.13404,0 c -0.53025,3.1598 -5.24824,-0.89554 -0.24789,0 z m -9.99787,1.08085 c 2.78576,3.50735 -2.11913,3.21216 -2.43192,0.12394 0.51101,-0.29335 1.70339,-0.0349 2.43192,-0.12394 z m -4.86383,1.35106 c 3.14699,2.96436 -1.97704,3.13214 -2.43192,0.12395 0.51098,-0.29337 1.7034,-0.0349 2.43192,-0.12395 z m 27.29149,7.02554 c 0.98577,3.78068 -6.9023,-0.65899 0,0 z m 28.37234,1.08085 c 3.59198,2.80658 -1.62635,2.60549 -4.86383,2.43191 -0.62529,-2.41392 4.21,-1.05193 4.86383,-2.43191 z m 29.45318,0.81063 c -2.50899,2.90349 0.22348,5.69162 2.43192,2.55586 3.31653,-1.20619 5.79944,2.71319 8.64681,0.34335 0.29908,-1.76971 10.42685,-0.69079 6.06862,0.61356 -6.582,-0.0639 2.26242,5.38232 2.57819,1.08085 2.81004,1.00551 7.60065,-4.03565 7.29574,1.35107 -5.72868,-0.78384 -5.28747,1.71274 -1.2048,2.43191 1.29027,4.42648 -5.6747,1.67359 -8.46589,2.43192 -3.71204,-0.1559 -5.4595,1.65277 -8.70378,1.96462 -2.28174,1.37301 -2.6194,4.58419 -2.23482,8.41773 0.15261,3.30782 2.87127,3.80932 4.93695,5.09291 3.432,1.86143 6.09039,-0.93118 9.61669,-0.87584 1.66721,-1.5233 1.10433,-5.24364 4.38356,-5.14198 2.68275,0.84695 8.79653,-1.73711 9.23805,1.35107 3.25461,0.53226 -1.61168,3.11382 -2.57819,3.78298 -2.44728,1.11424 -3.40204,3.721 -7.1718,3.51276 -2.84406,0.64433 -5.19398,1.78281 -8.03325,2.43192 -0.65716,1.97863 -4.19128,1.96394 -3.02315,6.21489 4.38558,0.68523 6.68282,-0.71788 9.74999,-1.35106 3.01743,-0.30775 6.45419,-0.19618 7.54363,-2.43192 4.00095,0.33447 5.39877,-1.93419 9.91858,-1.08085 1.9497,-2.97503 4.13615,-0.30048 7.10482,-0.27021 -0.5207,2.93275 -4.50564,2.63335 -8.09592,2.6728 -2.46916,1.19817 -3.1284,3.22082 -7.57642,2.46124 -0.25196,3.08066 -5.78498,0.88026 -6.21489,3.78298 -3.25564,0.43506 -5.77848,1.70933 -10.06406,1.18911 -3.47167,-0.35266 -8.56177,0.93708 -11.01253,-0.45161 -3.72106,0.75695 -0.76503,-6.73942 -5.62366,-5.60133 -4.78667,-1.13214 -4.62327,2.1115 -1.40187,2.70213 0.48866,2.95841 3.14023,3.75391 4.86382,5.47739 3.91587,5.56919 -7.5507,3.83441 -10.48748,5.33112 -4.54398,-0.48161 -0.27112,-3.76683 -4.39654,-3.51277 -2.3276,2.37615 -4.71781,-0.12859 -5.92236,-1.96462 -1.87075,-1.46621 -3.59405,-2.36755 -4.39654,-5.06091 -1.8445,-1.49557 -3.26533,-3.4148 -3.16941,-6.85078 -1.40205,-2.27172 -1.35886,-5.86114 -2.49762,-8.49937 -0.16259,-5.07525 -0.96068,-6.16549 3.33058,-4.37538 2.9231,-0.78891 9.11617,1.60259 9.94148,-1.22665 -0.0495,-3.66282 -0.80019,-7.92021 1.11492,-9.72813 -0.33906,-3.57765 6.70654,-2.33085 2.43191,-0.12395 -0.78772,2.91659 -1.2429,5.30263 1.22712,7.29575 6.11418,1.09258 -0.81976,-5.18212 2.43192,-4.86383 -0.3325,-3.82089 1.2295,-5.74728 2.55586,-7.90931 0.73721,-1.7255 3.29837,-2.34303 4.86382,-3.16942 z m -31.8851,2.70213 c 3.02584,3.65798 -2.94307,2.1095 -6.21489,2.43192 0.70253,-1.45684 3.49367,-2.82647 6.21489,-2.43192 z m -44.31489,0.27022 c -0.41733,4.03445 -7.43418,-0.53961 -0.72297,0.0516 l 0.612,-0.0437 z m 19.45532,0 c -0.19653,3.95284 -9.16974,-0.82454 -1.79603,0 0.59868,0 1.19735,0 1.79603,0 z m -170.504246,0.54042 c 2.037187,1.29544 4.178803,2.48645 7.565957,2.43192 1.666125,1.4029 3.687965,2.82189 6.434297,3.51276 1.26539,2.1738 -5.271963,-0.16053 -5.965447,-1.30735 -3.461124,0.38261 -5.098649,-1.60536 -7.910864,-2.20541 -3.633099,0.52702 -5.497611,-3.66738 -0.22556,-2.43192 z m 129.972336,1.08085 c 0.28718,3.01287 -5.625303,3.11431 -7.565962,1.81836 -1.049553,-3.50986 5.619512,-1.10929 7.565962,-1.81836 z m 95.11488,0.27021 c -1.55461,1.65493 -2.09329,5.42516 0.61356,6.2149 0.99973,-1.28137 9.43657,-2.42906 2.26648,-2.56283 -6.02246,0.23699 0.42377,-1.36697 1.71358,-2.301 -0.20996,3.94973 6.86279,-2.49162 1.94326,-1.56193 -2.17896,0.0703 -4.35792,0.14057 -6.53688,0.21086 z m -129.431904,0 c 3.598148,2.6146 1.561302,2.50416 -1.840681,1.08086 0.312318,2.66938 -0.113169,2.97435 -3.293361,1.62127 -0.331274,-2.06028 3.782555,-2.30527 5.134042,-2.70213 z m 113.219144,0 c 2.81275,3.41158 -1.9945,2.03821 -2.43192,5.0101 -2.44623,0.79633 -3.9972,2.48791 -6.09095,3.63671 0.98989,-4.55427 5.92128,-4.47111 7.44202,-7.29574 -0.38082,-1.57515 -0.5724,-1.39904 1.08085,-1.35107 z m -59.17659,0.54043 c -0.41733,4.03445 -7.43418,-0.5396 -0.72297,0.0516 l 0.612,-0.0437 z m 44.31489,1.08085 c 3.27838,3.26941 -1.89108,2.30334 -5.3981,2.43192 -5.99873,0.73518 -3.72112,-1.46548 -0.67053,-2.43192 2.02288,0 4.04575,0 6.06863,0 z m -21.88724,1.62128 c 6.91842,2.05027 -15.78691,0.64535 -4.15481,0 4.25604,1.37463 1.53796,-3.12828 4.15481,0 z m 91.0617,1.35106 c -4.56457,0.01 -6.65687,-1.10255 -8.91702,-0.95691 -0.32393,-2.45345 8.94194,-2.3706 8.91702,0.95691 z m -111.05744,-1.35106 c 0.32059,2.90238 -5.4369,3.19846 -7.29574,1.81835 -4.07252,-2.14732 4.30267,-1.62264 6.62132,-1.79727 l 0.61326,-0.0192 z m -19.72553,0.27021 c 0.78144,4.65988 -6.238234,1.51865 -9.203405,2.43192 -2.251271,-1.92271 3.232482,-2.99639 6.078635,-2.43192 1.04159,0 2.08318,0 3.12477,0 z m -41.882976,0.27021 c 0.950269,2.9081 -7.11302,0.27898 0,0 z m -88.089355,1.08085 c 1.68651,1.77542 6.077714,0.60593 7.565957,2.77527 5.56501,0.81242 -1.038151,3.4727 -1.964624,0.46729 -3.406461,0.0495 -5.7263,-0.9877 -7.909305,-2.1617 -0.919242,-1.78441 1.283956,-0.85747 2.307972,-1.08086 z m 102.951056,0 c 0.348189,3.20839 -8.56313,2.02119 -2.431914,1.35107 -0.680533,-2.20113 1.152142,-1.08167 2.431914,-1.35107 z m 69.174465,1.62128 c 1.26182,4.10177 -7.12835,2.92009 -7.90931,1.62128 -3.49439,3.41782 -5.11116,-3.02736 0.85408,-1.4533 2.35174,-0.056 4.70349,-0.11199 7.05523,-0.16798 z m 21.88723,0 c -0.21324,2.06263 -7.5607,2.11302 -7.02553,1.35107 -1.51351,2.38292 -8.56296,0.16248 -3.29336,-1.35107 3.43963,0 6.87926,0 10.31889,0 z m 59.17659,0.54043 c 0.32779,1.49869 5.68207,-0.97765 9.05713,0 7.99725,-0.94612 1.18395,4.44866 -3.79233,2.3458 -5.48253,0.13251 -14.67145,0.71612 -7.69671,-2.07556 0.81064,-0.0901 1.62127,-0.18014 2.43191,-0.27021 m -31.8851,0.54042 c -0.37084,5.10183 4.91528,0.65095 6.21489,0.19708 -0.81753,-1.04856 -4.56475,0.0424 -6.21489,-0.19708 z m -70.25532,0.54043 c -0.46154,1.68222 -8.21162,1.92483 -8.6468,0 2.88227,0 5.76453,0 8.6468,0 z m -19.72553,0.27021 c -0.51967,2.99105 -4.50777,2.51366 -8.100223,2.43192 -7.265074,-0.9309 1.03163,-0.76997 1.885333,-2.43192 2.07163,0 4.14326,0 6.21489,0 z m 113.48936,0 c 1.11943,3.28638 1.19131,5.42453 0,8.64681 -2.46157,0.87105 -3.66227,3.00298 -7.56596,2.43191 -1.7499,-1.79468 -4.05632,-3.03284 -3.78298,-6.85077 0.9613,-2.48577 2.0973,-4.79685 6.11328,-4.22795 1.74522,0 3.49044,0 5.23566,0 z m -144.023397,0.27021 c 1.032933,4.91994 -7.08145,1.52206 -2.088567,0 0.696189,0 1.392378,0 2.088567,0 z m 3.242553,0 c -0.375399,2.88564 -4.266186,-1.13494 0,0 z m -90.52127,0.81064 c 0.546369,3.1887 -5.840609,-0.69399 0,0 z m 251.838284,1.08085 c 3.27838,3.26941 -1.89108,2.30334 -5.3981,2.43192 -3.26986,-0.44948 -8.31331,0.87462 -10.54446,-0.61356 3.60974,-0.0493 5.02265,-2.29543 9.15875,-1.81836 2.26127,0 4.52254,0 6.78381,0 z m -28.10213,0.27022 c -1.71565,1.82378 -1.73851,5.04857 0.61356,6.21489 2.50294,-1.79781 3.90583,-2.17886 1.81836,-5.62366 0.41659,-1.26835 -1.83365,-0.27476 -2.43192,-0.59123 z m 4.86383,0 c -1.44196,6.86478 3.97365,1.48824 0.12394,0 z m -157.263819,1.35106 c -4.303203,1.73244 -2.943338,-3.05958 0,0 z m 115.380839,-1.08085 c 0.98578,3.78068 -6.90228,-0.65899 0,0 z m -26.75106,0.27021 c -0.64884,3.09069 -6.93102,0.69433 -9.81357,1.60932 -1.27401,-2.73423 6.33996,-0.89671 8.74571,-1.58122 l 0.61335,-0.0161 z m -17.56383,0.27021 c 0.0506,3.67575 -5.1506,2.09972 -8.44357,2.43192 -3.38905,1.37998 -10.14706,-1.70422 -3.96389,-2.43192 4.13582,0 8.27164,0 12.40746,0 z m -20.80638,0.27022 c 3.04197,3.67574 -3.0109,2.09971 -6.28187,2.43191 -2.28717,0.43435 -6.18861,3.00889 -7.842325,0 -6.923395,-0.0486 0.495073,-1.83009 3.579744,-1.08085 3.282941,-0.4364 8.584911,1.14624 9.806951,-1.35106 h 0.61356 z m 87.54893,0.27021 c 1.03235,3.21523 6.36234,-0.98091 0.44497,0 z m -9.72766,0.27021 c 0.54638,3.07855 10.43054,-0.36259 2.87688,0 -0.95896,0 -1.91792,0 -2.87688,0 z m 67.01276,0.27022 c 0.0805,1.94445 5.66959,3.87816 0,3.78297 0.0141,3.34677 -5.87572,0.78953 -6.21489,3.78298 -4.4135,-0.41144 -4.59924,2.85872 -8.39892,2.70213 -2.80634,0.42878 -4.06226,2.40797 -7.27342,2.43192 -0.23065,2.56638 -5.0753,1.7047 -6.55824,3.51276 -1.33186,0.67718 -7.09086,3.17766 -8.03325,0.12395 0.59938,-2.84769 4.25313,-2.64102 6.70451,-3.63671 4.05273,0.6131 4.20594,-2.67333 7.88698,-2.43192 0.34559,-2.89696 6.08654,-0.39857 5.94468,-3.78298 4.27359,-0.66019 2.32715,-3.60709 -2.1617,-2.43191 -0.81931,-4.62196 4.17546,0.29172 7.83001,-1.35107 1.90927,-1.56618 5.46416,-1.28823 7.86088,-2.56805 0.80446,-0.0447 1.60891,-0.0894 2.41336,-0.13407 z m -195.093599,0.81063 c 2.456776,4.42143 -8.776259,2.41316 -3.782978,1.35107 0.53942,-1.50354 2.566596,-1.44542 3.782978,-1.35107 z m 20.536169,0 c 0.315561,2.56669 -11.244905,0.60215 -5.455063,0 1.818354,0 3.636709,0 5.455063,0 z m 117.27233,1.08085 c -0.60616,6.29284 7.80391,-1.05117 0.44497,0 z m -8.64681,0.27022 c -2.06328,4.27949 8.84136,2.55194 5.33113,0 -1.77704,0 -3.55409,0 -5.33113,0 z m -205.361683,0.54042 c 2.8617,2.42248 3.027211,2.45072 -2.431915,2.43192 -4.044965,-2.53913 -2.490516,-2.55401 2.431915,-2.43192 z m 102.951056,0.27022 c 3.786128,2.96553 -2.199237,2.56604 -5.397276,2.53735 -3.270346,-0.3982 -8.313438,1.00427 -10.545276,-0.44879 1.747086,-1.88716 5.341805,-2.05008 9.179729,-1.9533 2.254274,-0.0451 4.508549,-0.0902 6.762823,-0.13526 z m 76.470207,0.54042 c -0.64907,3.07361 -6.93342,0.51194 -9.81697,1.35107 -3.4615,0.40616 -8.54991,-0.8146 -10.98941,0.61356 -1.27807,1.35599 -7.70854,1.69176 -8.17952,-0.34335 -0.37386,2.29594 -7.11397,1.89921 -7.56595,0 -4.12255,-1.10913 -8.46036,1.8128 -1.91998,1.35106 2.24746,1.47386 6.32753,1.01007 10.04174,0.96478 3.80223,-0.0514 7.60446,-0.10276 11.40669,-0.15414 1.38864,-2.46531 7.25924,-0.503 10.42975,-1.20804 3.90923,-0.0477 7.81846,-0.0953 11.72769,-0.14302 1.09603,-4.47085 -2.40394,-2.04082 -5.13404,-2.43192 z m 19.72553,-0.27021 c -0.0685,3.46865 -7.39211,-0.31783 -8.64681,1.96462 1.39276,2.09563 8.42573,-1.44895 6.2149,4.25027 6.9177,1.52392 -3.40888,0.53547 -3.51277,2.43192 4.72831,-1.06927 5.55255,1.76552 9.62604,1.35106 -0.59478,-2.30463 1.75032,-8.40518 -1.24944,-8.64681 0.68054,-2.20113 -1.15216,-1.08165 -2.43192,-1.35106 z M 9.9021803,141.55772 c -2.9746975,-0.71821 -8.8291179,1.4433 -9.99787169,-1.08086 3.15067189,0.21401 7.47494389,-1.45041 9.99787169,1.08086 z m 14.8617007,-1.08086 c 0.763732,2.90409 5.065681,4.88579 -1.862724,4.64298 -6.404623,0.0736 -12.809246,0.14723 -19.2138699,0.22085 -0.014558,4.09635 -7.0638349,-2.35147 -1.3287372,-1.08085 2.076039,-2.02426 4.6295539,-1.16725 6.9523965,0 3.3487966,-0.35899 5.2494926,-2.16609 9.7723116,-1.35106 2.985707,0.5465 2.169414,-3.3603 5.680623,-2.43192 z m 36.478721,0.54043 c -0.411837,3.01886 -6.611966,0.0453 -7.438895,2.78956 -5.805339,0.46304 -0.776885,-4.49378 2.961051,-2.66854 1.492615,-0.0403 2.985229,-0.0807 4.477844,-0.12102 z m -19.72553,1.62128 c -0.622425,3.07048 -6.871341,0.51447 -9.727659,1.35106 -0.150109,-3.02057 7.466996,-0.54205 9.727659,-1.35106 z m -66.202123,0.54042 c 0.690458,2.44766 -5.030435,5.46549 0.9061,4.86383 6.503331,0.82297 -1.673187,-2.88976 1.525814,-3.51276 0.680533,-2.20113 -1.152142,-1.08167 -2.431914,-1.35107 z m 216.440411,4.05319 c -0.79009,-0.48039 -0.62984,6.83573 1.22712,7.29575 6.12305,0.48674 2.06728,-0.95844 2.55586,-4.86383 -3.76122,-1.31348 2.6569,-10.09869 -3.59598,-4.14876 z m -146.45531,-2.1617 c 0.781439,4.65988 -6.238234,1.51865 -9.203405,2.43192 -3.693311,-0.38253 2.994617,-2.53072 4.975463,-2.43192 1.409314,0 2.818628,0 4.227942,0 z m 99.7085,0.27021 c -1.3887,2.45923 -7.25955,0.47119 -10.43021,1.16234 -8.05234,0.0629 -16.10468,0.12582 -24.15702,0.18873 -0.64903,3.08192 -6.93285,0.60081 -9.81616,1.47691 -3.753476,0.0481 -7.506954,0.0962 -11.260432,0.14436 0.52603,2.8066 4.059748,2.6055 7.565957,2.43192 0.649038,-3.08106 6.932965,-0.59162 9.816315,-1.46389 4.56406,-0.0525 9.12813,-0.10493 13.69219,-0.15739 1.38868,-2.46227 7.25941,-0.48707 10.43,-1.18515 5.53043,-0.0553 11.06085,-0.11061 16.59128,-0.16591 0.64901,-3.08193 6.93285,-0.60082 9.81616,-1.47692 3.75348,-0.0481 7.50695,-0.0962 11.26043,-0.14436 -1.38865,-2.43242 -7.2593,-0.33104 -10.42984,-0.96097 -4.35955,0.0501 -8.71911,0.10022 -13.07867,0.15033 z m -83.765948,0.81064 c 1.388745,2.44838 7.259776,0.41447 10.430525,1.08085 6.491296,0.63265 3.825945,-1.92822 -1.090867,-1.08085 -3.113219,0 -6.226439,0 -9.339658,0 z m -39.180848,2.70213 c -5.674468,0.0901 -11.348935,0.18014 -17.0234032,0.27021 1.3885756,2.42668 7.2588902,0.30106 10.4292522,0.91789 1.471174,-0.67145 7.615487,1.22824 6.594151,-1.1881 z m -41.612763,1.62128 c -0.03047,2.08778 -5.297979,3.26463 -7.295744,1.81835 3.213593,-0.20113 4.165243,-1.33266 7.295744,-1.81835 z m 199.146799,0.54042 c 1.65959,1.37946 6.60002,3.97208 -0.1686,3.78298 -6.02406,0.94386 3.44499,1.26773 5.70882,0.82369 0.74164,2.05478 -4.4057,2.20393 -5.54022,3.57285 2.6427,1.84669 5.98917,-3.06176 7.9093,0.19708 5.84584,0.67329 3.38083,-1.36878 1.81835,-3.65904 -1.63962,-1.76613 -1.58515,-5.22636 -5.49971,-4.71756 -1.40931,0 -2.81863,0 -4.22794,0 z m 77.01063,0.54043 c 0.0918,3.69467 -4.25251,2.95316 -7.29575,3.51276 1.86964,-1.53611 3.9642,-2.84732 6.70451,-3.51276 z m -90.52127,0.81064 c 1.03235,3.21523 6.36232,-0.98091 0.44496,0 z m -182.123393,0.54042 c -1.155561,2.2502 -4.029805,2.78171 -6.434298,3.78298 -1.200264,1.11596 -9.740029,1.47645 -4.965446,0 3.164259,-0.33157 3.828381,-3.16327 8.055574,-2.43191 -0.551446,-2.39654 1.916064,-0.97138 3.34417,-1.35107 z m 166.180843,0.81064 c 3.80335,6.15254 -5.10729,0.64253 0,0 z M -7.1212228,153.9875 c 0.6957182,2.13824 -6.4891992,4.00051 -4.5204822,1.35107 2.209367,0.78824 2.4974809,-1.42106 4.5204822,-1.35107 z m 58.6361658,0.54043 c 0.241319,3.26939 4.718094,2.30333 8.100227,2.43191 2.897897,0.16261 6.425061,-2.58736 9.193389,-0.46729 1.437347,0.0821 5.782653,-1.34738 9.323201,-0.87072 3.673386,3.41283 3.514641,-3.6084 -2.071903,-1.31908 -8.181638,0.0751 -16.363276,0.15012 -24.544914,0.22518 z m -12.429786,0.27021 c 1.136023,2.3834 5.721838,1.45253 8.198948,2.29866 6.250654,0.37986 1.741646,-4.32478 -2.370491,-2.43743 -1.942819,0.0463 -3.885638,0.0925 -5.828457,0.13877 z m 49.448933,0.81064 c 0.539677,5.593 -5.591721,0.79813 0,0 z m -104.302121,2.1617 c -3.851799,1.50113 -5.90424,-3.37165 0,0 z m 30.804253,-0.27021 c -0.421006,4.00506 -7.4381892,-1.07196 -0.715176,0 h 0.61356 z m 112.678718,0 c 0.22857,5.24772 4.7172,0.59802 0.12394,0 z m 6.21489,0 c 3.3e-4,3.49381 4.24225,2.16474 5.13404,0.12394 -1.44929,-0.27673 -3.47697,-0.0502 -5.13404,-0.12394 z m -37.019145,0.54042 c 0.985742,3.7807 -6.902235,-0.65899 0,0 z m 59.446805,0.54043 c 4.37466,2.96591 -5.27622,3.57581 -2.09161,0.20916 0.6972,-0.0697 1.39441,-0.13944 2.09161,-0.20916 z m -48.09787,0.54043 c -0.54844,3.21874 6.4912,-0.78486 0,0 z m 9.72766,0 c 1.03235,3.21523 6.36232,-0.98091 0.44496,0 z m -134.836162,1.35106 c -2.086233,1.36828 -3.161549,3.74748 -6.85078,3.51277 -1.561278,1.72259 -3.280196,3.28753 -6.068623,3.78297 -2.83494,-0.84242 -5.62085,5.22556 -5.455064,0 3.324519,-0.0325 5.561859,-1.15214 7.025532,-3.04547 2.400235,-0.98115 4.292194,-2.47057 6.974723,-3.16942 3.022958,0.69945 1.040791,-1.96022 4.374212,-1.08085 z m 111.597865,0 c 3.803349,6.15253 -5.107273,0.64254 0,0 z m -39.451061,0.27021 c 0.264255,2.96436 5.58817,3.13214 2.431915,0.12395 -0.510974,-0.29337 -1.7034,-0.0349 -2.431915,-0.12395 z m 129.431908,0 c -4.37295,2.30496 -0.79544,2.76023 3.70368,2.43192 2.06766,-0.0308 11.10044,0.53817 7.22877,-1.35107 -2.04181,-1.78787 -6.78776,-0.87161 -10.40819,-1.08085 z M 27.195796,162.3641 c 0.936539,2.97672 -4.979814,4.94481 -5.94468,2.43191 1.747118,-1.09437 3.996327,-1.52976 5.94468,-2.43191 z m 163.478714,1.89149 c -0.98578,3.78068 6.90228,-0.65899 0,0 z m 3.78298,0 c 0.19653,3.95284 9.16974,-0.82454 1.79603,0 -0.59868,0 -1.19735,0 -1.79603,0 z m -113.489357,1.08085 c -0.985774,3.78068 6.902288,-0.65899 0,0 z m 87.819147,0.54042 c 1.03234,3.21526 6.36233,-0.98091 0.44496,0 z m -19.72553,1.08086 c 0.27983,4.65396 6.05806,-0.10888 0,0 z m 5.94468,0 c -0.98578,3.78068 6.90228,-0.65899 0,0 z m 6.21489,0 c 0.42101,4.00506 7.43819,-1.07196 0.71518,0 h -0.61356 z m -126.459567,0.27021 c -0.53025,3.1598 -5.24823,-0.89554 -0.247886,0 z m -57.825528,0.54042 c -0.28566,3.07134 -5.035902,1.6781 -5.94468,4.12633 -4.145747,2.25114 -1.975165,-2.13013 0,-3.04547 3.565602,0.8455 2.929041,-1.47844 5.94468,-1.08086 z m 54.04255,0.54043 c 0.660392,2.87837 -8.107496,2.51847 -3.023149,1.35106 1.680043,-0.12096 -0.39294,-2.37668 3.023149,-1.35106 z m 89.440415,0.27021 c 1.44261,3.24517 8.45722,-0.91334 1.18247,0 h -0.61356 z m 7.29575,0 c 1.77544,3.26941 6.47664,-1.11694 0.10162,0 z m 7.56596,0 c 1.77544,3.26941 6.47662,-1.11694 0.10161,0 z m 7.56595,0 c -0.54844,3.21874 6.4912,-0.78486 0,0 z m -28.37234,0.27022 c 1.77544,3.26941 6.47664,-1.11694 0.10162,0 z m -67.553183,1.62127 c -1.811172,1.52145 -5.161074,1.50418 -6.214894,3.78298 -5.755165,-0.40234 1.586917,-1.90679 1.694411,-3.78298 2.521711,1.06645 2.295613,-3.1615 4.520483,0 z m -11.078723,-0.81064 c 0.548436,3.21874 -6.491189,-0.78486 0,0 z m -68.634038,1.62128 c 0.374673,5.98457 -4.990235,0.31241 0,0 z" id="path1" style="display:inline;fill:#000000;stroke:none;fill-opacity:1"/>
	</g>
	<metadata id="metadata2">
		<rdf:RDF xmlns="">
			<cc:License xmlns="" rdf:about="http://creativecommons.org/publicdomain/zero/1.0/">
				<cc:permits xmlns="" rdf:resource="http://creativecommons.org/ns#Reproduction"/>
				<cc:permits xmlns="" rdf:resource="http://creativecommons.org/ns#Distribution"/>
				<cc:permits xmlns="" rdf:resource="http://creativecommons.org/ns#DerivativeWorks"/>
			</cc:License>
			<cc:Work xmlns="" rdf:about="">
				<cc:license xmlns="" rdf:resource="http://creativecommons.org/publicdomain/zero/1.0/"/>
				<dc:title xmlns="">Fish</dc:title>
				<dc:subject xmlns="">
					<rdf:Bag xmlns="">
						<rdf:li xmlns="">animal</rdf:li>
					</rdf:Bag>
				</dc:subject>
				<dc:description xmlns="">A fish is seen from its right side oriented horizontally and facing the viewer's right.</dc:description>
			</cc:Work>
		</rdf:RDF>
	</metadata>
</svg>
