<?xml version="1.0" encoding="UTF-8" standalone="no"?>
<!-- Created with Inkscape (http://www.inkscape.org/) -->

<svg
   width="255"
   height="325"
   viewBox="0 0 255 325"
   version="1.1"
   id="svg1"
   xml:space="preserve"
   xmlns="http://www.w3.org/2000/svg"
   xmlns:svg="http://www.w3.org/2000/svg"
   xmlns:rdf="http://www.w3.org/1999/02/22-rdf-syntax-ns#"
   xmlns:cc="http://creativecommons.org/ns#"
   xmlns:dc="http://purl.org/dc/elements/1.1/"><title
     id="title1">Skull and Crossbones</title><defs
     id="defs1" /><g
     id="layer1"
     transform="translate(-121.34797,-202.30176)"><path
       style="fill:#000000;stroke:none;fill-opacity:1"
       d="m 179.24159,267.95929 v 0.81063 c 0.54208,1.50829 0.41529,3.00632 0.6535,4.56786 0.40677,2.66662 1.42325,4.52341 -0.11307,7.05129 v 0.54043 c 1.09991,1.80713 0.87777,3.64 1.44735,5.6006 1.29326,4.45163 2.51882,8.83144 3.70397,13.31583 1.14264,4.32353 3.43399,8.43813 3.49549,12.96867 3.06124,2.66776 1.96533,5.5193 1.47766,8.95232 -0.23068,1.62398 -0.0704,3.24678 -0.60484,4.82603 -0.59952,1.77142 -1.89161,3.45296 -1.79449,5.39774 0.16957,3.39534 1.19706,7.82197 2.83783,10.81753 1.24845,2.27931 3.07565,4.10727 4.22822,6.47838 2.73569,5.62791 3.89656,11.25645 9.25774,15.13864 -1.49663,3.77134 1.35434,5.02325 4.0532,7.02554 l 1.08085,-1.08086 h 0.54042 l -1.62127,3.78298 c 0.69199,0.93655 1.55732,1.94818 1.58408,3.17494 0.047,2.15523 -1.53788,3.56567 -0.8389,5.84719 0.82798,2.70257 1.25993,5.82322 2.38748,8.38725 0.8816,2.00476 2.33751,3.66816 3.38021,5.58282 1.12444,2.06476 2.01602,4.29834 3.56954,6.0931 1.56715,1.81051 3.60238,2.88376 5.40847,4.39932 1.59044,1.33458 2.92893,3.0418 4.78036,4.03808 2.10497,1.13269 4.24529,0.66234 6.37471,1.35865 1.51959,0.49689 2.59762,1.79415 4.17889,2.20274 1.74326,0.45044 3.58693,0.13728 5.35738,0.38536 3.83762,0.53772 7.38722,1.36985 11.3399,0.83252 2.28143,-0.31014 4.37938,-1.3806 6.57807,-1.991 1.64473,-0.45663 3.27214,-0.49397 4.82542,-1.28884 2.20328,-1.12749 3.17005,-3.238 5.09217,-4.5987 1.90219,-1.34659 4.46649,-1.69997 6.16075,-3.3865 1.24163,-1.23597 1.44665,-3.19964 2.53868,-4.57135 1.68356,-2.11473 4.53481,-3.03884 5.56364,-5.75376 1.46726,-3.87186 1.08697,-7.53786 1.65661,-11.49628 0.30519,-2.12087 1.25814,-4.12929 1.66244,-6.24524 0.40992,-2.14543 0.14243,-4.31379 0.34487,-6.47353 0.12271,-1.30899 0.71935,-2.46947 0.91114,-3.75232 0.38901,-2.60203 -1.74711,-4.88125 -0.48441,-7.54824 1.09065,-2.30362 3.57837,-2.02236 5.67163,-2.55388 2.75489,-0.69951 6.99388,-2.58396 8.37208,-5.2048 1.3202,-2.51056 0.89989,-5.55135 1.62627,-8.18261 0.5037,-1.82461 1.97836,-3.29252 2.68997,-5.04973 0.83812,-2.06958 0.73735,-4.70209 0.54035,-6.89542 -0.29336,-3.26601 -4.3259,-4.27009 -3.32192,-7.77988 0.82525,-2.88495 2.71521,-5.22687 4.24902,-7.73331 0.90539,-1.47953 1.26282,-3.11894 1.97536,-4.67512 0.61744,-1.3485 1.57038,-2.48153 2.10873,-3.87704 1.36379,-3.5352 2.23916,-7.19557 3.49798,-10.76263 1.04555,-2.96267 2.48199,-5.95774 3.17649,-9.02415 0.33445,-1.47668 0.16598,-3.00383 0.46222,-4.48406 0.26201,-1.30927 0.88436,-2.50209 1.05024,-3.83732 0.46919,-3.7767 0.10029,-7.79702 0.10029,-11.60009 0,-3.25596 0.37299,-6.77697 -0.14104,-9.99787 -0.25605,-1.60436 -1.09402,-3.03194 -1.54852,-4.58016 -1.30074,-4.4309 -2.41588,-8.66063 -4.37558,-12.87132 -2.91165,-6.25606 -8.09591,-11.89976 -12.89343,-16.69138 -3.04151,-3.03778 -6.10726,-6.27324 -9.87462,-8.49125 -3.52515,-2.07542 -7.67788,-3.30678 -11.41506,-4.84922 -1.76456,-0.72831 -3.23325,-2.0261 -5.01234,-2.76041 -2.61157,-1.07792 -5.22836,-1.28384 -7.94504,-1.83594 -1.30754,-0.26573 -2.5021,-0.88525 -3.83555,-1.05193 -3.25882,-0.40733 -6.45686,0.38121 -9.70137,0.43145 -4.69987,0.0728 -9.63552,-0.47083 -14.30222,0.10898 -6.34822,0.7887 -12.39316,3.31099 -18.20963,5.67417 -1.06914,0.43438 -2.24802,0.45707 -3.31785,0.88921 -6.36892,2.57266 -13.4562,6.50579 -18.65961,11.0238 -4.45461,3.86785 -6.96875,8.80266 -10.0112,13.66653 -1.30735,2.08999 -2.5161,4.32624 -3.90296,6.35574 -0.82515,1.20751 -1.98025,2.17819 -2.6691,3.47889 -1.77975,3.36054 -2.99751,7.89072 -4.01727,11.56055 -0.50741,1.82603 -1.11845,4.01913 -1.25898,5.90505 -0.10979,1.47348 0.23759,2.84696 -0.1214,4.30533 m 72.41702,-55.66383 c -2.87148,1.77614 -5.71429,1.05657 -8.8978,1.4512 -3.44433,0.42696 -6.93715,1.50319 -10.33769,2.22061 -1.49582,0.31557 -3.01428,0.95353 -4.51534,1.15372 -0.34131,0.0455 -1.38847,0.10107 -1.31898,-0.50094 0.0836,-0.72399 1.38078,-1.21774 1.94128,-1.42591 1.99432,-0.74074 4.039,-0.23231 5.83492,-1.54762 1.9548,-0.001 3.06701,-0.98431 4.86383,-1.29295 1.66987,-0.28683 3.46807,0.24921 5.11798,-0.16555 1.097,-0.27575 1.79573,-0.93453 2.9893,-0.96946 1.43055,-0.0419 3.70103,-0.4917 4.3225,1.0769 m 21.88724,4.3234 -24.83329,0.92239 -6.58441,2.03042 -9.11422,1.79142 -8.10638,2.01109 c -1.21325,1.86164 -4.67328,2.28457 -6.70254,2.95562 -5.25465,1.73761 -10.82273,3.32026 -15.76193,5.81336 -2.56776,1.29611 -4.79095,2.08967 -5.67135,5.12425 -0.27011,0.931 0.24151,1.84254 1.29823,1.42528 2.16391,-0.85448 4.03973,-2.90053 6.08448,-4.03446 4.18903,-2.32306 8.68505,-3.75121 13.18963,-5.33627 3.0536,-1.07448 5.69501,-3.31311 8.71896,-4.3297 2.63766,-0.88674 5.567,-1.07851 8.24868,-1.81055 2.50376,-0.68348 5.07203,-1.7517 7.63677,-2.15332 1.41739,-0.22196 2.87553,0.0558 4.29086,-0.19003 1.73326,-0.30112 3.08122,-1.52809 4.87906,-1.72326 5.95629,-0.64658 12.38257,-0.16364 18.37426,-0.0598 1.81443,0.0314 3.13789,0.98015 4.86383,1.25693 3.23603,0.51895 5.59609,-0.025 8.63546,1.56427 0.53866,0.28166 3.90914,1.12819 3.79624,1.69421 -0.30068,1.50738 -2.65529,-4.9e-4 -2.97426,-0.73692 -3.57374,0 -6.78964,-0.79282 -10.27733,-1.03289 -6.1313,-0.42201 -12.76843,-0.42534 -18.89948,2.7e-4 -3.89469,0.27037 -7.79482,1.97068 -11.62533,2.70786 -1.50589,0.28981 -3.05458,0.11849 -4.55828,0.41139 -2.06462,0.40215 -4.03185,1.36911 -6.0698,1.90722 -4.22942,1.11678 -8.43808,2.13812 -12.61155,3.50812 -1.35377,0.44441 -2.84898,0.48396 -4.15939,1.03243 -2.70337,1.13148 -5.36738,3.18767 -7.8933,4.69993 -1.72926,1.0353 -3.73102,1.39407 -5.48703,2.3764 -2.08078,1.164 -3.34524,3.08241 -5.07103,4.64933 -3.5531,3.22602 -7.87876,5.33541 -7.92195,10.81441 1.67007,-1.3096 2.56071,-3.20376 4.12627,-4.60288 3.04358,-2.72001 6.72447,-4.88412 10.02024,-7.17084 1.63512,-1.13451 2.86173,-2.7484 4.57358,-3.7932 1.5097,-0.92143 3.21916,-1.25795 4.79215,-2.02082 1.62408,-0.78765 3.05076,-1.91379 4.71571,-2.63448 3.28517,-1.42201 6.69765,-2.28345 10.06324,-3.38313 1.45565,-0.47561 2.68877,-1.44105 4.17944,-1.83143 2.90939,-0.76192 5.99261,-0.89603 8.86987,-1.68035 3.5614,-0.97081 7.41405,-2.33824 11.07865,-2.76602 3.71094,-0.43319 7.616,-0.11096 11.34894,-0.11043 3.08492,4.3e-4 6.34962,-0.0951 9.39835,0.43556 3.3331,0.58014 6.7287,1.86438 10.07043,2.19502 1.26677,0.12534 6.09778,-0.18594 6.39731,1.71446 0.0919,0.58278 -1.0017,0.6533 -1.35004,0.6656 -1.58997,0.0562 -3.05861,-0.6878 -4.61034,-0.90926 -5.88522,-0.83993 -11.84974,0.52331 -17.72493,-0.28621 -1.28145,-0.17657 -2.6804,-0.82878 -3.97557,-0.71284 -0.4676,0.0419 -1.27593,0.35601 -1.03288,0.97777 0.26975,0.69005 1.43142,0.92332 2.04076,1.14 2.63898,0.93842 4.37996,-0.009 6.93804,0.2772 1.30528,0.14583 2.52373,0.62358 3.85075,0.69938 2.50353,0.14299 5.07756,-0.22921 7.56195,0.17139 5.2283,0.84303 10.64832,2.49927 15.67234,4.17019 v 0.27021 c -3.85312,1.09055 -6.55955,-0.33344 -10.27425,-0.72738 -4.64305,-0.4924 -9.9579,-0.40298 -14.58532,0.18696 v 0.54042 l 7.3092,1.55149 9.17377,0.1701 7.02554,1.52097 c -1.63436,1.19696 -3.45392,1.07864 -5.40432,1.08059 -2.96952,0.003 -5.94845,0.066 -8.91689,-0.0182 -2.05726,-0.0583 -3.64408,-0.44836 -5.40433,0.82908 l 10.26408,2.47565 6.75933,2.11796 -9.45745,0.81064 c 2.68521,1.81253 6.77709,3.40194 10.02497,3.71253 1.51589,0.14496 2.95605,-0.8712 4.43656,-0.20204 2.09944,0.94891 3.07192,3.43166 3.91294,5.40653 -1.70367,-0.0675 -3.19829,-0.80427 -4.8765,-1.00337 -1.15221,-0.13668 -2.28107,-0.17544 -3.41,-0.47422 -1.12035,-0.2965 -2.29181,-0.73428 -3.46399,-0.44731 -0.87284,0.21368 -1.40317,1.06693 -0.39647,1.5622 1.03479,0.50909 2.34584,0.34433 3.45422,0.59535 2.02745,0.45915 3.96708,1.35426 5.98888,1.87381 1.10617,0.28426 3.10514,0.29234 3.5393,1.61032 0.34057,1.03388 -0.29744,2.30618 -0.43985,3.33547 -0.19643,1.41973 -0.0156,2.91493 -0.52756,4.2798 -0.72734,1.93906 -4.07082,4.99259 -6.02691,5.78243 -1.48373,0.59911 -2.87082,-0.22831 -4.3305,-0.42049 -0.497,-0.0654 -1.50161,-0.0692 -1.59637,0.61866 -0.1231,0.8935 1.70695,1.28356 2.27611,1.51334 1.92983,0.7791 4.39724,1.61524 6.06123,2.86774 0.62597,0.47119 1.45004,1.39797 1.1365,2.26074 -0.30241,0.83216 -1.54845,0.85223 -2.27031,0.85623 -2.33815,0.0129 -4.37606,-1.16429 -6.73693,-1.03197 2.65087,2.61302 6.42209,2.89035 9.72766,4.3234 1.38671,-0.83584 2.32344,-0.17742 2.58363,1.39329 0.36735,2.21769 0.19098,4.73634 0.0915,6.97714 -0.32716,7.36561 -5.72398,13.46326 -7.78898,20.21813 -0.45417,1.48563 -1.73322,2.68494 -1.61571,4.31766 0.11326,1.57363 0.70295,3.02433 0.59438,4.63518 -0.0933,1.38461 -0.86286,2.69378 -0.62954,4.09672 0.28745,1.72833 2.89235,4.51458 0.27966,5.3789 0.39388,0.93373 3.11312,5.19918 0.63828,5.2029 -1.45025,0.002 -2.8845,-1.30689 -3.8582,-2.2467 -3.29165,-3.1771 -3.81435,-9.13651 -2.7966,-13.31431 0.61245,-2.51403 -0.27232,-5.16583 0.23415,-7.71083 0.34337,-1.72546 1.91222,-3.06229 1.87385,-4.86784 -0.0692,-3.25758 -1.98406,-7.3382 1.968,-9.56005 1.73287,-0.97421 4.97908,0.43293 7.07457,0.0713 v -0.27021 c -2.77115,-0.88189 -5.61431,-2.30835 -8.57758,-1.26319 -3.81726,1.34638 -5.62454,5.3871 -9.79689,6.12702 1.3329,1.24754 4.00513,1.68682 4.94006,3.16105 0.50272,0.79271 -0.29464,1.20786 -0.99028,1.29772 -1.41161,0.18238 -2.70928,-0.34606 -3.94978,-0.94601 0.79375,1.31483 3.68448,2.35856 3.90045,3.72476 0.1265,0.80024 -0.93852,0.84139 -1.46407,0.76227 -2.05151,-0.30882 -3.53465,-0.95485 -5.67893,-0.70405 v 0.54043 c 1.79182,0.55265 5.16918,1.41258 6.30453,3.02271 0.37934,0.53797 -0.34437,0.77638 -0.763,0.81179 -1.03571,0.0876 -1.95642,-0.39178 -2.83941,-0.86216 0.21568,1.31085 0.7009,1.86322 1.89149,2.43191 l -2.1617,2.16171 c -4.93554,-4.85432 -13.20368,-3.55337 -19.22027,-2.35488 -2.84126,0.56597 -5.84737,0.57237 -7.67438,3.26445 -2.19814,3.23896 -0.79376,6.82878 0.14359,10.16915 h 0.54042 v -5.94468 c 3.15706,1.72454 1.89725,9.16731 -0.54042,11.07872 -0.8254,-2.17145 -1.38462,-5.12334 -3.78298,-5.94468 0.9142,5.10721 4.45589,10.87856 9.51682,12.80554 1.44447,0.54999 3.00407,0.35117 4.50797,0.54191 1.56175,0.19807 3.06752,0.81573 4.60285,1.16267 4.00169,0.90425 8.52589,2.08823 12.60306,0.65157 2.04307,-0.71992 4.50027,-2.20838 5.88288,-3.90181 1.04446,-1.27926 1.40196,-3.52792 3.40159,-3.67957 2.52208,-0.19128 8.38224,5.34963 4.06993,6.47076 0.64356,1.57994 3.89551,7.80923 -0.27021,6.21489 -0.0103,1.94499 0.22535,4.62047 -2.43191,3.78298 v 2.1617 c 1.98396,-0.15135 3.3636,-1.19252 5.22412,-1.64733 1.89688,-0.46371 4.23517,0.0104 5.35834,-2.05802 0.87155,-1.60506 0.35383,-3.71232 0.60717,-5.45479 0.27193,-1.87039 1.41933,-3.22279 2.86143,-4.3505 0.3744,2.32026 -0.30437,4.2053 -0.45757,6.48504 -0.10649,1.58463 0.16867,3.2608 -0.8679,4.61123 -1.8336,2.38879 -7.40429,3.70571 -10.29889,3.68165 -2.71303,-0.0225 -5.66,-3.77976 -7.99034,-0.77394 -1.34942,1.74055 0.39194,2.73087 1.21323,4.09965 0.52615,0.87687 0.57195,1.96932 0.49097,2.9638 -0.1243,1.52654 -0.90308,2.85775 -1.14006,4.35573 -0.25971,1.64166 0.1197,3.45219 -0.52456,5.02098 -0.58847,1.43295 -2.09826,2.10336 -2.49177,3.66519 -0.46822,1.85836 0.41748,3.53601 0.1769,5.32442 -0.24169,1.79671 -3.17765,5.28501 -4.67834,6.24532 -4.42206,2.82973 -9.4316,4.75145 -14.30293,6.68867 -1.57118,0.62482 -2.95034,1.80164 -4.58031,2.24273 -1.73861,0.47048 -3.58585,0.0762 -5.34843,0.38014 -1.8798,0.32418 -3.41066,1.70621 -5.38103,1.62136 -1.97608,-0.0851 -3.63973,-1.43384 -5.49937,-1.96505 -1.81362,-0.51806 -3.73743,-0.12529 -5.54669,-0.64833 -2.05985,-0.59548 -3.60792,-2.10614 -5.53117,-2.95234 -1.70852,-0.75173 -3.75516,-0.20878 -5.34806,-1.26811 -0.82689,-0.5499 -1.27321,-1.45325 -2.02194,-2.08047 -0.80128,-0.67125 -1.87126,-0.87334 -2.64656,-1.59011 -3.28856,-3.04025 -5.40011,-7.11169 -7.03169,-11.21053 -0.66442,-1.66914 -2.11499,-4.38365 -1.79295,-6.2064 0.37548,-2.12515 3.61478,-3.39163 5.02256,-4.81206 0.52704,-0.53178 1.49408,-1.43908 1.2933,-2.29394 -0.45821,-1.95094 -3.01193,1.74405 -3.49961,1.64607 -0.62741,-0.12606 -0.606,-1.45791 -0.62931,-1.90668 -0.0737,-1.41829 0.72098,-8.36639 -2.18961,-6.73253 1.19843,1.6364 1.35093,3.93544 0.87135,5.88965 -0.12279,0.50035 -1.03269,2.58356 -1.865,1.80393 -0.79769,-0.74721 0.40287,-2.88561 -0.0796,-3.94695 -0.59808,-1.31572 -2.13098,-1.86876 -2.60149,-3.30918 -0.63291,-1.93759 0.75404,-3.86665 0.49684,-5.84787 -0.35463,-2.73172 -2.19093,-5.34835 -3.30721,-7.83 l 4.59361,0.81063 c 2.01037,-1.45132 4.09725,-1.01559 6.2149,0 0.89814,-0.72433 2.11167,-1.67154 3.3502,-1.5179 1.4227,0.1765 2.37698,1.39177 3.96052,1.47367 2.27513,0.11767 3.89709,-0.76926 5.98726,-1.43115 1.29677,-0.41065 2.65876,-0.47921 3.82586,-1.24609 3.18056,-2.08988 2.12802,-5.18101 2.77697,-8.32191 0.4147,-2.00711 2.00001,-3.94069 3.33748,-5.43959 -0.61592,-1.58435 -0.14242,-2.9912 -0.50724,-4.56992 -0.71325,-3.0865 -4.13219,-8.46802 -7.33348,-9.25834 -3.09006,-0.76286 -5.64581,1.04731 -8.64443,1.08302 -2.09341,0.0249 -4.08191,-1.29407 -6.14512,-0.8229 -2.66959,0.60966 -7.22833,2.24422 -8.44419,-1.29357 -3.39583,2.43965 -6.18232,7.59398 -6.14849,11.82938 0.0141,1.76945 1.32757,3.23571 1.56384,4.97024 0.23337,1.71321 -0.67932,3.30917 -1.36003,4.8174 -2.2424,-1.76068 -2.16004,-3.81799 -2.16156,-6.48517 -0.001,-2.12784 -0.16954,-4.34666 0.12683,-6.45867 0.26196,-1.86676 0.93703,-3.51438 0.95387,-5.43062 l -2.1617,2.43191 -0.27021,2.43192 c -1.33493,-0.44311 -1.31908,-1.9681 0,-2.43192 l 2.24645,-7.32848 1.83747,-4.94275 4.02246,-5.83302 c -0.48327,0.3262 -0.96078,0.66512 -1.45326,0.97742 -1.2751,0.8086 -3.12956,0.88449 -1.75213,-1.01745 0.96636,-1.33434 2.3079,-2.19551 3.78726,-2.85099 0.41218,-0.18262 1.30698,-0.49425 1.21799,-1.0985 -0.0809,-0.54921 -0.85323,-0.48836 -1.23624,-0.4068 -0.90902,0.19357 -5.75767,2.48393 -3.89324,-0.41116 0.21347,-0.33148 0.49717,-0.63008 0.77314,-0.90938 0.44465,-0.45001 0.93351,-0.86389 1.46306,-1.21086 0.68167,-0.44663 1.39851,-0.68595 2.17427,-0.90845 l -2.1617,-4.0532 c -1.27568,0.0437 -2.41162,0.17453 -3.57791,0.72945 -0.45854,0.21816 -1.32289,0.86239 -1.86076,0.56459 -0.81801,-0.45294 0.45121,-1.78061 0.79673,-2.08328 1.83747,-1.60954 4.74104,-2.63692 5.45258,-5.15544 h -0.54043 c -1.24115,1.05443 -2.66276,1.79199 -4.21107,2.30423 -0.49001,0.16211 -1.54144,0.51683 -1.75556,-0.22439 -0.53114,-1.83868 3.15423,-4.38817 4.34536,-5.32239 v -0.27021 c -1.03247,-0.12093 -1.95913,-0.1569 -2.94959,0.22001 -0.68964,0.26242 -1.62277,1.02535 -2.40241,0.84627 -0.92323,-0.21204 -0.54774,-1.59784 -0.20672,-2.12479 1.36201,-2.10455 3.54416,-2.74708 4.20765,-5.4266 h -0.81063 l -3.78298,2.1617 c 0.13558,-2.15446 1.30666,-3.41787 3.02576,-4.62554 0.72082,-0.50639 2.48064,-1.49036 2.15043,-2.62412 -0.29677,-1.01894 -2.32437,-0.30132 -2.98817,-0.20298 -0.72709,0.10773 -1.4545,0.13442 -2.18802,0.1569 1.77003,-3.73047 5.34653,-5.57703 8.37659,-8.10639 -1.6594,-0.21991 -3.06427,-0.131 -4.69362,0.23207 -0.58305,0.12993 -1.44819,0.34362 -1.90504,-0.19146 -1.07586,-1.26006 2.0104,-2.21346 2.63744,-2.61854 1.24588,-0.80484 2.0747,-2.06374 3.16495,-3.04422 1.70977,-1.53763 3.57612,-2.61851 5.11968,-4.37572 -2.92318,-0.15414 -5.50784,1.91963 -7.83617,3.51277 -0.93163,-4.61598 6.49772,-8.76051 10.02615,-10.45317 1.57325,-0.75472 3.29339,-1.10961 4.86249,-1.87757 1.48726,-0.72787 2.7769,-1.90399 4.34372,-2.45286 5.43431,-1.90369 11.38039,-2.87325 16.96705,-4.09732 1.51964,-0.33295 2.82791,-1.25195 4.3678,-1.51203 2.64705,-0.44711 5.39841,-0.0466 8.07108,-0.41343 v -0.54043 c -5.56233,-0.50464 -10.82308,0.54072 -16.24806,1.45444 -1.57743,0.26569 -3.21287,0.0365 -4.76544,0.46924 -1.47814,0.41198 -2.70191,1.41314 -4.17929,1.82767 -1.37002,0.3844 -2.81973,0.25642 -4.18513,0.67625 -2.65202,0.81542 -5.10067,2.38712 -7.60327,3.55872 -1.40706,0.65871 -2.95089,0.98008 -4.31609,1.72623 -3.91703,2.14089 -7.34096,5.14664 -10.95149,7.75011 -4.15855,2.99863 -7.80087,6.8653 -10.76819,11.0152 -1.49303,2.08805 -2.91886,3.39875 -2.91495,6.10937 0.5826,-0.49127 1.15608,-0.99507 1.74609,-1.47743 1.40756,-1.15073 3.32428,-1.73235 2.28724,0.78061 -0.87915,2.13038 -1.69623,4.37376 -2.83063,6.37695 -0.23368,0.41264 -1.14702,1.96796 -0.19325,2.18662 0.72966,0.16728 1.39805,-0.93702 1.74886,-1.40283 1.31974,-1.75239 2.30964,-3.67717 3.99701,-5.11285 0.12741,1.77353 -0.47179,2.75394 -1.89149,3.78298 l -2.43192,9.45744 5.67447,-7.02553 c 1.4998,5.87507 -4.14613,11.08199 -5.13404,16.75319 3.08543,-2.65444 3.25969,-7.40029 7.83617,-8.10638 -2.44786,5.24337 -5.93949,9.48558 -5.13404,15.67234 h 0.54042 c 0.25165,-1.52691 0.3719,-3.31212 1.21374,-4.65507 0.40988,-0.65386 1.44879,-1.1927 1.80326,-0.16487 0.83853,2.43138 -0.8168,6.15652 -1.12551,8.60292 l 3.78298,-5.94468 c 0.42904,3.59989 -0.76142,7.07265 -1.07552,10.59737 -0.15329,1.72007 0.77852,3.32213 0.69907,5.05576 -0.0889,1.94034 -1.29247,3.46205 -1.88752,5.24728 -0.56064,1.68198 -0.15801,3.48972 -0.67415,5.15541 -0.19,0.61316 -0.71096,1.33952 -1.45011,1.04963 -0.98353,-0.38574 -0.98608,-1.92627 -0.96531,-2.78592 0.0654,-2.7069 1.89097,-4.87379 2.11099,-7.56634 h -0.54043 c -2.5365,1.74039 -3.62445,-0.76268 -4.27277,-2.92811 -1.55301,-5.18713 -3.19493,-10.29053 -4.85536,-15.44636 -0.82149,-2.55084 -0.82849,-4.96367 -1.34048,-7.53967 -1.36151,-6.85023 -2.87845,-14.80198 -1.47651,-21.83977 1.07659,-5.4045 3.64763,-10.16375 5.56681,-15.29195 0.9201,-2.45857 2.29599,-4.47893 3.50839,-6.79154 1.62241,-3.09465 2.61041,-6.56569 6.38269,-7.44345 0.66326,-3.04399 2.85198,-5.0972 5.94468,-3.78298 0.27564,-1.10612 0.54842,-2.42914 1.74207,-2.92082 1.18635,-0.48867 2.3325,0.94403 3.64613,0.61745 3.00317,-0.74658 5.6099,-2.98659 8.6629,-3.74782 2.55762,-0.6377 5.13547,-2.26801 7.55859,-3.29744 2.27864,-0.96804 4.68342,-0.95181 7.00187,-1.5682 0.80966,-0.21526 1.39163,-0.87473 2.20003,-1.10312 1.53879,-0.43471 3.27755,-0.003 4.85368,-0.16674 1.09725,-0.1138 1.88885,-0.91164 2.98249,-1.02662 2.30451,-0.24231 4.73379,0.3155 7.0182,-0.0854 1.17961,-0.20702 1.89234,-1.18984 2.97234,-1.60518 1.20896,-0.46493 2.78074,-0.228 4.05319,-0.228 1.03055,0 2.21024,-0.14826 3.21156,0.13772 0.88969,0.25411 1.53674,0.95498 2.46573,1.13385 2.20798,0.42515 4.77704,0.0795 7.02271,0.0795 1.36426,0 3.192,-0.4108 3.78298,1.08085 m -64.85111,5.67442 c 0.94318,-0.15408 1.6629,-0.49214 2.53023,-0.87351 0.36105,-0.15876 3.45852,-0.80031 2.82729,0.41218 -0.89379,1.7168 -4.51563,2.40457 -5.35752,0.46133 m 83.49575,1.89149 v 1.08085 l -2.1617,-0.27021 2.1617,-0.81064 m 4.05319,18.64468 v -0.54043 c 0.64621,-0.0925 3.7685,-0.6906 3.97901,0.36007 0.23154,1.15559 -3.57506,0.28977 -3.97901,0.18036 m 13.51064,1.62127 -7.29575,-0.27021 c 2.29218,-1.72943 5.77524,-2.75962 7.29575,0.27021 m -2.43192,3.78298 c -0.91652,1.80372 -3.24233,1.43854 -4.86383,0.81064 v -0.54042 l 4.86383,-0.27022 m -105.9234,3.51277 c -0.83085,1.55056 -1.74928,2.13973 -3.51277,2.1617 0.9916,-1.29674 1.89784,-1.89591 3.51277,-2.1617 m 113.48936,1.08085 c -1.04994,0.26477 -1.73567,0.26454 -2.1617,-0.81064 l 2.1617,0.81064 m -3.78298,1.62128 c -0.86552,2.18464 -3.1118,0.5146 -4.54219,0.0728 -0.84791,-0.26187 -1.8697,-0.18353 -2.75355,-0.34305 1.83243,-2.59489 5.06067,-1.14698 7.29574,0.27022 m -114.57021,1.35106 v 0.54043 l -2.70213,2.70212 c -2.79514,-1.10719 0.68493,-3.7741 2.70213,-3.24255 m 118.35319,5.67447 c -2.64912,-0.12369 -4.93994,-1.66655 -7.52804,-2.19635 -0.64504,-0.13204 -2.02546,-0.4435 -1.83019,-1.39329 0.22783,-1.10813 2.03323,-0.47586 2.67825,-0.28675 2.62456,0.76947 4.89767,1.72716 6.67998,3.87639 m -27.02128,-3.24255 c 1.15413,1.71774 2.6457,2.02278 4.47867,2.75157 2.63786,1.0488 4.49695,1.98248 7.4107,1.57183 v -0.54043 c -3.56828,-3.08381 -7.27833,-3.78194 -11.88937,-3.78297 m 25.67022,7.29574 c -0.85595,2.15857 -5.44684,-0.64715 -7.02553,-1.16767 -0.78274,-0.25807 -1.88348,-0.008 -2.50524,-0.64719 -2.0515,-2.10802 2.63698,-1.87835 3.58605,-1.42654 0.87765,0.41781 1.73013,0.77051 2.54875,1.29685 1.12723,0.72477 2.29503,1.12765 3.39597,1.94455 m -26.48085,-1.08085 v 0.54042 c 1.50795,0.59639 5.44797,3.47472 6.9916,2.11015 0.85441,-0.7553 -0.56825,-1.69089 -1.13724,-1.99519 -1.85373,-0.99141 -3.83455,-0.94656 -5.85436,-0.65538 m 25.4,7.02553 c -1.35296,-0.17627 -2.53897,-0.5615 -3.78435,-1.11618 -0.89887,-0.40035 -1.78563,-0.82295 -2.7414,-1.07277 -0.83196,-0.21745 -1.97987,-0.20694 -2.64793,-0.81801 -1.37188,-1.25484 1.42013,-1.7827 2.16437,-1.72968 2.67922,0.19085 6.49941,1.90031 7.00931,4.73664 m -11.35389,0.44875 c 0.66849,-0.54652 1.90932,-0.43912 2.71114,-0.43285 3.07934,0.0241 5.43044,1.74098 7.86016,3.46822 0.62322,0.44304 3.77515,2.15997 2.56565,3.25646 -0.79099,0.71709 -2.17646,-0.2716 -2.86012,-0.68668 -2.77681,-1.6859 -5.61762,-2.34868 -8.61805,-3.48172 -0.57514,-0.21718 -2.71319,-1.26142 -1.65878,-2.12343 m 11.35389,-0.17854 c 2.34031,-0.18989 1.52278,1.49553 0,0 m 2.1617,14.59149 -3.78298,-2.43191 h -0.54043 c 0.29842,1.63468 3.98947,4.62279 2.94541,6.24171 -0.59615,0.92439 -2.38305,-0.94273 -2.79508,-1.30197 -1.77238,-1.54534 -4.6662,-2.48787 -6.10883,-4.27114 -1.82791,-2.25953 0.81051,-2.60279 2.40863,-1.93183 0.9927,0.41679 1.95833,0.75655 3.00945,0.99302 -1.73499,-2.27381 -3.786,-3.13166 -6.06401,-4.68243 -0.80092,-0.54523 -1.79457,-1.61298 -1.721,-2.67259 0.11286,-1.62562 4.38982,0.30456 5.08598,0.64253 3.54486,1.72091 8.13081,4.95002 7.56286,9.41461 m -22.69787,-2.1617 v 0.54043 c 2.79255,1.01836 5.31168,2.73061 8.37659,2.43191 v -0.54042 c -2.37279,-1.52841 -5.53613,-2.7554 -8.37659,-2.43192 m 18.91489,10.80851 H 310.565 l 1.08085,3.51277 c -2.50033,-0.24658 -5.1525,-1.92177 -6.92153,-3.67995 -0.42798,-0.42534 -2.0738,-2.36149 -0.83624,-2.8094 1.68062,-0.60826 4.43147,2.09046 6.13649,2.43616 -0.86427,-0.92467 -1.66406,-2.00828 -2.70918,-2.73721 -0.96432,-0.67256 -2.26234,-0.96681 -2.71147,-2.19342 -0.3836,-1.04765 0.27642,-1.96183 1.38054,-1.57579 1.66397,0.58179 3.37863,1.61803 4.53159,2.96027 0.73253,0.85279 1.56522,2.46053 1.76776,3.5741 0.24933,1.37077 -0.7718,1.34849 -1.4486,0.51247 m -11.88936,-1.62127 c -0.33135,-2.6357 -4.55564,-5.76549 -7.20929,-4.11702 -1.64623,1.02265 1.02309,2.00827 1.74856,2.24898 0.66557,0.22082 1.33109,0.44121 2.00336,0.64091 1.18472,0.35194 2.32262,0.73489 3.45737,1.22713 m 9.18723,7.56595 c 3.45488,0.8384 0.63021,3.69488 -0.27021,0.27022 -0.87362,-0.18556 -1.66328,-0.41726 -2.44955,-0.85455 -0.53293,-0.29638 -1.04466,-0.63718 -1.54348,-0.98738 -0.70929,-0.49796 -2.87528,-2.88134 -0.53937,-2.79672 2.10802,0.0764 4.34836,2.47033 4.80261,4.36843 m -18.64468,-1.08085 c 0.63077,1.59753 4.78421,3.5981 5.67447,1.35107 l -5.67447,-1.35107 m 11.97463,1.57815 c 2.11425,-1.26639 4.72684,1.80312 5.94865,3.12412 0.37066,0.40075 1.84121,1.85786 1.11519,2.4809 -0.55017,0.47213 -1.58384,-0.26983 -2.03695,-0.55642 -1.55442,-0.9832 -3.43138,-1.83553 -4.84288,-3.00352 -0.64964,-0.53755 -1.09501,-1.49941 -0.18401,-2.04508 m -2.42326,3.75008 c 1.89571,-1.00255 5.33454,1.60796 6.56244,2.91181 0.50471,0.53592 1.36827,2.01967 0.41001,2.57896 -0.63897,0.37295 -1.48553,-0.23688 -1.99616,-0.57443 -1.53827,-1.01688 -3.45839,-1.7975 -4.85335,-2.98468 -0.61139,-0.52032 -1.02842,-1.45279 -0.12294,-1.93166 m -93.58754,1.6973 -3.24255,7.02554 c 1.42098,-0.66501 5.66141,-6.21999 3.24255,-7.02554 m 92.37507,2.02449 c 1.85401,-0.6088 4.81321,3.05695 5.65137,4.38314 0.35885,0.56779 0.95441,2.02696 -0.0731,2.31924 -1.45731,0.41452 -5.21747,-2.89259 -6.05405,-4.02564 -0.5753,-0.77918 -0.63901,-2.31067 0.4758,-2.67674 m -26.71337,2.83934 5.94468,1.62128 c -1.34994,-2.32795 -3.58536,-2.74687 -5.94468,-1.62128 m 28.37234,12.15958 c -1.06835,-0.97641 -2.41154,-1.8953 -3.16327,-3.15528 -0.21676,-0.36331 -0.59457,-1.15625 -0.11185,-1.48406 0.60001,-0.40744 3.59147,1.70467 3.59147,0.24541 0,-1.24055 -2.8302,-2.55907 -3.48975,-3.6228 -0.2644,-0.42645 -0.68785,-1.32257 -0.10573,-1.69361 0.54981,-0.35045 1.43557,0.0948 1.93526,0.34217 1.37861,0.68236 4.1914,2.50736 4.34321,4.21773 0.0984,1.10899 -2.28597,4.20995 -2.99934,5.15044 m -78.09151,-7.56593 c -0.45576,-0.0169 -0.91513,-0.0198 -1.36787,-0.083 -2.69185,-0.37627 -1.1544,-2.93182 0.54996,-1.1956 0.36377,0.37057 0.57998,0.82511 0.81791,1.27864 m 8.91702,-1.89149 c -1.76871,0.99333 -2.1534,-0.65976 0,0 m 58.09575,4.05319 c 0.36396,3.16912 0.41376,5.74277 2.43192,8.3766 l -1.89149,-8.3766 h -0.54043 m -88.9,1.62128 -0.81064,2.43191 c -0.29224,-1.10577 -0.35336,-1.97073 0.81064,-2.43191 m 24.85957,21.0766 c -0.62048,-0.96064 -0.88498,-2.24435 0.43226,-2.80173 1.14716,-0.48542 2.43613,0.13877 3.50359,-0.68934 2.43432,-1.88845 2.77686,-5.61816 3.23643,-8.37263 0.18128,-1.08656 0.67242,-2.13938 0.63208,-3.25514 -0.057,-1.57627 -0.58961,-2.99243 -0.50861,-4.6067 2.48711,1.2452 2.42683,3.43435 2.43135,5.94477 0.008,4.24366 -0.56856,8.53906 -4.07465,11.51298 -1.59248,1.35077 -3.89393,1.1336 -5.65245,2.26779 m 53.77234,-13.24043 c 0.10669,-0.55398 0.19881,-1.1159 0.35967,-1.65773 0.0955,-0.3215 0.20049,-0.65664 0.36848,-0.94909 1.89056,-3.29122 3.042,2.5801 3.28858,4.00352 0.27173,1.56858 0.20736,3.94985 0.01,5.53199 -0.0822,0.65938 -0.54694,1.63859 -1.38095,1.2951 -1.44281,-0.59422 -1.12062,-3.98905 -1.29471,-5.25145 h -0.54043 c -0.16012,1.09157 -0.13596,2.50316 -0.74278,3.46116 -0.5482,0.86543 -1.53801,0.73027 -1.92065,-0.18953 -0.70074,-1.68443 -0.23022,-3.91398 -0.35835,-5.69738 -0.10201,-1.41962 -0.76951,-2.68552 -0.9109,-4.07842 -0.24948,-2.45774 1.95799,-2.1431 2.26798,0.0553 0.17426,1.23576 0.37714,2.31589 0.85406,3.47658 m 19.72554,-2.97234 c -0.51229,0.0753 -1.01747,0.17772 -1.53605,0.085 -1.92215,-0.34374 -1.10757,-2.18198 0.69137,-0.88438 0.31438,0.22677 0.57364,0.52677 0.84468,0.79939 m -104.57234,-1.08085 -0.27022,2.43191 -0.81064,-2.43191 h 1.08086 m 29.45319,2.1617 -2.1617,-2.1617 c 1.32517,0.33419 1.82751,0.83651 2.1617,2.1617 m 44.5851,0 -2.1617,1.89149 c 0.12043,-1.4754 0.713,-1.87384 2.1617,-1.89149 m 4.86383,1.89149 c 3.06266,0.83787 1.89695,2.35044 1.59432,4.84119 -0.12474,1.02652 0.0953,2.49188 -0.74929,3.27197 -1.67262,1.5448 -1.98063,-1.88337 -1.95922,-2.7378 0.0175,-0.69974 0.0378,-1.40598 0.12522,-2.10109 0.13603,-1.08197 0.52415,-2.0279 0.98897,-3.00406 l -1.08085,-2.43191 c 1.09901,0.42034 1.24997,1.04216 1.08085,2.1617 m -43.23404,-1.62128 c 0.14446,1.2607 0.24519,2.51552 0.25981,3.78516 0.009,0.80176 0.0215,1.61504 -0.0678,2.41315 -0.082,0.73317 -1.74777,4.55934 -2.87956,2.81177 -0.47844,-0.73875 0.12542,-2.27143 0.1911,-3.08042 0.19933,-2.45543 -0.578,-5.37371 2.49642,-5.92966 m 62.14894,0.81064 1.08085,2.1617 v -2.1617 h -1.08085 m -69.17447,0.27021 c 1.40202,1.74567 2.20909,3.64575 2.11257,5.91975 -0.024,0.56591 -0.0699,1.93806 -0.85645,2.03967 -0.7926,0.10239 -1.18444,-1.24295 -1.34436,-1.78697 -0.60292,-2.05106 -0.41455,-4.12918 0.0882,-6.17245 m 46.20638,0.81064 -0.81064,3.51277 c 0.54696,0.10501 1.11683,0.1795 1.58407,0.51156 2.06168,1.46519 -0.88985,4.26003 -1.46606,1.1044 -0.0971,-0.53193 -0.0982,-1.07768 -0.11801,-1.61596 -1.92219,-0.76298 -0.63707,-2.3754 0.27022,-3.51277 h 0.54042 m -74.84893,10.26809 c -2.14573,-0.92934 -1.37314,-4.80906 -1.34774,-6.75456 0.0102,-0.77973 -0.0505,-1.77672 0.46042,-2.42921 1.69989,-2.17084 2.3047,1.94128 2.15323,2.94473 -0.12007,0.79538 -0.5026,1.4797 -0.73562,2.23913 -0.39019,1.27167 -0.32143,2.68744 -0.53029,3.99991 m 92.41276,-9.18724 0.27022,2.43192 c -1.23265,-0.48826 -1.26244,-1.63302 -0.27022,-2.43192 m -67.8234,0.54043 c 0.61125,0.77599 1.18853,1.5353 1.59228,2.44379 0.45575,1.02547 1.12169,2.50131 0.98806,3.65003 -0.15014,1.29084 -1.79114,1.48117 -2.6123,0.67519 -1.53656,-1.50819 -0.77313,-5.09375 0.032,-6.76901 m -7.02553,0.27021 v 4.59362 l -2.43192,-0.27021 v -0.54043 l 2.43192,-3.78298 m 53.77234,2.97234 c 1.69414,3.07757 -3.16328,2.14988 0,0 m -50.15203,2.26524 c 0.93675,-0.17467 1.24389,1.22797 0.29328,1.41288 -0.94173,0.18318 -1.24935,-1.23459 -0.29328,-1.41288 m 85.00947,-0.37375 c 1.17748,0.65566 2.01341,0.45719 3.24256,0 l -0.81064,4.86383 -3.24255,-2.43191 1.08085,4.86383 c -0.53924,-0.29505 -1.07538,-0.57947 -1.56316,-0.95746 -3.17515,-2.4604 -0.28679,-3.75837 0.75252,-6.33829 h 0.54042 m -104.84255,10.80851 -1.35106,-5.67447 c 0.79275,-0.86278 1.14019,-3.21385 2.09363,-3.65288 1.25497,-0.57788 1.64257,1.19915 1.66218,2.03614 0.0412,1.75688 -0.72547,6.56391 -2.40475,7.29121 m 9.73168,-9.09573 c 0.76365,-0.33201 1.3084,0.83069 0.53239,1.16806 -0.76368,0.33201 -1.30841,-0.83069 -0.53239,-1.16806 m 62.95555,1.52978 2.16171,0.81063 c 1.83084,-1.32289 4.27991,-1.22338 6.45815,-1.02342 0.68269,0.0627 2.56153,0.40972 2.0487,1.52991 -0.442,0.96547 -2.24844,0.86344 -3.10718,0.92854 -2.62643,0.19908 -6.73547,1.01381 -7.56138,-2.24566 m 29.59691,5.0285 c 1.56441,-0.10255 2.15052,3.52435 0.40819,3.51165 -1.4266,-0.0104 -1.76793,-3.42252 -0.40819,-3.51165 m -96.33946,9.8332 c 0.12221,-2.12692 -0.0521,-4.5594 0.43299,-6.62983 0.20949,-0.89402 1.09756,-1.77279 1.9079,-0.85248 1.29846,1.47467 0.56659,4.56147 1.44209,6.40146 0.11684,-0.69864 0.93883,-4.53585 2.23126,-2.58319 1.10709,1.67264 1.21699,8.95791 -1.5004,9.20981 -1.93982,0.17982 -4.52855,-2.52997 -5.76588,-3.82378 -1.79609,-1.87804 -2.30117,-5.44792 -2.24133,-7.93159 0.0189,-0.78287 0.28004,-3.74114 1.79408,-2.7764 0.84372,0.53763 0.83798,1.90449 0.86942,2.77729 0.078,2.16409 -0.13241,4.20639 0.82987,6.20871 m 91.60213,-5.94468 v -2.16171 c -1.27,0.42183 -1.25534,1.72024 0,2.16171 m -20.26596,5.94468 -1.08085,3.24255 1.62128,-3.24255 h -0.54043 m 8.3766,1.62127 c -2.05535,2.88876 -0.65383,7.56931 2.97234,8.3766 l -2.97234,-8.3766 m -7.02553,3.24256 -2.08319,4.66262 1.55203,-0.67431 1.07158,-3.98831 h -0.54042 m -25.40001,13.78085 -1.62127,0.81064 c -0.35685,-2.8861 1.52187,-7.59332 -0.22597,-10.15038 -0.58789,-0.86007 -1.79721,-0.9028 -2.72111,-1.10333 -2.43819,-0.52921 -5.06894,-0.72673 -6.62832,1.73821 -1.36456,2.15698 -1.10338,7.51272 -0.52686,9.93634 0.57811,2.43031 4.19551,1.70448 6.04906,1.75554 2.07498,0.0572 6.11623,2.10897 5.89652,-1.40063 -0.0334,-0.5328 -0.13539,-1.06064 -0.22205,-1.58639 m 2.70213,-8.91702 c -0.0707,2.41021 0.19442,4.88682 -0.11016,7.282 -0.14119,1.11033 -0.91266,2.4923 -0.55883,3.60345 0.94442,2.96582 7.55505,3.09755 9.36111,1.14207 1.97639,-2.13992 1.03539,-6.60542 0.25984,-9.05406 -0.31692,-1.00062 -0.40161,-3.202 -1.50244,-3.69214 -0.87029,-0.38749 -2.01008,0.19816 -2.859,0.40278 -1.50377,0.36246 -3.05463,0.31402 -4.59052,0.3159 m 26.48085,0.54042 -1.35106,3.24256 h 0.81064 l 0.54042,-3.24256 m 2.43192,1.35107 v 7.83617 h 0.54042 c 0.46369,-1.97399 1.129,-3.29903 3.24256,-2.16171 h 0.54042 c -0.584,-1.93509 -2.4754,-4.80366 -4.3234,-5.67446 m -64.58085,8.64681 c 2.45682,-2.03188 5.1213,-5.36339 6.75532,-8.10639 -3.53324,1.20372 -6.55893,4.30691 -6.75532,8.10639 m -92.14256,29.99361 c 1.95195,0.28456 3.98598,0.40648 5.93537,0.0249 1.26761,-0.24808 2.4894,-0.92206 3.79229,-0.9497 1.27242,-0.027 2.52079,0.50544 3.7923,0.59966 1.8703,0.13859 3.78239,-0.10354 5.63871,0.20573 1.62062,0.27001 2.99504,1.17572 4.50257,1.76677 2.34832,0.92071 4.49949,1.44681 6.62502,2.89707 2.34582,1.6006 4.96003,1.92969 5.92225,4.91298 3.82245,0.79428 6.95367,4.11975 10.02374,6.40073 1.00769,0.74866 2.18008,1.01665 3.25263,1.62411 1.78931,1.01343 3.4102,2.40815 5.21343,3.45696 12.25542,7.12805 24.00879,14.96986 35.77461,22.87807 1.35914,0.91352 2.97003,1.28095 4.37268,2.10823 3.37781,1.99221 7.35508,4.64151 10.31438,7.22791 4.82286,4.21513 10.35223,8.13493 15.70591,11.72338 1.21973,0.81755 5.49795,3.03403 5.44475,4.73856 -0.056,1.79548 -4.14162,3.53917 -5.52553,4.15269 -1.94086,2.42644 -4.65678,3.44472 -7.33021,4.87428 -3.16813,1.69411 -6.32486,3.75201 -9.70621,4.99511 -2.24532,0.82545 -4.40086,0.92497 -6.69621,1.41219 -1.77073,0.37586 -3.30111,1.63084 -5.13542,1.73082 -1.29061,0.0704 -2.51586,-0.499 -3.81472,-0.44216 -1.24852,0.0546 -2.48175,0.68635 -3.73501,0.385 -1.76629,-0.42475 -2.88632,-1.89614 -4.86077,-1.43343 -4.11363,0.96398 -8.78169,3.746 -12.40492,5.88771 -1.35751,0.80246 -3.02985,2.07997 -3.27271,3.75884 -0.22948,1.58641 0.91123,3.29209 1.63454,4.61852 1.92341,3.52721 4.3317,6.91556 6.64186,10.20149 2.38579,3.39352 4.97317,7.13544 7.86266,10.09953 1.41644,1.45302 2.73025,1.2628 4.58026,1.38992 1.9205,0.13201 3.76464,0.391 5.70284,0.32962 1.87345,-0.0593 3.55859,-0.48102 5.40423,0.0202 1.59778,-0.97481 3.32216,-0.97909 5.01965,-1.66139 2.26026,-0.9085 3.98293,-2.61353 5.54898,-4.42829 2.06121,-2.38858 1.12541,-5.39582 2.99154,-7.70364 1.07905,-1.33444 2.5588,-2.29437 3.7418,-3.53315 5.04928,-5.28739 10.56533,-10.08538 16.19958,-14.76786 2.73766,-2.27517 5.76452,-5.68377 9.49878,-6.17848 1.85234,-0.24541 2.61708,1.34889 3.81877,2.40487 2.58797,2.27414 6.29033,3.63477 7.76388,6.95517 4.33446,1.28031 7.88783,6.35195 11.01977,9.44432 1.35096,1.33391 2.96808,2.73287 3.54354,4.60727 0.4775,1.55541 0.18362,3.22639 0.43263,4.81657 0.39239,2.5058 2.15862,7.02678 4.05992,8.73128 2.61579,2.34503 7.95137,1.31333 11.20797,1.31333 4.58085,0 9.46898,0.51113 14.01561,0.005 1.35083,-0.15038 2.33697,-1.22569 3.62668,-1.33553 2.00514,-0.1708 4.0946,0.3403 6.13644,0.2017 2.10891,-0.14315 4.13422,-0.94241 6.21489,-1.30304 0.7416,-2.49396 2.75706,-4.86435 2.56671,-7.55279 -0.18595,-2.6263 -2.07375,-4.89801 -3.868,-6.65637 -4.84135,-4.74452 -10.58552,-5.84892 -16.79574,-7.74783 -2.25309,-0.68893 -4.50146,-1.76632 -6.82172,-2.18833 -2.49003,-0.45285 -5.04647,0.16137 -7.44678,-0.84814 -3.27599,-1.37781 -5.47183,-3.90845 -8.14786,-6.11742 -1.4644,-1.20883 -3.20494,-2.04378 -4.39363,-3.56845 -1.24794,-1.60062 -1.79823,-3.626 -3.00691,-5.28574 -1.78365,-2.44926 -5.93522,-4.64283 -6.25374,-7.8551 -0.29025,-2.92712 3.38787,-4.87661 5.37894,-6.28497 2.09554,-1.48226 3.71282,-3.52513 5.82655,-4.99242 3.01812,-2.09507 6.64185,-3.57745 9.38232,-6.0059 1.40026,-1.24083 2.56907,-2.73942 4.04181,-3.89658 1.66151,-1.30546 3.61651,-2.25297 5.20769,-3.64443 1.12554,-0.98425 1.80284,-2.36028 2.9539,-3.31967 1.40008,-1.16692 3.2522,-1.66679 4.60391,-2.89106 1.0771,-0.97557 1.19217,-2.60049 2.29001,-3.50223 1.2102,-0.99404 2.96462,-1.03423 4.19608,-2.06285 1.3335,-1.11383 1.5975,-2.9601 3.05952,-4.02133 4.49879,-3.26541 9.4166,-7.0942 14.28994,-9.78389 2.98448,-1.64717 6.37238,-2.55179 9.35211,-4.27904 2.33662,-1.35447 4.03289,-3.6757 6.42796,-4.91905 2.37014,-1.23041 4.4912,0.36188 6.8994,0.31398 2.39218,-0.0476 5.83956,-2.00001 7.88045,-3.23506 2.68227,-1.62316 4.09817,-3.36124 4.98504,-6.38579 0.30555,-1.04203 0.68801,-2.25279 0.12077,-3.27623 -1.08466,-1.95697 -4.20207,-1.57045 -5.83126,-2.97981 -0.45457,-0.39323 -0.86185,-0.8541 -1.17033,-1.3713 -2.54998,-4.27556 3.18601,-6.27406 6.15584,-7.23582 -0.15279,-3.68471 1.19773,-7.57875 -0.0679,-11.07052 -1.2038,-3.32131 -5.02719,-7.84955 -8.31303,-9.2463 -3.96234,-1.68431 -10.19246,-0.5648 -13.26156,2.35797 -2.24799,2.1408 -5.24132,5.05628 -6.37827,7.96126 -0.86399,2.20759 -0.48217,4.79727 -1.49162,6.84173 -1.11625,2.26074 -3.64372,3.63652 -4.54941,5.9743 -0.63649,1.64291 0.14534,3.40312 -0.7314,5.01106 -1.08211,1.98457 -3.10966,3.44527 -4.6398,5.06992 -1.50794,1.60107 -2.49666,3.57433 -4.01653,5.16852 -1.3966,1.4649 -3.10055,2.33587 -4.64832,3.59306 -3.8851,3.15567 -7.587,6.47244 -11.05882,10.05912 -0.39966,0.41287 -3.51384,3.28065 -2.08122,3.88441 0.78043,0.32887 1.6635,-0.97108 2.10604,-1.41125 1.76166,-1.75217 3.21261,-4.03435 5.05013,-5.63055 1.49392,-1.29772 3.46438,-1.88584 5.05369,-3.05417 1.67246,-1.22945 3.03703,-2.81718 4.66746,-4.09584 2.38113,-1.86743 5.03078,-3.42117 7.40208,-5.30603 2.60697,-2.07221 3.69071,-5.01295 6.97121,-6.44193 1.1485,-0.5003 3.47881,-1.5664 4.67311,-0.75674 2.22665,1.50956 0.44939,5.8907 -1.43696,6.76433 v 1.08085 c -5.14783,1.00798 -9.0844,4.46446 -13.25685,7.31316 -4.38037,2.99063 -9.04663,5.51726 -12.68357,9.44003 1.89301,-0.0205 3.06496,-0.99542 4.60966,-1.97425 3.40057,-2.15484 7.38179,-5.9778 11.60311,-5.86192 -3.53603,3.68567 -8.16263,6.04073 -12.25938,8.96046 -4.0286,2.87118 -7.6708,6.43926 -11.43309,9.6402 -3.9252,3.33955 -7.23481,7.2066 -10.91034,10.77459 -6.66256,6.46762 -13.88035,13.05249 -21.65682,18.19849 -4.90753,3.24752 -9.42898,6.969 -14.56698,9.86684 -1.62198,0.91479 -4.20433,3.67655 -5.3734,1.4658 l -22.20981,14.80471 -6.43274,3.7996 -2.70213,1.39144 c 0.17598,0.37804 0.41487,0.83969 -0.16181,1.03391 -1.01384,0.34146 -1.91167,-0.85451 -2.95375,-0.54854 -1.47619,0.43342 0.55751,4.11299 -1.95676,2.78189 -2.20036,-1.1649 -5.4908,-4.55688 -2.38708,-6.50906 1.77531,-1.11661 4.16161,-0.22169 6.10833,-0.70261 1.55705,-0.38464 2.92444,-1.35898 4.35957,-2.03207 3.60108,-1.6889 9.58342,-3.3835 11.31278,-7.26395 -2.22543,0.39163 -3.77886,1.49712 -5.73388,2.51695 -0.32081,0.16737 -1.43726,0.72524 -1.63448,0.0963 -0.33157,-1.05743 2.49561,-2.41723 3.12708,-2.89799 3.37505,-2.56939 6.94248,-5.60173 10.68305,-7.59589 8.95279,-4.77284 17.30534,-11.20097 25.57966,-17.02588 2.57763,-1.81458 5.52883,-3.13764 8.15233,-4.9278 3.79088,-2.58672 7.5971,-5.76597 11.10324,-8.75556 4.20736,-3.58753 8.46283,-6.96781 12.41956,-10.86446 0.56933,-0.56067 4.10024,-3.632 2.74204,-4.57517 -0.94662,-0.65736 -2.57939,0.98854 -3.1907,1.52618 -2.83221,2.49092 -5.8331,4.57903 -8.55478,7.22893 -3.08886,3.00739 -6.26434,6.19545 -9.8738,8.58504 -3.05537,2.02277 -6.59617,3.20731 -9.44434,5.5157 -1.3266,1.07519 -2.10599,2.65379 -3.45616,3.7271 -1.79536,1.42721 -4.03073,2.16538 -5.84619,3.58857 -2.04477,1.60295 -4.33746,3.76497 -6.93753,4.41482 -1.4072,0.35172 -2.50979,-0.58096 -3.49583,-1.46054 -2.17166,-1.93722 -4.48569,-3.55149 -6.72446,-5.38938 -9.10398,-7.47376 -18.57267,-14.58793 -28.09992,-21.53456 l -5.94468,-1.89149 c 3.61895,3.90118 9.21166,6.29729 13.52046,9.48131 2.12277,1.56865 5.17124,3.53723 6.81324,5.58879 1.18041,1.47484 1.36487,3.3492 2.82296,4.67466 1.33321,1.21194 2.97403,2.00997 4.30782,3.23743 3.01702,2.77649 5.51441,5.86461 8.23588,8.88354 0.8142,0.90319 2.45699,1.09479 3.0871,2.05661 0.56328,0.85982 -0.67529,1.70384 -1.26915,2.09215 -1.61458,1.05577 -3.27844,2.61401 -5.09278,1.27487 0.61491,-0.19852 2.22421,-0.63906 1.7539,-1.6247 -0.72922,-1.5282 -3.96663,-1.17468 -5.2816,-1.90111 -1.35808,-0.75024 -1.5225,-2.39421 -2.26657,-3.61375 -0.91249,-1.49555 -2.26623,-2.24208 -3.93338,-2.5881 0.61857,3.14575 -3.21889,0.69859 -0.54043,-0.27021 -0.68182,-1.1328 -1.49549,-2.3604 -2.80182,-2.83262 -1.37348,-0.49648 -4.34653,0.88895 -3.83274,-1.71462 0.0769,-0.38952 0.27099,-0.76535 0.41967,-1.12723 l -23.42592,-16.09008 -7.91877,-5.79715 c -2.59153,0.75717 -5.34119,-1.28737 -7.5837,-2.44158 -0.28139,-0.14484 -2.76109,-1.68248 -1.65202,-2.11462 1.08904,-0.42433 3.50426,1.54182 4.64211,1.85407 -2.03251,-3.37289 -5.68681,-4.8383 -8.98128,-6.71142 -1.23225,-0.70061 -2.36385,-1.80368 -3.71872,-2.25214 -1.39836,-0.46288 -2.8048,0.34563 -4.17174,-0.35997 -1.39768,-0.72144 -2.41687,-2.04251 -3.74281,-2.88508 -2.4327,-1.54585 -5.27045,-2.6206 -7.36595,-4.66437 -1.37462,-1.34069 -2.21522,-3.1017 -3.52818,-4.49847 -1.98461,-2.11127 -4.11379,-3.48356 -5.78068,-5.92004 l -1.23666,0.49708 c -3.4705,1.29811 0.15495,-3.46361 -2.10495,-3.96497 -1.70939,-0.37924 -1.42536,3.7984 -3.20188,2.70313 -1.49077,-0.9191 0.93811,-2.89756 -0.25865,-3.86367 -1.58526,-1.27974 -2.36993,3.82 -4.27659,0.84545 1.08766,-1.50457 1.07184,-3.06501 1.08085,-4.86383 -2.94456,0.50622 -2.88176,-3.70673 -0.54981,-4.0692 1.5654,-0.24332 4.08933,2.24507 5.33398,3.0914 4.47478,3.04273 8.91581,5.47982 13.86051,7.73312 -0.89146,-3.99303 -7.28288,-5.73424 -10.23455,-8.20575 -1.83746,-1.53855 -2.9239,-3.48921 -4.4232,-5.30385 -1.52326,-1.84364 -3.35996,-3.45969 -5.06845,-5.12784 -3.27203,-3.19477 -7.50379,-5.64382 -10.32809,-9.23181 -2.49833,-3.17388 -7.04953,-8.62197 -11.74063,-5.35748 -2.70897,1.88513 -4.18816,6.11034 -5.02804,9.15174 -1.82402,6.6052 -3.67899,12.54198 -3.41454,19.47214 0.10166,2.66413 1.66924,4.88214 1.32899,7.57519 m 15.94256,-13.51064 -2.97234,4.0532 h -0.54043 c -1.47072,-2.21745 -1.1052,-4.92578 2.12946,-4.88137 0.51003,0.007 3.37088,0.61799 3.02436,-0.66385 -0.21397,-0.79149 -1.56683,-1.30066 -2.17312,-1.72553 -1.80234,-1.26301 -3.9892,-2.56839 -5.49282,-4.1796 -2.38966,-2.56066 0.16923,-2.23211 1.99906,-1.26237 0.80254,0.42532 1.62314,0.82225 2.47226,1.14629 1.28545,0.49056 2.51745,0.87331 3.71527,1.56855 l -3.83926,-3.74641 -4.53734,-4.35997 c 0.92745,-2.01937 3.59177,0.13382 5.40426,-0.27021 v -0.27022 c -1.96019,-0.81301 -2.68288,-2.17717 -3.51277,-4.05319 2.18431,0.0462 3.8157,1.23077 5.58766,2.40903 2.44162,1.62353 6.82414,4.49263 8.04752,7.26307 0.58927,1.33446 0.30267,2.97231 0.21709,4.37793 -0.0649,1.06591 0.0626,2.47133 -0.56711,3.39784 -0.62483,0.91931 -1.9859,0.98792 -2.94934,1.32572 -2.04039,0.71541 -5.16916,3.096 -6.01241,-0.12891 m 78.63191,-12.15957 4.32341,-4.3234 v -0.54043 c -2.58371,0.56911 -4.02834,2.2644 -4.32341,4.86383 m 145.9149,0.81064 c 0.63577,0.37515 1.2747,0.74292 1.91695,1.10677 0.40446,0.22915 0.81549,0.45154 1.20214,0.71032 2.88818,1.93307 -0.75772,2.46757 -1.6749,3.93598 -0.48389,0.7747 -0.1223,1.59133 0.17708,2.35331 h 0.27022 c 1.50926,-1.0222 2.57274,-0.63193 4.05319,0.27021 -0.90648,2.53526 -2.8234,1.75177 -4.57472,3.10785 -1.20578,0.93365 -1.11319,2.06083 -1.61493,3.34045 -1.03223,2.63259 -2.18484,4.13285 -2.18715,7.06237 -0.001,1.36276 -0.355,2.8761 1.08105,3.51274 -1.35274,2.89865 -2.62661,-0.61895 -2.70212,-2.1617 l -1.96109,0.49289 -1.27101,-3.06569 -2.5013,-2.11869 -2.91341,-1.52341 2.1617,-0.54042 v -0.54043 c -1.81117,-0.94784 -5.46998,0.31186 -6.61804,-1.20052 -1.54316,-2.03288 1.64587,-4.60086 2.63544,-6.09052 1.34511,-2.02488 1.34291,-4.31338 2.43587,-6.36397 1.65723,-3.10928 4.56144,-4.92969 7.67306,-6.28895 2.96935,-1.29711 6.77681,0.65081 4.41197,4.00141 M 211.66704,376.0445 c 2.0736,0.95358 -0.5842,2.57679 0,0 m 29.72341,0.81064 c -1.34825,1.8516 -1.66107,3.42011 -1.35107,5.67447 h 0.54043 c 0.73445,-1.96577 1.56062,-3.59191 0.81064,-5.67447 m -5.40426,0.27021 -1.08085,2.97234 1.35107,3.78298 h 0.54042 c 0.44107,-1.62127 1.03838,-6.02275 -0.81064,-6.75532 m 21.48858,1.82252 c -1.09421,0.84039 -0.76756,3.69681 -0.45257,4.83233 0.1296,0.46715 0.58745,1.5246 1.2589,1.14496 1.13634,-0.6425 0.74647,-3.94109 0.51337,-4.96806 -0.12495,-0.55046 -0.61476,-1.55064 -1.3197,-1.00923 m -36.08007,2.50089 1.62128,-2.97234 -1.62128,2.97234 m 31.07447,-1.89149 v 11.61915 c 2.96078,-1.52585 2.98123,-10.05855 0,-11.61915 m -38.87641,2.75906 c 1.08574,-0.42407 2.14379,0.48235 2.55033,1.42788 0.68406,1.59105 0.65123,6.15137 -1.46722,6.82702 -1.07992,0.34443 -1.91547,-1.11389 -2.30249,-1.88148 -0.91741,-1.81949 -1.20644,-5.42595 1.21938,-6.37342 m 68.88733,3.31791 c 3.29899,0.44326 3.25802,5.41007 2.42936,7.67838 -0.45297,1.23992 -1.37531,2.67363 -2.90327,2.41843 -2.50137,-0.41779 -2.83735,-6.28395 -1.97423,-8.02049 0.45262,-0.91065 1.24762,-2.23764 2.44814,-2.07632 m -62.16624,2.29962 c 3.14897,2.39381 3.90956,7.32864 2.82028,10.86563 -0.31817,1.03314 -0.37297,3.34993 -1.85209,3.41132 -1.28911,0.0535 -2.51587,-1.33355 -3.28658,-2.20462 -3.5111,-3.96838 -1.45571,-9.32107 2.31839,-12.07233 m 54.55823,2.27412 c 2.23118,-0.59248 2.99369,2.04207 3.344,3.65825 0.69293,3.19691 2.08347,8.54816 -2.43044,9.81612 -2.03429,0.57143 -3.18888,-1.55037 -3.75546,-3.16336 -1.03798,-2.95494 -0.95362,-9.30316 2.8419,-10.31101 m -149.08274,1.81859 c 0.81049,-0.47971 1.39324,0.33955 1.34233,1.09025 -0.0701,1.03416 -0.70183,3.35903 -1.66655,3.91766 -0.74305,0.43026 -0.98378,-0.40286 -0.93143,-0.97667 0.0971,-1.06396 0.22647,-3.42209 1.25565,-4.03124 m 103.63073,1.20329 c 1.57501,-0.13647 2.42113,2.22476 2.97443,3.3391 1.45945,2.93926 1.08377,6.00699 1.25101,9.19195 0.0979,1.86387 -0.29633,3.88586 -2.54972,4.07195 -1.19533,0.0987 -2.23554,-0.53777 -3.11299,-1.28106 -3.68253,-3.11938 -2.70096,-6.50844 -1.69888,-10.63901 0.38844,-1.60118 1.07147,-4.50402 3.13615,-4.68293 m 34.82039,1.7312 c 3.58398,-0.94937 4.73044,3.44467 5.07688,5.93113 0.20995,1.50683 1.06855,2.83408 1.23897,4.33448 0.29916,2.63403 -1.93821,4.77578 -4.36169,5.30281 -1.77158,0.38527 -3.42354,-0.63133 -3.8646,-2.39522 -0.70152,-2.80548 -0.20711,-6.49805 -0.12639,-9.38483 0.0418,-1.49405 0.34322,-3.33974 2.03683,-3.78837 m -14.74363,8.64515 c -1.41733,-2.70507 2.49712,-7.30662 5.36304,-5.5375 1.74195,1.07529 2.79079,3.17353 3.44439,5.0427 0.97175,2.77902 2.46696,6.64853 0.89767,9.50772 -1.29486,2.35917 -7.34266,2.65738 -9.20992,0.89272 -2.42345,-2.29028 -1.90316,-7.26599 -0.49518,-9.90564 m -99.4383,-4.32341 c -1.94993,-0.8146 -0.24868,-2.69889 0,0 m 88.08937,1.89149 v -0.81064 l -1.08086,-1.08085 c 0.88324,-0.38368 1.77213,-0.81555 2.7072,-1.05956 4.27853,-1.11651 5.24481,3.17139 6.40995,6.18269 0.88638,2.29085 2.06466,5.65108 -0.029,7.69123 -1.66529,1.62276 -7.36653,2.23694 -8.74077,0.0204 -1.55066,-2.50112 -0.96835,-8.61946 0.73348,-10.94322 m 115.46908,-1.48591 0.0937,1.08033 -0.0937,-1.08033 m -141.40951,27.15612 c -2.74561,-3.78822 -6.93337,-5.9358 -10.7696,-8.44362 -1.769,-1.15642 -3.1629,-2.78264 -4.91698,-3.96545 -3.65521,-2.46477 -7.80361,-4.61379 -11.06448,-7.58667 -0.90058,-0.16569 -4.72372,-2.4654 -5.21148,-1.32718 -0.32754,0.76434 0.96696,1.38182 1.45952,1.63343 2.08614,1.06566 4.17826,1.96595 6.16761,3.22906 2.99577,1.90213 5.49797,4.28773 8.39111,6.28035 2.57555,1.7739 5.44529,3.08142 7.99353,4.85468 2.646,1.84127 4.69485,4.53561 7.95077,5.3254 m 131.05319,-14.32127 c -0.0339,2.13689 -1.34778,2.36146 -3.24255,2.43191 l 2.70213,-2.43191 h 0.54042 m -149.96808,12.42978 c -0.51968,1.31145 -1.59824,1.08709 -2.70213,0.54043 l 2.70213,-0.54043 m 21.07659,3.78298 c 1.45841,1.9054 3.3337,2.83381 5.67447,3.24256 -1.52914,-1.8353 -3.36179,-2.74013 -5.67447,-3.24256 m -13.51064,1.08085 c 0.42739,1.0766 1.10911,1.02674 2.16171,0.81064 v -0.54042 l -2.16171,-0.27022 m 55.37592,30.5257 c 1.25045,-0.8272 3.36322,1.59022 3.95531,2.42449 0.24188,0.34082 0.74954,1.10988 0.2812,1.48187 -1.09744,0.87166 -3.33646,-1.60175 -3.89707,-2.31251 -0.27724,-0.3515 -0.91832,-1.21093 -0.33944,-1.59385 m 24.06664,19.73388 -2.97234,-1.08085 h -1.89149 c 1.08103,1.34674 2.47298,2.05367 3.72073,3.19525 2.817,2.57728 5.66453,5.24448 8.39065,7.96353 3.81936,3.80946 7.56043,9.16859 12.27392,11.85776 1.82911,1.04358 3.22142,0.055 5.10373,-0.0752 2.62545,-0.18168 7.00419,1.17651 8.61097,3.26934 l -2.1617,0.54042 c 3.12176,3.16082 6.58191,-0.85814 10.26477,0.0999 3.81068,0.99126 3.8501,4.63936 5.67778,7.46611 v 0.27021 c -1.51729,0.75503 -2.98994,0.31616 -4.59362,0.61989 -1.07346,0.20332 -1.89889,0.98872 -2.97234,1.19214 -3.24277,0.61444 -6.5156,0.89686 -9.48021,2.35311 -1.39856,0.68701 -3.96825,2.36127 -4.84107,0.15827 3.66409,-2.37241 7.99346,-2.91304 12.12297,-4.06052 0.90756,-0.25217 2.95083,-1.57922 1.34672,-2.50178 -1.46069,-0.84009 -4.3267,0.68319 -5.7518,1.13881 -0.59742,0.19098 -1.85046,0.58684 -2.3341,-0.0561 -0.64878,-0.86245 2.15296,-0.98948 2.45238,-1.00551 -3.93127,-4.71094 -9.17001,0.90049 -13.32524,-2.08234 -1.39658,-1.00255 -2.13205,-2.55765 -3.25765,-3.80752 -1.4734,-1.63605 -3.32051,-3.03755 -4.92826,-4.5477 -1.43541,-1.3483 -3.17647,-2.26432 -4.62433,-3.58078 -5.84259,-5.31236 -11.48871,-11.00741 -17.9092,-15.70506 -1.35052,0.95273 -2.48462,0.94788 -4.05319,0.54042 v -0.27021 c 2.90862,-2.28606 6.37321,-2.96205 9.99787,-2.97234 l -1.08085,-2.1617 c 2.4529,-0.004 4.65875,1.395 6.2149,3.24255 m -56.74468,25.12979 -5.67447,2.70212 c -0.83305,-1.86668 -2.1052,-3.20132 -3.3306,-4.80478 -3.21274,-4.20403 -7.57414,-8.66812 -13.15238,-8.70585 1.00546,-2.3079 3.56759,-3.36424 5.84133,-1.94213 1.07524,0.67253 1.67136,1.89423 2.77595,2.51395 1.0851,0.60881 2.41354,0.56662 3.53665,1.11156 4.17811,2.02722 7.65556,5.16495 10.00352,9.12513 m -7.29575,-8.3766 c 1.1244,-2.34985 4.78392,-1.66897 5.38465,0.91134 0.46941,2.01631 -2.31034,0.85128 -3.00981,0.40925 -0.77796,-0.49161 -1.53894,-0.93394 -2.37484,-1.32059 m -23.14456,-0.0169 c 3.18167,-0.69513 6.86027,0.16496 9.93529,0.88024 1.22559,0.28508 2.44342,0.36629 3.52853,1.0697 2.75272,1.78438 5.05917,4.70827 7.38477,7.00861 1.21446,1.20128 2.73004,2.44831 3.29657,4.11688 1.07977,3.18018 -1.75919,6.81466 -4.83036,7.54218 -6.29228,1.49049 -7.6348,-3.16029 -11.00293,-7.19745 -1.83166,-2.19548 -4.20117,-3.92904 -5.887,-6.24613 -1.06604,-1.46523 -6.76273,-6.22631 -2.42487,-7.17403 m 38.00626,4.88075 c 0.44582,0.38437 0.91187,0.74688 1.23275,1.25059 1.21637,1.90937 -1.3859,2.67861 -1.3879,0.1363 -3.7e-4,-0.46885 0.0852,-0.9253 0.15515,-1.38689 m -0.54042,8.64681 c -1.46431,-1.00512 -2.13386,-2.03125 -2.43192,-3.78298 -0.71802,-0.12966 -3.15814,-1.77881 -1.21699,-1.9218 2.04382,-0.15058 3.64286,4.17085 3.64891,5.70478 m 72.9574,2.90518 c 0.45913,-0.1798 4.7183,-0.83907 3.91813,0.55956 -0.40499,0.70786 -1.44237,1.17185 -2.11942,1.55966 -1.67397,0.95887 -3.56758,2.38366 -5.37907,3.00407 -1.60869,0.55101 -2.04721,-0.93674 -1.10687,-2.03982 1.09394,-1.28331 3.13192,-2.47427 4.68723,-3.08347 m 13.51068,5.74163 c -0.83255,1.98978 -5.70644,3.39405 -7.02553,1.35106 z"
       id="path1" /></g><metadata
     id="metadata1"><rdf:RDF><cc:Work
         rdf:about=""><cc:license
           rdf:resource="http://creativecommons.org/publicdomain/zero/1.0/" /><dc:title>Skull and Crossbones</dc:title><dc:subject><rdf:Bag><rdf:li>icon</rdf:li><rdf:li>death</rdf:li><rdf:li>pirate</rdf:li><rdf:li>poison</rdf:li></rdf:Bag></dc:subject><dc:description>A skull without the mandible appear above two crossed long bones.</dc:description></cc:Work><cc:License
         rdf:about="http://creativecommons.org/publicdomain/zero/1.0/"><cc:permits
           rdf:resource="http://creativecommons.org/ns#Reproduction" /><cc:permits
           rdf:resource="http://creativecommons.org/ns#Distribution" /><cc:permits
           rdf:resource="http://creativecommons.org/ns#DerivativeWorks" /></cc:License></rdf:RDF></metadata></svg>
