<?xml version="1.0" encoding="UTF-8"?>
<!-- Created with Inkscape (http://www.inkscape.org/) -->
<svg version="1.1" viewBox="0 0 1022.7 688" xmlns="http://www.w3.org/2000/svg">
 <path d="m761.39 686.67h-239.61l-1.1111-1.0064-308-1.8657-1.2667-1.2306-1.2667-1.2306h-5.976l-.82404 1.3333-.82405 1.3333h-6.3519l-1.6267-2.632-132.53 1.1795-61.228.78584.31128-210.67.31128-210.67.30281-126.67.30281-126.67h252l216.94 1.2231 16.394 1.9315 9.3333 1.7465 8-8.3239 9.8938-5.2438h2.6411 2.6411l1.4613 2.3644 10.029 1.8312 9.3333 5.8045 460 .5418 6.0889.12487-.6655 79.528-.6654 79.528 3.2877 3.9072 3.2876 3.9072v12.565l-2.615 5.1293-2.6151 5.1292 14.282 15.782 1.7086 11.393-.9537 2.5648-.9536 2.5648-6.3799 9.7565-7.8407 3.2477-.5861 2.8312-.586 2.8312-1.6518 431.96-1.401 1.6882-1.4011 1.6882zm-233.64-12.321 16.415.3214-1.8083-12.667-2.3551-2.5333v-7.3093l2.7102-1.675-1.6898-2.7341-7.4557 8.1629-1.7699 8.0582-2.5783 1.5935-3.6514-3.0304-.9131-6.639-.9131-6.639 2.6782-3.2545.94472-6.6667.94472-6.6667 3.2835-8 2.8237-9.3333 1.7687-10.328 2.1665-4.3384 5.651-12.292.0904-2.3746 5.1524-10.667.0452-2.0367.0452-2.0366 3.5125-5.26 7.4121-24 3.5501-8 3.4149-10.667 2.0295-2.8423.77749-7.2455.7775-7.2455-1.3681-10.667-1.3681-10.667-1.6674-9.7537-6.4037 5.5679v3.6028l-4 1.535v2.7963l-6.6667 8.7404v2.8446h-2.4714l-1.8796 3.7678-1.8796 3.7678 2.3971 6.4644-.7964 4.2592-.79639 4.2592-11.624 7.4817-1.3125 2.055-1.3125 2.055-.99176 34.557h10.667l-.0415 6.713-.0415 6.713-6.9144 13.241-9.0027.85822-6.6667 6.1493-5.8247 2.9925-6.1753-.0848-4.0626-3.2485-6.2786-8 1.0398 7.3333 1.0398 7.3333-.004 17.702-5.9528 9.6318h-2.2008l-10.319-12.667-1.6105-2.1116-1.6105-2.1116-2.4978-28.766-2.8771-2.8771v-11.309l2.2859-1.4128.7101-11.382.71011-11.382 4.5031-6.8726 3.5999-13.774-7.8091-7.183v-6.4574l5.5269-7.0263h5.1398v-2.3258l10.841-1.7336 6.9386-15.274 2.22-.88889-.013-2.2222-.0131-2.2222 7.0354-21.333 3.3721-8 1.6599-4.6667 1.6599-4.6667 11.632-23.765v-4.7441l2.4803-1.5329-.80604-5.9578-4.3409-9.9144v-8.0242l-6.4979-4.2576-.71521-3.5686-.71522-3.5686-.68854-18.251 4.95-3.6195-.57849-34.398-.5785-34.398-9.8429-13.652v-1.3214-1.3214l-6.8344-10.071 1.4152-1.4152 1.4152-1.4152 23.774 24.815 2.2301 23.048-.47575 26-.47576 26 5.8912 5.327 3.9539 7.646-2.9198 2.9198-7.7186-4.5595h-5.7495l.82764 9.8954 10.667 2.1627 9.3333 4.2919 11.375 9.1958 4.1197 7.9666-.46378 2.2438-.46379 2.2438-3.7504-5.6009-3.7504-5.6009-6.106-4.0008-13.581-1.8016-.79641 2.0754-.79641 2.0754 4.7704 10.053-.25698 5.9044-.25697 5.9044-1.2545 1.5116-1.2545 1.5116-.86714 7.9683 11.696.8377 2.8377-2.8377h5.976l1.4125 2.2855 15.125 1.561 2.6409 2.6409-1.5104 3.936-31.768-1.4636-9.791 1.8368-6.2109 9.87-.9888 5.3333-.98881 5.3333-5.9666 13.333-3.1121 8-3.1121 8-3.324 4-1.4936 5.6104-1.4936 5.6104-1.1494.71037-1.1494.71036-1.806 7.1959-5.156 7.241v1.8386l14-1.8822 2.6667-2.0621 18-1.099v1.4849l-5.3011 3.3106-25.366 3.2037v2.364l15.333-1.3421 17.187-2.9287 6.1468-4.0276v-3.2971l-5.4773-3.4206 1.8192-5.7318 10.325-13.062v-2.8702l4.0056-4.2237 11.994-15.153v-3.0893l8.8164-10.3 3.78-7.4573 4.737-6.3596.0258-4.307 9.2063-11.581 1.5278-5.7526 3.0266-10.08-2.8271-2.8271-4.8184 8.1569-3.8561 1.4797-1.3317-1.3317 2.7387-3.3978 1.8531-8.6667h2.4548v-3.0816l6.6667-8.7404.01-3.5113 2.6617-4.3656 2.6617-4.3656v-3.5759l5.5905-7.1072-4.2572-10.64-.1162-20.613-2.47-12-1.7639-81.324-1.7733-5.0262-1.7733-5.0261-6.77-8.8759-.02-2.415-14.307-15.333-3.6738-.0842-7.6888-6.7603 2.8167-2.8167 7.9504 5.6612h1.7483l12.224 9.3333h3.5065l-6.8936-14-7.9753-8.4492-1.8225-3.1087-1.8225-3.1087-.84349-2.3333-.84348-2.3333h-1.081-1.081l-6.7909-14.355-4.2876-1.6453h-7.0445-7.0445l-6.7802 5.3333h-1.2931-1.2931l-1.4808 1.7842-1.4808 1.7842-10.382 3.1105-1.6548 1.9939-1.6548 1.9939-7.0068.0592-6.6667 5.2147-3.1287.0594-7.9229 6.6667h-2.8159l-1.0662 1.8054-1.0663 1.8054-6.6667 3.3628-33.835 34.491-3.483 7.8687h-1.6745-1.6745v5.0068l-1.871 1.5528-1.871 1.5528-3.6717 7.6104-3.6717 7.6104-5.267 7.5734 5.0406 5.0406 8.6168-12.627 21.942-21.66 21.943-21.66h5.1522l3.1057-3.7421 13.888-7.0324 4-2.2353 9.4148-4.0014 15.919-3.4295 2.7066-2.0325 10.627-.86027v4l-14.667 2.8148-7.5069 3.1852h-3.1442-3.1442l-7.5379 6.2611-6.8007 1.656-21.617 20.083-2.2487.0374-18 17.039v1.6466 1.6466l-14.667 17.927v3.9126l-8.2523 12.459-2.0568-1.2712.64476-3.3728.64475-3.3728-3.307-3.9847h-5.0068v.63444.63444l5.3234 8.7311.005 2.9841.005 2.9841-9.7435 14.467-6.2565 3.3484v2.216h2.4007l1.5903 6.629 1.5903 6.629 5.4976-.5913 11.687 22.667 3.6367 6.6667 2.6302 6 2.6301 6 4.4711 9.3333 2.7719 20 2.4272 4.6305v7.8788l-2.3296 1.4398-.63745 11.025-.63744 11.025-9.7879 18.492-6.6076 8.663-.0304 1.089-.0304 1.089-18.548 20.704-9.7529 15.246-10.305 12.221v2.8352l-1.899 1.576-1.899 1.576-8.2505 16.508-2.2507 4-38.903 78.667-.72549 2.6667-.72548 2.6667-10.189 14.667-5.9246 2.9624-6.5667 6.1691v6.0444l-2.6667 1.6481v6.5093h2.6667v2.7504l-3.9315 1.5086-4.2318-4.2318-.69356-4.347-.69357-4.347 4.2006-8 .008-1.8676.008-1.8676 7.364-7.1324 7.3644-7.1324h2.6713l2.3337-6 6.6558-9.709 3.5969-10.291.67378-.66667.67378-.66666 3.0886-6.5515 3.0887-6.5515 1.5109-12.757-6.3549-1.3042-18.972-1.4874-10.362-4.1297-14.667-7.0838-10.941-8.8014h-4.392l.005 3.6667.005 3.6667 2.6617 4.3656 2.6617 4.3656v3.6292l12.217 14.84 11.73 5.6785 19.386-1.2234 7.3333-1.9666-.008 1.1554-.008 1.1554-8.6498 4.9476-20.338 1.4109-9.6271-1.8061-13.114-13.322-4.6488-9.8971-4.7551-6.1252-1.673-8.5414-1.5203-3.0734-1.5203-3.0734 2.8816-7.6341-1.197-1.197-1.197-1.197-.16661-17.658-.16662-17.658 3.0415-3.0415v-3.2453-3.2453l1.5581-5.488 1.5581-5.488 1.1086-1.2667 1.1086-1.2667v-6.1837l8-14.992v-1.9727-1.9727l-7.2495-11.127-14.515-6.4061-28.117.64897-2.7845 2.1776-11.146 1.4145-9.1062 6.9456-2.415.012-14.054 10.655h-1.3063-1.3063l-.0133 1.6667-.0134 1.6667-16.809 20-1.747 4.6667h-2.7504v1.5408 1.5408l-6.6667 8.7404v1.7794 1.7794l-6.6667 9.8109v1.296 1.296l-1.882 3.7747-1.882 3.7747-6.7108 14.667-4.5371 14.667-3.5921 8-2.6641 12-.0652 34.824 3.5365 4.8365 5.6713-1.8 3.7234-7.1935 4.8292-8.1643 16.24-12.058 12.514-3.1107h15.176l10.467 3.1361 6.5087 7.7352v11.152 11.152l2.899 1.7917-2.899 2.899v23.899l3.3895 5.7838 3.3895 5.7838h2.4292l3.9704 8.6667.4107 3.2436.41071 3.2436 7.4499 1.9801 109.21.27891 3.2171-7.0397 3.2171-7.0397 3.3001-22.462 1.7928-3.4356 1.7928-3.4356.016-5.0186 5.1094-8.3148 1.8595-10.029 2.185-1.3504 2.951-15.287.63958-3 .63959-3h4.3163l-.89074 7.5788-.89075 7.5789-2.2008 2.8423-1.6244 6.6489-1.6244 6.6489-1.0594 1.3511-1.0594 1.3511-1.6515 11.333-1.6515 11.333-1.1131 2.6667-1.1131 2.6667-2.8212 22.424v2.443 2.443l142 .71391zm40.252-277.45-2 .25482-3.9102-1.568-12.756-13.097v-3.8222h23.587l4.4133 4.8766v3.1894l-6.4762 2.4622-.42857 3.7245-.42858 3.7245zm-36.398-122.81-1.6025 1.4243-5.3333-2.572-4.481-10.138-4.481-10.138-3.8587-7.3388 1.6447-2.6612 3.176.0734 6.6667 9.2332 3.894-.65607 1.7067-8.3448 5.2592-7.6392 2.2368-4.8682 2.2368-4.8682v-2.9303h5.3333l-.0904 4.6667-5.1524 10.667-.0452 2.7033-.0452 2.7033-3.6579 5.26-.90188 12-.90189 12zm85.26 400.58h56.705l11.661-12.667.0529-5.4968.0529-5.4969-5.9702-5.5031-5.9701-5.5032h-10.569l-.89585-1.4495-.89584-1.4495-2.899 2.899h-2.4301l.83155-4.4325.83154-4.4325-6.0806-3.2542-32.835 2.6591-12.031 7.4602-13.637 7.3333h-4.7829v-2.2398l-10.285-3.3943-5.9079 1.8751 1.8542 4.4258 1.5027 3.8221 1.5026 3.8221-12 11.022-6.2794 7.1359 1.7701 2.8641zm91.805 0h23.333v-2.2386l-7.3333-3.3316-11.183-7.0965-1.7209-7.4466.45171-6.2767.45172-6.2767-8.827-10.978-15.773-1.4302-9.0485-5.5923-9.0186-.0888-5.6024-4.6834-2.4902-10.53-7.3978-2.6017-2.582 3.9033.72336 3.9359.72335 3.9359 5.7572 6.1282 2.8685.0578 4 8.3828 14.062 4.2261 9.259 7.4375 5.3452 11.063v2.8616l-9.2822 10.638-.0512 6zm44.513-.0182 2.1535-.0182 6-1.6079v-3.689h3.5352l5.6205-6 2.7783-7.3334h8.1824l7.1897 6.6667h4.5004l5.244-6.6667h6.9496v-4.0837l3.7379-1.4344.89471-4.7692.89472-4.7692 3.8434-5.8658 7.2959-3.6166 9.3079-2.8727 1.015-7.0527 1.015-7.0527 2.6622-4.9743v-12.43l-5.5149-7.745h-2.3477l-6.8041-6.3058v-2.2693l-12.566-12.758h-7.2155l-4.2181-1.6186v-9.7304l-7.3333-3.0482-17.561-1.632-9.6404 9.3626-14.132.0402-9.4528 3.2946-7.12 4.6652h-1.6323l-7.7949 7.7949v12.205h-3.8184l-5.2992 7.442-1.8953 28.294.841 4.4829.84099 4.4829 5.9976 2.6368-.35163 3.3306-.35162 3.3306-.78277 6-.78278 6 6.8333 7.3605 6.1022 2.754 6.6667 3.8462 7.5794.0394 6.7802 5.3333zm-13.321-11.982h-4.5979l-8.5943-7.8497v-1.0857l2.7635-7.9275 10.133-4.4705h2.2914l7.4792 7.1656v9.7545l-4.8766 4.4133zm-.32039-5.3333h4.5453l1.455-3.7916-1.4829-2.7709-1.4829-2.7709h-8.9285l-1.5327 5.8612 2.8816 3.4721zm-.53844-62.709-1-.0424-4.6667-3.5425v-6.5297l-3.7573-5.1384 2.2701-4.2418 14.854-3.5635 2.9595-3.566h3.5796l2.7605 5.158v5.6229l-12.365 13.219h-3.6351v2.6667zm.96457-7.9576h2.2032l7.4569-7.7833-.89101-1.4417-.891-1.4417h-4.7663l-8.2906 4.1359 1.4878 3.2654 1.4878 3.2654zm105.11 88h74.412l5.1319-3.7525v-15.766l-4.6222-7.0544.0371-4.3802.0371-4.3802 7.9258-10.475v-6.0404l-5.9081-4.1382-9.4252-1.6758-6-5.4687-.0975-6.1009-.0974-6.1009-2.3057-3.9302-2.3057-3.9302-7.8604-4.7667-6.6667-2.7074-4.434-2.5428-14.233-1.5888-8.6667-1.3214v-3.3844l-10.919-5.8281h-7.5695l-9.8086 11.97.77321 2.0149.7732 2.0149 3.417.0688 5.0401 10.92.10149 7.0217.1015 7.0217-2.9936 3.6345-1.8384 12.351 2.8137 1.739 5.3289-3.3279 6.7796 6.3691v6.4568l5.5909 7.8517-8.9243 13.158-4.2534.0688-5.08-5.6171-10.131-5.1704-1.0928-2.9396-1.0928-2.9396.6298-1.6554.6298-1.6554-4.4124-1.6932-6.531 6.1355v5.2928l-10.753 14.242h-4.6543l-2.2833 2.6667-2.2833 2.6666h-11.7l-3.3197-4h-5.5016l-3.0859 2.8991-3.0859 2.8991v4.8685zm32.255-27.558-4.6667.77996-7.5239-4.0738.82746-11.148-5.9702-2.6324v-10.834l-2.9351-2.9351 1.6303-5.1325 1.6303-5.1325 1.9481-3.9729 11.599-1.9802 6.0024 3.9329.76299 4.3434.76299 4.3434.44781 9.8436.44781 9.8436 4.3697 2.4454v7.4542l-4.6667 4.0755zm-1.6778-6.0284 4.9889-.41382.44218-2.3333.44219-2.3333h-7.6622l-3.2 3.2v2.2943zm-3.7371-16.673 2.7482-.71868.24386-3.5112.24385-3.5112-.58312-7.9621-2.285-2.285-5.3007 2.8369 1.2247 12.744.95992 3.1263zm95.538 49.701 22.415-.38865.54673-1.6402.54673-1.6402-15.084-14.61-19.966.58298-12.581-13.991-12.962-2.396-2.677 1.6545 1.2432 12.939 7.0238 10.048 9.081 9.8305zm-746.01-1.5737 4.1763-.28913 2.68-2.68-1.7917-2.899h-4.6426l-3.2-3.2v1.5832l-11.035-2.4794-6.9067-5.4328-4.7074-7.1376-.018-20.557-4.6667-9.1908-18.728-2.8126-9.9739 3.4289-3.7219 3.5658-3.7215 3.5658h-4.385l-7.4113-9.7167-3.3509-9.6166-.02007-3.6667-.02008-3.6667h-2.6667v-18.222l1.929-1.929 4.8785-19.182 4.0133-15.769 3.846-5.4909v-2.0564-2.0564l5.3333-9.9508v-1.7082-1.7082l4.6523-6.5934 6.2649-14.667.71776-3.1095.71776-3.1095 1.8236-.6998 1.8236-.69979v-3.2492l17.333-20.233v-1.989l12.667-12.323 20.648-15.258 12.019-3.2145v-3.2835l-12.667-1.8331-1.372-1.0839-1.372-1.0839-43.923-2.8024-16.605-1.6642-6.7279-6.2352v-5.2426l-1.6186-4.2181h-19.998l-10.384-8.2241v-5.0352-5.0352l-6.3997-9.4305-.8342-2.6283-.83419-2.6283-5.2653-4.765v-5.5426-5.5426l7.3333-5.2229 14.667-7.0455 9.3333-3.9695 9.0646-2.9302h7.4447l.82405-1.3333.82405-1.3333h4.0324 4.0324l-.5433-1.6299-.54329-1.6299-6.469-1.8077-33.636-.26581-14.364-2.6959-3.2759-4.402 1.6695-6.6519-12.138 1.6638-3.2483-3.914h-3.3305l-11.372-10.092.89486-2.8195.89486-2.8194 6.8162-6.8162 11.09-5.2745 14.667-1.5364 9.3333-1.6467 4-3.2051 14.203-3.1238h5.8196 5.8196l1.7281-2.7962 4.1719 3.4628h32.257l5.3333-2.4372 11.815-4.3409.96744-2.9023-7.7913-1.1435-20.675 1.9749-2.849 2.849h-4.5697-4.5697l-16.327-7.6476-6.6667-3.0747-13.333-7.2777-1.2597-4.2764-1.2597-4.2764-15.87-.78043-2.9439-5.3333-.21414-.65858-20.484 2.5971-9.9684 5.2881-9.0764 4.1067-21.59.024-6.7082-8.1591-18.17-.88015-8.8213-8.5499-.67456 1.1159-.67456 1.1159-.47574 216-.47574 216 203.76.65126.83939.83939zm337.93-13.42 7.2926-7.5293v-11.12l-6-5.4015-3.091-1.7377-6.959 13.965-1.6012 13.624 1.5331 2.8646 1.5331 2.8646zm-339.79-.5 1.588.0522.67252-1.0882.67253-1.0882-1.8686-5.2452-1.8686-5.2452-.0585-22.247-.0585-22.247-2.4012-6.3155-10.898-4.9144-18.537 1.5541-7.4973 4.8345-4.578 5.3344-.0888 3.79 4.4133 4.8766h3.4554l13.465 2.8876v3.779h2.0917l4.2784 7.3333 1.8816 21.708 5.1341 8.4424 8.6141 3.7448zm771.83.0522h1.7539l.49062-92.333.49062-92.333.40464-230.67-13.515-10.667-4.2984-4.6667h-2.2736-2.2736l-5.5269 7.0263v3.3551l-3.6049 1.3833-2.8388 5.7378-2.8389 5.7378 6.2901 6.7596 1.4962 2.9123 1.4962 2.9124v8.4303l-5.2644 7.3931-10.666 1.7056-9.4029 8.2559v3.1707l-18.694 22.553-1.9866 2.1118-1.9866 2.1118v1.8902l-10.667 14.439v2.5411l-10.667 13.494v2.2765l-14 19.027-12.667 17.291v1.39l-5.5613 6.0941-17.772 22.822-3.2191 5.1778-7.4476 12 .0545 10.667.0545 10.667 1.9802 4 1.9802 4 16.213-.01 6.3846-3.1156 7.3333-1.5916v-6.6161h-2.5445l-9.4947-12.435 1.7318-9.5651 6.9741-10.469 8-4.8355 2.6667-1.2479 9.3333-2.2684.4323-4.4507.43229-4.4507 3.5986-3.5986 6.2035-.1624 20.918-1.4035 8.4154 3.1552 6.6667 3.0488 9.9018 6.9877 14.098 7.1159 10 13.193v3.692l-5.1095 6.4957 13.644 15.555-7.8682 6.3303-9.3333 2.6302-8.5093.014-.82404 1.3333-.8241 1.3343h-4.6751l-11.457-5.5353-14.425 6.2019 1.7094 14.667 2.4581 3.0851 9.8795-2.6957 2.6667-1.9923 15.778-3.0638h14.096l7.4588 3.1823 4.6667 3.8977v5.8437l-4.2052 8.4296 5.5386 8.9616v6.6053l5.3333 4.8266v3.2602l4 3.3197v5.9304l-2.1466 4.303-2.1466 4.303-4.3735 1.5425-4.2044 3.5896-20.754 1.7544-4.5893 7.5465-10.552 7.6436-9.2335 2.8974-28-3.1702-.40601-4.8689-.406-4.8689 4.1276-9.8788-.84028-1.3596-.84027-1.3596-16.968 1.362-6.5917 4.3191-13.232 2.8378-6.8436 8.9724.024 1.089.024 1.089 9.9519 8.2439 16 1.6156 14.231 7.0214 13.102 12.629v13.373l6 2.8236 10.894 2.9357 1.553 3.4084 1.5529 3.4083v13.208h2.9229l14.185 4.1238 10.225 10.541 12.168.002 13.297 6.4145 1.7645 2.1261 1.7645 2.1261zm-146.49-10.797 1.588.13073 1.5509-2.5094-4.6893-10.824h-4.0533l-3.6089 8.1531.7887.7887.7887.78871 6.0472 3.3413zm-251.33-9.2322.92379.0296 10.152-5.8433 7.6553-6.2555 9.3371-3.9013h16.152l8.856-3.2024v-11.125l5.318-12.022 6.8604-4.4951 3.6614 3.0387.41338 2.9032.41338 2.9032 16.667.79391v5.2061h-4.74l-5.9267 4.1512v6.5154h9.8247l11.334 5.4866 12.568-.81992 2.0321-4 3.2796-22.667 2.4807-3.5392 2.4807-3.5392v-2.7892l4.2412-2.3735-.45396-3.1598-.45396-3.1598-11.026-3.1812-5.6406-3.0187v-9.046l3.5132-2.7634 3.5131-2.7634h5.3255l8.9815 9.5232v3.8101h2.2534l4.0584-4.6667.8178-13.143.81781-13.143 4.0527-8.1238v-3.177l-5.1822-4.6898-.83563-3.8046-.83563-3.8046-2.4936-5.161-2.4935-5.161-1.7464-1.3789-1.7464-1.3789-7.3333-1.7518v-12.204l-5.7936-8.4117-6.8731-5.9041-3.1109-.096-2.6362 3.6189-2.6362 3.6189-12.95.5484-11.593.0774-6.0791 3.9832-1.8686 7.4865-2.1432 2.378-2.1432 2.378-11.511-1.7261-6.0343 3.9538-8.6276 1.8949v2.641l-8.1281 11.814h-7.3402l-7.1775 3.3333-.0262 1.3333-.0262 1.3333-11.302 12.061-1.5242 2.7231-1.5242 2.7231 1.4041 2.5796 1.4041 2.5796 6.24 7.5379v10.671l10 9.9034 4.9346 7.536 10.19-1.3668 6.9341-4.9484.80939-3.6944.80938-3.6944 2.3222-1.4352v-5.1075l3.9338-2.0342 3.9338-2.0341h4.5891l4.8766 4.4133.0937 4.1267.0937 4.1267 1.0096 2.5782 1.0096 2.5782 1.0115-1.6366 1.0115-1.6366-1.5629-1.8832-1.5629-1.8832 1.6122-2.6086 14.361-4.1749 10.256.0586 11.076 5.029.88857 2.7996.88857 2.7996-3.093 3.9002-3.0931 3.9002-7.7313 2.8461h-15.009l-5.9267-4.1512v7.9559l-8.4097 4.1953h-6.1642l-9.2139-8.0899-8.8789 5.4132-12.133.01-2.5333 2.2171-12 3.4218-4.8585 3.8472-4.8585 3.8471h-5.4589l-.86015-1.3917-.86014-1.3917 3.2876-3.9614-6.1896-6.5885h-4.7111l-1.3217 2.1386-13.502 3.6768v6.662l-3.0751 8.5041 8.2499 10.352.41262 5.2343.41262 5.2343 8 4.6699 13.333.2542 6.6667 5.2147zm44.065-105.58-2.3219 1.141-4-1.0019-5.2026-7.0773-.546-7.5485-.54601-7.5485 6.2213-4.3576h5.8687l8.2046 6.9037v7.2621l-5.3561 11.086zm-2.3638-13.059h2.0418l-.0204-1.6667-.0204-1.6667-2.5148-3.9777-3.1318 3.1318.80186 2.0896.80182 2.0896zm-146.59 102.67h1.9658l-.004-4.3333-.004-4.3333-2.9194-23.804.91073-8.5043.91074-8.5043 2.9087.96957 1.4317 4.6162 1.4317 4.6162 10.667 13.792 5.08.1518-4.4133-4.8766v-5.3928l-3.386-6.3682-3.386-6.3682.88842-.88842 5.8836 1.5386v2.2549l10 14.835 5.3333-1.6507 7.4847-1.4089 3.5314-5.6751.85069-3.6667.85117-3.6666h-2.7175v5.0068l-3.3333 2.5063-14.667-.1798-.43568-3.0734-.43569-3.0734 3.1765-3.8274 5.6949 1.4183v-41.305l-1.6667-1.6693-1.6667-1.6693-3.2 3.2h-27.467v5.176l-2.3164 1.4316-1.6587 10.059-4.6032 8-.0433 23.601-.0433 23.601 1.6658 1.6658 1.6658 1.6658v6.2658l4.0685 7.8676zm-322.03-12h1.7778l-1.7778-1.7778-1.7778 1.7778zm431.84-25.937 5.9784-1.5251.50636-1.5191.50636-1.5191-10.94-10.94-1.2801-3.3669-1.2801-3.3669-.0742-5.8264-7.9258-10.475v-9.8651l4-3.3197v-2.6367l11.333-13.58 5.6391-6.1235h4.3609v-2.6667h8.066l2.3933-6 6.9539-7.3031 11.253-5.1123 12.762-1.9017 3.9615-7.6608 12.61-6.4042 2.8999-30.285 6.2849-13.333.87077-.66667.87077-.66666 1.6421-16.118-1.7519-3.3768-1.7519-3.3768-1.7312-11.129-1.7312-11.129-3.5857-6.8712-.016-6.2637-1.8273-4.2015-1.8273-4.2015-3.567-12-2.2532-1.5781-2.5468-17.984 2.668-16.438.0202-2h-3.5867l-4.6753-5.1661 3.0651-9.2872 3.8636-3.2065v-4.1302l3.746-4.21 8.4529-16 5.8011-9.5875 7.3333-9.5679.018-3.5113 13.219-17.333.097-9.8059 9.6961-7.9923-1.5575-4.0589-16.805-8.3143-2.5352-2.4972 11.345-10.901-1.0171-3.0966-10.46-1.3333-6.4956-4.5982.42034-20.608-4.2928-4.7434 3.3612-4.05-4.9932-.0594-6.3976-4.9188.92897-5.8095.92897-5.8095 4.2253-4.6689-17.686 1.6515v-6.1756l1.8797-2.105 1.8797-2.105.90734-5.1088-8.3574-2.2207-4.3508-6.6402 3.1227-6.0304 1.8265-4 19.759-10.213 5.5052-5.1203h1.7207 1.7207l11.854-8h1.6783 1.6783l5.1763-3.9152 1.6812-.04241 1.6812-.0424 11.304-5.1917 16-5.1923 14.131-2.9494h25.612l9.6454 10.448 3.3238 12.427-3.3789 6.0941-7.8515 11.278 8.5181 15.747v9.1957l-10.949 20.81-1.0174 4.1803-1.0174 4.1803 2.1452 13.57 9.505 8.3455v5.2622l7.7949 7.7949h2.3309 2.3309l4.8766 4.4133v8.696l10.384 8.2241h1.0068 1.0068l9.6027 9.8698 1.5419 2.7317 1.5419 2.7317 5.3134 10.667 4.0333 13.333 1.6649 16 13.624 13.808 6.947-4.2722 15.333-14.786v-3.1315l3.9847-1.5291 5.218-8.5804.87313-7.4213.87314-7.4212 3.7791-6h3.2239 3.2239l1.8591-3.008 14.965 1.4896 16.667-22.651v-2.2072l-10.721-4.2896h-1.85-1.85l-13.579-7.0453v-9.478l7.0802-10.217 10.778-7.9266h7.258 7.258l11.625 5.806v2.194h4.1509l6.1241-13.876-.62634-2.3951-.62633-2.3951-3.0223-.0852-24.667-23.459v-4.9126-4.9126l1.6667-2.9819 1.6667-2.9819 5.1962-6.0688 7.8802-3.9312h3.7359 3.7359l9.6107 6.522 3.8411-1.474v-3.3983l8.2913-8.1062 13.01-1.7894 12.368 6.9125h1.1654 1.1654v-71.563l-415.58.21466.61599 2.3556.616 2.3556 5.6814 1.2003 5.3333.79881 2.4703 9.9717h1.0982 1.0982v2.7946l7.3333 6.4545 1.4267.04213 1.4267.04214 10.987 9.4042 4.16 8.3388v12.529l-6.5986 9.061-2.6687 6h-1.5468-1.5468l-6.3058 6.8041v13.022l-2.7867 7.5069-3.2133 2.6667-2.6667 5.1946-2.6667 5.1946-6.6667 4.8238-6.701 1.5841-11.056-9.4637h-4.9685-4.9685l-5.9575 6-7.595 5.8326.33211 4.3586.33212 4.3586 3.9157 4.3269v4.4567h4.46 4.46l4.0957 4.6667 4.2377 8.6667 4.2377 8.6667 10.244 10.667 15.721 24 3.7832 9.5817 3.7832 9.5817-.92553 13.085-.92554 13.085 2.9281 23.528 2.164 4.4716 4.5625 8 5.0419 10.667 6.7991 5.0402v4.9598h-1.0089-1.0089l-13.316 11.887.47936 22.497.47935 22.497-3.4794 7.3548-3.4794 7.3548v7.876l-2.7857 2.7857-2.5107 24.267-2.9118 5.0735-2.9118 5.0735-2.7733 4.956-2.7734 4.956-10.3 14.719 1.5251 12.931 1.5251 12.931 2.9783 3.5886.27182 19.502-2.996 3.7486-3.2014 22.352-2.2518 4.3144-4.5814 29.333-2.3027 2.5333v9.8225l6.7303 1.2866.71353-1.1545.71354-1.1545h8.8494l1.7836 2.1492 1.7836 2.1492 2.6448.97838 2.6448.97839zm46.29-3.3966h1.951l1.5025-3.9154-2.3076-6.0423-2.3076-6.0423h-3.1044l-3.2 3.2v5.055l2.7575 3.8725 2.7574 3.8725zm26.593-6.6667h5.6145l1.6114-1.9416 1.6114-1.9416-.86015-1.3917-.86014-1.3917h-14.509v4.8889l1.7778 1.7778zm155.93-1.3333h1.694l6.9832-9.1554-.0848-3.5113-3.9152-5.1764v6.3378l-5.7982 6.1719-6.8685.0888 6.2954 5.2446zm-113.32-1.9208 1.3333-.28808.41502-2.8113.41503-2.8113-6.8095-4.4617-4.0206 1.5428v5.2715l7.3333 3.8461zm-364.67-7.0874 3.3333-.57537 8.4881-3.7902 8.1822-8.6747 5.277-9.2849 3.3938-6.6667 3.3938-6.6667 6.5522-9.3333 2.7128-3.2208v-2.2611l6.6667-9.0362v-3.8528l14.048-16.296 3.7363-7.3333h3.5494v-3.4441l15.905-17.223 1.6117-5.3333 3.5215-8 4.6241-10.667.63568-11.333.63568-11.333-1.376-8.6667-1.376-8.6667-4.0535-16-9.697-20-1.8821-3.7747-1.8821-3.7747v-4.9598l-2.6667-1.6481v5.2873l2.9608 14.203 1.2906 2.774 1.2906 2.774-1.2017 22.452-3.0995 14.667-1.1474 2.6667-1.1474 2.6667-7.0398 16-3.6198 7.3332-3.6199 7.3332-11.425 6.2504-3.6174-1.3881-.65916-10.431-.65916-10.431-3.2832-18.653 1.6226-9.0793 1.6226-9.0793 3.0652-2.6355 14.552-9.2029 1.0044-1.7947 1.0044-1.7947-5.2438-9.0935-1.1792-2.6667-1.1792-2.6667-4.5141-10.929-.12095-9.5223-.12096-9.5223 2.9086-6.0262 3.0868-13.298 2.8231-3.4017 3.4088 2.829 1.6797-2.7178-4.4208-8.5489.81349-6.9216.8135-6.9216 14.682-29.02.0508-4 3.9758-7.213 3.9758-7.213v-2.7357l10.596-12.567 5.6671-9.6051h1.2346 1.2346l2.4197-6 17.307-19.795 5.0659-2.8712 9.8165-11-3.6549-3.0333-3.347 4.0329h-1.8367-1.8367v3.689l-5.5312 1.4464-1.382 5.2847-5.0733 1.3267-.94169 2.454-.9417 2.454-10.119 13.345-.006 1.1381-.006 1.1382-20 24.866-.00168 2.1908-11.998 15.284v2.8l-4 1.5349v4.5147l-3.2696 3.2696-3.2592 15.264-.93823 13.667-.93822 13.667h-4.6353-4.6353l.60571-14.701.60571-14.701 1.5656-1.5656 1.5656-1.5656v-4.9471l8.4438-15.729 8.8548-10.124.77389-2.3333.7739-2.3333h2.553l2.6468-6.9617 8.5921-12.372 10.658-13.333.68499-.66667.685-.66667 6-8.5587v-2.7086l27.628-28.066h-3.0683-3.0683l-1.6481-2.6667h-5.431l-7.8528-5.5916-4.9605-11.075-3.1596-24.619.40601-19.848.406-19.848-8.5841-9.7768v-4.182-4.182l2.1306-2.3543 2.1306-2.3543-.87598-1.4174-.87597-1.4174h-2.4247-2.4247l-3.1816-3.8335 1.8729-12.489 5.935-5.1604 9.0393-4.5166.82418-4.4286-61.552-.09536 1.5599 2.524h2.4165 2.4165l11.479 10.187-1.6171 4.2141-10.186 1.6039-13.333-1.2015-7.183 7.8634-8.817.06561-4.77 9.5781 4.0046 6.1118-3.2346 2.6418-22.998 1.8903-1.8258-2.9542-15.176-.02886-12-3.7591-14.084-6.9255-2.4886-6.5455-7.4276-1.7504-8.6667-5.2083v-6.2121l8.2046-6.9037h1.9446 1.9446l6.6532-4.3593-5.5282-3.8721-3.648 3.0276-1.6129-2.6097-6.0706.64724-2.5539 1.436-20.648-.47276-1.7969-1.7969h-119.87-119.87l-5.158 2.7605v10.541 10.541l2.6121 1.6143-3.2535 5.2097 3.3081 5.2972v7.4391 7.4391l-2.9137 5.4443 2.8503 2.8503-3.0235 3.6431 3.087 3.087v5.976l-2.7962 1.7281 2.9509 3.5556-1.0103 10.84-1.8111 1.8111v43.032 43.032l2.07 1.2793 15.93-3.9969 6-1.4359v-4.5236l7.3333-6.8276 8-3.691.80879-6.9509 7.985-7.6501 19.206.48226 16 .59976 11.062-5.9223 30.272-.97377 32.34 2.2084 4.9929 2.6752 28 4.2264 11.176-.008.7089 1.147.70889 1.147 23.1 1.8743 12.973 5.6647v1.0048 1.0048l-2.6667 1.6481v2.5093l8.6667.0848 5.1358 3.8856 12.818 1.7003 2.7038 3.2578-5.3239 4.8181v1.5318 1.5318l8.6667 8.3596 7.3333 2.7642v4.066h1.6032 1.6032l8.7936 8.5231v2.3896l5.3333 6.7802v4.9737h2.6667v4.4051 4.4051l-8.6667 8.0428-7.751 4.8154-45.582 2.549-1.2667 1.2246-1.2667 1.224h-5.976l-1.7281-2.7962-1.6948 1.4066-1.6948 1.4065 1.1293 5.9831-5.2444 2.6667-10.258 4.9258-13.832 6.4076h-4.9679l-1.4985 1.4985-1.4985 1.4985-15.337 3.0724-.544 1.632-.54401 1.632h2.0016 2.0016l13.45 6.7555 1.5932 2.5778h2.4003 2.4003l12.118 10.667h1.8621 1.8621l3.2-3.2 3.2 3.2h2.4181 2.4181l4.6305 2.472 4.6667 1.4443v7.6943l-6.1796 6.6679-10.481 1.9662-.8119 1.3137-.81191 1.3137-21.369.40914-3.6805-3.0317-12.667-1.8857-11.825 1.7732.49126 10.819-6.8235 5.1837-15.843 1.5546-2.6667 1.9376-7.808 1.871-17.525 8.1068-7.3333 6.8889v6.5598l9.5119 11.608h6.4881v2.3459 2.3459l-5.3333 3.3307v2.5798 2.5798l5.9267 4.1512h23.08l3.5265 4.2492-.0604 9.7508 2.6984 1.8027 22.829 1.6976 5.3333 2.3019 38.667 3.1577 2.6667 2.1239 13.333 1.872 5.9062 3.7109h18.271l15.703 2.9028 6.48 5.0972h3.6404v4.0837l4 1.535v3.7147h3.0093l-.61758 10.333-.61758 10.333-7.2728 16-2.398 4.465-3.2003 18.202-2.2364 2.5333v15.503l2.3199 4.6305 5.5299 12.429 6.1502 4.3356 9.3333 6.5118 6.6667 2.9821 8 3.5586 6.6667 1.9472 16 1.8032zm-119.33-412.83-10.667.81025-1.3728-1.4537-23.961-2.9973-6.6667-3.0582-7.2817-6.5767-21.619-.76418-7.9416-3.4531 1.422-7.2299-1.2897-.79705-1.2897-.79706v-2.2459l10-6.0878 9.3333-4.7325 21.333-3.0914 10.797.30107 10.434-5.3194h22.358l7.0783-5.0018 8.9126-1.9308 11.506 1.7254 17.708 16.226 12.54.61048 12.597 8.5125 1.5604 2.5248 9.8426.018 8 5.2982 4.2534.018 4.6536 5.1422-1.6005 5.0428-8.3333 6.1611-38.871-.3776-1.3176-1.3176-1.3176-1.3176h-8.4877-8.4877l-5.2871-2.8296-9.297 8.1629-8.5739.016zm.69909-3.4929h11.81l1.6481-2.6667h4.677l7.6645-8h4.677l.82405 1.3333.82404 1.3333h21.019l1.6481 2.6667h5.176v-3.5867l-4.7149-4.2669-22.618-6.9767-18.412-8.503-12.131-8.5847-12.124-1.7562-4.953-2.5729-1.4568 1.4569-1.4569 1.4568h-3.8816l-8.7404 6.6667h-3.3013l-4.8766-4.4133-4.9465 4.4765-18.516.92364-8.5376 4.415v4.7315l-1.5104 1.5104-1.5104 1.5104 1.6037 4.1792h24.468l8.2826 9.4684 26.667 2.8196.44445 1.1894.44444 1.1894zm77.368-5.5119 7.4008.17861 7.1775-3.3333.0104-2.0422.0104-2.0422-12.667-3.4256-4.6305-2.4899h-2.7671l-13.568-9.3333h-10.041l-3.3197-4h-3.6735v-4h-3.4588l-10.416-10.667h-14.582l-4.8766 4.4133v3.4051l8.6618 6.1816 14.672 7.3233 4.6667.01v2.4457l12.759 2.7364 11.907 5.222 9.3333 9.2386zm-30.245-54.773-2.4888-.28501-30.667-.77492-5.3333-2.4446-17.058-1.5438-8.0181-4h-15.433l-1.5904-2.5733 6.7305-10.093 9.2739-6.2785 16.126-.1519 2.9625-3.5696h17.981l7.0263 5.5269v3.5721l11.333 1.8692 1.3333 1.0318 1.3333 1.0318 11.519 1.9006 1.485 3.8699-5.4571 5.8643 1.4306 7.3333zm-24.706-6.3817h18.292l2.2963-2.6819 2.2963-2.6819v-2.3196l-11.848-2.9832h-4.9869l-7.8322-8.2684-6.1806-2.4009-10.486 1.6768v3.6592h-6.5412l-6.2165-2.8324-14.542 4.8324-2.5303 7.2813.78507.78507.78506.78507 5.229-3.2655 11.873 5.7474h9.6674l1.6481 2.6667zm594.36 480h4.524l5.1816-5.1816.4092-2.3609.40921-2.3609-4.933-1.0102-8.4259 1.5807-1.6323 2.6137-1.6323 2.6137 1.5754 4.1054zm76.557 0h16.033l2.3041-6.0603 8.8028-8.6063 18.827-.0402 9.6902-3.3762 4.3098-3.5768v-8.9991l-9.3333-10.331v-5.0496l-5.6324-10.509 1.4828-2.3744 1.4829-2.3744v-6.6067l-9.9524-6.7628h-2.9158-2.9158l-7.5494 3.6739-9.3333 4.111-17.303 1.3533-2.9805 3.465-2.9805 3.465-6.5716-1.6494-7.9554 4.6994-1.3347 2.7742-1.3347 2.7742-1.3518 15.382-5.4517 8.8211 3.1307 3.1307h11.341l6.8561 3.1238.78902 3.1437.78903 3.1437-6.9753 10.065v3.19zm-5.3329-38.667h-2.5427l-1.422-2.3009-12.069-3.379v-4.9868h4.1779l8.4887-6.3139 9.8065-1.4871 5.3424 1.3971 1.3751 3.5834-1.4819 9.1321-9.1325 4.355zm1.7117-6.6667h3.0785l2.5378-1.8557 2.5378-1.8557-3.5592-4.2886h-2.7968l-4.8766 4.4133v3.5867zm-186.08 42.667h1.0005l17.332-3.7224 5.3333-2.0609 8.7594-7.5501h12.707l3.2-3.2v-13.794l-11.94-11.006h-3.4658l-17.26 17.457-9.6646 5.0924-7.0021 8.3215v10.462zm89.008-.10527 1.342.10527 3.316-10.625v-2.529l-5.5836-1.7722-7.7497 7.4247v4.6122l7.3333 2.6784zm-12.249-12.654 6.6575-7.4696 12.249 1.3717 8.8722 1.857-1.5897 6.3338h1.5166l8.3641-4.3252 16.17 1.6742 15.465 1.6588 6.2637-5.8844.86767-5.786.86766-5.786 3.8693-3.2112v-9.1821l-2.6013-4.8606 5.9347-8.7321 10.117-5.2208 7.7816-7.7816.86385-4.6048.86386-4.6048-.76826-2.002-.76826-2.002-25.37.20347-7.7982-5.5528h-13.415l-7.5069 2.9822-27.091-.45333-1.5431 2.4968-12.026 1.8034-1.3368 2.4978-1.3368 2.4978v9.3513l-2.1273 1.3148-3.3412-2.065-13.865 3.5943-.84428 2.5128-5.3493 6.8005h-2.1989l-8.2742 7.2605v6.0728h2.9062l3.8803 3.6623 3.8802 3.6623v20.675h5.2149l9.8876 6.7099zm15.042-32.754-5.5379-.28666-3.8388-1.2796-4.6705-5.5864-.0444-1.7942-.0444-1.7942 5.5149-7.745h17.952l3.2 3.2v7.2621l-3.4964 4.1553-3.4964 4.1553zm.11374-5.1526h4.503l2.2676-6-.58881-1-.5888-1h-12.954l-1.2076 3.3333 4.0653 4.6667zm-84.914 22.667h1.4019l9.2623-8.4285v-3.255l-9.9747-7.6498-6.3301-3.3333h-2.3618v13.007l4.2778 3.5503 2.3229 6.1096zm-254.67-8h2.6667v-5.3333h-5.3333v5.3333zm271.33-8.5471 1.3333-.34052.87538-4.5142-8.1028-7.5692-17.528-9.029-11.244-5.8426-4.5093-.1574-1.6628 2.6905.80837 2.5469.80836 2.5469 10.477 1.7701 6.4991 5.1122h1.4457l12.42 8.6667 7.0471 4.4601zm44.986-27.693 2.9864-.42607.50101-2.6256.501-2.6256 8.3586-7.3899 5.3333-1.597 7.3333-3.0796-.0294-8.0157-1.6529-10h-3.2225l-15.095 20.966v1.9841l-8 10.101v3.1351zm97.014-18.889 11.333-.44962 8-4.0674 12-5.6946 2.255.008 8.259 5.8809 19.457-.37218 2.6958-1.6661v-5.0476l-9.3333-9.0644v-4.9638l7.3333-5.9161-9.8883-9.4063-11.154-5.6904-2.9575-2.4583-10.243-6.7134-11.83-1.6215-.70895-1.1471-.70895-1.1477h-7.6852l-.82404 1.3333-.82405 1.3333h-8.6426l-3.0089 3.0089 2.8964 4.6379-.75695 1.9726-.75696 1.9726-18.085 1.6888-9.4888 7.6556-.42179 4.9989-.4218 4.9989 4.302 9.0659h8.9229l.67199 1.7512.67199 1.7512-.68624 3.5898-.68623 3.5898 3.5546 4.283 2.713 1.1778 2.713 1.1778zm-187.61-16.876 1.6062-.005.13471-27.378.13471-27.378 1.458-2.9502 1.458-2.9502 2.9469-23.581 2.4119-4.4186 2.9788-16 .65635-5.3333.65634-5.3333 1.6342-4 3.3242-16 2.8933-12 1.5252-9.3333 1.1341-2.6667 1.1341-2.6667 1.5191-5.3333 1.5191-5.3333 1.1082-2.6667 1.1082-2.6667 10.931-22.766v-1.8214l7.0453-15.412 6.288-8.2517v-4.0017l5.3333-4.8266v-2.3614l6-8.5587 10-12.37v-4.1169l-6-1.8724-2.0675-2.9739-9.1662 10.667-3.4176 6.6667-7.3487 10.4v3.2734l-3.7544 3.1158-4.3689 8.544-3.2717 5.8764-3.2717 5.8764v2.1682l-3.3333 7.2874-3.3333 7.2874v2.2104l-2.5107 4.6845-2.5107 4.6845-1.5806 7.9624-1.5806 7.9624-3.6246 8-3.1355 18.013-2.3906 1.4775v5.4312l-3.7512 7.0781-1.6178 8-1.6178 8-3.3726 8-.93821 11.333-.93822 11.333-2.9189 3.5281-.0892 24.236-.0892 24.236 1.0661 10.667 1.0661 10.667.66097 4.3333.66098 4.3333zm101.35-2.6616h.69616l17.563-21.057v-2.0522l2.008-2.1118 2.008-2.1118 17.317-21.869v-1.5829l17.403-21.882 3.9307-4.2237v-1.9562l12-14.731v-2.2581l16-21.234v-1.711l10.667-14.439v-1.8373l11.333-12.354 4.3518-5.2947 4.3518-5.2947 1.5325-5.7887-6.0709-8.2113h-1.0533-1.0533l-23.576 23.333-5.8164 7.693v19.376l-12 15.964v1.7791l-16.209 19.188-10.457 12.495v1.723l-9.3333 11.39-.028 2.392-11.972 15.948v2.0227l-12 15.779v3.0012l-1.9492.748-1.9492.74799-.87067 2.8768-.87067 2.8768-4.8292 5.3333-.91005 3.6667-.91008 3.6667zm-78.074-18.693 2.3333-.0264 8.6667-18.451v-4.0051l1.3333-.82406 1.3333-.82405v-10.867l1.5634-5.488 1.5634-5.488 3.3856-4.0394 1.2563-5.3136 1.2563-5.3136.96354-2.3333.96354-2.3333h-2.9162l-4.1791 8.6667-7.6398 13.333-.21682 14.889-3.0838 15.355-3.5829 1.3749v3.3551l-5.3333 6.7802v1.5794zm22.645-23.974h1.6879l5.3333-5.3333h9.417l1.6829-4.3856-4.4333-3.2417v-2.754l4-1.535v-5.417h9.0077l9.2484 3.8642 6.4106 6.7564 4.417.046-1.4786-6-4.2718-4-10.496-3.6853-11.453-.31472-4.4098-6.2962.90432-10.844.90431-10.844 1.275-1.275 1.275-1.275v-5.2773l1.6012-4.428 1.6012-4.428h1.8888l3.2525-18.2-3.4237-6.4668-11.587-13.621.0122-13.856.0122-13.856 6.5589-13.333.0417-1.4833.0417-1.4833 8-10.067v-10.48l-6 1.8247-5.7462 7.0203 1.0819 1.7506-6.4226 12.917-2.9132 9.0646.1162 22.935 2.2246 11.509 8.326 11.594v33.031l-2.2887 2.5333-3.4438 17.333-1.0843 1.4103-1.0843 1.4103-.3828 13.923-.38281 13.923-5.8196.82849-2.9409-5.4952h-2.3164l.36782 16zm85.688-25.333 4-4.282v-2.091l32-34.141v-3.1594l3.9152-3.2493 6.7904-12.149-1.6302-1.5945-14.344 16-.0324 1.7085-.0324 1.7085-4 1.5349v3.3882l-2.2102 1.8299-2.2102 1.8299-22.246 25.83v3.8845l-4 1.5349v5.699zm-82.631-20.053.86567-3.2799.88553-6.6667.88554-6.6667-3.9061 7.446-.84868 4.5238-.84867 4.5238 2.101 3.3995zm80.478 2.7201h.51409l17.685-20.667 5.287-5.4271v-2.3629l4.4703-4.9397-2.4703-2.3039-5.6219-1.6928-14.525 16.726-2.9266 4.2058-2.9267 4.2058v12.255zm-418.23-22.391.64162-1.7239-.82226-3.2761-.82225-3.2761h-2.3662l1.3208 6 1.4067 4zm340.38-1.0701 1.3273-1.3273 1.6113-19.879-1.5235-3.3333-1.5235-3.3333-1.6615-2.8578-1.6615-2.8578-3.3898-4.0845-.73704-6.913-2.4357-.43059-.41412 2.1503-.41411 2.1503 6.6826 14.176 1.3961 8.6667 1.3961 8.6667.0101 5.2667.0101 5.2667zm80.872-5.206 4.7547-5.3333 6.6083-8.5514-1.8433-2.9824-6.3853 5.9987v3.3129l-1 .44445-1 .44444-6 8.5587.0555 1.7207.0555 1.7206zm-690.28-2h1.2546l1.4258-2.3069 16.732-3.277 3.5661-2.9357 18.022-.147 4.7048 3.9031 23.819-.25777 4.7647-4.312h3.9234l3.2-3.2v-1.9158l-4.4907-2.7754-4.4907-2.7754h-12.667l-9.4109-8.2629-10.979-4.7061-3.6221-4.3643-4.3402-.016-6.6667-3.4033-12-3.7272-3.4816-2.6359-21.135-1.2235-3.3116 2.1698-3.3116 2.1694h-7.7342l-6.7802 5.3333h-7.7563l-15.431 2.8526-10.071 5.2493-4.9646 5.4858 6.2723 5.079h3.2913l4.5771 5.0576 10.118-1.3572 5.7178 3.06v8.9504l6.5425 1.6421 33.457.33284v2.3142zm685.58-4.0903 2.498-1.3369v-3.9062l3.3333-.0656 2.3433-4.7081 2.3434-4.7081-11.353-13.184-1.8426-.00131-1.6986 2.7484 1.8786 26.498zm-234.4-5.243h1.3974l3.0859-2.8991 3.0859-2.8991v-4.8685h-2.5212l-4.0069-7.3333-2.8799-6.3698-.71037.71038-.71038.71037.93104 11.475.93104 11.475zm269.3 0h1.313l3.3127-4.5304-6.5636-5.1629-4.2769 4.2769 4.9017 5.4163zm14.502-8h1.1047v-3.5352l-6.2843-5.9038-10.13-1.6439 1.7514 2.8339 12.454 8.249zm-29-1.3771 1.2283.0437 4.8766-4.4133v-2.5145l-25.611-29.127-5.0951-2.7268-1.5814 4.121.86439 3.444.86439 3.444 6.5794 6.0976 6.9407 10.228 9.7054 11.36zm-187.23-3.9563 1.2925-2 .0408-4.1486 6.635-8.9932.87484-4.7624.87485-4.7624.81731-.66667.81732-.66667 17.132-34.075 1.7579-1.459 1.758-1.459v-2.6201l8.0028-11.858 3.8345-7.4152 9.5149-11.78 2.6478-3.2208v-2.6467l3.4148-2.1325 8.5852-10.608v-2.5914l-14 15.744-8.6539 9.4555-.087 2.6667-7.9258 10.475v3.525h-2.6159l-1.5927 6.3457-9.1248 8.8441v3.7076l-7.5736 11.103-9.7597 16.402-.01 3.5981-5.0034 8.2049-2.9867 13.926.0408 5.8687zm220.33-7.6469 2.3333-2.0997v-3.427l28.349-28.109-5.0156-1.7889-4.8853-4.2058-2.5805 4.6112h-3.8675l-.0232 2-9.3102 9.822v1.8159l-6.6666 7.6954-6.6667 7.6954v3.2105l6 4.8802zm-24.743-6.2671 1.9614-.75264h6.0677l15.941-19.423 4.9921-7.9106 6.1143-7.5379-.0165-1.5644-.0165-1.5644-9.1141-5.9025-6.9038-1.7327-17.949 18.382-12.667 14.209v4.6359l9.6287 9.9144zm-113.2-7.1026.38746-3.65-2.1869-10.471-3.2547-1.0849v4.6581l4.6667 14.198zm186.74-10.983h2.7128l1.7449-2.8232-7.5003-10.823-18.582-16.959-11.295-5.3095-1.5572-2.5196-10.745-1.8153-3.9078 3.2432v2.3066l19.036 10.034 5.8214 3.2509 17.551 16.082h2.6135l1.3947 5.3333zm-770.43-5.4463 6.0367.11295 6.4307-4.5042 42.03-.1624 3.1008-3.101-1.5788-2.5546-8.2847-1.6569.5476-1.6428.54761-1.6428 8.5766-1.7541 33.233-1.9168 1.4818-2.3976h17.045l14.131-2.9622 8.6667-6.5069v-3.1949-3.1949l-3.1333-5.8928-3.1332-5.8928-1.8668-2.6176-1.8667-2.6176-8-5.0039-15.545-13.231.43937-6.653.43938-6.653-9.3333-3.3769-24-.28717 7.3333-6.4545v-3.8661l-16.667-1.8922-3.5419-2.8693-35.657-.167-3.3344 3.3333h-6.218-6.218l-14.226 2.6979-1.4714 2.3651-13.19 3.8414-1.0319 3.0956h4.0648l.65924 1.0667.65924 1.0667h-4.5626-4.5626l-4.018 3.8494-4.018 3.8494v3.2043l10 1.9269 32.667-.27587v6.6458h10.509l1.5871-2.5679 9.0156-2.4893 12.888 2.6985 2.6667 2.0297 16 1.9034 8.6667 5.3098v5.155l-8.6667 5.2842-7.2079.01-7.4588 2.9987-5.3333 2.1272-7.0708 1.5257-29.596.23383v4.7812l-8.3333 1.6667h-15.509l-1.4027 2.2696-24.755 1.6361-6 1.7386v5.0223l12.667.0848 4.4899 3.4132 1.7159 6.8367 15.128 7.3 17.333 8.8061zm784.63-.45615 1.3333-.30322.41149-3.456.41149-3.456-18.156-19.304-14.667-9.5473-14.189-7.2704-20.218-1.8321 1.8982 3.0714h5.0186l1.4967 2.4218 13.327 3.4157v2.017l6.331 3.4788 9.0024 5.0279 2.1325 3.6387h3.4962l21.038 22.401zm-243.92-.77302 1.2494-.009 6.9799-4.6491 6.3534-8 6-8.5587v-3.9506l2.6667-1.6481v-13.633l4.4281-4.893-.94467-.94466-.94466-.94467-4.5388 2.8464-.66666 8.5798-.66667 8.5798-10 13.906v2.6607h-4v3.1874l-7.1656 7.4792zm-650.97-21.601 12.221-.52624 17.333-8.1894 22.082-2.9194 14.585-9.681v-2.3566l-6.4891-1.6287 1.4411-3.7555h4.1297l8.9184-6.8024v-3.2655-3.2655h-3.6279l-9.8239-6.6667-4.5482-.016-8-4.2235-13.831-5.2217-4.8359 2.618-6.2571 1.4218-6.2571 1.4214h-12.058l-11.686-6.524-5.7424 1.5017v2.0446l-6 1.9571-22.03.5501-7.9703 7.6361v10.921 10.921l3.6786 3.053 1.546 7.2735 6.2318 7.6353 20.521.1322 4.2473 6.4822zm-11.51-11.793-1.6025-.0699-6-4.1854v-9.0741l6.8403-2.6007h11.826v6.2576l-9.4617 9.7424zm1.7927-6.9448 2.6049-1.6268v-2.0252h-5.176l-1.6481 2.6667 1.6143 2.6121zm28.519-15.672-2.5807-.0204-3.5469-2.2485.4401-3.6179.4401-3.6179 7.1871-4.337 6.8129 3.6462v4.4179l-6.1719 5.7982zm869.23 28.91 2.4736-.22269 6.3862-11.405v-1.8693l-8.1942 9.9409h-3.8896l-.73308-1.9104-.73308-1.9104 10.574-14.179 8.3092-7.8322v-3.5011h2.6667v-3.5011l7.3333-6.5322 10-5.0533v-2.5104l-4.3038-9.0697h-3.5403l-11.489 15.385-2.6667 4.3052-10 14.586v2.0057l-6.6667 7.9229v3.5101l-4 1.5349v4.4697l6 6.0594zm49.821-8.8894h4.5476l5.8247-2.9788 4.6074-5.6879.06-5.3791-6.0641-6.9321-6.064-6.9321-9.8719-2.7418-13.082-.014-12.901 14-.016 2h2.2586l6.1494-5.3333h11.374l4.2181 1.6186v2.3814h-5.1152l-4.2181 1.6186v2.8762l5.7982 6.1719h3.1219l4.8266 5.3333zm-853.29-2.0812 14.333-.92623 3.3333-2.6524v-3.6735h23.843l.70638-1.143.70639-1.143 22.764-1.4202 6.5533-4.2939h6.5424l4.2181-1.6186v-3.7807l-7.3333-2.6557-5.3333-2.4011-14.667-2.0002-13.333.34403-16.594 1.6788-8.256-5.8788-32.39-.84445-3.5456-4.8433.79568-3.1759.79569-3.1759 5.8609-4.8927 3.3993-.0888 2.392-6.2915 14.209-4.5854 5.9062-3.7898h5.2698l.82405-1.3332.82404-1.3333 16.509-.0408 3.9228-2.4808-.65696-.65695-.65695-.65696-23.942-3.0993-4.8756-2.5515-3.3172 2.753-4.5702-.79934-4.5702-.79938-14.225-1.2611-12.041 3.032-3.8467-3.1924-3.087 3.087h-4.6242l-16.097 6.9812-12.016-1.802-1.5529-2.5126h-5.8451-5.8451l-9.4858 5.5967.04241 5.535.0424 5.535 3.5425 4.6667h21.549l1.4802 2.395 19.344 1.9264 13.138 5.6786 18.648 9.3333 6.4072 8.4737-10.193 10.194.17616 4.6661.17617 4.6661.15717 1.0892.15716 1.0892zm783.75-4.5855h.58798l-.0937-3.6667-.0937-3.6667-2.1456 5.3333.57852 1 .57851 1zm8.6154-2.6667h1.3608l8.6117-12.099 4.0233-7.234 9.2727-13.333 2.0187-3.5376 2.0187-3.5376 17.333-20.537.54077-1.5272.54078-1.5272 6.0203-8 8.2315-15.926v-13.916l-2.6667-1.6481v-4.1198l-8.6667-19.672-3.3333-.05086v-4h-2.4486l-4.2181-1.6186v3.0934l6.6667 9.8109v3.381h-2.0952-2.0952l-4.4592-4.4592-2.7504-5.5408-5.2979-.76888-4.6353 7.847v3.4167l5.7982 6.1719h2.9596l13.254 14 3.3218 5.9638v7.9416l-12.667 20.274-4 6.9564-1.6204 2.099-1.6204 2.099-8.7592 11.617-2.0187 3.525-2.0187 3.525-3.9813 6.022-3.9813 6.022-1.6623 2.6447-1.6623 2.6447-6.6753 13.166v.83425zm-20.122-1.3333h1.2389l7.749-11.333 17.773-26.066v-2.6006h3.8203l.86068-2.7118.86069-2.7118 4.7701-4.5765 8.3492-16 .003-4.801.003-4.801-3.0896-9.0646-4.1219-5.8258-4.1218-5.8258-2.6667-4.3078-4.6667-3.5251v-2.5155l-4.6667-4.7246-4.123-6.3042-5.6632 3.5367-1.3594 6.8254 27.812 26.925.20737 3.8708.20736 3.8709-.29763 3.2539-.29764 3.2539-14.751 24.719-3.7351 3.0999v3.6735l-2 .0504-8 13.605-11.333 17.037v3.9741zm-205.62-18.735.28566.0686 15.532-15.333 6.7103-5.335 6.52-3.462 7.3333-4.0151v-2.5212h3.4336l12.472-12.667-1.1512-1.8603-1.1512-1.8603-8.0736 1.6147-12.863 5.6572-4.6305 2.4488h-2.8628l-12.223 9.3333h-3.2032l-4.8266 5.3333h-6.2563l-10.95 11.283 4.5819 2.7171 11.037 8.5295zm285.57-6.5981h1.0625l4.5273-5.0026.7528-4.6392.7529-4.6392-11.62-12.37-8.6102-1.671-2.6962 6.322-4.2111 5.7875 9.5175 4.5164v1.9538l9.4617 9.7424zm-523.53-2.6667h1.7739l9.2326-7.8916 3.0068-.1084 3.1026-3.7384 6.9218-1.7372 4.277-3.2622 4.277-3.2622h2.2079l27.484-13.658 2.7682-3.3355-2.9961-14.34-1.191-1.2667-1.191-1.2667v-8.6264l-1.394-3.6665-1.394-3.6665 4.788-2.8406 6.4521-1.3333 4.6863-8 .1948-6.2222-3.3333 1.0978-.85214 5.7911h-1.1316-1.1316l-3.8447 1.4754-8.3734-7.0457v-8.6866l4.3285-8.6767.68265-8.5044.68264-8.5044-7.1628-9.391h-1.9861-1.9861l-8.117 6-12.442-.80256-5.3333-.12956-13.955.7193-5.227-4.7304-1.6896-7.6929-1.8833-1.164-12.578 2.6827v6.4507h3.7384 3.7384l8.9111 9.1939-.80158 6.7682-.80159 6.7682-1.7972 2.9079-10.583-1.4195-5.9098-5.5519h-1.0842-1.0842l1.3619 52.667 5.4547 10.19 10.088 5.1429h17.569l2.5333-2.4473 12.928-1.8947-.47464 2.4646-.47463 2.4646-9.3121 2.7462-3.3333 2.1574v17.019l-1.3333.82405-1.3333.82404v5.2596l-4.6667 1.4914-5.4636 2.5884-7.3168 9.1698zm.10094-61.461-2.9055.128-8.4744-12.557 7.2566-5.7862-3.1432-1.0477-.75622-5.638-.75621-5.638h5.6844v5.1287l6.9037 8.2046h-5.4867l1.4344 3.7379 8.8912 1.668 1.5071 3.9275h6.9459l-.44824 2.3276-.44825 2.3276-13.299 3.0889zm7.6191-18.539h-2.6198l-2.9765-5.5617 1.4252-1.4252 6.7908 1.7044v5.2825zm26.02-12.003-4.0667-.003-4.2434-3.6635-4.2434-3.6635-1.7922-7.2932 6.6867-2.5423.87487-1.4156.87488-1.4157 9.8426-.2405-9.3333-2.6885-14 1.1484.0204-.77636.0204-.77636 2.5286-4h17.233l14.865 7.7769v3.5564h-2.7605l-6.5728-4.3067v2.3658l8.1953 9.9423-.88918 4.6653-6.6394.89247-2.5333 2.4409zm-4.2093-5.3302h.52402l1.5349-4h-2.583v4zm-430.59 93.856 2.7366-.82278 2.5333-2.367-13.2.0848 5.1934 3.9277zm-29.108-3.7763 3.4889-.87566 7.9016-1.5803-1.5096-5.6241-.03642-2h-6.1678l-7.1656 7.4792v3.4765zm882.53-2.0801h.52524l6.7922-3.0947-.1036-5.572-12.563-5.7956-12.667-1.4867v9.1311l5.9267 4.1512h9.9159l.82405 1.3333.82404 1.3333zm-227.6-8.0534 5.7506.0534 15.165-7.3333 16.693-11.333h5.3171l9.9508-5.3333h4.827l-.90258-5-.90259-5-2.4095-4.6667h-5.3719l-7.7162 3.9902-1.721-2.7846 1.4859-3.8723h3.975l11.582-6.996 4.5264-7.8868v-6.9454l-5.7982-6.1719h-8.5089l-7.0263 5.5269v6.3523l-9.8061 1.8396-6.122-7.7188-3.8297-4.4245-.93608-4.9088-5.9873-.85404-14.644 8.3783 1.3292 2.4836 1.3292 2.4836v4.1753h-5.1976l-7.1189 9.3333h-2.3502v-4.8685l-6.152-5.7795-1.5907 1.5907-1.5907 1.5907v4.6745l-1.5026 3.2978-1.5026 3.2978 1.7226 6.8633h5.2825v-5.3333h5.417l1.6382 4.2691-2.3886 1.7309-2.9532 5.3269 7.6843 4.6731h5.1852l-1.4751 3.8441-5.7106.82259-2.0364 11.986 1.4889 4.6911 7.1502 3.8824zm42.916-45.28h-2.6667v-1.5086l2.8005-5.2327 2.5329 1.5654v5.176zm4.7673-8.8898-1.8994.72886-4.2666-6.5117 2.0669-3.997 2.0669-3.997h6.5982v4.066l-7.0186 2.6685 4.3519 4.8088v1.5047zm191.57 48.848 2.3333.0421v-3.6456l-10.743-7.1097-9.6327-.57804-1.0732 3.0148 9.4388 1.7707 7.3439 6.4635zm55.079-7.9579h1.9213l-.169-10-1.1554 2.8636-1.1554 2.8636-2.897 1.7905 1.5342 2.4824zm-18.008-13.809 2.2296-2.8573 1.0133-3.3333 1.0133-3.3333 2.1905-2.7594-6.7101-8.574-1.8067.004-.0797 11.856-.0797 11.856zm-9.6652-16.608.405-2.5946-7.7433-8.4778-7.37-13.844-1.9111-3.5967-1.9111-3.5967-5.4762-1.7381-2.7944 2.7944 16.396 18.494v1.7124l10 13.441zm-290.4-20.249h2.3879l11.606-6.6079-14.667 1.4998-3.2884 1.0071.78684 2.0505.78684 2.0505zm-117.6-11.203.5293-2.5365 5.0596-9.0081v-27.326l-2.2788-3.2967-2.2788-3.2967-1.7212-1.7619-1.7212-1.7619v-8.9386l-9.6801-12.871-9.6696-9.3333-9.317-6.9218-9.8376-4.6383-4.7984.92409-.85724 4.4513 9.8036 10.851h3.1186 3.1186l14.283 14 1.6801 6.6667 1.6801 6.6667 3.7802 9.3333 3.7801 9.3333 2.916 12.514v10.486l1.8819 9zm121.84-2.229 3.0787-.0988 12-2.2612-10.741.31562-3.1008-1.9164 4.5084-8.6071.71111-1.1556 2.8546 2.8546-2.899 1.7917v2.5093h11.556l1.7546 1.7546-3.0502 3.6752 11.74-1.6172 12.755-2.4701 10.398-5.3045 1.7927-2.9006 3.8728 5.5292h3.5536l3.7207-4.6667 3.7207-4.6667h3.8315l-.76637 2.9306-.76638 2.9306 1.4408 1.736 1.4408 1.736h4.0068l-1.4799-7.3333-1.8054-4.6667h9.2921l3.4648-4.1749-4.514-7.6416 2.87-1.7737 7.839 3.247v3.551l-3.3008 7.4588-3.2199 2.6667-1.7684 7.3333h2.7622l5.4979-7.3333 2.3694-2.8715 1.7744-5.5907-5.4481-10.165v-3.279l-5.1587-2.7609-6.8413 2.601v4.066h-3.9492l-1.6732-6.6667-8.3776.03642-6 1.6079v4.5575l-6 5.6205-6.6667 2.4107-8-.23302-.85214-6-4.4812.08872-6 5.0054v5.5726h-2.3556l-.69734-2.6667-.69735-2.6667h-5.0802l-5.8077 5.4107-4.097 7.9227h-1.4402l-5.0002-2.676-3.7303 5.3258-.8388-.8388-.83879-.8388-6.7499 4.4227v2.5367l8.0872 4.182-1.5779 2.5531zm32.285-7.381-5.2062.61761-4.6667-1.3333v-2.1446l4.2581-3.5339 1.2755 2.2792 1.2755 2.2792 5.0156-2.6843h5.5086v2.5093l-1.1272.69663-1.1272.69663zm12.858-4.5202h-2.0931l-6.5334-7.9096-6.3679 1.5982.47682-2.511.47681-2.511 11.31-.81999v9.4867h1.5086l5.2131-2.79 3.0155 1.8637-4.9136 3.593zm-29.574-2.6667h-1.3524l.8852-4.6667 11.31-.81999v2.82h-7.8426l-1.6481 2.6667zm43.864-.8121-.97958 1.4788-.0204-2.8902-.0204-2.8902 10.493-4.8863 1.6027-6.1772 4.5714.90958-.93006 6.4995-4.1877 3.0621-9.5489 3.4151zm-6.0204-3.2617-1.6667.07377v-3.5011l7.7075-7.3842 1.8026 2.9167-6.1768 7.821zm15.651-12.365-1.9847.25873-3.3333-1.3757v-3.7778h8.1955l-.89282 4.636zm-282.65 13.772h1.7778l-.88889-.88889-.88888-.88889-1.7778 1.7778zm7-1.3739 1 .04055v-5.3333h-6.6667v2.5342l4.6667 2.7181zm-10.263-6.8617 2.0704-.4311.2629-1.3151.26291-1.3151-4.6667-.89872v4.3911zm261.24-3.7644h.63968l10.721-4.2895v-2.1974l-4.9811-1.5809-7.0189 2.6686v5.3993zm-372.66-12.524 9.9812-.14278.87914-5.3333.87915-5.3333-2.1798-2.6899-12.817-3.7843-6.7241-3.5093-3.3333-.0164v-2.1334l3.1556-3.1556-1.1556-.71111-8.2436-4.5675-11.756-1.8034-7.2009-3.6291h-9.3846l-9.4956 5.3333h-1.8908-1.8908l-6.804 6.3058.1036 2.3609 12.563 6.0457 3.0098-.04571 3.3137 8h4.5654l1.7696 1.7695 14.008 5.322 18.667 1.8607zm15.945-17.227 8.5927-.65077 6.8146-8.2895 20.862.02404-.8622-4.438-12.434-4.2286-5.1094-4.6667h-68.614l.82405 1.3333.82404 1.3333h10.352l1.3217 2.1386 13.022 3.546 4.8759 3.5654-2.9989 3.6135 1.5683 1.5683 1.5683 1.5683 5.4667.0848 5.3333 4.1488z"/>
</svg>
