<?xml version="1.0" encoding="UTF-8"?>
<!-- Created with Inkscape (http://www.inkscape.org/) -->
<svg version="1.1" viewBox="0 0 158.67 157.33" xmlns="http://www.w3.org/2000/svg">
 <path d="m63.484 154.53c-4.3878-.56339-8.8255-.96672-12.602-3.4936-7.2164-3.4548-14.368-7.1667-20.63-12.164-6.9102-4.2512-11.663-11.584-16.581-17.977-3.5407-5.9276-7.0232-12.052-9.6059-18.428-1.3404-7.9652-3.8219-15.819-3.2092-23.975-.019158-5.2743-.038316-10.549-.057474-15.823 4.8191-4.4189 3.6567-12.091 7.5617-17.32 4.3468-10.302 12.032-18.734 20.248-26.113 5.4047-2.138 9.3034-7.0621 14.108-9.903 5.9816.16537 9.866-5.7809 15.807-5.9384 5.3554-1.2111 10.694-2.5814 16.233-2.0605 6.9907.18215 14.061-.37004 21.001.28527 4.5074 1.2098 9.3473 1.6306 13.648 3.3308 5.3097 3.8498 11.276 6.637 16.828 9.9969 2.5481 4.0624 7.6045 2.732 9.6758 7.0646 10.723 11.766 19.616 25.746 22.396 41.641.82414 6.6999.11948 13.578.33977 20.348.21852 4.5359-.0153 9.0114-1.6268 13.303-2.3159 8.151-5.8585 15.988-9.832 23.417-7.6942 7.7605-15.388 15.521-23.083 23.281-3.9308-1.1166-3.6166 1.3718-5.3727 2.9406-5.4138 1.6686-11.251 2.9197-15.834 6.2219-13.05 1.9384-26.276 3.8954-39.412 1.3667zm27.454-9.0457c6.0748-2.4389 12.859-2.7739 18.889-5.1494 8.4795-4.331 16.65-9.5452 22.315-17.398 6.9703-7.848 13.329-16.747 14.855-27.404 2.1058-5.9895.87414-12.3.87043-18.492-.32518-6.0199-.17424-12.158-.79714-18.104-3.3635-6.6854-6.3796-13.626-9.9569-20.154-6.1792-5.7069-12.154-11.709-18.46-17.233-5.7837-2.6725-11.448-5.8652-17.306-8.2155-2.8163.18244-5.6188.3313-7.2241-2.4099-2.3964-1.2298-5.7229-.23396-8.4863-.58576-7.2351-.04538-14.47-.09076-21.705-.13614-3.9832 4.5774-11.1 3.1564-15.768 7.0664-8.8536 4.2159-17.232 9.8724-23.943 16.976-5.3464 8.8872-10.399 18.156-13.838 27.896.35984 11.509.71969 23.018 1.0795 34.527 5.9894 9.9168 9.2384 21.619 18.131 29.592 5.9423 5.4766 13.418 9.1298 20.458 13.144 5.6365 2.8135 11.77 4.3579 18.014 4.9566.77134 3.1427 3.7975 2.2411 6.2844 2.3068 4.7646-.20506 9.6832.41588 14.349-.31834.74623-.28827 1.4925-.57655 2.2387-.86483zm-46.472-16.496c-6.8574-5.0962-14.37-9.9761-17.406-18.429-2.4881-5.2318-5.5856-10.34-7.7258-15.666.09126-10.652-.18058-21.362.13466-31.979 1.629-4.1446 2.2184-8.8348 4.5157-12.629 2.4399-3.6555 6.5403-6.9015 6.683-11.523 7.3043-3.3874 11.904-10.618 19.423-13.777 4.0993-2.9062 5.3437.03612 4.5767 3.6752-1.1888 3.9578 4.2054.25706 4.8432 3.4474 1.5572 2.1869 3.1145 4.3739 4.6717 6.5608-5.5976.32438-8.9034-5.5953-13.29-7.8995-2.6864.17899-5.9125-1.0455-7.6081 1.7098-3.7612 3.5182-7.5224 7.0363-11.284 10.555.01313 2.7311-.90783 6.5099 3.0716 4.7921 2.7082-.02007 5.2023-.33018 5.5831-3.5025.34716-2.9566 3.3955-4.326 5.8486-4.047 4.7259 4.2232 9.2286 8.9256 14.528 12.313 2.3425 4.0195-2.9179 4.3405-5.0081 2.5382-2.8906-2.274-5.4836-5.3382-8.5574-7.1257-2.6306-.17503-5.2679-.36444-6.4986 2.4415-3.7079 2.8328 3.6899 4.4107 5.934 4.2168 2.3727.4007 3.13 3.9 4.8565 5.5401 1.3938 3.4423 5.2483 3.6988 8.2426 5.0689-.01278 2.6985.69922 5.7374-2.3399 7.0148-2.9198 1.4613-1.1958 5.1035-1.6601 7.7179-3.1458.84166-5.0194-1.2974-6.8623-3.5084-1.7915-4.1889-8.0047-2.7876-8.1907-7.1583.29377-3.7432-3.2612-2.5018-5.7303-2.6667-1.8907 1.1665-2.0587 4.84-3.2904 6.9655.29074 5.7468.97003 11.715 1.8166 17.428 2.789 5.1394 4.9343 10.75 8.1215 15.598 2.9919 3.3778 7.6596 6.0418 8.8023 10.487-2.0555.29636-5.3756.86917-6.6547-1.7146-4.2429-3.601-6.676-8.4426-9.3558-13.141-2.0327-2.0397-3.2805-4.4125-3.217-7.3419-.62004-2.7884-.35986-6.1494-1.5207-8.586-3.0776-.80268-1.5916-4.1497-1.9185-6.4861.2501-2.5805-.50456-5.7212.37573-7.9504 3.1752-.78735 2.1764-3.9018 2.2909-6.3956.79047-4.1156-4.4331-6.026-7.8366-5.5296-.78688 6.1896-2.4988 12.343-1.4272 18.605.5976 6.0348.53651 12.325 1.5416 18.202 3.3173 3.8746 6.2651 8.6253 6.7057 13.584 7.3956 7.066 14.432 14.846 23.683 19.517 1.5396 6.8504-6.5268 1.2592-8.8685-.92119zm8.0917-59.476c1.7004-2.2824-3.0639-3.6484-4.1298-5.5386-2.7265.22191-4.0777 2.4256-.97363 4.1595 1.156 1.2887 3.6872 3.9295 5.1034 1.3792zm-8.5565-8.0355c1.4063-3.6053-5.0882-4.6422-6.6667-3.701-1.8256 4.3488 4.6404 8.4135 6.6667 5.3416v-1.6406zm-10.667-5.3127c.89088-2.75-2.396-4.8664-4.2589-5.494-3.229.80335-2.3385 3.9035-2.4077 6.4685 2.4947.0801 7.9964 3.9444 6.6667-.97454zm79.325 73.156c-2.3438-2.2716 2.0598-3.8306 3.0848-5.7464 1.8415-1.9516 3.4299-4.4961 6.4985-3.5727.77378-3.3132 3.9823-7.2706 6.7569-10.192 3.15-2.5851 1.3108-7.4192.70103-10.778-.23417-2.9796-5.4708-2.2502-4.5576.90807-.89358 2.8886-.14363 6.7378-3.271 8.3208-4.0535 3.2164-7.894 6.9113-9.9642 11.741-2.7436-.0335-6.5058.95153-5.2395-3.0919v-7.5748c-2.048-.46594-6.4771 1.4492-5.3333-2.2085.8375-2.9013-1.2192-4.5073-3.2937-6.1054-1.2274-1.9406-5.9031-3.3812-4.4353-5.7126 1.1874-3.7583 4.4584.6742 6.7916 1.2685 3.1182 1.9895 8.5358 3.9816 8.522-1.367 1.4484-2.6279-1.6238-4.8386-2.3746-7.2635.82483-3.2287 3.7473-2.6949 6.4187-2.6116 3.8718-1.2108 3.0584 2.2637 3.0379 4.9451-.58 2.9343.33061 5.1687 3.0197 6.5678 4.2024 1.684 6.5871-6.7567 2.8157-9.6314-3.7703-3.9893 1.1705-4.2553 4.5752-5.2769 2.2241-1.0844 4.9546 2.9595 3.5858 5.0041-1.3473 2.5746-.51726 4.8915 1.0603 7.1199.64356 3.891 3.6865.0984 4.8329-1.3668.25906-2.6077.51811-5.2155.77715-7.8232 3.7191-2.3672 3.6155.54392 3.3334 3.7016.3285 3.1526-.14462 6.0859-2.0443 8.6939-3.3129 6.0732-5.5907 12.842-9.1935 18.685-5.0517 4.9674-10.103 9.9349-15.155 14.902-.3164-.51195-.6328-1.0239-.9492-1.5358zm3.8658-22.986c3.1949-2.6952-1.1088-6.6333-3.8482-7.4682-2.811-.97831-2.9341 3.7194-4.5181 5.3322-.65338 1.5815.41892 6.294 2.9116 5.0631 2.3945-.30824 4.6292-.18276 5.4547-2.9271zm-17.59 14.733c-2.0454-4.9489-5.8366-8.8711-9.7755-12.509-3.4264-1.1305-1.8028-5.4667 1.0462-4.1762 2.3563 1.6195 5.8398 2.1999 7.4608 4.4971 1.2253 4.7517 5.1853 8.3055 6.3352 12.75.59388 2.4826-4.5788.28758-5.0667-.56208zm-47.374-26.164c-1.7423-1.9458-4.3973-3.5249-3.5594-6.5072.24295-4.5961 9.3333 2.236 10.478 4.9291.29077 4.0851-4.2211 6.9643-6.1093 2.4228-.26977-.28158-.53955-.56317-.80932-.84475zm15.774-65.569c-2.7943-3.4325-9.0043-2.6321-7.3333-8 5.3795.32961 9.3995 5.1048 14.12 7.5221 5.2369 2.6935-2.9008 6.6301-4.9333 1.9186l-.88079-.67564zm11.335-3.9301c-1.6854-1.8397-5.0767-3.6173-5.6863-5.4962 1.8061-3.0654 4.5217.95482 6.8106 1.6511 2.23.95986 4.7318 3.4656 6.7952 3.477 1.6306-1.6588 3.0764-5.4757 5.1427-2.0472 2.3658 2.9048 8.485 2.0893 6.9364 6.9619-1.8668 3.3293-5.7095-3.5578-7.8571-1.8479-4.6596 4.5928-8.3427.78432-12.141-2.6988z"/>
</svg>
