<?xml version="1.0" encoding="UTF-8"?>
<!-- Created with Inkscape (http://www.inkscape.org/) -->
<svg version="1.1" viewBox="0 0 158.67 156" xmlns="http://www.w3.org/2000/svg">
 <path d="m84 155.16c-6.6795.29053-13.379 1.0402-19.982-.40939-3.0454.37784-3.9153-3.9243-7.1453-2.751-4.3538.32632-7.8689-3.0259-11.826-4.4406-3.8665-2.1685-8.3954-3.4032-11.83-6.1805-6.5536-6.6867-13.415-13.151-19.778-19.975-2.8962-6.3369-6.7996-12.287-9.0148-18.886-1.2059-4.0433-2.4529-8.0818-1.7783-12.344 1.1047-2.942-2.292-4.3635-2.9927-6.6795.4781-6.9753.9562-13.951 1.4343-20.926 2.3509-2.1609 3.1369-5.0324 3.4622-8.1131.61844-5.2561 3.564-9.8464 5.8148-14.525 2.9801-4.7809 6.4098-9.1886 10.639-12.933 4.6557-4.5101 9.0739-9.359 13.878-13.658 8.7626-3.941 17.189-8.7472 26.578-11.076 6.2444-2.4981 13.112-1.3031 19.677-1.9019 5.3989-.17322 10.798-.34643 16.197-.51965-1.2158 3.8639 3.2813 2.8078 5.7265 3.5188 3.6296.44027 7.2882.80001 10.197 3.2485 6.2837 4.0058 13.065 7.3674 19.032 11.784 3.4595 3.387 6.919 6.774 10.378 10.161-1.1679 3.4088 1.9042 3.6679 3.9604 5.0082 3.0859 6.976 6.952 13.664 9.5413 20.823 1.3349 4.9489 3.105 9.8401 2.4984 15.046-.15264 7.4737.30632 15.028-.23073 22.451-1.4626 6.0021-3.0891 11.944-6.118 17.374-2.4621 4.8882-4.0546 10.35-8.2844 14.072-4.5685 5.1197-9.156 10.223-13.732 15.336-3.7032-.59951-5.872 3.2514-8.7831 4.9494-4.1809 4.0922-10.232 4.816-15.42 7.0953-2.6708 1.431-5.5995 1.4023-8.5433 1.2886-.03536 3.4633-3.3003 2.6097-5.7833 2.8013-2.5907.11969-5.1815.23939-7.7722.35908zm-5.182-9.994c5.3894.29483 10.748.21726 16-1.1614 5.2808-.58604 10.251-2.2868 14.925-4.7917 6.2371-3.1354 13.137-5.6436 17.681-11.192 2.8588-2.8648 5.7176-5.7297 8.5765-8.5945-1.0326-3.2285 1.6135-4.2232 3.7079-5.8089 2.2679-4.3586 6.0207-8.1752 6.0609-13.347.89417-2.4492-.0996-6.1611 2.2666-7.6258 2.6179-1.1277.72644-4.7695 1.2979-7.0381v-21.449c-3.2198-.83036-2.7811-3.7005-2.6667-6.3898-2.9668-6.3466-6.1531-12.813-9.539-18.956-6.5532-6.0767-12.902-12.446-19.581-18.343-5.9366-2.831-11.752-6.0769-17.762-8.6556-7.9989-.69891-16.007-1.9719-24-2.3136-7.0392.96832-14.078 1.9366-21.117 2.905.80438 3.1153-3.63 2.4429-5.475 3.6427-2.2979 1.1141-5.9637.79356-6.3022 3.9626-.79004 2.7386-5.0854.1697-6.4039 3.3314-2.6967 1.7883-4.6946 5.4928-8.3476 4.6592.31968 3.0005-.40644 4.1685-3.0535 4.752-3.6399 6.0527-8.0994 11.662-10.536 18.338-1.5203 3.5404-3.9745 6.8742-3.2152 10.919.11408 10.79-.2267 21.669.16903 32.403 3.2218 7.1367 5.1913 14.943 10.14 21.156 2.2511 3.9135 5.1505 7.2636 8.7154 10.036 3.0526 2.4761 5.7974 5.755 9.0424 7.7294 3.5917-1.4113 3.1047 2.5919 5.1657 3.7478 4.8742 1.8468 10.466 2.3057 14.331 6.1035 6.6207 1.2194 13.162 2.2301 19.921 1.9817zm-15.422-14.552c-2.3236 3.1097-4.1473-1.4933-3.3963-3.7854-.89456-2.7484 2.4011-4.8731 4.2621-5.491 3.33.80713 1.2421 3.996 1.0769 6.3395.07029 1.4681-.87702 2.1453-1.9427 2.9369zm-12.168-4.3572c-3.2195 1.3918-3.5176-3.1309-2.599-5.2986.75515-3.2047.06381-7.1007 3.1114-9.2097 2.2302.50514 3.9489 3.5449 2.4536 6.0991-.52367 2.648-1.0473 5.2961-1.571 7.9441-.46502.15501-.93003.31001-1.395.46502zm-8.0786-4.9239c-3.9055.97736-1.1507-3.9686-1.4557-6.1933.80292-4.1745-.0065-8.9348 3.1444-12.256 1.2481-3.2174 2.8089-3.4009 4.6808-.56461-.60721 3.2367-1.2144 6.4734-1.8216 9.7101-3.147.77597-2.335 3.7592-2.3644 6.2734-.09654 2.1306.76374 3.6183-2.1836 3.0305zm47.184-2.6667c-3.2681 1.0104-4.5574-2.0896-6.3337-4.1781-1.6017-2.4895-4.8455-4.4043-3.9996-7.7506-1.4615-3.1832 2.7156-3.6071 4.1815-1.9928 2.4446 4.2444 5.4929 7.9979 9.1518 11.255.4832 2.8373-.38577 2.8991-3 2.6666zm7.9282-6.6666c-3.0212.35972-4.3175-3.3546-6.5186-4.9319-1.1842-1.9915-5.925-3.846-2.7378-6.006 1.1515-2.7041 4.5071-3.4616 5.4878-.19886 1.6899 2.9914 4.6559 5.5839 5.5071 8.8376-.0518 1.6778.57412 2.7595-1.7384 2.2992zm-62.254-1.3333c-1.838-.33966-5.0491-3.4219-3.4279-5.4192 1.6461-3.6134 3.2922-7.2269 4.9383-10.84-1.0908-2.4565-5.748-.55405-5.5182 1.5121-.27335 2.4202 1.2763 6.6634-2.6667 5.4141-3.6951 1.3394-3.2941-3.5717-1.3232-5.2666 1.7759-1.9545 3.1905-4.0336 2.6292-6.7946-.38919-3.2669 4.5123-.22322 6.5737-.56716 2.851.27447 5.6467.65746 7.302 3.2766-1.8447 2.8206-4.4428 5.3897-5.8518 8.3557.3493 3.5646-.65322 6.9459-1.641 10.329h-1.0146zm74.95-1.3333c-2.5647-.15399-3.809-3.4015-5.8061-4.8853-2.4159-1.712-3.3678-3.7188-1.5548-6.2827 1.5311-2.6447 4.359.8942 5.6522 2.3843 1.1186 1.9974 5.1019 3.4176 3.9518 5.872-.71448 1.008-.43483 3.5558-2.243 2.9116zm9.0078-8c-2.4575-.62702-3.8414-3.7356-5.8682-5.3584-1.9895-2.2536-.58372-5.1409 2.5609-3.9749 2.7984-.31142 3.9264 3.2383 5.958 4.6992 2.9817 1.3503-1.1501 4.2917-2.6507 4.6341zm-99.81-2.0964c-2.0238 1.7251-3.7457-2.7756-4.8226-4.0891.09007-11.184-.17945-22.423.13431-33.572 1.8933-5.553 3.3252-11.378 5.5057-16.762 6.12-6.4448 12.24-12.89 18.36-19.335 2.0555.01218 6.8329-3.4469 5.9427.32176-3.2408 2.8534-7.1526 5.3563-10.651 8.0753.10949 3.5085 2.9032 2.6864 5.4446 2.2715 3.6205.28241 4.7328-5.3047 8.5814-4.1475 2.7741-.32085 3.8987 3.1711 5.9019 4.6319.81114 3.5494 6.1592.31286 5.4467 3.8165-.92014 3.1159 1.5366 4.6459 3.7138 6.3073 1.7555 3.1753-1.9744 2.6523-4.1705 2.5777-2.0798-1.0198-3.8576-5.3863-6.168-3.8497-2.7498 1.1264-4.3423 3.3005-5.311 6.0392-.24837 4.0678-4.407 1.9428-5.1152 5.1718-1.7121 4.4815-5.0368 8.6084-4.2531 13.639.65876 3.4609-.35109 5.2418-4.0322 4.3333-2.7296.04268-.72456-4.6494-1.3304-6.7305.96319-2.5103-2.6285-4.8011-3.9968-5.0201-2.8325 3.0892-1.431 7.4255-1.8681 11.22-.10192 5.2867-.20385 10.573-.30577 15.86-2.662.59135-5.9289 1.8793-4.5234-2.2132.71357-11.179.49335-22.457 2.8344-33.463-.95528-3.1959-3.9682-1.954-4.4486 1.2077-1.598 2.874-3.3362 5.7099-2.8749 9.1426-.3884 7.7677-.7768 15.535-1.1652 23.303 3.0866 2.719 3.4223 6.7696 4.3582 10.53-.39572.24457-.79144.48913-1.1872.7337zm15.246-39.237c2.9535.39144 3.435-3.7922 5.2425-5.5218 1.7221-2.4878.27598-5.5708-1.6898-7.4996-1.6053-4.1348-3.241-.23056-4.8693 1.7269-2.3831 1.8841-2.1557 4.6704-2.0675 7.4085-.55022 2.0808 1.1667 4.3474 3.3841 3.886zm-7.2905-10.667c3.4656 1.1287 3.4149-2.8414 4.5545-5.0855.62069-1.6962 1.9647-6.4014-1.1145-5.5811-3.3601-1.0349-3.0569 3.242-4.2939 5.2855-1.0276 2.3011-4.84 2.6746-1.7671 5.3811h2.621zm16.258-4c3.0352.24021 5.0239-2.8377 7.58-4.1162-1.3169-2.3229-2.5688-4.6832-3.9337-6.9786-1.6415 1.8252-4.2605 3.2166-5.3497 5.2868.64873 1.7056-1.5698 6.8813 1.7033 5.8079zm8.7087 19.944c-2.7849-.13627-2.456-3.8432-1.0205-5.6149 1.4468-1.9295 1.2173-6.376 3.9806-6.3287 3.2809-.98748 5.4752 1.1149 3.0031 3.9838-1.9032 2.5171-3.2391 5.9979-5.4864 7.9305l-.44459.02724zm24.322-22.631c-1.7079-.61287-6.3609-2.1871-3.1404-4.1568 1.2532-2.7171 3.5421-2.9082 6.19-2.2242 2.3396-.33068 5.6353.72534 4.4562 3.2557-2.5106.94088-4.8879 2.7311-7.5058 3.1253zm-.94152-13.404c-1.9329 1.0792-4.909 4.1141-5.7927.5347-1.0839-3.3391 2.6349-3.6728 4.8072-4.9743 3.7836-2.0075 7.6164-3.8632 11.965-4.1247 2.9813-.8514 5.6877-1.3774 4.5405 2.6555-3.6671 1.5816-7.1293 4.0855-11.313 3.3433-1.4024.85514-2.8049 1.7103-4.2073 2.5654z"/>
</svg>
