<?xml version="1.0" encoding="UTF-8"?>
<!-- Created with Inkscape (http://www.inkscape.org/) -->
<svg version="1.1" viewBox="0 0 433.33 772" xmlns="http://www.w3.org/2000/svg">
 <path d="m141.15 768c-10.787.85062-18.628-2.8627-28.572-3.963-9.4837-7.6662 5.6545-14.609 9.4264-21.04 8.8323-3.5284 18.112-4.004 23.56-12.221 4.2434-7.3164 17.829-16.906 11.109-21.437-.91091-10.338 7.4918-19.69 6.1011-30.688 7.3118-6.5286 4.4623-17.467 4.1608-27.616.52322-33.406 5.263-66.742 4.8681-100.26-2.4467-9.0364-3.309-18.592-3.7983-28.109-12.968-.25857-25.906.11633-38.786 1.7291 6.2164 5.9257 10.25 13.781-4.346 8.3925-8.5782-4.5866-19.523-3.1802-27.586-7.3807-18.58 2.7888-39.598-9.2403-56.062 3.0127-8.7261-8.4634-21.018 1.236-31.22 2.0878-10.098-9.647 12.931-7.8838 17.39-10.598 7.3117-.49031 18.915-1.2704 27.95-2.6328 16.633-2.0896 33.349 2.5389 50.068 3.0972 4.8737 8.9015 25.568-6.4511 8.2707-1.3334-7.7828 1.0928-22.589-3.4979-10.827-11.52-5.2583-8.5192 3.0955-24.043 11.986-16.656 7.1866 9.3946 2.4985 8.6206 13.577 3.357 11.246-2.2512 11.391 13.508 2.6849 13.51-7.0891 13.094-4.9772 11.059 9.0601 9.2874 8.7055-2.3473 22.95 2.9468 27.918-4.5568.65975-6.961 6.28-25.056-5.7373-21.797-7.4885-.6821-19.037-2.5392-21.007-7.9132 1.8551-10.726-7.9391-10.557-12.839-17.661-3.8635-10.891-15.577-6.5058-21.073-.125-7.7021 5.2367-11.726 13.842-10.089 23.116-8.2285 4.3606-17.569-7.7522-25.937-.69093-7.3272 2.9637-16.046-3.1158-25.471-.72609-6.8628 6.046-18.34 3.9307-26.11 7.9196-10.24 4.134-23.582-4.2989-7.7973-7.6938 9.8692 3.3546 17.457-3.2119 27.492-3.9408 9.6193-6.1671 23.455-.92806 35.207-3.3739 9.7255-.65211 18.078.94455 20.617-9.4592 3.8263-7.5448 10.723-14.944 20.12-15.452 7.4109-8.3511 16.942 2.2972 22.231 8.8288 8.8572 6.5661 11.356 19.972 22.947 21.838 13.702 4.0351 11.829-11.808 13.288-20.534 2.8202-10.177 3.25-17.518-.42617-27.24-7.0733-14.989-17.154-29.226-17.3-46.567-5.8402-13.322-2.6969-29.885-6.9392-43.703-4.7806-11.744 3.115-28.667-7.9212-38.145-2.4296-9.0567 8.9591-14.497.22026-21.56.29543-13.592-5.772-24.786-7.22-38.176-8.7394-15.81-.71029-37.869-14.911-51.319.6995-10.532-1.9006-20.234-6.299-29.292 1.0023-17.421-.75202-35.749 1.8898-52.63 5.7603-11.955 18.807-17.626 31.596-17.84 1.7082-7.921 3.8558-21.854-6.0362-22.289-8.9898-7.4706 5.6406-16.784-.0391-26.23 2.7234-11.551-14.447-10.439-9.8198-20.844 11.395-1.251 7.876-16.36 18.648-18.296 14.973-10.314 33.542-4.356 50.5-5.6867 7.8523 4.2751 17.891 5.7705 26.34 10.396 7.2095 12.402 15.253 25.218 13.936 40.286-.92404 10.399-12.07 19.456-5.33 30.338 2.4253 14.165 14.991 6.7937 23.147 2.1715 8.3946-4.6203 15.178-11.749 25.379-12.421 9.3925-4.4169 21.789-1.5465 30.116-9.5062 11.091-1.6885 20.927.2216 28.302 9.1849 7.0081 3.6711 13.864 3.7064 21.582-1.7978 10.58-6.315 23.961-6.6287 31.235-17.533 2.5608-8.0215 14.229-11.316 22.92-11.773 13.266-3.7091 13.205 10.236 2.2902 14.118-7.4269 2.9961-14.805 6.7279-21.586 11.741-14.558 7.8106-29.318 15.381-44.135 22.737 1.4504 11.569-10.132 12.939-14.159 17.386-7.886 6.8081-23.112 10.559-18.48 23.679 6.0477 7.6582 19.799 12.184 15.893 23.89.41121 13.469-6.0449 29.882 7.0374 39.333-1.897 10.34 2.0004 23.107-3.5976 31.897-7.0284 7.3132-15.278 14.791-15.655 25.68-5.2738 10.137-18.632 7.8921-27.488 6.0167-13.117-12.626-3.8817 5.5198-6.2375 10.017-4.0282 7.3407-23.215 13.873-15.625 21.833 15.647 14.527 7.2968 40.296 22.012 55.464 1.4456 21.8.64513 45.08-8.4232 64.743-2.1515 15.722 11.512 27.953 11.052 43.807 4.4904 7.1323 7.7661 13.966 10.793 21.723 8.6618 5.1148 17.626-.77509 22.586-9.1819 8.2064-8.9686 20.75-4.9535 31.522-6.2414 7.3302 8.9907 19.812 16.108 16.647 29.448 1.1156 9.8225 16.073 2.573 20.512-3.0322 8.656-3.6255 18.94.79775 28.222.26778 3.6858 13.084-11.708 5.5404-19.06 5.7414-11.924-2.8926-9.5696 13.174-23.041 8.59-10.492 2.339-17.5-11.281-13.553-20.165-7.4126-12.243-21.789-12.685-34.599-11.816-13.729 4.855 12.464 19.739-2.5376 17.683-5.0406-6.0052-21.759-7.3334-20.542 3.1158 6.0556 7.2252 4.132 25.238 17.106 24.121 26.884-.27084 53.768-.54168 80.653-.81252 6.0692-10.694 17.028 7.9524 5.4995 6.9637-29.744.29733-59.507.13866-89.258.2615.18502 17.656 13.364 31.872 19.456 48 5.8941 7.3958 7.6967 17.371 12.243 24.099 8.3864 4.9609 20.853 3.2389 27.292 9.594 4.6373 6.7548 9.689 17.129 7.4292 24.339-12.068 5.1558-1.9948 13.952 3.6303 19.783 10.986 8.9758 3.6539 24.366 5.3438 36.597-2.9551 8.4479 9.2363 24.997-6.5384 22.886-10.003-1.1407-15.281 6.5909-24.298 8.4179-9.76 5.5506-21.948 2.525-32.025 7.3242-9.6281.58295-18.472 2.8386-27.186 5.6148-8.7559 1.6579-16.671 5.6385-25.346 7.8145-7.9584 6.2668-18.791 2.2448-26.043 9.1988-18.085.90165-37.784-5.8076-53.84 5.2537-11.789 3.266-25.763 1.9406-36.118 10.064-12.207.9146-22.137 7.1347-34.188 5.6808zm-10.145-5.4924c8.3973-3.8194-23.823-5.7202-3.7296-.68729 1.1268.76243 2.4642.55986 3.7296.68729zm15.822-5.2659c17.107 1.2248 28.153-15.44 44.511-17.502 7.3222-2.3641 17.553-5.038 16.667-15.068 1.2451-11.736-9.0838-15.295-15.689-6.156-9.2057 4.0384-16.911 7.6647-23.093 12.15-4.7838-1.9088-12.943-1.1457-17.218 2.0183 4.3494 5.8005 17.736 3.2886 24.989 1.5785 8.2969-4.2685 16.415-10.734 24.345-14.263-.62026 6.166-10.892 9.3715-17.411 13.028-8.501 6.8037-19.178 6.3746-28.489 11.245-5.2182-13.748-13.345.24336-21.011 1.0733-14.56.6262-10.815 9.3605 1.2391 10.187 3.6295 1.6875 7.2247 1.8809 11.161 1.7088zm2.4693-10.575c-12.27-4.4974 7.2842-6.3315.96019 0zm34.375 3.5232c4.4234-4.3398 28.464-1.3757 17.487-7.8775-4.5354 4.6017-25.48 4.1057-19.597 8.9589l1.556-.7972zm29.667-7.5232c.88356-1.9219 1.1169-.63478 0 0zm29.333-4.2105c11.771-2.3186-11.541.0712 0 0zm-23.464-3.3272c7.9865-3.277 18.334-4.8166 24.639-8.1674 6.6001-6.2764 20.307.18665 28.572-4.0853 7.2113-3.1975 18.166-6.4215 24.786-.23531 9.8808-.53077 21.392 5.2811 29.373-2.6409 8.7231.20248 19.949-.71909 26.76-4.3041 7.8348-1.4058 19.436-6.1381 26.67-12.367 2.5755-7.9681-8.7456-16.39-9.5766-25.318 1.8333-9.2214-10.364-19.49-7.7602-4.8351-9.7279 7.1724.26768-25.066-8.778-10.389-.7099 14.806-9.276-.67343-3.1727-7.5132-.56532-7.4763-9.8186-19.345-15.695-24.607-9.5779-3.2328-16.776 9.7648-25.608 5.4475-.77736-8.9886-9.1379-16.3-4.6275-24.516-8.997-18.285-15.646-38.199-26.119-55.288-5.9116-10.158-15.118-19.246-23.095-28.31-7.8495-.49345-7.9325 13.93-10.31 20.9-2.722 11.728-5.5715 23.015-5.381 35.355-.0311 17.969-5.8317 34.452-6.8112 52.412-5.3782 10.982-.67319 24.637-8.8875 34.667-.33395 12.536-.2459 24.94-6.5693 36.009-11.541-.96706-1.6052 12.583-1.6087 18.818.69403 3.7678-4.2284 12.381 3.1993 8.9679zm70.464-.79494c9.2667-8.7645-8.2115-5.2284 0 0zm-125.03-15.988c11.865-4.0508 4.1893-8.0143-3.3003.78516-.75666 4.8852 1.6365 1.0391 3.3003-.78516zm-.63366-11.68c3.8892-5.476 5.003-16.039 5.341-24.667-2.4454 7.2639-8.6144 18.987-5.341 24.667zm26.828-3.0614c8.9468-1.9383 26.632 3.2371 25.713-10.574 5.8605-13.552-10.031-12.348-18.764-11.698-6.2527 5.912-22.437-1.9857-23.392 8.4898-5.378 12-.1008 18.012 12.567 14.013 1.2922-.0769 2.5844-.15377 3.8766-.23066zm197.17-2.3533c7.4636-5.3473 4.7941-19.123 6.6692-28.082 1.7916-16.615-9.0907-31.504-19.891-43.17-.24097 8.9718 7.7244 16.763 5.2143 26.663 4.0587.14133 17.623 6.0506 2.0573 7.5256-11.649-4.298-8.4532 19.294 1.6218 10.055 5.6839-.52262-2.371 9.6959-1.4826 16.094 2.0629 3.3715 3.1161 8.5108 5.8115 10.914zm10.216-4.9187c2.8214-13.912-3.3716 2.6566 0 0zm2.6725-4.3333c4.1447-13.892-6.3538-12.077-.44445 0zm-214.27-13.333c9.6935-.74673 17.9-4.1605 28.843-2.6667 3.8094-4.3091 7.139-14.581 7.733-21.912 1.432-9.3428 5.0501-17.739 4.8168-27.713.46486-19.656 7.0395-38.592 6.6554-58.218 5.2619-6.5073 1.5252-18.668 5.5262-27.275 5.5296-14.266 7.4123-30.369 17.14-42.588 1.4253-9.1983 4.687-18.702 5.0467-29.277 2.9202-9.2114 4.8109-19.915 8.7541-28.031-.23775-11.409 3.2645-20.244 10.645-28.69 6.2123-9.0664 6.3968-20.837 10.38-30.02-1.8481-15.38-1.3282-31.762-8.3552-45.728-1.4323-17.312-3.753-36.744-19.259-47.167-13.219-2.4665-26.334-.64577-39.438 1.5931-7.5698-5.0847 3.1821-22.199-11.271-17.722-8.1013-6.2862-17.203-3.8428-23.17 4.3569-1.1654 11.096 11.715 3.2726 15.667 1.8521 11.213-6.4912 14.398 7.1932 12.176 15.205-8.5087.79512-17.089 5.1023-25.003 7.9397-2.7766 6.9531-20.298 13.273-17.507 4.0325 10.161.67731 16.947-10.278 3.1682-4.3858-9.0125 8.8223-17.73 1.0527-12.237-9.0134 5.041-9.0061 9.4974-18.643 20.503-21.213 12.477-9.6396 28.224-3.1764 42.566-3.6347 11.053 6.3795 26.512 10.187 38.541 6.2673 6.957-3.6458 6.9593 7.8266 14.52-3.4001 3.101-7.5448 1.4672-19.402-2.0274-26.925-7.0067-8.0769-2.2673-21.068-13.828-26.347-.0167-12.908 1.4094-11.271-5.7548-1.7576-4.4125-5.8188.86229-12.927-4.6596-17.182 1.2835-9.53-16.909-10.53-17.635-21.378-.48287-15.336 6.5028 3.4807 12.96 6.2554 7.3899-.47115 16.364 11.276 21.884 1.4081 8.5736-4.2498 9.5954-12.949 10-22.81 3.389-7.8238 2.8044-17.863 2.6667-27.653-7.636-2.7048-15.631-19.821-23.102-9.7999-10.404 9.4798-19.524 21.926-30.695 29.634-7.9944 4.7712-15.694 9.526-24.563 12.353-6.4895 1.9213-14.123 3.3512-17.64 9.6852-2.8352 8.9565-5.6555 18.42-6.0983 28.592-.52499 7.733-8.894 26.991-6.4447 8.6293 4.9775-11.649-5.6079-10.204-12.151-12.607-4.1286 9.44-1.432 22.251-2.899 33.006 1.0246 11.033-2.7274 19.164-3.5378 29.392-2.2644 9.5046.0253 17.051 3.3416 25.632-1.4106 8.6828 5.0001 21.34-4.791 26.309 7.4663 10.607 4.0454 25.754 10.087 37.349 2.622 11.786 4.6589 24.63 12.794 34.007 6.3502-1.7261 1.9992-28.598 8.4968-14.048-5.4328 14.584-2.3859 31.499-4.1164 47.087 5.1591 2.2552 18.951-7.284 13.319 3.9107-1.753 6.304-11.871 12.677-13.927 20.894.20824 9.1218-3.2632 15.746-4.2642 24.544-.40957 14.729-5.7775 28.17-5.5315 42.929 6.6214 5.6587 12.618 14.042 14.389 20.483 8.8907 6.5898 9.7639 18.383 16 27.472 3.4601 10.339-6.7734 18.812-15.895 12.659-13.498-10.137 15.95 3.105 10.561-8.9421-4.2729-12.469-9.3157-26.702-20-36.038-9.324.57716-1.6466 16.099-1.3252 21.402.14199 15.225.59652 31.372 3.9359 45.864 4.5021 10.649 1.2153 24.205 2.6373 36.004 1.2066 6.3577.39 29.43-3.8598 13.311-1.6573-12.135-2.1397-24.381-3.1093-36.581-7.8716 2.851-3.1468 18.82-4.7788 27.066 1.5728 8.1782-2.7438 20.296-.52044 24.872.5915 8.4507 1.4761 22.229 13.639 18.728zm6.5536-212.29c-9.5019-1.9952-10.447-16.525.23028-19.661 4.36-8.6949 19.075-8.7032 19.931 1.2847-6.8948-1.5932-14.642-4.8465-19.548 3.0903-15.303 4.8433 7.6719 12.842-.61325 15.286zm-.37378-87.71c-5.9484-3.3396 5.249-12.328 7.8682-16.007 11.356-4.738 18.295-18.736 30-21.277 6.3123 1.4253 25.625 7.125 18.924 14.095-9.3932 2.6619-15.61-6.4784-25.45-3.4776-10.635 3.9086-13.717 7.4475-13.002 16.164-2.9441 6.6035-11.901 8.9875-18.341 10.503zm82.423-15.119c-8.7742-3.2853-16.667-7.1027-15.971-18.602-3.9643-14.695-.52592-30.046-.91777-45.057 7.5316-2.4273 8.2934 13.472 11.734 19.444 3.0891 10.225 3.8811 20.953 5.9599 31.022-.72319 3.8964 2.0893 10.955-.80556 13.192zm-8.0757-15.494c2.3903-7.5114-1.1033-18.331-2.3219-26.341-8.2276 1.41-.83395 16.747-2.4817 23.623 1.4999.70758 3.2095 6.5712 4.8035 2.718zm-68.157 1.8395c-8.0658 7.3919-10.218-11.706-3.9682-14.662 1.2461-11.845 12.845-15.86 4.8426-1.7162-7.19 10.186.23979 16.759 7.1203 5.3095 7.3811-1.7626 17.878-12.183 23.683-8.1211-7.5495 7.9614-24.134 9.7758-31.678 19.19zm51.011-83.227c-6.9674 1.5721-23.122-7.9058-12.511-11.571 11.955.11963 25.091-1.6942 32.31-12.429 5.9074 4.2912-9.1877 15.308-15.132 17.333-10.178.14777 16.019 5.1552-2.9048 6.6667h-1.7483zm-63.006-17.573c-13.11-2.3704 6.739-16.933 3.006-.93021.42725 1.5507-2.4109.2669-3.006.93021zm6.6667-45.333c-12.857-.0171 4.999-17.857 3.431-4.8576-.40676 2.9279.65175 5.3621-3.431 4.8576zm181.27 454.08c4.1719-8.0486-2.9686-17.819-4.5812-25.808 3.043-5.7878-4.1202-28.698-6.3999-14.803 1.5921 9.9469-6.2719 18.854-6.1 27.728 4.3068-4.6286 11.62 8.062 9.8469 12.78 4.2614-3.6281 4.4954 1.2572 7.2342.10268zm-56.009-29.469c9.959-4.1313 21.283-5.5366 28.538-14.688 9.6167-3.5864 11.844-15.782 3.0225-17.683-10.873 10.66-24.994 18.083-39.811 22.583.50508 3.217 3.9387 12.578 8.2509 9.7878zm67.586.96252c9.6093-.9323-.56352-24.186-1.1701-15.763.90037 4.545-1.7439 13.333 1.1701 15.763zm-7.6734-7.63c3.263-7.9403-6.1393-19.699-14.83-19.037 1.2819 6.906 9.2719 10.334 13.444 19.974l.18272.26558zm-65.497-8.4096c15.112.75341 3.61-12.78.028-18.016-9.2753-11.261-10.753-2.3547-5.3847 7.3912 2.0486 2.5171 1.0777 11.533 5.3567 10.625zm15.263-6.627c7.0048-3.7439 15.943-11.975 19.555-18.817-.23271-10.172-6.7901-16.689-9.6621-26.211-6.066-11.522-10.86-23.63-15.403-35.602-3.1178-7.246-6.2809-18.464-14.683-20.585-11.172.50972-13.293-13.159-.58287-9.9606 8.2441-4.7774-2.7143-14.742-4.8022-21.457-4.5567-3.2889-7.4489-14.784-9.9783-22.144-2.3207-8.6842-4.4984-17.153-9.4682-24.579-7.6801 4.1023-6.3208 18.634-9.6357 27.356-2.6228 9.6555-3.1673 19.752-5.9365 28.069-3.102 10.52 6.4567 15.852 12.566 22.598 6.0599.45503 27.577-2.6176 20.475 6.1287-9.5407-.60643-20.798-2.117-29.042-6.1287-1.7546 15.348 8.8 28.584 16.733 40.824 6.7556 11.176 11.43 23.779 20.165 33.489 3.9774 7.0334 8.282 11.133 13.929 19.412 3.5203 1.6343 2.906 8.0965 5.7701 7.6078zm-51.582-65.904c-3.3708-9.277-9.1951-19.785-15.413-27.894-12.593-5.0163-.46774 15.064 5.8889 18.296 3.128 2.841 6.3889 8.1291 9.5245 9.5978zm-162.87-24.763c6.4057.19771 17.517-6.2576 5.8491-9.3577-4.0547-12.954-18.383 10.634-5.8491 9.3577zm14.412-14.667c14.12-5.2636-12.066-3.5074 0 0zm-19.222-4c.88352-1.9219 1.1169-.63473 0 0zm76.914-63.53c12.492-10.107-14.285-5.4066-5.2535 4.0799 1.5891 2.9444 3.6799-3.4602 5.2535-4.0799zm-8.6397-8.4695c5.2554-5.4241.12123-17.912-2.633-24.667-1.4075-10.305-7.5039-18.833-8.6515-29.333-4.3-9.3796-5.8355-20.034-8.9789-29.914-2.5298-18.034-5.2373-2.5409-2.8271 6.807 3.5073 12.516 4.0044 26.151 5.7991 39.469 3.6237 12.927 5.5506 29.874 17.291 37.638zm-25.198-114.67c2.5174-7.8591-8.8644-14.823-2.8093-1.6 1.0424.27744 1.2961 2.4592 2.8093 1.6zm2.2713-18.009c3.0915-7.7666.17359-19.185-3.9157-25.942-6.0905-7.1874-5.0798-19.064-8.459-28.158-1.2099-6.6178-3.4868-22.92-7.6394-19.638.84146 16.236 9.8323 31.094 8 47.59 4.9964 5.9995 4.5846 22.949 12.014 26.149zm25.823-3.3247c22.756-3.3926-15.71-6.2933 0 0zm-26.503-24.449c3.8892-10.161 2.5354-24.475 4.4268-36.218-1.3364-13.097 3.8185-27.746-3.8286-39.333-8.4521 1.7232-16.072 5.5341-11.89 16.52-5.3027.50746-4.4946-16.898-15.703-11.187-2.241 2.8282 11.041 13.622 8.0179 21.866 2.9583-14.71 7.4441 3.2926 7.4659 9.9986 5.7592 11.879 3.2624 26.808 10.178 38.791zm156-9.88c11.983-1.2794 3.5231-17.783 5.3114-26.065-1.1539-12.108.52142-26.013-4.685-36.553.66175-16.246-6.22-7.8851-5.6938 3.783-2.7156 14.469-6.169 2.4976-1.8156-5.0759-1.2565-10.314 3.8686-17.095 4.8831-25.574 4.4513-8.6685 2.005 16.008 5.3262 18.481 3.8064 7.4788 2.6674 19.955 6.8122 28.225 1.4976 5.4767-1.2738 25.538 7.395 18.254 5.9432-6.1776 3.5161-19.183.46655-25.333-3.9036-15.02-9.206-30.005-10.462-45.812-3.667-12.193-4.3525-26.107-.75672-38.228 4.8775-9.0472 18.618-11.928 19.218-19.604-.22322-8.9284-5.6997-21.424-16.781-17.501-9.1394-5.9306-18.614 13.615-13.938 13.93 1.9548-7.268 9.8668-14.837 17.765-7.5111 13.358 13.134-2.8962 6.0434-6.1307 14.854-12.617-1.0154-9.7379 16.695-16.915 14.569 4.4578-10.784-5.5099-23.964-10.662-10.524 6.7272 11.839 2.1655 27.046 3.3597 40.504 1.2511 12.029-5.2156 22.114-5.4388 34.301-2.1721 17.936-10.825 36.905-2.2277 54.272 6.0516 14.841 12.027-4.5019 16.206-5.0629.38512 5.7835-8.3322 22.485 2.6718 21.971 2.0333.7195 4.0579-.10373 6.091-.30032zm-34.528-43.366c.92443-10.678-2.609.8782 0 0zm61.555-10.054c-2.7458-17.179-8.6575-3.8498 0 0zm-68.862-1.2294c6.9554-10.19-6.4643 5.6517 0 0zm8.9426-7.0222c13.17-11.69-6.1002-8.6886 0 0zm-151.85-4c8.4504-3.7937-5.9409-3.4847 0 0zm43.582-4.0937c18.253-7.4882-20.4-1.8125 0 0zm-11.17-2.8341c3.7529-7.2913-15.46-2.5994-17.667-11.847-2.5689-8.2166 1.8093-15.446.67174-24.989 3.7091-7.1496 11.395-14.372 14.498-18.903 5.5378-4.9167 16.522-3.7248 20.475-11.811-1.1992-8.0465-15.251-8.9696-22.838-9.7349-11.307-1.8559-25.19-.6242-30.875 10.76-4.9666 15.366 8.5798 8.1476 15.058 1.2733 14.55-4.6853-2.4954 8.9547-4.3138 15.12-5.928 7.502-10.743 15.492-12.329 25.065-2.769 8.2174 2.5629 20.561 10.198 21.327 8.0863 2.1578 16.803 3.725 26.122 3.4777zm170.09-7.7388c2.3527-7.7456 5.6014-17.828.87781-25.77-8.6176-13.915-8.638 5.721-4.5318 11.696 1.9666 1.5524 2.0683 27.631 3.654 14.074zm-164.54-4.1053c8.2952-.72377-8.1954-.95138 0 0zm-12.556-2.5614c11.464 2.0899-9.0842-17.489 7.4-9.1612 8.9881 3.2355 19.995 7.3502 25.19-3.4157 9.8176-3.445 17.589-10.562 27.767-11.828-2.7173 6.1031-20.008 14.383-2.6904 11.745 12.295-.70984 22.636-6.2066 30.193-15.875 13.393-9.6365 5.0352-12.13-4.2987-2.9979-12.669 8.92 1.5089-8.4546 8.852-9.2344 6.8061-9.6001 15.498-7.1983 22.669-14.256 10.736-5.2256 17.022-19.731 30.917-19.755 9.7134-1.2032 7.9239-17.102 19.133-14.555 8.6515 1.2992 21.905-4.6731 22.91 7.8308 5.185 18.413 8.4646 3.7312.63302-5.1542-6.5773-3.6304-11.84-10.842-20.237-8.7081-9.1772-.07868-15.71 8.2022-25.615 6.0314-6.2134 4.4919-17.141 1.8136-23.711 9.3135-14.295 7.2915-28.447 15.729-43.78 20.078-13.836 3.5989-28.401 6.7787-42.087 11.471-6.4836 7.749-17.043 6.1213-21.532 12.47-7.8903 2.2125-17.134 9.7898-14.699 19.896.30864 4.9977-7.0683 17.77 2.9845 16.104zm12.895-29.333c-17.531-.62662 17.645-13.475 7.3333-2.2066-1.7825 2.823-4.4738 2.2372-7.3333 2.2066zm61.034-10.667c-4.6948-3.5391 12.471-8.1426 16.819-11.494 7.9362-4.7896 15.792-9.5549 23.117-15.742 6.4152-5.6648 14.911-11.475 23.176-12.441 8.7967 4.1862-15.019 7.2998-18.384 13.8-4.7197 4.5206-13.429 10.191-20.128 13.883-8.3979 2.0696-15.808 10.576-24.6 11.995zm-103.31 13.333c13.049-10.831-6.4148-6.357 0 0zm164.68-17.51c-2.4914-3.0834.98618-26.273-7.7605-14.724-11.225 5.4603.75652 16.955 7.7605 14.724zm-90.718-13.899c11.983-4.3318 26.209-4.4453 36.93-12.77-5.7441-4.3162-11.691 6.3781-10.54-9.9543-.5261-13.342-19.648-5.3906-15.187-15.867 4.3256-14.563-8.5737 7.5333-10.175 13.246-7.2135 7.3561-8.8718-17.206.39057-14.068 7.8129-5.6134 5.3834-25.169.47132-10.611-3.9577 18.954-.15434-5.4012-4.9806-6.5672-6.2943 5.6163-19.218 4.1949-17.503-6.1234-10.589-7.8343-7.9855 3.2443-13.988 7.4159 7.0902 5.6465-18.686 4.7895-4.7642 12.366.76652 11.584-6.0049 9.2302 4.2057 16.175-9.0173 3.197-8.1713 20.031 3.8215 15.5 9.9139-1.2085 19.351-6.7216 29.352-9.0025 7.8206 6.1017 2.0685 25-2.62 10.272-8.1872-7.5213-3.0554 17.196 4.5869 9.9888zm-16.503-4.5912c6.1934-4.4741-8.5343-4.5235 0 0zm134.45-6.6667c9.665-7.5471-4.8405-4.7573 0 0zm-164.42-28c.56977-.25543 1.8614-20.643-2.4949-11.938-.34994 3.4526-3.3167 12.284 2.4949 11.938zm79.233-10.667c4.5746-5.55 7.6364-6.9014-4.1891-5.1027-3.8845-1.5453 4.8263 3.152 4.1891 5.1027zm184.83-4c13.517-4.5387-.44086-9.8481-7.6087-4.9938.30183 5.862 6.1742-.41021 7.6087 4.9938zm-191.17-2.6667c.006-4.9997-15.513-9.5646-1.5104 0zm9.8169-2.6667c5.3259-2.2718-5.0332-12.402-2.1426 0h1.7483zm-81.718-6.6667c17.717-3.1212-13.646-3.9565 0 0zm20.575-4.1496c-1.5163-3.8706-14.959-4.966-21.125-9.1837-9.7686.56738 13.966 8.2046 19.229 8.6636l1.5631.3705zm55.333-5.2578c3.7446-3.8549-7.2963-17.271-9.6667-14.151.58286 10.026-21.646-3.6806-15.719 5.8252 9.4383 1.2385 18.208 1.8198 25.386 8.3263zm-43.009-9.5353c3.6632-5.4509 4.263-11.205 12.169-14.203-8.2342-1.0968-20.484-3.6482-26.447.86625-.4751 13.576-12.826 3.4609-16.869 8.2353 7.5357 5.7643 20.614-1.2087 27.804 5.4924l1.7365-.20293zm24.009-7.9345c11.771-2.3187-11.541.07116 0 0zm-43.814-1.9044c5.5706-7.1414-9.8781-1.4836 0 0zm-41.598 466.11c-15.159 3.4621-4.2239-12.163 4.9987-8 8.0278 6.2729 3.2274 9.208-4.9987 8z"/>
</svg>
