<?xml version="1.0" encoding="UTF-8"?>
<!-- Created with Inkscape (http://www.inkscape.org/) -->
<svg version="1.1" viewBox="0 0 501.33 804" xmlns="http://www.w3.org/2000/svg">
 <path d="m268.03 801.33c-8.6914-.95887-15.811-6.5205-23.993-10.734-14.329-10.304 5.8386-10.793 9.464-19.435 4.3033-9.2886 16.707-12.022 24.499-7.6543 12.433 3.5809 15.138 22.512 6.6651 30.842-5.525 2.1897-10.411 7.6962-16.635 6.9809zm-.065-10.667c12.849 2.8611 17.631-17.055 4.6814-20-11.408-3.3254-19.999 11.658-11.246 20h6.5646zm-62.632-37.9c-9.0728.65729-21.568.95652-23.959-5.7669 8.1394-9.5269.73348-15.667-6.0368-21.616.13702-9.5-14.97-8.5195-.26702-19.437 9.5295-7.9701 23.821-1.6066 34.261-7.8154 8.9247-3.1795 18.355-8.976 18.667-17.651 5.7183-9.7312 8.6562-20.623 5.6268-32.067-3.3178-18.632 2.0102-37.112 5.842-55.081 4.0198-13.205-.32788-28.253 3.1703-40.772 3.5786-9.3065 3.2449-20.713 6.7104-30.312 2.8386-10.264 1.3451-25.21-8.7077-10.069-18.611 18.171-32.93 39.446-51.991 57.268-35.957 40.08-74.367 78.294-111.65 117-2.1694 6.7562-12.603 11.733-17.98 19.04-6.2712 11.676-17.939 9.6112-29.128 8.7647-10.88.68184-18.26-6.916-25.892-13.898-2.7268-7.2381-2.7847-18.672 7.0757-21.007 9.0889-4.105 19.263-3.2574 26.246 4.062 8.2901 11.237 16.998.0375 23.329-7.1724 7.2176-9.1372 14.641-13.648 20.468-22.17 26.692-28.165 53.667-56.426 79.704-84.913 6.2767-7.6088 11.811-16.167 19.791-23.387 14.062-16.138 30.537-30.995 43.15-47.901 5.4732-3.7867 10.894-13.694 18.343-19.927 12.367-6.7513 6.5069-18.916 8.1499-30.103-.26241-13.108 4.2022-25.471 6.8791-37.71-2.2644-13.599-7.7088-26.477-11.794-39.252-6.5149-16.604-15.403-32.718-18.537-50.442-3.8077-8.6398.32904-22.138-13.538-21.17-7.3196-9.2456-5.8492-21.844-10.599-32.136 1.3156-9.4254 5.0044-17.906 3.2903-28.617.46357-20.375-1.2344-41.451 5.108-61.088-7.0246-8.7726-1.7082-22.098-3.6308-32.753 8.2735-16.381 19.269-32.107 37.397-38.28 13.117 1.1115 17.628-10.876 5.0008-17.538-5.8327-10.475-19.937-9.3544-24.268-20.722-3.7252-8.7498 2.9374-17.255 7.4314-25.733 7.8706-13.518 13.904-31.153 31.671-33.647 13.432-5.2516 27.591-7.6655 41.346-2.2715 13.266 4.603 28.519 9.9594 37.987 22.067 3.2421 8.6661 3.1912 17.893 0 26.599 1.274 9.8851-4.2562 23.767 6.5771 25.794 19.424 1.9654 39.861 5.0794 54.951 18.4 12.437 8.258 25.672 14.944 34.373 27.566 4.753 7.8604 6.578 16.676 6.8917 26.866.82742 19.19-.43833 38.701 4.1631 57.073-1.4893 12.94 10.212 22.266 13.023 33.288-1.6093 10.216-6.2976 18.449-7.6322 28.837-4.4703 8.2195-20.265 16.527-19.551 23.456 7.8356 8.7817 10.049 21.632 14.404 32.418 2.7371 8.8499 5.7089 17.9 9.0911 25.71 3.122 9.4109 2.7198 20.375 5.2061 29.084 3.6674 12.47.80796 27.691 1.9838 41.211 1.1072 15.437-3.2108 32.225 7.1813 45.35 7.0296 14.515 1.6042 32.039 3.2669 47.851 1.0548 10.898-5.4383 18.437-3.499 29.826-.81084 10.309-2.415 20.59-5.822 29.583-1.8388 14.431 2.9876 30.633-5.9452 43.179 1.9532 9.6874 6.1613 17.559 3.9164 27.924-7.9924 6.513 6.733 17.228-2.5807 23.602.34844 9.3088 10.765 15.112 14.496 23.032 7.806 7.8242 8.218 14.047 14.221 22.938 6.0959 7.9932 9.5482 19.897-2.7102 23.78-7.8648 6.5018-19.564 8.3192-28.249 1.0658-9.0802-6.194-19.021-11.859-30.024-11.731-7.369-5.9615-15.722-8.9016-22.606.75753-8.924-2.2758-19.003-3.4115-29.505-3.3481-10.361-3.2704-21.091-4.9425-32.458-4.3632-11.558-.52057-28.278-.69648-25.832-3.7388-1.7379 8.1633-18.274 2.196-25.746 5.24-10.945 1.4615-20.066 5.0545-31.93 4.396-14.212-4.5681-14.062 11.217-25.657 12.829-9.1209 6.47-21.365 10.454-32.666 9.7524zm-3.2458-4.7874c11.235-.0976 24.859-2.772 32.639-9.4267 2.0939-9.2062-15.508 1.9789-21.197 3.1565-5.1736 6.166-26.682-2.2626-16.864 6.2502 1.8073.007 3.6145.0133 5.4218.02zm-1.5742-7.9796c8.95-.0226 16.736-4.7729 24.671-7.9611 13.212 1.2827 16.947-11.267 21.844-20.705 5.4482-12.864 22.469-6.7222 18.304 6.6223 8.7616 5.0894 20.902-9.7183 7.9816-15.719-11.561-6.4286-26.024-13.515-38.84-10.611-9.0404 5.4252-8.6982 20.964-20.453 21.383-9.6247 5.4628-20.47 15.103-19.356 26.992h5.8476zm278.82-2.6667c13.965-2.689-14.075-4.1564 0 0zm-4.6667-11.463c17.128 3.4635 7.3746-10.551 1.8328-17.904-8.0758-8.332-15.144-17.516-22.252-26.667-11.824 12.439-13.324-6.9946-1.7021-11.207 6.8988-7.4695 2.4852-20.332 4.8999-29.939-7.1436-.73705-20.405 13.907-21.445 3.8458-.18301-7.1484 14.419-5.5106 17.249-14 1.7139-10.194 3.8059-20.679 3.5877-32.266.77305-18.333 6.8826-35.913 7.463-54.4 5.9014-16.086 1.3646-34.526 3.0018-51.574 2.0957-10.342-12.357-22.15-8.6344-4.9074-12.226-.44235-1.1939-18.937-3.0199-27.547-.4432-25.202 2.9344-51.658-3.8578-75.905 1.3138 1.2686-5.1381 24.39-7.7636 7.7422 1.9384-18.039 3.6731-37.736-3.1698-54.327-1.2377-8.6133-5.7605-12.329-10.039-20.343-2.4747-14.206-14.965-8.3196-16.447 2.6915-1.1606 11.293-10.83 19.637-16.131 27.753-8.1235 6.5818-21.805 17.311-12.24 28.39 4.7833 10.674 17.682 18.407 15.334 31.36-9.7278 4.2772-14.397-21.773-20-12.626 3.4191 14.683 18.781 24.875 26.665 37.082 4.2132 5.0652 10.301 18.533 1.1102 21.249-4.8093-3.8967-23.44-26.706-17.605-11.354 4.3857 8.802 10.372 18.412 16.497 24.652 5.0662 8.8436 11.578 11.717 17.588 17.093 10.389 8.3839-1.5136 15.042-9.2251 14.718-5.9842 8.3283-9.1138 17.487-4.1446 26.911 2.9228 10.826-8.3958 19.114-5.3675 30.702-1.0369 11.228 10.609-15.203 12.289-21.559 5.2397-10.468 5.9927-25.218 15.84-31.943 8.2755 3.7622-.10176 19.771 1.0393 28.206-1.0538 16.317-.14357 32.823-2.645 49.002 3.8643-7.2074 8.4295-17.05 7.9584-26.232 10.424-3.597 2.4334 15.14 1.1909 21.082-2.5597 9.0741 2.7906 16.754 3.3792 26.858 6.1351 10.609 2.453 19.013-.569 29.733-13.27.74607-12.211 14.136-15.857 24.331-8.348 3.331.77227 19.467-9.671 18.763.37384 9.541 18.696 4.4986 21.103 12.65-15.306 5.2091 1.6571 11.7-1.5776 21.598 1.4806 7.9759 14.601 11.218 21.186 16.756 4.0512 3.8363 9.2617 1.5285 14.151 1.533zm-49.556-15.31c2.9237-7.445-22.51-2.0836-16.327-16.894-1.9679-12.739.15954-26.967-3.8766-38.829-3.6415-15.061-.71575-32.505-1.8667-48.47 1.6506-11.31-2.4558-21.765-6.3388-31.542-1.5702-12.645-.87592-26.85 3.4368-38.245 2.7759-9.0376.37596-20.961 1.1941-31.09-5.1392-7.894-3.6018-20.599-8.8012-29.824-3.9681-8.4147-4.8635-14.969-9.5166-24.333-4.146-9.5908-8.1226-18.954-12.294-28.459-4.1526-15.706-14.34-1.3385-13.388 7.6674-6.4872 15.373-10.954 31.603-18.023 46.792-5.7569 10.269-11.898 17.984-12.722 28.836-2.0916 15.639-2.6502 32.762-11.214 46.317-.22683 19.806 1.3934 39.866-6.0416 58.683 2.0956 11.681-4.4705 19.128-5.5682 30.567-6.7728 16.527-5.4768 36.635-14.221 52.918 9.9618 1.6018 19.813 8.7134 28.192 4.8523 11.121 2.0041 23.476-4.1872 35.364-2.0597 16.346 1.8952 33.114 4.241 49.264 7.5292 6.9971 3.3361 15.184 4.1304 22.748 5.5854zm-387.04-6.5607c9.8204 5.7414 25.607-16.017 10.472-5.2004-8.7278 8.7074-12.254-13.057-19.546-12.489-14.337-3.2476-8.5657 13.828.06667 17.689h9.0075zm239.61-8.0449c6.3338-4.383 11.338-17.031 10.312-26.095-7.2095-4.4229-21.55 1.198-30.821-3.0301-9.2492.46595-14.678-15.446-15.741-1.6588.0466 8.0956-6.9652 20.928 6.8422 19.401 10.804.19825 19.142 9.8548 29.408 11.383zm142.31.04494c5.8967-1.242-5.6101-1.3483 0 0zm-348.71-16c14.858-14.845.74828-6.3809-6.5373 3.4628-3.6532 9.3078 4.426-2.2452 6.5373-3.4628zm348.37 6.573c10.026-.42037-12.103-4.3965 0 0zm-332.26-25.24c6.5173-1.5505 19.572-22.239 7.3597-9.861-1.3714 2.8395-10.017 7.6021-7.3597 9.861zm191-2.88c13.012 4.6747 15.433-11.628 15.624-21.069 1.5601-16.027 5.2407-31.577 5.3199-47.987 2.7205-13.152-6.4316-28.771 6.144-38.433 6.8963-7.9526 9.7435-17.97 10.807-28.298-9.0954 6.0594-18.626 8.2497-7.9616-4.6662 11.823-17.958 17.151-38.823 28.992-56.893 1.4696-9.6611 8.9119-21.065 9.7413-29.233-7.991-.49303-10.129 12.371-20.016 15.382-11.442-3.6047-18.341 1.2125-27.747 8.1075-8.4232 3.0473-16.607 12.188-21.979 15.938-5.2351 6.5059-14.362 13.962-15.574 24.178-2.4693 10.488-1.387 20.335-5.4539 29.97-3.083 10.732-1.4765 23.85 4.0725 6.8274 2.8755-5.1458 9.4158-26.646 12.956-18.357-1.3883 7.5272-9.5273 20.755-5.0333 27.412 14.526-4.3053 10.547 13.468 5.3773 20.667-3.4504 17.14-9.3073 33.333-15.078 49.413-4.6264 11.797-.99789 26.644-2.4736 39.606-.67807 10.305 15.917 6.0249 22.283 7.4346zm16.346-129.12c-9.9818-6.0964-8.8993-17.958-.0875-25.103 5.168-9.8387 16.204-17.203 19.288-28.998 10.582-7.4907 1.5657 9.7906-.43388 15.627-5.9648 12.051-12.066 24.406-16.458 36.799-1.0661-.0734-.88352 2.5122-2.3087 1.6741zm-52.754 122.67c2.8905-1.5264-2.7591-1.6632 0 0zm-2.6667-5.3333c2.8905-1.5265-2.7591-1.6632 0 0zm3.2377-12c3.5332-6.4743 4.6022-17.638 8.0956-25.48 8.5502-18.512 13.651-38.241 16.25-58.52-8.942 3.4667-14.64-13.738-14.942-1.0262-1.7076 19.155-.38853 39.181-6.1855 57.137.51999 9.6421-7.9425 20.33-3.218 27.889zm-116.97-11.635c15.342-13.612-4.789-4.5328-6.9365 4.74-1.5264 6.3919 5.532-4.6149 6.9365-4.74zm304.62-1.6984c14.017-1.2768 5.6425-13.757 5.7461-21.629-.75557-16.693-6.3053 2.7257-5.7704 10.174 2.2638 3.0987-5.4931 13.145.0243 11.455zm-123.61-32.667c1.9051-5.0541 2.2582-31.193-.76292-20.901.51598 3.7779-1.5774 31.223.76292 20.901zm-136.49-16.667c14.585-9.756 9.7158-13.96-1.3333 0zm26.903-28c9.7213-7.5761 17.774-19.026 27.3-27.68-4.9673-4.5743-15.044 14.345-22.077 19.269-1.0877 1.9858-8.7884 7.3137-5.2233 8.4111zm33.193-36.008c11.543-10.065 21.557-23.6 32.869-34.679-7.5583 1.2602-14.93 14.803-22.415 20.902-2.3907 4.0915-12.761 10.32-10.454 13.777zm36.606-38.811c10.508-15.514-13.049 9.3362 0 0zm-5.835-11.848c14.332-1.6478-.3057-22.626-1.3117-7.6667.19243 2.2687-2.1023 7.0978 1.3117 7.6667zm30.674-10.907c10.918-5.444-12.348-7.9802-14.723-13.555-.25039-5.8208 2.6205-19.366 8.39-19.538-2.5835-10.171-13.07-17.92-15.915-29.025-1.4862-14.357 9.196 6.4588 10.744 11.927 4.4245 9.1189 22.167 17.024 8.2452 3.3771-.47974-10.411-.45837-21.601-4.7919-31.677-1.2289-21.123-.21349-42.839-2.807-63.602-4.2537-10.48-14.2-12.246-8.8084-23.687-2.7294-13.501-18.89-8.4694-29.128-9.3133-13.082 5.3751-5.2844 20.884-6.9304 31.81-.5413 14.13 3.4041 26.313 9.3921 39.259 2.3578 8.4893 5.9193 17.392 9.8451 25.02 1.7825 8.428 7.9336 14.019 7.4882 23.086 2.9454 6.9598 6.8087 19.23 1.9367 26.922-6.258 12.006.13548 18.526 9.2982 25.199 3.8094 4.9371 12.173 2.4028 17.765 3.7962zm-17.709-122.43c-7.0037-3.3262-5.0045-16.283-10.625-21.881-2.5349-5.572-19.061-16.372-3.945-11.486 9.981 7.9161 15.971 20.766 16.612 33.368h-1.8832zm49.791 114.67c8.9346-2.7476 6.8684-23.245 16.463-20.177 7.414 1.8049 18.237-3.2833 18.455-14.893-2.2489-10.714 3.0421-19.807 11.81-25.663-1.7522-13.053 10.141-20.956 13.523-31.833-5.818 14.204-16.761 4.6245-5.8898-4.9175 7.7654-8.07 13.589-17.031 18.365-27.489 7.8476-6.1835 1.7429-22.365 14.597-20.996 4.6032-9.933-4.473-20.495-15.302-18.032-11.627-2.3434-14.054 10.84-19.748 17-5.5765 7.9089-11.009 22.576-10.704 34.333-2.6967 16.115-11.542 29.443-18.731 43.632 6.8917 4.3364-7.5276 20.73-7.3679 9.5161-2.7073-4.1566-13.056 12.138-18.256 16.149-9.7824 6.5957-15.541 21.944-2.1276 7.0888 12.736-1.4474.2888 14.826 3.8304 22.93.99433 3.4931-1.8174 11.907 1.0817 13.351zm-23.083-1.3333c6.0991-5.152-16.183-22.879-2.3581-16.012 5.8939 4.4495 15.051 24.467 11.429 5.8104 2.469-11.486-18.428-13.133-20.404-6.8764-9.6535 11.665.5871 10.319 3.6405 6.5021 2.65 3.3762 7.2975 7.0903 7.6928 10.576zm14.889-19.111c1.7956-6.1329-3.9368 1.7312 0 0zm-13.333-9.3333c1.7956-6.1329-3.9368 1.7312 0 0zm15.606-21.556c8.6786-7.1784 18.441-18.441 5.0726-21.635-9.5153.61103-17.503-2.5058-24.237-9.2604-7.1156-14.655-12.185-10.25-5.1754 2.8954 5.2844 8.3126 20.031 7.4316 23.085 14.151-5.9641 2.9464-28.03-2.761-17.907 10.479 3.1213 6.9894 4.3112 25.829 11.813 11.179 2.4494-2.6031 4.8988-5.2062 7.3482-7.8092zm17.93-18c9.9692-6.1598-4.5043-2.6085 0 0zm4.251-5.5586c5.5706-.8661 14.497-26.738 6.7389-13.557-.29889 2.8679-11.28 15.142-6.7389 13.557zm-11.676-2.4928c5.8705-8.6342-10.96-12.714-13.667-19.576-9.9766-14.487-13.189-6.0388-1.6921 2.2431 3.3269 6.2155 10.765 10.329 15.359 17.333zm71.606-30.565c12.552-15.782-8.0303.39867-2.8173 3.2024.9391-1.0675 1.8782-2.1349 2.8173-3.2024zm-67.776-5.3837c1.0575-.0136 8.6289-13.471 13.311-3.3333-17.64 2.4834 12.273 8.8764 5.1925-4.9907-2.1176-11.263-14.571 3.3524-22.667-1.0093 1.0558 3.8184-3.0475 11.566 4.1633 9.3333zm-31.401-2.6667c5.0266-4.2525-3.352-31.891-3.4291-10.977.8302 3.441-2.4136 11.242 3.4291 10.977zm34.817-18.755c11.947 3.0917 17.547-7.634 19.087-17.531-2.235-11.758 4.2238-21.336 3.0222-32.835-.75-9.8716 2.2713-21.305-3.0222-29.295-.40143-11.426-.23295-21.757 5.4117-30.364 8.4807-9.8562 8.6984 17.255 7.8265 18.051-9.0014-.71852-.70733 19.762-2.5869 27.773 2.1343 10.644 4.3133 21.707 6.7694 32.735 2.0391-5.9383 3.6404-13.241-.0571-20.772-8.728-7.7984 10.019-16.981.55439-24.804-.50197-14.201.61899-27.876 2.3766-41.482 1.6358-14.178-1.9197-29.922 2.9442-43.125 5.0738-13.42 11.966 1.3507 18.702-12.965 14.022-4.8972-3.2604 14.045-4.5581 20.098-8.3074 10.114-4.1847 24.561-9.462 35.025.53163 14.607 3.4748 29 4.0785 43.58 9.7473-2.721 19.552-5.1962 28.667-10.656 12.521.66443 2.4888 14.337-6.4652 12.536-17.559 5.6076 5.9401 2.3506 12.882 2.9007 11.804-2.1915 18.567 10.639 6.3681 16.404-6.6624-.71979-9.7825-14.959-21.532-8.8293-7.1481-4.7737-22.476 13.362-19.775 2.5386 12.964-7.5903 12.354-13.62-1.8269-4.9874-15.246 4.2617 2.025 14.168-1.5543 20.104-9.0132 14.867 9.2784 7.2655 18.076 7.2029 11.905 2.1393 23.593 10.413 26.83 22.873 7.309-5.7274 19.61-11.603 18.332-22.161 3.5106-8.3311 12.674-19.565 4-26.593-6.469-3.6642-3.0889-22.119-13.823-18.044-10.569 2.0178 6.1812-12.431 1.823-19.038-3.4771-9.4801-2.7717-21.302-2.6859-32.773-.23873-17.004 3.8387-38.757-13.844-48.633-14.537-6.9981-25.314-19.303-41.47-22.659-10.172-4.4254-22.643-4.263-33.874-4.8531.5355 16.976 7.1805 34.758 5.4655 51.023-2.684 6.7226-25.508-6.9054-18.924 2.468 5.9044 15.913-12.084 11.526-6.0897 25.703 5.9646 17.421 7.3268 37.032 5.1394 55.746-9.1196 7.0598-14.122-11.5-21.207-15.472 3.8206-8.355 2.8365-17.656-.20486-26.95.76112-13.856-3.4831-19.226-15.038-22.587-7.2679-11.487-14.656 19.826-18.6-.7295-3.5483-6.0126-8.4271-16.27-8.2106-22.836 8.1685-1.5451 6.2723 17.318 14.185 21.825 4.9979-5.9112 12.739-15.517 2.5065-19.257-7.4053-8.3041-12.143-19.588-20.387-27.862-7.3063-5.789-18.976 1.9711-26.705 4.2163-12.355 10.055-25.223 23.146-21.93 40.536-.95947 16.484 1.7313 34.485-1.4571 50.042-4.7154 9.9244-.62453 23.496-2.0024 34.803 7.7635-.6737 9.4936-14.076 19.329-14.891 8.8266-7.839 20.26-7.4379 31.337-8.1602 2.2321-7.6358 4.2289-16.973-.30448-24.954-10.214-9.5756-20.659-20.08-29.029-30.758 8.5428-7.5393 15.934 13.783 25.333 13.43.69039-9.8936-4.6292-17.939-8.2421-27.333-1.3074-5.4583-15.409-24.356-2.8144-16.376 7.4797 7.5618 12.037 17.145 17.107 24.858 1.7554 10.318 5.0055 16.16 7.579 26.619 6.9496 17.306 16.104 33.113 21.469 50.931 6.4235 4.4906 4.1262 21.883 1.7419 25.132-13.242-3.1773-2.2518 12.775-3.1969 20.017 1.5522 18.916 8.991 6.4823 5.7084-5.6585 8.3418-5.7763 3.8613 17.739 13.04 20.329 6.1247 4.5522 15.48 6.9606 23.188 6.7268zm100.42-35.526c-12.863 1.5756-26.087-19.039-38.633-8.087-10.588-5.6477 11.255-10.998 17.719-9.8445 9.0586 3.8164 20.289 8.4946 28.05 12.848 3.055 3.3014-5.5018 4.4102-7.1366 5.0839zm-44.394-76.972c-5.6058-3.0837-3.0461-17.587-.93959-24.16 1.3868-9.0542 7.9649-16.438 11.592-24.973 3.7354-5.8001 19.75-16.686 20.408-5.8795 1.9666 10.672-14.589 5.7137-14.009 16.972-2.7781 8.6056-10.075 12.376-12.546 21.559-2.5006 4.6078 3.3024 16.992-4.5062 16.482zm19.939 111.25c16.018-3.2833 6.9308-13.864-1.3779 0zm-183.83-7.8157c-.85177-9.3381-3.4867 4.428 0 0zm-7.3338-8.5274c1.5525-7.5448 15.589-16.488 10.861-23.209-8.1798 4.4383-18.506-1.9913-4.7548-6.4348 11.064-3.9998 18.515 5.1805 29.435 4.5418 7.5814 1.4158 24.844 12.069 15.971-3.5858-5.2427-8.4542-9.5054-21.79-22.404-18.969-13.517 10.063-3.7151-9.7742 7.4922-5.3082 17.177 2.7249 12.5-7.9711-1.8549-4.4337-10.016.81552-18.079 7.4236-27.499 12.078-6.6735 7.2614-15.563 15.929-14.999 25.354 3.4105 5.3865 3.535 18.063 7.7527 19.967zm104.99-66.324c6.313-8.8468-.19641-23.596.15786-34.771-6.8468-6.7254.35331-23.578-7.6906-26.563-9.7021 6.2663.13393 20.918-1.0607 30.836 8.4018 6.3997-2.1865 17.366 2.37 23.964 2.1779 1.7625 3.208 6.6204 6.2235 6.5336zm-18.709-79.453c13.804 1.6992 14.786-13.837 18.25-23.213 6.7814-10.07 8.3931-21.377 6.4634-33.269 11.575-7.4035 6.1737-21.159.62003-7.3976-1.3745 7.9696-11.505 12.073-10.019 22.792-.59081 20.612-2.6792 1.2336-9.1676 3.1387-4.4027 3.9278-24.047-5.6481-21.48 6.0697.51919 19.973 12.233-3.1563 18.53 7.3218 15.122 3.5108 2.4589 12.018-4.989 17.234-6.9138 5.176-23.521-6.7095-11.662 6.1535 4.0222 2.2738 8.9669 1.5969 13.455 1.1713zm38.333-3.6704c4.9464-8.5261-3.9036-16.987-1.5275-27.397-1.6517-19.068-2.6603 1.5866-4.8058 8.9374.007 8.0471-10.806 23.99 6.3333 18.46zm-13-13.543c6.6713-14.406-4.4721-3.6977 0 0zm-52.182-4.945c10.442-3.6146-7.4434-21.948-7.8178-8.9959 2.391 2.4377 3.6062 10.444 7.8178 8.9959zm-8.3566-19.722c10.959-5.9506 27.918.387 39.18-9.0101 4.7154-2.1411 18.864-16.347 6.3012-8.9899-14.512 11.959-33.866 11.093-51.609 11.333-.1744 2.6185 3.4829 6.8656 6.128 6.6667zm21.631-16.853c12.321-.57179 26.314-6.6851 31.906-18.05 8.5479-7.1385 13.373-11.334 12.575-23.574-3.7828-12.882-19.673-17.64-30.693-23.171-11.766-1.5889-23.19-9.1242-34.698-2.0589-9.2615 1.3283-19.448 7.1123-22.891 15.487-2.3394 8.0653-7.1997 15.443-10.624 23.295-6.4086 4.0601-4.2664 20.948 4.8072 16.044 7.3984-4.5468 12.877 11.621 22.807 8.8813 9.1504-.03723 16.601 6.0943 26.812 3.147zm-11.931-39.147c-12.12-.72306-.90919-23.347 5.8953-10.832 3.3561 4.3064-.94817 10.735-5.8953 10.832z"/>
</svg>
