<?xml version="1.0" encoding="UTF-8"?>
<!-- Created with Inkscape (http://www.inkscape.org/) -->
<svg version="1.1" viewBox="0 0 534.67 798.67" xmlns="http://www.w3.org/2000/svg">
 <g>
  <path d="m402.58 796c-12.044 1.8472-20.66-2.4542-31.556-2.6667-9.6169-12.545-28.544 1.2879-38.26-11.89-7.7581-6.4251-21.676 1.2169-29.004-8.7875-6.9464-13.743-14.705-1.0271-23.748-7.3226-9.4863-2.6295-18.609 12.753-21.372-2.8703 1.265-13.753 19.674-.46079 25.537-9.7964 6.6258 10.817 16.024-12.742 28.271-3.751 9.1178-.59846 24.398 12.467 25.25-1.5823 6.6681-9.779 1.7108-23.748 3.6451-35.233 2.3498-10.554-4.8251-17.3-2.6794-27.907-.532-11.666-4.0255-21.755-7.4902-32.425-2.3649-10.535-10.701-17.231-7.0905-29.284 2.2072-11.89-1.8422-21.919-8.0961-31.662-6.4433-13.858 3.4347-28.331-1.8478-42.653-2.1892-9.3562-4.1683-18.709-10.489-26.073-4.0795-6.3138-10.874-23.217-16.947-9.429-6.5502 13.859-18.725 24.569-25.313 37.966-12.686 13.636-26.003 27.218-38.255 40.934-8.2727 5.1164-21.834 2.5607-22.289 15.816-3.8834 6.8585-8.4846 13.815-10.182 21.129-3.6944 8.497-16.41 3.7836-17.333 14.155-8.122 10.734-20.727 18.491-27.983 29.285-.95164 10.323-6.1325 14.423-10.214 23.862-16.131 20.754-23.22 46.497-33.484 70.187-8.5139 9.7768-23.259 2.238-34.725 3.8114-9.1026-7.5978-22.468-2.7835-31.595-11.079-16.381-3.8406-8.5673-15.524 3.2475-8.0658 6.1683-10.102 21.096 3.5267 21.453-10.299 1.8508-10.136 8.7109-15.599 12.42-20.768 3.4275-4.9048 9.9316-10.209 9.3243-19.497 2.8381-8.894 3.3151-17.387 6.5875-26.693 2.362-7.9822 6.4456-17.646 17.507-15.268 13.063.30411 13.605-16.528 18.442-25.608 4.0078-7.4049 4.7903-20.612 10.352-24.533 3.6834-22.421 14.503-44.43 32-59.417-1.7893-13.821 3.9336-26.444 15.018-34.688 8.1579-11.262 25.63-18.623 22.624-34.561 3.7679-13.482-6.9243-19.709-18.889-20.6-8.6297.9766-16.526 4.2415-26.23 2.9677-7.3816-5.512-18.251-1.2198-27.231-4.3341-1.1757-6.2751-12.236-20.634.0422-21.367-.61018 8.2603 9.6421 11.293 18.328 7.8626 8.0212 7.1352 16.384 8.9494 27.534 7.5068 9.9842-3.1949 19.69 4.5568 27.085 1.7294 4.8089-9.2006 5.7512-18.265 8.5221-28.96-8.2836-7.7412-21.2-4.1994-18.034 8.7227 1.9459 12.873-9.2491 18.955-5.2611 2.3334-.32582-7.4088 4.4488-24.297-7.2081-23.195-12.828 1.2608-6.1452-18.156-20.483-19.17-9.2105-3.1572-19.158-12.946-27.675-2.7154-9.606-.61353-17.921 4.3374-24.186 10.982-7.7599 6.5386-3.7369 20.952-17.382 17.553-12.76-.0814-12.42 14.069-6.2096 19.153.41563 12.124 17.646 6.0092 26.072 5.9923 9.1151-7.4432 16.604 4.4245 8.1192 12.032-4.6603 14.154-15.101-6.1677-25.701.17381-10.755-.43535-22.918 1.6544-31.507-2.6667-11.593-1.5092-18.916 4.6109-30.75 2.6096-15.155-1.9215 7.0168-17.842-8.9721-15.943-8.7278-2.9337-12.526-16.278-14-25.05-4.3483-11.251 5.2368-22.341 14.922-25.896 10.31 1.4766 13.258-11.395 22.469-11.542 8.1505-4.134 22.663-5.7554 29.44 2.1874 5.2933 9.8992 21.601 7.1077 20.21 19.908 6.6038 7.1529 14.563-14.285 25.359-13.876 10.44-.75904 17.218-10.378 27.628-6.0607 11.441 7.3818 27.549 10.691 32.044 24.663 8.5269 2.8584 13.522 12.337 24.933 9 14.378 4.4232 9.6873-12.951 14.036-19.149 1.6287-10.465 14.661-15.331 10.667-27.292-10.052-6.4028 7.6748-20.533-1.9689-25.864-11.527-4.6593-10.432-21.647-5.5666-30.56 8.202-11.558 18.771-21.554 18.202-36.724-6.1896-9.7523-4.4592-21.902-8.1969-32.13-1.034-13.556-2.1576-27.516-5.1364-39.889-1.7731-11.282 5.1548-18.97 3.051-30.433.75775-11.74-3.7814-24.415 4.9632-33.787 2.5535-11.447 13.214-25.027 4.8499-35.708-9.1821-2.5872-18.958 6.9093-28.198 9.5152-54.361 26.279-109.8 50.256-164 76.848-7.7511 4.2271-21.439 8.4277-19.333 20.818-1.2284 10.17 10.086 23.768-2.7701 29.581-7.7171 4.4445-21.96 5.5414-23.897-3.9008.025595-14.11-2.822-30.941 10.811-40.075 6.9581-8.1813 16.156-11.368 24.215-17.25 9.7817-1.567 18.766-7.2219 28.451-11.306 25.755-12.147 50.71-25.187 76.647-36.59 17.916-8.9826 35.322-16.864 53.05-25.833 10.503-5.3474 19.858-10.097 30.251-16.042 9.1659-6.8259-10.912-14.382.18549-23.135 5.4536-11.03 19.569-10.741 27.263-20.332 8.2232-2.902 15.862-8.4706 25.859-6.0553 13.812 1.0494 29.05-3.1402 40.831 4.9373 15.257 4.4259 29.019-6.5743 38.337-17.644 10.669-1.7767 21.773-4.484 33.506-4.7601 11.088.35556 15.208-12.354 26.294-12.285 11.308-5.893 24.082-4.6078 36.497-2.5599 6.5122 9.6532-6.7733 19.717 9.063 25.07 6.3519 8.5853.63169 22.052 2.2536 32.549-1.6875 31.994 6.994 64.413.18355 95.985-11.366 12.146-13.577 31.813-28.165 40.689-12.549 1.6206-23.698 6.024-32.199 15.695-7.0243 3.857-22.342 2.2485-22 10.572 2.2148 16.323 11.096 32.898 4.3881 49.725-1.5371 13.165-10.513 17.161-13.894 2.8402-4.0727 3.741-3.0591 17.604-5.3447 25.459-.66598 12.9-1.332 25.801-1.9979 38.701-8.0818 3.6542 6.2488 16.158-3.2923 23.85-8.0637 10.526 6.5309 21.85 2.8257 33.621-2.7202 14.356 3.7794 20.956 13.932 9.6476 9.9549-.49951 14.275 7.5262 24.393 9.768 4.3945 8.0284 18.006 7.8026 22.647-1.7808 7.3376-5.2688 19.225-1.0623 21.468-11.079 10.826-4.8038 19.714.20968 25.85 9.3947 8.2579-6.5646 17.293-1.8937 24.861 1.76 9.0313 4.6655 15.078 15.948 24.736 13.922 9.5101 10.876 2.7128 27.125 4.7615 40.459-1.0496 11.056-10.449 14.823-19.936 16.921-12.91.39097-25.819.82882-38.731 1.168-.6376 14.962-12.832 17.54-12.096 1.8808-5.5956-10.404-18.267-9.0032-26.596-2.9086-8.7891-3.846-17.891-7.535-26.976-10.399-7.5668.97635-25.325-6.8249-25.773 1.8764 5.013 17.185 11.289 35.699 14.21 53.921-1.6333 11.191-4.3498 22.269-.10289 32.616.49659 10.8-2.9806 18.859-7.9417 28.796-1.8137 10.133 3.404 23.921-2.7562 31.721-6.3955 8.1225-2.5472 22.144-4.855 32.62-1.33 10.914-5.5049 20.782-3.9948 32.347.59368 18.192-5.7976 39.474 9.8349 53.248 6.1584 8.6935 11.759 16.596 24.054 14.948 11.195 1.8235 12.16 12.819 15.133 22.308 7.108 17.474-11.648 11.245-21.558 12.359zm-21.94-8.6161c10.65-2.904 25.225.13388 34.025-3.6706-8.351-1.9238-22.196-.65921-32.333.91971-11.855-3.2696 12.764-6.2284 18.743-4.656 14.604 2.1267 6.4968-14.878-4.2304-10.556-7.2154.53268-32.71 3.5612-15.216-4.377 10.556-5.678.47263-15.631-7.8774-16.669-9.7796.91197-18.509-10.594-27.15-7.0293-8.8851 10.39 9.2656 17.067 14.264 24.783 5.8022 6.7014 5.1934 14.927 14.031 19.968 2.0008 1.4809 3.2457 2.8047 5.7448 1.2863zm-32.23-6.071c2.7769-3.272-10.219-3.6876-1.0787-.0205zm-2.8565-6.6462c5.8352-3.2739-1.8234-13.408 11.461-5.905-1.306-4.8523-20.466-22.151-17.016-5.1049.51479 4.4887-2.4102 12.978 5.5556 11.01zm-254.63-9.5507c5.3819-5.0107-29.434-1.2155-4.4547-.65032 1.4741.2773 3.0093.21219 4.4547.65032zm-8.1858-11.783c8.4667 4.3725 26.644-5.6886 12.989-11.065-8.5713 2.1036-27.205-7.5946-29.058 3.0508-3.0066 12.174 8.9469 6.8848 16.069 8.0142zm18.617-16c8.7204-3.1878 8.9929-16.775 14.647-23.974-6.9614-1.3234-21.565-2.6395-18.863-15.804 1.5082-10.033 3.0785-17.768 8.606-26.092 6.4255-15.355-10.18 3.5458-8.1601 11.524-2.5566 12.113-6.9087 22.597-14.411 32.671-2.21 6.1792-21.253 19.787-6.3718 19.009 6.5364-4.0539 15.86 2.1885 15.921-12-2.5893-11.098 19.801-10.903 12.505-.47471-.56994 3.6908-11.526 15.43-3.8732 15.141zm-6.831-4c6.9076-5.5753 5.5984-20.889.8538-5.9215-1.3461.68624-3.8553 6.5489-.8538 5.9215zm246.97-102.67c6.2558-14.118 12.944 5.273 19.627-2.6525 5.2103-6.2455 21.751 2.1849 13.028-9.5208-14.203-5.8411 11.637-12.616.20327-17.748-6.5548 13.235-13.976 3.7844-19.54 1.9216-2.194 12.266-12.984-.63345-16.144 2-14.794 2.4692 3.9889 7.5376-3.9978 17.009-8.1823 4.1198 5.199 4.5297 6.8242 8.9909zm5.101-8c-11.662-2.1495 3.6261-18.918 6.9141-6.9544-1.9022 2.0927-2.6786 8.4316-6.9141 6.9544zm15.779-1.9585c-13.664-3.8886 10.151-17.279 5.6273-.87971-1.4698.6272-4.0619-.52936-5.6273.87971zm-182.72-2.7081c-2.5839-10 20.187-8.5323 4.8633-12.017.15252-14.033-8.3346-1.5623-15.523-8.798-4.4395-8.6036 3.3269-15.077-9.8739-10.519-5.7023-18.789-7.1287-3.467-7.1888 7.8451 3.2089 2.5068 20.269 1.7484 12.071 13.321 11.329-7.9067 17.227 11.663 15.343 12.274l.27695-1.8941zm11.016-19.333c5.8967-1.242-5.6101-1.3483 0 0zm184.91-8.6491c14.328-14.462-17.18 3.516-3.1342 3.4212 1.0447-1.1404 2.0895-2.2808 3.1342-3.4212zm-177.57 1.753c5.2916-7.1036 20.338-2.0499 21.971-11.104-8.0834-2.0289-28.426 5.9977-28.266-3.6094 7.4959-1.5291 13.455.76932 17.216-7.3131 14.044-3.1367 29.904-4.2831 39.046-17.232 14.894-12.063 18.74-32.178 29.004-47.846 9.1509-18.436 20.325-35.384 22.942-56.008 5.4546-10.434 4.4683-24.573 8.9436-36.304-3.7189-9.968 14.569-24.18 5.9692-9.0205-3.937 18.658.85704 12.127 8.4167-.11667 8.396-8.522 12.167-18.86 20.757-27.461.82753-9.0756-14.993-15.768-6.3519-25.488 6.7306-9.7608 18.663 8.2397 5.0185 5.732 2.6561 5.9661 13.479 24.715 10.684 6.6336 1.4037-9.5892-5.0299-24.177 8.602-25.967 3.3357-13.504 2.1729-27.557 3.2821-41.333-2.8808 10.071-5.228 17.837-5.9892 28.412-6.4169 12.186-1.3288-13.529-.95162-18.844 3.4981-11.094-.65183-23.581 4.6105-33.377 1.6672-17.436 5.0601-36.323-1.665-52.858-7.1005 3.9052-21.587-1.0583-24.785 6.7299-5.9805 12.868-4.7776-11.988-13.183-11.7-5.7707-3.3647-26.123-6.7081-15.482-13.532 19.633 2.2549 40.579 13.873 59.543 3.093 1.5348-14.012-17.905-3.9746-25.854-4.7582-18.236-1.8356-3.6232-5.2072 5.18-8.5122 9.2838-5.1492 1.6141-17.504 8.8068-17.798 9.2223 5.9694 12.612 17.18 22.534 18.93-11.047-14.473 4.8883-4.5808 10.243 1.5478 5.5001 11.62 27.869-5.6294 14.438-7.3333-11.342-.42824-17.717-15.637-17.659-25.977-1.4205-9.4267 2.4463-27.511-12.055-26.023-6.3243 3.071-10.489 15.288-4.6662 21.101-11.498 8.2625-6.4974-14.852-3.4902-20.54-11.153-9.2012-12.239 22.946-13.818 15.439-2.8169-10.55-7.1406-13.581-19.115-11.515-9.9822-1.8382-16.14-2.8083-26.228 1.9994-8.7358 8.6532-17.477.36554-26.988-1.2003-10.697-.65184-19.246-7.7581-29.328-10.533-10.301 12.602 4.0136 13.524 12.133 20.829 13.29 9.1908-1.5384-1.8726-1.4672-8.9129 6.125 10.522 22.728 1.8325 16.606 11.912-5.788 8.3593-7.459 21.231-.57702 29.246-10.637 3.9099-7.1513-13.699-11.678-20.069-8.2783-3.8703-14.966-13.425-24.434-13.089-3.3183 9.1384 9.0885 17.274 1.1653 27.152-2.6902 24.978 3.3514 50.079 3.875 75.16 6.378 7.9547 3.1978 20.413 7.5332 28.208 6.9359.1171 16.277-9.9042 22.558-16.489 12.002-8.2803 11.377-26.962 23.619-34.125-.87529 8.7811-7.3826 16.451-11.373 24.61-6.2033 16.752-21.833 26.621-34.627 38.117-10.822 3.7663-16.154 17.279-23.079 26.298-3.2691 9.5767 1.6315 18.441 11.235 20.25 11.038-1.043 13.321 10.202 1.2082 11.486-8.4393 11.814-.69952 26.005 6.4629 7.3976 8.9666-19.052 4.6843 6.4804-.83408 13.936-4.0237 7.0128-21.991 15.944-15.759 22.889 5.8046 2.8898 20.728-20.569 14.867-4.478-9.7527 10.034-17.774 20.709-23.54 33.272-5.6859 17.36-11.316 34.152-12.032 52.651-2.0343 18.433 10.935-17.038 12.801-3-9.1409 24.719-29.191 41.868-46.665 60.617-2.9937 11.721 6.0054 19.55 3.218 29.504-6.8637-.849-7.1025 17.13.11538 17.314 5.0903 5.9363 8.1558 14.067 17.333 13.003zm126.17-223.85c-8.7961-3.2216-22.115-6.926-26.837-14.065-1.5128-16.277 11.493-12.019 20.667-5.8044 11.478 1.6162 16.89 10.237 8.4834 19.772-.44271.75358-1.5463.0561-2.3133.0975zm-45.946-17.393c-8.7633-.79842-23.934-4.7784-18.891-16.527 9.2785-3.9829 18.918 15.006 26.667 3.8874.59967-9.3906 27.874-6.8772 20.101-1.8174-13.141-6.661-15.655 6.2202-20.21 13.787-2.3283 1.5073-5.1101.46826-7.6667.66957zm-21.72-34.527c-4.1728-7.5846-8.5321-15.496 2.127-20.046 12.707-11.149 29.931-15.321 40.952-28.782 10.534-1.8526 14.355-14.918 20.898-21.584 10.282-5.4308-3.1518 12.728-6.3482 15.774-14.754 16.242-32.444 29.142-49.821 41.468-3.5333 3.455-4.6192 9.7324-7.8078 13.17zm33.576-48c-4.7138-5.1795 14.899-13.521 15.044-22.801 6.4896-8.2526 8.1501-22.191 15.745-27.866 11.743 6.8637 1.4184 14.105-3.522 21.304-7.0904 11.092-15.585 23.739-27.267 29.363zm15.119-36c-5.6778 7.8307-.84523-17.236 6.8015-16-1.1182 5.5238-3.7571 11.113-6.8015 16zm-48.162-9.3333c-8.8223-6.1598 11.602-7.5242 16.455-11.508 13.592-1.6132 12.269-10.949 8.8335-21.645-2.2334-9.0755-5.2734-15.528-3.8032-24.223 7.3383-14.939.55498 12.593 7.4782 16.329 5.3179 7.7827 5.1385 15.049 10.257 23.5 9.278 16.175.79881 10.625-10.99 8.219-9.4909-.15057-19.283 6.853-28.23 9.3284zm83.68 368.63c13.225-.35561 24.11-9.7898 37.118-11.469 5.8128-9.4872 3.2389-21.09 7.3886-31.446 6.0842-16.59-7.2526-30.781-6.5572-46.886-5.8682-8.4306-3.9962-22.065-8.4758-31.84-2.5712-11.857-1.0952-23.998-5.4384-34.673.16066-9.2519-2.9839-23.384-12.644-10.977-16.591 7.9767-8.4985-3.1104 3.3573-6.7823 10.618-6.2094.46606-21.324.2283-31.025 1.3076-17.307-6.8298-8.9164-10.308 1.406-3.2736 6.0142-25.354 21.167-9.5501 20.401 11.496 4.9315-10.753 10.07-4.5227 19.564 5.9119 14.506-27.938 2.1752-11.488 12.436 7.1216 3.0098 28.085-11.334 19.471 2.8482-6.9708 6.3924-24.607 2.1399-24.815 13.152 6.592 2.7301 25.233-8.7067 19.852 1.3418-8.0413 7.1561-21.826.26032-27.546 9.5096-4.7432 9.3299 7.1782 18.482 9.5715 27.501 10.236 17.956 3.1011 39.443 8.1489 58.264 2.7089-4.2205 5.3642-19.784 7.4861-28.605 9.6534-4.55 4.5756 17.226 1.8208 22.916-2.2015 11.063-3.1364 22.725-7.69 32.593-4.6624 11.915 5.0778 12.678 14.593 11.773zm124.21-100.68c7.3021-5.2626-7.5978-16.532.68284-21.624 10.603-13.122-8.6919-10.178-8.6733 2.9278-1.3842 7.0995 1.9684 15.551 7.9904 18.696zm28.302-6.8842c12.894-1.086-8.8195-9.2096-12.931-11.726-13.679-4.7928-16.383 8.3075-2.3998 8.0424 6.7794-2.2299 8.8525 6.1151 15.331 3.6836zm19.389-.52869c13.619-.54818 9.6054-14.954 10.047-24.373 5.7336-3.2528 2.0406-26.43-4.5388-20.277-9.974 9.8042-6.7304-9.8991-15.735-13.21-9.2471-7.4596-20.44-7.5147-29.972-3.2464-.9856-8.674-16.419-15.942-21.602-5.0903-6.5311 5.3288-20.218 1.4282-26.018 12.122-3.015 8.1016-5.7813 14.495.48651 22.163 8.6437 9.9524-17.101 2.5902-15.955 15.128.0302 11.082 13.811 13.957 21.319 16.254 9.1151-1.061 23.894.48739 24.014-11.612 3.2998-9.413 7.7151-15.555.87499-24.534 4.4616-14.414-22.81-2.5497-13.204-16.019 8.868-7.7115 12.834 3.6068 16.996 9.2449 4.0547 7.788 12.987 11.817 19.63 5.5874 4.2605 5.8772-15.16 11.334-4.38 20.591 11.123.19808 15 4.9125 25.289 11.206 5.8635-.0793 25.618-7.3003 13.062 1.6511-9.0046-.36831-9.6653 6.0728-.31527 4.416zm-78.159-9.864c-9.6978 1.7295-15.385-13.484-2.8595-14.263 10.426-3.0715 18.28 12.329 5.6079 14.263h-1.9142zm.42813-5.3333c18.378-4.7599-20.067-6.1109-1.2827 0zm-35.629 4c6.6821-6.5449 9.8728-18.303 20.995-18.958-3.8952-6.4189 1.2723-27.705-10.901-21.623-4.9847-3.4665-12.521-10.551-21.131-10.225-.10887-12.75-13.718-3.4276-15.029 3.7013-7.4036 8.0272 3.1235 19.169 1.7302 29-2.1643 14.402 11.76 15.662 22.447 15.752.89327.31168.63242 2.6934 1.8898 2.352zm67.57-17.333c9.4258-1.4093-12.965-7.938-2.5034 1e-5l1.9142-1e-5zm-322.5-2.7252c20.253-3.2867-16.586-1.9871-.59095-.005zm-31.667-1.2748c12.276-3.6332-10.284-5.7805-1.4191 0zm-66.698-1.3333c8.2371-2.7577 19.348-4.401 27.351 0 15.729 4.9706 10.818-10.853 4.2271-15.835-4.0348-12.373 9.6223-22.053 21.12-20.165-8.3718-5.0898-4.5615-18.778-16.224-20.608-9.057-7.4385-18.22-13.788-30.799-9.0204-11.042 1.838-16.587 14.316-28.938 12.591-6.5131 7.9204-6.75 16.622-3.7891 26.805 1.0511 14.411 20.725 5.8793 20.027 15.881-1.1265 4.5876.83466 12.4 7.0239 10.351zm402.2-14.667c8.9555-2.3024-10.275-4.9132 0 0zm-133.54-8c1.9499-3.3636-2.8699-6.4141 0 0zm42.492-62.667c14.95-4.1601-5.5624-22.47-2.4506-4.896-.42755 1.9091.11599 4.7831 2.4506 4.896zm-345.65-136.21c7.2025-4.7388-.5612-20.907 8.5068-26.887 10.163-14.351-9.5755 3.926-9.3831 11.474 1.2741 2.9946-5.0519 18.073.87628 15.413zm377.01-12.517c10.341-3.043 20.782-9.2952 29.507-15.898 7.576-13.443 12.819-7.0583 21.241-9.2161 10.962-5.4894 14.411-16.328 2.2428-22.652-10.195 5.3188-22.949 11.483-28.131 21.595-.66531 12.698-18.077 14.357-28.076 15.526-12.314-.1429-4.8229 14.577 3.2173 10.646zm26.651-38.755c11.45-4.2181 19.067-16.017 28.693-21.832 1.9122-7.3373-1.2216-18.767-2.0867-28.057-2.4999-8.47-6.2149-15.474-9.5598-22.786-7.1773-11.791-14.1-24.756-18.783-37.526.92888-9.0553-16.227-20.222-7.2727-26.548 2.256-14.37-14.58-13.899-24.94-12.129-7.7439.3721-26.805 1.3494-21.295 11.563 5.033 10.658 16.116 10.726 21.289 18.332 7.1955 12.924 17.84 25.038 15.894 41.04 1.7923 14.438 7.7061 28.075 6.936 43.02-.7741-.82666-18.471-15.225-12.038 1.2054 3.3481 13.569 9.907 25.238 20.331 34.618l1.8245-.57911zm37.382-11.188c13.752-2.0563 9.7328-18.696 10.16-29.081.31431-12.79-.20842-27.004-6.8579-37.691-3.1351-13.748.88478-18.814 4.619-3.4968 2.7285 18.377 6.9859 7.6584 2.0808-4.1243-1.0242-16.808-4.2022-33.708.39479-50.274-2.1481-15.63-10.518.44085-16.97-3.1857-9.0476-7.4674-21.743-1.3534-29.586-8.6514-3.9174-15.483-12.107-3.0066-2.9422 5.7213 3.099 5.4226 16.312 6.3141 20.595 10.851 8.5445 12.676 3.9969 28.237 5.1465 42.543-7.4152 8.4876 2.1629 17.239 6.4076 25.11 7.8629 12.117 6.9214 28.07 5.7227 41.475-3.5442 2.9344-5.2677 11.524 1.2303 10.802zm-161.43-30.76c13.69-.86282-17.632-4.0658 0 0zm13.5-1.932c8.6644-3.7777 23.862-1.6601 20.892-14.926-9.8481 1.979-17.847.79136-25.514 6.2846-4.0164-7.2808 2.6474-18.905 10.672-9.6394 4.7052-6.2686-2.786-11.529-2.5862-21.091-7.6427 1.6333-21.026-1.7199-25.302 6.0634 7.6971 3.4763 21.248 18.567 11.844 21.182-5.0338-7.0061-14.281-6.7769-20.282-12.888-.84944-8.3624-28.969-18.434-14.599-9.3832 1.0693 6.3438 8.8892 10.488 13.859 20.306-2.8353 7.3077-20.6-10.544-14.875 4.3259 7.3718 3.7001 16.133 7.6071 24.291 9.1226-4.3692-13.7 14.309-.0465 19.393 1.0712l1.8789-.36601zm31.793-.64096c9.9118-3.4029 18.47-4.5431 28.813-6.4859 8.7558-1.461 27.279 5.9033 26.764-7.7675-1.5288-10.984-.73493-23.006-6.6159-32.254-2.5652-7.7773-7.2146-17.438-13.798-24.159-12.322 3.7082-19.008-12.753-31.144-4.6653-14.516 5.5381-.27244 7.574-8.0498 15.088-9.9764 6.8129-3.17 17.168-.34092 26.026 1.848 10.261-2.5684 20.906-1.1848 30.071 1.1416 3.3773 1.5654 5.112 5.5572 4.1474zm-152.2-14.672c4.6836.1333 37.168-18.11 26.579-13.303-8.5552 3.1366-17.703 7.7699-26.403 11.919-1.2083 1.0797-4.5714 1.7913-.17531 1.3842zm139.83-7.995c5.8772-4.9286-4.6767-4.0715 0 0zm-67.872-4c6.6019-5.2254-13.898-9.7037-1.048 0zm-37.461-4.5929c6.8939-1.7028 20.622-5.9054 19.369-11.407-3.2399 1.2547-28.986 12.694-19.369 11.407zm31.745-5.1781c-.89692-12.165-3.2998 7.332 0 0zm71.81-5.3401c1.7956-6.1329-3.9367 1.7312 0 0zm-28.889-.88889c5.7811-3.0529-5.5182-3.3264 0 0zm-37-6.8664c3.8828-2.4924-27.051-16.202-10.632-13.606 8.5957 9.0712 20.895 7.0502 31.771 4.2305-4.4744 12.75 16.442 8.5311 23.743 5.3664 6.701-1.8086 25.792-2.1835 21.184-11.524-14.726-7.0587-30.296 9.3661-45.733 5.7333-2.3804-12.077 19.193-3.4956 25.866-10.731 8.7764-1.4441 26.078-5.4603 8.7007-10.549-11.962-6.1579-27.452-11.228-40.105-7.3013-6.6266 4.3555-.42542 27.638-9.7955 12.008 1.5482-15.867-13.419 1.6803-19.536 3.9062-10.916 2.8629-10.254 17.032.65713 18.667 4.5075.99106 8.374 4.0008 13.879 3.8002zm174.33-4.2877c4.9787-5.9385 3.2273-20.361-2.1427-27.896-15.654-7.4587-11.822 7.1237-8.2603 17.05 2.5542 5.0085 2.933 12.513 10.403 10.846zm-63.667-21.001c3.9961-5.7726-19.636-2.897 0 0zm-32.708-3.8453c5.5508.43234 26.642-10.959 14.329-9.8048-2.9238 2.2703-21.383 8.7216-14.329 9.8048zm104.96-25.333c6.7219-4.2023-3.7718-3.6113 0 0zm8.3009-3.1111c1.7956-6.1329-3.9368 1.7312 0 0zm-19.779-2.8994c6.0962-7.839 11.09.9449 14.251-8.171 9.0096 4.0516 9.8034-5.9641-4.2435-4.1894-6.4506 3.017-23.661 5.4985-20.88 7.2357 3.4083 2.7506 5.8395 6.6859 10.872 5.1247zm106.45-9.1006c-3.5723 1.7676 1.9903-5.7131 0 0zm-2.0648-4.8889c-13.083-3.1308 9.0064-3.5667 0 0zm-5.4907-6.8772c-12.06-1.6738 11.54-.36903 0 0z"/>
 </g>
</svg>
