<?xml version="1.0" encoding="UTF-8"?>
<!-- Created with Inkscape (http://www.inkscape.org/) -->
<svg version="1.1" viewBox="0 0 454.67 733.33" xmlns="http://www.w3.org/2000/svg">
 <path d="m163.33 730.14c-9.7038 1.9492-17.002-4.2627-27.373-2.5897-9.6884-1.4904-20.59 1.4244-29.293-3.6421 4.2968-9.9497-10.523-18.101-6.6667-3.4195-2.7512 9.3686-16.38 2.9345-23.843 4.8467-3.316-5.5562-26.762-.65755-18.923-10.241 17.458-1.2997-4.4196-1.176-2.8292-12.207-4.9552-7.5284-11.505-14.254-6.2665-24.157 3.7221-5.5328-7.3398-15.795 2.5414-18.765 14.585 1.1 4.0386-14.491 6.0566-23.094-.71602-12.862 1.3077-26.597-1.0582-38.932-4.8591-6.2023-4.9001-14.447-9.4001-21.271-.36087-10.299-5.4818-17.029-3.6182-27.745 3.8293-11.77-5.2793-18.579-8.4244-27.485 1.8328-10.684-2.9608-17.999.43053-27.1.70301-8.9809-2.5273-15.241-8.5618-21.938-9.1553-7.1815-9.746-19.417-2.3355-28.11 3.841-11.505.19811-24.996 1.3255-37.271-.14272-20.959-.28543-41.918-.42814-62.877-6.6884-6.1158-1.6487-18.415-8.093-25.244-7.5608-5.9532-7.3821-15.399-13.24-22.23.11287-12.749-2.0788-26.045 6.4346-36.802 5.7024-8.9983 5.083-19.471 11.944-28.055 2.3211-9.4629 17.192-15.226 12.04-25.612-5.1156-7.3291-6.6613-17.18 2.9172-21.807 7.2105-6.5279 14.206-13.156 17.592-22.312 21.586-22.239 41.254-47.789 65.921-66.079 3.7353-6.9618 16.39-4.6888 20.484-13.479 7.8162-6.416 17.358-12.399 22.215-20.483 12.113-7.6419 24.736-17.307 40.103-16.621 11.15-.25086 9.7855-8.3386 15.13-17.044 7.8822-14.98 24.386-22.907 40.981-22.509 9.584-1.8424 18.52-4.5263 28.647-3.2693 11.283-.62051 22.498-.98023 31.59 6.7509 10.578 4.0809 23.988 11.624 20.667 24.921-1.3308 10.34.38861 19.679 8.1963 27.02 4.7754 10.295 15.918 24.477 3.555 33.627-7.2535 8.3703-18.869-4.2811-23.27 7.7276-8.0946 1.2507-16.119 4.1617-21.636 10.44-2.6753 8.9467-7.9487 14.538-18.218 11.917-13.483-5.4503-5.2985 13.257-4.6278 18.956-4.7783 12.907 11.511 10.305 9.2295 22.668-.60797 13.04-5.5371 25.966-2.6052 39.301.18733 9.3525-7.2854 16.847-4.5052 27.213-2.6536 10.457 10.602 15.69 6.6823 26.672.98864 17.433-1.0162 35.969 1.7674 52.74 3.9712 8.0619 2.3364 19.085 7.039 26.57-2.1242 23.076-2.8988 46.298-.0372 69.353-1.6791 8.9929-12.682 15.639-13.983 22.365 4.116 11.758 1.441 26.108 2.9838 38.848 10.059 12.712 10.814 30.506 18.118 44.905 3.8738 10.264 5.3429 21.262 9.4948 30.482 2.8123 14.576 9.6046 27.692 12.875 42.261 3.2595 7.8405 5.016 17.939 8.9402 26.121 4.0037 17.438 12.527 34.25 17.333 51.578 5.5146 5.961 15.051-4.1932 21.228-6.8977 7.6428-6.8875 19.354-10.162 28.872-7.9842 11.385 3.6231 3.5705 15.858 10.433 21.849 6.9164-1.5076 13.449-8.0134 19.199-12.618-.78488-7.6494-16.902 5.894-14.327-9.0032.81814-9.1047 18.184-8.8841 22.103-1.1037 5.6822 5.416 9.8216 18.712-1.7337 20.08-5.8542 3.1021-22.273 11.159-11.754 17.39 7.7644 10.249-7.467 16.973-16.759 14.588-12.163-.007-29.03 2.7403-33.913-11.733-7.439-4.3531-19.813.57773-29.112-.27485-7.3234-4.163-7.3472-12.665-11.553-19.326-1.4322-8.5586-6.4992-16.732-8.7685-25.577-10.865-35.602-24.599-70.4-35.702-106.31-3.7948-8.8977-6.2618-18.461-10.213-27.115-2.0323-7.9317-7.1652-15.308-9.9059-23.245-11.604 6.1356-15.768-5.9247-18.43-13.439-3.2796-8.2161-14.479-6.3303-19.495-14.978-3.3738-7.9489-2.3991-15.828-7.7965-21.963-7.5967-6.9258-5.5827-16.818-5.7525-26.037-14.045-11.451-13.451-31.824-23.068-46.439-5.5796-17.594-19.382-31.38-23.285-49.77-4.9109-12.916-16.972-23.737-14.994-38.457-5.9583-5.0888-11.128-11.943-14.86-16.366-9.7073 4.6553.0722 19.354-10.511 23.371-6.5365 6.8842-2.5391 19.237-4.9498 28.264-.48141 21.139-.89226 42.345 2.4726 63.298 8.238 6.7438 1.9648 20.547 7.898 28.415 5.8619 14.777 6.2114 30.262 5.6062 45.954-4.8503 6.9214-6.9796 16.705-10.96 24.764-7.6168 7.4053-4.2806 18.15-4.2086 27.933 4.16 10.942-5.1436 18.641-4.8558 28.552 1.6014 19.715 5.198 39.077 4.3484 58.987 1.832 10.089-4.273 27.223 8.4291 30.988 11.867 3.0762 22.183 11.867 33.03 15.778 9.7582 1.3534 20.981-1.2795 28.275 6.2657 14.146-3.6733 1.8661 20.219 13.124 13.664 9.108-6.4192 18.004 5.2239 25.969.92373 3.9737-11.665 19.42-1.5127 21.86-11.723 7.8716-6.1509 16.927 3.1275 26.248.9317 8.7438.16455 16.241 4.3036 25.73 3.3364 7.1951 1.8855 2.0102 16.771 13.727 15.33 2.4657 10.325-16.07.1946-20.313 10.288-9.1079 4.2098-17.414 1.2697-25.404 1.6253-8.8558 7.2477-15.44-2.935-23.81 3.9563-6.3961 6.6104-17.876-1.361-26.581 1.4119-7.8439-1.0154-14.828 5.8505-20.777-1.281-8.4609-2.2074-18.9 11.129-21.804 1.3334-2.8972 10.194-6.9564 3.8874-15.508 0-6.2211-.86476-18.299 4.2542-9.7406 9.6706 6.3617 8.7423 20.415 9.651 24.292 20.002 3.4035 11.103-8.2022 14.713-16.667 17.003l-9.3333.79608zm7.3333-7.6119c11.683-.81735 15.334-11.2 2.192-1.7405-3.9339.90757-10.325 2.0663-2.192 1.7405zm-91.699-5.1928c20.903 1.756-12.551-6.2003-8.1435 0h8.1435zm75.229-1.863c7.1833 3.1848 27.513-4.4824 14.361-10.256-10.016-4.8067-22.777-8.7915-32.19-1.0642-14.098 1.6817 9.2556-6.5307-.15686-11.758-9.5751-8.0707-17.714-20.506-30.877-22.059-.36952-7.6698-1.6505-19.979-12.141-17-12.95 1.8668-3.4458 16.888-1.0325 24.449 5.1279 7.3967 9.1771 16.418 20.348 14.217 9.1764-1.8233 11.547-1.3043 20.825 0-3.5729 4.1753-14.292 6.1507-22.27 4.9917-13.284.67186-26.35-2.4118-38.171-7.6583-6.2123-7.3562-16.018-6.3094-11.462 6.076-1.3813 11.997 9.9506 13.397 19.384 14.328 11.187 5.6695 14.079-8.4478 24.53-5.7373 7.9309 6.3577 17.917 11.649 29.031 11.202 6.5973.65173 13.209.27257 19.824.26833zm248.03-20.94c10.006-1.9343 12.527-13.61 7.8609-22.042-4.558-3.2717-13.531-10.236-19.632-2.5189-8.7875 5.4221-4.8745 22.482 5.6956 23.359 2.0268.37948 3.9937 1.1684 6.0757 1.2013zm-314.69-6.7118c6.4868-2.8543-6.8792-15.496-5.186-23.527.82237-15.481-6.1427-5.9304-4.9612 4.3752-1.9488 8.2304-3.5103 20.707 8.9785 19.078zm-18.91-7.8184c2.8084-4.6761 6.3193-22.63.16778-26.667-6.0946 1.2779.72083 17.227-1.8946 24.882-.0064 1.4772-.62182 2.6249 1.7268 1.7842zm307.96 0c7.5298-.86533-5.983-4.3337 0 0zm-17.79-2.6667c12.761-1.7749 16.326-10.443 1.1135-3.1211-4.8067-.77772-7.9361 2.5672-1.1135 3.1211zm-65.465-8.2105c11.976-1.8078-11.434-.41501 0 0zm-169.34-3.1449c17.098-1.7251-7.112-8.6756-6.9798-.0773 1.4503 2.2213 4.8276-.20618 6.9798.0773zm153.75-.31554c14.508-.54622-4.9664-16.69-4.4105-4.3958-.75602 3.2491.62087 6.4821 4.4105 4.3958zm102.84 1.0043c8.1687-3.6235-6.6987-2.7893 0 0zm-217.51-4.589c10.077-.12584 24.361-6.0677 6.5548-3.281-4.37-.38631-16.658 2.8989-6.5548 3.281zm226.09-.74436c8.0726-3.5933-3.5959-3.0267 0 0zm-200.58-4.2018c8.5013.42281 20.399-8.509 6.0512-3.5034-7.8793.46776-19.207 5.1161-6.0512 3.5034zm208.07 1.5352c8.5062-2.7264-8.2405-4.2066 0 0zm-281.11-5.3333c10.533-.25808-6.0623-22.199-4.8889-6.8889-.41888 3.648-.17842 8.1817 4.8889 6.8889zm63.778-3.4746c12.482 2.6812 18.435-7.0516 2.8104-5.9868-11.637.0886-22.878-1.2839-32.622-8.1611-12.681-4.2322 2.3316 5.9246 5.3456 8.9375 10.3-2.39 11.544 10.565 24.466 5.2103zm-93.333-2.3274c12.728 4.631 13.088-8.8802 6.98-16.234-3.3375-17.959-.04909-37.613-.20343-56.21-1.0898-12.055 5.5637-29.306-6.0637-37.074-6.0481.73005-28.672-5.1467-14.626-7.9264 11.149-1.0039 24.406 1.8686 34.259-1.5201 1.5723-6.5144 5.5627-25.786-5.8456-22.273-19.893 1.7255-40.509.96104-58.435-8.8032-.15844 8.3168-3.9312 19.975 1.6469 27.101 11.651 3.3208 13.577 7.8721 8.2389 18.297-1.704 12.001.06943 23.416 5.6918 34.184 9.7819 17.538 4.5731 38.282 6.4498 57.532-4.2816 12.576 8.9043 13.598 18.08 12.997 1.276-.0237 2.5519-.0474 3.8279-.0711zm54.333-12.993c5.6803-3.0353-16.388-8.71-12.43-18.121-2.5905-9.8235-5.0566-21.486-6.4165-5.0845-.95094 9.0649-.62711 22.544 11.725 21.935 2.3694.49273 4.6642 1.3728 7.1209 1.2699zm195.92-2.5387c.6196-5.9496-3.7347-18.535-6.3102-26.649-3.9004-13.681-10.342-26.905-13.921-40.685-4.5468-16.688-12.358-32.776-16.06-49.928-4.111-6.1086-4.1789-17.273-10.272-21.405-3.8466 5.961 4.886 18.096 7.4538 26 8.3746 26.83 18.595 53.47 27.42 79.731 2.6342 7.9516 4.601 16.337 8.4666 24.269 1.4057 2.2222.0249 8.7933 3.2232 8.6667zm-251.61-130.33c11.16.90607 7.6996-13.974 20.41-9.5838 10.16-.0558 15.552-13.728 12.449-21.845-12.06-7.4621-6.6105-14.036 5.9327-12.799 9.2608-3.5816 17.575-12.554 14.573-23.415 1.809-9.188-1.9381-15.955-4.9796-24.03-4.0594-10.607-10.826-18.199-12.596-29.577-6.4968-21.32-1.908-44.264-3.0263-66.285 5.8114-7.3546 6.5745-17.74 10.088-26.499 3.8221-9.8051 1.2737-19.417-7.6435-23.639-2.17 6.5065-15.956 12.933-8.3417-.30186 2.4107-7.7878 6.1477-12.631 8.7175-20.708 5.2152-11.858 16.478 12.319 21.115 1.8093 2.6797-8.9263-22.062-9.5235-10.504-18.391 10.71 2.8131 18.706 10.538 27.516 16.175 9.7538 2.271 18.811 4.5961 6.321-3.9034-9.8674-3.2423-16.234-15.096-27.333-17.281-4.4609-11.079-11.542 12.198-18.579 6.7179 3.7615-4.6987 5.7108-18.355 13.703-20.117 8.4429-8.7109 22.652-3.6356 33.735-6.0351 13.391 1.2704 23.265-7.861 32.904-15.888 8.2968-4.954 6.4344-15.401 3.3524-22.74-4.8316 9.6821-15.81-5.5343-25.336-4.8315-11.413-.47658-22.212 1.9293-31.458 8.9298-17.127 8.7816-31.112 21.891-44.972 35.025 4.0248.57976 17.902-3.7022 14.77 7.9748-6.5442 6.3651-12.773-5.9503-19.454 2.6479-1.5548 9.316 6.8552 15.704 14.633 17.387 10.612 4.6285 5.5472 13.971.55529 21.034-4.7563 4.946-3.9588 21.792-13.218 14.898 1.6757-7.8203 3.8626-16.615-7.4886-19.737-10.608 2.8423-19.77-12.425-29.355-4.5511-5.5697 13.188-14.184 5.4503-8.3831-5.4488 4.3671-7.0595 3.3546-14.546 8.6275-21.838 9.6417-2.1096 21.477 9.767 28.446-.95317 7.5941-5.7777 5.7371-16.29 15.745-21.975 10.257-11.289 21.538-19.52 33.424-28.517 10.765-8.4617 23.744-13.627 36.092-18.286 8.0104-4.8241 21.252-3.5714 26.371-11.445-8.8985-2.1366-16.755 2.7712-26.167 1.0042-10.595 6.4768-15.163-2.5937-1.8948-4.9578 11.82-.76008 24.525-7.9747 30.613-17.768 9.8502-5.8846 3.325 14.285 4.1344 20.998-.1019 14.399 1.1751 29.377 3.5907 43.379 4.1179 14.98 12.112-2.5798 18.562-7.1788 7.132-13.345 19.992-6.9216 5.2775 2.305-5.1823 7.7283-19.853 12.399-17.532 22.545 13.737 3.9993 12.704 21.045 14.18 32.687 9.8097-.57969 16.595-10.699 26.485-12.807 7.7604-2.7982 20.433-1.6258 22.636-7.9466-.50778-9.8691-.19564-18.937 3.0686-27.666 5.7632-11.886-9.5506-13.24-17.913-14.016-10.589 3.5089-22.554-11.342-6.1396-7.8374 9.4895 2.9088 20.257 2.7636 15.305-10.405-1.1757-15.262-2.9207-30.501-2.3217-45.832-4.5028-7.3951-4.6575-18.495-13.07-24.985-8.0126-1.6204-17.162 2.0059-23.568 5.9923-4.1776 9.084-19.616 14.707-8.9661 1.8521 6.5033-6.6321 14.481-13.908 24.271-13.683-3.0741-7.9458-13.083-13.375-22.067-13.466-7.0165-5.5435-19.393-1.0965-28.62-2.5335-13.55 1.2936-25.257 8.2411-34.144 18.467-7.0137 4.9898-10.746 9.5196-18.922 16.089-17.109 14.36-30.899 32.257-44.075 49.426-10.558 10.038-16.218 22.984-25.494 34.017-.06634 5.0542-15.215 21.183-11.03 8.4918 6.9308-9.5373 12.884-18.445 20.518-28.229 4.6299-8.509 11.75-18.907 17.167-24.119 3.4014-6.7644 10.72-14.491 15.277-19.092-6.8012-3.0686-14.239 12.64-21.289 17.183-12.096 13.146-26.303 25.108-37.08 38.994-4.6451 6.8322-4.1721 17.002-8.7628 25.438-.21407 16.864-10.055 11.323-4.1457-1.3333 5.7629-13.168-12.16 1.984-9.3333 9.2447-1.0174 6.7659 7.4803 23.363 13.7 19.15 8.276-2.1231-5.736 10.44-3.0331 16.115-1.6267 9.0553-9.0031 17.705-10.202 1.6762-4.1775-12.488-13.193 8.3942-16.839 13.796-6.0029 13.109-12.792 26.648-9.8731 41.424.23128 10.956 8.5527 19.84 12.248 29.91 5.6539-.90175-1.5049-15.035-2.5595-22.325-7.4129-12.451 4.0716-8.3853 5.5735 1.814 4.0656 7.9723 6.1966 15.757 7.0583 25.18 2.7166 28.774-1.3586 57.802-1.5267 86.683-5.6162 8.7491 2.5429 16.287 1.5468 26.121 7.8066 6.4768 10.406 15.187 18.398 21.016 5.7515 8.7687 15.323 7.0162 22.71 11.103 8.8079 1.5766 19.001.80315 26.376 5.0934 16.338.4338-.35826 9.6009-9.3256 5.6119-10.679-1.3284-21.154-5.16-32.251-5.8792-11.357-5.1489-19.698-15.069-26.07-24.56-9.5464-6.9783-11.633 9.8262-2.8756 13.617 16.426 8.4258 35.335 14.677 50.34 25.635 9.8056 9.6681-13.216 3.0628-18.934 4.2434-6.1504.14037-27.642-6.3246-12.886.81336 10.244 4.0692 21.85 8.8258 33.061 7.5252zm-3.9678-41.245c-10.347 2.2629-14.901-1.7083-22.207-6.3978-6.3612-5.2897-12.086-12.348-13.415-20.697 10.49.81353 14.325 16.28 25.91 16.605 8.8201 5.1558 16.008-4.3695 25.712-4.0528.8087-8.4409-1.2278-15.641-4.5042-22.293-11.088-10.21 6.4395-10.386 8.8375.14734-.55553 8.1829 11.191 15.126 8.3723 22.203-5.9086 6.025-12.571 10.445-19.372 13.789-3.1111.23246-6.2222.46493-9.3333.69739zm11.036-125.08c-9.1147 1.4221-3.4496-11.118-11.702-12.83 2.8752-5.3697 7.1917-15.109 8.5519-23.375-.88671-15.013 11.485-5.5555 3.1661 1.5477.86742 6.4328-10.245 25.686-.43324 21.681 6.8071-11.796 3.9901-25.406 6.4285-38.376 10.396-.3425 7.0829 14.845 7.6201 21.984-4.6391 7.1209.3406 19.353-5.5181 26.025-2.2602 2.3572-4.9895 3.0002-8.1128 3.3429zm127-182.02c-6.3915-4.645-3.2365-19.419-4.7201-28.044 1.0481-11.121-4.9668-24.197 3.4132-33.289 8.4918.8935 2.8248 17.039 4.3862 23.952-.2467 12.46-.4934 24.921-.7401 37.381h-1.71zm53.608 329.33c17.085-.28675-4.072-11.588-4.3099-1.8455 1.0816 1.695 2.2927 2.2292 4.3099 1.8455zm-231.19-4.0333c-2.2873-12.663-4.5249 4.0832 0 0zm228.21-7.0876c8.7782 2.1387 19.114-6.6688 14.163-12.879-2.6168 5.3783-18.272 12.658-15.838 13.303l1.6578-.4191zm-1.8324-7.5457c7.957-3.2757 15.804-13.154 13.234-21.333-8.3604 3.4209-8.1064 14.423-15.373 18.969.90124.45011.70009 2.8775 2.1383 2.3645zm-11.553-1.5963c3.5755-4.3437 21.988-17.919 10.052-18.394-8.4204 7.6063-17.708 11.457-12.614-3.7962 2.7585-9.3833-5.9092-16.709-6.7196-24.54-5.2164-7.5269-7.1849-15.937-5.1222-26.05 1.3847-11.054.22305-21.518-6.0999-30.948-7.0888-15.781-7.3143-34.626-19.634-48.009-10.218-1.0515-2.8999 16.477-10.478 20.703-1.2162 10.32 4.3045 17.405 3.7253 28.097 6.7936 16.643 9.6971 36.127 23.246 49.151-2.0388 10.791-2.9193 22.737 7.1236 29.944 3.7158 6.2238 3.4049 21.348 12.989 21.438 2.0123-.8128 1.3768 4.3397 3.5305 2.4037zm16.673-24.205c7.6546.26797 13.441-21.725 1.9963-11.054-6.2856 6.1542-20.847 11.169-1.9963 11.054zm-10.228-8.8656c10.03 1.186 11.169-22.738 1.706-9.5794-4.3005 1.9927-9.0826 9.1044-1.706 9.5794zm24.401-10.745c9.1679-3.5322 3.1262-14.411 1.1502-21.277.18616-4.5269 6.9916-23.54-2.0589-11.019-5.0776-3.2039 1.3558-16.797 3.2238-23.438 5.7903-12.685 2.7219-27.638-.0864-40.855-6.5446-8.9625-1.7108-22.075-3.5688-32.747-1.0192-13.045.94781-27.274-1.9321-39.582-3.8523-6.6671-11.839-16.885-4.8543-23.162 2.2799-14.751-13.059-3.2086-19.545-.2775-9.9181 3.222-17.392 9.7237-20.668 19.802 6.5486 4.6573 5.7952 13.979 3.7307 22.027.24702 12.993 9.9733 23.406 12.13 35.413 5.6661 8.5398 4.4879 19.94 9.1497 28.883 2.7653 10.378 3.8274 16.587 1.8693 25.776 6.9566 5.5901-8.2527 12.025-7.1544 20.117 3.3851 15.109-7.6321 14.427-10.242 14.17-5.0034 12.565 6.7383 16.378 12.663 5.0999 9.6061 5.273-4.0066 11.736-7.2669 16.417 3.384 8.7878 13.289-6.8496 19.024-5.5744 2.9596 7.2715 6.2381 6.743 14.435 10.225zm-8.1267-50.588c-8.2187-5.1644 6.3857-13.875 1.508-22.743-.29023-11.366-2.1903-22.171-4.3543-32.751-3.1947-14.37 8.2069-4.982 5.3392 3.9559-.83395 10.439 5.2291 18.854 5.6671 29.538 6.331 10.097-.1096 15.435-6.6203 21.394l-.33899.60574zm-17.541-97.64c-5.2841-3.5729-2.004-18.736-3.5254-26.822-3.7592-15.612 13.335-1.8729 5.9753 5.9431-3.803 5.2682 3.3478 18.62-2.4498 20.879zm2.4297-26.804c1.3688-6.7756-3.3671 2.627 0 0zm-14.667 3.1111c-7.2597-5.6444 3.4258-11.992 0 0zm.24445 120.64c-1.1047-8.4602-5.6547-.0625 0 0zm-4.8136-8.885c15.708-8.8349-15.488-6.1393 0 0zm13.421-3.7594c2.3932-6.3232.0185-18.09-3.4808-25.356-.99778-10.129-5.5662-19.05-7.8054-28.45-4.6674-7.9756-5.7667-15.952-10.244-23.732-4.4966-8.7616-4.4058-19.778-7.5056-27.764-7.9734-6.4344-19.94-4.1151-15.371 8.2054-3.9531 13.373 11.068 19.18 13.823 30.906 3.8686 9.3462 8.2439 17.489 8.9412 26.521-.17368 10.824.68014 21.591 1.9024 32.337 8.8996-2.2866 16.172.34828 19.74 7.3333zm-56.41-9.9985c3.6305-8.2224-2.4666-17.259-4.0179-25.08-2.7068-5.0945-4.9188 15.582.59188 20.023 1.2194 1.2301.9069 7.7844 3.426 5.0569zm4.3358-31.681c4.3892-13.011-6.672-8.4299-.0481.0164zm-21.172-64.987c5.9918 2.1517 29.036-7.1542 17.291-7.5311-9.5187.16883-17.549 6.8194-27.276 4.8644 1.325 4.7423 6.4286 1.9162 9.9856 2.6667zm43.896-5.353c4.9354-.93492 19.011-13.212 14.102-15.267-11.735 12.515-8.5893-.073-18.779 4.8673-10.504-2.4644-7.5514-11.618-7.7137-21.645 3.6656-13.12-12.294-9.7931-14.861-.99361 6.5544 8.099 9.1203 17.816 17.391 24.092-.72688 6.1504 4.6 8.5876 9.8611 8.9463zm-7.0571-17.314c4.7021-6.747-1.8958-26.742-1.3155-8.9408.64212 1.7166-1.4049 14.651 1.3155 8.9408zm-180.75-4c7.5297-.86531-5.983-4.3337 0 0zm253.41-103.01c.61002-4.0755 14.659-13.356 5.2968-15.655-9.4072-4.0271 6.3776-13.517 10.585-15.869 3.4548-5.5831 14.024 5.2095 12.862 9.6409 4.7293.3345 6.8126-14.153 7.1046-21.105 4.0362-10.488-6.7994 7.739-14.213 3.9566-8.9188-1.2577-4.0364-18.549 4.6982-10.632 4.3411.27833-2.0024-14.305-9.3749-12.317-7.8365-2.2099-22.63 7.0655-25.625-2.408 8.3949-6.4094-5.0431-14.839-6.658-4.8898 2.4828 16.594-17.046 3.8192-2.6752-1.1368-4.7229-6.686-7.0412-11.385-7.5098 2.4637-1.9359 12.352 4.0856 12.472 11.602 17.348-8.6889 5.676-17.026-.32312-5.0841 12.418 8.2489 8.5178 3.9026 21.26 4.992 31.864 6.4384-2.0677 8.0914 7.9364 14 6.3217zm15.117-16.988c15.525-6.5589-9.4566-10.749-.67279 0zm32.778-10.821c13.483-1.3857 4.7725-16.59.4422-23.558-6.6091-10.213-7.8765-22.4-17.831-29.797-6.6001-6.2734-12.738-11.08-21.463-14.424-9.479-4.3442-19.776-10.155-29.043-12.066-7.8955-3.3731-15.643 3.1624-25.27 2.2012-12.387 1.6222-21.965 13.207-26.056 24.175-2.0976 12.185 9.3263 12.673 14.167 3.0369 7.1566-6.2807 16.671-10.543 26.345-9.5128 9.7158-1.9653 16.907 2.1897 25.879 4.1141 8.3142 1.9097 18.452 3.9521 24.396 9.5588 6.7498 4.7121 16.069 10.254 20.298 19.222 9.6769 7.743 1.2991 16.286.65573 25.627 2.4829.57691 4.8879 1.5322 7.4794 1.4225zm-76.962-23.07c1.1053-10.508-1.6171-20.469-12.933-10.991 1.9018 4.5481 9.213 8.0603 12.933 10.991zm-16.424-14.108c15.583-3.3985-11.666-3.3348 0 0zm55.412-4c11.192-1.1126-11.232-3.8215 0 0zm-40.667-2.6667c6.7219-4.2023-3.7718-3.6113 0 0zm33.412 0c8.5062-2.7263-8.2405-4.2066 0 0zm-43.556-4c12.425-5.4908-10.099-2.0365 0 0zm79.222-9.3806c4.8196-8.5924-10.098-14.705-17-18.535-5.561-3.3073-22.657-11.627-21.905-3.4386 8.2411 2.8584 17.539 8.3053 22.986 11.355 5.1595 3.64 9.8432 8.7669 15.918 10.619z"/>
</svg>
