<?xml version="1.0" encoding="UTF-8"?>
<!-- Created with Inkscape (http://www.inkscape.org/) -->
<svg version="1.1" viewBox="0 0 1026.7 512" xmlns="http://www.w3.org/2000/svg">
 <path d="m484 510.58c-159.99-2.0691-320.02-1.5085-480-3.0703-6.5932-7.7304-.80531-27.057-2.7507-39.141l.12668-462.19c25.779-3.5001 54.135-.83883 80.904-1.9729 9.833 2.7102 33.249-6.4045 34.162 5.5967-1.6557 12.934 14.582 21.686 21.736 26.486 13.032 7.9 19.044-13.62 33.359-11.113 20.344-4.4052-3.4485-7.0397-11.981-4.4626-11.747 3.2869-27.865 16.745-35.909.42309-11.581-12.352 5.8915-18.791 16.444-18.473 12.605-8.193 26.011 2.0229 38.952 2.1017 22.201 1.161 45.727-1.2874 67.131 2.0427 15.441-1.4394 37.698.052042 55.868-.051752 83.609 1.0733 167.72 1.9475 251.03.73674 11.212 2.4759 26.956 3.1982 38.848.24542 9.2579-.46536 22.498 4.2323 32.549.29307 116.94.035329 234.04-2.5556 350.86-.51126 6.3492 8.791.66709 27.173 2.5076 39.559-.20352 49.852-.40706 99.703-.6106 149.56-7.5593 14.155 5.9672 17.491 13.221 7.4519 11.674-1.299 27.106-1.2685 36.215 6.9917 4.8378 16.296-12.306 18.501-24.268 15.921-8.696-5.6217-16.987 15.069-5.2393 15.579 10.657 1.4952 28.604 2.3031 25.666 17.382-3.8544 14.006-26.828-.64583-26.681 8.7932 10.365 3.9281 31.423 1.8767 30.523 17.498-6.2769 11.598-26.6.58676-27.549 14.413-3.7776 12.458 3.3469 26.081-6.6946 36.939-5.3218 10.984-10.973 19.97-10.16 32.983-3.2075 46.362-.25455 93.657-2.7389 139.66-122.58 1.6689-246.32.55972-369.34 1.1604-42.062.18078-84.121-.5469-126.18-.82928zm95.731-13.985c-2.6616-13.598-11.67-13.909-19.915-25.114-8.2408-13.915-9.2364-31.817-14.528-46.951-1.569-24.528 1.5824-49.813-2.9331-73.867-9.0644-3.8042-17.817-9.3391-28.785-11.886-13.825-3.6319-27.353-18.731-41.158-14.611-13.994 8.6828-11.301-13.22-4.4058-20.279 6.6698-8.4041 19.582 5.7494 28.853 5.6362 13.414 12.465 22.757 1.1679 36.974.47562 10.726 2.8363 21.086-9.7196 30.442.0528 11.512 7.6403 28.905 10.044 30.738 26.612.70616 11.9 12.408 28.176 17.429 8.1582 8.3966-24.512 20.557-50.804 41.616-66.158 17.724-10.755-9.0686-5.1001-17.393-3.6767-21.03 6.8273-42.417 11.345-64.958 9.261-28.747.93176-58.652-4.2421-85.903 6.1178-12.735 4.4638-28.965 6.3717-42.004 14.132-31.763 14.299-63.573 27.834-95.565 40.833-6.8798 7.3693-25.353 5.2605-28.219 16.128-6.7483 16.402-6.3034 35.13-2.9268 52.776 3.4774 9.2915 3.6872 21.001 9.5759 30.832 2.071 12.855 10.832 23.55-5.5289 27.071-1.1784 8.535 12.812 14.418 16.66 23.859 9.0713 7.0972 25.969 3.031 39.146 4.2567 67.461.74307 134.93.28335 202.39.41001l.22317-2.2809zm55.493 3.9255c10.027-3.7579 4.4886-23.956-6.5807-13.682-7.2612 5.4336-27.422 16.577-6.086 14.491 4.1697-.43984 8.7518.94786 12.667-.80932zm101.94-.024c7.3225-3.8949 7.0948-16.606 12.035-25.699 5.7256-19.226-1.2088-44.146-22.668-49.211-14.557-4.995-29.976-5.1581-45.2-5.7668 1.7006 11.66 12.706 13.649-2.118 20.447 2.8518 11.583-18.14 9.6242-13.396 25.674-4.0123 12.902-2.9857 27.856 9.0514 35.389 20.726-.54794 41.713 1.0965 62.296-.83332zm106.94-4.6131c9.9286-8.7166 9.9823-17.636 9.2247-30.847-4.841-9.5371-19.512-10.552-29.224-14.096-12.812-4.6398-26.656-6.1377-38.848-12.766-12.774 3.1205-12.005 19.404-17.853 29.474-5.0411 9.8432-10.632 28.501 4.811 32.256 21.987 2.6811 44.601.45839 66.83 1.2454 1.6865-1.7553 3.373-3.5106 5.0594-5.2659zm74.225 4.1786c5.0266-13.34-9.4387-20.68-20.673-21.399-5.5558-4.7437-19.356-10.15-25.311-7.2976-1.3275 9.6988-12.845 22.19-2.3986 30.189 16.125-.51768 32.268-.8828 48.383-1.4926zm-693.72-1.319c-4.152-8.9688-11.446-19.091-22.612-23.07-9.5574-9.3779-24.252-5.7612-32.821-13.746-13.034 2.0188-28.316-2.9338-17.942-17.722 5.3945-14.26 5.4014-30.15 14.09-43.272-.82587-17.995-11.366 17.809-18.282-3.203-12.295-1.7246-24.042 4.1907-36.575-1.071-13.246-.86987-28.5-3.8326-38.329 5.2621-12.661-1.6075-23.46-.84159-33.944 6.1859-9.5172-2.9846-19.118-11.297-26.203-4.7959v94.019c49.291-.022 98.586.75598 147.87.0523 10.362 6.0025 26.872.97692 39.667 2.6143 7.9628-.9355 18.345 1.8094 25.075-1.2535zm74.631.0582c3.4524-12.961-7.548-25.271-21.133-19.829-14.367 1.6895-34.964-4.1057-39.448 14.768-.45099 13.274 22.55 3.0968 32.213 6.2569 9.036-.94938 20.52 1.8008 28.368-1.1953zm634.09-.27887c-.50371-13.458-7.3039-25.289-21.13-28.543-10.968-4.7359-22.816-7.57-33.085-12.65-10.063-4.2145-22.138-7.4716-30.292-11.204-16.006-3.9819-31.232-12.679-47.417-14.8-22.522-9.819-47.753-14.431-70.589-25.388-10.621-4.4263-20.431-7.3345-31.588-9.6957-18.774-5.1381-8.8439 10.206 4.1016 8.9145 28.895 6.4418 55.794 20.224 85.333 25.642 28.239 9.9425 56.131 18.707 84.773 28.291 7.1577 4.2201 17.126 6.9708 25.712 10.407 9.4327 5.5942 25.358 8.3452 26.182 21.008 5.4435 1.8135-.18943 14.947 8 8.0165zm-338.98-3.7456c9.9102-4.7683 29.206-2.8884 26.113-19.252 2.595-19.068 2.3054-39.238-5.5034-56.69 10.024-.65887 9.1252 20.544 13.04 29.2 6.0703 8.8484-6.8182 32.181 9.2813 29.295 2.4346-17.992 3.2802-39.937-10.616-53.867-2.8032-10.904-12.725-19.702-17.333-30.605-7.8143-14.789-17.297-5.933-19.735 6.4713-9.4643 20.857-14.828 42.823-13.714 65.793 1.3741 19.077 6.5554-12.265 8.4491-17.933 1.7738-16.276 10.83-32.076 15-48.446 7.5034 3.6978-6.003 19.546-5.5093 28.697-6.0784 20.837-5.1295 42.673-6.087 64.632 2.0145 1.9628 3.2848 6.222 6.6144 2.7037zm344.45-30.621c-2.9289-9.781 12.828-27.022 2.707-30.826-12.646 2.5571-8.8222 22.621-6.0303 31.427-9.576 4.6407-13.718-15.182-11.482-23.605 7.6588-8.2757 9.8489-18.978 15.146-27.383 3.8494-13.616 12.207-25.756 11.824-40.406-9.7696-4.5154-26.226-10.321-33.637-4.7501-4.0337 7.6546-8.2768 18.442-10.358 29.185-6.3088 15.815-10.45 34.228-20.518 47.891-8.5231 14.457 19.633 11.641 26.929 20.133 10.486 2.9208 27.943 22.186 25.42-1.6651zm-671.47 9.0513c18.034-1.3925 36.454-2.699 52.878-10.707-12.437-10.813-17.401-26.452-14.878-42.562.72163-14.194.301-29.452-8-41.148-5.8247-5.0234-18.527-16.27-30.92-11.193-13.04 3.6291-1.7684 20.191 7.93 21.287 11.805.72401 20.221 3.5483 23.656 15.241-1.9248 15.402 7.2964 35.012-7.4604 45.568-10.987 5.0674-27.422 1.593-38.899-3.0697-14.035-4.1326-20.685-16.781-17.641-30.71 4.2079-8.7435 6.1411-27.032 13.81-30.1 9.952 7.5624 22.547 15.106 35.303 13.516-2.5813-6.263-22.801-5.8-26.705-17.954-5.3216-14.305-24.083-5.9373-35.95-9.201-16.05.55558-21.769-9.8005-18.162-24.438-.58107-12.771 9.943-20.85 11.909-4.9042 12.585 3.7032 28.507 1.6464 41.937.95069 10.55-8.0555 30.905-.64408 36.672-11.933-.63134-16.385 5.0158-31.793 5.8533-47.721-14.777-16.321-12.038-40.1-4.8245-58.717 2.4858-10.217 17.031-30.851 8.3654-7.8571-6.4225 8.9128-3.7425 30.484 4.0701 10.562 5.5758-17.504 11.287-10.447 2.7309 3.2118-10.688 12.556 3.3659 33.006 18.871 28.618 7.6694 2.2657 29.839-11.203 11.454-7.6987-15.91 2.33-26.596-5.5509-4.7687-5.9483 15.864-3.4044 32.134-13.287 34.819-30.304 13.278-.3332 2.5795 18.01-.79131 23.549-8.797 16.816 17.327-6.2811 11.407-15.338.24706-28.557 12.324 26.756 8.5881 14.456 6.1171-6.0969 19.88-9.9871 23.412-18.625-4.0225-10.954-5.4229-23.404-8.0001-33.683-7.2622-15.566-14.924-31.211-29.181-41.831-7.0763-7.0695-20.853-16.694-20.102.42418 6.5832 8.7137-3.6263 13.209-6.2617 21.662-5.8343 15.107 14.265 27.702 15.974 8.2482 9.9323.26618-3.7675 19.894-2.0651 28.47 4.1816 8.1285 3.6961 14.478-14.621 14.263-11.227 4.7943-17.165-12.435-29.475-8.2634-15.892-21.494-51.583-6.092-66.431-30.212-6.1742-12.646-12.919-17.133-26.74-12.455-14.113 5.8586-30.835 13.526-30.781 31.333-4.0483 11.147-4.5335 26.591 2.0034 37.529 5.9138 13.373 11.654 25.925 9.1867 40.983-4.444 12.833-13.557 24.524-9.7324 39.156-.47319 16.075 2.3636 33.269-.50338 48.651-12.701 18.032-24.881 37.313-31.583 58.223-.5638 10.278-9.7248 22.791 1.2044 30.922 9.0944-1.2375 20.24-16.687 21.6-27.58 5.29-7.5128 1.156-22.466 7.4427-32.551 3.2967-20.451 9.9295-16.29 6.6278 2.3654-5.3044 14.118-5.4344 32.216-4.7005 48.575-2.199 22.198 23.293 27.869 40.428 30.173 10.38.65831 20.689-.64934 31.042-1.2354zm-55.897-182.79c-3.3103-12.97-.58999-23.336 1.2697-35.423 1.7988-14.709 5.5187-29.018 9.3588-43.662 4.446-12.102 10.168-23.899 17.765-34.351 9.0621 3.8454-8.8347 16.571-9.363 24.539-6.0897 17.36-11.058 33.93-13.13 52.478-2.1588 12.134-1.332 26.381-4.0129 37.339l-1.3428.82987zm10.411-5.2137c1.4404-16.848 5.251-32.203 8.7566-48.537 3.0728-11.089 3.0265-23.2 10.709-32.134 6.9745-17.034 10.494-11.871 4.0663 3.278-4.9198 10.221-3.8469 22.025-9.3608 32.443-2.6724 16.986-9.428 34.197-13.67 49.944-3.338 3.4309-.01-4.0063-.50084-4.993zm148.82-81.308c2.3668-7.6107 33.532-9.1062 22.133 1.4368-7.7566-.90078-15.868-2.492-22.133-1.4368zm-1.3333-9.8324c12.789-16.63 8.1605 9.2349 0 0zm197.33 271.27c-2.8473-12.31-1.5003 10.542 0 0zm4.1757-21.509c2.769-14.839 4.5004-29.757 12.881-43.551 5.3314-10.822 14.639-21.219 4.3698-32.593-12.163-10.948 2.4997-22.332-1.1742-33.876-6.6988-9.612-21.143-8.4782-28.727-17.804-8.606 1.4028-31.971-3.4106-30.241 5.9695 13.839-1.2309 22.691 2.7708 25.294 16.075.73454 32.99-2.478 67.384 7.4259 98.463 3.1356 9.7744 8.2882 34.917 10.172 7.3168zm307.49-2.1886c4.7509-5.1656 13.926-27.346 6.5441-28.675-9.1663 7.508-21.645 12.668-27.692 21.807 1.0453 8.9184 14.721 13.106 21.148 6.8684zm-599.68-2.9458c2.9762-10.007 6.8965-30.026-4.814-34.647-9.8192.62617-22.212-13.606-28.569-8.4392-1.0942 11.65-9.8434 25.269 1.1992 35.305 7.4146 5.1998 26.7 21.498 32.184 7.7814zm574.85-2.6581c6.1738-11.812 19.591-20.329 17.803-36.324-.24533-22.498-.49068-44.995-.73602-67.493 4.038-8.3476 11.257-18.166 17.752-26.82 6.5759-8.3619 18.075-27.157-2.1584-22.706-10.446 1.2444-27.021-3.2239-20.815-16.845-3.901-9.2598-10.034-16.119-12.017-25.226 15.78-12.69-2.233-16.1-5.4528-22.475-9.4548-9.1005 6.684-18.526 14.39-26.99 18.016-14.655 43.271-5.636 63.73-1.6504 12.56.9006 24.393 16.983 14.02 27.163-14.253-15.625-4.5637-2.6361-1.3535 6.4469-.60628 7.3588-11.123 32.569 4.0932 24.349 14.342 5.4518 28.176-7.9935 22.107-20.233-8.4741-3.42-21.542-14.715-9.0238-22.053 9.6962-4.4319 19.677-12.799 3.8365-19.047-6.8488-10.575-25.793-3.4254-29.68-9.4631 9.9549-6.4871 16.096-21.594 13.835-32.102-10.668 8.8378-24.816 2.5928-4.5019-2.1108 16.984-11.516 31.904-33.034 27.136-54.234-16.745-9.4048-4.3454-14.253.54492-26.829-.8926-12.507 6.4601-28.037-6.4616-36.134-11.035-15.167-31.197-7.4345-46.941-8.5907-15.077 10.005 11.887 16.341 15.593 27.239 11.703 10.7 7.5944 28.697-1.0568 7.8756-13.485-25.652-43.9-39.418-72.148-35.678-23.514 2.7556-50.671-6.2321-70.56 9.5738-9.8177 11.506-24.343 20.206-26.426 36.322-9.3582-4.4586 7.7678-21.792 13.489-28.333 3.5195-8.8899 26.827-13.658 17.497-17.662-16.122-1.6792-36.842 11.654-35.333 29.328-7.1737-6.6267-11.613-24.117-26.729-26.457-19.69-6.3908-42.041-1.1828-62.809-2.8763-9.4395 5.8937-19.72-3.476-33.512-6.4e-5h-118.28c5.8794 10.317 23.844 8.9858 32.605 18.029 9.5714 4.7965 17.127 12.842 25.883 19.482 13.346-2.827 18.838-9.8549 29.984-19.551 12.044-7.8888 29.143-10.372 43.877-5.8717 17.396-15.998-4.8927-.26901 8.6056 4.8638 9.982 7.8478 14.984 18.143 13.046 30.38-8.7922-3.4374-2.0827-25.301-16.498-29.656-18.077-11.46-40.744-3.133-56.325 8.5833-10.789 9.9148-14.132 26.681-11.625 39.759 12.972 6.9858 6.3149 21.067 11.572 31.019 8.7764 13.195 1.2598 29.837-2.9306 43.628-7.0291 11.285-14.101 24.809-25.689 31.333-5.8238-7.8088 14.269-15.897 17.529-25.337 6.5901-12.413 11.273-25.21 10.153-39.725-5.4661-12.002-3.5051-20.951-5.519-30.628-10.206-9.0869-8.493-22.452-5.8192-35.31-3.582-6.5628-19.031 1.7953-25.628-10.728-10.395-10.947-25.233-15.746-37.938-21.667-8.5054-8.3222-20.329-10.169-32.779-8.6045-21.273.69415-43.18-1.3817-64.068.99558-10.653 4.588-23.255 10.655-25.947 23.004-10.288-3.7031-18.906-12.726-29.472-16.568-10.449-5.4851-33.077-8.5024-11.015.44867 7.8743 9.7526 22.527 15.299 27.515 25.38-10.416-3.1203-18.837-13.583-29.279-19.565-11.198-4.7122-17.957-10.435-30.767-12.957-44.897-4.0393-90.352-.9002-135.47-2.104 18.739 12.174 37.813 24.164 56.544 36.033 6.0905 5.582 19.135 10.699 27.456 18.158 10.22 6.4556 19.572 8.682 32.174 7.4209 18.772 2.2738 39.282 2.9097 53.873 16.264 5.7538 10.207 7.5812 21.261 11.953 31.68-1.8506 10.34 12.501 7.6782 14.505 20.03 8.5558 9.4485 19.436 15.891 22.508 29.17 5.9486 9.3052 7.0558 19.603 10.95 30.04-2.5874 13.006 10.581 28.364.17226 36.749-8.5649 6.6717-18.112 13.665-26.442 15.822-19.221 13.102-42.516 23.051-65.135 31.6-7.2037 7.8959-3.0984 24.83-7.9799 33.591 8.8016 10.022 20.148 2.9572 30.079 2.8095 11.531-.45162 21.117 4.6101 32.009-.41845 21.062-4.9809 39.59-18.947 60.667-25.152 24.941-9.1774 51.834-17.485 79.176-17.097 10.136-6.6493 27.394.33834 40.33-.94921 24.176.98714 49.338-.37881 71.734-8.4466 14.221.0257 25.125-3.3516 38.429-5.1757 11.123-5.8573 20.949-12.506 29.665-21.742 2.1436-13.587-14.622-20.169-26-18.438-8.2913-3.7089-20.423-11.093-11.808-21.254 6.8369-11.491 2.6039-18.235.47454-30.535-9.1104-6.4558-10.002-14.436.60393-23.909 10.222-8.3329 11.962-20.405 9.9874-32.82-9.024-6.7774 3.6254-19.883 7.4929-28.7 12.283-1.5495 23.143-12.591 36.43-10.697 10.881 11.972 29.795-2.6247 38.923 11.23 15.838-2.8084 32.138 6.9861 38.562 20.104 6.5568 9.4302 1.1366 22.855-.6374 33.496-.78973 21.319-13.276 40.403-24.832 57.54-10.5 18.186 4.8917 7.9563 6.8024-3.5088 14.627-13.546 27.739-34.9 25.054-56.843-5.4375-15.793 5.3037-28.411 18.116-14.017 13.399-2.9632 30.372 2.8804 27.784 19.264 2.2975 12.372 6.2723 22.497-4.0836 33.402-11.003 7.6373-2.8239 22.695-13.867 30.823-11.967 5.8026-11.554 23.394-26.961 23.469-8.7796 4.4007-29.425-6.7701-32.192 1.7254 5.5164 14.276 15.13 25.759 23.735 38.208 16.633-4.0257 32.265-8.0509 49.749-8.458 12.197-8.2958 24.51.19576 4.3998 2.8784-16.07 1.6677-31.836 5.593-48.124 7.3535-8.5645 9.0494 17.1 15.478 8.3261 25.373.30099 9.1307 5.3188 21.323 10.855 31.049 3.2164 23.228 1.823 46.418-4.2271 68.911 9.9505 16.052 2.8142 21.316-14.064 17.987-13.708-2.5414-26.736-9.847-41.166-7.7567 29.345 12.675 61.601 17.19 90.667 30.102 3.5944.33406 2.7965-2.4494 3.5052-4.9666zm-277.9-324.87c-2.3792-13.752-3.8789-30.062-14.008-41.518-7.6183-9.5293-21.58-15.897-30.466-21.03 3.5769-6.9764 20.209 8.1133 26.352 13.527 15.312 11.53 24.552 29.806 23.188 49.135-1.573-.41816-4.0762 2.2294-5.065-.11418zm70.289 324.03c6.0804-13.186-14.274-11.749-2.109.80932zm10.716-13.357c6.653-10.99 12.704-15.735 16.474-26.988 6.485-13.548-10.301-23.854-13.763-33.49 9.4847-2.6126 16.157 14.197 22.143 21.31 8.0104-8.2696 12.718-21.401 13.205-32.8-10.145-14.837 4.5736-15.319 7.1352-.0577 1.1943 12.289.97532 24.35-8.8813 33.202 10.937 9.223 21.63 9.6281 19.71-7.8739 1.5116-23.083-2.8935-46.328-8.1337-68.505-2.4688-6.679-16.102-2.3685-17.979-15.638-8.8758-9.8921-24.118-14.713-33.174-2.3528-18.392 16.45-25.769 40.102-34.848 62.026-8.81 10.533-6.6224 20.323-3.7836 32.421 6.5025 11.666 19.178 20.615 26.235 31.733 6.8478 2.5538 10.364 22.55 15.66 7.0131zm293.43 1.1661c5.017-12.628 12.073-25.838 14.725-38.567-12.004-7.7734-12.232 15.946-17.577 23.384-2.7977 5.8115-9.2118 31.35 2.8518 15.183zm-143.37-18.872c-3.9454-12.708-23.225-4.3414-33.127-10.428-11.162-6.5174-26.421-.0501-36.606-6.8997 7.517-23.588-1.3495-47.026-8.2762-69.316-2.7524-8.6826-5.4525-15.744-10.384-24.535-10.469-8.9389-19.023-20.966-31.679-26.744-6.4942 8.7958 15.677 17.269 20.11 25.942 16.628 27.052 20.663 60.356 19.318 91.449-11.077 16.028 10.465 16.35 21.792 17.219 19.876-.4069 38.59 4.8652 57.852 6.1762 1.7238-.0811.98118-1.7114 1-2.8634zm-764.23-8.6046c3.5958-20.404-17.304-4.5638-5.8308 4.5483 3.3811-.76688 6.8646.7885 5.8308-4.5483zm-30.529-5.8567c-1.5678-20.61-3.5571 22.65 0 0zm46.306-.92686c-15.586-14.889-1.7156 18.532 0 0zm-33.594-.38266c10.445-14.518-8.4271-13.615-7.5284 1.0862 1.1805 7.463 5.5368 3.0925 7.5284-1.0862zm51.129.71977c-3.0753-25.864-12.682 13.191-.15161 1.3131zm22.919-1.0769c-4.6667-10.287-21.785 4.1215-2.0416 2.657 2.9893 1.434 1.9647-1.1649 2.0416-2.657zm16-7.4292c2.2877-13.629-15.021-25.056-9.8918-4.4202-1.272 6.0061 12.881 18.246 9.8918 4.4202zm20.3.42924c.73357-13.802-22.027-17.736-9.162-2.9234.37447 3.4402 12.185 10.719 9.162 2.9234zm-71.005-4.2863c3.1332-15.771-17.191-5.4107-3.2943 1.953 1.8195.88516 2.3788-.91317 3.2943-1.953zm542.04.61967c-9.0409-5.9428 1.8514 4.4883 0 0zm-512-3.9847c9.55-9.9131-2.1711-27.302-5.9647-7.7235-1.9142 5.1906 2.1055 19.408 5.9647 7.7235zm58.003.59826c3.5771-9.8242-20.192-21.593-12.247-7.5646 2.0302 4.5816 8.9224 15.187 12.247 7.5646zm818.66-8.8864c9.3103-12.134-9.9093-15.062-17.077-17.348-8.0775-1.6081-25.989-6.3818-30.953 1.0586-7.423 16.154 15.174 9.4058 23.63 15.302 7.3326 2.7635 23.564 13.768 24.4.98761zm-925.57 1.1624c-4.6059-21.433-7.6295 17.851 0 0zm35.632 1.6886c7.8937-12.967-13.554-25.375-10.842-6.085-1.6096 5.6917 7.9176 9.5177 10.842 6.085zm87.776-2.2449c-3.2566-18.065-19.514-8.5786-4.9833 2.852 2.0036.97848 8.8888 2.8037 4.9833-2.852zm436.57-1.8257c-8.4358-21.299-9.6872 18.904 0 0zm-346.61-.5169c11.904-.69395 23.091-12.947 33.968-9.4999 8.0258 6.9068 20.467 12.71 16.905-3.6977-8.833-6.8291-21.246-10.047-32.318-7.424-13.593 4.7074-26.749 9.6045-41.158 10.328-8.7064 4.7298-24.873-11.068-27.857 4.7123 5.4235 12.391 24.752 7.7564 36.5 8.8596 4.975.7711 9.3078-2.0249 13.961-3.2786zm-132.92-9.324c-9.0549-15.847-9.4831 15.612 0 0zm467.37-2.25c-2.5074-5.0138 1.0733 9.9972 0 0zm-404.03-7.4167c-2.8074-32.038-1.1034-64.413-5.1295-96.333-8.7347 8.0861-17.226 17.012-31.575 13.715-12.14-1.2242-21.667 10.052-34.397 7.6179-8.3645 6.1111-23.606-.0653-31.111 4.4576 16.336 11.144-9.918 16.473 4.8066 22.649 12.227-3.6517 22.989 1.8593 30.092 9.8392 12.384-1.3531 22.568-7.8813 31.978.96201 13.84 8.1962-18.453 14.196-4.5896 22.683 8.0652 9.4604 25.794-4.0396 32.127 9.8379 2.1256 5.6301 8.2935 28.165 7.7976 4.5711zm705.79-2.6163c5.0955-7.8214 10.993-24.759 8.5252-35.05-8.264 6.5593-20.901 10.307-18.623 23.251.009 11.063-.49978 34.397 10.098 11.799zm-723.14 4.5736c-13.082-17.895-5.3146 9.9236.23692.94398zm167.14-3.8914c8.9986-2.2443 28.921-12.733 8.5056-12.996-9.2566 3.3747-33.619-4.4638-30.6 9.7003-.84501 19.576 11.693 6.2077 22.095 3.2955zm-286.76 3.1529c4.7167-17.592-15.963-9.7721-4.5858 2.6549 1.9763 3.4055 4.1872-.31274 4.5858-2.6549zm52.044 1.2022c8.6452-17.192-10.141-16.643-5.5384-.55838.35149 3.661 4.8478 4.825 5.5384.55838zm38.488-5.9624c-2.8273-10.56-9.6791-14.93-19.294-19.294-6.3647 6.7029 6.7451 20.217 14.853 23.888 3.7024-.15927 4.7091-.72096 4.4409-4.5942zm396.69-2.4355c-2.0904-10.437-21.07-13.562-31.095-16.95-15.429-7.5516-7.7018 10.786 5.6513 10.368 6.8492 1.1092 21.965 14.426 25.444 6.5817zm416.87 1.8503c-4.9499-7.337-19.997-13.187-28-7.5652-2.2228 12.638 22.8 6.5514 28 7.5652zm25.934-4.9222c9.8313-14.778-5.0906-20.004-17.267-23.486-10.435 3.2777-24.201-15.914-28.153-1.4739-9.4712 10.927.55745 17.483 11.999 17.59 11.973-1.6472 23.099 15.029 32.166 10.015l.98253-2.0705zm-676.28-8.631c-.41558-10.283 11.988-28.671.0672-33.378-9.0519 9.758-2.5846 27.597-6.5942 40.403-2.2008 13.579 8.5807-1.1043 6.527-7.025zm-206.06-4.8347c.57932-16.691-17.401 2.9614-1.9204 2.1812 1.6064.67875 1.5054-1.1266 1.9204-2.1812zm392.41-4.4068c-2.7475-8.4416-6.6574 6.6846 0 0zm-379.96-2.1241c4.8214-12.969-23.755-12.167-5.0322.60341.85019 2.5368 4.4768 1.7541 5.0322-.60341zm31.688-.0458c10.421-7.1972-27.353-6.8382-14.701 1.2933 4.0454 1.0133 11.107 2.2158 14.701-1.2933zm331.01-1.427c2.8828-16.999-10.969 14.176 0 0zm305.55.18494c7.5301-5.7794 16.537-9.3949 16.36-16.683-8.3816-.005-18.824 13.712-30.974 9.3501-13.346-1.7096-22.694-15.799-34.007-24.207-8.6712-5.689-16.626-16.073-26.521-17.127-13.465-4.5376 12.702 12.023 17.729 17.004 12.09 7.102 20.474 19.506 29.912 28.319 3.8572 9.4353 18.928 8.8325 27.5 3.3443zm-709.67-2.6021c4.1519-15.691-13.524-18.813-6.607-.0572.73102 3.0209 5.8648 2.8542 6.607.0572zm-15.946-1.8098c-4.6333-18.27-8.1233 7.279 0 0zm-31.571-7.9215c10.931-11.576-5.3427-22.333-1.9157-36.466-.07123-16.883 18.667-1.579 18.82-9.022-10.185-3.8709-20.626-25.306-28-20.553v65.301c2.6683 1.0721 10.701 6.4297 11.096.74084zm962.35-3.3333c2.8971-13.605 12.23-18.051 25.149-13.271 12.902-2.12-13.93-13.131-17.266-7.7289-7.8819.0187-11.548 32.639-14.545 14.124 4.1548-11.302 8.3635-22.79 13.076-34.124 8.2015-2.4116 24.99 9.3786 20.106-6.1956-10.047-.86158-29.451-7.5032-30.065 8.4213-5.35 11.013-6.4953 26.969-11.207 35.108-7.6174 1.0763 5.2733-21.549-3.934-11.333-7.5298-7.8509 3.4052-23.492 5.4201-34.213 2.5966-12.05 12.691-25.164-.23061-35.057-9.5583-16.994-24.375 2.4079-5.5643 7.817 10.572 7.2854 1.9363 17.772.0677 29.757-4.9525 7.934-4.5759 32.303-18.077 18.437-15.128-11.592-5.9981 9.4101 2.9862 9.5109 4.1036 11.888 6.5468 17.049 20.11 18.499 4.7145 1.4352 12.465 9.4402 13.974.25005zm-204.49-2.2148c16.558-7.3105 7.0531-19.131-2.0967-28.111-9.7004-12.269-17.691-27.332-22.759-41.617-.56217-10.423 8.8895-19.538-1.6176-27.724-9.3084 2.3619-32.319-2.1401-13.827-6.5567 13.013-1.7662 15.621-22.043 1.8012-16.588-8.975 7.8038-21.552-1.4212-21.209-11.63-13.447-11.756 9.3483-27.813-3.534-39.975-4.5178-3.3515-12.821 17.188-24.545 4.5414-9.1468-12.045-14.427-.55052-16.926 9.2248-2.0896 11.034-13.172 16.482-13.841 27.298 16.94 4.0766 11.807 3.3113 5.5659 13.782 1.2698 9.9614 23.125 9.341 7.6748 17.904-7.9692 5.728-16.758 19.611-.99313 22 13.82 2.5152 29.64 3.1163 38.682 15.59 5.0598 10.012-14.916 22.783 1.3991 24.252 18.916 10.153 33.459 26.975 50.715 39.739 4.1981 3.9019 11.873 1.7686 15.511-2.129zm-94.661-140.17c-11.156-13.63.62868-9.2016 10.878-5.285 4.5069 3.0952-11.206 17.812-10.878 5.285zm14.369-13.972c-7.4384-.36236-29.59-7.8056-10.667-8.6298 5.2132 2.0537 30.917 12.948 10.667 8.6298zm215.95 143.19c1.0987-9.9104 20.504-19.657 14.275-27.713-10.529-1.1706-15.739 12.366-25.049 16.72-19.758 3.005 5.1261 21.764 10.135 12.327zm-872.03-.16826c-.43409-8.8596-16.802-27.414-15.254-8.8487-.30002 6.0824 15.79 18.866 15.254 8.8487zm34.728.91331c7.6003-9.893-16.817-17.327-9.9821-.26044.96863 3.8099 7.9474 2.8977 9.9821.26044zm-22.703-11.58c-1.5756-16.872-15.476-14.986-5.612-.0916.94877 4.5412 9.2071 7.7847 5.612.0916zm916.09-1.3333c5.937-15.48 7.9343-32.85 16.633-47.528-.6212-15.244 17.518-2.246 26.059-2.6223 8.0709-14.077-14.942-14.036-24.585-13.516-7.073 10.886-7.7382 23.327-12.27 34.356-2.6199 11.498-7.5589 22.754-9.2036 33.348.86749 5.4638 3.9577-1.6016 3.3672-4.0372zm-78.963.31141c10.28-9.7997 15.695-13.995 26.212-18.732 21.258-15.645-16.457 2.8365-2.4398-8.9333 13.625-11.332 2.1445-19.378-5.427-8.98-13.78 1.1354-12.69-14.602-30.985-9.3396-5.9666-4.7755 2.0691 18.231-9.2387 7.3242-5.3802-16.977-19.476 7.4886-11.56 11.639 19.762-1.509-8.5566 12.359 11.993 11.043 8.0265-1.4393-11.999 17.651 5.2767 19.398 5.36.27912 11.77.25186 16.169-3.4199zm-775.83-9.2204c12.309-2.9025 22.449-6.9542 31.481-17.41 9.8436-15.261 18.106-8.092 4.8328 4.0326-6.5928 12.008 19.656 7.2411 22.044-2.3295 11.39-9.7381 2.5584-27.568 4.9366-40.913 4.7925-11.281 3.4184-31.065 19.042-36.834 16.564-12.356 38.421-9.5855 55.09-21.768 17.413 5.5993 11.976-12.028 2.7999-18.869-13.081-9.3251-10.048-21.456 2.4895-29.369 9.8682-9.136 21.766-19.271 3.4672-25.355-18.628-10.773-37.054-23.174-55.845-36.212-9.819-6.5197-17.065-15.598-29.907-11.914-11.863-.88055-32.112 9.1096-20.075 18.649-2.027 7.219-22.698-11.696-18.898-1.7645 1.9116 12.95-15.153-6.641-16.933-12.866-9.9362-5.5173-12.502-21.899-28.647-16.466-15.653 2.4094-34.813-5.2539-46.702 7.9643-15.959 9.2065-26.572 28.3-35.312 44.927 2.0491 21.364-2.7918 44.341 3.9071 64.616 9.7023 20.825 31.21 35.259 53.858 33.707 9.0946 11.324-20.51 4.4317-28.071 2.9906-6.3665-7.1476-26.096-15.286-11.015-.58704 7.3657 7.6627 15.076 10.825 25.545 16.874 15.596 3.6593 34.289 5.6736 48.854-3.2815 20.928-7.3497-.085 11.697-10.946 10.245-23.688 6.5417-53.113-1.9844-68.719-21.49-7.0635-2.1886-15.249-22.815-13.182-.54097-1.7464 13.559-.03261 25.732 12.313 33.648 3.9047 18.37-14.513-18.707-11.872 2.6468-3.038 13.283 2.2712 24.479 11.974 33.189 7.9822 10.281 18.283 9.7066 29.586 13.535 4.8317 16.644 16.194-3.4466 24.618 10.317 10.604 7.3519 25.474.41242 37.856 1.8048zm7.4683-91.758c3.2394-15.531 20.684-9.8897 5.3075 1.6415-.74903.67891-7.6872 2.3275-5.3075-1.6415zm829.68 86c14.419-12.055-25.265-.27777-4.2858 1.6667 1.6066.25025 2.8104-1.3228 4.2858-1.6667zm-562.42-8.966c5.5118-5.1512 25.602-11.246 18.45-17.251-7.8537.73192-29.92 16.042-20.833 19.884l1.5378-1.6993zm500.36-30.793c23.222-4.1539-7.5043-4.436-16.049-3.1395-22.072-2.3979-6.9938 9.969 5.9021 4.7946 3.3921-.46366 6.763-1.1224 10.147-1.6551zm-541.22-12.416c-1.4306-10.084-3.6095-21.522-16.66-16.659-14.619-6.1496-27.999 13.899-6.2593 11.834 3.9048-.13447 19.276 13.109 22.919 4.8248zm-53.118-15.512c.45047-6.8622-18.93-11.864-23.994-20.365-7.6093-2.2302-17.883-20.321-24.006-7.5122 2.7799 15.71 16.272 27.366 32.485 27.297 4.7644.456 11.233 3.838 15.515.58037zm19.152-4.6545c8.6193-6.0643 26.027 8.8278 23.943-10.018-.33816-2.378-1.8598-4.8426-1.5463-6.9193.19709-1.3057 2.0614-2.3011 2.454-3.5166 1.9639-6.0801 6.074-11.17 9.3306-16.664-4.7817-18.1-9.579.10298-20.85-10.207-6.4976 2.1291-14.461 22.144-19.816 2.4781 15.759-9.4138-18.067-4.2303-13.16-1.75-8.6612 9.3031 22.624 25.861 8.7576 23.657-5.5316-6.7592-28.756-22.842-21.027-4.7008 10.262 8.2352 15.704 23.077 25.86 29.641 2.388.82877 4.0492-1.2846 6.0556-2.0002zm-13.053-37.548c.13208-14.088 4.7166 8.9057 0 0zm663.18 1.1443c-1.942-7.9439 4-39.683-3.4228-31.085-13.176 11.138-4.5038 28.808-5.9346 42.216-4.4801 16.909-6.813 12.138-1.555-2.6958 5.145-12.824-8.7698-30.944-10.702-9.702 5.1434 10.47-17.169 29.615-.77926 29.013 6.3379-8.8075 17.439 15.213 22.45 5.5508-.0185-11.099-.0371-22.197-.0556-33.296zm-228.04 15.412c.43292-17.865-12.796 13.146 0 0zm-458.57-.17007c-.58795-10.048-20.01-19.475-11.154-4.7728 2.8762 1.6618 9.7426 10.869 11.154 4.7728zm481.73-12.726c2.4446-17.36 14.866-5.6606 19.109-12.972-1.1787-10.252-8.0785-26.403-15.42-11.54-10.28 7.0853-16.902 12.348-26.914 5.7743-16.548 4.2034 1.0587 14.706 10.267 16.708 4.3308.66731 8.8156 4.911 12.958 2.0296zm-481.17-21.256c14.578-4.7714 33.641-2.3946 48.177-6.9532 8.8375.82649 15.042-16.515 24.503-7.8547-5.6106 10.629-18.034 21.013 1.5147 14.339 14.81-8.0613-2.0676-20.405-4.0771-30.48-6.7698-14.843-28.117-9.9598-40.927-15.899-19.58-3.1074-37.82 7.8642-47.809 24.127-12.57 10.896 8.4152 21.439 17.907 23.873zm452.49-3.9759c-2.1668-6.1274-10.087 7.6549 0 0zm13.624-9.4606c2.5321-9.1253-21.948-29.299-17.476-12.254-.58517 8.523 14.298 24.878 17.476 12.254zm-21.333-2.873c-.40064-16.398-18.836-15.231-30.667-17.497 1.7414 12.094 18.603 10.981 25.5 20.292 2.2664-.67551 7.0089 1.9799 5.167-2.7943zm241.05-36.538c-10.131-23.14-1.4894 22.856 0 0zm-952.09-24.283c7.872-15.976 20.596-29.001 35.707-38.384-12.818-.81586-25.636-.83139-38.454 0-.23672 13.012-2.8896 29.956.49556 40.667 1.8739.87376 1.773-1.1253 2.251-2.2823zm384.2-29.83c18.269-12.161-12.284-6.7273-19.958-8.7017-19.743-1.4779 4.0806 9.3103 8.9705 14.433 4.2129 3.9294 7.7355-3.9166 10.987-5.7312zm364.12-6.8873c-7.9543-1.1858-36.79-4.9457-17.006 7.8358 6.3388 12.261 12.015-3.0388 17.006-7.8358zm204.05 4.3333c-4.5361-14.37-18.788 1.1609 0 5.3333zm-825.73-.18738c5.5762-4.7034 37.52-7.8579 20.104-11.813-8.8944-6.2313-22.627-1.6218-33.042 1.3841-1.7044 8.8441 4.2474 15.699 12.937 10.428zm765.76-1.8448c5.8696-6.0303-29.537-4.4646-14.027-.63444 3.724 2.1466 11.11 5.0182 14.027.63444z"/>
</svg>
