<?xml version="1.0" encoding="UTF-8"?>
<!-- Created with Inkscape (http://www.inkscape.org/) -->
<svg version="1.1" viewBox="0 0 805.33 994.67" xmlns="http://www.w3.org/2000/svg">
 <g>
  <path d="m304.65 985.33h-9.6212l-7.2722-5.7203 1.1615-7.914-3.0881-8.9826-1.8276-1.8276v-6.7239l5.9512-8.6851 6.1743-2.8132h12.676l7.1775 3.3333.0104 1.5034.0104 1.5034 4 3.3197v11.71l-3.3311 5.3339 7.5374 6.0101-1.7848 7.111-8.1529 2.8421zm-2.6475-14.194 2.6667-.74699 6.4919-6.2786.0874-6.2187.0874-6.2187-4-1.9289-6.0402-3.1288-7.5842 3.9219-3.4272 8.2741 3.0516 3.0516v5.0392l6 4.9809zm176-36.722-6.6667-.0989-10.667-3.175-4-1.6093-14.027-1.1453-4.6396-4.1881-15.604-8.2007h-13.863l-2.5333-2.3446-32.228-1.7904-3.4317 4.135h-3.9829l-12.715-9.3333h-1.9318l1.6879 6.7252-1.8028.69181-1.8028.6918-7.7389-2.9423-1.7627-2.8522-1.8046 5.6857h-2.114l-9.373-8.8399-3.0226 4.8399h-14.179l-6.263 6.6667h-4.542l-3.3197-4h-2.3401v5.3333h-4.7395l-7.194-8.1985-2.7331 1.6892v5.176h-2.0395l-10.09-5.408-13.264 1.7595-1.4309 2.3152h-11.249l-6.2887-4.4048-8.6998 3.1459-10.828-2.4328-13.168-9.6663-1.5255-3.9754h-6.7504v-1.2016-1.2016l-9.4858-5.5967h-4.1454l-16.419-8.8676-7.5084-4.9197-21.775-1.2253-7.7236-5.4468 6.019-4.8739h3.7046v-2.3699l10-1.8674 14.164-7.7627h7.6784l.82404-1.3333.82405-1.3333h9.2121l4.6305 2.4018 24 2.5725 9.9095-1.2554.74594-2.3502.74593-2.3502 4.8253-4.3668 8.44 4.2104 7.6856-3.8341 14.314 1.3011-7.3803-7.8573-5.2864-10.369v-9.8508l2.9549-5.5359 2.9549-5.5359-1.9549-1.2364-1.9549-1.2364-5.6735-.0408-3.13 3.7714.37888 3.1143.37887 3.1143-1.0417 6-1.0417 6-4.5375 5.4721-9.0764 4.5279h-14.1l-1.4352-2.3222-8.1341-1.6268-9.2546-7.3843-8e-5-1.5563-10.444-11.313-.92325-6.7128-.92324-6.7128 1.8936-23.038 1.9679-2.6667 3.6273-20 1.7261-3.3333 1.7262-3.3333.008-3.4965.008-3.4965 3.256-9.8369 3.256-9.8369 4.9427-9.3333 7.778-12 4.5891-8 3.426-6.6667 14.752-19.71 2.7912-4.7129 29.546-31.577 8.9957-10.758 3.2925-3.9084 11.494-17.333 5.5147-12 .93272-8.4849.93271-8.4849 2.2824-4.3635 3.1249-19.325 2.426-1.4994v-3.8304-3.8304l4.0855-11.08 4.0855-11.08 3.829-4.231v-1.9128-1.9128l9.8679-14.631.55965-7.6667.55965-7.6667h-2.7482-2.7482l-1.6481-2.6667h-22.352l-1.4309 2.3152-13.085 1.7358-7.0316-2.6734-16.206 3.7806-4.6134 4.1751h-6.356-6.356l-7.7448 4.575-8.2752-4.8883-16.028 1.8134-4.3635 2.3231-12.791 2.9133-10.272-3.0777-20.293 7.0079h-4.7459l-10.327 5.2651-21.458 2.938-5.21 2.7883-29.568-1.3397-12 2.5268-17.333 5.8214-31.23-.35167-10.103-5.2237-.7793-6.4246 8.7793-4.6264 22.639-.70688 3.2662-6.832 6.0948-2.864 12-3.4988 6.5422-4.1337 23.132-.004 13.545 12.667h2.6451 2.6451l1.6481 2.6667h14.352l.82404-1.3333.82405-1.3333h3.0324 3.0324l.8066-.8066.8066-.80659-5.8354-5.7297-1.6667-2.9771-1.6667-2.9771.014-15.37 5.9868-7.2006 9.3333-2.2984.66798-30.292 1.9993-2.2092 1.9994-2.2092v-2.0485-2.0485l5.3333-6.7802v-.63418-.63419l-5.1049-1.335-4.55-8.9761-2.0459-2.3333-2.0459-2.3333h-2.5902-2.5902l-22.325-10.907-15.878-16.974-4.0681-7.4522-4.4579-9.3333-2.2049-4-5.3133-9.7786-2.7986-26.221-1.2223-21.33 2.6627-11.882 4.2202-9.4553 4.6943-10.667 1.4437-13.582 5.9217-11.752 10.809-11.333h1.2421 1.2421l3.5425-4.6667.0848-17.843 2.3152-1.4309.92212-7.0299.92212-7.0299 3.3254-5.3333 3.452-12 10.017-14.747 17.705-17.002 8.8058-5.9837 11.868-3.4008 3.4747-2.6437 28.195-1.254 9.339-10.337 6.9914-1.6565 4.6667-4.0551v-2.6021-2.6021l19.117-19.716h2.6727l4.21-3.668 18.072-9.4902 15.262-3.3437.80924-1.1858.80925-1.1858 22.382 1.2628 8.816 1.9351 5.8507-5.4447 11.469-4.5571 11.87 1.627 9.3331-14.057 12.026-10.052 14.052-7.1744 7.9162-3.1058 14.131-2.8942h11.722 11.722l22.424 2.8212 5.3333 2.2298 20 2.8487 10.564 5.4336 5.4362.0164 6.8532 3.5763 13.551 1.7976 14.263 7.2764 12.883 9.3333 19.784 18.503v3.5806l4.6667 1.7176 5.3333 5.8303 2.6667 4.0957 8.6667 12.406v2.8849l2.5547 4.1574 2.5547 4.1574.95247 5.3333.95248 5.3333 2.9856 3.7458-.0316 32.254 6.154 6.6667 5.3148 8.4828 1.5697 13.253-1.7962 14.377-8.544 14.241-1.7222 3.1202-1.7222 3.1202-20.196 21.405h-1.6833-1.6833l-1.7218 2.0746-1.7218 2.0746-15.823 7.8508h-1.8632-1.8632l-.0364 3.3333-.75435 2.8102-.75434 2.8102 10.754 1.4424 7.4582 5.2816 13.333 1.7947 9.1847-6.8058h2.2444 2.2444l1.4603-1.7596 1.4603-1.7595-.20055-7.6226-.20056-7.6226 1.9419-1.9419 1.9419-1.9419 14.959-2.7654 11.631 2.6817 9.4066.0652 6.0412-4.2314 3.2188 2.6595 10.065 1.881 1.6412 2.1788 1.6412 2.1788 10.652 5.3749v15.847l11.43 7.6856 4.5691 7.0923 2.6672 2.289 2.6672 2.289 3.4476.0888 12.829 12 6.3901.01 8.6667 5.2842v6.7059h7.5903l8.4097 4.1953-.0848 7.138-3.9152 5.1764v5.0664l9.3333 10.904v23.101l-6.6322 11.753-1.7887 3.6866 3.2373 5.1837.75879 6.8982.7588 6.8982 8.7095 9.3333.93252 3.0979.93251 3.0979-4.9085 3.6231-12 1.488-70.634 1.5597-2.699 2.1015-17.433 1.5453-29.233 7.1188-4.1387 3.6366.52938 4.5346.52939 4.5346-5.1545 3.662-1.5439 9.3333-7.0039 14.667-3.2177 5.3333-12.667 17.66v6.4738l-2.9438 2.9438-3.6292 16.923-.0468 8.0667-.0468 8.0667-1.2362 1.2667-1.2363 1.2667-.85021 29.333-.85021 29.333-2.2304 5.3333-4.2943 30.667.0353 13.333.0353 13.333 1.3036 19.092 1.3036 19.092.15385 10.531.15385 10.531 4.1254 3.4211 3.5869 8.581v17.006l-4.8766 4.4133h-6.966l-1.9538 3.1614.32823 7.086.32824 7.086-3.5267.35813-11.877-.64431-9.4169-5.0472h-2.908l-5.5987-6-6.9936-13.974-5.6254-3.0106-21.012 1.2164-3.102 3.102h-13.6l-3.2-3.2v-4.3903l4.2302-8.4797 9.103-7.2633 4e-5-2.1267 3e-5-2.1267 5.3333-4.8266v-20.387l-3.1461-3.1461 3.8128-7.1748-.33017-18.632-.33017-18.632-2.367-2.9475-.81357-22-.81358-22-.79356-44-.79357-44-1.2125-1.2667-1.2125-1.2667v-23.854l-9.345-19.429-8.4301-6.5976-4.2249 2.1396-12 4.5613-7.0781 3.7125h-2.1457-2.1457l-4.6305 2.4368-15.333 3.0878v1.0237 1.0237l-6.95 3.1666.90285 4.8126.90284 4.8126 5.1443 7.6363 5.3333 7.892v2.769l9.2748 17.788 2.911 9.5509 2.1867 5.3333 2.9608 14.203v33.646l-1.4629 18.742-1.4629 18.742-2.222 2.7164-3.2261 45.284 1.6368 51.694 4.658 6.9727 4.5675 8 3.2196 6.6667 3.4492 8.032 1.9024 14.635 2.208 1.4502 3.0575 21.216 1.1707 1.2667 1.1707 1.2667.0588 4.7333.0589 4.7333 3.2334 12 1.7508 2.7042 2.9884 17.296 2.2724 5.3333 1.7494 6 1.7494 6 1.6685 2.6667 1.6685 2.6667.9092 5.6962.90919 5.6962 2.3164 1.4316v19.378l6.6667 6.263.008 2.1009.008 2.1009 3.9836 7.6382v5.9647l6.8051 12.799-.80506 6.9319-9.3333 3.1828zm-7.412-19.751h1.2546l.71353-1.1545.71354-1.1545 6.7303 1.2866v-1.6804l-3.0811-5.9638-1.8714-4-4.509-.88687-4.0175 3.3342-1.2911 2.4124-1.2911 2.4124 2.6972 2.6972 2.6972 2.6972zm-8.5213-20.053 6.7333.0534 3.1366-3.1366-1.1715-1.4317-1.1715-1.4317-.553-12.667-.553-12.667-1.574-3.3333-1.574-3.3333-1.1413-2-1.1413-2-4.1985-9.3333-1.593-5.3333-1.593-5.3333-1.0469-2.1187-1.0469-2.1187-.95303-7.8813-.95303-7.8813-3.4321-6.6667-3.0712-29.333-3.5864-7.2424-.95133-5.7122-.95132-5.7121-5.0138-9.8938v-2.7373l-7.3333-10.601-2.1905-.1012-4 4h-2.817l1.7911-11.201 2.2133-2.799 1.5959-12-1.9262-14.448-1.4841-.49268-1.4841-.49269-3.2158 7.7637.87842 4.6824.87842 4.6824-2.9062 1.7961-.0104 4.2546-.0104 4.2546-6.6441 3.0816-.75868-1.2276-.75868-1.2276 1.6447-7.6466 1.6448-7.6466 2.1756-2.8791 1.738-23.788 6.3125-15.793v-4.3402l2.4024-2.5333 1.4776-18.667.91995-11.041.91995-11.041 2.28-1.4091v-12.859l-9.1554-6.9832h-3.1082l-9.1002-4.3183-7.3151 3.6516-12.76 9.3333-18.448 13.881-7.4467.78537-1.5385-26.667-6.0763-13.333-3.3836-8-3.2771-12-.99605-1.3333-.99605-1.3333-3.465-17.333-1.9384-2.6667-.9085-7.5176-.9085-7.5176-1.8231-2.4824-1.8231-2.4824-2.7999 7.3333h-2.3083l-3.3966 15.333-2.2332 4.2524-1.5492 15.207-1.5492 15.207-1.1814 1.2667-1.1814 1.2667v9.9129 9.9129l-3.1276 16.974h-4.715l-1.6481-2.6667h-4.4769-4.4769l-.44444 1.3031-.44445 1.3031-8.6667 1.727v-3.9118-3.9118l-1.8345-2.5088-1.8344-2.5088-2.3214 4.4892-2.3215 4.4892-11.51 15.818-28.902 29.711-12.61 14.954v1.2829 1.2829l-8.9537 10.48-9.3472 14.667-5.1938 10.667-3.5883 6.6667-2.4845 5.0054-1.8829 7.229-1.8829 7.229v3.8563 3.8562l-2.275 1.406-1.6448 10.376-1.6448 10.376-2.2758 5.3333-1.5118 36 6.18 10.528 9.1721 5.1072.66667 1.0152.66666 1.0152 8.9126 1.9342 11.516-1.7269 4.2614-10.65-.84229-3.3559-.84228-3.3559-3.0981 2.9106-3.0982 2.9106-.40435 2.8343-.40436 2.8343h-3.9212l-1.4248-2.8578-1.4248-2.8578-3.5557-4.2844h-4.6803l-3.2585-3.9263 1.6082-7.0369 1.6082-7.0369 2.2456-4.4116 2.8478-37.847 2.6222-4.8997v-4.0876-4.0877h2.5569l-.27844 26.333-.27844 26.333 6.0729 12.68 6.6783-4.3758 18.04-1.2908 13.975 7.0818 2.5667-1.5863v-2.988-2.988l-1.1182-1.2667-1.1182-1.2667-3.0969-17.641v-6.4183-6.4183l-3.2412-8.9632 3.2412-5.1899v-14.545l-2.6667-1.6481v-3.176-3.176l2.6667-1.6481v-8.4019-8.4019l.8479-6.1861.8479-6.1861h3.6375v8h-2.2658l-.82919 13-.8292 13 2.5514 33.013 2.4791 2.9874.94913 10 .94912 10 4.0727 12 .12802 8.0425.12803 8.0425-5.1601 11.915-5.3047 6h-4.8685v-2.1333l2.3432-2.5333.85416-4.8153.85417-4.8154-4.303-3.5712-5.0226 6.5352-.0296 3.1275-.0297 3.1275 2.8053 3.9397 2.8053 3.9397 16.648 7.8656h3.0645l15.344 5.2756 29.131 4.0578h23.149l34.359 2.7901 7.7708 3.8766h3.0586l7.1775 3.3333.0208 2h3.1617l12.65 10.667h1.678l9.8436 7.8033 13.333 1.9214 5.3333 3.4114 10.667 1.8818 6.6667 3.5421zm-32.357-17.28h-1.2594l-1.481-3-1.481-3-.89064-4.5172-.89063-4.5172-8.7994-16.882-4.908-7.4172-2.8474-6-2.8474-6-3.4034-9.3333-4.2351-5.3333-3.3333-6-3.3333-6-4.5755-5.4081-6.721-11.925-4.7035-9.3333-1-.44444-1-.44445v-2.6328l-13.333-27.369v-2.0397l-4.3535-9.7364-2.3617-5.3333-2.3617-5.3333-1.7397-5.3333-1.7397-5.3333-2.5552-3.4757-3.4512-16.524-1.7926-7.5654 6.3552.89868.73006 12 2.2918 5.3333 6.9858 17.333-.008 2.2637 3.6252 8.403 1.511 3.3333 1.511 3.3333 2.4641 4 4.4409 9.3333 3.9265 7.3333h2.299l8.4632 16.667 3.0923 5.3886 2.7435 3.9723 2.7435 3.9723 8.7839 17.333 11.473 21.333 12.256 24.938v2.8732l1.497 4.7613 1.497 4.7613 1.0586 2.1374 1.0586 2.1374.92915 6.196.92914 6.196zm-188.46-116h-1.2546l-.28548-15-.28549-15 .0378-25.353 4.2006-7.9807 17.335-36 1.4889-3.3333 1.489-3.3333 2.6418-4 5.8773-14h5.0559l-.44445 1.064-.44444 1.0641-14.213 29.205-4.9088 10.667-3.4347 10.667-1.9693 2.7698-2.854 18.564-2.3825 5.3333-1.5734 21.323-1.5734 21.323-1.2487 2.0204zm64.967 131.88 1.5546.12025 7.7934-10 2.2688-4.6454 2.2688-4.6454-4.6167-3.3758h-4.6414l-12.624 13.333h-5.0299l-10.508 6-.0103.80427-.0103.80428 12.667-1.2044 9.3333 2.6886zm35.402-26.635 3.6232-1.0341 1.3985-.86433 1.3985-.86432-.76711-1.2412-.7671-1.2412h-5.3084l-8.5166 4.4041 5.3157 1.8751zm203.38-106.68 4.3333.10562v-4h-4.053l-11.28-7.0255-1.2108-1.0742-.22265-3.6168-.22266-3.6168-.32526-2-.32527-2-1.1076 4.6667-1.1076 4.6667-1.7401 7.0776 12.929 6.7112zm2.2546-13.228h2.0787v-2.6667h-2.5093l-.82404 1.3333-.82405 1.3333zm8.3009-8.0405 6.4444-.0405-4.0872-2.3938-7.6331-.85843-.5843 1.6667-.5843 1.6667zm-75.001-1.2928h1.9713l12.597-6.6979 8.8847-6.7767 8.6594-2.9123 3.3333-2.6063v-6.0136l-3.3333-2.5464-13.333-.68334-1.6667-1.3783-1.6667-1.3783v-25.007h-2.845l.93443 14.333.93444 14.333 8.3095 7.225 6 .1084v2.487l-5.4458 1.7284-10.581-1.7877-8.6396 6.9998-7.7799 6.1523 1.6962 4.4202zm82.651-4.1958 1.2052-1.0146-7.1854-9.4205-4.5583-2.3306-9.7268 1.2213 5.3834 10.086 13.677 2.4734zm-54.538-1.1376h.66667v-1.3333h-1.3333v1.3333zm18.183-2.1131 1.1503-.71095v-13.351l-2.8005-5.2327-1.0189.62972-1.0189.62972 1.2688 9.3732 1.2688 9.3732zm4.6226.41865.80555-.80556-1.4006-3.5-.10526 2.5556-.10527 2.5556zm10.297-17.528 2.8972-.81337 11.333-1.6597v-20.171l-2.5202 2.5333-.40654 7.987-.40655 7.987-4.6667.88811v-18.946l-4.3072-1.6528.76569-5.5863.76569-5.5863-3.0004-3.0004 1.7144-11.712 1.7144-11.712 1.0833-1.3611 1.0833-1.3611 1.5721-11.972 1.5721-11.972 1.2582-1.5583 1.2583-1.5583-.0406-14.932-.0406-14.932-2.4719-3.0188-.46347-13.001-.46346-13.001 3.1414.002 1.5593 14 .63254 15.789 2.9847.98335 1.2902-67.439-.86513-1.0346-12.743 3.4278-2.2932 2.0334-.36955 35.469-.36955 35.469-2.6889 3.3026-1.4066 108.92zm-29.024-6.3435 1.4118.23294 4.3108-3.3333 1.5903-16 1.4173-43.555-2.4823-3.1112-.86474-22.667-.86475-22.667-.72054-15.333-.72055-15.333-2.7079-7.0802.88532-6.0443 2.9792-.97971 1.6875 8.4375v19.509l2.6667 1.6481v15.685l-1.2075.74626-1.2075.74625 3.0816 6.6084 1.6279-11.277 2.2596-14.667 2.2596-14.667-.81374-19.899-8.8764-1.8071-3.9415-5.6272h-3.3257l-8.5966-8.8694-2.6437-17.131-1.4626-3.3333-1.4626-3.3333-.94074-1.9206-.94073-1.9206-2.9623-.98742-1.6216 3.0299-1.6216 3.0299.57464 38.769 1.1098 70.667 2.6579 22.667 1.5959 17.333 1.5959 17.333 4.1951 3.2485 3.417.0848.79205-2.0641.79206-2.0641-4.481-3.2766-2.4565-10.595-.0636-12.842-1.5336-2.8655-1.5335-2.8655.1472-99.618 1.3327-1.3327.70777 3.762.70776 3.762.8017 6.117.80171 6.117-2.5704 6.7608 2.603 2.603-.61292 21.201-.61293 21.201-.92997 6.456-.92998 6.456 2.9547 2.9547.0824 18.8 1.2858 9.9073 1.2858 9.9073 5.346 5.6906v5.2948l2.8377 2.8377-.41884 5.8363-.41885 5.8363-4.0855.77327-4.9532-12.011-1.628 1.0055.22151 7.7943.2215 7.7943.11183 5.59.11183 5.59 11.333 1.0208zm15.255-1.1004h1.7778l-1.7778-1.7778-1.7778 1.7778zm26.037-16h.7038l-.90214-8.8053-.90213-8.8053-.27-21.493-1.488-.49983-1.488-.49984-.88394 6.6634-.88393 6.6634-1.2947.80016-1.2947.80015v7.8426h4.1919l-.91624 7.3333-.91624 7.3333h5.6406v2.6667zm-21.37-37.333h.66667v-1.3333h-1.3333v1.3333zm.25244-20.333.60976-2.3333-.60976-2.3333-.60977-2.3333v9.3333zm-161.75-23.667h1.8367l3.3197-4h2.6287l16.378-12.949 6.2987-3.305 12.839.0994 10.756 5.4876h1.5056l1.3022-3.4251 1.3022-3.4251.62982-11.86.62981-11.86-2.7875-15.43-2.1368-4.0875-1.8438-8.3949-1.9143-1.5887-1.9143-1.5887v-5.043l-2.371-4.6305-2.3273-5.3333-2.3273-5.3333-1.5809-4-1.5809-4-5.6666-12-1.4426-5.6104-1.4426-5.6104-1.137-.7027-1.137-.70271-4.4164-13.502 1.3937-24.269 1.3937-24.269.75009-15.333.75009-15.333 2.9548-6.0539-1.5731-1.573-1.573-1.5731v-7.4667h-1.8281l-5.5052 4.9769-12.667 4.7188v1.8763l7.3067 3.3292-5.1497 3.7656-6.8236.0848-4.9682 3.763 7.1 6.58-1.2878.79589-1.2878.79588-13.664-2.9303-3.8925 1.4937v4.0837h-3l1.525 7.6252-6.6896 3.5802-5.1326-3.2054h-3.8287l-10.822-12.661-2.8482-13.72-7.0181-1.3416-4.1856 2.2142-8.6667 3.4923v1.4155 1.4155l-6.9102 9.1847 1.3672 17.35 7.2549 13.984h2.9891l2.6323 5.0116 8.6667 16.595v4.4663l3.4944 5.26 1.7228 6 1.7228 6 3.7267 7.0781-.0501 13.794-.0501 13.794-8.5665-9.8603-5.61 4.6386-3.461 10.555-3.3394 5.3333-.912 5.6667-.91199 5.6667h-2.0855l-.82957 5.6667-.82956 5.6667-1.7227 9.3333-1.8512 1.3333-1.4493 10.521-1.4493 10.521-1.6374 1.012-1.6374 1.012-1.2969 26.933 3.6899-.0974 7.3333-11.582v-2.997l2.6667-4.9754 2.6667-4.9754v-7.2796l3.7091-11.427 1.6957-11.584 6.7145-16.416 1.5902-3.3333 1.5902-3.3333 10.274-15.342 2.1147 1.307.94526 7.5656.94527 7.5656 2.1375 4.2373 4.0621 17.333 9.773 24 3.5003 8 5.3128 12 .92023 4.318.92023 4.318 1.2308.76064 1.2308.76065v5.176zm161.72-.44444.88888-.88889-1.7778-1.7778v3.5556zm1.1111-12.407 2-.76747v-1.048h-4v2.583zm-3.6667-56.731 2.3333-.44472.85214-5.9728h-2.7583l-2.7605 5.158v1.7042zm-10.063-5.0842h2.3961v-3.8426l-2.7024-1.6702 1.6792-12.487.17825-5.9358.17825-5.9358-10.715-7.2223-4.8485-11.573-7.7703-16.327v-8.0129l-4-3.3197v-7.9371l-4.4595-9.3978-8.7882-3.6719h-8.8856l-3.2 3.2v7.9615l4.9131 5.5052 6.2085 16 4.4204 6.7763 4.4204 6.7763 5.371 4.8607v3.22l8 10.067v5.0028l2.4898 4.6305 1.5079 6.6667 1.5079 6.6667 9.7023 10zm4.6023-6.6667h.71548l7.6705-5.4619 20.242-.86668 7.8321-7.5037v-2.4174l-5.3333-1.3947v-3.4715l8.8316-5.4583 9.1684-17.586 1.6131-2.9014 1.6131-2.9014-.73867-2.9431-.73868-2.9431 6.2578-8.818 1.6715-2.6667 1.6715-2.6667 2.3251-4.6667 2.3251-4.6667 3.3333-3.5238v-5.1428h-5.5086l-4.9834-2.667-6.1746 2.3901-4.4699 8.9436-4.4262 9.8432 1.7831 5.6181-1.2895 1.6027-1.2895 1.6027-.97459 4.6667-.9746 4.6667-.98693 1.3333-.98693 1.3333-3.2017 13.11-9.8499 14.191-4.7028.0316-4.6305 2.53-12.971 1.679-1.34 5.1243h-2.0589l-.87972 4.6893-.87973 4.6894.81003 1.3106.81003 1.3107zm14.798-23.653 7.6627-.53846 2.6667-.85186 6.6667-12.957 1-.44445 1-.44444v-5.1111h-2.4444l-.61792 1.6667-.61791 1.6667-4.9199-4.6954 4.4937-7.3046 6.7731.7676v-4.9009l2.3464-2.5333 1.7898-25.662-4.1361-1.5872v-7.8562l20.068-1.8806 7.9318 1.5864v-2.6h-5.1152l-4.2181-1.6186v-2.767l16.667 1.4222 3.3333-1.2588v-7.8438l-7.2775-2.7669-12.72 1.7494-.74684 1.2084-.74685 1.2084h-5.9996l-5.1763 4 4.6667 3.6273v2.7283l-6 1.6079-4.4548.0364-1.7809-8.1084 3.8477-5.8916-1.0456-2.6667-1.0456-2.6667-.0937-4.0667-.0937-4.0667 2.7872-2.7872.80339-9.5828.80338-9.5828 1.8798-1.1618 4.3604 3.2479 1.2237 14.257 1.2237 14.257 1.7485 2.8291 7.1699-1.6874 2.5333-2.3224h9.0891l-1.7877-7.1229-5.168-6.5701v-3.1755l-6.6667-6.263v-3.8242l6.6667 1.6732v-15.541l-3.5032-4.7908-15.83-1.1594-3.3333-1.1424v-9.0905l-3.8532-3.1979-6.0726.87137-2.3394 12-2.0936 2.6667-.97458 4.6667-.97459 4.6667-4.2186 7.2513 1.8703 1.8703 6.54-6.144 7.1455-10.311h4.9707v3.6735l-4 3.3197v4.0708l-9.3769 9.1067-7.7204 15.163-3.117-8-6.4391 8-.007 1.6667-.007 1.6667h-2.4486l-4.1456-1.5908-.87182-4.8713-.87181-4.8713-1.6827-2-1.6827-2-.93414-4.3931-.93413-4.3932-14.006-13.88-.86071-2.397-.8607-2.397-10.035 1.8084-3.3333 2.6455-3.8084-3.1607-8.1916 4.236v2.8532l-6 8.4116-.0365 10.781-.0364 10.781-4.5938 7.011v8.6146l-6.4352 6.8126-.89808 6.6667 8.5735-.38306 4.2836-4.2836 4.4762.0848 5.1764 3.9152h6.0733l-.6462-1.684-.64621-1.684-8.6239-3.5223-6.0509-2.921 2.9204-1.8049 8.4639 2.971 3.5108 2.2454 1.7216-1.7216-3.2324-5.1759v-2.8826l5.3333 1.6927.12535-2.4232.12535-2.4232.31602-34h3.4333v3.7147l1.8743.71922 1.8743.71923.87371 3.978.87372 3.978-1.4146 2.7788-1.4146 2.7788-2.6667 5.2972v10.545l2.6667 1.6481v18.352l-2.6667 1.6481v7.5161l3.8286 3.1774.85495 3.8926.85496 3.8926 2.4615 1.5213.0937 4.2546.0937 4.2546.92088 2.3252.92088 2.3252 13.304 10.685 1.6104 1.3324 1.6104 1.3324h2.7792v3.4667l-3.2 3.2h-5.8068l-3.4135-4.113-2.5392 2.5392 4.9012 8.2972 11.039 5.344 4.3603 4.8181zm1.3624-11.171-3.033-.15776-7.7148-1.6845-2.8397-4.5106 2.4839-2.7447 2.4839-2.7447h3.2602l3.4265-4.1287 5.4679.79536 1.8567 9.1298-1.1793 3.1018-1.1793 3.1018zm1.8681-7.3205 1.3836-.85508-3.5408-2.1883-1.0109 1.0109 1.7846 2.8876zm-482.16 10.145h2.0787l-1.6481-2.6667h-2.5093v2.6667zm92.685-9.3333h1.2727l5.9638-3.0811 4-1.8714.40207-2.5238.40206-2.5238 1.4656-2.9546 1.4656-2.9545-1.3505-1.7121-1.3505-1.7121-.80518-3.3848-.80517-3.3848 3.9093-7.5352v-3.6952h-2.5982l-2.3117-4.3333-2.3117-4.3333-.0763-.66666-.0763-.66667-1.0944-1.7251-1.0944-1.7251 3.0986-3.7336 13.131 1.5552v-5.7048h11.535l6.2863 6.6914 4.4938-1.4263 4.3514 6.641v9.7998l4.6667 3.5425 3.3333.0848v-6.5093l2.3712-1.4655.90303-3.5979.90302-3.5979 5.156-7.241v-8.1308l-12-11.83.0444-2.4803.0444-2.4803 5.0054-6h6.7485l1.772 2.8672 6.1076-5.7378 7.5984.87059.67926 3.9605.67925 3.9605 3.3498-3.9211 5.4979-7.3333h5.0783l2.1457 3.2747 2.1457 3.2747-.82182 1.3297-.82183 1.3297 11.071 2.9811 7.0095 7.5144 16.63 1.1298 6.7032 6.2973v-2.9741l-2.2855-1.4125-.97874-7.7058-.97875-7.7058-.87849-10.667-.87849-10.667-10.667-2.2451-12-5.4168-17.333-1.3668-11.979-6.3046h-4.9431l-7.1865-4.2452.0904-24.877.0904-24.877 11.459-32 .78263-3.3333.78264-3.3333 10.237-19.803v-5.2048l-11.005 1.7597-5.5886 3.9144-4.0733.016-7.6382 3.9836h-2.4464-2.4464l-7.1189 9.3333h-7.3199l-6.6938-6.6938-.86977-5.4393-.86978-5.4393 5.6414-9.128 4.9018-2.6234 4.4186 1.6956 15.108-3.4527 21.333-10.521 4.7706-5.0648h7.6915l7.9229-6.6667h2.0622 2.0622l1.4613-2.3644 10.029-1.8329 6.6667-4.3709 25.333-.50503 4.5335 4.0327 10.133-1.4297 21.333-5.4339 18.667-4.7762 2.6667-1.7107 18.667-4.4901 8-3.5646 10.667-1.9565 5.3333-3.3359 9.3333-1.7504 5.3333-2.4396 16-3.8938 17.333-5.7108 5.3333-2.2813 10.667-3.0383 5.3333-2.1114 10.667-3.2124 5.3333-2.1584 7.4588-2.9987h11.324 11.324l11.227 5.6267 7.3333 6.8722v1.7836 1.7835l6 2.2946 5.0258 5.5795-.74665 5.5667-.74665 5.5667-6.7288 6.7288-13.395.1976-18.463-18.318-13.92-3.6108-4.3589 2.2248-9.8638 1.5145-8.8029 3.9554-14.667 3.0925-5.3333 2.2895-10.667 3.0382-5.3333 2.1769-12 3.3161-10.667 3.4847-14.667 3.1857-2.6667 1.9699-18.667 3.4855-2.6667 1.8462-14.667 3.282-12.671 5.5445 7.3376 4.8385 32.5.018 14.834 17.485v2.515h3.52l11.147 9.5411v10.303l-24.133 24.156h-6.0351l-7.6645 8h-3.5011l.0547 1.6667.0546 1.6667 13.891 6.4318 11.795 8.2349 6.2048 5.6391-.016 9.0275-4.3978 8-.2693 28.667-.26931 28.667-1.0266 14.15-1.0266 14.15 2.6248 1.6222 7.0273-12.912 4.0064-3.325 5.9159 1.547 4.765-4.3123v-5.5267-5.5267l3.2-3.2h3.0667 3.0667v-6.8983l8-3.0197v-5.2435l5.7982-6.1719h3.1219l4.8266 5.3333h4.4211l6.8221-7.3333 1.696-6.6667 3.3142-4.0626 7.693-5.9374h8.9737l5.5821-5.5821 11.085 1.346 7.0709 1.8301 1.8161-5.722-2.6484-3.2054-1.8743-10.029-2.7929-1.7261-10.905-.24442-.78764-5.5078 16.121-14.898v-2.1004-2.1004l8.2842-15.393 2.6504-3.2628 9.732-1.5958 6-2.9254v-2.4832-2.4832l4-1.5349v-3.7147h3.6735l1.5827-1.907 1.5827-1.907-5.8712-3.1422-9.1967 1.4924.44791-6.2428.4479-6.2428-14.232-2.062-5.6944-3.9885h-1.9317-1.9317l-4.8766-4.4133v-1.3011-1.3011l9.1811 1.4899 8.0026 5.9166 19.483 1.137 10.667-5.8237 7.1652-3.8157 16.902-16.555 8.1385-10.667 7.1435-12.261 2.6293-14.406-1.093-6.8082-1.093-6.8082-7.7922-12.303-4.93-1.6773.90801-6.2017.908-6.2017 2.4473-2.5333v-4.988-4.988l-2.359-1.4579-1.8335-12.227-6.3427-16.473-6.7903-13.103-29.649-31.564h-1.8879-1.888l-1.4487-3.7753-11.134-7.5505-.66667-.67042-.66666-.67042-12.738-6h-2.6491-2.6491l-4.6305-2.3823-14.336-3.2837-6.7555-3.5048-10.908-1.7974-2.6667-2.0768-25.333-3.1757-6.0943-2.947-31.494-.1656-3.7456 2.9668-13.514 1.5167-12.941 6.881-9.2364 7.045-11.557 11.891-.79862 2.5162-.79863 2.5162 17.513 17.256v4.818l4.6667 6.5934v32.236l10.667-4.8438 5.1315-.0586-6.263 6.6667h-3.2832l-11.282 6-14.347 15.836-2.8728 10.831-2.5346 4.8188 3.1563 9.8479 2.4225 6.8609 11.024 8.4724h2.261 2.261l1.6468 1.9842 1.6468 1.9842-4.0884 1.5689-12.879-7.1495-3.4928-2.8466-5.1739-10.709v-7.3417l-2.5607-1.5826-16.704 8.432-20.069-1.3756-15.31-7.5086-8.8792 3.2108h-1.572-1.572v-6.9804l-5.1765-5.1764-5.1765-5.1765h-9.4897l-.82405-1.3333-.82404-1.3333h6.6667l.82405-1.3333.82405-1.3333h4.1687 4.1687l6.1719-5.7982 6 5.4649 5.8247 2.9999h8.5911 8.5911l3.3197-4h1.5873 1.5873l6.9754-7.3333 1.8189-7.3585 2.2172-1.3703 1.7827-11.888-2.9602-5.6916-2.9601-5.6917-3.0194-1.889 3.2346-3.2346 6.0765 7.6329 1.7342 5.4906.13291 5.4291.13291 5.4292-4.4635 13.1-13.183 12.84 1.4882 1.4882 18.158-1.8363 16.511-5.7836 17.092-16.375.85014-5.146.85015-5.146.0131-6 .0131-6-3.5676-18.706-6.8052-10.627-9.7322-9.2945-22.004-.03878-7.2212 4.7281v2.6052h4.7674l9.2326 7.7399-1.064 1.0829-1.064 1.0829-4.5388-3.1966-12-7.3757h-33.864l-3.3356 3.3333h-5.1036l-9.6964 5.0017-13.26 6.3316-16.067 14.289-7.3278 11.044-.006 2.9213-.006 2.9213-3.3333 2.1083-7.3519.40468-4.1713 3.4619-1.6019 3.9258-1.6019 3.9258-33.272.33104-17.333 8.7814-6.959 3.8513-13.624 14.034-9.4167 15.656v3.3504l-1.9143 1.5887-1.9143 1.5887-.90633 4.2412-.90634 4.2412-1.9294 2.6667-1.5222 9.3333-1.5222 9.3333-.56204 4.6667-.56204 4.6667 4.0588 12 4.0588 12 6.5532 12 4.2051 4.7297-2.6911 2.6911-3.7792-1.4625-4.5426-7.9583h-3.7505l-20.374 19.723v5.4529l-1.3333.82405-1.3333.82404v15.685l2.6667 1.6481v4.8961l6.6206 6.2799.023 1.6667.023 1.6667h-5.0266l-4.9638-7.3333-3.8263-8-4.3435-17.165-1.5101-.50336-1.5101-.50337-1.632 10.171-2.521 4.6305v8.6061 8.6061l2.3152 1.4309 1.8609 14.028 3.6251 8.032 1.7114 8.5178 9.1283 11.482.0258 3.3333h2.0917l4.3961 7.3333 12.845 12.964 21.333 10.568 17.333 1.4257 9.3333-2.528-.24301-3.4897-.243-3.4897-2.0804-4.3918-2.0804-4.3919.07-16 .071-15.921 2.8322-3.4126h3.618l-.8464 16.7-.8464 16.7 1.356 2.9666 1.356 2.9666 3.3641 10.667 4.102 4.685 2.9034 5.7768 8 4.6766 8.3402.1948 3.3197 4-3.1981 3.8535-13.795 2.8888-9.3333 8.2592-10.912 4.7234-8.421 10.216v2.9827l-4.0816 8.1818-.41258 20.228h-8.6904l-7.482 6.4364.1978 17.865 6.4688 4.9725 7.176.0594.82405 1.3333.82404 1.3333zm35.903-4h1.176l1.8324-2.9648-3.6527-2.2575-1.1616 1.1616-1.1616 1.1616.89585 1.4495.89584 1.4495zm-13.145-4.2406 2.8549-.42606 1.1211-3.0511 1.1211-3.0511-3.9858-1.5295-3.966 3.2915v5.1923zm55.216.005 2.0704-.4311.26291-1.3151.2629-1.3151-4.6667-.89872v4.3911zm-30.959-1.0978h3.1111l1.6208-1.6208-3.1512-5.0458h-4.6919v6.6667zm14.144 0h1.2546l.82404-1.3333.82405-1.3333h-4.1574v2.6667zm30.283-4.2997 1.7161-1.7161-.78246-2.9921-.78245-2.9921h-5.106l-1.5731 4.0993 4.8118 5.317zm-56.204-2.3669h3.3333v-12h-5.048l-1.6186 4.2181v7.7819zm35.333 0h2.3402l3.3732-4.0644-1.589-1.589-9.6534 1.811 1.5945 1.9212 1.5945 1.9212zm38.745 0h1.2546v-3.6735l-3.7664-3.1258-7.2757-.53402-1.0992 3.0904 8.1107 1.7814 1.5213 2.4615zm18.794-2.9576 1.794-.598v-3.1111l-2.6667-.1408-.46067 2.224-.46067 2.224zm11.794.29089h1.3333v-2.6667h-2.6667v2.6667zm-86.333-1.4772 1 .14382v-4.8l-3.2-3.2h-6.7602l7.9602 7.7124zm-31.742-1.1895h1.9244l2.0756-2.9633 2.0756-2.9633v-4.74h-5.3993l-1.3003 3.4201-1.3003 3.4201v3.8264zm140.34 0h.4v-6.6667h-4v3.4667l3.2 3.2zm-9.9333-1.4386 1 .10527v-10.34l-3.5787-2.97-1.7546 1.7546v10l3.3333 1.345zm-59.745-6.5614h2.0787v-2.6667h-2.5093l-1.6481 2.6667zm-19.358-1.3333h2.5633l3.1613-9.5788-3.1438-3.0878-5.144 6.2954v6.3712zm67.878 0h1.108l1.7829-3.3313 1.7829-3.3313-.85868-.85868-.85867-.85868-4.0644 3.3732v5.0068zm129.64 0h1.2546v-6.6667h-2.3814l-.81364 2.1203-.81365 2.1203 1.4994 2.426zm-205.22-2.9369 1.0973-1.7298.0204-3.6667.0204-3.6667h-2.216l-3.5192 6.5758 1.75 2.1086 1.75 2.1086zm231.05 1.1967 1.4167-.46237 2.4902-9.8787-4.2343-4.2343-1.4613.90313-1.4613.90312v11.398l1.8333 1.8333zm-257.7-3.8891 1.7789-.59296v-4.4444l-1.3333-.33333-1.3333-.33334-.89106 6.297zm96.446-1.0374 2-1.6598v-3.6735h-4v6.9932zm-23.255 0h1.2546v-1.048l-4.1385-1.5881.81461 1.3181.8146 1.3181zm-86.412-1.4308 1 .0975v-3.5867l-4.6667-4.0979-6.2451-1.9062.45589 2.3542.4559 2.3542 8 4.6875zm96.302-1.2359h1.8744l1.5498-2.5077-5.8953-5.4923h-2.1638v2.842l2.7605 5.158zm155.68-1.3333h1.1997l-.8438-7.1277-3.3333-1.0945v6.4444l1.7778 1.7778zm-12.157-1.3333h1.5263l-.67621-5.9993-.6762-5.9993-3.5208-4.2422-1.7368 2.3752-1.7368 2.3752.01 2.8237 5.2842 8.6667zm-232.68-2.6667h.52401v-4h-2.583l1.5349 4zm217.59 0h1.0667l3.2-3.2v-8.4735l-4.0644-3.3732-1.0217 1.0467-.32466 4-.32465 4 .40214 6zm-158.4-2.6667h1.3333v-5.4907l-1.3333.82405-1.3333.82404v3.8426zm14.333-.10526 1.6667.10526v-2.5021l-7.6871-8.4163-.84488 1.367-.84488 1.367 2.7102 1.675v4.9537l1.6667.67251 1.6667.67252zm39.333.0849 1 .0204v-1.4658l-4.6301-8.5342-.45838 3.8553-.45838 3.8553 3.5469 2.2485zm-70.127-1.3129h.46002v-5.3333h-5.7466l4.8266 5.3333zm53.558-.10526 3.0978.10526-.44202-2.3333-.44202-2.3333-8.6448-.83562v3.9467l3.3333 1.345zm169.9-.0945 1 .19978v-3.8426l-1-.56101-1-.56102-7.3333-1.7528v5.207l7.3333 1.1109zm-215.2-2.5478.50476-1.5143-4.3095-4.3095v4.0381l3.3 3.3zm28.195-2.5857h2.6667v-5.0266l-6.5728-4.3067h-1.4272v5.3333h2.6667v4zm163.57-2.8617 1.7651-1.4649v-7.3882l-4.4535-1.709-1.0862 1.7118-1.0862 1.7118-.0408 5.4667 3.1366 3.1366zm22.927 1.5283h1.9617l4.8766-4.4133v-3.5867h-3.8426l-.82404 1.3333-.82405 1.3333h-6.5093v2.1333l3.2 3.2zm-13.595-2.9013 2.4332-.46859v-6.6302h-4l-.86638 7.5673zm-195.57-1.1836 2-.004 6-5.0054v-1.5726h-5.3695l-5.0806-3.1729-4.2165 3.4994v3.541l4.6667 2.7181zm40.333.0645 5 .0204v-2.1333l-3.2-3.2h-8.6426l-.91617 1.4824-.91618 1.4824 1.8375 1.1638 1.8375 1.1638zm-126.85-7.3129 3.1249-4 2.8602-2.6667 3.529-4.6667h-6.6865l-3.957 6.0391-1.9954 9.2942zm262.52.66667h1.3333l-.0408-11.333-2.585 4-.0408 7.3333zm34-1.3742h1.3333l4-2.5499-2.9573-4.7426h-4.7521l-2.9573 4.7426 4 2.5499zm-196.83-1.2925h1.1701l3.4135-4.113-1.4273-1.4273-1.4273-1.4273-1.4495.89585-1.4495.89584v5.176zm-37.212-2.6667h1.3752v-3.8426l-2.8441-1.7577-1.4854 1.4854 1.5791 4.115zm9.3752 0h1.3333v-6.6667h-2.6667v6.6667zm210.78 0h2.4898l4.0841-7.8978-5.1608-2.762-5.3725 6.83.73482 1.9149.73481 1.9149zm-193.6-2.6667h1.1778l1.6461-4.6667 1.5538-3.3333h-3.9369l-1.6186 4.2181v3.7819zm430.47-2.9176 2.318-.44641.89282-4.636h-5.5289v5.5289zm39.81.25088h3.048l.83316-1.3481.83317-1.3481-3.9852-3.9852-3.9852-3.9852h-5.7182l1.8284 6 4.0979 4.6667zm-20.983-4.1816 1.8112.18158-1.7997-7.1707-5.4382-7.6372-4.3539.83849-.46672 2.4235-.46672 2.4235 3.1637 7.6378 5.7391 1.1215zm-524.31-1.2455 5.5034.0937 3.51-4.2292 11.916-5.601-3.1847-2.0849-3.1847-2.0849-4.3648-3.8048-4.3648-3.8048v-3.7238h-5.0077l-10.159 4.2448-14.596-1.8236-4.2373-2.1715-11.951-3.2083-6.409-5.0414h-3.377l-19.314-20.667 2.0667 6.6667 4.7667 6.6667 11.55 11.18 23.493 12.153h4.76l4.0979 4.6667.87637 2.8807.87636 2.8807 7.2294 4.9052 4 1.8126zm287.33.0513.83674.0424 3.4884-4.2032-1.9143-1.2013-1.9143-1.2013-5.3333 1.6037-1.1387 1.0296 5.1387 3.8876zm270.79.0424h1.3245l-.89895-3.6667-.89895-3.6667-1.8633-1.9034-1.8633-1.9034-1.634 4.258 4.5093 6.8821zm-287.54-4h2.0927l-.42606-2.8956-.42607-2.8956-3.3333-1.0978v6.8889zm94.243-2.2315 1.0028-.59604 7.9944-16.113.008-1.5298.008-1.5298 4.1816-8 2.249-27.997-.36601-.36602-.36602-.36601-4.3817 1.6814v2.7422l-6.1654 5.6391-4.4718 3.6354-9.4556-8.3021h-2.9322l.6664 9.3139.66641 9.3139 2.6614 3.3723.90786 6 .90787 6 5.8817 17.698zm.54535-28.525-1.5481-.0902-6-2.8937v-3.561l10.764-1.7212 1.3518-2.5259 1.3518-2.5258 2.5329 1.5654v3.638l-6.9037 8.2046zm132.98 29.424h1.6085l3.2-3.2v-2.1333h-5.0223l-1.3947 5.3333zm-201.05-6.7839 1.8587-1.5426v-5.8305l-3.6144-4.943-4.3856 1.6829v7.8932l4.2825 4.2825zm189.61 1.41 1.7543.0405 5.158-2.7605v-2.5728h-4v-2.6667h-9.3333v5.2008l4.6667 2.7181zm-209.34-3.0638.49059-2.4377-1.5691-1.5691-1.3961 1.3961 1.984 5.0483zm161.9-.89564h1.1925l-.41781-4.3333-.41782-4.3333-8-.76515 2.6709 2.0985 3.7797 7.3333zm102.69-.0204 1 .0204v-3.6667l-.8542-4.271-.85419-4.271-6.6614-2.5327-.64865.64866-.64866.64865 4.5758 11.436 3.0913 1.967zm14.652-3.5098 1.0147-.62712v-2.1983l-5.8835-1.5386-.62756.62756-.62756.62755 5.1092 3.736zm-104.76-.46974h1.7778v-4.8l-3.2-3.2h-2.1333v6.2222l1.7778 1.7778zm52.236-2.9902.45868-1.0952-2.1561-3.2906-2.1561-3.2906h-3.9385v5.1878l7.3333 3.5838zm-219.29.32356h2.1633l-.10526-3.6667-.10526-3.6667-1.4809 4-2.6351 3.3333zm236.41-4h.50298l2.2197-6-2.781-6.104-4.1912.79788-.88096 6.1927 4.6276 5.1134zm-369.52-2.8482 2.7333.18157 2.5333-2.3836 24-1.1185 10-4.4978 9.3333-4.1251v-2.5416h13.417l.8409 2.1913.84089 2.1913-8.8352 7.2109 2.8854 1.7833.84997-1.3753.84997-1.3753 8.5938-3.5907 11.058-13.207.51819-17.247.5182-17.247-6.4139-8.5273-9.7898-6.0751-4.4964-1.9154-6.5909 5.1844h-2.9127v-2.2534l5.3333-4.8266v-2.2534h-4.4324l-11.519 6.7503-2.5296 4.7267 1.8139 2.8302 6 1.8724v3.8203h-3.4903l-2.5882-1.9576-2.5882-1.9576-3.175-.0848-20.825 14.052-9.5227 3.2816h-15.106l-12.014-3.2133-8.8178 8.5466h-1.939l-2.6913-7.0787-7.6168 7.2974-1.7832-2.8853 1.6883-2.7317-1.7428-7.9349h-3.6282l-10.16 14.635-3.3333.0316v-3.6952l3.9836-7.6382.0328-4 1.8355-3.5178 1.8355-3.5178.81552-14.836.81552-14.836.85578-9.6466.85577-9.6466 1.9683-2.6667.60325-4.3333.60326-4.3333h-7.6906l-12.514 3.0425-4.4026 3.7985-1.7621 9.3929-4.9878 9.7661-.92529 6.6667-.92528 6.6667-2.1619 2.737-4.3074 27.93-2.87 17.757 1.7953 9.5699 7.748 4.0066h9.825l17.144 3.1588 1.2955 2.4206 1.2954 2.4206h3.4965l7.743 3.7204 33.333 4.2738 6.6667.97597zm8.201-3.9612-9.601-.14278-12-2.4989-2.6667-1.2922-2.6667-1.2922-19.442-2.3952-3.2242-2.5513-18.436-3.4022-6.1907-3.2118 1.7374-1.7374h6.0968l7.4588 2.9987 5.3333 2.041 10.976 2.9603h32.2l.82405 1.3333.82404 1.3333h28.643l2.5333-2.355 12.667-1.8083v4.2471l-4.6667 1.4588-6.6667 3.4797-14.131 2.9778zm187.47.12629 1.0662.0165-1.8192-16.667-.91546-1.0467-3.9612 3.2875-.78284 2.4665-.78284 2.4665 6.1291 9.4598zm92.638-.74549.37064-.2015-2.6136-6.8744-5.2991-2.836-1.8097 2.9282 3.359 6.2764 5.6221.90879zm109.3.74158 3 .0204v-3.1874l-7.1656-7.4792h-3.8344l1.7068 8.5341 3.2932 2.0917zm-93.982-2.6462h2.6046l-1.7228-7.3333-7.2329-6.4718-.42712 4.3606-.42711 4.3606 4.6009 5.0839zm11.538-.36269 1.8895-.30398.50335-1.5119.50334-1.5119-4.3095-4.3095h-2.5599l-1.4825 3.8633 1.7831 2.039 1.7831 2.039zm-142.56-4.9706h1.3333v-5.3333h-2.6667v5.3333zm-9.3333-2.6667h2.6667v-3.8426l-2.9648-1.8324-2.3277 3.675-.0408 2zm218.82 0h2.5133v-12.92l-5.3497-4.8414-.95578 1.0948-1.5139 2.9124-1.5139 2.9123v4.2691l4.3067 6.5728zm23.13-.41949 1.3833-.45283.42189-3.5638.4219-3.5638h-6.8438v4.8l1.6167 1.6167 1.6167 1.6167zm-222.53-3.6545 1.9108-1.5858v-6.4238l-4.2068-1.6143-4.2047 4.2047 4.5899 7.0051zm91.311.69935 1.2664-.7827v-4.6426l-3.2-3.2h-2.1333v4.1753l1.4002 2.6164 1.4002 2.6164zm88.845-.82865 1.8912-1.5695-.80284-8.2271h-5.3333l-.42968 3.7473-.42967 3.7473 3.2132 3.8716zm-76.295-.26032 1.3833-.49697-.71532-6.1581-2.9445-3.5479h-2.3402v7.4667l1.6167 1.6167 1.6167 1.6167zm-25.617-1.0244 1 .15466v-12.185l-6 .85214-.40715 4.888-.40714 4.888 4.8143 1.248zm131.22-.28978.88889-.88889-.88889-.88889-.88888-.88889v3.5556zm-83.18-.97416 1.0418.0853 1.6829-4.3856-4.943-3.6144h-7.4903v3.5162l8.6667 4.3133zm-531.25-6.61.5222-1.5666-4.246-4.246-1.8249 1.8249 5.0266 5.5543zm471.04 1.362h1.1701v-7.6735l-3.8832-3.2228-2.892 1.7873 1.7682 5.7756 2.6668 3.3333zm43.485-1.3333h1.8705l-.42606-2.9864-.42607-2.9864-4.6667-.88944v5.0844l.88889.88888.88889.88889zm102.29 0h1.7787l.73815-1.9236.73816-1.9236-2.4123-8.4112-3.1052-3.7416h-2.6837l.91843 6.9234.91842 6.9234 1.3308 2.1532zm-181.45-1.9226 5.3848-.86107 1.7052-1.4152 1.7052-1.4152 2.0382-4.0856 2.0382-4.0856 1.3755-8.6103 1.3755-8.6103-1.2613-1.2613-1.4763.91239-1.4763.91238.75101 2.3662.751 2.3662-1.8014 1.495-1.8014 1.495-5.124.79688-3.5151 2.1926.78971 2.058.78971 2.058-4.731 5.3021 6.2451-1.9452-.4712 2.4468-.47121 2.4468-4.7918.92282-4.1446-1.5904 3.2935-3.9684-3.2935-3.9684 2.1502-.8251 2.1502-.82509v-9.7399l6-3.9748 5.3333-1.9006-20.8.62583-2.3882 3.8642 1.1239 1.1239 3.9476-3.2762 2.7835 1.7203v6.361l-10.667-1.2857v3.9433l2.6667 1.6481v4.7188l8.4314 12.729zm123.22-.0348 1.8485-.70935h2.4486v-3.627l-9.1543-9.7064h-6.9294l-1.674 4.3625 2.6746 4.3042 8.9375 6.0854zm70.287.18969 1.3438-.44125.41574-2.8167.41573-2.8167-2.2282-3.4007-2.2282-3.4007-2.375 1.4678v6.5455l1.6562 2.652 1.6562 2.6521zm-133.28-2.2324h3.3752l1.587-4.1357-6.1355-6.531h-2.2018v10.667zm93.514-4.1418 1.5556.14184.5305-1.5915.53049-1.5915-2.8388-6.1544-4.5659-1.477-5.1935 2.7795 1.2871 4.9218 7.1391 2.8294zm16.26.14184h1.2325l1.6791-4.3757-.81005-2.5522-.81004-2.5522-1.5535.51722-1.5535.51721-.8922 4.6015 1.4752 3.8442zm-612.26-1.7778.88889-.88889-1.7778-1.7778v3.5556zm490.79-1.9373.56931-1.708-3.2988-3.9748-1.1694 1.1694 1.6648 3.1106 1.6648 3.1106zm38.336 1.0484h1.8237l.83141-1.3453.83142-1.3453-.73783-2.3247-.73783-2.3247-5.6775-3.5457-2.3934 2.3934 4.2365 8.4922zm-15.168-4h2.5659l1.548-4.034-3.2915-3.966h-5.0068v3.7819l1.6186 4.2181zm-38.851-1.3333h2.6667v-2.0733l-4.1512-5.9267h-5.1821v2.7504l4 1.535v3.7147zm-14.667-2 1.3333-.82404-.1874-5.8426-2.2918 5.3333-.1874 2.1574zm-224.76-5.1625 2.609-1.7323.85162-2.5549-11.695-5.6819-9.6771-11.81v-5.3988l-4-3.3197v-10.183l2.6667-1.6481v-5.0821l-4.6667-2.3849-11.482-.36224 1.6398 2.6533h5.0821l1.5238 2.8472 1.5238 2.8472-7.6204-2.0706-5.2189-.2905-1.2353 4-1.2353 4-1.1603 2.6667-1.1603 2.6667-1.3283 7.182-1.3283 7.182v3.0611l7.3333 4.277 17.226 1.958 4.1073 1.9612 14.636 6.9485zm263.64 1.0306 1.1199-.69213v-3.5316l-5.3333-1.3947v3.217l3.0936 3.0936zm-14.526-4.0867 1.1533-.71279-2.3009-2.5425-2.3009-2.5425-1.09 1.09 1.6926 2.7103 1.6926 2.7103zm139.9.88528h1.876l3.2-3.2v-4.8h-5.3333v3.7819l-1.6186 4.2181zm-93.591-2.6667h1.3333v-5.3333h-2.6667v5.3333zm54.82 0h1.0222l1.7917-2.899-2.301-2.09-8-1.8947 6.4648 6.8837zm29.513-.33117 1.6667-.5534 2.57-7.2724-3.776-2.3337-2.1273 1.3148v9.3982zm-107.1-2.3355h1.1438l1.6186-4.2181v-3.7819h-6.6667v2.842l2.7605 5.158zm11.096-.32528 1.666-.54704.8438-7.1277h-6.7601l1.2496 4 .66737 2.1109.66736 2.1109zm22.69-.83205 1.2018-1.2018-.44622-3.0493-.44622-3.0494-3.3333-1.0978v7.7778l.91112.91111.91111.91111zm63.291 1.1573h1.8705l-.42607-2.9864-.42606-2.9864-4.6667-.88944v5.0844l1.7778 1.7778zm-361.49-1.3481 4.1592.0148 13.451-10.71 9.5639-14.409v-5.5481l4.6667-.0888 6.3971-5.3269-5.0638-3.7116-6.7888-1.3638-3.5089-6.5565-.20374-4.051-.20373-4.051-.88203-.88202-.88202-.88202-34.585-.4197-5.2878-4.7862-8.4887 8.4887 1.4144 1.4144 1.4144 1.4144 8.6686 2.802 2.6861 11.131 1.9806 1.9806v7.229l4 3.3197 4.113-3.4135 2.7792 2.7792-9.8004 7.4751-4.4252-2.7753-.80602-13.725h-6.5273v15.617l9.2702 12.141 8.7298 6.8798zm-4.6992-10.757-3.46-.10526-1.6667-.67251-1.6667-.67252v-3.5981l6-1.9697 7.8603.53919 1.2345 1.2345-4.8414 5.3497zm11.339-25.228h-3.1393l-3.3197-4-3.0068-.0208-1.6667-3.5888-1.6667-3.5888v-3.7076l6-5.0054 13.467-.0888 3.2 3.2v1.5371l-10-.80928-6.6667 5.2782 4.3693 4.4013 5.4617-1.7335.99192-5.8739 3.5553 7.2241-4.4398 6.7759zm218.36 34.646 2.4966.0204-3.5502-4.2778-6.1675-2.3449-.79842-3.9921-.79842-3.9921-3.8819-3.2217-1.2177 1.9143-1.2177 1.9143-9.5292-10h-2.192l-4.3682 6.6667h-3.3636l-4.3168 7.3333-.92484 4.6876 27.009.71684 4.2073 3.4918 1.1221-.69348 1.1221-.69347 3.8727 2.4499zm27.503.0204h2.6667v-7.9062l-5.3333-2.8543v10.76zm-314.39-5.6462 1.6054-.53514 2.1656-9.1519 2.5605-4.5294 4.3753-19.471 1.0915-1.3667 1.0915-1.3667 1.8483-13.933h-10.907l-1.4302 5.6667-1.4302 5.6667-2.5756 6.1255v18.384l2.899 1.7917-2.899 2.899v10.356zm293.95.31292h1.7778v-5.3333h-5.3333v3.5556l1.7778 1.7778zm8.7017-1.3333h1.2879l-1.8567-8.6667-1.0218-1.1111-1.0173 1.1111.65997 4.3333.65996 4.3333zm71.743-.40776 2-.28615.42578-2.9842.42579-2.9842-7.0252-2.671h-9.2536l2.9349 5.484 4.4922 1.3751 4 2.3526zm33.6-.92557h1.0667v-4.92l-5.3333-4.8266v6.5466l3.2 3.2zm-59.457-1.3333h1.8574v-2.3402l-3.5787-2.97-1.5709 1.5709 1.4349 3.7393zm69.269-1.3333h.58798v-2.6667h-2.824l.82405 1.3333.82404 1.3333zm9.3251-.23556 2.0704-.4311.2629-1.3151.26291-1.3151-4.6667-.89872v4.3911zm-39.816-3.849 1.588.0845 1.7203-2.7835-3.0805-3.7118-7.7507-1.7023-1.4306.88417-1.4306.88416 1.6851 2.0304 1.6851 2.0304 5.4259 2.1993zm-96.779-2.191 1.1214-1.1214-.79362-4.8905-.79363-4.8905-5.2398-5.6242-3.7405 3.1043 1.4614 2.3645h3.8426l.19741 1.6667.19742 1.6667.43622 4 2.1897 4.8459zm27.858.94215h1.3333v-6.6667h-2.6667v6.6667zm12.869-1.5013 1.7976-1.4919v-3.2602l-5.1653-4.6745-2.8347 1.7519v4.2993l4.4048 4.8672zm-235.54-3.2462 3.3333-.88556 2.5333-2.367h-4.0236l-5.1764 4.1381zm212.59.74749h.58798l.82404-1.3333.82405-1.3333h-2.824v2.6667zm105.07 0h3.6793l-.0838-2-6.7242-4.8978-3.9191 1.5039 1.6843 2.6969 1.6843 2.6969zm-57.654-2 1.3333-.82405v-3.8426h-2.6667v5.4907zm41.6-.66667h1.0667v-2.4486l-1.6186-4.2181h-3.7147v3.4667l3.2 3.2zm-56.858-2.6667h1.9244v-3.4066l-4.1512-5.9267h-3.8488v3.4066l4.1512 5.9267zm28.693-.0204.76908.0204-1.1434-7.7906-6.3947-6.0075v-4.7111l-2.6667-1.6481v10.464l5.9081 7.693 2.7586 1.9592zm-103.77-1.3333 1 .0204v-2.6667l-6 .0408 4 2.585zm33.811.0204h1.8555v-6.7504l-4.115-1.5791-1.3481 1.3481 1.7522 6.9813zm86.744-4h1.7778v-4.8l-3.2-3.2h-2.1333v6.2222l.88889.88889.88888.88889zm-57.629-4.1203 1.2598-1.1993-2.5196-7.1292-2.8738-.95363-1.4842 3.2576-1.4842 3.2576 5.8423 3.9663zm23.381.12027h1.3079l1.7226-6.8633-2.9479-6.47h-8.3425l.80932 2.109.80931 2.109v3.7819l5.3333 5.3333zm-240.22-2.6667h1.8924l-.5623-12.333-.56229-12.333-6.5268-9.967-1.8613-.033 1.4574 4.3333 1.4574 4.3333 2.8131 3.5825v22.417zm164.8 0h2.1111v-4.2222l-3.1667 1.0556-.52777 1.5833-.52778 1.5833zm30.366-.15467.92131.15467 1.5353-2.4842-5.9713-4.1825h-3.157l.67868 2.5952.67867 2.5952 4.393 1.1668zm65.301.15467h2.4444v-8h-6.6667v6.2222l1.7778 1.7778zm22.608 0h1.1701v-2.3402l-3.5787-2.97-.86575.86575-.86576.86575 1.485 1.7894 1.485 1.7894zm-106.26-1.3333h2.0927v-6.8889l-3.3333 1.0978-.85214 5.7911zm48.202-5.4237 1.7717-1.4704-3.1887-5.1059h-4.6919v1.4272l4.3372 6.6195zm-19.422-1.2429h1.0274l1.6186-4.2181v-1.1152h-4.8889l-1.7546 1.7546 1.485 1.7894 1.485 1.7894zm-495.98-2.6667h1.0873l1.5376-4.6589 1.5376-4.6589 24.214-23.78-4.2099-8.9021-1.8006-7.224-3.4418-2.8565-14.874 16.436-3.1036 9.6444-2.4675 3.1186-.76959 19.548.60161 1.6667.60161 1.6667zm560.36-2.6667h2.4264l-.82764-10-5.771-.82212-.84456 2.661-.84457 2.661 3.4349 5.5001zm-14.877-1.427.85735.0937.83955-2.1878.83955-2.1878-1.4815-4.6679-7.5618-1.1098.31444 3.9972.31444 3.9972 5.0207 1.9716zm-28.806-3.9063h3.4679l-.42606-2.9864-.42607-2.9864-4-.69057-3.7219 2.3942.81911 2.1346.81911 2.1346zm-409.85-1.5739 2.8638-.42607 2.6967-4.3042-1.674-4.3625h-6.7504v9.5188zm56.803-4.5395 5-.90094 1.3333-1.016 1.3333-1.016 5.3333-1.5366-10.667 1.2203-7.3333.0294v4.1208zm340.28-.55323h1.0641l3.0334-3.655-5.144-6.345-1.8166 1.8093.89948 4.0953.89949 4.0953zm-319.94-1.3333h1.3333v-6.341l2.0561-4.921 2.0561-4.921 9.2826-3.8785 5.2719-4.6052 5.3333-4.6667v-6.6667h4v3.2l1.4568-1.4569 1.4568-1.4568-3.0931-5.7794-7.1343.82648-1.7493 3.6667-1.7493 3.6667h-2.2145l-2.1841-3.3333-2.1841-3.3333h-5.1145l-1.4278 2.3103 5.4215 4.9064-1.6746 6.7833-5.9908 6.6667-2.2428 3.6198-2.2429 3.6198v12.094zm-57.529-1.8661 5.8047-.78738 7.0572-3.3824v-3.6734l-4.6028-2.9033-7.8087 4.6127h-5.4947l-1.3333 2.4914-1.3333 2.4914 1.9062 1.9386zm399.53-2.2228 2.6667-.87865.39876-2.0149.39875-2.0149-7.0629-1.3502-5.0679 1.3253v4.8368l6 .97515zm24.24 1.4223h3.2884l-.4425-2.3333-.4425-2.3333-7.3105-.84379v1.2924l.80932 2.109.80931 2.109zm-388.03-4.6194 3.7906-.6023 9.3333-1.4589 5.0064-8.6527 5.0985-8.9346-1.7113-3.866-1.7113-3.866h-5.6892l-3.3197 4h-7.2602l-4.8266 5.3333h-8.92v2.8464l4.9568-1.5732 1.6521 1.9907 1.6521 1.9907-.92115 6.6975-.92114 6.6976zm-15.043-3.7695 1.3333-.44444.52778-1.5833.52778-1.5833h-5.5556v2.2222l1.8333 1.8333zm88.833-26.278h1.7778l-.88889-.88888-.88889-.88889-.88889.88889-.88889.88888zm7.3333-2.6667h.66667v-1.3333h-1.3333v1.3333zm7.3333-1.5439h3.3333l-3.3333-1.345-3.3333 1.345zm6-2.6541 2.6667.0816 16-3.6104-10.667-.0684-10.667 3.5154zm22.444-3.802h1.7778l1.9632-2 11.148-3.0715-6.6667-.24692-10 2.7771v2.5413zm16.482-5.3333h1.4358l7.6382-3.9836-5.3333.0684-2.5882 1.9576-2.5882 1.9576zm11.483-4.0937 2.4096.0937 12.514-2.8894 5.3333-2.14 12-3.2305 4-1.9997 14.667-3.599 5.3333-3.6409-10.667 1.8472-2.6667 1.9697-14.667 3.2503-8 3.5448-10 1.851v2.3699l-7.3333.1874-5.3333 2.2918zm136.01-9.3241 1.0877.0845 4.9175-2.6318-.67198-2.5697-.67199-2.5697-6.3155-5.9331-6.1-3.5671-14.076-6.7287h-11.48l-1.966 1.966-3.1451.1992-12.667 3.7211v1.9274l4.3245-1.2403 4.3245-1.2402h17.691l1.6599 2 1.6598 2h3.1183l11.889 12.254 5.3333 2.2435zm-76.421-8.1029h3.3333l5.3333-2.2918h-6.6667l-2.6667 1.1459-2.6667 1.1459zm11.222-3.9178 2.5556.10526-1.6111-1.6111-3.5 1.4006zm5.3333-1.3333 2.5556.10527-1.6111-1.6111-3.5 1.4006zm6.1111-1.2281h1.7778l-1.7778-1.7778-1.7778 1.7778zm-163.65-12.078 6.3514.0784 4.6305-2.3065 15.072-6.8699.91314-5.4048.91314-5.4048 1.2391-.76579 1.2391-.76578-.71754-1.161-.71753-1.161-9.9418 4.5063-46-.1696v4.7436l7.9877 9.0975 8.6789 3.2155 4 2.2896zm-32.384-7.9216h4.033v-13.417l-4.6667-1.7218-1.5863-2.3492-7.2958 1.8311-1.4414 3.7562 4.1378 4.5722 1.3931 3.6642 1.3931 3.6642zm414.33 655.96-8.2923-.0405-5.3333-3.1469-19.015-1.8592-5.6514-4.8389v-3.4669l-11.213-12.165-9.4532-5.177-9.2767-5.5515-38.723.235-8.6667-1.5785v-4.7513l4-1.5349v-3.4546l10-4.788 6.7364-3.7005 6.3665-6.7768.61599-13.85.616-13.85-3.1012-26.296-2.567-2.567v-37.976l1.1582-.71581 1.1582-.7158.89138-5.5744.89139-5.5744 3.6276-6.9102 1.4042-5.3333 1.4042-5.3333 1.2917-24.667h-2.6223l-10.159 4.9082-3.745-2.9082-3.3008-7.4588v-5.3582l8.442-7.7106-1.7176-2.0696-1.7176-2.0696h-2.2444-2.2444l-9.0362 6.6667h-2.2986-2.2986l-4.2181-1.6186v-12.525l8.7936-8.5231h.99051.99051l7.6776-5.6762 6.2145 1.5535.27846-31.211 4.3718-8 .0526-3.3333.0526-3.3333 5.0054-6h2.1858 2.1858l7.2009-3.7466 6.4648-6.92h4.8685v-3.6279l-6.2872-9.2647-1.9514-10.441-1.4844-1.7957-1.4844-1.7957 4.7843-2.6774-1.8363-18.285 7.2038-6.6763 11.231-5.4367h5.9186l5.9062 3.7007 9.8844 1.7318 5.5589 7.067-.28239 8.0836-.28238 8.0836 1.0378 6.0602 1.0378 6.0602-6.9396 8.2473 10.344 10.299 11.641 3.5426 8.5554 6.5083 2.6436 8.6159 5.4844 16 4.3094 9.3333 3.6739 7.5494v28.96l-2.3145 1.4304-3.1463 28.727 2.831 24.762 2.3699 4.5715 1.7818 5.9852 1.7818 5.9852 4.2579 4.0296 37.772 36.755v2.113l6.1719 5.7982h1.7908l18.704 15.006v11.713l-6.3511 9.947-20.982 20.311-8.8849 1.9488-6.4484-6.058v-2.9799l-12-11.777v-3.4448h-4v-3.1576l-19.333-19.508-8.6111-10.001-12.149-12.667h-2.5737v-2.6667h-2.3998l.21967 39.667.21966 39.667 2.3843 5.3333 2.3843 5.3333 6.7533 7.0506 12.439 3.1513 5.1263 2.7744 26.452.70913 11.755 11.536v4.7273l-6.7369 1.6909-20.119-1.8853-7.811 3.2354v2.0739l-10.749 5.6026zm-12.695-25.293h1.153l.74374-1.9382.74374-1.9382-4.2378-6.0504v-5.1967l-2.1577-2.3842-2.1577-2.3842-.68584-6.0847-.68583-6.0847-2.313-1.4295v-37.019l2.6667-1.6481v-14.547l-6-9.2629-3.3333-.033v-2.6667h-2.2468l-2.4024 4.461-2.4024 4.461 1.7798 25.078.71155 6 .71154 6 1.2592 2.6667 1.2592 2.6667.33181 22.667.3318 22.667 14.159.38095 1.619 1.619zm-50.185-17.333h2.0787l-.82405-1.3333-.82404-1.3333h-2.5093v2.6667zm-28.804-1.864 8.6083-.81928 2.6501-2.6501h6.6281l6.1719-5.7982v-6.3227l-9.3333 1.7509v-1.5656l2.6617-4.3656 2.6617-4.3656.01-32.133 2.7917-2.7917-.79174-19.726-9.3333-4.5539-3-.064-3-.0641-.0258 6 1.4748 13.333 1.4748 13.333 2.4095 4.6305v18.577l-1.241 3.0627-1.2411 3.0627-1.4087 6.6667-10.109 10.892-6.6667 4.7295zm51.204-4.8027h1.6546l3.2-3.2v-19.642l-1.1894-2.2457-1.1894-2.2457-4.2878-29.372v-9.4279l-2.5137-2.5333-3.0488-12-3.9993-16-1.403-7.6667-1.403-7.6667h-2.2303l-4.0685 7.8676v6.6417l-2.9743 1.8382 2.1627 12.319-.15564 13.737-.15565 13.737-2.9357 3.5373-.82581 10.709-.8258 10.709 2.2244 4.9052.17552 1.3333.17553 1.3333 1.5599 5.3333 1.5599 5.3333.014 10h17.176l1.6481 2.6667zm85.309-40h1.3741l6.1719-5.7982v-3.2242l5.5312-1.4464 1.4234-5.4429 5.325-1.6901-.83857-4.1929-.83857-4.1929-15.269-15.589-4.3561-1.7568-35.212-34.053-7.5113-3.8843-9.587 10.612v2.2589l7.643 10.4 21.024 20.256 6.616 3.501 4.9109 6.2432h2.7281l7.241 5.156 7.1707 1.7997-.0734 7.0442-9.1865 6.6667-.0367 1.2283-.0367 1.2284 4.4133 4.8766zm21.744-4h.92575l4.8766-4.4133v-2.2534h-2.36l-4.3682 6.6667zm-92.082-76h2.0644l-1.8003-6-12.379-12.609-4.6667-.058v4.1905l3.8019 3.8019 3.5315-1.2466 5.5618 4.6603 1.8223 7.2607zm19.504-4.1998.95309.19978 2.3895-4.6667 1.5169-9.8786-5.3395-6.7881h-6.5669l-6.5728 4.3067v2.049l5.3333 1.3947v12.073l7.3333 1.1109zm-20.32-14.532.63279.0654 8.6009-9.6676-.79142-4.1662-.79142-4.1662-.40131-.48171-.4013-.48171-6.8395 7.38-6.4976-2.9605-1.4672-8.7894-.67664-12-8-.77695-14.533 14.734v9.0404l8.8272 9.3585 7.0395-3.673 5.4086-.016 9.2581 6.5359zm32.812-5.268h2.1111l-1.0556-3.1667-3.1667-1.0556v4.2222zm-8.7088-8h.83635l1.59-3.4896 1.59-3.4896-1.6701-3.773-1.6701-3.7731-6.2009-1.5563-2.2486 1.3897-1.8469 7.3585 8.7841 7.3333zm-64.069-4h1.7778l-1.7778-1.7778-1.7778 1.7778zm39.921-5.3333h1.412v-2.6667h-1.176l-.82404 1.3333-.82405 1.3333zm-46.588-1.3333h1.7778l-1.7778-1.7778-1.7778 1.7778zm10.211-1.5082 1.7894-1.485v-3.1772l15.906-14.496.047-.87518.047-.87517-5.1647 1.3506-12.043 11.873-1.9206 3.85-1.9206 3.85 1.4704 1.4704zm-28.3-2.4918h1.7534l12.473-6.9712-.8308-4.3622-5.8731-.83908-9.335 4.4297-.80174 2.5261-.80175 2.5261 1.6628 2.6905zm20.525-4.024.8978-.024 8.6667-10.439.0578-2.1793 8.609-4 .4311-2.3333.43109-2.3333h-3.3028l-12.979 13.897-1.8548 3.7182-1.8549 3.7181zm47.68-2.6426h2.1731l-1.4311-6-1.9093-13.212-2.0101 6.2982-2.0101 6.2982 1.5071 3.3078 1.5071 3.3078zm-49.577-12.059 1.2052-1.151-7.077-9.2784v-3.5846l-2.0882-2.9813-2.0882-2.9813.75514-18.496-1.9397-1.9397-3.8876 5.1387-.18368 4-.18369 4 .27212 3.956.27213 3.956 5.0716 6.4476v2.4192l8.6667 11.646zm-36.715-1.274h.99981l5.1763-3.9152 8.842-.0848 5.158 2.7605v-3.8997l-9.9409-8.1941h-1.7161l-11.469 10.178 1.9502 3.1554zm42.287-4h2.1111l-1.0951-2-1.8559-4.3333-1.8559-4.3333h-2.4086l3.0329-3.6544.31349-4.9853.31348-4.9853-4.4431-2.887-4.2235 3.5052v7.9534l8 11.854v3.8663zm8.5556-7.3529 3.3333-.83739 8.4315-1.4074.69909-13.535.6991-13.535 1.7954-10h-4.1013l-4.1905 4.1905v7.6522l-2.6667 1.6481v5.176h-2.5678l.0107-8.3333.0107-8.3333-2.7073-9.0379.81677-7.8144.81676-7.8144h-2.6742l-4.1466 28.667-2.4118 9.3333 1.9272 3.0217 1.9272 3.0217-1.3322 13.865 1.4986 2.455 1.4985 2.455zm7.7876-41.309 3.2012-.80346 3.8095-3.8095 3.4419-2.0588 2.7408-13.333 2.1241-5.0658-7.3758 1.8512-13.063 12.858v9.2452l1.9197 1.9197zm30.879-16.672 1.2925-2 .0204-2.3333.0204-2.3333h-2.6667l.0204 4.3333.0204 4.3333zm-28.387-10.772 1.6127.10526 6.8579-7.3333 1.6882-6.594 4.6814-4.0726 1.759-8.6667h-2.7014l-.42189-3.6667-.4219-3.6667-10.245-.84227-9.0697 6.1756-.018 1.8426 2.6667 1.6481v2.5093h-9.3333v5.4094l7.9113 15.672 3.422 1.3746zm.36109-7.5016-2.3453.61331-1.239-.83658-1.2389-.83658-.11002-5-.11001-5h7.1145l.13696 5.2233.13696 5.2233zm4.5552-13.727h-.5862l-3.1245-6.8576 3.8484-2.4349 4.6667-.0408v7.7147l-4.2181 1.6186zm-15.862-8h2.2222l-.47778-1.4333-.47777-1.4333h-2.5333l-.47777 1.4333-.47778 1.4333z"/>
 </g>
</svg>
