<?xml version="1.0" encoding="UTF-8" standalone="no"?>
<!-- Created with Inkscape (http://www.inkscape.org/) -->

<svg
   version="1.1"
   id="svg1"
   width="680"
   height="896"
   viewBox="0 0 680 896"
   sodipodi:docname="worman-with-clubs_10.svg"
   inkscape:version="1.4.2 (ebf0e940d0, 2025-05-08)"
   xmlns:inkscape="http://www.inkscape.org/namespaces/inkscape"
   xmlns:sodipodi="http://sodipodi.sourceforge.net/DTD/sodipodi-0.dtd"
   xmlns="http://www.w3.org/2000/svg"
   xmlns:svg="http://www.w3.org/2000/svg">
  <defs
     id="defs1" />
  <sodipodi:namedview
     id="namedview1"
     pagecolor="#ffffff"
     bordercolor="#000000"
     borderopacity="0.25"
     inkscape:showpageshadow="2"
     inkscape:pageopacity="0.0"
     inkscape:pagecheckerboard="0"
     inkscape:deskcolor="#d1d1d1"
     inkscape:zoom="2.2712054"
     inkscape:cx="340.12776"
     inkscape:cy="448"
     inkscape:window-width="4078"
     inkscape:window-height="2222"
     inkscape:window-x="0"
     inkscape:window-y="0"
     inkscape:window-maximized="1"
     inkscape:current-layer="svg1" />
  <path
     style="fill:#000000"
     d="m 569.88523,893.84788 -2.78144,0.85975 -6.13857,-4.68715 -6.13858,-4.68715 h -1.35093 -1.35092 l -3.0624,-6.28134 L 546,872.77064 544.68383,870.38532 543.36766,868 h -1.59398 -1.59398 l -0.80727,-2.54349 -0.80728,-2.54349 -1.96925,-0.75568 -1.96925,-0.75567 -1.28033,-3.3675 -1.28032,-3.3675 H 530.033 528 v -2 -2 h -1.35217 -1.35217 l -7.2548,-5.90912 -7.2548,-5.90911 -4.39303,-2.12127 -4.39303,-2.12126 -7.33333,-6.60622 -7.33334,-6.60622 -1.12471,-0.0301 -1.12472,-0.0301 L 473.54195,810.83311 462,800.33289 l -3,-0.92296 -3,-0.92296 v -1.11179 -1.11178 l -5,-3.07939 -5,-3.0794 -3.33333,-1.58147 -3.33334,-1.58146 -4.66666,-4.3138 L 430,778.31408 418.23596,767.15704 406.47193,756 h -0.31499 -0.315 l -7.04324,-6.78878 -7.04324,-6.78878 -2.02636,2.89304 -2.02637,2.89305 0.48197,32.22907 0.48197,32.22907 h -4 -4 l -0.3891,-11.93057 -0.38909,-11.93057 -1.1493,-1.40277 -1.14929,-1.40276 -0.86345,-25.33333 -0.86344,-25.33334 -0.56302,-2.75875 -0.56302,-2.75876 -8.03694,-6.24124 -8.03694,-6.24125 h -1.13684 -1.13685 l -3.82108,-3.54126 -3.82109,-3.54127 -7.37361,-3.25008 -7.37361,-3.25008 -6,-2.75832 -6,-2.75832 -3.33333,-1.62971 -3.33334,-1.62972 -4.66666,-0.9716 L 306,693.03137 300.40649,690.51569 294.81297,688 h -2.20076 -2.20076 l -4.20573,-2.19039 -4.20572,-2.19038 -2.31524,-1.14295 -2.31524,-1.14295 h -1.52349 -1.52349 l -12.48679,-6.11467 -12.48679,-6.11468 -0.66188,-1.07095 -0.66188,-1.07095 -3.67927,-0.91826 -3.67926,-0.91825 -2,-1.72755 -2,-1.72755 -5.33334,-1.67566 -5.33333,-1.67567 -1.33333,-0.9194 -1.33334,-0.9194 -6,-1.70346 -6,-1.70345 -2.16919,-1.11217 -2.16919,-1.11217 -4.64987,-0.87232 -4.64988,-0.87233 -0.94632,12.09677 -0.94631,12.09676 -1.23462,0.76304 -1.23462,0.76304 0,5.03226 0,5.03227 -1.42871,7.88904 -1.42872,7.88905 -1.29495,2.40651 -1.29495,2.40652 -0.80467,8.61702 -0.80467,8.61703 -3.15565,0.79201 -3.15564,0.79202 -1.98268,-1.64548 L 176,721.00681 v -2.28118 -2.28119 l 1,-0.99059 1,-0.9906 2.2235,-12.23162 2.22349,-12.23163 1.54539,-6 1.5454,-6 1.23201,-12 1.232,-12 -0.77978,-4.97053 -0.77978,-4.97052 -0.0645,-11.02948 -0.0645,-11.02947 2.11328,-6.19299 2.11327,-6.19299 1.56083,-9.14034 1.56082,-9.14035 1.27285,-1.59471 1.27285,-1.5947 1.78633,-7.68456 1.78634,-7.68455 -1.55654,-3.59562 -1.55654,-3.59562 -6,-7.06422 -6,-7.06421 -2.33334,-2.39423 L 180,546.66667 180,545.33333 180,544 h -10.06621 -10.06622 l -3.81606,-1.97336 -3.81605,-1.97336 -2.64296,-3.35997 -2.64295,-3.35998 h -0.90335 -0.90334 l -1.90476,-1.90476 -1.90477,-1.90476 0,-1.28592 0,-1.28592 -2,-0.76747 -2,-0.76747 v -1.8992 -1.89919 l -1.71201,-0.65697 -1.71202,-0.65696 -3.18103,-6.18493 -3.18102,-6.18493 -3.68859,3.5339 -3.68859,3.53389 -3.08504,1.7653 -3.08503,1.7653 -6.58287,3.40005 -6.58287,3.40004 -1.545614,0 H 97.743035 L 93.204851,523.1056 88.666667,520.87787 86,517.98555 l -2.666667,-2.89232 -3,-4.15929 -3,-4.15929 0.01966,-3.72066 0.01966,-3.72066 1.928049,-3.33333 1.928049,-3.33333 0.915438,-1.80693 0.915438,-1.80694 4.136857,-4.37135 4.136857,-4.37135 L 95,478.0017 l 3.666667,-2.30839 0,-2.36561 0,-2.36561 -2.333334,-2.68431 L 94,465.59346 l -4.867382,-0.83227 -4.867383,-0.83227 -4.465951,4.45335 -4.465951,4.45334 -9.729189,10.14223 -9.729189,10.14223 -5.270811,0.89049 -5.270811,0.8905 -5.285604,-0.893 -5.285603,-0.89299 L 29.381063,487.734 24,482.35294 l 0,-5.20297 0,-5.20296 3.195353,-4.97351 3.195352,-4.9735 6.137981,-5.94428 6.137981,-5.94427 v -1.72239 -1.72239 L 40.333333,446.62433 38,446.582 l -4.469775,-4.4934 -4.469775,-4.4934 -6.107615,-0.9159 -6.107614,-0.91589 -4.352916,-3.32013 -4.3529155,-3.32013 -2.7708864,-4.69631 -2.7708864,-4.6963 -0.7943937,-7.60035 -0.7943936,-7.60034 2.71208,-5.26493 2.71208,-5.26492 4.4501716,-4.02242 4.450172,-4.02241 4.121782,-2.26133 4.121782,-2.26134 5.574435,-0.89138 5.574436,-0.89139 0.715806,-1.1582 0.715805,-1.1582 H 48.565544 60.97371 L 64.363827,380 l 3.390118,2.66667 7.348308,0 7.348308,0 4.441386,2.22559 4.441386,2.2256 2.333334,1.10774 L 96,389.33333 98.994675,391 l 2.994675,1.66667 7.68688,5.66666 7.68688,5.66667 1.36029,0 h 1.36029 l 0.78292,2.04025 0.78292,2.04026 3.04259,1.62641 3.04258,1.62641 9.23812,8.66667 9.23812,8.66667 4.73532,4 4.73531,4 2.93037,1.74321 2.93036,1.74322 1.89551,-1.57314 1.89552,-1.57315 0,-1.83674 0,-1.83674 1.17849,0 1.17849,0 4.15484,-8.35527 4.15485,-8.35528 0,-1.48146 0,-1.48147 2,-1.65985 2,-1.65985 0,-1.97644 0,-1.97644 3.33333,-6.63652 3.33334,-6.63651 0,-2.55712 0,-2.55712 H 172 157.33333 v 2 2 l 3.12669,0 3.12668,0 2.43378,2.68929 2.43378,2.6893 -3.01063,2.80482 -3.01063,2.80483 -3.54983,-1.62179 -3.54984,-1.62179 -13.78657,-0.98766 -13.78658,-0.98766 -1.19301,-1.88467 -1.193,-1.88467 -0.0204,-1 -0.0204,-1 h 2.51359 l 2.51359,0 4.26797,-1.79455 4.26798,-1.79455 -6.44823,-1.66242 -6.44823,-1.66242 -2.66667,-1.20996 -2.66666,-1.20996 -3.33334,0.24451 -3.33333,0.24451 -6.86957,-0.24425 -6.86956,-0.24424 -1.32759,-3.80832 -1.327588,-3.80832 0.863821,-1.19168 0.86382,-1.19168 2.577557,-1.42244 2.57756,-1.42245 0.89969,-1.91089 0.89969,-1.91089 2.14346,-4.12791 2.14345,-4.12792 -3.95404,-3.78821 -3.95403,-3.7882 v -4.25525 -4.25525 l 7,-5.94334 7,-5.94334 3.69983,-2.3937 3.69984,-2.3937 7.25428,0.0652 7.25429,0.0652 -5.91824,-5.12221 -5.91825,-5.1222 -3.03588,-0.94592 -3.03587,-0.94593 -4.85854,-3.82198 -4.85854,-3.82198 -1.53501,0 -1.53501,0 -10.273117,-6.89257 -10.27312,-6.89257 -0.666666,-0.90751 L 86,289.73318 l -3.904743,-1.27928 -3.904743,-1.27928 -1.295572,-2.05391 -1.295572,-2.05391 1.85913,-4.20007 1.85913,-4.20006 1.4421,0 h 1.442099 L 85.100915,271.58073 88,268.4948 v -1.53382 -1.53382 l 2.579011,-1.38025 2.579012,-1.38024 2.073539,0 2.07354,0 7.148638,6.47383 7.14863,6.47384 6.53215,3.19283 6.53215,3.19283 1.33333,1.00456 1.33333,1.00456 6.96786,4.66211 6.96786,4.6621 0.80774,0 0.80775,0 5.69505,4.66667 5.69506,4.66667 0.91961,0 0.91961,0 6.98432,5 6.98433,5 2.94065,1.66666 2.94065,1.66667 h 0.68475 0.68476 v -3.27078 -3.27077 l -4.53506,-2.15203 -4.53506,-2.15203 -0.87765,-4.67827 -0.87765,-4.67826 1.13461,-1.5656 1.13462,-1.56559 1.6973,-4.99881 1.69731,-4.99882 7.58079,-7.52058 7.58079,-7.52058 5.33334,-2.52144 L 198,262.585 l 2.1521,-1.5047 2.15211,-1.50469 1.9712,0.75642 1.97121,0.75642 2.21647,4.67086 2.21646,4.67086 3.96046,-1.49491 3.96045,-1.4949 4.8643,1.75895 4.86431,1.75896 1.14838,-1.81247 1.14838,-1.81247 0.0204,-2.35142 0.0204,-2.35143 1.17079,-2.31524 1.1708,-2.31524 5.49587,-11.63748 5.49587,-11.63747 0,-1.36253 V 232 l 1.01716,0 1.01716,0 1.31618,-2.54411 1.31617,-2.54411 3.00925,-6.31296 3.00925,-6.31296 22.07637,-21.8517 22.07638,-21.8517 1.87188,-4.48005 1.87188,-4.48004 7.51485,-6.69787 7.51485,-6.69788 -7.80569,-0.82093 -7.80569,-0.82093 -5.53752,-2.95905 -5.53752,-2.95904 -6.37619,-5.33334 -6.37619,-5.33333 -4.61016,-4.33713 -4.61016,-4.33714 -0.90008,-14.10084 -0.90008,-14.100832 -1.24272,-0.895362 -1.24271,-0.895363 L 263,88.351425 l -1.66667,-2.981908 0,-5.929624 0,-5.929624 8.15512,-6.407025 8.15512,-6.407024 3.84488,-5.588344 3.84488,-5.588343 V 48.0931 l 0,-1.426433 1.97343,0 1.97343,0 8.82768,-8 8.82768,-8 6.35242,0 6.35241,0 3.84648,-2.996704 3.84647,-2.996705 2.99641,-2.573953 2.99641,-2.573953 5.00359,-1.916031 5.00359,-1.916031 10,-2.292897 10,-2.292897 L 367.0868,9.5537479 370.84027,8 l 1.57986,-0.00821 1.57987,-0.00821 4,-2.2195871 4,-2.2195871 10.66667,0.047783 10.66666,0.047783 6,3.2452513 6,3.245251 6,4.244574 6,4.244574 1.81538,1.548341 1.81537,1.548341 8.85129,2.350335 8.8513,2.350336 6,2.630818 6,2.630819 2.8722,3.160698 2.87219,3.160699 1.4537,5.333333 1.4537,5.333334 0.0359,5.333333 0.0359,5.333333 5.30487,3.753139 L 480,66.839611 v 1.750268 l 0,1.750268 L 478,72 l -2,1.659853 0,2.503407 v 2.503407 l -0.89501,0 -0.89501,0 -2.39277,-2.165424 -2.39277,-2.165423 -8.74943,3.811667 -8.74944,3.811667 0.82955,3.776903 0.82955,3.776904 1.57292,3.031809 1.57292,3.031809 5.43911,6.545041 5.43912,6.54505 0.68555,2 0.68556,2 -2.11073,3.66666 -2.11074,3.66667 -1.37919,0.0444 -1.37919,0.0444 -3,2.5027 -3,2.50269 v 3.3103 3.31029 l -1.85049,0.7101 -1.85049,0.7101 -0.63315,5.76588 -0.63315,5.76589 1.99879,3.23058 1.99879,3.23057 0,5.34751 0,5.3475 -4.20285,3.75525 -4.20285,3.75525 -16.53232,0 -16.53232,0 -5.11331,5.83504 -5.11332,5.83505 -4.37916,8.34266 -4.37916,8.34266 2.37916,2.8005 2.37916,2.80051 1.40942,1.35512 1.40942,1.35513 3.27546,4.66667 3.27546,4.66666 5.49199,11.33334 5.49199,11.33333 3.63239,8 3.6324,8 1.08317,2.66667 1.08318,2.66666 3.39277,7.48237 3.39277,7.48237 1.49605,5.85097 1.49606,5.85096 1.85762,8 1.85761,8 0.0278,4.25464 0.0278,4.25465 1.33333,0.82404 1.33333,0.82405 0.0182,3.58798 0.0182,3.58797 0.82172,3.06789 0.82172,3.06789 3.88135,-0.85249 3.88135,-0.85249 1.86476,1.54761 1.86476,1.54761 3.74729,-0.42967 L 466,326 l -0.16558,-3.33333 -0.16559,-3.33334 -1.76972,-4.27061 -1.76973,-4.27061 6.4483,-6.56693 6.4483,-6.56693 7.39919,-0.86963 7.3992,-0.86963 1.63578,-1.35757 1.63578,-1.35758 0.86406,1.39808 0.86406,1.39808 2.64858,0 2.64858,0 3.27273,3.27273 3.27273,3.27272 V 305.27273 308 l 2.86409,2.8641 2.8641,2.8641 2.45115,-1.53077 2.45114,-1.53076 1.81144,0 1.81144,0 2.4133,2.66666 2.4133,2.66667 1.12669,0 1.12668,0 2.66667,2.66667 2.66666,2.66666 h 3.01261 3.0126 L 541.0239,318.66667 542.68926,316 h 1.82545 1.82544 l 1.68777,2.03364 1.68777,2.03364 2.24714,-2.03364 2.24715,-2.03364 3.22834,0.0436 3.22835,0.0436 5.75998,5.73828 5.75999,5.73827 0.50631,5.88475 0.50631,5.88475 0.0874,6.66667 0.0875,6.66667 1.16709,1.84274 1.16709,1.84274 7.14319,1.12918 7.14318,1.12919 1.66931,2.28291 1.6693,2.28292 v 4.33313 4.33314 l -1.52527,0.94267 -1.52527,0.94267 0.86448,15.13602 0.86449,15.13602 -5.00588,0.21548 -5.00588,0.21548 -13.66667,-0.17564 -13.66666,-0.17564 0.0588,3.62683 0.0588,3.62682 1.61672,6 1.61671,6 0.87006,1.34349 0.87007,1.34349 0.94583,5.32318 0.94583,5.32318 1.77243,4 1.77243,4 1.14826,4.66666 1.14826,4.66667 3.25453,0.46109 3.25452,0.46109 1.66667,1.36884 1.66666,1.36883 v 3.20308 3.20307 l -3.66422,1.39314 -3.66423,1.39314 -2.31076,2.09121 -2.31077,2.09121 -1.92078,-1.59411 -1.92078,-1.5941 -0.88905,-5.26225 -0.88905,-5.26224 -1.19656,0.73952 -1.19656,0.73951 0.35329,2.26615 0.35329,2.26615 0.7863,1.33334 0.78631,1.33333 0.91314,5.05828 0.91314,5.05829 -0.82755,2.60738 -0.82755,2.60738 -2.2438,-1.15216 -2.24381,-1.15216 -1.54448,0.55688 -1.54447,0.55687 -0.86755,-1.40371 -0.86754,-1.40372 h -3.048 -3.04799 l -2.33727,-2.58265 -2.33726,-2.58264 0.93099,-1.50637 0.93098,-1.50637 4.8663,0.42235 4.86629,0.42235 v -1.33333 -1.33334 l -1.77247,-12 -1.77248,-12 -1.22752,-2.31524 -1.22753,-2.31524 -0.0585,-2.35142 -0.0585,-2.35143 -1.98586,-5.33333 -1.98585,-5.33334 -1.25311,-7.20924 -1.25311,-7.20924 -3.03585,-3.28211 -3.03584,-3.2821 -16.66667,0.89319 -16.66667,0.8932 -8,1.16755 -8,1.16755 -16.66666,2.20201 -16.66667,2.20201 -1.26667,1.22859 -1.26666,1.22859 -3.4,0.0204 -3.4,0.0204 -1.59387,1.01328 -1.59387,1.01328 -1.42928,6.63297 -1.42928,6.63297 -1.17298,2.66666 -1.17297,2.66667 -2.67059,8 -2.67059,8 -2.34629,6.50026 -2.3463,6.50026 3.21301,2.58569 3.21301,2.58569 4,2.02972 4,2.02972 4.23977,2.33635 4.23978,2.33635 3.30411,2.16493 3.30411,2.16494 8.82693,0.90434 8.82692,0.90435 0.70788,1.14537 0.70788,1.14536 h 3.96413 3.96414 l 4.30609,1.7992 4.30609,1.7992 6.17614,6.97535 6.17615,6.97535 5.80827,0.73411 5.80827,0.73411 2.51736,2.15801 2.51735,2.15801 1.83387,4.33333 1.83388,4.33333 h 3.23675 3.23675 l 0.88022,1.42423 0.88023,1.42424 1.86513,-0.71572 1.86513,-0.71572 2,0.76747 2,0.76747 v 2.49704 2.49703 l -2.17803,5.44342 -2.17802,5.44342 3.07033,2.25023 3.07034,2.25023 6.10769,3.72562 6.10769,3.72562 2.33333,0.76322 2.33334,0.76322 v 0.92443 0.92443 l 8.73124,5.92006 8.73124,5.92006 2.26876,1.3538 2.26876,1.3538 6,3.96706 6,3.96705 0.66666,0.6829 0.66667,0.68289 5.405,3.66292 5.405,3.66292 0.86149,0 h 0.86149 l 5.87393,3.96426 5.87392,3.96426 1.68951,2.03574 1.68951,2.03574 1.50341,0.0142 1.50341,0.0142 6.66666,5.30499 6.66667,5.30499 1.404,0.0142 1.40399,0.0142 5.81482,4.27627 5.81483,4.27627 4.11451,2.3013 4.11452,2.30131 3.33022,1.75576 3.33023,1.75576 2.90622,3.33333 2.90621,3.33334 0.88287,4.66666 0.88288,4.66667 1.1715,1.41872 1.1715,1.41872 1.4938,11.91461 1.4938,11.91462 0.67228,10.66666 0.67229,10.66667 -1.40198,3.60901 -1.40198,3.60902 -5.63869,2.72432 -5.6387,2.72432 h -2.43432 -2.43432 l -2.31524,-1.33276 -2.31524,-1.33276 -3.66667,-1.30091 -3.66666,-1.3009 V 690.29967 687.2 l -1.48528,-1.48527 -1.48527,-1.48528 -1.11351,-14.44806 -1.11351,-14.44806 -0.0679,-12.09288 -0.0679,-12.09289 -3.50314,-3.04595 -3.50315,-3.04594 -8.0369,-5.1945 -8.0369,-5.1945 h -1.21558 -1.21559 L 611.05145,611 606.28083,607.33333 601.15699,604.66667 596.03315,602 587.01657,596.78144 578,591.56288 l -0.76104,-1.14015 -0.76104,-1.14014 -8.57229,-4.61482 -8.5723,-4.61481 -4.68371,-2.35981 -4.68371,-2.35982 -4.18878,-3 -4.18878,-3 -1.17892,0 h -1.17892 l -4.61525,-2.41554 -4.61526,-2.41554 -4.66667,-2.99049 -4.66666,-2.99048 -6,0.79109 -6,0.79108 -21.31122,0.55498 -21.31122,0.55499 -3.10825,-2.92005 -3.10824,-2.92004 -2.04735,-4.31446 -2.04734,-4.31446 -8.22231,-8.51053 -8.2223,-8.51054 -4.14931,-2.14569 -4.14931,-2.14569 -0.70749,-1.84368 -0.70749,-1.84368 -6.34934,-4.20563 -6.34935,-4.20564 h -1.77141 -1.77141 v 5.73334 l 0,5.73333 -1.63328,1.63328 -1.63328,1.63328 1.63328,2.61529 1.63328,2.6153 v 4.90612 4.90613 l 6.72385,14.11197 6.72384,14.11196 1.173,2.15007 1.17301,2.15007 1.61797,8.22401 1.61798,8.22401 -0.70962,7.82587 -0.70963,7.82587 -3.05594,4.13339 L 424.83184,616 h -2.24251 -2.24252 l -0.64853,-5.75368 -0.64852,-5.75369 -4.85821,-7.0626 -4.85822,-7.0626 v -1.64373 -1.64373 l -2.66666,-2.4133 -2.66667,-2.4133 0,-1.74644 v -1.74644 l -2.83634,-1.51796 -2.83635,-1.51797 0.57474,12.02109 0.57473,12.02108 6.3268,7.40559 6.32679,7.4056 3.98181,2.83529 3.98181,2.8353 1.61967,-1.26204 1.61967,-1.26204 10.19243,-1.69339 10.19242,-1.69339 5.80758,3.10753 5.80757,3.10753 7,6.6781 7,6.6781 v 1.05255 1.05256 l 7.66667,6.90687 7.66667,6.90687 15.66666,15.89734 L 516,681.62243 v 1.21737 1.21737 l 3.26241,4.97142 3.2624,4.97141 4.20806,10.66667 4.20805,10.66666 1.19621,1.26667 1.1962,1.26667 v 2.28657 2.28658 l 7,5.36662 7,5.36663 2.33334,2.08013 2.33333,2.08013 h 1.05778 1.05778 l 11.27556,11 11.27555,11 5.19168,2.35397 5.19168,2.35396 8.80832,9.0611 8.80832,9.0611 5.33333,2.10832 5.33333,2.10831 5.5437,1.64945 5.54371,1.64945 2.78963,3.77318 L 632,797.22535 V 798.61268 800 h 1.31544 1.31544 l 2.00429,4.79694 2.00429,4.79693 -1.50661,5.98329 -1.50661,5.98329 -1.81312,0.69576 L 632,822.95197 v 1.26742 1.26743 l -8.13568,9.58992 -8.13569,9.58993 -1.47241,3.33333 -1.47242,3.33333 -4.03313,5.24729 -4.03313,5.2473 -3.12464,3.41937 -3.12464,3.41938 -3.56747,3.75596 -3.56746,3.75596 -9.33333,8.40476 -9.33333,8.40477 z m -4.2465,-16.03663 1.24588,-0.76999 7.6488,-15.52063 L 582.1822,846 587.0911,837.53858 592,829.07716 v -1.20525 -1.20524 h 1.00785 1.00785 l 1.73529,-3.92029 1.73529,-3.92028 8.59019,-9.27821 8.5902,-9.2782 v -1.30492 -1.30492 l -2.03355,-1.68769 -2.03354,-1.68769 -13.96646,14.44844 -13.96645,14.44844 v 1.6764 1.67641 l -2.22751,1.24658 -2.22751,1.24657 -2.36541,4.48635 -2.36542,4.48634 -3.42598,7.33333 -3.42599,7.33334 -2.52324,4.71447 -2.52325,4.71448 -0.97507,6.50228 -0.97508,6.50227 2.38032,1.74054 2.38033,1.74054 z m -15.16554,-12.76794 1.90765,-0.37664 0.97286,-2 0.97286,-2 9.15068,-18.66667 9.15067,-18.66667 5.01938,-6.94306 5.01938,-6.94307 v -1.01004 -1.01004 l 2.60939,-2.71356 2.6094,-2.71356 4.87697,-5.66432 4.87697,-5.66433 -2.15731,-4.54619 -2.15731,-4.54619 -6.22432,-4.12282 -6.22431,-4.12282 h -1.91406 -1.91406 l 0.70334,1.83289 0.70335,1.83288 -5.22736,5.10438 L 568,787.20786 v 2.98405 2.98404 l -1.39197,0.86029 -1.39197,0.86028 -3.36393,-2.20413 -3.36393,-2.20413 -1.91076,1.5858 -1.91077,1.58579 v 2.50341 2.50341 h 1.18141 1.18141 l 2.1876,4.61003 2.1876,4.61002 1.23076,0.76065 1.23075,0.76065 1.44715,-2.70401 L 566.76049,804 h 1.95309 1.95309 l -0.0424,1 -0.0424,1 -1.9576,2.58817 -1.95759,2.58818 v 4.89868 4.89868 l -2.82053,3.58572 -2.82052,3.58571 -2.66966,-0.4059 -2.66965,-0.40591 -2.68017,-7.33333 -2.68017,-7.33333 -1.82965,-2.10499 -1.82965,-2.10499 v -1.64037 -1.64037 L 545.33333,806 544,806.82405 v 3.25464 3.25464 h 1.33333 1.33334 l -0.0182,3.66667 -0.0182,3.66667 -0.80396,3 -0.80397,3 -13.51116,-0.008 -13.51116,-0.008 -3.57685,-1.86612 -3.57686,-1.86612 -4.40359,-0.96719 -4.40359,-0.96719 -3.06116,-2.00576 -3.06117,-2.00575 -0.81506,0.81506 -0.81506,0.81505 1.6866,2.03223 1.68659,2.03222 h 1.83674 1.83674 v 1.70768 1.70768 l 3.66667,1.62755 3.66667,1.62754 4,2.29429 4,2.29428 4.66666,2.80503 4.66667,2.80503 14.31556,4.56546 14.31555,4.56546 0.0178,2.06666 0.0178,2.06667 -1.52778,1.52778 -1.52778,1.52778 -3.64385,-0.72877 -3.64385,-0.72877 -0.88941,1.43909 -0.8894,1.43909 3.01046,4.07188 3.01047,4.07187 z m -39.13986,-55.88929 8,-0.84599 4.70469,-1.82068 4.70469,-1.82068 3.80846,-3 3.80845,-3 0.82019,-0.0188 0.82019,-0.0188 5.89291,-5.31451 L 549.78583,788 h 3.61049 3.61049 l 1.57315,-1.89552 1.57314,-1.89552 -1.25121,-2.43781 -1.25121,-2.43782 -2.27467,-9.32082 -2.27466,-9.32082 -3.34295,-6.82719 -3.34295,-6.8272 -11.98281,-12.85198 -11.98281,-12.85199 h -1.35585 -1.35585 l 2.87603,4.33334 2.87603,4.33333 2.44412,5.33333 2.44412,5.33334 5.47745,5.27059 5.47745,5.2706 v 3.65071 3.65072 l 1.33334,0.82404 1.33333,0.82405 v 4.00896 4.00897 l -1.50959,2.91235 -1.50959,2.91234 -4.20086,5.33333 -4.20086,5.33334 -1.62288,3.7294 -1.62289,3.7294 v 3.2706 3.2706 h -2.61975 -2.61976 l -1.36874,-2.55752 -1.36874,-2.55752 0.81763,-4.44248 0.81762,-4.44248 2.00972,-3.21587 2.00971,-3.21586 -0.0424,-12.49114 -0.0424,-12.49115 -1.45305,-1.75082 -1.45305,-1.75082 -4.78283,-9.20884 -4.78283,-9.20884 -2.8939,-3.12668 -2.89389,-3.12669 -3.60046,-1.87331 -3.60045,-1.87332 h -2.19104 -2.19104 L 496.38633,724 l -0.69735,2.66667 h -3.02448 -3.02447 L 487.16952,723 l -2.4705,-3.66667 -1.34951,-2.55943 -1.34951,-2.55944 -4.66667,-2.59786 -4.66666,-2.59787 -6.18504,-5.17603 -6.18504,-5.17603 h -1.21537 -1.21536 L 445.93293,687.94551 434,677.22436 l -3.34772,-3.27885 -3.34773,-3.27884 H 425.65228 424 v -2 -2 h -1.43861 -1.4386 L 413.45796,660 l -7.66484,-6.66667 h -1.45211 -1.45212 l -0.44445,-1 -0.44444,-1 -4.81099,-2.22163 -4.811,-2.22163 -0.78801,-3.94005 -0.78801,-3.94005 -5.06766,-7.9223 -5.06766,-7.92229 -6.99441,-5.91603 -6.9944,-5.91602 -3.74673,-1.33333 -3.74672,-1.33333 -3.25887,-2.03197 -3.25887,-2.03196 -3.71991,-1.8885 -3.71991,-1.88851 -7.82313,-7.07953 -7.82314,-7.07953 h -0.90788 -0.90787 l -8.8639,-8 -8.86391,-8 h -1.49657 -1.49656 L 305.4287,581 l -1.61518,10.33333 -1.24009,2.31524 -1.2401,2.31525 v 2.0721 2.07211 l -5,-0.29353 -5,-0.29353 -6.66666,4.74471 -6.66667,4.74471 -2.87683,0.87889 -2.87682,0.8789 -0.748,1.94924 -0.74799,1.94925 h -4.50186 -4.50187 l -2.33726,2.58265 -2.33727,2.58264 0.94274,1.52539 0.94275,1.52539 3.47286,-0.87164 3.47287,-0.87163 8.04834,-3.97978 8.04834,-3.97979 2,-1.16041 2,-1.16042 2,-0.75438 2,-0.75438 2.25529,-1.61911 2.25528,-1.6191 2.51637,2.27728 2.51637,2.27729 H 301.77165 304 v -5.18562 -5.18563 l 2.40853,-2.9744 2.40852,-2.97441 5.59148,6.6784 5.59147,6.6784 v 2.59181 l 0,2.59181 -5.25515,4.22315 -5.25515,4.22315 h -0.79884 l -0.79884,0 -3.93509,2.90934 -3.9351,2.90934 -3.09685,-2.90934 -3.09685,-2.90934 h -0.86715 -0.86716 l -1.36114,2.54333 -1.36115,2.54333 5.60907,8.39965 5.60907,8.39965 19.37183,19.44048 19.37183,19.44047 9.20836,10.94988 L 357.75004,704 h 0.97133 0.97132 l 11.15366,8.41232 11.15365,8.41232 7.33333,3.4285 7.33334,3.42851 3.33333,0.94487 3.33333,0.94488 3.59969,1.51013 3.59968,1.51014 1.34055,2.70416 1.34055,2.70417 2.01173,4.66667 2.01172,4.66666 3.52508,6 3.52508,6 6.8563,6.46359 6.85629,6.46358 5.33333,4.94034 5.33334,4.94033 7,4.4873 7,4.4873 v 0.97835 0.97835 l 3.66666,1.52812 3.66667,1.52812 6.66667,3.86007 6.66666,3.86007 2,0.82723 2,0.82722 4,1.86065 4,1.86065 4,0.3877 4,0.3877 z m -1.25464,-91.82069 h 0.58798 V 716 714.66667 h -1.41203 -1.41202 l 0.82405,1.33333 0.82404,1.33333 z m -17.96758,-5.37387 2.11111,0.0405 0.81496,-0.81496 0.81496,-0.81495 -3.78521,-3.18505 L 488.28172,704 h -1.15347 -1.15346 l -1.66536,-2.66667 -1.66536,-2.66666 h -1.46007 -1.46007 l -11.01481,-10 -11.0148,-10 h -1.21692 -1.21691 L 451.83857,675 l -3.42192,-3.66667 -5.87499,-4.97402 -5.87499,-4.97402 -8.66667,-7.99904 -8.66667,-7.99904 -1.7594,-0.0269 -1.7594,-0.0269 0.42607,-2.89556 0.42607,-2.89556 5.636,-1.872 5.63601,-1.87199 4.94318,-2.4044 4.94318,-2.4044 -4.17981,-2.16147 -4.17981,-2.16146 -6.72072,1.44133 -6.72071,1.44134 -0.75735,1.22542 L 414.50929,632 h -2.40817 -2.40816 l -3.51819,2.76741 -3.51819,2.76741 1.67171,2.27344 1.67171,2.27345 9.38833,8.62581 9.38833,8.62581 6.85389,6.19185 6.85389,6.19186 1.32212,0.47481 1.32211,0.47482 5.769,5.34146 5.769,5.34147 6.8517,5.65853 6.85171,5.65854 h 1.48163 1.48162 v 2 2 h 1.48163 1.48163 l 6.18504,5.12317 6.18504,5.12318 2.66666,1.50295 2.66667,1.50294 z m 17.4129,-2.70457 2.19069,0.0784 0.80931,-2.10905 0.80932,-2.10905 v -4.39478 -4.39479 l -1.95342,-4.6752 -1.95342,-4.6752 -6.20741,-6.82096 -6.20741,-6.82097 h -1.1725 -1.1725 v 1.60319 1.60319 l 4.17637,4.30893 4.17638,4.30893 -0.73796,1.92307 -0.73795,1.92308 -3.33267,-0.63708 -3.33267,-0.63708 -1.64742,-3.97722 -1.64742,-3.97722 -4.79166,-3.22372 -4.79167,-3.22373 -4.66667,-3.12691 -4.66666,-3.1269 -5.2888,-0.98486 -5.2888,-0.98486 -11.46463,-11.21874 -11.46462,-11.21873 h -4.24658 -4.24657 v 1.46487 1.46487 l 9.51002,8.86846 9.51002,8.86846 6.05663,4.33235 6.05662,4.33235 2.18547,2.33432 2.18547,2.33432 6.49104,5.33333 6.49104,5.33333 4.2662,3.66667 4.26619,3.66667 h 1.49065 1.49065 v 2 2 h 1.83674 1.83674 l 1.80654,2.17675 1.80654,2.17675 4.69005,3.07813 4.69005,3.07814 z M 660,689.29471 l 3.33333,0.002 2.86637,-0.76902 2.86636,-0.76902 0.53126,-3.61973 0.53126,-3.61973 -1.10741,-13.84172 -1.10741,-13.84171 -1.18779,-1.4312 -1.18778,-1.43119 -0.91487,-8.08638 -0.91487,-8.08639 -3.52089,-4.02221 -3.52089,-4.02221 -10.399,-5.70143 -10.399,-5.70142 -0.57164,0.57163 -0.57163,0.57164 6.44924,4.91825 6.44924,4.91825 h 1.25984 1.25984 l 4.26312,4.39843 4.26313,4.39843 -1.60157,1.60157 -1.60157,1.60157 H 652.4 649.33333 v 14.58798 14.58798 l 1.15178,0.71184 1.15178,0.71183 0.68102,9.51816 0.68102,9.51816 1.83387,1.16161 1.83387,1.16161 z M 324.82993,688 H 328 v -2.24762 -2.24762 l -11,-10.78032 -11,-10.78033 -8.70218,-7.97205 -8.70218,-7.97206 -5.05179,-3.80111 -5.05179,-3.80111 -4.51765,-0.12806 -4.51765,-0.12806 -2.50003,2.26251 -2.50004,2.2625 h -2.13157 -2.13157 l -2.76344,-3.51315 -2.76344,-3.51314 v -1.76098 -1.76098 L 251.33333,627.20648 248,622.29454 v -5.63148 -5.63148 l -7,-6.38008 -7,-6.38007 -6,-5.55388 -6,-5.55388 -4.83244,-2.92035 -4.83243,-2.92036 -1.40223,1.68959 -1.40223,1.68958 -1.54338,6.64893 -1.54337,6.64894 -1.15255,2.66667 -1.15255,2.66666 -1.52264,7.78887 -1.52264,7.78886 -2.51749,5.54447 -2.51748,5.54447 -0.0293,2.29909 -0.0293,2.2991 3.66667,1.87657 3.66666,1.87658 6,0.97508 6,0.97509 1.33334,1.03328 1.33333,1.03329 6.93894,0.93268 6.93893,0.93268 7.55594,4.54995 7.55593,4.54994 h 0.67485 0.67484 l 8.83028,4.1721 8.83029,4.17209 5.33333,2.42746 5.33334,2.42746 6.08763,2.73378 6.08763,2.73378 h 1.13088 1.13089 l 11.70347,6 11.70347,6 h 1.91476 1.91475 l 1.65985,2 1.65985,2 z m 165.5034,-17.3397 0.33334,0.006 v -2 -2 h -2 -2 v -1.83674 -1.83674 l -1.9416,-1.61138 -1.94159,-1.61138 -1.38476,0.85582 -1.38475,0.85583 4.99301,4.58592 4.99302,4.58593 z m -23.93052,-17.05718 3.59719,-0.6672 0.90697,-1.39612 0.90696,-1.39611 -1.28721,-2.40518 -1.28721,-2.40518 h -4.04074 -4.04075 l -2.49809,-1.33694 -2.49809,-1.33693 -0.89748,1.45214 -0.89748,1.45215 4.21937,4.35328 4.21937,4.35328 z M 447,633.31292 l 3.66667,0.0204 V 632 630.66667 l -5.66667,0.0204 -5.66667,0.0204 2,1.2925 2,1.2925 z m -45.21088,-5.57135 2.8503,-0.40824 0.43957,-2.30655 0.43956,-2.30656 -4.08644,-4.36011 -4.08644,-4.36011 -0.006,-1.60041 -0.006,-1.60042 -1.96204,-1.09801 -1.96204,-1.09802 -1.42477,-9.96823 -1.42477,-9.96824 0.34718,-17.33334 0.34718,-17.33333 -1.06631,-4.33333 -1.06631,-4.33334 h -1.02511 -1.02511 L 386.13554,571 l -0.93569,25.66667 -1.80055,1.81967 -1.80055,1.81968 -8.46604,-4.26522 -8.46604,-4.26522 -5.12551,-4.88779 -5.12551,-4.88779 -1.11196,-2.83465 -1.11196,-2.83465 -6.4292,-3.0798 -6.4292,-3.0798 -5.54682,-5.23618 -5.54682,-5.23618 -3.11984,-1.79212 L 322,556.1145 l -2.87048,-1.30834 -2.87048,-1.30834 -0.87488,-1.41558 -0.87487,-1.41557 h -2.58798 -2.58798 V 554 557.33333 H 310.66667 312 v 1.80659 1.80659 l 7.09575,6.52675 7.09576,6.52674 4.7894,4.33333 4.7894,4.33334 h 0.80035 0.80035 l 7.64783,6.19655 7.64783,6.19654 0.44444,1.13679 0.44445,1.13678 h 1.90698 1.90698 l 2.31524,1.14295 2.31524,1.14295 4.66667,2.42553 4.66666,2.42553 2.66667,1.43152 2.66667,1.43152 10.66666,9.33334 L 398,626 l 0.46941,1.0749 0.46941,1.0749 z m 230.54421,-13.18417 1,0.10927 v -1.37518 -1.37518 L 631,611.02114 l -2.33333,-0.89517 -5.68318,-3.83526 -5.68318,-3.83526 -1.65016,0.61335 -1.65015,0.61334 3.33333,1.45058 3.33334,1.45057 5.33333,3.93242 5.33333,3.93242 z m -366.01172,-8.64307 7.54141,-3.33517 4.40182,-3.35744 4.40183,-3.35743 v -4.00864 -4.00864 l 1.53194,-9.59017 1.53194,-9.59017 1.14121,-1.47777 1.14122,-1.47777 0.79358,-15.85557 0.79359,-15.85556 0.0245,-0.66667 0.0245,-0.66666 -0.15789,-2.17783 -0.1579,-2.17782 -2.76561,-0.72323 -2.76562,-0.72322 -0.72323,-2.76562 -0.72322,-2.76562 -1.51116,0.01 -1.51116,0.01 -6,-6.4334 -6,-6.43339 -9.40815,-8.57623 -9.40815,-8.57623 -4.69271,-4 -4.69271,-4 -3.36814,-1.78618 -3.36815,-1.78619 -3.72569,3.45285 -3.72569,3.45286 h -4.54713 -4.54713 L 211.92484,482.36952 208,478.07237 V 477.03618 476 h -2.60041 -2.60042 l -1.06625,1.88283 -1.06625,1.88283 -5,5.39242 -5,5.39242 v 1.07171 1.07171 l -3.65696,3.94385 -3.65695,3.94386 -3.00971,4.43506 -3.00972,4.43507 0,0.96461 v 0.9646 l -3.44941,5.07627 -3.44941,5.07626 2.32273,2.56658 2.32273,2.56659 h 1.79335 1.79335 v 1.26058 1.26057 l 3.59437,1.73943 3.59438,1.73942 7.17982,9.33333 7.17981,9.33333 4.69453,8 4.69452,8 2.32338,2.19159 2.32338,2.19158 4.14169,2.14175 4.14169,2.14175 7.06621,0.0581 7.06622,0.0581 5.77391,1.11584 5.77391,1.11584 1.4751,1.4751 1.47509,1.4751 -2.91567,3.10359 -2.91568,3.10359 v 4.62285 4.62284 l 6.72343,6.24931 6.72343,6.2493 z m -34.98828,-35.44469 -6.66666,0.028 -2.73957,-1.10951 -2.73956,-1.10952 -4.3638,-4.97009 -4.3638,-4.97009 -1.38861,-3.50255 -1.38862,-3.50255 -4.32358,-9.33333 -4.32358,-9.33333 -3.57284,-7.6952 -3.57284,-7.69519 0.88066,-4.97147 0.88066,-4.97148 4.10263,-4.33333 4.10262,-4.33333 h 2.43812 2.43811 l 1.30033,3.42013 1.30033,3.42013 v 2.42436 2.42436 l -2.65993,0.69559 -2.65994,0.69559 -0.76606,1.99632 -0.76606,1.99633 2.58247,5.79692 2.58248,5.79693 0.7984,3.33334 0.79841,3.33333 4.28187,5.16946 4.28188,5.16946 9.08806,-0.84464 9.08805,-0.84465 2.67519,2.67519 2.67518,2.67518 v 3.12668 3.12669 l 2.33334,2.02757 2.33333,2.02757 3.33333,0.79623 3.33334,0.79624 1.77613,2.87337 1.77614,2.87338 -1.43877,1.43876 -1.43876,1.43877 -7.67071,0.95819 -7.6707,0.9582 z m 381.55556,31.75258 0.88889,-0.88889 -0.88889,-0.88889 L 612,599.55556 v 1.77777 1.77778 z m -191.22222,-3.88046 1.66666,-0.54712 0.43504,-4.46161 0.43504,-4.46161 -1.28823,-2.76904 -1.28822,-2.76905 -1.55606,-6 -1.55606,-6 -4.71102,-10 -4.71102,-10 -2.3792,-4.66666 -2.37919,-4.66667 -1.00424,-4.66667 -1.00423,-4.66666 -1.82964,-2.63001 -1.82963,-2.63001 -0.0204,-3.36999 -0.0204,-3.36999 -1.2925,-2 -1.2925,-2 -0.0204,5 -0.0204,5 h -4.66667 -4.66666 v 1.76758 1.76758 l 3.33333,3.1315 3.33333,3.13151 v 1.56093 1.56093 l 2.77674,2.51291 2.77674,2.51292 1.88993,4.52323 1.88993,4.52324 v 1.91032 1.91032 l 2.56921,5.63977 2.56921,5.63977 0.9432,3.95374 0.9432,3.95375 1.63056,2 1.63055,2 3.5237,7.5841 3.5237,7.5841 v 1.52701 1.52701 z m 186.33123,-0.63331 0.66457,-0.59315 -2.54436,-1.86048 -2.54435,-1.86048 -3.77534,-3.36384 -3.77533,-3.36383 h -1.3059 -1.30589 L 587.70565,582.86319 582,579.05971 576.595,575.52985 571.19,572 h -1.07663 -1.07662 l -6.18504,-5.17304 -6.18504,-5.17304 -5.33334,-2.98583 -5.33333,-2.98582 -4.66667,-3.61961 -4.66666,-3.61961 -2.33334,-0.84635 -2.33333,-0.84634 0.009,3.62482 0.009,3.62482 4.32422,2.69735 4.32423,2.69734 2.66666,1.64421 2.66667,1.64421 4.33333,2.23873 4.33334,2.23873 v 1.08638 1.08638 h 2.20748 2.20747 l 4.12586,3.09401 4.12585,3.09401 5.97439,2.35166 5.97439,2.35165 6.20425,4.55434 6.20425,4.55433 h 0.96282 0.96283 l 4.85853,3.80629 4.85854,3.80628 2,0.67784 2,0.67785 z m -236.33123,-19.22336 5.66666,0.18158 0.10789,-9 0.10789,-9 0.84377,-9.33334 0.84377,-9.33333 -0.048,-8 -0.048,-8 -0.29706,-8 -0.29705,-8 1.3808,-29.33333 1.38079,-29.33334 0.8822,-30.00163 0.88219,-30.00164 -2.1045,-1.74657 -2.10449,-1.74658 -2.75637,5.74821 -2.75637,5.74821 -2.66074,4 -2.66074,4 -0.8241,2 -0.8241,2 -1.89411,4 -1.89412,4 L 361.008,422 l -1.58495,2.66667 -4.37819,6.97948 -4.37819,6.97949 v 1.08459 1.08458 L 345,445.72554 l -5.66667,4.93073 -8,6.68316 -8,6.68316 -5.33333,1.40022 -5.33333,1.40022 -4.20151,1.92182 -4.2015,1.92182 -13.88695,0 h -13.88695 l -7.91155,-1.45653 -7.91154,-1.45652 -1.33334,-1.09083 -1.33333,-1.09083 -4.98592,-0.93172 -4.98592,-0.93173 -0.78533,2.47908 -0.78533,2.47908 -1.82377,3.41777 -1.82377,3.41777 7.92946,5.77438 7.92947,5.77438 3.47099,1.80077 3.47099,1.80078 1.14033,-0.70477 1.14033,-0.70476 2.38757,1.24819 2.38757,1.24819 14.31841,1.42314 14.31842,1.42313 3.01491,1.90963 3.01492,1.90963 4.55558,0.95231 4.55558,0.9523 3.62143,2.20232 3.62142,2.20232 9.48966,8.86355 9.48967,8.86355 v 1.30339 1.30339 l 1.75337,0.67283 1.75338,0.67284 2.24662,6.95626 2.24663,6.95627 v 2.43486 2.43486 L 352,546 l 1.33333,0.82405 v 11.15234 11.15234 l 3.37885,4.01553 3.37884,4.01553 2.95449,0.57186 2.95449,0.57186 z m -28.38334,-16.23953 1.38334,-0.45443 0.40383,-2.72586 0.40383,-2.72586 -2.19082,-0.8407 -2.19082,-0.84069 -1.21301,0.74968 -1.21301,0.74968 v 1.65464 1.65465 l 1.61666,1.61666 L 341.9,562.7 Z m 140.16111,-8.93264 1.44445,0.0204 0.7698,-0.7698 0.76981,-0.76981 7.71349,-0.47072 7.71349,-0.47071 2.17932,1.16633 2.17933,1.16634 3.71201,-1.92581 3.71201,-1.92582 h 3.84759 3.84759 v -1.35142 -1.35143 l -1.20338,-2.31524 -1.20338,-2.31524 -1.6767,-5.66667 -1.6767,-5.66666 h -2.45325 -2.45325 v 0.68476 0.68475 l 1.5415,2.98191 1.5415,2.98191 1.09786,2.27152 1.09786,2.27152 -1.39005,0.85909 -1.39004,0.8591 -2.58265,-2.33726 L 508,539.5867 v -1.92086 -1.92085 l -2.63346,-3.69835 -2.63346,-3.69836 -1.34653,-3.54164 -1.34653,-3.54164 -2.02001,-0.77515 L 496,519.7147 l -2.22296,0.85303 -2.22295,0.85302 1.55629,1.55629 1.55629,1.55629 0.0243,2.06667 0.0243,2.06667 3.97574,5.8673 3.97574,5.86731 V 542.20064 544 H 500 497.33333 v -2.20748 -2.20748 L 494,535.21482 l -3.33333,-4.37023 v -1.46414 -1.46414 l -2,-0.76747 -2,-0.76748 v -1.85735 -1.85734 H 485.33333 484 v 2 2 h -1.91073 -1.91074 l -4.91655,-6 -4.91655,-6 H 469.17272 468 v 2.13182 2.13183 l 1.8325,4.20151 1.8325,4.2015 1.50084,5.48803 1.50083,5.48803 v 4.8453 V 548 h -1.92131 -1.92131 l -0.76729,-1.2415 -0.76729,-1.24149 -0.15201,-6.74734 -0.15202,-6.74734 -5.49272,-5.78802 -5.49272,-5.78802 -6.2244,-4.88981 -6.22439,-4.88981 h -2.03025 -2.03025 L 440.66667,509.33333 439.84262,508 H 435.92131 432 v 2.45962 2.45961 l 6.94792,6.54039 6.94791,6.54038 8.71875,8.73805 8.71875,8.73806 2.89911,3.59528 2.89911,3.59528 4.43423,0.0204 4.43422,0.0204 2,1.2925 2,1.2925 z m -1.53915,-3.97959 h -1.74791 l -0.82647,-1.33725 -0.82646,-1.33725 0.90162,-6.01248 0.90163,-6.01247 1.02841,-0.63559 1.02841,-0.6356 1.363,1.65199 1.36301,1.65199 -0.71867,6.33333 -0.71867,6.33333 z m -150.7569,-1.41785 2.48172,0.0845 -0.91301,-4.86674 -0.913,-4.86674 -4.15003,-5.16415 -4.15002,-5.16415 -4.32973,-3.30244 -4.32973,-3.30245 h -0.98397 -0.98398 l -2.10499,-1.80086 -2.10498,-1.80087 -6.9172,-2.19913 -6.9172,-2.19914 h -2.74947 -2.74947 v 1.90323 1.90323 l 3.51315,2.76344 3.51314,2.76344 h 2.51409 2.51408 l 10.97277,11.46008 10.97277,11.46009 2.66667,1.12206 2.66667,1.12207 z m 191.72493,-17.24881 h 2.46001 v -2 -2 h -1.44874 -1.44873 l -8.33117,-8 -8.33117,-8 h -1.60655 -1.60654 l -4.94688,-2.55364 -4.94688,-2.55363 -6.17489,-6.04786 -6.17489,-6.04787 -3.82511,-0.81237 -3.82511,-0.81238 -2.31524,-1.25279 -2.31525,-1.2528 h -2.60607 -2.60606 L 462,490.66667 461.17595,492 h -2.82039 -2.8204 l 3.13151,3.33333 3.1315,3.33334 h 2.56608 2.56607 l 4.20151,1.81262 4.2015,1.81263 3.61397,1.46811 3.61397,1.46811 3.13223,4.94912 3.13223,4.94912 5.87427,0.10348 5.87427,0.10347 1.43159,2.8578 1.43158,2.8578 1.77788,2.1422 1.77787,2.1422 h 4.29675 4.29676 L 518,528 l 2.4133,2.66667 z m -366,-4 H 160 v -2.58798 -2.58798 l 1.23606,-0.76392 1.23606,-0.76393 1.60817,-4.98143 1.60816,-4.98143 3.82244,-5.73351 3.82244,-5.73351 v -1.00706 -1.00707 l 7.23017,-8.59276 7.23016,-8.59276 6.75214,-7.33333 6.75213,-7.33333 0.0177,-2.33334 L 201.33333,460 H 200 198.66667 v -3.33333 -3.33334 h -1.11781 -1.11781 l -14.72195,15.06608 -14.72195,15.06608 -2.57428,5.26726 -2.57428,5.26725 -1.50231,2.66667 -1.50231,2.66666 -2.89409,6.66667 -2.89409,6.66667 -2.06495,4.33104 -2.06496,4.33104 2.41538,2.66896 2.41537,2.66896 z m 325.86895,-8 H 484 l -0.048,-1.66667 -0.0479,-1.66667 -3.27876,-4 -3.27876,-4 -0.007,2.70333 -0.007,2.70332 2.07561,2.96335 2.0756,2.96334 z m -381.11666,-4.18158 2.29227,0.18158 5.05673,-2.63572 5.05673,-2.63571 12.31766,-10.73688 12.31767,-10.73688 v -4.59667 -4.59667 l -3.35502,-2.19829 -3.35502,-2.19829 -6.31165,0.62586 -6.31165,0.62587 L 109,480.44462 98.666667,485.30595 V 486.65297 488 H 96.734522 94.802377 L 91.401188,492.45919 88,496.91838 v 6.00082 6.00083 l 2.333333,2.08509 2.333334,2.08508 3.333333,0.60666 3.333333,0.60665 z m 214.04106,-2.57904 1.66666,0.094 -0.003,-1 -0.003,-1 -7.6636,-3.6977 -7.66361,-3.69771 -3.66667,0.031 -3.66666,0.031 V 501.33333 500 H 292 289.33333 v 1.89406 1.89406 l 4.33334,0.85026 4.33333,0.85026 2.66667,1.25313 2.66666,1.25313 5.33334,1.9086 L 314,511.8121 Z M 459,510.59034 l 1,0.0763 v -1.93761 -1.93761 l -6,-2.65408 -6,-2.65409 v -1.31846 -1.31845 l -3,-0.93145 -3,-0.93144 -3.33333,-2.31681 -3.33334,-2.31681 -3,-0.93145 -3,-0.93144 v 1.45618 1.45619 l 3.33334,1.26733 L 436,495.934 v 1.36633 1.36634 l 1.66667,0.0566 1.66666,0.0567 9.33334,5.86702 9.33333,5.86701 z m -314.2566,-5.27742 2.74341,0.0204 2.29768,-5.20781 2.29768,-5.20781 3.29225,-4.8514 3.29225,-4.8514 v -0.70479 -0.70478 l 7.46608,-9.56934 7.46609,-9.56933 1.20058,-0.44445 L 176,463.77778 V 461.88889 460 h 1.52839 1.5284 l 6.41982,-6.00499 6.41981,-6.00499 3.38513,-1.54236 3.38512,-1.54237 V 436.45265 428 H 197.33333 196 v 2.58798 2.58797 l -1.16112,0.71761 -1.16111,0.71761 -0.78411,3.92051 -0.7841,3.92051 -2.72145,0.86376 -2.72144,0.86375 v 1.24348 1.24349 h -1.98205 -1.98205 l -9.01795,7.62126 -9.01795,7.62126 -2.18035,2.71207 -2.18034,2.71207 -4.89703,5.17698 -4.89704,5.17699 -4.69386,10.15635 L 141.1242,498 l -1.35166,2.51203 -1.35166,2.51202 1.78956,1.13422 L 142,505.2925 Z m 133.58993,-2.68866 1.66667,0.0424 v -2 -2 h -4.25484 -4.25484 l 2.58817,1.95759 2.58818,1.9576 z m 112.28762,-9.95759 0.98677,-2.66667 0.84885,-23.1799 0.84886,-23.17991 1.45994,-1.75912 1.45994,-1.75912 -0.9171,-8.5638 -0.91711,-8.5638 1.33421,-0.82458 1.33421,-0.82459 0.90808,-18.33925 0.90809,-18.33926 1.78286,-15.99092 1.78286,-15.99092 -1.55404,-0.96086 -1.55404,-0.96087 -1.87649,1.8759 -1.87649,1.87589 -0.13993,8.40922 -0.13994,8.40922 -0.94843,1.48249 -0.94844,1.48249 -1.32776,25.85085 -1.32776,25.85084 -1.59556,29.33333 -1.59555,29.33334 1.0386,5.33333 1.0386,5.33333 z M 44.04339,485.33333 h 4.963424 l 1.659853,-2 1.659852,-2 h 1.717786 1.717785 l 12.140913,-13 12.140914,-13 h 7.974314 7.974313 l 0.0037,-1.70851 0.0037,-1.70851 -2,-0.76747 -2,-0.76748 -0.0084,-1.52401 -0.0084,-1.52402 L 87.883517,445 83.783895,442.66667 h -5.728688 -5.728688 l -1.659852,2 -1.659853,2 h -1.83674 -1.836741 V 448 v 1.33333 h -2.189582 -2.189582 l -6.810418,5.89337 -6.810418,5.89337 L 41,467.01465 l -6.333333,5.89458 v 3.77373 3.77373 l 2.20665,2.43832 2.20665,2.43832 z m 176.73202,-8 h 1.89126 v -1.92131 -1.92131 l -1.40871,-0.87063 -1.40871,-0.87063 -3.4821,-7.54139 -3.4821,-7.54139 -0.60763,-7 -0.60763,-7 h -1.0755 -1.07549 l -0.68474,-3 -0.68474,-3 0.46927,11.04883 0.46928,11.04883 1.29288,1.61783 1.29288,1.61784 0.98188,3.33333 0.98188,3.33334 2.62338,4.33333 2.62339,4.33333 z m 182.93488,-5.46689 2.05427,-2.93289 9.11772,-17.93005 L 424,433.07345 v -1.88459 -1.88459 l 2.65615,-5.65213 2.65616,-5.65214 2.10578,-7.33333 2.10578,-7.33334 1.87695,-8 1.87694,-8 0.0596,-6 0.0596,-6 1.22474,-5.2821 1.22473,-5.28211 -1.35373,-24.05123 -1.35373,-24.05122 -1.81438,-9.33334 L 433.5102,298 l -2.07093,-9.24916 -2.07092,-9.24916 -1.35084,-1.35084 -1.35084,-1.35084 v -2.48393 -2.48394 l -3.44945,-7.58273 -3.44944,-7.58273 -1.64712,-3.33334 -1.64712,-3.33333 -1.37971,-2.66667 -1.37972,-2.66666 -2.19039,-4.20573 -2.19039,-4.20572 v -1.58235 -1.58234 L 404,225.48734 l -5.33333,-7.60319 v -1.05744 -1.05744 L 394.44064,209.88464 390.21461,204 h -1.61846 -1.61847 l -0.64782,2.47729 -0.64783,2.47729 1.38268,2.52271 1.38267,2.52271 7.86409,9.66927 7.86408,9.66927 5.28855,9.92056 5.28855,9.92055 0.81648,8.74351 0.81648,8.74351 1.70126,0 h 1.70125 l 0.84818,3.86174 0.84818,3.86174 2.59109,2.34491 2.5911,2.34491 v 1.79335 1.79335 H 428 h 1.33333 v 2.02649 2.0265 l -3.15199,4.99308 -3.15199,4.99307 -2.18134,1.81036 -2.18134,1.81035 v 3.39842 3.39842 l -2.2428,2.47826 -2.2428,2.47827 -1.02681,14.29339 -1.02681,14.29339 L 410.7564,356 l -1.37104,11.33333 -1.44258,18 -1.44257,18 -0.43756,7.55795 -0.43756,7.55795 -0.64075,1.10872 -0.64075,1.10872 -0.94894,19.32983 -0.94894,19.32984 -1.31704,1.58693 -1.31703,1.58692 0.92219,6.14957 0.92218,6.14957 z m -288.88624,-2.53311 h 1.33333 L 115.33333,468 l -0.82404,-1.33333 h -1.33334 -1.33333 l 0.82405,1.33333 0.82404,1.33333 z m 22.75312,-2.66666 h 1.72718 l -7.60387,-7.60387 -7.60386,-7.60386 -0.91674,0.91674 -0.91675,0.91674 6.79344,6.68713 6.79343,6.68712 z m 94.08841,0 h 2.12444 l 2.43833,-2.20665 2.43832,-2.20665 v -3.19472 -3.19472 l -4.54451,-1.89882 -4.54451,-1.89881 -0.45549,-1.33629 -0.45549,-1.33629 -4.33334,-0.86353 L 220,447.66667 v 3.92667 3.92666 l 4.77056,5.57334 4.77057,5.57333 z m -90.40485,-1.33334 h 1.19406 l 0.8768,-3.99205 0.8768,-3.99206 2.14842,-1.20232 2.14842,-1.20232 -5.8508,-6.13895 -5.8508,-6.13896 h -0.99441 -0.99441 l -8.67439,-8.33334 -8.67439,-8.33333 -6.78235,-5.66667 -6.78234,-5.66666 h -2.49251 -2.492511 l 0.678674,2.59525 0.678677,2.59525 1.74398,0.40475 1.74399,0.40475 18.94039,18.39396 18.94038,18.39397 -0.78787,3.93936 -0.78787,3.93937 z m -21.54416,-4 h 2.0816 l -3.23242,-3.57972 -3.23242,-3.57972 -5.33333,-5.22826 -5.33333,-5.22825 -3,-1.15902 -3.000003,-1.15902 v -1.8775 -1.87749 l -2.941773,-0.76929 -2.941774,-0.76929 -0.438714,0.43871 -0.438714,0.43872 12.864638,12.17507 12.86465,12.17506 z m 182.9501,-0.982 6,-0.69513 4.15738,-2.49477 4.15737,-2.49476 h 2.07366 2.07365 l 3.96144,-3.33334 L 329.05162,448 H 330.52581 332 l 0.0415,-1.66667 0.0415,-1.66666 10.31927,-11.61639 10.31926,-11.6164 1.83308,-6.3836 1.83307,-6.38361 1.13939,-1.46979 1.13939,-1.46979 0.84189,-8.05484 0.8419,-8.05483 -2.17509,-3.10539 -2.1751,-3.10538 -0.007,3.29668 -0.007,3.29667 -1.32644,4.77498 -1.32644,4.77499 -3.28734,1.75933 -3.28734,1.75933 -2.03256,-1.68688 -2.03257,-1.68688 0.80862,-3.5141 0.80861,-3.5141 1.9736,-4 1.97361,-4 0.69738,-8.04189 0.69738,-8.04189 -3.49249,-4.15059 -3.49248,-4.15058 v -1.31093 -1.31094 l 2.15006,-1.78439 2.15005,-1.78439 4.05721,4.62113 4.05722,4.62113 6.28061,7 6.28061,7 h 1.30021 1.30022 l 3.60319,-6.62026 3.6032,-6.62025 5.27537,-6.67385 5.27538,-6.67386 -0.0297,-5.03922 -0.0297,-5.03922 -2.30368,-2.75256 -2.30369,-2.75256 -3.61975,-2.24744 -3.61976,-2.24744 h -1.78109 -1.78109 L 368.94289,329 l -3.58875,-1.66667 -0.0104,-0.92131 -0.0104,-0.92131 1.3013,-0.80424 1.30129,-0.80425 8.36538,1.66955 8.36537,1.66954 5.47065,4.38935 5.47066,4.38934 h 1.52934 1.52935 v -2.04185 -2.04184 l 1.90045,-0.72927 1.90045,-0.72927 0.93106,-5.51095 0.93107,-5.51094 1.48921,-2.38461 1.48921,-2.3846 -1.7025,-2.72615 -1.7025,-2.72614 2.7151,-3.81302 2.71511,-3.81301 V 300.79417 300 h -1.92131 -1.92131 l -0.87597,-1.41735 -0.87597,-1.41735 1.95116,-2.24932 1.95116,-2.24931 3.44064,-6.96591 3.44064,-6.9659 -1.26119,-0.77945 L 412,277.17595 410.66667,278 l -1.33334,0.82405 v 1.75805 1.75805 l -1.88129,1.56133 -1.8813,1.56134 -0.86261,-1.39574 -0.86262,-1.39574 2.07725,-2.96568 L 408,276.73998 v -3.70332 -3.70333 h -1.94657 -1.94657 L 397.87097,276 l -6.23588,6.66667 h -2.48421 -2.48421 v -2.79428 -2.79428 l 1.83062,-3.53905 1.83062,-3.53906 2.19147,-5.09157 2.19148,-5.09157 -0.76745,-1.24176 -0.76746,-1.24177 h -1.76034 l -1.76034,0 -8.61755,8.44955 -8.61754,8.44955 -0.84709,4.23543 -0.84708,4.23543 -0.8762,10.98169 -0.8762,10.98169 -0.9734,1.33333 -0.9734,1.33333 -0.7093,5.58787 -0.70929,5.58787 -6.29538,7.74546 -6.29538,7.74547 -5.82739,6.42033 -5.8274,6.42033 -1.91361,2.73206 -1.91361,2.73206 -6.15084,0.69329 -6.15084,0.69329 -1.92442,2.7475 -1.92443,2.7475 0.79668,4.98218 0.79669,4.98218 -2.60551,3.75797 -2.60551,3.75798 -0.84179,2.33333 -0.84179,2.33333 h -3.36388 -3.36388 L 307.69057,378.66667 306.02521,376 h -2.83279 -2.8328 l -3.19512,2.33333 -3.19512,2.33334 -2.65136,1.68589 -2.65135,1.68589 -4,2.64215 -4,2.64215 -1.33334,-0.43915 L 278,388.44444 v -3.16911 -3.16911 l 4.66667,-3.07651 4.66666,-3.0765 6.33334,-6.10772 L 300,363.73778 v -1.19914 -1.19913 l 4.49289,-6.33642 4.4929,-6.33642 2.03466,-9.25346 2.03467,-9.25346 -0.62122,-1.61888 -0.62123,-1.61888 -3.573,1.86413 -3.573,1.86412 -2.17008,0.008 -2.17007,0.008 -1.74073,2.09745 -1.74073,2.09745 -4.93337,2.51681 -4.93337,2.51682 -8.79452,9.63593 -8.79453,9.63592 -0.9109,-0.9109 -0.9109,-0.9109 0.17848,-4.74762 0.17849,-4.74762 2.70444,-3.43815 2.70445,-3.43815 v -1.32942 -1.32942 L 278,333.91364 l 4.66667,-4.40123 v -1.33302 -1.33302 l 3,-0.90977 3,-0.90976 2.66666,-2.34788 2.66667,-2.34788 4.66667,-2.05952 4.66666,-2.05953 2.96536,-0.85153 2.96536,-0.85154 2.9704,-4.25448 2.9704,-4.25448 0.8082,-0.66667 0.80819,-0.66666 2.25605,-3.29668 2.25604,-3.29667 0,-5.93167 v -5.93167 l 2.20665,-2.43833 2.20665,-2.43832 h 3.12669 l 3.12668,0 0.17016,3 0.17017,3 0.39053,3.33334 0.39054,3.33333 -1.15814,11.77998 -1.15815,11.77997 -1.25948,1.55336 -1.25948,1.55336 -0.7161,6 -0.7161,6 -0.92995,7 -0.92994,7 h 1.9462 1.9462 L 340.73814,335 l 11.85168,-11.66667 3.15738,-4.56783 3.15737,-4.56783 1.28101,-13.43217 1.28101,-13.43217 1.2667,-2.31524 1.26671,-2.31524 -0.0297,-4.35142 -0.0297,-4.35143 -2.60737,-3.33333 -2.60737,-3.33334 -0.0297,-1.66666 L 358.66667,264 H 357.33333 356 v -1.88889 -1.88889 l -1,-0.44444 -1,-0.44445 -3.1937,-6 -3.19369,-6 -2.70539,-3 -2.70539,-3 h -1.70133 -1.70133 l -1.06625,-1.66666 -1.06625,-1.66667 -4.27935,-3 -4.27934,-3 -1.72066,-0.005 -1.72065,-0.005 -4.21999,-2.57315 -4.21998,-2.57316 -7.69156,-1.42186 -7.69157,-1.42186 -7.02282,0 -7.02283,0 -7.06563,1.47575 -7.06562,1.47576 -3.61926,3.39494 -3.61926,3.39495 0.69795,1.1293 0.69795,1.1293 7.84262,0 7.84262,0 0.73067,1.18226 0.73068,1.18226 -1.97924,1.64261 -1.97923,1.64262 -11.18628,-0.93181 -11.18628,-0.93181 -2.8198,1.761 L 252,243.30812 v 1.49946 l 0,1.49946 -2.66667,3.39012 -2.66666,3.39012 0,2.711 v 2.71101 l -1.33334,0.82404 L 244,260.15738 v 2.63489 l 0,2.63489 -1.85035,2.95308 -1.85034,2.95309 -0.91734,5.33334 -0.91733,5.33333 -2.56565,7.88687 -2.56566,7.88688 v 5.03444 5.03443 l -1.10976,0.68587 -1.10976,0.68587 -1.65934,13.72615 -1.65934,13.72616 -1.19742,2.26163 -1.19742,2.26164 0.14021,10.83134 0.14022,10.83134 -1.50703,1.50702 -1.50702,1.50703 v 11.7142 11.71419 l -1.29027,5.68581 -1.29027,5.6858 -1.18235,15.33333 -1.18236,15.33333 1.35331,3 1.35331,3 h 1.72556 1.72557 l 0.82203,-4.38181 0.82203,-4.38182 -0.25284,-1.28485 -0.25285,-1.28485 0.1579,-3 0.15789,-3 h 2.39103 2.39102 l 6.19189,6.33333 6.19188,6.33334 2.36138,1.97857 2.36138,1.97857 6.53928,3.0297 6.53929,3.02969 5.21264,0.83354 5.21265,0.83353 0.7158,1.1582 0.71581,1.1582 h 10.50929 10.50928 l 0.70241,-1.13652 0.70241,-1.13652 8.37628,-0.78643 8.37628,-0.78644 6.66667,-3.53161 6.66667,-3.53161 2.24931,-2.00939 2.24932,-2.00938 1.41735,0.87597 1.41735,0.87597 v 2.19117 2.19117 l -4.26156,4.39681 -4.26155,4.39681 h -1.86595 -1.86595 l -3.86012,2.74864 -3.86012,2.74865 -9.3363,2.25135 -9.3363,2.25136 -0.009,1.55555 -0.009,1.55556 1.66667,0.63434 1.66667,0.63434 z M 292.18862,428 h -2.42725 l -1.78999,-3.66667 -1.79,-3.66666 L 284.4441,416 l -1.73728,-4.66667 -0.0201,-3.72378 -0.0201,-3.72379 6.18245,-6.60955 6.18246,-6.60954 h 1.94623 1.94623 l -0.83996,7 -0.83996,7 -0.65868,8.66666 -0.65868,8.66667 -0.65545,3 -0.65545,3 z m 23.16566,-20 h -1.88524 l -3.40118,-4.45919 -3.40119,-4.45919 v -2.12879 -2.12878 L 305.33333,394 304,393.17595 v -3.92131 -3.92131 h 2.60393 2.60393 l 3.06274,1.4245 3.06273,1.4245 2.59664,3.50871 2.59663,3.50871 -0.29578,3.88181 -0.29579,3.88181 -1.34776,2.51831 L 317.23951,408 Z M 118.76897,449.33333 H 120 V 448 446.66667 h -2 -2 L 115.9896,445 l -0.0104,-1.66667 -3.32293,-1.54122 -3.32293,-1.54122 v 1.08937 1.08936 l 4.1023,3.45186 4.1023,3.45185 z m -11.25864,-10.66666 h 2.33161 L 103.14557,432.33333 96.449197,426 84.663742,415 72.878286,404 h -1.1598 -1.159799 l -4.053911,-2.99719 -4.05391,-2.99718 -14.225433,0.0149 L 34,398.03541 l -6.969341,3.65588 -6.969341,3.65589 -1.843539,3.65975 -1.843539,3.65974 -0.886056,3.69402 -0.886056,3.69403 1.446672,2.70313 1.446671,2.70313 3.444321,1.30953 3.44432,1.30953 4.807944,-1.54269 L 34,424.99467 39.738368,421.49734 45.476737,418 l 6.841282,-4.52488 6.841281,-4.52488 5.42035,-0.59119 5.42035,-0.59119 3.666667,1.4164 3.666666,1.4164 v 2.03301 2.033 h 1.428894 1.428893 L 86.923627,421 l 6.732506,6.33333 5.761289,5.66667 5.761288,5.66667 z m 34.0936,0 h 1.06274 v -1.05573 -1.05572 l -6,-5.88855 -6,-5.88856 v 1.88806 1.88806 l 4.93726,5.05622 4.93726,5.05622 z m 36.30528,0 h 1.90921 L 182.41009,435 l 2.59168,-3.66667 0.9864,-4.66666 0.9864,-4.66667 1.62406,-3.33333 1.62405,-3.33334 3.6639,-8 3.6639,-8 1.79988,-4 1.79988,-4 0.9483,-3.31583 0.94831,-3.31584 3.33836,-5.0446 3.33836,-5.0446 -0.67585,-0.67585 -0.67586,-0.67586 -3.51926,4.614 -3.51927,4.61399 v 2.61298 2.61298 l -1.66666,0.63978 -1.66667,0.63978 -5.51019,11.16954 -5.5102,11.16953 -5.4898,11.38494 L 176,434.1032 v 2.28173 2.28174 z M 63.703325,437.33333 h 2.369992 l 3.110985,-2.17902 3.110986,-2.17902 8.519023,0.79552 8.519022,0.79552 v -1.02832 -1.02833 l -1.67104,-2.28529 -1.671041,-2.28528 -4.923245,-0.79893 -4.923244,-0.79893 -3.302952,0.82898 -3.302952,0.82899 -4.102763,3.45225 -4.102763,3.45225 v 1.2148 1.21481 z m 144.043525,-4 h 1.4291 l 0.61553,-1 0.61553,-1 0.94789,-6.33333 0.94788,-6.33333 H 210.15139 208 l -0.0147,2.33333 -0.0147,2.33333 -0.82645,5 -0.82645,5 z M 100,402.66667 h 1.33333 v -1.36634 -1.36633 l -3.518248,-1.33764 -3.518251,-1.33764 -0.756855,0.75686 -0.756856,0.75686 2.941774,0.76929 2.941773,0.76929 v 1.17782 1.17783 z m -12.8,-5.73334 1.3,-0.43333 0.527778,-1.58333 0.527778,-1.58334 -6.444445,0.18158 -6.444444,0.18158 3.333333,0.59799 3.333333,0.59799 1.283334,1.2371 1.283333,1.2371 z m -41.866667,-9.3601 H 54 L 49.666667,387.03547 45.333333,386.49771 41,387.03547 36.666667,387.57323 Z M 501.965,386.66667 h 1.88379 l 2.0756,-2.96334 L 508,380.73998 v -2.88331 -2.88331 l -3.26347,-2.13831 -3.26347,-2.13831 -2.06986,0.79428 -2.06987,0.79428 v 1.74624 1.74624 l 1.55908,0.51969 1.55907,0.51969 -0.18514,4.92475 -0.18514,4.92476 z M 480,381.23061 l 0.66667,0.0663 3,-0.80397 3,-0.80397 v -3.68123 -3.68123 l 2,-1.65985 2,-1.65986 v -3.02323 -3.02324 l -6.15908,-2.89511 -6.15908,-2.89511 -1.96524,0.75413 -1.96523,0.75413 0.89632,6.51702 0.89632,6.51701 -1.43867,0.88915 -1.43868,0.88915 v 2.63094 2.63095 l 3,1.20585 3,1.20585 z m 60.39959,-4.72863 1.06625,-1.83531 h 2.48189 2.48189 l 3.45186,-4.1023 3.45185,-4.1023 v -2.40154 -2.40153 l -1.94287,-4.64996 -1.94288,-4.64995 -5.51897,-0.88252 -5.51898,-0.88252 -4.57076,0.85748 -4.57077,0.85748 -1.96738,2.80884 -1.96739,2.80883 V 362.96334 368 l 2.5711,2.33333 2.5711,2.33334 1.83501,1.33333 1.83501,1.33333 2.59389,1.50198 2.59389,1.50198 z m -414.20891,-21.87772 1.52402,0.0424 0.77306,-2.01459 0.77307,-2.01458 -0.81803,-4.31875 -0.81803,-4.31875 -1.30898,-1.66667 -1.30898,-1.66666 h -2.34014 -2.34015 l -1.70675,2.05651 -1.70675,2.0565 1.54349,1.5435 1.54349,1.54349 v 2.58634 2.58634 l 2.33333,1.77126 2.33334,1.77125 z m 78.55468,0.0424 h 3.41202 L 207.33333,353.33333 206.50929,352 h -1.96316 -1.96316 l -0.76747,-2 -0.76747,-2 h -1.27964 -1.27965 l -4.37022,-3.33333 -4.37023,-3.33334 h -1.54081 -1.54081 v -1.12678 -1.12678 l -8.47234,-6.22016 -8.47233,-6.22017 -2.40099,-2.65305 -2.40098,-2.65306 h -1.55583 -1.55583 l -5.23752,-3.9629 -5.23752,-3.96291 -1.3837,-0.0371 -1.38369,-0.0371 -4.61631,-3.94581 -4.6163,-3.94581 -1.76794,-0.0542 -1.76794,-0.0542 -7.79745,-6 -7.79745,-6 h -1.01829 -1.0183 l -7.55076,-5.93221 -7.55077,-5.93222 -1.53221,1.53222 L 100,284.53333 v 1.18628 1.18628 l 3,2.50269 3,2.5027 1.08993,0.0444 1.08993,0.0444 7.57674,5.9972 7.57673,5.9972 2.11185,2.0028 2.11185,2.0028 1.22149,0.0371 1.22148,0.0371 5.23752,3.9629 5.23752,3.96291 h 0.98223 0.98224 l 10.89382,7.33333 10.89383,7.33334 h 0.76056 0.76057 l 4.37023,3.33333 4.37022,3.33333 1.08896,0.023 1.08897,0.023 3.13994,3.3103 3.13995,3.3103 h 1.12654 1.12655 l 5.92687,4 5.92688,4 h 2.13997 2.13996 v 1.33333 1.33334 z m 357.71408,-12.68166 0.53666,-0.53667 -0.87509,-2.28046 -0.8751,-2.28046 -1.61181,1.61181 -1.61181,1.61181 1.95024,1.20532 1.95024,1.20531 z M 485.33333,316 H 488.8 l 1.6,-1.6 1.6,-1.6 v -4.4 -4.4 h -3.79335 -3.79335 l -2.00398,2.33333 -2.00399,2.33334 -0.76514,2.17086 -0.76514,2.17086 1.49581,1.4958 1.49581,1.49581 z m -280.71755,-1.33333 h 3.46791 l 0.81911,-2.13457 0.81911,-2.13457 -1.86095,-1.19709 -1.86096,-1.1971 -2,0.34529 -2,0.34528 -0.42607,2.98638 -0.42607,2.98638 z m -3.6982,-13.33334 h 1.9244 l 2.45875,-1.31588 2.45874,-1.31588 -0.69049,-2.64044 -0.69049,-2.64044 -1.77068,-1.46954 -1.77068,-1.46953 -2.59503,1.38881 -2.59504,1.38882 -0.84653,2.20604 -0.84654,2.20604 1.5196,1.831 1.5196,1.831 z m 212.28779,-4 h 1.048 l 2.36835,-2.617 2.36836,-2.61701 -0.88217,-2.2989 -0.88217,-2.29889 -3.44391,3.44392 -3.44392,3.44392 0.90973,1.47198 0.90974,1.47198 z m -15.87204,-28 h 1.33334 v -2.07869 -2.07869 L 397.33333,266 396,266.82405 v 1.25464 1.25464 z m -25.40775,-5.2935 2.17997,-1.16669 1.84785,-3.45274 1.84786,-3.45274 -3.41593,-3.6505 -3.41592,-3.65049 -4.22495,-4.66667 -4.22494,-4.66667 -1.92643,2.58818 -1.92642,2.58817 v 4.20518 4.20517 l 2.66666,2.4133 2.66667,2.4133 v 1.71775 1.71774 l 2.87281,2.0122 2.87281,2.01219 z m 33.93478,-4.30581 2.80631,-0.40069 -0.45393,-3.21709 -0.45392,-3.2171 -2.7847,-3.7665 -2.78469,-3.76651 -0.39541,0.39541 -0.39542,0.39541 0.82773,6.98888 0.82773,6.98887 z M 383.79335,252 h 2.46002 l 2.24101,-2.47629 2.24101,-2.47629 -2.59084,-5.19038 -2.59085,-5.19037 -0.76836,-2 -0.76837,-2 -1.14502,-2 -1.14502,-2 -3.1968,-6.66667 -3.1968,-6.66667 -5.66666,-7.68155 L 364,199.97022 v -1.10427 -1.10426 l -5.33333,-4.93459 -5.33334,-4.93458 v -1.81644 -1.81644 L 341,171.45429 l -12.33333,-12.80535 -6,0.0532 -6,0.0532 -2.66667,2.33534 -2.66667,2.33534 -3,4.23298 -3,4.23298 v 1.39423 1.39424 l -17.1105,17.65975 -17.1105,17.65976 -1.55977,2.91908 -1.55977,2.91908 1.15168,0.71179 1.15169,0.71178 7.85192,-2.67778 7.85192,-2.67778 2.68059,-1.34078 2.68058,-1.34078 8.21346,-0.22765 8.21345,-0.22765 3.10596,1.47275 3.10596,1.47275 7.61407,3.66734 7.61408,3.66735 2.95168,3.14192 2.95167,3.14191 h 1.5069 1.50691 l 7.70358,8.66667 7.70358,8.66667 H 354.77624 356 v -4.22835 -4.22834 l -2.20665,-2.43833 -2.20665,-2.43832 h -1.26814 -1.26815 l -5.19187,-4.11204 -5.19187,-4.11203 v -1.2213 -1.22129 l 2.33333,0.0296 2.33333,0.0296 3.33334,2.60737 3.33333,2.60737 1.50341,0.0297 1.5034,0.0297 1.68028,2.02461 1.68027,2.0246 4.68309,2.22227 4.68309,2.22227 5.46656,5.99793 5.46657,5.99792 2.33333,2.05152 2.33333,2.05152 V 250.29632 252 Z m -6.44285,-48.02155 2.01716,0.0215 1.31617,-2.70056 1.31617,-2.70056 4.66667,-8.09546 4.66666,-8.09545 6.38398,-7.8731 6.38398,-7.87309 3.56746,-2.33089 L 411.23621,162 h 15.66246 15.66246 l 2.83058,-2.41545 2.83057,-2.41544 -1.04703,-2.25122 -1.04704,-2.25122 -0.2249,-6 -0.22489,-6 -2.17254,-0.4311 -2.17255,-0.4311 v -1.23557 -1.23557 h -1.92131 -1.92131 l -0.86014,-1.39174 -0.86014,-1.39174 1.61138,-1.94159 1.61138,-1.94159 h 4.23674 4.23674 l 1.6,-1.6 1.6,-1.6 v -2.8 -2.8 l -1.59501,-1.59501 -1.595,-1.595 2.595,-1.96259 2.59501,-1.96259 2.83674,-0.0424 2.83674,-0.0424 1.52525,-1.83782 1.52525,-1.83782 -1.22309,-3.21698 -1.22309,-3.21698 -2.26499,-1.87977 -2.26499,-1.87977 -3.20724,-6.648303 L 448,87.500924 v -2.308079 -2.308078 l -0.80932,-2.10905 -0.80932,-2.10905 -2.19068,0.0424 -2.19068,0.04241 2.33333,1.771252 2.33334,1.771252 v 1.039353 1.039353 l -2.33334,1.814546 -2.33333,1.814545 3.20185,2.709613 3.20184,2.709614 -1.58499,2.956165 -1.58499,2.956164 -4.49388,5.333337 L 436.24595,110 433.12298,107.16971 430,104.33942 l -4,-1.28082 -4,-1.28082 0.0381,-1.22222 0.0381,-1.222227 5.4922,-2.875968 5.4922,-2.875969 2.46972,-0.63603 L 438,92.309337 434.33333,92.154668 430.66667,92 V 90.638082 89.276163 L 434,87.757395 l 3.33333,-1.518768 v -1.294873 -1.294872 l -5.18964,0.696078 -5.18965,0.696078 -3.81035,2.794613 -3.81036,2.794612 -4.33333,0.851535 -4.33333,0.851535 v -1.397436 -1.397435 l 4.10256,-4.102565 4.10256,-4.102564 1.25936,0 h 1.25936 l 4.97141,-3.197603 4.97141,-3.197604 6.49764,-0.908732 6.49763,-0.908732 -3.34717,-1.736534 -3.34718,-1.736534 -6.74766,-2.241215 -6.74767,-2.241216 -2.73613,1.46433 -2.73612,1.46433 v 2.619755 2.619755 h -1.00785 -1.00786 L 414.97773,77 l -1.67323,3.666667 -4.98558,3.059458 -4.98559,3.059459 -1.64587,3.495641 -1.64588,3.49564 1.46982,1.771027 1.46982,1.771026 -0.0756,5.478642 -0.0756,5.47865 -2.08167,2.30022 -2.08166,2.30021 v 1.60906 1.60907 l 5.68555,2.43711 5.68555,2.43711 1.79695,2.16519 1.79695,2.16519 -0.77399,2.01698 -0.77399,2.01698 h -1.83519 l -1.8352,0 L 406,126.66667 403.5867,124 h -5.03589 -5.03589 l -2.84825,4 -2.84825,4 -7.01013,0 h -7.01012 l -3.0929,-3.29224 -3.0929,-3.29224 -0.96392,0.59574 -0.96392,0.59574 -0.88693,7.83937 -0.88692,7.83937 -2.95534,2.5238 L 358,147.33333 355.01809,149 l -2.98191,1.66667 -1.76734,0 h -1.76735 l -2.91741,3.94601 -2.91741,3.94601 v 1.33118 1.33118 l 5.30398,5.57564 5.30398,5.57565 1.68817,3.81383 1.68816,3.81383 h 0.76153 0.76153 l 8.57966,11.97845 8.57965,11.97846 z m -43.75944,-50.72963 0.9244,0.0845 2.0756,-2.96334 2.07561,-2.96334 v -1.03666 -1.03666 l -1.66667,0.007 -1.66667,0.007 -5.03413,1.39799 -5.03413,1.39799 0.83723,1.35468 0.83724,1.35467 2.86356,1.15538 2.86357,1.15538 z M 384,126.14542 l 2,-0.23975 -0.43109,-5.28617 -0.4311,-5.28617 -2.10889,-2.33333 -2.10889,-2.33333 h -1.79335 -1.79335 v 2.22834 2.22835 l 2.31564,2.55874 2.31563,2.55875 -2.31563,1.69323 -2.31564,1.69323 v 0.75525 0.75524 l 2.33334,0.62368 2.33333,0.62368 z m 74.24857,-52.812087 h 1.24175 l 2.58817,-1.957595 2.58818,-1.957596 -2.17008,-0.0424 -2.17007,-0.04241 -1.65985,2 -1.65986,2 z"
     id="path1" />
</svg>
