<?xml version="1.0" encoding="UTF-8" standalone="no"?>
<!-- Created with Inkscape (http://www.inkscape.org/) -->

<svg
   width="210mm"
   height="297mm"
   viewBox="0 0 210 297"
   version="1.1"
   id="svg422"
   xml:space="preserve"
   xmlns="http://www.w3.org/2000/svg"
   xmlns:svg="http://www.w3.org/2000/svg"><defs
     id="defs419" /><g
     id="layer1"><path
       style="fill:#000000;stroke-width:1.96713"
       d="m 49.859377,293.01756 -4.426036,3.34738 v -1.3815 -1.38151 l 5.017927,-6.57884 5.017929,-6.57884 h -1.324538 -1.324537 l 2.190923,-2.6399 2.190925,-2.63991 -0.937027,-0.93702 -0.937029,-0.93704 6.855475,-6.64458 6.855477,-6.64458 v -1.88612 -1.88614 l -3.934254,3.56046 -3.934254,3.56046 v -5.55057 -5.55054 l -1.18583,1.18582 -1.185827,1.18583 -4.937792,-1.87735 -4.937792,-1.87735 1.234587,4.919 1.234588,4.919 -1.263763,7.90313 -1.263763,7.90315 h -1.223931 -1.22393 l -0.140709,-5.4096 -0.140689,-5.4096 -1.59929,-3.93426 -1.599288,-3.93425 3.152772,3.93425 3.152771,3.93426 0.06256,-2.88493 0.06255,-2.88491 -3.25281,-8.51737 -3.25281,-8.51736 2.269246,-2.26926 2.26926,-2.26924 v 5.87327 5.87329 h 3.78983 3.78983 l -0.930107,-1.50495 -0.930109,-1.50495 2.217473,-4.14338 2.217474,-4.14338 -1.249901,-1.24991 -1.249899,-1.24989 -1.830045,2.89372 -1.830046,2.89372 -0.03012,-9.45995 -0.03012,-9.45993 1.727622,1.06771 1.727621,1.06774 1.32151,-6.36123 1.321511,-6.36124 2.69183,4.91587 2.691833,4.91587 1.357233,-5.40765 1.357235,-5.40765 h 1.753875 1.753874 l 0.150505,3.44247 0.150505,3.44247 0.657851,3.43466 0.65785,3.43467 -1.791923,1.10747 -1.791915,1.10745 v 1.85105 1.85103 h 2.950691 2.95069 l -0.491781,2.4589 -0.491782,2.45891 -3.886902,1.57636 -3.886901,1.57636 2.724951,1.68411 2.724951,1.68412 2.659605,-1.02058 2.659603,-1.02059 -1.192465,3.10751 -1.192464,3.10751 -2.026426,-0.42958 -2.026424,-0.42958 -0.992872,2.73273 -0.992872,2.73271 2.526265,-1.5613 2.526263,-1.56133 -1.45685,2.35724 -1.456853,2.35723 2.090167,2.5185 2.090167,2.51849 -0.824305,4.28029 -0.824307,4.28027 1.362399,-0.0799 1.362397,-0.0799 6.810639,-5.82144 6.810638,-5.82143 h 1.802801 1.802804 l 11.527368,-7.86851 11.52737,-7.86851 h 1.00581 1.00581 l -0.0244,1.47535 -0.0243,1.47534 -7.35238,4.90897 -7.35237,4.90896 -9.855866,5.91024 -9.85586,5.91023 -7.914318,5.80944 -7.914321,5.80941 -5.835345,7.16383 -5.835347,7.16382 -4.426036,3.34738 z m 14.261672,-42.08021 h 0.983563 v -0.98357 -0.98356 h -0.983563 -0.983564 v 0.98356 0.98357 z m -5.573527,-18.35985 1.311417,-1.31142 -1.311417,-1.31143 -1.311418,-1.3114 v 2.62283 2.62282 z m 1.639272,-5.24568 h 0.983564 v -0.98356 -0.98357 h -0.983564 -0.983563 v 0.98357 0.98356 z m 24.191316,68.25148 -14.35568,0.26816 11.22726,-5.2447 11.22726,-5.24469 1.948518,-5.4096 1.94852,-5.4096 h 3.731702 3.7317 l 3.48872,3.855 3.48872,3.85498 -1.33647,5.48887 -1.33648,5.48886 10.93896,-16.44727 10.93897,-16.44727 v -2.01394 -2.01395 l -4.07703,5.18311 -4.07703,5.1831 -3.2997,-0.22818 -3.2997,-0.22819 3.46656,-0.90425 3.46656,-0.90425 -0.97608,-1.57933 -0.97607,-1.57931 3.06319,-6.14032 3.06319,-6.14031 h 1.76132 1.76131 l -0.97008,-2.52798 -0.97007,-2.52797 3.6405,-3.90762 3.64051,-3.90762 -0.67819,-2.03458 -0.67819,-2.03456 3.55983,-11.6929 3.55983,-11.69288 2.86996,-0.0264 2.86996,-0.0264 -0.0661,-5.23636 -0.0661,-5.23634 1.31859,0.81493 1.31858,0.81494 2.13409,-2.57142 2.13409,-2.57142 2.24014,-10.44543 2.24015,-10.44543 5.67967,6.64535 5.67968,6.64534 0.005,1.37564 0.005,1.37564 5.99315,5.60108 5.99314,5.60107 -1.28579,3.3507 -1.28578,3.3507 h -2.5763 -2.57631 l -0.67028,-2.01085 -0.67029,-2.01086 -5.09183,-0.92333 -5.09183,-0.92333 -3.91004,15.22873 -3.91004,15.22873 -1.64526,3.76516 -1.64526,3.76518 2.30142,-1.42235 2.3016,-1.42219 v 5.03389 5.03392 h -2.08322 -2.08322 l 1.13174,-1.8312 1.13175,-1.8312 -1.78938,-1.10589 -1.78937,-1.1059 -1.0976,4.41244 -1.0976,4.41244 -1.33969,13.16754 -1.33969,13.16755 -2.86789,1.10051 -2.86788,1.10051 -1.78961,-1.10604 -1.78961,-1.10603 -0.15531,-4.30996 -0.1553,-4.30993 -0.99219,2.4589 -0.99219,2.45891 h -3.53111 -3.5311 l -8.38556,10.86923 -8.38555,10.86924 -1.01653,-1.01653 -1.01653,-1.01654 -3.13168,2.34698 -3.13168,2.34696 2.45891,-2.75746 2.45891,-2.75746 v -4.3635 -4.36352 l -1.19402,-3.11156 -1.19403,-3.11158 h -2.49434 -2.494335 l -1.492619,6.39316 -1.492619,6.39316 0.263164,1.47535 0.263165,1.47534 -2.458909,0.13829 -2.458909,0.13829 3.536481,1.3958 3.536482,1.39581 -14.355681,0.26816 z M 73.956684,262.74011 H 72.97312 v -0.98357 -0.98356 h 0.983564 0.983564 v 0.98356 0.98357 z m 98.800306,0 h -1.19533 l -1.21575,-1.96713 -1.21575,-1.96713 1.21575,-1.96712 1.21575,-1.96713 h 2.0919 2.0919 l -2.19093,2.6399 -2.19092,2.63991 1.29435,1.29435 1.29435,1.29435 z m 3.4903,-1.96713 h -0.98356 v -0.98356 -0.98357 h 0.98356 0.98357 v 0.98357 0.98356 z M 75.691623,256.83873 H 74.70806 l 1.215751,-1.96713 1.215752,-1.96713 h 0.983563 0.983564 l -1.215752,1.96713 -1.215751,1.96713 z m 98.588547,-5.90138 h -0.98357 v -0.98357 -0.98356 h 0.98357 0.98356 v 0.98356 0.98357 z m -133.866503,-12.67053 -3.052546,3.81845 1.296166,-4.67238 1.296165,-4.67237 -2.013594,1.24446 -2.013595,1.24448 3.745501,-10.24725 3.745502,-10.24726 3.204954,-3.04541 3.204955,-3.04543 -2.195259,4.29361 -2.19526,4.29363 -1.884298,4.95608 -1.884297,4.95608 2.849622,-1.09351 2.849621,-1.0935 1.191208,3.10424 1.191208,3.10423 -3.141754,3.14175 -3.141752,3.14176 v -1.50005 -1.50005 z m 120.096613,2.83489 h -0.98357 v -0.98356 -0.98357 h 0.98357 0.98356 v 0.98357 0.98356 z m 7.02387,-2.19193 -1.61427,2.61197 -1.26155,-2.04123 -1.26154,-2.04121 2.13009,-1.31648 2.13009,-1.31646 0.74573,0.74572 0.74573,0.74574 z m -52.30218,-8.62727 -7.28948,7.86851 2.42745,-3.44247 2.42745,-3.44247 -2.69977,-3.44248 -2.69978,-3.44247 3.93426,2.9168 3.93425,2.91678 -3.74735,-4.39213 -3.74735,-4.39214 -3.1376,-0.13827 -3.13759,-0.13825 3.93426,-1.69061 3.93425,-1.6906 -3.93425,-0.44995 -3.93426,-0.44994 -3.585048,0.31376 -3.585054,0.31376 2.952762,-2.95278 2.95276,-2.95275 4.56655,-0.22819 4.56654,-0.22819 -3.46655,-0.90425 -3.46656,-0.90425 0.99377,-1.60797 0.99378,-1.60796 -7.362855,1.84569 -7.362854,1.84572 -15.618852,-0.20022 -15.618851,-0.20019 -3.068856,-1.79597 -3.068856,-1.79597 8.334033,-0.0598 8.334031,-0.0598 7.820111,-5.4096 7.820111,-5.40959 0.07466,-2.68668 0.07465,-2.68667 3.394514,-9.55748 3.394514,-9.55747 -2.41095,-2.41095 -2.410951,-2.41095 v 7.20916 7.20916 l -3.804933,2.03634 -3.804931,2.03634 H 77.807007 76.48087 l 1.234294,-4.91782 1.234293,-4.91782 -1.263741,-5.03514 -1.263742,-5.03515 -2.872363,1.10223 -2.872364,1.10223 0.902046,-2.46025 0.902046,-2.46024 2.082271,0.4482 2.082271,0.44819 -1.131246,-7.33314 -1.131248,-7.33314 -0.21335,-0.31808 -0.213353,-0.31807 -5.409599,1.03918 -5.4096,1.03917 -0.06256,3.21315 -0.06256,3.21315 -2.613208,-3.44247 -2.613209,-3.44247 h -5.800326 -5.800326 l -3.818447,-2.98086 -3.81845,-2.98087 5.187698,1.1713 5.187698,1.17129 3.172592,-4.52951 3.172593,-4.52951 v -1.64552 -1.64552 l -1.967127,1.21575 -1.967128,1.21575 v -2.12641 -2.12642 l 5.781102,-12.25135 5.781101,-12.25135 4.790226,-5.62282 4.790226,-5.622821 1.406565,2.275867 1.406562,2.27587 3.267345,-2.520531 3.267343,-2.520529 -3.185785,3.900355 -3.185786,3.900359 0.890803,2.4589 0.890806,2.45891 h 1.610764 1.610766 l 2.088289,-5.99047 2.088288,-5.990466 -3.371199,-1.276187 -3.3712,-1.27619 -2.95069,-2.95069 -2.950691,-2.950691 3.934254,1.680251 3.934254,1.680251 7.868509,0.382351 7.868508,0.38235 5.339955,2.1782 5.33996,2.178202 1.30227,-2.107106 1.30226,-2.107106 -5.35508,-4.60148 -5.35507,-4.601478 -2.073997,-0.691333 -2.074,-0.691333 0.822661,-2.467981 0.82266,-2.467981 8.770686,5.890459 8.77068,5.890462 0.81603,-0.816029 0.81603,-0.816028 -4.20335,-3.491658 -4.20334,-3.491658 1.20341,-4.426036 1.20342,-4.426036 h 2.72126 2.72126 l 0.23295,-3.442472 0.23295,-3.442472 -0.28237,-1.62359 -0.28236,-1.623588 3.55672,1.128857 3.55671,1.128858 -0.20955,-4.78691 -0.20955,-4.786909 -2.59242,-3.123681 -2.59243,-3.12368 3.42844,1.315616 3.42844,1.315615 -0.76838,-3.729492 -0.76838,-3.729494 -5.82429,0.430187 -5.8243,0.430187 2.86948,-1.783588 2.86947,-1.783586 0.2643,-4.947761 0.2643,-4.947759 -3.07864,-1.181388 -3.07865,-1.181388 2.89556,-1.831183 2.89556,-1.831183 -2.575,-0.03012 -2.575,-0.03012 1.38402,-2.239398 1.38403,-2.239398 -7.6611,1.150625 -7.661088,1.150626 8.852068,-2.972323 8.85207,-2.972323 11.80277,1.106012 11.80276,1.106012 10.58931,2.343158 10.58932,2.343159 16.3018,15.431015 16.30181,15.431016 1.04855,-3.508109 1.04855,-3.508112 -0.49305,7.345676 -0.49305,7.345673 2.06029,0.859316 2.06028,0.859316 -3.93425,0.185421 -3.93426,0.185421 -2.95069,2.122568 -2.95069,2.122567 3.6615,-1.191434 3.66149,-1.191435 -1.24762,3.251236 -1.24761,3.251236 2.97244,-2.466911 2.97245,-2.466909 1.31729,3.432813 1.31729,3.432812 -2.59361,4.165461 -2.59361,4.165458 3.31426,-2.739226 3.31426,-2.739225 1.25182,1.251821 1.25182,1.251818 -3.57137,3.946315 -3.57136,3.946316 h 1.52931 1.52931 l -2.54098,3.061684 -2.54097,3.061684 2.67506,-0.602775 2.67507,-0.602775 0.79771,3.675439 0.79771,3.675437 -2.46017,-1.520467 -2.46017,-1.520467 1.44837,2.343499 1.44836,2.343498 -4.09512,7.856644 -4.09511,7.85665 v 2.89012 2.89011 h -2.17759 -2.17759 l 1.13229,-2.95069 1.13229,-2.95069 h -1.67403 -1.67402 l -5.45547,17.21236 -5.45547,17.21236 -7.34036,7.38629 -7.34036,7.38629 -1.08934,5.40004 -1.08935,5.40004 -2.34387,10.32741 -2.34388,10.32742 h -2.69002 -2.69003 v -2.08819 -2.0882 l -11.61768,15.36629 -11.61769,15.36631 z m -3.89987,-12.78632 h 0.98356 v -0.98357 -0.98356 h -0.98356 -0.98356 v 0.98356 0.98357 z M 99.529336,203.7263 h 0.983564 v -0.98357 -0.98356 h -0.983564 -0.983563 v 0.98356 0.98357 z m 6.678114,-8.72424 2.1528,-1.33051 2.17396,-4.06209 2.17397,-4.06208 -2.15281,1.33051 -2.15281,1.3305 -2.17396,4.06209 -2.17396,4.06208 z m -9.628804,-6.02922 3.908334,-5.90138 0.006,-1.96712 0.006,-1.96713 -3.926905,6.44071 -3.927094,6.4407 0.01296,1.42781 0.01296,1.4278 z m 7.001034,-10.81919 h 0.86747 v -3.06679 -3.06678 l -1.99921,1.23558 -1.99922,1.23558 1.13175,1.8312 1.13174,1.83121 z m -21.426632,-4.58997 1.311416,-1.31142 -1.311416,-1.31141 -1.311419,-1.31142 v 2.62283 2.62284 z m 17.09373,-1.47534 0.701004,-0.81964 1.216948,-6.39316 1.21694,-6.39316 h -1.91795 -1.917947 v 7.2128 7.21279 z m -13.130603,-8.38917 1.081714,-1.08171 -2.194567,-6.29534 -2.194566,-6.29534 0.03012,-3.14893 0.03012,-3.14893 1.937005,2.95069 1.937004,2.95069 1.895376,-2.95069 1.895378,-2.95069 1.547095,-0.16038 1.547096,-0.16038 5.901381,-1.6408 5.901379,-1.6408 2.28447,-3.09494 2.28447,-3.09493 -0.92522,-1.49705 -0.92522,-1.49704 h 2.03454 2.03454 l -1.91844,-5.04588 -1.91844,-5.04588 v -0.79376 -0.79377 l 2.82648,1.08462 2.82648,1.08463 -1.06981,2.78789 -1.06983,2.78789 h 2.17759 2.17759 v -3.70801 -3.70802 l -5.16002,-3.38097 -5.16002,-3.38097 1.34186,2.17117 1.34186,2.17117 h -1.86997 -1.86997 l -1.27918,5.09667 -1.27919,5.09667 -3.029202,-1.16242 -3.02921,-1.16241 H 94.56358 92.870287 l 0.757668,-3.93426 0.757669,-3.93425 -3.329526,-0.13826 -3.329524,-0.13826 3.934254,-1.69061 3.934254,-1.69061 -5.409599,-0.13826 -5.4096,-0.13826 v -1.5456 -1.5456 h -4.123234 -4.123232 l 1.048868,6.46342 1.048868,6.46342 H 76.57324 74.519326 l 1.227963,3.20002 1.227963,3.20002 -2.07824,2.50413 -2.07824,2.50412 3.896731,6.9378 3.896731,6.93781 2.211114,8.21145 2.211114,8.21145 z m -4.290983,-20.95381 h -0.983563 v -0.98356 -0.98357 h 0.983563 0.983564 v 0.98357 0.98356 z m 24.589088,15.73702 h 2.62284 l -1.31142,-1.31142 -1.31142,-1.31142 -1.31142,1.31142 -1.31141,1.31142 z m 61.9645,-29.50691 h 0.98357 v -0.98356 -0.98357 h -0.98357 -0.98356 v 0.98357 0.98356 z m 3.93426,-1.96713 h 0.98356 v -0.98356 -0.98356 h -0.98356 -0.98356 v 0.98356 0.98356 z m -74.750831,-5.90138 h 0.983564 v -0.98356 -0.98357 h -0.983564 -0.983563 v 0.98357 0.98356 z m 8.296901,-9.83569 0.42839,6e-5 -1.59301,-4.30632 -1.59301,-4.30632 -4.68889,-3.070406 -4.688891,-3.07041 5.853509,7.376666 5.853512,7.37667 z m -19.1161,-7.86845 h 2.622836 l -1.311417,-1.31142 -1.311419,-1.31142 -1.311419,1.31142 -1.311416,1.31142 z m 3.934254,-5.901382 H 93.3001 l -1.311417,-1.311419 -1.311419,-1.311417 -1.311418,1.311417 -1.311417,1.311419 z M 113.29923,73.895913 h 0.98356 V 72.91235 71.928786 h -0.98356 -0.98357 v 0.983564 0.983563 z m 17.02222,-11.005625 1.85652,-1.147394 -2.34296,-2.8231 -2.34296,-2.823099 -0.74955,0.74955 -0.74955,0.74955 1.23599,3.220942 1.23599,3.220945 z m 0.68192,-6.698518 h 0.98356 v -0.983564 -0.983563 h -0.98356 -0.98356 v 0.983563 0.983564 z m 34.63649,-1.967127 h 1.52317 l 1.07754,-1.743484 1.07753,-1.743485 -3.91213,-1.023043 -3.91213,-1.023046 v 1.455111 1.455112 l 1.31142,1.311416 1.31142,1.311419 z m -40.53787,-5.901381 h 0.98356 v -0.983564 -0.983563 h -0.98356 -0.98356 v 0.983563 0.983564 z m 11.80276,0 h 0.98356 v -0.983564 -0.983563 h -0.98356 -0.98356 v 0.983563 0.983564 z m 0.98356,-25.572651 h 2.62284 l -1.31142,-1.311419 -1.31142,-1.311417 -1.31141,1.311417 -1.31142,1.311419 z m 4.91782,182.942809 h -0.98356 v -0.98356 -0.98356 h 0.98356 0.98357 v 0.98356 0.98356 z m -70.932667,-7.8685 h -0.86747 v -1.96713 -1.96713 h 2.083221 2.083221 l -1.215751,1.96713 -1.215751,1.96713 z m 7.984602,-5.90139 h -0.983563 v -0.98356 -0.98356 h 0.983563 0.983564 v 0.98356 0.98356 z m -19.241066,-5.90138 h -1.83469 l 1.181647,-3.07932 1.181648,-3.07932 -3.591831,1.14 -3.591832,1.14 -3.764112,-4.15929 -3.764111,-4.1593 2.942283,0.43031 2.942285,0.4303 2.458909,-0.23307 2.458909,-0.23307 v -1.72847 -1.72848 l -5.943588,-2.46191 -5.943586,-2.46192 -0.888201,-1.43713 -0.8882,-1.43714 7.323569,1.44683 7.323569,1.44682 3.76517,1.5643 3.76517,1.5643 -1.663051,-2.69087 -1.663048,-2.69087 6.743522,3.93843 6.743522,3.93843 0.641122,3.32907 0.64112,3.32907 -2.696237,-1.03464 -2.696234,-1.03465 -4.674516,4.9758 -4.674518,4.97579 z m -4.528385,-8.0238 3.770325,0.1553 -1.188471,-1.18848 -1.188473,-1.18847 -2.581855,1.03317 -2.581854,1.03318 z m 4.09818,-3.77896 h 0.983564 v -0.98356 -0.98357 h -0.983564 -0.983563 v 0.98357 0.98356 z m -0.983563,-9.83563 h -1.967127 v -1.96713 -1.96713 h 1.967127 1.967127 v 1.96713 1.96713 z M 42.48265,127.00834 h -0.983563 v -0.98356 -0.98356 h 0.983563 0.983564 v 0.98356 0.98356 z m 13.289771,-15.80809 -4.637104,4.84674 1.200594,-3.12869 1.200595,-3.1287 -5.17489,-1.29882 -5.174889,-1.29881 0.804181,-2.38636 0.804183,-2.38635 -3.120971,-2.2986 -3.120971,-2.2986 5.432768,-1.36354 5.432769,-1.363538 2.974772,2.468843 2.974774,2.468845 -3.305198,3.6522 -3.305199,3.6522 h 2.272006 2.272009 1.475345 1.475345 v -1.8032 -1.8032 l 1.232329,-1.23233 1.23233,-1.23232 0.846164,2.54374 0.846163,2.54375 z m 1.037739,-16.551414 -1.147225,1.147224 -1.40255,-2.269374 -1.402551,-2.269374 -3.49449,0.913829 -3.494489,0.913829 -1.919753,-1.234239 -1.919752,-1.234238 -1.384331,-4.435726 -1.38433,-4.435726 2.844991,-1.091724 2.844989,-1.091726 6.6345,4.194283 6.634498,4.194285 -6.205892,-1.240909 -6.205891,-1.240909 -1.134959,1.836403 -1.13496,1.836404 h 5.029476 5.029478 l 2.180231,2.180232 2.180234,2.180233 z M 46.206444,75.86304 h -0.773103 v -1.851033 -1.851033 l 1.944596,-1.201826 1.944593,-1.201826 -1.171491,3.052859 -1.171493,3.052859 z M 117.23348,56.19177 h -0.98356 v -0.983564 -0.983563 h 0.98356 0.98356 v 0.983563 0.983564 z m -9.83564,-11.802762 h -0.98356 v -0.983564 -0.983563 h 0.98356 0.98357 v 0.983563 0.983564 z M 71.989557,34.553373 h -0.983564 v -0.983564 -0.983563 h 0.983564 0.983563 v 0.983563 0.983564 z m 35.408283,-1.967127 h -0.98356 v -0.983564 -0.983563 h 0.98356 0.98357 v 0.983563 0.983564 z m -29.104581,-4.131736 -4.336575,2.604275 3.395635,-3.545215 3.395637,-3.545214 0.940938,0.940938 0.940938,0.940938 z"
       id="path582" /></g></svg>
