<?xml version="1.0" encoding="UTF-8"?>
<!-- Created with Inkscape (http://www.inkscape.org/) -->
<svg version="1.1" viewBox="0 0 242.64 69.12" xmlns="http://www.w3.org/2000/svg">
 <path d="m29.76 54.24c2.4421-.30594 4.3131-2.3626 6.96-1.8289 1.6432.33134 3.1372 1.4465 4.56 2.2754.85801.49984 1.6071 1.0657 2.6398.76926 1.3391-.38444 2.3752-1.5163 3.3637-2.4372 1.9757-1.8407 3.87-4.2286 6.0372-5.8098 1.0614-.7744 2.1255-.38075 3.3193-.43371 1.6217-.07195 3.2722-.35242 4.8-.90259 2.0919-.7533 3.4341-3.1198 5.52-3.6569 1.1702-.30129 3.7287.42711 4.0698 1.727.26161.99707-.38802 1.8545.25333 2.8313.80438 1.2251 2.8159 1.2675 3.6215-.0059.53002-.83785.1597-1.8497-.32704-2.608-1.0185-1.5868-2.5683-2.5303-4.2576-3.2798-.77714-.3448-1.8685-.56998-2.0622-1.5428-.22652-1.1375.41391-2.4119.35703-3.5774-.09122-1.8691-1.3361-3.8806-.81241-5.76.41016-1.4721 1.5571-2.8452 2.4132-4.08 1.6691-2.4075 3.4659-4.7764 5.0887-7.2 1.1736-1.7528 2.3487-3.5055 3.4896-5.28.50731-.78905.98596-1.9488 1.8685-2.3887 1.5865-.79068 2.7859 1.8243 3.3804 2.8687 1.5325 2.6925 3.5891 5.3892 5.3885 7.92.95126 1.3379 2.2433 2.6429 2.5987 4.32.1821.85926-.28302 1.6465-.62944 2.4-.63835 1.3885-1.2893 2.7536-2.0507 4.08-1.6212 2.8243-3.5133 5.4191-5.2611 8.1609-1.4596 2.2896-2.6648 4.6993-4.1715 6.9591-1.1132 1.6697-1.2751 3.726-3.1174 4.8952-1.6936 1.0748-3.9361-.20057-5.7598-.05-1.1606.09582-2.8601.39507-3.8044 1.1113-.48869.37063-.98782 1.2127-.36962 1.7169.77985.63593 2.1443.05279 2.9741-.12408.91361-.19474 1.9502-.15066 2.88-.09889 2.0911.11644 4.3783 1.6062 6.4791.7437 1.569-.64411 2.275-2.775 3.1389-4.1141 1.5273-2.3674 2.6144-5.0146 4.0696-7.44 1.1202-1.8671 2.4146-3.6156 3.4906-5.52 1.0852-1.9207 2.3169-3.795 3.3167-5.76.41314-.81204.80338-2.1883 1.8356-2.407.64992-.13775 1.212.33916 1.6481.75334 1.1453 1.0875 1.9708 2.4601 3.1424 3.533 4.0272 3.6878 7.4045 7.9715 10.989 12.081 1.2604 1.4454 2.7969 4.0096 4.8506 4.393 2.5701.47974 3.6791-2.7391 5.0504-4.1937 3.0282-3.2123 6.003-6.5401 8.6548-10.08 1.2018-1.6043 2.3268-4.1985 4.0863-5.2481 1.7282-1.031 3.2636 2.2984 4.1189 3.3689 1.1047 1.3827 1.7657 2.9591 2.7806 4.3478 1.3073 1.7889 2.9333 3.5204 4.3806 5.2115 1.0869 1.27 3.3152 3.1328 3.6711 4.8.43235 2.0248-3.1699 2.2692-3.7026 4.08 1.9098.41528 3.6393-.46371 5.52-.47278 2.6599-.01282 5.2321.72572 7.92.40426.87517-.10467 4.111-.31064 3.8589-1.7761-.14115-.82065-1.5105-.21525-1.9389-.08481-2.757.83943-4.7936-1.2424-6.72-2.9391-1.6042-1.4129-3.5961-3.2097-4.8017-4.9724-.42551-.62213-.52014-1.4195-.95537-2.013-.54533-.74366-1.4818-1.1699-2.0804-1.8981-2.6479-3.2216-5.1451-7.0487-7.107-10.728-1.2322-2.3109-.28696-3.4039.75315-5.52 1.6752-3.4082 4.1234-6.3848 5.7628-9.84.61863-1.3038 1.3642-2.4113 2.1026-3.6406.29873-.4973.59195-1.3267 1.2989-1.3165.64741.00939 1.1774.67505 1.5556 1.1207 1.1247 1.3257 2.0106 2.8552 2.9415 4.3163.35467.55664.9477 1.2044.81055 1.92-.30664 1.5999-2.6906 2.4774-3.5256 3.8409-2.4896 4.0658-3.2292 10.274-.44276 14.399 2.1815 3.2296 5.1748 6.3252 8.7278 7.8961 1.3942.61642 2.4978 1.2932 4.08 1.2133 1.6953-.08558 4.2044-.43477 5.76-1.1304 1.2527-.56014 2.3704-1.7377 3.8185-.94278 1.6748.91937 2.746 3.0593 3.9394 4.4837 1.4852 1.7727 3.2922 3.2342 4.9404 4.8407.96915.9446 1.7242 2.4327 3.1419 2.7637 1.7401.40632 3.5795-1.0008 5.2798-1.2707 1.6008-.25414 2.9366 1.069 4.5556.82981 1.6572-.24482 1.4804-2.0874.4524-2.9831-1.3417-1.1691-3.5798-1.2899-5.248-.93611-.84013.17816-1.7627.74899-2.64.58296-1.339-.2534-2.45-1.6487-3.2676-2.6282-1.3807-1.6539-2.9563-3.1064-4.2815-4.7991-.57758-.73774-1.5371-1.4531-1.7732-2.4-.22111-.88693.56873-1.5826 1.1634-2.1157 1.4423-1.2933 3.6207-2.3949 5.5213-1.3772.83795.44869 1.4591 2.088 2.407 2.1126 2.0491.05307 1.719-3.5416.58352-4.4135-1.4626-1.1231-3.9986.85026-5.2446-.75389-.48885-.62933-.16403-1.3782-.21519-2.0922-.10986-1.5337-1.329-2.7672-2.8131-2.88.0827 1.3004.70761 2.5225.65685 3.84-.10567 2.7432-2.3306 6.8356-5.2039 4.0548-.98992-.95803-1.4403-2.2559-2.263-3.3348-2.3561-3.0901-4.4743-6.281-6.5013-9.6-.9058-1.4831-2.1889-2.6534-3.165-4.08-.33312-.48688-.96416-1.2252-.73037-1.8652.23109-.63266 1.0568-.76286 1.6032-.51759.79275.35589 1.2292 1.2157 1.945 1.687.84343.55547 1.9225.81462 2.8585 1.1757 4.4226 1.7063 10.508 6.6411 14.836 2.1374.59205-.61609 1.1077-1.3712 1.4854-2.1374.67569-1.3708 1.0551-3.5263.72519-5.04-.18526-.84989-.8128-1.476-1.3039-2.16-1.5228-2.1208-3.8239-4.6767-6.6224-5.0089-1.3956-.16566-2.7675.016241-4.08.49315-.64777.23537-1.4449.87669-2.147.84315-.94117-.044963-1.3642-1.4443-1.8763-2.0613-.99488-1.1986-2.3451-1.0048-3.6567-.44074-2.4923 1.0718-2.6744 3.82-3.0543 6.1746-.17685 1.0962-.55173 2.4719-1.9859 2.1809-1.6333-.33132-2.5594-2.1089-3.3728-3.3809-.79235-1.2391-1.7537-2.3551-2.5383-3.6-.82635-1.3111-1.4256-2.6824-2.3894-3.9085-.96065-1.222-2.0265-3.4476-3.9356-2.9463-1.6815.44153-2.0775 3.1313-2.883 4.4548-.78504 1.2899-1.1195 2.7592-1.8361 4.08-1.4688 2.7071-3.0878 5.3123-4.7263 7.92-.88413 1.4071-1.2538 3.5665-3.0385 4.2081-1.274.45805-2.4017-1.4261-2.9978-2.2881-1.1407-1.6496-2.3648-3.4724-3.232-5.28-.48492-1.0108-.76727-2.1424-1.343-3.1096-.53561-.89988-1.6542-1.7255-2.7211-1.1637-1.2809.67443-1.6548 3.0245-2.1406 4.2733-1.1502 2.9572-3.1543 5.618-4.6787 8.4-.61427 1.121-1.676 3.8936-3.2859 3.7004-1.6481-.19786-2.2528-2.5436-3.0267-3.6969-2.1692-3.2324-4.7468-6.1585-6.9546-9.3635-.64624-.93814-1.2981-3.0044-2.5115-3.2791-1.3555-.30689-1.8483 1.0807-2.2298 2.0781-.84549 2.2105-2.4067 4.3717-3.5237 6.4809-.62126 1.1732-1.5783 2.8698-3.1109 1.8063-1.326-.92015-2.1666-2.6509-3.0435-3.9663-1.9363-2.9045-4.6066-6.0074-5.688-9.36-.71254-2.2092-.30984-6.2424-3.752-5.8985-.84028.083943-1.6486.55323-1.9828 1.3491-.65377 1.557-.73599 3.4248-1.3319 5.0294-.54558 1.4692-1.5771 2.7644-2.4087 4.08-2.5808 4.0827-5.3076 8.1527-8.2243 12-.8566 1.1299-1.4559 2.5546-2.4506 3.5644-1.8799 1.9085-6.0724-.36163-7.1696 3.1519-.59584 1.9079 2.1987.48373 2.5865 1.5235.43687 1.1715-1.7321 2.8106-2.7752 2.5707-.80803-.18579-1.399-1.0694-1.8635-1.6907-1.3221-1.7686-2.1739-3.7112-2.94-5.7598-.33342-.89158-.8632-1.9193-.36666-2.8489.44522-.83357 1.467-1.1768 2.2867-1.5165 1.3865-.57463 2.6364-1.1355 3.8398-2.0544 2.5484-1.946 3.9127-6.7702 1.3457-9.3476-.79723-.80047-2.4192-1.2142-3.5056-1.4224-3.7216-.71334-6.805 2.0507-7.4052 5.6698-.16949 1.022-.44314 2.0848-.48482 3.12-.02486.61762.14906 1.3066-.22963 1.8531-.78617 1.1346-3.1846.96795-4.3604 1.778-3.9681 2.7337-7.7507 8.0459-6.3761 13.169.2185.81433.83805 1.4364 1.2404 2.16.51242.92161.79888 2.0002 1.4513 2.8393 1.1798 1.5173 3.0477 2.6796 4.6444 3.7111.82746.53451 3.5559 1.5308 3.1146 2.8133-.23474.68228-.95981 1.3323-1.4754 1.8107-1.0484.97291-2.5468 1.9409-4.0393 1.9093-1.1595-.0246-2.2332-.59527-3.36-.78148-1.2234-.20218-2.6025-.09481-3.84-.05852-2.6528.07778-5.1263 1.7431-5.28 4.5563m84.022-51.182c-3.3564 1.378-1.3458 7.2381 2.3739 5.7389 3.4108-1.3747.81257-7.0471-2.3739-5.7389m56.618 15.902c-2.9423.28936-5.4972-2.3472-6.1196-5.04-.18249-.78946-.65973-1.9999-.0774-2.7352.6156-.77729 1.8221-.0445 2.597-.05685.68076-.01085 1.2498-.3425 1.8891.06704.52044.33343.82164 1.2064 1.4767 1.3039.79538.11842 1.3504-1.3084 1.9394-1.6967 1.3234-.87238 3.2492-.4364 4.5339.3037 2.5281 1.4564 4.3246 4.9702 3.6774 7.8541-.60533 2.6971-3.7386 4.3843-6.0372 2.2861-1.1985-1.094.11755-2.1265.5061-3.2461.4712-1.3578-.35427-3.4311-1.7491-3.9341-1.2592-.4541-2.7813.77447-2.9813 2.0141-.14288.88566.33477 1.9538.345 2.88m-114.72-4.7089c2.0946-.3751 3.5908 1.8949 2.5722 3.7383-.67156 1.2154-3.6226 2.4255-4.9722 2.5956-1.9648.2476-3.1663-1.8416-2.1846-3.5354.8151-1.4063 3.0275-2.5197 4.5846-2.7985m69.609 3.1376c1.2408-.1253 1.5778 1.1753 2.0524 2.0513 1.0782 1.99 2.5427 3.7379 3.5472 5.76.36942.74364.87939 1.5361.80667 2.4-.15368 1.8258-2.2281 3.4645-3.3113 4.8-2.8568 3.5222-5.4743 7.368-8.843 10.398-1.0483.94283-2.0723 2.556-3.6213 2.6752-2.9568.22759-5.1114-4.2814-6.8254-6.0687-.77402-.80715-1.7384-1.3938-2.513-2.2078-.99273-1.0433-1.7324-2.2922-2.7033-3.353-.93582-1.0224-2.1294-1.7827-2.9837-2.8837-.51267-.66066-.72974-1.4301-1.1109-2.1598-.56588-1.0833-1.6118-2.0599-1.5856-3.36.0315-1.56 1.2101-3.052 1.9941-4.32.52292-.84572.86787-2.1027 1.6615-2.735 1.803-1.4364 3.1332 1.9192 3.8985 2.975 2.111 2.9122 4.8889 5.3655 6.8807 8.4.58608.8929 1.4412 2.9394 2.8063 2.6804 1.1422-.2167 1.8989-1.8081 2.4807-2.6804 1.7596-2.6382 3.5216-5.5034 4.8193-8.4.51816-1.1566 1.0361-3.8184 2.55-3.9713m30.199.61889c.73862.21129.98209 1.068 1.3092 1.6726.62474 1.1545 1.3462 2.3234 2.1519 3.3598 2.8505 3.6671 5.2865 7.6173 8.1444 11.28 1.0722 1.374 3.1538 3.1835 3.3106 5.0365.16689 1.9723-2.8355 1.8323-4.0843 1.5933-5.1729-.98988-10.257-4.0961-12.893-8.7898-.71567-1.2744-1.069-2.9257-1.5005-4.32-.81351-2.6282-1.0516-5.3917.30074-7.9198.56595-1.058 1.9409-2.2903 3.2613-1.9126m-75.514 5.2791c-2.2426 1.3453-.82742 5.7014 1.8556 4.3057 2.3485-1.2217.58704-5.771-1.8556-4.3057m105.31-.04056c-.88712.35789-1.8908 1.3996-1.7933 2.433.12512 1.3269 1.8498 2.067 2.9887 1.6417 2.4346-.90927 1.487-5.1568-1.1954-4.0746m-137.04.88315c2.1261-.31958 2.7213 4.0344 3.4394 5.3907.84892 1.6032 2.1224 3.1156 3.2204 4.56.44522.58569 1.1334 1.1824 1.3122 1.92.20531.84671-.37112 1.898-.7187 2.64-.97007 2.0709-2.5148 5.1392-5.0924 5.465-2.5951.32806-4.6152-2.5059-5.52-4.505-.77867-1.7204-1.7173-3.4052-2.07-5.28-.47568-2.5283.40906-5.0921 1.7378-7.2.75396-1.1961 2.1974-2.7662 3.6913-2.9907m17.047 8.6696c.97104-.29633 1.5145.71248 1.6191 1.5213.15834 1.2246-.29089 4.409-1.6355 4.8393-1.2498.39991-3.3658-.81954-3.3033-2.203.05592-1.2381 2.1331-3.7954 3.3198-4.1576m-4.5659 6.4504c1.7052-.29626 3.5207 1.6171 2.5509 3.1898-.95777 1.5532-3.2013 2.4592-4.9507 2.6826-1.3728.17528-1.9964-.90632-1.5354-2.1617.45842-1.2482 2.5845-3.4761 3.9352-3.7107m72.334 3.4774c-2.7426 1.7494-.49909 6.1545 2.5152 4.4437 2.7937-1.5856.22268-6.1901-2.5152-4.4437m-36.093 1.0969c-2.8691.61817-1.625 5.2488 1.1978 4.5487 2.8033-.69529 1.4897-5.1277-1.1978-4.5487m-95.761 20.976c.85715 4.236 6.6154 3.1333 9.0757 1.227 1.222-.94674 1.962-2.1286 3.6443-2.1824 1.2433-.03975 2.3652.45362 3.6.47426 2.7842.04655 5.6328.27155 8.4.23667 2.4003-.03025 4.7821-.29127 7.2-.23204 2.1584.05288 4.3226.39731 6.48.46611.97083.03097 1.9119-.22259 2.88-.22259 2.8751 0 5.7602.22852 8.64.23296 1.1723.0018 2.449-.30267 3.6-.17944.9155.09801 1.7036.59542 2.64.64907 1.5888.09103 3.0045-.33394 4.56-.44796 2.2848-.16748 4.6697-.07441 6.96-.01815.98076.0241 1.9088.32599 2.88.38556.96039.05891 1.9153-.23037 2.88-.21871 1.2893.01559 2.5531.29389 3.84.30871 1.4863.0171 2.856-.45393 4.32-.47463 1.3098-.01853 2.5361.44569 3.84.47185 1.289.02586 2.5485-.24866 3.84-.23537 1.8484.01902 3.6569.31989 5.52.22945.72936-.0354 1.4344-.31444 2.16-.31444 2.1364 0 4.3024.37406 6.48.32056 1.2232-.03006 2.3764-.45662 3.6-.47204 1.3665-.01723 2.6724.38096 3.84 1.0863 1.0597.64018 2.2773 1.7877 3.6 1.7128 1.9921-.11285 3.05-2.431 5.04-2.6406 2.0684-.21787 4.1711.46012 6.24.29463 2.4716-.1977 4.9614-.72965 7.44-.88649 3.3158-.2098 6.7355.13107 10.08.01001 1.5502-.05612 3.026-.51957 4.56-.54019 1.5689-.02108 3.0176.45272 4.56.47463 3.8966.05537 7.8592-.29784 11.76-.22259 4.2327.08165 8.4693.27831 12.72.22611 1.1548-.01419 2.2168-.41387 3.36-.46945 4.8647-.23648 9.7775-.05766 14.64-.18741 2.3011-.0614 4.6622.44359 6.96.38686 9.1218-.22524 18.227-.61135 27.36-.81982 2.7411-.06257 5.4424.45142 8.16.54962.91578.0331 2.3052.29509 2.9611-.55611 1.1106-1.4413-1.7888-1.5425-2.4811-1.5428-3.6147-.0016-7.1611-.70771-10.8-.45852-2.1645.14822-4.3148-.19794-6.48.0035-1.1419.10624-2.1973.65196-3.36.65204-1.228 8e-5-2.3829-.65819-3.6-.61037-.81245.03192-1.5805.36387-2.4.4037-3.5187.17105-7.0539-.07459-10.56-.16815-1.5849-.04229-3.2026.26867-4.8.24741-5.2587-.07-10.6-.37123-15.84-.30519-1.6089.02027-3.1765.2972-4.8.22611-1.7513-.07668-3.527-.4914-5.28-.45759-2.7869.05376-5.6076.38556-8.4.38556-2.7122 0-5.4345-.22177-8.16-.155-2.0864.05112-4.1384.28445-6.24.23297-2.2384-.05484-4.4804-.44892-6.72-.47556-7.0558-.08393-14.052.2026-21.12-.0046-1.8299-.05365-3.5324-1.2872-5.28-1.3218-1.6308-.0323-2.8468 1.6969-4.56 1.7952-5.0133.28754-10.098-.04844-15.12.01129-2.6339.03133-5.2884.3544-7.92.46963-2.9856.13074-6.1387.19213-9.12-.01203-1.3526-.09263-2.7238-.41556-4.08-.41556-6.7915 0-13.589.17274-20.4.32777-1.8404.04189-3.6615-.41275-5.52-.36722-2.3986.05876-4.803.38982-7.2.46611-1.5366.04891-3.012-.46963-4.56-.46963-5.7247 0-11.337.24672-17.04-.43574-1.8484-.22118-3.9595.35824-5.7563-.14833-1.523-.42939-1.7185-2.2924-2.3891-3.4959-1.3208-2.3705-3.94-4.1836-6.7346-3.3494-3.972 1.1856-2.7737 5.4752-.21852 7.5698.54753.44885 2.7826 1.1124 2.4715 2.0815-.69447 2.1629-4.4536.65396-5.853.89815m5.7706-8.4907c2.4009-.84851 4.4735 3.4696 1.8989 4.4326-2.3706.8867-4.5975-3.4789-1.8989-4.4326z" style="fill:#0f0f0f"/>
</svg>
