<?xml version="1.0" encoding="UTF-8" standalone="no"?>

<svg
   id="svg1"
   width="191.97"
   height="78.216"
   version="1.1"
   viewBox="0 0 191.97 78.216"
   sodipodi:docname="atfsb_p736_bookshelf_9617.svg"
   inkscape:version="1.4.2 (ebf0e940d0, 2025-05-08)"
   xmlns:inkscape="http://www.inkscape.org/namespaces/inkscape"
   xmlns:sodipodi="http://sodipodi.sourceforge.net/DTD/sodipodi-0.dtd"
   xmlns="http://www.w3.org/2000/svg"
   xmlns:svg="http://www.w3.org/2000/svg">
  <defs
     id="defs1" />
  <sodipodi:namedview
     id="namedview1"
     pagecolor="#ffffff"
     bordercolor="#000000"
     borderopacity="0.25"
     inkscape:showpageshadow="2"
     inkscape:pageopacity="0.0"
     inkscape:pagecheckerboard="0"
     inkscape:deskcolor="#d1d1d1"
     showgrid="false"
     inkscape:zoom="4.5748118"
     inkscape:cx="61.204704"
     inkscape:cy="27.323528"
     inkscape:window-width="3491"
     inkscape:window-height="1893"
     inkscape:window-x="0"
     inkscape:window-y="0"
     inkscape:window-maximized="1"
     inkscape:current-layer="svg1" />
  <path
     id="path1"
     d="m 144.47728,77.846739 -2.3189,-0.44648 -9.7622,-2.9704 -12.16,-4.0886 -6.8951,-2.5437 -4.8625,-1.0818 -3.3703,0.34785 -1.9827,1.0253 -0.20612,0.82126 -0.20613,0.82126 0.88298,0.86144 3.2,0.26516 -0.1534,4.6793 -0.3829,0.37996 -21.038997,-0.02866 -0.26684,-0.29133 -0.22448,-2.4614 -0.22448,-2.4614 3.0704,-0.19716 0.95947,-1.7163 -1.2583,-1.3904 -6.4005,0.2691 -15.68,5.1938 -7.9491,2.3446 -9.0108,1.8937 -8.96,0.34867 -4.8,-0.68357 -4.3552,-0.97705 -4.0399,-1.9484 -2.6449,-2.2639 v -0.59013 h 2.9006 l 2.2194,-0.92734 v -1.8535 l -1.2293,-1.1125 h -2.8431 l -8.5898,2.899 -4.3459,0.69426 -2.3519,-0.39319 -2.9909004,-0.94189 -2.5245,-2.7387 -0.79935,-2.422 0.35386,-2.6441 0.43547,-1.44 h -3.2369 l -0.32949,-0.53313 0.38455,-4.5869 h 2.135 l 0.31195,-1.44 0.29843,-25.92 0.98871,-4.8 0.66659,-4.4314 1.4265,-2.581 1.6,-0.44383 3.0558004,-0.0638 0.62416,1.6417 v 1.5583 l 4.64,-0.0066 1.0804,-2.5719 3.041,-1.3452 4.8041,0.40609 4.9777,1.3431 6.7434,-1.989 5.9134,-2.6194 6.08,-2.7662999 6.08,-2.5469 10.56,-3.6237 9.92,-2.61680004 8,-0.06361 2.9486,1.45280004 1.1326,2.5116 -1.9914,3.5286 0.18688,0.487 0.18688,0.487 2.1264,1.3142 4.9064,0.9387399 5.543697,-0.0048 4.1167,-0.66794 1.7165,-1.0139999 0.99409,-1.6828 -1.8673,-2.5044 v -2.4134 l 2.08,-1.55340004 2.4093,-0.77191 6.1148,0.04904 9.0759,1.64230004 10.24,3.422 9.28,3.5465 5.44,2.3375999 10.56,4.0291 4.16,1.398 4.0673,1.1609 1.1467,-1.1467 6.306,-2.1007 7.2583,-0.27628 2.3417,1.0108 1.8597,0.18008 0.89876,2.56 2.5982,10.24 -0.4561,26.08 h 2.9016 l 0.17757,0.28731 0.17756,0.28731 -0.20563,2.4327 -0.20564,2.4327 h -3.1061 v 2.678 l -1.0527,3.7517 -3.3164,2.8333 -3.4014,0.72947 -3.8929,-0.44044 -7.3766,-2.9469 -5.3324,-0.04506 -1.5242,1.7685 0.198,0.55573 0.19799,0.55573 0.30951,0.4 0.3095,0.4 h 3.4 l 1.7304,-0.65791 0.18159,0.18159 0.18158,0.18159 -0.61114,1.1348 -0.61115,1.1348 -3.2794,2.9851 -4.1103,2.1044 -3.52,0.96475 -10.24,0.26686 z m 13.638,-1.4597 2.3463,-0.65019 2.6546,-1.3476 3.0127,-2.312 0.0272,-0.56374 -2.2764,0.36941 -2.2259,1.9543 h -0.70004 l 2.6707,-2.4 -2.2369,-1.5009 -3.4437,3.5273 -2.426,1.0136 -1.0418,-0.05052 2.88,-1.0122 3.5853,-3.6569 0.20462,-1.2796 0.20461,-1.2796 2.0391,-1.9936 2.1855,-0.41 4.2291,0.43328 3.8718,1.5315 4.3962,1.6375 3.6038,-0.0062 3.2,-1.5555 1.7474,-1.5967 0.6369,-2.7615 -0.004,-0.64 -0.9233,1.22 -0.28,-0.75692 -0.28001,-0.75692 -0.45408,2.4205 -0.59375,0.97635 -0.59376,0.97635 -0.90737,0.59825 -0.90738,0.59825 -1.28,-0.0098 2.6776,-1.2157 1.0024,-1.9385 v -2.0741 l -0.46982,0.62116 -0.46983,0.62116 -0.0204,-1.248 -0.64419,0.64419 -1.7558,3.4388 -0.96,0.25372 0.72807,-0.52872 1.0319,-2.4782 v -1.0342 l -1.7022,2.3924 h -0.81612 l -0.82142,-0.31218 -0.82083,-0.31208 v -1.4317 l -0.94699,1.1079 -0.947,1.1079 -0.026,0.42375 2.72,0.44832 0.96,0.60833 -1.8347,-0.39133 -2.0053,-0.34445 -0.86278,-0.26862 1.9828,-2.2583 v -0.29773 h -0.91687 l -0.20895,0.65833 -0.20894,0.65833 -1.5955,0.60661 -3.3909,-0.98576 -0.99322,-1.0975 0.0572,-0.31958 0.0572,-0.31958 -1.28,-0.0114 -1.12,0.90981 v -1.5015 l -0.91429,1.2423 -0.4414,-1.1388 -0.86396,1.1388 -0.0398,-1.28 -0.69531,1.1968 -0.28262,-0.43839 -0.28261,-0.43839 -0.56,0.86833 -0.45698,-0.7394 -0.90302,0.74944 -0.0102,-0.59918 -0.0102,-0.59918 -0.88386,1.166 -0.24798,-1.166 -1.0223,1.9215 -1.1855,1.0686 -1.8652,0.46566 0.42796,-1.1152 0.21171,-0.85027 0.21172,-0.85027 -1.0662,0.87836 -0.026,-0.43918 -0.026,-0.43918 -0.74802,1.6 -1.2275,1.8117 1.0262,1.7373 -0.80258,1.0255 -0.80259,1.0255 h -1.5795 l -1.7341,-1.2115 -5.4132,-3.2685 h 0.55701 l 2.9362,1.6837 3.3085,2.1563 h 1.9258 l 0.50285,-0.50286 0.50286,-0.50286 v -0.6168 l -1.008,-1.5384 1.274,-1.799 0.41714,-1.44 h -0.55513 l -0.768,0.768 -0.006,-1.248 -1.9233,3.3537 0.75036,1.2015 -0.40654,1.0594 -2.4066,-1.0055 -3.0668,-1.968 -0.94104,-1.3435 -0.0204,-1.9376 -0.4251,0.56 -0.42511,0.56 h -0.40936 l -0.0204,-1.12 -0.83392,1.0977 -0.37167,-0.37167 -0.37166,-0.37167 -0.47102,0.6228 -0.47103,0.6228 -0.0302,-1.28 -0.6204,0.96 -0.01,0.83599 2.88,1.274 v 0.22742 l -3.0069,-0.90495 -0.50328,-0.79242 -0.02,-0.96 -0.29789,0.47103 -0.29788,0.47103 -0.45736,-1.1919 -0.78138,1.0686 -0.46438,-1.1388 -0.5041,1.28 -0.29967,-0.77135 -0.29966,-0.77135 -0.23115,0.60238 -0.23116,0.60238 -0.29788,-0.47103 -0.29789,-0.47103 -0.005,0.87079 -0.005,0.87079 4.64,1.3503 1.7737,0.67141 0.1488,0.24076 0.14879,0.24076 -6.645,-2.0861 -0.35225,-0.21832 -0.35315,-0.21826 v -2.0046 l -0.46982,0.62116 -0.46983,0.62116 -0.0204,-0.64 -0.0203,-0.64 -0.92204,1.2182 -0.4133,-1.077 -0.86396,1.1388 -0.0204,-1.12 h -0.55626 l -0.3967,2.4 -0.008,1.0952 3.265,0.96962 5.535,0.71991 0.52044,0.48771 -7.3008,-1.1099 -2.395,-0.79041 0.2153,-3.453 -0.352,8.72e-4 -0.768,0.768 -0.0434,-1.248 -0.71252,1.4804 -0.82148,-1.4804 -0.016,1.28 2.1237,3.84 5.0553,2.0434 1.6134,1.8918 2.56,0.78208 0.613,0.56769 -3.493,-1.0298 -1.92,-2.066 -4.6692,-1.7764 -0.51127,-0.84644 -0.51126,-0.84644 -1.2927,-1.8753 -0.44734,-1.9647 -0.69556,1.6 -0.22074,-0.74705 -0.22073,-0.74705 -0.27561,0.42705 -0.2756,0.42705 -0.30279,-0.47103 -0.30278,-0.47103 -0.48496,1.2621 -0.22625,-0.8 -0.22624,-0.8 -0.23613,0.75944 -0.23612,0.75944 -0.78648,-1.4695 -0.4554,1.4348 -0.85052,-1.1632 -0.45139,0.45139 0.3528,0.91939 4.0463,0.4589 2.0285,0.83513 0.37039,0.6921 0.3704,0.6921 -0.36092,0.94056 -2.4084,-0.45037 -1.92,-0.88631 2.24,0.3696 1.76,0.36916 v -0.59196 l -1.2457,-1.3371 -4.6743,-0.73818 -0.96,-0.13198 -0.10226,-0.71673 -0.10225,-0.71673 h -0.59345 l -0.01,0.8 -0.67892,-0.96 -0.33352,0.82671 -0.84394,-0.70041 -0.2322,0.73159 -0.23219,0.73159 -0.54402,-1.4706 -0.3227,0.19944 -0.32271,0.19944 -0.0203,0.54112 -0.0203,0.54111 -0.6323,-1.5846 -0.22356,0.3123 -0.22334,0.3123 h -0.90667 l -0.13513,0.4054 -0.13513,0.4054 2.7769,1.22 5.0764,0.69894 0.36358,0.37337 -4.48,-0.4675 -3.8022,-1.3556 -0.28902,-1.12 -0.28903,-1.12 -1.1929,2.24 -0.0268,-1.76 h -0.58667 l -0.3228,0.8 -0.0506,-1.12 h -0.40944 l -0.85021,1.12 -0.0346,-1.6 -1.2515,1.6 -0.0346,-1.28 -0.92204,1.2182 -0.4349,-1.1333 -0.84003,1.5151 -0.0113,-0.70111 -0.0113,-0.70112 -0.58534,-0.36176 -0.32594,0.80399 -0.61875,-0.88456 -0.43128,1.3588 0.4439,0.71825 2.7615,1.2215 6.276,1.8411 3.2,0.71 3.52,1.0203 7.68,1.868 1.6,1.81 3.84,1.4411 8.64,2.5026 -2.4808,-0.37128 -5.5192,-1.5435 -2.24,-0.72093 -3.68,-1.6188 v -0.53616 l -0.92639,-0.47905 -0.92638,-0.47905 -2.4672,-0.58563 -12.8,-3.3104 -5.12,-1.6397 -2.0807,-0.95591 -0.5816,-2.0068 -0.0578,1.1425 -0.5168,0.78874 -0.51681,0.78874 h -0.66558 l 0.52959,-0.5852 0.5296,-0.5852 -0.0288,-1.5496 -0.46905,0.96 -0.46906,0.96 0.24854,-1.3692 -0.55176,-0.87085 -0.005,0.43424 -0.005,0.43424 -0.45933,-0.17626 -0.45932,-0.17626 -0.63082,1.724 -0.0506,-1.8384 -0.96,0.79673 v -0.75614 l -0.56745,0.3507 -0.20324,1.0435 -0.20324,1.0435 -1.213397,1.5786 -4.6927,0.41436 -0.91728,0.24702 -0.78045,-1.6 -0.18859,-1.4111 -0.18887,-1.4111 -0.16227,-0.16227 -0.16227,-0.16227 v 1.0667 h -0.67777 l 0.45666,-0.73888 -0.73888,0.45666 -0.0049,1.5011 -0.0049,1.5011 -0.6204,-0.96 -0.0196,-2.88 -0.6302,0.96 -0.6302,-0.96 -0.03016,1.28 -0.87821,-1.1583 -0.35745,0.57836 0.31985,1.1584 0.31985,1.1584 0.6163,0.3809 v 0.68059 l -0.89708,-0.74451 -0.41849,-1.4174 -0.41849,-1.4174 -0.49613,0.78085 -0.0049,0.67684 -0.0049,0.67685 1.3105,1.666 1.7056,0.82032 1.5109,2.24 -0.13826,0.8 -0.13827,0.8 -0.5153,1.2146 1.7048,-0.32589 v 0.53906 l -1.76,0.37129 -2.08,0.91055 v 0.57945 l 1.2274,1.5109 7.4822,-0.1366 2.669797,-1.2924 2.2579,-2.411 0.78178,-3.1206 2.2209,-2.5946 v -0.50228 l 1.2908,-0.69079 3.0839,1.549 5.3546,1.085 6.4307,2.214 10.24,3.437 6.5075,2.3214 5.3325,1.6246 4.48,0.84815 9.2929,0.06924 z m -10.839,-0.36548 -2.08,-0.29668 -0.55735,-0.55699 2.4774,0.52992 5.6662,0.33895 0.18025,0.18024 0.18024,0.18024 -3.7867,-0.079 z m -2.4,-1.7205 -1.92,-0.41986 -2.3268,-0.6001 -4.3932,-1.4896 -3.4512,-1.5941 -0.30432,-1.1637 -2.8858,-1.2765 h -0.84087 l -0.19046,-0.30818 -0.19047,-0.30818 2.7432,0.85006 1.7477,0.82342 0.19529,0.6153 0.19528,0.6153 2.9817,1.2862 5.76,1.8849 4.48,1.0155 0.96,0.54617 -0.64,-0.05682 z m -55.763997,-0.85193 0.12936,-0.38807 4.4346,-2.2639 -0.11258,-0.64 -0.22822,-0.64 -0.22821,-0.64 1.4467,1.3754 -0.44529,0.72049 -4.4324,2.2321 v 0.31642 l 4.64,-0.315 -1.6,0.56673 -3.7333,0.0638 z m 58.163997,-0.2657 -0.8,-0.26998 4.8,0.36708 0.13333,0.11834 0.13334,0.11834 -3.4667,-0.0638 z m 8.1377,-0.40504 0.61766,-0.38118 2.2847,-2.0722 -0.96,-0.63796 1.44,-0.0098 -0.0212,0.48 -1.0987,1.28 -2.1291,1.76 -0.7509,-0.03764 z m -9.4177,-1.0413 -1.12,-0.42376 -1.9381,-0.03612 -4.4619,-2.1506 -0.58085,-0.65292 -0.58084,-0.65292 0.30144,-0.1863 0.30145,-0.1863 4.7258,1.2378 2.4654,1.0301 1.2438,0.8231 1.2438,0.8231 v 0.87495 l -0.48,-0.07636 z m 0.79624,-0.46597 -0.20153,-0.32608 -3.2532,-1.6485 -3.5816,-0.92013 -1.12,-0.34233 v 0.63093 l 2.1306,1.3168 5.7094,1.5361 0.25889,0.03964 0.25888,0.03964 z m 1.7306,-0.30843 -1.3668,-1.2745 -5.1601,-2.6007 1.6,0.43261 3.2,1.5886 3.3839,2.5848 3.0805,0.296 3.1356,-1.3503 -0.89784,0.79902 -0.89785,0.79902 h -4.7106 z m -53.086997,0.18105 v -0.45347 l 1.2441,-2.9024 2.461197,-1.5537 1.8168,-2.3819 0.26064,0.42174 0.26065,0.42174 -0.33795,0.40721 -0.33796,0.40721 -0.52815,-0.32641 -0.25966,0.42333 -0.25967,0.42333 -2.787697,2.2068 -1.2123,2.3745 v 0.3455 h 0.87369 l 1.627297,-1.28 h 0.45742 l -0.831747,1.0022 -1.7748,0.9178 h -0.67178 z m 3.576397,-0.66653 0.1228,-0.32 1.7056,-3.68 h 0.7022 l -0.8721,1.52 -0.8721,1.52 -0.90915,1.28 z m 50.664,-1.4224 -2.24,-1.2421 -2.1783,-1.0239 0.19308,-0.19307 0.19307,-0.19307 5.3121,3.0904 4.48,0.23988 1.437,-1.0456 1.437,-1.0456 -2.074,-0.84627 v -0.56456 l 1.76,-1.1327 -1.1214,1.271 0.21404,0.21403 0.21403,0.21403 h 1.4933 v 0.72443 l -2.1923,2.0676 -2.8911,0.728 -1.7966,-0.02024 z m -58.518997,-0.01765 0.17225,-1.12 -1.6854,-2.475 0.12195,-0.12195 0.12195,-0.12195 2.0277,2.8236 v 0.89305 l -0.93077,1.2423 z m 2.0937,-0.66653 0.1442,-0.45347 5.199197,-2.56 2.0443,-1.92 -0.344,0.66632 -0.34401,0.66632 -0.92715,0.76946 -4.067797,1.9695 -1.849,1.3154 z m 82.664997,-1.6133 -1.6,-0.64494 -0.64,-0.64099 3.52,1.4025 1.6,0.50822 -1.28,0.0201 z m -54.24,-0.77655 -1.76,-0.42457 3.8091,0.37083 1.6309,0.49512 -1.92,-0.0168 z m 49.12,-1.2003 -1.92,-0.67282 -8.32,0.0036 1.6,-0.45032 6.5454,-0.0638 4.2997,1.6184 0.1508,0.1508 0.15081,0.1508 -0.58667,-0.0639 z m -127.929997,10.782 1.5312,-0.51442 3.2618,-1.5312 h 0.98886 l 0.40157,1.6 2.3878,-0.0098 0.90971,-0.57577 -2.3497,-0.98177 v -0.91501 l 1.92,-0.79529 v -0.56236 h -1.4082 l -6.1118,2.3023 -3.84,1.4608 -2.24,0.38933 1.92,-0.71454 11.008,-4.0779 h 1.2582 l 0.30569,0.8 -2.0124,1.7204 0.83329,0.83958 4.7734,-0.0997 4.6333,-1.3925 4.16,-2.2697 2.88,-2.6364 -3.4981,3.6783 h 0.82565 l 3.7972,-3.6219 0.39433,0.39433 -0.39454,1.0282 -0.55149,-0.34084 -1.4846,1.5803 h 0.71527 l 0.92799,-1.3249 0.26183,0.7855 2.144,-2.1806 -1.0723,1.76 1.1348,-0.0084 4.48,-3.8401 1.28,-0.27653 3.0033,-0.38865 1.9567,-2.2286 v -0.6555 l -0.58534,0.36176 -0.14093,-0.40199 -0.14093,-0.40199 -1.2128,1.4381 -2.24,0.31327 1.4778,-0.47134 -0.01889,-0.24 -0.01888,-0.24 -0.02036,-1.44 -0.875,1.1539 -0.19232,-0.41696 -0.19232,-0.41696 -0.19232,0.41696 -0.19232,0.41696 -0.875,-1.1539 -0.02036,1.12 h -0.64 l -0.02036,-1.12 -0.86396,1.1388 -0.43012,-1.1209 -0.6543,0.94206 -0.34875,-0.87242 -0.56253,0.87242 -0.60714,-0.94459 -0.6323,1.5846 -0.04056,-1.44 h -0.59549 l -0.28326,1.44 -0.49652,-1.5189 -0.84205,1.5189 -0.02268,-1.12 h -0.53726 l -0.66786,1.44 -2.1348,1.2388 1.4199,-1.8052 -0.01018,-0.51685 -0.01018,-0.51684 -0.93965,1.2423 -0.0097,-0.62116 -0.0097,-0.62116 -2.1895,3.8178 0.27338,0.27338 1.1355,-0.86334 -2.2055,2.3721 h -0.57252 l 2.9414,-5.44 h -0.64326 l -0.02036,0.8 -0.93964,-1.2423 v 1.0823 h -0.64 l -0.02268,-0.8 -0.43322,0.78222 -0.43322,0.78221 -0.1376,-0.62221 -0.1376,-0.62222 -1.1179,2.56 -0.5386,2.8453 -1.1123,0.81331 -1.8761,-1.5786 h -2.5109 v -0.33272 l 1.5065,-2.3873 0.48735,-1.5368 -1.0339,0.39673 -0.05772,-0.77991 -0.6222,2.1634 -0.97818,1.4929 -3.4337,2.2792 -0.38596,0.6245 h -1.3663 l 5.0605,-3.36 1.0968,-1.92 0.04678,-0.77991 -1.065,0.40868 0.46276,-0.74876 h -0.59778 l -0.36304,1.8152 -3.5923,2.7122 -2.1841,0.91257 h -5.6559 l -4.4447,-1.5524 0.96,-0.03822 3.7905,1.1831 5.0906,0.1227 3.4758,-1.7586 2.203,-2.4385 -0.0049,-0.39908 -0.0049,-0.39908 -0.54114,0.85366 -0.44349,-1.1557 -0.30278,0.47103 -0.30279,0.47103 -0.27547,-0.42683 -0.27547,-0.42683 -0.35905,0.93567 0.64928,0.64928 -0.35553,0.66432 -0.35553,0.66432 -2.7082,1.5449 -2.6215,0.38698 -0.19848,-0.19848 -0.19848,-0.19848 2.5877,-1.8745 0.91076,-2.1798 v -0.20436 l -1.2328,-0.09286 -0.42358,1.2866 -0.42358,1.2866 -1.6808,1.0036 -4.0792,-0.65109 4.5177,-0.0891 1.0737,-0.8 0.42852,-2.1795 -0.7399,0.45729 v -0.77696 l -1.2136,1.0983 -0.16792,-0.41956 -0.16792,-0.41956 -0.05052,1.4558 -1.6417,0.62416 h -2.7926 l -1.0057,-1.0057 v -0.80762 l -1.12,-0.0098 -0.44557,0.68526 -0.43012,-1.1209 -0.86396,1.1388 -0.01018,-0.43424 -0.01018,-0.43424 -0.91865,0.35252 -0.31082,-0.76405 -0.02526,0.59918 -0.02526,0.59912 -0.96,-0.79673 v 0.68059 l 0.60297,0.37265 3.5614,0.65836 2.7156,1.2327 -0.69981,0.014 -1.7301,-0.59332 -1.7301,-0.59337 -3.0773,-0.45806 -0.38565,-1.005 -0.85707,1.1721 v -1.0823 h -0.64 l -0.02036,0.8 -0.86396,-1.1388 -0.4702,1.1388 -0.15386,-0.41336 -0.15386,-0.41336 -0.84078,0.69779 -0.43396,-0.70216 -0.90302,0.74944 -0.0049,-0.43918 -0.0049,-0.43918 -0.54175,0.85466 -0.39683,-0.02686 -2.4116,0.97571 -5.12,2.0989 -4.48,1.6988 -1.92,1.2746 1.4737,0.0042 9.4063,-3.2495 3.4223,0.32966 2.1425,1.4681 0.66145,1.4517 h 1.0158 l 1.2792,-0.68462 -0.83226,-1.0028 -2.5781,-1.1051 -0.82144,-0.98978 1.4529,-1.0177 h 3.4113 l 4.4393,1.0097 0.40721,0.65887 -1.5201,-0.48563 -3.2,-0.85534 -2.9177,-0.0076 -1.2002,0.87758 2.5178,1.5994 1.2083,1.351 -0.80669,0.972 h -1.4433 l -0.76461,0.9213 0.10312,0.8837 0.10312,0.8837 2.1355,1.2426 5.2245,0.45671 -4.2395,0.09198 -2.7687,-0.97685 -1.1116,-1.006 -2.2801,0.75251 v 0.6305 l 4.2499,1.927 6.3227,0.81879 0.41409,0.41409 h 3.071 z m 11.531,-3.5462 -0.5602,-0.14638 0.18077,-0.72024 0.18077,-0.72024 -0.84114,-0.66658 -1.92,-0.7269 2.5551,0.37907 0.48487,0.29967 v 1.7542 l 0.768,0.768 -0.288,-0.07424 z m 1.0402,-0.16699 v -0.25238 h 3.1763 l 3.2237,-1.2707 v 0.26379 l -2.08,1.0808 -4.32,0.43083 z m -22.64,-0.42196 -0.72,-0.50672 0.0074,-0.76371 2.6029,-1.2474 -0.20274,-0.8163 -0.20274,-0.8163 -0.12476,-1.28 2.2456,-0.18943 4.4744,1.6857 6.8148,0.50565 0.77357,0.47809 -0.86833,0.5502 h -0.96 l 0.84667,-0.53681 -3.016,-0.41339 -2.3107,-0.0038 -7.021,-1.9033 -0.61411,0.61411 0.8204,1.5329 -0.34044,0.63611 -0.34044,0.63611 -1.9445,0.80542 v 0.5782 l 1.44,0.5426 5.12,-0.31913 -0.16,0.15783 -0.16,0.15783 -5.44,0.42219 z m 3.84,-0.98564 -0.4,-0.17813 v -0.90667 h 0.70938 l -0.424,-1.6894 2.1146,0.34711 3.52,1.5687 -2.56,0.74752 -2.56,0.28897 z m 3.6926,-0.73343 0.47411,-0.26532 -2.981,-1.1384 -0.12686,0.12686 -0.12686,0.12686 -0.23284,0.92773 -0.23285,0.92773 2.7522,-0.44009 z m 22.93,-0.09745 0.94307,-0.73392 1.4065,-1.4608 0.39082,-2.0833 1.7565,-1.0212 3.52,-0.74681 6.4,-0.25562 -7.68,0.85239 -2.4757,0.68467 -1.2043,1.0899 v 1.1585 l -1.8574,2.1023 -2.1426,1.1478 z m -6.4603,-1.064 -0.69967,-0.49007 -3.7031,-0.59541 4.4503,0.28363 1.2919,1.2919 h -0.63982 z m 4.8405,-1.5787 0.5168,-0.78874 0.0098,-2.1025 0.68299,-0.96 -0.17236,1.4622 -0.17236,1.4622 -0.65224,1.7155 h -0.72945 z m 11.237,-0.95068 1.28,-1.1259 -2.08,0.30531 -2.038,0.3276 -1.162,1.0516 v -0.77185 l 2.1998,-0.91914 4.5202,-0.42011 v 0.3371 l -4,2.3413 z m -25.2,9.5326 1.04,-0.18445 v -0.44645 l -0.80404,-1.0996 -2.556,1.1699 -2.24,1.1027 3.52,-0.35762 z m 39.437,-1.7185 -0.37469,-0.70012 0.31762,-1.2146 h -0.83161 l -0.38847,1.0123 v 1.2483 l 1.44,0.54478 0.10593,-0.09529 0.10593,-0.09529 z m 16.054997,-0.47469 -0.10753,-0.96 -0.55209,-0.57514 -1.7929,1.1382 0.8,-0.85108 v -1.152 h -0.27826 l -3.544697,3.5447 5.582897,-0.18466 z m 2.4478,0.08 -0.10027,-1.04 -2.08,-0.20055 v 1.6087 l 1.12,0.65234 1.1606,0.0194 z m -91.970997,-5.4684 1.9508,-1.0684 5.44,-2.1058 4.16,-1.7592 1.12,-0.37808 v -0.50009 l -3.04,-0.02142 -0.44557,0.64348 -0.45172,-1.1772 -0.84003,1.5151 -0.01134,-0.78116 -0.01134,-0.78116 -0.93965,1.2423 -0.02036,-0.87836 -0.89776,0.74508 -0.33351,-0.82671 -0.65211,0.93854 0.67547,0.81389 -0.87208,0.27219 -2.08,0.35938 v -1.9131 l -2.415,1.5981 -3.4324,0.65094 h -2.2019 l -0.9066704,-0.90666 -0.90667,-0.90667 h -1.0174 v 1.4933 l 1.2637,1.2637 1.4563004,0.31136 1.28,0.27068 -2.6337004,0.07424 -1.6273,-1.28 h -0.39549 l 0.9634,1.76 1.133,1.3035 3.8400004,0.84853 0.64,0.19744 0.2585,0.05052 z m -1.277,-2.4223 1.8923,-0.63242 1.6999,0.33997 2.3556,-0.98423 v 0.53887 l -1.12,0.45654 -4.16,0.53286 -2.56,0.38083 z m 64.988,1.577 3.2,-1.0477 2.1475,-1.6027 -0.6964,1.3012 1.1089,-0.29769 0.98937,-0.75949 1.0906,-1.5824 v -1.7776 h -0.58667 l -0.1623,0.4 -0.1623,0.4 -0.59936,-0.85317 -0.73858,2.9332 h -0.23217 l 0.14836,-1.52 0.14836,-1.52 -1.4072,2.7301 -1.5732,1.2375 -2.995,0.38013 -2.0321,1.0073 -1.8079,1.9437 0.96,-0.32475 z m -16.604,-1.5263 0.22472,-1.2 0.85957,-2.0594 v -0.69236 l -1.0572,0.59164 -0.09213,0.86407 -0.09212,0.86407 -0.75691,0.91202 h -0.78244 l -1.0008,-1.12 -0.10918,-0.72559 -0.10918,-0.72559 -1.404,2.8956 3.004,1.5078 1.091,0.08774 z m 91.963997,0.57889 v -0.30112 l -0.64,-0.39554 v -1.3013 l 1.28,-1.6273 v -1.2929 l -1.12,0.97568 -0.87402,-0.31449 -0.55618,0.87801 -0.01,-1.12 h -0.66009 l -0.41182,1.0732 -0.4594,-1.2332 -0.45906,1.1249 1.0848,1.6555 0.80102,-0.75024 0.80103,-0.75024 -0.79916,1.76 h -0.97602 l -0.74063,-0.69578 -0.74062,-0.69578 v -1.1484 l -0.96,0.36839 v -1.1565 l -0.75064,0.75064 0.71504,1.5693 3.7156,2.5108 0.96,0.3667 0.8,0.05052 z m -103.419997,-0.78612 0.86486,-0.44724 1.0713,-1.1855 -0.52729,-2.24 -0.06552,1.12 h -0.58667 l -0.2723,-0.8 -1.4068,2.7451 -2.0542,1.2525 2.1118,0.0024 z m 57.612997,-0.05425 0.10974,-0.09132 -1.8841,-0.97428 -1.3754,0.96338 v 0.59147 l 3.04,-0.39792 z m -20.974997,-0.60846 -0.57494,-0.78994 h -0.32 l -1.1499,1.5799 h 2.6198 z m 11.845,-0.47689 0.580207,-0.55136 0.86229,-2.5018 -0.17516,-0.16 -0.17516,-0.16 -0.28571,0.8 h -0.586667 l -0.06854,-1.12 -0.59798,2.6636 -0.86979,0.72186 -3.1037,-0.51728 -0.19473,-1.4341 -0.19473,-1.4341 -0.25734,0.7764 -0.25734,0.7764 -0.67667,-1.5528 -0.10972,1.5834 -0.10972,1.5834 0.7588,1.4178 4.8814,-0.34017 z m -37.54,-1.6915 v -1.28 l -0.96,0.79673 v -0.75614 l -0.64,0.39554 v 1.5709 l 0.77363,1.2388 0.82637,-0.68583 z m -46,0.52954 1.2,-0.78026 -0.0098,-0.79092 -0.6302,0.96 -0.6302,-0.96 -0.02926,1.28 -0.69531,-1.1968 -0.56523,0.87678 -0.6302,-0.96 -0.0049,0.41889 -0.0049,0.41888 -0.60066,-0.37123 -0.30156,0.53886 -0.30156,0.53886 -0.48679,-1.5337 -0.59098,1.5895 -0.56802,-1.0088 -2.0731004,0.09696 -0.22727,0.68181 1.7894004,1.4075 4.1606,-0.42605 z m 166.559997,0.24295 0.4,-0.49645 -0.005,-0.65884 -0.005,-0.65884 -0.5502,0.86833 -0.46144,-0.74663 -0.4391,0.57915 -0.43911,0.57915 -0.0102,-0.41888 -0.0102,-0.41889 -0.64,0.39554 v 1.1142 l 0.71799,0.71799 0.521,-0.17971 0.52101,-0.17971 z m -21.68,-0.05412 0.64,-0.64 v -0.71837 l -1.0088,0.83721 -0.27724,-0.44858 -0.27723,-0.44858 -0.33838,0.88999 -0.33837,0.88999 v 0.27834 h 0.96 z m 16.309,0.02104 0.33126,-0.61896 v -0.71985 l -0.64,0.39554 v -0.75614 l -0.96,0.79673 v -0.79673 l -0.90302,0.74944 -0.43842,-0.70938 -0.4391,0.57915 -0.43911,0.57915 -0.0416,-1.6 -1.2124,1.4537 -0.13461,-0.56686 -0.1346,-0.56686 0.063,1.28 2.24,1.119 2.3775,9.94e-4 z m -78.216997,-1.6253 0.18652,-1.1157 -0.97607,1.6 -0.09846,-0.64 0.07578,-0.48 h -0.64 l -0.04056,1.44 -0.61579,-1.54 -0.99589,1.22 0.35216,-1.12 h -0.55144 l -0.19424,0.50617 -0.19424,0.50617 v 0.90766 l 1.76,0.0098 0.96,0.60706 0.78571,-0.78543 z m -53.259,1.0942 0.56362,-0.51007 -0.35253,-0.91868 -0.86396,1.1388 -0.02036,-0.87836 -0.96,0.79673 v -1.1607 l -0.93965,1.2423 -0.01018,-0.43424 -0.01018,-0.43424 -0.91865,0.35252 -0.2439,-0.73169 -0.41026,1.0691 0.97852,0.97852 h 2.6239 z m 77.886997,-4.5061 5.12,-0.21406 -1.92,-0.52978 -7.4412,-1.2817 -116.3999974,0.16173 v 1.6 l 6.72,0.35472 108.7999974,0.12314 z m 13.271,-0.09131 0.47074,-0.2977 -0.45508,-0.45507 -8.8064,-1.5043 -11.2,-1.5613 -3.1005,-0.94974 -1.1954,-1.0818 -0.35525,-1.0764 -0.35526,-1.0764 0.72782,-1.295 0.72783,-1.295 1.5481,-0.38856 6.1626,0.36196 15.36,2.5447 3.36,0.44223 v -0.93826 l -2.72,-0.44373 -12.48,-1.8542 -8.5563,-1.3039 h -2.5833 l -2.0884,1.5929 -0.38312,1.1608 -0.38311,1.1608 0.32934,2.4554 1.2938,1.817 3.4405,1.0845 15.971,2.5262 4.48,0.60045 0.32,0.072 z m 13.129,-2.0542 7.84,-2.0515 1.12,-0.45532 v -0.48278 l -1.76,0.31331 -9.92,2.5692 -4.8161,1.0916 -2.5337,0.83621 0.63491,0.24489 0.6349,0.2449 0.96,-0.25906 z m 42.672,1.5711 0.18782,-0.48947 -0.17448,-0.4547 -0.17449,-0.4547 -4.5909,-0.27206 -33.6,0.11072 -4.48,1.0563 -1.44,0.34665 v 0.58796 l 44.084,0.05878 z m -55.792,-2.9883 v -1.8588 l 0.46982,-0.62116 0.46983,-0.62116 0.0102,-0.18908 0.0102,-0.18908 -3.36,-0.73664 -4.16,-0.59743 -11.377,-1.9678 h -4.7579 l -1.2401,1.3311 -0.16025,0.83826 -0.16024,0.83826 0.27407,0.72087 0.27408,0.72087 2.0342,1.0519 12.233,1.9077 8,1.1601 1.44,0.07095 z m 11.617,-0.04786 6.4634,-1.5867 2.56,-0.94151 -1.4778,-0.0451 0.39554,-0.64 -1.4778,-0.04498 1.28,-0.55004 -0.83777,-0.04498 0.39554,-0.64 h -0.71554 l 0.43784,-0.70844 -2.1601,0.38283 2.24,-0.92231 -2.88,0.34128 -0.96,0.31579 -8.2888,1.2414 -0.35222,0.5699 -2.239,0.64178 1.6042,0.05772 2.0881,-0.59887 -0.37012,0.59887 -1.0822,0.04918 -2.56,0.85982 2.818,-0.36648 -0.21267,0.34412 -0.21268,0.34412 -1.9584,0.43014 0.13108,0.13109 0.13109,0.13109 3.1436,-0.635 2.4782,-0.59833 -0.55825,0.48206 -4.0041,1.1708 0.27334,0.27334 3.6215,-0.75182 0.16901,0.16902 0.16902,0.16902 -3.4288,1.021 -1.6,0.9142 0.51328,0.02268 z m -123.219997,0.4141 -0.40199,-0.16207 0.33255,-0.53807 -5.5117,-0.20727 -0.16944,0.27578 -0.16944,0.27578 0.88199,0.55865 5.44,-0.04072 z m 46.002,-0.1074 -0.48,-0.3102 -4.3578,-0.0098 0.39554,0.64 4.9222,-0.0098 z m 34.254997,-0.56 0.0152,-0.88 -0.0197,-4.8 -0.0198,-4.8 -0.39914,-4.64 h -2.3902 l -0.23075,6.64 -0.23076,6.64 0.4444,2.3637 1.6956,0.2604 1.12,0.0959 z m -89.689997,-8.333 0.08517,-8.733 -5.2897,0.18605 0.20841,2.4 h -0.7674 l 0.71281,0.85889 -0.43415,0.43415 -0.09534,1.2941 0.50709,0.3134 -0.36052,0.9395 h 0.80766 l -1.1009,1.2165 0.73746,0.45577 -0.63252,0.63252 0.56858,1.9825 -0.79183,0.50292 0.75466,0.0098 -0.29095,3.04 -0.30605,1.4008 0.6144,0.37972 -0.16816,0.43822 -0.16816,0.43822 -1.1436004,0.29906 -0.41212,-6.7356 v -11.8 l -1.2728,-0.33284 0.35057,-0.56724 h -1.2308 l -0.40699,2.9693 v 16.444 l 0.44349,0.44349 8.9965004,-0.17682 z m 15.674,-0.92958 -0.10304,-3.4574 -9.5e-4,13.44 0.10352,-3.2626 0.10352,-3.2626 z m 10.083,8.5426 3.3967,-1.28 h 0.719 l -0.35402,-0.57281 -2.4038,0.54065 -4.48,1.6753 -0.93714,0.91686 h 0.66249 z m 41.518,0.78221 v -0.49779 l -8.3211,0.19558 5.61e-4,-0.56 5.6e-4,-0.56 h 8.3518 l -0.29834,-0.5331 -0.29834,-0.5331 0.28243,-0.98479 0.28244,-0.98479 v -0.80422 h -1.8743 l -0.96,0.96 h -3.5339 l -0.5118,-0.87616 -1.44,-0.44696 v 1.6431 h -0.56626 l -0.42355,3.39 0.41828,1.09 h 8.8915 z m 18.559997,-0.14221 v -0.64 h -3.199997 v 0.85333 l 0.42667,0.42667 h 2.773297 z m 61.897,0.35347 0.61661,-0.24155 -0.54414,-0.2088 -0.54413,-0.2088 -2.8649,0.39268 v 0.55301 l 2.72,-0.04498 z m 7.7034,-0.03347 0.64,-0.27502 -1.12,-0.04498 v -0.64 l 1.44,-0.04332 -1.44,-0.69449 v -0.49769 l 1.44,-0.27736 -6.56,-0.08716 -0.08,0.96 v 0.96 l 0.08,0.96 4.96,-0.04498 z m 4.5062,0 h 0.77383 v -37.78 l -0.91521,-0.3512 -2.2833,1.0835 -2.3052,3.1403 0.33476,0.87236 2.4489,0.57998 -0.24988,32.051 0.47462,0.76794 0.9476,-0.36363 z m -145.069997,-2.08 0.16926,2.24 -0.13322,-11.664 -0.13322,-11.664 -0.2996,-0.2996 -0.13704,13.067 -0.18296,-5.6 -0.18296,-5.6 -0.02528,10.88 -0.02528,10.88 0.78105,-4.48 z m 1.7618,-7.12 -0.10462,-3.12 v 12.48 l 0.10462,-3.12 0.10462,-3.12 z m 19.641,7.92 2.6469,-1.28 h 0.7808 l 2.7905,-1.1962 0.05137,-0.68192 0.05137,-0.68192 h -0.6687 l 0.39952,-1.0411 -0.68212,-0.8219 0.65797,-0.40665 -0.62689,-1.2503 -0.33084,-0.65302 -0.33084,-0.65302 0.37945,-0.61397 -0.25116,-0.4 -0.25116,-0.4 -0.05084,-1.9395 -0.48239,-0.78052 0.35072,-0.56748 -0.85046,-0.70582 0.1161,-1.9516 -0.54903,-0.33932 0.19277,-0.31191 0.19277,-0.31191 -0.81394,-0.98074 0.81251,-0.50216 -1.0857,-0.41664 0.79044,-0.95243 h -0.71837 v -1.2422 l -0.65044,-0.40199 0.41243,-0.66733 -0.88199,-0.56845 0.94206,-0.60557 -1.0706,-0.41083 0.08724,-1.1078 0.08724,-1.1078 -1.0059,-0.58851 0.87836,-0.0194 -0.80956,-0.97547 0.40125,-0.40125 -1.1101,-0.84293 0.8,-0.02036 v -0.64 h -1.0285 l 0.39952,-1.0411 -0.72941,-0.87888 h 0.47673 l -0.77346,-0.93196 0.41287,-0.66804 h -0.67777 v -1.2116 l -1.0123,-0.38847 h -2.0715 l -3.4762,1.0298 -2.6657,1.5592 -0.73532,0.886 2.035,7.565 0.86845,4.16 1.9217,7.04 2.9423,11.2 0.30914,1.2 0.30914,1.2 h 0.24772 z m 0.48716,-4.2217 -1.2336,-1.661 -0.30903,-0.80533 2.3743,-0.99206 h 0.88184 v 5.12 l -0.24,-3.41e-4 -0.24,-3.45e-4 z m -4.3387,-8.1783 -0.74053,-2.48 -1.7946,-6.5547 0.42747,-0.23858 4.2938,-1.3667 h 0.96151 l 0.61747,2.4 2.2872,8.8032 v 0.23381 l -4.7407,1.683 h -0.57107 z m -4.0239,-14.538 -0.15309,-0.42206 -0.98307,-2.8356 0.4924,-0.47022 5.1022,-1.6542 h 0.73342 l 1.0936,3.8974 -0.10461,0.06461 -0.10462,0.0646 -4.48,1.359 -1.4432,0.41845 z m 3.3529,-2.338 0.39498,-0.47592 -0.37002,-0.96426 -1.7816,0.7657 -0.17506,0.09882 0.40354,1.0516 h 1.1332 z m 141.939997,28.46 0.22449,-2.0963 -0.17919,-6.9437 -0.17919,-6.9437 -2.5051,-0.19218 -0.41454,3.9661 v 13.879 l 0.21333,0.21333 0.21334,0.21333 h 2.4024 z m -150.529997,0.84691 2.0497,-0.9294 3.829,-1.0921 0.58383,-0.54498 -2.8038,-0.44835 1.4604,-0.65166 -1.4804,-0.82148 1.44,-0.02268 v -0.64 l -1.76,-0.05772 2.08,-0.60058 v -0.3307 l -2.4,0.40289 -2.24,0.66066 -4.0711,1.9121 0.3927,2.4558 0.6226,1.6376 h 0.24732 z m 32.279,0.6094 0.8,-0.2562 -5.76,-0.054 0.96,0.6204 3.2,-0.054 z m 107.969997,0.12576 0.50617,-0.19424 v -0.90737 l -1.6417,-0.62416 h -0.1714 l 0.0834,1.1313 0.24373,0.39437 0.24374,0.39437 h 0.22989 z m -69.393,-3.4105 0.46989,-1.7994 0.197,-14.903 -0.51978,-6.66 -0.58185,-0.99626 -0.58184,-0.99626 h -1.5283 l -1.3114,2.24 -0.1175,10.303 -0.11749,10.303 1.1499,3.7148 0.88956,2.1765 1.5819,-1.5819 z m -82.900997,2.6448 0.64,-0.27502 -2.88,-0.04882 -5.28,-0.41102 v 0.69035 l 1.44,0.27736 5.44,0.04218 z m 29.76,-0.79197 1.6,-0.78374 -1.92,0.38571 -2.24,1.1617 0.96,0.02004 z m 6.0712,0.36202 -0.6312,-0.42996 -2.1755,-0.74009 h -0.6869 l 1.2624,0.86652 1.92,0.68295 0.9424,0.05052 z m 8.0088,-0.3816 -0.96,-0.43958 1.76,-0.02886 v -0.56536 l -1.44,-0.46404 1.92,-0.42817 -1.1723,-0.46244 h -5.3499 l -0.39554,0.64 3.3978,0.0098 -0.96,0.6204 -2.0422,0.0098 -0.39554,0.64 h 3.3444 l -0.36411,0.36411 -3.1026,0.52062 6.72,0.0233 z m 19.431,-3.7709 1.2713,-4.1024 -0.41663,-0.41663 -0.6056,0.94147 -0.4014,2.4 -0.7182,-0.0082 -4.1112,-1.2886 -0.45799,0.49685 -0.98236,3.52 -0.10425,0.75822 -0.10425,0.75822 3.52,1.1526 1.8393,-0.10904 z m 10.800997,3.9424 h 0.25959 l 0.18419,-0.48 0.18419,-0.48 h -3.179897 v 0.91549 l 1.439997,0.27465 0.85234,-0.23014 z m -74.642997,-0.92128 0.04529,-0.60128 -1.3944,-0.72554 2.08,0.21724 v -0.22978 l -1.44,-0.57881 1.1578,-0.04056 -0.39554,-0.64 h -1.28 l 0.39554,-0.64 1.4022,-0.02886 -1.92,-0.93811 1.44,0.26706 v -0.52676 l -1.76,-0.64281 1.6,-0.06032 -0.96,-0.6204 0.8,-0.0098 v -0.64 l -1.44,-0.07573 1.92,-0.46045 -1.92,-0.56426 2.24,-0.38338 -2.24,-0.67042 1.92,-0.52615 -1.6,-0.45582 1.7978,-0.0638 -0.39554,-0.64 h -1.2422 v -0.59307 l 1.12,-0.29269 -1.4778,-0.07424 0.39554,-0.64 0.70111,-0.01134 0.70112,-0.01133 -1.6,-0.91464 1.6,-0.09692 -1.28,-0.30788 -0.608,-0.57788 h 1.3713 l -0.13572,-0.70476 -0.13572,-0.70476 0.7882,-0.50068 -1.76,-0.0098 v -0.64 l 1.76,-0.0638 -1.6,-0.51241 1.1578,-0.0638 -0.39554,-0.64 -5.2422,0.0098 -0.70969,0.4702 -0.19873,2.88 -0.19873,2.88 -0.02126,4.96 -0.02125,4.96 0.01483,0.8688 0.01483,0.86881 6.56,0.20742 0.3438,0.13498 z m 153.719997,-1.0787 -0.26793,-0.72 h -1.3511 l -0.0502,-0.64 1.4744,-0.34806 0.1948,-1.0113 -1.59,-0.30395 -0.31165,0.19261 -0.31166,0.19261 -0.1174,2.8781 0.0594,0.48 h 2.5394 z m 3.2086,-0.4 0.04,-1.12 v -0.96 l -0.04,-0.2546 -0.04,-0.2546 -2.1918,-0.14762 -0.20281,0.32814 -0.2028,0.32815 2.2765,1.3432 -0.35682,0.57734 h -1.2422 v 0.26766 l -0.19424,0.50617 -0.19423,0.50617 h 2.3085 z m -81.699,-0.08 -0.10126,-0.88 -3.039997,-0.19506 v 1.5284 l 0.42667,0.42667 h 2.815797 z m -38.340997,0.24894 v -0.31106 l -3.5675,-1.0371 -0.31254,0.31254 3.72,1.2961 0.16,0.05052 z m 98.179997,-0.40991 0.10692,-0.56097 -1.0569,-0.40558 -0.9861,0.9861 0.45612,0.73801 1.3731,-0.1966 z m -14.395,-0.57594 3.735,-0.65691 7.9274,-1.5469 0.33924,-0.33924 -0.16405,-0.16404 -0.16404,-0.16404 -5.0586,0.9942 -10.8,1.8456 -0.34416,0.34417 -0.34417,0.34416 h 1.1379 z m -74.824997,-0.13558 -1.12,-0.43882 -4.8,-0.03996 -1.6,0.46712 2.88,0.34964 5.76,0.10084 z m -9.136,-0.14318 -0.304,-0.29567 -3.36,-1.2672 v 0.49692 l 3.04,1.3407 0.928,0.02088 z m 16.303,-0.53321 0.19527,-0.50888 -0.35985,-0.58224 h -1.2045 l -0.41287,0.66804 0.38673,0.46598 0.38673,0.46598 h 0.81316 z m -42.487,-0.5133 1.5607,-0.70218 5.7159,-1.6632 0.29041,-0.87123 -2.9823,0.40877 -3.664,1.2112 -3.04,1.4863 v 0.83247 h 0.55864 z m 104.759997,0.38218 -0.48,-0.3102 3.9537,-0.0098 5.0063,-0.66212 6.56,-1.3647 v -0.48223 l -4.2562,-0.4558 -6.4638,0.43403 -11.195,1.5708 -0.32467,0.0098 0.96,0.6204 2.9877,0.0098 1.0087,0.38706 -0.17704,0.28647 -0.17705,0.28647 3.0778,-0.0098 z m 18.726,-0.52933 1.2743,-0.84933 0.22236,-0.17702 -1.1824,-2.1051 -0.59257,-0.69182 -1.8074,0.26528 v -0.75041 l -0.74876,0.46276 0.20434,-0.53249 0.20433,-0.53249 h -0.98304 l 0.40498,-1.276 -0.53785,0.20639 -0.53786,0.20639 0.2185,-0.68841 0.21849,-0.68841 h -0.66304 l 0.36838,-0.96 h -0.7618 l 0.14342,-0.4 0.14343,-0.4 -0.64956,-1.2574 -0.40488,1.3712 -0.40487,1.3712 0.48298,1.4175 0.48297,1.4175 h 0.61761 l -0.19917,0.32226 -0.19916,0.32226 0.99688,0.38254 -0.15223,0.24632 -0.15224,0.24632 3.2258,0.30996 0.66591,0.6659 -0.18993,0.59221 -0.18993,0.59221 -1.9219,1.28 -0.002,0.48 h 1.1314 z m -87.685997,0.13632 -0.64,-0.37355 -5.5702,-0.2703 -1.7898,0.53873 4.48,0.38512 4.16,0.09356 z m 3.846,-1.1482 0.33646,-0.42123 2.6232,-0.35185 1.3543,1.3543 h 1.8731 l 1.0057,-2.0159 -0.73375,-0.88411 1.1259,-0.82331 -1.1048,-1.1048 1.0499,-1.1602 -0.98324,-0.81602 1.1029,-0.80649 -0.89469,-1.078 0.84084,-0.51967 -0.24629,-0.39851 -0.24629,-0.39851 -0.14656,-2.3145 0.61614,-0.39423 -0.85899,-1.3853 0.67877,-0.46047 -0.05214,-5.44 -0.54862,-0.87155 0.80399,-0.49689 -0.56199,-0.87155 v -1.28 l -2.0151,-0.1957 -2.3491,0.98151 -1.5035,-0.98516 -2.6954,0.19936 -1.18,4.48 -0.0084,2.7563 -0.0084,2.7563 0.61932,3.2656 0.12634,1.8509 0.12634,1.8509 -0.27255,-1.76 h -0.59949 l 1.1e-4,2.08 0.95989,5.0163 v 2.2829 l 1.4295,-1.2192 z m 94.374997,1.0714 -0.62116,-0.46982 1.7222,-0.02036 0.39554,-0.64 h -1.3178 v -0.64 h 1.28 v -0.64 h -1.28 v -0.64 h 1.28 v -0.64 h -1.28 v -0.64 h 1.28 v -0.5422 l -1.44,-0.69449 1.44,-0.04332 v -0.56536 l -1.44,-0.48494 1.76,-0.27221 v -0.59749 h -1.6 v -0.64 h 1.2422 l 0.39554,-0.64 h -1.6378 v -0.64 h 1.6 v -0.57062 l -1.76,-0.45832 1.44,-0.55044 v -0.58598 l -1.44,-0.46404 1.86,-0.41061 -0.90005,-0.71406 -0.96,-0.35541 1.44,-0.05052 v -0.26766 l -0.19424,-0.50617 -0.19423,-0.50617 h -1.0596 l -0.60077,0.8 -0.60078,0.8 -0.71035,-0.02496 -2.1003,-2.855 h -1.2597 v 16.64 h 5.8823 z M 61.519483,47.942939 v -0.29428 l -3.36,-1.0611 -0.8,-0.25025 v 0.56658 l 3.68,1.2828 0.48,0.05052 z m 38.079997,-0.20412 v -0.4984 l -2.670297,0.1968 -0.26307,0.8 h 2.933297 z m -28.872997,-0.64092 -0.17932,-0.17932 -4.388,-0.63571 -2.88,0.4999 4.48,0.38143 3.1467,0.11302 z m 60.992997,-1.1973 0.64367,-0.86213 -0.61428,-1.7467 -2.4537,-1.3764 -2.976,-0.42171 -7.68,-0.93026 -2.24,-0.38332 0.20274,0.20462 0.20275,0.20462 10.321,1.5448 2.714,0.71513 1.44,0.92266 v 1.4428 l -0.94878,1.3546 -6.2512,-0.2887 -7.04,-0.94231 -2.88,-0.59149 -2.88,-0.41554 0.35356,0.37049 0.35355,0.37049 4.4129,0.63334 7.04,1.0395 6.08,0.37207 1.5566,-0.35445 z m -104.199997,-14.724 -0.09633,-5.1797 2.21e-4,10.56 2.21e-4,10.56 0.19222,-10.761 z m 9.3537,14.769 3.0346,-1.011 0.85802,-0.85802 h 0.59429 v -0.64 l -1.44,-0.02268 1.4601,-0.81058 -0.44674,-0.44674 -1.6533,-0.02562 1.92,-1.0824 -2.56,-0.34499 1.9194,-0.51921 -1.5638,-0.83692 1.2444,-0.30718 -2.1956,-0.50683 1.5556,-0.65708 -1.7709,-0.24336 0.36862,-0.59644 h 1.3489 l -0.1971,-0.19709 -0.1971,-0.1971 -2.1125,-0.5003 2.1178,-0.06552 -0.39554,-0.64 -1.4022,-0.05052 0.96,-0.32018 0.96,-0.38574 -2.56,-0.40069 2.24,-0.70515 -1.6,-0.06752 -0.96,-0.6204 1.6,-0.0196 0.96,-0.66903 -2.24,0.4039 -3.2,0.99362 -3.04,1.2801 v 1.2493 l 2.5953,10.032 0.26457,0.8 h 0.4985 z m 63.046997,-9.069 v -9.76 h -3.199997 v 19.093 l 0.42667,0.42667 h 2.773297 z m -12.852997,8.2031 0.10709,-0.75691 -0.73727,-0.72618 -0.91692,1.2423 v 1.2022 l 1.44,-0.20451 z m 41.294997,0.67691 -0.0379,-0.24 0.0758,-0.8 1.12,-0.04498 -0.96,-0.43502 -0.16,-0.8 h 0.36207 l 0.61897,0.33126 0.61896,0.33126 v -0.66252 l -0.16,-0.0034 -7.68,-1.315 -5.7448,-0.94773 -5.2976,-0.20242 0.38916,0.4689 0.38915,0.4689 -1.2182,0.89074 h 1.0598 l 0.68504,-1.28 2.3775,0.04498 -1.2637,0.49379 1.9037,0.6907 -1.92,0.06032 0.96,0.6204 -1.568,0.0098 0.608,0.54554 5.12,1.0343 5.12,0.66073 2.56,0.21182 2.08,0.10758 z m -57.024997,-0.64 -0.55996,-0.56 -7.4972,-0.18656 -0.96,0.66655 0.96,0.6302 8.6171,0.0098 z m -11.097,-0.05844 v -0.29844 l -1.12,-0.30364 -1.8226,-0.4074 0.13676,0.41396 0.13676,0.41396 2.1891,0.39575 0.48,0.08426 z m 76.484997,-0.64556 0.005,-0.496 0.6204,0.96 0.01,-1.7077 -0.19424,-0.50617 -0.19423,-0.50617 h -2.1718 v 0.88 l 0.3744,1.872 h 1.5456 z m 15.995,0.0243 v -0.2797 l -1.6564,-2.9635 -0.58364,0.36071 v 2.3942 l 0.768,0.768 h 1.472 z m -82.677997,-1.0474 -0.59839,-0.34766 0.87367,-0.53996 -1.2769,-0.96492 1.6,-0.04304 -1.6,-0.92367 1.5189,-0.42892 -0.75944,-0.42102 -0.75944,-0.42103 1.44,-0.02268 v -0.58614 l -7.52,0.10614 -0.18804,4.64 1.148,-0.0098 -0.96,-0.6204 1.12,-0.0098 v 0.59945 l 2.08,0.25813 4.48,0.08296 z m 20.059,-0.30375 0.17544,-0.67086 -0.17164,-0.4473 -0.17164,-0.4473 -0.57294,0.3541 v -0.64 l 0.57294,-0.3541 0.4301,1.1163 0.27979,-0.49818 0.27979,-0.49818 2.8642,-9.8836 1.9055,-5.92 h -0.48657 l -1.4001,3.84 h -0.52516 l -2.4805,-0.89491 -1.7112,-0.67068 0.90355,-3.3944 -0.01649,-0.48 -0.01648,-0.48 -0.65046,1.6 -1.4657,5.76 -2.3382,8 -0.27518,0.64 0.03757,-2 0.03757,-2 h 0.53498 v -2.112 l 0.8,-0.799 0.31009,-14.529 0.36741,6.08 0.07752,-9.92 -0.55003,1.28 -0.1493,-2.24 -0.43136,3.52 -0.10595,-1.76 -0.10595,-1.76 -0.42482,3.84 -0.24907,-2.56 -0.35703,14.4 -0.13804,-8.48 -0.13804,-8.48 -0.37083,9.92 -0.13458,-9.76 h -0.56308 l -0.41398,4 -0.32806,21.44 1.066,5.2289 0.72588,-0.27855 4.4733,1.562 0.72536,0.04764 z m -30.021,-0.5806 -1.28,-0.56626 -1.92,-0.46756 0.64,0.65078 2.56,0.91991 1.28,0.0294 z m 117.489997,-0.80372 -0.19371,-0.50481 h -1.0002 l -0.18575,0.48408 -0.18576,0.48408 0.81662,0.98397 0.9425,-0.94249 z m 2.2885,-0.42808 0.10225,-0.71673 h -1.2867 l -0.41448,0.67065 0.18739,0.48833 0.18738,0.48833 1.1219,-0.21384 z m -119.469997,0.08479 -0.97006,-0.42628 -2.5399,-0.39216 2.88,1.2612 1.6,-0.0164 z m 77.784997,-0.94697 0.78545,-0.78546 -0.005,-0.89454 -0.005,-0.89455 -0.55228,-0.87168 -2.7979,-0.53134 -17.92,-0.30593 6.08,0.51733 8.64,0.12252 5.311,0.44141 0.29962,0.47385 0.29963,0.47385 0.01,1.6816 -0.93594,0.77676 -16.504,-0.4584 0.41398,0.44064 13.666,0.49994 2.4291,0.09942 z m -77.128997,0.15414 -0.19241,-0.31132 -4.2004,-1.2974 h -0.67925 l 0.18244,0.18244 0.18244,0.18244 4.3818,1.5176 0.51777,0.03754 z m 99.660997,-2.4631 0.3717,-2.1345 -0.37077,-1.5455 -0.37076,-1.5455 h -0.52314 l -0.34651,1.6158 -0.34652,1.6158 v 1.2393 l 0.77274,2.8892 h 0.44156 z m 17.876,1.2294 0.10225,-0.69494 h -0.96674 l -0.41448,0.67065 0.18852,0.49129 0.18853,0.49129 0.79966,-0.26335 z m -45.702,0.25061 -3.36,-0.22712 -6.72,-0.18562 14.08,-0.80141 -10.56,0.17664 1.92,-0.4723 8,-0.17062 -6.72,-0.47996 -11.426,-0.46952 1.1682,1.3644 0.97777,0.04498 -1.2375,0.48462 0.91752,0.5904 9.6,0.35947 6.72,0.0132 z m -71.855997,-0.26325 -0.304,-0.2777 -4.3967,-1.3133 0.55668,0.53761 3.84,1.3096 0.608,0.02144 z m 50.099997,-4.3099 -1.3105,-4.3395 -0.19708,-1.6641 -0.19709,-1.6641 1.1827,-0.86484 h 0.81275 l 1.2484,1.34 3.4165,10.005 0.1864,-1.2868 -2.3102,-6.6979 -1.3594,-2.88 -0.9969,-0.79687 -1.9156,0.15686 -0.41169,0.86331 -0.41168,0.86331 0.64007,3.1367 0.64008,3.1367 0.83878,2.3981 0.83877,2.3981 0.16265,0.26318 0.16266,0.26318 0.29068,-0.29068 z m 3.525,4.0964 0.40761,-0.49114 -0.78154,-3.4923 -1.5924,-4.9654 -0.63307,-1.3812 -0.63306,-1.3812 -1.0968,0.22558 0.172,3.7274 1.135,3.4047 1.135,3.4047 0.93278,1.44 h 0.54689 z m 26.546,-0.69102 0.005,-0.38216 -0.77278,-0.89784 -0.77277,-0.89784 -0.16669,0.16613 -0.16668,0.16612 0.17948,1.3381 0.17948,1.3381 1.04,0.22036 0.4702,-0.66884 z m 4.9082,0.6052 0.16796,0.41696 0.67892,-0.96 0.01,0.86847 0.96,-0.36839 0.0506,0.77991 0.34694,-0.87242 0.4639,0.7506 1.0566,-1.6126 -0.37035,-0.81282 -0.37034,-0.81282 h -4.6595 l -0.19441,0.31456 -0.1944,0.31456 0.42122,2.2453 0.56982,-0.35217 0.0102,0.41888 0.0102,0.41889 0.87501,-1.1539 z m 6.6167,-0.67687 v -0.61383 l -0.19424,-0.50617 -0.19423,-0.50617 h -0.89153 v 1.8667 l 0.8,0.32281 0.48,0.05052 z m -93.295997,-0.62364 -0.304,-0.27747 -3.154,-1.0451 -0.68599,0.0257 3.52,1.5486 0.928,0.0257 z m 44.015997,-0.52253 v -0.8 h -1.8416 l -0.77346,0.93196 0.20644,0.33402 0.20643,0.33402 h 2.2022 z m -35.889997,0.27606 4.2696,-0.1848 -0.62158,-0.62158 -7.3918,0.02662 -1.6459,0.41308 v 0.46395 l 1.12,0.08752 z m -53.454,-3.5561 -0.09597,-1.84 -4.16,-0.16504 -0.82268,0.53683 -0.37653,2.3203 0.37912,0.98796 h 5.172 z m 46.464,1.7078 v -0.13225 l -4.1338,-1.3355 h -0.77284 l 0.40211,0.40211 3.3846,1.153 1.12,0.04488 z m 8.8,-0.21113 0.64,-0.25605 -5.12,-0.03076 -0.96,0.63617 4.8,-0.0933 z m 33.573997,0.14914 0.50617,-0.19424 v -0.57153 h -2.24 v 0.53333 l 0.42667,0.42667 h 0.80099 z m 45.14,-0.17257 0.2063,-0.2068 -5.3966,-10.466 -1.8436,0.22331 -9.92,2.2133 -5.3762,1.5529 -0.1919,0.21622 -0.19191,0.21622 1.28,-0.43039 -1.6,1.2742 1.12,0.01845 1.12,0.01846 -1.5265,0.84611 0.69703,0.43079 1.7894,-0.3728 -1.92,1.1122 1.6,0.46405 -1.44,0.45162 v 0.56536 h 2.2778 l -0.39554,0.64 -1.4022,0.0194 1.177,0.68425 1.5236,-0.29126 -0.1692,0.27377 -0.1692,0.27377 -1.0822,0.07572 1.92,0.50456 17.708,-0.10028 z m 2.8845,-0.13601 0.63844,-0.48246 -0.81856,-0.5059 0.20508,-0.53442 0.20507,-0.53442 h -0.64855 l 0.1686,-0.64476 0.16861,-0.64476 -0.59856,0.22467 -0.59857,0.22467 0.87836,-1.0798 h -1.0183 l 0.36838,-0.96 h -0.63757 l -1.5109,1.28 1.4415,1.2238 -0.43024,1.1212 0.84958,-0.52507 -0.3609,1.3801 h 0.58008 v 0.96 l 0.48,-0.02036 z m -25.596,-2.2972 -1.1758,-2.16 -1.3068,-1.28 0.3639,1.9806 1.6006,3.6194 h 1.694 z m -64.058997,1.44 -0.25399,-0.4 -0.0098,-0.60367 -6.0174,-2.1372 -0.68517,0.22839 4.4625,1.6665 1.2116,0.38108 -0.38359,0.38359 -4.1972,-1.1361 -0.35169,0.35169 4.0409,1.3149 1.92,0.25498 0.51777,0.0959 z m -26.984,-1.8265 3.04,-0.99765 1.5938,-0.46907 0.10657,-0.55339 0.10657,-0.55339 h -1.5807 l -6.1533,2.171 -1.5929,1.0437 v 0.69986 l 1.44,-0.34346 z m 33.433,0.22651 0.44077,-1.04 1.2782,-1.073 -0.34703,-1.327 h -1.2054 v -1.3221 l -0.66252,-1.2379 h -0.85984 l -0.82629,1.9948 -1.5821,1.467 0.207,0.53944 0.207,0.53944 1.2768,0.33388 v 1.1596 l 1.0057,1.0057 h 0.62694 z m 35.754997,0.08 0.1409,-0.96 h -1.4368 l -1.0123,0.38847 v 1.5315 h 2.1674 z m 52.268,-2.7228 -0.19802,-1.3205 -3.4983,-3.4548 v 0.4637 l 3.6428,7.5144 0.12577,-0.94118 0.12578,-0.94118 z m -132.539997,2.519 1.4874,-0.20388 -0.7239,-0.87225 0.87836,-0.02268 -1.6,-0.91464 1.6,-0.02662 -1.8386,-0.9589 -4.5614,-0.32823 1.28,0.65238 -2.4,-0.1928 v 2.6448 l 0.42667,0.42667 h 3.964 z m 37.642,-0.39711 v -0.28098 l -3.68,-1.3299 -3.36,-0.95361 v 0.30134 l 1.76,0.72195 4.8,1.7864 0.48,0.03581 z m -25.2,-2.1106 1.84,-0.53381 v -0.54125 l -0.8,-0.32461 0.88456,-0.61876 -1.4491,-0.45993 0.88456,-0.56023 -1.9722,-0.0098 -4.3207,1.3562 -1.6335,1.405 1.0897,2.2963 3.6367,-1.4754 z m 25.024,0.81624 -0.304,-0.29537 -6.0048,-1.9693 -0.71525,0.0522 2.24,1.0007 4.16,1.4936 0.464,0.0068 0.464,0.0067 z m -53.9150004,-0.64359 0.33126,-0.61896 v -1.0407 l -2.4,0.19864 -0.19774,1.7105 1.4777,0.2823 0.45748,0.08716 z m 97.1239974,-3.301 0.21737,-3.92 -0.2103,-4.48 -3.36,-0.19344 0.004,7.2334 0.41102,5.28 h 2.7207 z m 64.807,3.6 -0.48,-0.3102 0.96,-0.0196 -0.96,-0.6204 -1.12,0.03723 -1.12,0.03722 2.24,0.4715 -2.56,0.12924 1.28,0.55004 2.24,0.03518 z m 18.32,0.0044 0.56,-0.0044 v -2.1715 l -1.0123,-0.38847 h -1.5477 v 2.9546 l 1.44,-0.3859 z m -172.749997,-0.27927 0.1699,-0.2749 -0.23889,-1.4051 -0.23888,-1.4051 -4.5427,-0.1864 -0.39281,1.4664 -0.0087,1.6533 0.42667,0.42667 h 4.6556 z m 136.609997,-1.7262 0.90466,-0.63756 -0.34466,-0.34465 -0.34465,-0.34466 -0.768,0.768 h -0.55513 l 0.40498,-1.276 -1.1618,0.4358 0.96,-1.1997 -1.1913,0.44709 0.1828,-0.47637 0.18281,-0.47637 -3.1651,1.7455 -0.005,0.41275 -0.005,0.41275 1.2956,2.5396 2.7044,-1.3686 z m -89.880997,1.0817 -0.304,-0.27944 -6.9613,-2.0265 -0.32749,0.32749 1.8488,0.70592 5.12,1.5179 0.928,0.03406 z m -0.3443,-1.3289 -0.3283,-0.3283 -6.8464,-1.9474 -1.105,0.23048 2.88,1.0137 3.2,1.0086 1.6,0.2641 0.928,0.08716 z m 60.679997,0.04734 v -0.28097 l -1.3361,-0.88714 2.7991,0.22262 1.577,-1.3123 -4.16,-0.11538 3.52,-0.39264 0.84169,-0.5368 -1.1009,-1.2165 -1.0208,-0.04056 1.6,-0.66664 -1.28,-0.52781 -1.354,-0.04498 -4.726,-2.3365 -3.6177,-3.7435 h 0.50999 l 1.8577,1.76 0.93001,1.3131 4.16,2.3057 3.9435,0.7734 0.42823,-0.16036 0.42824,-0.16036 -2.4,-1.04 v -0.56139 l 2.4,-0.39 3.0296,-0.40044 1.5035,0.98516 2.0269,0.31944 v -0.53772 l -1.6863,-1.3265 h -1.5137 v -0.59532 l 1.76,0.50594 2.24,1.367 1.12,0.0024 -0.0354,-0.48 -1.7683,-1.3923 -3.8887,-1.0077 -5.0276,-0.0098 -0.86168,-0.54609 2.0855,-0.727 0.16144,0.16144 0.16145,0.16144 h -0.74668 v 0.64 l 4.32,0.01 3.6662,0.86277 0.72691,0.52582 0.7269,0.52582 1.3105,0.94432 2.7176,-0.46874 0.1318,-0.60202 -2.9294,-1.5075 -5.0706,-0.78378 0.0758,-0.63336 0.0758,-0.63336 0.20091,-1.2146 0.20092,-1.2146 -2.0491,-4.1621999 -2.3502,-2.4705 -2.5542,-0.39857 -3.2,-1.5751 -6.08,-1.954 -4.8,-0.33435 -1.0152,0.64224 -1.0152,0.64224 0.3779,1.4796 2.8045,2.9432 0.96436,1.3768 h 2.6019 l 5.2018,5.0588999 2.6944,1.3924 1.2484,-0.39622 1.118,-1.735 0.42971,-0.25593 0.42963,-0.2559 v -0.80585 l -2.251,-3.7380999 0.23588,-0.23587 1.6482,2.4115999 1.0824,2.3099 -2.9604,3.0896 -3.8107,0.27564 -2.837,-1.6626 -1.7523,-2.0926 -1.6752,-1.1158 -1.6699,-0.0042 -3.598,1.92 h -1.262 l -1.607,-0.73218 -5.3032,1.0527 -2.506697,-4.97e-4 0.2819,-0.2819 5.104797,-0.69748 3.2,-0.56681 0.71056,0.90619 h 1.1127 l 1.0636,-0.50473 1.0636,-0.50473 0.50472,-1.0636 0.50473,-1.0636 -0.0119,-0.7516399 -0.0119,-0.75164 -3.4961,-3.7686 0.002,-0.67571 0.002,-0.67571 2.1152,-1.44 h 4.2338 l 8.5266,2.6595 0.50225,0.42759 0.50224,0.42759 3.412,0.64708 0.96093,0.7975 2.5366,3.4336999 0.6316,1.797 0.63159,1.797 -0.37081,1.2377 -0.37082,1.2377 0.10218,0.06772 0.10218,0.06773 4.777,0.78369 1.783,0.93855 0.97224,0.50954 0.97223,0.50954 1.0314,-0.39578 -0.74372,-0.79165 -0.74371,-0.79165 h 0.65237 l 1.1584,1.28 h 1.8208 v -0.64 h -1.0047 l -2.69,-1.8507 -1.3327,-1.4458 -1.3326,-1.4458 -1.6764,-3.3083 0.75476,-0.9094399 1.0416,-0.02036 0.61365,-0.46433 0.61366,-0.46433 -3.4283,0.14902 -0.57148,-1.92 -3.4676,-1.3571 v 0.36208 l 0.83524,0.8718 0.83523,0.8718 -0.26824,0.80473 -1.4135,-2.2871 -1.521,-0.99661 -3.905,-1.3155 -9.635,-1.9141 h -6.3931 l -2.5345,1.293 v 1.53 l 0.69103,1.8058 0.69102,1.8058 -1.0704,2.2446999 -3.3516,1.5182 -5.006297,0.6826 h -4.2204 l 0.37249,0.37249 3.0942,0.85028 -1.3846,0.05722 -8.4186,-3.2192 -2.463,-1.5547999 -0.2269,-0.36713 -0.22663,-0.36714 -0.5502,0.86833 -0.0098,-1.2972 2.56,-3.407 v -1.1165 l -1.2195,-1.1036 -3.0422,-0.91558 h -4.0164 l -4.3758,0.92047 -5.7461,1.6909 -3.52,0.92627 -4.16,1.3464 -8.32,3.3744 -8,3.6338999 -6.72,2.747 -3.36,1.092 v 0.32862 l 3.36,-0.45037 7.04,-2.764 4.48,-2.2115 1.6,-0.47121 -6.3892,6.1145 0.4487,0.4487 1.819,-0.75346 4.1839,-4.6196 3.4576,-2.6247999 1.92,-0.68311 4.4233,-1.6486 0.12238,0.12238 0.12238,0.12238 -6.908,2.7076999 -4.0013,3.2437 -2.5193,3.2332 0.13836,0.13836 0.13836,0.13836 1.1475,-1.0385 1.4164,0.3704 v -0.78312 l -0.96,0.36839 v -0.55144 l 0.97947,-0.37586 0.72326,1.5874 h 0.49082 l 1.3711,-1.743 0.3569,-1.7845 4.2385,-2.9722 4.16,-1.7660999 1.12,-0.35412 v -0.98009 l -1.44,-0.014 2.6342,-1.1963 1.0829,-0.23385 1.0829,-0.2339 7.9824,-2.482 0.6576,0.04997 -4.16,1.5001 1.92,0.11376 -1.5963,0.44418 2.7962,1.1188 2.2107,-0.35134 1.3894,-0.67075 -1.2633,1.0107 -2.4576,0.39299 1.8009,1.2113 2.24,-0.31871 -0.80399,0.35377 0.33814,0.54711 2.0659,-0.69464 0.8,-0.6255 v -1.0838 l 2.6157,-1.4701 -0.53573,-0.53514 -4.48,-0.24212 5.12,0.049531 v 0.94677 l -2.032,1.2932 -0.18862,0.71418 -0.18863,0.71418 -1.9843,1.0261 0.74288,0.74289 2.5862,-1.4884 0.26346,0.26346 -1.599,0.85578 v 0.48872 l 1.44,0.47006 3.3057,0.1105199 2.0168,1.697 3.6374,1.0325 0.96,1.1329 1.7006,0.39736 3.03,1.2988 -0.14197,0.14197 -0.14197,0.14197 -3.8066,-1.5648 -1.12,-0.0152 v 1.2346 l 3.36,0.97774 2.2043,1.6277 h 0.22466 l -0.42023,-2.24 h 1.6113 l -0.31378,-1.1999 6.725797,-0.45843 1.3279,0.42145 v 1.5569 l 3.04,0.04498 1.28,0.58259 -2.9768,-0.37076 -1.3432,0.42632 v 2.1847 l 1.44,0.29073 2.5579,0.34685 0.71266,0.97461 1.5294,0.05772 -2.08,0.60058 v 1.9017 h 0.768 l -0.768,0.768 v 1.5015 l 2.72,-0.11218 1.76,0.47207 -5.3e-4,-0.27469 -5.2e-4,-0.27469 -1.2754,-1.2 -1.2754,-1.2 h 0.73518 l 3.5078,3.8293 1.6043,-0.40265 -0.23136,0.37435 -0.23137,0.37435 3.4073,1.5478 1.44,0.03686 z m -2.72,-4.9826 -0.96,-0.43854 -2.9684,-2.1379 -4.5465,-3.4718 0.13027,-0.13026 0.13026,-0.13026 5.5627,4.2937 4.2415,2.4786 -0.62984,-0.02506 z m 1.1278,-4.8494 -1.7522,-0.47087 -2.6562,-1.5567 -3.7731,-3.1527 -2.7062,1.5982 v 0.57501 l 1.76,0.0638 1.6,0.54379 -3.2,-0.34138 -1.1552,-0.32051 0.21866,-0.65597 3.4376,-1.8182 1.019,0.57403 2.24,1.9954 2.7433,1.9259 2.6967,0.9162 5.76,0.5505 -4.48,0.04438 z m 16.844,-1.9419 -0.21486,-0.21485 -3.997,-0.72141 -0.42964,-5.0889 -0.69036,-1.8016999 0.025,-0.75834 0.45727,1.0525 0.45726,1.0524999 0.40196,2.5545 0.40195,2.5545 2.2565,0.59057 1.766,0.42636 0.17586,0.28455 0.17586,0.28455 h -0.5711 z m -11.016,-0.60605 0.87594,-0.47528 0.20704,-0.87191 0.20705,-0.87191 0.94989,-1.0942 -0.42234,-1.6828 -1.5346,-1.5345999 -1.5346,-1.5346 -2.1042,-0.46215 -0.22103,0.35763 -0.22102,0.35763 -1.5096,-1.6068 h 0.6354 l 3.2114,0.95369 2.6219,1.8993 1.6921,2.8873999 -0.19685,0.62023 -0.19685,0.62023 -0.93564,0.35904 v 1.5744 l -1.0057,1.0057 -1.3943,-0.02562 z m -5.6759,-2.8286 -0.96,-0.41917 -4.9759,-4.8912999 -0.78409,-0.06484 -2.04,0.11044 -1.0764,-2.1256 -0.81343,-0.66704 -0.81342,-0.66704 0.25489,-0.41241 0.25488,-0.41241 3.0409,0.36015 3.2233,1.9833 1.6098,-0.40404 5.7791,5.5709999 0.20309,0.6399 0.2031,0.6399 -0.86578,0.81995 -1.28,0.35838 z m 2.063,-0.65006 0.38139,-0.45954 -0.63962,-1.1609 -4.768,-4.7076999 -1.9766,0.43412 -2.4202,-1.9136 -2.7241,-0.79539 -0.39532,0.39533 2.2171,3.0672 1.9513,-0.19144 3.751,3.1473999 1.6,1.7656 1.92,0.85335 0.72164,0.02506 z m -15.279,-0.56446 -0.384,-0.384 v -1.0454 l 2.2207,-2.5065999 0.32475,0.48 0.32474,0.48 0.005,1.1631999 0.005,1.1632 -1.5775,1.0336 h -0.53452 z m 1.6731,-0.75886 0.50286,-0.50286 V 8.8767341 h -0.59642 l -1.3236,1.8587999 v 1.0212 h 0.91429 z M 81.671783,6.1552941 v -0.14558 l 2.72,-1.379 0.4702,-0.71403 0.0098,-0.45956 -1.76,-0.95482 1.0208,-0.02562 1.1102,1.2268 -0.70568,1.3186 -1.2222,0.65413 -0.82154,0.31235 -0.82154,0.31234 z m 48.639997,20.6289999 3.04,-0.67998 11.2,-2.5928 0.96,-0.58573 -1.28,0.33975 -3.2,0.61825 -12.8,3.0037 -4.64,1.0095 v 0.44167 l 3.68,-0.87432 z m 35.374,1.3671 0.3338,-0.2351 1.8924,-3.0389 0.48,-0.0011 v 0.64 l 1.28,1.28 h 0.64 v -0.64 h -0.92223 l -0.46276,-0.74876 0.52225,0.2004 0.52224,0.2004 0.16665,-0.26964 0.16665,-0.26964 -1.4328,-0.44974 1.568,-0.44431 -2.4045,-1.4187 h -2.4933 l -0.81505,0.37136 -0.81506,0.37136 v 3.6916 l 0.50286,0.50286 0.50285,0.50286 0.43429,-0.0098 z m -141.789997,-0.54492 -0.62116,-0.46982 1.6,-0.04303 -1.6,-0.91464 1.6,-0.04536 -1.6,-0.91464 1.28,-0.03248 -0.96,-0.6204 0.96,-0.08552 -1.92,-0.48856 -4.64,-0.07572 v 3.7333 l 0.42667,0.42667 h 6.0957 z m 6.0571,0.21731 0.15606,-0.25251 5.9657,-1.8104 1.44,-0.55083 v -0.74326 l -3.4363,0.35466 -5.021,2.0105 -0.82263,0.68272 v 0.56164 h 1.5622 z m 125.729997,-0.73431 -0.17421,-0.66618 -3.7136,-2.9716 0.1265,-0.1265 0.12651,-0.1265 3.3891,2.7048 0.1056,-1.0651 0.10561,-1.0651 -0.26561,-0.0898 -0.2656,-0.0898 -1.1064,-0.67444 -1.1064,-0.67444 0.62644,-0.47202 0.62645,-0.47202 4.6736,0.40518 3.8339,-1.3612 4.4541,0.21144 -0.10272,-0.30578 -0.10273,-0.30578 -4.4362,-0.81562 -3.52,-0.39081 -5.3543,1.7093 -4.087,-0.21132 6.7e-4,0.2706 6.7e-4,0.2706 1.4074,1.9765 0.0475,0.64473 0.0475,0.64473 4.4092,3.9769 0.42831,-0.26471 z m -63.114997,-0.69318 0.64084,-1.04 -0.1711,-1.28 -1.3782,-0.19642 -1.0218,1.4588 v 2.0976 h 1.2894 z m 67.320997,0.35559 1.7885,-0.68441 v -0.54184 l -3.3358,1.3148 -0.98424,0.57637 0.74305,0.0194 z m -152.6399974,-0.54515 0.15512,-0.53044 0.42183,-2.56 1.2123004,-4.7605 v -1.1595 H 7.4529326 l -1.0409,1.5885 -1.1938,6.8915 -0.010058,0.53654 -0.010058,0.53654 1.12,0.24881 0.77564,-0.26101 z m 51.7090004,0.47106 v -0.11851 l -4.8475,-1.7209 -1.7125,0.22255 2.56,0.84185 2.88,0.85032 1.12,0.0432 z m 87.710997,-0.75049 0.92937,-0.549 v -0.48192 l -1.12,0.41974 0.96,-1.1997 -1.1913,0.44709 0.18559,-0.48363 0.18558,-0.48363 -0.77991,0.02268 -1.6,0.91464 1.1984,0.02268 -0.79672,0.96 h 1.1068 l -0.36838,0.96 h 0.36116 z m 13.42,-0.2564 1.5894,-0.80539 v -0.29988 l -3.3358,1.3148 -0.98424,0.57637 1.1413,0.0194 z m 18.171,-0.06195 -0.10126,-0.86734 -1.5526,-0.36296 -0.12344,-0.37033 -0.12345,-0.37033 1.9374,0.05508 -0.14545,0.23536 -0.14546,0.23536 0.89529,0.74303 0.85766,-1.1743 0.90619,-0.06669 0.9062,-0.06668 -0.13126,0.39858 -0.13126,0.39858 -1.3913,0.2047 -0.34895,0.65201 -0.34894,0.65201 0.57929,0.57929 2.04,-0.408 v -4.08 h -2.56 v 1.6 h -0.64 v -1.28 h -2.88 v 4.16 h 2.6025 z m 8.8107,0.6251 0.14971,-0.24225 -2.1045,-8.7318 -0.21744,-0.35184 -0.21745,-0.35184 -1.0822,0.0098 -0.41177,0.26126 -0.41178,0.26126 0.97178,4.5844 0.97177,4.5844 v 0.21887 h 2.2022 z m -152.009997,-2.171 1.2239,-0.22691 -0.5278,-0.51056 -1.92,-0.24118 2.24,-0.70108 -2.1956,-0.49011 1.5556,-0.65708 -1.92,-0.25989 1.92,-0.84793 -2.208,-0.05198 0.608,-0.57788 1.28,-0.35864 -2.9885,0.2121 -4.2115,1.9708 v 1.6021 l 0.6765,3.1544 5.2435,-1.7893 z m 64.212997,1.7817 0.47732,-0.30178 -0.35376,-0.35376 -0.35376,-0.35376 -2.123597,0.55028 -0.12843,0.3853 -0.12843,0.3853 2.133297,-0.0098 z m -84.053997,-2.0013 0.69678,-0.55288 -1.024,-0.0142 -2.7933,2.0235 1.2573,0.48036 1.1664,-1.3838 z m 0.46557,1.4947 0.7112,-0.49814 v -0.60371 h -1.152 l -0.768,0.768 v 0.832 h 0.4976 z m 42.631,-0.3677 -1.12,-0.49363 -4.158,-1.2005 -0.96204,0.01946 1.1395,0.66325 4.9405,1.5151 1.28,-0.01 z m 2.3526,-0.65416 -0.16716,-1.2 -0.23759,-0.77978 -2.4084,-1.0063 -1.1925,0.18608 3.6268,4 h 0.54606 z m 99.606997,0.39586 1.8183,-0.80414 -0.3242,-0.3242 -4.0942,1.8851 0.78175,0.04742 z m -92.055997,0.16767 3.664,-0.0035 -0.69376,-0.69376 -8.7977,0.06754 -0.56703,0.35044 0.4118,0.66631 2.3186,-0.38352 z m 61.394997,8.48e-4 0.41888,-0.0044 -0.39554,-0.64 h 0.69833 l 2.3794,1.0044 3.7628,-0.78943 -3.4428,-1.0443 3.52,-0.04786 -1.28,0.51219 0.96,-0.0188 1.6,-0.46016 -2.56,-0.50825 1.6,-0.60774 2.24,0.43646 -1.28,0.5185 0.96,-0.0188 1.6,-0.51241 -1.28,-0.12758 1.6,-0.55367 -2.72,0.35372 v -0.30732 l 4.5103,-1.1053 -0.27084,-0.27084 -10.159,2.5609 -3.2,0.6949 -2.56,0.7111 1.6,0.49064 1.28,-0.2616 z m -116.259997,-0.96437 1.3953,-0.96 h 0.66217 l 0.59896,-1.12 -4.4164,-0.0758 v 0.5558 h 1.2267 l 0.14343,0.4 0.14342,0.4 -0.57604,1.12 h -0.93748 v 0.64 h 0.36469 z m 82.72,-0.62112 v -0.62111 l -0.64,-0.39554 v -1.2336 l -2.2559,-0.94257 -2.1552,-0.40433 -0.77266,2.3412 0.42874,0.43712 3.955,1.39 0.72,0.02498 0.72,0.02499 z m 34.158997,-0.37706 4.0814,-0.99817 0.16,-0.16557 0.16,-0.16557 -1.6,0.32908 -6.4,1.4227 -0.96,0.55624 0.4773,0.0194 z m 30.467,0.04403 2.3138,-0.95414 4.1363,-0.42378 -0.67942,-0.67942 -3.4317,0.08034 -4.3459,1.0899 -4.3256,-0.3095 -0.76166,0.47073 0.5532,0.3419 2.4462,0.45891 0.16868,0.43959 0.16869,0.43959 h 1.4435 z m -104.139997,0.31835 -0.19517,-0.3158 -3.5001,-1.0175 -0.78731,0.26244 3.84,1.3361 0.83777,0.05052 z m 11.482,-0.34449 1.9553,-0.02028 -1.6,-0.686 1.5935,-0.42076 -0.86188,-0.53267 0.85292,-0.52714 -1.5478,-0.57257 1.8832,-0.51218 -1.6,-0.48432 1.12,-0.0638 v -0.59307 l -1.12,-0.29269 1.6,-0.08404 -0.96,-0.6204 -5.12,-0.0011 -1.44,0.3859 v 4.9387 l 0.48,0.48777 2.8093,-0.3811 z m 10.366,0.10551 -1.5093,-0.11942 -3.3815,0.2358 6.4,0.003 z m -53.59,-0.35923 0.58088,-0.22902 -1.1681,-1.0571 -6.5537,-0.45138 v 1.0515 l 0.16,0.48 1.7017,-0.19314 0.41602,0.67314 4.2822,-0.04498 z m 74.871997,-0.366 0.16736,-0.64 h -2.820097 v 1.28 h 2.485397 z m -38.477997,-0.93259 -0.35719,-0.66741 h -0.6067 l -1.6216,-3.2 h 0.65078 v 0.93773 l 1.9845,2.2602 0.57552,-0.35569 v -1.5622 h -0.56236 l -0.68788,-1.76 -0.18976,-1.5597 -1.12,1.1254 v -0.71548 l 1.916,-1.0902 0.004,-1.12 h -2.1408 l -0.98202,1.12 -1.1075,2.1842 0.33606,2.5055 1.0806,1.194 1.7873,0.39255 1.1291,1.2476 0.26911,-0.26911 z m 17.505,0.69738 -1.52,-0.11985 -3.04,0.23971 h 6.08 z m -22.96,-0.26112 v -0.17633 l -2.2194,-0.92734 -2.1006,0.06274 3.52,1.1545 0.8,0.06274 z m 73.599997,-0.14857 0.48,-0.3151 -0.96,-0.64566 -1.5069,-0.40051 -3.4986,0.8393 1.4855,0.82419 3.52,0.0128 z m -113.209997,-0.8628 0.55245,-0.49784 -0.34268,-0.55447 h -4.0439 l -0.74944,0.90302 0.72122,0.44574 1.7099,0.52916 1.6,-0.32778 z m 126.009997,-0.71689 3.36,-0.70671 2.24,0.34354 -1.1659,-0.66975 -3.7206,0.43182 -5.6735,1.5399 1.6,-0.2321 z m -63.428997,0.38981 -1.5093,-0.11942 -3.3815,0.2358 6.4,0.003 z m 21.188997,-1.5252 v -1.76 h -2.879997 v 3.52 h 2.879997 z m -75.936997,1.2161 -0.57699,-0.14962 0.75235,-0.90653 -0.87836,-0.04498 1.28,-0.55004 -1.12,-0.04498 v -0.64 l 1.12,-0.0638 -1.6,-0.51241 1.44,-0.0638 v -0.64 h -4.8268 l -1.1585,1.12 -0.17354,0.70513 -0.17354,0.70513 0.7323,0.96706 4.16,0.21937 1.6,0.04908 z m 30.28,-0.12102 -0.34488,-0.34488 -2.2862,-0.51562 -0.40965,0.40538 2.4576,0.75082 0.928,0.04918 z m 2.7881,-0.27409 -0.33126,-0.61896 v -2.6654 l 1.0412,-2.1941 1.6051,-1.2626 h 2.4737 V 9.9146421 l -0.85985,-0.71361 -3.4025,1.0103999 -4.1389,2.7766 -2.5287,4.6602 1.1323,0.82798 h 0.5809 l 1.8568,-1.9877 v -0.81395 l 0.96,-0.79673 v 0.48193 l -2.284,3.1791 0.40097,0.40097 3.323,1.4006 0.25126,0.02788 0.25126,0.02789 z m -0.81126,-6.3986 0.96,-1.0883 2.1627,-1.9741 1.5739,-0.8500899 0.32289,0.32289 -2.1209,1.0967999 -3.8586,3.5811 z m 99.839997,5.8627 1.28,-0.55167 5.44,-0.02486 3.84,0.47597 -7.4656,-2.2333 -2.3045,-0.96288 -2.1285,1.8689 -1.6417,0.62416 -3.9245,0.44401 0.11614,0.34844 0.11615,0.34844 1.5526,0.47326 3.84,-0.25882 z m -60.219997,-0.04512 -0.19963,-0.56 -0.65404,-0.8422 -1.9666,-1.0258 -2.4138,-0.44859 -0.17236,0.27889 -0.17236,0.27889 1.5771,0.5996 1.3524,1.4516 1.7491,0.77559 1.0999,0.05198 z m 82.619997,-0.24439 v -0.63562 h -0.96 l -0.10599,0.74847 -0.10598,0.74847 1.172,-0.2257 z m -133.919997,-3.0356 3.1423,-3.2 h -0.59655 l -4.9458,2.4757 -1.6,0.47546 -1.92,0.84646 -2.88,0.9718 1.929,0.03056 3.511,-1.2888 2.08,-0.57957 v 0.47052 l -2.9979,2.9979 h 1.1355 z m 35.52,2.72 v -0.48 l -6.24,0.08425 2.24,0.44486 -2.24,0.32846 6.24,0.10242 z m -38.904,-0.9914 1.5079,-1.1514 -0.15952,-0.15952 -0.15952,-0.15952 -4.3648,1.7348 -0.30146,0.28184 0.94146,0.5954 1.028,0.0098 z m 103.539997,0.2604 v -0.251 l -1.771,-1.0462 -3.1354,-2.7718 -2.6136,-1.3271 -0.0974,-0.65953 -0.0974,-0.65953 1.7211,-1.3538999 h 0.87369 v -0.56236 l -1.956,-0.81019 -3.164,1.4819 v 0.5560999 l 0.68562,1.3473 0.68561,1.3473 1.2463,1.4185 1.2463,1.4186 2.2946,1.5592 1.6817,0.50869 2.4,0.05501 z m 10.273,-0.89184 1.2712,-0.88096 -0.50419,-0.48576 -3.9798,-1.3304 h -1.0229 l -2.0373,-1.4754 -5.12,-1.9953 -0.94917,-0.25897 -0.42424,0.81774 -0.42425,0.81774 2.1177,1.8568 -2.24,-1.6112 V 9.9964421 l -2.3764,0.0709 -1.6628,1.0895 0.1992,1.3996 2.0145,0.65118 3.1649,2.9604 2.0211,1.0451 2.3996,0.91282 6.2818,-0.23138 z m -8.673,-0.3424 -1.12,-0.53136 2.56,-0.50651 3.2,-0.02708 0.85419,0.54146 -3.2195,-0.30935 -1.7947,0.47142 1.28,0.52168 3.52,0.04104 1.8552,-0.9675 0.17106,0.17106 0.17105,0.17106 -0.7886,0.78933 -5.5687,0.1661 z m -64.674997,-0.0057 0.38774,-0.851 -0.7916,-0.48923 0.91885,-1.1129 -0.82671,-0.27816 0.76759,-0.92489 -0.35546,-0.35546 -0.35546,-0.35546 0.30909,-0.57755 0.30909,-0.57755 -2.6756,-0.72046 -4.2126,0.39455 -1.6746,0.33114 -0.21473,2.6464 -0.21473,2.6464 0.41253,1.075 h 7.8288 z m 22.056997,-0.669 0.10225,-0.72 -1.8045,0.0098 -0.82168,0.52137 0.21169,0.55164 0.21168,0.55164 1.9983,-0.19446 z m -31.992997,0.0592 0.10974,-0.09201 -2.0782,-1.0747 -5.1813,0.43356 -2.1922,0.45037 -0.1278,0.38339 -0.1278,0.3834 9.4877,-0.39207 z m 48.049997,-0.39081 -0.8,-0.53804 -5.5474,-5.2903999 h -2.5099 l -0.3645,0.7999999 -0.36451,0.8 h 2.8726 l 4.782,4.434 1.4516,0.27888 1.28,0.05358 z m -49.599997,-1.9884 -0.48,-0.3102 h -4.8 l -0.96,0.6204 h 6.72 z m 2.4738,-4.2496999 -0.12202,-1.3503 0.0036,5.7599999 0.12025,-1.5297 0.12025,-1.5297 z m -2.475,3.2096999 0.0012,-0.24 -5.28,0.0098 -0.73999,0.4702 h 6.0176 z m -0.33646,-0.89773 -0.46233,-0.29251 -4.5177,-0.0098 -1.098,0.8 6.5404,-0.20518 z m -3.8223,-1.1006 1.12,-0.20195 2.72,0.61217 v -0.48104 l -2.72,-0.6540699 3.52,-0.13458 -2.24,-0.64965 -4.3658,0.3052 -0.64983,0.6498299 3.0957,-0.2343399 -2.5489,0.6476299 -0.65106,0.70168 1.6,-0.35893 z m 4.4533,-1.8858999 -0.13333,-0.12418 -4.48,-0.37605 1.28,0.57942 3.4667,0.04498 z m -2.9072,-0.84555 3.0938,-0.00973 -1.1992,-0.69664 -5.3748,0.28211 -0.786,0.84819 1.1723,-0.41419 z m 0.05383,-1.1853 2.4,-0.1889 -1.92,-0.54339 -3.3341,0.39778 -1.1459,0.93699 1.6,-0.41359 z"
     style="fill:#000000" />
</svg>
