<?xml version="1.0" encoding="UTF-8"?>
<!-- Created with Inkscape (http://www.inkscape.org/) -->
<svg version="1.1" viewBox="0 0 1144 917.33" xmlns="http://www.w3.org/2000/svg">
 <path d="m100.43 915.2c2.7893-25.872 25.569-44.057 41.951-63.215-.82945-22.108-28.415-10.837-42.776-13.692-24-1.4581-49.617 2.4958-72.63-2.2631.0079-17.43 3.1936-36.944-14.347-47.491-18.956-10.942-16.398-42.882 7.3203-44.954 7.2968-30.106 14.936-63.641 24.904-95.182 9.2591-38.647 19.756-76.959 29.888-115.37-8.2589-17.03 3.9215-31.088 9.952-45.406 5.356-26.471 20.082-52.791 12.585-79.953-.83282-17.14 18.327-19.485 17.307-37.682 9.2306-15.85 1.7199-30.903 3.7249-46.077 2.7995-15.676 33.499-5.2232 21.776-25.592-16.612-25.847 18.855-56.168.13188-80.636-19.78-7.4411 3.8398-23.533 9.3805-31.695-.50423-18.187 6.6572-41.711-8.6537-55.215 2.047-20.866-3.9833-47.216 10.578-63.714 16.635-6.5588 12.533-21.054 5.6244-32.804-.69744-11.986 4.0044-37.118 19.509-32.395 7.2031 10.209 16.651 29.008 9.2272 40.958-14.896 15.127 11.157 23.926 8.9232 39.564 1.3621 17.823-1.4418 38.702 2.4293 54.685 12.755 13.751 31.472-1.7551 47.428-2.5809 62.036-19.476 124.63-35.94 186.86-54.782 14.824-4.5826 31.226-11.828 35.001 9.6032 7.9595 10.504 9.5813 29.456 24.074 26.99 10.07 10.488 33.931-11.718 36.431 2.854 1.5456 26.377 21.584 43.118 41.948 55.169 16.323 9.3117 20.706-11.547 28.133-21.211 11.51 11.276 24.153 10.769 36.892 16.24 18.551 8.5666 19.922-1.5044 24.985-17.932 11.767-16.97 34.389-23.941 54.453-26.096 6.6434 10.28 1.09 28.386 15.248 35.669 5.4186 14.425-4.3599 30.923-4.7061 45.704-9.7885 14.272-11.218 26.721 10.221 29.838 18.821 7.2272 23.396-8.895 19.156-24.278-2.3086-17.164 9.5602-28.288 21.045-37.984 10.24-18.802 20.152 9.3394 32.923 1.4782 4.7803-10.39 8.61-22.877 22.19-23.761 14.229 3.3466 16.402 21.662 27.419 29.215 9.0201 7.41-1.1364 33.865 13.666 29.824 15.397.82952 26.088 11.818 38.059 20.667 14.21 2.9605 5.3672 21.914-5.9484 22.418-.56015 10.986-19.924 22.112-10.738 34.466 13.065 8.4288 8.7974 24.558 27.636 25.032 8.075 10.943 28.768 6.9654 33.832 22.174-9.1314 12.762-16.564 22.406-23.074 36.32-14.535 5.3595-14.151 22.495-29.291 28.338-10.648 11.883 17.598 19.386 26.814 22.214 28.621 8.7002 57.98 15.62 87.998 15.835 5.0546 9.839 14.33 20.952 28.844 18.486 12.558-.841 30.053-13.682 34.226 5.7841-.7486 15.611-22.639 21.095-23.79 38.196-8.8868 25.664 17.3 1.0125 23.237 17.434 12.424 11.11 40.476-4.3376 49.062 13.102 2.9947 15.136-22.1 20.95-26.298 35.541-7.7 14.805.5256 16.736 1.5797 25.69-10.533 6.2206.171 15.03-.4162 21.031 13.654 5.2379 39.921-4.4505 41.577 16.022-6.7713 19.391-29.53 24.147-41.58 39.547-12.876 6.0058-21.899 20.157-34.705 27.667-32.024 26.637-64.29 52.222-96.959 77.871-11.483 5.4552-21.525 18.848-33.147 26.037-15.479 13.003-31.12 24.527-47.039 37.102-18.252 8.5926-28.151 37.636-51.373 28.096-49.035-7.6944-98.023-15.529-146.69-25.105-30.707-10.15-62.811 1.3477-91.528 12.9-14.718 12.207-35.849 9.912-53.562 18.037-50.765 13.274-103.51 16.799-155.46 22.628-43.083 3.3281-87.191-.013-129.8 3.7732-17.337 10.152-33.271-11.226-52.065-5.5784-34.172-2.0244-69.436 2.5797-97.763 23.244-2.4292 1.2084-11.267 3.4238-11.808-.80053zm8.9005-5.2047c-1.5264-2.8905-1.6632 2.7591 0 0zm3.8445-13.333c-3.3084-4.8025-5.2985 19.616 0 0zm16.745-.54232c-.26035-3.8018-9.1576 4.2801 0 0zm4.9835-14.23c12.343-17.292 39.358-22.965 45.975-42.791-21.866-2.7518-37.577 20.749-53.227 33.669-14.089 7.1591-12.33 36.345 2.8718 13.216 1.4602-1.3646 2.9203-2.7292 4.3805-4.0938zm133.09 8.5251c38.829-1.144 78.355 3.171 117.46-.47027 28.584-1.469 56.29-9.2419 85.009-9.2114 40.969-3.9101 79.796-17.112 119.75-24.707 6.0155-9.6074 27.254-9.4173 25.785-23.927-13.135-16.277-21.196-1.1918-28.699 8.8751-10.652-5.1132-18.503 20.717-34.635 11.688-.73096-23.152-20.564-12.1-33.528-5.3052-27.365 10.95-57.093 6.7483-85.139 13.158-20.086 8.4501-5.2242-9.1402 3.3927-16.493 12.649-14.974 30.405-25.982 50.576-24.383.60381-10.218-5.2244-28.406 8.5014-38.333 14.304-18.712 36.232-24.869 58.468-29.136 24.964-11.233-13.155-9.8933-22.916-4.3438 9.3751-18.613-16.011 2.3103-16.177-9.4244 6.9337-23.022-1.9837-24.579-11.511-19.32-3.0836-12.785-5.7094-33.24-21.155-35.086 8.6428 26.391 22.598 58.593 2.9572 83.389-7.385 11.783-8.8978 34.71-26.851 32.611-12.167-6.7283 5.4382-26.039 1.6492-38.287 6.3916-8.6031-10.585-37.485-11.684-27.2 3.7262 21.434 3.1357 46.842-10.556 65.192-9.3007-.37582-32.027-8.8442-17.536 7.6602 14.57 14.795-3.5996 30.494-16.492 38.123-24.842 16.041-56.229 14.985-84.843 15.74-37.314-.25409-74.965-3.6536-110.61-14.381-18-17.121-25.429 3.9174-40.176 13.026-8.5786 4.8017-40.443 25.283-16.534 23.724 23.469-17.335-10.917 11.986 11.006 7.0707 15.881-19.89-2.0183 6.8374 20.092-4.0368 9.3627-10.132 19.379 5.6988 36.462-.0157 16.26 2.1189 31.141 10.242 47.937 3.8055zm114.89-17.287c3.3106-15.734 9.6445 8.3372 0 0zm11.822-2.3779c-2.7208-15.307 13.496 10.745 0 0zm12.602-4.1441c.91392-19.416 14.541 12.693 0 0zm-271.32 23.39c-1.5264-2.8905-1.6632 2.7591 0 0zm720.36-32.172c30.221-23.634 59.836-46.351 89.38-71.07 48.94-36.478 95.74-76.634 142.93-114 15.657-12.744 34.291-26.699 50-41.369 1.9325-19.086-29.112-8.1397-26.299 6.9812-11.728 20.962-37.679 29.314-53.035 47.679-30.553 21.968-59.251 46.606-88.958 69.812-14.941 11.206-29.377 21.768-45.039 32.819-20.252 17.452-42.964 32.678-63.34 50.026-10.07 11-23.387 7.7378-36.844 3.8857-53.492-4.7718-106.34-19.654-159.14-25.253-19.476-4.3712-40.824-9.6373-60.93-10.006-12.431 21.079 22.159 10.299 33.437 16.436 70.725 12.258 141.19 27.46 212.21 37.564 1.8801-1.1682 3.7601-2.3365 5.6402-3.5048zm-497.03-3.2832c23.256-3.1649 50.318-11.372 62-33.036-4.0621-12.827-21.427-17.139-32.857-23.538-15.261-6.8536-32.303 13.261-44.723.79131-1.3001-28.557-27.958-54.662-13.799-84.096 13.168-18.512-5.4073-33.858-14.52-10.117 1.3496 18.677-12.782 26.742-29.064 30.032-8.0467 5.3129-43.634 10.463-32.074 19.157 20.899 5.99 49.182 7.4202 56.522 32.701 24.807-5.1615 24.474 12.464 22.124 31.918 8.2229 26.444-19.093 16.839-35.466 18.335-15.693 2.4823-37.883-5.1429-49.476 4.2053 4.0875 15.368 27.26 12.858 40.131 14.934 23.708-.59313 47.634 1.7133 71.202-1.2866zm82-2.6232c-2.6589-9.2169-3.0002 10.282 0 0zm40.403-3.2799c20.126-5.5766 50.894-3.9379 55.973-28.991-14.233-8.0859-36.256-11.934-46.284 4.3542-13.451 3.7374-30.148 6.5377-41.059 17.691-17.594 15.899 25.617 7.5089 31.37 6.9455zm88.712-6.1663c5.1152-24.057 18.119.86014 23.172-21.05 1.1348-13.488 11.816-32.338-7.9711-37.618-17.665-3.9702-4.88 35.798-17.147 32.603-2.3379-11.605 1.3024-37.282-14.512-37.193-12.133 4.4858-18.126 24.053-8.0941 30.527-3.666 16.177 8.3574 28.154 17.703 36.88l2.9323.0424h.00015l2.0024-2.1425zm298.82-16.665c28.823-20.537 55.441-43.97 83.986-64.071 18.001-6.0658 23.617-25.889 2.0638-8.976-22.551 15.386-43.003 32.019-64.291 47.635-12.562 7.5971-23.213 18.707-35.485 25.621-23.534 18.366 2.1275 14.867 13.305.11032zm-248.38 13.301c-6.1329-1.7956 1.7312 3.9368 0 0zm201.78-1.1111c-1.5265-2.8905-1.6632 2.7591 0 0zm-13.694-1.4722c-7.5278-1.4069-1.3155 2.7954 0 0zm39.999-10.194c26.174-17.019 50.107-38.702 76.197-55.929 22.157-16.448 48.984-31.804 65.498-54.585-11.451-.24772-24.239 16.227-36.667 21.829-19.627 13.92-40.268 28.219-60 43.295-18.634 11.684-36.046 25.788-53.207 39.025-17.541 14.206-41.568-1.7089-62.38-.24723-26.309-1.5474-52.662-11.503-78.297-12.309-30.67 8.0346 49.234 10.738 24.779 10.921 36.765 4.521 74.208 9.8214 110.06 17.51 5.1757-2.4408 9.5203-6.0279 14.017-9.5097zm-194.75 4.7778c-3.5723-1.7676 1.9903 5.7132 0 0zm-112.42-2.4871c-4.3834-7.8549-.39044 10.774 0 0zm80.868-.70266c-2.8821-10.063-1.173 9.7571 0 0zm140.89.52314c-6.1329-1.7956 1.7311 3.9367 0 0zm-493.56-2.5483c17.757-1.6267 37.587 1.9691 54.098-2.7942 3.9444-22.647-3.5178-33.489-27.157-27.589-87.18 1.0379-175.03.31974-261.79 2.2286-4.8194 18.149-3.822 37.419 20.448 29.912 71.468-.56304 142.95-.29593 214.4-1.7579zm464.67-2.5628c-1.5264-2.8905-1.6632 2.7591 0 0zm99.141-5.3117c31.024-23.275 61.819-45.286 92.772-67.821 15.925-11.266 35.718-20.184 48.087-35.358-11.296-5.5113-24.209 12.746-35.333 17.971-30.414 18.911-60.102 40.988-89.237 62.512-14.883 6.8341-24.711 26.547-43.236 16.652-10.657-6.2741-50.656-4.6052-21.992 3.0965 15.715 1.4383 34.108 10.34 48.939 2.9476zm-293.97-7.456c-7.8385-2.5643 7.2518 11.432 0 0zm139.5 1.4344c6.9385-8.5879-14.853 9.5109-.44552.49229zm-182.44-.88889c-6.1329-1.7956 1.7312 3.9368 0 0zm76.215-7.2128c5.678-24.444-9.1136-21.063-3.2555 2.1158-.93918 8.4662 3.3702 3.1753 3.2555-2.1158zm100.23 4.8311c-4.9566-13.419-25.433-6.2996-37.563-12.458-10.919-6.4628-46.456-3.6839-20.99 3.6217 19.911-1.0557 40.434 8.1188 58.553 8.8362zm156.46-3.3961c14.307-8.5597 25.402-21.561 40.244-28.558 22.679-17.586 48.977-32.803 71.293-50.579-16.353-2.9707-30.169 15.987-45.348 23.518-24.71 16.742-48.789 32.739-71.318 51.807-14.181.63128-33.381-5.8481-44.331-2.6322 9.6236 6.7228 30.641 7.7111 44.905 10.444 1.5186-1.3333 3.0372-2.6667 4.5558-4zm-297.28-3c-1.3662-11.76-26.398-13.731-33.714-7.6077-1.7988 13.594 21.066 7.8993 29.868 13.008 6.3056 1.4093 4.6008-.50851 3.8453-5.3999zm214.82 2.3748c-3.1352-9.3098-49.295-4.9141-19.871-.28412 5.2879-.55573 18.925 7.4603 19.871.28412zm-54.215-2.0586c16.758.44117 26.244-11.616 24.776-28.285-6.5483-26.202-14.678 4.8208-23.228 8.3018.71324-15.247-2.0902-43.584-23.706-37.333-12.394 16.441-1.3445 26.457 2.373 36.726 8.0459 6.382 2.1368 31.753 19.785 20.59zm60.215 2.0172c-1.5264-2.8905-1.6632 2.7591 0 0zm16.82-3.0204c4.9709-11.079 9.0457-27.89-.04-38.189 8.3087-14.241-25.092-23.353-17.622-6.8612 20.344 25.471-13.742-10.19-6.1786 10.131 17.491 8.0587 17.71 18.647-.88647 2.2507-9.934-12.051-26.141-5.323-19.92 10.356 5.9807 16.196 23.413 7.539 25.67 15.333 1.2183 4.3637 13.017 9.3119 18.977 6.9796zm-406.1-5.4884c9.1519-7.6124 38.941-10.175 16.703-23.023-10.452-6.3749-26.088 18.654-22.09-7.7722-10.306-19.596-9.1642-42.365.30821-62.217 10.985-19.605-11.889-23.683-17.408-4.6867-9.8142 12.565-9.9272 29.979-10.9 45.575 3.5736 19.941 16.41 36.171 18.928 55.966 5.4057-.12343 10.868 1.3781 14.459-3.8421zm129.28 3.1754c-1.5264-2.8905-1.6632 2.7591 0 0zm178.94-5.6294c-3.3682-11.619-2.2814 13.732 0 0zm-239.38 1.4072c-6.1329-1.7956 1.7312 3.9368 0 0zm230.88-7.2609c-16.343-2.0994-34.82-12.014-50.782-5.4817 13.444 7.1197 32.487 7.2955 47.899 12.321 4.4812 4.1659 6.3692-6.2682 2.8826-6.8389zm167.47 2.3089c15.107-11.383 31.545-21.746 47.424-32.149 10.56-9.8801 27.823-16.886 35.241-27.493-12.307-3.1798-21.769 12.804-33.262 17.018-19.342 13.856-37.474 27.839-57.231 40.461-12.659 1.1427-37.223-13.793-42.218-.36941 15.343.23897 32.42 10.936 46.209 6.3146l2.0884-2.0588zm-368.58-.83821c7.5777-27.063-9.727 18.686 0 0zm261.46 1.8586c3.1806-8.7469-10.086 7.9087 0 0zm-123.24-2.7351c-3.5723-1.7676 1.9903 5.7131 0 0zm-557.53.0297c17.367-13.07-4.3917-17.619-13.099-26.474-9.0079-18.004-29.485-1.7022-17.45 12.336 8.0965 7.2666 17.755 18.151 30.549 14.138zm384.65.19252c-1.5264-2.8905-1.6632 2.7591 0 0zm-135-1.9898c15.182-4.1133-12.046-22.642-22.179-23.222-20.484-3.7492-44.531-8.9467-54.448-29.455-27.458.2753-54.915.5506-82.373.82589-15.499 30.157-59.648 19.352-78 46.867 1.6247 15.271 31.23 2.3499 43.987 6.4044 64.338-.46253 128.67-1.0122 193.01-1.4205zm245.29-1.6121c8.362-10.243-44.728-6.3049-21.092.0303 6.7425-.0912 16.045 6.6007 21.092-.0303zm-114.64-1.4742c-1.675-10.935-17.468-23.712-24.966-36.131-17.609-26.893 10.657.0781 11.086-15.321 2.1582-12.356-2.1887-33.041-17.38-25.001-16.323-8.282-11.961 17.181-17.712 25.492 6.2094 11.64-4.589 22.449 6.2482 34.193 11.927 7.797 19.604 23.25 36.404 19.215 2.2632-.73457 5.2782.99899 6.3205-2.4468zm7.0191-.2572c-1.5264-2.8905-1.6632 2.7591 0 0zm178.42-6c10.025-4.0491 29.617-5.992 16.879-23.319-12.621-10.723-2.9436-27.136-22.629-28.296-13.772-2.6956-23.977-1.9503-33.221-5.9318-10.356-.41558-36.084 21.264-13.779 18.876 10.41-.48916 39.397 4.2798 34.333 13.465-14.82-8.4289-25.688.9756-38.375 3.6694-15.817 5.8211 9.8777 20.849 16.672 23.432 13.676-7.1076 27.975 8.1208 40.12-1.8956zm46.916.77715c-1.424-11.978-36.664-3.3835-12.31 1.357 3.0022-.44238 14.359 5.7321 12.31-1.357zm175.86-.44382c24.787-18.002 51.937-34.182 74.781-53.855-12.219-6.948-24.048 11.553-34.285 17.804-13.026 5.9158-22.086 21.359-36.862 22.588-9.2088 14.292-25.322 7.6312-40.163 5.2212-21.098-10.829-15.808 10.225 1.0656 7.6018 11.407-.76129 26.611 8.3175 35.463.64029zm-386.59-6.8104c7.9939-16.419-2.3062-36.323-5.0526-50.328 19.029 2.5006 26.944 28.492 23.768 47.004-2.619 23.327 26.139.11048 22.687-13.169 1.3535-18.565-20.681-11.024-14.571-31.621-5.7142-18.124-19.975-15.826-30.404-29.33-22.612-13.81-7.3925 23.305-23.916 17.101-15.56 12.315 6.4362 30.677-2.3099 40.129-3.0277 14 11.421 32.012 27.076 29.358.90774-3.048 1.8155-6.0959 2.7232-9.1438zm100.71 5.1713c3.3141-18.965-33.611-2.1838-10.243-.29364 2.7917-.35472 8.454 3.5261 10.243.29364zm-23.316-6.1849c-2.4569-7.2595-3.9187 11.123 0 0zm180.89-3.0906c.0917-24.049-15.015 8.8243-.44202 1.171zm-642.13-1.6994c16.476-9.0762 40.559-10.207 53.93-22.508 6.1-19.736 7.1183-39.903 14.572-59.368 4.1416-15.792 13.173-32.064.89897-46.455-10.68-21.451-10.065-45.435-9.4954-68.788-16.894-4.6524-28.314-22.094-43.689-26.601-7.7216 14.735 15.78 18.479-3.4317 20.397 10.96 19.455-8.4538 5.8461-1.6787 23.464 8.1134 4.744-20.461 7.334.79091 17.663-22.176-5.4408.97354 17.681-9.4053 14.443-20.225-2.7752 12.699 21.739-6.2758 13.144-10.243 4.1431 7.9727 17.074-6.1067 19.183 7.576 15.337-8.2646 8.7463-3.8987 21.803 12.066 4.9438-21.157 6.1315 1.6951 17.146-21.82-4.0281 2.5663 21.37-11.23 15.68-9.2218 10.329 9.1391 14.919-7.437 19.57 11.912 16.461-6.2833 5.9612-3.9976 23.164 7.7092 7.6748 24.173 24.878 34.759 18.064zm305.02-.44869c6.9154-13.953-11.477-28.53-.89601-42.179-8.2628-23.02-16.415 16.342-9.859 25.029 4.7672 4.2252 1.047 30.428 10.755 17.151zm7.3628.0627c-4.2609-7.2777.38057 8.1248 0 0zm283.26-.96767c-9.807-10.825-33.419 1.4679-4.4066 2.7051 1.5928-.7673 5.5374 1.0163 4.4066-2.7051zm154.77-2.1669c-9.3753-7.5805-24.716-8.6006-35.121-8.294 4.3967 12.904 26.127 9.2853 38.301 10.762l-2.3167-1.798zm-90.513-.10894c-13.623-9.6642-2.2592 3.7476 0 0zm100-3.4232c-1.5265-2.8905-1.6632 2.7591 0 0zm-80.945-3.1863c6.9745-9.2276 34.421-17.307 14.61-29.107-13.183 1.0387-10.758-20.77-27.665-18.004-6.99-9.7893-21.769-10.297-36.275-5.9097-23.304 6.6603-2.0682 22.112 10.848 25.805 5.6451 6.7879 34.309 9.4149 15.336 13.736-10.531 6.8722-41.69-19.056-29.537 3.6223 12.227 18.583 20.951 1.2968 32.294 8.4493 5.9646 5.0382 13.62 4.2668 20.388 1.4086zm108.43-1.7657c13.814-11.267 29.35-21.667 43.479-33.595-11.334-15.742-24.134 4.518-34.326 9.9077-11.404 17.059-29.099 11.927-45.973 8.5966-13.598 2.077-36.503-14.103-43.627-1.0617-5.8745 15.292 23.162 5.3494 31.627 11.044 15.697.18823 34.636 12.892 48.82 5.1082zm-188.12-1.1484c2.382-8.0017-36.877-11.783-24.032.0587 6.8889-.38405 20.478 6.7614 24.032-.0587zm-249.43-2.4349c-.79666-31.603-20.185 16.8 0 0zm-165.47-4.6356c21.198-8.9838 42.366-15.11 62.638-25.779 1.3651-15.364 10.342-30.711 1.1398-44.073-4.3782-20.64-25.792 2.8005-11.982 11.381-15.548-.563-11.425 34.659-25.226 21.562-13.738-6.0488-27.126 5.0911-40.011 8.042-5.2772 13.992-9.2731 24.549 8.0422 30.705 2.0084.38424 3.5822-1.3101 5.4-1.8376zm244.42-.38463c-3.5723-1.7676 1.9903 5.7131 0 0zm-120.1-5.4377c-6.3682-1.8139 3.718 11.148 0 0zm297.88-1.4854c2.8721-31.78-5.9078 23.232 0 0zm-42.667 3.812c-3.8143-.89992.0126-.44779 0 0zm37.118-3.4121c-10.741-23.641 16.491-13.335 27.652-4.7035 26.84 7.8441 2.4868-11.56-10.33-14.337-16.063-9.3056-35.685-4.6729-53.421-6.0642-20.568 18.998 16.102 4.31 21.735 16.914 1.7732 4.7748 11.914 20.8 14.363 8.1909zm316.21 1.3334c-2.4309-6.771-3.3274 7.9341 0 0zm-498.67-7.2546c-3.0529-5.781-3.3263 5.5182 0 0zm42.222-2.2222c-3.5723-1.7676 1.9903 5.7132 0 0zm105.11-.74185c-1.3895-7.0793-9.5329 8.1148 0 0zm-406.42-4.5585c9.7328-18.337-20.589-17.324-32.278-15.575-18.529 2.0196-39.707-1.5781-56.574 3.965-13.285 18.407 20.033 16.983 31.68 15.929 18.061-1.5382 38.038 3.1024 54.258-1.2263l2.0109-2.1345zm269.75 2.1892c-5.2868-6.642-5.8673 6.1277 0 0zm145.33.66667c-1.5264-2.8905-1.6632 2.7591 0 0zm-148.66-9c5.909-13.094-23.819-40.367-3.6181-39.977 17.701-2.675 18.769 30.966 28.199 25.381 5.7236-7.5038 15.325-30.856-1.1492-28.49-2.6915-12.722-7.5086-32.479-23.001-36.833-6.9347 13.848-21.053-15.104-29.819-2.2968 1.8238 18.641-7.252 20.078-9.652 34.912.89083 15.033 5.6595 28.025 19.031 32.949 6.471 2.3864 12.483 30.922 20.009 14.354zm70.658 1.5786c12.314-4.4714 18.152-20.705 31.634-19.924 21.361-12.455 7.3206 2.8244 2.3665 13.847 5.2497 12.115 31.409 10.574 29.842-6.9112-4.7647-9.9914 13.812-31.319-8.9406-26.923-14.002-8.3411-30.798 1.1888-40.901 11.333-11.614-13.712-21.506 17.475-22.667 27.182-1.0206 6.0533 6.244 4.566 8.6667 1.397zm-32.667-3.2453c-1.5264-2.8905-1.6632 2.7591 0 0zm64.824-5.3333c10.945-19.877-30.887 5.0769-3.0607 5.3333 1.0202-1.7778 2.0404-3.5556 3.0607-5.3333zm-46.029 1.1784c19.595-24.458-28.371-1.6812-7.0003 2.1549 2.3083-.77179 6.164 1.7516 7.0003-2.1549zm-304.38-2.6193c11.254-12.151 32.048-1.2188 39.925-9.9517 7.7965-9.7332 19.892-26.718 1.8289-30.635-9.0917-12.56 4.0015-29.823 1.4807-43.148.27419-15.818 36.612-18.397 13.74-27.618-12.735-12.368 4.082-26.137 8.6101-36.734 6.0136-12.98 23.351-15.597 22.432-33.261 10.585-29.903 12.417-62.13 23.358-92.189 7.9813-17.073-14.83-26.541-18.833-42.298-9.2994-9.799-14.274-33.524-29.135-19.243-14.639 6.9027-29.634 2.7535-38.651 19.318-14.575 5.5132-4.0941 29.372-13.914 42.411-7.3097 34.863-18.58 69.026-24.168 104.12 8.3515 39.711 6.5224 84.793-17.11 119.11 7.9592 15.81-14.516 24.187-1.1015 40.154 10.427 1.4343 21.782 17.757 31.538 9.9655zm756.25 1.4409c-1.5264-2.8905-1.6632 2.7591 0 0zm-467.61-4.8182c9.2668-5.9446 27.278-20.561 19.289-31.64-8.3994.7168 6.691-30.537-9.7534-33.752-7.389.21895-5.7392-35.318-16.751-18.697-4.7408 7.6586-24.006 1.0196-19.588 20.064 9.6651 17.808 28.506-23.519 22.101 12.435-1.3282 17.607 3.1396 36.798-7.6846 51.827 4.6092 2.3967 7.9557 3.7888 12.386-.23749zm100 .15156c-3.8156-11.596.69732 12.419 0 0zm265.61.60248c35.111-.26878 70.222-.53757 105.33-.80635 7.092-14.43 13.861-30.494 20.667-44.837 7.1948-24.566 21.301-47.51 29.87-72.037 7.9934-20.669 20.221-41.35 24.246-62.268-6.4982-7.6978-21.501 34.237-16.772 28.68-11.15 20.487-18.822 44.26-30.66 66.556-9.2789 22.576-20.194 44.699-29.721 67.78-65.754 3.3792-131.84.21156-197.63 4.1076-22.392 1.0119-48.501-1.6811-68.671 1.5461 13.698 21.817 45.046 9.4905 66.797 12.018 32.18-.24633 64.36-.49265 96.54-.73898zm-215.58-4.7693c18.129-17.232-20.801-5.346-11.314 5.5001 5.3441 1.3752 7.9349-2.1209 11.314-5.5001zm353.16-2.6795c17.011-14.48 37.028-26.236 51.172-42.895 13.354-18.795-14.13.3196-18.759 7.1634-14.02 9.9489-25.207 23.497-41.324 31.025-11.98 13.211-1.8513 15.667 8.9115 4.7068zm-386.13 3.2255c9.931-7.0037 28.939-8.0491 32.148-25.148 5.4978-9.539 14.153-29.668-6.2424-28.565-8.4182-9.9835-23.174-7.5849-36.558-4.7227-15.48-3.6826-29.522 16.869-21.381 30.056 18.161-.32567 32.683-15.606 51.906-12.395-3.0128 16.909-32.679 16.203-32.58 36.493-4.6306 8.7639 8.9135 7.8409 12.707 4.2814zm11.241-.12168c-5.123 1.1723-5.2564 4.7922 0 0zm-458.59-.72619c1.3217-18.668-12.812-26.673-30.063-21.662-15.663 5.0003-18.193 32.689 5.9501 23.273 7.3206-1.2456 19.078 2.802 24.113-1.6118zm811.22-2.3554c-4.7517 2.1315-1.1725.14237 0 0zm-601.45-2.8426c2.8979-8.4631-40.545-13.487-24.462-1.7165 7.0177-1.7844 20.647 9.3564 24.462 1.7165zm143.76-1.8056c-7.5277-1.4069-1.3155 2.7954 0 0zm471.03-4.5058c18.87-12.317 34.642-27.579 52.494-40.022 10.053-10.216 26.452-17.571 32.839-29.154-16.198-.40672-29.775 18.379-43.642 27.4-16.012 12.539-36.217 26.436-51.177 43.095 1.8217 6.0922 6.3616.14685 9.4858-1.3193zm-592.63-11.475c-8.6184-27.057-10.793-57.903 6.8445-82.162 8.6848-15.216-20.848-14.519-20.751 2.1979-15.722 27.418-12.947 63.798 2.8639 90.239 3.7237-.37301 15.465-3.2092 11.043-10.275zm-107.37 7.4533c-3.0529-5.781-3.3264 5.5182 0 0zm672.5-3.3333c15.961-37.804 34.596-75.578 50.763-112.6-12.154-3.3636-17.782 25.218-25.081 35.944-13.308 23.045-22.186 48.186-35.908 70.656-40.632 3.1607-81.677 2.1038-122.28 5.5836 7.9691 11.157 32.972 1.6366 47.322 4.7022 27.983-.0953 55.965-.19051 83.948-.28576l.86475-2.8022zm-358.42-.37368c24.033-10.453 1.533-21.423-8.496-6.0422-1.786 4.7245 4.2472 13.107 8.496 6.0422zm-249.44-1.2362c15.351 2.7024 23.002-31.474 3.767-23.551-18.879-13.928-2.4194 12.473-16.554 8.3982-13.441 7.0461 1.4629 22.932 12.786 15.153zm-188.25-1.7235c-3.4188-12.843-4.1902 9.122 0 0zm142.95 1.3333c-1.7804-5.9225-9.5281 3.8297 0 0zm229.67-.73236c1.1323-13.808 3.9082-31.352 15.667-43.22 8.5326 3.6853-5.4296 39.257 12.998 31.431 9.9251-10.823 18.223-39.642-3.593-41.492-6.2831-20.962-19.557.56234-25.151 5.5301-18.048-3.5768-8.1891 29.506-15.857 26.762-6.2951 13.846-2.714 29.387 15.936 20.99zm-225 .0657c-1.5265-2.8905-1.6632 2.7591 0 0zm-12.163-3.8524c14.979 2.4441 22.478-12.297 33.607-17.563 14.088-8.7412 13.396-31.937 1.47-42.566-8.598 15.923-18.706 29.915-32.248 42.246-1.5685-16.084 8.4185-31.95 10.97-45.828-14.773-8.9334-31.076 10.373-31.304 24.318 11.863 10.65-11.474 26.124 1.1552 38.878.25286 6.4828 13.502 3.6767 16.348.51409zm108.06-.0277c-6.8102-8.2131 2.5567-15.032-9.9005-18.079-3.4662 2.032.33252 29 9.9005 18.079zm140.24-1.1862c12.12-9.8013-.58311-40.042-6.5079-11.322.81723 5.4388-4.2063 21.639 6.5079 11.322zm188.53 1.08c70.205-2.7102 140.4-4.5745 210.67-4.8242 20.802-32.369 35.37-69.329 54.111-103.28 5.9113-13.047 16.376-27.826 17.306-40.572-13.408 3.5296-14.323 26.234-24.901 36.611-15.608 32.529-34.246 65.38-50.572 96.502-40.669 3.7791-81.434 3.0932-122.03 4.6849-55.319 3.6996-111.95.63731-166.58 6.3593 1.02 15.17 29.403 2.1651 41.794 5.627 13.401-.39422 26.802-.79983 40.206-1.1041zm250-2.6803c-1.5264-2.8905-1.6631 2.7591 0 0zm-820.87-3.1633c9.7216-19.616-24.254-11.026-35.524-12.41-19.182-6.275-18.058 18.813-.006 14.665 11.414-1.5414 25.297 2.3263 35.53-2.2541zm822.87-.17008c.6547-6.3259-4.6271 4.8972 0 0zm-503.55-9.9602c11.423-24.507-13.754-13.952-9.4498 4.613 4.6588 9.0329 7.7474.67414 9.4498-4.613zm216.28 4.6934c80.392-4.3028 160.91-5.0598 241.27-9.6684 4.9641-13.9 15.981-26.197 20.226-41.101 4.6966-18.805-15.055 10.398-18.508 18.231-4.6959 20.707-25.487 12.13-41.65 14.445-29.104 1.8499-59.307-.49151-87.74 3.497-14.072 7.4098-31.448-5.1226-47.742.14625-34.827 1.766-70.395.46359-104.77 3.8546-13.168 18.591 18.991 10.275 29.216 11.046 3.2318-.15012 6.4636-.30023 9.6954-.45034zm-436.01-2.9635c16.422-.29273 13.856-20.35 10.613-30.68 15.316-12.788 10.476-28.157-8.9718-18.177-17.295 5.2642-13.686 21.463-10.008 27.396-8.2709 8.9167-8.9754 30.83 8.3666 21.462zm750.72-7.3902c14.474-12.548 29.647-22.613 43.637-35.065-5.3557-12.565-20.922 13.134-32.084 15.306-4.8097 7.4194-33.004 23.96-19.684 26.138 2.7105-2.1265 5.421-4.253 8.1315-6.3795zm-613.31.66891c.82839-25.674-20.917 11.466 0 0zm-39.645-5.1452c10.579-8.8407-2.1846-33.917-7.7097-9.6087-8.4202 5.4407 1.498 18.018 7.7097 9.6087zm153.46.1889c-.35232-8.6884-4.9 5.1559 0 0zm-342.28-4.7566c29.214-52.729 9.6146-115.06-6.3979-168.99-9.6542-21.452-.45709-45.956-9.0503-67.013-11.425-13.432-32.739-19.235-47.302-7.3605 15.935 36.071 3.4738 77.176-7.6922 112.69-14.71 43.766-11.11 92.75 6.6925 135.33 20.25-.011 40.5-.022 60.75-.033l1.5943-2.4613zm823 3.9978c-1.5264-2.8905-1.6631 2.7591 0 0zm62.344-6.3333c1.9571-9.8842-9.5111 18.586-.1234.13914zm-250.34 5c-1.5265-2.8905-1.6632 2.7591 0 0zm-96.333-2.8378c10.311.0212 44.811-.62663 17.994-4.6986-27.257-7.3846-56.515-.8368-84.327-.2897 2.8541 12.768 29.334 4.4158 42.529 5.7164 7.9348-.24269 15.87-.48537 23.804-.72806zm285-.49552c1.7307-5.2707-4.3553 4.9774 0 0zm20.232-7.1062c14.166-9.5455 27.876-20.149 41.101-31.502-11.224-8.253-23.494 11.083-33.008 16.557-7.2183 2.4074-26.467 22.803-16.325 21.172 2.744-2.0757 5.488-4.1514 8.232-6.2272zm-702.05 1.4395c11.196-6.1354 15.95-36.432.2867-19.742-4.5969 5.3125-16.316 39.009-.2867 19.742zm204.6-10.454c-4.0566-33.49 11.822 9.4779 20.44-9.308 9.4688-13.495-8.6311-18.732-12.43-27.299-16.988-14.702-15.464 19.257-26.13 23.455-4.5117 9.3156 12.122 37.606 17.903 23.698.0726-3.5155.14527-7.031.2179-10.547zm74.454 9.4538c13.482 1.9606 24.16-33.762 24.859-4.3289 15.755 12.589 22.571-16.528 11.449-21.338 1.814-17.534-23.162-10.665-25.831-1-12.541 5.4616-16.863 17.059-25.717 25.201-1.3557 17.995 6.6954-2.2186 15.24 1.4658zm43.083 2.3437c-1.2055-9.2193-6.895 11.169 0 0zm166.99 2.6563c.26561-19.322-22.441-13.361-35.313-18.237-45.142-10.135-90.53-18.378-135.73-27.065.48635 20.097 25.065 13.028 38.863 19.364 43.886 9.9137 88.394 16.234 132.2 26.271zm12.744-8.5421c32.796-21.592 64.53-45.67 95.808-70.103 11.434-5.9499 21.429-15.442 32.662-24.261 29.257-19.602 56.39-43.928 84.913-65.366 21.554-18.563-7.047-21.444-17.678-4.7946-34.02 25.833-64.618 52.992-99.762 77.422-35.798 28.239-73.007 53.929-109.89 80.645 2.0024 13.021 2.6895 21.491 13.951 6.4579zm3.2758 6.7968c-2.4309-6.771-3.3274 7.9341 0 0zm-463.32-14.439c2.7905-26.645-23.571 30.47-2.3711 6.2085.79036-2.0695 1.5807-4.139 2.3711-6.2085zm543.32 11.701c13.081-4.4626 35.428 5.7495 40.614-9.2448 22.153-35.737 45.951-72.223 67.439-108.96-3.6931-22.651-14.649 17.989-21.387 19.799 2.5547-12.574 22.082-28.593 17.847-38.108-14.214 7.2848-18.787 20.666-25.916 33.333-11.181 18.47-20.349 41.083-33.931 56.632-20.377 3.0858-43.074-.7084-62.263 4.035-20.708 14.1 13.52 8.0776 23.732 8.1197 15.526-2.9917 35.498 2.4714 48.154-6.0828 11.585-7.2224-13.613 11.815-16.168 19.359-2.8286 19.529-23.806 13.18-38.677 13.987-23.643 1.4031-49.672-1.11-71.779 4.9059 2.0014 8.3813 32.01 1.9097 44.728 3.336 9.2147-.10579 18.411-.49506 27.606-1.1072zm58.667-47.105c5.424-11.022.85034 5.9445 0 0zm3.6451-8.412c6.6377-9.6517 26.189-37.797 21.669-34.322-6.6467 12.572-15.555 29.322-24.243 38.656l1.4979-2.5212zm23.021-40.333c1.5265-2.8906 1.6633 2.7591 0 0zm-372.33 92.296c7.6302-17.514-18.709 10.8 0 0zm387.89.81468c-3.5724-1.7676 1.9903 5.7131 0 0zm-309.51-3.3796c-9.984-5.5815-31.298-2.9373-45.352-1.7316 2.968 8.4311 34.496 1.5485 45.352 1.7316zm378.84.71288c-3.5724-1.7676 1.9903 5.7131 0 0zm-676-2.6667c-3.5723-1.7676 1.9903 5.7131 0 0zm133.5.78671c13.014-11.401-18.906 1.3614-1.3488.47019zm-86.831-.78671c-6.1329-1.7956 1.7312 3.9368 0 0zm13.778.30091c-4.2023-6.7219-3.6113 3.7718 0 0zm449.94-4.8318c18.973 7.6517 36.458-16.036 9.7182-13.212-20.136 2.427-42.278 1.1011-61.298 5.8334-24.821 15.685 14.128 8.0078 24.818 8.8312 8.9279-.32468 17.841-.98805 26.763-1.4523zm-441.33-3.3486c.97842-13.175-31.448-2.2151-43.194-5.555-19.249 10.842 14.999 10.963 23.738 9.2017 5.8762-1.6266 16.65 3.0916 19.457-3.6467zm-59.195-.11537c-2.6346-20.208-19.134 13.544-.3077.80932zm404.76-2.4126c14.493-10.483 30.193-22.809 41.301-35.007-17.049 9.3294-34.731 23.294-54.141 30.613 2.6265 10.114 3.7319 14.111 12.84 4.3939zm197.83 3.9631c-1.5265-2.8905-1.6633 2.7591 0 0zm22.667-9.3058c7.7035-8.1972 29.197-16.514 25.977-24.714-15.217-.16493-27.788 17.812-40.391 26.994-5.5418 16.34 9.6507.17973 14.415-2.2808zm49.333 6.6392c-1.5265-2.8905-1.6633 2.7591 0 0zm-722.11-8.0063c12.452-1.3856 28.117-26.395 9.2477-28.66-7.9768-5.3607-42.711 13.244-29.159-.75424 7.6142-12.715 40.385-11.172 28.123-29.621-10.286-11.007-33.039-8.7222-38.187 5.7849 11.674 9.2013-14.494 16.742-14.585 29.61-16.043 11.583 7.3852 22.464 18.666 20.314 14.246-1.3825 8.2527 18.853 25.893 3.327zm51.511-1.5119c11.571-9.6384-2.2615-24.874-2.4036-8.0315-10.232-4.1684-10.767 20.446 2.4036 8.0315zm343.93 1.1194c-10.459-10.384-32.624-6.1706-47.189-13.078-46.137-8.9105-92.24-18.09-138.11-27.866-42.703-6.2239-85.19-21.077-127.98-22.564-15.669 10.616 20.275 7.2618 28.164 13.039 40.262 7.3065 79.717 14.784 119.79 22.793 55.22 8.7472 109.81 22.511 165.33 30.073zm48.541-2.0163c20.557-12.094 40.432-25.5 59.602-40.209 44.384-30.612 86.437-62.52 130.21-94.043 9.5092-2.6903 26.611-20.666 3.8656-14.353-31.912 26.264-65.782 47.328-97.426 72.609-35.779 23.099-68.296 51.231-105.05 72.609-9.4461.14875-36.375-9.1348-35.415-.54563 12.849 4.1416 29.501 8.6579 42.431 5.2587zm133.18-.91823c-.0861-11.757-3.683 10.119 0 0zm77.858-.25c-2.2476-7.514-.078 11.778 0 0zm-146.24-.41666c-1.5264-2.8905-1.6632 2.7591 0 0zm43-.21638c-12.219-.56497 3.5707 2.1109 0 0zm-612.63-3.8592c3.5021-8.9285 22.185-30.375-1.3779-23.817-27.741 7.7402 36.547-24.017 21.92-11.671 16.129-11.682-6.9995-24.775-21.603-21.296-20.77-2.1755-13.514 18.478-26.039 22.849-16.904 13.307.95548 24.716 9.7758 31.161-1.168 5.5241 14.247 6.3598 17.324 2.775zm572.3 1.4089c-1.5264-2.8905-1.6632 2.7591 0 0zm144 0c-1.5264-2.8906-1.6631 2.7591 0 0zm-708-1.2546c-4.2022-6.7219-3.6113 3.7717 0 0zm304.76-5.412c23.917-10.294-15.148-6.6358-25.176-11.901-47.363-8.3585-95.251-17.004-141.58-27.861-10.44-.23046-27.626-8.5577-17.261 8.3038 12.27-17.119-4.6616 18.07-16.974 2.4528-17.755-9.5037-31.54-25.9-42.566-42.487-8.3294-22.026 23.2-7.5606 21.466-24.888-1.9778-21.74-20.645-37.202-30.332-56.125-9.6393-17.963-21.872-33.961-32.989-51.414-24.292-34.789-47.073-70.02-71.295-105.41-11.072-18.214-24.992-39.261-37.717-58.701-18.698-25.046-32.384-53.493-51.975-76.633-21.691 3.893 2.981 25.711 7.7603 36.19 16.822 24.122 32.511 50.144 49.138 74.14 18.934 27.785 34.787 56.656 55.15 83.67 7.8083 19.022 24.604 32.315 33.557 50.619 11.673 16.784 22.406 33.654 33.372 50.675 5.9798 15.833 25.621 28.842 24 47.475-20.901 6.0067-18.637 30.893-6.0327 44.111 12.807 19.867 31.499 37.676 54.699 45.401 18.71 9.9686 21.397-21.355 38.665-13.841 19.37 5.125 40.757 14.052 60.099 12.095 14.175-13.158 25.711 15.038 44.105 9.4725 15.109 3.4582 30.667 5.8122 45.775 9.3247l6.1137-4.6666zm-190.54 1.1111c-3.5723-1.7676 1.9903 5.7131 0 0zm84.519-.44444c15.956-16.145-21.129-11.092-30.855-12.62-14.49 1.668-36.225-7.9003-44.071 8.79 13.563 9.3202 35.05-.075 51.768 2.8357 7.7063.32225 15.623 2.926 23.158.99383zm463.26 0c1.7307-5.2706-4.3552 4.9774 0 0zm64.408-2.4963c7.9787-8.1192 28.083-16.876 26.386-24.603-15.37.19835-26.799 15.273-36.795 23.677.3913 6.0284 8.1601 6.4098 10.409.92654zm-240.65.99633c17.63-10.621 34.953-22.82 52.796-33.866 39.555-28.533 81.834-55.349 121.37-85.968 6.3144-4.254 32.469-16.057 24.019-21.333-21.798 10.699-42.036 27.34-62.73 40-18.533 10.293-36.134 22.529-52.859 35.865-19.345 11.061-38.171 22.297-56.006 35.424-18.699 8.8888-36.415 28.046-60.046 24.568-21.939 2.3744 18.788 8.466 26.65 6.7657 2.563.0543 4.7031.50937 6.8019-1.4554zm178.25-1.8334c-1.5264-2.8905-1.6631 2.7591 0 0zm-545.33-4.8093c-6.9278-6.6425-5.3026 7.5975 0 0zm549.33-.52402c-1.5264-2.8905-1.6631 2.7591 0 0zm-199.33-4.3079c26.464-10.258 49.14-29.181 73.6-43.161 31.161-16.859 57.992-40.047 89.066-57.115 15.313-10.982 32.91-21.059 47.505-32.106-8.0026-12.527-29.525 11.846-41.754 15.6-36.414 20.631-70.231 45.2-107.04 65.571-19.421 10.866-36.422 23.81-57.05 32.716-15.494 14.437-35.913 17.237-55.895 11.697-39.263-4.5768-71.908-26.853-103.91-46.894-25.888-15.43-50.972-34.433-80.979-41.347-33.409-12.756-74.472-4.192-100.19 19.961 5.1464 9.0224 27.473-14.359 40.731-13.011 43.599-10.822 86.216 11.01 121.48 34.454 37.143 22.063 73.185 47.582 116.95 53.861 18.826 3.9903 38.801 4.3688 57.48-.22476zm248.67-.35874c-3.8142-.89989.013-.44781 0 0zm-45.333-1.3333c-3.8145-.90046.013-.44718 0 0zm-75.333-4c1.7308-5.2707-4.3553 4.9774 0 0zm-520.64-2.6667c3.4705-17.728-19.579-10.19-27.027-1.6419-11.913 6.7282 29.207 3.804 27.027 1.6419zm523.97.66666c-1.5265-2.8905-1.6632 2.7591 0 0zm-585.57-4.7404c6.4285-15.832-23.26 13.605 0 0zm297.32.43587c-9.8638-3.3753-28.726-11.58-36.839-13.874-37.155-11.849-74.441-36.736-114.15-29.304 13.833 4.9469 35.929 9.699 52.642 15.811 23.937 8.7848-17.021-2.0825-25.173-5.4346-20.29-2.8229-44.476-12.344-63.208-1.5875-4.6552 16.295 24.039-4.4449 34.313 4.1817 50.404 13.095 101.94 22.906 152.86 32.512zm426.77-1.5309c10.537-7.9335 24.348-20.703 32.544-24.498 10.52-4.9212 17.61-30.029-2.7263-16.561-14.713 13.264-31.131 21.698-44.324 36.227-2.5882 10.422 9.159 10.69 14.506 4.8312zm-282.46-.51861c21.228-10.476 39.292-20.868 60.579-34.223 27.258-15.021 53.404-32.456 80.298-48.284 25.178-16.716 51.949-30.183 77.064-47.139-19.543-3.9029-33.711 14.823-51.063 21.169-40.001 24.939-80.098 49.599-120.86 73.517-12.17 8.4939-24.843 15.476-38.195 21.682-42.946 16.677-89.517-5.5957-125.57-29.141-31.43-20.894-63.105-43.789-99.481-55.069-30.726-7.8117-66.446-8.0052-93.498 10.195-2.1726 20.662 23.476-5.6018 34.979-4.5354 38.895-6.2661 75.886 10.363 108.72 28.583 23.37 15.169 48.165 30.034 71.585 43.598 23.922 16.498 63.804 25.462 95.44 19.646zm-337.75-4.4514c-7.5277-1.4069-1.3155 2.7954 0 0zm207.25-3.5008c-21.855-12.789-42.144-27.676-65.068-36.281-29.828-15.812-65.221-25.658-98.715-20.549-14.047 4.671-34.468 9.1691-37.778 25.257 17.463-4.1541 33.096-18.128 52.928-13.981 35.295-2.986 68.475 13.297 99.738 27.511 15.632 8.2911 32.835 16.712 50.533 19.682zm-540.23-3.0269c-1.5264-2.8905-1.6632 2.7591 0 0zm796.7-3.0758c-5.1232 1.1723-5.2563 4.7922 0 0zm125.96-.2575c-3.8145-.90047.013-.4472 0 0zm-586.46-9.2022c-10.099-17.2-15.312 23.635.46003 2.1311zm345.6 3.3408c39.297-20.838 76.317-45.727 114.54-68.354 22.592-13.231 45.9-27.099 69.029-40.851-54.255-3.9618-105.08-28.655-151.96-54.267-28.176-10.791-56.681-25.282-88.452-21.333-30.964-.15797-59.519 13.218-85.791 26.667-42.213 20.756-84.118 43.996-126.55 64.85-12.343 6.7 26.609.75142 35.313 7.6554 23.318 5.4859 44.46 15.198 61.89 28.829 44.543 27.875 90.55 65.717 146.78 62.521 9.5227.98611 17.273.0571 25.195-5.7169zm118.86 3.1948c1.7308-5.2707-4.3553 4.9774 0 0zm-803.28-10.451c7.3066-18.105-19.87-14.595-26.57-27.755-8.1087-16.057-24.078-6.7104-15.954 9.293 10.608 12.19 26.469 22.647 41.023 28.134.50023-3.2241 1.0005-6.4481 1.5007-9.6722zm847.94 9.7841c-1.5265-2.8905-1.6632 2.7591 0 0zm-40.667-2c1.7308-5.2707-4.3553 4.9774 0 0zm141.33 0c1.7309-5.2708-4.3553 4.9774 0 0zm-137.33-2.6667c1.7308-5.2708-4.3553 4.9774 0 0zm42 .66666c-1.5265-2.8905-1.6632 2.7591 0 0zm76.667-2c1.7307-5.2707-4.3553 4.9774 0 0zm32.159-3.3642c4.8119-7.9473 36.271-19.552 12.384-19.375-14.854-9.3733-30.001 17.421-16.794 22.739l2.3317-1.7785zm-631.03-2.3449c13.233-22.983-18.747 1.874-1.3165 1.1312zm489.04.70911c6.2013-7.4949-10.964 8.3578 0 0zm-585.54-8.6667c3.7568-26.202 12.898-51.193 18.265-77.041-6.5163-4.3954-15.447-38.042-21.535-21.581-10.154 34.944-16.854 70.888-27.64 105.62 10.613-4.5591 33.298 11.49 30.911-7zm699.62 4.0833c-2.2482-7.5118-.077 11.776 0 0zm-64.911-.41667c-1.5265-2.8905-1.6632 2.7591 0 0zm67.556-5.5556c-3.5722-1.7677 1.9901 5.7132 0 0zm-98.889-1.7778c1.7308-5.2707-4.3553 4.9774 0 0zm-506.77-2.5558c7.8913-16.157-23.399-3.1695-5.5399 2.5558 2.9761 1.3918 3.9562-.80326 5.5399-2.5558zm552.77-.26829c-4.7513 2.1312-1.1735.14308 0 0zm-41.333-.50929c-1.5264-2.8905-1.6632 2.7591 0 0zm50.667-6.8482c-7.9766 3.1364-10.479 9.4557 0 .66666zm-574.93 3.2482c8.7554-16.745-26.162 9.0648 0 0zm-312.64-.73333c7.6556-13.658-14.299-16.659-21.666-25.727-3.1301-15.526 7.4194-33.181 10.591-49.397 4.9652-8.4879 23.386 19.784 29.31 5.5893-8.4693-12.05-27.892-16.926-38.555-29.466-8.4746 9.5383 6.4627 17.86-7.203 17.511 10.062 15.705-8.0933 9.5569 2.0648 25.156-9.6752-2.306-6.555 13.308-7.827 19.279 1.2152 5.6242-12.022 10.927 6.497 24.491 9.3785 1.3467 18.111 15.325 26.788 12.563zm302.39-6.0457c-1.8457 2.2123-18.389-10.107-11.718 1.4676 3.9921 1.4626 13.78 10.52 11.718-1.4676zm539.4 6.1568c-6.1329-1.7956 1.7312 3.9367 0 0zm-743.11-9.7576c6.7231-38.5 21.143-75.977 25.292-114.94-6.5848-9.5477 25.458-13.943 24.878-30.015 9.5495 6.6776 23.699 1.9067 34.715-3.7118-3.1316-9.3346-12.359-31.299-24-25.349-9.7186 5.6706-32.15 6.2565-34 19.775-6.7075 13.486-21.743 21.905-25.795 40.483-9.8064 21.025-3.4329 46.729-20.205 64.93 3.2008 19.124 9.694 38.268 14.717 56.811 4.3434 1.3102 2.6373-5.767 4.3973-7.9799zm825.86 7.1743c-7.5278-1.4068-1.3153 2.7953 0 0zm-76.972-2.5278c-1.5264-2.8905-1.6632 2.7591 0 0zm82.667-1.3333c-1.5265-2.8905-1.6633 2.7591 0 0zm-598.5-2.9302c13.408-16.593 9.6831-43.166 10.202-63.998-4.1644-33.757-17.637-65.413-42.852-88.5-26.878-29.522-62.01-49.383-88.118-79.75-8.9518-16.376-27.715-31.923-28.552-50.519-12.34-10.324-3.3601-34.136-16.203-38.969-8.0696 7.21 3.0191 29.477 7.939 40.674 11.038 31.281 35.581 56.404 57.445 79.992 28.868 30.125 63.121 57.867 83.726 93.431 16.33 31.973 25.931 72.787 8.0589 106.16.80127 7.2386 4.1985 1.829 8.354 1.4759zm-10.263-2.4983c9.5931-18.265 3.5612-41.639.88199-61.238-16.761-49.785-47.743-93.466-86.98-128.43-17.303-21.505-10.91-2.0345 2.4625 9.4016 24.613 27.995 45.583 58.183 63.064 91.569 10.648 26.224 22.309 55.137 15.278 84.459-2.5066 6.163.14712 9.1582 5.2933 4.2381zm598.38-4.5714c-2.2494-13.199-1.6231 12.777.1612 1.0985zm-962.95-5.3333c-6.6215-.77179-.30141-.57843 0 0zm388.94-3c14.003-31.097 10.053-69.716-2.2167-101.24-13.06-30.569-36.978-56.978-65.83-72.718-24.275-10.698 2.5898 16.395 10.556 18.295 41.771 35.661 67.657 92.709 55.485 147.53-.74327 4.4336-5.7738 16.852 2.0066 8.1365zm-33.21-3.9333c5.5733-23.668-10.152-48.119-18.135-70.399-11.089-17.587-16.94-37.038-31.053-52.303-20.338-29.756-45.226-53.796-68.409-81.07-22.596-23.814-39.394-52.488-54.316-82.089-10.015-15.573-7.025-29.648 12.686-31.658 20.758-5.7573 39.282-16.099 59.812-23.547 7.9826-.39302 40.906-19.382 24.683-3.2988-18.052 13.136 18.156 3.732 25.181-1.4663 27.671-13.03 57.627-19.652 84.683-34.057-11.748-6.3306-29.423 7.0526-42.517 11.35-15.99 4.9956-31.201 10.85-47.014 15.471 3.1878-5.9656 14.279-6.8182 26.641-11.249 16.61-8.0926 37.337-13.396 52.026-21.656-14.919-5.9145-30.626 9.7593-46.356 11.418-7.0319 2.8554-45.443 17.022-28.11 6.6507 14.252-4.6855 31.992-9.0599 18.295-21.315-26.365 3.0851-.63043-9.9065 12.459-10.32 15.417-7.3209 32.413 9.4881 47.616 7.7064-8.3115-11.83-12.23-34.93-30.213-21.979-46.074 13.907-92.501 27.395-138.9 40.053-30.932 11.522-65.208 16.484-94.82 28.476 13.609 12.493 33.941-3.1563 49.218-5.7173 29.992-10.294 61.222-14.252 90.314-27.264 17.707-4.416 38.238-4.7662 10.122 1.5011-33.471 13.122-68.196 19.192-100.96 33.987-9.1622 2.4494-41.004 3.959-29.684 15.95 29.727-10.063 61.411-18.295 91.017-30.441 27.195-2.8196 52.737-11.664 77.788-22.468 6.8087.5047-21.07 11.376-29.284 14.406-24.964 8.6363-49.83 14.487-74.686 24.261-18.939 2.1946-38.537 17.283-56.238 16.887 3.016 40.769 33.939 71.834 53.343 105.11 9.3046 18.075 22.652 34.828 36.126 49.622 24.046 16.45-.12675-12.929-8.9422-19.924-8.2156-10.843-19.745-23.717-24.904-34.155-10.101-17.816-22.611-38.761-30.309-59.543-8.3701-9.2534-18.652-27.55-11.743-37.232 23.973-2.9509 46.221-18.652 70.182-20.058-20.078 7.8865-39.846 16.987-60.333 22.969-7.6669 11.965 6.9972 29.466 9.8117 43.051 9.0637 22.052 20.723 43.451 35.187 62.044 14.124 20.319 30.622 38.948 48.894 56.285 33.656 32.178 59.107 71.604 76.648 114.58 5.6727 13.936 7.5238 28.618 9.4118 43.028 1.6866-.30957 4.0319.9703 4.7814-1.6009zm-117.17-343.83c27.529-7.7611-24.046 10.856 0 0zm11.343-4.6021c10.589-6.3312-7.3361 7.7489 0 0zm67.431-32.68c5.1522-5.4534 5.85 3.0785 0 0zm646.22 381.82c-6.133-1.7956 1.7312 3.9368 0 0zm-922.3-9.292c4.5992-26.37-18.531 8.1529-1.7088 7.6359.56962-2.5453 1.1392-5.0906 1.7088-7.6359zm303.54 5.4841c1.2508-37.741-22.679-70.955-41.882-101.8-6.8052-7.3198-20.236-34.048-28.245-23.756 18.134 20.686 33.491 42.885 44.704 66.83 11.714 18.439 15.859 39.872 20.779 60.268 1.1207 3.0265 5.7549 2.6323 4.6444-1.543zm620.54 1.3634c-1.5265-2.8905-1.6633 2.7591 0 0zm-545.48-23.227c20.085-11.402 40.997-20.645 60.808-32.081 19.868-7.6049 38.228-21.225 58.525-29.415 24.156-14.172 51.477-23.231 74.225-39.154 5.0613-11.411 8.584-38.278-10.3-24.018-17.58-4.3122-25.775 4.735-41.23 11.477-11.347-4.0055-11.588-23.278-15.219-33.782 5.4342-19.046 8.6993-24.385-14.16-17.643-12.43-2.4886-28.97-.76402-41.973-8.8233-.49709 13.124-10.044 22.967-12.258 37.069-6.666 18.629-26.336 5.5882-36.396-2.4628-9.6829-3.331-15.936 19.975-31.163 13.461-11.896 13.702-26.552 3.5789-29.029-10.77.91058-18.18-10.564-24.94-8.2876-39.02 15.702-21.858.76822-15.456-10.965-23.871-5.5441-5.0554-29.042-6.2849-18.592-22.674 7.8875-11.481 17.235-23.402 28.563-31.212 15.083-3.0378 30.509-8.2758 46.109-8.1858 16.605-2.4912 18.847 17.586 30.507 21.211 16.026-4.7805 31.392-12.315 48.205-13.989 10.692-17.378-7.5139-27.932-17.419-39.733-16.947-7.0067-30.695-22.587-39.38-38.497-.37117-20.841-13.409-22.955-29.094-11.774-33.051 10.092-65.031 23.291-97.333 35.403-23.884 10.884-49.666 16.903-72.741 29.096-21.143.45443-24.308 19.235-14.615 34.812 10.604 36.916 43.414 64.152 76.023 82.459 24.777 14.766 52.19 28.611 67.849 54.218 27.718 31.111 34.213 75.482 29.184 115.97 7.6718-.4942 13.991-3.6606 20.158-8.0706zm-361.19-1.4458c-4.5029-16.95-38.781-12.359-11.248 1.07 4.022 1.2081 12.867 8.5589 11.248-1.07zm270-3.984c-11.951-38.101-34.626-74.01-62.993-102.07-22.172-13.799 1.5057 12.482 6.5525 20.059 10.965 19.464 24.775 37.199 36.124 56.582 3.8034 1.3416 24.121 43.622 20.316 25.429zm-208.67-4.6768c-1.5264-2.8905-1.6632 2.7591 0 0zm844.89-.22222c-6.133-1.7955 1.7314 3.9367 0 0zm-842.58-9.25c-7.5277-1.4069-1.3155 2.7954 0 0zm7.0278-7.1944c7.033-22.57-26.588 5.5556-.59303.59303zm-68-13.375c-1.9634-14.412-25.485-22.222-36.955-31.609-14.013 10.677 9.4456 23.336 17.356 31.172 5.5152 3.6679 23.791 16.99 19.599.4374zm66.532-2.9582c3.4588-12.496 13.88-47.53 13.15-40.183-14.862 8.224-21.67 26.818-21.015 43.183 2.7113-.90343 8.2596 2.3908 7.8654-3zm404.13-11c-1.5264-2.8905-1.6632 2.7591 0 0zm-478.31-15.624c-5.8138-6.2226-26.142-30.827-19.859-9.2742 1.6739 4.9036 27.106 21.978 19.859 9.2742zm735.65-2.297c-4.457-10.45-3.2326 6.9589 0 0zm-6.595-9.5215c-.98774-13.518 21.58-28.668 17.348-35.89-15.786-2.2933-21.449 26.314-30.753 22.34-3.8195-16.38-18.388-30.319-20.474-47.406-7.6546-20.639-5.8218-43.8.86418-64.57-14.204 4.9422-16.672 22.223-18.931 33.636-15.973-8.4362-24.068-31.481-30.898-46.667-5.9502 14.718 7.7693 32.439 14.772 45.408-24.245-6.586-20.494 7.7015-.7012 11.926 15.109 12.042 32.239 26.642 33.136 48.183 4.2094 3.4368-29.474-8.9337-11.575 7.591 11.373 8.903 16.017 23.977 32.844 25.615 4.9798-.32054 14.64 11.57 14.368-.16541zm32.141 1.6444c11.922-9.005 16.884-19.45 27.608-28.498-.9785-13.057 24.521-23.002 14.009-34.205-14.918 1.6505-22.469-16.639-36.742-10.339-8.8491 14.704-27.971 2.465-35.139 15.312-10.967 9.4389-11.49 41.707 5.2954 22.035 8.1257-11.505 41.733-4.8578 15.637 1.9732-9.6738 6.7428-26.776 27.663-11.548 35.347 7.0892 2.2145 14.358 2.4113 20.88-1.6255zm-682.36-7.0982c1.2229-19.596-28.781-6.6471-41.482-9.7689-12.677 4.0239-40.139-7.4713-42.327 8.6628 7.539 11.907 29.51 3.108 42.339 5.4745 12.567-2.5991 33.424 4.1638 41.469-4.3684zm-92.603-8.1033c-2.1595-23.722-10.817 13.466 0 0zm698.02-3.7451c-14.391-3.9377-17.661-26.945.57202-25.255.76471-9.1426-13.641-31.854-22.283-24.464-2.3755 21.541-28.312 27.307-44.89 20.464-10.977-3.8574-30.056.87672-33.733-15.462-18.547-4.7399-22.223 28.018-12.716 37.73 17.723 3.3604 37.789-10.102 56.903-3.6098 21.468 1.2855 41.946 8.9954 61.417 16.009-1.7569-1.804-3.5137-3.6079-5.2706-5.4119zm-583.09-1.3455c15.039-3.0079 6.141-23.435 22.664-23.674 8.7206-6.3507 37.946-7.4757 24.147-21.944-13.239-6.4912-26.963 9.3512-39.341 14.512-8.9091 11.433-20.752 24.784-25.66 31.173 1.5743 8.3206 13.364 2.0102 18.19-.066zm-101.51-.57602c-1.5264-2.8905-1.6632 2.7591 0 0zm68.667-4c-8.1542-9.3942-33.794-1.3026-48.645-4-27.068-2.9808-9.8278 15.055 7.5734 8.3592 11.047-2.8701 37.601 5.3252 41.072-4.3592zm496.67 4c-1.5264-2.8905-1.6632 2.7591 0 0zm-570.84-4.1105c15.708-18.913-23.952-20.014-7.0285.33125 1.6487 2.5681 7.4443 5.0738 7.0285-.33125zm724.9-1.8008c-7.8732-6.8387 1.9658 8.2455 0 0zm-713.92-11.151c-5.3685-1.2634 2.7259 12.477 0 0zm48.404.59603c-4.2166-12.146-18.93-24.592-33.512-22.868-4.7624 21.38 4.522 28.536 25.355 23.999 2.2645-.89278 6.9768 1.6214 8.1569-1.132zm665.48-11.868c.69572-9.0021 15.107-44.35 17.492-27.989-.46922 18.316 29.689 4.9626 21.066-11.456-8.7243-2.0619-10.514-21.161-23.516-16.268-7.3513 15.491-18.024 17.859-24.884 33.352-9.546 9.602 2.8643 47.554 9.4726 24.089zm-711.91 4.526c-3.328-10.888-4.8635-37.273-20.777-18.314-1.783 9.5206 13.127 24.387 20.777 18.314zm516.49-3.0318c7.5669-21.536 17.939 8.8398 30.428-6.4613 14.506-7.9689 15.537-24.224 20.872-37.336 7.0446-20.471-12.162-21.356-25.9-13.112-9.9066-.55764-26.423 24.779-25.226 15.458 6.0738-13.912 16.909-26.441 30.559-32.377-1.7523-15.999-27.032-4.697-34.786 3.2948-15.497 11.357-11.622 22.092-13.734 33.182-7.0154 14.998-4.2613 29.275 6.4799 40.777 2.8132 2.3833 8.3676-2.1323 11.307-3.4266zm-535.93.83913c-3.6679-6.2331-1.9931 5.3004 0 0zm363.13-1.5998c9.1745-9.1645 26.598-1.5966 25.908-22.465-.28082-7.8218-11.214-30.719-17.77-20.741-8.7984 12.496-14.774 27.032-15.258 2.1344-2.5194-9.3947 14.899-34.835-3.9237-29.412-7.4696 6.9825-22.242 26.255-9.0863 32.355 1.3498 8.5078.64846 24.83 7.2305 36.521.29443 6.27 9.9158 5.588 12.899 1.6073zm291.12-8.01c17.571-4.1148 18.056-26.795-.24862-30.032-11.339-7.4828-29.433 1.448-36.667.35327 5.3061-13.007 22.515-17.773 35.729-14.202 9.4854-9.8086-16.925-17.91-24.806-21.174-18.721-1.9031-25.596 12.72-30.986 23.934-10.524 5.1985-18.422 34.75-.21249 29.696 13.304-4.5017 2.1059 14.94 22.275 11.685 15.561-13.381 11.826 11.242 28.482 2.6294 2.3815-.15509 4.1856-2.2536 6.4329-2.8899zm-630.25 1.6098c-5.2868-6.642-5.8673 6.1277 0 0zm71.782-3.9775c16.084-8.7361 39.18-16.759 49.552-28.288-2.5171-13.892-25.013 8.0667-35.924 9.2413-8.7212 6.4048-36.363 10.331-24.581 24.358 3.8042-1.0063 7.2828-3.7204 10.953-5.3108zm333.98-1.6386c1.6602-17.796 11.108-20.229 12.615-36.209-4.1246-13.244-2.5315-28.425-6.8498-40.107-12.918-9.9228-25.965 15.024-28.384 26.698 2.092 23.998-7.7322 12.709-9.1294-4.6752-.0745-24.438-21.546 10.835-15.766 20.187 13.367 6.3158 7.0167 16.409 15.839 29.723 12.316-2.9644 22.177 17.557 31.676 4.3839zm-291.17-4.6195c25.115-5.0062 9.899-25.962-5.9205-8.4006-26.517 6.4324-11.721 22.896 5.9205 8.4006zm575.64 2.68c-3.5723-1.7676 1.9903 5.7132 0 0zm-652.42-2.91c22.021 5.7242 19.295-24.88-1.4058-17.405-12.095 3.0886-38.473-6.1664-40.123 8.7372-3.5941 17.273 32.1 6.9917 41.529 8.6673zm657.48-8.3989c-4.172-14.643 29.416-24.562 12.334-27.457-11.952 3.1423-31.417-10.793-24.864 12.076.6088 6.4376 7.8536 38.862 12.531 15.382zm-46.393 1.9755c-3.5723-1.7676 1.9902 5.7132 0 0zm-603.75-18.722c17.45-15.216 4.2836-40.599-1.1415-58.389-1.6193-19.89-27.424-35.95-44.266-22.178 11.903 24.654-14.476 48.956-3.185 74.103 7.7844 15.229 36.021 13.001 48.592 6.4646zm6.4141 2.7217c-3.5723-1.7676 1.9903 5.7131 0 0zm21.64-5.3594c8.3295-9.2926 29.032-9.6397 32.904-18.651-7.2431-19.147-26.406 8.0378-40.616 6.61-18.283 7.96-5.5746 25.517 7.7121 12.041zm274.47-4.5316c21.35-13.29-7.8369-26.301-11.57-4.1946-3.778 15.503 2.3756 17.151 11.57 4.1946zm134.88 4.6723c11.589-8.2973 15.682-27.448 30.94-34.133-1.0402-17.949-25.415.24602-31.411 7.7488-19.458 9.6773-16.39 1.6513.54834-6.161 6.17-12.661 28.25-26.797 2.0848-28.377-14.797.088-28.653 4.0403-33.144 19.041-12.333 11.612-10.883 27.648-14.687 37.493 13.091 3.4547 26.463-.30757 37.428 6.4121 3.0523 1.0421 5.503-1.2952 8.2404-2.0231zm138.43-4.0313c-7.5277-1.4069-1.3155 2.7954 0 0zm-187.93-9.9884c-5.7053-12.671 8.9211-23.61 14.74-35.846 8.8628-19.776-19.043-13.486-27.402-6.1393-3.9619 12.454 1.4322 30.316 2.4501 44.8 1.4578 12.765 4.9877-2.8185 10.211-2.8148zm141.62.84227c-12.131-23.789-8.6878 18.691 0 0zm-194.67-1.214c3.0715-19.379 16.191-33.691 31.763-42.662 9.6358-6.7666 42.495-16.308 15.608-16.949-33.056 9.0563-65.622 21.069-100.42 20.485-13.287 4.9342 26.194 6.1145 35.051 5.2734-15.071 3.3349-33.074 5.0552-46.113-4.7358 16.549-10.209 46.023 6.0736 57.574-15.282-8.1229-12.36-28.699-12.364-40.369-9.5747-13.363 4.1013-34.616 4.9109-39.83 22.433-18.308 10.435-9.3477 23.809 7.4094 22.227 11.193 16.846 31.63-5.5802 43.995 5.936 12.27 3.6513 37.667-10.725 25.736-21.423-23.901 2.9626 32.069-10.705 15.27.2584-8.2178 6.7346-12.027 39.222-5.6728 34.246zm333.4-.90251c-.21909-15.071 23.134-2.8626 29.218-15.844-11.663-16.321 6.9956-9.0281 12.471-28.096-2.5439-18.808-31.835-4.6601-31.625-19.284-20.19-5.2635-52.432 14.349-47.703 39.588 9.4416 3.1763 32.127-14.706 13.892 5.5859-16.456 20.189 10.961 25.363 23.746 18.049zm-652.49-1.5151c-2.2478-7.5131-.0776 11.778 0 0zm487.88-3.0833c15.503-4.2963 30.427-2.7294 44.49-10.706 19.123-1.7768 21.493 1.7656 9.9876-16.824-15.611-10.068-40.455-11.975-52.343-30.206-9.2455-6.1659-13.461-41.708-17.735-16.606 7.817 14.95 23.804 36.979-4.6784 25.979-15.042-2.0214-28.042-14.695-43.244-12.971 2.1343 13.634 43.268 15.911 23.619 24.202-23.751 16.062-4.0663 12.344 12.054 5.4586 21.939-6.0718 48.588.69154 65.724 12.801-14.388 7.8607-42.02 3.6452-52 22.204 4.7877-.20977 9.4219-2.4153 14.127-3.3333zm173.43 2.4444c-6.1329-1.7956 1.7312 3.9368 0 0zm-65.25-3.9167c-7.5278-1.4069-1.3155 2.7954 0 0zm-573.33-2.5704c23.25-7.0317.72815-26.022-5.479-38.291-5.7433-7.9854-15.868-30.126-24.124-10.892-7.7398 16.712 9.6778 31.812 9.0227 48.791 6.1941 3.2263 14.38 3.5986 20.58.39227zm546.36-1.9574c-2.172-6.8727-10.427 6.5897 0 0zm36.667.66666c-1.5265-2.8905-1.6632 2.7591 0 0zm-3.2499-6.7637c7.4854-14.88 14.659-43.768-4.9352-51.241-15.511 4.8686-.55913-21.361-13.066-27.179-1.6817-13.349-20.745-21.482-23.311-4.2406-16.53 10.598-15.424 32.668-8.8894 48.757-17.015-2.5398-4.8486 23.29 1.6487 29.685 16.007 15.663 17.514-.56608 12.856-14.804 1.9473-25.171 6.8834-18.657 11.286 1.6275 3.5321 6.178 17.716 34.585 24.412 17.394zm5.9166 2.7637c-1.5265-2.8905-1.6632 2.7591 0 0zm4-3.9213c-4.2023-6.7219-3.6113 3.7718 0 0zm-110.46-2.8728c7.4226-14.723-27.273-18.155-28.206-5.8726 10.604-.34464 16.543 13.586 28.206 5.8726zm-403.5-3.2636c-8.3974-16.659-22.932-35.462-23.132-57.213-1.7512-19.364 25.157-18.649 37.924-26.022 29.076-9.531-5.5238-11.03-17.494-.67702-13.44 3.3437-25.926 11.979-38.092 15.97 1.4355 22.32 16.786 41.033 28.029 59.416 3.6264 2.5776 7.8106 14.304 12.765 8.5268zm358.85-2.1646c-3.5723-1.7676 1.9903 5.7132 0 0zm53.778 1.6342c-2.5592-5.8036-7.5547 4.1455 0 0zm-50.667-6.0787c5.3847-6.3764-12.92 3.9504 0 0zm-65.333-14.745c-3.2592-6.1892-3.8038 8.6517 0 0zm46.667.74536c-1.5264-2.8905-1.6632 2.7591 0 0zm178.62-8.9408c-8.008-18.642-12.608-14.356-6.6203 3.6074-2.7268 13.304 5.1061-1.8348 6.6203-3.6074zm-185.73 3.3852c-3.5723-1.7676 1.9903 5.7132 0 0zm-18.556-1.1667c28.799 2.7008 2.4112-9.5018-6.3507-18.359-9.711-23.419 17.31 5.6198 29.412.30463 8.5864-.71373-4.5642-26.032-7.1007-36.506-11.967-.20187-22.181-9.5606-34.133-4.6586-12.35-18.963-24.385 2.8023-20.151 17.371 6.156 14.363-6.544 27.684 8.7034 38.406 8.7359 6.4107 19.594 3.7196 29.621 3.442zm-431.67-3.9444c-1.5264-2.8905-1.6632 2.7591 0 0zm490.21-4.0575c3.3784-7.5239-10.759 5.7376-.78953 2.0575zm156.59-3.4989c17.937-2.0872 16.603-19.932 10.568-32.674-9.5794-8.2328-13.538-23.952-24.592-29.769-12.953 5.8632-10.839 22.745-26.087 24.851 3.1235 10.45.25765 38.962 17.632 27.361 6.3835-30.62 6.571-4.707 11.186 9.7724 2.3261 4.0889 7.9696 1.5528 11.293.45952zm-163.81-1.4436c7.4364-10.69-4.9142-36.118 13.009-39.667-.56124 15.267 2.3686 37.186 19.962 41.181 15.814-10.174 2.757-28.319 10.416-40.612 11.164-18.525-11.349-21.777-10.411-38.448-4.4204-15.214-28.955-4.383-32.634 7.1204-16.268-10.128-22.623 16.902-20.172 29.02 2.7454 12.579-11.798 22.809 3.242 34.903 4.3067 3.2075 11.06 11.35 16.587 6.5017zm-486.99-1c-3.0529-5.781-3.3263 5.5182 0 0zm469.33.66667c-1.5264-2.8905-1.6632 2.7591 0 0zm218.67-2.6667c-1.5265-2.8905-1.6632 2.7591 0 0zm-375.11-1.5556c-6.1329-1.7956 1.7312 3.9368 0 0zm-297.3-5.2909c-4.5217-20.263-32.027-14.473-48.253-15.09-22.605 1.7184-22.34 26.39 2.5278 17.259 14.557-1.4631 33.648 2.7607 45.726-2.1694zm98.171-18.336c-.9609-7.3258-6.9203 6.5197 0 0zm-120.42-31.484c-4.1047-21.485 6.1983-28.986 4.7065-46.916-.86396-18.581.80614-38.927-13.706-52.733-8.8792-13.451 15.956-22.037 4.486-35.377-2.5431-16.193-12.426-26.305-17.77-4.4734-4.8122 15.353 15.292 30.55 1.1449 43.881-17.755 6.2927-17.057 24.735-16.585 40.768-6.1868 11.704 1.6549 36.714 10.391 17.517.83801 22.065-2.2237 45.221.82405 66.667 22.504 4.8694 31.829-3.4388 26.509-26.393v-2.9326zm124 28.667c-1.5265-2.8905-1.6632 2.7591 0 0zm343.43-8.3441c-4.9768-3.4355 3.1482 22.35 0 0zm-70.844-.15393c-8.9516-1.1716-2.3069 8.2525 0 0zm-389.03 1.6092c-6.1329-1.7956 1.7312 3.9368 0 0zm136 0c-6.1329-1.7956 1.7312 3.9368 0 0zm256.44-2.4444c-1.5264-2.8905-1.6632 2.7591 0 0zm-197.91-17.333c27.185-8.3579 53.435-22.063 81.048-29.255 21.215-2.4736 23.871-20.55 1.4015-8.0656-25.748 10.316-51.439 17.934-76.68 29.318-13.193-.66153-36.145 17.742-10.305 10.155l2.6494-1.2572zm-171.42.66666c-6.1017-6.4938-6.1227 5.1577 0 0zm123.56-.88889c-3.5723-1.7676 1.9902 5.7131 0 0zm-149.33-17.333c-3.5723-1.7676 1.9903 5.7132 0 0zm233.24-40.638c7.867-9.6788-11.451 8.8057 0 0zm4.54-3.1393c-1.5265-2.8905-1.6632 2.7591 0 0z"/>
</svg>
