<?xml version="1.0" encoding="UTF-8"?>
<!-- Created with Inkscape (http://www.inkscape.org/) -->
<svg version="1.1" viewBox="0 0 1229.3 310.67" xmlns="http://www.w3.org/2000/svg">
 <g>
  <path d="m26.145 307.87c-.90521-14.172-1.1174-28.046-9.4264-39.957-3.5305-9.3789-8.721-19.507-16.719-22.58-3.1539-16.574 6.2247-24.536 4.066-40.37-.24422-65.695-.48845-131.39-.73267-197.08 12.51-5.2483 29.901-6.4646 40.25-1.327 13.327-2.6914 31.467-6.6171 42.036 3.4471 1.7265 17.769 21.964 5.9723 33.314 12.48 13.218-4.0239 26.527-3.6943 39.814-1.7642 12.067-3.7217 31.875-4.514 32.749 11.832 9.3261 16.127 15.301 33.005 12.505 51.848v78.842c12.551-14.805 14.513-34.804 25.101-51.522 10.41-23.657 19.621-47.776 32.233-70.591-1.2415-19.697 18.424-17.467 30.744-9.864 8.3458-10.382 25.143-7.1916 39.014-7.5312 63.08-.33239 126.16-.66479 189.24-.99718 16.858 5.8897 2.9649 23.629 11.41 36.227 6.2326 13.686-17.611 6.0657-8.0492 26.387 11.285 20.601 12.843-2.1236 11.308-14.415 1.142-21.797-.97624-44.973 2.1361-65.937 19.176-8.7749 40.818 1.9686 60.579-3.6622 11.019 1.6125 35.069-5.7137 30.283 12.377-1.3148 17.875 1.5189 29.438 21.64 25.791 13.732 4.5189 29.949-6.5873 42.248 3.8316.86858 39.914-.68579 82.261 1.6876 120.66 12.843-17.046 23.124-38.486 36.643-56.327 7.4706-17.588 22.275-28.8 28.666-47.004 17.622-12.665 31-36.708 54.123-38 12.461 6.7025 24.742 14.465 32.926-2.3298 11.537.36279 25.67 13.38 30.733-4.1155 11.614-6.0739 27.342.50957 34.593-12.318 23.406-8.5992 48.701 1.2036 72.954-4.2402 20.413-.97078 18.044 15.983 17.75 31.305 10.436 3.3891 27.353-.64921 37.37 5.3113 19.099-8.1123 41.612 4.5401 59.43-4.6856 8.4574-14.159 15.226-35.898 35.904-30.73 12.572-.68773 32.342-2.1078 26.666 16.172 5.3481 6.5367 24.907-5.8207 35.724-.27122 14.936-2.0338 23.029 9.5702 18.921 23.544.028 60.786.057 121.57.085 182.36 16.897-8.6065 17.206 25.614 1.6793 21.333.5088 8.828-6.5622 14.871-9.0003 24.635-2.6516 14.269-19.46 17.779-14.072 33.993-2.2668 13.497-26.727 3.4668-37.743 6.5954-346.8.22967-693.61.2941-1040.4.66086-29.903.39644-59.807.79289-89.71 1.1893l-.52141-2.4795zm825.19-3.8331c109.45-.56227 219.03.98652 328.4-.89885 21.383-9.3932-12.971-12.879-24.142-10.316-374.53.68298-749.07.16259-1123.6.51061-5.4992 20.383 21.114 8.5966 32.939 11.626 262.13-.48993 524.26-1.0003 786.39-.92189zm-816.67-15.37c-1.5264-2.8905-1.6632 2.7591 0 0zm6.6667-.66667c4.6371-6.2845-10.358 4.892 0 0zm17.333-.80932c-5.1516-3.7077-6.2972 5.9778 0 0zm15.639 1.3371c-8.6124-1.3054.20582 2.6156 0 0zm299.92-.0833c-6.1329-1.7956 1.7312 3.9368 0 0zm15.111-.44444c-3.0529-5.781-3.3264 5.5182 0 0zm29.333 0c4.6371-6.2845-10.358 4.892 0 0zm16.889.44444c-6.1329-1.7956 1.7312 3.9368 0 0zm9.7778.22223c-1.5264-2.8905-1.6632 2.7591 0 0zm21.333.0787c-2.5592-5.8036-7.5547 4.1455 0 0zm15.744-.84536c-4.9902-5.6723-3.7661 6.5925 0 0zm13.589.76667c-1.5264-2.8905-1.6632 2.7591 0 0zm94.667-.66667c-3.8143-.8998.0125-.44789 0 0zm21.333.66667c-1.5264-2.8905-1.6632 2.7591 0 0zm72.667-.66667c1.7308-5.2707-4.3553 4.9774 0 0zm233.64.52778c-8.6124-1.3054.20585 2.6156 0 0zm14.583-.0833c-6.1329-1.7956 1.7312 3.9368 0 0zm49.96-1.4948c-12.174 1.4846 4.8436 2.7269 0 0zm-892.54.2448c-8.6124-1.3054.20582 2.6156 0 0zm16.361-.48594c-1.1604-3.4652-7.8539 3.5859 0 1.2915zm31.556.4026c-6.1329-1.7956 1.7312 3.9368 0 0zm45.778.22222c-1.5265-2.8905-1.6632 2.7591 0 0zm30.667 0c-1.5265-2.8905-1.6632 2.7591 0 0zm30.667 0c-1.5265-2.8905-1.6632 2.7591 0 0zm282.67 0c-1.5265-2.8905-1.6632 2.7591 0 0zm16 0c-1.5265-2.8905-1.6632 2.7591 0 0zm76.889-.22222c-6.1329-1.7956 1.7312 3.9368 0 0zm237.78-.4026c-1.1604-3.4652-7.8539 3.5859 0 1.2915zm16 .62482c-1.5265-2.8905-1.6632 2.7591 0 0zm77.333 0c-1.5265-2.8905-1.6632 2.7591 0 0zm16-.66666c-6.6215-.77181-.30141-.57843 0 0zm28.889.44444c-6.1329-1.7956 1.7312 3.9368 0 0zm30.667 0c-6.133-1.7956 1.7312 3.9368 0 0zm80.778.006c-12.137-.57696 3.203 2.108 0 0zm-835.67-3.5958c6.505-16.602-17.349-11.044-5.491 1.7726 1.9612 3.2637 4.534.70875 5.491-1.7726zm4.6672 2.4788c-1.5264-2.8905-1.6632 2.7591 0 0zm43.591-3.1434c11.271-8.5052 15.26-31.613-5.258-25.235-21.168-7.4684-14.564 15.862-4.5284 24.712 3.7773 5.1155 5.5023 6.0544 9.7864.52328zm578.3-5.6283c-6.6032-17.1-12.135 21.594.49851 3.8394 3.0282-1.3687.55035-2.5842-.49851-3.8394zm35.445 8.7716c-1.5264-2.8905-1.6632 2.7591 0 0zm125.33 0c-1.5264-2.8905-1.6631 2.7591 0 0zm16-.66667c-3.8142-.89988.013-.44779 0 0zm-1024.6-10.602c-12.688-16.636.23 27.162.35103.77845zm19.521 4.9354c14.277-13.228 7.3782-28.656-12.041-22.333-18.778-3.5974-2.4093 21.29 5.0252 27.603 3.3832 2.3094 4.7991-3.6903 7.0153-5.2693zm12.934 2.5279c8.5977-17.63-16.749-7.1282-3.7289 3.1396 1.9038.48058 2.3256-2.4636 3.7289-3.1396zm14.849 1.4297c12.228-6.2178 20.433-33.247-.66485-26.762-19.842-6.4107-15.506 13.863-6.5867 23.55 2.1157 1.8907 4.1136 7.7566 7.2516 3.2128zm18.667-4.6991c-2.7983-19.448-15.443 5.2072-1.8764 4.4751 1.893-1.3638 2.4301-2.0972 1.8764-4.4751zm16.856 1.0465c11.499-7.6693 13.508-31.124-5.5225-23.863-20.465-6.8099-14.7 16.26-5.1062 25.062 4.0408 7.1435 6.4905 3.6008 10.629-1.1991zm13.212 1.8185c6.4998-16.539-15.144-8.6618-3.5687 3.5432 1.8961.35767 2.0608-3.0553 3.5687-3.5432zm92.565 1.5836c3.3939-21.871-14.353 5.2234-.008.01zm20.195-5.2437c13.216-12.615 4.2301-26.779-13.229-20.908-11.655 3.4724-39.016-8.993-37.601 7.7414.96856 11.946 13.577 25.107 20.783 12.911 10.248-15.863 2.8962-24.758 11.993-2.8509 6.1646 7.2908 11.303 16.688 18.054 3.107zm31.807 1.2355c12.084-9.7514 8.6944-29.411-9.6751-22.032-20.644-5.331-8.6797 17.95-.93044 25.803 2.8066 6.4582 8.0826-1.4689 10.606-3.7712zm11.765 4.3677c5.6722-24.095-16.889 3.1182 0 0zm32.087-.6989c1.3671-21.294-16.778 5.9247-.0492.0878zm14.137 1.464c9.043-5.1668 20.593-31.927 1.2408-27.165-17.348-4.9758-24.609 5.1932-12.532 18.76 3.1221 2.4793 6.1402 11.841 11.291 8.4056zm18.042-5.4187c-4.6179-21.83-14.574 16.225 0 1.8403zm19.114-.76434c9.3306-9.1567 7.9444-27.188-8.7638-20.982-19.41-7.0051-13.808 16.237-3.9265 23.745 3.5936 7.9622 9.7348 1.9139 12.69-2.7628zm12.842 1.8546c-10.44-27.2-12.915 19.912 0 0zm18.213-1.7273c12.757-13.247 6.429-27.226-12.484-21.109-18.178-4.2793-4.7983 19.934 2.3889 26.125 2.3655 4.8503 8.1441-3.3376 10.096-5.0158zm26.831 4.2992c7.1969-5.2077 17.946-27.358 2.0654-25.409-15.226-4.3203-25.894 3.9028-15.732 18.433 4.2238 2.6258 8.2515 14.74 13.667 6.9752zm16.333-3.4112c-5.2746-18.947-15.118 8.6585-2.4502 3.8068.33277-1.4837 3.6575-1.6398 2.4502-3.8068zm33.289.18262c-7.2566-20.597-16.33 15.362.0442 1.5133zm30.637-.84665c-10.426-20.109-10.76 18.862.0147.66666zm46.972 1.4661c14.524-12.125 6.819-28.421-11.63-22.654-17.881-3.7195-4.4424 21.747 3.9378 26.484 2.9347 4.415 5.4601-2.2406 7.6922-3.8299zm13.769 2.5339c3.7516-20.062-17.015 3.9006-.71314.78801zm16.864-2.3333c11.612-7.504 14.589-29.966-4.785-23-21.916-6.8706-14.495 15.777-3.9781 24.375 2.7412 7.1091 5.4255 2.0578 8.7631-1.3752zm13.342-3.747c-10.454-8.2407-2.4017 19.63.55634 1.221zm17.644 3.9641c9.9672-8.0035 13.526-29.361-5.5168-22.93-19.582-7.4263-14.932 15.166-5.1327 23.38 3.954 6.4468 6.4571 4.913 10.649-.44961zm14.103-1.757c-1.225-20.325-15.564 10.003-2.403 4.3441.60706-1.5315 3.9996-1.864 2.403-4.3441zm18.551 1.8553c11.519-8.4109 11.147-30.276-7.2875-23.315-22.605-6.8448-13.015 19.415-1.2929 26.659 3.1503 4.1858 6.5286-.83632 8.5804-3.3438zm13.282 1.5796c5.7736-19.836-17.387 2.5042-1.1822 1.2584zm25.48-15.986c9.6723-15.511-34.358-7.8978-27.919-5.9092 1.6883 10.268 12.78 35.372 21.768 16.794 3.5317-3.018 5.4766-6.254 6.1514-10.885zm5.2124 16.091c4.8046-19.289-16.238-4.9813-2.4965 3 1.7919.5973 1.6726-1.9862 2.4965-3zm16.854.0964c11.812-9.9366 15.202-32.556-6.5109-25.096-19.343-5.9321-11.459 18.765-1.6762 25.192 2.1436 4.523 5.4639 2.8477 8.1871-.096zm16.668-4.9734c-5.3634-18.937-15.989 10.864-2.4838 4.614.41454-1.6811 3.3427-2.492 2.4838-4.614zm29.183-3.6696c-6.9016-13.76-10.481 24.945 3.183 5.1201-1.061-1.7067-2.122-3.4134-3.183-5.1201zm87.44-3.8959c9.4573-18.075-20.918-13.854-27.619-10.106.0407 9.759 14.185 34.484 22.581 18.332 2.6869-2.2223 4.3328-4.7998 5.0382-8.2258zm30.166 3.1622c10.25-17.165-5.1299-16.663-18.453-14.386-18.233-2.7775.65053 21.252 7.7968 26.526 3.7994-2.9298 8.9555-6.8251 10.656-12.139zm37.911 9.0838c3.8888-23.412-15.928 4.777-.70575 1.0771zm33.26-1.8447c-2.1462-22.192-15.752 12.21-.67737 1.7652zm237.05-3.436c15.013-13.784 1.6409-23.942-14.615-19.024-13.164 1.0212-2.3766 20.992 3.7788 27.556 3.7304-2.706 7.6554-5.1528 10.836-8.5323zm-1163.2 5.0022c11.42-5.9636 18.369-31.122-1.7996-24.525-20.002-6.5442-11.562 15.154-6.0387 25.098 3.0178 1.5352 5.3082 2.4823 7.8383-.57244zm129.99-3.6843c13.735-13.394 9.4039-28.286-10.853-22.174-19.022-3.7939-5.3065 20.975 2.2627 27.554 4.2424 2.6527 6.0448-2.9673 8.5908-5.38zm13.328 3.4013c3.0088-21.017-17.365 3.0924-.49402.54589zm31.984-.4408c.51552-26.893-20.34 12.626 0 0zm217.47.7701c5.4691-19.547-16.977 2.6353-.30366.30365zm50.244-2.9048c14.835-12.499 6.9737-28.052-11.883-21.667-18.879-4.087-5.211 19.959 2.9485 25.258 3.2352 4.4792 6.6183-1.346 8.9346-3.591zm33.038-1.15c12.841-9.8227 6.8452-27.779-10.196-21.183-18.653-5.7164-9.2175 17.316-2.1796 24.826 3.941 6.4958 9.5272.32762 12.376-3.6425zm28.321 2.4833c11.956-9.4168 11.243-29.197-7.5-23.832-20.566-6.7648-10.123 17.854-1.0491 24.548 2.1234 4.9416 6.3962 3.1348 8.5491-.71635zm13.717 2.8574c7.2437-20.787-22.473-.43885 0 0zm207.1-4.9695c10.638-7.1792 11.894-27.513-5.8355-20.888-19.846-6.6634-17.054 12.453-6.056 21.669 5.155 7.5441 6.8768 5.4662 11.892-.78128zm29.68 1.3387c11.207-7.0898 12.594-28.912-5.3333-22.227-18.689-6.7529-14.43 13.696-5.2617 21.675 4.2417 6.0254 5.6258 6.5566 10.595.55129zm13.575-5.5259c-7.8775-16.131-8.1863 22.654 2.1306 4.7007-.71021-1.5669-1.4204-3.1338-2.1306-4.7007zm17.227 5.645c10.528-7.5802 12.676-29.232-5.6393-22.346-19.32-6.7606-13.36 14.503-4 22.333 4.1715 5.9587 4.9985 5.1744 9.6393.0123zm15.864-1.1428c-2.4235-19.215-16.994-1.0562-5.0681 5.637 1.2106-2.0293 5.227-3.022 5.0681-5.637zm29.626-3.3245c-16.28-10.504 6.4898 20.711.42087.52746zm50.091 4.4128c14.053-13.649 3.6079-28.735-14.795-22.291-12.904 2.2477.29221 23.451 9.0772 26.667 2.7102.6886 3.7325-3.2111 5.7177-4.3754zm30.527.0421c10.791-8.0475 10.89-29.342-6.9118-22.333-22.183-6.8066-12.95 17.293-1.9106 24.946 2.8014 4.6477 6.7349-.0405 8.8224-2.6129zm32.486-.66667c11.575-8.2941 11.773-28.775-6.7309-21.667-23.591-6.1588-12.201 15.875-2.9533 25.927 3.793 3.1682 7.3254-1.3572 9.6842-4.2608zm12.378 2.1202c.17784-21.242-12.845 9.1846-.11205.42849zm15.646 1.4996c4.957-4.022 16.54-27.825 1.9362-25.286-16.885-4.1622-26.372 3.5184-15.263 19.218 4.2066 2.1416 7.9624 10.828 13.327 6.0687zm15.073-1.0952c4.379-18.839-17.535-9.5447-3.767 2.4755 1.9898.82945 2.6062-1.4366 3.767-2.4755zm21.991-9.5245c12.493-18.342-11.7-14.986-23.902-14.667-3.8046 11.184 14.592 37.6 22.38 17.169l1.3167-2.1648zm9.9274 9.6144c5.8639-17.814-18.517-6.838-3.619 2.3359 1.9058.87318 2.5123-1.322 3.619-2.3359zm16.723-2.4204c15.794-12.325 7.203-28.841-12.065-21.861-15.914-1.5062-1.8988 22.728 5.7608 26.615 2.4624-.0183 4.1626-3.6396 6.304-4.754zm14.621 2.6222c3.418-23.063-18.533-1.9705-1.222 2.1837zm17.462-2.8162c10.426-7.676 12.715-28.876-5.8801-21.667-18.305-6.9608-16.282 13.451-6.2102 21.51 4.6479 6.538 7.0166 6.5842 12.09.15639zm13.064-5.7028c-16.374-13.572 3.0465 26.238.7715 1.2937zm23.766-1.3909c11.435-16.774-7.0383-16.639-19.579-14.672-14.146-.0759 1.2926 23.262 10.096 26.443 3.1795-3.9119 7.6891-6.8916 9.483-11.77zm7.8843 3.0263c-12.737-13.53-2.6669 21.958.997 1.9986zm22.209-2.5061c14.793-18.765-11.647-16.479-24.142-14.904.1016 8.934 9.9125 32.059 18.955 21.712 2.2644-1.7926 3.4092-4.5876 5.1866-6.8081zm7.8961 9.5281c3.0449-19.338-14.237 5.0719-.079.0957zm-981.31-4.2879c11.108-7.8202 12.234-28.666-6.0642-21.667-17.79-6.5758-17.14 13.005-7.0284 21.667 3.2519 7.2082 9.2477 6.3677 13.093 0zm325.94-25.72c228.22-.47826 456.44-.36646 684.67-.51472 2.0875-16.373-23.837-5.1248-34.669-8.5496-107.55-.13732-215.11-.27465-322.66-.41198 8.9596-6.2823 29.63-.8389 43.074-2.6318 109.2-.029 218.4.60275 327.59.16164 6.2095-21.588-20.186-10.492-32.939-13.073-369.95.99121-739.91 1.9015-1109.9 1.5982-24.176.20999-48.353.41999-72.529.62998-5.4079 20.284 21.219 8.1801 32.937 11.15 168.67-2.3805 337.35 1.5444 506.03-.63519 100.9-.42437 201.81-.84875 302.71-1.2731-2.8367 7.1545-27.825 1.8861-39.409 3.8218-210.21.2635-420.46 1.1408-630.66.14026-12.779.1301-28.791-2.3524-38.962.56053-31.568.15753-64.046.76584-95.977.41433-3.5945 2.831-35.932-2.349-24.133 9.6284 168.27-.32902 336.53-.73307 504.8-1.0153zm-478.85-134.08c-.88136-35.35 1.5006-71.52-1.3753-106.37-5.4251-4.9699-32.464-6.9788-33.116 2.236.68786 69.847-1.6195 139.85.93703 209.6 12.484-3.4708 39.762 7.2536 33.712-14.002-.05261-30.488-.10523-60.977-.15784-91.465zm-19.487 62.503c34.052-.42416-11.032 1.7636 0 0zm-5.3553-7.8352c7.2461-9.6931 33.558 2.4039 5.1273.7299-1.4831-.82263-4.1851 1.4794-5.1273-.7299zm1.1798-12.51c23.063-3.8327 16.85 3.7322-2.6258 1.1426-1.3608.0443 1.9899-.80725 2.6258-1.1426zm2.7726-91.537c-1.6555-7.9855 17.609.1942.93035.93035zm-7.597-14.33c2.423-8.0965 33.408-1.9944 16.266 1.8445-4.1439-1.4345-15.689 2.8671-16.266-1.8445zm-4.2243-11.627c-3.4653-8.2294 31.09-8.2474 24.891-.15194-8.1172-.40316-17.273 2.3831-24.891.15194zm192.22 180.81c-1.5264-2.8905-1.6632 2.7591 0 0zm58.688-15c2.5699-12.63-5.1778-30.848 4.3012-39.83 15.365-4.4503 18.877-13.638 15.629-29.106-1.2358-19.164 16.472-11.928 8.0545-31.512 5.5048-21.492-8.6607-2.8789-11.338 8.125-17.663 33.785-30.027 68.947-43.324 104.66 7.3001 2.6517 34.17 9.7294 26.678-9.3354l-9e-5-2.5338zm33.312 12.193c-10.466-2.0418 7.9978-13.195-15.216-4.2706-24.562 5.1246 13.286-15.71 13.978-9.4361-5.7737-1.1428-35.558 7.7041-23.55 15.847 9.9853-5.0338 16.026 4.9927 24.788-2.14zm-10.667-1.1933c1.5264-2.8905 1.6632 2.7591 0 0zm147.31 2.6589c27.991-.27554 55.982-.55109 83.973-.82663 4.3642-10.754 5.1097-34.261-13.174-27.642-68.607.93565-138.03-.084-206.13 2.0605 7.1078 12.665-1.4161 33.988 20.296 27.648 38.345-.55931 76.693-.83765 115.04-1.24zm-112.64-10.58c1.1337-26.827 5.0943 19.993 0 3.6779v-2.5337zm10.667-2.0787c-.35403-27.131 8.1465 17.281 0 6.7996v-6.7996zm12-.66667c2.1833-31.489 4.0504 28.17 0 2.3988zm155.32 8.3333c-.61842-32.542 5.4801 2.0698 0 0zm10.473.64443c-5.5681-18.078 5.4815-19.332 2.209 1.0222-.82513-.0672-1.7098.0491-2.209-1.0222zm-425.46-17.644c1.6662-62.148.29023-124.59-.94408-186.64-4.075-9.8345-33.476-10.771-34.241 1.3749.92985 68.302-.9929 137.12 1.7193 205.1 5.8048 3.0106 35.149 8.3213 32.812-5.4263.21792-4.8022.43583-9.6044.65375-14.407zm-24.998-19.337c20.304-3.5663 17.765 2.2526-1.3333.46028zm.33333-8.3763c-7.047-7.5511 35.444-.93174 7.14.12164-2.3786-.0621-4.8248.92295-7.14-.12164zm-3.6667-12.286c10.988-4.7234 37.717 1.8872 11 1.313-1.0153-.95912-18.147 1.8251-11-1.313zm8-107.91c-27.023-.99491 15.78-9.4448 11 1-3.6045-.68791-7.3501-.58969-11-1zm-3.8965-10.644c-23.21-2.2404 17.564-10.803 15.896 1.2173-5.3162-.21116-10.619-.52132-15.896-1.2173zm59.241 178.52c1.7534-63.293.66046-127.03 1.3225-190.5-9.6486-6.9604-38.226-7.5655-31.359 11.802.54776 60.107-.61371 120.68.99996 180.5 7.1972.75295 23.441 2.6724 29.036-1.8028zm-23.344-5.8521c12.097-8.5611 28.213 4.3907 3.5205 1.8862-.76731-1.0349-5.3325 1.728-3.5205-1.8862zm-1.0236-9.0553c10.998-6.6575 32.977 1.5467 7.2541 1.4291-1.3685-1.1724-10.08 2.7767-7.2541-1.4291zm7.8855-57.251c-10.206-11.297 11.147-23.954 4.9262-10.474 9.2456-6.5198-7.6615 18.583-4.7494 13.471l-.14924-2.5294zm-3.472-27.474c-11.834-4.7613 5.1892-13.228 6.6122-4.3401.64356 7.3403 7.0363 8.1063-6.6122 4.3401zm4.6101-54.989c31.497.30759-23.217 2.5758 0 0zm-6.6667-9.344c15.216-5.0522 20.661 3.742 0 1.3333zm6-6.6667c-22.398-3.2935 31.037 1.1896.44487.04922zm477.73 171.73c9.7402-18.689-16.269-12.249-27.067-12.933-20.882-.37359-9.1214 22.832 7.6525 14.533 5.9713-1.2826 14.679 2.452 19.414-1.6zm277.71.26667c2.9565-48.032.38934-96.35 1.177-144.49-7.9068 3.1159-12.653 20.146-19.892 28.242-10.81 13.688-16.611 28.355-27.909 42.117-11.493 20.529-26.381 38.707-36.944 59.671-15.664 17.236.22737 15.281 16.433 14.132 22.787-1.3471 44.66.33265 67.031.99907zm351.89-8c3.8904-16.946-22.737-10.443-33.175-10.054-19.918-3.2472-20.494 27.983.3771 19.387 9.8361-3.2685 38.229 8.3087 32.798-9.3334zm-1056.3-89.03c.11403-32.121.22807-64.242.3421-96.363-8.1485-2.4687-32.63-8.155-29.102 6.9938-.39552 62.163-.89332 124.33-.24918 186.49 15.572-.30444 35.812 3.9539 28.73-18.493.093-26.209.18609-52.418.27914-78.627zm-22.457 90.292c2.8853-9.003 34.04 1.1004 5.4316.91604-1.7746-.44675-4.0916 1.2398-5.4316-.91604zm-2.2222-9.5956c8.8377-5.5432 35.62-.32887 9.9649 1.6667-1.4307-1.4897-12.793 2.6627-9.9649-1.6667zm7.226-52.556c-2.3472-13.902-12.098-20.027 1.7385-23.789 6.0828-14.628-20.81-.43391-5.6027-18.684 8.0795 1.913 8.6856 10.108 6.9156 23.12 3.9219-.38526-6.1736 17.193-3.0514 19.353zm2.4444-85.778c-3.5528-4.6725 18.43 2.3216.33875.14557zm-5.6667-11c16.985-6.1917 20.97 4.9791-.55555 1.6667zm-3-8.9416c12.84-6.5571 30.13 1.8633 4.4968 1.2075-.83164-1.0977-5.7735 2.0868-4.4968-1.2075zm56.231 77.942c-.14528-32-.29057-64-.43585-96-9.2538-10.565-33.393-5.0313-26.498 12.215.76252 60.176-.57478 120.41 1.6011 180.55 15.248.29564 32.685 2.7076 25.688-18.496-.11845-26.088-.23689-52.176-.35533-78.264zm-20.231 88.236c16.555-6.536 24.53 5.7965 0 1.7644zm5.6667-7.1895c-20.352-3.9314 27.073-4.2848 5.6667.53275-1.8889-.17758-3.7778-.35517-5.6667-.53275zm1-56.379c1.242-5.8967 1.3483 5.6101 0 0zm-3.6669-10.894c-14.062-16.965 15.104-8.7221 3.8479-.46355-.80874 10.231-.47825 10.347-3.8479.46355zm5.0003-11.106c1.5265-2.8905 1.6632 2.7591 0 0zm1.5439-4.6667c.42046-10.582 1.3525 11.071 0 0zm-6.5439-3.1466c-9.3324-11.465 5.1884-18.673 5.8496-2.7826.59051 4.4332-2.3598 5.9551-5.8496 2.7826zm0-57.915c-10.938-5.6292 25.129-3.028 3 .4572l-2.5048-.38173zm-.66666-10.57c34.052-.42416-11.032 1.7636 0 0zm-3.6667-6.3052c14.837-7.3318 23.046 4.2098 0 2.0636zm27.556 174.38c-3.5723-1.7676 1.9903 5.7131 0 0zm342.7-60.778c-.63628-20.405 1.5993-43.671-.78705-62.333-9.675 7.6934 2.3568 28.012-5.1564 32.405-14.756 3.758 3.2031 28.986-8.2303 31.325 6.3422 10.705-1.7909 25.384 1.8876 36.207.82443 10.965 4.4556 40.093 12.064 17.129.0742-18.244.14831-36.488.22246-54.732zm90.851 58.506c4.1798-16.45-16.933-8.6477-21.847-11.778-19.489-4.6322-20.975 24.447-.20019 16.042 5.834-2.1304 22.486 4.0702 22.047-4.2639zm32.948-7.005c1.9418-53.583-.59793-107.33-.41278-160.98-9.751-6.8251-34.92-7.3593-28.305 10.766-.23911 53.914.0236 107.82 1.7622 161.71 10.792-2.697 31.434 7.9426 26.956-11.499zm-21.052 2.5803c-6.516-7.6742 33.49-2.131 8.0916.77433-2.6958-.27296-5.5148.32374-8.0916-.77433zm5.8153-43.748c-10.344-11.542 6.6733-21.988 3.7669-10.449-3.0304.77205-3.3014 21.74-3.7669 10.449zm-3.1486-22.595c-10.16-9.4388 14.643-.52126-.51267-19.375-6.0807-6.9281 11.631-3.2778-.44371-18.934-5.245-7.5233 10.422-2.0142 2.1606-21.762 8.6048-17.636-1.2211 30.794 6.6494 15.437 3.3421 1.7993-11.92 28.849 1.8131 19.896-8.8054 10.826-2.2688 24.174-.10988 21.273-3.9921 3.4954-4.7802 13.882-9.5568 3.4653zm-3.6667-75.26c14.222-7.0789 20.714 4.7067 0 1.1888zm7-7.8809c-23.555-4.5213 28.566-3.2028 1.9409.11174zm44.436 78.403c-.75105-31.298 1.8157-62.767-1.4359-93.935-15.005-5.2707-30.207-.72348-24 17.738v156.28c15.195.39055 32.182 2.5224 25.356-18.49.0265-20.532.0531-41.065.0796-61.597zm-21.103 71.121c-7.3307-6.9143 34.861-2.4552 9.2668.51268-3.084-.18984-6.3244.76533-9.2668-.51268zm7.2667-47.819c-8.5635-13.732 5.6025-14.824-5.6-24.839 16.028 4.0596-8.3652-24.612 3.2-15.798 9.9747-8.5569-12.254-23.152 2.0482-20.759-7.4225-19.962 5.3033-23.929 1.3769-1.5929 12.323.71745-.96941 4.4505.0415 20.204 16.956-6.2516-2.6397 3.5469 0 15.323 19.397-4.5308-5.5917 6.3861 1.1703 16.157 14.523-9.189-3.8674 7.8513.16326 16-4.1393 1.1465-1.8683-2.3473-2.4002-4.6972zm-3.6-95.303c1.0101-5.7143 36.335 4.0664 0 0zm-2-9.2149c12.834-6.0603 24.538 3.0113 2.7103 1.2149.3367-1.6451-4.2576 1.6409-2.7103-1.2149zm242.35 122.55c.58225-53.793.53697-107.59.79818-161.38-8.0597-4.9283-34.69-7.0061-32.384 8.3183.15019 63.591-1.6743 127.99-.30336 191.08 9.8686-2.0166 36.491 8.1084 31.632-10.152.0859-9.2885.17175-18.577.25762-27.865zm-23.685 26.809c16.655-9.0507 22.478 5.1859 0 1.1907zm3.4543-80.81c-11.26-7.8142-1.6696-35.741 12.321-24.336 2.1432 9.2119 5.6726 29.584-8.9875 27.67l-1.7916-1.7916zm4.7905-10.897c1.9708-3.2542 13.597 6.8276 3.3419-12.436-13.708-5.6097-9.0616 26.46-3.3419 12.436zm-9.5781-62.805c10.929-8.1483 29.038 2.0687 4.2181-.29817-.92963-.59371-5.2993 3.8173-4.2181.29817zm2.6667-10.846c15.702-6.055 20.557 3.7475.00086 1.2149zm-2.2561-10.031c18.701-5.9021 21.401 2.1943-.46866 1.4205zm66.494 102.91c-.79683-43.472 1.6295-88.171-1.6696-130.88-10.052 3.6933-36.01-8.7053-33.188 8.9555.33717 68.745-1.8272 137.55.17202 206.25 12.725-3.0724 40.58 8.9783 34.721-12.669-.012-23.888-.024-47.776-.0361-71.665zm-24.238 70.333c16.608-7.5843 25.063 5.7207 0 2zm-5.3333-13.295c9.3176-6.9011 36.314 2.2651 8.3582 1.7531-2.1155-1.1-9.6903 2.8021-8.3582-1.7531zm8.9703-144.33c50.714-1.2493-11.841 1.9638 0 0zm-4.9703-10.371c13.682-7.5589 28.055 4.6186 2.8234 2-.56636-1.0415-4.8945 1.6789-2.8234-2zm-1.8774-9.8017c1.7686-4.7733 36.191-1.7706 13.32-.19834-4.199-1.5109-10.741 2.0508-13.32.19834zm71.126 88.705c-.95338-36.714 1.6429-73.767-1.565-110.27-10.309-1.1478-30.59-6.7341-35.532 3.2288-1.217 70.039-.18272 140.09-.15209 210.13 11.162-3.8458 38.431 8.3859 37.429-7.6012-.0601-31.832-.12019-63.664-.18028-95.495zm-26.253 88.097c20.172-7.482 24.376 5.3331-.5511 1.6667zm-1.2753-8.1162c-.26205-7.0646 35.104-4.5389 16.28.36179-4.774-.91936-12.667 2.5944-16.28-.36179zm4.6483-148.53c32.006-.60874-9.151 1.6927-.65474.05881zm-5.0352-10.367c8.7434-7.0131 35.031 3.4132 8.1329 2.0113-2.0409-1.2095-9.5118 2.5172-8.1329-2.0113zm-1.3333-11.322c10.241-4.9607 36.006 2.3085 8.7996 1.3333-2.0489-1.0327-9.1534 1.9676-8.7996-1.3333zm73.002 191c-7.9063-3.9107-25.397-.87813-37.002.0465 5.99 4.0666 28.961 2.4739 37.002-.0465zm37.665.42796c-3.5385-4.8537-41.914-3.1767-28.488 1.9054 8.4746-1.39 23.366 2.7095 28.488-1.9054zm36-.0946c-4.1673-2.8714-29.873-5.3399-29.176 2 8.6986-1.4261 23.948 2.775 29.176-2zm42.527-88.333c-.4927-40.827-.01-82.42-.5265-122.78-9.7255 2.0959-34.504-8.2852-35.385 5.736.3318 69.12-3.6005 138.33.3282 207.37 10.595-3.9286 37.604 8.4752 35.991-7.6011-.1359-27.577-.2718-55.155-.4077-82.732zm-15.194 77.307c-24.325 1.033-5.9136-9.844 8.3401-5.6404 8.7892 7.9275-2.9369 5.6748-8.3401 5.6404zm-2.6111-9.3021c-25.324-2.0465.779-9.2836 12.271-3.818 7.3685 8.7345-8.0112 2.5709-12.271 3.818zm-5.4437-151.09c6.2327-8.9495 20.062 3.3009.8788 1.422zm-1.9452-12.514c14.837-7.3318 23.046 4.2098 0 2.0636zm-2.0228-7.4338c9.4044-6.0004 32.606 2.122 5.2385 1.158-1.4689-.90207-4.8527 1.7599-5.2385-1.158zm-911.81 180.02c8.3786-21.703 19.148-41.423 26.719-63.485 14.693-29.687 26.314-60.652 40.38-90.629 10.285-11.468 2.0474-25.608-12.531-24.535-8.8727 10.472-11.22 28.93-19.408 40.807-10.144 20.473-18.272 42.562-28 63.199-10.694 21.192-17.171 44.446-28.546 65.839-13.054 11.855 12.909 29.045 18.611 15.442.92441-2.2129 1.8488-4.4258 2.7732-6.6388zm-10.727-.0568c-26.5-12.375 20.757.7707 1.8211.69509zm.95443-8.0659c-18.27-10.204 20.225 3.7638 1.8337.53029zm26.12-55.102c1.3781-12.575.008-21.832 12.474-20.757-4.109 10.036-12.255 10.048-12.474 20.757zm13.741-25.423c.58296-15.437.69662 13.938 0 0zm-6.3505-4.3538c-8.8083-14.833 18.056-8.707 2.7572.97958-.99876-.0701-2.1476.3428-2.7572-.97958zm25.091-48.471c-17.023-11.04 22.805 4.5154 1.899.54833zm2.48-8.6971c-13.882-12.819 27.75 8.8203 0 0zm2.5408-7.2211c-14.665-8.0891 24.132 4.0506 4.6459 2.5901-1.5486-.86338-3.0972-1.7268-4.6459-2.5901zm491.64 161.24c15.205-21.13 27.249-44.643 42.439-66.003 16.312-24.504 32.073-50.044 47.232-74.874 7.0166-7.8685 14.158-21.875 21.333-32.11-5.7967-7.6064-26.589-19.201-32.698-4.1246-6.9611 12.508-15.579 22.831-22.405 35.805-15.451 23.333-32.124 49.243-45.384 71.136-14.606 20.285-25.394 41.515-39.513 62.495 2.763 8.968 24.983 25.914 28.996 7.6743zm-10.256-7.2068c-19.489-10.225 13.045-3.2509 4.5934 3.2394-1.5311-1.0798-3.0623-2.1596-4.5934-3.2394zm44.281-75.292c-9.0077-11.515 9.1569-33.059 20.979-20.369 1.3823 10.703-11.268 25.152-20.341 21.115zm15.553-10.533c11.525-14.724-16.351-14.264-14.569.86978 9.6774-4.0927 5.9068-1.0988 9.2356 4.383 2.8456-.54895 3.7123-3.3133 5.3333-5.2528zm25.093-49.68c-14.803-11.597 19.017 4.1683 1.2867.46996zm6-8.6429c-17.926-11.162 6.3814-4.1322 8.476 2.7503 2.7817 6.1262-7.1778-2.0932-8.476-2.7503zm6-8.8732c-20.558-11.771 23.289 6.6087 0 0zm-123.77 158.02c9.1123-16.542 18.252-33.296 30.772-47.277 2.3697-17.584 20.634-28.989 26.883-45.383 10.024-14.273 18.961-31.115 29.836-46.819 5.6056-9.6487 20.625-23.165 15.443-33.298-9.5952-9.8572-27.916-12.984-30.83 4.2981-29.073 44.537-58.128 90.512-86.497 135.79-4.3523 11.013-23.579 25.337-5.8818 33.083 6.2184 6.358 17.163 12.747 20.273-.39932zm-11.774-6.9735c-21.656-13.714 19.355 1.9393 4.547 2.5372-1.5156-.84572-3.0313-1.6914-4.547-2.5372zm41.261-73.222c-6.6165-12.951 5.7693-31.917 20.233-23.292 4.6648 11.055-2.6397 20.746-12.484 25.871-2.6828-.74785-7.3933 2.0246-7.7485-2.5791zm15.038-7.3073c16.195-12.969-10.883-22.445-13.751-5.9301 2.7097 9.0408 12.162-7.319 8.472 9.1498 2.5829 1.0258 3.4663-2.2823 5.2794-3.2197zm38.915-60.082c-24.564-13.991 10.707-1.8639 1.7033.79356zm1-11.405c-19.899-12.683 22.107 6.865 1.0357.46021zm217.36 162.45c21.173 6.9159 10.466-18.182 12.595-30.391 4.3191-16.993-3.8062-27-21.358-22.844-19.194-2.4023-15.171 16.094-15.295 29.338-.9482 15.684-4.1912 31.38 16.096 23.75 2.6541.0488 5.3081.0975 7.9622.14628zm-738.03-7.9378c12.518-10.199-15.115-6.9746-20.971-1.6839.85743 3.5065 30.458-7.2756 5.9706 2.2352-21.471 12.467 9.499 3.0387 15-.55124zm788.37-1.509c-2.5988-13.505 5.7801-33.291-4.1553-42.495-13.205 2.2228-24.016-4.7308-28.303 8.6973 1.7019 13.529-3.686 34.098 2.287 43.386 9.8164-3.281 35.251 8.4073 30.171-9.5889zm35.963-16.942c1.3574-15.42 2.9094-34.852-18.766-27.705-20.018-3.4698-11.763 19.443-12.954 31.182-2.9916 17.511 2.5907 28.403 21.62 23.074 17.887 4.948 7.25-16.318 10.1-26.551zm-544.19 15.277c-4.5024-10.411-34.987 4.2121-9.2947 1.2651 2.8476-.82326 7.0373.8119 9.2947-1.2651zm594.85-.10794c-5.1516-3.7077-6.2972 5.9778 0 0zm-621.78-.0796c-6.1329-1.7956 1.7312 3.9368 0 0zm41.778.22222c-1.5265-2.8905-1.6632 2.7591 0 0zm23.667-.17371c12.03-11.712-35.514-3.0976-8.3333.80155 2.8302-.0936 5.6561.44924 8.3333-.80155zm577.98-2.7568c25.102-2.7894-5.0148-11.297-15.028-3.0463-8.5089 8.1958 11.729 2.871 15.028 3.0463zm-904.5-5.0695c18.66-5.4952 10.428-12.304-1.1482-5.8336 19.837-10.3 4.9961-5.2499 11.206-14.833-17.696 9.3836-14.096 7.0552-.46918-2.7974-5.5445-3.8087-14.643 7.4243-2.5293-6.773-4.9326 4.6-27.383 13.984-15.158 12.407 12.787-10.296-16.112 18.118 7.1981 4.9672-13.072 9.0782-1.2763 12.762-3.9639 11.189-15.906 5.5717-4.464 9.3274 4.8643 1.6741zm2.8518-13.333c1.5264-2.8905 1.6632 2.7591 0 0zm589.33 17.333c-1.5265-2.8905-1.6632 2.7591 0 0zm332 0c-1.5265-2.8905-1.6633 2.7591 0 0zm-644-3.8818c13.206 6.4089 30.945-6.3154 10.626-10.092-10.922 1.9378-33.912-6.1346-30.796 12.126 6.722-.56771 13.412-2.1815 20.17-2.0335zm618-4.5792c9.5072-5.7673 26.393 5.3549 30 1.2607.5894-15.594-23.177-12.523-33.99-9.976-14.412-2.8663-20.734 22.894-4.477 10.468 2.7029-.90383 5.6825-1.081 8.4668-1.7523zm-950 4.4611c-1.5265-2.8905-1.6632 2.7591 0 0zm464.91-2.25c-1.9346 3.6198-.20622-.0151 0 0zm-88.244-.41666c10.753 3.5001 29.613.0561 12.457-8.0391-10.236 1.2711-33.619-7.3674-30.457 10.251 5.9164-1.9842 11.778-2.6257 18-2.2119zm-414-2.6667c-1.5265-2.8905-1.6632 2.7591 0 0zm254-1.8563c23.26-.8294 47.37 1.7548 70.106-.209 7.3953-12.082 1.5232-31.751-16.477-24.945-67.956.56508-138.68-1.5226-204.92.68939 7.5867 8.8784-1.1355 31.095 15.423 25.871 45.288-.54594 90.572-1.8881 135.87-1.4057zm-127.44-3.3653c-3.1338-30.601 8.94-2.8718 0 0zm21.842-8.111c3.8897-28.368 3.944 26.84-.0332 1.0684zm164.46 7.7408c-6.5161-27.584 11.422-8.7617 0 0zm-176.85-7.7415c.62966-39.371 4.5683 33.139 0 0zm168 6c1.242-5.8967 1.3483 5.6101 0 0zm.33624-7.3333c.47008-15.809 1.1367 15.337-.001.26592zm63.997 7.3515c20.654-.57042-9.6096-11.647-14.934-1.0795 1.8273 5.317 10.407-1.2807 14.934 1.0795zm25-1.3515c-3.0529-5.781-3.3263 5.5182 0 0zm20.333.51188c18.581-7.3681-25.99-11.677-12.467.60328 4.1862.11132 8.3483.36159 12.467-.60328zm-414.11-2.7341c-3.5723-1.7676 1.9903 5.7132 0 0zm383.11 1.5556c-1.5264-2.8905-1.6632 2.7591 0 0zm44.667-.66667c-.15195-6.4997-7.1268 5.1275 0 0zm542 .66667c-1.5265-2.8905-1.6633 2.7591 0 0zm19.422-2.0743c22.129-.45691 6.043-14.015-7.4683-6.5798-13.521 1.6873.8385 12.457 7.4683 6.5798zm-556.76-.59233c-1.5264-2.8905-1.6632 2.7591 0 0zm583.33-2c-23.005-5.9239 6.6757 5.343 0 0zm-1015.7-4.9746c-2.1656-5.9731.68356 13.574 0 0zm366.41 2.7022c17.612 1.1499 28.92 4.1602 23.396-18.242-.88183-32.266 1.0574-65.344-1.5764-97.107-10.109-.42106-37.731-8.6304-39.156 6.8223.69121 36.944-1.4906 74.209 1.0205 110.95 4.9903-2.9136 10.814-1.7637 16.316-2.4233zm-2.5903-46.937c10.434-6.2198 24.4 2.5105 1.9349 1.2059l-1.1872.004zm-6.6658-9.3319c1.9961-3.0205 42.201-2.9719 18.855 1.1764-5.8645-.91121-14.229 1.8407-18.855-1.1764zm3.2561-10.792c17.478-5.1169 22.82 3.6801 0 1.3334zm52 64.667c21.318 6.0054 23.291-5.0793 20.828-24.004-.76752-28.206 2.2577-57.969-.84752-85.216-10.975-1.1-35.025-8.0935-38.796 5.7249-1.0573 35.177.33086 70.443.21281 105.65 5.8104-3.2002 12.264-1.9615 18.603-2.1594zm.66667-46c19.678-5.2754 8.7844 6.0552 0 0zm-11.827-7.7196c-.0121-5.5883 41.802-3.0078 21.264.0906-6.4409-.8397-16.346 3.4789-21.264-.0906zm3.8921-10.841c10.356-5.6955 29.379 1.841 4.4798 1.2167-1.1548-1.0147-4.2505 1.4641-4.4798-1.2167zm99.268 65.228c-10.807-7.4026-3.9827 5.0454 0 0zm470.83-2.1536c13.1-3.8052 29.962-3.368 41.847.58573 1.6655-26.211.3801-53.649.9152-80.33-13.878-10.773-34.484-5.6152-49.594.75584.3429 26.871-.6685 55.096.4991 81.142 2.1631-.2732 4.2175-1.5562 6.3333-2.1536zm14.834-35.513c12.398-7.4207 24.682 6.8204 0 0zm-5.2925-8.1391c9.1815-6.6566 39.1.18607 11.612 1.2235-2.4408-1.1286-13.116 2.6493-11.612-1.2235zm.6166-8.3146c-3.5552-7.9789 40.133-1.1775 16.509-.54629-5.3691-1.5614-12.02 2.3655-16.509.54629zm-935.66 52.12c-1.5265-2.8905-1.6632 2.7591 0 0zm784.33-10.654c28.859.51364.7023-6.4877-12.723-2.7722-32.223 8.0794 6.6988 1.0051 12.723 2.7722zm41.186.65405c26.241-.57564-9.9133-9.4586-19.344-3.919-13.807 10.846 15.938 1.0848 19.344 3.919zm-562.27-8.8383c-.37481-12.364 9.9965-29.053-11.794-23.122-67.416-1.1885-134.84-.18718-202.26-.0394-6.3084 11.027-8.2077 37.022 11.354 30.501 67.852-.16702 135.7-.33405 203.56-.50107-.28465-2.2794-.56931-4.5588-.85396-6.8383zm-204.59-8.495c1.7082-25.878 2.8787 25.46 0 .39877zm7.4043.33333c2.3868-24.312 4.1469 15.382-.62457 5.1514.20819-1.7171.41638-3.4342.62457-5.1514zm174.75 6.576c-1.8872-18.753 5.9066-18.481 3.1834 1.0907-1.0676-.3519-3.0246.89132-3.1834-1.0907zm-22.372-1.568c-3.0537-22.911 8.6361-8.9341.44444 1.3254zm13.556-12.008c1.242-5.8967 1.3483 5.6101 0 0zm640 20.476c-5.8754-4.2235-26.169-6.7103-30.667 1.6044 9.2768-1.2176 24.006 2.1384 30.667-1.6044zm-598-.47599c-7.1388-5.6333.42402 5.2865 0 0zm3.3333-2.1863c-8.0986-11.18-12.39 1.3043 0 0zm500-1.625c16.315 2.1576 26.481.46937 21.333-18.999 6.5323-20.232-8.944-23.103-25.312-21.335-19.846-1.4837-11.001 20.897-13.155 33.454-4.0935 16.248 7.9684 5.8894 17.134 6.8798zm-2.6667-13.522c15.216-5.0522 20.661 3.742 0 1.3333zm1.3334-8.4868c-5.4932-4.964 30.453-.29577 3.6391 1.4298-1.3254.295-2.3975-1.1492-3.6391-1.4298zm-4-9.5132c16.126-7.6577 25.112 5.1375 0 2zm51.333 30.757c21.711 6.5189 11.086-19.692 13.94-32.259 1.491-14.396-21.783-7.8423-31.14-6.3878-6.5035 6.9451-4.3627 34.089-1.0317 40.145 5.8032-2.4187 12.133-1.109 18.232-1.4987zm-4.34-9.0902c14.366-9.0313 10.561 7.5699 0 0zm-2.9933-10.93c11.855-8.9667 24.4 6.7005 0 0zm-2.6667-11.403c17.838-5.0543 23.672 3.9124 0 1.3333zm-862.67 30c-1.5265-2.8905-1.6632 2.7591 0 0zm326.67-1.3333c-9.0454.42181 8.4458-16.48-5.3333-19.333 5.1094 2.5351-11.678 22.564 5.3333 19.333zm-5.3333-8c1.5264-2.8905 1.6632 2.7591 0 0zm600-8.3752c6.4268-20.396-10.718-21.608-26.333-19.099-7.844 3.3985-5.2385 30.922-1.7997 36.808 13.318-1.127 35.38 6.4908 28.132-15.202zm-17.999 9.0418c9.9729-6.4001 20.961 5.6352 0 0zm1.6666-8.9257c-11.415-6.7094 27.342 1.625 1.1646.18572zm-2.0235-11.333c13.091-6.0263 17.421 3.8936-.5816 1.741zm-844.73 24.009c-1.9346 3.6197-.20619-.0151 0 0zm5.3333-9.3333c-1.9347 3.6196-.2061-.015 0 0zm257.93-20.417c2.4529-15.429 5.9889-25.062-14.99-19.705-66.079.68803-132.17.1612-198.26.37211-5.3268 11.107-6.1864 34.091 12.244 27.718 67.107-.12834 134.21-.25669 201.32-.38503-.10537-2.6667-.21075-5.3333-.31612-8zm-202.84-5.3333c2.824-28.26 4.846 26.953 0 1.0654zm177.33.74536c3.5951-28.132 3.5233 24.95 0 .32008zm-166.67-1.412c1.2398-25.697 5.0356 21.567 0 2.9325v-2.5337zm144 .22222c.64286-25.468 6.5359 14.225 0 5.244v-5.244zm11.708.11111c2.2885-25.321 4.6558 12.844-.39801 5.1405.13267-1.7135.26534-3.427.39801-5.1405zm46.959 11.667c-5.6988-10.841-5.1389 8.7401 0 .13292zm-260-4.6667c-1.5264-2.8905-1.6632 2.7591 0 0zm259.55-4c3.6854-14.084-6.8211-7.7823-3.8262-.34649-4.4691 2.104 8.1888 9.7357 3.8262.34649zm-331.97-3.5833c-1.9346 3.6197-.20617-.0151 0 0zm848.42.052c-10.877-3.4983-27.735-3.1321-38.666.0213 10.745 1.322 27.958 1.4478 38.666-.0213zm74.236-.42934c-6.9044-4.6524-28.135-5.6391-30.482 1.294 9.156-.90386 24.388 1.7233 30.482-1.294zm-37.013-1.5099c-6.1915-4.4709-26.815-5.6673-33.222 1.4706 10.97-.7023 22.611.079 33.222-1.4706zm-51.222-4.1696c21.532 8.392 11.105-18.176 13.806-31.197 6.8887-19.847-9.7963-23.733-25.817-20.973-20.264-3.8085-10.291 19.521-12.494 31.922-4.0117 18.832 1.8666 25.743 20.228 19.956l2.5279.17205zm72.494-.6969c22 8.341 15.552-12 16.173-27.291 4.5522-18.476-2.8883-24.96-20.734-21.038-19.892-4.6761-7.2331 23.673-11.109 35.246-2.5135 17.18.9162 14.27 15.67 13.083zm-571.83-.85358c-7.8778-9.6182-5.7853 6.2158 0 0zm536-.79147c21.93 8.0948 14.373-14.425 15.823-28.775 7.0714-21.504-14.022-19.513-28.724-19.094-12.993 2.032-2.2836 28.385-5.7714 40.171-3.9894 17.278 9.0394 4.9589 18.672 7.6982zm-870.67-4.0179c-1.5265-2.8905-1.6632 2.7591 0 0zm80 0c-1.5264-2.8905-1.6632 2.7591 0 0zm1.3333-2.6667c-1.5265-2.8905-1.6632 2.7591 0 0zm233.19-4.0881c-8.673-6.9897 5.2442-32.189-13.562-26.611-65.548-.20739-131.1-.41478-196.64-.62217-6.2965 7.1804-8.9605 31.558 6.1254 28.09 53.891-.66007 107.59-.54594 160.8.15283 14.34-.51747 29.296.35944 43.278-1.01zm-201.63-4.1341c-3.933-20.351 4.2028-20.05 1.7778.88889-.69265-.05473-1.5495.28691-1.7778-.88889zm6.6304-1.3696c-4.9156-17.785 6.0636-20.163 3.1474-.56558-1.0387.09874-2.3732 2.7383-3.1474.56558zm141.81-8.4082c.91087-27.852 2.4883 20.48 0 4.7103v-2.5337zm12.545 7.4973c-3.5992-23.396 8.7202-9.5674.70464 1.8361zm10.122-7.4973c1.4001-28.808 1.2862 27.417 0 0zm43.491 13.079c3.3002-9.8897-22.452-15.095-2.824-3.9262-15.294-7.3164-2.4747 11.026 2.824 3.9262zm-243.49-.41202c-1.5264-2.8905-1.6632 2.7591 0 0zm884.04-10.493c-1.9984 8.9824-1.0612 4.3282 0 0zm31.626.36072c9.4417-8.3808-22.676-9.8805-23.667-1.1687 1.8216 7.134 17.685 2.1416 23.667 1.1687zm-674.14-1.6331c.29287-13.962-9.4624-13.344-6.4166-8.4027-8.7428-4.8961 3.9674 17.467 6.4166 8.4027zm684.47.43172c.4717-7.0654-7.0407 4.9915 0 0zm-32.667-6.0345c12.86-4.8349 27.906-.44486 40-.78958 2.6218-17.721-24.101-13.515-35.495-11.022-10.924-.05601-23.724 19.402-4.5054 11.812zm-644.31-10.216c-8.6748-10.909.006 7.9285 0 0zm-333.45-5.3333c-1.9346 3.6197-.20619-.01508 0 0zm100.42-2.4167c7.2984-17.814-10.88 15.951-.41799.81933zm871.15 3.3333c-6.0466-7.63-1.1296 8.2775 0 0zm-649.77-2c.95031-17.309.85913-31.315-20.824-25.162-62.836.05333-125.67.10665-188.51.15998-6.5595 9.4764-7.9301 33.961 10.047 27.208 66.634-.06879 133.27-.13759 199.9-.20638zm-198.72-12.511c3.1828-30.21 2.8882 29.161 0 0zm149.09 4.8444c-1.6529-29.769 7.986 5.4858.13227 1.1495zm12.245-5c1.3361-27.123 3.9996 21.419 0 3.5992v-2.5337zm-153.33.74536c2.9658-30.162 3.6485 26.016 0 0zm162.67-1.3333c1.0791-25.415 6.7082 14.153 0 5.3876v-5.3876zm38.667 14.588c-3.0529-5.781-3.3264 5.5182 0 0zm89-.73189c8.0528-10.715-39.367-2.7471-17.068 1.7522 5.6436-.75601 11.563-.31437 17.068-1.7522zm9.2222-2.8237c-3.5723-1.7676 1.9903 5.7131 0 0zm565.61 1.3889c13.458-7.2811-19.337-8.045-20.38-.30503 5.2806 2.1095 14.154 1.3639 20.38.30503zm-664.21-3.0777c-5.7605-17.636-4.3223 10.692 0 0zm43.778 1.1282c-1.1458-12.797-38.57 2.7283-11.937 1.4495 3.4012-1.1888 10.036 2.2491 11.937-1.4495zm631.93.11618c.6544-6.3259-4.627 4.8972 0 0zm-121.35-2.4299c-1.1558-13.463-24.508-8.2934-33.981-5.3633-1.369 15.123 23.204 3.4307 32.411 7.1265h.8929zm36.429-1.8475c-2.9656-8.6374-24.068-5.7733-31.876-.32746 2.1722 6.5555 29.448 5.7794 31.876.32746zm-90.409.64401c22.644 6.6859 16.453-8.6782-2.7013-8.111-8.9242-5.1998-31.079 9.4311-13.542 8.7849 5.2363-2.4706 10.738-.66386 16.243-.67396zm-425.33-.97449c12.844 3.624 36.773-2.1009 15.597-11.983-10.162-.40524-35.482-3.3363-27.971 13.106 2.9891 1.8741 8.6171-1.7007 12.373-1.1233zm573.28-1.4873c12.43-3.7875 25.82-2.2967 37.737 2.0952 3.7346-17.703-6.2627-27.298-23.775-24.598-14.594-.36812-30.715 5.0765-25.909 22.774-2.2211 7.7539 8.543-1.4114 11.947-.27163zm-650.06-3.7139c-7.817-8.4701 1.0773 9.2138 0 0zm38.778 1.1852c13.558 5.7435 30.171-4.1715 8.1338-6.5244-7.7947-2.5306-37.828 3.4999-22.633 7.879 4.8303-.49297 9.6203-1.6519 14.499-1.3546zm-36.667-4.5461c-6.8724-12.273-6.3871 6.0718 0 0zm1.3333-5.3539c-6.5194-8.8219-6.2737 6.1885 0 0zm39.667-.91998c9.0767-5.6637-18.551-9.6842-21.579-2.3043-2.2982 8.7951 16.795 1.5105 21.579 2.3043zm9.6667-1.2227c-1.5264-2.8905-1.6632 2.7591 0 0zm37.907-.51559c.17207-11.782-33.241-2.2547-18.266 1.1823 5.652-.92896 13.846 1.8262 18.266-1.1823zm6.5755-.81774c-.98488-9.2131-5.9088 7.6782 0 0zm496.1-12c1.3172-14.057-7.588 22.361 0 0zm-534.46 1.1332c3.3131-18.08-23.18-8.8189-34.127-10.845-13.584 5.7095-2.1607 22.199 10.981 15.045 6.4092-2.0923 22.966 4.7568 23.145-4.2002zm25.611 3.4407c20.976 7.8752 18.938-21.867-1.0696-14.106-11.79-3.9548-27.189 2.4815-18.139 15.615 5.915-3.045 12.819-.96188 19.209-1.5091z"/>
 </g>
</svg>
