<?xml version="1.0" encoding="UTF-8"?>
<!-- Created with Inkscape (http://www.inkscape.org/) -->
<svg version="1.1" viewBox="0 0 1654.7 518.67" xmlns="http://www.w3.org/2000/svg">
 <path d="m769.33 517.85c-22.399-3.2547-41.695-7.8764-61.668-17.185-10.452-16.451-15.106-39.624-40.63-29.827-99.827 8.7758-199.87 16.544-299.95 20.505-98.853 7.7578-197.74 14.179-296.76 19.04-23.21 2.2277-45.871 7.6422-69.408 5.6162.18558-47.159 6.882-92.534 8.4138-139.33-4.4403-24.137 27.413-15.146 41.63-21.812 21.041-.61718 45.066-10.28 43.036-33.858 32.722 4.0772 64.587-6.2323 90.677-25.083 25.566-14.257 50.955-30.676 77.882-40.047 26.002-13.51 52.906-25.445 80.154-32.677 41.305-11.095 83.346-21.884 126.63-21.838 39.457-7.1083 77.782 2.2146 117.09 4.3301 36.624 5.4158 70.084 17.638 103.5 30.286 16.497 10.017 35.935 15.66 49.775 27.711 15.819 15.816 36.237 2.1657 42.959-15.104 15.714-11.464 30.675-22.601 49.188-28.851 21.331-14.832 47.516-15.158 72-23.049 58.366-16.803 119.66-4.7167 176.07 13.217 1.6208 4.6353 30.159 13.39 42.191 20.1 19.516 12.92 20.411-40.99 18.425-31.687 16.881-13.32 7.1143-41.318 10.881-61.096 3.7572-21.198-8.4009-37.155-14.761-53.126-8.738-15.907-17.036-24.178-28.367-36.963-21.359-3.5552-34.947-9.1592-26.913-33.793 8.4072-18.075 37.129-4.7628 53.914-9.2027 22.686-1.4454 51.113 1.7615 70.377-2.4574 9.6846 3.5908 38.239 2.0885 55.453 2.8437 71.074-.16596 141.53 5.3858 212.61 3.5535 17.231 4.4372 45.803-9.792 54.625 8.4856 5.225 24.252-13.324 28.378-29.07 37.476-8.5671 15.563-21.118 29.628-29.105 42.608-7.7885 29.398-1.5013 62.832-3.8026 93.803 2.2137 17.235 4.0721 29.216 14.958 41.562 15.744 7.4005 9.1785 37.526-1.7823 48.402-1.6582 10.745-15.837 28.184-13.873 44.69-4.487 18.969 8.1399 34.078 24.322 40.35 15.837 10.44 37.983 10.533 52.349 20.154 14.737-.0318 13.191 23.838 27.548 29.609 13.842 9.2022 12.913 26.218 22.415 40.513 11.327 16.31 28.782 10.081 45.996 14.949 24.465.9463 16.495 36.177-6.6392 26.239-21.41-.86952-39.254.83967-61.551-2.1629-15.415 1.2852-49.897-9.7212-47.451 15.612-131.62 2.186-263.52-6.3416-395.33-3.7359-14.523-3.8945-50.81 11.063-45.529-14.306-.3521-18.892-31.03-14.006-47.772-16.046-24.264-.473-49.855-5.0909-73.32 1.7323-21.306 31.805-64.9 28.072-98.165 36.719-30.928 3.7953-62.14 3.9273-93.223 3.1324zm60.667-7.1428c35.337-2.4141 73.873-7.9178 105.62-20.042 18.549-3.4948 19.422-24.116 14.91-34.663 12.849-8.4159 27.351 19.289 48.858 9.7555 33.42 1.0002 69.995 11.636 100.59-6.2824-2.4242-17.509-38.618-2.5872-54.946-7.5336-22.057-2.9182-46.213.0421-67.082-5.4417-5.4065-17.064-27.204-26.703-37.675-4.5976-7.2697 16.591-5.0415 39.696-30.283 39.271-40.913 6.937-82.341 14.116-122.83 11.352-23.915-1.0569-55.705.58093-70.185-21.668 10.104-16.988-4.8882-42.558-20.241-25.832-74.08.38611-147.08 12.809-221.34 16.467-85.315 9.2106-171.98 4.761-257.1 18.309-54.585 6.0095-109.32 9.7948-164.26 9.755-26.996 13.254-18.596-15.681-20.263-32.865-.45854-26.371-5.3863-53.303-.32843-79.371 14.569 3.6978 32.616-10.807 36.972-21.451-14.717 7.797-32.628 9.8962-48.682 12.796-12.594 44.471-14.71 90.214-15.081 136.09 23.313 9.1355 51.239-.49446 76.307-.13183 124.77-4.5915 248.64-21.499 373.69-23.431 81.426-6.7541 162.96-11.939 244.09-21.367 13.393 10.233-3.7054 33.825 21.956 40.522 32.915 15.121 71.137 11.31 106.6 10.576zm480.67-4.7086c-1.5571-3.075-1.5572 3.075 0 0zm192.6-3.6791c22.942.67958 12.322-42.324-12.803-27.736-133.36-1.4958-266.65-5.6534-400.03-4.2112-12.07 24.048 6.1126 34.352 29.439 28.437 124.32-.81056 248.66 4.5095 372.8 3.8301 3.5297-.10685 7.0595-.21369 10.589-.32054zm137.54-12.603c27.624-19.444-73.056-13.036-34.8-13.641-27.832.55302-55.657-2.2517-83.482-3.1258-4.6645 26.118 32.44 10.832 47.993 16.117 22.941 1.1635 47.551 2.5729 70.29.65003zm-1588-9.1718c4.4266-14.431-5.5547-34.551-10.088-40.923-2.3125 14.249-5.3649 34.494 5.843 47.043 5.4394 2.6329 3.0703-3.8011 4.2448-6.1204zm40.3.17733c-19.886-.85978-25.297-14.882-25.6-35.46-3.564-21.746-9.2372-43.062-13.675-64.597-10.118 5.3802 4.5474 34.679 3.9178 49.576 4.3282 15.904-1.9726 44.656 16.706 50.634 5.9968 1.3006 13.063 2.5637 18.651-.15307zm774.95 1.2763c-1.5571-3.075-1.5572 3.075 0 0zm8-5.5119c13.688-2.8714 46.636-11.414 36.687-21.069 24.379-14.095-4.2785-16.344-15.123-.52991-30.772 12.597-63.875 8.6706-96.231 8.4446 8.4593 12.108 39.811 2.1536 48.001 12.373-8.7627 7.4866 21.751 2.2534 26.666.78204zm-43.028 1.373c-8.0978-1.4506-.38346 2.9983 0 0zm-773.86-4.8611c-3.3299-15.736-.6614 15.675 0 0zm733.49 3.1074c-11.446.84266-40.417-24.993-40.424-14.397-1.4906 20.588 26.743 12.424 39.666 15.622zm103.4.55922c-1.5571-3.075-1.5572 3.075 0 0zm3.5556-1.5556c-6.3877-1.7618 2.6466 3.5855 0 0zm-167.89-1.3636c-17.689-.16494 6.295 1.8733 0 0zm176.33-.41423c-11.26.57591-4.5994.0728 0 0zm-749.09-2.4944c57.814-6.1587 116.05-16.513 172.08-28.739 32.57-9.1428 65.879-13.843 97.672-23.549 59.324-7.9639 117.76-24.2 178-22.948-23.11-14.097-57.24-6.7699-84.667-5.0391-28.327 4.7035-53.622 7.4026-81.429 16.352-22.998 8.7703-48.262 9.0562-71.396 18.704 5.079-11.323 32.474-7.8334 44.824-16.519 33.017-14.579 68.126-16.927 103.28-23.735 16.897-5.9587 35.46-9.9697 53.605-9.3658-11.335-11.037-37.636 5.0222-49.556-5.0099 55.58-18.93 114.18-3.1684 169.31 7.6372 22.649 9.0231 50.076 13.269 66.763 31.928 9.3472-13.826-25.38-20.995-36.613-27.856-41.244-13.867-83.568-26.638-126.77-34.033 6.8004-11.477 36.54 2.1925 51.409 3.8151 37.589 6.4499 74.043 20.07 107.71 37.019 29.659 17.694-7.3193-13.856-20.083-15.068-24.952-11.52-57.693-23.639-79.733-30.126-20.317-10.702-43.68-14.921-66.667-15.376 11.427-12.408 35.38 1.1399 51.477 1.5097 26.893 5.2788 53.525 16.935 77.809 26.097 18.674 5.6554 33.714 17.652 53.381 22.046-17.778-24.097-53.66-25.501-79.334-39.491-40.991-14.022-82.874-26.063-126.67-25.993.0842-6.3178 37.193-3.7758 51.16-1.133 45.003 8.1314 89.02 17.713 129.51 38.701 29.236 15.366 18.309-.67224-2.8933-8.8247-25.464-11.5-48.204-19.707-76.255-25.643-28.896-8.9575-60.286-13.026-89.948-13.625-47.469 4.582-91.39 13.538-135.57 28.255-17.684 5.2041-34.499 10.567-51.338 19.271-27.799 8.1205-53.038 22.622-80.661 29.624-30.862 12.728-63.561 20.684-94.878 32.285-27.121 4.1407-54.116 8.674-81.752 7.2211-6.4683-16.218-19.67-36.754-26.139-35.456 7.5893 15.433 9.8365 40.214 26.299 46.995 51.105-1.8629 99.623-19.328 146.98-36.44 23.882-2.294 42.9-18.291 65.489-21.164 32.012-12.443 63.634-23.721 95.478-35.81 39.403-9.8805 78.162-25.956 119.69-18.99 33.584 4.4345-20.73 4.5199-31.569 4.0273-32.81 4.5816-62.709 15.788-94.781 23.151-18.932 12.33-45.353 13.855-65.57 26.458-18.593 5.3714-38.416 10.934-55.379 20.331-31.6 6.5912-60.72 22.918-93.128 28.067-23.634 13.873-56.816 12.102-85.899 16.851-24.762 2.1918-19.142-32.881-32.956-46.472-3.8816-9.6133-11.933-50.018-18.301-31.741 10.223 27.88 18.663 56.281 31.746 82.651 41.092 7.5225 83.037-8.4849 124-13.83 33.063-12.545 69.309-15.24 100.78-31.945 27.487-1.73 52.853-20.635 80.711-25.213 25.486-14.523 25.784.9763.45818 4.3883-39.415 14.528-78.03 27.432-116.61 40.279-37.951 11.492-76.311 20.744-115.47 28.25-16.485 6.7285-61.365 11.958-52.416 7.41-23.057 4.8904-35.404-11.676-37.836-32.505-7.1503-17.552-10.445-37.234-20.949-53.732-7.7761 19.126 11.801 42.515 12.919 63.88 2.1406 21.965-15.333-40.974-14.554-31.359-6.8954-27.445-19.883-23.673-9.6806 3.358 3.5408 23.063 8.8802 45.645 13.71 68.424 26.714 4.7168 54.307 4.5648 81.196 1.7466zm-50.381-9.4712c-34.945-9.8611 6.6065-7.3376 22-5.3727 67.668-4.6544 133.4-17.735 198.2-38.025 25.364-5.0641 49.955-12.402 74.318-22.095 32.906-7.9385 64.712-20.977 98.988-24.538 29.473-5.7139-19.811 7.8667-29.915 10.853-34.518 7.7918-68.806 19.193-101.83 31.555-69.179 16.778-137.02 43.463-209.24 46.108-17.394 1.2407-35.148 3.6276-52.52 1.5156zm338.13-97.828c14.655-21.501 14.477 8.759 0 0zm21.333-9.54c34.427-13.787 76.712-18.427 113.96-10.998-3.4753 10.627-38.413-.69843-53.402 5.1918-20.487 1.6506-41.204 6.445-62.217 7.8065zm269.33 118.67c-1.5571-3.075-1.5572 3.075 0 0zm832.89-2.8889c-4.3601-1.741 2.037 6.1207 0 0zm-835.94-1.1251c6.5476-22.304-21.971 1.1046 0 0zm241.36 1.2084c-8.0977-1.4506-.38352 2.9983 0 0zm527.03-1.1944c-1.5571-3.075-1.5572 3.075 0 0zm80 0c-1.5571-3.075-1.5572 3.075 0 0zm-621.76-3.5833c-2.5221-5.8913.98874 8.9944 0 0zm535.68 1.7037c-6.3514-16.149-23.338-18.238-39.637-14.998-61.286-2.0808-130.18-2.6783-194.68-4.4239-49.958.23749-100.96-3.9284-150.27 2.2531-13.682 24.498 25.675 9.6187 39.04 13.716 80.941.32891 162.9-.87959 242.69 4.1874 33.994-.71411 70.132 2.2501 102.86-.7346zm78.963.32412c-5.7345-1.6673 2.4631 3.6053 0 0zm-34.583-1.25c-8.098-1.4505-.3833 2.9983 0 0zm-794.42-7.1944c-2.6731-3.0929-2.3443 12.15 0 0zm357.45 4.6667c-1.5572-3.0751-1.5573 3.075 0 0zm-363.18-6.7083c-1.66-33.116-14.032 18.816 0 0zm219.18 4.0416c-1.5571-3.075-1.5572 3.075 0 0zm-589.33-2.5081c15.387-2.8571 54.609-5.5222 48.492-5.8208 39.226-8.1487 82.364-14.576 123.49-17.418 48.451-8.45 98.459-6.1027 147.35-1.9813 8.7672-17.134-29.532-13.739-40.037-21.638-33.748-6.5528-69.397-4.4067-103.54-2.1658-51.501 4.8612-102.85 10.488-152.68 25.083-33.154 5.2263-63.906 14.079-96.751 21.484 15.411 8.5343 37.463-6.5105 55.283-6.5379 40.017-4.2516 78.888-14.005 119.06-18.481 40.834-5.065 79.839-17.244 121.85-15.386 24.233-1.9395 48.418.0146 72.146 5.2511-8.2882 9.4702-38.754-1.4396-55.865 1.5792-54.188 1.26-106.17 12.207-160.18 17.32-30.698 9.274-61.551 8.9625-93.36 14.199-8.7681 11.023 10.412 5.0649 14.74 4.5117zm1212.5-.15854c-5.3142-11.769-34.062.59014-49.082-3.3789-26.813 6.244 69.648 6.3428 42.065 5.3339 1.8564-1.3593 7.2537 2.4731 7.017-1.955zm-653.82-6.1936c-7.2883.34556-5.2598 10.409 0 0zm-181.78 1.9714c-4.3042-1.4298 1.8505 6.3763 0 0zm117.42.0833c-8.0978-1.4506-.38348 2.9983 0 0zm-138.31-4.5278c-3.1146-6.1501-3.1142 6.1503 0 0zm728.89.44445c-5.7347-1.6673 2.4631 3.6053 0 0zm-607.56-1.659c30.965 7.2882 25.838-13.768 39.742-15.095-1.854-19.685-23.136 7.8061-34.453 7.4168-24.316 5.7802-51.106-.004-74.776.60164 19.184 11.829 47.549 5.4569 69.487 7.0762zm522.67-.78544c-1.5571-3.075-1.5572 3.075 0 0zm208.71-2.8562c4.0868-18.324-28.455-.54174-41.373-9.32 12.133-.5977 50.094-7.2577 26.285-17.185-19.841 13.274-45.785 2.271-67.618 6.8745.6826 24.603 35.385 23.318 53.727 22.295 9.0264-1.6908 22.115 3.1244 28.979-2.6644zm-1424.7 1.5229c-1.5571-3.075-1.5572 3.075 0 0zm596.07-2.7385c6.148-26.841-22.186 10.145 0 0zm532.82-.15037c-5.7347-1.6673 2.4631 3.6053 0 0zm104.35-.61442c19.963-3.9921 29.767-17.579 5.2706-6.4966-25.4 2.0417-48.585-4.7653-68.213-19.929-2.6289 14.298 22.904 23.868 36.415 26.122 8.6272.6082 18.19 3.7301 26.527.30366zm73.886.60094c31.694-8.1572-.9928-22.512-17.925-16.431-27.537-9.6249-33.9 21.318-4.2671 17.048 7.0449-.795 15.856 1.8127 22.192-.61679zm-700.82-3.9032c-11.467-1.3165 1.646 2.9599 0 0zm397.69-.91414c19.049-18.354-37.027-15.722-19.369-.9469 5.4397 1.7852 12.838 5.1951 19.369.9469zm120.73-2.8066c-.7124-20.812-34.035-9.2064-48.783-11.103-30.148 5.4223 4.4764 22.98 19.193 15.629 8.0106-2.8869 28.226 5.9089 29.591-4.5262zm-1240.7 2.5263c-1.5571-3.075-1.5572 3.075 0 0zm1005.3-1.8267c-17.586-5.898-44.289-13.647-61.31-1.7988 21.211-2.4602 42.257 6.1326 61.31 1.7988zm-107.29-2.893c1.5032-23.272-23.182 6.5111 0 0zm-169.51-2.6166c-4.8285-29.262-27.253 14.433 0 0zm-728.93-9.6637c-1.0335-9.059-1.0503 19.899.57787 3zm1095.7 4.2334c11.187-16.265-31.131-5.8188-42.842-10.48-38.14-4.1644-76.014-15.082-114.6-12.49-25.054 3.2258-38.288 21.499-4.135 12.284 54.716-5.4491 106.94 17.628 160.73 14.57l.7424-3.3862zm252.2 1.4324c15.22 8.1093 50.209-26.972 27.361-17.466-19.359 11.102-44.929 8.8532-65.488 5.5-11.251-3.9746-43.529-42.603-30.19-14.033 15.184 21.271 43.514 29.456 68.317 25.999zm-607.03-3.0624c8.8847-24.401-23.869 2.9833 0 0zm143.99-.60333c3.5072-27.036-27.402 7.8236 0 0zm293.05 0c16.767-5.3516-47.2-18.535-18.494-1.3402 4.9931 4.7132 12.9 5.2725 18.494 1.3402zm-190.89-1.6667c-13.431-5.0416 6.1079 6.4882 0 0zm396 .66667c-1.5571-3.075-1.5572 3.075 0 0zm-625.59-4.3417c10.532-20.394-25.545-2.0548-3.0774.66548zm430.92 1.675c-1.5571-3.075-1.5572 3.075 0 0zm238.67-1.4354c-6.068-12.644-58.917.73066-25.2 1.4799 6.9613-1.5143 21.589 3.2305 25.2-1.4799zm-557.65-3.898c-10.234-21.863-17.771 14.843 0 0zm91.338 2.4588c-15.443-.63585 4.8499 2.4084 0 0zm-184.63-2.5567c5.3875-34.805-30.871 9.6173 0 0zm349.6-.5687c-15.278-11.435-24.175 12.046 0 0zm105.91 1.4844c-7.4571-10.159-57.212 3.5376-17.907 1.1822 5.5083-.92043 13.583 1.7452 17.907-1.1822zm-1104.6-1.6739c37.829-2.5096 72.429-19.2 108.5-29.325 22.927-10.651 48.24-14.226 71.436-25.376 30.654-10.855 58.32-23.8 90.597-31.382 40.108-13.732 80.296-27.426 123.07-30.034 53.099-7.7669 106.91 9.0118 155.59 25.45 28.942 10.265 55.454 25.179 81.478 41.338 7.6147-20.413-23.28-26.809-35.21-37.734-19.242-11.825-39.8-21.126-61.328-26.081 16.078-4.923 35.782 6.2189 51.866 10.797-17.021-17.539-43.762-18.357-63.905-29.464 34.798 3.074-13.006-18.116-26.496-16.729-35.358-5.5469 1.8428-5.9369 17.488-1.6238 31.625 9.0449-9.4264-19.379-21.828-18.98-22.575-2.4667-37.676-20.246-6.5915-5.6595 31.405 5.1991 62.327 19.192 88.716 37.092 11.653-.30051-27.648-20.741-36.713-28.498-33.176-11.715-65.297-26.649-100.76-31.45-54.989-9.7975-110.54-12.071-166.14-6.2934-26.577 5.036-52.762 12.001-79.399 16.307-31.707 8.9231-60.555 19.847-89.467 34.57-33.823 12.476-66.365 33.881-97.779 49.988-20.74 13.2-45.868 18.911-71.337 18.324 7.101 20.011 19.354 40.962 25.363 63.45 4.6562 25.211 21.545 24.659 42.845 21.313zm507.24-130.63c2.9738-11.491 21.168 6.3403 0 0zm-43.624-20.679c-5.5888-14.131 19.732 4.3919 0 0zm-20.145-29.615c3.4562-10.758 20.33 3.903.77587 1.2554zm-33.899-3.5849c-13.261-11.368 20.223 2.354 1.2477.54192zm16.094 1.131c-7.2648-11.952 19.639 1.961 0 0zm-37-4.437c-5.8097-5.4956 16.272 3.6927 0 0zm-4.6667-.66666c1.5571-3.075 1.5572 3.075 0 0zm340 187.98c5.6816-26.865-25.036 8.9964 0 0zm236.67-.75968c-24.508-20.969-62.866-12.962-93.743-17.606-3.4302 5.5582 35.756 6.3477 48.664 12.368 15.604 1.2316 34.51 9.4313 45.08 5.2383zm102.21.65036c14.437-16.905-20.799-6.5166-31.097-17.033-16.743 1.4555 17.541 26.432 29.97 17.729zm-392.44-1.2546c2.0637-32.075-33.534 9.878-.43331.37347zm36.711-1.618c7.256-27.028-32.913 1.7061-.65713 2.3336zm-21.477-1.263c5.5788-29.974-27.286 6.5889 0 0zm93.766-1.0553c23.096-17.169 54.361-14.355 81.768-17.275 40.529-2.2533 81.498 6.3215 121.55 2.2904 9.7937-31.124-13.339-29.77-37.546-27.355-35.229-1.4619-70.062 3.6332-105.2 2.9923 7.1227 14.72 41.027 2.6947 58.932 6.6465 21.747-1.629 42.317 1.9603 63.668 4.382-32.632 5.1788-70.67.64553-105.38 2.0894-29.593 7.6272-69.703-1.4166-91.889 23.713 3.4419 5.8072 9.1527 8.6972 14.1 2.5173zm455.23-2.7373c23.019-2.1312 31.32-32.274 5.27-11.043-25.213 5.5032-57.05 11.952-75.794-10.902-13.297-23.568-23.463-18.966-4.8113 5.7282 18.289 21.462 49.614 26.026 75.335 16.216zm-122.98 2.2659c28.531-14.185 18.054-12.282-6.3455-4.877-1.8476 4.2716 2.6562 8.3871 6.3455 4.877zm152.32-.87693c2.3579-9.442-7.3717 6.828 0 0zm28.048-8.3333c.3084-27.349 1.0873-54.692 1.5775-82.039-30.381-7.3008-18.708 26.001-21.488 44.34 2.5495 17.054-11.546 53.363 17.454 45.366 5.1226 1.9953 1.2782-5.6526 2.4574-7.6667zm-287.37-5.6667c4.4098-18.246 15.919-31.767 11.373-51.276 11.822-21.483-21.285-35.866-24.019-14.458-.4123 25.516-.8245 51.032-1.2368 76.548 9.7224.73727 13.014-.68029 13.882-10.814zm91.785-30.8c-2.9258-17.113 10.33-51.893-19.169-45.28-6.2533 28.132-3.8143 57.869-4.6309 86.746 36.321 8.3979 20.757-17.874 23.8-41.466zm-140.47 38.8c-5.5868-9.0891-.8919 6.6769 0 0zm428.5-2.397c-9.6985-9.4327-36.414 1.1519-53.228-2.9685-33.206-5.4437-22.296 2.9706 4.3281 3.7642 16.058-.63069 33.848 1.6214 48.9-.79575zm-1508.9-10.603c-2.9911-15.153-9.3452 20.607 0 0zm1427.7 6.3333c-8.2204-7.8351-.1054 10.157 0 0zm-594.55-3.7146c21.01-22.001 48.051-39.851 76.683-49.353 50.061-11.574 101.76-20.736 153.33-25.713 13.872 3.0825 60.794-.52313 26.935-7.9523-34.102.795-68.551-.80409-101.73 6.7336 9.753-18.003 38.328-9.284 55.958-14.388 13.281-1.6523 64.86 1.6633 30.74-11.685-49.186-6.0381-100.03 3.5984-147.43 17.079-15.994 5.5362-33.576 7.8793-46.797 17.694-13.831 3.7765-30.812 17.5-44.441 28.592-18.695 11.32-26.916 40.08-2.0274 15.285 25.519-20.486 51.864-39.476 84.04-46.134 14.596-8.662 51.829-6.7282 22.498 4.2625-18.81 2.921-36.931 9.0297-55.204 16.064-10.015 10.858-27.478 17.017-38.396 27.769-8.8254 2.3399-37.14 34.448-14.158 21.746zm126.41-73.061c13.017-20.123 30.64 3.4079 1.7191 2.1091h-2.528zm376.81 74.805c17.634-3.0822 40.344-8.56 43.201-26.696-7.5855-6.0785-29.268 21.893-46.912 18.135-13.954 7.002-51.983-15.588-44.003-7.157 11.345 13.892 30.304 20.567 47.714 15.718zm152-2.0291c-5.1886-5.2989-3.0106 6.2795 0 0zm-582.01-3.9847c.40153-5.0321-6.9959 5.281 0 0zm574.4-.68194c-14.317-4.6126-33.113-11.203-45.888-19.041-25.71-7.3566-.2436 32.572 18.605 20.201 8.378.0706 21.803 1.8681 27.284-1.1595zm-979.5-.22222c-6.3877-1.7618 2.6466 3.5855 0 0zm319.11.22222c-1.5571-3.075-1.5572 3.075 0 0zm89.333-1.3333c-1.5571-3.075-1.5572 3.075 0 0zm-.66666-4.7738c33.218-2.9199 13.257-10.503-8-1.1685-12.741 5.3792 1.6703 3.9518 8 1.1685zm18 2.7738c-11.375-3.6984-17.449 5.5456 0 0zm262.67-3.3079c-8.1041-8.4944-44.354-17.462-17.984.70281 3.887 1.1987 19.56 6.8466 17.984-.70281zm47.056 1.1962c35.038-17.003-12.956-11.541-6.1975 2.1115l3.2814-1.118zm-431.3-4.9544c29.932-46.085 84.897-66.58 135.56-81.319 49.325-12.705 100.59-13.942 151.34-14.559-8.5662-12.393-3.2963-31.206-15.003-38.263-22.218-16.233-51.639-25.754-79.019-34.024-41.329-7.8766-83.726-16.157-125.16-5.5191-23.425 5.1316-44.915 10.255-65.466 18.532 5.4573 7.4372 35.252.75011 49.762-3.0005 10.623 4.5239-29.369 12.115-40.937 13.219-16.581 8.9017-34.111 21.733-48.158 27.527-25.071 11.438-19.458 30.621-21.091 24.866-15.067 29.293-16.925-4.0107-5.5755-16.018 20.961-23.323-19.628 6.5167-14.667 21.843 12.024 27.424 36.472 48.733 54.847 72.616 6.836 6.0556 11.325 23.66 23.574 14.099zm-57.088-65.402c2.5715-21.167 18.904.26391 0 0zm-6.6667-9.5609c13.868-26.888 30.021-4.0546 0 2.0794zm208.17 75.362c13.611-12.613-33.825 3.5082 0 0zm386.5-.58692c14.507-2.2136 37.975-11.806 38.074-27.173-9.859-9.6698-20.501 21.365-37.408 19.486-10.418 8.7241-60.557-7.446-32.056 7.3067 10.512 1.9138 20.894 3.2734 31.39.3808zm-1361.8-3.7464c-3.0156-2.5134 1.7331 9.811 0 0zm901.12-.38343c31.16-13.951 13.164-13.885-6.0447-1.624-13.364 5.5407.55258 8.8464 6.0447 1.624zm-818.57-3.2832c-4.685-10.891-1.0814 10.599 0 0zm1132.6-2.6667c-7.0222-16.152-32.833-5.1669-4.6666 5.2291 5.5827 1.6858 4.916-1.1164 4.6666-5.2291zm-259.72-.81852c54.663-9.0675 110.79-6.8504 165.89-6.2612 30.24.62431 2.2855-28.757-18.706-16.273-55.362 1.8062-109.8 13.337-164.15 20.632-23.335 12.21 10.936 2.1558 16.957 1.9025zm310.03-2.9507c10.134-18.499-30.783 17.874 0 0zm-207.31.12631c-44.3-.39271 15.52 1.6516 0 0zm239.67-1.0237c-1.5571-3.075-1.5572 3.075 0 0zm-604-1.3333c-1.5571-3.075-1.5572 3.075 0 0zm252.67-4.1665c61.109-15.466 124.56-18.138 187.34-20.989-2.051-17.677-36.702-5.563-52.119-8.5516-42.584-.34927-80.146 10.226-121.24 17.835-11.645 1.374-48.699 16.948-13.975 11.706zm502.92-4.1668c-2.2021-4.0229.826 14.793 0 0zm-93.54-2.9424c24.684-9.3241 21.907-42.948.3958-54.529-17.672-13.305-52.047-13.451-56.038-40.022 4.2221-24.319 33.883-24.681 47.418-41.605 13.472-3.3457 29.997-21.353 41.541-33.894 20.895-22.014 27.124-55.757 16.966-83.018-16.136-10.755-17.49-33.339-41.014-28.323-21.697-.763-33.269.04672-56.918-1.1011-19.989-8.3273-29.219 9.1602-42.397 17.101-3.7257 19.874-14.156 36.914-9.3333 60.402 1.2031 19.299-8.5665 49.935 21.463 42.168 34.233-1.2966 72.243-.70398 101.38-20.12 15.873-12.86-7.2676 26.612-17.799 24.217-20.657 20.846-45.75 26.285-65.613 49.158-24.175 9.7142-7.0921 5.3609-11.95 28.845-21.351 2.535-16.643 19.761-21.724 33.33-7.819 10.286-17.232 41.898.6935 38.435 24.033-13.611 12.774-44.05 23.348-63.714.8182 26.144 2.1034 60.706 30.299 71.424 12.759 4.0114 26.64 7.7006 39.285 1.2447zm-100.54-1.5279c-.4105-9.8383-10.606 13.433 0 0zm-549.95.5814c-6.3877-1.7618 2.6466 3.5855 0 0zm-625.56-1.7778c.83-6.1209-4.7075 4.9044 0 0zm1136.9-12.831c5.5008-24.078-2.7607-31.388-18.138-7.9313-11.983 11.921 28.142 33.677 18.138 7.9313zm52.464 8.8311c1.8349-5.8504-4.3137 5.4578 0 0zm-602-8.6667c-1.5571-3.075-1.5572 3.075 0 0zm518.56-3.824c1.15-22.998-30.06 12.803-.9531 1.5419zm94.776 2.4268c-2.756-6.8562-7.2615 8.0755 0 0zm138.38-3.4516c-3.5684-3.2326-.22 9.9453 0 0zm-8.832.73603c11.23-13.757-5.1636-36.071-13.157-47.887-10.029-14.903-8.2487-35.592 6.2727-46.133-1.9205-21.546 5.7834-31.101 11.81-49.104 4.8662-31.882-9.8733-19.45-21.152-.40996-11.252 13.531-23.963 23.487-39.387 33.88-15.903 10.223-29.592 18.824-43.905 29.287-11.22 20.219 20.329 21.579 29.433 27.814 20.24 11.507 40.222 26.103 53.201 46.648 5.64-.0855 10.097 13.036 16.884 5.9045zm-217.55-5.2204c-1.5572-3.0751-1.5573 3.075 0 0zm-58.667-2.6667c-1.5571-3.075-1.5572 3.075 0 0zm62.567-5.8606c3.97-17.53-49.522 3.1119-11.371 2.9657 4.4832-.58859 9.6065 3.7798 11.371-2.9657zm-57.595.38837c-11.467-1.3164 1.6463 2.9598 0 0zm281.69-1.1944c-1.5572-3.0751-1.5573 3.075 0 0zm-172.1-5.4519c15.464-15.952-50.66-6.1235-13.929 2.1945 5.2068-.0802 10.471 3.3476 13.929-2.1945zm-82.437-.63893c17.516-12.704-45.523-12.042-30.517 1.2736 9.7104.63864 22.221 4.2971 30.517-1.2736zm278.23 1.0908c10.132-22.405-48.867-.77168-13.424 1.615 4.0439-1.1361 10.777 2.3382 13.424-1.615zm-232.94-7.1016c2.5112-11.549-54.246-4.2739-27.131.90281 8.2403-1.5722 20.674 3.9598 27.131-.90281zm6.1598-4.815c-2.2477-7.5136-.078 11.778 0 0zm40.173-6.1201c-3.4451-7.4365-62.636-2.8454-27.861 1.8858 7.8808-1.8377 24.395 5.984 27.861-1.8858zm-89.417.34462c4.135-6.6837-59.256-3.9588-31.666 1.2083 10.503-.62621 21.323.30325 31.666-1.2083zm284-.0434c3.8468-6.364-54.323-4.5807-33.667 1.586 11.172-.75699 22.633-.0406 33.667-1.586zm-343.67-6.5978c-1.5572-3.0751-1.5573 3.075 0 0zm16-2.588c-3.161-7.0982-7.5031 5.8008 0 0zm135.22-.22134c8.2986-13.009 15.286-33.945 1.9967-48.524-20.738 1.7518-49.699-10.065-58.554 15.947-3.7757 22.773 18.937 38.083 39.865 33.156 5.4569-.58413 11.513 1.4701 16.692-.57914zm194.42-1.1296c16.035-8.2062 19.978-39.306.04-44.728-17.397-6.4377-58.175-3.916-55.41 24.753.8913 26.183 26.702 23.059 45.857 21.913 3.4843.64613 6.4653-.41096 9.5131-1.9388zm-279.82-6.4558c19.484-14.984 5.4883-51.821-20.359-42.925-22.622-6.8163-41.27 11.365-34.201 33.998 4.5876 20.978 36.299 17.616 50.78 13.352l2.2518-2.6357zm28.986-38.605c15.464-17.161 3.982-32.468-13.053-45.147-20.025-25.276-23.649 14.135-14.05 27.499 3.8704 7.9666 17.353 36.898 27.103 17.648zm-88.812 4.3333c-.6476-6.4087-6.0311 3.5663 0 0zm176.9-4.8733c8.6091-13.607-26.26 2.0905 0 0zm118.44-4.46c-3.1146-6.1501-3.1142 6.1503 0 0zm5.3333-.66666c-1.5571-3.075-1.5572 3.075 0 0zm-124-2.6667c-1.5571-3.075-1.5572 3.075 0 0zm17.558-6.9574c14.159-11.552-27.475 2.7525-37.954-1.1947-19.105 6.0544 29.861 12.566 36.845 2.0388zm142.19 1.8683c-3.4735-7.3402-47.455-9.873-40.758 4.2088 10.904-2.7084 38.218 5.5312 40.758-4.2088zm-282.48 1.1743c3.6837-13.626-54.286-10.048-37.616 1.9148 11.973-1.4839 27.255 2.8431 37.616-1.9148zm87.628-.18862c-1.7216-8.9234-50.125-11.894-40.357 2.1034 12.601-1.6141 30.317 3.0939 40.357-2.1034zm5.7758-9.2299c-3.8426-8.3676-3.8167 7.879 0 0zm53.71-4.5498c34.301-6.1507.6117-10.165-15.938-3.9654-12.822-1.5043-57.399-1.2037-22.439 6.2857 12.799-.71152 25.696-.17257 38.377-2.3203zm-63.377.37604c11.977-14.815-58.46-8.2608-28.037-.37734 9.285-.37072 18.987 1.7041 28.037.37734zm195.24-1.535c3.6921-12.569-57.013-1.9064-24.909 1.7085 7.9391-1.1485 18.038 1.8542 24.909-1.7085zm-281.86-.085c5.1927-14.199-56.273-5.8098-26.246.97392 8.4718-.9455 18.37 1.8992 26.246-.97392zm140.3-10.878c14.179-1.696 42.846 3.5427 50.657-14.662-22.695 10.542-51.067 7.0287-76.551 10.466-21.263-11.441-33.52 9.0124-5.1771 6.4696 10.105-1.3799 21.655 1.5565 31.071-2.2736zm-138.68.67146c-1.5571-3.075-1.5572 3.075 0 0zm276.7-46.416c-4.1743-16.675 12.305-54.679-17.353-45.037-7.6811 13.282-1.48 40.057-3.7549 58.593-9.7884 19.862 11.45 46.197 21.133 25.095-.01-12.884-.016-25.767-.025-38.651zm-279.58 39.68c7.0549-16.306.8618-35.122-12.233-46.985-13.542-31.114-6.094 19.553-9.3039 30.389-5.7953 21.308 4.2469 23.919 21.537 16.596zm85.515-41.788c-4.7011-14.901 11.991-51.824-14.22-45.779-19.938 2.4009-4.7586 38.18-9.6244 54.906-1.4835 20.211-4.9783 45.539 23.93 36.063-.029-15.063-.057-30.127-.086-45.19zm114.7 31.191c2.0472-8.9094-8.0449 5.2364 0 0zm-146.26-17.333c-2.2823-19.757 3.3308-42.756-3.0055-60.522-10.095-12.275-20.353-20.608-25.666-33.962-19.771-14.356-48.739 3.5659-41.459 28.525.4447 29.722 17.36 53.665 42.089 68.897 7.3197 5.1421 35.814 19.765 28.041-2.9377zm199.95-30.129c-4.1376-6.3902-3.76 17.278 0 0zm.5362-7.4269c-4.3042-1.4298 1.8504 6.3763 0 0zm-1.2813-10.111c-2.0307-6.9528.7211 20.367 0 0zm.7171-10.992c-2.3712-21.692-5.2578 13.712 0 0zm-275.88-3.4263c-1.1823-5.7692-13.112 2.7312 0 0zm81.863-2.0544c-11.467-1.3164 1.6463 2.9598 0 0zm224.33-4.4718c2.2376-9.58-50.225-6.0259-27.018 2.6108 8.0089-1.95 21.849 3.7977 27.018-2.6108zm-307.3-2.7226c-20.471-18.624-13.714 16.567 0 0zm116.33 1.8582c1.1487-12.408-38.248-12.925-43.317-2.237 7.2095 8.0692 33.07 4.9528 43.317 2.237zm152.33-6.5248c-1.5571-3.075-1.5572 3.075 0 0zm42.667 0c-1.5572-3.0751-1.5573 3.075 0 0zm-240-5.476c-9.9013-4.4272-6.1102 5.0373 0 0zm48.889 1.2538c-6.3876-1.762 2.6463 3.5857 0 0zm192.86-3.7576c13.535-16.746-31.613-10.329-44.264-11.354-28.618 4.4793 5.3058 18.82 19.984 13.231 8.001-.80355 16.946 2.0813 24.28-1.8777zm-310.41-2.6868c20.212-19.895-20.567-20.624-25.752-8.9866-2.0919 14.344 21.634 15.719 25.752 8.9866zm118.92-.36298c14.793-20.068-27.918-10.081-39.012-12.353-21.146-9.8374-38.229 17.158-7.8265 13.078 14.984-1.2831 33.422 4.0132 46.839-.72503zm204.24-11.542c-19.231-6.1433-1.2374 11.534 0 0zm-192.68-.09454c-1.9551-9.7431-4.0549 6.654 0 0zm117.87-1.5828c-19.454-.62381 2.9197 2.0003 0 0zm-234.79-1.3061c-6.3876-1.7618 2.6467 3.5855 0 0zm38.444-.44444c3.1208-5.0916-15.875 2.4617 0 0zm81.556-.88889c-4.3598-1.7412 2.0367 6.1208 0 0zm199-8.4568c15.981-15.726-33.734-3.6362-45.218-7.5902-109.16-.78799-218.49-4.3384-327.52-3.8173-15.816 6.1161 22.434 22.745 34.722 15.576 100.57.17215 201.5 1.2834 301.42 2.9913 12.101-2.2542 29.015 5.3064 36.599-7.1597zm-385.89-11.988c-9.2513-8.3108 1.9562 8.1306 0 0zm411.57-7.6667c6.1073-27.509-31.015-11.326-46.758-15.707-111.21-.37977-222.26-5.779-333.88-3.9553-15.204 4.0895-53.39-11.305-47.189 15.166 8.3155 13.957 41.116 2.4708 59.182 6.2952 123.2-.97276 245.52 4.0955 368.41 3.2012l.1653-3.4627z"/>
</svg>
