<?xml version="1.0" encoding="UTF-8"?>
<!-- Created with Inkscape (http://www.inkscape.org/) -->
<svg version="1.1" viewBox="0 0 961.33 464" xmlns="http://www.w3.org/2000/svg">
 <path d="m444.67 463.2c-35.129-2.0077-70.194-8.4262-103.81-17.867-13.346-3.5597-25.411-10.954-39.471-13.508-7.1001-4.6878-13.321-6.2426-24.132-10.702-17.164-8.0398-36.199-8.6651-54.051-15.138-43.734-10.816-88.987-13.969-133.87-15.319 3.6366-16.21-2.811-22.335-19.053-18.667-5.945-4.361-6.3978-28.134.65071-29.356 22.9.0344 45.809-.6921 68.698.24504 5.3961-11.126-10.528-19.037-19.326-12.167-16.72 3.9472-30.586-15.069-34.117-30-6.8112-15.753 14.124-22.396 14.397-37.348 2.3912-23.031 14.338-45.925 36.083-56.236 13.927.45933 29.493 5.4576 42.342-1.5067-7.7737-5.4631-22.314.43544-32.701-5.1015-13.028 4.5892-20.148-10.578-28.352-18.034-6.6834-13.26-22.188-11.316-34.591-13.536-18.364-.36317-36.615 8.0232-54.084 13.626-7.4691 2.5223-28.427 6.6512-26.86-4.1245 8.5488-8.5763 15.799-19.372 19.251-30.188 8.4284-14.262 16.698-31 33.503-37.18 18.152-9.3914 39.073-13.279 59.071-16.631 14.762-.80401 36.588-5.4862 43.578 11.391 3.393 12.725-7.7926 30.301 7.7769 37.934 11.251 7.8884 14.184 27.211 27.576 30.88 2.392-9.4233-12.314-14.913-7.3662-26.797-.63823-13.469-18.771-23.576-12.878-38.805 8.3428-12.103-16.265-14.796-.0242-24.616 10.822-5.9173 25.322-2.9427 37.28-1.9499 12.817 5.9362 29.644 2.097 40.812 9.6748 2.2295 8.0132 8.6855 26.433-5.6511 25.462-12.715-.98053-26.518 3.1581-8.8463 12.19 7.9766 7.051 11.474 17.692 16.596 27.273-1.571 15.67 6.6547 29.693 4.2346 45.52 7.7474 6.1001 21.456-10.801 32.293-7.2202 8.7605-2.4875 1.3856-24.889 3.6566-35.385-.2055-27.995-.411-55.989-.6165-83.984 1.1531-11.282 21.814-1.1489 16.929-16.158-.0273-12.803-.45376-27.646 4.8786-38.878 22.652.88364 45.658-2.5576 68.024 1.8123.36875 14.015 12.664 17.679 24.83 15.854 13.163.43707 30.744.7162 34.445-15.243 2.9173-12.27-1.0364-27.938 17.502-22.231 18.153 1.0455 37.551-2.7856 54.935 1.0207 6.6214 8.9256 1.0268 24.843 2.9274 36.47 5.3999 21.892 34.061 21.689 51.528 16.113 14.46-.38937 17.832-14.885 16.989-26.818 2.3736-11.683 21.666-8.8601 31.631-9.4099 13.207.91847 27.999-2.0094 40.258 1.2062.008 16.585.0155 33.169.0232 49.754 19.138-6.9425 10.624 15.344 12.215 26.876-.48856 34.12-.62978 68.241-.44932 102.36 9.7017-8.4634 18.483 3.411 27.032 4.1473 16.636 7.0197 9.64-13.428 16.216-22.275 1.7912-16.864-2.8686-38.127 14.718-48.146 14.313-7.2269 9.94-15.657-5.2079-11.593-12.593 3.5944-14.489-22.492-3.7062-25.016 12.572-.53862 24.333-5.4611 35.098-10.204 14.35-2.5138 30.079-6.5804 41.907 4.5541 5.9842 8.1932-14.307 5.78-3.3898 18.438 2.0861 10.646-3.2159 22.929-12.51 26.503-7.6424 10.485 6.592 24.299-4.2996 34.758-8.0076 18.004 6.0643 5.3173 8.8092-2.6802 6.1218-12.692 25.253-17.343 23.139-34.31 1.9169-11.506-5.6751-23 2.861-32.951 20.242-2.5451 41.996-8.3363 62.158-.38348 10.03 1.2064 19.651 5.6343 29.842 9.1738 11.578 5.2906 26.322 5.7983 30.87 20.126 5.1886 9.6986 12.473 19.59 17.797 28.14 4.9036 9.5814 19.194 22.583-.99007 24.496-17.362 2.2545-36.669 2.2098-52.419-7.0116-11.44-6.6969-24.41-4.5923-34.884 1.4644-11.68 3.0695-18.376 7.5653-22.698 18.895-5.7238 11.449-21.833 6.3373-32.376 10.886-12.083 2.38-23.604-4.2777-30.403-14.137-9.0949 9.7472 10.933 13.002 16.806 18.194 12.848 2.2318 28.807-3.6628 39.84 3.0806 10.173 10.33 23.97 17.118 27.348 32.418 4.1648 16.1 11.383 31.374 17.029 46.801 1.018 11.308 2.7747 22.854-7.4765 30.537-8.7201 2.9908-18.314 17.009-28.639 6.447-12.414-7.0362-18.522 19.331.32267 10.981 18.201.16959 36.428-.23989 54.54 1.9058-2.0336 9.1242 4.5192 30.353-8.3647 29.531-13.616-2.7955-21.452.59065-18.466 15.124-.44984 13.616-22.684 3.54-32.391 7.0889-47.291.50255-94.609 7.2335-139.37 22.256-17.519 2.6782-35.686 9.4122-52.074 14.667-13.972 5.6908-31.293 6.0732-45.51 12.837-35.853 12.531-74.184 14.579-111.55 19.327-14.746-.0136-29.56 1.4753-44.272.3698zm49.597-24.63c8.6364-1.0751 35.215-14.847 13.292-10.86-14.696 12.565-.45784-12.166-14.048 1.2582-9.4239 4.6727-18.308 20.312-.91412 10.184zm38.396-1.6055c8.0556-1.8379 27.665-18.887 19.818-22.298-11.355 1.5-19.452 17.626-27.967 20.954 9.0072-16.737-9.7186-3.3758-9.8433 7.3789 6.4627-.74199 12.232-3.0758 17.993-6.0351zm-80.845 1.8602c11.901-3.7966-10.511-15.371-17.002-19.166-14.729 3.8076 23.901 17.739.32562 13.904-17.572-4.1916 2.256 10.89 10.862 7.6215 1.9382-.78645 3.8764-1.5729 5.8146-2.3593zm-46.481-2.8912c1.6789-14.254-13.521-14.146-18.667-10.333-.45222 5.4474 20.204 20.371 18.667 10.333zm75.066-3.4639c8.978-4.8946 22.367-13.173 13.742-23.999-.0759-14.492-16.638-31.468-30.492-21.104-8.5388 6.8023-20.809 16.048-13.476 28.233 2.826 13.443 17.035 24.648 30.226 16.87zm2.6004-23.078c-6.1982-5.9159-10.897-27.476 2.4426-15.184 10.008 1.8427 7.8293 32.346-2.4426 15.184zm2.7197-8.0584c-2.5969-16.66-.64338 14.224 0 0zm-65.206 26.494c15.559-4.359-3.5092-19.374-6.8654-13.7-1.2597 5.8748-16.23 12.855.62213 15.101 2.3368.66357 4.2336-.42522 6.2432-1.401zm230.15-1.827c-1.5264-2.8905-1.6632 2.7591 0 0zm-269.33-1.1705c-4.1179-12.561-16.196-25.457-29.954-26.163 10.965 6.1346 20.034 21.85 1.7571 9.5889-4.3183-3.7503-31.209-16.355-17.347-5.2923 12.156 12.097 27.516 27.083 45.544 21.866zm204.01-1.4984c9.9955-.74037 28.103-13.334 7.2111-8.3657-16.845 4.4107-15.053-.23525.0587-4.9624 5.2203-2.5223 30.209-9.5381 17.589-12.639-11.197 3.0109-17.741 2.8531-27.285 9.7661-4.925 6.6413-24.276 11.588-19.45 18.204 7.397-.0779 14.817.73203 21.877-2.0022zm-55.874-2.1792c11.787-1.4344 16.777-18.876 8.2501-25.439-9.8025-6.6691-23.58-16.81-33.787-5.2104-11.631 9.1263-3.8578 32.965 12.201 31.994 4.5576-.0368 9.1039.89707 13.335-1.3453zm-21.468-6.1402c-12.323-2.6696.1106-25.116 4.977-11.963 2.5572 9.5828 11.96 16.042-4.977 11.963zm2.6667-5.5358c-6.8347-9.2293-4.0812 5.3213 0 0zm-167.4 10.637c-5.1978-10.407-5.2639-13.763-17.594-19.6-12.853-7.9201-21.862-2.4758-5.7668 5.063-4.7031 8.2752-16.176-9.4794-23.902-9.5757 4.8562 12.859 20.714 22.126 34.656 22.302 3.5782.86349 9.7526 5.3482 12.607 1.8099zm103.4-.86722c-4.8942-16.924-14.998 5.9161 0 0zm179.33-2.9642c12.126-.20821 23.253-10.601 30.944-17.115-9.527-3.3054-21.323 9.9014-27.618 6.4103 8.8907-9.1538 21.61-11.06 33.283-15.257-11.7-8.1243-26.045 6.576-38.561 8.3856-4.8286 3.4277-23.33 20.8-11.049 19.379 4.331-.61752 8.6659-1.207 13-1.8024zm-217.33-.78441c2.898-7.0439-12.49-18.195-20.515-21.532-17.658-3.1641-15.719 4.6338.4028 7.4933 17.43 5.8754 7.265 12.655-4.8712 3.8281-18.42-10.418-4.1251 13.055 6.3153 11.807 5.9658-.88055 13.753 2.3144 18.668-1.5957zm27.432-3.5972c11.937-8.1914-4.7028-23.524-12.003-12.387-9.3277 6.4652 5.8721 21.765 12.003 12.387zm141.13-6.4862c17.926-6.8037 9.615-12.425-4.4478-4.9837-15.244 6.6593-10.818-1.6575-20.915-3.0707-14.886 3.4583 2.1232 20.757 14.234 12.843 4.116-.29814 7.3983-3.3014 11.129-4.7891zm-289.13.0222c9.9664-17.643-2.0352 1.2642-10.769-3.5956-14.959-4.2973-5.8802-24.676 7.0763-15.754 6.7106-2.0064-15.6-9.4871-19.076-.44584-3.3961 11.95 7.2038 23.212 18.427 23.693 1.6957-.43921 2.861-2.8479 4.3427-3.8974zm409.54 1.564c12.881-3.8269 16.579-24.767 2.2278-28.546-18.87-1.0254-15.536-2.1484.0668 4.2741 6.7205 8.5643-4.0509 23.533-14.645 19.9-12.371-6.6518-18.714-2.97-4.6273 6.676 5.7811-.39592 11.962 1.443 16.978-2.3036zm-284.92-10.268c6.723-12.081-8.6182-18.483-14.019-6.7316-.18139 4.9468 13.183 20.942 14.019 6.7316zm-151.41.26845c-.40553-13.843-19.335-13.154-29.027-18.415-11.007-6.8683-21.777-.6742-21.818 11.854 7.2068-.71694 14.548-18.691 24.794-3.127 4.6564 7.7379 20.353 12.527 26.051 9.6877zm464.09-5.2178c2.4342-11.04 26.19-6.5959 19.926-10.375-10.49-7.8729-25.28-.33555-30.323 10.893-6.2327 10.738 7.9189 4.2527 10.397-.51759zm-32.895 4.4679c-5.2459-16.137-19.951-2.6351-.66943 1.0832zm-411.47-2.9471c1.3765-16.911-12.23 11.622 0 0zm88.438-.36989c3.9668-4.0146 29.553-8.4342 14.378-12.171-12.359-1.4227-24.589-1.2339-36.525 2.5709 13.927-1.3164 31.755 4.9401 8.2634 5.914-19.672 4.4327-1.1368 8.3235 9.3645 6.7526 1.5065-1.0223 3.0129-2.0445 4.5194-3.0668zm79.982.77833c9.275-5.6554 10.944-15.757-3.7141-12.795-7.4689-5.0303-28.626 5.2687-19.38 9.9174 3.6508-7.3164 29.243-5.2006 13.12 1.9491-8.5322 4.7514 8.9072 3.9999 9.9741.92826zm46.654-2.1287c9.7552-6.1352-11.557-15.967-6.5671-3.3549 1.1097 2.7675 9.6456 9.9078 6.5671 3.3549zm79.644 1.9266c3.473-8.2249-31.877-2.7837-16.849-9.7498 9.0251.3888 27.935 1.0778 9.0721-3.4228-11.835-.69251-25.788.0797-36.61 3.8455 11.462 10.713 30.105 10.904 44.388 9.3271zm-243.67-2.8925c14.394-10.769-1.6815-12.656-12.131-11.014-10.965-1.8668-29.752 10.924-8.7275 5.7543 19.898-.8135 3.2479 2.4601.76512 8.2924 6.4468-1.261 14.089-.0328 20.093-3.0327zm295.58.38306c-1.0178-3.6789-33.131-.1139-19.478-7.4896 13.639-3.9948-17.415-5.0301-21.5 1.1022 8.8006 11.662 26.523 8.2394 40.425 8.054zm47.722-8.4268c19.419-11.407-12.558 2.46 0 0zm-95.058-22.476c101.22-.0324 202.44-.0648 303.67-.0972 3.9713-16.118-18.469-5.7027-27.719-8.5383-260.09 1.1717-520.19.17359-780.28 2.0236-2.2157 15.533 21.873 4.6014 31.983 7.7338 157.45-1.3657 314.9-1.0365 472.35-1.1219zm-290.35-19.097c3.0605-16.458 2.4839-22.685-8.8775-7.1846-12.542 8.4506-18.114 6.6583.35634 8.5209 2.4869-.78818 8.1465 2.3927 8.5212-1.3362zm-39.318-5.0735c.1054-10.731 19.857-4.1801 25.037-15.097 6.3178-9.1838 5.6406-22.501 17.242-21.628.006-28.346 2.2235-57.076.89842-85.191-8.9742-12.902-3.7703 18.426-8.0962 24.711-8.4643 8.4115-11.415 20.003-12.076 32.047-2.2819 12.089-10.572 17.936-18.528 25.326-6.6555 7.5198-23.845-4.0603-9.7273-8.4001 13.578-4.8076 21.375-22.461 19.917-36.621-7.6028-9.1424-21.259-10.108-30.523-17.269-13.402-10.465-20.221 10.527-32.195 12.042-10.946 3.9448-23.335 10.115-19.261 24.146.85568 13.475.90869 26.71-9.3698 36.836-11.067 9.9542-.71399 20.404 9.2348 24.46 3.6442 14.835 18.425 8.8865 30.634 9.88 11.552-1.4631 28.851 2.8048 36.813-2.2372l-2e-5-2.1322zm126-2.5563c1.8703-15.109-21.432-7.5633-31.183-9.045-11.534 1.294-24.75-1.3219-35.264 2.3445-7.2269 18.439 9.0817 14.982 22.233 14.463 14.738-.15533 29.476-.31065 44.214-.46598v-7.2964zm-14.625.03c8.2753-13.413 13.314 5.758 0 0zm77.959-5.5471c4.1531-16.584-5.9166-10.758-14.755-12.386-13.651 1.6834-29.463-1.6328-41.725 3.2346-1.1163 12.911-4.9479 28.403 13.744 22.492 14.245-.0201 28.491-.0402 42.736-.0603v-13.28zm-16 3.6357c9.3542-11.561 8.9865 9.4852 0 0zm-.57298-10.004c2.5352-8.5127 16.147 5.7249 0 0zm82.906 18.689c5.5806-4.8884 3.7022-25.573 1.0326-32.96-15.499-6.1633-33.636-2.8182-49.984-2.2546-16.296-.7137-7.0758 19.374-9.8995 29.643-.24806 12.758 22.198 3.1819 32.116 5.9356 8.9088-.17463 17.836.0627 26.736-.36404zm-10-5.6207c-10.814-7.5553 15.029-1.3986 1.0055.38zm-1.3333-10.103c-9.1133-11.751 19.481.80963 0 0zm-.33333-11.825c6.7101-12.409 8.6579 10.017 0 0zm88.126 25.806c.62407-7.9161 5.8407-29.509-8.0694-27.273-19.507-.24377-39.033-1.9706-58.514-.2649 1.6272 9.0672-6.8678 29.919 6.3353 29.17 19.565.40055 39.13.81037 58.694 1.2709l1.0061-1.8799zm-17.793-8.101c-20.62-1.7865 4.4568-6.505 12.333-4.9964 2.579 11.162-5.6812 4.7414-12.333 4.9964zm-9.6-11.565c7.4947-6.2006 33.208.33237 12.071 1.2355-2.1123-.85184-15.989 1.8105-12.071-1.2355zm95.926 19.763c4.4257-11.626 4.3664-29.285-13.38-23.909-15.665 1.033-32.034-1.6782-47.264 1.6607 2.6104 9.5554-5.3742 30.44 11.976 24.235 15.983-1.1201 33.612 1.2899 48.669-1.9872zm-17.117-5.3527c-21.225-1.2287.47007-6.7242 9.7384-5.5297 5.4265 8.4825-4.6218 6.1295-9.7384 5.5297zm-3.5426-11.727c-13.906-2.1436 28.165-4.7886 10.405 1.0687-3.5169-.0159-6.9815-.20143-10.405-1.0687zm113.44 18.552c10.87-2.3229 30.887 6.8275 29.354-9.3613 3.4937-10.888 20.813-5.4576 20.089-17.559-7.195-15.742-17.11-31.244-14.284-49.476 3.6029-13.902-13.195-13.979-21.643-19.963-11.003-2.7443-19.297-18.429-31.1-8.6794-8.3114 7.6532-26.161 7.0642-26.167 19.486.75875 11.129 3.5384 22.617 13.276 29.561 3.8582 6.3852 17.762 16.475 1.6991 15.865-13.509 6.8719-7.9278-14.265-20.282-17.51-4.5892-16.279-5.7479-34.438-17.718-47.655.75872-6.2674-8.0926-32.045-7.8695-18.298-2.3388 26.791-.86724 53.752-1.5165 80.618 10.26.94044 18.821 2.8846 16.928 16.049 4.7426 10.934 17.414 15.425 28.825 13.59-6.3221 17.218 3.5995 13.99 17.443 13.333h12.965zm-49.442-1.7303c-10.06-4.7202-19.926-14.31-23.934-24.936-3.0183 2.5876-7.9693 29.761 3.6638 26.611 3.7307-.79447 33.041 1.4059 20.27-1.6748zm-538.1-15.936c1.9122-10.028 7.9883-27.707-4.165-31.667-1.3621 14.305-11.482 16.481-19.072 22.226-.55926 6.1454 20.213 12.521 23.237 9.4406zm665.06.0575c17.766-.86905 5.097-19.896-7.3154-18.141-10.69-6.6273-10.475 20.553-.47534 19.75 2.5969-.53641 5.1938-1.0728 7.7908-1.6092zm-445.77-3.3851c-9.8449-5.1529-27.273-1.6179-40.125-2.4544-7.5039-2.1655-37.614 2.7778-16.541 4.1641 18.635-.92552 39.058.86752 56.666-1.7097zm-253.05-8.1926c-.49582-9.7855 19.28-12.49 8.0409-20.653-9.5385-2.165-26-3.6039-24.189-16.827-10.269 3.8754 2.1921 19.177 6.293 25.549 5.2232 2.3657 3.6373 28.785 9.8555 11.931zm263.85 1.1868c.45681-11.573-12.561 8.0542 0 0zm11.195.54634c-2.3046-16.005-13.627 8.3008 0 0zm10.773-4.0682c-12.924-3.1082 1.6241 10.287.79179.57897zm22.032 1.5219c-7.5439-12.776-5.1119 12.051 0 0zm-9.3333.14265c-6.6727-11.235-12.258 8.8531 0 0zm17.028-.55932c-5.5713-8.9818-7.652 7.9769 0 0zm-96.857-5.5833c10.799-10.019-.98072-21.051-10.203-26.421-11.15-1.4046-18.897 14.326-4.8118 15.754-1.078-17.7 22.153-1.7861 10.826 8.5624-20.909 4.804-1.9975 16.719 4.189 2.1043zm18.491 4.3333c-6.531-6.8664-8.8066-25.147 5.1161-23-8.3962 13.164 10.379 12.61 5.7257-2.2274-8.8535-8.9621-25.816 4.6255-21.967 16.896-.73895 5.5671 7.169 12.85 11.126 8.3319zm267.34-.77427c9.2782-3.3753 31 9.0897 25.398-7.4468-19.51-4.571-42.531-.43122-63.374-1.3365-7.3756 16.186 12.875 8.6191 21.579 8.597 5.4617-.0288 10.932.1398 16.397.1863zm222.01-6.0142c7.6483-5.5945 17.63-16.371 11.995-26.536-5.5218 1.9543-7.4272 20.782-19.796 14.698-19.356-2.9564-7.8832 11.605-.50179 18.895 1.7966 2.5759 4.0223-8.1985 8.3028-7.0568zm-524.25 2.019c-6.3724-18.548-8.7659 18.219 0 0zm256.15 2.3516c-.0882-9.3404-22.895-3.5481-32.317-5.3003-9.8483 2.9197-32.172-6.7442-32.921 5.3535 18.381 2.9713 42.683-.0467 63.335.62688zm-213.9-3.1559c-7.981-19.309-6.5508 19.824 0 0zm17.476-.86857c-2.1294-18.464-5.6352 8.707.0454.11835zm8.524-2.5576c-4.8876-17.314-6.8603 15.892 0 .4022zm9.3333-.66666c-5.2455-19.322-7.0039 17.925 0 1.0689zm7.7472-.4364c-3.4547-21.073-5.3624 20.666 0 0zm8.2528-.30896c-4.4263-16.905-4.5156 17.902 0 .32351zm10.438-.0808c-10.116-22.215-3.6084 24.336 0 0zm6.6469 1.0568c-1.8574-20.161-7.9937 20.861 0 0zm74.914.14959c-6.7955-9.2624-23.04-2.0084-33.683-3.7309-7.4918 1.8541-33.813-3.1646-28.183 5.5512 20.622-.0669 41.244-.13373 61.866-.20059zm72.239-11.047c2.9373-61.288.47264-123.07 3.1818-184.25-3.1329-9.6506-22.182-4.7242-31.55-7.006-12.173 1.4801-26.144-1.1526-37.222 2.8333-.27788 31.422-.55576 62.843-.83363 94.265-1.8947 4.293 1.6524 24.022.39292 35.303.24899 22.22.47826 44.44.46035 66.662 21.267 2.6882 43.163.14463 64.667.8622.30138-2.8889.60275-5.7778.90413-8.6667zm-16.904 4.4482c-20.104-.97082-8.6168-6.52 4.8412-4.4482 13.207-.61742 2.2682 8.7067-4.8412 4.4482zm-13.531-11.434c3.7062-1.9067 24.464-8.6749 24.864 1.8022-7.9851-1.0016-17.874.86818-24.864-1.8022zm11.197-9.9992c-20.606.90395 11.577-11.104 12.296-1.5608-1.3415 5.0388-8.4464.53854-12.296 1.5608zm-.22993-10.891c-21.062-1.5163 14.748-11.065 12.622.32052-1.9652 1.9666-9.0078-.38245-12.622-.32052zm6.5633-12.129c-18.757-1.0569-9.83-5.4152 4.1929-4.8973 1.9344 4.0221 1.2024 8.1569-4.1929 4.8973zm-5.6603-13.897c-23.489-3.272 9.7802-5.8719 14.031-.67029 2.7445 6.086-11.804.19534-14.031.67029zm-.006-9.7429c-21.603-1.3393 2.1821-6.6715 11.821-5.8355 9.955 4.6306-5.9557 8.3725-11.821 5.8355zm-6.3337-16.355c10.383-5.0006 30.131 2.493 7.1224 1.3333-1.1408-.84066-10.204 1.666-7.1224-1.3333zm13.834-8.6109c-18.192.0182-18.548-5.4358.1082-6.496 9.9748-3.0764 8.4523 9.6376-.1082 6.496zm-15.319-14.322c1.7307-4.7214 26.352-8.4174 20.843 1.7543-6.6703-.94639-15.066.6869-20.843-1.7543zm7.1522-12.714c-17.784-1.2684 11.792-7.3135 13.413-1.3533 2.2276 5.4587-10.645.12137-13.413 1.3533zm-3.8811-11.201c-2.4777-9.3345 33.372.31494 10 .93462-3.2291-.50174-7.3368 1.4932-10-.93462zm5.8811-11.469c-20.25-.0996 15.198-9.2681 13.5-.0807-3.1701 2.2848-9.3418-.4402-13.5.0807zm-.33333-12.001c-19.852-1.0799 10.54-9.1006 13.087-1.3496 2.2663 5.4266-10.375.21068-13.087 1.3496zm-2-10.867c-11.181-3.5757 29.782-3.8566 9.2297.723-3.1543.27061-6.2014.35717-9.2297-.723zm-3.3333-10.674c5.2788-8.1524 31.09 1.2574 10.138 1.1907-2.4898-1.0037-9.8935 1.9063-10.138-1.1907zm6-9.3319c-16.171-2.9787 22.428-5.2493 8.4311 1-2.8438-.027-5.6275-.59544-8.4311-1zm87.785 166.52c1.1101-50.247 1.5635-100.65-.84549-150.85-19.043.82131-38.974-.4513-57.487 1.6194-2.331 55.235-1.6375 111.83-3.865 167.57 7.0248 8.3342 24.344 1.6572 35.669 3.721 11.519-1.3831 31.712 6.2291 26.175-12.84.11812-3.072.23624-6.144.35436-9.216zm-18.785 18.942c-20.34-.069.50342-7.0003 9.5058-4.2749 9.1639 4.2915-6.0046 5.6717-9.5058 4.2749zm-10.228-10.914c9.683-5.6566 34.012 1.9485 10.405 1.3058-1.7594-.91629-14.321 1.8206-10.405-1.3058zm1.3692-9.1316c1.9413-4.8051 31.942-4.4344 15.011 1.1041-4.5838-.8674-11.594 1.7171-15.011-1.1041zm-.80765-9.7629c4.3208-5.3338 30.691-4.6101 17.176.92637-5.1212-.72304-13.647 1.2932-17.176-.92637zm9.6447-10.448c-22.6-.51058 14.163.1833 11.688-3.5087 2.6163 8.6768-7.2254 2.7486-11.688 3.5087zm-8.312-10.997c4.0798-7.1499 30.606-5.0911 15.734 1.0016-4.6119-.79552-13.083 1.6765-15.734-1.0016zm2.0714-11.528c-5.8967-5.3404 32.826-2.4102 10.659.74485-3.5616-.24235-7.4125 1.2673-10.659-.74485zm11.262-9.4935c-21.369-.81739-7.4192-5.7242 6.2532-5.6803 1.6322 5.2957.53263 9.3727-6.2532 5.6803zm-8.6667-11.884c-19.37-.4894 24.654-7.0197 13.204 1.1145-4.4246-.12939-8.8221-.46676-13.204-1.1145zm-2.9141-11.384c10.288-8.4476 28.847 3.7625 6.7613 1.6469-1.3825-.95491-8.7349 1.5313-6.7613-1.6469zm-.41924-9.91c5.1384-6.1778 32.363.21225 11.471 1.178-3.0614-.89343-10.565 1.7455-11.471-1.178zm8.3333-8.621c-21.819-.68668 3.9937-7.9826 10.34-2.8599 5.5926 6.0062-7.7016 3.2193-10.34 2.8599zm-6.1916-10.172c15.036-5.6562 24.378 3.4951 3.3717 1.185-1.5947-.4722-10.7 1.0147-3.3717-1.185zm5.4922-9.2388c-20.263-1.0738 16.362-10.315 12.366.61663-2.8886 1.1961-8.5533-.42947-12.366-.61663zm.36606-10.06c-21.741-4.3608 25.832-2.9821 7.541 1.5848-2.5213-.474-5.0262-1.0654-7.541-1.5848zm-5.9384-9.9637c7.1482-8.4583 28.86 2.0648 4.795 1.1651-1.4602-.65063-4.4804 1.6612-4.795-1.1651zm11.938-8.0997c-21.448-.40649-.63586-8.1802 6-1.8677 1.9332 5.197-3.6367 2.9332-6 1.8677zm-147.33 160.77c16.134 5.9717 20.689-14.339 2.0422-8.7733h-48.709c-4.5394 16.271 14.302 9.1461 23.716 9.4661 7.6384-.72179 15.288-.64201 22.951-.69276zm1.3333-4.7733c7.3197-6.5851 7.0693 5.9978 0 0zm-105.67.33403c-5.0886-11.865-9.9548 9.5894 0 0zm8.9996-.33403c-7.3046-11.318-5.864 10.846 0 0zm8.6667-.66667c3.3616-9.0287-11.443 6.4353 0 0zm10.667-2.1633c-13.326-7.0978-5.4738 11.056 0 0zm9.0667 2.5633c7.1382-12.341-16.158 3.4332 0 0zm8.1042.39532c3.6776-10.958-13.915 3.7358-.0362.0229zm-84.837-3.318c8.6078-11.466-24.456-4.2357-3.6667 1.784 1.6225.57612 2.4892-1.0585 3.6667-1.784zm44.738-2.649c10.779 1.9858 24.618-2.5624 36.992-.97768 11.977 1.1114 5.0339-18.529 7.2985-26.643.81376-52.407.23744-104.85 2.9845-157.21-8.8222-4.8085-14.507 3.8634-22.265-3.7363-5.0595 6.1535-13.144.81255-19.284 2.8603-11.37-2.7442-19.305.8464-15.466 14.587-.73681 40.607 1.4435 82.013-1.1053 122.12-3.5263 15.855.075 33.602-.78145 50.166 3.7433-.69925 8.3664 1.085 11.627-1.1717zm31.027-8.7899c-16.41-6.2553 18.27-6.9248 0 0zm-4.7242-11.971c5.5974-12.694 18.072 6.7039 0 0zm4.2182-10.334c-6.8303-9.346 16.408 1.2064.3431.0889zm1.0738-12.822c-14.148-4.6568 12.454-7.6908 5 1.6132-1.7864-.0622-3.301-1.2037-5-1.6132zm-3.3333-12.619c10.64-10.984 12.001 6.2967 0 0zm1.6584-13.959c12.265-9.2221 8.1685 8.3294 0 0zm-1.6584-10.191c10.497-9.946 13.945 6.4677 0 0zm1.3333-12.143c17.787-5.2258-3.3736 6.5196 0 0zm1.6667-10.274c-10.241-7.5634 16.903-.82496.90625.17455zm-2.3333-12.392c12.844-5.7746 6.3216 6.1922 0 0zm3.6667-10.407c-12.431-4.4551 16.593-3.9054 0 0zm-3-10.771c11.203-9.3288 13.436 6.2555 0 0zm3-10.43c-10.66-6.2336 15.189-.17688.90625.17455zm-.90251-10.92c-3.7393-7.3788 16.915 2.6272.58385.22873zm-.76415-11.984c11.203-9.3288 13.436 6.2554 0 0zm1-9.1105c-12.908-5.7356 16.975-1.3824 1.5585.23609zm84.333 175.62c-8.6315-13.412-28.564-5.7401-42.255-6.4733-7.9473-1.2846-35.84 3.3552-16.552 7.394 19.284-.58098 40.906 1.023 58.808-.92076zm-160.91-2.6465c8.0436-1.3654 35.827 4.7156 24.779-7.3788-21.29 1.1948-44.307-4.3462-64.35 3.3125.51509 10.694 20.194.8804 28.873 4.0719l10.697-.006zm-184.42-8.9108c-1.238-8.5041 17.258-20.326-.3435-20.867-13.25-5.6847-15.754 12.715-7.6629 19.556 2.0767 6.4386 7.5731 10.785 8.0064 1.3108zm644.63-5.7705c3.6967-13.076-11.547-24.556-23.147-17.871-12.505 8.2252 5.6328 11.236 10.156 17.246 4.9836 12.286 5.2256 17.089 12.991.62561zm-323.63 6.8846c11.535.59777 27.75 4.0865 21.408-12.885.19311-62.654.55688-125.31.92487-187.96-20.163-3.7455-40.888-4.6262-60.801 1.0821.60258 64.629-.44248 129.26-.83807 193.88-6.0804 14.591 16.334 2.757 24.035 5.5639l15.272.31626zm8.0432-5.8647c13.529-1.6267-3.7364 4.7003-1.1226.54086zm-1.0435-6.3533c-1.8494-4.4362 10.917 2.2588 0 0zm-.66667-9.3333c4.1468-9.2639 12.189 6.3335 0 0zm.22222-10.222c-2.6481-9.2689 15.325 3.6333.88889.88889zm2.1111-9.4688c-16.841-8.5848 21.809-2.5124 0 0zm-2.3333-14.976c3.994-8.8738 15.657 5.9758 0 0zm2.3333-8.883c-6.726-11.436 15.364 3.3461 0 0zm1.3333-10.667c-8.0771-9.7553 14.107 2.3918 0 0zm-1.6667-12.961c7.9945-11.634 6.8179 9.3002 0 0zm.29089-10.362c7.5893-7.0092.87306 6.3313 0 0zm1.3758-10.01c-7.6533-11.027 14.678 2.6918 0 0zm-1.6667-12.492c7.5908-9.5413 5.4314 5.823 0 0zm.66667-11.958c1.4708-9.1122 10.946 5.8294 0 0zm1.2785-10.755c-.82196-9.0732 11.554 6.3534 0 0zm1.1659-11.467c6.1329-1.7956-1.7312 3.9368 0 0zm-.44444-10.556c3.2407-7.4058 5.318 9.0947 0 0zm-.66667-9.8889c10.301-5.0204 2.8436 5.942 0 0zm.66667-10.667c6.0769-5.9366 6.7643 6.1273 0 0zm-1.0278-6.9167c6.6903-8.0576 5.2305 8.0965 0 0zm-151.24 190.47c10.114-3.1808 31.773 7.3863 31.999-7.568 1.8127-48.092 3.5142-96.914 1.2562-144.77-19.621-7.6511-41.816-4.8482-62.306-4.0799-11.177 5.6684-2.4302 24.826-5.1843 36.196-.14214 22.686.42882 48.487-.31476 69.246 3.1746 16.729-1.5416 36.525 1.8686 54.285 7.0075-7.2696 22.553-1.3642 32.681-3.3044zm17.886-6.4445c12.402-10.329 3.8236 7.5539 0 0zm2.0441-11.373c-10.269-7.1752 17.125-.52307 0 0zm-2-10.623c-9.2674-7.6357 24.433.14519 0 0zm.14374-12.757c2.5262-14.1 16.036 4.6396 0 0zm.85626-14.36c8.0355-6.4068 9.5956 5.9224 0 0zm1.3333-12.667c8.4964-9.2091 7.4625 8.3165 0 0zm-2.6667-10.62c7.339-13.773 13.183 10.317 0 0zm1.3333-14.621c10.217-11.012 6.8852 8.45 0 0zm0-10.67c9.1702-12.183 9.8013 9.2001 0 0zm.29085-11.654c13.143-9.7468 6.4926 7.1951 0 0zm1.7505-11.702c2.8421-11.131 15.114 6.9625 0 0zm.62532-10.067c7.7931-9.2723 6.8493 6.7948 0 0zm-1-11.667c9.3288-7.4698 6.4862 7.9536 0 0zm332.74 118c11.297-7.1205-6.1198-20.247-13.251-18.019 1.2856 4.6221 2.9988 27.798 13.251 18.019zm-423.64-4.4292c9.9547-14.146-9.0742-17.201-14.763-4.8757 1.1692 5.981 10.401 11.552 14.763 4.8757zm370.1-108.91c20.183-4.8267-5.8351-9.5897-15.357-6.7582-13.615.14196-27.23.28393-40.844.42589-3.5408 14.763 21.103 4.1227 30.636 7.1025 8.5239-.21287 17.075.17682 25.565-.77017zm-20.943-21.332c-.18083-8.1133 3.3119-31.743 11.768-19.303 1.835 10.302 9.7854-14.962-3.1573-10.364-12.097-4.9117-10.303 24.002-15.916 8.9437-4.4947-7.6878-21.796-14.724-23.018-.88342 6.233 15.308 6.7575-.10166 11.8-2.9357 11.429 8.3435 10.83 23.439 10.598 36.209 9.7124 2.4875 6.0814-5.4099 7.9249-11.667zm22.742 8.936c-5.5292-9.845-7.7589 9.4136 0 0zm-267.99-5.282c-1.1814-9.9242-22.149-4.1729-31.604-5.8012-12.611-.36284-25.435-.12532-37.691 3.0462 5.2289 9.4872 22.533 1.6384 32.422 4.4358 11.802.48389 23.705-.40447 35.44.99844l1.0061-1.8799zm226.9-1.6541c11.433-3.1229 1.5037-12.841-7.2527-3.9087-5.0852 4.8854 7.1994 11.613 7.2527 3.9087zm158.16-1.0854c-6.9827-18.964-15.356 11.411-.14937 1.2781zm-126.4-1.8892c-2.911-13.657-17.891 1.1195-2.6667 4.6413 4.2704 1.1337 2.234-2.0358 2.6667-4.6413zm9 2.9746c-9.381-7.6932-2.9977 8.3567 0 0zm-445.78-1.8093c10.294-10.755-18.279-5.7306-3.8367.80932 1.4066.41942 2.5944-.34208 3.8367-.80932zm444-4c11.229-12.925-15.025 1.9748 0 0zm-252.89-2.8573c-4.8789-8.6019-11.354 7.4421 0 0zm13.666.29149c-7.1524-12.367-8.8356 9.8269 0 0zm10.416-.97346c-4.3105-10.207-9.7166 9.6772-.0432.22426zm13.252.68198c-4.3609-8.523-14.241 7.1174 0 0zm10.999.33333c-6.2476-8.64-6.4353 7.1255 0 0zm144-.61976c-4.8118-11.09-23.235-3.5687-33.591-5.8117-11.447 1.6582-25.822-3.4375-35.443 2.4315-4.3118 12.669 21.515 2.9596 30.171 6h38.863v-2.1322zm-213.55-.8425c7.5119-17.078-8.2425-3.567-13.061-3.1572-9.8592-3.7006-7.4695-22.266 1.3662-20.469-.57626 15.244 19.371 4.4296 5.7978-3.0908-8.1097-7.2841-22.223 3.5844-17.883 14.827 1.1208 11.71 13.727 18.487 23.779 11.891zm-31.379-2.635c11.785-7.147.28101-35.467-11.778-23.187-5.3508 9.3292 19.533-3.4454 11.474 15.276-10.384 14.874-5.461-2.1474-12.763-5.6316-15.361 4.5594.96179 24.489 11.144 15.465l1.5077-1.5077zm101.6-4.5563c-8.2927-7.3291-25.595-2.2618-37.46-3.9597-10.318-1.884-34.171 5.1332-11.215 5.4365 16.224.35356 32.446.8225 48.675.51006zm206 .56084c-6.5376-8.0978-9.9396 8.8035 0 0zm-62.442-3.5739c4.5901-16.045-5.3182-19.983-19.674-16.838-15.517.16822-31.034.33644-46.551.50465-4.5552 16.164 2.4625 21.395 18.401 18.198 15.758.47055 31.572-.17263 47.288 1.1356l.37474-2.099zm-18.878-2.1898c-8.2359-8.6299 23.659 4.0154 0 0zm-3.9761-5.4255c-1.4121-8.6903 29.407 1.9962 6.8773 1.2554-2.3231-.34617-5.0885.91719-6.8773-1.2554zm85.757 3.2257c-9.4859-7.2456-2.4548 8.9097 0 0zm-255.13-1.3697c-6.5376-8.0978-9.9395 8.8035 0 0zm11.122-1.3111c-13.637-3.6287-3.2043 4.1865 0 0zm10.212.29272c-3.8189-9.9962-8.4114 8.5975 0 0zm11.613-.39128c-5.1797-11.307-9.2691 9.1179 0 0zm7.0541.83572c-3.6679-6.2331-1.9931 5.3004 0 0zm-28.619-5.5543c8.7285-1.7445 20.606-1.8125 31.129-.07102 8.9549 3.4608 9.2176-29.65-3.7047-22.984-15.045 1.2145-30.911-2.5772-45.177 3.3856-2.2259 12.715-3.3683 26.681 13.635 18.636 1.5321-.82207 2.7615.56802 4.1173 1.0338zm19.953-6.4457c5.9022-6.2342 19.442 5.5733 0 0zm4.6667-7.5442c-19.759-7.4793 23.097-3.0657 0 0zm197.39 8.3858c6.55-1.5571 37.013 4.1045 23.489-5.8008-20.086-.06202-40.848-1.873-60.874 1.3081-1.2909 12.466 19.752.67295 28.63 4.5475l8.7559-.05481zm-278.74-.50826c-3.1365-13.332-9.6984 5.9389 0 0zm137.1-1.243c7.1834-1.676 35.169 3.4049 26.772-5.371-21.565-3.26-43.477-1.263-65.137.01605-5.2615 13.879 16.071 2.4453 23.538 5.6374 4.9426-.09416 9.8851-.18831 14.828-.28247zm-104.3-5.3766c-8.0286-6.657-24.328-3.0951-35.443-5.9398-10.752 2.176-24.949-3.197-33.61 3.9576 3.4091 12.684 22.587-.30144 32.926 3.6685 12.237-2.1115 26.069 3.8438 36.937.86834l-.64503-2.0323zm273.88-3.2172c-3.7218-10.139-20.791-4.3743-29.631-7.8631-11.2 1.7758-27.81-3.7076-35.482 4.5403 1.539 11.726 23.08 2.6133 32.762 5.4929 9.5183-1.6338 26.676 3.1462 32.351-2.1701zm-170-1.8299c9.7513-3.1913 30.356 8.5193 25.333-8.871-8.1957-7.1789-24.493-2.0366-35.897-3.7-11.997-.55732-30.071-2.7538-24.77 14.477 11.533-1.1521 23.512-2.4693 35.333-1.906zm14-6c5.2868-6.642 5.8673 6.1277 0 0zm-122.28-4.6829c4.0579-16.478-15.098-12.54-25.243-12.957-11.693.19446-24.425-.9476-35.497 1.5449-4.8898 16.246 1.4723 22.001 17.872 18.396 14.523-1.4272 28.822 1.9932 43.144 2.2845-.0919-3.0895-.1838-6.1791-.2757-9.2686zm-7.4743 2.4884c-5.0237-8.2432 13.593.3666 0 0zm-.91667-9.8056c7.3197-6.5851 7.0693 5.9978 0 0zm283.73 2.3333c2.0498-15.833-21.018-5.3236-31.196-8.3333-10.849 1.81-31.946-6.6242-26.531 11.446 5.6306 6.8856 23.845 1.3576 34.391 3.3935 8.1014-3.7723 28.655 10.596 23.336-6.5057zm-12.397 4.3333c-14.643-4.7225 26.873 2.447 0 0zm-2.3559-5.0242c-9.8497-7.0975 28.164.18615 3.7602.49284-1.2642-.0324-2.4996-.41663-3.7602-.49284zm-128.1.30629c8.3301-9.3073-18.471-7.8688-25.76-6.7641-12.049 1.9913-25.586-1.259-36.45 4.9091 5.5183 7.5355 25.012.88538 36.063 2.8059 8.6903-.46293 17.564.43195 26.147-.95091zm-17.879-10.293c13.914 2.9721 28.137-1.9212 19.12-16.562-19.534-3.1511-40.643-.17695-60.783-.42713-1.9281 12.817-.76159 24.79 15.208 17.927 8.76-1.1764 17.641-.58736 26.455-.93768zm9.6692-4.9896c-8.4062-4.2999 16.756 2.2714 0 0zm-1.3333-6.6667c.77622-6.2927 14.367 5.0243 0 0zm424.67 63.333c1.5264-2.8905 1.6632 2.7591 0 0z"/>
</svg>
