<?xml version="1.0" encoding="UTF-8"?>
<!-- Created with Inkscape (http://www.inkscape.org/) -->
<svg version="1.1" viewBox="0 0 469.33 626.67" xmlns="http://www.w3.org/2000/svg">
 <path d="m224.12 623.73c-5.8142-4.3305-12.506-11.858-12.12-19.597-.48972-9.0179 8.4016-15.86 4.2331-25.369-1.4456-7.3104-11.832-7.9722-16.764-11.594-8.6212-5.3325-9.8128-15.405-8.366-24.604-6.2408-6.6673-17.36-3.67-12.674 6.7824 3.4467 7.6281 4.9763 15.157 12.421 20.268 11.501 7.4537 1.9698 14.445-7.4282 8.0772-5.7319-5.3284-14.802-9.1699-18.066-15.99-2.7584-7.4718-5.9161-17.396-9.5959-23.311-47.057-3.6431-94.529-2.6489-141.76-3.9223-3.7417-15.007.0473-31.277-.67816-46.79 2.1766-58.757.96988-117.65 3.6567-176.35 3.0734-30.711.75013-61.747 1.6881-92.664 15.644.0917 31.271-.15571 46.815-2.0834 4.4425-9.4782 13.182-6.0293 20.051-1.643 9.0706 5.224 14.685 5.036 14.547-5.8177 7.0965-19.246 26.49-28.756 44.848-34.591 9.633-3.31 20.569 1.2942 30.546 2.2442 13.285 4.5238 26.815 9.5632 39.884 13.891 7.1458-10.146 2.4866-23.86 4.3482-35.603-.9448-10.571 2.6563-22.217 2.2933-31.857-7.3832-4.8273-14.862 1.1091-23.314-1.9692-7.4274-2.2133 9.4657-6.2833 10.915-9.4156-6.7878-.50087-15.629 3.0605-23.564 1.8447-2.6705-5.0558 11.449-10.645-5.4963-8.3055-11.076-.0771 11.159-10.396-7.4697-6.7665-14.98 2.9354 5.7522-17.397-10.151-11.943-12.583 1.0897-24.07-6.0696-36.786-3.9852 6.1864-5.7398 14.895-7.8764 21.2-13.574-13.741.51162-27.827 9.7798-40.936 3.0826 10.196-8.3913 4.881-12.015-6.038-13.813-8.4387-2.9206-16.502-7.7005-20.687-15.901 6.4958-5.8209 17.342-1.862 25.585-3.755 15.753.04247 32.296-2.1048 47.573.71141 21.461 7.2694 34.451 27.583 53.699 38.152 5.6399.18358 21.428 9.4059 18.216-1.2366 3.081-10.641-13.342-9.6377-9.9331-18.195 6.6864-7.5151-12.376-11.474-10.487-21.03-2.9258-9.8755 4.5832-16.19 7.7018-24.043-.48228-11.363 12.514-13.649 21.341-12.956 11.075-.30835 11.793 9.4321 18.256 15.571 9.8601 5.3625 8.8531 15.333 8.3774 25.078 2.836 10.257-17.512 9.0967-6.6667 17.814 1.3001 8.7675-10.947 13.006-6.7722 22.771 5.6721 3.0573 17.124-2.5293 24.772-4.2228 21.543-10.477 41.613-24.731 65.013-31.601 18.974-5.656 39.222-4.5804 58.367-.42555 21.353 6.1461 40.664 16.871 61.013 25.101 6.747.08822 21.245 5.0011 7.3843 8.567-8.4418 4.5544-18.381 4.4536-27.111 8.1895 6.185 8.931 4.738 9.9486-7.921 9.048-5.6365 1.392-24.016-8.2647-15.948 3.0308.0883 7.8868-15.379-2.1007-21.281-2.8783-9.6011-2.5659-13.763-9.2041-22.196-13.645-15.194-7.0521.12621-7.4892 8.632-5.8883 5.307-2.8252 20.82 2.6762 17.941-1.5402-4.0619-3.2554-21.375-8.1106-13.112-12.97 15.625-.64172 5.9072-3.2251-4.5058-2.81-12.747-.76238 9.4859 15.053-3.6318 12.263-9.4447-.23378-20.167.76165-28.644 2.6994 8.9093 11.449-3.5246 7.3554-11.771 6.5914-13.863-4.2064.0934 8.1982-10.248 6.3891-9.8781.57239-23.348-3.7688-30.526 3.0738-6.1725 10.995 22.31 1.6309 7.3595 11.582-14.078 7.8687 5.1335 3.6012 6.6881 9.9394-6.1214 3.8121-13.983 4.7428-21.277 5.6257 8.8575 12.387-3.9658 7.2388-11.688 5.8681-7.9422-3.6173-15.446-7.436-12.538 4.669-8.5051-1.6767-17.641-9.5443-15.165 4.8969.12409 16.705.0223 34.105 2.1766 50.424 4.0034 11.314 15.948.89501 24.13 2.9833 19.287-.41686 38.853-2.5452 57.968-1.9093 11.098 4.2138 23.383 7.1267 29.36 18.517 7.5322 4.7842 8.0489 17.732 14.422 19.755 5.0891-5.1171 12.683-14.086 21.109-11.333 2.7625 6.0064 6.7728 11.573 12.782 16.46 3.5256 8.097 15.611 2.6434 23.347 4.2067 9.6312-.0662 22.276-3.1499 17.768 10.942.48507 27.401-.8132 55.309.77253 82.397 2.2891 50.416.81973 101.66 2.9926 152.37.69706 23.514 1.3941 47.028 2.0912 70.542-8.8211 5.5902-20.757.40031-30.895 1.4298-31.995-1.805-64.487.10767-96.13-3.7636-10.367 2.885-8.3544 19.184-18.078 24.257-8.0527 8.1533-17.986 14.541-29.387 16.634-11.94-6.8507-1.1812-14.11 6.6915-18.031 4.5648-5.4892 12.987-15.271 8.1078-21.999-4.5593-7.5383-18.913-5.6048-15.235 5.2471 2.27 11.161-7.7192 19.343-17.91 20.778-6.6411 2.9872-16.845 6.1776-12.311 16.721 5.0708 9.6533 10.959 24.433-.83337 31.664-5.8143 5.2341-18.075 4.9741-24.987 2.5477zm13.88-1.2222c10.339.65015 9.9044-16.59-.59393-15.164-6.3579-3.0702-22.019-2.6519-17.847 7.589 1.3694 6.8731 12.303 10.789 18.441 7.5746zm-15.977-17.472c8.9386-6.2761 19.336 2.1611 28.912 3.3424-1.6774-13.199-17.797-10.177-27.593-10.79-7.4091 1.5242-14.911 16.45-1.3194 7.4477zm25.643-10.706c-3.3568-6.5297-21.923-7.3304-22.313.21429 4.8591 3.622 17.236-.76289 23.817 4.0986 4.5336 1.1851-1.3364-3.1475-1.5042-4.3129zm.33334-10.19c1.1578-11.233 4.2787-22.214 1.286-33.57-.99494-12.734-3.68-26.51-1.8446-38.76 9.6309-6.3372 6.4299-16.503-2.665-6.3096-9.2226 8.089-5.7393 20.672-9.2272 31.162-3.3907-10.989.75836-23.54-7.889-32.513-8.9132-13.074-7.954 3.1116-3.9809 10.162 2.5883 15.052-.23026 30.472-5.0101 44.706-1.1735 10.291.90512 19.859 6.3983 28.669 7.5004-6.3697 18.726 3.625 22.933-1.4114v-1.5631zm49.333-6.8424c15.228-8.7463 25.597-26.239 23.254-43.968 2.2404-11.593-3.2889-21.241-9.0083-30.842-12.734-25.9-36.176-44.233-60.707-58.256-18.767-7.2308-35.436-18.605-54.206-26.051-6.2002-6.701-11.926-12.062-17.018-19.392-6.0237-6.9988-5.4733-15.311-3.859-23.835 3.4442-10.272 12.221-17.612 19.044-25.816-7.5904-9.8866-25.623-7.3291-31.126 3.7429-8.9561 8.8328-14.006 20.365-12.969 33-.12732 10.552 2.2156 21.859 5.6952 31.604 6.4424 8.5664 9.3839 19.496 20.233 23.499 15.512 18.016 41.43 19.228 60.865 31.43 8.5941 5.0903 19.554 7.0315 25.548 15.582 7.9031 3.2357 15.427 7.7739 21.2 14.606 10.214 13.051 21.177 28.52 19.72 45.901-5.6102 9.916-11.182 19.831-20.658 26.3-9.1471 9.1032 5.2932 9.267 10.627 4.6411 1.1214-.71523 2.2428-1.4305 3.3642-2.1457zm-112-6.9202c-3.0921-11.315-13.618-20.771-10.969-33.562-1.6622-15.231 8.354-28.732 16.159-40.213 8.8331-6.165 19.88-11.312 23.962-21.894-7.2117-2.9959-18.387-1.202-23.091 5.7914-9.6182 8.9807-18.573 18.424-22.73 31.212-4.4715 3.3228-.29545 27.157-3.3815 16.285-3.7254-18.084 8.3094-34.873 20.708-46.891 4.5955-7.2541 18.085-8.0286 19.343-16.474.12528-9.2139-14.329-3.1406-16.798 2.4535-11.012 10.479-22.232 21.438-25.13 37.049-5.0727 12.091-3.6784 25.776-2.7658 38.374 5.3685 11.375 9.9834 28.331 24.693 29.489l3e-5-1.5632zm83.984-4.718c8.6415-5.5401 9.6926-23.181-2.6452-24.486-14.165-4.9498 4.5816-6.3065 10.812-5.1774 11.499 4.0554 19.754-6.6301 4.1929-5.3852-9.8805 1.0804-20.166-.22212-29.677 3.0295-.92758 9.681 12.869 12.881 16 20.897.55185 9.4359-18.336 9.7387-14.353 16.125 6.3998.0335 11.832 1.3415 15.67-5.0036zm-54.651-1.5049c.72553-7.5954-16.538-11.565-7.0178-19.926 5.3664-4.0708 18.624-15.301 3.8-14.302-9.9957-1.1806-20.082-1.3975-30.116-2.1795-1.6846 10.894 15.066 3.353 22.046 5.5822 9.5508 1.1447-11.52 9.9237-8.7122 16.109-.47516 8.7109 9.0396 16.262 17.13 18.068 3.7743 1.4539 2.8405-.2634 2.8698-3.3523zm46.415-5.5435c10.805-5.9947-8.8995-12.781-7.7486-3.5899-.9646 4.5433 4.8937 9.3385 7.7486 3.5899zm-44.104-6.9481c8.2411-8.3525-4.8162-15.071-7.0662-4.4544-3.3672 5.1905 4.2486 8.8772 7.0662 4.4544zm232.39-85.667c.21339-69.961-1.9989-139.88-3.3039-209.82-2.1985-6.9699 5.1398-23.74-6.7375-20.764-5.3279.86916-27.275-1.679-18.961 3.7133 5.2329 4.4627 18.573 3.7656 17.456 11.778.1421 16.442-5.4713 32.183-3.5254 48.741.58995 66.637-.58633 133.33 1.139 199.93-.26301 10.969 3.4674 22.934.6972 33.278-34.531-.72298-69.188-2.0906-103.65-1.8996-12.38 3.0994 5.0086 12.557 11.399 9.6384 35.305 2.2427 70.666 1.532 106.02 1.398-.17579-25.333-.35159-50.667-.52738-76zm-298.7 64.728c4.6115-8.5925-12.633-6.0273-18.682-6.9637-33.341-1.4334-66.618-4.7517-99.985-5.0977-1.2033-65.385 3.6249-130.66 2.7541-196.05.89414-15.861-2.1627-32.447 2.8047-47.583-.18948-14.335-3.1525-28.783-1.3733-43.038 8.4481-.28035 18.3-4.4596 23.891-10.536-11.505-.24561-24.62.42812-36.743.53557-.44444 27.556-.88889 55.111-1.3333 82.667-4.0573 10.317-.80776 22.796-2.1166 33.926-.73041 62.923-1.8349 125.84-3.6501 188.74 6.536 5.699 17.526 1.2685 25.809 2.9944 35.535.95878 71.079 1.356 106.62 1.7193l1.305-.86053zm229.98-3.6704c5.0664-.11532 27.18-5.3933 14.377-6.8568-23.368 5.3155-47.492 2.5317-71.246 3.7991 3.1752 8.5181 15.928 3.8604 23.187 5.1319 11.317-.053 22.607.79973 33.682-2.0743zm48.25-4.0577c-1.617-14.754-2.7209-29.559-4.1265-44.333-3.5069 3.5608 1.2682 17.291.31707 24.908.32224 8.603 1.672 17.139 1.5798 25.759 5.4969 1.4457 1.6342-3.5115 2.2296-6.3333zm-139.99 1.5321c-.47315-8.8515-16.002-2.0785-22.7-3.2211-13.318 2.9116 10.531 4.9114 15.365 4.6842 2.2953-.89448 7.3875 2.8747 7.3347-1.4631zm-73.569-.5321c-7.9418-5.8532 1.2048 4.9224 0 0zm207.38-12.934c-5.6917-60.417-2.5428-121.28-3.3392-181.89-.0482-28.751-.42653-57.511 1.9816-86.19-11.959-5.9106-4.8766 13.168-7.0939 19.475-.0917 39.249-4.7498 78.347-2.1718 117.6.77361 44.945 4.5577 89.795 7.4046 134.61 3.2506 18.803 6.202 8.2161 3.2188-3.6003zm-216.05 9.7448c-4.3818-6.036-17.309-3.0699-25.003-5.1241-2.6807 9.1651 13.3 4.592 19.458 6.6851 1.5581-.60347 7.0587 2.0624 5.5448-1.561zm177.67-2.7105c13.06-5.5918-8.7787-.93922-13.267-1.7751-15.79 1.3459-31.554-.013-47.322-.99226-1.061 7.4339 16.15 5.4041 22.528 5.6486 12.502-1.3964 26.327 1.8196 38.061-2.8812zm33.853-.43407c-5.5365-40.109-6.5601-80.839-8.7177-121.27-1.4852-51.92.11069-103.84 2.1427-155.73-7.7197-8.6231-4.13 13.244-5.5461 18.244-1.9908 46.018-.7084 92.17-.33931 138.2 2.7201 39.835 3.7608 79.815 7.949 119.56.60236 2.241 6.9261 6.3956 4.5115 1zm-165.28-1.9167c-2.1792-5.4403.27443 8.3622 0 0zm-36.33-.16067c-5.8491-4.7454-16.692-5.8238-24.471-7.278-16.328 3.1648 5.5122 4.8675 11.581 6.0747 2.4744-.165 14.958 5.8446 12.89 1.2033zm-58.271-1.8462c-3.83-5.1716-17.828-2.1659-25.5-3.3112-16.936-.35686-33.873-.71372-50.809-1.0706 11.094 5.0594 24.376 4.6462 36.46 6.2825 13.107-.10351 26.214-.20702 39.321-.31052l.49313-1.4833zm130.36.37209c-1.7177-5.4094-15.55-5.5252-22.987-4.0202-15.142 3.7717-1.6968 7.2327 7.0512 4.9301 5.2836-.43723 10.732.0412 15.935-.90985zm-253.03-23.586c-.98366-26.283 4.5766-52.142 3.9603-78.443 2.0197-59.33 3.3664-118.69 3.7398-178.05-10.385-3.0345-1.8156 15.51-3.6719 22.186-1.0125 53.682-2.9431 107.42-3.929 161.13-2.6611 32.385-2.5548 64.851-2.3991 97.318 4.9286-2.8379.8625-17.496 2.2999-24.137zm16.367 22.804c-3.0529-5.781-3.3264 5.5182 0 0zm342.67.66667c-1.5264-2.8905-1.6632 2.7591 0 0zm36.919-5.6667c-1.8014-4.794.19988 14.393.21454.82097zm-22.252 1.5791c-2.6192-56.786-8.7028-113.47-6.9017-170.39.0785-37.322.15693-74.643.2354-111.96-4.6319 8.4389-1.3575 20.305-2.8337 30.112-.72765 24.555-1.4553 49.111-2.183 73.666.22437-36.703.44875-73.405.67312-110.11-7.073 3.7228-1.5773 16.875-3.8276 24.215-1.8789 58.848-1.5574 117.77 1.8228 176.56-.6576 20.292.92051 40.833 3.0992 60.866 4.1328 10.578.45201-13.032 1.1685-17.402-1.3728-43.768-2.5767-87.539-4.6337-131.28 5.9884-5.5612 1.1928 14.913 2.7141 20.136.81851 35.625 3.7857 71.196 3.7974 106.87.8035 17.307-.44465 35.63 4.36 52.144 3.406.76588 2.451-.91894 2.5093-3.4209zm-366.07.86604c2.3618-22.29 1.6835-45.49 2.379-68.146 3.8599 2.4742.3483 17.998 1.3549 25.523-.16471 13.059-.32942 26.118-.49413 39.177 6.558-6.5067 2.0702-17.885 3.9876-26.438 2.3698-53.47 5.067-106.92 4.6929-160.46 1.6439-30.892 3.1686-61.791 5.1237-92.665-11.509-1.303-4.8211 13.871-7.1371 20.893-1.7281 58.578-3.9952 117.16-5.1649 175.75 1.571 6.1006-1.7614 23.699-2.1382 9.1462 2.1906-54.127.78149-108.51 2.6828-162.65 2.4206-12.87 3.2164-27.149-.55084-39.349-2.8204 17.786-1.3146 37.339-2.477 55.802-2.1661 58.8-1.7959 117.75-6.1955 176.43-.0998 15.933 1.0458 32.094.67247 48.211 1.1301-.33176 3.1327.90136 3.2643-1.2215zm340.48-.0517c8.9863.44051 19.889-1.9023 14.551-12.702-3.9835-43.174-6.2942-86.549-7.9181-129.86-.56295-49.513-1.0449-99.026 1.4063-148.5-2.5836-7.5806-12.405 4.504-17.745 6.1262-6.5719 6.6478-1.4534 17.466-5.708 25.695-2.1701 15.723-10.415 30.026-18.932 42.981-15.011 12.957-29.76 26.76-48.547 34.228-10.807 2.552-11.48 9.5117-2.0692 14.433 12.515 11.599 17.352 29.893 17.081 46.396-2.7008 18.698-10.627 36.521-25.164 48.982-6.0444 5.5542-12.29 10.971-20.036 13.993 4.1318 5.7942 13.986 9.779 19.029 16.759 6.1576 6.2466 13.782 11.369 16.138 19.546 7.8426 6.6865 8.0535 23.236 20.904 21.668 12.369-.20847 23.413 2.5667 36.07 1.4826 7.0258.28583 13.963-.50682 20.939-1.2218zm-167.75-2.0601c-1.5265-2.8905-1.6632 2.7591 0 0zm-162.67-1.3333c-1.5265-2.8905-1.6632 2.7591 0 0zm107.33-3.3333c-4.7829-4.8389-18.43-.99378-26.568-2.5462-21.115-1.2968-42.626 1.0545-63.432-3.0839 3.7148 6.4814 18.081 3.8851 26.014 6.7717 21.187 2.412 42.677.28474 63.986.8584v-1.5632zm79.826.1928c3.4698-6.2491 6.6814-18.863-.38105-23.712-7.5913-6.8297-15.085 3.2039-12.294 11.258-.13838 5.7146 5.7734 21.636 12.675 12.454zm190.56-9.1928c-2.3518-40.559-.28893-81.34-.87099-121.99.29656-35.425-1.3249-70.939 3.5871-106.13 2.0567-5.9571.34891-26.525-3.105-12.858.8321 11.335-.6818 22.309-2.5777 33.284-.60579 25.581-1.2116 51.162-1.8174 76.743-2.5204-14.444-.27713-30.853-.96116-46.054-.75593-17.323.7989-34.443 2.7133-51.578-.77014-5.7099 3.7452-24.299-3.5829-19.615-4.9602 57.975-4.138 116.2-4.5254 174.32 1.5823 18.019 1.1617 38.16 3.9701 54.879 1.7938-13.545.18706-30.483.67537-45.331-.0503-21.556-.10048-43.113-.15072-64.669 1.2295 46.473.16844 93.064 5.3897 139.33 4.861 1.0627.46579-7.532 1.2556-10.333zm-156.39 7.8681c13.434-1.521-8.2984-9.1277-13.712-3.379-11.987 6.9471 9.7731 4.1442 13.712 3.379zm-56.333-5.4692c10.87-6.1408-.81469-19.093-8.5705-11.352-2.5047 5.2036-24.205 12.246-13.809 14.122 7.5282.88056 18.212 6.5481 22.379-2.7697zm-162.02-16.171c2.3633-39.37 6.0938-78.658 6.6356-118.11 4.359-28.264.97786-56.975 4.4816-85.366 1.1349-16.797 2.0167-33.61 3.0311-50.415-.83833 37.42.33406 75.106-1.7686 112.36-4.8737 23.713-1.6199 48.495-4.6905 72.562-2.1189 27.896-4.399 55.782-5.4062 83.746 7.7965-3.4136 4.698-17.494 6.1932-25.507 3.9388-60.294 7.3766-120.76 9.8498-181.18.12196-23.77.24391-47.54.36586-71.311 4.0408 25.435.39519 51.458.80727 77.146-1.0508 46.777-4.2696 93.453-5.8607 140.21-.64808 18.614-3.6644 38.12-2.8492 56.184 28.878 3.2322 59.291 2.1817 88.654 4.7857 11.084 5.7 8.7825-8.4915 14.185-15.026 5.6718-9.0434 17.817-15.663 18.014-27.302-11.551-9.6383-24.995-17.247-31.67-31.375-6.1569-7.1004-4.402-17.074-8.4383-25.469-.28808-14.804-2.0436-31.511 10.448-42.254 6.0107-5.9612 10.582-16.775 1.755-22.343-12.765-7.9939-24.24-16.153-35.279-26.637-7.6937-5.632-10.234-15.034-17.004-22.128-9.4584-18.425-13.491-39.101-11.158-59.708-2.854-4.436-17.126-8.8125-20.606-8.2712-5.5687-4.9299-3.3984 16.759-6.6667 7.8822-1.9264-13.571-5.8436 8.4764-4.732 13.679-3.8258 77.805-8.8889 155.56-12.026 233.39-.31586 9.8592-.63172 19.718-.94757 29.578 7.5182-.66423 2.6828-13.891 4.6804-19.118zm205.69 14.257c14.638-2.5011-6.1157-7.1305-11.333-1.8052-2.0084 7.4064 7.8564 1.7233 11.333 1.8052zm138.89-1.7073c-3.3112-1.4409 1.6859 6.0215 0 0zm-143.92-6.2987c1.2642-9.6448-16.783 1.9313-7.52 1.7523 2.3708-.76507 5.6373-.0917 7.52-1.7523zm-39.632-18.812c-1.5265-2.8905-1.6632 2.7591 0 0zm-4-1.3333c-1.5265-2.8905-1.6632 2.7591 0 0zm61.216-18.884c4.9766-3.5908 16.762-9.7182 14.559-13.891-7.8347 3.5568-19.566 5.0084-23.507 12.961-2.5946 8.7036 5.3235 3.0103 8.9479.93042zm-8.5495-6.8953c8.8527-3.7331 17.707-7.1777 25.315-13.574 13.248-7.0154 19.637-22.109 21.451-36.213 2.9784-18.447-4.6281-37.725-19.192-49.391-14.266-18.639-38.308-24.269-59.693-30.744-29.809-13.388-62.904-19.944-90.369-38.079-6.0122-6.2759-14.047-6.6257-19.523-13.425-7.5835-9.7496-9.5494-23.542-10.923-35.806 3.5918-11.443 11.575-23.319 24.424-24.322-5.4838 7.5262-19.44 7.7845-20.087 19.525-4.0069 16.192 5.3356.2749 9.119-5.5233 9.2674-9.8222 23.16-1.101 34.832-2.9794 12.117-.49245 24.237-1.409 35.522 3.7576 5.307 3.3076 23.031-.40837 12.241-6.1004-3.9313-4.3045-24.758-.84758-18.452-2.933 8.3755-1.2603 16.84-6.488 24.65-5.2841 6.3892-6.0282-9.753-11.361-15.361-12.597-8.6372-4.4909-15.001 1.401-17.247 9.0155-6.9176 4.7528-21.588-5.8089-8.5885-7.5469 7.6838 2.8463 19.221-8.1365 5.5472-8.4827-14.503-3.5829-30.908-8.0362-44.413.94682-10.565 4.1707-20.316 9.4197-26.616 19.237-11.027 14.753-13.706 34.399-9.0379 52.046 2.57 16.141 11.541 30.014 20.343 43.278 6.1181 10.299 18.839 14.668 26.3 24.25 7.6045 3.7727 15.742 7.1148 22.696 12.681 23.021 9.9431 46.182 19.504 70.708 25.06 13.099 5.731 10.252-8.3455-1.0767-8.4178-13.186-5.0794-25.847-11.986-38.988-16.065-24.009-12.578-50.156-22.197-70.355-40.87 7.7287-.36302 13.804 10.843 21.993 13.008 12.688 6.6785 24.711 14.744 38.32 19.357 15.426 7.8324 31.166 14.821 47.443 20.396 11.306 5.7672 23.627 11.26 32.968 19.689 6.6135 8.3196 12.558 18.203 9.3549 29.126-3.2741 8.5468-8.7518 17.577-14.158 24.8-6.47 3.8927-11.129 10.043-18.5 13.295-4.635 8.3732 10.487 12.525 16.688 10.51l1.335-.81307zm-25.419-12.921c8.057-9.612 2.7934-24.143 4.581-35.87.1391-10.043.27819-20.086.41728-30.129-6.6286-3.7621-16.318-4.8208-22.374-.98533-5.1793 10.491-.80838 23.346-2.0499 34.811 1.3087 10.741-2.9561 24.822 4.4846 33.041 4.9944.63919 11.882 5.6144 14.941-.86817zm20.752-10.109c9.9382-6.7596-21.626 4.1338-3.3333 2.7504l3.3333-2.7504zm-48-1.602c-5.0789-9.7204-3.2514-12.076 5.0631-5.5402 4.7375-6.7861-13.863-15.113-6.3026-15.381 11.51 9.6365 4.171-4.8331-.65484-9.8746-2.9855-5.5562 15.721.88948.561-9.7645.32087-2.29 11.23-1.7787 2.1328-11.371-8.307-2.1487-13.615 11.44-20.541 15.862-4.363 10.133-3.9444 21.21 2.8741 30.116.24761 6.8231 16.508 13.795 16.868 5.9539zm39.943-.86455c3.4516-4.4513 23.244-6.6356 12.286-11.018-6.112 1.8236-17.979 2.2696-18.643 9.6561.46787 5.0494 3.503 5.2846 6.3572 1.3617zm.4565-10.279c5.556-6.1909 19.998 1.468 21.012-7.8295-6.1584-2.1704-17.019 1.1962-23.738 5.6068-5.5994 3.4271-3.3164 6.8982 2.7262 2.2227zm7.6004-10.445c7.2647-.6903 23.186-3.8602 9.1015-8.9199-7.3621.95008-17.253 3.2701-21.102 9.1452-.87096 4.6611 10.223-.24466 12-.22528zm-74.143-2.7757c.32863-8.9623 4.4437-18.113 4.7173-26.874-5.549-9.7098-13.564 6.1812-13.679 12.717-2.6047 6.1796 1.1967 21.685 8.7121 14.807zm79.809-8.0471c14.652 2.3427 7.4405-11.082-2.9629-5.6082-9.2454-1.1159-22.255 11.318-6.0371 6.5054 3-.29909 6-.59817 9-.89726zm-7-7.1286c15.589-3.0815.98297-9.9767-6.3917-4.1215-9.6645 4.5957 1.1176 9.1127 6.3917 4.1215zm-1.9452-9.4706c-3.4272-10.39-13.92 7.2504-.0571.0924zm-62.499-8.8002c-6.6656-1.4398 2.3933 3.4422 0 0zm3.7778-4.4444c9.217-11.785-11.124 9.9844 0 0zm113.32-39.266c14.058-9.0762 29.65-17.093 40.573-29.969 9.2209-20.51 16.887-43.282 13.971-65.941-2.8262-9.2229-11.213-16.036-16.155-24.343-12.635-4.6553-24.639-12.567-38.726-9.2014-20.532 2.1094-42.766-1.5548-61.816 7.105 5.2483 6.0923 20.391 1.0912 19.345 6.1128-6.1782-.61076-20.825 4.3997-9.1834 10.085-10.888 1.8374-4.4029-11.985-10.708-13.264-6.7378-2.8011-17.616 2.4555-19.292 9.349 7.9413.35741 13.688 10.385 22.203 10.54 15.828-1.8324-1.1332 4.473-8.5917 1.4878-13.798-1.3641-4.9532 7.8976 4.047 5.3259 18.633 1.0845 36.563-6.142 53.916-12.162 7.0229-5.6951 14.694-6.9742 23.854-5.8579 9.4118 1.4411 18.151 7.282 20.898 16.878 1.0922 8.5811.50145 18.824-1.9807 27.286-6.3835 16.745-17.119 32.606-33.922 40.151-14.221 8.873-29.679 15.053-45.787 19.206-13.363.31379-6.9789 13.228 3.0239 11.812 13.458-.50769 27.937-6.2376 38.339-13.425 10.389-4.1424 21.98-12.256 31.585-19.908 7.1506 1.4869 12.75-14.479 16.382-12.437-1.1942 7.9537-11.052 14.926-18.047 17.364-8.9082 6.2819-17.326 13.11-27.92 16.709-5.5727 7.9318-18.083 5.5189-21.959 14.899 6.7625 3.6489 15.765-1.9841 22.015-5.4676 1.3115-.77775 2.6231-1.5555 3.9346-2.3332zm-68.223-40.401c.004-16.568 2.0802-33.235-.80556-49.667-11.521 1.1582-6.8795-7.7049-7.69-14.083-9.1567-2.8472-12.483-11.948-1.1912-15.315 11.62-.54194 8.3737-11.113 8.586-19.949-.58817-17.005 1.1758-34.723-.86708-51.287-4.7851-11.906-19.954-.99368-18.514 8.6484-3.0094 57.255-1.3415 114.66-2.3645 171.99 7.3004-2.6776 21.631 12.727 22.097.64533l.74919-30.979zm19.078 30.987c14.258-3.5157 28.186-8.939 41.082-15.721 15.648-9.3191 30.506-21.444 36.655-39.198 2.2213-7.3906 4.7915-23.106-7.3183-16.396-10.049.41169-21.542 1.8046-30.906-.44422-1.0439-4.0027 15.802-.53091 21.775-1.6022 7.302.0867 21.848-.0477 19.201-10.364-3.6624-9.1005-11.304-16.41-21.884-15.131-11.717-3.681-22.159 9.4674-31.449 11.073-11.102 1.2932-24.974 8.4314-37.79 7.1311-8.7728 4.4876-4.8686 16.214 4.1227 7.1052 3.4349-6.1076 28.18-4.1839 15.269-3.4591-7.0555.28239-21.412 7.2262-20.602 12.306 8.1129-1.2894 19.047-5.9679 25.667-1.3002-6.8158 2.6584-18.22.61784-24.667 7.9694 5.2932 1.2119 27.151-2.4307 20.687 2.2267-7.8007 1.7392-17.615-2.4916-23.173 5.4358 8.2968.58701 22.132-3.0235 27.004.15878-4.7358 4.826-15.847.44318-22.356 5.3655-15.03 6.0138 3.9216 4.7213 10.519 2.7915 12.583-2.7821 14.411 4.031.93754 3.3646-4.3131-.94909-24.2 8.2996-12.275 7.0933 8.479-.58589 16.99-.90585 25.322-2.7147-6.8544 5.9048-17.888 3.6583-24.722 10.612-6.5684 3.8274 12.537-2.3101 17.277-2.4865 15.477-1.2963-3.2066 6.8282-9.8098 6.6286-13.568 3.4034-9.1192 8.1696 2.4189 3.3386 6.0975-4.7268 22.096.20249 8.0292 1.3917-5.5461 2.433-24.025 5.8907-19.859 10.161 8.4281-2.2994 16.336-7.6108 25.333-6.6148-8.9622 5.1005-19.622 6.7581-28.667 12.155-.7659 6.2528 10.832-1.5135 14.178-.87394zm27.155-76.054c-16.95-4.8296 17.209.7209 6.4377 1.7329-2.1776-.33973-4.2873-1.2113-6.4377-1.7329zm-73.333 69.374c-1.0751-4.9859-11.207-18.275-.49469-9.9349 5.9573-3.6884-13.416-19.255-1.4342-14.9 6.362-2.8882-5.6589-11.371-4.7377-15.521 10.139 8.6652 7.3918-3.2931 1.2594-10.214-2.2192-2.8172 13.254 5.7823 2.3925-6.6518-2.3242-8.0409-19.272-10.65-19.78-14.085 9.7284.0916 17.878 7.0977 23.169 14.885 3.4251-7.0708 1.933-17.469-2.8571-23.841-17.745-.26519-35.847-4.4885-54-4.4771-10.301-1.0517-20.928-7.6346-30.247-.0685-8.6453 6.9849-7.0824 11.423 3.8561 8.1293 19.324.87306 39.368-3.369 57.738 4.2852-8.8278 2.5103-19.75-3.7928-29.584-1.7278-13.666 1.2703-28.727-.67459-41.547 2.5472-3.287 7.5142-4.1225 17.788 2.4237 24.219 10.832 15.479 28.634 24.238 45.176 32.592 9.7682 2.682 19.461 6.6942 28.861 11.456 6.4932-1.9863 15.967 8.4782 19.805 3.7702zm-.66667-92.658c-7.8257-10.008-7.9133 7.9639 0 .41859zm-38-13.982c-6.8685-8.1339-7.0724 6.4081 0 .43685zm3.5556-.22222c-3.3112-1.4409 1.6859 6.0215 0 0zm62.005-116.44c4.8458-10.062-6.9873-13.293-14.468-11.173-6.7713 1.1911-4.9325 18.05.73708 18.091 6.9386.1162 15.284 3.6272 13.731-6.9184zm-9.5606-13.737c7.4231 1.4458 23.011 2.8734 11.9-6.9781-6.2582-4.1221-17.654-3.1176-24.618-.67769-11.288 5.2845 1.3712 12.442 8.281 7.5756 1.479.02673 2.9581.05346 4.4371.08019zm-11.289-15.292c2.5473-5.6937 3.6879-15.598 2.4714-21.664-5.8128 4.2712-6.3433 2.9741-10.152-5.0636-8.617.12166-11.433 12.209-7.9134 18.92 3.5986 4.252 9.4966 11.613 15.594 7.8069zm12.86-3.6462c-3.8987-6.4316 4.9724-20.791-3.4282-19.333-9.1622-1.4623-3.0832 13.95-6.5889 19.464-1.013 7.1098 13.323 5.8162 10.017-.13111zm14.565.29278c7.194-3.8189 8.8124-15.932 3.5352-22.175-7.2292-2.5757-3.899 12.335-11.481 2.5574-6.9556 2.1061-9.4073 13.832-3.2646 19.262 1.5184 5.97 8.0466 3.2866 11.21.35611zm-10.318-25.808c10.677-7.4015-4.8008-20.414-13.705-15.492-6.2417 1.9527-15.31 17.27-4.1624 17.823 5.8214.30031 14.167 3.9201 17.867-2.331zm32.209 159.56c.0898-7.5097 13.603-12.311 11.306-21.51 5.8327-7.7958 4.5803-17.632 5.7402-26.774 4.262-2.6717 4.1749-17.158 11.364-4.2031 3.4284 12.663 4.6866 27.49-.85776 39.427-7.1566 4.3987-14.649 6.8544-20.363 14.349-2.0693-.8406-6.3593 1.6692-7.1901-1.2891zm25.973-2.6223c3.5222-8.5239 11.441-15.769 8.947-26.111-.96097-10.244 4.1488-22.214-3.9664-30.422 8.2667-9.7705 12.947 6.6777 17.979 11.83 8.6652 15.998 3.4826 39.853-15.412 45.551-1.3474-.0856-8.2348 1.9412-7.5471-.84773zm-41.151-2.9583c-1.5769-5.3355 7.1027-12.736 9.8588-20.116 3.5796-7.7394-.66555-20.757 3.8851-26.347 9.8515.67703 13.728 12.024 10.396 20.519-2.214 10.973-5.6838 24.192-16.989 28.804-3.071-.0999-6.1625 1.0529-7.1507-2.8597zm-73.75-.50754c-6.7677-4.4-9.0718-15.002-9.0993-22.975-.74962-10.643 3.039-22.036 8.6667-30.636 7.9804-4.9873 10.59 6.429 9.199 11.461-6.748 10.108-4.7931 23.58-3.0009 35.093 10.007 6.7409 7.6483 12.038-3.5718 8.249l-1.3737-.74594zm-23.607-4.4526c-10.013-11.012-10.346-28.531-2.9377-41.242 4.4303-6.09 7.9989-17.972 17.139-16.262 9.5901 7.9014-5.0129 16.013-2.9732 25.356.66727 11.744-1.2336 23.769 1.2799 35.311-5.1186.3253-9.5346 2.4679-12.508-3.1632zm39.383.98685c-9.7939-8.5615-12.272-25.721-2.1896-35.563 1.4476-6.2029 23.243-9.8702 14.312-.89871-9.744 9.1173-6.4959 24.569.47218 34.356-.28397 6.0845-9.1208 3.7569-12.595 2.105zm-61.751-7.2868c-12.503-9.9182-13.084-33.196 2.5131-40.254 4.1817-6.4133 10.443-13.567 11.035-21.494-3.5802-10.164 12.105-8.9224 8.661.03917 8.2833 3.9307 5.9721 8.6735-2.1292 15.483-11.425 12.087-15.306 30.762-10.147 46.511 1.3652 7.8915-8.1073 4.2822-9.933-.28518zm116.26-5.7819c.27083-6.4235 3.2116-18.445-1.4294-21.355 8.6976-5.4346 14.853 4.5596 9.9283 12.727-1.8977 2.5489-4.5146 13.526-8.4989 8.6277zm103.28-7.9583c-10.736-8.1376-24.588-11.627-32.07-23.636-4.9882-7.8218-17.483-13.318-16.673-23.104 5.8647-7.996-16.253-7.453 2.6216-9.375 8.7545 2.6611 14.606 13.192 22.177 18.973 12.343 12 23.147 25.176 33.275 39.013 1.6709 8.3832-6.8603-1.0278-9.3301-1.87zm36-10.797c-8.2264-.7235-14.697-2.6546-21.249-7.9697-8.7853-.60835-15.479-4.7093-22.134-9.964-8.2788-4.3863-15.633-12.093-20.617-19.435-10.688-3.4252-5.5186-8.8317 5.0228-6.6189 9.1949 3.3821 15.273 14.167 24.929 18.222 9.9637 7.5014 25.642 6.8946 34.048 15.142 2.3431 3.4422 18.819 12.44 5.4379 11.767-1.9271.245-3.6449-.62138-5.4379-1.1439zm-318.89-3.8827c-10.489-1.4283-13.9-13.262-.49205-11.203 12.4.15669 23.778-5.4612 35.468-7.5809 12.81-5.5797 24.419-13.733 35.747-21.594 6.7802 4.0892-.81673 14.415-2.9328 20.197-7.5015 11.709-22.348 16.601-35.128 20.46-10.779-.41298-22.214 2.2187-32.662-.27881zm328.89-11.761c-13.738-1.5944-27.297-4.6691-38.207-13.659-8.1119-3.5229-12.828-9.0303-20.46-13.993-13.338-8.6534 1.8216-7.4599 9.7662-5.7196-2.2217-14.814 6.6056-1.391 13.615 2.08 12.022 6.749 23.731 14.404 37.989 14.696 7.842 2.6653 12.059 12.472 20.63 10.906-.15252 7.8733-14.618 4.4764-20.888 5.9473l-1.5546-.16365zm-343.33-5.1888c-6.3798-.0829-25.606-1.3692-12.52-8.2763 9.841-7.7608 22.378-4.8978 33.799-8.3702 12.583-2.3076 25.239-4.6772 36.665-10.688 2.4732 6.7365 22.249-4.0285 19.942 4.541-19.481 13.413-42.548 23.802-66.865 23.003-3.6965.43523-7.335.18769-11.021-.20971zm-33.299-19.258c-14.774-.21525-7.1538-9.2826 3.2492-7.5414 7.9132-3.7676 15.752-5.6015 24.53-2.764 9.7293 1.8081 20.093-3.0526 28.186-4.9392 6.5158-.96732 14.702-9.1843 22.602-4.0152 5.3757 2.1945 22.564 1.4639 9.5053 6.904-20.728 8.8705-42.802 14.388-65.461 13.204-7.5761.060729-15.192 1.2031-22.611-.84779zm21.827-16.133c-7.196-3.1028-18.029.89823-26.555.3917-4.8437-1.2822-23.382.3838-18.974-4.1765 14.97-4.9607 27.214-17.403 43.437-19.78 7.7127-6.4313 18.234-6.4433 27.453-9.4333 6.4883 8.783 16.071 13.156 25.914 17.159 1.6059 8.8667-14.684 8.0996-20.377 12.966-9.7506 2.8129-19.919 3.6357-30.016 4.3014l-.82178-1.3297z"/>
</svg>
