<?xml version="1.0" encoding="UTF-8"?>
<!-- Created with Inkscape (http://www.inkscape.org/) -->
<svg version="1.1" viewBox="0 0 466.67 889.33" xmlns="http://www.w3.org/2000/svg">
 <path d="m12.543 887c-2.7933-24.61-1.0328-50.253-2.1016-75.255 5.1918-9.5429 17.168-9.4382 12.188-26.111 3.0881-166.97.99049-333.99 1.7577-500.98.0097-16.761.0193-33.522.02895-50.283-6.8874-8.0953-17.778-14.501-24.416-20.249 3.1847-9.7894 21.976-3.072 31.288-5.9899 6.7719-9.743 12.093-19.724 19.152-28.791 16.653-25.588 36.158-49.269 52.472-75.133 12.437-17.516 27.08-33.532 38.04-51.961 7.5098-13.354 19.244-24.334 25.432-38.445 6.3888-5.7053 14.708-22.326 19.239-6.3319 6.79 12.126 15.468 22.564 27.329 28.868 14.686 9.2993 34.603 9.6677 49.067-.3375 11.554-7.259 18.486-21.739 20.647-34.755 8.362-2.4164 14.56 12.51 20.416 18.084 15.082 19.428 31.573 38.396 46.61 58.065 10.075 14.886 24.024 26.83 33.278 42.51 7.5109 7.3108 13.72 15.897 18.257 24.709 6.3173 8.493 15.273 16.369 20.106 25.16 7.0384 10.778 18.969 19.891 25.257 32.223 5.2854 9.0825 30.354-.28374 15.946 16.416-8.5052 8.4582-18.102 16.517-13.818 29.656 2.1297 184.8-.37543 369.65-.40474 554.47 15.773-4.1323 17.038 10.056 15.519 22.257-.91311 21.461 2.2038 43.412-1.4563 64.538h-42.461c-.22935-13.748-11.208-26.804-25.953-24.509-21.198-1.8555-43.495 2.0679-63.964-3.6276-12.157-3.5412-21.796-14.359-22.768-27.197-34.013-5.5731-68.869-.93222-103.25-2.0737-14.722-2.9046-22.627 1.686-25.613 15.744-13.934 12.052-32.038 17.719-50.355 15.848-20.288 1.9301-47.643-5.1877-60.534 14.883-.87522 15.362-13.959 10.356-25.587 10.932-9.0405-1.5589-22.947 3.1536-29.353-2.3333zm36.124-2.8579c14.978 5.5884 12.307-13.725 22.448-17.814 29.051-13.02 63.403-1.704 92.219-14.995 6.2033-3.235 26.411-19.327 12.061-19.501-52.583.27798-105.17.55595-157.75.83392-.79453 17.065-1.4471 34.13-.03702 51.183 10.275 1.6007 20.706.0172 31.058.29267zm409.16-3.1421c1.8738-16.093.29143-32.642.84036-48.909-48.669.79467-98.044-.0958-146.28 1.7412 1.6009 13.624 17.567 23.716 31.408 24.227 24.62 2.8905 51.604-4.6751 73.971 9.275 2.0379 13.197 8.9001 20.214 22.709 16.667 4.8389-1.7526 16.51 3.693 17.348-3zm.57984-62.876c3.9598-16.39-18.92-7.0097-28.276-9.457h-411.24c-8.1832 13.682.36132 21.511 15.195 17.474 141.31-.0469 282.61-.0937 423.92-.1406.13538-2.6255.27075-5.2509.40613-7.8764zm-15.266-94.59c1.6564-160.5 1.615-321.03.69995-481.53-.89234-16.969-12.617 4.529-16.113 10.006-6.3566 16.072-26.469 7.2963-39.698 9.3885-111.87-.49111-223.78-3.0068-335.6 1.6014-9.3611-6.3762-12.782-20.275-23.039-24.329-.02321 188.22-.04641 376.44-.06962 564.67 137.64.13357 275.28.26715 412.92.40072.30127-26.733.60255-53.467.90382-80.2zm-151.14 30.955c-63.11-1.4546-126.22-.71756-189.33.1513 1.1661-11.317-2.2406-24.905 1.6006-34.894 11.906-2.5702 20.069-2.2094 14.677-18.082-1.9489-66.71-.0916-133.59-.19631-200.36.45383-18.106.90765-36.211 1.3615-54.317-18.306-.88453-38.195-4.5928-53.22-14.573-1.1522-6.0291 12.481-13.146 19.551-16.358 10.314-3.2434 28.127 2.1791 33.603-6.9971 3.4455-14.809-8.6185-15.846-5.9431-29.215 2.4325-10.097-6.7668-31.741 10.274-27.338 22.444 2.5338 42.012-8.8559 61.625-17.727 14.04-3.2048 27.945-7.0302 42.105-9.6828-.0877-9.236 4.8042-14.183-.37404-20.172-.50073-6.2861-7.442-25.97 10.307-22.237 8.9756 1.4166 18.157-.12576 24.886 6.4308 6.3165 7.0934-5.0734 17.553 2.9561 24.479-4.7085 14.992 11.789 14.853 20.712 20.082 13.826 3.1983 26.696 11.047 39.486 14.944 13.014 6.1092 28.587 5.3898 43.421 5.7641 4.3006 10.229.84421 23.719 2.1729 35.198-14.609 1.1957-4.906 19.16-7.1742 28.867.51942 34.794 3.5626 69.539 1.7116 104.25 3.8228 63.992-1.0598 128.53-.034 192.24 11.593.30622 8.9253 16.997 12.362 25.716 4.898 16.907-6.4483 16.285-19.936 14.691-22.201-.28956-44.401-.57911-66.602-.86867zm-20.667-38.608c19.753.8507 39.858-2.1286 59.333 1.7491-4.5423-9.4128-21.16-4.1402-30.771-5.5655-44.787.64432-89.824-1.5402-134.45.87803-17.999 6.4796 13.854 3.9446 21.075 3.8926 28.267-.90238 56.537-.93744 84.816-.95419zm80.423-1.1488c-11.265 4.472-11.262-9.9832-16.894-17.24-2.0609 5.753-4.7687 24.663 7.3826 19.406 2.6786-1.1455 8.9312 1.6116 9.5117-2.1657zm-205.35-7.6651c5.4436-7.3454 20.758-3.2099 30.144-4.4112 9.3054-2.3437 28.431 3.3435 31.221-5.7253-2.6348-8.4422 6.0452-28.063-4.2562-28.931-10.077-1.4308-4.1626-21.075-6.4826-30.037 1.3576-10.072-3.187-25.978 1.6311-32.629 14.734 1.9608 10.66-19.781-3.3279-12.673-17.109 5.0906-15.943-16.555.93044-9.0281 32.584.96771 65.22-1.4437 97.826-1.8441 11.015-5.9976-18.72-1.1513-25.103-2.5192-36.818-.18244-73.897 1.8299-110.55.28878-11.246-14.746-8.1431 6.5412-8.4326 16.546v103c-11.499-2.533-9.4342 19.295-3.5964 7.9581zm83.508-7.1272c2.7549-8.0281-26.359-3.875-14.578 2.6474 4.5646-1.3143 10.889.4218 14.578-2.6474zm20.196 1.2208c1.7682-10.452 3.6319-22.318 1.6306-32.976-11.336-4.5579-22.129 1.0036-16.853 14.258-1.2717 10.431.49432 23.947 14.292 20.225zm27.227-2.3369c-2.217-9.0619-20.587-2.2688-20.941 1.0889 6.1755 1.1272 16.182.73444 20.941-1.0889zm53.468-5.4906c1.5609-19.288 3.0996-38.862 4.1592-58-.79843-23.538.57567-47.113.66998-70.667 11.207 2.0694 16.711-16.14 6.036-16.92-16.435-6.6594 3.9979-12.155 7.2574-16.425 1.0647-11-6.7132-11.072-13.314-20.166-2.1265-28.32-.90496-58.459-7.9194-86.49-1.4985-12.024-8.6113-24.555-22.483-23.333-4.7972-7.1842-6.3048-17.713-22.569-12.408-11.02-1.9177-24.309 1.2614-19.508 10.796 5.2108 7.6852 5.4693 19.91 4.8694 31.526-1.1458 15.237 4.4314 32.524-8.0519 44.302-14.731 13.985 8.7092 7.3062 10.702 19.506 9.672 10.477 24.683 15.618 38.56 18.589 8.4045 5.0897 28.875-2.3139 28.123 9.8224 14.659 5.3056 6.452 8.9637-6.6848 8.3663-60.288 3.5511-121.2 3.0388-181.04 6.1145-5.8389 15.868 4.5822 18.298 18.411 16.052 55.654-3.6718 111.71-1.4796 167.55-2.3239 15.103 7.0366-10.797 8.5088-5.3676 22.329-6.8556 6.3716-30.063-.70585-26.202 15.395-6.1856 7.7185-28.981-5.1663-23.77 8.977 7.1454 7.1229 16.729 8.1118 11.413 24.957-.54774 14.144-1.0955 28.289-1.6432 42.433-16.263-.62447-10.571 15.797-9.4061 26.313-.0255 14.74 20.272 4.874 29.788 7.4875 6.5119-2.0928 22.169 4.8682 20.42-6.233zm-89.433-59.044c2.4232-6.3951-.29636-33.754-5.6449-19.931.48887 14.873-3.5512 30.215.43185 44.725 8.213-5.4058 3.5052-16.48 5.2131-24.794zm41.355 16.273c2.8854-12.113 4.3811-25.933 2.3152-38.48-8.077-6.0882-1.8594 19.805-4.9462 26.607.70829 3.041-4.5439 21.958 2.631 11.874zm-58.963-3.5616c-3.7874-10.885-10.049 11.758-.14351 1.0105zm28.752-18.453c3.4033-11.287-5.1784-28.823-5.0676-8.3715 1.9335 7.2294-4.0506 31.664 5.1244 26.441.17631-5.9394-.0674-12.063-.0567-18.07zm18.156-2.9593c-4.8477-15.771-14.186 7.3894 0 0zm-22.056-21.567c12.248-8.1498-13.441-19.962-13.185-4.8656.37442 5.8311 8.9426 6.9717 13.185 4.8656zm-17.277-9.3546c-10.128-9.3586-23.695 5.9295-2.7058 2.1584.89644-.72464 4.532 1.1342 2.7058-2.1584zm40.4 1.0667c7.1365-7.6366-28.042-4.1781-14.613 1.6 4.6136-.89981 11.146 1.929 14.613-1.6zm-124.18-17.956c-3.5723-1.7676 1.9903 5.7131 0 0zm176.88-15.015c-5.846-2.7193-23.017-.87874-33.35-1.7916-44.354-.99459-88.725-.64795-133.09-1.0159-8.9833 7.1418 16.682 2.9966 22.104 4.197 47.744.57358 95.486.51614 143.23-.28213zm-177.77-1.4294c-8.686-6.8916-7.8289 5.7527 0 0zm-4-8.1574c-4.7519 2.1316-1.1725.14235 0 0zm-.8316-14.242c-4.3858-12.8-8.3153 6.3544 0 0zm63.498-9.6763c38.094-3.383 76.807.34716 114.67-4.2348-6.9505-5.0172-23.16-.8055-33.695-2.2496-42.31-.1902-84.594 1.8721-126.89 2.6866-5.4604 11.162 20.121 2.3979 27.643 4.8939 6.1157.0886 12.187-.66862 18.278-1.0961zm-54.355-4.1231c.50633-11.65 19.104-4.7338 27.208-7.738 14.355-8.28 35.892-11.799 39.494-30.396 5.5014-4.5965 27.584 3.0031 12.952-9.554-11.535-8.9684-4.0431-29.403-14.944-37.426-21.057 4.682-42.727 6.9946-64.355 7.3136-.0945 22.494-.18901 44.987-.28352 67.481-11.266.88578-3.0897 24.329-.0718 10.32zm109.87-60.098c-11.02-.95239-6.7553-18.35-8.1444-28.839 2.1185-8.5436-5.8949-25.091 2.6275-28.21 8.1942-.97715-19.379-8.2125-22.667-.0723 15.142-4.3317 15.633 8.3549 14 19.789-2.034 11.016 4.2061 27.762-3.3333 34.965-16.291-.27388-20.119 5.5294-1.06 3.7978 5.8917-.84807 13.72 1.1629 18.577-1.4305zm-119.84-15.37c-7.3908-6.3854-22.528 3.0788-2.4402 1.8028l1.893-.1361zm89.58-7.6262c8.637-3.1284 9.9165-20.735-2.2183-19.374-6.7946.0689 16.212 14.923-2.205 16-10.461-.0935-1.7599 9.9602 4.4234 3.3738zm108.6-21.483c.44547-9.5866 3.1612-21.501-1.5592-30.233-5.3313 6.9453-3.719 25.79-1.1075 32.342 2.1924 1.1933 2.1439-.87337 2.6666-2.109zm-119.16-4.2243c3.7576-8.1612 10.86-12.741 11.025-24.602-11.773-5.723-26.776-.4905-39.796-1.9813-13.648-2.1214-6.8278 17.675-22.946 14.155-13.173 5.7383-3.0864 14.193 7.4031 10.762 15.218-.68063 29.588 4.4882 44.284 6.6667.0101-1.6667.0202-3.3333.0303-5zm-84.03-4.3538c5.4263-8.1827-23.613-1.3564-7.9905 1.313 2.6815-.42899 5.9112 1.1086 7.9905-1.313zm16-12.81c2.4099-17.987-9.5615 1.3251-3.7109 8.8299 6.7537 1.9169 2.5694-5.2126 3.7109-8.8299zm101.33-3.1232c-7.2202-8.9272-22.611-4.0514-4.6667 1.182 1.1608-.74769 5.623 1.7016 4.6667-1.182zm-109.33-4.0469c4.3948-4.3173-31.608-.0214-14.505 1.3201 4.7149-.66891 10.453 1.4732 14.505-1.3201zm32 0c-4.2753-5.3389-28.696 1.4777-9.2954 1.3334 2.2113-1.0515 9.5626 2.031 9.2954-1.3334zm150.67-1.3015c-3.5996-4.5489-31.999-3.1895-15.333 1.2649 4.562-.62135 12.746 2.8301 15.333-1.2649zm33.333-.0318c-20.264-4.8762-6.2418 5.7123.31231.20184zm-115.33-68c-3.6792-8.7606-15.967 5.7826 0 0zm10.661-8.0095c-3.1367-6.5617-30.996-9.1765-16.803-2.9655 4.0532.97678 16.586 6.1913 16.803 2.9655zm.79809-11.756c-2.4253-5.6401-30.796-10.466-16.755-1.9352 3.0994.80407 19.992 8.2165 16.755 1.9352zm-27.237-9.1235c-6.1329-1.7956 1.7312 3.9368 0 0zm24.655-2.2205c-3.5774-7.261-31.113-7.4732-13.311-1.8277 2.9603.0243 21.787 9.2024 13.311 1.8277zm-129.88 58.19c-7.051-7.2433 15.599-3.403 21.59-7.7622 10.481 4.752-9.5415 9.2702-16.594 8.1406-1.7455.35341-3.3339.28629-4.9961-.37845zm229 .24592c-7.679 2.6011-25.593-7.0428-10.415-8.4656 8.5193-1.2396 35.696 3.5016 17.749 8.7319-2.3917-.25922-5.1145.95552-7.3333-.26626zm-227.03-12.848c-2.3063-15.216 26.821-4.3042 13.035 1.5036-3.5952-.96971-14.911 5.1129-13.035-1.5036zm221.04 1.6824c-15.965-.19926 1.2429-17.937 8.3552-6.1054 13.193 6.7414-2.3596 8.0975-8.3552 6.1054zm-289.35-83.494c-1.5264-2.8905-1.6632 2.7591 0 0zm57.333-2.6667c-3.1457-8.3015-2.9916 7.9382 0 0zm42.349 1.0839c-21.379-1.0292 6.1987 2.2714 0 0zm89.242-4.0585c-1.9156-6.2732.24716 13.265.10793.41417zm55.056 1.308c-.93025-11.706-4.565 13.854 0 0zm-168.53-2.6599c-4.5234-1.0282 1.3782 10.596.78453.78453zm55.215 4.4053c-4.2023-6.7219-3.6113 3.7718 0 0zm68.889-.30091c-6.1329-1.7956 1.7312 3.9368 0 0zm25.664-4.4444c-2.4486-3.3488-2.4593 12.271 0 0zm-228.19-5.2548c1.5158-16.989-21.306-.31514-4.2507 8.3081 3.4256 3.3622 4.357-6.2049 4.2507-8.3081zm54.976-2.1528c-1.6668-12.635-21.04-.34216-7.9326 8.9858 1.2568 6.9506 10.141-6.0222 7.9326-8.9858zm224.51 9.3384c1.6085-8.2176-4.4632 7.5857 0 0zm63.491 1.4026c-1.5264-2.8905-1.6632 2.7591 0 0zm-326.17-4.3333c11.808-11.025-14.471-17.324-9.7907-3.6667 3.0033 2.5007 7.23 13.001 9.7907 3.6667zm7.5069 2.3333c-3.8143-.89991.01262-.4478 0 0zm15.556-.88889c-3.5723-1.7676 1.9903 5.7132 0 0zm30.681-4.5357c12.08-11.711-19.239-11.724-9.3306 1.4602 2.1529 7.9966 7.3329 5.5466 9.3306-1.4602zm40.173 3.3893c-3.1517 5.211-2.5103 1.5575 0 0zm14.639-.29806c12.936-9.9793-8.4384-17.863-10.781-8.3333.60684 4.3819 6.4544 18.768 10.781 8.3333zm28.285.84263c-4.7518 2.1315-1.1726.14242 0 0zm109.33 2.1574c-1.5265-2.8905-1.6632 2.7591 0 0zm-156.27-9.9318c-.71195-11.9-23.72-.64632-7.5891 6.9459 2.8508 5.9667 10.011-2.8951 7.5891-6.9459zm40.283 4.9318c11.39-10.94-10.74-15.115-13.597-6.428 3.2029 3.9796 9.5906 17.66 13.597 6.428zm25.319 3c-3.8143-.89991.0126-.44777 0 0zm11.669-1.6667c15.557-10.099-13.454-16.454-8.5114-4.5472 2.1401 4.1174 3.3409 12.451 8.5114 4.5472zm24.998 1.6667c1.7308-5.2707-4.3553 4.9774 0 0zm14.873-6.2905c7.1343-11.319-22.882-6.52-8.027 4.7131 1.8687 6.7798 7.3487-1.5956 8.027-4.7131zm18.173 3.7514c12.68-11.094-17.959-14.476-9.2195-3.108 1.6308 4.9773 6.1664 11.621 9.2195 3.108zm23.621 3.2057c-1.5264-2.8905-1.6632 2.7591 0 0zm48 0c-1.5264-2.8905-1.6632 2.7591 0 0zm-277.1-5.3333c5.528-12.664-20.501-8.2423-7.8318 2.6667 2.9567 3.2403 8.1495 2.3849 7.8318-2.6667zm49.438.35303c7.3834-13.694-13.472-7.4539-2.8832 3.9081 1.6115.90731 2.9532-2.2563 2.8832-3.9081zm82.324-5.353c-3.4904-6.8787-21.598-2.5583-8.6958 6.8193 2.1605 8.4842 8.6676-4.4002 8.6958-6.8193zm33.34 7.6667c13.329-6.8545-7.5446-17.264-8-5.0263 1.8255 1.6318 7.1029 11.71 8 5.0263zm56.42-2.7119c9.5693-11.758-17.938-9.3249-7.1351 2.5244 4.1457 4.0171 5.5713 2.0118 7.1351-2.5244zm17.546.77812c10.791-11.916-17.939-10.426-6.1477.0663 2.7437 4.1954 4.1682 5.8806 6.1477-.0663zm16.455-1.2478c10.142-13.795-21.74-5.6558-4.4212 5.0977 2.8504.9762 2.7912-3.7572 4.4212-5.0977zm32.185-4.4851c-9.2121-13.867-7.4394 16.814-1.8365 6.3333.74551-2.1107 2.3853-3.9317 1.8365-6.3333zm15.106 5.7943c11.679-9.9466-16.417-12.589-7.9948-2.1276 2.4849 3.657 5.2075 10.418 7.9948 2.1276zm-32.04.87238c14.345-9.1024-13.827-14.424-7.1571-3.2097 2.0045 2.3355 3.8127 7.7223 7.1571 3.2097zm49.586-6c-3.5866-11.388-19.031 4.958-4.3119 6.2352 2.0037-1.8283 4.0708-3.3043 4.3119-6.2352zm13.172 2.4529c9.7238-12.371-17.422-4.7125-3.9728 5.2138 1.8169-.51161 2.5352-3.9173 3.9728-5.2138zm10.237-6.7862c-3.0529-5.781-3.3264 5.5182 0 0zm-393.33-2.1555c-8.7479-3.6448-8.3266 4.9923 0 0zm79-1.4521c-27.623-.70928 11.363 2.164 0 0zm277 .27431c-1.5264-2.8905-1.6632 2.7591 0 0zm-165.25-5.0253c71.862-.38816 143.74.5632 215.58-1.6414 16.737-9.1571 6.9002-13.085-7.3414-10.647-139.65.35104-279.36-.079-418.97.75882-18.698-2.6494 2.3714 16.822 11.356 13.051 66.43-2.2913 132.92-1.0057 199.38-1.5217zm18.923-18.818c63.446-.12911 126.89-.25821 190.34-.38732-.10863-7.6119-12.164-17.018-17.663-24.21-6.8136-14.814-22.735-24.482-28.872-39.954-14.501-13.426-22.701-31.3-36.879-44.939-11.604-17.318-25.726-32.732-37.945-49.333-11.757-12.653-20.996-27.616-33.576-39.606-6.5885 10.496-9.3219 23.491-20.38 31.047-11.562 12.021-29.72 8.6041-44.53 7.4566-13.24-5.0502-24.71-15.29-33.566-25.824-3.7582-14.749-13.238-15.494-18.737-1.0524-8.8155 15.828-21.835 28.438-30.526 43.962-7.3318 14.243-20.641 25.495-27.68 38.924-10.313 12.362-18.732 25.014-27.381 38.116-12.096 14.827-20.357 30.785-32.179 45.643-2.8351 7.068-23.779 23.088-5.7576 21.195 68.315-1.5005 136.92-.54847 205.33-1.0382zm-48.404-29.157c-7.6379-7.2471-12.662-17.858-21.267-14.698.47301-15.093-16.401-.53392-24.689-4.66-12.372 2.1412-26.625-5.0851-23.303-19.348 3.3782-17.869 26.324-14.353 39.01-8.9856 14.165 10.321 4.8969-20.566 16.062-5.3078 9.0349-3.0837 8.8332-19.933 21.988-20.92 10.996-1.0566 21.766 5.2939 22.072 17.191 5.3572 16.491 3.1399-10.843 11.734-13.181 11.916-12.504 35.531-1.8073 35.465 15.206 7.0718-.79919 17.187-8.4098 13.662 9.2607 9.7417-.42064 20.769-11.411 32.974-7.5556 14.083-2.0705 25.275 17.343 13.928 27.501-11.693 13.397-31.3 6.8705-45.409 1.8326 3.1954 16.983-11.583.20747-15.092 12.085-2.3594 15.972-25.952 22.533-33.1 6.7019-5.9252-8.899-11.258-24.753-14.672-4.9405-2.2181 13.603-19.777 19.583-29.36 9.8197zm126.95-23.949c12.043-4.1136 12.866-20.127.91106-25.051-12.361-1.8276-34.194 4.6469-27.88 20.514 8.0006 4.2606 18.491 11.631 26.969 4.5373zm-163.53-2.9138c12.325-3.3798 14.684-14.85.6417-17.398-8.5448-2.1388-24.076-6.0428-28.494 3.4201-5.3685 14.219 8.4655 20.667 20.396 16.447 2.8977.37934 5.113-.99458 7.4566-2.4688zm-39.358 734.53c1.5265-2.8905 1.6632 2.7591 0 0z"/>
</svg>
